<svg xmlns="http://www.w3.org/2000/svg" width="245.2" height="37.6" viewBox="0 0 245.2 37.6">
  <style>
    .st1{fill:#fff}
  </style>
  <path fill="#6e6f71" d="M.5.5h244.2v36.6H.5z"/>
  <path class="st1" d="M53.3 7.3c.1-.1.5-.2 1.4-.2 1.4 0 2.2.1 2.2.3l.1.5v.3c0 .1.1.4.1.7 0 .3.1.7.1 1l.4 3.1c0 .1.1.5.1 1 .1.6.2 1.3.3 2.2.1.9.3 1.7.4 2.5.2 1.2.3 2.3.5 3.3.1 1.1.3 1.8.3 2.3.1.5.1.9.2 1.3s.1.7.2 1c.3 1.6.4 2.6.4 2.8.1 1.2.3 2 .4 2.4v.2c0 .1-.3.2-.8.2h-2.2l-.1-1c0-.1-.1-.7-.2-1.6-.1-.9-.3-1.6-.3-2.2l-.3-2.8-1.4-.1h-.5c-.6 0-.9.1-.9.2 0 .2-.1.9-.2 2-.3 1.7-.5 2.8-.5 3.3l-.4 2.1h-2.9l.1-.7c.2-1.1.7-5.3 1.7-12.7.2-1.7.5-3.5.8-5.3.3-1.8.5-3.3.7-4.3.1-1.1.2-1.7.3-1.8zm1.8 5.8s0 .3-.1.8-.1 1.1-.2 1.8-.1 1.3-.2 1.8c-.2 1.9-.4 3-.5 3.4v.2c0 .1.1.1.3.2.2 0 .3.1.5.1h.1c.7 0 1 0 1.1-.1v-.4c0-.4 0-.7-.1-1.1-.6-4.5-.9-6.7-.9-6.7z"/>
  <path class="st1" d="M65 7.1c.5-.2 1.4-.3 2.7-.3h.1c1.1 0 1.9.1 2.5.3.6.2.9.6 1.1 1.1.1.3.2 1.3.2 2.7 0 .4 0 1-.1 1.8 0 .8-.1 1.3-.1 1.6l-.1 1.7h-2.6v-3.8c0-1.2-.1-1.9-.2-2.2-.1-.2-.5-.4-1.1-.4-.3 0-.5 0-.6.1-.1.1-.2.3-.3.7-.1.4-.3 2.7-.4 6.7-.2 4.1-.3 7.1-.3 9v.1c0 1.4.1 2.2.3 2.5.1.3.4.4.8.4.3 0 .7-.1 1-.4.2-.2.4-.5.4-.8.1-.3.2-1.1.3-2.1 0-.4 0-.8.1-1.3 0-.5.1-.8.1-1.1V23c0-.2.5-.3 1.5-.3.6 0 1 .1 1 .2v.5c0 .8 0 1.8-.1 3.1-.2 1.6-.2 2.5-.3 3.1-.1.5-.2 1-.4 1.3-.3.5-.7.9-1.2 1.1-.5.2-1.3.3-2.4.3s-1.9-.1-2.4-.4c-.5-.3-1-.7-1.4-1.4-.3-.5-.4-1.7-.4-3.5 0-1.7.1-5.6.4-11.7.1-3.1.2-4.9.3-5.5.1-.6.2-1.1.5-1.5.2-.6.6-1 1.1-1.2z"/>
  <path class="st1" d="M77.6 6.7c.4-.1.8-.2 1.2-.2 1.2 0 2.1.2 2.8.5.5.3.9.7 1.2 1.2.2.4.4 1.8.4 4 0 .4 0 2.5-.1 6.5-.1 6.5-.2 10-.2 10.5-.2.9-.7 1.7-1.5 2.2-.8.5-1.9.8-3.3.8h-.3c-1.2 0-2-.3-2.5-.9-.6-.8-.9-1.9-.9-3.3v-.2l.1-8c.1-6.1.2-9.5.3-10.2.1-.7.4-1.3.9-1.8.4-.5 1.1-.9 1.9-1.1zm1.3 3.5c-.5 0-.8.4-.9 1.1-.1.7-.2 2.8-.2 6.5 0 3-.1 6.1-.2 9.2v1.6c0 .4 0 .6.1.7 0 .1.2.2.4.2.1.1.4.1.7.1.5 0 .8-.1 1.1-.4.1-.1.2-.8.3-1.9 0-1.1.1-3.5.1-7.1v-8.4c0-.7-.1-1.1-.2-1.4s-.4-.4-.8-.4h-.2l-.2.2z"/>
  <path class="st1" d="M86.2 18l.3-11.2h6.4c.6.1 1.1.3 1.3.7.2.4.3 1.2.3 2.4V13.5c0 2.3-.1 3.8-.2 4.5-.1.7-.7 1.2-1.9 1.4-.2 0-.4.1-.5.2l.6 3.2.8 4.1c.2 1.3.4 2.3.5 2.8l.4 2.1-1.3.1-1.3.1-.6-3-1.7-9.6-.3 3.5-.3 9.2H86v-1.4c0-.1.1-4.4.2-12.7zm5.2-7.5c-.3-.3-.7-.4-1.1-.4h-.1l-.9.1v7c0 .1.1.1.3.1.3 0 .7-.1 1.2-.3.3-.1.6-.2.7-.4.1-.1.2-.4.2-.9.1-1 .2-1.9.2-2.8v-.4c-.2-1.1-.3-1.8-.5-2z"/>
  <path class="st1" d="M97.9 6.8c0-.1.8-.1 2.2-.1h1c1.5 0 2.4.1 2.8.1.4.1.7.2 1.1.5.7.5 1.2 1.1 1.3 1.8.2.7.3 2.1.3 4.2v1.1c0 4.6-.1 7.7-.2 9.4-.1 1.7-.3 3.5-.5 5.2-.1.7-.2 1.1-.3 1.4-.1.2-.4.5-.7.7-.3.2-.7.4-1.1.4-.4.1-1.4.1-2.9.1H97.3c-.2 0-.3-.4-.3-1.1v-.8-.9c.1-1.5.1-4.2.2-8 .5-9.2.7-13.9.7-14zm5.5 7.5V10l-1.2-.1-1.2-.1v5.6c0 .3 0 1.4-.1 3.3s-.1 3.4-.1 4.6l-.2 5.5 1.2-.1c.6 0 .9-.1 1-.2.1-.1.2-.2.3-.5.2-.4.3-5.1.3-13.7z"/>
  <path class="st1" d="M111.3 7.2c0-.1.8-.2 2.3-.2h2.1l.3 2.2c.9 7.7 1.7 14.1 2.2 19.3.1 1.2.2 2.1.4 2.8l.1.8-1.7.1-1.4.1c-.1-.9-.2-2-.3-3.1 0-.4-.1-1-.2-1.7s-.1-1.3-.2-1.7c0-.4-.1-.7-.1-.7s-.2-.1-.6-.1h-2.1l-.4 3.3c-.1 1.2-.3 2.2-.3 3l-.1.8-1.5.1-1.5.1.1-.7c0-.1.2-1.7.6-5 .4-3.3.8-6.9 1.2-10.9.7-4.3 1-7 1.1-8.5zm3 10.1l-.6-6.3-.4 3.8-.6 6.2v.8l2.2-.1-.6-4.4z"/>
  <path class="st1" d="M124.8 31.8l-2.9.2v-2.6-3.9c0-2.2 0-4 .1-5.4.1-4.5.1-6.9.2-7.4v-.9c0-.5 0-.9.1-1.2h-2.8l.1-1.8.1-1.8 2.7-.1 2.7.1 2.8.1v3.6h-2.5v2.2c0 1.2 0 2.2-.1 2.9v1l-.3 7.4v7.6z"/>
  <path class="st1" d="M130.5 10.9l.1-3.9H136.9V10.1h-.2c-1.2 0-2.2 0-3.1.1v7.1h3v3.6H135c-.9 0-1.4 0-1.5.1 0 0-.1 1.3-.1 3.8v3.6h2.7c.2 0 .3 0 .4.1 0 0 .1.1.1.3v1.7l.1 1.5H130.4v-6.1c0-3.5.1-6.4.1-8.5v-2.8-1.8-1.9z"/>
  <g>
    <path class="st1" d="M150.2 6.8c.3-.1.7-.1 1.2-.1 1.2 0 2.1.2 2.8.5.5.3.9.7 1.2 1.2.2.4.4 1.8.4 4 0 .4 0 2.5-.1 6.5-.1 6.5-.2 10-.2 10.5-.2 1.2-.9 2.1-2.2 2.5l.1.5c.1.4.2.7.2.8v.1c0 .1 0 .1-.1.1l-.1.1h-.1-.2c-.1 0-.1 0-.2.1-.5.1-.8.2-1.1.2-.2 0-.4-.1-.4-.2l-.3-1.4h-.8c-1.3 0-2.2-.3-2.7-.9-.6-.8-.9-1.9-.9-3.3v-.2l.1-8c.1-6.1.2-9.5.3-10.2.1-.7.4-1.3 1-1.8s1.3-.8 2.1-1zm1.4 3.4h-.1-.6s-.1 0-.2.1-.2.1-.3.2c0 .1-.1.2-.2.4s-.2.4-.2.6c0 .2-.1.5-.1.9-.1.4-.1.8-.1 1.2 0 .4 0 1-.1 1.6v2c0 3-.1 6.1-.2 9.2v.3c0 1.4.3 2.3 1 2.7-.3-1.3-.4-2.1-.4-2.3 0-.2.4-.3 1.2-.3.3 0 .5 0 .7.1.1 0 .2.1.2.1s0 .1.1.3l.4 1.4c.2-.9.3-3.7.3-8.4v-8.4c0-.6-.1-1.1-.2-1.3-.1-.3-.4-.4-.9-.4h-.3z"/>
    <path class="st1" d="M164.5 18.7l.4-11.8 1.4.1 1.4.1-.1 4.4c0 3.8-.1 7.9-.3 12.2-.1 3.1-.3 5.1-.4 6-.2.9-.7 1.6-1.4 2.1-.4.3-.8.4-1.1.5-.3.1-.9.1-1.9.1-1.2 0-2.1-.1-2.6-.4s-.9-.7-1.2-1.3c-.2-.5-.3-1.3-.3-2.6 0-.3 0-1.3.1-3.2.1-7 .3-12.1.5-15.3l.1-2.4h3l-.1 1c-.1.8-.2 4.8-.2 12v4.7c0 2.6.1 4 .3 4.1.1.1.3.1.5.1.6 0 1-.2 1.1-.5.4-.5.6-3.7.8-9.9z"/>
    <path class="st1" d="M170.8 10.9l.1-3.9H177.2V10.1h-.2c-1.2 0-2.2 0-3.1.1v7.1h3v3.6h-1.6c-.9 0-1.4 0-1.5.1 0 0-.1 1.3-.1 3.8v3.6h2.7c.2 0 .3 0 .4.1 0 0 .1.1.1.3v1.7l.1 1.5h-6.2v-6.1c0-3.5.1-6.4.1-8.5v-2.8-1.8c-.1-.9-.1-1.5-.1-1.9z"/>
  </g>
  <g>
    <path class="st1" d="M180.1 28.1l2.7.1v3.6h-2.5l-.2-3.7z"/>
    <path class="st1" d="M186 28.1l2.7.1v3.6h-2.5l-.2-3.7z"/>
    <path class="st1" d="M191.8 28.1l2.7.1v3.6H192l-.2-3.7z"/>
  </g>
  <path fill="none" stroke="#6e72b4" d="M.5.5h244.2v36.6H.5z"/>
</svg>