<svg xmlns="http://www.w3.org/2000/svg" width="243.4" height="62" viewBox="0 0 243.4 62" style="width:190px"><style>.st7{fill:#fff}.st9{fill:#333}</style><g id="XMLID_1_"><path d="M61.9 50.7v4c0 3.7-3 6.7-6.7 6.7H12.5l21.8-26.9 27.6 16.2z" fill="#1fae95"></path><path fill="#676ea9" d="M61.9 14.7v36L34.3 34.5z"></path><path d="M61.9 12.1v2.5L34.3 34.5 28.2 5.4h27c3.7 0 6.7 3 6.7 6.7z" fill="#8cc140"></path><path d="M28.2 5.4l6.1 29.1-28.4-6.8V12.1c0-3.7 3-6.7 6.7-6.7h15.6z" fill="#f2a41e"></path><path d="M34.3 34.5L12.5 61.4c-3.7-.1-6.7-3.1-6.7-6.7v-27l28.5 6.8z" fill="#e61980"></path></g><path fill="#f2ac19" d="M49.4 24l.9 2.4 5.9-1z"></path><path fill="#f08020" d="M56.2 25.4l-5.9 1 1.2 3z"></path><path class="st7" d="M51.8 29.7c0 4.7-3.4 7.4-3.4 7.4s-14 13.2-14 13.3c-.1.1-.3.4-.6.4s-.6-.3-.6-.4c-.1-.1-14-13.3-14-13.3s-3.4-2.7-3.4-7.4 3.8-9.7 10-9.7c5.5 0 8.1 4.4 8.1 4.4S36.5 20 42 20c6 0 9.8 5.1 9.8 9.7z"></path><circle cx="45.7" cy="27.5" r="2.7" fill="#da222e"></circle><circle class="st7" cx="46.6" cy="27.1" r=".7"></circle><path class="st9" d="M241.9 58.6c-.6 0-1.1-.3-1.3-.9l-17.7-42-18.6 42c-.3.7-1.2 1.1-1.9.7-.7-.3-1.1-1.2-.7-1.9l20-45.1c.2-.5.8-.9 1.3-.9.6 0 1.1.4 1.3.9l19 45.1c.3.7 0 1.6-.8 1.9-.2.1-.4.2-.6.2zM116.1 58.6c-.6 0-1.1-.3-1.3-.9l-17.7-42-18.6 42c-.3.7-1.2 1.1-1.9.7-.7-.3-1.1-1.2-.7-1.9l20-45.1c.2-.5.8-.9 1.3-.9.6 0 1.1.4 1.3.9l19 45.1c.3.7 0 1.6-.8 1.9-.2.1-.4.2-.6.2zM124.8 58.5c-.8 0-1.5-.6-1.5-1.4V12.3c0-.8.6-1.4 1.5-1.4h27.7c.8 0 1.5.6 1.5 1.4 0 .8-.6 1.4-1.5 1.4h-26.2V57c-.1.9-.7 1.5-1.5 1.5z"></path><path class="st9" d="M144.4 36h-19.3c-.8 0-1.5-.6-1.5-1.4 0-.8.6-1.4 1.5-1.4h19.3c.8 0 1.5.6 1.5 1.4 0 .7-.7 1.4-1.5 1.4zM177.3 58.2h-15.8c-.8 0-1.5-.6-1.5-1.4V12.3c0-.8.6-1.4 1.5-1.4h15.8c10.2 0 20.5 7.3 20.5 23.7s-10.3 23.6-20.5 23.6zm-14.4-2.9h14.3c8.8 0 17.6-6.4 17.6-20.8s-8.8-20.8-17.6-20.8h-14.3v41.6z"></path></svg>