<svg xmlns="http://www.w3.org/2000/svg" width="285" height="597.2"><style>.st2{fill:#091725}</style><path fill="#589120" d="M0 0h285v595H0z"/><path d="M0 0v171.7c6 2.4 10.9 4.9 16.3 7.5-1.4 26.6.1 53.2 1.3 79.8.3 6.4-1.5 12.8-1.4 19.2.2 9.2.5 18.4 2.1 27.4 5.9 32 12.2 63.9 18.7 95.8 3.3 16-.2 31.4-1.8 47.2-.9 8.5-.7 17.6 1.6 25.6 3.1 11.1 15.2 18.8 25.6 22.3 6.1 2 12.5 3 19.5 4.5.2-6.3-3.5-9-6.6-12-6.6-6.4-11.2-22-5.4-30 3 10.3-1.5 22.9 9.6 30.1 3.7 2.4-1.3-14.4-.1-19 4.1 8.1 11.1 22.3 15.7 29.7 7.9 13 10.4 27 9 41.8-1.7 17.6-5 48.2-5.1 53.4 0 .1.1.2.1.3 0 4.2 103.5.2 107.8 0 .1 0 0 0 0 0 0-.1 0-.2-.1-.3-3.4-18.4 1.2-41.6-7.1-74.5-1.8-7.2-.9-13.8.5-20.6 6.1-31 9.8-62.2 10.8-93.8 0-1.7-.1-3.3 0-4.9.1-7.6.1-7.5 7.7-8.2 34.4-2.9 41.4-26.9 36.4-55.7-6.7-38.7-35.1-86-47.7-102.3-2.3-2.9-4.1-5.9-6.4-9.3 35.5-34.1-45-65.8 84-61.8V0H0zm76.9 323.9c-8 10.8-17.9 20.6-20.9 34.5v-5.9c0-14.7.6-29.5-.7-44.1-1.3-14.3-3.7-28.5-1.9-42.8 1.3-10.2 2.7-20.4 4-30.6l2.4-18c8.1 10.8 15.3 21.5 21.8 32.6 14.9 25.7 12.7 50.5-4.7 74.3z" fill="#89c654"/><path class="st2" d="M150.6 572c-.7 0-1.3.4-1.3 1.1 0 .5.2.9.6.9h7.1v-2h-6.4zm2.4-3h-6v2h6c.4 0 .7 0 .9-.3.2-.2.4-.3.4-.7 0-.7-.6-1-1.3-1zm-2.4-4c-.7 0-1.3.8-1.3 1.5s.6 1.5 1.3 1.5h6.4v-3h-6.4zm2.4-3h-6v3h6c.7 0 1.3-.8 1.3-1.5s-.6-1.5-1.3-1.5zm-2.4-3c-.7 0-1.3.8-1.3 1.5s.6 1.5 1.3 1.5h6.4v-3h-6.4zm2.4-3h-6v2h6c.7 0 1.3-.3 1.3-1s-.6-1-1.3-1zm-2.4-4c-.7 0-1.3.8-1.3 1.5s.6 1.5 1.3 1.5h6.4v-3h-6.4zm2.4-3h-6v3h6c.7 0 1.3-.8 1.3-1.5s-.6-1.5-1.3-1.5zm-2.4-3c-.7 0-1.3.6-1.3 1.3 0 .2.1.6.2.8.2.4.6.9 1.1.9h6.4v-3h-6.4zm2.4-3h-6v2h6c.7 0 1.3-.3 1.3-1s-.6-1-1.3-1zm-2.4-3c-.7 0-1.3.3-1.3 1s.6 1 1.3 1h6.4v-2h-6.4zm2.4-4h-6v3h6c.7 0 1.3-.8 1.3-1.5s-.6-1.5-1.3-1.5zm-2.4-3c-.7 0-1.3.8-1.3 1.5s.6 1.5 1.3 1.5h6.4v-3h-6.4zm2.4-3h-6v2h6c.7 0 1.3-.3 1.3-1s-.6-1-1.3-1zm1.7-33.9c-.1-.3-.1-.5-.3-.7 0 0 0-.1-.1-.1l-.1-.1v-.1c-.2-.2-.3-.3-.3-.5v3.4h-4v-3.3c-1 .2-.8.5-1 .8-.2.4-.5.9-.5 1.5 0 .8.3 1.6.9 2.1.2.2.4.4.7.5.2.1.4.2.6.2.1 0 .2.1.3.1.2 0 .4.1.6.1.2 0 .4 0 .7-.1.5-.1 1-.4 1.4-.7.1-.1.1-.2.2-.2.6 0 1-1.3 1-2.1 0-.3 0-.5-.1-.8zm-.1-.3c0-.1-.1-.2-.2-.3 0 0 0-.1-.1-.1l-.1-.1v-.1c-.2-.2-.3-.3-.3-.5v3.4h-4v-3.3c-1 .2-.8.5-1 .8-.2.4-.5.9-.5 1.5 0 .8.3 1.6.9 2.1.2.2.4.4.7.5.2.1.4.2.6.2.1 0 .2.1.3.1.2 0 .4.1.6.1.2 0 .4 0 .7-.1.5-.1 1-.3 1.4-.7.1-.1.1-.2.2-.2s.1-.1.2-.2c.5-.5.8-1.2.8-1.9.1-.5 0-.9-.2-1.2zm.7-1.5c-.6-.8-1.3-1.3-2.3-1.6l-.1-.1V490h-3v2.7c-.9.3-1.7.9-2.3 1.6-.5.7-.8 1.6-.8 2.6 0 1.2.6 2.3 1.4 3.1.9.8 2.1 1.3 3.4 1.3 1.3 0 2.4-.3 3.3-1.3.3 0 .6-.6.8-1 .2-.3.3-.5.4-.8.1-.4.2-.9.2-1.3-.1-1-.4-1.9-1-2.6zm.1 4.1c-.2.5-.5.9-.9 1.3s-.9.7-1.4.9c-.5.2-1 .3-1.6.3-.6 0-1.1-.1-1.6-.3-.5-.2-1-.5-1.4-.9-.4-.4-.7-.8-.9-1.3-.2-.5-.3-1-.3-1.5s.1-1.1.3-1.5c.2-.5.5-.9.9-1.3.2-.2.4-.3.6-.5.2-.1.3-.3.5-.4l.2-.1v1.5c-1 .2-.8.5-1 .8-.2.4-.5.9-.5 1.5 0 .8.3 1.6.9 2.1.2.2.4.4.7.5.2.1.4.2.6.2.1 0 .2.1.3.1.2 0 .4.1.6.1.2 0 .4 0 .7-.1.5-.1 1-.3 1.4-.7.1-.1.1-.2.2-.2s.1-.1.2-.2c.5-.5.8-1.2.8-1.9 0-.4-.1-.8-.2-1.1 0-.1-.1-.2-.2-.3 0 0 0-.1-.1-.1l-.1-.1v-.1c-.2-.2-.3-.3-.3-.5v3.4h-1v-4.9l.3.1c.3.1.5.2.7.4.2.1.4.3.6.5.4.4.7.8.9 1.3.2.4.3 1 .3 1.5.1.5 0 1.1-.2 1.5zm-.1-4.1c-.6-.8-1.3-1.3-2.3-1.6l-.1-.1V490h-3v2.7c-.9.3-1.7.9-2.3 1.6-.5.7-.8 1.6-.8 2.6 0 1.2.6 2.3 1.4 3.1.9.8 2.1 1.3 3.4 1.3 1.3 0 2.4-.3 3.3-1.3.3 0 .6-.6.8-1 .2-.3.3-.5.4-.8.1-.4.2-.9.2-1.3-.1-1-.4-1.9-1-2.6zm.1 4.1c-.2.5-.5.9-.9 1.3s-.9.7-1.4.9c-.5.2-1 .3-1.6.3-.6 0-1.1-.1-1.6-.3-.5-.2-1-.5-1.4-.9-.4-.4-.7-.8-.9-1.3-.2-.5-.3-1-.3-1.5s.1-1.1.3-1.5c.2-.5.5-.9.9-1.3.2-.2.4-.3.6-.5.2-.1.3-.3.5-.4l.2-.1v1.5c-1 .2-.8.5-1 .8-.2.4-.5.9-.5 1.5 0 .8.3 1.6.9 2.1.2.2.4.4.7.5.2.1.4.2.6.2.1 0 .2.1.3.1.2 0 .4.1.6.1.2 0 .4 0 .7-.1.5-.1 1-.3 1.4-.7.1-.1.1-.2.2-.2s.1-.1.2-.2c.5-.5.8-1.2.8-1.9 0-.4-.1-.8-.2-1.1 0-.1-.1-.2-.2-.3 0 0 0-.1-.1-.1l-.1-.1v-.1c-.2-.2-.3-.3-.3-.5v3.4h-1v-4.9l.3.1c.3.1.5.2.7.4.2.1.4.3.6.5.4.4.7.8.9 1.3.2.4.3 1 .3 1.5.1.5 0 1.1-.2 1.5zm2.6 19.5l-1-14.1 2.4-14.3-5.4-6.5h-5.5l-4.7 6.5 2.2 14.4-1 15.1c-.1.4-.1.9-.1 1.3 0 3 2 5.7 4.8 6.7-.2.2-.3.4-.3.7 0 .7.6 1.2 1.3 1.2h6.4v-2h-2c2.2-2 3.6-3.7 3.6-6.4-.1-.8.3-1.8-.7-2.6zm-12-21c0-.7.2-1.4.4-2.1.3-.7.7-1.3 1.2-1.7.3-.3.9-.5 1.2-.7.3-.2.1-.3 1.1-.4V492.8c-.9.3-1.7.9-2.3 1.6-.5.7-.8 1.6-.8 2.6 0 1.2.6 2.3 1.4 3.1.9.8 2.1 1.3 3.4 1.3 1.3 0 2.4-.3 3.3-1.3.3 0 .6-.6.8-1 .2-.3.3-.5.4-.8.1-.4.2-.9.2-1.3 0-1-.3-1.9-.9-2.6-.6-.8-1.3-1.3-2.3-1.6l-.1-.1V490h-3v-1h4v3c0 .1.5.3.7.4.3.2.6.4.9.7.5.5.9 1.1 1.2 1.7.3.6.4 1.3.4 2.1 0 .7-.2 1.4-.4 2-.3.7-.7 1.2-1.3 1.8-.5.5-1.1.9-1.8 1.2-.6.3-1.4.4-2.1.4-.8 0-1.5-.1-2.1-.4-.7-.3-1.3-.7-1.8-1.2s-.9-1.1-1.2-1.8c-.4-.6-.5-1.3-.5-2zm3.4 2.1c.2.2.4.4.7.5.2.1.4.2.6.2.1 0 .2.1.3.1.2 0 .4.1.6.1.2 0 .4 0 .7-.1.5-.1 1-.3 1.4-.7.1-.1.1-.2.2-.2s.1-.1.2-.2c.5-.5.8-1.2.8-1.9 0-.4-.1-.8-.2-1.1 0-.1-.1-.2-.2-.3 0 0 0-.1-.1-.1l-.1-.1v-.1c-.2-.2-.3-.3-.3-.5v3.4h-1v-4.9l.3.1c.3.1.5.2.7.4.2.1.4.3.6.5.4.4.7.8.9 1.3.2.4.3 1 .3 1.5s-.1 1-.3 1.5c-.2.5-.5.9-.9 1.3s-.9.7-1.4.9c-.5.2-1 .3-1.6.3-.6 0-1.1-.1-1.6-.3-.5-.2-1-.5-1.4-.9-.4-.4-.7-.8-.9-1.3-.2-.5-.3-1-.3-1.5s.1-1.1.3-1.5c.2-.5.5-.9.9-1.3.2-.2.4-.3.6-.5.2-.1.3-.3.5-.4l.2-.1v1.5c-1 .2-.8.5-1 .8-.2.4-.5.9-.5 1.5.1.9.4 1.6 1 2.1zm.2 28.4c.2-.2.4-.4.7-.4-.3.1-.5.2-.7.4zm2.1-1.4c-1.1 0-2.1 0-3-1h4.2c.7 0 1.3-.3 1.3-1s-.6-1-1.3-1h-6.4c-.3-1-.4-1.4-.4-2.2 0-.6.1-1.8.3-1.8h4.4c-.8 0-1.4.8-1.4 1.5s.6 1.5 1.4 1.5h6.4c-.7 2-2.9 4-5.5 4zm1.2-7c.7 0 1.4-.8 1.4-1.5s-.6-1.5-1.4-1.5h-4.8c1-1 2.2-1.5 3.6-1.5 2.7 0 5 2.5 5.5 4.5h-4.3zm-3.7-58.2c-.1-.7-.8-1.2-1.5-1l-6.2 1.5.4 2.6 6.2-1.5c.7-.2 1.2-.9 1.1-1.6zm-2.4-7.1c-.2-.7-1-1.1-1.7-.9l-5.7 1.7.8 2.7 5.7-1.7c.8-.3 1.2-1.1.9-1.8zm2.6 13.8l-6.4 1v2.6l6.4-1c.7-.1 1.3-.8 1.3-1.5 0-.6-.6-1.2-1.3-1.1zm1 7.5l-6.4.4v2.6l6.4-.4c.7 0 1.3-.6 1.3-1.4 0-.7-.6-1.3-1.3-1.2zm.9 3.6c-.7 0-1.4.5-1.4 1.2s.7 1.4 1.4 1.4l6.6.4V479l-6.6-.4zm1-7.4c-.7-.1-1.4.4-1.4 1.1 0 .7.8 1.4 1.5 1.5l6.7.9v-2.6l-6.8-.9zm1.4-7.8c-.7-.2-1.4.3-1.5 1-.1.7.4 1.4 1.1 1.6l6.2 1.5.4-2.6-6.2-1.5zm2.6-7c-.7-.2-1.5.2-1.7.9-.2.7.2 1.5.9 1.7l5.7 1.7.8-2.6-5.7-1.7zm2.3-7.2c-.7-.2-1.5.1-1.7.9-.2.7.2 1.5.9 1.7l5.8 2 .8-2.6-5.8-2zm-14.1-2.7c-.2-.7-1-1.1-1.7-.9l-5.8 2 .8 2.6 5.8-2c.7-.2 1.1-1 .9-1.7zm-3-7.4c-.3-.7-1.1-1-1.8-.6l-5.3 2.6 1.2 2.5 5.3-2.6c.6-.4.9-1.2.6-1.9zm-3.6-6.5c-.3-.7-1.2-1-1.9-.6l-5.3 2.6 1.2 2.5 5.3-2.6c.8-.4 1-1.2.7-1.9zm-3.8-6.9c-.4-.7-1.2-.9-1.9-.5l-5.1 3 1.4 2.4 5.1-3c.7-.4.9-1.3.5-1.9zm-4.4-6.3c-.4-.6-1.3-.8-1.9-.4l-5 3.2 1.5 2.3 5-3.2c.7-.4.9-1.3.4-1.9zm-5-6.6c-.5-.6-1.4-.7-1.9-.2l-4.7 3.7 1.7 2.2 4.7-3.7c.6-.5.7-1.4.2-2zm37 29.3c-.7-.3-1.5-.1-1.9.6-.3.7 0 1.5.6 1.9l5.3 2.6 1.2-2.5-5.2-2.6zm3.6-6.5c-.7-.3-1.5-.1-1.9.6-.3.7 0 1.5.6 1.9l5.3 2.6 1.2-2.5-5.2-2.6zm3.9-6.8c-.6-.4-1.5-.2-1.9.5-.4.7-.2 1.5.5 1.9l5.1 3 1.4-2.4-5.1-3zm4.3-6.2c-.6-.4-1.5-.2-1.9.4-.4.6-.2 1.5.4 1.9l5 3.2 1.5-2.3-5-3.2zm5.1-6.4c-.6-.5-1.5-.4-1.9.2-.5.6-.4 1.5.2 1.9l4.7 3.7 1.7-2.2-4.7-3.6zm5.5-5.7c-.6-.5-1.4-.5-2 0-.5.6-.5 1.4.1 2l4.3 4.1 1.9-2-4.3-4.1zm-64.8-3.6c-.5-.6-1.4-.6-2-.1l-4.3 4.1 1.9 2 4.3-4.1c.6-.5.6-1.4.1-1.9zM153 588h-6v3h6c.5 0 .9-.4 1.2-.8.1-.2.2-.5.2-.8 0-.7-.6-1.4-1.4-1.4zm-2.4-3c-.7 0-1.3.3-1.3 1s.6 1 1.3 1h6.4v-2h-6.4zm2.4-3h-6v2h6c.7 0 1.3-.3 1.3-1 .1-.7-.5-1-1.3-1zm-2.4-4c-.7 0-1.3.8-1.3 1.5s.6 1.5 1.3 1.5h6.4v-3h-6.4zm2.4-3h-6v3h6c.7 0 1.3-.8 1.3-1.5.1-.7-.5-1.5-1.3-1.5zm1.3-76.4c.3-.5.6-1.1.6-1.7 0-.3 0-.5-.1-.8 0-.1-.1-.2-.1-.4 0-.1-.1-.2-.2-.3 0 0 0-.1-.1-.1l-.1-.1v-.1c-.2-.2-.3-.3-.3-.5v3.4h-4v-3.3c-1 .2-.8.5-1 .8-.2.4-.5.9-.5 1.5 0 .8.3 1.6.9 2.1.2.2.4.4.7.5.2.1.4.2.6.2.1 0 .2.1.3.1.2 0 .4.1.6.1.2 0 .4 0 .7-.1.5-.1 1-.3 1.4-.7.1-.1.1-.2.2-.2s.1-.1.2-.2c0-.1.1-.1.2-.2-.1 0-.1 0 0 0zm.3-2.8c0-.1-.1-.2-.2-.3 0 0 0-.1-.1-.1l-.1-.1v-.1c-.2-.2-.3-.3-.3-.5v3.4h-4v-3.3c-1 .2-.8.5-1 .8-.2.4-.5.9-.5 1.5 0 .8.3 1.6.9 2.1.2.2.4.4.7.5.2.1.4.2.6.2.1 0 .2.1.3.1.2 0 .4.1.6.1.2 0 .4 0 .7-.1.5-.1 1-.3 1.4-.7.1-.1.1-.2.2-.2s.1-.1.2-.2c.5-.5.8-1.2.8-1.9.1-.5 0-.9-.2-1.2zm.7-1.5c-.6-.8-1.3-1.3-2.3-1.6l-.1-.1V490h-3v2.7c-.9.3-1.7.9-2.3 1.6-.5.7-.8 1.6-.8 2.6 0 1.2.6 2.3 1.4 3.1.9.8 2.1 1.3 3.4 1.3 1.3 0 2.4-.5 3.3-1.3.3-.3.6-.6.8-1 .1-.3.3-.5.3-.8.1-.4.2-.9.2-1.3 0-1-.3-1.9-.9-2.6zm.1 4.1c-.2.5-.5.9-.9 1.3s-.9.7-1.4.9c-.5.2-1 .3-1.6.3-.6 0-1.1-.1-1.6-.3-.5-.2-1-.5-1.4-.9-.4-.4-.7-.8-.9-1.3-.2-.5-.3-1-.3-1.5s.1-1.1.3-1.5c.2-.5.5-.9.9-1.3.2-.2.4-.3.6-.5.2-.1.3-.3.5-.4l.2-.1v1.5c-1 .2-.8.5-1 .8-.2.4-.5.9-.5 1.5 0 .8.3 1.6.9 2.1.2.2.4.4.7.5.2.1.4.2.6.2.1 0 .2.1.3.1.2 0 .4.1.6.1.2 0 .4 0 .7-.1.5-.1 1-.3 1.4-.7.1-.1.1-.2.2-.2s.1-.1.2-.2c.5-.5.8-1.2.8-1.9 0-.4-.1-.8-.2-1.1 0-.1-.1-.2-.2-.3 0 0 0-.1-.1-.1l-.1-.1v-.1c-.2-.2-.3-.3-.3-.5v3.4h-1v-4.9l.3.1c.3.1.5.2.7.4.2.1.4.3.6.5.4.4.7.8.9 1.3.2.4.3 1 .3 1.5.1.5 0 1.1-.2 1.5zm-.8-2.6c0-.1-.1-.2-.2-.3 0 0 0-.1-.1-.1l-.1-.1v-.1c-.2-.2-.3-.3-.3-.5v3.4h-4v-3.3c-1 .2-.8.5-1 .8-.2.4-.5.9-.5 1.5 0 .8.3 1.6.9 2.1.2.2.4.4.7.5.2.1.4.2.6.2.1 0 .2.1.3.1.2 0 .4.1.6.1.2 0 .4 0 .7-.1.5-.1 1-.3 1.4-.7.1-.1.1-.2.2-.2s.1-.1.2-.2c.5-.5.8-1.2.8-1.9.1-.5 0-.9-.2-1.2zm0 0c0-.1-.1-.2-.2-.3 0 0 0-.1-.1-.1l-.1-.1v-.1c-.2-.2-.3-.3-.3-.5v3.4h-4v-3.3c-1 .2-.8.5-1 .8-.2.4-.5.9-.5 1.5 0 .8.3 1.6.9 2.1.2.2.4.4.7.5.2.1.4.2.6.2.1 0 .2.1.3.1.2 0 .4.1.6.1.2 0 .4 0 .7-.1.5-.1 1-.3 1.4-.7.1-.1.1-.2.2-.2s.1-.1.2-.2c.5-.5.8-1.2.8-1.9.1-.5 0-.9-.2-1.2zm-.3 2.8c.3-.5.6-1.1.6-1.7 0-.3 0-.5-.1-.8 0-.1-.1-.2-.1-.4 0-.1-.1-.2-.2-.3 0 0 0-.1-.1-.1l-.1-.1v-.1c-.2-.2-.3-.3-.3-.5v3.4h-4v-3.3c-1 .2-.8.5-1 .8-.2.4-.5.9-.5 1.5 0 .8.3 1.6.9 2.1.2.2.4.4.7.5.2.1.4.2.6.2.1 0 .2.1.3.1.2 0 .4.1.6.1.2 0 .4 0 .7-.1.5-.1 1-.3 1.4-.7.1-.1.1-.2.2-.2s.1-.1.2-.2c0-.1.1-.1.2-.2-.1 0-.1 0 0 0zm.3-2.8c0-.1-.1-.2-.2-.3 0 0 0-.1-.1-.1l-.1-.1v-.1c-.2-.2-.3-.3-.3-.5v3.4h-4v-3.3c-1 .2-.8.5-1 .8-.2.4-.5.9-.5 1.5 0 .8.3 1.6.9 2.1.2.2.4.4.7.5.2.1.4.2.6.2.1 0 .2.1.3.1.2 0 .4.1.6.1.2 0 .4 0 .7-.1.5-.1 1-.3 1.4-.7.1-.1.1-.2.2-.2s.1-.1.2-.2c.5-.5.8-1.2.8-1.9.1-.5 0-.9-.2-1.2zm.7-1.5c-.6-.8-1.3-1.3-2.3-1.6l-.1-.1V490h-3v2.7c-.9.3-1.7.9-2.3 1.6-.5.7-.8 1.6-.8 2.6 0 1.2.6 2.3 1.4 3.1.9.8 2.1 1.3 3.4 1.3 1.3 0 2.4-.5 3.3-1.3.3-.3.6-.6.8-1 .1-.3.3-.5.3-.8.1-.4.2-.9.2-1.3 0-1-.3-1.9-.9-2.6zm.1 4.1c-.2.5-.5.9-.9 1.3s-.9.7-1.4.9c-.5.2-1 .3-1.6.3-.6 0-1.1-.1-1.6-.3-.5-.2-1-.5-1.4-.9-.4-.4-.7-.8-.9-1.3-.2-.5-.3-1-.3-1.5s.1-1.1.3-1.5c.2-.5.5-.9.9-1.3.2-.2.4-.3.6-.5.2-.1.3-.3.5-.4l.2-.1v1.5c-1 .2-.8.5-1 .8-.2.4-.5.9-.5 1.5 0 .8.3 1.6.9 2.1.2.2.4.4.7.5.2.1.4.2.6.2.1 0 .2.1.3.1.2 0 .4.1.6.1.2 0 .4 0 .7-.1.5-.1 1-.3 1.4-.7.1-.1.1-.2.2-.2s.1-.1.2-.2c.5-.5.8-1.2.8-1.9 0-.4-.1-.8-.2-1.1 0-.1-.1-.2-.2-.3 0 0 0-.1-.1-.1l-.1-.1v-.1c-.2-.2-.3-.3-.3-.5v3.4h-1v-4.9l.3.1c.3.1.5.2.7.4.2.1.4.3.6.5.4.4.7.8.9 1.3.2.4.3 1 .3 1.5.1.5 0 1.1-.2 1.5zM255.1 337.3c-4.6 5.4-8 9.2-8.9 9.7-4 2.4-35.3 6-36.5 6.1l-25.8.6h-.2s-13 2.4-16.9 4.9l-.8-.6-23.1-17.8-.8-.7-.1.2c-1.2 5.1 3.7 11.1 8.3 14.6 3.8 2.9 5.5 3.1 9.3 4.9 1.6.8 3.4 1.9 5.2 3.3 1.2.9 2.3 1.9 3.3 2.8.1-.3.3-.6.4-.9.6.2 1.3.4 2.1.5l-2 2.5c-.5.6-.4 1.5.2 1.9l16.9 13c-2.2 2.3-4.5 4.9-6.4 7.2-2.5 3.3-4.1 6.2-3.1 7.7 2.2 3.2 11.8-4 14.6-6.2-.1.2-.1.5-.1.7 0 .7.1 1.3.4 1.8.3.5.9.9 1.6 1.1.7.2 1.6.2 2.8-.1.9-.2 2.3-.4 3.8-.6-2.4 3.1-8.7 11.6-6.3 14.8 2.6 3.7 12.1-8.7 13.4-10.4l2.2 1.7c-.7.8-4.5 5.7-2.9 7.2.9.9 3.1-.2 5-1.2h.3v.1c2-1 2.9-2 2.9-2l-1.9-1.5 10.9 8.4c1.7 1.3 4.1 1 5.4-.6 1.4-1.6 1.1-4-.6-5.3l-8.2-6.3s3.9-5.6 8.6-6.8c1.2-.3 3.2-.2 5.7-.1 7.3.2 18.2.6 25.5-7.8 9.2-10.8 17.4-20.5 17.8-21.1l7.9-7.3v-54.9c-8 10.4-21.2 26.3-29.9 36.5zm-63.7 39.5l-.1.1-15.6-12 1.1-.1c7.9-.7 13 .1 16.5.6 1.1.2 2 .3 2.8.4 2.2.2 6.1 1.5 8.2 2.2-3.2 2.1-10.9 7.2-12.9 8.8zm12 4.7c1.8-1.1 3.2-1.9 4-1.8h.2c1.3 0 2.4.1 3.1.2-1.2.7-4.6 1.2-7.3 1.6z"/></svg>