<svg xmlns="http://www.w3.org/2000/svg" xmlns:xlink="http://www.w3.org/1999/xlink" width="1375.3" height="742.7" viewBox="0 0 1375.3 742.7">
  <style>
    .st1{clip-path:url(#SVGID_2_)}.st1,.st3{fill:#08143c}
  </style>
  <path fill="#a384d3" d="M2.9 0h684.4v739.9H2.9z"/>
  <defs>
    <path id="SVGID_1_" d="M2.9 3.8h703.6v738.8H2.9z"/>
  </defs>
  <clipPath id="SVGID_2_">
    <use xlink:href="#SVGID_1_" overflow="visible"/>
  </clipPath>
  <path class="st1" d="M528.9 178.5l-31.4-33.2-33.2 31.4-31.4-33.2-33.2 31.4-31.4-33.2-33.2 31.4-31.4-33.2-28.5 26.8-12.5 11.8-31.4-33.2-33.2 31.4-31.4-33.2-33.2 31.4-31.4-33.2-33.2 31.4-31.4-33.2L9 166.7l-9-9.5 38-35.9 31.4 33.2 33.2-31.4 31.4 33.2 33.2-31.4 31.4 33.2 33.2-31.4 31.4 33.2 28.5-26.9v.1l12.5-11.8 31.4 33.2 33.2-31.4 31.4 33.2 33.2-31.4 31.4 33.2 33.2-31.4 31.4 33.2 28.5-26.9v.1l12.5-11.8 31.4 33.2 33.2-31.4 31.4 33.2 34-32.2 9 9.6-43.5 41.2-31.4-33.2-33.3 31.4-31.4-33.2-28.4 26.8z"/>
  <path class="st1" d="M528.9 254.7l-31.4-33.2-33.2 31.4-31.4-33.2-33.2 31.4-31.4-33.2-33.2 31.4-31.4-33.2-28.5 26.9v-.1l-12.5 11.8-31.4-33.2-33.2 31.4-31.4-33.2-33.2 31.4-31.4-33.2-33.2 31.4-31.4-33.2L9 243l-9-9.6 38-35.9 31.4 33.2 33.2-31.4 31.4 33.2 33.2-31.4 31.4 33.2 33.2-31.4 31.4 33.2 28.5-26.8 12.5-11.8 31.4 33.2 33.2-31.4 31.4 33.2 33.2-31.4 31.4 33.2 33.2-31.4 31.4 33.2 28.5-26.8 12.5-11.8 31.4 33.2 33.2-31.4 31.4 33.2 34-32.2 9 9.6-43.5 41.2-31.4-33.2-33.3 31.4-31.4-33.2-28.4 26.9v-.1z"/>
  <path class="st1" d="M528.9 330.9l-31.4-33.2-33.2 31.4-31.4-33.2-33.2 31.4-31.4-33.2-33.2 31.4-31.4-33.2-28.5 26.9v-.1l-12.5 11.8-31.4-33.2-33.2 31.4-31.4-33.2-33.2 31.4-31.4-33.2-33.2 31.4-31.4-33.2L9 319.2l-9-9.6 38-35.9 31.4 33.2 33.2-31.4 31.4 33.2 33.2-31.4 31.4 33.2 33.2-31.4 31.4 33.2 28.5-26.8 12.5-11.8 31.4 33.2 33.2-31.4 31.4 33.2 33.2-31.4 31.4 33.2 33.2-31.4 31.4 33.2 28.5-26.8 12.5-11.8 31.4 33.2 33.2-31.4 31.4 33.2 34-32.1 9 9.5-43.5 41.2-31.4-33.2-33.3 31.4-31.4-33.2-28.4 26.9v-.1z"/>
  <path class="st1" d="M528.9 407.1l-31.4-33.2-33.2 31.4-31.4-33.2-33.2 31.4-31.4-33.2-33.2 31.4-31.4-33.2-28.5 26.9v-.1l-12.5 11.8-31.4-33.2-33.2 31.4-31.4-33.2-33.2 31.4-31.4-33.2-33.2 31.4-31.4-33.2L9 395.4l-9-9.6 38-35.9 31.4 33.2 33.2-31.4 31.4 33.2 33.2-31.4 31.4 33.2 33.2-31.4 31.4 33.3 28.5-26.9 12.5-11.8 31.4 33.2 33.2-31.4 31.4 33.2 33.2-31.4 31.4 33.2 33.2-31.4 31.4 33.3 28.5-26.9 12.5-11.8 31.4 33.2 33.2-31.4 31.4 33.2 34-32.1 9 9.5-43.5 41.2-31.4-33.2-33.3 31.4-31.4-33.2-28.4 26.9v-.1z"/>
  <path class="st1" d="M528.9 483.4l-31.4-33.3-33.2 31.4-31.4-33.2-33.2 31.4-31.4-33.2-33.2 31.4-31.4-33.2-28.5 26.9-12.5 11.8-31.4-33.3-33.2 31.4-31.4-33.2-33.2 31.4-31.4-33.2-33.2 31.4-31.4-33.2L9 471.6 0 462l38-35.9 31.4 33.2 33.2-31.4 31.4 33.2 33.2-31.4 31.4 33.3 33.2-31.4 31.4 33.2 28.5-26.9 12.5-11.8 31.4 33.2 33.2-31.4 31.4 33.2 33.2-31.4 31.4 33.3 33.2-31.4 31.4 33.2 28.5-26.9 12.5-11.8 31.4 33.2 33.2-31.4 31.4 33.2 34-32.1 9 9.5-43.5 41.2-31.4-33.2-33.3 31.4-31.4-33.2-28.4 26.9z"/>
  <path class="st1" d="M528.9 559.6l-31.4-33.2-33.2 31.4-31.4-33.3-33.2 31.4-31.4-33.2-33.2 31.4-31.4-33.2-28.5 26.9-12.5 11.8-31.4-33.2-33.2 31.4-31.4-33.3-33.2 31.4-31.4-33.2-33.2 31.4-31.4-33.2L9 547.8l-9-9.6 38-35.9 31.4 33.2 33.2-31.4 31.4 33.3 33.2-31.4 31.4 33.2 33.2-31.4 31.4 33.2 28.5-26.9 12.5-11.8 31.4 33.2 33.2-31.4 31.4 33.3 33.2-31.4 31.4 33.2 33.2-31.4 31.4 33.2 28.5-26.9 12.5-11.8 31.4 33.2 33.2-31.4 31.4 33.3 34-32.2 9 9.5-43.5 41.2-31.4-33.2-33.3 31.4-31.4-33.2-28.4 26.9z"/>
  <path class="st1" d="M528.9 635.8l-31.4-33.2-33.2 31.4-31.4-33.2-33.2 31.4-31.4-33.3-33.2 31.4-31.4-33.2-28.5 26.9-12.5 11.8-31.4-33.2-33.2 31.4-31.4-33.2-33.2 31.4-31.4-33.3-33.2 31.4-31.4-33.2L9 624l-9-9.5 38-36 31.4 33.3 33.2-31.4 31.4 33.2 33.2-31.4 31.4 33.2 33.2-31.4 31.4 33.2 28.5-26.9 12.5-11.8 31.4 33.3 33.2-31.4 31.4 33.2 33.2-31.4 31.4 33.2L498 584l31.4 33.2 28.5-26.9 12.5-11.8 31.4 33.3 33.2-31.4 31.4 33.2 34-32.2 9 9.6-43.5 41.2-31.4-33.3-33.3 31.4-31.4-33.2-28.4 26.9z"/>
  <path class="st1" d="M528.9 712l-31.4-33.2-33.2 31.4-31.4-33.2-33.2 31.4-31.4-33.2-33.2 31.4-31.4-33.3-28.5 26.9-12.5 11.8-31.4-33.2-33.2 31.4-31.4-33.2-33.2 31.4-31.4-33.2-33.2 31.4-31.4-33.3L9 700.2l-9-9.5 38-35.9L69.4 688l33.2-31.4 31.4 33.2 33.2-31.4 31.4 33.2 33.2-31.4 31.4 33.2 28.5-26.9v.1l12.5-11.8 31.4 33.2 33.2-31.4 31.4 33.2 33.2-31.4 31.4 33.2 33.2-31.4 31.4 33.2 28.5-26.9v.1l12.5-11.8 31.4 33.2 33.2-31.4 31.4 33.2 34-32.2 9 9.6-43.5 41.2-31.4-33.2-33.3 31.4-31.4-33.3-28.4 26.9z"/>
  <path class="st1" d="M528.9 102.3l-31.4-33.2-33.2 31.4-31.4-33.2-33.2 31.4-31.4-33.2-33.2 31.4-31.4-33.3-28.5 26.9-12.5 11.8-31.4-33.2-33.2 31.4-31.4-33.2-33.2 31.4-31.4-33.2-33.2 31.4-31.4-33.3L9 90.5 0 81l38-35.9 31.4 33.2 33.2-31.4L134 80.1l33.2-31.4 31.4 33.2 33.2-31.4 31.4 33.2 28.5-26.9v.1l12.5-11.8 31.4 33.2 33.2-31.4 31.4 33.2 33.2-31.4 31.4 33.2L498 50.5l31.4 33.2 28.5-26.9v.1l12.5-11.8 31.4 33.2L635 46.9l31.4 33.2 34-32.2 9 9.6-43.5 41.2-31.4-33.2-33.3 31.4-31.4-33.3-28.4 26.9z"/>
  <path fill="#f38ca0" d="M685.9 0h683v739.9h-683z"/>
  <path class="st3" d="M700.6 475.1l5.3-5.3-5.3-5.3v10.6zm5.3 18.8l-5.3-5.3v10.6l5.3-5.3z"/>
  <path class="st3" d="M700.6 475.1l5.3-5.3-5.3-5.3v10.6zm5.3 18.8l-5.3-5.3v10.6l5.3-5.3z"/>
  <path class="st3" d="M760 84.1l-18.5-18.6L760 47l-8.8-8.9-18.6 18.6-18.5-18.6-8.9 8.9 18.6 18.5-18.6 18.6 8.9 8.8 18.5-18.5 18.6 18.5z"/>
  <path class="st3" d="M854.8 84.1l-18.6-18.6L854.8 47l-8.9-8.9-18.5 18.6-18.5-18.6L800 47l18.5 18.5L800 84.1l8.9 8.8 18.5-18.5 18.5 18.5z"/>
  <path class="st3" d="M949.6 84.1L931 65.5 949.6 47l-8.9-8.9-18.5 18.6-18.6-18.6-8.8 8.9 18.5 18.5-18.5 18.6 8.8 8.8 18.6-18.5 18.5 18.5z"/>
  <path class="st3" d="M1044.3 84.1l-18.5-18.6 18.5-18.5-8.8-8.9-18.5 18.6-18.6-18.6-8.8 8.9 18.5 18.5-18.5 18.6 8.8 8.8 18.6-18.5 18.5 18.5z"/>
  <path class="st3" d="M1139.1 84.1l-18.5-18.6 18.5-18.5-8.8-8.9-18.6 18.6-18.5-18.6-8.9 8.9 18.6 18.5-18.6 18.6 8.9 8.8 18.5-18.5 18.6 18.5z"/>
  <path class="st3" d="M1233.9 84.1l-18.5-18.6 18.5-18.5-8.8-8.9-18.6 18.6-18.5-18.6-8.9 8.9 18.6 18.5-18.6 18.6 8.9 8.8 18.5-18.5 18.6 18.5z"/>
  <path class="st3" d="M1328.7 84.1l-18.6-18.6 18.6-18.5-8.9-8.9-18.5 18.6-18.5-18.6-8.9 8.9 18.6 18.5-18.6 18.6 8.9 8.8 18.5-18.5 18.5 18.5z"/>
  <g>
    <path class="st3" d="M760 701.4l-18.5-18.5 18.5-18.6-8.8-8.8-18.6 18.5-18.5-18.5-8.9 8.8 18.6 18.6-18.6 18.5 8.9 8.9 18.5-18.6 18.6 18.6z"/>
    <path class="st3" d="M854.8 701.4l-18.6-18.5 18.6-18.6-8.9-8.8-18.5 18.5-18.5-18.5-8.9 8.8 18.5 18.6-18.5 18.5 8.9 8.9 18.5-18.6 18.5 18.6z"/>
    <path class="st3" d="M949.6 701.4L931 682.9l18.6-18.6-8.9-8.8-18.5 18.5-18.6-18.5-8.8 8.8 18.5 18.6-18.5 18.5 8.8 8.9 18.6-18.6 18.5 18.6z"/>
    <path class="st3" d="M1044.3 701.4l-18.5-18.5 18.5-18.6-8.8-8.8L1017 674l-18.6-18.5-8.8 8.8 18.5 18.6-18.5 18.5 8.8 8.9 18.6-18.6 18.5 18.6z"/>
    <path class="st3" d="M1139.1 701.4l-18.5-18.5 18.5-18.6-8.8-8.8-18.6 18.5-18.5-18.5-8.9 8.8 18.6 18.6-18.6 18.5 8.9 8.9 18.5-18.6 18.6 18.6z"/>
    <path class="st3" d="M1233.9 701.4l-18.5-18.5 18.5-18.6-8.8-8.8-18.6 18.5-18.5-18.5-8.9 8.8 18.6 18.6-18.6 18.5 8.9 8.9 18.5-18.6 18.6 18.6z"/>
    <path class="st3" d="M1328.7 701.4l-18.6-18.5 18.6-18.6-8.9-8.8-18.5 18.5-18.5-18.5-8.9 8.8 18.6 18.6-18.6 18.5 8.9 8.9 18.5-18.6 18.5 18.6z"/>
  </g>
  <g>
    <path class="st3" d="M1375.3 624.3l-18.5-18.6 18.5-18.5-8.8-8.9-18.5 18.6-18.6-18.6-8.8 8.9 18.5 18.5-18.5 18.6 8.8 8.8 18.6-18.5 18.5 18.5z"/>
    <path class="st3" d="M1375.3 469.9l-18.5-18.5 18.5-18.6-8.8-8.8-18.5 18.5-18.6-18.5-8.8 8.8 18.5 18.6-18.5 18.5 8.8 8.9 18.6-18.6 18.5 18.6z"/>
    <path class="st3" d="M1375.3 315.6l-18.5-18.6 18.5-18.5-8.8-8.9-18.5 18.6-18.6-18.6-8.8 8.9 18.5 18.5-18.5 18.6 8.8 8.8 18.6-18.5 18.5 18.5z"/>
    <path class="st3" d="M1375.3 161.2l-18.5-18.5 18.5-18.5-8.8-8.9-18.5 18.6-18.6-18.6-8.8 8.9 18.5 18.5-18.5 18.5 8.8 8.9 18.6-18.6 18.5 18.6z"/>
    <path class="st3" d="M808.4 624.3l-18.6-18.6 18.6-18.5-8.9-8.9-18.5 18.6-18.6-18.6-8.8 8.9 18.5 18.5-18.5 18.6 8.8 8.8 18.6-18.5 18.5 18.5z"/>
    <path class="st3" d="M903.1 624.3l-18.5-18.6 18.5-18.5-8.8-8.9-18.5 18.6-18.6-18.6-8.8 8.9 18.5 18.5-18.5 18.6 8.8 8.8 18.6-18.5 18.5 18.5z"/>
    <path class="st3" d="M997.9 624.3l-18.5-18.6 18.5-18.5-8.8-8.9-18.6 18.6-18.5-18.6-8.9 8.9 18.6 18.5-18.6 18.6 8.9 8.8 18.5-18.5 18.6 18.5z"/>
    <path class="st3" d="M1092.7 624.3l-18.5-18.6 18.5-18.5-8.8-8.9-18.6 18.6-18.5-18.6-8.9 8.9 18.6 18.5-18.6 18.6 8.9 8.8 18.5-18.5 18.6 18.5z"/>
    <path class="st3" d="M1187.5 624.3l-18.6-18.6 18.6-18.5-8.9-8.9-18.5 18.6-18.5-18.6-8.9 8.9 18.6 18.5-18.6 18.6 8.9 8.8 18.5-18.5 18.5 18.5z"/>
    <path class="st3" d="M1282.3 624.3l-18.6-18.6 18.6-18.5-8.9-8.9-18.5 18.6-18.6-18.6-8.8 8.9 18.5 18.5-18.5 18.6 8.8 8.8 18.6-18.5 18.5 18.5z"/>
  </g>
  <g>
    <path class="st3" d="M760 547.1l-18.5-18.5L760 510l-8.8-8.8-18.6 18.5-18.5-18.5-8.9 8.8 18.6 18.6-18.6 18.5 8.9 8.8 18.5-18.5 18.6 18.5z"/>
    <path class="st3" d="M854.8 547.1l-18.6-18.5 18.6-18.6-8.9-8.8-18.5 18.5-18.5-18.5-8.9 8.8 18.5 18.6-18.5 18.5 8.9 8.8 18.5-18.5 18.5 18.5z"/>
    <path class="st3" d="M949.6 547.1L931 528.6l18.6-18.6-8.9-8.8-18.5 18.5-18.6-18.5-8.8 8.8 18.5 18.6-18.5 18.5 8.8 8.8 18.6-18.5 18.5 18.5z"/>
    <path class="st3" d="M1044.3 547.1l-18.5-18.5 18.5-18.6-8.8-8.8-18.5 18.5-18.6-18.5-8.8 8.8 18.5 18.6-18.5 18.5 8.8 8.8 18.6-18.5 18.5 18.5z"/>
    <path class="st3" d="M1139.1 547.1l-18.5-18.5 18.5-18.6-8.8-8.8-18.6 18.5-18.5-18.5-8.9 8.8 18.6 18.6-18.6 18.5 8.9 8.8 18.5-18.5 18.6 18.5z"/>
    <path class="st3" d="M1233.9 547.1l-18.5-18.5 18.5-18.6-8.8-8.8-18.6 18.5-18.5-18.5-8.9 8.8 18.6 18.6-18.6 18.5 8.9 8.8 18.5-18.5 18.6 18.5z"/>
    <path class="st3" d="M1328.7 547.1l-18.6-18.5 18.6-18.6-8.9-8.8-18.5 18.5-18.5-18.5-8.9 8.8 18.6 18.6-18.6 18.5 8.9 8.8 18.5-18.5 18.5 18.5z"/>
  </g>
  <g>
    <path class="st3" d="M808.4 469.9l-18.6-18.5 18.6-18.6-8.9-8.8-18.5 18.5-18.6-18.5-8.8 8.8 18.5 18.6-18.5 18.5 8.8 8.9 18.6-18.6 18.5 18.6z"/>
    <path class="st3" d="M903.1 469.9l-18.5-18.5 18.5-18.6-8.8-8.8-18.5 18.5-18.6-18.5-8.8 8.8 18.5 18.6-18.5 18.5 8.8 8.9 18.6-18.6 18.5 18.6z"/>
    <path class="st3" d="M997.9 469.9l-18.5-18.5 18.5-18.6-8.8-8.8-18.6 18.5L952 424l-8.9 8.8 18.6 18.6-18.6 18.5 8.9 8.9 18.5-18.6 18.6 18.6z"/>
    <path class="st3" d="M1092.7 469.9l-18.5-18.5 18.5-18.6-8.8-8.8-18.6 18.5-18.5-18.5-8.9 8.8 18.6 18.6-18.6 18.5 8.9 8.9 18.5-18.6 18.6 18.6z"/>
    <path class="st3" d="M1187.5 469.9l-18.6-18.5 18.6-18.6-8.9-8.8-18.5 18.5-18.5-18.5-8.9 8.8 18.6 18.6-18.6 18.5 8.9 8.9 18.5-18.6 18.5 18.6z"/>
    <path class="st3" d="M1282.3 469.9l-18.6-18.5 18.6-18.6-8.9-8.8-18.5 18.5-18.6-18.5-8.8 8.8 18.5 18.6-18.5 18.5 8.8 8.9 18.6-18.6 18.5 18.6z"/>
  </g>
  <g>
    <path class="st3" d="M760 392.8l-18.5-18.6 18.5-18.5-8.8-8.9-18.6 18.6-18.5-18.6-8.9 8.9 18.6 18.5-18.6 18.6 8.9 8.8 18.5-18.5 18.6 18.5z"/>
    <path class="st3" d="M854.8 392.8l-18.6-18.6 18.6-18.5-8.9-8.9-18.5 18.6-18.5-18.6-8.9 8.9 18.5 18.5-18.5 18.6 8.9 8.8 18.5-18.5 18.5 18.5z"/>
    <path class="st3" d="M949.6 392.8L931 374.2l18.6-18.5-8.9-8.9-18.5 18.6-18.6-18.6-8.8 8.9 18.5 18.5-18.5 18.6 8.8 8.8 18.6-18.5 18.5 18.5z"/>
    <path class="st3" d="M1044.3 392.8l-18.5-18.6 18.5-18.5-8.8-8.9-18.5 18.6-18.6-18.6-8.8 8.9 18.5 18.5-18.5 18.6 8.8 8.8 18.6-18.5 18.5 18.5z"/>
    <path class="st3" d="M1139.1 392.8l-18.5-18.6 18.5-18.5-8.8-8.9-18.6 18.6-18.5-18.6-8.9 8.9 18.6 18.5-18.6 18.6 8.9 8.8 18.5-18.5 18.6 18.5z"/>
    <path class="st3" d="M1233.9 392.8l-18.5-18.6 18.5-18.5-8.8-8.9-18.6 18.6-18.5-18.6-8.9 8.9 18.6 18.5-18.6 18.6 8.9 8.8 18.5-18.5 18.6 18.5z"/>
    <path class="st3" d="M1328.7 392.8l-18.6-18.6 18.6-18.5-8.9-8.9-18.5 18.6-18.5-18.6-8.9 8.9 18.6 18.5-18.6 18.6 8.9 8.8 18.5-18.5 18.5 18.5z"/>
  </g>
  <g>
    <path class="st3" d="M808.4 315.6L789.8 297l18.6-18.5-8.9-8.9-18.5 18.6-18.6-18.6-8.8 8.9 18.5 18.5-18.5 18.6 8.8 8.8 18.6-18.5 18.5 18.5z"/>
    <path class="st3" d="M903.1 315.6L884.6 297l18.5-18.5-8.8-8.9-18.5 18.6-18.6-18.6-8.8 8.9 18.5 18.5-18.5 18.6 8.8 8.8 18.6-18.5 18.5 18.5z"/>
    <path class="st3" d="M997.9 315.6L979.4 297l18.5-18.5-8.8-8.9-18.6 18.6-18.5-18.6-8.9 8.9 18.6 18.5-18.6 18.6 8.9 8.8 18.5-18.5 18.6 18.5z"/>
    <path class="st3" d="M1092.7 315.6l-18.5-18.6 18.5-18.5-8.8-8.9-18.6 18.6-18.5-18.6-8.9 8.9 18.6 18.5-18.6 18.6 8.9 8.8 18.5-18.5 18.6 18.5z"/>
    <path class="st3" d="M1187.5 315.6l-18.6-18.6 18.6-18.5-8.9-8.9-18.5 18.6-18.5-18.6-8.9 8.9 18.6 18.5-18.6 18.6 8.9 8.8 18.5-18.5 18.5 18.5z"/>
    <path class="st3" d="M1282.3 315.6l-18.6-18.6 18.6-18.5-8.9-8.9-18.5 18.6-18.6-18.6-8.8 8.9L1246 297l-18.5 18.6 8.8 8.8 18.6-18.5 18.5 18.5z"/>
  </g>
  <g>
    <path class="st3" d="M760 238.4l-18.5-18.5 18.5-18.6-8.8-8.8-18.6 18.5-18.5-18.5-8.9 8.8 18.6 18.6-18.6 18.5 8.9 8.9 18.5-18.6 18.6 18.6z"/>
    <path class="st3" d="M854.8 238.4l-18.6-18.5 18.6-18.6-8.9-8.8-18.5 18.5-18.5-18.5-8.9 8.8 18.5 18.6-18.5 18.5 8.9 8.9 18.5-18.6 18.5 18.6z"/>
    <path class="st3" d="M949.6 238.4L931 219.9l18.6-18.6-8.9-8.8-18.5 18.5-18.6-18.5-8.8 8.8 18.5 18.6-18.5 18.5 8.8 8.9 18.6-18.6 18.5 18.6z"/>
    <path class="st3" d="M1044.3 238.4l-18.5-18.5 18.5-18.6-8.8-8.8L1017 211l-18.6-18.5-8.8 8.8 18.5 18.6-18.5 18.5 8.8 8.9 18.6-18.6 18.5 18.6z"/>
    <path class="st3" d="M1139.1 238.4l-18.5-18.5 18.5-18.6-8.8-8.8-18.6 18.5-18.5-18.5-8.9 8.8 18.6 18.6-18.6 18.5 8.9 8.9 18.5-18.6 18.6 18.6z"/>
    <path class="st3" d="M1233.9 238.4l-18.5-18.5 18.5-18.6-8.8-8.8-18.6 18.5-18.5-18.5-8.9 8.8 18.6 18.6-18.6 18.5 8.9 8.9 18.5-18.6 18.6 18.6z"/>
    <path class="st3" d="M1328.7 238.4l-18.6-18.5 18.6-18.6-8.9-8.8-18.5 18.5-18.5-18.5-8.9 8.8 18.6 18.6-18.6 18.5 8.9 8.9 18.5-18.6 18.5 18.6z"/>
  </g>
  <g>
    <path class="st3" d="M808.4 161.2l-18.6-18.5 18.6-18.5-8.9-8.9-18.5 18.6-18.6-18.6-8.8 8.9 18.5 18.5-18.5 18.5 8.8 8.9 18.6-18.6 18.5 18.6z"/>
    <path class="st3" d="M903.1 161.2l-18.5-18.5 18.5-18.5-8.8-8.9-18.5 18.6-18.6-18.6-8.8 8.9 18.5 18.5-18.5 18.5 8.8 8.9 18.6-18.6 18.5 18.6z"/>
    <path class="st3" d="M997.9 161.2l-18.5-18.5 18.5-18.5-8.8-8.9-18.6 18.6-18.5-18.6-8.9 8.9 18.6 18.5-18.6 18.5 8.9 8.9 18.5-18.6 18.6 18.6z"/>
    <path class="st3" d="M1092.7 161.2l-18.5-18.5 18.5-18.5-8.8-8.9-18.6 18.6-18.5-18.6-8.9 8.9 18.6 18.5-18.6 18.5 8.9 8.9 18.5-18.6 18.6 18.6z"/>
    <path class="st3" d="M1187.5 161.2l-18.6-18.5 18.6-18.5-8.9-8.9-18.5 18.6-18.5-18.6-8.9 8.9 18.6 18.5-18.6 18.5 8.9 8.9 18.5-18.6 18.5 18.6z"/>
    <path class="st3" d="M1282.3 161.2l-18.6-18.5 18.6-18.5-8.9-8.9-18.5 18.6-18.6-18.6-8.8 8.9 18.5 18.5-18.5 18.5 8.8 8.9 18.6-18.6 18.5 18.6z"/>
  </g>
</svg>