<svg xmlns="http://www.w3.org/2000/svg" width="1177.7" height="642.8" viewBox="0 0 1177.7 642.8">
  <style>
    .st6{fill-rule:evenodd;clip-rule:evenodd;fill:#c0cdf3}
  </style>
  <path d="M37.2 561c-15.7 0-28.5-12.9-28.5-28.8s12.8-28.8 28.5-28.8 28.5 12.9 28.5 28.8S52.9 561 37.2 561m0-48.2c-10.5 0-19.1 8.7-19.1 19.3 0 10.7 8.5 19.3 19.1 19.3 10.5 0 19.1-8.7 19.1-19.3 0-10.6-8.6-19.3-19.1-19.3zM0 532.2c0 20.8 16.7 37.7 37.2 37.7 20.5 0 37.2-16.9 37.2-37.7 0-20.8-16.7-37.7-37.2-37.7-20.5 0-37.2 16.9-37.2 37.7z" fill-rule="evenodd" clip-rule="evenodd" fill="#df003d"/>
  <path d="M891.2 629.9c-23.1 0-41.8-19-41.8-42.4s18.7-42.4 41.8-42.4c23.1 0 41.8 19 41.8 42.4s-18.7 42.4-41.8 42.4m0-70.8c-15.5 0-28 12.7-28 28.4s12.5 28.4 28 28.4 28-12.7 28-28.4-12.6-28.4-28-28.4zm-54.7 28.4c0 30.6 24.5 55.3 54.6 55.3 30.2 0 54.6-24.8 54.6-55.3 0-30.6-24.5-55.3-54.6-55.3s-54.6 24.7-54.6 55.3z" fill-rule="evenodd" clip-rule="evenodd" fill="#a595cd"/>
  <path d="M202.3 484.1c-15.9 0-28.8-13-28.8-29.1s12.9-29.1 28.8-29.1 28.8 13 28.8 29.1c-.1 16.1-12.9 29.1-28.8 29.1m0-48.6c-10.6 0-19.3 8.7-19.3 19.5s8.6 19.5 19.3 19.5c10.6 0 19.3-8.7 19.3-19.5s-8.7-19.5-19.3-19.5zM164.7 455c0 21 16.8 38 37.6 38 20.7 0 37.6-17 37.6-38s-16.8-38-37.6-38-37.6 17-37.6 38z" fill-rule="evenodd" clip-rule="evenodd" fill="#ffe400"/>
  <path d="M733.1 67.2c-15.9 0-28.8-13-28.8-29.1S717.2 9 733.1 9s28.8 13 28.8 29.1c-.1 16-12.9 29.1-28.8 29.1m0-48.7c-10.6 0-19.3 8.7-19.3 19.5s8.6 19.5 19.3 19.5c10.6 0 19.3-8.7 19.3-19.5 0-10.7-8.7-19.5-19.3-19.5zM695.5 38c0 21 16.8 38 37.6 38 20.7 0 37.6-17 37.6-38S753.9 0 733.1 0s-37.6 17-37.6 38z" fill-rule="evenodd" clip-rule="evenodd" fill="#1ed07e"/>
  <path d="M341.2 569c0 15.4-12.4 28-27.8 28s-27.8-12.5-27.8-28c0-15.4 12.4-28 27.8-28 15.3 0 27.8 12.6 27.8 28" fill-rule="evenodd" clip-rule="evenodd" fill="#45adeb"/>
  <path d="M1133 130.5c0-13.3 10-24 22.3-24s22.3 10.7 22.3 24-10 24-22.3 24-22.3-10.8-22.3-24" fill-rule="evenodd" clip-rule="evenodd" fill="#ff5800"/>
  <path class="st6" d="M594.7 476.9c0 12.1-8.9 21.9-19.8 21.9-11 0-19.8-9.8-19.8-21.9 0-12.1 8.9-21.9 19.8-21.9s19.8 9.8 19.8 21.9"/>
  <path class="st6" d="M241.3 314.9c-11.1-4.7-16.6-16.8-12.3-26.8 4.3-10.1 16.8-14.4 27.9-9.6 11.1 4.7 16.6 16.8 12.3 26.8-4.3 10-16.8 14.4-27.9 9.6"/>
  <path d="M1117.2 445.5c0-12.1 9.2-22 20.5-22s20.5 9.8 20.5 22c0 12.1-9.2 22-20.5 22s-20.5-9.9-20.5-22" fill-rule="evenodd" clip-rule="evenodd" fill="#fee96a"/>
</svg>