<svg xmlns="http://www.w3.org/2000/svg" width="1074.3" height="620.9" viewBox="0 0 1074.3 620.9">
  <style>
    .st0,.st1,.st2,.st3,.st5{fill-rule:evenodd;clip-rule:evenodd;fill:#1ed07e}.st1,.st2,.st3,.st5{fill:#52dad6}.st2,.st3,.st5{fill:#ffcaae}.st3,.st5{fill:#ff8900}.st5{fill:#f6a6e2}
  </style>
  <path class="st0" d="M1030.5 586.6l9.5-4.7 6.2 12.4 12.4-6.1 4.7 9.5-12.4 6.1 6.2 12.4-9.5 4.7-6.2-12.4-12.5 6.1-4.7-9.5 12.5-6.1z"/>
  <path class="st1" d="M699.5 367.3l9.6 4.8-6.6 12.3 12.6 6.4-5 9.2-12.5-6.3-6.5 12.1-9.6-4.8 6.5-12.2-12.6-6.4 5-9.3 12.6 6.4z"/>
  <path class="st2" d="M490.8 489.7l9.6 4.8-6.5 12.2 12.5 6.4-5 9.3-12.5-6.4-6.5 12.2-9.6-4.8 6.5-12.2-12.5-6.4 5-9.3 12.5 6.4z"/>
  <path class="st0" d="M1068 20.5l6.3 12.6-16.6 8.2 8.2 16.6-12.6 6.2-8.2-16.5-16.5 8.2-6.2-12.6 16.5-8.2-8.1-16.6 12.6-6.2 8.1 16.5z"/>
  <path class="st3" d="M447.3 569.9l3.1 10.5-13.7 4.1 4.1 13.8-10.5 3.1-4-13.7-13.7 4.1-3.2-10.4 13.8-4.1-4.1-13.8 10.4-3.1 4.1 13.7z"/>
  <path class="st1" d="M34.2 128.5l-8.2 6.9-8.6-10.8-10.9 9.1-6.5-8.3 10.8-9-8.7-10.8 8.2-6.9 8.7 10.8 10.8-9 6.6 8.2-10.8 9z"/>
  <path class="st2" d="M254.8 159.2l-8.1 6.9-8.7-10.8-10.8 9.1-6.6-8.3 10.8-9-8.6-10.8 8.1-6.9 8.7 10.8 10.8-9 6.6 8.2-10.8 9z"/>
  <path class="st3" d="M127.8 67.7L117 66.5l1.6-14.2-14.3-1.6 1.3-10.9 14.2 1.7 1.5-14.2 10.9 1.1-1.6 14.3 14.2 1.6-1.2 10.9-14.2-1.7z"/>
  <path fill-rule="evenodd" clip-rule="evenodd" fill="#fee96a" d="M534.3 59.1l-10.8-1.2 1.5-14.2-14.2-1.7 1.2-10.8 14.2 1.7 1.6-14.3 10.8 1.2-1.5 14.3 14.2 1.6-1.2 10.9-14.2-1.7z"/>
  <path class="st5" d="M967.3 14.7l5.3-9.2v.1-.1l-9.7 4.2L952.7 0l2.5 10.9-11.8 6.8 13 2.3.8 13.1 8-10.9 10.6 3.8z"/>
  <path class="st5" d="M876.7 415.3l5.3-9.2-9.7 4.2-10.2-9.7 2.5 10.9-11.8 6.7 13 2.4.8 13.1 8-10.9 10.6 3.7z"/>
</svg>