<svg xmlns="http://www.w3.org/2000/svg" width="1104.6" height="503.9" viewBox="0 0 1104.6 503.9">
  <style>
    .st0{fill:#8dd7f7}.st0,.st1{fill-rule:evenodd;clip-rule:evenodd}.st6{fill:none;stroke:#000;stroke-width:7.0866;stroke-linecap:round;stroke-miterlimit:22.9256}.st7,.st8{fill-rule:evenodd;clip-rule:evenodd;fill:#f6a6e2}.st8{fill:#fff}
  </style>
  <path class="st0" d="M567 453.5c0 5.6 2.6 10.6 6.9 14.3 4.3 3.7 10.3 6 16.8 6 2.3 0 4.6-.3 6.8-.9 2.2-.6 4.3-1.4 6.2-2.5l1.3-.8.5-.3.5.3 1.3.8c.6.3 1.2.6 1.8.8l-.6-1.5-.5-1.5-.2-.6.4-.5 1.1-1.2c1.7-1.8 3-3.8 3.8-6 .9-2.1 1.3-4.4 1.3-6.7 0-5.6-2.6-10.6-6.9-14.3-4.3-3.7-10.3-6-16.8-6-6.6 0-12.5 2.3-16.8 6-4.2 3.9-6.9 9-6.9 14.6"/>
  <path d="M598.7 474c-2.2.6-4.5.9-6.8.9-6.6 0-12.5-2.3-16.8-6-4.3-3.7-6.9-8.7-6.9-14.3 0-5.6 2.6-10.7 6.9-14.3 4.3-3.7 10.3-6 16.8-6 6.6 0 12.5 2.3 16.8 6 4.3 3.7 6.9 8.7 6.9 14.3 0 2.3-.4 4.5-1.3 6.7-.9 2.1-2.1 4.1-3.8 6l-1.1 1.2-.4.5.2.6.5 1.5.6 1.5c-.6-.2-1.2-.5-1.8-.8l-1.3-.8-.5-.3-.5.3-1.3.8c-1.9.8-4 1.6-6.2 2.2m-6.8 2.9c2.5 0 5-.3 7.4-.9 2.4-.6 4.7-1.5 6.8-2.7l.8-.5.8.5c.7.4 1.5.8 2.3 1.1.8.3 1.7.5 2.5.6l2.4.3-1.5-2c-.3-.5-.7-1-.9-1.5-.3-.6-.5-1.1-.8-1.7l-.3-.9.6-.7c1.9-2 3.3-4.2 4.2-6.6 1-2.4 1.5-4.9 1.5-7.5 0-6.2-2.9-11.8-7.6-15.9-4.7-4-11.1-6.5-18.2-6.5s-13.5 2.5-18.2 6.5c-4.7 4.1-7.6 9.7-7.6 15.9 0 6.2 2.9 11.8 7.6 15.9 4.6 4.1 11.1 6.6 18.2 6.6z"/>
  <path d="M606.8 465.1c.1-.1.3-.2.4-.4.1-.2.2-.4.2-.6v-.7c0-.3-.1-.5-.2-.6-.1-.2-.3-.3-.5-.4-.1 0-.1-.1-.2-.1s-.2 0-.3-.1h-.3c-.2 0-.5 0-.7.2-.2.1-.4.3-.6.4-.2.2-.2.4-.3.6 0 .3 0 .5.1.8.1.3.2.5.5.7.3.2.6.4.9.4.3.1.6 0 .9-.1 0-.1 0-.1.1-.1m.4-17.8c0-.1 0-.2.1-.3 0-.1 0-.2.1-.3v-.3c0-.1 0-.2-.1-.3 0-.1-.1-.2-.1-.2-.1 0-.1-.1-.2-.1-.4-.1-.7-.1-1.1-.1-.4 0-.7 0-1.1.1-.1 0-.2.1-.2.1-.1.1-.1.1-.1.2 0 .2-.1.4-.1.6v.7c0 .6 0 1.1.1 1.7 0 .6 0 1.1.1 1.7V461c0 .1 0 .2.1.2s.1.1.2.1H606.1c.3 0 .5 0 .8-.1.2 0 .3-.1.4-.2.1-.1.1-.2.1-.3v-.7-1.3-1.5-1.6-1.4-1-.6-.7-.6-.3-1.3-1.2c-.3-.3-.3-.7-.2-1.2zm-7.3 8.2c0 .1 0 .2-.1.4 0 .1-.1.3-.1.4-.1.2-.1.3-.1.4 0 .1-.1.2-.1.2-.1.2-.1.3-.2.5-.1.1-.2.3-.3.4 0 .1-.1.2-.2.2l-.2.2-.3.3c-.1.1-.3.2-.4.3-.2.1-.3.1-.4.2-.1 0-.2.1-.3.1-.1 0-.2 0-.4.1h-.7c-.3 0-.5 0-.7-.1-.1 0-.2-.1-.3-.1-.1 0-.2-.1-.2-.1h-.1s-.1-.1-.2-.1c-.1-.1-.2-.1-.3-.2-.1-.1-.2-.1-.3-.2l-.2-.2-.4-.4c-.1-.2-.3-.4-.3-.6-.1-.2-.1-.3-.2-.5-.1-.1-.1-.3-.1-.4v-.3-.4c0-.1 0-.2.1-.3 0-.1.1-.3.1-.4 0-.2.1-.3.1-.4 0-.1.1-.2.1-.2.1-.2.1-.3.2-.5.1-.1.2-.3.3-.4l.2-.2.2-.2.3-.3c.1-.1.3-.2.4-.3.2-.1.3-.1.4-.2.1 0 .2-.1.3-.1.1 0 .2-.1.4-.1h.7c.2 0 .5 0 .7.1.1 0 .2.1.3.1.1 0 .2.1.2.1.1 0 .1 0 .1.1 0 0 .1 0 .2.1s.2.1.3.2c.1.1.2.1.3.2l.2.2.4.4c.2.2.3.4.3.6.1.2.1.3.1.5.1.1.1.3.1.4v.3c.1-.1.1.1.1.2zm2.7-.1v-.3c0-.2 0-.4-.1-.6 0-.2-.1-.4-.1-.7 0-.2-.1-.4-.1-.6 0-.2-.1-.4-.1-.5-.1-.2-.2-.5-.3-.6-.1-.2-.2-.4-.3-.5-.1-.2-.3-.3-.5-.5-.1-.2-.2-.3-.4-.5-.1-.2-.3-.3-.5-.5s-.4-.3-.7-.4c-.4-.2-.7-.3-.9-.4-.2-.1-.4-.1-.5-.2-.1 0-.3-.1-.4-.1-.2 0-.3-.1-.5-.1h-.8-1.2c-.3 0-.6.1-.8.2-.3.1-.5.2-.8.4-.3.1-.5.3-.7.4-.2.1-.4.3-.5.4-.1.1-.3.2-.4.4-.1.1-.3.3-.5.6s-.4.5-.5.8c-.1.2-.3.5-.3.7-.1.2-.1.3-.2.5s-.1.3-.1.5c-.1.3-.1.6-.2.9 0 .3-.1.6 0 .9v.3c0 .2 0 .4.1.6 0 .2.1.4.1.7 0 .2.1.4.1.6 0 .2.1.4.1.5.1.2.2.5.3.6.1.2.2.3.3.5.1.2.3.3.4.5.1.1.3.3.4.5l.5.5c.2.2.4.3.7.5.4.2.7.3.9.4.2.1.4.1.4.2.1 0 .3.1.4.1.2 0 .3.1.5.1h2c.3 0 .6-.1.9-.2.3-.1.5-.2.8-.4.3-.1.5-.3.7-.4.2-.1.4-.3.5-.4.1-.1.3-.2.4-.4.1-.1.3-.3.5-.6s.3-.5.5-.8c.1-.2.3-.5.3-.7.1-.2.1-.3.2-.5 0-.2.1-.3.1-.5.1-.3.1-.6.2-.9.1-.4.1-.7.1-1zm-19.9-.8c.1.3.2.6.4.9l.3.9c.1.5.3 1 .4 1.4.1.5.3 1 .4 1.4l.3 1.5c0 .3.1.5.2.8.1.3.1.5.2.8.1.3.1.5.1.8 0 .1.1.2.1.3.1.1.2.1.3.2.1 0 .1.1.2.1h.2c.2 0 .4.1.5.1h1.6c.1 0 .2 0 .3-.1.1 0 .1-.1.2-.2v-.4-.7-.8-.7-1.7-1.4-.4-.7-.8-.7-.4-1.3-1.2-1.2-1.3c0-.7.1-1.3.2-2 0-.2 0-.3-.1-.4-.1-.1-.3-.2-.5-.2h-1.4c-.1 0-.2 0-.3.1-.2 0-.3 0-.4.1-.1 0-.1.1-.2.1v9.4c0 .1-.1.1-.1.1-.1-.1-.1-.3-.2-.4 0-.1-.1-.2-.1-.3 0-.1-.1-.3-.2-.5l-.3-.9c-.1-.3-.2-.7-.3-1.1-.1-.4-.2-.7-.3-1-.1-.3-.2-.6-.2-.9-.1-.2-.1-.4-.1-.5-.1-.3-.2-.7-.3-1-.1-.3-.2-.7-.4-1-.1-.2-.1-.4-.1-.6 0-.2-.1-.5-.1-.7-.1-.2-.1-.4-.2-.6-.1-.2-.2-.3-.3-.3h-2c-.1 0-.3 0-.4.1-.1 0-.2.1-.4.1-.1 0-.1 0-.2.1 0 0-.1.1-.1.2s-.1.3-.1.4V463.4c0 .1 0 .1.1.2 0 0 .1.1.2.1 0 0 .1.1.2.1s.1 0 .2.1c.2 0 .4.1.6.1H581.9c.1 0 .2 0 .3-.1.1 0 .1-.1.1-.2.1-.1.1-.3.1-.4 0-.1.1-.3.1-.4v-.5-.5-.5-.8-1-.9-.5-.8-.8c0-.2 0-.4-.1-.6v-.7-.5c.2-.2.2-.2.3-.2zm-5.4-8.8c-.1 0-.1-.1-.2-.1-.3-.1-.6-.1-.9-.1-.3.1-.6.2-.9.4-.2.2-.4.4-.5.7-.1.3-.1.5-.1.8 0 .2.1.4.3.6.2.2.3.3.6.4.2.1.4.2.7.2h.3c.1 0 .2 0 .3-.1.1 0 .2-.1.2-.1.2-.1.4-.3.5-.4.1-.2.2-.4.2-.6v-.7c0-.2-.1-.4-.2-.6 0-.2-.2-.3-.3-.4zm.4 17.8v-1.4-1.2-1.3-.3-.6-.7-.6-1-1.4-1.6-1.5-1.3-.7c0-.1 0-.3-.1-.3-.1-.1-.2-.1-.4-.2-.3 0-.5 0-.8-.1h-.8-.4c-.1 0-.1.1-.2.1s-.1.1-.1.2V459.9c0 .6 0 1.1-.1 1.7 0 .6 0 1.1-.1 1.7v.7c0 .2 0 .4.1.6 0 .1 0 .2.1.2.1.1.1.1.2.1.4.1.7.1 1.1.1.4 0 .7 0 1.1-.1.1 0 .2-.1.2-.1.1-.1.1-.1.1-.2v-.2-.3c0-.1 0-.2-.1-.3.2 0 .2-.1.2-.2z"/>
  <path class="st0" d="M622.3 486.5c0 4.8 1.5 9.4 5.6 12.2 3.1 2.1 7.2 2.5 10.9 2.5 6 0 11.6-3 14.8-8.1l2.7-4.2 4.4-6.9c1.5-2.4 3.1-4.6 4.8-6.9.3-.4.6-.8 1-1.2.4-.4.6-.9.7-1.4.2-1.4-1.1-2.5-2.4-2.7-.6-.1-1.2-.1-1.8.2-.2.1-.3.2-.5.3-.6.4-1.2 1-1.7 1.6-.8.8-1.6 1.6-2.3 2.5-.9 1.1-1.9 2.2-2.6 3.5-.9 1.5-3.2 1-3.2-.9v-21.6c0-1.6-1.3-3.1-3-3-1.5 0-2.9 1.2-2.9 2.7v15.1c0 .7-.7 1.1-1.3.9-.3-.1-.6-.5-.6-.9v-22c0-1-.4-1.9-1.1-2.6-2.2-2.2-5.9-.6-5.9 2.5v22c0 .2 0 .3-.1.5-.5.8-1.8.5-1.8-.5v-16.5c0-1.8-1.4-3.4-3.2-3.4-1.9-.1-3.6 1.4-3.6 3.3v16.7c0 .2-.1.4-.2.5-.5.8-1.7.4-1.7-.5v-10c0-1.4-1.1-2.5-2.5-2.5s-2.5 1.1-2.5 2.5v26.3z"/>
  <path class="st1" d="M626.4 460.9v10c0 .9 1.2 1.3 1.7.5.1-.2.2-.3.2-.5v-16.7c0-1.9 1.7-3.4 3.6-3.3 1.8.1 3.2 1.6 3.2 3.4v16.5c0 .9 1.3 1.3 1.8.5.1-.1.1-.3.1-.5v-22c0-3 3.7-4.6 5.9-2.5.7.7 1.1 1.6 1.1 2.6v22c0 .4.2.7.6.9.6.3 1.3-.2 1.3-.9v-15.1c0-1.5 1.4-2.7 2.9-2.7 1.7 0 3 1.4 3 3v21.6c0 1.9 2.3 2.4 3.2.9.7-1.2 1.7-2.4 2.6-3.5.7-.9 1.5-1.7 2.3-2.5.5-.5 1.1-1.1 1.7-1.6.2-.1.3-.2.5-.3.6-.2 1.2-.3 1.8-.2 1.3.3 2.6 1.3 2.4 2.7-.1.5-.3 1-.7 1.4-.3.4-.7.8-1 1.2-1.7 2.2-3.3 4.5-4.8 6.9l-4.4 6.9-2.7 4.2c-3.2 5.1-8.8 8.1-14.8 8.1-3.7 0-7.7-.4-10.9-2.5-4.1-2.8-5.6-7.4-5.6-12.2v-26.5c0-1.4 1.1-2.5 2.5-2.5 1.3.2 2.5 1.3 2.5 2.7m-6.9 26.6v.1c.1 2.9.8 5.9 2.1 8.5 1 2 2.5 3.8 4.4 5.1 3.5 2.3 7.8 2.8 11.9 2.8 6.7 0 13.1-3.3 16.5-9.1.3-.6.7-1.1 1-1.7.5-.8 1.1-1.7 1.6-2.5l4.4-6.9c1.5-2.3 3-4.6 4.7-6.7.3-.4.6-.8.9-1.1 1.7-1.9 1.6-4.6-.4-6.2-1.7-1.4-4.3-1.6-6.1-.3-.7.5-1.3 1.1-1.9 1.7-.9.9-1.7 1.8-2.5 2.7-.3.3-.6.7-.8 1l-1.6 1.9V456c0-3.4-3.4-5.9-6.6-4.6l-1.2.5v-3.1c0-3-2.4-5.5-5.5-5.4-2.8 0-5.2 2.4-5.3 5.2v1.3l-1.2-.5c-3.4-1.5-7.5 1-7.5 4.8v2.9l-1.2-.4c-2.8-.9-5.7 1.2-5.7 4.1v26.7z"/>
  <g>
    <path d="M29.7 63.1c0 20 24 41.6 40.4 48.2 17.4-7 40.3-28.1 40.3-48.2 0-12.3-10-22.2-22.3-22.2-7.4 0-13.9 3.6-18 9.1-4.1-5.5-10.6-9.1-18-9.1-12.4 0-22.4 9.9-22.4 22.2" fill-rule="evenodd" clip-rule="evenodd" fill="#eb008b"/>
    <path d="M83.4 44c2.5 0 4.9.4 7.1 1.1 8.9 3 15.2 11.3 15.2 21.1 0 20.2-22.9 41.2-40.3 48.2C49 107.8 25 86.2 25 66.2 25 53.9 35 44 47.3 44c7.4 0 13.9 3.6 18 9.1" fill="none" stroke="#fff" stroke-width="7.0866" stroke-linecap="round" stroke-miterlimit="22.9256"/>
    <path fill="none" stroke="#fff" stroke-width="4.252" stroke-linecap="round" stroke-linejoin="round" stroke-miterlimit="22.9256" d="M37.8 79.1h6.9l7.6-11.7 3.1 16.2 3.3-7.8 3 4 3.8-7.6 1.9 7.8 6.4-19.9 7.1 26.6 5.6-8.9h9.1"/>
    <path class="st0" d="M102.6 101.2l8.6 8.6c.2.3.4.4.7.4.2 0 .5-.1.8-.4.3-.3.5-.5.5-.8 0-.3-.2-.5-.5-.7l-8.6-8.6c-.1-.3-.4-.4-.8-.4-.2 0-.3 0-.4.1-.1.1-.2.2-.2.3-.3.2-.5.4-.5.6-.1.3 0 .5.4.9"/>
    <path class="st0" d="M113 87.4l5.3 2.3c.3.2.5.3.8.2.3-.1.5-.3.7-.6.1-.3.1-.6 0-.9-.1-.3-.4-.5-.7-.7l-5.3-2.3h-.4c-.3 0-.6.1-.7.2-.2.1-.3.3-.3.5-.1.4-.1.7 0 .9 0 .2.2.3.6.4"/>
    <path class="st0" d="M117.3 56.5l12-2.3c.3-.1.6-.1.8.1.2.1.3.4.4.8.1.4.1.7 0 .9-.1.2-.4.3-.8.3l-12 2.3c-.3.1-.6.1-.9-.1-.2-.1-.3-.2-.3-.3-.1-.1 0-.2 0-.4-.2-.4-.2-.6-.1-.8.2-.3.5-.4.9-.5"/>
    <path class="st0" d="M118.1 70.5l5.7 1.1c.3 0 .6.1.8.3.2.2.3.5.2.9-.1.3-.3.6-.5.8-.3.1-.6.2-1 .2l-5.7-1.1-.3-.2c-.3-.2-.4-.4-.5-.6-.1-.2-.1-.4 0-.6.2-.4.3-.6.5-.7.3-.2.5-.2.8-.1"/>
    <path class="st0" d="M28.1 107.7l-8.6 8.6c-.2.3-.4.4-.7.4-.2 0-.5-.1-.8-.4-.3-.3-.5-.5-.5-.8 0-.3.2-.5.5-.7l8.6-8.6c.1-.3.4-.4.8-.4.2 0 .3 0 .4.1.1.1.2.2.2.3.3.2.5.4.5.6.1.3-.1.6-.4.9"/>
    <path class="st0" d="M17.7 93.9l-5.3 2.3c-.3.2-.5.3-.8.2-.3-.1-.5-.3-.7-.6-.1-.3-.1-.6 0-.9.1-.3.4-.5.7-.7l5.3-2.3h.4c.3 0 .6.1.7.2.2.1.3.3.3.5.1.4.1.7 0 .9-.1.2-.3.4-.6.4"/>
    <path class="st0" d="M13.3 63l-12-2.3c-.3-.1-.6-.1-.8.1-.2.1-.3.4-.4.8-.1.4-.1.7 0 .9.1.2.4.3.8.3l12 2.3c.3.1.6.1.9-.1.2-.1.3-.2.3-.3.1-.1 0-.2 0-.4.2-.4.2-.6.1-.8-.2-.3-.4-.4-.9-.5"/>
    <path class="st0" d="M12.5 77l-5.7 1.1c-.3 0-.6.1-.8.3-.2.2-.3.5-.2.9.1.3.3.6.5.8.3.1.6.2 1 .2l5.7-1.1.3-.2c.3-.2.4-.4.5-.6.1-.2.1-.4 0-.6-.2-.4-.3-.6-.5-.7-.2-.2-.5-.2-.8-.1"/>
  </g>
  <g>
    <path d="M1020.4 122.6c0 21.1 17.1 38.2 38.2 38.2s38.2-17.1 38.2-38.2-17.1-38.2-38.2-38.2-38.2 17.1-38.2 38.2" fill-rule="evenodd" clip-rule="evenodd" fill="#77e09e"/>
    <path class="st6" d="M1062.9 156.2c-21.1 0-38.2-17.1-38.2-38.2s17.1-38.2 38.2-38.2 38.2 17.1 38.2 38.2c0 10.7-4.5 21-12.5 28.2"/>
    <path class="st6" d="M1062.8 85.5v10.2"/>
    <path class="st6" d="M1062.8 140.7V151"/>
    <path class="st6" d="M1030.1 118.2h10.2"/>
    <path class="st6" d="M1049.5 104.6l17.1 17.4"/>
    <path class="st6" d="M1085.3 118.2h10.2"/>
    <path class="st6" d="M1035.3 102.5l4.8 2.6"/>
    <path class="st6" d="M1046.5 90.6l3.3 4.4"/>
    <path class="st6" d="M1090.8 102.5l-4.9 2.6"/>
    <path class="st6" d="M1079.5 90.6l-3.3 4.4"/>
    <path class="st6" d="M1035.3 134.6l4.8-2.5"/>
    <path class="st6" d="M1046.5 146.5l3.3-4.4"/>
    <path class="st6" d="M1090.8 134.6l-4.9-2.5"/>
    <path class="st6" d="M1079.5 146.5l-3.3-4.4"/>
    <path class="st6" d="M1081.9 100.4l-23.3 22.2"/>
  </g>
  <g>
    <path class="st7" d="M401.4 105.2c0 3.1 1.2 5.9 3.4 8.1 4.5 4.5 11.7 4.5 16.2 0l2.4-2.4-16.2-16.2-2.4 2.4c-2.2 2.2-3.4 5-3.4 8.1m17.4-29.3L410.1 91l16.9 16.9L472 82l-36-36-7.9 13.7c-.6 1.1-2 1.5-3.2.8-.1 0-.1-.1-.2-.1-.8 1.4-1.5 2.7-2.3 4.1.2.1.5.3.6.5.4.4.7 1 .7 1.6 0 .6-.2 1.2-.7 1.6-.4.4-1 .7-1.6.7-.4 0-.9-.1-1.2-.4-.8 1.4-1.5 2.8-2.3 4.2 1.2.7 1.6 2.1.9 3.2zm19.6-34l37.7 37.7v.1l7.7-4.4-41-41-4.4 7.6zm6.4 61.2l-14.4 8.3 3.5 3.5c3.1 3.1 8.2 3.1 11.3 0 3.1-3.1 3.1-8.2 0-11.3l-.4-.5z"/>
    <path class="st1" d="M421.6 65.4c.6 0 1.2-.2 1.6-.7.4-.4.7-1 .7-1.6 0-.6-.2-1.2-.7-1.6-.4-.4-1-.7-1.6-.7-.6 0-1.2.2-1.6.7-.4.4-.7 1-.7 1.6 0 .6.2 1.2.7 1.6.4.4 1 .7 1.6.7"/>
    <path class="st1" d="M476.2 76.1l-37.8-37.8 4.4-7.7 41 41-7.6 4.5zM445.3 100c3.1 3.1 3.1 8.2 0 11.3-3.1 3.1-8.2 3.1-11.3 0l-3.5-3.5 14.4-8.3.4.5zm-40.5 9.8c-2.2-2.2-3.4-5-3.4-8.1 0-3.1 1.2-5.9 3.4-8.1l2.4-2.4 16.2 16.2-2.4 2.4c-4.4 4.4-11.7 4.4-16.2 0zM444 25.3c-.5-.5-1.2-.8-1.9-.7-.7.1-1.3.5-1.7 1.1l-16.2 28.1c-.6 1.1-.3 2.5.8 3.2 1.1.6 2.5.3 3.2-.8l7.9-13.7 36 36-45 25.9-16.9-16.9 8.7-15.1c.6-1.1.3-2.5-.8-3.2-1.1-.6-2.5-.3-3.2.8l-9.5 16.4-3.8 3.8c-3 3-4.7 7.1-4.7 11.4 0 4.3 1.7 8.3 4.7 11.4 3.1 3.1 7.2 4.7 11.4 4.7 4.1 0 8.2-1.6 11.4-4.7l2.4-2.4 4 4c2.5 2.5 5.7 3.7 8.9 3.7s6.5-1.2 8.9-3.7c4.8-4.8 4.9-12.5.4-17.4l39.8-23c.6-.4 1-1 1.1-1.7.1-.7-.1-1.4-.7-1.9L444 25.3z"/>
    <path class="st7" d="M455.4 26.3c.2.1.4.1.6.1 1 0 1.9-.7 2.2-1.7l2.8-10.3 2 2c.6.6 1.4.8 2.2.6.8-.2 1.4-.8 1.7-1.5l4-12.5c.4-1.2-.3-2.5-1.5-2.9-1.2-.4-2.5.3-2.9 1.5l-2.8 8.8-2.1-2.1c-.6-.6-1.4-.8-2.2-.6-.8.2-1.4.8-1.6 1.6l-3.9 14.1c-.5 1.3.3 2.6 1.5 2.9z"/>
    <path class="st8" d="M514.8 37.9c-.6-1.1-2-1.5-3.1-.9l-16.4 9c-.6.4-1.1 1-1.2 1.7-.1.7.1 1.4.7 2l4.5 4.5-10.9 2.7c-1.2.3-2 1.6-1.7 2.8.3 1 1.2 1.7 2.2 1.7.2 0 .4 0 .6-.1l14.8-3.7c.8-.2 1.4-.8 1.7-1.6.2-.8 0-1.7-.6-2.2l-5.2-5.2 13.7-7.5c1.2-.7 1.6-2.1.9-3.2z"/>
    <path class="st7" d="M503.3 25.7c.4.4 1 .7 1.6.7.6 0 1.2-.2 1.6-.7.4-.4.7-1 .7-1.6 0-.6-.2-1.2-.7-1.6-.4-.4-1-.7-1.6-.7-.6 0-1.2.2-1.6.7-.4.4-.7 1-.7 1.6.1.6.3 1.2.7 1.6"/>
    <path class="st7" d="M498.6 27.2c-.6-1.1-2-1.6-3.1-1l-8.6 4.3c-.7.3-1.1 1-1.3 1.7-.1.7.1 1.5.6 2l3.3 3.3-10.9 5.4c-1.1.6-1.6 1.9-1.1 3.1.4.8 1.2 1.3 2.1 1.3.3 0 .7-.1 1-.2l13.8-6.8c.7-.3 1.1-1 1.3-1.7.1-.7-.1-1.5-.6-2l-3.3-3.3 5.7-2.8c1.2-.7 1.7-2.1 1.1-3.3z"/>
    <path class="st8" d="M469.7 33.6c.4.2.8.3 1.2.3.8 0 1.5-.4 2-1.1l8.6-14.3L486 23c.5.5 1.2.7 1.9.7.7-.1 1.3-.4 1.7-1l12.8-19.1c.7-1.1.4-2.5-.6-3.2-1.1-.7-2.5-.4-3.2.6l-11.2 16.8-4.6-4.6c-.5-.5-1.2-.7-1.9-.7-.7.1-1.3.5-1.7 1.1l-10.1 16.8c-.9 1.2-.5 2.6.6 3.2z"/>
  </g>
  <g>
    <path d="M712.6 90.3h11v11c0 1.5 1.2 2.7 2.7 2.7h5.3c1.5 0 2.7-1.2 2.7-2.7v-11h10.6c1.5 0 2.7-1.2 2.7-2.7v-5.3c0-1.5-1.2-2.7-2.7-2.7h-10.6v-8.8c4-1.2 7.4-3.7 9.7-6.9V58h2.9c.5-1.6.7-3.3.7-5 0-4.6 3.8-8 8-8 4.4 0 8 3.6 8 8s-3.6 8-8 8c-.4 0-.8 0-1.1-.1v10.7h1.1c10.2 0 18.6-8.3 18.6-18.6 0-2.4-.5-4.7-1.3-6.8l10.7-9 6.8 8.1c.9 1.1 2.6 1.3 3.7.3l4.1-3.4c1.1-.9 1.3-2.6.3-3.7l-6.8-8.1 8.1-6.8c1.1-.9 1.3-2.6.3-3.7l-3.4-4.1c-.9-1.1-2.6-1.3-3.7-.3l-8.1 6.8-6.8-8.1c-.9-1.1-2.6-1.3-3.7-.3l-4.1 3.4c-1.1.9-1.3 2.6-.3 3.7l6.8 8.1-10.4 8.7c-3-2.1-6.7-3.4-10.7-3.4-6.8 0-12.9 3.8-16.2 9.4v3h-1.4c-.7 1.9-1 4-1 6.2 0 4.6-3.8 8-8 8-4.4 0-8-3.6-8-8s3.6-8 8-8V34.5c-10.2 0-18.9 8.3-18.9 18.6 0 8.4 6 15.4 13.6 17.7v8.8h-11c-1.5 0-2.7 1.2-2.7 2.7v5.3c-.2 1.5 1 2.7 2.5 2.7" fill-rule="evenodd" clip-rule="evenodd" fill="#fff584"/>
    <path d="M755.5 72.6c10.9 0 19.8-8.9 19.8-19.8 0-2.6-.5-5-1.4-7.3l11.4-9.6 7.3 8.7c1 1.2 2.8 1.4 4 .3l4.3-3.6c1.2-1 1.4-2.8.3-4l-7.3-8.7 8.7-7.3c1.2-1 1.4-2.8.3-4l-3.6-4.3c-1-1.2-2.8-1.4-4-.3l-8.7 7.3-7.3-8.7c-1-1.2-2.8-1.4-4-.3l-4.3 3.6c-1.2 1-1.4 2.8-.3 4l7.3 8.7-11.1 9.3c-3.2-2.3-7.1-3.6-11.4-3.6-10.7 0-19.8 8.8-19.8 19.8 0 5-4.1 8.5-8.5 8.5-4.7 0-8.5-3.8-8.5-8.5s3.8-8.5 8.5-8.5m-.1-11.4c-10.9 0-20.2 8.9-20.2 19.8 0 9 6.4 16.5 14.6 18.9V81h-11.7c-1.6 0-2.8 1.3-2.8 2.8v5.7c0 1.6 1.3 2.8 2.8 2.8h11.7V104c0 1.6 1.3 2.8 2.8 2.8h5.7c1.6 0 2.8-1.3 2.8-2.8V92.4h11.3c1.6 0 2.8-1.3 2.8-2.8v-5.7c0-1.6-1.3-2.8-2.8-2.8h-11.3v-9.4c8.4-2.5 14.2-10.2 14.2-19 0-5 4.1-8.5 8.5-8.5 4.7 0 8.5 3.8 8.5 8.5s-3.8 8.5-8.5 8.5" fill="none" stroke="#000" stroke-width="4.252" stroke-linecap="round" stroke-miterlimit="22.9256"/>
  </g>
</svg>
