<svg xmlns="http://www.w3.org/2000/svg" width="392.4" height="108.2" viewBox="0 0 392.4 108.2">
  <style>
    .st0,.st1,.st2{fill-rule:evenodd;clip-rule:evenodd;fill:#fff}.st1,.st2{fill:#f9c3d3}.st2{fill:#5bcbf5}.st3{stroke-linecap:round}.st3,.st4{fill:none;stroke:#000;stroke-width:1.134;stroke-miterlimit:22.926}.st6,.st7{stroke-linecap:round}.st6{fill:none;stroke:#5bcbf5;stroke-miterlimit:22.926;stroke-width:1.134}.st7{stroke-width:.85}.st10,.st7,.st8{fill:none;stroke:#000;stroke-miterlimit:22.926}.st8{stroke-linecap:round;stroke-width:1.128}.st10{stroke-width:.85}
  </style>
  <path class="st0" d="M112 48.1c0 .1-.1.3 0 .4.1.1.3-.1.4-.2.8-.5 1.1-1.4 1.5-2.2.3-.5.5-1.1.4-1.7-.1-1.2-.8-1.9-1.6-2.6-.2-.2-.4-.1-.5.3-.2 1.6-.2 3.3-.2 4.9.1.4 0 .8 0 1.1"/>
  <path class="st1" d="M53.8 105.9s1-16-4.5-17.7c-2.4-.7-6.1-.9-9.4-.9-2.7 7.3-6.1 14-16.6 11.2-6.9-1.8-7.5-10.1-7.5-10.1-5.1.4-11.4 1.2-12.7 2.6C.7 93.4.8 105.9.8 105.9h53"/>
  <path class="st2" d="M23.4 98.4c10.4 2.8 13.9-3.8 16.6-11.2h-2.8c-.8 1.5-4.1 7.2-9.9 7.9-6.7.9-8.6-7.1-8.6-7.1-.9.1-1.8.2-2.8.3-.1 0 .6 8.3 7.5 10.1"/>
  <path class="st2" d="M35 79.9c-.1-5.1-3.4-9.1-7.3-9.1s-7.1 4-7.3 9c2.6.5 5.5.8 8.9.8.8 0 1.6 0 2.4-.1l3.3-.6"/>
  <path class="st2" d="M48.6 43c-4.6-2.8-11.3-5.8-15.9-3.7-.9.4-1.8 1.1-2.5 2 3.1 1 6.8 1.7 11.2 1.7 2.7.1 5.2 0 7.2 0"/>
  <path class="st2" d="M51.8 37C50 24.6 36.9 17.7 31 16.8c-5.9-.9-8.4 1.2-9.9 1.8-1.4.6-1.4-2-1.3-2.4-1.4.7-.4 4.3-3.4 2.8-3.1-1.5 2.3-3.8-.8-2.6-3.1 1.2-3.8 5.2-4.7 4.8-.9-.4-.8-3.4-.8-3.4-2.7 3.8-6.6 8.8-7.6 14.2-.6 3.1 1 7.4 1 9.5v.2c4-.8 12.7-3.5 14.3-11.4.1-.6.2-1 .2-1.3.1.9.5 3 2.4 5.8 1.7 2.5 5 5 9.8 6.6.7-.9 1.6-1.6 2.5-2 4.6-2.2 11.4.9 15.9 3.7h3.9c-.2-2.5-.5-4.6-.7-6.1m-33.9-8"/>
  <path class="st3" d="M53.6 46.5s-20-16.1-25.1-2.1c-6.1 17 9.4 18.9-6.9 13.9"/>
  <path class="st4" d="M10.1 17.9s-.1 3 .8 3.4c.9.4 1.6-3.6 4.7-4.8 3.1-1.2-2.3 1.1.8 2.6 3 1.5 2-2.2 3.5-2.9-.2-.3-.3 3 1.3 2.4 1.5-.7 4-2.7 9.9-1.8 5.8.9 19 7.8 20.8 20.2.7 4.7 1.7 15.1.4 22.5-2.1 12-8.9 20.9-22.9 21-14.6.1-21.4-5-24.6-14.6-2.2-6.5-1.4-19.3-1.3-24.4 0-2.1-1.6-6.4-1-9.5 1-5.4 4.9-10.4 7.6-14.1z"/>
  <path class="st4" d="M35 79.9c-1.8.4-3.7.6-5.7.6-3.4 0-6.3-.2-8.9-.8.2-5 3.4-9 7.3-9s7.1 4.1 7.3 9.2z"/>
  <path class="st3" d="M1.4 42.1s14.2-1.3 16.3-11.8c.5-2.7 2.1 12.8 23.5 12.7h12.5"/>
  <path class="st3" d="M14.7 29.9s-1.2 6-5.9 7.7"/>
  <path class="st3" d="M32.8 19.4s6.4.8 10.2 8.5"/>
  <path class="st3" d="M33.2 21.9s4-.6 6.5 5.1"/>
  <path class="st3" d="M20 28.4s5.2 9.7 17.4 12.5"/>
  <path class="st3" d="M22.8 28.5c2.7 3.1 7.5 7.1 14.7 8.8"/>
  <path d="M2.7 52.8c-1.2 0-2.1-2.1-2.1-4.7s.9-4.7 2.1-4.7" fill="none" stroke="#000" stroke-width="1.135" stroke-linecap="round" stroke-miterlimit="22.926"/>
  <path class="st4" d="M52.9 53.4c1 0 2.4-2 2.4-4.6 0-1-1-6.2-2.8-4.3"/>
  <path class="st4" d="M23.3 80.4l-.5 7.3S5.4 88.6 3.1 91C.7 93.4.8 105.9.8 105.9h53s1-16-4.5-17.7c-5.5-1.7-17.7-.6-17.7-.6v-7.4"/>
  <path class="st4" d="M18.7 88s1.9 8 8.6 7.2c6.7-.9 10.1-8.3 10.1-8.3"/>
  <path class="st4" d="M15.8 88.3s.6 8.3 7.5 10.1c10.4 2.8 13.9-3.8 16.6-11.2"/>
  <path class="st3" d="M9.2 92s-5.7-.9-5.7 5.5"/>
  <path class="st3" d="M44.6 89.6s5.7-.9 5.7 5.5"/>
  <path class="st3" d="M8.8 93.6c-1.2.3-2.6 1-3.3 2.9"/>
  <path class="st3" d="M45 91.1c1.2.3 2.6 1 3.3 2.9"/>
  <path class="st3" d="M25 73.1s-2.1 1.5-1.6 4.1"/>
  <path class="st3" d="M29.8 73.2s2.1 1.5 1.6 4.1"/>
  <path class="st3" d="M25.9 76.6s.7 2.3 1.5 2.4c.8.1 1.6-2.4 1.6-2.4"/>
  <path class="st3" d="M21.1 64s2.8 3.5 6.6 3c3.8-.4 4.5-3.5 4.5-3.5"/>
  <path class="st6" d="M14.5 52.7s.6 2.5 3.2 2.1c2.6-.4 3.3-1.6 3.3-1.6"/>
  <path class="st6" d="M31.9 52.1c.8 3.3 4.9 2.4 6 .8"/>
  <path class="st1" d="M54.3 65.7c.3.2.5.4.7.7.1.1.1.1.1.2-.3-.2-.6-.5-.8-.9m8.5-2.3c-1.3-2-2.3-4.4-2.9-6.9-2.2.1-3.9 1.8-3.9 4v.3c-.2-.1-.4-.1-.6-.1-1.3 0-2.2 1.5-1.9 3.3.1.6.3 1.3.7 1.8-.7-.5-1.5-.7-2.1-.3-.6.4-.8 1.4-.4 2.4-2.4 1.2-7.4 7.6-7.5 9.3.7.6 3.6-1.2 3.6-1.2l-.8 3.2 2.4-1.6s-.7 4.7.4 4.1c1.1-.5 3.3-11.8 4.3-12 .3 0 .6-.1.8-.2.7-.5.8-1.7.2-2.7.4.4.9.6 1.4.6 1.3 0 2.1-1.3 1.9-3.1.5.2 1 .3 1.6.3 1.1 0 2.1-.5 2.8-1.2z"/>
  <path class="st1" d="M113.4 68.1c-.3.2-.5.4-.7.7-.1.1-.1.1-.1.2.3-.2.6-.5.8-.9m-8.5-2.3c1.3-2 2.3-4.4 2.9-6.9 2.2.1 3.9 1.8 3.9 4v.3c.2-.1.4-.1.6-.1 1.3 0 2.2 1.5 1.9 3.3-.1.6-.3 1.3-.7 1.8.7-.5 1.5-.7 2.1-.3.6.4.8 1.4.4 2.4 2.4 1.2 7.4 7.6 7.5 9.3-.7.6-3.6-1.2-3.6-1.2l.9 3.3-2.4-1.6s.7 4.7-.4 4.1c-1.1-.5-3.3-11.8-4.3-12-.3 0-.6-.1-.8-.2-.7-.5-.8-1.7-.2-2.7-.4.4-.9.6-1.4.6-1.3 0-2.1-1.3-1.9-3.1-.5.2-1 .3-1.6.3-1.3-.1-2.2-.6-2.9-1.3z"/>
  <path class="st2" d="M112 105.8s-.4-19.8-8.8-20.5c-8.4-.7-12.2-.4-12.2-.4.2 1.6-1 4-5.2 5-8.2 2-12.4-2.5-12.6-5.4 0 0-15.2-3.6-16.8 7.4-1.6 10.9-1.9 13.6-1.9 13.6l57.5.3"/>
  <path class="st1" d="M62.2 38.7c2.5-1.2 7.1-4 9.4-8.4 1.1-2.1 2-4.1 2.6-5.8 1.2-3.3 1.7-5.5 1.7-5.5-5.8 1.8-12.8 6.8-15.4 20.3.5-.2 1.1-.4 1.7-.6"/>
  <path class="st1" d="M108.7 39.6c-1.3-19.5-24.4-21.4-24.4-21.4s-3.8-.7-8.5.8c0 0-.4 2.2-1.7 5.5-1.3 13.8 24.9 18.9 34.7 16.7 0-.5 0-1.1-.1-1.6"/>
  <path class="st4" d="M59.5 50c-.2.1.1.2-.5.2s-2.3-2.1-2.2-4.7c.1-2.7 2.5-4.7 3.5-4.7"/>
  <path class="st3" d="M56.2 40.9s21.5-9.4 28.2-.8c6.7 8.6-.1 15-.1 15l4.7.3"/>
  <path class="st1" d="M78.2 85.1c4.7 4.3 9.5-2.2 11.3-2 2.2.3 3 5.2-3.7 6.8-10.4 2.5-14.3-5.4-11.9-7.2.8-.5 1.9.2 4.3 2.4z"/>
  <path class="st4" d="M78.2 85.1c4.7 4.3 9.5-2.2 11.3-2 2.2.3 3 5.2-3.7 6.8-10.4 2.5-14.3-5.4-11.9-7.2.8-.5 1.9.2 4.3 2.4z"/>
  <path class="st7" d="M76.1 84.3s-1-.3-1.9 1"/>
  <path class="st4" d="M73.3 84.6S58.1 81 56.5 92c-1.6 10.9-1.9 13.6-1.9 13.6l57.1.1s-.1-19.6-8.5-20.3C94.8 84.7 91 85 91 85"/>
  <path class="st7" d="M76.6 85.5s-1.3 0-1.3 1.1"/>
  <path class="st7" d="M77.9 86.5s-1 .2-.9 1.2"/>
  <path class="st7" d="M79.8 87s-1.7.5-1.1 1.7"/>
  <path class="st7" d="M81.1 87.3s.4 1.7-.1 2.1"/>
  <path class="st7" d="M82.7 87.4s.8 0 .7 1.9"/>
  <path class="st7" d="M84.4 87.1c.1-.1.8 1.1.6 1.8"/>
  <path class="st7" d="M85.7 86.7s1 1 .9 1.6"/>
  <path class="st7" d="M86.9 85.8s1.6.6 1.5 1.6"/>
  <path class="st7" d="M88.2 84.8s1.4-.6 1.7 1"/>
  <path class="st3" d="M69.6 86.5s-9.9 1.1-9.8 6.9"/>
  <path class="st3" d="M97.3 86.9s9.9 1.1 9.8 6.9"/>
  <path class="st3" d="M68.4 88.6c-1.8.6-3.9 1.5-5.1 3"/>
  <path class="st3" d="M98.5 89.1c1.8.6 3.9 1.5 5.1 3"/>
  <path class="st4" d="M76.8 73.9l.1 10.1"/>
  <path class="st3" d="M87.3 75.3s-.6 9-.1 9"/>
  <path class="st4" d="M59.5 52.7C59.9 70 80.2 77 87.7 75.4c18.2-4 22.6-13.8 21.1-35.8-1.7-24-50.3-38-49.3 13.1z"/>
  <path class="st4" d="M109.1 52c.6 0 2.9-2.1 2.9-4.7s-1.8-4.7-2.8-4.7"/>
  <path class="st3" d="M60.5 39.5c8.9-3.3 13.6-11.2 15.3-20.1"/>
  <path class="st3" d="M74.2 25.8c.3 14 29.7 18.3 36.8 14.7"/>
  <path class="st7" d="M71.9 23.3s-1.5 6.8-5 9.2"/>
  <path class="st3" d="M103.7 36.1s.5-9.5-12.5-12.7"/>
  <path class="st3" d="M75.9 62.3c3.3 4.9 13.5 7.1 16.2 1"/>
  <path class="st6" d="M74.4 48.9c1 4 4.8 1.3 4.5.5"/>
  <path class="st6" d="M91.2 50.2s.6 1.9 2.3 1.6c1.7-.4 1.9-1.2 1.9-1.2"/>
  <path class="st3" d="M62.8 63.4c-.7.7-1.7 1.1-2.8 1.1-2.2 0-4-1.8-4-4s1.7-4 3.9-4c.6 2.6 1.6 4.9 2.9 6.9z"/>
  <path class="st8" d="M104.9 66.1c.7.7 1.7 1.1 2.8 1.1 4.9 0 5.6-8 .2-8.1-.7 2.6-1.7 5-3 7z"/>
  <path class="st4" d="M55.5 60.7c.2 0 .4 0 .6.1.1 1.5 1 2.8 2.4 3.4.2 1.7-.6 3.1-1.9 3.1-1.3 0-2.6-1.5-2.9-3.3-.4-1.8.4-3.3 1.8-3.3z"/>
  <path class="st4" d="M112.2 63.4c-.2 0-.4 0-.6.1-.1 1.5-1.1 2.8-2.4 3.4-.2 1.7.6 3.1 1.9 3.1 1.3 0 2.7-1.5 3-3.3.3-1.9-.5-3.3-1.9-3.3z"/>
  <ellipse transform="rotate(-34.493 53.54734193 67.44220857)" class="st4" cx="53.5" cy="67.4" rx="1.7" ry="2.4"/>
  <path class="st4" d="M115.5 68.1c-.8-.5-2-.1-2.8 1-.8 1.1-.7 2.4 0 2.9.8.5 2 .1 2.8-1s.7-2.3 0-2.9z"/>
  <path class="st3" d="M51.8 67.8c-2.4 1.2-7.4 7.6-7.5 9.3.7.6 3.6-1.2 3.6-1.2-1 3.5-1.7 3.8 1.4 1.6 0 0-.7 4.7.4 4.1 1.1-.5 3.3-11.8 4.3-12"/>
  <path class="st8" d="M115.8 70.5c2.4 1.2 7.3 7.6 7.4 9.3-.7.6-3.6-1.2-3.6-1.2 1 3.5 1.6 3.8-1.4 1.6 0 0 .6 4.7-.4 4.1-1.1-.5-3.2-11.8-4.2-12"/>
  <path class="st3" d="M51.3 72.1s-2.1 1.9-1.5 4.2"/>
  <path d="M116.2 73.8s2.1 1.9 1.5 4.2" fill="none" stroke="#000" stroke-width=".846" stroke-linecap="round" stroke-miterlimit="22.926"/>
  <path class="st1" d="M149.2 87.2s-2.7 7.3-7.5 7c-3-.2-5.1-4.5-7.8-6.5-2.8-2.1-6.4-1.9-7.1-1.9-5 .2-12.8 1.2-13 4.7-.2 5.2-1.1 14.7-1.1 14.7l54.9 1.9s3.3-18.7-2.8-19.6c-6.1-1-15.6-.3-15.6-.3"/>
  <path class="st2" d="M148.6 88.8c.6-.6 1.3-1.1 2-1.5 1.7-1 3.3-1.4 3.3-1.4s-3.8-3.9-5.8-3.6c-.5.1-1.1.8-1.8 2-2 3.5-4.2 10.4-4.2 10.4s2.9-.3 4.3-1.6c.6-.5.8-2.9 2.2-4.3m-6.7 5.9s-3.6-11.5-5.7-11.8c-2.1-.3-6.1 3.1-6.1 3.1s.1 0 .3.1c.9.3 3.4 1.2 5 2.8 1.4 1.3 1.6 3.7 2.2 4.3 1.4 1.2 4.3 1.5 4.3 1.5z"/>
  <path class="st2" d="M146.5 78.6c7-.9 14.5-5.6 14.5-11.9 0-2.9.2-5.7.4-8-.9 1.3-6.6 9.7-8.7 11.6-9.8 9.1-28.7-.2-31.2-14.9 1.4 10.8 6.5 21.6 20.7 23.3 1.4.1 2.8.1 4.3-.1"/>
  <path class="st2" d="M142.8 36.3c6.2 3.8 9.4-4.1 14.8-3.8 5.5.3 4.4.7 4.4.7s-2.9 14.9.6 17.8c.6.1 3.2.2 3.1-.6-.1-.9-.7-18.9-.7-18.9-5-12.9-16.8-13.6-28.9-12.3-9.9 1-20.8 5.9-17 24.2.9 4.3-.5 8 .1 11 .1.3 2 .4 2.3.7 0 0 .3-20.4.1-21.7-.1-.7 4.3-.9 9.4-.4 4.2.4 8.9 1.5 11.8 3.3"/>
  <path class="st4" d="M122.2 60.3c-.2.1-.4.1-.7.1-1.5.1-3-1.1-3.5-2.6-.2-.6.3-3.6 3.4-2.7"/>
  <path class="st4" d="M161.9 57c1 .1 3.2-1.4 3.5-2.8.3-1.5-1-3.1-2-3.1"/>
  <path class="st3" d="M130.2 40c-3.6-.4 1.8-18.2 13.3-2.8l-2.2 20.2s4.8 1 4.9-1.1"/>
  <path class="st4" d="M119.1 43.4c.9 4.3-.5 8 .1 11 .1.3 2.3.4 2.3.7 1.3 10.8 6.4 21.8 20.8 23.5 7.8.9 18.7-4.3 18.7-11.9 0-8.7 1.5-15.7 1.5-15.7s3.3.4 3.2-.5c-.1-.9-.7-18.9-.7-18.9-5-12.9-16.8-13.6-28.9-12.3-9.9.9-20.8 5.8-17 24.1z"/>
  <path class="st4" d="M121.4 55.1s.3-20.4.1-21.7c-.2-1.3 14.9-1 21.1 2.9 6.3 4 9.4-4 14.9-3.7s4.4.7 4.4.7-2.9 14.9.6 17.8"/>
  <path class="st7" d="M126.8 28.1s6.5-1.2 13.6 4.5"/>
  <path class="st3" d="M145.6 21.4s6.5-1.2 13.6 4.5"/>
  <path class="st7" d="M131.4 26.4c2 .2 4.6.9 7.6 2.6"/>
  <path class="st6" d="M129.6 52.2c.7 3.2 5.2 2 6.9.4"/>
  <path class="st6" d="M147.4 51.7s.7 1.8 2.5 1.8 2.8-1.3 2.8-1.3"/>
  <path class="st3" d="M136.2 65.4s1.6 3.4 4.7 3.2c3.1-.1 4.7-3.2 4.7-3.2"/>
  <path class="st3" d="M136.4 77.3l.7 6.2"/>
  <path class="st3" d="M146.5 78.6l-.2 5.7"/>
  <path class="st3" d="M141.9 94.7s-3.6-11.5-5.7-11.8c-2.1-.3-6.1 3.1-6.1 3.1s3.3.9 5.3 2.9c1.4 1.3 1.6 3.7 2.2 4.3 1.4 1.2 4.3 1.5 4.3 1.5z"/>
  <path class="st3" d="M142.1 94.7s3.9-12 6-12.3c2.1-.3 5.8 3.6 5.8 3.6s-3.3.9-5.3 2.9c-1.4 1.3-1.6 3.7-2.2 4.3-1.4 1.2-4.3 1.5-4.3 1.5z"/>
  <path class="st4" d="M121.5 55.4c2.5 14.7 21.4 24 31.2 14.9 2.2-2.1 8.8-11.8 8.8-11.8"/>
  <path class="st4" d="M130.7 86s-16.9-.5-17.1 4.8c-.2 5.2-1.1 14.7-1.1 14.7l55.7.6s2.5-17.4-3.6-18.3c-6.1-1-14.1-.3-14.1-.3"/>
  <path class="st4" d="M142.1 94.3l-.7 12.2"/>
  <path class="st2" d="M139 100.7c.9.1 1.7-1.1 1-1.5-1.7-1-1.9 1.4-1 1.5z"/>
  <path class="st10" d="M139 100.7c.9.1 1.7-1.1 1-1.5-1.7-1-1.9 1.4-1 1.5z"/>
  <path class="st2" d="M168.8 107.2l37.5-.9 13.2-1.4c.6 0-1.2-16.5-2.7-17.2-1.5-.7-2.7-.6-5.1-.9-2 8.5-5.2 14.3-18.1 14.7-2 .1-4.2 0-6.7-.2-12.6-1-12.4-14.5-12.4-14.5H172s-3.9 1.8-3.4 8c.7 6.3.2 12.4.2 12.4"/>
  <path class="st1" d="M189.5 24.7h-.5.5m2.4.1c-.5 0-1.4-.1-2.4-.1h1.8c.2.1.4.1.6.1zm.6 0h-.1.1zm0 0zm5.2.4c-1.4-.2-2.8-.3-4.4-.3h-.7c1.7 0 3.3.1 4.8.3.1-.1.2-.1.3 0zm6.6 2.1c-1.8-1-4-1.7-6.5-2.1 2.5.4 4.6 1.1 6.5 2.1zm-4.6-14.5c-.1 0-.1 0 0 0-.7 0-1.2-.1-1.7-.3h.2c.4 0 1 .1 1.5.3zm14.9 34c-.8-8-3.3-15.7-10.3-19.5.3-.8.5-1.7.5-2.7 0-1.8-.7-3.5-1.8-4.8.1-.5.2-1.1.2-1.6 0-2.5-1.5-4.7-3.5-5.4 1.9 0 3.5-1.1 3.5-2.5 0-.7-.4-1.3-1.1-1.8-1-1.4 4-5.7 4-5.7l-3.7 1.3-1.1-2.5-1.6 2.4-2-2.3.1 2.1s-2.4-1.2-1.7-.7c.6.5 2.1 4.9 2.1 4.9-1.3.4-2.2 1.3-2.2 2.3 0 1 .8 1.8 2 2.2-2.6.1-4.7 2.4-4.9 5.2-2.7 1.2-4.6 3.9-4.6 6.9v.1c-6.2.4-17.4 3.3-18.4 19.5 17.8 9.2 17.7-.8 30.9-.5 6.9.3 12.8 2.7 13.6 3.1z"/>
  <path d="M219.1 45.9s-4.8 1.4-10.4 1.6c-4.9.1-10.4-1.1-13.3-.4-6.1 1.5.3 15.1.3 15.1s-1.9 1.4-4.1.2" fill="none" stroke="#000" stroke-width="1.106" stroke-linecap="round" stroke-miterlimit="22.926"/>
  <path class="st4" d="M192.5 24.8s-29.1-4.3-21.3 33.6c3.9 19.2 12.8 22.9 20.6 22.2 15.5-1.4 22.4-14 22.8-19.6 1-14.7.9-36.7-22.1-36.2z"/>
  <path class="st3" d="M184.7 66.9s.6 3.8 8.2 3.9c7.6 0 7.2-4.1 7.2-4.1"/>
  <path class="st3" d="M169.9 44.3c17.8 9.2 17.7-.8 30.9-.5 7.5.2 13.8 3 13.8 3"/>
  <path class="st4" d="M170.7 58.5c-1 .1-2.1-1.9-2.5-4.5-.4-2.6.4-4.8 1.4-4.9"/>
  <path class="st4" d="M215 57.8c1-.1 2.7-2.3 2.7-4.9 0-2.6-1.7-4.7-2.7-4.7"/>
  <path class="st6" d="M181.5 55.3s2.1 2.4 3.9 1.4 1.7-2.1 1.7-2.1"/>
  <path class="st6" d="M196.2 54.3s.7 1.7 3.1 1.4 3.2-1.8 3.2-1.8"/>
  <path class="st7" d="M200.4 28.1s8.8 3.7 8.8 9.4"/>
  <path class="st7" d="M201.5 31c2.1 1.2 4.1 2.9 4.6 5.4"/>
  <path class="st4" d="M188.4 24.6c0-11.9 20.4-8.5 15.9 2.7"/>
  <path class="st4" d="M193 17.7c.5-7.3 10.2-7.2 10.2.5 0 1.9-.1.9-.2 1.4"/>
  <path class="st7" d="M199.5 19.6s3.2.9 2.8 3.1"/>
  <path class="st7" d="M199.9 14.3c.8.5 1.7 1.3 1.5 2.5"/>
  <path class="st7" d="M200.1 9.2c1 .2 1.1.4 1.4 1.5"/>
  <path class="st4" d="M197.6 12.4c-1-.5-1.6-1.2-1.6-2.1 0-1.4 1.6-2.5 3.6-2.5s3.6 1.1 3.6 2.5c0 1.2-1.2 2.2-2.9 2.4"/>
  <path class="st4" d="M198.2 8c-1.4-4.1-3.9-5.9-.4-4.2l-.1-2.1 2 2.3 1.6-2.4 1.1 2.5c8.7-3.1-2.2 1.8-.3 4.4"/>
  <path class="st4" d="M189.4 80.7l.6 5.8-17.8.3c-5 2.3-2.7 13.7-3.5 19.3 0 0 51.7 1.7 51-1.8-.7-3.5-.6-15.5-2.8-16.5-2.2-1.1-17.2-1.8-17.2-1.8l-1.5.1v-6.7"/>
  <path class="st4" d="M174.6 86.8s-.2 13.5 12.4 14.5c18.6 1.6 22.4-4.7 24.8-14.5"/>
  <path class="st7" d="M193.4 98.2l.3 3.3"/>
  <path class="st7" d="M173.2 88.8c-.2 0-3.1 1.2-2 5"/>
  <path class="st7" d="M214.7 89.1c.2 0 3.1 1.2 2 5"/>
  <path class="st1" d="M220.4 107.1l55.1-.6s2.7-15.1-2.6-16.2c-5-1.1-14.3-2.6-17.9-1.6-3.4 1-6 4.5-7.1 4.4-1.8-.1-3.1-3-4.9-3.5-2.9-.8-8.7 1.1-19 .6 0 0-4.2 1.3-3.8 6.7.4 5.2.2 10.2.2 10.2"/>
  <path class="st2" d="M252.7 39.2c2.3 0 4.3-1.6 5.3-3.8.9 2.3 2.8 3.9 4.9 3.9 2.7 0 5-2.5 5.4-5.7.3.2.4.4.4.9-.5 2.3.2 11.2.3 17.9l1.2.6c2.6-.8 8.6-3.2 8.5-8.1-.1-2.5-1.5-4.6-3.8-5.7 1.9-1.5 3.2-4.1 3.2-7 0-4.6-3.2-8.4-7.1-8.4-1.3 0-2.6.4-3.6 1.2-.6-4-3.9-7.1-7.9-7.1-1.9 0-3.7.7-5 1.9-1.5-2.8-4.5-4.7-8.1-4.7s-6.6 1.9-8.1 4.7c-1.6-1.5-3.9-2.5-6.4-2.5-5 0-9 3.7-9 8.4 0 .6.1 1.1.2 1.6-4.5.5-7.9 3.9-7.9 8.3s2.6 7.2 6.9 8.8c-3.6 1.5-1.4 7.6 4.2 8.5V36c.9 1.9 2.5 3.1 4.4 3.1 2.4 0 4.4-2.2 5-5.1.4 3.3 2.9 5.9 6 5.9 2.7 0 5-2 5.8-4.7.8 2.3 2.8 4 5.2 4"/>
  <path class="st2" d="M249.6 105.9v-2.4c.4.1.9.2 1.2.4.4.2.7.5 1 .8l-1.2 1.2H252.5l.1-.1v.1h.6c-.2-.5-.6-1-1-1.5-.5-.5-1-.9-1.5-1.1-.6-.2-1.2-.4-1.8-.4-.7 0-1.3.1-1.8.4-.6.2-1.1.6-1.5 1.1-.5.5-.8 1.1-1.1 1.7h.6c.1-.3.3-.5.5-.8.1.2.3.4.5.6l.2.2H248c-.1-.1-.2-.3-.4-.4-.3-.4-.7-.8-1.1-1.2.3-.2.6-.4.9-.5.3-.1.6-.2 1-.3v2.5c.3-.2.7-.2 1.2-.3m5.9-.5c-.2-.7-.6-1.3-1.1-1.9l1.9-2.5c.1-.2.2-.3.1-.5 0-.2-.1-.3-.3-.4-.2-.1-.3-.2-.5-.2s-.3.1-.5.3l-1.7 2.4c-.6-.5-1.3-.9-2-1.2-.7-.3-1.4-.5-2.2-.5v-3.4c0-.2-.1-.4-.2-.5-.1-.1-.3-.2-.5-.2s-.3.1-.5.2c-.1.1-.2.3-.2.5v3.5c-1.2.2-2.3.6-3.2 1.3l-1.8-2.5c-.1-.2-.3-.3-.5-.3s-.3 0-.5.2c-.2.1-.3.3-.3.4 0 .2 0 .3.2.5l1.9 2.5c-.6.7-1.1 1.4-1.4 2.1-.1.3-.3.7-.4 1.1h1.4c0-.2.1-.3.2-.5.3-.7.7-1.3 1.2-1.8.6-.6 1.2-1 1.8-1.3.7-.3 1.4-.4 2.2-.4.9 0 1.6.1 2.3.5.7.3 1.3.8 1.9 1.4l.1.1c.5.5.8 1.1 1.1 1.7v.1h1.4c.2-.4.1-.5.1-.7z"/>
  <path class="st3" d="M275.1 57.2c-34.6-29-28.5 4.4-24 6.2.8.3-6.3.7-6.8-.3"/>
  <path class="st4" d="M226.2 36l.2 16.9c-5.6-.9-8-7.1-4.4-8.6-4.3-1.6-6.9-4.4-6.9-8.8s3.5-7.8 7.9-8.3c-.1-.5-.2-1.1-.2-1.6 0-4.6 4-8.4 9-8.4 2.5 0 4.8 1 6.4 2.5 1.5-2.8 4.5-4.7 8.1-4.7 3.6 0 6.6 1.9 8.1 4.7 1.4-1.2 3.1-1.9 5-1.9 4 0 7.4 3.1 7.9 7.1 1.1-.7 2.3-1.2 3.6-1.2 3.9 0 7.1 3.7 7.1 8.4 0 2.9-1.3 5.5-3.2 7 2.3 1.1 3.7 3.3 3.8 5.7.2 6.2-9.6 8.4-9.6 8.4 0-6.7-.9-16.3-.3-18.8 0-.5-.1-.8-.4-.9-.4 3.2-2.7 5.7-5.4 5.7-2.2 0-4.1-1.6-4.9-3.9-1 2.3-3 3.8-5.3 3.8-2.4 0-4.4-1.6-5.4-4-.8 2.8-3.1 4.7-5.8 4.7-3.1 0-5.6-2.6-6-5.9-.6 2.9-2.6 5.1-5 5.1-1.8.1-3.4-1.2-4.3-3z"/>
  <path class="st4" d="M226 62.4c-.6 0-2.7-2.1-2.8-4.8-.1-2.6 1.7-4.8 2.3-4.8.6 0 .4.1.6.3"/>
  <path class="st4" d="M269.7 53.1c-.2 0-.4.1-.7.3-.1 2.4-.1 5.7-.3 9.1.1.1.3.2.5.2 1 0 1.9-2.1 2-4.8.1-2.6-.5-4.7-1.5-4.8z"/>
  <path class="st4" d="M226.2 52.8c0 .4.1 10.1.1 10.5-1 17.3 25.9 21.8 34.4 15.8 7.6-5.4 8-16.6 8-16.6"/>
  <path class="st3" d="M241.7 66.2s1.8 3.8 7.4 3.2c5.5-.6 6.1-3.6 6.1-3.6"/>
  <path class="st6" d="M237.5 54.6s.9 2.2 3.3 1.4c2.4-.8 2.2-1.4 2.2-1.4"/>
  <path class="st6" d="M251.9 53.9s.3 2.1 2.5 1.8c2.2-.4 2.1-1.2 2.1-1.2"/>
  <path class="st7" d="M244.4 34.1v.3c0 1.6-1.4 3-3.2 3-1.8 0-3.2-1.3-3.2-3 0-.3.1-.7.2-1"/>
  <path class="st7" d="M256.5 33.5v.3c0 1.6-1.4 3-3.2 3-1.8 0-3.2-1.3-3.2-3 0-.3.1-.7.2-1"/>
  <path class="st7" d="M265.3 34.1v.2c0 1.3-1.1 2.3-2.5 2.3s-2.5-1-2.5-2.3c0-.3.1-.5.2-.8"/>
  <path class="st7" d="M232.6 33v.2c0 1.2-1.1 2.2-2.5 2.2s-2.5-1-2.5-2.2c0-.3.1-.5.2-.8"/>
  <path class="st7" d="M218.8 38c-.5-.9-.7-2-.7-3.1 0-3 1.8-5.4 4-5.4"/>
  <path class="st7" d="M226.7 24.6c0-2.3 2.3-4.1 5.1-4.1 1.1 0 2.2.3 3.1.9"/>
  <path class="st7" d="M243.1 19.4c.9-1.4 2.6-2.3 4.5-2.3 2.1 0 4 1.1 4.7 2.7"/>
  <path class="st7" d="M258.3 20.8c.8-.1 1.6-.1 2.4.1 2.1.5 3.6 2 4 3.8"/>
  <path class="st7" d="M271.3 27c.8.2 1.5.6 2.2 1.1 2.2 1.7 2.9 4.6 1.5 6.4-.3.3-.6.6-.9.8"/>
  <path class="st7" d="M274.1 41.9c1.9 1.8 2.3 4.3 1 6-.5.6-1.2 1.1-2.1 1.3"/>
  <path class="st7" d="M222.3 46c-.4 1.3-.3 2.7.5 3.6.5.6 1.2 1.1 2.1 1.3"/>
  <path class="st4" d="M242.9 80.6l1.1 8.7s3.3 3.8 4.9 3.8c1.6-.1 6.1-4.6 6.1-4.6l-.9-7"/>
  <path class="st4" d="M243.9 89.5l-19.3.8s-5 .7-4.6 6c.4 5.3.2 10.3.2 10.3l56.3-.6s2.7-14.9-2.7-16.2c-5.6-1.4-12.7-1.4-18.6-1.5"/>
  <path class="st3" d="M239.7 92.3c-7.1.4-14.9-.7-17.1 6.1"/>
  <path class="st3" d="M267.1 91.1c4.9.1 6.1.5 6.1 5.1"/>
  <path class="st1" d="M331.6 74.3c-3-2-3.3-14-3.3-14-1.9 7.5-9.2 12.6-17.6 14.7 0 0-.1 1.9-.2 4 5.9 1.1 4.1-2.7 4.1-2.7s2.7 1.8 6.1 1.4-.5-4.6 3.8-2.3c4.4 2.2 10.1.9 7.1-1.1"/>
  <path class="st1" d="M300.5 75.7c-8.7-1.2-15.7-8.9-17.8-14.3 0 0-.2 11.9-3.2 13.9s2.7 3.3 7 1 .5 2 3.8 2.3 6.1-1.4 6.1-1.4-1.9 3.8 4 2.7l.1-4.2"/>
  <path class="st1" d="M329.9 41.7c-2.2-15.4-13.1-18.9-23.2-19.1-21.2-.6-23.7 10.8-23.9 25.2 2.3-.1 9.2-.5 10.7-1.6 1.9-1.3 3.6-8.4 3.6-8.4s.8 8.9 6.2 9.4c5.1.5 25.2-5.1 26.6-5.5"/>
  <path class="st2" d="M311 90.2c-.8.3-1.5.6-2.3.8-2.1.4-4.2.7-6.4.2-1.8-.4-3.4-1.2-4.8-2.5-.8-.7-1.3-1.7-1.7-2.6-.3-.7-.8-1-1.5-1-1.7-.1-3.5.2-5.2.3-1.4.1-2.7.2-4 .4-8.4 1.5-7.3 9.2-6.8 16.3 0 .4-.1 4-.1 4.1.1 0 2.8.3 3.5.4.8.1 1.6.1 2.5.1 2.5 0 5-.1 7.6 0 2.3.1 4.5 0 6.8.2 1.3.1 2.7 0 4 .1 1.8.2 3.7 0 5.5.1 1.7.1 3.4-.1 5.1-.1 1.1 0 2.3 0 3.4.1 1 .1 2.1 0 3.1-.1h1.2c1.3.2 2.5 0 3.8-.1h1.2c1.4.1 2.9.1 4.3.1.7 0 1.5.1 2.2.2.7.1 1.4.1 2.1.2.4.1.6-.2.6-.6.1-.8.1-1.5.1-2.3-.2-2.6-.6-5.3-1.1-7.9-.3-1.4-.6-2.9-1-4.3-.3-1-.6-1.9-1.1-2.7-.8-1.2-1.8-2.3-3.3-2.8-1.4-.5-2.7-.7-4.1-.9-1.4-.2-2.9-.1-4.3-.2s-2.7.1-4.1 0c-.3 0-.6 0-.8.1-.4.1-.2.4-.4.6-.4.6-.6 1.3-1 1.9-.8.9-1.9 1.5-3 1.9"/>
  <path class="st1" d="M301.8 86c4.7 4.3 9.5-2.2 11.3-2 2.2.3 3 5.2-3.7 6.8-10.4 2.5-14.3-5.4-11.9-7.2.8-.5 1.9.2 4.3 2.4z"/>
  <path class="st4" d="M301.8 86c4.7 4.3 9.5-2.2 11.3-2 2.2.3 3 5.2-3.7 6.8-10.4 2.5-14.3-5.4-11.9-7.2.8-.5 1.9.2 4.3 2.4z"/>
  <path class="st7" d="M299.7 85.2s-1-.3-1.9 1"/>
  <path class="st4" d="M296.9 85.2s-20-3.2-19.1 7.6c.9 10.8.4 13.6.4 13.6l45.3.7 11.1.5s.6-20.8-7.8-21.4c-8.4-.7-12.3-.7-12.3-.7"/>
  <path class="st7" d="M300.2 86.3s-1.3 0-1.3 1.1"/>
  <path class="st7" d="M301.5 87.4s-1 .2-.9 1.2"/>
  <path class="st7" d="M303.4 87.9s-1.7.5-1.1 1.7"/>
  <path class="st7" d="M304.7 88.1s.4 1.7-.1 2.1"/>
  <path class="st7" d="M306.3 88.3s.8 0 .7 1.9"/>
  <path class="st7" d="M308 88c.1-.1.8 1.1.6 1.8"/>
  <path class="st7" d="M309.3 87.5s1 1 .9 1.6"/>
  <path class="st7" d="M310.5 86.7s1.6.6 1.5 1.6"/>
  <path class="st7" d="M311.8 85.7s1.4-.6 1.7 1"/>
  <path class="st7" d="M293.2 87.3s-9.9 1.1-9.8 6.9"/>
  <path class="st7" d="M320.9 87.8s9.9 1.1 9.8 6.9"/>
  <path class="st7" d="M292 89.5c-1.8.6-3.9 1.5-5.1 3"/>
  <path class="st7" d="M322.1 90c1.8.6 3.9 1.5 5.1 3"/>
  <path class="st4" d="M300.5 75.3v9.5"/>
  <path class="st3" d="M310.8 74.9s-.5 10.2 0 10.2"/>
  <path class="st4" d="M281.3 47.8s9.6-.3 11.5-1.6 3.6-8.4 3.6-8.4.8 8.9 6.2 9.4c5.3.5 26.8-5.6 26.8-5.6"/>
  <path class="st7" d="M295.6 29.8s-5.7-.4-6.5 7.2"/>
  <path class="st3" d="M283 60.9s-.6 13.1-3.6 15.1 2.7 3.3 7 1 .5 2 3.8 2.3c3.4.4 6.1-1.4 6.1-1.4s-1.9 3.8 4 2.7"/>
  <path class="st3" d="M328.3 60.6s.5 12.5 3.5 14.5-2.7 3.3-7 1-.5 2-3.8 2.3-6.1-1.4-6.1-1.4 1.8 3.8-4.1 2.7"/>
  <path class="st6" d="M293.3 53.8s.7 2.1 3.8 1.7c3.2-.4 3.5-1.4 3.5-1.4"/>
  <path class="st6" d="M310.5 54s-.4 1.4 2.9 1.8c3.3.4 3.2-1 3.2-1"/>
  <path class="st3" d="M295.7 64.1s2.9 5.6 6.6 4.9c3.8-.7 6.6-4.5 6.6-4.5"/>
  <path class="st3" d="M302 61h8s-8.7-11.5 2-13.6c10.6-2.1 23.2 1.7 23.2 1.7"/>
  <path class="st4" d="M329.8 53.3c.2.1.3.1.5.1 1 0 1.8-1.6 1.9-3.5.1-1.9-.7-3.5-1.6-3.5-.2 0-.4.1-.6.2"/>
  <path class="st4" d="M281.7 54.9c-3.9 1.7-4.6-6.8-.3-6.9"/>
  <path class="st4" d="M290.8 71.5c11.5 8.2 31.8 3.5 36.5-8.2 3.4-8.5 2.3-21.9 2.3-21.9s-1.6-17.7-20.2-18.7c-20.3-1-27.6 11.5-27.7 24.7-.1 9.1.8 18.2 9.1 24.1z"/>
  <path class="st2" d="M335.3 106.4l55.9.4s3.3-18.2-5-20.2-15.4-.6-15.4-.6l-2.6-1.5c-.1.6-.2 1.1-.3 1.4-.8 1.7-5.7 2.8-8.6 2-.9-.2-1.5-1.4-1.9-2.8 0 0-2.3 2.3-2.6 2.2-.1-.4-11.1 0-14.3 1.5-3.2 1.4-6.8 5.3-6 11.8.8 6.5.8 5.8.8 5.8"/>
  <path class="st1" d="M368.3 77.3c.8-.2 1.6-.5 2.4-.8 1.5-.6 10.1-5.9 11.1-11.1.2-1.2.4-2.6.5-4l-6.6 7.5c-7.2 8.1-9.1.5-13.7 3.1-7.1 4-17.5-1.8-22-10.3v.2h-.1c1.6 9.3 8.8 14.7 17 16.1 3.7.6 7.6.4 11.4-.7"/>
  <path class="st1" d="M340.9 57.2c2.1-.3 1.6-3.5.9-7.5-.1-.8-.3-1.6-.4-2.4-1 .5-1.9.9-2.8 1.3.3 4.3.7 7.6.8 8.8.3-.1.8-.1 1.5-.2"/>
  <path class="st1" d="M362.6 33s4.7-6.6 10.4-7.5c5.7-.9 6.7 12.1 6.7 12.1s.2 4.9.3 9.7c.1 4.4.3 8.7.3 8.9.1.5 2.1-.5 2.1-.5 0-2.3-.1-4-.1-4s.8-23.2-7.2-27.9c-10.6-6.3-34.5-5-36.2 7.4-.8 5.9-.7 12.3-.4 17.4.8-.4 1.8-.8 2.8-1.3-1.1-6.3-1.7-13.6 6.2-15.2 5.6-1.1 15.1.9 15.1.9"/>
  <path class="st3" d="M339.9 61.8c-1 .4-3.2.1-3.2-2.1 0-1.2 1.6-2.4 2.2-2.4"/>
  <path class="st3" d="M382.6 60.7c2.6 1.2 4-3.7 1-4.1-.6-.1-.4 0-.7.1"/>
  <path class="st0" d="M359.8 106.8c2 0 4-.1 6-.1 1.4 0 2.7.1 4.1.1v-.1l-.2-.9 6.3-3.3-9-.7-2.2-6.2-2.2 6.2-9 .7 6.3 3.3-.1 1z"/>
  <path class="st10" d="M359.8 106.8c2 0 4-.1 6-.1 1.4 0 2.7.1 4.1.1v-.1l-.2-.9 6.3-3.3-9-.7-2.2-6.2-2.2 6.2-9 .7 6.3 3.3-.1 1z"/>
  <path class="st2" d="M355.7 69.7c.2 0 .2-.2.2-.3 0-.1-.1-.2-.2-.2s-.2.1-.2.2c0 .3.1.3.2.3"/>
  <path class="st2" d="M359.6 70.8c.2 0 .2-.2.2-.3 0-.1-.1-.2-.2-.2s-.2.1-.2.2c0 .2.1.3.2.3"/>
  <path class="st2" d="M359 69.5c.2 0 .2.2.2.3 0 .1-.1.2-.2.2s-.2-.1-.2-.2c0-.2.1-.3.2-.3"/>
  <path class="st2" d="M357 70.9c.2 0 .2-.2.2-.3 0-.1-.1-.2-.2-.2s-.2.1-.2.2c0 .2.1.3.2.3"/>
  <path class="st2" d="M360.5 71c.2 0 .2-.2.2-.3 0-.1-.1-.2-.2-.2s-.2.1-.2.2c0 .2.1.3.2.3"/>
  <path class="st2" d="M366.7 70.1c.2-.1.2 0 .3.2.1.1 0 .2-.1.2-.1.1-.2 0-.3-.1-.1-.1 0-.2.1-.3"/>
  <path class="st2" d="M361.7 69.2c-.2 0-.2.2-.2.3 0 .1.1.2.2.2s.2-.1.2-.2c0-.2-.1-.3-.2-.3"/>
  <path class="st2" d="M367.5 68.7c.1-.1.1-.2 0-.3-.1-.1-.2-.1-.3 0-.1.1-.1.2-.1.3.1 0 .3.1.4 0"/>
  <path class="st2" d="M357.6 69c.2 0 .2-.2.2-.3 0-.1-.1-.2-.2-.2s-.2.1-.2.2c-.1.2 0 .3.2.3"/>
  <path class="st2" d="M358.5 69.2c.2 0 .2-.2.2-.3 0-.1-.1-.2-.2-.2s-.2.1-.2.2c0 .2.1.3.2.3"/>
  <path class="st2" d="M358.2 71.1c.2 0 .2-.2.2-.3 0-.1-.1-.2-.2-.2s-.2.1-.2.2c0 .2.1.3.2.3"/>
  <path class="st2" d="M357.6 71.7c.2 0 .2-.2.2-.3 0-.1-.1-.2-.2-.2s-.2.1-.2.2c-.1.2 0 .3.2.3"/>
  <path class="st2" d="M367.6 69.3c.2-.1.2 0 .3.2.1.1 0 .2-.1.2-.1.1-.2 0-.3-.1-.1-.1 0-.2.1-.3"/>
  <path class="st2" d="M360.5 69c-.2 0-.2.2-.2.3 0 .1.1.2.2.2s.2-.1.2-.2c0-.2-.1-.3-.2-.3"/>
  <path class="st2" d="M356 70.6c.2 0 .2-.2.2-.3 0-.1-.1-.2-.2-.2s-.2.1-.2.2c-.1.2 0 .3.2.3"/>
  <path class="st2" d="M359 71.5c.2 0 .2-.2.2-.3 0-.1-.1-.2-.2-.2s-.2.1-.2.2c0 .2.1.3.2.3"/>
  <path class="st2" d="M365.1 68.2c.2-.1.2 0 .3.2.1.1 0 .2-.1.2-.1.1-.2 0-.3-.1 0-.1 0-.2.1-.3"/>
  <path class="st2" d="M366.4 69c.1-.1.1-.2 0-.3-.1-.1-.2-.1-.3 0-.1.1-.1.2-.1.3h.4"/>
  <path class="st2" d="M366.4 69.8c.1-.1.1-.2 0-.3-.1-.1-.2-.1-.3 0-.1.1-.1.2-.1.3.1.1.3.1.4 0"/>
  <path class="st2" d="M361.8 68.8c-.2 0-.2-.2-.2-.3 0-.1.1-.2.2-.2s.2.1.2.2c0 .3-.1.4-.2.3"/>
  <path class="st2" d="M364.1 69.6c.1-.1.1-.2 0-.3-.1-.1-.2-.1-.3 0-.1.1-.1.2-.1.3.2 0 .3.1.4 0"/>
  <path class="st2" d="M365.4 69.6c.1-.1.1-.2 0-.3-.1-.1-.2-.1-.3 0-.1.1-.1.2-.1.3.1.1.3.1.4 0"/>
  <path class="st2" d="M355.7 68.9c.1 0 .2-.1.3-.2 0-.1-.1-.2-.2-.2s-.2 0-.3.2c0 0 .1.2.2.2"/>
  <path class="st2" d="M357.1 70c.1 0 .2-.1.3-.2 0-.1-.1-.2-.2-.2s-.2 0-.3.2c-.1.1 0 .2.2.2"/>
  <path class="st2" d="M359.7 68.9c.1 0 .2-.1.3-.2 0-.1-.1-.2-.2-.2s-.2 0-.3.2c-.1 0 0 .2.2.2"/>
  <path class="st2" d="M367.5 70.4c.1-.1.2 0 .3.1 0 .1 0 .2-.1.3-.1.1-.2.1-.3 0 0-.1 0-.3.1-.4"/>
  <path class="st2" d="M361.1 69.9c-.1 0-.2.1-.3.2 0 .1.1.2.2.2s.2 0 .3-.2c0 0-.1-.2-.2-.2"/>
  <path class="st2" d="M367.1 67.9c.1-.1.1-.2.1-.3-.1-.1-.2-.1-.3-.1-.1.1-.2.1-.1.3 0 .1.1.2.3.1"/>
  <path class="st2" d="M356.6 68.9c.1 0 .2-.1.2-.2s-.1-.2-.2-.2c-.2 0-.3.1-.3.2s.1.2.3.2"/>
  <path class="st2" d="M357.9 70c.1 0 .2-.1.2-.2s-.1-.2-.2-.2c-.2 0-.3.1-.3.2.1.1.2.2.3.2"/>
  <path class="st2" d="M359.9 70c.1 0 .2-.1.2-.2s-.1-.2-.2-.2c-.2 0-.3.1-.3.2.1.1.2.2.3.2"/>
  <path class="st2" d="M355.1 69.9c.1 0 .2.1.2.2s-.1.2-.2.2c-.2 0-.3-.1-.3-.2s.1-.2.3-.2"/>
  <path class="st3" d="M339 31.2c-1.6 12.2.5 26.6.5 26.6-.1 27.1 38.9 24.6 42.3 7.3 1.8-9.5 1.7-37.2-6-41.8-10.7-6.4-35.2-4.5-36.8 7.9z"/>
  <path class="st3" d="M382.5 55.7s-2 .9-2.1.5c-.1-.5-.6-18.6-.6-18.6s-1-13-6.7-12.1c-5.7.9-10.4 7.5-10.4 7.5s-9.5-2-15.1-.9c-14.1 2.8-.9 24.4-6.6 25.3-1.5.2-1.8 0-1.8 0"/>
  <ellipse class="st3" cx="354.1" cy="52.6" rx="5" ry="4.1"/>
  <path class="st3" d="M357.7 49.9c1.1-.8 2.5-1.3 4-1.3 1.4 0 2.8.4 3.9 1.2"/>
  <ellipse class="st3" cx="369.6" cy="52.3" rx="5" ry="4"/>
  <path class="st3" d="M341.8 49.6l7.3 2.2"/>
  <path class="st3" d="M373.9 50.2l6.4-3"/>
  <path class="st3" d="M334.9 50.4s20.2-10.9 24.6-7c4.4 3.9.1 15.4.6 15.6.4.2 3.6.4 5.2-1.4"/>
  <path class="st3" d="M356.1 65s1.8 3.2 5.3 2.7 4.3-2.7 4.3-2.7"/>
  <path class="st3" d="M339.9 61.6C344.4 70.1 354.8 76 362 72c4.6-2.6 6.6 5.1 13.7-3.1l6.6-7.5"/>
  <path class="st7" d="M367.6 24.4s-4.2 2.4-4.3 4.7"/>
  <path class="st7" d="M364.6 23.9s-2 1.7-2.8 2.9"/>
  <path class="st7" d="M347.7 24.7s1.7-2.2 7.3-1.9"/>
  <path class="st6" d="M352.2 52.5s.4 1.9 2.5 1.2 2.1-1.2 2.1-1.2"/>
  <path class="st6" d="M367.6 52c.5 2.7 4.6.5 4.6 0"/>
  <path class="st1" d="M354.8 87.3c4.6 7.4 12.5 7.2 16.1-1.3l-2.6-1.5c-.1.6-.2 1.1-.3 1.4-.8 1.7-5.7 2.8-8.6 2-.9-.2-1.5-1.4-1.9-2.8-.1 0-2.4 2.3-2.7 2.2"/>
  <path class="st3" d="M354.8 87.3c4.6 7.4 12.5 7.2 16.1-1.3"/>
  <path class="st3" d="M357.4 85.1s-2.5 2.5-2.6 2.2-11.1 0-14.3 1.5c-3.2 1.4-6.8 5.3-6 11.8.8 6.5.8 5.9.8 5.9l55.9.4s3.3-18.2-5-20.2-15.4-.6-15.4-.6l-2.6-1.5"/>
  <path class="st3" d="M356.8 77.9s-.4 9.3 2.5 10c2.9.8 7.8-.3 8.6-2 .8-1.7.3-8.7.3-8.7"/>
  <path class="st7" d="M297 27.3s-9.5-.6-10.9 12.2"/>
</svg>