<svg xmlns="http://www.w3.org/2000/svg" width="373.6" height="61.1" viewBox="0 0 373.6 61.1">
  <path d="M9.5 3.3h.4c.2 0 .4.2.7.5.2.4.5.6.7.6v.7l-9.2 9.3-1.4-1.8 8.8-9.3M4.1 16.8c0-.2.1-.3.2-.3h.2l8.3-9h.7c.7 0 1 .4 1 1.1v.7L6 18.2h-.3c-.2-.2-.5-.5-.8-.7-.3-.2-.4-.5-.4-.7h-.4zm4.4 3.6l8.1-8.9h.7c.7 0 1 .5 1 1.5v.4l-8.5 8.9h-.3c-.2-.3-.5-.6-.7-.8-.2-.2-.4-.5-.4-.7v-.4zm12.1-5.1h.7c.2 0 .5.1.7.4.2.2.4.5.4.7v.3l-8.8 9.7-1.9-1.8 8.9-9.3zm4.2 4h.3c.2 0 .5.1.7.4.2.2.4.5.4.7v.4l-8.8 9.9-1.7-2 9.1-9.4zm3.2 4.2h.4c.9 0 1.4.4 1.4 1.1v.7l-8.5 8.5h-.7l-1-1.1v-.4l8.4-8.8zM11.3.4h49.1C71.3.4 83.2.4 96 .3s26.1-.1 39.9-.1h84.4c13.8 0 27.1 0 39.9-.1 12.6-.1 24.5-.1 35.4-.1h77.3v.4l-22.3 24.2 23 24.2H11.3l22.3-24.2L11.3.4zm356.1 51.3l-8.3 8.6h-3.5l8.5-8.6h3.3zm-7.1 0l-8.7 8.6h-3.1l8.1-8.6h3.7zm-7.8 0l-8.7 8.6h-3.1l8.1-8.6h3.7zm-7.5 0l-8.6 8.6h-3.1l8.5-8.6h3.2zm-7.8 0l-8.7 8.6h-3.1l8.5-8.6h3.3zm-7.4 0l-8.3 8.6H318l8.5-8.6h3.3zm-8 0l-8.1 8.6h-3.5l8.5-8.6h3.1zm-7.1 0l-8.5 8.6h-3.1l8.1-8.6h3.5zm-7.8 0l-8.5 8.6h-3.1l8.1-8.6h3.5zm-7.4 0l-8.5 8.6h-3.1l8.5-8.6h3.1zm-7.8 0l-8.5 8.6h-3.1l8.5-8.6h3.1zm-7.1 0l-8.5 8.6h-3.5l8.5-8.6h3.5zm-8.1 0l-8.1 8.6h-3.5l8.5-8.6h3.1zm-7.1 0l-8.5 8.6h-3.1l8.2-8.6h3.4zm-7.8 0l-8.5 8.6H250l8.1-8.6h3.5zm-7.5 0l-8.1 8.6h-3.5l8.5-8.6h3.1zm-7.7 0l-8.5 8.6h-3.1l8.5-8.6h3.1zm-7.2 0l-8.5 8.6h-3.5l8.5-8.6h3.5zm-8.1 0l-8.1 8.6h-3.5l8.5-8.6h3.1zm-7.1 0l-8.5 8.6h-3.1l8.2-8.6h3.4zm-7.8 0l-8.5 8.6h-3.1l8.1-8.6h3.5zm-7.4 0l-8.1 8.6h-3.5l8.5-8.6h3.1zm-9.2-.3c.1 0 .2 0 .3.1.1 0 .3.1.5.1.2.1.4.2.5.2l-8.5 8.6h-3.1l7.8-8.2c.3-.4.7-.6 1.2-.6.5-.2 1-.2 1.3-.2zm-5.7.3l-8.5 8.6h-3.6l8.7-8.6h3.4zm-8.1 0l-8.2 8.6H174l8.7-8.6h3.1zm-7.1 0l-8.5 8.6h-3.3l8.3-8.6h3.5zm-9.2-.3c.2 0 .5.1.7.2.2.1.4.2.7.2l-8.5 8.6h-3.3l7.8-8.2c.5-.4.9-.6 1.2-.6.3-.2.8-.2 1.4-.2zm-6.1.3l-8.1 8.6h-3.6l8.7-8.6h3zm-7.8 0l-8.5 8.6h-3.3l8.7-8.6h3.1zm-7.7 0v.4l-7.8 8.2h-3.6l8.7-8.6h2.7zm-8.5-.3c.1.1.3.2.5.2.2.1.5.2.9.2l-8.5 8.6h-3.6l7.8-8.2c.6-.4 1.1-.6 1.5-.6.3-.2.8-.2 1.4-.2zm-6.8.3v.4l-7.8 8.2h-3.3l8.5-8.6h2.6zm-7.1 0l-8.5 8.6h-3.3l8.2-8.6h3.6zm-7.8 0v.4l-7.8 8.2h-3.6l8.5-8.6h2.9zm-8.8-.3c.1 0 .2 0 .4.1.1 0 .3.1.5.1.2.1.4.2.5.2l-8.1 8.6h-3.6l7.8-8.2c.4-.4.8-.6 1.3-.6.4-.2.9-.2 1.2-.2zm-6.4.3v.4l-7.8 8.2h-3.3l8.1-8.6h3zm-8.5-.3c.1.1.3.2.5.2.2.1.5.2.9.2l-8.5 8.6h-3.6l8.2-8.2c.3-.4.7-.6 1.1-.6.3-.2.8-.2 1.4-.2zm-9.3.3h2.6v.4l-7.8 8.2c-.4.6-.9.9-1.6.8-.8-.1-1.3-.1-1.7-.1v-.7l8.5-8.6zm-8.5.4c.4-.4.7-.6 1.1-.6.4-.1.9-.1 1.5-.1.2 0 .4.1.7.2.2.1.5.2.7.2l-8.5 8.6c-.5.6-1.1.9-1.7.8-.7-.1-1.2-.1-1.6-.1v-.7l7.8-8.3zm-6.8-.4h3v.4l-7.8 8.2c-.6.6-1.2.9-1.8.8-.6-.1-1.2-.1-1.8-.1v-.7l8.4-8.6zm-8.5.4c.4-.4.8-.6 1.2-.6.5-.1.9-.1 1.2-.1.1 0 .3 0 .4.1.2 0 .4.1.6.1.2.1.4.2.5.2l-8.1 8.6c-.6.6-1.2.9-2 .8-.7-.1-1.2-.2-1.5-.2v-.7l7.7-8.2zm-6.7-.4h2.9v.4l-7.8 8.2c-.5.6-1 .9-1.7.8-.7 0-1.2-.1-1.6-.1v-.7l8.2-8.6zm-8.2.4c.4-.4.7-.6 1.1-.6.3-.1.8-.1 1.4-.1.2.1.5.2.7.2.2.1.5.2.9.2l-8.7 8.6c-.4.6-.9.9-1.6.8-.7-.1-1.3-.1-1.9-.1v-.7l8.1-8.3zm-6.7-.4h2.6v.4l-8 8.2c-.4.6-.9.9-1.6.8-.7-.1-1.2-.1-1.5-.1v-.7l8.5-8.6zm-8.5.4c.3-.4.7-.6 1-.6.4-.1.8-.1 1.4-.1.2 0 .5.1.8.2.3.1.6.2.8.2l-9 9.3H23v-.7l7.8-8.3zm-3.8-.4v.4l-8 8.2c-.3.3-.7.6-1.2.6-.4.1-.8.1-1.2.1h-1.4l8.8-9.3h3zm-11.4.4c.4-.4.7-.6 1.2-.6.5-.1.9-.1 1.2-.1.1 0 .2 0 .4.1.1 0 .3.1.5.1.2.1.5.2.7.2l-9 9.3H7.8v-.7l7.8-8.3zm-3.5-.4l-8.3 8.6c-.4.3-.8.6-1.2.6-.5.1-.9.1-1.2.1H0l9.5-10 2.6.7z" fill-rule="evenodd" clip-rule="evenodd" fill="#bbc7d7"/>
</svg>