<svg xmlns="http://www.w3.org/2000/svg" width="469.9" height="210.8" viewBox="0 0 469.9 210.8">
  <style>
    .st0{fill:#7c51a0}.st3{fill:#3b1552}.st4{fill:none;stroke:#7c51a0;stroke-width:5.6693;stroke-linecap:round;stroke-miterlimit:10}
  </style>
  <path class="st0" d="M50 78.3h6.7V85H50z"/>
  <path class="st0" d="M463.2 37.1h6.7v6.7h-6.7z"/>
  <path class="st0" d="M50 96.9h6.7v6.7H50z"/>
  <path class="st0" d="M463.2 18.5h6.7v6.7h-6.7z"/>
  <path class="st0" d="M50 115.4h6.7v6.7H50z"/>
  <path class="st0" d="M463.2 0h6.7v6.7h-6.7z"/>
  <path class="st0" d="M25 78.3h6.7V85H25z"/>
  <path class="st0" d="M438.2 37.1h6.7v6.7h-6.7z"/>
  <path class="st0" d="M25 96.9h6.7v6.7H25z"/>
  <path class="st0" d="M438.2 18.5h6.7v6.7h-6.7z"/>
  <path class="st0" d="M25 115.4h6.7v6.7H25z"/>
  <path class="st0" d="M438.2 0h6.7v6.7h-6.7z"/>
  <path class="st0" d="M0 96.9h6.7v6.7H0z"/>
  <path class="st0" d="M413.1 18.5h6.7v6.7h-6.7z"/>
  <path class="st0" d="M0 115.4h6.7v6.7H0z"/>
  <path class="st0" d="M413.1 0h6.7v6.7h-6.7z"/>
  <path fill-rule="evenodd" clip-rule="evenodd" fill="#a384d3" d="M50.6 36.7h375.7V102H50.6z"/>
  <path fill="none" stroke="#3b1552" stroke-width="1.4173" stroke-linecap="round" stroke-miterlimit="22.9256" d="M50.6 36.7h375.7V102H50.6z"/>
  <path class="st3" d="M193.1 54.8c.1 0 .3 0 .5-.1.3-.1.4-.1.5-.1.2 0 .3.1.3.1v.1c0 .1-.1.2-.3.3-.1.1-.3.1-.4.1h-.5c-.2 0-.4 0-.4.1h-.4c-.2 0-.4 0-.7-.1-.3-.1-.5-.1-.6-.1h-.6c-.3 0-.6 0-.7-.1-.2 0-.3 0-.3-.1h.1c.7 0 1.8-.1 3.5-.1m-7.2 5.7c0 .1 0 .3.1.4 0 .1.1.3.1.7.1.4.1.7.2 1V63.9c0 .5 0 .8-.1 1.1-.3 2.1-.5 3.1-.6 3.1 0 0-.1-.1-.1-.3-.1-.7-.2-1.4-.2-2 0-.7.1-1.6.2-2.8.3-1.1.3-1.9.4-2.5zm-.4-8.5H182c-2.4 0-3.8.1-4.3.1-.5.1-.8.3-.8.5v.4c.2 1.1.4 2.4.7 4 0 .1.1.3.1.5.1.5.3.8.5.8 0 0 .2 0 .5-.1s.6-.1.8-.1h1.1l2.6-.1v7.7c0 1.1 0 1.9.1 2.5v1c0 .8.1 3.2.3 7.4 0 1 .1 2.3.1 3.8.1 1.5.1 2.8.1 3.8s.1 1.6.1 1.8c0 .1 0 .2.1.4 0 .2.1.3.1.3s0 .1.1.2c0 .1.1.1.1.1.1 0 .1 0 .2.1s.2.1.3.1h2.2c.4 0 .7-.1.9-.2.1-.1.2-.3.2-.6V74.5c0-2.6 0-5.4-.1-8.4-.1-3.1-.1-4.9-.1-5.4 0-2.1.1-3.3.3-3.5.1-.2 1.1-.3 2.8-.5h1c.3 0 .7 0 1.2.1.5 0 .8.1 1 .1.5 0 .9-.1 1.1-.3.1-.2.1-.5.1-1 0-.2 0-.5-.1-1v-1-.3V52h-4.7c-3.5-.1-5.1 0-5.1 0zm-.3.7c0 .1 0 .2-.1.2-1.4 0-2.2.1-2.4.2h-.1l-.1.1c-.1 0-.2-.1-.2-.3 0-.3.2-.4.5-.4 1.6 0 2.4.1 2.4.2zm-.5 29.1c0 2.9 0 4.4-.1 4.4-.1-.1-.2-1.1-.2-3 0-1 .1-1.5.2-1.5.1-.1.1 0 .1.1zm-20.2-9.7l.1-.3 2.2-13.5 1.8-.1 2.3 14.5-6.4-.6zm-3.9 7.8c0 .3-.1.4-.3.5-.2 0-.3-.2-.3-.5 0-.2.1-.7.3-1.5.2-.8.3-1.2.4-1.2.1 0 .1.2.1.5s0 .7-.1 1.3c-.1.5-.1.9-.1.9zm3-7.6c-.1.6-.2 1-.4 1-.1 0-.1-.1-.1-.5v-.4c0-.3.1-.9.3-1.7.2-.8.3-1.3.3-1.4 0-.1.1-.2.3-.2 0 0 .1 0 .1.1-.1.9-.2 1.9-.5 3.1zm7.6-8.3c.1.2.3 1 .5 2.4s.4 2.2.4 2.4c0 .1 0 .2-.1.2s-.3-.8-.7-2.5c-.4-1.7-.6-2.7-.6-3 0-.2 0-.3.1-.3.1.1.2.4.4.8zm5.5 22.3l.1.1v.1c0 .1-.1.2-.2.2-.3 0-.5-.7-.8-2.2-.1-.3-.1-.5-.1-.6 0-.2 0-.3.1-.3s.3.4.6 1.1c-.1.3.1.8.3 1.6zm-16-1.4c-.1.2-.2.4-.3.4-.1 0-.1-.1-.1-.3v-.2c.1-.4.1-.7.1-.9 0-.2.1-.3.3-.3.1 0 .2.2.2.6 0 .2-.1.4-.2.7zm-4 1.8c0 .4.9.7 2.8.7h1.3c.4 0 .6-.2.8-.7.1-.4.2-.9.3-1.4.4-1.7.6-2.8.7-3.3l.9-5.4c1.2 0 2.3 0 3.1-.1l5.2-.2c.2 1.5.5 3.5.9 6.2.5 2.6.8 4.2.9 4.6 0 0 0 .1.1.2.1.2.1.4.2.5.1.1.3.1.6.1.1 0 .2.1.3.1.3 0 .9.1 1.9.2 1 .1 1.5.2 1.8.2.2 0 .3 0 .3-.1l.1-.3-2.5-11.5-.8-3.8-3.6-18c-.3-1.3-.5-2-.6-2.1-.1-.1-.7-.2-1.9-.2-2.6 0-3.9.1-4.1.4-.1.2-.2.6-.4 1.4l-4.6 18.7c-.5 1.8-1.4 5.4-2.6 10.6-.8 2.1-1.1 3.2-1.1 3.2zm13.2-32.8h-.2c-.1 0-.2 0-.4-.1-.1-.1-.3-.1-.3-.1h-.8c-.2 0-.3 0-.4-.1 0-.2.1-.3.3-.4.3-.1.6-.1.9-.1.2 0 .5.1.7.1.2.1.3.2.3.4s-.1.3-.1.3zM166.7 75l-.1-.1s-.1 0-.1-.1c0 0 .1-.1.3-.1.2 0 .4-.1.7-.1.3 0 .5 0 .6-.1h2c.3 0 .5.1.5.3v.2c0 .2-.2.3-.4.3-.1 0-.3 0-.6-.1s-.5-.1-.7-.1c-.2 0-.5 0-.8.1-.3.1-.6.1-.7.1-.2-.1-.5-.1-.7-.3zm8 2.6s0-.1.1-.1.3.4.4 1.3v.2c0 .6-.1 1-.2 1l-.1-.2c-.2-.5-.3-.9-.3-1.3 0-.3.1-.5.1-.9zM135.5 58c0-.1.1-.2.3-.2.1 0 .2 0 .2.1.1.1.1.4.1.7 0 .1 0 .4-.1.8 0 .1-.1.3-.1.7-.1.4-.1.6-.2.8-.1.2-.1.3-.2.3l-.2-.2c-.1-.2-.1-.6-.1-1 0-.2 0-.5.1-.9.1-.5.2-.8.2-1.1zm.4-6.9h-.3c-.3 0-.4 0-.5.1-.1.1-.1.2-.1.4v.4c0 .2 0 .3-.1.5-.2 4.7-.5 13.6-1 26.8 0 .6-.1 1.6-.1 3-.1 1.3-.1 2.3-.1 2.7l-.1 1c0 .2.3.3 1 .4.3 0 1 .1 2 .1.8 0 2.2 0 4.3-.1 2-.1 3.5-.1 4.3-.1H146.9c2.8 0 5-.8 6.5-2.3 1.6-1.5 2.4-3.6 2.6-6.2 0-.9-.1-2.2-.1-3.9 0-1.7 0-3.2-.1-4.4 0-1.2-.1-2.6-.1-4.2-.1-1.6-.2-3-.3-4.1-.2-1.1-.4-2.3-.6-3.4-.2-1.1-.5-2.1-.9-2.8-.4-.7-.9-1.3-1.4-1.7-1.8-1.1-3.7-1.8-5.7-2-1.6-.1-4.2-.2-7.9-.2-1.5-.1-2.6-.1-3 0zm4.5 1.3c0 .2-.5.3-1.6.3-.8 0-1.2-.1-1.2-.2l-.1-.1c0-.1.1-.1.2-.1H138.5c.4 0 .9 0 1.3.1.4-.1.6 0 .6 0zm7.4 3.8c1 .2 1.7.3 2.1.5.5.2.8 6.6.8 19 0 .4 0 .8.1 1.4v1.2c0 .7-.2 1.3-.5 1.6-.3.3-1 .5-2.1.7-3.5.3-6.5.5-9.1.6h-.4c-.3 0-.5-.1-.5-.3v-1c0-2.3.1-6.3.3-12 .2-5.7.4-9.4.6-11.2v-.4-.3c0-.1 0-.1.1-.2l.1-.1h.3c1.2-.1 2.6-.1 4.3-.1 1 0 1.6 0 1.7.1l2.2.5zm3.7 2.2l-.1.2-.1-.3v-.1c0-.2 0-.3.1-.3.1.1.1.1.1.2.1 0 .1.1 0 .3zm.5 3.2c0 1.1-.1 1.7-.2 1.7-.2 0-.3-1-.3-2.9 0-.2 0-.3.1-.4v-1.1l.2.9c.1.3.2.9.2 1.8zm1 1.1c0 .1-.1.2-.1.2h-.1c-.2-.1-.3-1-.3-2.8 0-.2 0-.3.1-.3l.1.1c.2 0 .3.9.3 2.8zm-15.3 15.6c0 .6 0 1-.1 1s-.1-.1-.2-.3c-.1-.3-.1-1.3-.1-3.1 0-2 0-3 .1-3 .3 0 .3 1.8.3 5.4zm-1 6.6c-.1 0-.1-.4-.1-1.2 0-.5 0-1.1.1-1.8l.1-1.1c0-.2 0-.3.1-.3v.1c.2.1.3 1 .3 2.6-.2 1.1-.3 1.7-.5 1.7zm6.3-2.3c-.1.1-.4.1-1 .1-1 0-1.5-.1-1.5-.2 0-.2.7-.3 2-.3.2 0 .3 0 .4.1.1 0 .2.1.2.2.1 0 0 0-.1.1zm8.1-.2c0 .1-.4.1-1.2.2-.8.1-1.3.1-1.7.1-.1 0-.1 0-.1-.1-.1 0-.1-.1-.1-.2v-.1c.1-.1.1-.2.2-.2s.1 0 .1.1h2c.5.2.8.2.8.2zm-23.1.9c.2 0 .3.3.3 1 0 .2 0 .3-.1.4 0 .1.1.2.1.3 0 .4-.1.7-.2 1v.1c-.1 0-.2-.6-.2-1.9 0-.5 0-.8.1-.9zm1-4.9s.1.2.1.4c0 2.3-.1 3.4-.2 3.4 0 0-.1-.6-.2-1.8-.1-1.2-.1-2-.1-2.5 0-.6 0-1 .1-1l.1.3c.1.5.2.9.2 1.2zm-.5-10.8c0 .4-.1.6-.2.6s-.2-.5-.3-1.4c-.1-1-.2-1.6-.2-1.8 0-.2.1-.6.2-1.3.1-.7.2-1 .2-1s.1.7.1 2.2c.2 1.5.2 2.4.2 2.7zm-3.2-14.9v.2c0 .4 0 1.6-.1 3.8-.1 2.2-.1 3.7-.1 4.7v.5c0 3.4.1 7.7.3 12.8.2 4.3.3 7.3.3 9.1 0 2.8.1 4.3.4 4.4.2.2.6.3 1.3.3h.1c.2 0 .4 0 .8-.1s.6-.1.7-.1l1.5-.1-.2-4.4c0-.5-.1-1.8-.1-3.9 0-2.1-.1-3.6-.2-4.7s-.2-5.6-.3-13.3v-4c0-1.4 0-2.5-.1-3.2v-1.3c0-.4 0-.6-.1-.7-.1-.1-.3-.1-.7-.2l-3-.4h-.1c-.1 0-.2 0-.2.1-.1.1-.1.1-.1.3 0 .1 0 .2-.1.2zm-11.5 29.9l-6.2.4h-1.4c-.3 0-.5 0-.7-.1-.2 0-.3-.1-.3-.1-.2-.2-.4-6-.4-17.4v-6c0-1 0-2.4.1-3.9 0-.5 0-.8-.1-.9-.1-.1-.3-.1-.6-.1H101c-.2 0-.3.1-.3.4 0 1.8.1 3.9.1 6.4.1 5.1.2 13.7.2 25.8 0 .4.1.7.2.8.1.1.3.1.7.1h.3c1.5 0 4.1-.1 7.6-.3 3.5-.2 6.3-.3 8.3-.3h2c.2 0 .5.1.8.1.4 0 .6-.2.7-.6.1-.3.2-4.7.3-13.2.1-8.5.2-14.8.2-19.1v-1.5-.5-.4c0-.3-.1-.4-.4-.4h-1c-.7 0-1.2 0-1.5.1-.8.1-1.3.2-1.4.3-.1.2-.2.6-.3 1.4l-.1 1.9c0 .5-.1 3-.2 7.4s-.1 8.6-.2 12.7-.1 6.1-.2 6.2c-.1.2-1.1.4-3 .8zm-10.2-27.4s0 .1.1.1c.1.1.1.2.1.2-.2.2-.5.3-.8.3-.1 0-.5-.1-1.2-.3 0-.1.2-.2.4-.2s.5 0 .8-.1h.6zm14.5 14.3c0-.2 0-.3.1-.3.2 0 .3 1.1.3 3.4 0 .3 0 .7-.1 1.2s-.2.8-.2.8v-.1c0-.1-.1-.3-.1-.6 0-.4 0-1 .1-1.7v-2.7zm.5 5.4c0-.1 0-.1.1-.1s.2.4.2 1.4c0 .4-.1.7-.1 1.1-.1.3-.1.4-.2.1-.1-.4-.1-.8-.1-1.1-.1-.5 0-1 .1-1.4zM105 86.7c-.1 0-.2-.1-.2-.1 0-.1.7-.1 2.1-.1.6 0 1 0 1.4.1.5.1.9.1 1.2.2h.1-1.6c-.8 0-1.8 0-3-.1zm15.2-32.6c.2.2.3.6.3 1.1v.5c0 .4-.1 1.2-.2 2.3 0 .3-.1.6-.2.9 0 .2-.1.2-.1.1 0-.5-.1-1.2-.1-2 .1-1 .2-1.9.3-2.9zm-16.4 15.3v-.2c.1 0 .2.7.2 2.2 0 1.4-.1 2.1-.2 2.1v-.2c-.1-.8-.2-1.4-.2-1.9.1-.7.1-1.3.2-2zm13.5 15c0 .1-.2.2-.7.4-.4 0-.7.1-.9.1-.2 0-.2-.1-.1-.2.3-.2.7-.3 1.1-.3h.6zM87.5 56.5c-.5-.1-.8-.3-.8-.4 0-.1.8-.2 2.4-.2 1.5 0 2.3.1 2.5.3h.1c0 .2-1 .3-2.9.3h-1.3zm-8.2 17c-.1.5-.2.8-.4.8s-.3-.8-.3-2.4c0-1.4.1-2.3.3-2.5v-.1c.2 0 .4 1.1.4 3.4v.8zm-.6 2.4c-.1.6-.2 1-.3 1.2l-.1.1c-.1 0-.2-.3-.2-.8 0-.2 0-.5.1-.8.2-.4.3-.7.4-.7.1 0 .2.2.2.5 0 .1-.1.3-.1.5zm.5 2.6c.1.4.1.6-.1.7-.1 0-.2-.2-.2-.6v-.2l.1-.4c.1 0 .1.2.2.5zm13.6 5.1c.2 0 .6 0 1.2-.1H96.1s.1 0 .1.1c.1.2.1.3 0 .3-1 .2-2 .3-3 .3h-.4c-.3 0-.6-.1-.9-.3-.3-.1-.4-.3-.3-.4.1-.1.2-.1.4-.1.1 0 .3 0 .5.1 0 .1.1.1.3.1zM82.3 53.1c-.4 0-1.6.1-3.5.2-.1 0-.3 0-.5.1H78c-.1 0-.2.2-.3.6v.4c-.3 4.6-.4 12.9-.5 25v2.5c0 2.9 0 4.5.1 4.7.1.2 1 .4 2.8.4H82c10 0 15.1-.1 15.3-.1.1 0 .2-.5.2-1.3 0-.9 0-1.6-.1-1.9v-1c0-.3 0-.4-.1-.5 0-.2-.1-.2-.4-.2h-.5c-6.3.1-10 .2-11.3.4-1.4.2-2.3.3-2.7.3-.2 0-.3 0-.4-.1-.1 0-.1-.1-.2-.1l-.1-.1v-.1c0-.1-.1-1.2-.1-3.2-.1-7.2-.2-11.7-.2-13.6 0-2.8 0-4.4.1-4.9.1-1.5.3-2.3.5-2.4.1-.1.2-.1.3-.1.1 0 .6 0 1.4.1.8.1 1.5.1 2.1.1l10.1.7h.2c.4 0 .6-.2.6-.6v-.5-3.8c0-.5 0-.8-.1-.9 0-.1-.2-.2-.5-.2h-.4c-4.4 0-8.9 0-13.4.1zm-2.9 7.6c-.2 0-.4-.8-.4-2.3V58v-.4l.1-.7.1.6c.1.4.1 1.3.1 2.6.2.5.2.6.1.6z"/>
  <path class="st3" d="M323.7 51.2c.2.1.4.2.4.3v.2c-.1.2-.2.3-.4.3h-.2c-.9-.2-1.4-.3-1.4-.4 0-.1 0-.1.1-.2h.1c.1 0 .3 0 .5-.1.3-.1.4-.1.6-.1h.3m-2.1 6c0-.1.1-.2.1-.2.1 0 .1.2.1.5s-.1 1.1-.2 2.2c0 .1 0 .3-.1.5s-.1.3-.2.3v-.1c0-.2 0-.5-.1-.8 0-.4-.1-.6-.1-.7.2-.6.3-1.1.5-1.7zm-23.7 27.1v-.4c0-.2 0-.3-.1-.3s-.1-.3-.2-1c-.1-.6-.1-1.2-.1-1.7v-.3c0-.2.1-.3.2-.3 0 0 .2.8.4 2.3.2 1.5.3 2.3.4 2.3 0 .6 0 .9-.1.9s-.2-.2-.3-.5c-.1-.3-.1-.6-.1-.8v-.2zm25.1-4.9c0 .5-.1.8-.3.8-.1 0-.2-.3-.2-.8V76.5c0-1.2 0-1.9.1-2.2v-.4c.1 0 .2.7.3 2.2.1 1.5.1 2.5.1 3.1v.2zm-15.8-6.2c.4 1.1.6 1.8.6 1.9l-.1.1v.1h-.1c-.1 0-.3-.4-.6-1.1-.3-.8-.4-1.3-.4-1.6v-.2c0-.3-.1-.4-.3-.4h-.1c0-.1 0-.1.1-.1.3 0 .6.4.9 1.3zm8.8-5.3c0 .4-.2 1.1-.5 2-.3 1-.5 1.5-.7 1.5-.1 0-.1 0-.1-.1v-.1c.1-.4.3-1.2.6-2.3.3-1.1.6-1.7.7-1.7v.7zm1.1-3.7l-.2.2v-.1l.1-.2c0-.2.2-.6.5-1.4.3-.8.5-1.1.5-1.1 0 .2-.1.6-.4 1.4-.3.8-.5 1.2-.5 1.2zm-20.8-2.9V64.4l-.1.6c-.1 0-.1-.1-.1-.5-.1-1-.1-2.1-.1-3.4v-.4c0-.2 0-.3.1-.3l.2-.2.1-.1v1.2zm3.3-3.8c0 .4-.1.6-.1.6-.1 0-.2-.2-.2-.5v-.2s.1-.1.1-.2v-.3-.3-.3-.2c0-.1 0-.3.1-.4.1 0 .2.5.2 1.6v.2zm2.1-1.4c0 .1.1.1.1.3l.1.1s0 .1-.1 0c-.1 0-.3-.2-.4-.6-.2-.4-.2-.7-.2-1v.1-.2h.2s.2.5.3 1.3zm-2.3-4.7c-.5 0-1.1 0-1.8-.1-.7 0-1.2-.1-1.4-.1-.8 0-1.2.2-1.2.6V74.6c0 .3.1 1 .1 1.9 0 1 0 2.7-.1 4.9s-.1 3.6-.1 4.3v1c0 .2.3.3 1 .3h2c.6 0 1.1 0 1.3.1.1 0 .2 0 .3.1h.2l-.1-.1v-.5c.1-2.3.1-4.6.1-6.8 0-3 0-6.1-.1-9.5v-.9-1.8-1.7-.7-.6c0-.3-.1-.8-.1-1.5v-1-3.2l.5 1.4c.3.9.7 2 1.2 3.4s.8 2.7 1.1 3.7c.3 1 .9 2.6 1.7 4.9.8 2.3 1.3 3.8 1.5 4.4l3.2 10 1.9.1h.9c.6 0 1-.1 1-.4.1-2.1.9-6 2.3-11.8 1.2-5.3 2.3-9.5 3.5-12.8.3-.8.6-1.8.9-3 .3-1.2.6-2.1.7-2.8.2-.7.3-1 .4-1h.1v.1c0 .1.1.6.1 1.4 0 2.3-.3 9.4-.9 21.4-.2 4.1-.3 6.9-.3 8.1 0 1.1.1 1.8.2 1.9.2.2.9.3 2.2.3h1.5c.3 0 .5-.1.6-.3.1-.1.1-.2.1-.4V87v-.5c-.1-1.1-.1-2.1-.1-3-.1-.9-.1-2.5-.1-4.8 0-3.2.1-7 .2-11.5 0-.4.1-1.7.2-3.9s.2-3.9.3-5.2c.2-3.9.3-5.9.3-6.2l.1-.7v-.3-.2c0-.2-.1-.3-.1-.4 0-.1-.2-.1-.4-.1-.3 0-.6 0-.8.1l-1.1.1c-1.5.1-2.6.1-3.3.2-.6 0-.9.1-1 .2-.4.4-.9 1.9-1.5 4.4-.5 1.8-.8 2.9-.9 3.5 0 .1-.6 2.1-1.5 5.9-1 3.8-1.9 7.1-2.6 9.7-.7 2.7-1.2 4-1.3 4l-2-6.9c-.3-1-1-2.9-2-5.8-1-2.8-1.8-5.1-2.3-6.9l-1.9-5.6c-.2-.7-.3-1.1-.5-1.3l-.1-.1c-.1-.1-.7-.2-2.1-.3zm-19.1 3.5c-.1 0-.1-.1-.1-.1 0-.1.3-.1.9-.1h1.4v.2l-.1.1h-.4c-.1 0-.1 0-.1.1h-.3c-.4 0-.9-.1-1.3-.2zm6.9-2.4c-1.2 0-2.9-.1-5.1-.1-2.2 0-4 0-5.4-.1-1.4 0-2.6-.1-3.5-.2-.2 0-.4 0-.6-.1-.3-.1-.4-.1-.5-.1-.3 0-.5.3-.5.8l-.1.8c0 2.7-.1 6.2-.1 10.5v7.4c0 5-.1 8.4-.2 10.4 0 .8-.1 1.8-.1 2.9 0 1 .1 1.6.2 1.9.1.3.3.4.7.4h.8c.2 0 .9-.1 2.1-.1h5.7c2.5 0 4.4.1 5.9.1 2.2.1 3.7.2 4.5.2.5 0 .8 0 .8-.1.1-.1.2-.6.3-1.5.1-.9.1-1.7.1-2.4v-.3.1l-.1-.1c-.1-.2-.4-.3-1-.3h-.4c-.1 0-.4 0-.6.1-.9.1-2.8.1-5.5.1-5.4 0-8.2-.1-8.4-.4-.1-.1-.1-.8-.1-2.3 0-3.5.1-5.5.2-6.1.1-.3.4-.5.8-.5s.9 0 1.3.1c2.7.2 5.1.3 7.3.3h2.9c1.2 0 1.8-.1 1.8-.3 0 0 0-.2-.1-.5v-.7c0-.1 0-.4-.1-.8 0-.4-.1-.6-.1-.8 0-.1 0-.3-.1-.4 0-.1-.1-.3-.1-.3v-.2c0-.1 0-.1-.1-.2 0 0-.1 0-.1-.1-.1 0-.1-.1-.2-.1h-.3c-.1 0-.3 0-.6-.1-.4-.1-3.3-.2-8.7-.5-2.7-.1-4.2-.3-4.4-.4 0 0-.1-.2-.1-.5 0 0 0-.5-.1-1.4v-2.5c0-1.6.1-3.3.2-5 .1-1.5.2-2.2.4-2.3.2-.1 1.2-.2 3-.2 1.3 0 2.9 0 4.9.1 1.9.1 3.5.1 4.5.1h1.3c.2 0 .5 0 .8.1l.4.1s.1 0 .1-.1c.3-.3.4-1.3.4-3.2 0-.7-.1-1-.1-1.1.1.1-1.3 0-4-.1zm-14.3 5.6c0 1-.1 2-.2 2.8l-.2.7-.1-1c-.1-1.1-.1-1.8-.1-2 0-1.3.1-2 .4-2 .1 0 .2.4.2 1.3v.2zm5.7 14.3c0 .2-.3.3-.8.3s-.8-.1-.9-.3c0-.1.3-.2.8-.2.6 0 .9.1.9.2zm-5.3-5.1c0 2.5-.1 3.8-.2 3.8s-.2-1.1-.2-3.3v-.7l.2-.2c.1 0 .2.1.2.4zm1.3 11.5c0 .6-.1.9-.3.9-.2 0-.3-.3-.3-1 0-.9.1-1.6.3-2l.1-.1c.1 0 .2.8.2 2.2zm2.9 5.8c3.1 0 4.7.1 4.7.3 0 .2-.6.3-1.8.3-.1 0-.5 0-1.4.1-.9.1-1.5.1-1.9.1h-.4v-.2-.3c.1-.2.3-.3.8-.3zm8.8 1.3l.6-.2c.5-.1.9-.1 1.2-.1.2 0 .4 0 .5.1.1 0 .3.1.4.2.2.1.3.2.3.3l-.1.1c-.1 0-.2 0-.3.1-.2 0-.3.1-.3.1-.4-.2-1.1-.3-2.3-.6zm-21.2-2.6c.2 0 .3.3.3 1 0 .2 0 .3-.1.4 0 .1.1.2.1.3 0 .4-.1.7-.2 1v.1c-.1 0-.2-.6-.2-1.9 0-.5.1-.8.1-.9zm1-4.9s.1.2.1.4c0 2.3-.1 3.4-.2 3.4 0 0-.1-.6-.2-1.8-.1-1.2-.1-2-.1-2.5 0-.6 0-1 .1-1l.1.3c.2.5.2.9.2 1.2zm-.4-10.8c0 .4-.1.6-.2.6s-.2-.5-.3-1.4c-.1-1-.2-1.6-.2-1.8 0-.2.1-.6.2-1.3.1-.7.2-1 .2-1s.1.7.1 2.2c.2 1.5.2 2.4.2 2.7zm-3.2-14.9v.2c0 .4 0 1.6-.1 3.8-.1 2.2-.1 3.7-.1 4.7v.5c0 3.4.1 7.7.3 12.8.2 4.3.3 7.3.3 9.1 0 2.8.1 4.3.4 4.4.2.2.6.3 1.3.3h.1c.2 0 .4 0 .8-.1s.6-.1.7-.1l1.5-.1-.2-4.4c0-.5-.1-1.8-.1-3.9 0-2.1-.1-3.6-.2-4.7s-.2-5.6-.3-13.3v-4c0-1.4 0-2.5-.1-3.2v-1.3c0-.4 0-.6-.1-.7-.1-.1-.3-.1-.7-.2l-3-.4c-.1 0-.2 0-.2.1-.1.1-.1.1-.1.3l-.2.2zm-7.2 23.8c-.2.6-.3 1-.3 1h-.1c-.1-.1-.1-.3-.1-.6 0-1.4.1-2.1.4-2.1.1 0 .1.4.1 1.2.1.2 0 .4 0 .5zm-14.2-9.4c.3.1 1 .2 2 .5s1.5.4 1.5.5c0 0-.1.1-.2.1-.3 0-1.3-.1-3.1-.5-.4-.1-.6-.2-.6-.4v-.1c0-.1.1-.2.3-.2h.1zm-3-4.7c-.2.5-.3.8-.4.8h-.1c-.1 0-.1-.3-.1-.7 0-1.1.1-2 .5-2.4.1-.2.2-.4.3-.4s.1.3.1.8v.3c-.1.7-.2 1.2-.3 1.6zm11.6-7.7c0 .1-.3.1-.8.1H247c-.7 0-1-.1-1-.2s.3-.2.9-.2h.4c1.6-.1 2.4 0 2.4.3zm-8.1-3.1c-2.7.1-4.1.2-4.1.3l-.3 2c-.1.7-.2 1.8-.5 3.1-.1.8-.3 2.5-.5 5.2s-.3 4.5-.3 5.5.1 1.6.3 1.7c.1.1 1 .2 2.5.2 1.3 0 3.4 0 6.4-.1 3-.1 4.9-.2 5.8-.2 1.7 0 2.6.1 2.8.2.3.1.4 1.5.4 4.2v3.2c0 3-.4 4.6-1.3 4.7-.3.1-2.4.3-6.1.5-3.7.2-6.2.4-7.4.4-1.2 0-1.9.1-2 .1 0 0-.1.2-.1.4 0 .6.1 1.5.2 2.7.1 1.2.2 1.8.3 1.8h.1s.2 0 .4-.1c.2 0 .5-.1.8-.1h2.7c1 0 3.8-.3 8.6-1 2.4-.4 4-.6 4.9-.7.6 0 1.4-.1 2.6-.2.8-.1 1.2-.2 1.4-.3.1-.1.2-.5.2-1.2v-7.4c0-1.3 0-3.1.1-5.2.1-2.2.1-3.4.1-3.8V67c0-.7-.1-1.2-.5-1.4-.3-.2-.9-.3-1.7-.3h-3.5c-.6 0-1.6-.1-3-.1-1.2 0-2.7 0-4.6.1-1.9.1-3.1.1-3.6.1-.8 0-1.3 0-1.4-.1-.3-.2-.5-.4-.5-.6 0-.5.1-2.1.4-4.7.3-2.6.5-4 .5-4.2l.2-.6 3.6.2c2.1.1 3.5.1 4.3.3.5.1 1.9.2 4.3.4s3.8.3 4.3.3h.1V54l-.1-2.1c-.3-.3-2.6-.5-6.9-.5-2.6 0-5.9 0-9.9.2zm2.7 31.5c.2 0 .5 0 .8-.1.4-.1.6-.1.8-.1h.4c.1 0 .2.1.2.2s0 .2-.1.2c-.3.1-.7.1-1.2.1s-1 0-1.3-.1c-.6-.1-1-.2-1-.2s0-.1.1-.1c.1-.1.2-.2.4-.2.1 0 .2 0 .4.1.2.2.3.2.5.2zm-6.3 1.8c0-.4 0-.6.1-.6l.1.1c.1.2.2.6.3 1.3 0 .4 0 .6-.1.8l-.1.1c-.1 0-.2 0-.2-.1-.1-.5-.1-.8-.1-.9v-.3-.4zm-30.9-30c-.1 0-.1-.1-.1-.1 0-.1.3-.1.9-.1h1.4v.2l-.1.1h-.4c-.1 0-.1 0-.1.1h-.3c-.5 0-.9-.1-1.3-.2zm6.8-2.4c-1.2 0-2.9-.1-5.1-.1-2.2 0-4 0-5.4-.1-1.4 0-2.6-.1-3.5-.2-.2 0-.4 0-.6-.1-.3-.1-.4-.1-.5-.1-.3 0-.5.3-.5.8l-.1.8c0 2.7-.1 6.2-.1 10.5v7.4c0 5-.1 8.4-.2 10.4 0 .8-.1 1.8-.1 2.9 0 1 .1 1.6.2 1.9.1.3.3.4.7.4h.8c.2 0 .9-.1 2.1-.1h5.7c2.5 0 4.4.1 5.9.1 2.2.1 3.7.2 4.5.2.5 0 .8 0 .8-.1.1-.1.2-.6.3-1.5.1-.9.1-1.7.1-2.4v-.3.1l-.1-.1c-.1-.2-.4-.3-1-.3h-.4c-.1 0-.4 0-.6.1-.9.1-2.8.1-5.5.1-5.4 0-8.2-.1-8.4-.4-.1-.1-.1-.8-.1-2.3 0-3.5.1-5.5.2-6.1.1-.3.4-.5.8-.5s.9 0 1.3.1c2.7.2 5.1.3 7.3.3h2.9c1.2 0 1.8-.1 1.8-.3 0 0 0-.2-.1-.5v-.7c0-.1 0-.4-.1-.8 0-.4-.1-.6-.1-.8 0-.1 0-.3-.1-.4 0-.1-.1-.3-.1-.3v-.2c0-.1 0-.1-.1-.2 0 0-.1 0-.1-.1-.1 0-.1-.1-.2-.1h-.3c-.1 0-.3 0-.6-.1-.4-.1-3.3-.2-8.7-.5-2.7-.1-4.2-.3-4.4-.4 0 0-.1-.2-.1-.5 0 0 0-.5-.1-1.4v-2.5c0-1.6.1-3.3.2-5 .1-1.5.2-2.2.4-2.3.2-.1 1.2-.2 3-.2 1.3 0 2.9 0 4.9.1 1.9.1 3.5.1 4.5.1h1.3c.2 0 .5 0 .8.1l.4.1s.1 0 .1-.1c.3-.3.4-1.3.4-3.2 0-.7-.1-1-.1-1.1.2.1-1.3 0-4-.1zm-14.3 5.6c0 1-.1 2-.2 2.8l-.2.7-.1-1c-.1-1.1-.1-1.8-.1-2 0-1.3.1-2 .4-2 .1 0 .2.4.2 1.3v.2zm5.7 14.3c0 .2-.3.3-.8.3s-.8-.1-.9-.3c0-.1.3-.2.8-.2.6 0 .9.1.9.2zm-5.3-5.1c0 2.5-.1 3.8-.2 3.8s-.2-1.1-.2-3.3v-.7l.2-.2c.2 0 .2.1.2.4zm1.3 11.5c0 .6-.1.9-.3.9-.2 0-.3-.3-.3-1 0-.9.1-1.6.3-2l.1-.1c.2 0 .2.8.2 2.2zm3 5.8c3.1 0 4.7.1 4.7.3 0 .2-.6.3-1.8.3-.1 0-.5 0-1.4.1-.9.1-1.5.1-1.9.1h-.4v-.2-.3c0-.2.3-.3.8-.3zm8.7 1.3l.6-.2c.5-.1.9-.1 1.2-.1.2 0 .4 0 .5.1.1 0 .3.1.4.2.2.1.3.2.3.3l-.1.1c-.1 0-.2 0-.3.1-.2 0-.3.1-.3.1-.4-.2-1.1-.3-2.3-.6z"/>
  <path class="st3" d="M389.4 54.9c-.1 0-.1-.1-.1-.1 0-.1.3-.1.9-.1h1.4v.2l-.1.1h-.4c-.1 0-.1 0-.1.1h-.3c-.4 0-.9-.1-1.3-.2m6.9-2.4c-1.2 0-2.9-.1-5.1-.1-2.2 0-4 0-5.4-.1-1.4 0-2.6-.1-3.5-.2-.2 0-.4 0-.6-.1-.3-.1-.4-.1-.5-.1-.3 0-.5.3-.5.8l-.1.8c0 2.7-.1 6.2-.1 10.5v7.4c0 5-.1 8.4-.2 10.4 0 .8-.1 1.8-.1 2.9 0 1 .1 1.6.2 1.9.1.3.3.4.7.4h.8c.2 0 .9-.1 2.1-.1h5.7c2.5 0 4.4.1 5.9.1 2.2.1 3.7.2 4.5.2.5 0 .8 0 .8-.1.1-.1.2-.6.3-1.5.1-.9.1-1.7.1-2.4v-.3.1l-.1-.1c-.1-.2-.4-.3-1-.3h-.4c-.1 0-.4 0-.6.1-.9.1-2.8.1-5.5.1-5.4 0-8.2-.1-8.4-.4-.1-.1-.1-.8-.1-2.3 0-3.5.1-5.5.2-6.1.1-.3.4-.5.8-.5s.9 0 1.3.1c2.7.2 5.1.3 7.3.3h2.9c1.2 0 1.8-.1 1.8-.3 0 0 0-.2-.1-.5v-.7c0-.1 0-.4-.1-.8 0-.4-.1-.6-.1-.8 0-.1 0-.3-.1-.4 0-.1-.1-.3-.1-.3v-.2c0-.1 0-.1-.1-.2 0 0-.1 0-.1-.1-.1 0-.1-.1-.2-.1h-.3c-.1 0-.3 0-.6-.1-.4-.1-3.3-.2-8.7-.5-2.7-.1-4.2-.3-4.4-.4 0 0-.1-.2-.1-.5 0 0 0-.5-.1-1.4v-2.5c0-1.6.1-3.3.2-5 .1-1.5.2-2.2.4-2.3.2-.1 1.2-.2 3-.2 1.3 0 2.9 0 4.9.1 1.9.1 3.5.1 4.5.1h1.3c.2 0 .5 0 .8.1l.4.1s.1 0 .1-.1c.3-.3.4-1.3.4-3.2 0-.7-.1-1-.1-1.1.1.1-1.3 0-4-.1zM382 58.1c0 1-.1 2-.2 2.8l-.2.7-.1-1c-.1-1.1-.1-1.8-.1-2 0-1.3.1-2 .4-2 .1 0 .2.4.2 1.3v.2zm5.7 14.3c0 .2-.3.3-.8.3s-.8-.1-.9-.3c0-.1.3-.2.8-.2.6 0 .9.1.9.2zm-5.3-5.1c0 2.5-.1 3.8-.2 3.8s-.2-1.1-.2-3.3v-.7l.2-.2c.1 0 .2.1.2.4zm1.3 11.5c0 .6-.1.9-.3.9-.2 0-.3-.3-.3-1 0-.9.1-1.6.3-2l.1-.1c.1 0 .2.8.2 2.2zm2.9 5.8c3.1 0 4.7.1 4.7.3 0 .2-.6.3-1.8.3-.1 0-.5 0-1.4.1-.9.1-1.5.1-1.9.1h-.4v-.2-.3c.1-.2.3-.3.8-.3zm8.8 1.3l.6-.2c.5-.1.9-.1 1.2-.1.2 0 .4 0 .5.1.1 0 .3.1.4.2.2.1.3.2.3.3l-.1.1c-.1 0-.2 0-.3.1-.2 0-.3.1-.3.1-.4-.2-1.1-.3-2.3-.6zm-43.5-32.7s-.1.1-.1.2c0 .6.1 1.2.2 1.9.8 4.8 1.3 8.4 1.5 10.8.1 1.2.4 3.3.7 6.3.4 3 .7 6.1 1.1 9.3.4 3.2.6 4.9.6 5.1 0 .1.2.2.7.2.3 0 .9-.1 1.8-.3l1.4-.3-.2-.9s.1-.2.1-.5c0-.8-.2-2.8-.7-6.1-.5-3.3-.7-5.3-.7-5.9 0-.2 0-.4.1-.4.1-.1.8-.2 2.1-.2 1 0 3 1.9 5.9 5.7 3 3.8 4.5 6.3 4.7 7.6.1.1.2.2.2.4s.1.3.2.4c.1.1.3.1.5.1h.1c.3 0 .8-.1 1.5-.1h2.1c.8 0 1.2-.1 1.2-.3V86c0-.8-.8-2.3-2.3-4.6-1.5-2.2-3.1-4.3-4.8-6.3-1.7-1.9-2.9-2.9-3.4-2.9 0-.3 2.4-.5 7.1-.8h2.3c.1 0 .2-.1.3-.1.1-.1.2-.1.3-.2 0-.1.1-.2.1-.4v-3c0-3.2.1-6.1.2-8.6.1-1.8.1-3.3.1-4.5V54c0-.3-.1-.5-.4-.5h-1.1c-2.7-.1-5.8-.1-9.3-.1-5.2 0-8.9-.1-11.1-.2h-2.2c-.3-.1-.6 0-.8 0zm22.1 3.4c0 1.2-.1 1.8-.2 1.8l-.1-.1c0-.1-.1-.2-.1-.3 0-.1-.1-.2-.1-.2-.1-.2-.1-.4-.1-.7v-.8c0-.2.1-.3.3-.3.2-.1.3.1.3.6zm-13.7.4l9.6.2h2c.1.1.2.6.3 1.5.1 1.5.2 3.3.2 5.4 0 1.5 0 2.3-.1 2.4-.1.2-2.7.5-7.7.9-1.3.1-2.5.3-3.6.5-.8.1-1.3.2-1.4.2l-.6.1c-.4.1-.6.1-.6.1-.1-.1-.1-.5-.2-1.4-.1-.9-.1-2-.2-3.3-.1-1.3-.2-2.4-.4-3.3-.2-1.1-.4-1.9-.4-2.4 0-.2.1-.4.1-.5.3-.2 1.2-.4 3-.4zm14.4-.2c0 1.9-.1 2.8-.2 2.8 0 0-.1-.4-.2-1.2-.1-.8-.1-1.3-.1-1.5 0-.3.1-.5.2-.5.2 0 .3.1.3.4zm-19.8 5.9c-.1 0-.2-.3-.3-.9-.1-.6-.1-1-.1-1.4V58.6l.2 1.2c.2.7.3 1.5.3 2.2 0 .4 0 .6-.1.7zm19.1 5.1c0 .2-.2.3-.5.3-.1 0-.4.1-1 .2-.5.1-.9.2-1 .2-.1 0-.1 0-.1-.1s-.2-.2-.5-.4l-.5-.3 1.2-.1c.8-.1 1.4-.1 1.8-.1l.6.3zm-12.9 2.4c0 .1-.1.2-.3.2h-.2c-.1 0-.3 0-.4.1-.2 0-.3.1-.4.1h-.3c-.3 0-.4-.1-.4-.2s.1-.2.4-.3c.3-.1.6-.2 1-.2.4.1.6.2.6.3zm7.1 8.3l.2.4s.2.4.7 1c.5.6.7 1 .7 1-.1 0-.6-.4-1.4-1.3-.8-.9-1.2-1.4-1.2-1.6 0-.1 0-.2.1-.2.4.1.6.3.9.7zm-8.9 7c0 .1-.1.2-.3.3-.2.1-.3.2-.4.2l-.2-1.5s.1-.3.2-1 .1-1.1.1-1.3l.3 1.6c.2 1 .3 1.6.3 1.7zm15.8-.3c.1 0 .2 0 .3-.1.1 0 .2-.1.3-.1.1 0 .2 0 .3.1 0 0 .1.1.1.2s-.1.2-.3.3c-.5.1-.8.1-.9.1-.2 0-.5 0-1.1-.1-.3-.1-.5-.2-.5-.3l.1-.1c.2-.1.4-.1.8-.1H375.1zm-28.3-28.8c0 .1.1.4.1.8 0 1-.1 1.6-.3 1.6 0 0-.1-.3-.1-.7 0-.4-.1-.9-.1-1.4 0-.5-.1-.8-.1-.8-.1-.3-.1-.5.3-.5.1 0 .1.1.1.2v.5c0 .2 0 .3.1.3zm-3.3-1.9c0 .3-.1.4-.2.5-.1.1-.3.1-.5 0-.3-.1-.4-.1-.4-.1-.2 0-.5 0-.8-.1-.3-.1-.6-.1-.8-.2-.2-.1-.3-.1-.4-.1-.8 0-1.3-.1-1.3-.2s.4-.2 1.2-.2h.1c2.1 0 3.1.1 3.1.4zm4.4 9.8c-.1.8-.1 1.2-.2 1.2s-.1-.4-.1-1.2c-.1-.6-.1-1.4-.1-2.3 0-.9.1-1.4.2-1.4s.2.7.2 2.2v1.5zm-15-12.5l-3.8-.1h-.2c-.4 0-.7.1-.8.1-.1.1-.2.3-.2.6v.9l.1 6.1c0 13.7-.1 22-.1 24.9 0 .1 0 .4-.1.8s-.1.7-.1.9c0 .6.3 1 1 1h1.2l1.9-.1c.3 0 .6-.1.7-.2.1-.1.2-.3.2-.5v-2.6c0-7 .1-10.6.3-10.8.1-.1 3.3-.3 9.6-.7.5 0 1.2-.1 2.2-.1 1-.1 1.7-.1 2.2-.1h1.6c.2 0 .3 0 .4-.1.1-.1.2-.6.2-1.6.1-3.5.2-5.8.2-6.6l.1-9.6v-.9c0-.4-.2-.7-.6-.8-.3-.1-1.4-.1-3.5-.1H344c-.5 0-2.3-.1-5.4-.3-3 0-4.9-.1-5.7-.1zm11.2 4.5c.2.4.3 2.8.3 7.2 0 2.6-.1 4.1-.2 4.4 0 .1-1 .3-3 .4-2 .1-3.7.2-5.2.2-1.8 0-2.9-.1-3.3-.2-.3-.1-.5-3.3-.6-9.5 0-.4-.1-1-.1-1.7 0-.5 0-.8.1-.9.1-.2.7-.4 1.8-.6h1.5c.9 0 2.3 0 4.3.1s3.2.1 3.6.1h.4s.1 0 .2.1c0 .1.1.3.2.4zm-14.3 1.5c0 1.6-.1 2.3-.2 2.3-.2 0-.3-.8-.3-2.5 0-1.4.1-2.1.3-2.1.1 0 .2.7.2 2.3zm-.5 23.9c0 .1-.1.6-.3 1.4l-.3 1.2c-.1 0-.2-.9-.2-2.8 0-2.6.1-3.9.2-3.9 0 0 .1.6.3 1.9.2 1.4.3 2.1.3 2.2z"/>
  <path class="st3" d="M143.5 206.4c-.4-1.3-.7-2.7-1.1-4-.4-1.3-.7-2.7-1-4.1-.1-.5-.3-1.1-.4-1.6-.1-.5-.2-1.1-.3-1.6-.2-1.5-.5-2.9-.8-4.4-.3-1.4-.6-2.9-.9-4.3-.1-.3-.2-.5-.3-.6-.1-.2-.3-.3-.5-.3-.1-.1-.3-.1-.4-.1H134c-.4 0-.6.2-.8.4-.2.2-.2.5-.2.8l.6 3.3.6 3.3c.1.4.2.9.4 1.3.1.4.2.9.3 1.4.1.7.2 1.3.3 2 .1.7.2 1.4.3 2 .2 1.1.4 2.2.6 3.2.2 1.1.4 2.1.6 3.2.1.4.1.8.2 1.2.1.4.1.8.1 1.2 0 .4.1.8.2 1 .1.2.2.4.4.5.2.1.4.2.8.3.4.1.8.1 1.2.1h1.2c.4 0 .9 0 1.4-.1.5 0 .9-.1 1.3-.2.3-.1.5-.1.6-.2l.3-.3v-.7c0-.4-.1-.7-.1-.9 0-.3-.1-.5-.1-.8-.6-.4-.7-.7-.7-1m-.4-35.9c-.4-.4-.8-.8-1.2-1.1-.4-.3-.9-.6-1.4-.8-.6-.4-1.3-.6-2-.7-.7-.1-1.4-.2-2.1-.1-.5 0-1 0-1.5.1s-1 .1-1.5.2c-.4 0-.7.1-.9.3-.2.1-.3.4-.3.8-.1.4-.1.7-.1 1.1v1.1c0 .8.1 1.5.1 2.3v2.3c0 .3.1.7.1 1v1c-.1.5-.1 1-.1 1.5s0 1 .1 1.5v2.2c0 .4.1.6.3.9.2.2.4.4.7.5.3.1.6.2.9.2.3.1.6.1.9 0 1.2 0 2.3-.2 3.4-.6 1.1-.4 2-1 2.9-1.8l1-1c.3-.4.6-.7.8-1.1.4-.7.7-1.4.9-2.1.2-.7.4-1.5.5-2.3.1-1 0-1.9-.2-2.8-.2-1-.6-1.8-1.3-2.6zM131 199.4v-1.2-1.2c0-.4-.1-.8-.1-1.1v-.9-.9c0-1 .1-2 0-3 0-1 0-2 .1-3 0-.4 0-.9.1-1.4 0-.5 0-.9.1-1.4 0-.8 0-1.6.1-2.3 0-.7 0-1.4.1-2.2 0-.7 0-1.5-.1-2.3v-.5-.7-.7-.4c0-.3.1-.6.1-.9v-.8-.9c0-.8 0-1.6-.1-2.4 0-.8-.1-1.6-.3-2.4-.1-.4-.2-.6-.4-.8-.2-.2-.5-.3-.9-.3h-3.5c-.2 0-.4.1-.6.2-.2.1-.3.3-.3.5-.1.3-.2.6-.2.9-.1.3-.1.6-.2.9-.1.8-.1 1.6-.1 2.4 0 .8 0 1.6.1 2.4 0 .6 0 1.1.1 1.7 0 .6.1 1.1 0 1.7-.1.9-.1 1.8-.1 2.6s0 1.6.1 2.4v1.6c0 .5 0 1 .1 1.4v2.2c0 .7-.1 1.5-.1 2.2-.1.8-.1 1.7-.1 2.5v2.5c.1 1.3.1 2.6.1 3.8 0 1.3 0 2.6-.1 3.8 0 .8-.1 1.5 0 2.3V208.9c0 .2.1.4.2.6.1.2.2.4.4.5.2.1.3.2.5.2h.8c.4 0 .8 0 1.1.1h1.1c.4 0 .8-.1 1.3-.2.4-.1.7-.2.9-.3.2-.1.3-.3.3-.6v-1.4c-.3-2.6-.4-5.5-.5-8.4zm-21.5-15.8h2.7c.5-.1.9-.1 1.2-.2l.9-.3c.3-.1.6-.2.9-.4.4-.2.7-.3.9-.5.2-.2.5-.3.7-.5.2-.2.5-.4.8-.7.5-.4.9-.9 1.3-1.5.3-.5.6-1.1.8-1.7.1-.3.2-.7.2-1v-1-1c0-.3-.1-.7-.1-1-.1-.3-.2-.6-.4-1-.4-.8-.9-1.5-1.5-2.2-.6-.6-1.4-1.1-2.2-1.5-.1-.1-.3-.1-.4-.2-.1-.1-.2-.1-.3-.2-.7-.4-1.5-.6-2.2-.7-.8-.1-1.5-.1-2.3 0-.6.1-1 .2-1.3.5-.3.3-.5.7-.5 1.2-.1.5-.1.9-.2 1.4-.1.5-.1.9-.1 1.4 0 1.4.1 2.7.1 4.1 0 1.4 0 2.7-.1 4.1v1.8c0 .4.2.7.4.8-.1.3.2.4.7.3zm10.8 9.9l-.3-.9c-.1-.3-.1-.6-.2-.9-.1-.6-.3-1.1-.5-1.6s-.5-1-.9-1.5c-.2-.2-.4-.5-.7-.7-.2-.2-.4-.5-.7-.6-.7-.6-1.5-1.2-2.4-1.6-.8-.4-1.8-.6-2.7-.7-.3 0-.6-.1-.8-.1h-.8c-.5 0-.8 0-1.1.2-.3.2-.5.5-.6.9-.1.2-.1.5-.2.7v2.6c0 .6 0 1.2.1 1.8 0 .4.1 1 .1 1.6 0 .6.1 1.4.1 2.1 0 .7.1 1.5.1 2.3 0 .8 0 1.4.1 2.1v5.9c0 1.2 0 2.3-.2 3.4V210.3c.1.2.3.4.6.5.3.1.7.1 1.2.1.4 0 .8 0 1.3-.1.4-.1.8-.2 1.2-.4.4-.1.7-.3.9-.4.4-.2.8-.5 1.2-.8.4-.3.7-.5 1-.8.3-.2.5-.4.6-.5.6-.5 1.2-1.1 1.7-1.7.5-.6.9-1.4 1.4-2.3.4-.8.6-1.5.8-2.3.2-.8.3-1.5.3-2.3v-1.9c0-.7-.1-1.3-.2-2-.1-.6-.2-1.3-.4-1.9zm-13.3-5.6v-.8-1.4-1.6-1.6-1.2-1.7-2.1c0-.8 0-1.5.1-2.2 0-.7 0-1.3.1-1.8v-1.1-.7-.8-.7-.7c0-.3-.1-.6-.2-.8-.1-.3-.3-.4-.5-.5-.7-.1-1.4-.1-2.1-.1-.7 0-1.4.1-2 .2-.4 0-.7.1-.9.3-.2.2-.2.5-.2.9v1.3c0 .4 0 .9.1 1.3V176.4c0 .6 0 1.3.1 2v6.9c0 1.1 0 2.2.1 3.3 0 1.1 0 2.2-.1 3.2V207c0 .6 0 1.2-.1 1.8v.8c0 .2.1.4.2.5.1.1.3.2.5.3.1 0 .2.1.3.1h3.3c.2 0 .3 0 .5-.1.2 0 .3-.1.5-.1s.3-.1.4-.2c.1-.1.2-.3.2-.5v-.3-.3c.1-.7.1-1.3.1-2v-2c0-.4.1-.8.1-1.2 0-.4.1-.8.1-1.2-.1-2-.1-4-.2-6 0-.4 0-.9-.1-1.6 0-.7 0-1.4-.1-2.1v-2.2-1.8c-.2-.5-.2-.9-.2-1zm-12.6-19.8c-.1-.1-.2-.2-.3-.2-.7-.3-1.4-.3-2.1-.2-.7.1-1.3.4-1.9.9-.5.4-.9.9-1 1.5-.2.6-.3 1.2-.2 1.8.1.5.3 1 .6 1.4.3.4.7.7 1.2.9.5.2 1 .4 1.5.4.2 0 .4 0 .6-.1.2 0 .5-.1.7-.1.2 0 .4-.1.5-.2.5-.3.9-.6 1.2-.9.2-.4.4-.8.5-1.4.1-.5.1-1 0-1.5s-.2-.9-.5-1.3c-.2-.5-.5-.8-.8-1zm.8 39.3c-.1-1.1-.1-2.1-.1-3v-2.7c0-.9 0-1.9.1-2.9v-.6c0-.4 0-.8.1-1.3 0-.5 0-1 .1-1.6v-1.4-2.2-3.1-3.5-3.4-2.8-1.6c0-.3-.1-.6-.2-.7-.1-.2-.4-.3-.8-.4-.6-.1-1.2-.1-1.8-.1h-1.8c-.1 0-.2 0-.3.1-.1 0-.2 0-.3.1-.2 0-.3.1-.4.2-.1.1-.2.2-.2.4s-.1.4-.1.6v18.3c0 .6-.1 1.1-.1 1.7v1.7c-.1 1.2-.1 2.5-.1 3.8 0 1.3-.1 2.5-.1 3.8v1.5c0 .5.1 1 .2 1.4 0 .2.1.4.2.5.1.1.3.2.5.2.8.1 1.6.2 2.4.2.8 0 1.6-.1 2.4-.2.2 0 .4-.1.5-.2.1-.1.2-.3.3-.5.1-.2.1-.3.1-.5s0-.4-.1-.6c0-.2-.1-.4-.1-.7-.3 0-.3-.2-.4-.5zm-11-3.1c-.3-.1-.5-.1-.8-.1h-.8c-.2 0-.4.1-.6.1h-5.6c-.4 0-.6.1-.8.1-.2.1-.3.3-.4.5 0 .1-.1.2-.1.3 0 .1-.1.2-.1.3-.2.6-.3 1.2-.3 1.8-.1.6-.1 1.2 0 1.9 0 .3 0 .6.2.7.1.2.3.3.7.3.3.1.5.1.8.2h5.9c.5 0 1-.1 1.5-.1.3 0 .5-.1.6-.2.2-.1.3-.3.4-.5 0-.1.1-.2.1-.3v-.2-.8c0-.4 0-.8.1-1.2 0-.4 0-.8.1-1.2 0-.4 0-.6.1-.8 0-.3 0-.5-.1-.6-.4 0-.6-.1-.9-.2zM73.6 180c-.1-.6-.1-1.1-.1-1.7v-1.7-3.7c0-1.2-.1-2.4-.2-3.7 0-.2-.1-.4-.2-.5-.1-.1-.2-.2-.5-.2-.8-.2-1.6-.3-2.4-.3-.8 0-1.6.1-2.4.2-.2 0-.3.1-.4.2-.1.1-.2.3-.2.5v5c-.1 1.2-.1 2.3-.1 3.5 0 1.2 0 2.4.1 3.5.1 1.3.1 2.5.1 3.8v3.8c0 .6 0 1.3-.1 1.9 0 .6-.1 1.3-.1 1.9 0 .9 0 1.8-.1 2.8 0 .9 0 1.8.1 2.8v.8c-.1.9-.1 1.7-.1 2.6v2.9c-.1.8-.1 1.7-.1 2.5 0 .9 0 1.7-.1 2.6 0 .3 0 .5.1.6.1.1.3.2.6.3H70.1c.8-.1 1.5-.1 2.3-.3.3-.1.6-.2.7-.4.2-.2.3-.5.4-.8.1-.4.1-.7.1-1.1 0-.4.1-.8.1-1.1.1-.7.1-1.4.1-2.1v-2.1c.1-1 .1-2 0-3 0-.7-.1-1.4-.1-2.1v-2-.6-.5c0-.4.1-.8.1-1.1v-.9-.8-1.5-1.5-1.5-1.3c0-.4 0-.8-.1-1.3 0-.8-.1-1.5-.1-2.3.1-.5 0-1.3 0-2.1z"/>
  <path class="st3" d="M256.5 168.1c-.1-.1-.2-.2-.3-.2-.7-.3-1.4-.3-2.1-.2-.7.1-1.3.4-1.9.9-.5.4-.9.9-1 1.5-.2.6-.3 1.2-.2 1.8.1.5.3 1 .6 1.4.3.4.7.7 1.2.9.5.2 1 .4 1.5.4.2 0 .4 0 .6-.1.2 0 .5-.1.7-.1.2 0 .4-.1.5-.2.5-.3.9-.6 1.2-.9.2-.4.4-.8.5-1.4.1-.5.1-1 0-1.5s-.2-.9-.5-1.3c-.2-.5-.5-.8-.8-1m.8 39.3c-.1-1.1-.1-2.1-.1-3v-2.7c0-.9 0-1.9.1-2.9v-.6c0-.4 0-.8.1-1.3 0-.5 0-1 .1-1.6v-1.4-2.2-3.1-3.5-3.4-2.8-1.6c0-.3-.1-.6-.2-.7-.1-.2-.4-.3-.8-.4-.6-.1-1.2-.1-1.8-.1h-1.8c-.1 0-.2 0-.3.1-.1 0-.2 0-.3.1-.2 0-.3.1-.4.2-.1.1-.2.2-.2.4s-.1.4-.1.6v18.3c0 .6-.1 1.1-.1 1.7v1.7c-.1 1.2-.1 2.5-.1 3.8 0 1.3-.1 2.5-.1 3.8v1.5c0 .5.1 1 .2 1.4 0 .2.1.4.2.5.1.1.3.2.5.2.8.1 1.6.2 2.4.2.8 0 1.6-.1 2.4-.2.2 0 .4-.1.5-.2.1-.1.2-.3.3-.5.1-.2.1-.3.1-.5s0-.4-.1-.6c0-.2-.1-.4-.1-.7-.3 0-.4-.2-.4-.5zM247 168.6c0-.2-.1-.3-.2-.4-.1-.1-.2-.1-.4-.1h-3s-.1 0-.3.1c-.2 0-.5 0-.7.1-.3 0-.5 0-.8.1-.3 0-.6.1-.8.3-.2.2-.4.4-.5.7-.1.3-.2.5-.2.8-.1.2-.1.5-.2.7-.2.9-.4 1.7-.6 2.6-.2.9-.4 1.7-.5 2.6-.2.7-.3 1.4-.5 2.1l-.3 2.1c-.1 1-.3 2.1-.4 3.1-.2 1-.3 2.1-.6 3.1-.2.8-.3 1.7-.5 2.5s-.4 1.7-.5 2.5c-.1.3-.2.7-.2 1-.1.3-.1.7-.2 1-.1-.3-.1-.7-.2-1-.1-.3-.2-.7-.2-1-.2-.9-.3-1.7-.5-2.5s-.4-1.7-.5-2.5c-.2-1-.4-2.1-.6-3.1-.1-1-.3-2.1-.4-3.1-.1-.7-.2-1.4-.4-2.1-.1-.7-.3-1.4-.4-2.1-.4-1.7-.8-3.4-1.2-5.2-.1-.2-.1-.5-.2-.7-.1-.3-.1-.5-.2-.8-.1-.3-.3-.6-.5-.7-.2-.2-.5-.3-.8-.3-.2 0-.5 0-.8-.1-.3 0-.5 0-.7-.1-.2 0-.3 0-.3-.1h-3c-.2 0-.3 0-.4.1-.1.1-.2.2-.2.4v1.1c.2.7.3 1.4.4 2.1.1.7.2 1.4.3 2.2 0 .2.1.5.1.8 0 .3.1.5.2.8.2.7.4 1.3.6 2 .2.7.4 1.4.5 2 .1.3.2.7.2 1 .1.3.1.7.1 1 .1.9.2 1.7.4 2.6.2.9.3 1.7.5 2.6.1.4.2.8.3 1.1.1.4.2.8.3 1.1.2.8.4 1.6.5 2.3.1.5.1 1.1.3 1.6.1.5.2 1.1.3 1.6l.6 2.4c.2.7.4 1.5.7 2.2.2.7.4 1.5.5 2.4 0 .2.1.6.2 1.1.1.5.3 1 .5 1.7.2.6.3 1.2.5 1.8.2.6.3 1.1.4 1.5.1.4.2.7.2.8 0 .1 0 .3.1.6.1.2.2.5.4.8.2.3.5.5.9.7.4.2.9.3 1.6.3h.4c.7 0 1.3-.1 1.7-.4.4-.2.7-.5.9-.8.2-.3.3-.5.3-.6 0-.1.1-.3.1-.7.1-.3.2-.7.3-1.1l.3-1.2c.1-.4.1-.7.2-1 .1-.9.3-1.7.5-2.5s.5-1.7.8-2.5c.3-.8.5-1.7.7-2.5 0-.2.1-.6.3-1.3.1-.7.3-1.5.5-2.6.2-1 .4-2.1.7-3.4.2-1.2.5-2.4.7-3.6.2-1.2.5-2.3.7-3.3.2-1 .4-1.8.5-2.5.1-.6.2-1 .2-1.1.2-.7.3-1.4.5-2 .2-.7.4-1.3.6-2 .1-.3.1-.6.2-.8.1-.3.1-.5.2-.8.1-.7.2-1.4.2-2.2l.3-2.1c.1-.2.1-.3.1-.5-.5-.3-.6-.5-.6-.7zm-36 34.2c-.1-.3-.2-.6-.3-.8-.1-.2-.4-.3-.7-.4-.4-.1-.9-.2-1.6-.2h-1.5c-.9-.1-1.7-.1-2.6-.1-.9 0-1.8 0-2.7.1v-.2-.2-.8c0-.2 0-.5.1-.8 0-.5 0-1 .1-1.5 0-.5 0-1 .1-1.5v-.1-.1H205.2c1 0 2.1.1 3.1.2.5 0 .9 0 1.1-.1.2-.1.4-.4.4-.7.1-.6.1-1.3.2-1.9 0-.6.1-1.2.1-1.8v-.3-.3c-.2-.5-.6-.8-1.3-.8H202h-.1-.1v-.3-.3-1.4-1.4-.4-.4c.1-.7.2-1.4.2-2.1 0-.7-.1-1.4-.1-2.1-.1-.7-.1-1.3-.1-2 0-.6 0-1.3.1-1.9v-.5-.5c.7 0 1.4 0 2.1.1.7 0 1.4 0 2.1.1.7 0 1.4 0 2.1-.1l2.1-.3c.3 0 .4-.1.6-.2.1-.1.2-.3.3-.4.1-.1.1-.3.1-.4v-.5-1-1-.3-.3c-.1-.3-.2-.6-.4-.8-.2-.2-.4-.3-.8-.4-.4-.1-.9-.2-1.7-.2h-1.6c-1-.1-1.9-.1-2.9-.1s-1.9 0-2.9.1c-.4 0-.7 0-1.1.1-.3 0-.7 0-1.1.1-.7 0-1.3.1-1.8.2-.4.1-.7.3-.9.5-.2 0-.3.1-.4.2-.1.1-.1.3-.1.5v.2c0 .2.1.3.1.5v.5c0 .3 0 .6.1.9 0 .3 0 .6.1.9v2.2c0 .7.1 1.4.2 2 .1.7.1 1.3.2 2 0 .6 0 1.2.1 1.8 0 .6 0 1.2.1 1.8V189c0 .2 0 .5-.1.7V207c0 .2.1.3.2.4.1.1.2.1.4.1s.5.1.7.1h1.2c.3 0 .6 0 .9.1.3 0 .6 0 .9.1h1.9c.7 0 1.4 0 2.1.1.7 0 1.4 0 2 .1.6 0 1.3 0 1.9-.1.7-.1 1.3-.2 1.9-.3.2 0 .4-.1.5-.2.1-.1.2-.3.3-.4v-.5-.5-1-1-.3c-.3-.7-.3-.8-.3-.9zm-34.2-9.8V201.6c0 .9 0 1.7.1 2.5v1.5c0 .4.1.7.1 1 .1.3.2.5.3.6 0 .1.1.2.4.2h1.1c.5 0 1-.1 1.6-.1.7-.1 1.4-.3 2.1-.6.7-.3 1.3-.6 1.9-1 .6-.4 1.2-.7 1.7-1 .5-.4.9-.8 1.3-1.1.3-.3.7-.7 1-1.1.3-.4.7-.9 1.2-1.6.5-.7.8-1.4 1.2-2.1.3-.7.6-1.3.8-1.8.1-.4.3-.9.4-1.3.1-.4.2-.9.3-1.3.2-.8.3-1.7.4-2.5.1-.9.1-1.7.1-2.6 0-.2 0-.5-.1-.9 0-.4-.1-1-.2-1.6-.1-.6-.1-1.2-.2-1.8-.1-.6-.2-1.2-.3-1.7-.1-.5-.2-1-.3-1.3-.2-.7-.4-1.3-.6-1.8-.2-.5-.5-1-.7-1.4-.3-.4-.6-.9-1.1-1.4-.3-.4-.6-.8-1-1.2-.3-.4-.8-.9-1.2-1.3-.5-.4-1-.8-1.7-1.2-.9-.5-1.7-.9-2.3-1.1-.6-.2-.9-.4-1.1-.4-.3-.1-.7-.2-1.1-.3-.4-.1-.8-.2-1.3-.2-.4-.1-.8-.1-1.1-.1h-.7c-.2.1-.4.2-.5.3 0 .1 0 .2-.1.3 0 .1 0 .2-.1.3 0 .3-.1.7-.1 1 0 .4-.1.7-.1 1v2.3c0 .6 0 1.2-.1 1.9 0 .7 0 1.3-.1 1.9 0 .6 0 1.1-.1 1.5 0 .4 0 .7-.1.8v8.8c.3.5.3 1 .3 1.3zm-13.5 9.8c-.1-.3-.2-.6-.3-.8-.1-.2-.4-.3-.7-.4-.4-.1-.9-.2-1.6-.2h-1.5c-.9-.1-1.7-.1-2.6-.1-.9 0-1.8 0-2.7.1v-.2-.2-.8c0-.2 0-.5.1-.8 0-.5 0-1 .1-1.5 0-.5 0-1 .1-1.5v-.1-.1H157.5c1 0 2.1.1 3.1.2.5 0 .9 0 1.1-.1.2-.1.4-.4.4-.7.1-.6.1-1.3.2-1.9 0-.6.1-1.2.1-1.8v-.3-.3c-.2-.5-.6-.8-1.3-.8h-6.8-.1-.1v-.3-.3-1.4-1.4-.4-.4c.1-.7.2-1.4.2-2.1 0-.7-.1-1.4-.1-2.1-.1-.7-.1-1.3-.1-2 0-.6 0-1.3.1-1.9v-.5-.5c.7 0 1.4 0 2.1.1.7 0 1.4 0 2.1.1.7 0 1.4 0 2.1-.1l2.1-.3c.3 0 .4-.1.6-.2.1-.1.2-.3.3-.4.1-.1.1-.3.1-.4v-.5-1-1-.3-.3c-.1-.3-.2-.6-.4-.8-.2-.2-.4-.3-.8-.4-.4-.1-.9-.2-1.7-.2h-1.6c-1-.1-1.9-.1-2.9-.1s-1.9 0-2.9.1c-.4 0-.7 0-1.1.1-.3 0-.7 0-1.1.1-.7 0-1.3.1-1.8.2-.4.1-.7.3-.9.5-.2 0-.3.1-.4.2-.1.1-.1.3-.1.5v.2c0 .2.1.3.1.5v.5c0 .3 0 .6.1.9 0 .3 0 .6.1.9v2.2c0 .7.1 1.4.2 2 .1.7.1 1.3.2 2 0 .6 0 1.2.1 1.8 0 .6 0 1.2.1 1.8V189c0 .2 0 .5-.1.7V207c0 .2.1.3.2.4.1.1.2.1.4.1s.5.1.7.1h1.2c.3 0 .6 0 .9.1.3 0 .6 0 .9.1h1.9c.7 0 1.4 0 2.1.1.7 0 1.4 0 2 .1.6 0 1.3 0 1.9-.1.7-.1 1.3-.2 1.9-.3.2 0 .4-.1.5-.2.1-.1.2-.3.3-.4v-.5-.5-1-1-.3c-.3-.7-.3-.8-.3-.9z"/>
  <path class="st3" d="M335.6 186.6c.3.8.5 1.5.8 2.3.3.8.5 1.5.7 2.4.3 1.2.6 2.5.9 3.7.3 1.2.6 2.5.9 3.7.3 1.2.5 2.5.7 3.8.1.7.2 1.4.4 2 .1.7.3 1.3.4 2 .1.7.2 1.3.3 2 0 .3.1.6.3.8.2.2.4.4.7.5.1.1.3.1.5.2s.3.1.5.1c.5.1.9.2 1.2.2.3 0 .6.1.9.1.3 0 .7 0 1.2-.1h1c.4 0 .7-.1 1-.2.3-.1.5-.3.6-.6 0-.1.1-.4.1-.9s0-1 .1-1.7v-2c0-.7 0-1.3-.1-1.9 0-1 .1-2 0-2.9v-2.7-2.2-1.1-1.8c0-.7 0-1.4.1-2.1 0-.7 0-1.3.1-1.8v-1.1-3.4c0-1 0-2.1.1-3.1 0-1 .1-2 .1-3.1v-3.4c0-.9 0-1.7.1-2.5s.1-1.7.2-2.5c.1-.4 0-.8-.3-1.1-.2-.3-.6-.5-1.2-.5h-1.3c-.5 0-1 0-1.4.1-.4 0-.8.1-1 .2-.4.1-.7.1-.9.3-.2.1-.3.2-.4.4-.1.1-.1.3-.1.4v5.1c0 .5 0 1 .1 1.4 0 .4.1.8.1 1.3 0 .4 0 .9.1 1.4v9.8c0 .7.1 1.4.1 2.1v1.9c0 .6 0 1-.1 1.3 0 .3-.1.4-.3.2-.1-.4-.2-.7-.3-1l-.3-.9c-.1-.3-.2-.8-.4-1.5s-.4-1.5-.6-2.3c-.2-.9-.5-1.8-.7-2.8-.2-1-.5-1.9-.7-2.7-.2-.9-.4-1.6-.6-2.2-.2-.6-.3-1-.3-1.3-.2-.9-.4-1.7-.6-2.6-.2-.8-.5-1.7-.7-2.6-.1-.4-.2-.9-.3-1.5l-.3-1.8c-.1-.6-.3-1.1-.4-1.6-.2-.4-.4-.7-.6-.8-.1 0-.3-.1-.4-.1h-4c-.3 0-.6 0-.8.1-.3.1-.5.2-.8.3-.2.1-.3.2-.4.3-.1.1-.1.2-.2.4 0 .3-.1.7-.1 1 0 .3-.1.7-.1 1v3.1c0 .6 0 1.2.1 1.9 0 .6 0 1.3.1 1.9v5.9c0 .7 0 1.5.1 2.3 0 .8 0 1.6.1 2.4 0 .8.1 1.4.1 2 0 .6 0 1 .1 1.4 0 .9 0 1.8.1 2.8v3.2c0 1.1 0 2.1-.1 3 0 .9 0 1.8-.1 2.4 0 .7 0 1.1-.1 1.4V209.4c0 .2 0 .3.1.4l.3.3c.1.1.2.1.4.2.1.1.3.1.4.2.5.1.9.2 1.4.3.4.1.9.1 1.4.1.5 0 1 0 1.6-.1.2-.1.4-.1.5-.3.1-.1.3-.3.3-.5.1-.3.2-.7.3-1 .1-.3.1-.7.1-1v-1.2-1.2-.9-1.6-2-2-1.7-1.1-2.2c0-.7 0-1.4-.1-2.2 0-.3 0-.8-.1-1.2 0-.5 0-.9-.1-1.4V188c0-.4 0-.7.1-.9-.8-.5-.7-.5-.6-.5m-9.9 16.2c-.1-.3-.2-.6-.3-.8-.1-.2-.4-.3-.7-.4-.4-.1-.9-.2-1.6-.2h-1.5c-.9-.1-1.7-.1-2.6-.1-.9 0-1.8 0-2.7.1v-.2-.2-.8c0-.2 0-.5.1-.8 0-.5 0-1 .1-1.5 0-.5 0-1 .1-1.5v-.1-.1H319.9c1 0 2.1.1 3.1.2.5 0 .9 0 1.1-.1.2-.1.4-.4.4-.7.1-.6.1-1.3.2-1.9 0-.6.1-1.2.1-1.8v-.3-.3c-.2-.5-.6-.8-1.3-.8h-6.8-.1-.1v-.3-.3-1.4-1.4-.4-.4c.1-.7.2-1.4.2-2.1 0-.7-.1-1.4-.1-2.1-.1-.7-.1-1.3-.1-2 0-.6 0-1.3.1-1.9v-.5-.5c.7 0 1.4 0 2.1.1.7 0 1.4 0 2.1.1.7 0 1.4 0 2.1-.1l2.1-.3c.3 0 .4-.1.6-.2.1-.1.2-.3.3-.4.1-.1.1-.3.1-.4v-.5-1-1-.3-.3c-.1-.3-.2-.6-.4-.8-.2-.2-.4-.3-.8-.4-.4-.1-.9-.2-1.7-.2h-1.6c-1-.1-1.9-.1-2.9-.1s-1.9 0-2.9.1c-.4 0-.7 0-1.1.1-.3 0-.7 0-1.1.1-.7 0-1.3.1-1.8.2-.4.1-.7.3-.9.5-.2 0-.3.1-.4.2-.1.1-.1.3-.1.5v.2c0 .2.1.3.1.5v.5c0 .3 0 .6.1.9 0 .3 0 .6.1.9v2.2c0 .7.1 1.4.2 2 .1.7.1 1.3.2 2 0 .6 0 1.2.1 1.8 0 .6 0 1.2.1 1.8V189c0 .2 0 .5-.1.7V207c0 .2.1.3.2.4.1.1.2.1.4.1s.5.1.7.1h1.2c.3 0 .6 0 .9.1.3 0 .6 0 .9.1h1.9c.7 0 1.4 0 2.1.1.7 0 1.4 0 2 .1.6 0 1.3 0 1.9-.1.7-.1 1.3-.2 1.9-.3.2 0 .4-.1.5-.2.1-.1.2-.3.3-.4v-.5-.5-1-1-.3c-.3-.7-.3-.8-.3-.9zm-19.2-1.4c-.4-.1-.7-.1-1.1-.1h-2.9c-.6 0-1.1 0-1.7-.1-.6 0-1.1 0-1.6-.1v-.4-.4-1.3-1.3c0-.6-.1-1.2-.1-1.8v-1.8-.5c0-.2 0-.3.1-.5 0-.4.1-.7.1-.9v-.7-.7-1.3c0-.4 0-.9.1-1.3v-1.3-1.1c0-.4 0-.7-.1-1.1 0-.6-.1-1.3-.1-1.9 0-.7-.1-1.3-.2-1.9-.1-.5-.1-.9-.1-1.4v-1.4-3.2c0-1.1-.1-2.1-.2-3.2 0-.2-.1-.3-.2-.4-.1-.1-.2-.2-.5-.2-.8-.2-1.6-.2-2.4-.3-.8 0-1.6.1-2.3.2-.2 0-.3.1-.5.2-.1.1-.2.2-.2.4v4.2c-.1 1-.1 2-.1 3s0 2 .1 3c.1 1.1.1 2.2.1 3.3v3.3c0 .6 0 1.1-.1 1.6 0 .5-.1 1.1-.1 1.6 0 .8-.1 1.6-.1 2.3 0 .8 0 1.6.1 2.3v.6c-.1.7-.1 1.5-.1 2.3v2.4c0 .7-.1 1.4-.1 2.2 0 .7-.1 1.5-.1 2.2 0 .2 0 .4.1.6.1.1.3.2.5.3h1.8c.3.1.6.1.9.1.3 0 .6 0 .9.1.9 0 1.7.1 2.6 0H305.8c.4 0 .7-.1.9-.2.2-.1.4-.3.5-.5.1-.2.2-.3.2-.5s0-.4.1-.8c0-.4.1-.7.1-1.2 0-.4 0-.8.1-1.2v-.8c0-.3 0-.5-.1-.6-.4.4-.7.3-1.1.2zm-32-23.7v-.4-.8c0-.3-.1-.6-.1-.8-.1-.3-.1-.4-.2-.5 0-.1-.1-.2-.3-.2h-.9c-.4 0-.8.1-1.3.1-.5.1-1.1.3-1.6.5-.5.3-1.1.5-1.6.8-.5.3-1 .6-1.4.9-.4.3-.7.6-1 .9-.3.3-.5.5-.8.9-.3.3-.6.7-1 1.3-.4.6-.7 1.1-1 1.7-.3.5-.5 1-.6 1.5-.1.4-.2.7-.3 1.1-.1.4-.2.7-.3 1-.1.7-.3 1.4-.3 2.1-.1.7-.1 1.4 0 2.1 0 .1 0 .4.1.8 0 .4.1.8.1 1.3s.1 1 .2 1.5.1 1 .2 1.4c.1.4.1.8.2 1 .2.5.4 1 .5 1.4.2.4.4.8.6 1.1.2.3.5.7.9 1.1.3.5.7 1 1.2 1.5s1.1 1 1.9 1.5c.7.4 1.4.7 1.8.9.4.2.7.3.9.4.2.1.5.2.9.3.3.1.7.1 1 .2.3 0 .7.1.9.1h.6c.1 0 .2 0 .3-.1.1-.1.1-.1.1-.2s.1-.1.1-.2v-.2c0-.2.1-.5.1-.8 0-.3.1-.6.1-.9v-.8-1.6c0-.6 0-1.2.1-1.8 0-.6 0-1.2.1-1.6v-.9-.9-1.8-2.2-2.1-1.5-1.4-2.3-2.7c-.2-1.1-.2-1.9-.2-2.7zm14.6 11.6c0-.1 0-.4-.1-.8 0-.4-.1-.8-.1-1.3-.1-.5-.1-1-.2-1.5s-.1-1-.2-1.4c-.1-.4-.2-.8-.3-1-.2-.5-.3-1-.5-1.4-.2-.4-.4-.8-.6-1.1-.2-.4-.5-.7-.9-1.1-.3-.5-.8-1-1.3-1.5s-1.1-1-1.9-1.5c-.7-.4-1.3-.7-1.8-.9-.5-.2-.8-.3-.9-.4-.3-.1-.7-.2-1.2-.3-.5-.1-.9-.1-1.3-.2h-.9c-.1 0-.2 0-.2.1l-.2.2v.4c0 .3-.1.6-.1.9 0 .3-.1.6-.1.8v.8c0 .4 0 1-.1 1.6 0 .6 0 1.2-.1 1.9 0 .6 0 1.2-.1 1.6V202.5c0 .3.1.6.1.8.1.3.1.4.3.5 0 .1.3.2.7.2.5 0 1.1-.1 1.9-.1.5-.1 1.1-.3 1.6-.5s1.1-.5 1.6-.8c.5-.3 1-.6 1.4-.9.4-.3.8-.6 1-.9.3-.3.5-.5.8-.9.3-.3.6-.8 1-1.3.3-.6.6-1.1.9-1.7.3-.5.5-1 .6-1.5.1-.4.2-.7.3-1.1.1-.3.2-.7.2-1.1.1-.7.3-1.3.4-2 .3-.6.4-1.2.3-1.9z"/>
  <path class="st3" d="M411 204c-.1-.1-.2-.2-.3-.2-.7-.2-1.4-.3-2.1-.2-.7.1-1.3.4-1.9.9-.5.4-.9.9-1 1.5-.2.6-.3 1.2-.2 1.8.1.5.3 1 .6 1.4.3.4.7.7 1.2.9.5.2 1 .4 1.5.4.2 0 .4 0 .6-.1.2 0 .5-.1.7-.1.2 0 .4-.1.5-.2.5-.3.9-.6 1.2-.9.3-.4.4-.8.5-1.4.1-.5.1-1 0-1.5s-.2-.9-.5-1.3c-.2-.5-.5-.8-.8-1m-9.1-21.9c-.1-1.1-.3-2.3-.5-3.4s-.5-2.2-1-3.2c-.3-.6-.6-1.2-1-1.7s-.9-.9-1.5-1.2c-.2-.1-.4-.3-.6-.4l-.6-.3c-.9-.5-1.8-.8-2.7-.9-.9-.1-1.9-.1-2.8.1-.7.2-1.4.5-2 .9-.6.4-1.1.9-1.7 1.5l-.6.6c-.2.2-.5.6-.7 1-.3.4-.5 1.1-.8 1.9-.3.8-.5 1.9-.7 3.2 0 .2-.1.3-.1.5v1.5c0 .4.1.7.2 1 .1.3.3.6.7.9.3.2.8.4 1.4.5.7.1 1.3.1 1.8 0 .4 0 .8-.1 1-.3.2-.1.3-.3.4-.5.1-.2.1-.4.2-.7.1-.6.1-1.2.3-1.8.1-.6.3-1.1.5-1.6 0-.1.1-.3.2-.5s.3-.5.4-.8c.2-.3.4-.5.7-.7.3-.2.6-.3.9-.3.5 0 .8.1 1.1.3.3.2.6.6.8 1 .2.4.4.8.4 1 .1.3.2.5.3.8.1.5.3 1.1.4 1.8.1.6.2 1.3.2 2v2.6c-.4 0-.8-.1-1.2 0s-.8 0-1.3.1c-.5 0-1 .1-1.6.1-.8.1-1.5.2-2 .2-.6.1-1.2.2-1.7.3-.5.1-1.1.3-1.6.6-.2.1-.5.3-.8.5-.3.2-.7.4-1 .7-.3.2-.6.5-.8.7-.6.5-1 1.1-1.4 1.8-.4.6-.6 1.4-.7 2.2-.1 1-.2 2 0 2.9.1.9.4 1.7.8 2.4.5.8 1 1.5 1.8 2.2.7.7 1.6 1.2 2.8 1.6.1 0 .3.1.6.1.4.1.8.2 1.3.3.5.1 1 .2 1.6.3.5.1 1 .1 1.5.1.3 0 .7.1 1.2.1s1 .1 1.4.1c0 .3-.1.5-.1.8v.8c0 .5.1.9.5 1.2.3.3.8.5 1.3.7.5.2 1.1.3 1.7.3h1.8c.3 0 .5-.1.6-.3l.3-.6c0-.2.1-.4.1-.6v-.3c0-.7.1-1.4.1-2 0-.6.1-1.2.1-1.8 0-.6.1-1.2.1-1.9 0-.3 0-.6.1-.9 0-.3.1-.6.1-.9.1-1.7.2-3.4.2-5.1.1-1.7.1-3.4.1-5.1 0-1 .1-2.1.1-3.1-.5-1.2-.6-2.2-.6-3.3zm-24.3-14c-.1-.1-.2-.2-.3-.2-.7-.3-1.4-.3-2.1-.2-.7.1-1.3.4-1.9.9-.5.4-.9.9-1 1.5-.2.6-.3 1.2-.2 1.8.1.5.3 1 .6 1.4.3.4.7.7 1.2.9.5.2 1 .4 1.5.4.2 0 .4 0 .6-.1.2 0 .5-.1.7-.1.2 0 .4-.1.5-.2.5-.3.9-.6 1.2-.9.2-.4.4-.8.5-1.4.1-.5.1-1 0-1.5s-.2-.9-.5-1.3c-.2-.5-.5-.8-.8-1zm.8 39.3c-.1-1.1-.1-2.1-.1-3v-2.7c0-.9 0-1.9.1-2.9v-.6c0-.4 0-.8.1-1.3 0-.5 0-1 .1-1.6v-1.4-2.2-3.1-3.5-3.4-2.8-1.6c0-.3-.1-.6-.2-.7-.1-.2-.4-.3-.8-.4-.6-.1-1.2-.1-1.8-.1H374c-.1 0-.2 0-.3.1-.1 0-.2 0-.3.1-.2 0-.3.1-.4.2-.1.1-.2.2-.2.4s-.1.4-.1.6v18.3c0 .6-.1 1.1-.1 1.7v1.7c-.1 1.2-.1 2.5-.1 3.8 0 1.3-.1 2.5-.1 3.8v1.5c0 .5.1 1 .2 1.4 0 .2.1.4.2.5.1.1.3.2.5.2.8.1 1.6.2 2.4.2.8 0 1.6-.1 2.4-.2.2 0 .4-.1.5-.2.1-.1.2-.3.3-.5.1-.2.1-.3.1-.5s0-.4-.1-.6c0-.2-.1-.4-.1-.7-.3 0-.4-.2-.4-.5zm-11.6-38.7l-.1-.1-.1-.1c-.1-.2-.2-.4-.5-.5-.2-.1-.5-.2-.9-.2s-.9.1-1.5.3c-.6.2-1.1.3-1.5.5-.4.2-.8.4-1.2.7-.4.3-.8.5-1.1.9-.4.3-.8.7-1.3 1.2l-.7.7c-.7.6-1.4 1.4-2.1 2.3-.7 1-1.4 2.2-2 3.5-.3.6-.6 1.3-.8 2-.2.7-.5 1.6-.7 2.5-.2.7-.3 1.4-.4 2-.1.7-.2 1.3-.2 2v1.2c0 .6-.1 1.1-.1 1.7v2.1c0 .5.1 1.2.1 1.9s.2 1.5.3 2.4c.1 1 .4 2.1.8 3.4.4 1.2 1 2.5 1.8 3.8.8 1.3 1.8 2.6 3.1 3.9 1.1 1.1 2.2 1.9 3.2 2.6 1.1.7 2 1.1 3 1.4h.7c.5 0 1-.1 1.3-.4.4-.3.7-.7.9-1.2.2-.6.4-1.2.5-1.7.1-.6.1-1.1.1-1.7 0-.3 0-.6-.2-.8-.1-.1-.4-.3-.7-.4l-.2-.1c-.4-.1-.8-.2-1.2-.4-.4-.2-1-.5-1.7-.9s-1.3-.8-1.8-1.3-.9-1-1.3-1.6c-.4-.6-.7-1.3-1.1-2.1-.1-.2-.2-.5-.4-1s-.3-1-.5-1.5c-.2-.6-.3-1.1-.5-1.6-.1-.5-.3-1-.3-1.3v-.2-.3-.3-.3c-.2-1.1-.2-2.3-.1-3.4.1-1.2.3-2.4.7-3.7.1-.3.2-.7.3-1 .1-.4.2-.7.4-1.1.7-1.7 1.4-3.1 2.3-4.3.8-1.2 1.8-2.1 2.8-2.9.2-.1.4-.3.5-.3.1-.1.2-.2.3-.2.1-.1.3-.2.4-.3.1-.1.3-.2.6-.4.5-.3.9-.5 1.1-.6.2-.2.4-.3.5-.5.1-.2.2-.4.3-.7v-.1c.1-.6.1-1.2 0-1.6-.1-.5-.2-.8-.4-1.1-.1-.4-.3-.6-.4-.8z"/>
  <path class="st4" d="M248.3 124.5l-20.7 19.9-19.8-20.8-20.8 19.9-19.8-20.7-20.7 19.9-19.9-20.7-20.7 19.8L86 121.1 65.3 141"/>
  <path class="st4" d="M411.6 127.1L390.9 147 371 126.3l-20.7 19.9-19.9-20.7-20.7 19.8-19.8-20.7-20.8 19.9-19.8-20.7"/>
</svg>