<svg xmlns="http://www.w3.org/2000/svg" width="481.5" height="169" viewBox="0 0 481.5 169">
  <style>
    .st0{fill:#fff}.st2{fill-rule:evenodd;clip-rule:evenodd;fill:#fff}
  </style>
  <path class="st0" d="M292.3 135.7c-.6-.4-1-1-1.2-1.8-.1-.7 0-1.4.5-2.1.6-.8 1.3-1.1 2.3-1.1.7-.1 1.3 0 1.8.3.3.1.5.3.6.5.7 1.3.7 2.5 0 3.7-.2.3-.4.5-.8.7-1.1.6-2.2.5-3.2-.2m3.9 1.6c.2 0 .4.1.5.3.1.2.2.3.2.5v11.3c0 1.4-.1 2.8-.1 4.3 0 .9-.1 1.7-.1 2.6 0 .9-.1 1.7-.3 2.6-.2.9-.4 1.8-.6 2.8-.2.9-.6 1.8-1 2.7-.5 1-1.3 1.8-2.2 2.4-.2.1-.4.1-.6.2-.2.1-.3.2-.5.3-.8.4-1.6.6-2.4.6-.8 0-1.6 0-2.4-.3-.6-.2-1.2-.4-1.7-.8s-.9-.8-1.4-1.3c-.2-.2-.3-.4-.5-.6-.2-.2-.4-.5-.6-.8-.2-.4-.4-.9-.6-1.6-.2-.7-.4-1.6-.5-2.7-.2-1.7-.2-3.1-.2-4.2s.1-1.8.1-2.1v-.8-.8c.1-.4.2-.6.4-.9.2-.2.5-.4.9-.5.7-.2 1.2-.3 1.6-.3.4 0 1-.1 1.7-.1.3 0 .5.2.6.4.2.2.2.7 0 1.5-.1.4-.2.9-.2 1.2-.1.4-.1.7-.2 1.1 0 .3-.1.7-.1 1v1.2c0 .6.1 1.2.1 2s.2 1.4.4 2c0 .1.1.2.2.5l.3.6c.1.2.3.4.6.6.2.2.5.3.8.3.4.1.8 0 1-.2.2-.2.5-.5.7-.8l.4-.8c.1-.2.2-.4.3-.7.3-.6.5-1.4.6-2.3.1-.9.2-1.7.2-2.4v-1.9c0-.6 0-1.2.1-1.8v-1.4-1.2-2.4c0-.8-.1-1.6-.2-2.3-.1-.3-.1-.6-.1-.9v-.9l-.1-3.5c0-.4.2-.7.5-1 .3-.2.7-.4 1.2-.5.5-.1 1-.2 1.5-.2.7-.1 1.2 0 1.7 0zM278.8 161V164.1c-.1.3-.4.5-.7.5-.5.1-1.1.2-1.7.3-.6.1-1.1.1-1.7.1H267c-.2 0-.4 0-.6-.1-.3 0-.4-.2-.5-.4v-.6-1.8V150.4v-.4-.4c0-.2.1-.4.1-.6v-1.9-.8-1.5-1.5c-.1-.6-.1-1.2-.2-1.7-.1-.6-.1-1.2-.1-1.8v-2-.8-.8-.4c0-.1 0-.2-.1-.4v-.1c0-.3.1-.5.4-.6.3-.4 1.1-.5 2.3-.6h1.8c.8-.1 1.7-.1 2.5-.1s1.7 0 2.5.1h1.4c1 .1 1.6.2 1.9.3.3.2.4.5.6.9v2.3c0 .4 0 .6-.1.8-.1.4-.3.5-.7.6l-1.8.3c-.6.1-1.2.1-1.8.1H271v2.5c0 .6 0 1.1.1 1.7.1.6.1 1.2.1 1.8 0 .6 0 1.2-.2 1.8V150.8H276.9c.6.1 1 .3 1.2.7v.5c-.1.5-.1 1.1-.1 1.6s-.1 1.1-.1 1.6c-.1.5-.5.8-1.3.7-.9-.1-1.8-.1-2.7-.1H271.1v2.8c0 .2-.1.4-.1.6v1c.8-.1 1.5-.1 2.3-.1.8 0 1.5 0 2.3.1h1.3c.9.1 1.5.2 1.8.4-.2-.3 0-.1.1.4zm-20.9-19.3c-.4-.1-.6-.4-.6-.9 0-.4.1-.7.1-.9v-1-1c0-.4-.1-.6-.1-.6l-.3-.6c-.1-.2-.3-.4-.6-.6-.3-.3-.7-.3-1.3-.3-.6.1-1 .3-1.4.7-.2.2-.3.4-.3.7-.1.3-.1.6-.1.9v.9c0 .3 0 .6.1.7.2 1.2.6 2.3 1.2 3.2.3.4.6.9 1 1.4.3.5.7.9 1 1.4l1.2 1.8c.4.6.8 1.1 1.1 1.4l.9 1.2c1 1.3 1.8 2.6 2.4 4 .6 1.4.9 2.9 1.1 4.5v2.3c-.1 1.9-.9 3.4-2.4 4.7l-.3.3-.3.3c-.5.4-1 .6-1.5.8-.5.2-1.1.3-1.7.3h-1.8c-.6 0-1.2-.1-1.8-.3-.4-.1-.8-.3-1.2-.5-.3-.2-.7-.5-1.1-.8-.3-.3-.6-.6-1-.9-.3-.3-.6-.6-.8-1-.1-.1-.1-.2-.2-.4-.1-.1-.1-.2-.2-.4-.3-.6-.5-1.3-.6-1.9-.2-.7-.2-1.4-.2-2.1v-1.2c0-.4 0-.8.1-1.2 0-.4.1-.7.1-1 0-.3.1-.5.1-.5.2-.5.6-.7 1.2-.7h.5c.9.2 1.7.4 2.6.7.3.1.5.3.6.4.1.1.1.4.1.7-.1.4-.1.8-.1 1.3v1.4c.1.6.1 1.1.2 1.6.1.4.3.8.6 1.2.4.3.8.4 1.4.6.6.1 1.1 0 1.7-.4.4-.3.6-.6.8-1.1.2-.5.3-.9.4-1.4 0-.5 0-1.1-.2-1.7-.2-.6-.4-1.1-.6-1.6-.3-.5-.6-1.1-.9-1.6-.3-.5-.6-1-1-1.5-.3-.4-.6-.9-.9-1.4-.3-.5-.6-1-.8-1.4-.2-.4-.4-.7-.6-1.1-.2-.4-.4-.7-.7-1.1-.4-.6-.8-1.2-1.1-1.7-.3-.5-.5-1-.8-1.5-.1-.2-.1-.3-.2-.5-.1-.1-.2-.3-.3-.4-.6-.9-1-1.8-1.3-2.8-.2-1-.4-2-.5-3-.1-1.3 0-2.5.3-3.6.2-.8.7-1.6 1.4-2.2 1-.8 2.2-1.2 3.5-1.4 1-.2 2.1-.2 3.1 0 1.1.1 2 .5 2.9 1 .5.4.9.7 1.3 1.2.4.4.7.9 1 1.5.2.4.3.8.4 1.2.1.4.2.8.2 1.3v3c0 1.1-.6 1.7-1.8 1.6h-3zm-24.2 5.2c-.1-.1-.2 0-.2.3v1.2c0 .5 0 1 .1 1.5v1.3c.1.6.1 1.3.1 1.9V165c0 .3 0 .6-.1.9-.1.3-.1.6-.2.9-.1.3-.4.5-.8.6-.8.1-1.4.1-2 0-.6 0-1.2-.1-1.8-.3-.1-.1-.2-.1-.3-.1-.1 0-.2-.1-.3-.1-.3-.2-.4-.4-.4-.6v-.7-1.4-1.3-.7-1.7c0-.8.1-1.8.1-2.9v-3.4-3.1c0-.4-.1-1-.1-2 0-.9-.1-1.9-.1-3 0-1-.1-2-.1-2.9v-1.8-2.5-1.6V133v-.9c0-.3.1-.6.1-.9 0-.3.2-.4.5-.6.2-.1.4-.1.7-.2.2-.1.5-.1.7-.1h3.2c.1 0 .4 0 .7.1.2.1.4.3.6.7.1.4.3.8.4 1.3l.3 1.5c.1.5.2 1 .3 1.3.2.7.4 1.5.6 2.2.2.7.4 1.5.6 2.2 0 .2.1.6.3 1.1.1.5.3 1.2.5 1.9s.4 1.5.6 2.4l.6 2.4c.2.8.4 1.4.5 2 .2.6.3 1 .3 1.3.1.3.1.5.2.7.1.2.2.5.3.8.1.1.2.1.2-.2 0-.3.1-.6.1-1.1v-1.6c0-.6 0-1.2-.1-1.8V146v-2.3-1-1.3-1.3-1c0-.6-.1-1.2-.1-1.7s-.1-1.1-.1-1.8v-1.9-1.6-.4-.4c0-.2.1-.4.2-.6.1-.2.4-.3 1-.4.1 0 .3-.1.6-.1s.6-.1.9-.1H244c.4 0 .8.2 1 .5.2.3.3.6.2.9-.1.7-.1 1.5-.2 2.2 0 .7-.1 1.4-.1 2.2v12.3c0 .7 0 1.4-.1 2.1 0 .8-.1 1.5-.1 2.1v12.9c0 .4-.1.7-.1.8-.1.3-.2.4-.5.5-.3.1-.6.2-.9.2H241c-.2 0-.4 0-.6-.1-.2 0-.5-.1-.8-.1-.3-.1-.6-.2-.8-.3-.5-.3-.8-.6-.8-1.1-.1-.9-.2-1.8-.4-2.6s-.4-1.7-.5-2.6c-.3-1.6-.6-3.2-1.1-4.8l-1.2-4.8c-.2-.7-.4-1.4-.6-2 0-.1-.2-.8-.5-1.5zm-20.7-7.6V155.3c0 .6-.1 1.2-.1 1.9v2.9c0 .3-.1.5-.1.7 0 .2 0 .5-.1.7 0 .1 0 .3-.1.4-.1.2-.2.2-.3.2h-.5c-.2 0-.5 0-.8-.1-.3 0-.6-.1-.9-.1-.3 0-.6-.1-.7-.2-.1-.1-.4-.2-.8-.3-.4-.1-.9-.4-1.5-.7-.7-.4-1.3-.8-1.7-1.3-.4-.4-.7-.9-1-1.3-.4-.5-.8-1-1-1.4-.2-.4-.5-1-.7-1.7-.1-.3-.2-.7-.2-1.2-.1-.5-.1-1-.2-1.6-.1-.5-.1-1-.2-1.5 0-.4-.1-.8-.1-.9-.1-.6-.1-1.2 0-1.8l.3-1.8c.1-.3.1-.6.2-.9l.3-.9c.1-.4.3-.8.6-1.3.2-.5.5-1 .8-1.4.3-.4.5-.6.6-.9.2-.2.4-.4.5-.6.2-.2.4-.4.6-.5.2-.2.4-.4.7-.6.5-.4 1.2-.7 1.9-1.1.7-.4 1.4-.7 2.1-.8.6 0 1.2-.1 1.6-.1.4 0 .6 0 .6.2.1.1.2.2.2.4s.1.5.1.7v.7c-.1 0-.1.1-.1.2zm12.7 10c0 .6 0 1.2-.1 1.8l-.3 1.8c-.1.3-.1.6-.2.9l-.3.9c-.1.4-.3.8-.6 1.3-.2.5-.5 1-.8 1.4-.3.4-.5.6-.7.9-.2.2-.4.4-.5.6l-.5.5c-.2.2-.4.4-.7.6-.5.4-1.2.7-1.8 1.1-.7.4-1.4.7-2.1.8-.6.1-1.2.1-1.6.1-.4 0-.6 0-.6-.2-.1-.1-.2-.2-.2-.5 0-.2-.1-.5-.1-.7v-.7-.4-2.2-2.3-2-1.2-1.7-2.3-2.1-1.1-1.1c0-.6.1-1.2.1-1.9s0-1.3.1-1.9v-1c0-.2.1-.5.1-.7 0-.2 0-.5.1-.7v-.4c.1-.2.2-.2.3-.2.2 0 .7 0 1.3.1.7.1 1.2.2 1.6.4.1.1.4.2.8.3.4.1.9.4 1.5.7.7.4 1.3.9 1.7 1.3.4.5.8.9 1.1 1.3.4.5.8 1 1 1.5.2.4.4 1 .7 1.7.1.3.2.7.3 1.2.1.5.2 1 .2 1.6.1.5.1 1 .2 1.5v1zm-27-17.8c.2.3.3.6.6 1.1.2.5.2 1.1.1 1.9-.1.2-.2.4-.2.5l-.3.3c-.1.1-.3.2-.5.3-.2.1-.4.3-.8.5-.3.1-.4.2-.5.3l-.3.3c-.1.1-.2.1-.3.2-.1.1-.2.2-.4.3-.9.6-1.7 1.5-2.4 2.4-.7 1-1.3 2.2-1.9 3.7l-.3.9-.3.9c-.6 2.2-.8 4.3-.5 6.2v.9c0 .3.1.7.3 1.1.1.4.3.9.4 1.4.1.5.3.9.4 1.3.1.4.3.7.4.8.5 1 1 1.9 1.4 2.5.5.7 1.2 1.2 2.1 1.8.6.4 1.1.6 1.4.8.4.1.7.3 1.1.4h.2c.4.1.6.2.6.4.1.1.1.3.1.6 0 .4 0 .9-.1 1.4-.1.5-.2 1-.4 1.5-.4.9-1 1.4-2 1.4h-.6c-1.6-.4-3.4-1.5-5.3-3.4-1.7-1.6-2.9-3.3-3.6-5-.7-1.7-1.2-3.2-1.4-4.5-.2-.8-.3-1.5-.3-2.1 0-.6-.1-1.2-.1-1.6v-.4-1.5c0-.5.1-1 .1-1.5v-.5-.5c0-1 .2-2.2.5-3.5.2-.8.4-1.5.6-2.1.2-.6.5-1.2.7-1.8 1.1-2.3 2.3-4 3.6-5.1l.6-.6c.4-.4.8-.7 1.1-1 .3-.3.7-.5 1-.7.3-.2.7-.4 1.1-.6.4-.2.8-.3 1.3-.5.8-.3 1.4-.3 1.7-.2.4.1.6.3.7.6.3.3.4.3.4.4z"/>
  <path class="st0" d="M335.1 141.7c-.4-.1-.6-.4-.6-.9 0-.4.1-.7.1-.9v-1-1c0-.4-.1-.6-.1-.6l-.3-.6c-.1-.2-.3-.4-.6-.6-.3-.3-.7-.3-1.3-.3-.6.1-1 .3-1.4.7-.2.2-.3.4-.3.7-.1.3-.1.6-.1.9v.9c0 .3 0 .6.1.7.2 1.2.6 2.3 1.2 3.2.3.4.6.9 1 1.4.3.5.7.9 1 1.4l1.2 1.8c.4.6.8 1.1 1.1 1.4l.9 1.2c1 1.3 1.8 2.6 2.4 4 .6 1.4.9 2.9 1.1 4.5v2.3c-.1 1.9-.9 3.4-2.4 4.7l-.3.3-.3.3c-.5.4-1 .6-1.5.8-.5.2-1.1.3-1.7.3h-1.8c-.6 0-1.2-.1-1.8-.3-.4-.1-.8-.3-1.2-.5-.3-.2-.7-.5-1.1-.8-.3-.3-.6-.6-1-.9-.3-.3-.6-.6-.8-1-.1-.1-.1-.2-.2-.4-.1-.1-.1-.2-.2-.4-.3-.6-.5-1.3-.6-1.9-.2-.7-.2-1.4-.2-2.1v-1.2c0-.4 0-.8.1-1.2 0-.4.1-.7.1-1 0-.3.1-.5.1-.5.2-.5.6-.7 1.2-.7h.5c.9.2 1.7.4 2.6.7.3.1.5.3.6.4.1.1.1.4.1.7-.1.4-.1.8-.1 1.3v1.4c.1.6.1 1.1.2 1.6.1.4.3.8.6 1.2.4.3.8.4 1.4.6.6.1 1.1 0 1.7-.4.4-.3.6-.6.8-1.1.2-.5.3-.9.4-1.4 0-.5 0-1.1-.2-1.7-.2-.6-.4-1.1-.6-1.6-.3-.5-.6-1.1-.9-1.6-.3-.5-.6-1-1-1.5-.3-.4-.6-.9-.9-1.4-.3-.5-.6-1-.8-1.4-.2-.4-.4-.7-.6-1.1-.2-.4-.4-.7-.7-1.1-.4-.6-.8-1.2-1.1-1.7-.3-.5-.5-1-.8-1.5-.1-.2-.1-.3-.2-.5-.1-.1-.2-.3-.3-.4-.6-.9-1-1.8-1.3-2.8-.2-1-.4-2-.5-3-.1-1.3 0-2.5.3-3.6.2-.8.7-1.6 1.4-2.2 1-.8 2.2-1.2 3.5-1.4 1-.2 2.1-.2 3.1 0 1.1.1 2 .5 2.9 1 .5.4.9.7 1.3 1.2.4.4.7.9 1 1.5.2.4.3.8.4 1.2.1.4.2.8.2 1.3v3c0 1.1-.6 1.7-1.8 1.6h-3m-24.7-2.4V155.3c0 .6-.1 1.2-.1 1.9v2.9c0 .3-.1.5-.1.7 0 .2 0 .5-.1.7 0 .1 0 .3-.1.4-.1.2-.2.2-.3.2h-.5c-.2 0-.5 0-.8-.1-.3 0-.6-.1-.9-.1-.3 0-.6-.1-.7-.2-.1-.1-.4-.2-.8-.3-.4-.1-.9-.4-1.5-.7-.7-.4-1.3-.8-1.7-1.3-.4-.4-.7-.9-1-1.3-.4-.5-.8-1-1-1.4-.2-.4-.5-1-.7-1.7-.1-.3-.2-.7-.2-1.2-.1-.5-.1-1-.2-1.6-.1-.5-.1-1-.2-1.5 0-.4-.1-.8-.1-.9-.1-.6-.1-1.2 0-1.8l.3-1.8c.1-.3.1-.6.2-.9l.3-.9c.1-.4.3-.8.6-1.3.2-.5.5-1 .8-1.4.3-.4.5-.6.6-.9.2-.2.4-.4.5-.6.2-.2.4-.4.6-.5.2-.2.4-.4.7-.6.5-.4 1.2-.7 1.9-1.1.7-.4 1.4-.7 2.1-.8.6 0 1.2-.1 1.6-.1.4 0 .6 0 .6.2.1.1.2.2.2.4s.1.5.1.7v.7c-.1 0-.1.1-.1.2zm12.7 10c0 .6 0 1.2-.1 1.8l-.3 1.8c-.1.3-.1.6-.2.9l-.3.9c-.1.4-.3.8-.6 1.3-.2.5-.5 1-.8 1.4-.3.4-.5.6-.7.9-.2.2-.4.4-.5.6l-.5.5c-.2.2-.4.4-.7.6-.5.4-1.2.7-1.8 1.1-.7.4-1.4.7-2.1.8-.6.1-1.2.1-1.6.1-.4 0-.6 0-.6-.2-.1-.1-.2-.2-.2-.5 0-.2-.1-.5-.1-.7v-.7-.4-2.2-2.3-2-1.2-1.7-2.3-2.1-1.1-1.1c0-.6.1-1.2.1-1.9s0-1.3.1-1.9v-1c0-.2.1-.5.1-.7 0-.2 0-.5.1-.7v-.4c.1-.2.2-.2.3-.2.2 0 .7 0 1.3.1.7.1 1.2.2 1.6.4.1.1.4.2.8.3.4.1.9.4 1.5.7.7.4 1.3.9 1.7 1.3.4.5.8.9 1.1 1.3.4.5.8 1 1 1.5.2.4.4 1 .7 1.7.1.3.2.7.3 1.2.1.5.2 1 .2 1.6.1.5.1 1 .2 1.5v1z"/>
  <path d="M144.9 144.2c-.1-.4-.2-.7-.4-.9-.2-.2-.4-.4-.7-.5-.6-.2-1.1-.4-1.7-.6-.5-.2-1.1-.4-1.7-.6-.8-.2-1.5-.5-2.2-.8-.7-.3-1.4-.7-2.1-1.2-.4-.3-.9-.6-1.4-.9-.5-.2-1-.4-1.5-.7-.2-.1-.3-.1-.4 0-.1.1-.2.3-.1.5.3 1 .4 2 .4 3.1 0 1 .1 2 .1 3.1 0 1 0 2 .2 3.1.1.6.2 1.3.2 1.9.1.6.1 1.2.1 1.9v3c0 1-.2 2-.4 3-.1.3-.1.6-.1.9 0 .3 0 .6.1.9.1.5.3.8.6.9.3.1.7.1 1.1-.1l.6-.3c.2-.1.4-.3.6-.5 1.2-.9 2.4-1.7 3.5-2.6 1.2-.9 2.3-1.8 3.5-2.6.4-.3.8-.7 1-1.1.3-.4.4-.9.4-1.4.1-1.1.1-2.2.2-3.4 0-1.1.1-2.3.1-3.4 0-.1 0-.2-.1-.3.2-.2.1-.3.1-.4m-16.8-8.5c-.2-1-.4-1.8-.3-2.3 0-.6.2-1.1.4-1.5.5-.8 1.1-1.3 1.7-1.4.7-.1 1.4.1 2 .7.5.4 1 .8 1.6 1.2.6.4 1.1.7 1.7 1 .5.3 1 .5 1.5.8.5.3 1 .6 1.5.8.8.4 1.5.9 2.3 1.3.8.4 1.6.8 2.4 1.1.9.3 1.6.4 1.9.2.3-.2.4-.8.2-1.6v-.8c0-.2.1-.5.1-.8 0-.2.1-.5.2-.7.1-.2.3-.4.5-.5.7-.6 1.4-.9 1.9-.8.6 0 1.2.4 1.7 1.1.6.7 1.3 1.3 2.1 1.9.7.5 1.5 1.1 2.3 1.6 1.5 1 3 2.1 4.5 3.2s3.1 2.1 4.7 2.9c.4.2.9.5 1.3.7.4.3.9.5 1.4.7.9.3 1.7.7 2.6 1 .9.4 1.7.8 2.5 1.2.7.4 1.1.8 1.2 1.4.2.6.2 1.2-.1 2-.2.5-.5.9-.8 1.2-.3.3-.7.6-1.1.8-.4.2-.7.3-1.1.6-.4.2-.7.4-1 .6-1.6 1-3.1 2.1-4.6 3.1-1.5 1.1-3 2.1-4.5 3.2-.9.6-1.8 1.2-2.7 1.9-.9.6-1.7 1.3-2.5 2-.6.6-1.3 1.2-2 1.8-.7.6-1.3 1.2-1.9 1.8-.6.5-1.2.8-1.9.8s-1.3-.2-1.9-.7c-.6-.4-.9-1-1.1-1.8-.1-.3-.1-.7-.1-1 0-.4.1-.7.1-1 .1-.6.2-1.1.1-1.6 0-.5-.1-1-.2-1.6-.1-.5-.2-.8-.4-1-.2-.1-.5 0-.8.3-1.1 1-2.3 1.9-3.5 2.7-1.2.9-2.4 1.7-3.5 2.6-.9.7-1.8 1.3-2.7 1.9-.9.6-1.9 1.1-2.8 1.7l-.6.3c-.2.1-.4.2-.5.2-.4.1-.8.1-1.1 0-.3-.1-.7-.3-.9-.6-.1-.2-.2-.3-.4-.5l-.3-.6c-.2-.6-.3-1.2-.2-1.8.1-.6.3-1.2.7-1.7.2-.4.4-.9.5-1.6.2-.7.3-1.5.4-2.3.1-.8.2-1.5.2-2.2.1-.7.1-1.1.1-1.4.1-1.3.2-2.6.2-3.9 0-1.3 0-2.6-.1-3.9-.1-.6-.1-1.1-.2-1.7 0-.6-.1-1.2-.1-1.8.1-1.1.1-2.2 0-3.3-.1-1.1-.2-2.2-.3-3.2 0-.5 0-1-.1-1.4-.2-.7-.2-1-.2-1.3z" fill-rule="evenodd" clip-rule="evenodd" fill="#fff"/>
  <path class="st2" d="M57.4 119c0-.3 0-.6-.1-1s-.2-.7-.3-1.1c-.1-.4-.3-.7-.4-.9-.3-.5-.6-.8-1-.9-.4-.1-.8-.1-1.4.1-.3.1-.5.3-.7.4-.2.1-.5.3-.7.4-1.5 1-3 1.9-4.5 2.9s-3 1.9-4.5 2.9c-.4.3-.8.5-1.1.8-.4.3-.8.5-1.1.7-1.1.6-2.1 1.2-3.1 1.8-1 .6-2 1.3-3 2l-.9.6c-.3.2-.6.3-.9.5-1.1.6-2.1 1.1-3.1 1.7-1 .6-2.1 1.1-3.1 1.7l-2.7 1.5-2.7 1.5c-.6.3-1.2.7-1.8 1.1-.6.4-1.2.7-1.8 1-.6.3-1.3.6-1.9.8-.5.2-.8.5-.9.9-.1.5-.1.9.2 1.5.2.4.4.8.7 1.1.3.3.6.6 1 .8.3.2.6.3.9.4.3.1.7 0 1-.2 1-.6 1.9-1.1 2.9-1.7 1-.6 1.9-1.2 2.9-1.8.4-.3.9-.6 1.4-.9.5-.3.9-.5 1.4-.7.5-.3 1.1-.5 1.6-.8.5-.3 1-.6 1.4-1 .9-.7 1.9-1.3 2.9-1.8 1-.6 2-1.1 3.1-1.5.9-.4 1.8-.8 2.7-1.3.9-.4 1.7-.9 2.6-1.4.8-.5 1.6-1 2.5-1.5.8-.5 1.6-.9 2.5-1.4.4-.2.8-.4 1.5-.8.6-.4 1.3-.8 2-1.3s1.5-.9 2.2-1.4c.7-.4 1.4-.8 1.9-1.2l1.2-.6c.2-.1.4-.2.5-.3.1-.1.3-.2.5-.3.3-.2.4-.4.5-.6-.4-.2-.3-.4-.3-.7"/>
  <path class="st2" d="M432.4 124.8c0-.3 0-.7.1-1.2.1-.4.2-.9.3-1.3.1-.4.3-.8.5-1.1.3-.6.7-.9 1.2-1.1.5-.1 1-.1 1.6.2.3.1.6.3.9.5.3.1.6.3.9.5 1.7 1.1 3.5 2.2 5.2 3.4 1.7 1.1 3.5 2.3 5.2 3.4.4.3.9.6 1.3.9.4.3.9.6 1.3.8 1.2.7 2.5 1.4 3.7 2.1 1.2.7 2.4 1.5 3.5 2.3.3.3.7.5 1.1.7.4.2.7.4 1.1.6 1.2.7 2.4 1.3 3.6 2 1.2.6 2.4 1.3 3.6 2 1.1.6 2.1 1.1 3.2 1.7 1.1.6 2.1 1.2 3.2 1.8.7.4 1.4.8 2.1 1.3l2.1 1.2c.7.4 1.5.7 2.3 1 .6.2 1 .6 1.1 1.1.1.5.1 1.1-.2 1.7-.2.5-.5.9-.9 1.2-.3.4-.7.7-1.1.9-.3.2-.7.4-1.1.5-.4.1-.8 0-1.2-.2-1.1-.7-2.2-1.3-3.4-2-1.1-.7-2.3-1.4-3.4-2.1-.5-.4-1-.7-1.6-1.1-.5-.3-1.1-.6-1.7-.9-.6-.3-1.2-.6-1.8-1-.6-.3-1.1-.7-1.7-1.2-1.1-.8-2.2-1.5-3.3-2.1-1.2-.6-2.3-1.2-3.6-1.8-1-.5-2.1-1-3.1-1.5s-2-1-3-1.6c-1-.6-1.9-1.2-2.9-1.8-1-.6-1.9-1.1-2.9-1.6-.4-.2-1-.5-1.7-1-.7-.4-1.5-.9-2.4-1.5-.9-.5-1.7-1.1-2.5-1.6s-1.6-1-2.2-1.4c-.6-.4-1.1-.6-1.4-.7l-.6-.3c-.2-.1-.3-.2-.5-.4-.3-.2-.5-.4-.6-.7-.3 0-.3-.3-.3-.6"/>
  <path class="st2" d="M46.5 30.5c0 .3 0 .7-.1 1.1l-.3 1.2c-.1.4-.3.7-.5 1-.3.5-.7.9-1.1 1-.4.1-.9.1-1.5-.2-.3-.1-.6-.3-.8-.4-.3-.1-.5-.3-.8-.5-1.7-1.1-3.3-2.1-5-3.2-1.7-1.1-3.3-2.1-5-3.2-.4-.3-.8-.6-1.3-.8-.4-.3-.8-.5-1.3-.8-1.2-.7-2.3-1.3-3.5-2-1.1-.7-2.2-1.4-3.3-2.2-.3-.2-.6-.5-1-.6-.3-.2-.7-.4-1-.6-1.2-.6-2.3-1.3-3.4-1.9-1.1-.6-2.3-1.2-3.4-1.9-1-.5-2-1.1-3-1.6-1-.6-2-1.1-3-1.7-.7-.4-1.3-.8-2-1.2-.7-.4-1.3-.8-2-1.1-.7-.4-1.4-.7-2.1-.9-.6-.2-.9-.5-1-1C0 8.5 0 8 .3 7.4c.2-.5.5-.8.8-1.2.3-.3.7-.6 1.1-.9.3-.2.7-.4 1-.5.4-.1.8 0 1.1.2 1.1.6 2.1 1.3 3.2 1.9 1.1.6 2.1 1.3 3.2 2 .5.4 1 .7 1.5 1 .5.3 1 .6 1.6.8.6.3 1.2.6 1.7.9.6.3 1.1.7 1.6 1.1 1 .7 2.1 1.4 3.2 2 1.1.6 2.2 1.2 3.4 1.7 1 .5 2 .9 2.9 1.4 1 .5 1.9 1 2.8 1.5.9.6 1.8 1.1 2.7 1.7.9.5 1.8 1 2.8 1.5.4.2.9.5 1.6.9.7.4 1.4.9 2.3 1.4l2.4 1.5c.8.5 1.5.9 2.1 1.3.6.4 1.1.6 1.3.7l.6.3c.2.1.3.2.5.3.3.2.5.4.6.7.1.3.2.6.2.9"/>
  <path class="st2" d="M35.1 82.1h-5c-1.6-.1-3.2-.1-4.7-.2s-3-.1-4.6-.2c-1.5-.1-3-.1-4.6 0H13c-1.1 0-2.1 0-3.1-.1-.3 0-.6-.1-.7-.3-.2-.2-.2-.4-.1-.7.2-.8.4-1.7.6-2.5.2-.8.4-1.7.7-2.5.1-.3.2-.4.4-.5.2-.1.4-.1.7-.1.4.1.9.1 1.4.2.5.1.9.2 1.4.3 1.3.4 2.7.8 4 1.2 1.4.4 2.7.8 4 1.3.2.1.4.2.7.2.2.1.5.1.7.2 1.9.5 3.7 1.1 5.6 1.8 1.9.5 3.8 1.2 5.8 1.9M17 84.9h1.8c.7 0 1.5.1 2.4.1.9 0 1.7.1 2.5.1s1.5.1 2.1.1h5.4c1.4 0 2.8.1 4.2.2.9.1 1.8.1 2.6.1.9 0 1.8 0 2.6.1.9 0 1.7.1 2.6.2.4 0 .8.1 1.1 0 .4 0 .7-.1 1.1-.1.4-.1.8-.3 1-.5.2-.3.4-.6.5-1 .1-.3.1-.7-.1-.9-.1-.3-.3-.5-.6-.8-.3-.2-.6-.4-.9-.5-.3-.1-.6-.2-1-.3-1-.2-2.1-.5-3.1-.8-1-.3-2-.6-3-1-1.8-.7-3.6-1.4-5.4-2-1.8-.7-3.6-1.3-5.5-1.8l-3.6-1.2-3.6-1.2c-.4-.2-.9-.3-1.3-.5s-.9-.3-1.3-.5c-1.2-.3-2.3-.7-3.5-1.1-1.2-.4-2.3-.8-3.4-1.2-.2-.1-.4-.2-.7-.2-.2-.1-.5-.1-.7-.2-.4-.1-.8-.1-1.1.1-.3.1-.5.3-.7.6-.2.3-.3.6-.3.9 0 .3-.1.7-.1 1v1c-.1 1.3-.2 2.6-.4 3.8-.2 1.3-.6 2.5-1.1 3.7-.1.3-.3.7-.3 1.1-.1.4-.1.7-.1 1.1 0 .7.2 1.2.5 1.5.4.3.9.3 1.5.2.5-.1 1.1-.2 1.6-.3.5-.1 1.1-.1 1.7 0h3.2c1.2.2 2.3.2 3.4.2z"/>
  <path class="st2" d="M445.3 64.6h5.2c1.7-.1 3.3-.1 5-.2 1.6-.1 3.2-.2 4.8-.2 1.6-.1 3.2-.1 4.8 0h3.3c1.1 0 2.2-.1 3.3-.1.4 0 .6-.1.8-.3.2-.2.2-.4.1-.8-.2-.9-.4-1.7-.7-2.6-.2-.9-.5-1.8-.7-2.7-.1-.3-.2-.5-.4-.6-.2-.1-.4-.1-.7-.1-.5.1-1 .1-1.5.2s-1 .2-1.4.3c-1.4.4-2.8.9-4.3 1.2-1.4.4-2.8.9-4.2 1.4-.2.1-.5.2-.7.2-.3.1-.5.1-.8.2-2 .5-4 1.2-5.9 1.9-1.9.8-3.9 1.5-6 2.2m19.1 3h-1.9c-.8 0-1.6.1-2.5.1-.9 0-1.8.1-2.6.1s-1.6.1-2.2.1h-5.7c-1.5 0-2.9.1-4.4.2-.9.1-1.9.1-2.8.1-.9 0-1.9 0-2.8.1-.9 0-1.8.1-2.7.2-.4.1-.8.1-1.2 0-.4 0-.8-.1-1.2-.1-.4-.1-.8-.3-1-.6-.2-.3-.4-.6-.5-1-.1-.4-.1-.7.1-1 .1-.3.3-.6.6-.8.3-.2.6-.4.9-.5.3-.1.7-.2 1-.3 1.1-.2 2.2-.5 3.3-.8 1.1-.3 2.1-.6 3.2-1l5.7-2.1c1.9-.7 3.8-1.3 5.8-1.9 1.3-.4 2.5-.8 3.8-1.2 1.3-.4 2.5-.8 3.8-1.2.5-.2.9-.3 1.4-.5.5-.2.9-.4 1.4-.5 1.2-.3 2.5-.7 3.7-1.1 1.2-.4 2.5-.8 3.6-1.3.2-.1.5-.2.7-.2.3-.1.5-.1.8-.2.4-.1.8-.1 1.1.1.3.1.6.4.7.7.2.3.3.6.3 1 0 .3.1.7.1 1.1v1.1c.1 1.4.2 2.7.4 4 .2 1.3.6 2.6 1.2 3.9.1.4.3.7.3 1.1.1.4.1.8.1 1.2 0 .7-.2 1.2-.6 1.5-.4.3-.9.4-1.6.2-.6-.1-1.1-.2-1.7-.3-.6-.1-1.2-.1-1.7 0h-3.4c-1.3-.2-2.4-.2-3.5-.2z"/>
  <path d="M383.9 30.2c-2-.3-3-1.4-3-3.4-.1-1-.2-2-.2-2.9 0-.9-.1-1.9-.1-2.9 0-2 .3-3.4.9-4 .6-.6 1.9-1.1 3.9-1.2h1.8c.6 0 1.1 0 1.7-.1 1.6-.3 3.1-.4 4.8-.5 1.6 0 3.2 0 4.8.2.5.1.9.1 1.2.1.4 0 .8 0 1.2.1 1.8.1 3 .4 3.5 1s.9 1.5 1.2 2.8c0 .2 0 .4.1.6 0 .2.1.5.1.8V26c-.1.4-.1.7-.1 1.1 0 .4 0 .8-.1 1.2-.2.8-.6 1.4-1.4 1.7-1.1.4-2.2.6-3.4.8-1.1.2-2.3.2-3.4.1-1.2-.1-2.3-.1-3.4-.1s-2.3 0-3.6-.2h-4.8c-.8-.1-1.3-.2-1.7-.4m16.5 29.5c1.3.3 2.1 1 2.3 2.2.1.4.1.9.1 1.5-.1 1.6-.2 3.1-.2 4.8 0 1.6-.2 3.2-.3 4.8-.3 1.7-1.1 2.5-2.6 2.2-1.8-.2-3.7-.3-5.5-.4-1.8-.1-3.7-.1-5.5-.1-.8 0-1.7-.1-2.5-.2s-1.7-.3-2.5-.5c-1.3 0-2-.7-2.2-2.2-.2-1.2-.3-2.4-.4-3.6l-.3-3.6v-1.2c.3-1.7 1.1-2.7 2.6-3 .9-.3 1.8-.5 2.8-.7.9-.2 1.8-.2 2.8 0 1 .1 2 .1 3.1.1H400.4zm5.1 47.9c0 .3 0 .5.1.8 0 .2.1.5.1.8v5.2c-.1.4-.1.7-.1 1.1 0 .4 0 .7-.1 1.1-.2 1-.6 1.6-1.4 1.7-1.1.4-2.2.7-3.4.9-1.1.2-2.3.3-3.4.2-1.2-.1-2.3-.1-3.4-.1s-2.3 0-3.6-.2h-4.8c-.6 0-1.1-.1-1.5-.3-2-.4-3-1.5-3-3.4-.1-1-.2-2-.2-3s-.1-2-.1-3c0-1.9.3-3.2.9-3.9.6-.6 1.9-1.1 3.9-1.2h1.8c.6 0 1.1-.1 1.7-.3 2.9-.4 6.1-.4 9.5-.1h2.5c1.8.2 3 .5 3.5 1 .3.5.7 1.4 1 2.7zm-26.4-62.7c.2 2.1.3 4.2.3 6.3 0 2.1-.1 4.2-.3 6.3-.1.4-.1.7-.1 1.1v9.2c.1 1.6.2 3.6.3 6.3.1 2.6.1 4.9.1 7-.2 1.3-.3 2.5-.3 3.8 0 1.2 0 2.2-.1 3 0 1.6 0 3.1-.1 4.5 0 1.5-.1 2.9-.2 4.4 0 .7 0 1.5-.1 2.3 0 .8-.1 1.5-.1 2.3-.1 2.3-.1 4.5-.1 6.7s.1 4.5.1 6.7c0 1 0 1.7-.1 2.2 0 1-.5 1.7-1.4 1.9-.9.2-1.6.3-1.9.4l-5.4.4c-.6 0-1.3 0-1.9-.1-.6 0-1.2-.1-1.7-.2-.9-.1-1.4-.6-1.4-1.7-.1-.3-.1-.6-.1-.9 0-.3.1-.7.1-1V69.1c0-.5 0-.9.1-1.4 0-.5.1-1 .2-1.4 0-.7 0-1.4.1-2.1 0-.6.1-1.3.1-2.1 0-.6 0-1.2.1-2.1 0-.8.1-1.6.1-2.3v-2.6-5.2c0-1.7-.1-3.5-.3-5.2l-.6-6c-.2-2-.3-4-.3-6-.1-2.5-.1-5-.1-7.4 0-2.5-.2-5-.6-7.4v-.6c-.1-1.4.5-2.1 1.8-2.2 1.4-.3 2.7-.4 4-.4 1.3-.2 2.5-.2 3.6 0s2.4.4 3.6.6c.9.1 1.4.7 1.4 1.8l.4 7c0 .8 0 1.6.1 2.4 0 .8.1 1.6.2 2.4.2.7.3 1.5.3 2.2v2.2c-.1 1.9-.1 3.9-.1 5.8 0 2 .1 3.9.3 5.8zm-22.9-26.5c.4 2.9-.1 5.8-1.5 8.7-.1.3-.2.5-.3.8-.1.2-.3.4-.5.6-.7.7-1.4 1.2-2.1 1.3-.6.1-2 .2-4 .2-1.4 0-2.8 0-4.2-.1-1.4 0-2.9-.1-4.3-.1 0 .4 0 .6-.1.8v7.2c0 2.2-.1 4.4-.3 6.5-.1.5 0 1.1.1 1.9.2 2.3.3 4.6.2 6.8 0 2.2-.1 4.5-.2 6.7-.1 1.6-.2 3.1-.3 4.8-.1 1.6-.1 3.2-.1 4.8-.1 3.1-.1 6.2-.1 9.3 0 3.1.2 6.2.3 9.4.2 2.9.3 5.8.2 8.7 0 2.8-.2 5.7-.3 8.7-.1 1.7-.1 3.3-.1 5 0 1.7 0 3.4-.1 5v1.2c0 .4 0 .8-.1 1.2 0 .8-.5 1.4-1.5 1.7-3.9.7-7.8.7-11.7-.1-.9-.2-1.4-.8-1.5-1.9-.3-3-.5-6.1-.6-9.1-.1-3-.1-6.1 0-9.2v-4.1c0-1.4-.1-2.8-.3-4.1-.2-1.8-.3-3.7-.3-5.6 0-1.9-.2-3.8-.3-5.7-.2-1.7-.3-3.2-.3-4.6 0-1.4 0-3.2.1-5.3.2-1.3.3-2.5.2-3.7 0-1.2-.1-2.4-.1-3.7v-3.1c0-.9.1-2.1.3-3.8.1-.5.1-.9.1-1.4v-1.4c-.1-1.7-.1-3.4-.1-5.1 0-1.7 0-3.4-.2-5.1-.2-2.5-.2-5 0-7.4.1-1 .1-2 .1-2.9 0-.9-.1-1.9-.1-2.9h-2.8c-.9 0-1.8 0-2.8.1-2.7 0-5.3-.1-7.9-.4-1.6-.2-2.6-.4-3-.7-.5-.3-.7-.8-.7-1.5 0-.4 0-1 .1-1.8s.2-1.7.2-2.7c0-1 .1-1.9.2-2.8.1-.9.1-1.5.1-2 0-.4.2-.7.6-1.1.9-1.1 2.6-1.7 5-1.7 2.5.1 4.9.1 7.4 0 2.4-.1 4.9-.1 7.4 0 2.9.2 5.9.2 9 .1 3-.1 6.1 0 9.1.1l3.9.3c1.3.1 2.6.2 3.9.4 1.6.3 2.6.6 3.2 1 .7.5 1 1 1.1 1.8zm-57.7 98.2c0 .2 0 .4.1.6 0 .2.1.4.1.6 0 .8-.5 1.3-1.5 1.5l-3.3.6c-1.1.2-2.2.2-3.2 0-1 0-2 0-2.8-.1-.9 0-1.7-.2-2.5-.3-1.9-.5-2.9-1.4-3-2.8-.5-2.6-1-5.1-1.5-7.6-.6-2.5-1-5-1.4-7.6-.2-1.6-.5-3.1-.8-4.5l-1.2-4.5c-.2-.9-.4-1.8-.6-2.8-.2-.9-.4-1.8-.6-2.8-2.4-.2-4.9-.2-7.5 0-2.6.2-5 .4-7.1.6-.2 1-.3 2.1-.5 3.4-.1 1.2-.3 2.7-.5 4.3-.6 3.4-1.1 6.6-1.4 9.5-.3 2.9-.6 5.5-1 7.7-.3 2.2-.7 4-1.1 5.3-.4 1.3-1 2-1.9 2.1-1.1.3-2.1.4-2.9.3-.8 0-1.6-.1-2.3-.3-.7-.1-1.5-.3-2.3-.5-.8-.2-1.7-.3-2.8-.4-.4 0-.7 0-1-.1-.3-.1-.6-.2-.8-.3-.9-.3-1.4-.8-1.4-1.7v-1.2c0-.4 0-.8.1-1.2.4-2.1.7-4.3 1-6.5.3-2.2.7-4.4 1-6.5.2-1 .3-2 .4-3.1.1-1.1.2-2.1.4-3.2.5-4 .8-8 1-12 .2-3.9.7-7.9 1.4-12 .2-1.3.3-2.6.4-3.9l.3-3.9c.3-2.7.5-5.3.7-8.1.2-2.7.5-5.4 1-8.1.2-1.1.3-2.2.5-3.3.1-1.1.2-2.2.2-3.4.2-3.5.6-6.9 1.1-10.3.6-3.4 1.1-6.8 1.7-10.3 0-.5 0-.8.1-1.1.2-.9.6-1.5 1.1-1.7.6-.2 1.3-.5 2.3-.8.9-.4 2.1-.7 3.6-1 1.5-.3 3.1-.5 4.9-.6 1.8-.1 3.7-.2 5.7-.1 2 0 4 .3 5.9.6.7.3 1.4 1.3 2.1 3 .7 1.7 1.3 3.7 1.9 6 .6 2.3 1.1 4.6 1.5 7 .4 2.4.7 4.4.9 6.1.3 1.8.5 3.4.8 4.7.2 1.3.4 2.4.6 3.4.1 1 .3 2 .5 3s.4 2 .7 3.2c.5 1.9.9 4.1 1.2 6.5.4 2.4.7 4.3 1 5.6.5 1.7.9 3.4 1.2 5.1.4 1.7.7 3.4 1 5.1.2 1.6.5 3.1.9 4.5.4 1.5.8 3 1.3 4.5.4 1.5.8 3.3 1.2 5.5.4 2.2.8 4.4 1.2 6.5.4 2.1.8 3.9 1.1 5.5.3 1.6.5 2.5.5 2.8.5 2.2.9 4.4 1.3 6.7.4 2.2.7 4.5 1 6.8zM194 78.8c0-1 0-2.4-.1-4.3 0-1.8-.1-3.8-.1-5.9 0-2.1 0-4.3-.1-6.5 0-2.2-.1-4.2-.1-6.1v-4.8c0-1.3 0-2.1.1-2.3.1-.6.2-2.2.3-4.8.1-2.7.2-5.5.3-8.6.1-3.1.2-5.9.3-8.5.1-2.6.1-4.1.1-4.5l.3-3 .3-3c0-.6.1-1.1.3-1.7.1-.6.5-.9 1.2-1.1.4 0 1 0 1.9.1.9 0 1.8.1 2.9.3 1.1.1 2.1.3 3.2.6s2 .6 2.7 1c.5.2 1.4.6 2.8 1.3 1.4.7 3.2 1.8 5.5 3.2 2.6 1.7 4.6 3.6 6 5.4 1.4 1.9 2.7 3.7 3.9 5.4.8 1.2 1.5 2.3 2.1 3.2.6 1 1.1 2 1.5 3 .5 1 .9 2.1 1.2 3.3.4 1.2.8 2.5 1.2 4 .4 1.1.7 2.7 1 4.9.3 2.2.5 4.4.8 6.6.2 2.2.4 4.3.6 6.2.1 1.9.2 3.1.2 3.8.2 2.5.1 5-.1 7.4-.3 2.5-.6 5-1.1 7.4-.2 1.3-.4 2.6-.8 3.9-.3 1.3-.7 2.6-1 3.9-.5 1.6-1.1 3.4-1.9 5.4-.8 2-1.8 4-3 6.1-.9 1.5-1.7 2.7-2.3 3.7-.6 1-1.3 1.9-1.9 2.6-.6.7-1.3 1.4-2 2.1-.7.7-1.5 1.5-2.5 2.4-1.9 1.5-4.2 3.1-6.7 4.8-2.5 1.7-5 2.8-7.5 3.3-2 .5-3.9.7-5.6.6-1.7 0-2.5-.3-2.5-.9-.3-.8-.5-2-.6-3.6-.1-1.6-.3-3.1-.3-4.8-.1-1.6-.1-3-.1-4.3v-2c-.2-5.6-.2-10.7-.1-15.4-.4-4.5-.3-7.8-.3-9.8zm-13.4-55.3c1.2.8 2.1 2.1 2.8 3.9.6 1.7.8 3.6.4 5.5-.2 1.5-.6 2.6-1.1 3.4-.6.8-1.6 1.6-3 2.3-.5.3-1.2.5-2.2.7-1 .2-1.7.3-2.2.3-1.9.1-3.7-.5-5.4-1.9-1.7-1.3-2.7-2.9-3-4.8-.5-3.4.6-6.1 3-8.1 2.8-2.3 6.2-2.9 10.1-1.8.2.1.3.2.3.2 0 .1.1.2.3.3zm-.3 20.2c1.7.1 2.4.8 2.3 2.2V79c0 .7 0 1.6-.1 2.7 0 1.1-.1 2.1-.2 3-.1 1-.1 1.8-.1 2.5v1.1c-.2 3.2-.3 6.1-.3 8.5 0 2.5 0 5.3.2 8.5.2 1.1.4 2 .6 2.8.2.8.1 1.6-.3 2.2-.3.8-.9 1.3-1.9 1.4-3.9.6-7.9.6-11.8 0-1.1-.2-1.7-.7-1.7-1.5-.3-.8-.4-1.7-.5-2.8 0-1 0-2 .1-3 .2-2.6.3-5.1.4-7.6.1-2.5.2-5 .4-7.6.1-1.1.1-2.2.1-3.3 0-1.1.1-2.2.3-3.4.1-1.6.1-3.1.1-4.7s-.1-3.1-.1-4.7c0-.8 0-2.2-.1-4.1 0-1.9-.1-4-.1-6.2s0-4.3.1-6.3c0-2 .1-3.4.2-4.3 0-.7 0-1.5-.1-2.3 0-.8 0-1.6.1-2.3 0-.5 0-.9.1-1.2 0-.4.1-.8.2-1.2.1-.7.6-1.2 1.7-1.4.3-.1.6-.1.8-.1.3 0 .6 0 .8-.1 1.6-.1 3.1-.1 4.5-.1 1.4-.1 2.9 0 4.3.2zm-23.1 16.1c.2 2.3.2 4.6.1 6.8s-.2 4.5-.3 6.8c0 1 0 2-.1 3 0 1-.1 2-.1 3 0 1.8-.1 3.6-.3 5.3-.2 1.7-.5 3.5-.9 5.3-.4 1.6-.7 3.2-1 4.8-.3 1.7-.7 3.3-1.2 5-.8 3.1-2.5 5.9-5.1 8.3-1.3 1.2-2.9 2.2-4.8 3-1.9.8-3.9 1.3-6.1 1.4-2.2.2-4.4 0-6.7-.4-2.2-.5-4.4-1.3-6.4-2.5-1.5-.8-2.9-2-4.3-3.6-1.9-2.1-3.4-4.4-4.4-6.7-1-2.4-1.7-4.8-2.1-7.3-.2-1.5-.3-2.9-.3-4.3s-.2-2.9-.3-4.3c-.2-1.5-.3-3.6-.5-6.4-.1-2.8-.3-5.6-.3-8.5-.1-2.8-.1-5.5-.1-7.8v-4.8c0-.9 0-2.3-.1-4.2 0-1.9-.1-3.8-.1-5.9v-5.6c0-1.7.1-3 .3-3.7.1-.3.1-1 .1-2.1v-3.6-3.9-3.1c0-.6 0-1.1.1-1.4.1-.8.7-1.2 1.9-1.2.1 0 1.3 0 3.6.1 2.3 0 4.9.2 7.8.3 1.4.2 2.3.4 2.7.8.4.3.6 1.2.6 2.7 0 1.4 0 2.7-.1 3.9 0 1.2-.1 1.9-.1 2.2-.1.6-.2 1.6-.2 3.1s-.1 3.1-.1 4.9v8.6c0 .6 0 2-.1 4 0 2-.1 4.2-.1 6.7v12.7c.1 1.2.1 2.4.1 3.6 0 1.2 0 2.4.1 3.7.2 4.5.8 8.4 1.8 11.8.3 1.2.7 2.2 1.2 3 1.1 2 2.4 2.8 3.8 2.2 1.4-.6 2.5-1.9 3.4-4 .4-1.1.7-2.2.9-3.4.2-1.2.4-2.4.6-3.7.2-1.4.3-2.8.4-4.2.1-1.4.2-2.8.4-4.2.2-1.6.3-3.1.3-4.5 0-1.5.1-3 .2-4.5v-5c.1-1.7.2-3.5.2-5.2 0-1.7.1-3.4.1-5.2v-5c0-1.7 0-3.3.1-5V31c0-.7 0-1.4-.1-2.1 0-.6 0-1.3.1-2.1v-3.4c0-1 .5-1.5 1.5-1.5 2.4.1 4.5.2 6.3.2 1.8 0 2.9.1 3.2.1 1.7.1 2.7.8 2.8 2.2.1 1 .2 2.1.3 3.2.1 1.1.1 2.2.1 3.3 0 .9 0 2 .1 3.2 0 1.2.1 2.3.2 3.2.2 2 .3 4 .5 5.9.1 1.9.2 3.9.1 5.9-.1 1.8-.2 3.6-.2 5.3.2 1.8.3 3.6.5 5.4zm-54-35.1c.5.6 1 1.4 1.6 2.5.6 1.1.7 2.7.3 4.8v.1c-.5 1-.9 1.7-1.4 2-.5.3-1.6.9-3.4 1.9-.7.3-1.3.5-1.6.7-.3.2-.7.4-1 .6-.2.2-.4.4-.8.6-.3.2-.7.4-1.2.7-2.7 1.6-5 3.5-7 5.9-2 2.4-3.8 5.4-5.4 9-.5.7-.8 1.5-1.1 2.2-.3.7-.5 1.5-.7 2.2-1.8 5.3-2.3 10.3-1.5 14.9.1.4.1.8.1 1.4.1.2.1.5.1 1 .1.7.3 1.7.8 2.8.4 1.1.8 2.2 1.2 3.4.4 1.1.8 2.2 1.2 3.2.4 1 .8 1.7 1 2.1 1.4 2.5 3.3 4.7 5.8 6.6 2.5 1.9 5.3 3.4 8.5 4.3 2.4.6 4.1 1.3 5.2 2.1 1.1.9 1.5 2.2 1.2 3.9-.2 1-.4 1.9-.8 2.7-.3.8-.8 1.8-1.4 3-1.1 2.3-3 3.4-5.6 3.4-.7 0-1.3 0-1.8-.1-2.3-.5-4.8-1.4-7.4-2.8-2.6-1.4-5.3-3.2-7.9-5.4-4.9-3.9-8.3-8-10.4-12.1-2.1-4.1-3.4-7.8-3.9-10.9-.5-1.8-.7-3.5-.8-5.1-.1-1.6-.2-2.9-.3-4v-1c0-1.2 0-2.4.1-3.6 0-1.2.1-2.4.2-3.6.1-.5.1-.8.1-1.2v-1.2c.2-1.4.4-2.7.6-4.1.2-1.3.5-2.8 1-4.3 1.1-3.8 2.4-6.8 3.9-9.2 3.5-6 6.9-10.1 10.2-12.5l1.8-1.2c1.3-.9 2.4-1.7 3.4-2.5 1-.7 1.9-1.4 2.9-1.9s2-.9 3-1.3c1.1-.4 2.3-.7 3.8-1.1 2.2-.6 3.8-.8 4.8-.5 1 .3 1.7.8 2.2 1.3.1-.3.2-.1.4.3z" fill="#fff"/>
  <path d="M274.2 67.8c0-.4-.2-.9-.5-1.7-.3-.7-.7-1.5-1.3-2.4-.5-.9-1.1-1.8-1.6-2.7-.6-.9-1.2-1.8-1.7-2.6-.6-.8-1-1.6-1.4-2.2-.4-.6-.7-1.1-.8-1.3-.1-.1-.2-.2-.2-.3-.1-.1-.1-.2-.2-.3-.4-.4-.8-.6-1.3-.7-.4-.1-.9 0-1.4.1-.4.1-.7.3-.8.7-.1.3-.2.7-.2 1.1-.1 1.5-.2 3.1-.4 4.6-.2 1.5-.5 3-.7 4.5l-.3 1.8-.3 1.8c-.1.6 0 1.2.3 1.6.3.4.7.6 1.3.6h.5c.2 0 .3-.1.5-.1.4-.2.9-.3 1.4-.4.5-.1 1-.1 1.5-.1h5.2c.3 0 .7-.1 1-.2.5-.2.8-.4 1.1-.7 0-.3.2-.7.3-1.1M277 74c-1.2-.3-2.4-.4-3.6-.4h-3.6c-.7 0-1.4-.1-2.2-.1-.7-.1-1.4-.1-2.1-.2-1-.1-2-.2-3-.2h-4.4c-.3 0-.5-.1-.6-.2-.1-.1-.2-.3-.2-.6v-.8c0-.3.1-.6.2-.8.3-1.3.6-2.5.9-3.8.3-1.3.6-2.5.9-3.8.2-.7.4-1.4.5-2.2.2-.7.3-1.5.5-2.2.3-1.4.7-2.7 1.1-4 .4-1.3.9-2.6 1.4-3.9.2-.5.4-1 .7-1.5.3-.5.5-1 .8-1.5.2-.4.5-.6.8-.5.3 0 .5.2.8.6.4.7.9 1.4 1.3 2.1.4.7.8 1.4 1.3 2.1.6 1 1.3 2 1.9 3.1.6 1 1.2 2 1.9 3.1l1.8 3c.6 1 1.1 2 1.5 3.1.3.7.7 1.4 1 2 .3.7.7 1.3 1.1 2 .2.4.4.8.6 1.3.2.4.4.8.5 1.2.1.4.3.8.4 1.2.1.4.3.8.4 1.2 0 .1 0 .3-.1.4-.1.1-.1.2-.3.2l-.9.3c-.6-.2-1-.2-1.3-.2zm2.5-8.8c-.3-.8-.7-1.5-1.2-2.3-.4-.7-.8-1.5-1.2-2.2-.3-.6-.5-1.1-.8-1.7-.3-.6-.6-1.1-.9-1.7-.5-1-1-1.9-1.5-2.9s-1.2-1.9-1.8-2.7c-.2-.2-.3-.4-.4-.6-.1-.2-.3-.4-.4-.7-.6-1.1-1.2-2.1-1.8-3.2-.6-1.1-1.3-2.1-2-3.1-.3-.4-.6-.8-1-1-.4-.3-.8-.4-1.2-.5-.5-.1-.9 0-1.5.3-.6.2-1 .4-1.4.8-.4.4-.7.8-1 1.3-.2.3-.3.6-.5.9-.1.3-.3.6-.4 1-.5 1.2-1 2.4-1.5 3.5-.5 1.2-.9 2.4-1.2 3.7-.1.6-.3 1.3-.5 1.9-.2.6-.4 1.3-.6 1.9-.2.5-.4 1-.5 1.5-.1.5-.2 1-.3 1.6-.1.4-.1.9-.2 1.4-.1.5-.2.9-.3 1.4-.4 1.2-.7 2.4-1 3.7-.3 1.2-.6 2.5-.9 3.7-.3 1.2-.7 2.4-1.2 3.6-.2.5-.2 1 0 1.5.2.4.5.8 1 1 .4.2 1 .3 1.5.2.1 0 .5-.1 1-.1.6-.1 1.3-.1 2.1-.2.9-.1 1.8-.1 2.7-.2 1-.1 1.9-.1 2.8-.2.9-.1 1.7-.1 2.3-.1h1.4c.3 0 .6.1.9.1h.8c1-.1 2-.1 2.9 0 1 0 1.9.1 2.9.2.4 0 .9.1 1.3.1.4.1.9.1 1.3.3.5.2 1.1.3 1.6.3s1.1 0 1.6-.1c.7-.1 1.2-.4 1.5-.9.3-.5.4-1.2.4-2s-.2-1.7-.4-2.6c-.2-.9-.5-1.9-.9-2.8-.3-.9-.7-1.7-1-2.4-.1-.8-.4-1.3-.5-1.7z" fill-rule="evenodd" clip-rule="evenodd" fill="#a44685"/>
  <path class="st2" d="M465.3 0c-.8 1.4-2.5 2.7-3.8 4-.3.3-.6.7-1 1l-1 1c-.9.8-1.8 1.7-2.7 2.6-.9.9-1.7 1.8-2.5 2.7-.2.3-.5.6-.8.8-.3.3-.5.5-.8.7l-2.7 2.4-2.7 2.4-2.4 2.1c-.8.7-1.6 1.4-2.4 2.2-.5.5-1 1-1.6 1.5-.5.5-1 1-1.6 1.5-.5.5-1.1.9-1.7 1.3-.5.3-.7.7-.7 1.2s.2 1 .5 1.4c.3.4.6.7 1 .9l1.2.6c.3.1.7.2 1 .2.3 0 .7-.1 1-.4.8-.8 1.7-1.6 2.5-2.4.8-.8 1.7-1.6 2.5-2.5.4-.4.7-.8 1.1-1.2.4-.4.8-.8 1.3-1.1.5-.4.9-.8 1.4-1.2.4-.4.8-.9 1.2-1.4.8-.9 1.6-1.7 2.4-2.5.9-.8 1.8-1.5 2.7-2.3.8-.6 1.6-1.3 2.4-1.9.8-.6 1.5-1.3 2.2-2l2.1-2.1c.7-.7 1.4-1.3 2.2-2 .3-.3.7-.6 1.3-1.2.5-.5 1-1.2 1.7-1.7 5.9-4.2-3.2-4.8-3.3-4.6"/>
</svg>