<svg xmlns="http://www.w3.org/2000/svg" width="312" height="156.6" viewBox="0 0 312 156.6">
  <style>
    .st0{fill:#5bcbf5}.st1{fill:#8ad2e6}.st2{fill:#f9c3d3}
  </style>
  <path class="st0" d="M117.8 9.2c.2.1.4.1.5.2.1.1.1.3.1.5V13c0 .1 0 .3-.1.4-.1.4-.4.5-.7.6-.4 0-.8.1-1.2.1-.4 0-.7.1-1.1.1h-2.4v.9c0 .3 0 .6.1.8.1.4.1.9.1 1.3s0 .9.1 1.3v.2c-.1.6-.1 1.3-.1 1.9 0 .6-.1 1.3-.2 1.9V30.8c0 .6-.1 1.2-.3 1.5-.1.4-.3.7-.6.9-.2.2-.5.3-.8.4-.3.1-.6.1-.9.1-.5.1-1 .1-1.5.1s-.9-.2-1.3-.5c-.1-.1-.2-.4-.2-.7v-.8-1c0-.5 0-1.1.1-1.6 0-.6.1-1.1.1-1.6v-.9-2.6-2.6-1.2c0-.4.1-.8.1-1.2v-1.7-1.7-1.8-1.8-.9V10 8.8v-.9c0-.4.1-.9.1-1.6 0-.7 0-1.4.1-2.2 0-.7.1-1.4.2-2.1.1-.6.2-1.1.4-1.4.1-.4.4-.6.7-.7l1.8-.3c.6-.1 1.2 0 1.8.1.3.1.5.1.6.3.1.1.1.3.1.6v1.3c0 .4 0 .9-.1 1.3-.1.6-.1 1.2-.1 1.8v3.7h3.3c.2 0 .3-.1.5-.1 0 .5.4.5.8.6m6.4-6.3v8.6c0 .9 0 1.9-.1 2.8-.1.9-.1 1.9-.1 2.8v3.4c0 1.1 0 2.3-.1 3.4v1.9c0 .9 0 1.9.1 2.8 0 1 .1 1.8.1 2.6v1.4c.1.5 0 .8-.2.9-.2.1-.5.2-.8.3-.4.1-.7.1-1.1.1h-2.2c-.4-.1-.7-.2-1-.3-.3-.2-.4-.4-.4-.8v-.4-.4c0-.3.1-.7.1-1.3 0-.6.1-1.2.1-1.9v-1.7-1c.1-.5.1-1 .1-1.5v-1.5-1.9-1.9c.1-.7.1-1.4.1-2 0-.6.1-1.4.1-2.2.1-.2.1-.5.1-.7v-.7-3.2c0-1.1 0-2.1-.1-3.2-.1-.9-.1-1.8-.1-2.7V2v-.4c0-.1 0-.2.1-.4.1-.4.4-.7.9-.7.3 0 .7-.1 1.1-.1.4-.1.9 0 1.4 0h1c.3 0 .5.2.6.5 0 .2.1.5.1.9.2.2.2.6.2 1.1zM103.9 1l.5 1c.2.4.2 1 .1 1.8-.1.2-.2.3-.2.4-.1.1-.1.2-.2.3-.1.1-.2.2-.4.3-.2.1-.4.2-.7.4-.2.1-.4.2-.5.3-.1.1-.2.2-.3.2l-.2.2c-.1.1-.2.1-.4.3-.9.6-1.6 1.3-2.2 2.2-.6.9-1.2 2-1.8 3.4l-.3.9c-.1.3-.2.6-.3.8-.6 2-.7 3.9-.4 5.7v.9c0 .3.1.6.2 1s.3.8.4 1.3c.1.4.3.8.4 1.2.1.4.2.6.3.8.4.9.9 1.7 1.3 2.3.4.6 1.1 1.1 1.9 1.6.6.4 1 .6 1.3.7.3.1.6.2 1 .3h.2c.3.1.5.2.6.3.1.1.1.3.1.6 0 .4 0 .8-.1 1.3s-.2.9-.4 1.4c-.4.9-1 1.3-1.8 1.3h-.6c-1.5-.4-3.1-1.4-4.9-3.1-1.6-1.5-2.7-3-3.3-4.6-.7-1.6-1.1-3-1.3-4.2-.1-.7-.2-1.4-.3-1.9 0-.6-.1-1.1-.1-1.5v-.4-1.4c0-.5.1-.9.1-1.3v-.4-.4c0-.9.2-2 .5-3.2.2-.7.4-1.4.6-2 .2-.6.4-1.1.7-1.6 1-2.1 2.1-3.7 3.3-4.7l.7-.5c.4-.4.7-.7 1-.9.3-.3.6-.5.9-.7.3-.2.6-.4 1-.5.3-.1.7-.3 1.2-.4.7-.2 1.3-.3 1.6-.2.3.1.5.3.7.5l.1.2c0-.1 0-.1 0 0zm-14 27v2.8c-.1.3-.3.5-.7.5l-1.5.3c-.5.1-1 .1-1.5.1H79c-.2 0-.4 0-.6-.1-.3 0-.4-.2-.4-.4v-.5V29 18v-.4-.4c0-.2.1-.4.1-.6V14.8v-.7-1.4-1.4c-.1-.5-.1-1.1-.2-1.6s-.1-1.1-.1-1.6V6.4v-.7V5v-.4c0-.1 0-.2-.1-.4v-.1c0-.3.1-.5.4-.6.3-.3 1-.5 2.1-.5h1.6c.8-.1 1.5-.1 2.3-.1.8 0 1.5 0 2.3.1h1.3c.9.1 1.5.2 1.7.3.2.1.4.4.5.8v2c0 .3 0 .6-.1.7-.1.3-.3.5-.7.5-.6.1-1.1.2-1.7.3-.5.1-1.1.1-1.7.1h-3.4V10c0 .5 0 1 .1 1.6.1.6.1 1.1.1 1.7 0 .6 0 1.1-.2 1.7V18.3H88c.6.1.9.3 1.1.7v.5c-.1.5-.1 1-.1 1.5s-.1 1-.1 1.5c-.1.5-.5.7-1.2.7-.8-.1-1.6-.1-2.5-.1h-2.6V25.7c0 .2-.1.4-.1.6v1c.7-.1 1.4-.1 2.1-.1.7 0 1.4 0 2.1.1h1.2c.9.1 1.4.2 1.6.3.1-.3.3 0 .4.4zm-15.7 2.9c.1.3.1.6.2.9 0 .3.1.6.1 1 .1.4 0 .6 0 .7-.1.1-.3.2-.6.3-.3.1-.7.2-1.1.2-.4 0-.7 0-1.1.1h-.9c-.3 0-.6 0-.9-.1-.4-.1-.7-.2-.8-.4-.1-.1-.2-.5-.3-1 0-.3-.1-.6-.1-.9 0-.3-.1-.6-.1-.9-.1-.9-.3-1.7-.4-2.6-.1-.9-.3-1.7-.4-2.6-.1-.6-.2-1.1-.3-1.6-.1-.5-.2-1.1-.3-1.6-.1-.4-.1-.7-.2-1.1-.1-.4-.2-.7-.3-1.1-.2-.9-.4-1.7-.5-2.6-.1-.9-.3-1.7-.5-2.6-.1-.2 0-.4.1-.6.1-.2.4-.3.7-.3h2.6c.2 0 .5 0 .7.1.3.1.6.3.7.7.3 1.1.5 2.2.7 3.4.2 1.1.4 2.3.6 3.5.1.4.1.8.2 1.3.1.4.2.8.3 1.3.2 1.1.5 2.2.8 3.3.5 1.1.8 2.1 1.1 3.2zm-.3-28.5c1 1.2 1.4 2.5 1.2 4.1-.1.6-.2 1.2-.4 1.8-.1.6-.4 1.1-.7 1.7-.2.3-.4.6-.7.9-.3.3-.5.6-.8.8-.7.6-1.5 1.1-2.3 1.4-.9.3-1.7.5-2.7.5-.5 0-.9 0-1.4-.2-.5-.2-.8-.6-.8-1.1v-.9-.9c0-.4-.1-.8-.1-1.2 0-.4 0-.8.1-1.2v-.7c0-.3 0-.5-.1-.8V4.8c0-.6 0-1.2-.1-1.8v-.9c0-.3.1-.6.1-.9.1-.3.1-.5.3-.6.1-.1.3-.2.7-.2.4-.1.8-.1 1.2-.2.4-.1.8-.1 1.2-.1.6-.1 1.1 0 1.7.1.5.1 1 .3 1.5.6.4.2.8.4 1.1.7.4.3.7.6 1 .9zm-9.4 29.7c0 .8 0 1.2-.1 1.4-.1.2-.3.3-.8.4-.6.1-1.1.2-1.5.2-.4 0-.8 0-1.3-.1h-.6c-.1 0-.3-.1-.4-.2-.3-.2-.4-.5-.4-.9v-.4-.4-1.9-1.8c.1-1 .1-2 .1-3s-.1-2-.1-3v-2c0-.6.1-1.3.1-2 0-.6.1-1.2.1-1.7V15c0-.4-.1-.7-.1-1.1v-1.3c0-.6-.1-1.2-.1-1.9s0-1.4.1-2.1V7.3c0-.4-.1-.9-.1-1.3 0-.6-.1-1.3-.1-1.9 0-.6 0-1.3.1-1.9 0-.2.1-.5.1-.7.1-.2.1-.5.2-.7.1-.3.3-.5.7-.6h2.8c.3 0 .6.1.7.2 0 .1.1.4.2.6.1.6.2 1.3.2 1.9 0 .6 0 1.3.1 1.9 0 .4.1.8.1 1 0 .3 0 .6-.1 1v1.8c.1 1 .1 1.9 0 2.7 0 .8-.1 1.7-.1 2.7v2.2c-.1.8-.1 1.6 0 2.4v3.5c0 .3 0 .8.1 1.3v1.9l.1 6.8zM56.6 28v2.8c-.1.3-.3.5-.7.5l-1.5.3c-.5.1-1 .1-1.5.1h-7.2c-.2 0-.4 0-.6-.1-.3 0-.4-.2-.4-.4v-.5V29 18v-.4-.4c0-.2.1-.4.1-.6V14.8v-.7-1.4-1.4c-.1-.5-.1-1.1-.2-1.6s-.1-1.1-.1-1.6V6.4v-.7V5v-.4c0-.1 0-.2-.1-.4v-.1c0-.3.1-.5.4-.6.2-.3.9-.5 2-.5h1.6c.8-.1 1.5-.1 2.3-.1.8 0 1.5 0 2.3.1h1.3c.9.1 1.5.2 1.7.3.2.1.4.4.5.8v2c0 .3 0 .6-.1.7-.1.3-.3.5-.7.5-.6.1-1.1.2-1.7.3-.5.1-1.1.1-1.7.1h-3.4V10c0 .5 0 1 .1 1.6.1.6.1 1.1.1 1.7 0 .6 0 1.1-.2 1.7V18.3h5.4c.6.1.9.3 1.1.7v.5c-.1.5-.1 1-.1 1.5s-.1 1-.1 1.5c-.1.5-.5.7-1.2.7-.8-.1-1.6-.1-2.5-.1h-2.6V25.7c0 .2-.1.4-.1.6v1c.7-.1 1.4-.1 2.1-.1.7 0 1.4 0 2.1.1h1.2c.9.1 1.4.2 1.6.3.5-.3.7 0 .8.4zM29 20.9v-1.4-1.9-2.1-2V12v-.7c0-.2.1-.7.1-1.5 0-.9.1-1.8.1-2.8 0-1 .1-1.9.1-2.7V2.9c0-.3.1-.6.1-1 0-.3.1-.6.1-1 0-.2 0-.4.1-.5 0-.2.2-.3.4-.4h.6c.3 0 .6 0 .9.1.3 0 .7.1 1 .2l.9.3c.1.1.4.2.9.4.4.2 1 .6 1.8 1 .8.6 1.5 1.1 1.9 1.7.5.6.9 1.2 1.3 1.7.3.4.5.7.7 1 0 .6.1.9.3 1.2.1.3.3.7.4 1.1.1.4.2.8.4 1.3.1.4.2.9.3 1.6.1.7.2 1.4.2 2.1.1.7.1 1.4.2 2 0 .6.1 1 .1 1.2.1.8 0 1.6 0 2.4-.1.8-.2 1.6-.4 2.4-.1.4-.1.8-.2 1.2l-.3 1.2c-.1.5-.4 1.1-.6 1.7-.3.6-.6 1.3-1 1.9-.3.5-.5.9-.7 1.2-.2.3-.4.6-.6.8-.2.2-.4.5-.6.7l-.8.8c-.6.5-1.3 1-2.1 1.5-.8.6-1.6.9-2.4 1.1-.6.1-1.2.2-1.8.2-.5 0-.8-.1-.8-.3-.1-.3-.2-.6-.2-1.1 0-.5-.1-1-.1-1.5v-1.4-.6c-.1-1.8-.1-3.4 0-4.9-.3-1.6-.3-2.7-.3-3.3z"/>
  <path class="st0" d="M241.9 11.6c.1.8.1 1.6.1 2.4v2.4c0 1.4-.1 2.7-.1 4-.1 1.3-.1 2.7-.2 4v1.4c-.1.9-.1 1.6-.1 2.2 0 .6-.1 1.4-.1 2.2v.8c0 .2-.1.3-.2.5-.1.1-.3.2-.5.2h-1.4c-.5 0-1-.1-1.4-.2-.4-.1-.8-.3-1-.6-.3-.2-.4-.5-.4-.9v-.6c0-.2 0-.4.1-.6h-1.1c-.4 0-.7-.1-1-.1-.3 0-.7 0-1.1-.1-.4-.1-.9-.1-1.3-.2s-.7-.1-1-.2c-.3-.1-.5-.1-.5-.1-.9-.3-1.6-.7-2.2-1.3-.5-.5-1-1.1-1.4-1.7-.4-.6-.6-1.2-.7-1.9-.1-.7-.1-1.5 0-2.3.1-.7.3-1.3.6-1.7.3-.5.6-.9 1.1-1.4.2-.2.6-.5 1.1-.8.5-.3.8-.5 1.1-.6.7-.3 1.3-.5 1.9-.6s1.4-.2 2.3-.3c.8-.1 1.4-.1 1.8-.1h1.4v-.3-.3c.1-.6 0-1.4-.1-2.2-.1-.9-.2-1.6-.4-2.2-.1-.2-.2-.5-.2-.7-.1-.2-.2-.5-.4-.8-.2-.4-.5-.6-.7-.8-.2-.2-.5-.3-.9-.2-.3 0-.5.1-.7.2-.2.2-.4.3-.5.6-.1.2-.3.4-.4.6-.1.2-.1.4-.2.4-.1.4-.3.8-.4 1.2-.1.5-.2 1-.2 1.5 0 .2-.1.4-.1.6-.1.2-.2.3-.3.4-.2.1-.4.2-.7.2h-1.4c-.5 0-.9-.1-1.1-.4-.3-.2-.4-.4-.5-.7-.1-.3-.1-.5-.1-.8v-.8-.4c0-.1 0-.2.1-.4.1-1 .3-1.9.5-2.5.2-.6.5-1.1.7-1.5.2-.4.4-.6.6-.8.2-.2.3-.4.5-.5.5-.4.9-.8 1.4-1.1.4-.3 1-.6 1.5-.7.8-.1 1.5-.2 2.2-.1.7.1 1.4.3 2.1.7.1.1.3.2.5.3.2.1.3.2.5.3.5.3.9.6 1.1 1 .3.4.6.8.8 1.3.4.8.6 1.7.8 2.5-.1.8.1 1.7.2 2.6m-18.3 19.3c.1.3.1.6.2.9 0 .3.1.6.1 1 .1.4 0 .6 0 .7-.1.1-.3.2-.6.3-.3.1-.7.2-1.1.2-.4 0-.7 0-1.1.1h-.9c-.3 0-.6 0-.9-.1-.4-.1-.7-.2-.8-.4-.1-.1-.2-.5-.3-1 0-.3-.1-.6-.1-.9 0-.3-.1-.6-.1-.9-.1-.9-.3-1.7-.4-2.6-.1-.9-.3-1.7-.4-2.6-.1-.6-.2-1.1-.3-1.6-.1-.5-.2-1.1-.3-1.6-.1-.4-.1-.7-.2-1.1-.1-.4-.2-.7-.3-1.1-.2-.9-.4-1.7-.5-2.6-.1-.9-.3-1.7-.5-2.6-.1-.2 0-.4.1-.6.1-.2.4-.3.7-.3h2.6c.2 0 .5 0 .7.1.3.1.6.3.7.7.3 1.1.5 2.2.7 3.4.2 1.1.4 2.3.6 3.5.1.4.1.8.2 1.3.1.4.2.8.3 1.3.2 1.1.5 2.2.8 3.3.5 1.1.8 2.1 1.1 3.2zm-.3-28.5c1 1.2 1.4 2.5 1.2 4.1-.1.6-.2 1.2-.4 1.8-.2.6-.5 1.1-.7 1.7-.2.3-.4.6-.7.9-.3.3-.5.6-.8.8-.7.6-1.5 1.1-2.3 1.4-.9.3-1.7.5-2.7.5-.5 0-.9 0-1.4-.2-.5-.2-.8-.6-.8-1.1v-.9-.9c0-.4-.1-.8-.1-1.2 0-.4 0-.8.1-1.2v-.7c0-.3 0-.5-.1-.8V4.8c0-.6 0-1.2-.1-1.8v-.9c0-.3.1-.6.1-.9.1-.3.1-.5.3-.6.1-.1.3-.2.7-.2.4-.1.8-.1 1.2-.2.4-.1.8-.1 1.2-.1.6-.1 1.1 0 1.7.1.5.1 1 .3 1.5.6.4.2.8.4 1.1.7.4.3.7.6 1 .9zm-9.4 29.7c0 .8 0 1.2-.1 1.4-.1.2-.3.3-.8.4-.6.1-1.1.2-1.5.2-.4 0-.8 0-1.3-.1h-.6c-.1 0-.3-.1-.4-.2-.3-.2-.4-.5-.4-.9v-.4-.4-1.9-1.8c.1-1 .1-2 .1-3s-.1-2-.1-3v-2c0-.6.1-1.3.1-2 0-.6.1-1.2.1-1.7V15c0-.4-.1-.7-.1-1.1v-1.3c0-.6-.1-1.2-.1-1.9s0-1.4.1-2.1V7.3c0-.4-.1-.9-.1-1.3 0-.6-.1-1.3-.1-1.9 0-.6 0-1.3.1-1.9 0-.2.1-.5.1-.7.1-.2.1-.5.2-.7.1-.3.3-.5.7-.6h2.8c.3 0 .6.1.7.2.1.1.2.3.3.6.1.6.2 1.3.2 1.9 0 .6 0 1.3.1 1.9 0 .4.1.8.1 1 0 .2 0 .6-.1 1v1.8c.1 1 .1 1.9 0 2.7 0 .8-.1 1.7-.1 2.7v2.2c-.1.8-.1 1.6 0 2.4v3.5c0 .3 0 .8.1 1.3v8.7zm-8.3-20.5c.1.8.1 1.6.1 2.4v2.4c0 1.4-.1 2.7-.1 4-.1 1.3-.1 2.7-.2 4v1.4c-.1.9-.1 1.6-.1 2.2 0 .6-.1 1.4-.1 2.2v.8c0 .2-.1.3-.2.5-.1.1-.3.2-.5.2h-1.4c-.5 0-1-.1-1.4-.2-.4-.1-.8-.3-1-.6-.3-.2-.4-.5-.4-.9v-.6c0-.2 0-.4.1-.6h-1.1c-.4 0-.7-.1-1-.1-.3 0-.7 0-1.1-.1-.4-.1-.9-.1-1.3-.2s-.7-.1-1-.2-.5-.1-.5-.1c-.9-.3-1.6-.7-2.2-1.3-.5-.5-1-1.1-1.4-1.7-.4-.6-.6-1.2-.7-1.9-.1-.7-.1-1.5 0-2.3.1-.7.3-1.3.6-1.7.3-.5.6-.9 1.1-1.4.2-.2.6-.5 1.1-.8.5-.3.8-.5 1.1-.6.7-.3 1.3-.5 1.9-.6s1.4-.2 2.3-.3c.8-.1 1.4-.1 1.8-.1h1.4v-.3-.3c.1-.6 0-1.4-.1-2.2-.1-.9-.2-1.6-.4-2.2-.1-.2-.2-.5-.2-.7-.1-.2-.2-.5-.4-.8-.2-.4-.5-.6-.7-.8-.2-.2-.5-.3-.9-.2-.3 0-.5.1-.7.2-.2.2-.4.3-.5.6-.1.2-.3.4-.4.6-.1.2-.1.4-.2.4-.1.4-.3.8-.4 1.2-.1.5-.2 1-.2 1.5 0 .2-.1.4-.1.6-.1.2-.2.3-.3.4-.2.1-.4.2-.7.2h-1.4c-.5 0-.9-.1-1.1-.4-.2-.2-.4-.4-.5-.7-.1-.3-.1-.5-.1-.8v-.8-.4c0-.1 0-.2.1-.4.1-1 .3-1.9.5-2.5.2-.6.5-1.1.7-1.5.2-.4.4-.6.6-.8.2-.2.3-.4.5-.5.5-.4.9-.8 1.4-1.1.4-.3 1-.6 1.5-.7.8-.1 1.5-.2 2.2-.1.7.1 1.4.3 2.1.7.1.1.3.2.5.3.2.1.3.2.5.3.5.3.9.6 1.1 1s.6.8.8 1.3c.4.8.6 1.7.8 2.5-.1.8.1 1.7.2 2.6zm-17.7-3.2c.6 1.3.8 2.6.4 3.9-.1.6-.3 1.1-.5 1.6s-.5 1-.8 1.5c-.2.3-.4.5-.7.8-.3.3-.5.5-.7.6-.5.4-1 .7-1.4.9-.4.2-.9.4-1.5.7-.5.2-1 .3-1.4.4-.4.1-1 .1-1.6 0v.9c0 .3 0 .6.1.8.1.6.1 1.3.1 1.9 0 .6.1 1.3.1 1.9v4.2c0 .2-.1.5-.1.8v.9c-.1.5-.2.9-.4 1-.2.1-.5.2-1 .3-.3 0-.7.1-1 .1h-1.3c-.5 0-.8-.1-.9-.3-.1-.2-.2-.3-.2-.4-.1-.3-.1-.5-.2-.8 0-.2-.1-.6-.1-.9v-2V25v-2.3-1-3.5-1-1c-.1-.7-.1-1.4-.1-2v-2-.7-.7c0-.4-.1-.9-.1-1.3v-4-.8c0-.3 0-.6.1-.8 0-.3.1-.5.2-.7.1-.2.4-.4.9-.4H179c.4 0 .7.1.7.4.1.2.1.5.1.9v.8c.5-.1 1-.2 1.7-.2.5-.1 1.1 0 1.6.1s1 .3 1.5.6c.1.1.2.1.4.2.8.3 1.4.7 1.9 1.2s.6 1 1 1.6zm-28.6 1.9c-.4-.1-.6-.4-.5-.8 0-.4.1-.6.1-.8v-.9-.9c0-.3-.1-.5-.1-.6l-.3-.6c-.1-.2-.3-.4-.5-.5-.3-.2-.7-.3-1.2-.2-.5.1-.9.3-1.3.6-.1.1-.2.4-.3.6-.2.3-.2.5-.3.8v.8c0 .3 0 .5.1.7.2 1.1.6 2.1 1.1 2.9.3.4.6.8.9 1.3.3.4.6.9.9 1.3.4.6.8 1.1 1.1 1.6.4.6.7 1 1 1.3.2.3.5.7.8 1.1.9 1.2 1.6 2.4 2.2 3.7.5 1.3.9 2.7 1 4.1v2.1c-.1 1.7-.9 3.1-2.2 4.3l-.3.3-.3.3c-.4.3-.9.6-1.4.7-.5.2-1 .3-1.5.3h-1.7c-.5 0-1.1-.1-1.6-.3-.4-.1-.8-.3-1.1-.4-.3-.2-.6-.4-1-.7-.3-.3-.6-.6-.9-.8-.3-.3-.5-.6-.7-.9-.1-.1-.1-.2-.2-.3-.1-.1-.1-.2-.2-.3l-.6-1.8c-.1-.6-.2-1.2-.2-1.9v-1.1c0-.4 0-.8.1-1.1 0-.4.1-.7.1-.9 0-.3.1-.4.1-.5.2-.4.6-.7 1.1-.7h.4c.8.2 1.6.4 2.4.7.3.1.5.2.6.4.1.1.1.3.1.6-.1.4-.1.8-.1 1.2v1.3c.1.6.1 1 .2 1.5.1.4.3.8.6 1.1.3.2.7.4 1.3.5.5.1 1 0 1.5-.3.3-.2.6-.6.8-1 .2-.4.3-.8.3-1.3s0-1-.2-1.6c-.2-.5-.4-1-.6-1.4-.3-.5-.5-1-.8-1.5-.3-.5-.6-.9-.9-1.4-.3-.4-.6-.8-.8-1.3-.3-.4-.5-.9-.7-1.3-.2-.3-.4-.6-.6-1-.2-.3-.4-.6-.6-1-.4-.6-.7-1.1-1-1.5-.2-.4-.5-.9-.7-1.4-.1-.1-.1-.3-.2-.4-.1-.1-.2-.3-.2-.4-.6-.8-.9-1.7-1.2-2.6-.2-.9-.4-1.8-.4-2.8-.1-1.2 0-2.3.3-3.3.2-.8.6-1.4 1.3-2 .9-.7 2-1.1 3.2-1.3.9-.1 1.9-.2 2.9 0s1.9.4 2.6.9c.4.3.8.7 1.2 1.1.4.4.6.9.9 1.4.1.4.3.7.3 1.1.1.4.1.8.2 1.2V9.2c0 1-.5 1.5-1.6 1.5h-1.9c-.6-.4-.8-.4-.8-.4zm-22.7-2.2v14.6c0 .5-.1 1.1-.1 1.7V27c0 .2-.1.5-.1.7 0 .2 0 .4-.1.6 0 .1 0 .2-.1.4-.1.1-.2.2-.3.2h-.5c-.2 0-.5 0-.7-.1-.3 0-.5-.1-.8-.1-.3 0-.5-.1-.7-.2-.1-.1-.4-.2-.7-.3-.4-.1-.8-.4-1.4-.7-.6-.4-1.2-.8-1.5-1.2-.4-.4-.7-.8-.9-1.2-.4-.5-.7-.9-.9-1.3-.2-.4-.4-.9-.7-1.6-.1-.3-.2-.6-.2-1.1-.1-.5-.1-.9-.2-1.4-.1-.5-.1-.9-.2-1.3 0-.4-.1-.7-.1-.8-.1-.6-.1-1.1 0-1.6s.2-1.1.3-1.6c.1-.3.1-.5.2-.8.1-.3.2-.6.2-.9.1-.4.3-.7.5-1.2.2-.4.5-.9.8-1.3.2-.3.4-.6.6-.8.2-.2.3-.4.5-.6l.5-.5c.2-.1.4-.3.6-.5.5-.3 1.1-.7 1.7-1 .6-.4 1.3-.6 1.9-.7.6 0 1.1-.1 1.5-.1.4 0 .6 0 .6.2.1.1.2.2.2.4s.1.4.1.7v.8zm11.6 9.1c0 .6 0 1.1-.1 1.7-.1.5-.2 1.1-.3 1.6-.1.3-.1.6-.2.8-.1.3-.2.5-.2.8-.1.4-.3.7-.5 1.2-.2.4-.5.9-.7 1.3-.2.3-.4.6-.6.8-.2.2-.3.4-.5.6-.1.2-.3.3-.5.5s-.4.3-.7.5c-.5.3-1.1.7-1.7 1-.6.4-1.3.6-1.9.7-.6.1-1.1.1-1.5.1-.4 0-.6 0-.6-.2-.1-.1-.2-.2-.2-.4s-.1-.4-.1-.7v-.6-.3-2-2.1-1.8-1.1V18v-2.1V14v-1-1c0-.5.1-1.1.1-1.7 0-.6 0-1.2.1-1.7v-.9c0-.2.1-.4.1-.6 0-.2 0-.4.1-.7V6c.1-.1.2-.2.3-.2.2 0 .6 0 1.2.1s1.1.2 1.5.3c.1.1.4.2.7.3.4.1.8.4 1.4.7.6.4 1.2.8 1.5 1.2.4.4.7.8 1 1.2.4.5.7.9.9 1.3.2.4.4.9.6 1.6.1.3.2.6.2 1.1.1.5.1.9.2 1.4.1.5.1.9.2 1.4.2.4.2.7.2.8z"/>
  <path class="st0" d="M94.2 52.1c.4.3.7.7.9 1.2.2.6.2 1.1.1 1.8-.1.5-.2.8-.4 1.1-.2.3-.5.5-1 .7-.1.1-.4.2-.7.2-.3.1-.6.1-.7.1-.6 0-1.2-.2-1.7-.6-.5-.4-.9-.9-.9-1.5-.1-1.1.2-2 1-2.6.9-.7 2-.9 3.2-.6.1 0 .1.1.1.1l.1.1m-.1 6.4c.5 0 .8.3.7.7v11.5c0 .3 0 .7-.1 1V72.9c-.1 1-.1 1.9-.1 2.7 0 .8 0 1.7.1 2.7.1.4.1.6.2.9.1.3 0 .5-.1.7-.1.3-.3.4-.6.4-1.3.2-2.5.2-3.8 0-.4-.1-.5-.2-.5-.5-.1-.3-.1-.6-.2-.9v-1c.1-.8.1-1.6.1-2.4 0-.8.1-1.6.1-2.4V72c0-.4 0-.7.1-1.1v-1.5-1.5-1.3-2-2c0-.6 0-1.1.1-1.4v-.7-.7-.4c0-.1 0-.2.1-.4 0-.2.2-.4.5-.4h2c.5-.2.9-.1 1.4-.1zM65.9 69.1v-2-2.6-2.4-1.2c0-.1.1-.6.1-1.2 0-.7.1-1.4.1-2.2 0-.8 0-1.5.1-2.1v-1.1c0-.3.1-.5.1-.8 0-.3 0-.6.1-.8v-.2-.2c.1-.1.2-.2.4-.3h.6c.3 0 .6 0 .9.1.3 0 .7.1 1 .2.3.1.6.2.9.2.1.1.4.2.9.4l1.8.9c.8.5 1.4 1 1.9 1.5s.9 1 1.2 1.5c.5.6.9 1.2 1.1 1.7.3.5.5 1.2.8 2 .1.3.2.8.3 1.3.1.6.2 1.2.2 1.8.1.6.1 1.2.2 1.7s.1.8.1 1c.1.7 0 1.4 0 2-.1.7-.2 1.4-.4 2-.1.4-.1.7-.2 1.1-.1.4-.2.7-.3 1.1-.1.4-.4.9-.6 1.5-.3.5-.6 1.1-.9 1.7-.3.4-.5.7-.7 1-.2.2-.4.5-.6.7l-.6.6c-.2.2-.5.4-.8.7-.6.4-1.3.8-2.1 1.3s-1.6.8-2.4.9c-.7.1-1.3.1-1.8.1s-.7 0-.7-.2c-.1-.1-.2-.3-.3-.5-.1-.3-.1-.5-.1-.8v-.8-.4-2.5-2.6-2.3c-.3-1.1-.3-1.6-.3-1.8zM49.2 62v-1.6-2.2-2.1c0-.7.1-1.1.1-1.4v-.8-1.3-1.5V50v-.3-.3c.1-.3.3-.4.6-.4h.7c.5 0 1 0 1.6.1.6 0 1.3.1 1.9.1h5.3c.6 0 1.1 0 1.5.1h.7c.5 0 .8.3.8.7.1.5.1 1.1.1 1.6V54c0 .3 0 .6.1.9.1.7.1 1.5.1 2.2v6.2c.1.9.1 1.7 0 2.6 0 .9-.1 1.7-.1 2.6v2.2c0 .7 0 1.3-.1 2-.1.6-.2 1.3-.3 2l-.3 1.8c-.1.6-.2 1.2-.4 1.8-.2 1.1-.7 2.1-1.5 3.1-.4.5-.9.9-1.5 1.1-.6.3-1.2.5-1.8.6-.7.1-1.3 0-2-.2s-1.3-.5-1.9-.9c-.5-.4-1-.8-1.3-1.3-.6-.8-1-1.6-1.3-2.5-.3-.9-.5-1.8-.6-2.7-.1-.5-.1-1.1-.1-1.6s0-1.1-.1-1.6c-.1-.6-.1-1.4-.1-2.4s-.1-2.1-.1-3.2v-3V62zM46 75.7c.4.1.6.1.7.2.1.1.1.2.1.5v1.5c0 .3 0 .6-.1.9v.6c0 .1 0 .3-.1.4-.2.4-.6.5-1.1.5h-7.9c-.3 0-.5 0-.7-.1H35.5c-.4-.1-.5-.3-.5-.7.1-.6.1-1.2.1-1.7 0-.6 0-1.2.1-1.7v-1.9c0-.6 0-1.2.1-1.8v-.5c-.1-.6-.1-1.2-.1-1.9 0-.6 0-1.2.1-1.8 0-.4.1-.9.1-1.3v-1.3V63c0-.9-.1-1.7-.1-2.6-.1-.8-.1-1.6-.1-2.4 0-.8.1-1.6.1-2.4v-1.3-1.4-.7c0-.2.2-.4.5-.4 1.3-.2 2.5-.2 3.7 0 .3 0 .5.2.5.5.1.9.1 1.7.2 2.5v2.5c0 .7 0 1.4.1 2.2.1.5.1 1 .1 1.5s.1 1 .1 1.5c.1.5.1.9.1 1.3v1.4c-.1.3-.1.7-.1 1v1.9c0 .2 0 .6-.1 1-.1.2-.1.5 0 .7v1.4c0 .5 0 .9.1 1.4.1.7.1 1.4 0 2v.6h4c.3.4.9.4 1.5.5zM31.4 60.4c.1.8.1 1.6.1 2.4v2.4c0 1.4-.1 2.7-.1 4-.1 1.3-.1 2.7-.2 4v1.4c-.2 1-.2 1.8-.3 2.4 0 .6-.1 1.4-.1 2.2v.8c0 .2-.1.3-.2.5-.1.1-.3.2-.5.2h-1.4c-.5 0-1-.1-1.4-.2-.4-.1-.8-.3-1-.6-.3-.2-.4-.5-.4-.9v-.6c0-.2 0-.4.1-.6h-1.1c-.4 0-.7-.1-1-.1-.3 0-.7 0-1.1-.1-.4-.1-.9-.1-1.3-.2s-.7-.1-1-.2c-.3-.2-.5-.2-.5-.2-.9-.3-1.6-.7-2.2-1.3s-1-1.1-1.4-1.7c-.4-.6-.6-1.2-.7-1.9-.1-.7-.1-1.5 0-2.3.1-.7.3-1.3.6-1.7.3-.5.6-.9 1.1-1.4.2-.2.6-.5 1.1-.8.5-.3.8-.5 1.1-.6.7-.3 1.3-.5 1.9-.6.6-.1 1.4-.2 2.3-.3.8-.1 1.4-.1 1.8-.1H27V64v-.3c.1-.6 0-1.4-.1-2.2-.1-.9-.2-1.6-.4-2.2-.1-.2-.2-.5-.2-.7-.1-.2-.2-.5-.4-.8-.2-.4-.5-.6-.7-.8-.2-.2-.5-.3-.9-.2-.3 0-.5.1-.7.2-.2.2-.4.3-.5.6-.1.2-.3.4-.4.6-.1.2-.1.4-.2.4-.1.4-.3.8-.4 1.2-.1.5-.2 1-.2 1.5 0 .2-.1.4-.1.6-.1.2-.2.3-.3.4-.2.1-.4.2-.7.2h-1.4c-.5 0-.9-.1-1.1-.4-.2-.2-.4-.4-.5-.7-.1-.3-.1-.5-.1-.8v-.8-.4c0-.1 0-.2.1-.4.1-1 .3-1.9.5-2.5.2-.6.5-1.1.7-1.5.2-.4.4-.6.6-.8.2-.2.3-.4.5-.5.5-.4.9-.8 1.4-1.1.4-.3 1-.6 1.5-.7.8-.1 1.5-.2 2.2-.1.7.1 1.4.3 2.1.7.1.1.3.2.5.3.2.1.3.2.5.3.5.3.9.6 1.1 1 .3.4.6.8.8 1.3.4.8.6 1.7.8 2.5.2.7.3 1.6.4 2.5zm-22.2-.3c-.4-.1-.6-.4-.5-.7 0-.3.1-.6.1-.7V58c0-.3-.1-.5-.1-.8 0-.3-.1-.4-.1-.5-.1-.1-.2-.3-.3-.5-.1-.2-.3-.3-.5-.5-.3-.2-.6-.2-1.1-.2-.5 0-.9.2-1.2.5-.4.2-.5.4-.5.6-.1.2-.1.5-.2.7v.7c0 .2.1.4.1.6.1.4.2.9.4 1.3s.4.8.7 1.2c.3.4.6.7.9 1.1.3.4.6.7.9 1.1.2.2.4.5.6.7.2.2.4.5.5.7.4.5.7.9 1 1.2.2.3.5.6.8.9 1.8 2 2.9 4.3 3.2 6.7v1.8c-.1 1.5-.9 2.7-2.2 3.7-.1.1-.2.1-.3.2-.1.1-.2.2-.3.2-.4.3-.9.5-1.3.6-.5.2-1 .2-1.6.2H6.5c-.5 0-1.1-.1-1.6-.3-.4-.1-.8-.2-1.1-.4-.3-.2-.7-.4-1-.6-.3-.2-.6-.5-.9-.7-.3-.2-.5-.5-.7-.8-.1 0-.2-.1-.2-.1-.1-.1-.1-.2-.1-.3-.2-.5-.4-1.1-.6-1.6-.2-.5-.3-1-.3-1.6v-.9c0-.3 0-.7.1-1 0-.3.1-.6.1-.8 0-.2.1-.4.1-.4.2-.4.6-.6 1.1-.6h.4c.4.1.8.1 1.2.2.4.1.8.2 1.2.4.5.1.7.4.6.8 0 .3-.1.7-.1 1 0 .4-.1.7 0 1.1.1.5.1.9.2 1.3s.3.7.6.9c.3.2.7.4 1.2.5.5.1 1 0 1.5-.3.3-.2.6-.5.8-.9.2-.4.3-.7.3-1.1 0-.4 0-.8-.2-1.3-.1-.5-.3-.9-.6-1.3s-.5-.8-.8-1.2c-.3-.4-.6-.8-1-1.2-.3-.4-.6-.7-.8-1.1-.3-.4-.5-.8-.8-1.1l-.6-.9c-.2-.3-.4-.6-.6-.8-.4-.5-.7-.9-.9-1.3-.3-.4-.5-.8-.8-1.2-.1-.1-.2-.2-.2-.3-.1-.1-.2-.2-.2-.3-.6-.7-1-1.4-1.2-2.2-.2-.8-.4-1.6-.4-2.4-.1-.5-.1-1 0-1.4.1-.5.2-.9.3-1.4.2-.7.7-1.3 1.3-1.7.9-.6 1.9-1 3.2-1.1.9-.1 1.9-.1 2.9 0s1.9.4 2.7.8l1.2.9c.4.3.6.7.9 1.2.2.3.3.6.4.9.1.3.1.6.2 1v2.5c0 .9-.6 1.3-1.6 1.3h-1.2c-.2 0-.5 0-.7-.1-.4-.2-.5-.2-.6-.2zm273.3-48.5c.1.8.1 1.6.1 2.4v2.4c0 1.4-.1 2.7-.1 4-.1 1.3-.1 2.7-.2 4v1.4c-.1.9-.1 1.6-.1 2.2 0 .6-.1 1.4-.1 2.2v.8c0 .2-.1.3-.2.5-.1.1-.3.2-.5.2H280c-.5 0-1-.1-1.4-.2-.4-.1-.8-.3-1-.6-.3-.2-.4-.5-.4-.9v-.6c0-.2 0-.4.1-.6h-1.1c-.4 0-.7-.1-1-.1-.3 0-.7 0-1.1-.1-.4-.1-.9-.1-1.3-.2s-.7-.1-1-.2c-.3-.1-.5-.1-.5-.1-.9-.3-1.6-.7-2.2-1.3-.5-.5-1-1.1-1.4-1.7-.4-.6-.6-1.2-.7-1.9-.1-.7-.1-1.5 0-2.3.1-.7.3-1.3.6-1.7.3-.5.6-.9 1.1-1.4.2-.2.6-.5 1.1-.8.5-.3.8-.5 1.1-.6.7-.3 1.3-.5 1.9-.6.6-.1 1.4-.2 2.3-.3.8-.1 1.4-.1 1.8-.1h1.4v-.3-.3c.1-.6 0-1.4-.1-2.2-.1-.9-.2-1.6-.4-2.2-.1-.2-.2-.5-.2-.7-.1-.2-.2-.5-.4-.8-.2-.4-.5-.6-.7-.8-.2-.2-.5-.3-.9-.2-.3 0-.5.1-.7.2-.2.2-.4.3-.5.6-.1.2-.3.4-.4.6-.1.2-.1.4-.2.4-.1.4-.3.8-.4 1.2-.1.5-.2 1-.2 1.5 0 .2-.1.4-.1.6-.1.2-.2.3-.3.4-.2.1-.4.2-.7.2h-1.4c-.5 0-.9-.1-1.1-.4-.2-.2-.4-.4-.5-.7-.1-.3-.1-.5-.1-.8v-.8-.4c0-.1 0-.2.1-.4.1-1 .3-1.9.5-2.5.2-.6.5-1.1.7-1.5.2-.4.4-.6.6-.8s.3-.4.5-.5c.5-.4.9-.8 1.4-1.1.4-.3 1-.6 1.5-.7.8-.1 1.5-.2 2.2-.1.7.1 1.4.3 2.1.7.1.1.3.2.5.3.2.1.3.2.5.3.5.3.9.6 1.1 1 .3.4.6.8.8 1.3.4.8.6 1.7.8 2.5 0 .8.1 1.7.2 2.6zm-17.8 15.3c.4.1.6.1.7.2.1.1.1.2.1.5v1.5c0 .3 0 .6-.1.9v.6c0 .1 0 .3-.1.4-.2.4-.6.5-1.1.5h-7.9c-.3 0-.5 0-.7-.1H254.2c-.4-.1-.5-.3-.5-.7.1-.6.1-1.2.1-1.7 0-.6 0-1.2.1-1.7v-1.9c0-.6 0-1.2.1-1.8v-.5c-.1-.6-.1-1.2-.1-1.9 0-.6 0-1.2.1-1.8 0-.4.1-.9.1-1.3v-1.3-2.6c0-.9-.1-1.7-.1-2.6-.1-.8-.1-1.6-.1-2.4 0-.8.1-1.6.1-2.4V5.5 4.1v-.7c0-.2.2-.4.5-.4 1.3-.2 2.5-.2 3.7 0 .3 0 .5.2.5.5.1.9.1 1.7.2 2.5v2.5c0 .7 0 1.4.1 2.2.1.5.1 1 .1 1.5s.1 1 .1 1.5c.1.5.1.9.1 1.3v1.4c-.1.3-.1.7-.1 1v1.9c0 .2 0 .6-.1 1-.1.2-.1.5 0 .7v1.4c0 .5 0 .9.1 1.4.1.7.1 1.4 0 2v.6h4c.2.3.8.4 1.5.5z"/>
  <path class="st0" d="M181 79.7c.1.3.1.6.2.9 0 .3.1.6.1 1 .1.4 0 .6 0 .7-.1.1-.3.2-.6.3-.3.1-.7.2-1.1.2-.4 0-.7 0-1.1.1h-.9c-.3 0-.6 0-.9-.1-.4-.1-.7-.2-.8-.4-.1-.1-.2-.5-.3-1 0-.3-.1-.6-.1-.9 0-.3-.1-.6-.1-.9-.1-.9-.3-1.7-.4-2.6-.1-.9-.3-1.7-.4-2.6-.1-.6-.2-1.1-.3-1.6-.1-.5-.2-1.1-.3-1.6-.1-.4-.1-.7-.2-1.1-.1-.4-.2-.7-.3-1.1-.2-.9-.4-1.7-.5-2.6-.1-.9-.3-1.7-.5-2.6-.1-.2 0-.4.1-.6.1-.2.4-.3.7-.3h2.6c.2 0 .5 0 .7.1.3.1.6.3.7.7.3 1.1.5 2.2.7 3.4.2 1.1.4 2.3.6 3.5.1.4.1.8.2 1.3.1.4.2.8.3 1.3.2 1.1.5 2.2.8 3.3.5 1.1.8 2.2 1.1 3.2m-.2-28.4c1 1.2 1.4 2.5 1.2 4.1-.1.6-.2 1.2-.4 1.8-.2.6-.5 1.1-.7 1.7-.2.3-.4.6-.7.9-.3.3-.5.6-.8.8-.7.6-1.5 1.1-2.3 1.4-.9.3-1.7.5-2.7.5-.5 0-.9 0-1.4-.2-.5-.2-.8-.6-.8-1.1v-.9-.9c0-.4-.1-.8-.1-1.2 0-.4 0-.8.1-1.2v-.7c0-.3 0-.5-.1-.8v-1.8c0-.6 0-1.2-.1-1.8V51c0-.3.1-.6.1-.9.1-.3.1-.5.3-.6.1-.1.3-.2.7-.2.4-.1.8-.1 1.2-.2.4-.1.8-.1 1.2-.1.6-.1 1.1 0 1.7.1.5.1 1 .3 1.5.6.4.2.8.4 1.1.7.3.3.7.5 1 .9zM171.4 81c0 .8 0 1.2-.1 1.4-.1.2-.3.3-.8.4-.6.1-1.1.2-1.5.2-.4 0-.8 0-1.3-.1h-.6c-.1 0-.3-.1-.4-.2-.3-.2-.4-.5-.4-.9v-.4-.4-1.9-1.8c.1-1 .1-2 .1-3s-.1-2-.1-3v-2c0-.6.1-1.3.1-2 0-.6.1-1.2.1-1.7v-1.7c0-.4-.1-.7-.1-1.1v-1.3c0-.6-.1-1.2-.1-1.9s0-1.4.1-2.1v-1.3c0-.4-.1-.9-.1-1.3 0-.6-.1-1.3-.1-1.9 0-.6 0-1.3.1-1.9 0-.2.1-.5.1-.7.1-.2.1-.5.2-.7.1-.3.3-.5.7-.6h2.8c.3 0 .6.1.7.2.1.1.2.3.3.6.1.6.2 1.3.2 1.9 0 .6 0 1.3.1 1.9 0 .4.1.8.1 1 0 .2 0 .6-.1 1v1.8c.1 1 .1 1.9 0 2.7 0 .8-.1 1.7-.1 2.7v2.2c-.1.8-.1 1.6 0 2.4V71c0 .3 0 .8.1 1.3V81zm-8.2-31.2c.1.3.1 1 .1 2.1v3.5c0 1.2 0 2.4-.1 3.5 0 1.1-.1 1.8-.1 2v5.3c0 1.3 0 2.6-.1 3.9 0 .8-.1 1.6-.1 2.4 0 .8-.1 1.6-.3 2.4-.1.9-.3 1.7-.5 2.5s-.5 1.7-.9 2.4c-.5.9-1.2 1.6-2.1 2.1l-.9.5c-.7.4-1.4.5-2.2.6-.7 0-1.5 0-2.2-.2-.6-.1-1.1-.4-1.5-.7-.4-.4-.9-.7-1.3-1.2-.1-.2-.3-.4-.4-.6-.1-.2-.3-.4-.5-.8s-.4-.9-.6-1.5c-.2-.6-.3-1.4-.4-2.4-.1-1.6-.2-2.8-.2-3.8s.1-1.6.1-2v-.7-.7c0-.6.4-1.1 1.1-1.3.6-.1 1.1-.2 1.5-.3h1.5c.3 0 .5.2.6.4.1.2.2.7 0 1.3-.1.4-.2.8-.2 1.1s-.1.7-.2 1c0 .3-.1.6-.1.9v1.1c0 .5.1 1.1.1 1.8s.2 1.3.3 1.8c0 .1.1.2.2.4l.3.6c.1.2.3.4.5.6.2.2.4.3.7.3.4.1.7 0 .9-.2l.7-.7c.2-.3.3-.6.4-.8.1-.2.2-.4.2-.6.2-.6.4-1.3.5-2.1.1-.8.2-1.5.2-2.2v-1.8c0-.6.1-1.1.1-1.7-.1-.5-.1-.9-.1-1.3s0-.8.1-1.2c0-.7.1-1.3.1-1.9v-2.1-1.2-4.7-2.2-2.1c0-.6 0-1.2.1-1.6 0-.4.1-.7.2-.7.1-.1.3-.2.6-.2.2 0 .5-.1.8-.1h.9c.3 0 .5.1.7.1.4.1.7.1.8.2.5.3.6.5.7.8zm-11 14.5c-.7-.3-1.2-.7-1.6-1.2-.4-.5-.8-1.1-1.1-1.8-.5-1.2-.7-2.5-.4-3.9.1-.6.3-1.1.5-1.6s.4-1 .7-1.5c.1-.2.3-.5.6-.8.2-.3.4-.5.6-.7.4-.4.8-.7 1.2-.9.4-.2.8-.4 1.3-.6.4-.2.8-.3 1.2-.4.4-.1.8-.1 1.4 0h.1c.4.1.7.2.9.4.2.2.2.6.2 1.2v7.4c.1.7.1 1.3 0 2 0 .7-.1 1.3-.2 2 0 .3-.1.6-.2.7-.1.1-.3.2-.6.3-.5.1-1 .2-1.6.2-.5.1-.9 0-1.4-.1-.4-.1-.9-.3-1.3-.6-.1 0-.1-.1-.1-.1h-.2zm-5.6 12.5v2.8c-.1.3-.3.5-.7.5l-1.5.3c-.5.1-1 .1-1.5.1h-7.2c-.2 0-.4 0-.6-.1-.3 0-.4-.2-.4-.4v-.5-1.7V67v-.4-.4c0-.2.1-.4.1-.6V63.8v-.7-1.4-1.4c-.1-.5-.1-1.1-.2-1.6s-.1-1.1-.1-1.6v-1.8-.7-.7-.4c0-.1 0-.2-.1-.4V53c0-.3.1-.5.4-.6.3-.3 1-.5 2.1-.5h1.6c.8-.1 1.5-.1 2.3-.1.8 0 1.5 0 2.3.1h1.3c.9.1 1.5.2 1.7.3s.4.4.5.8v2c0 .3 0 .6-.1.7-.1.3-.3.5-.7.5-.6.1-1.1.2-1.7.3-.5.1-1.1.1-1.7.1H139v2.3c0 .5 0 1 .1 1.6.1.6.1 1.1.1 1.7 0 .6 0 1.1-.2 1.7V67h5.4c.6.1.9.3 1.1.7v.5c-.1.5-.1 1-.1 1.5s-.1 1-.1 1.5c-.1.5-.5.7-1.2.7-.8-.1-1.6-.1-2.5-.1H139V74.4c0 .2-.1.4-.1.6v1c.7-.1 1.4-.1 2.1-.1.7 0 1.4 0 2.1.1h1.2c.9.1 1.4.2 1.6.3.4-.1.5.1.7.5zm-14.3-24v.6c0 .3.1.6.1.9 0 .3 0 .6.1.9v.6c0 .2-.1.4-.2.4-.1.1-.5.2-1 .2-.9.1-1.7.2-2.5.1H127v2.9c-.1.5-.1.9-.1 1.4V62.9c.1.5.1.8.1 1.1v1.8c0 .4 0 .7.1 1v1.4c0 .4 0 .8-.1 1.3s-.1 1-.1 1.5-.1 1-.1 1.5c-.1.4-.1.8-.1 1.1v3.6c0 .8-.1 1.6-.2 2.5 0 .3-.2.5-.5.5-1.2.3-2.5.3-3.7 0-.3 0-.5-.2-.5-.4v-.7-1.3-1.3c-.1-.8-.1-1.6-.1-2.4 0-.8 0-1.6.1-2.3.1-.9.1-1.7.1-2.6v-2.6-1.3c0-.4-.1-.9-.1-1.3 0-.6-.1-1.2-.1-1.8 0-.6 0-1.2.1-1.8v-.5c-.1-.5-.1-1.1-.1-1.6v-1.7h-2.8c-.6 0-1.1 0-1.3-.1-.2 0-.4-.2-.7-.4-.1-.1-.2-.2-.3-.4-.4-.9-.6-1.9-.5-2.8.1-.2.2-.4.4-.5.2-.1.5-.2 1-.3.4-.1.8-.1 1.3-.1.4 0 .8 0 1.3-.1 1-.1 1.9-.1 2.9-.1H130.7c.8 0 1.3.2 1.6.5-.1.3 0 .4 0 .5zM103.7 64c-.1-.1-.2 0-.2.3v1.1c0 .4 0 .9.1 1.4V68c.1.6.1 1.2.1 1.7v10.8c0 .3 0 .6-.1.8-.1.3-.1.5-.2.8-.1.3-.4.5-.7.6-.7.1-1.3.1-1.8 0-.5 0-1.1-.1-1.7-.3-.1-.1-.2-.1-.3-.1-.1 0-.2-.1-.3-.1-.2-.1-.4-.3-.4-.6V81v-1.3-1.2-.6-1.5c0-.8.1-1.7.1-2.7v-3.1-2.9c0-.4-.1-1-.1-1.8 0-.9-.1-1.8-.1-2.7 0-1-.1-1.8-.1-2.6V59v-2.3-1.5-4-.8c0-.3.1-.5.1-.8 0-.2.2-.4.4-.5.2-.1.4-.1.6-.2.2-.1.4-.1.7-.1h3c.1 0 .3 0 .6.1.2.1.4.3.5.6.1.4.2.8.4 1.2.1.5.2.9.3 1.4.1.5.2.9.3 1.2.2.7.4 1.4.6 2 .2.7.4 1.4.5 2 0 .2.1.5.2 1s.3 1.1.5 1.7c.2.7.4 1.4.6 2.2.2.8.4 1.5.6 2.2.2.7.3 1.3.5 1.9.1.5.2.9.3 1.2.1.2.1.5.2.7.1.2.2.5.2.8.1.1.2.1.2-.2 0-.2.1-.6.1-1v-1.5c0-.6 0-1.1-.1-1.7v-1.3-2.1-.9-1.2-1.2-.9c0-.6-.1-1.1-.1-1.6s-.1-1-.1-1.7v-1.8-1.5-.3-.4c0-.2.1-.3.2-.5s.4-.3.9-.3c.1 0 .3-.1.6-.1.2 0 .5-.1.8-.1h1.5c.4 0 .7.2.9.4.2.2.3.5.2.9-.1.7-.1 1.3-.2 2 0 .7-.1 1.3-.1 2V65.4c0 .6 0 1.3-.1 2 0 .7-.1 1.3-.1 1.9v11.9c0 .4-.1.6-.1.7-.1.2-.2.4-.5.5-.3.1-.5.1-.8.2h-2.1c-.2 0-.4 0-.6-.1-.2 0-.4-.1-.7-.1-.3-.1-.5-.1-.7-.3-.5-.2-.7-.6-.7-1-.1-.8-.2-1.6-.4-2.4-.2-.8-.4-1.6-.4-2.4-.2-1.5-.6-3-1-4.4-.4-1.5-.8-2.9-1.1-4.4-.1-.6-.3-1.3-.5-1.9.1-.4-.1-1-.4-1.6z"/>
  <path class="st0" d="M285.1 64c-.1-.1-.2 0-.2.3v1.1c0 .4 0 .9.1 1.4V68c.1.6.1 1.2.1 1.7v10.8c0 .3 0 .6-.1.8-.1.3-.1.5-.2.8-.1.3-.4.5-.7.6-.7.1-1.3.1-1.8 0-.5 0-1.1-.1-1.7-.3-.1-.1-.2-.1-.3-.1-.1 0-.2-.1-.3-.1-.2-.1-.4-.3-.4-.6V81v-1.3-1.2-.6-1.5c0-.8.1-1.7.1-2.7v-3.1-2.9c0-.4-.1-1-.1-1.8 0-.9-.1-1.8-.1-2.7 0-1-.1-1.8-.1-2.6V59v-2.3-1.5-4-.8c0-.3.1-.5.1-.8 0-.2.2-.4.4-.5.2-.1.4-.1.6-.2s.4-.1.7-.1h3c.1 0 .3 0 .6.1.2.1.4.3.5.6.1.4.2.8.4 1.2.1.5.2.9.3 1.4.1.5.2.9.3 1.2.2.7.4 1.4.6 2 .2.7.4 1.4.5 2 0 .2.1.5.2 1s.3 1.1.5 1.7c.2.7.4 1.4.6 2.2.2.8.4 1.5.6 2.2.2.7.3 1.3.5 1.8.1.5.2.9.3 1.2.1.2.1.5.2.7.1.2.2.5.2.8.1.1.2.1.2-.2 0-.2.1-.6.1-1v-1.5c0-.6 0-1.1-.1-1.7v-1.3-2.1-.9V59v-1.2-.9c0-.6-.1-1.1-.1-1.6s-.1-1-.1-1.7v-1.8-1.5-.3-.4c0-.2.1-.3.2-.5s.4-.3.9-.3c.1 0 .3-.1.6-.1.2 0 .5-.1.8-.1h1.5c.4 0 .7.2.9.4.2.3.3.5.2.9-.1.7-.1 1.3-.2 2 0 .7-.1 1.3-.1 2V65.3c0 .6 0 1.3-.1 2 0 .7-.1 1.3-.1 1.9v11.9c0 .4-.1.6-.1.7-.1.2-.2.4-.5.5-.3.1-.5.1-.8.2h-2.1c-.2 0-.4 0-.6-.1-.2 0-.4-.1-.7-.1-.3-.1-.5-.1-.7-.3-.5-.2-.7-.6-.7-1-.1-.8-.2-1.6-.4-2.4-.2-.8-.4-1.6-.4-2.4-.2-1.5-.6-3-1-4.4-.4-1.5-.8-2.9-1.1-4.4-.1-.6-.3-1.3-.5-1.9 0-.3-.2-.9-.4-1.5m-8.3-3.6c.1.8.1 1.6.1 2.4v2.4c0 1.4-.1 2.7-.1 4-.1 1.3-.1 2.7-.2 4v1.4c-.1.9-.1 1.6-.1 2.2 0 .6-.1 1.4-.1 2.2v.8c0 .2-.1.3-.2.5s-.3.2-.5.2h-1.4c-.5 0-1-.1-1.4-.2-.4-.1-.8-.3-1-.6-.3-.2-.4-.5-.4-.9v-.6c0-.2 0-.4.1-.6h-1.1c-.4 0-.7-.1-1-.1-.3 0-.7 0-1.1-.1-.4-.1-.9-.1-1.3-.2s-.7-.1-1-.2c-.3-.1-.5-.1-.5-.1-.9-.3-1.6-.7-2.2-1.3-.5-.5-1-1.1-1.4-1.7-.4-.6-.6-1.2-.7-1.9-.1-.7-.1-1.5 0-2.3.1-.7.3-1.3.6-1.7.3-.5.6-.9 1.1-1.4.2-.2.6-.5 1.1-.8.5-.3.8-.5 1.1-.6.7-.3 1.3-.5 1.9-.6.6-.1 1.4-.2 2.3-.3.8-.1 1.4-.1 1.8-.1h1.4v-.3-.3c.1-.6 0-1.4-.1-2.2-.1-.9-.2-1.6-.4-2.2-.1-.2-.2-.5-.2-.7-.1-.2-.2-.5-.4-.8-.2-.4-.5-.6-.7-.8-.2-.2-.5-.3-.9-.2-.3 0-.5.1-.7.2-.2.2-.4.3-.5.6-.1.2-.3.4-.4.6-.1.2-.1.4-.2.4-.1.4-.3.8-.4 1.2-.1.5-.2 1-.2 1.5 0 .2-.1.4-.1.6-.1.2-.2.3-.3.4-.2.1-.4.2-.7.2H265c-.5 0-.9-.1-1.1-.4-.2-.2-.4-.4-.5-.7-.1-.3-.1-.5-.1-.8v-.8-.4c0-.1 0-.2.1-.4.1-1 .3-1.9.5-2.5.2-.6.5-1.1.7-1.5.2-.4.4-.6.6-.8.2-.2.3-.4.5-.5.5-.4.9-.8 1.4-1.1.4-.3 1-.6 1.5-.7.8-.1 1.5-.2 2.2-.1.7.1 1.4.3 2.1.7.1.1.3.2.5.3.2.1.3.2.5.3.5.3.9.6 1.1 1 .3.4.6.8.8 1.3.4.8.6 1.7.8 2.5 0 .8.1 1.7.2 2.6zm-18.3 19.3c.1.3.1.6.2.9 0 .3.1.6.1 1 .1.4 0 .6 0 .7-.1.1-.3.2-.6.3-.3.1-.7.2-1.1.2-.4 0-.7 0-1.1.1h-.9c-.3 0-.6 0-.9-.1-.4-.1-.7-.2-.8-.4-.1-.1-.2-.5-.3-1 0-.3-.1-.6-.1-.9 0-.3-.1-.6-.1-.9-.1-.9-.3-1.7-.4-2.6-.1-.9-.3-1.7-.4-2.6-.1-.6-.2-1.1-.3-1.6-.1-.5-.2-1.1-.3-1.6-.1-.4-.1-.7-.2-1.1-.1-.4-.2-.7-.3-1.1-.2-.9-.4-1.7-.5-2.6-.1-.9-.3-1.7-.5-2.6-.1-.2 0-.4.1-.6.1-.2.4-.3.7-.3h2.6c.2 0 .5 0 .7.1.3.1.6.3.7.7.3 1.1.5 2.2.7 3.4.2 1.1.4 2.3.6 3.5.1.4.1.8.2 1.3.1.4.2.8.3 1.3.2 1.1.5 2.2.8 3.3.5 1.1.8 2.2 1.1 3.2zm-.3-28.4c1 1.2 1.4 2.5 1.2 4.1-.1.6-.2 1.2-.4 1.8-.2.6-.5 1.1-.7 1.7-.2.3-.4.6-.7.9-.3.3-.5.6-.8.8-.7.6-1.5 1.1-2.3 1.4-.9.3-1.7.5-2.7.5-.5 0-.9 0-1.4-.2-.5-.2-.8-.6-.8-1.1v-.9-.9c0-.4-.1-.8-.1-1.2 0-.4 0-.8.1-1.2v-.7c0-.3 0-.5-.1-.8v-1.8c0-.6 0-1.2-.1-1.8V51c0-.3.1-.6.1-.9.1-.3.1-.5.3-.6.1-.1.3-.2.7-.2.4-.1.8-.1 1.2-.2.4-.1.8-.1 1.2-.1.6-.1 1.1 0 1.7.1.5.1 1 .3 1.5.6.4.2.8.4 1.1.7.4.3.7.5 1 .9zM248.9 81c0 .8 0 1.2-.1 1.4-.1.2-.3.3-.8.4-.6.1-1.1.2-1.5.2-.4 0-.8 0-1.3-.1h-.6c-.1 0-.3-.1-.4-.2-.3-.2-.4-.5-.4-.9v-.4-.4-1.9-1.8c.1-1 .1-2 .1-3s-.1-2-.1-3v-2c0-.6.1-1.3.1-2 0-.6.1-1.2.1-1.7v-1.7c0-.4-.1-.7-.1-1.1v-1.3c0-.6-.1-1.2-.1-1.9s0-1.4.1-2.1v-1.3c0-.4-.1-.9-.1-1.3 0-.6-.1-1.3-.1-1.9 0-.6 0-1.3.1-1.9 0-.2.1-.5.1-.7.1-.2.1-.5.2-.7.1-.3.3-.5.7-.6h2.8c.3 0 .6.1.7.2.1.1.2.3.3.6.1.6.2 1.3.2 1.9 0 .6 0 1.3.1 1.9 0 .4.1.8.1 1 0 .2 0 .6-.1 1v1.8c.1 1 .1 1.9 0 2.7 0 .8-.1 1.7-.1 2.7v2.2c-.1.8-.1 1.6 0 2.4V71c0 .3 0 .8.1 1.3V81zM241 50.4c.1.9 0 1.9-.5 2.8 0 .1-.1.2-.1.2 0 .1-.1.1-.2.2-.2.2-.5.4-.7.4-.2 0-.6.1-1.3.1h-2.7V56.7c0 .7 0 1.4-.1 2.1v.6c.1.7.1 1.5.1 2.2 0 .7 0 1.4-.1 2.1 0 .5-.1 1-.1 1.5v4.5c0 1 .1 2 .1 3 .1.9.1 1.9.1 2.8 0 .9-.1 1.8-.1 2.8v4c0 .3-.2.4-.5.5-1.3.2-2.5.2-3.7 0-.3-.1-.5-.3-.5-.6-.1-1-.1-1.9-.2-2.9v-3V75c0-.4 0-.9-.1-1.3-.1-.6-.1-1.2-.1-1.8 0-.6-.1-1.2-.1-1.8-.1-.5-.1-1-.1-1.5v-1.7c.1-.4.1-.8.1-1.2v-1.2-1c0-.3 0-.7.1-1.2v-.4-.4-1.6c0-.5 0-1.1-.1-1.6-.1-.8-.1-1.6 0-2.4V55v-.9h-1.8c-.9 0-1.7 0-2.5-.1-.5-.1-.8-.1-1-.2-.1-.1-.2-.2-.2-.5v-.6c0-.3.1-.6.1-.9 0-.3 0-.6.1-.9v-.6c0-.1.1-.2.2-.4.3-.4.8-.5 1.6-.5h4.8c.9.1 1.9.1 2.9 0h2.9c.4 0 .8.1 1.3.1.4 0 .8.1 1.3.1.5.1.8.2 1 .3 0 .1.1.3.1.5zm-27 25.3c.4.1.6.1.7.2.1.1.1.2.1.5v1.5c0 .3 0 .6-.1.9v.6c0 .1 0 .3-.1.4-.2.4-.6.5-1.1.5h-7.9c-.3 0-.5 0-.7-.1H203.5c-.4-.1-.5-.3-.5-.7.1-.6.1-1.2.1-1.7 0-.6 0-1.2.1-1.7v-1.9c0-.6 0-1.2.1-1.8v-.5c-.1-.6-.1-1.2-.1-1.8 0-.6 0-1.2.1-1.9 0-.4.1-.9.1-1.3v-1.3V63c0-.9-.1-1.7-.1-2.6-.1-.8-.1-1.6-.1-2.4 0-.8.1-1.6.1-2.4v-1.3-1.4-.7c0-.2.2-.4.5-.4 1.3-.2 2.5-.2 3.7 0 .3 0 .5.2.5.5.1.9.1 1.7.2 2.5v2.5c0 .7 0 1.4.1 2.2.1.5.1 1 .1 1.5s.1 1 .1 1.5c.1.5.1.9.1 1.3v1.4c-.1.3-.1.7-.1 1v1.9c0 .2 0 .6-.1 1-.1.2-.1.5 0 .7v1.4c0 .5 0 .9.1 1.4.1.7.1 1.4 0 2v.6h4c.2.4.8.4 1.5.5zm-14.7-15.3c.1.8.1 1.6.1 2.4v2.4c0 1.4-.1 2.7-.1 4-.1 1.3-.1 2.7-.2 4v1.4c-.1.9-.1 1.6-.1 2.2 0 .6-.1 1.4-.1 2.2v.8c0 .2-.1.3-.2.5-.1.1-.3.2-.5.2h-1.4c-.5 0-1-.1-1.4-.2-.4-.1-.8-.3-1-.6-.3-.2-.4-.5-.4-.9v-.6c0-.2 0-.4.1-.6H193c-.4 0-.7-.1-1-.1-.3 0-.7 0-1.1-.1-.4-.1-.9-.1-1.3-.2s-.7-.1-1-.2c-.3-.1-.5-.1-.5-.1-.9-.3-1.6-.7-2.2-1.3-.5-.5-1-1.1-1.4-1.7-.4-.6-.6-1.2-.7-1.9-.1-.7-.1-1.5 0-2.3.1-.7.3-1.3.6-1.7.3-.5.6-.9 1.1-1.4.2-.2.6-.5 1.1-.8.5-.3.8-.5 1.1-.6.7-.3 1.3-.5 1.9-.6.6-.1 1.4-.2 2.3-.3.8-.1 1.4-.1 1.8-.1h1.4v-.3-.3c.1-.6 0-1.4-.1-2.2-.1-.9-.2-1.6-.4-2.2-.1-.2-.2-.5-.2-.7-.1-.2-.2-.5-.4-.8-.2-.4-.5-.6-.7-.8-.2-.2-.5-.3-.9-.2-.3 0-.5.1-.7.2-.2.2-.4.3-.5.6-.1.2-.3.4-.4.6-.1.2-.1.4-.2.4-.1.4-.3.8-.4 1.2-.1.5-.2 1-.2 1.5 0 .2-.1.4-.1.6-.1.2-.2.3-.3.4-.2.1-.4.2-.7.2h-1.4c-.5 0-.9-.1-1.1-.4-.3-.2-.4-.4-.5-.7-.1-.3-.1-.5-.1-.8v-.8-.4c0-.1 0-.2.1-.4.1-1 .3-1.9.5-2.5.2-.6.5-1.1.7-1.5.2-.4.4-.6.6-.8.2-.2.3-.4.5-.5.5-.4.9-.8 1.4-1.1.4-.3 1-.6 1.5-.7.8-.1 1.5-.2 2.2-.1.7.1 1.4.3 2.1.7.1.1.3.2.5.3.2.1.3.2.5.3.5.3.9.6 1.1 1 .3.4.6.8.8 1.3.4.8.6 1.7.8 2.5 0 .8.1 1.7.2 2.6z"/>
  <path class="st0" d="M307.3 59.1c-.4-.1-.6-.4-.5-.8 0-.4.1-.6.1-.8v-.9-.9c0-.3-.1-.5-.1-.6l-.3-.6c-.1-.2-.3-.4-.5-.5-.3-.2-.7-.3-1.2-.2-.5.1-.9.3-1.3.6-.1.1-.2.4-.3.6-.1.3-.1.5-.1.8v.8c0 .3 0 .5.1.7.2 1.1.6 2.1 1.1 2.9.3.4.6.8.9 1.3.3.4.6.9.9 1.3.4.6.8 1.1 1.1 1.6.4.6.7 1 1 1.3.2.3.5.7.8 1.1.9 1.2 1.6 2.4 2.2 3.7.5 1.3.9 2.7 1 4.1v2.1c-.1 1.7-.9 3.1-2.2 4.3l-.3.3-.3.3c-.4.3-.9.6-1.4.7-.5.2-1 .3-1.5.3h-1.7c-.5 0-1.1-.1-1.6-.3-.4-.1-.8-.3-1.1-.4-.3-.2-.6-.4-1-.7-.3-.3-.6-.6-.9-.8-.3-.3-.5-.6-.7-.9-.1-.1-.1-.2-.2-.3-.1-.1-.1-.2-.2-.3l-.6-1.8c-.1-.6-.2-1.2-.2-1.9v-1.1c0-.4 0-.8.1-1.1 0-.4.1-.7.1-.9 0-.3.1-.4.1-.5.2-.4.6-.7 1.1-.7h.4c.8.2 1.6.4 2.4.7.3.1.5.2.6.4.1.1.1.3.1.6-.1.4-.1.8-.1 1.2v1.3c.1.6.1 1 .2 1.5.1.4.3.8.6 1.1.3.2.7.4 1.3.5.5.1 1 0 1.5-.3.3-.2.6-.6.8-1 .2-.4.3-.8.3-1.3s0-1-.2-1.6c-.2-.5-.4-1-.6-1.4-.3-.5-.5-1-.8-1.5-.3-.5-.6-.9-.9-1.4-.3-.4-.6-.8-.8-1.3-.3-.4-.5-.9-.7-1.3-.2-.3-.4-.6-.6-1-.2-.3-.4-.6-.6-1-.4-.6-.7-1.1-1-1.5-.2-.4-.5-.9-.7-1.4-.1-.1-.1-.3-.2-.4-.1-.1-.2-.3-.2-.4-.6-.8-.9-1.7-1.2-2.6-.2-.9-.4-1.8-.4-2.8-.1-1.2 0-2.3.3-3.3.2-.8.6-1.4 1.3-2 .9-.7 2-1.1 3.2-1.3.9-.1 1.9-.2 2.9 0 1 .1 1.8.4 2.6.9.4.3.8.7 1.2 1.1.4.4.6.9.9 1.4.1.4.3.7.3 1.1.1.4.1.8.2 1.2V58c0 1-.5 1.5-1.6 1.5h-1.9c-.8-.3-.9-.4-1-.4"/>
  <path class="st1" d="M72.9 114.4v-1.3-1.8-1.6-.8c0-.1 0-.4.1-.8v-1.5-1.4-.8-.6-.6-.2-.2c.1-.1.1-.1.3-.2h.4c.2 0 .4 0 .6.1s.4.1.7.1c.2 0 .4.1.6.2.1 0 .3.1.6.2s.7.3 1.2.6 1 .7 1.3 1c.3.3.6.7.8 1 .3.4.6.8.8 1.1.2.3.4.8.5 1.3.1.2.1.5.2.9s.1.8.2 1.2c0 .4.1.8.1 1.1 0 .3.1.6.1.7v1.4c-.1.5-.1.9-.2 1.4 0 .2-.1.5-.2.7-.1.2-.1.5-.2.7-.1.3-.2.6-.4 1s-.4.7-.6 1.1c-.2.3-.4.5-.5.7-.1.2-.3.3-.4.5s-.3.3-.4.4l-.5.5c-.4.3-.9.5-1.4.8-.5.3-1.1.5-1.6.6-.5 0-.9.1-1.2.1-.3 0-.5 0-.5-.1-.1-.1-.1-.2-.2-.4 0-.2-.1-.4-.1-.6v-.5-.3-1.7-1.8-1.5c-.1-.2-.1-.5-.1-.7m-7.3 5.3v2c-.1.2-.2.3-.4.3-.3.1-.7.1-1 .2-.4 0-.7.1-1 0H57.9c-.2 0-.3-.1-.3-.3v-.4-1.1V113.2v-.3-.2-.4V111.1v-.5-.9-.9c0-.4-.1-.7-.1-1.1 0-.4-.1-.7-.1-1.1v-1.2-.5-.5-.3-.3-.1c0-.2.1-.3.3-.4.2-.2.7-.3 1.4-.4h1.2c.5 0 1-.1 1.5-.1h2.4c.6 0 1 .1 1.2.2.2.1.3.3.4.6V105c0 .2 0 .4-.1.5 0 .2-.2.3-.4.4-.4.1-.7.1-1.1.2-.4 0-.7.1-1.1 0h-2.2v1.6c0 .3 0 .7.1 1.1 0 .4.1.8.1 1.1 0 .4 0 .8-.1 1.1v2.1h3.6c.4 0 .6.2.7.4v.3c0 .3-.1.7-.1 1 0 .3 0 .7-.1 1-.1.3-.3.5-.8.4-.6 0-1.1-.1-1.7-.1h-1.8v2.7c.5 0 1-.1 1.4-.1h2.2c.6 0 .9.1 1.1.2 0 .3.1.5.1.8zM55 121.6c.1.2.1.4.1.6 0 .2 0 .4.1.7v.5c-.1.1-.2.1-.4.2s-.5.1-.7.1h-1.9c-.3-.1-.5-.1-.5-.2-.1-.1-.1-.3-.2-.7 0-.2 0-.4-.1-.6 0-.2 0-.4-.1-.6-.1-.6-.2-1.2-.3-1.7-.1-.6-.2-1.2-.3-1.7-.1-.4-.1-.7-.2-1.1-.1-.4-.1-.7-.2-1.1 0-.3-.1-.5-.2-.7-.1-.2-.1-.5-.2-.7-.1-.6-.2-1.2-.3-1.7-.1-.6-.2-1.2-.3-1.7 0-.2 0-.3.1-.4.1-.1.2-.2.4-.2H51.6c.2 0 .3 0 .5.1s.4.2.5.5c.2.8.3 1.5.5 2.3.1.8.3 1.6.4 2.4 0 .3.1.6.2.8.1.3.1.6.2.8.2.8.3 1.5.5 2.2.3.5.5 1.2.6 1.9zm-.1-19.2c.7.8 1 1.7.8 2.8 0 .4-.1.8-.3 1.2-.1.4-.3.8-.5 1.1-.1.2-.3.4-.4.6-.2.2-.4.4-.5.6-.5.4-1 .8-1.6 1-.6.2-1.2.3-1.8.3-.3 0-.6 0-1-.1s-.5-.4-.5-.7v-.6-.6-.8-.8-.5-.5-1.2-1.2-.6c0-.2 0-.4.1-.6 0-.2.1-.4.2-.4.1-.1.2-.1.4-.2.3 0 .6-.1.8-.1.3 0 .5-.1.8-.1h1.1c.4.1.7.2 1 .4.3.1.5.3.8.5.2.1.4.3.6.5zm-6.4 20.1v1c0 .1-.2.2-.6.3-.4.1-.8.1-1 .1h-1.3c-.1 0-.2 0-.3-.1-.2-.1-.3-.3-.3-.6v-.2-.2-1.3-1.2c0-.7.1-1.4 0-2.1 0-.7 0-1.4-.1-2.1v-1.3c0-.4 0-.9.1-1.3 0-.4 0-.8.1-1.2v-1.2-.7-.9-1.3-1.4-.9-.9-1.3-1.3c0-.2 0-.3.1-.5 0-.2.1-.3.1-.5.1-.2.2-.3.5-.4h1.8c.2 0 .4.1.5.1.1.1.2.2.2.4.1.4.2.9.2 1.3v5.7c0 .5 0 1.1-.1 1.8v5.5c0 .2 0 .5.1.8V122.5zm-11.7-13.1c-.3 0-.4 0-.5-.1-.1-.1-.2-.2-.2-.4v-.5-.5c0-.7.1-1.5.1-2.2v-2.2-.8c0-.2.1-.5.1-.8.1-.5.4-.8 1-.9.4-.1.9-.1 1.2 0 .4 0 .8.2 1.2.4.1 0 .1.1.2.1s.1.1.2.1c.5.2.9.5 1.2.8.3.3.6.7.8 1.2.2.4.3.7.3 1v.8c0 .2 0 .5-.1.8-.2.7-.6 1.2-1.1 1.7-.2.2-.4.4-.6.5-.2.1-.4.3-.7.4-.3.1-.5.2-.7.3-.2.1-.5.1-.9.2h-.8c-.3.1-.5.1-.7.1zm5.8 5.3c.2.7.3 1.4.3 2.1 0 .5 0 1-.1 1.6 0 .6-.2 1.2-.5 1.9-.3.5-.5.9-.8 1.2-.2.3-.5.6-.9.9-.1.1-.3.2-.6.5l-.9.6c-.2.1-.5.2-.8.3-.3.1-.7.2-1 .1-.6 0-.9-.1-1-.3v-.1-.1-.3-.4c.1-.6.1-1.2.1-1.8V119v-.8-1.6c0-.6 0-1.2-.1-1.8 0-.6-.1-1.1-.1-1.4 0-.3-.1-.7-.1-1v-1c0-.3 0-.6.1-.8.1-.4.4-.6.9-.6h.8c.5 0 1 .2 1.5.4.4.2.9.5 1.3.8.1.1.2.2.4.3.1.1.2.3.4.4.2.2.4.5.5.8l.3.9c0 .2.1.3.1.5.1.3.2.4.2.6zm-7.1-3V116.5l.1 3.2v.7c0 .2 0 .4-.1.7v1.1c0 .4 0 .7-.1 1.1v.3c0 .2-.1.3-.3.4-.1 0-.2.1-.3.1H32.9c-.1 0-.2 0-.4-.1s-.4-.2-.4-.4v-.4c0-.3.1-.7.1-1v-1-.8-1.1-1-.6-.7-1.1-1.1-.8c.1-.9.1-1.7 0-2.6v-2.6-1.1-1.4-1.2-.6-.5-.5-.7-.7c0-.3 0-.4.1-.5.1-.1.2-.1.5-.1.3-.1.7-.1 1.1-.1.4 0 .8 0 1.1.1.2.1.3.2.4.5 0 .3.1.5.1.6v2c0 .4 0 .8-.1 1.3v5.7c.1-.2.1 0 .1.1zM28.8 101c.3.2.5.4.6.8.1.4.2.8.1 1.2 0 .3-.1.6-.3.7-.1.2-.3.3-.6.5-.1.1-.3.1-.5.1s-.4.1-.5.1c-.4 0-.8-.1-1.1-.4-.4-.3-.6-.6-.6-1-.1-.7.1-1.3.7-1.8s1.3-.7 2.1-.4c0 .2 0 .2.1.2zm.4 21.1c0 .1 0 .2.1.4 0 .1 0 .2.1.4s0 .4 0 .6c-.1.2-.2.4-.4.4-.9.1-1.7.1-2.5 0-.2 0-.3-.2-.4-.4 0-.2-.1-.5-.1-.7v-.8c0-.7.1-1.3.1-2s0-1.3.1-2v-.9-.9-1.3-1.3-1.1-1.7-1.7-1.1-.6-.6-.3-.3c0-.2.1-.3.4-.4h1.3c.3 0 .6 0 .9.1.2 0 .4.1.4.2.1.1.1.2.1.4V121.4c-.1-.1-.1.3-.1.7zm-6.1-3.2c.2 0 .4.1.5.1.1.1.1.2.1.3v2c0 .1 0 .2-.1.3-.1.2-.4.4-.8.4h-5.5c-.2 0-.3 0-.5-.1h-1c-.2-.1-.4-.2-.4-.4 0-.4.1-.8.1-1.2 0-.4 0-.8.1-1.2v-1.3c0-.4 0-.8.1-1.2v-.4c0-.4-.1-.8 0-1.2v-1.2c0-.3 0-.6.1-.9v-.9-1.7c0-.6 0-1.2-.1-1.7 0-.5-.1-1.1 0-1.6 0-.5 0-1.1.1-1.6v-.9-.9-.4c0-.2.1-.3.4-.3.9-.2 1.7-.1 2.5 0 .2 0 .3.1.3.3.1.6.1 1.1.1 1.7v1.7c0 .5 0 1 .1 1.5 0 .3.1.7.1 1 0 .4 0 .7.1 1 0 .3.1.6.1.9v1c0 .2-.1.4 0 .7V114c0 .2 0 .4-.1.7-.1.2-.1.3 0 .5V118.9H23.1z"/>
  <path class="st1" d="M138.4 121.6c.1.2.1.4.1.6 0 .2 0 .4.1.7v.5c-.1.1-.2.1-.4.2s-.5.1-.7.1h-1.9c-.3-.1-.5-.1-.5-.2-.1-.1-.1-.3-.2-.7 0-.2 0-.4-.1-.6 0-.2 0-.4-.1-.6-.1-.6-.2-1.2-.3-1.7-.1-.6-.2-1.2-.3-1.7-.1-.4-.1-.7-.2-1.1-.1-.4-.1-.7-.2-1.1 0-.3-.1-.5-.2-.7-.1-.2-.1-.5-.2-.7-.1-.6-.2-1.2-.3-1.7-.1-.6-.2-1.2-.3-1.7 0-.2 0-.3.1-.4.1-.1.2-.2.4-.2H135c.2 0 .3 0 .5.1s.4.2.5.5c.2.8.3 1.5.5 2.3.1.8.3 1.6.4 2.4 0 .3.1.6.2.8.1.3.1.6.2.8.2.8.3 1.5.5 2.2.2.5.4 1.2.6 1.9m-.1-19.2c.7.8 1 1.7.8 2.8 0 .4-.1.8-.3 1.2-.1.4-.3.8-.5 1.1-.1.2-.3.4-.4.6-.2.2-.4.4-.5.6-.5.4-1 .8-1.6 1-.6.2-1.2.3-1.8.3-.3 0-.6 0-1-.1s-.5-.4-.5-.7v-.6-.6-.8-.8-.5-.5-1.2-1.2-.6c0-.2 0-.4.1-.6 0-.2.1-.4.2-.4.1-.1.2-.1.4-.2.3 0 .6-.1.8-.1.3 0 .5-.1.8-.1h1.1c.4.1.7.2 1 .4.3.1.5.3.8.5.1.1.4.3.6.5zm-6.4 20.1v1c0 .1-.2.2-.6.3-.4.1-.8.1-1 .1H129c-.1 0-.2 0-.3-.1-.2-.1-.3-.3-.3-.6v-.2-.2-1.3-1.2c0-.7.1-1.4 0-2.1 0-.7 0-1.4-.1-2.1v-1.3c0-.4 0-.9.1-1.3 0-.4 0-.8.1-1.2v-1.2-.7-.9-1.3-1.4-.9-.9-1.3-1.3c0-.2 0-.3.1-.5 0-.2.1-.3.1-.5.1-.2.2-.3.5-.4h1.8c.2 0 .4.1.5.1.1.1.2.2.2.4.1.4.2.9.2 1.3v5.7c0 .5 0 1.1-.1 1.8v5.5c0 .2 0 .5.1.8V122.5zm-6-.9c.1.2.1.4.1.6 0 .2 0 .4.1.7v.5c-.1.1-.2.1-.4.2s-.5.1-.7.1h-1.9c-.3-.1-.5-.1-.5-.2-.1-.1-.1-.3-.2-.7 0-.2 0-.4-.1-.6 0-.2 0-.4-.1-.6-.1-.6-.2-1.2-.3-1.7-.1-.6-.2-1.2-.3-1.7-.1-.4-.1-.7-.2-1.1-.1-.4-.1-.7-.2-1.1 0-.3-.1-.5-.2-.7-.1-.2-.1-.5-.2-.7-.1-.6-.2-1.2-.3-1.7-.1-.6-.2-1.2-.3-1.7 0-.2 0-.3.1-.4.1-.1.2-.2.4-.2H122.5c.2 0 .3 0 .5.1s.4.2.5.5c.2.8.3 1.5.5 2.3.1.8.3 1.6.4 2.4 0 .3.1.6.2.8.1.3.1.6.2.8.2.8.3 1.5.5 2.2.2.5.4 1.2.6 1.9zm-.2-19.2c.7.8 1 1.7.8 2.8 0 .4-.1.8-.3 1.2-.1.4-.3.8-.5 1.1-.1.2-.3.4-.4.6-.2.2-.4.4-.5.6-.5.4-1 .8-1.6 1-.6.2-1.2.3-1.8.3-.3 0-.6 0-1-.1s-.5-.4-.5-.7v-.6-.6-.8-.8-.5-.5-1.2-1.2-.6c0-.2 0-.4.1-.6 0-.2.1-.4.2-.4.1-.1.2-.1.4-.2.3 0 .6-.1.8-.1.3 0 .5-.1.8-.1h1.1c.4.1.7.2 1 .4.3.1.5.3.8.5.2.1.4.3.6.5zm-6.4 20.1v1c0 .1-.2.2-.6.3-.4.1-.8.1-1 .1h-1.3c-.1 0-.2 0-.3-.1-.2-.1-.3-.3-.3-.6v-.2-.2-1.3-1.2c0-.7.1-1.4 0-2.1 0-.7 0-1.4-.1-2.1v-1.3c0-.4 0-.9.1-1.3 0-.4 0-.8.1-1.2v-1.2-.7-.9-1.3-1.4-.9-.9-1.3-1.3c0-.2 0-.3.1-.5s.1-.3.1-.5c.1-.2.2-.3.5-.4h1.8c.2 0 .4.1.5.1.1.1.2.2.2.4.1.4.2.9.2 1.3v5.7c0 .5 0 1.1-.1 1.8v5.5c0 .2 0 .5.1.8V122.5zm-5.6-13.9c0 .6.1 1.1.1 1.7v1.7c0 .9 0 1.8-.1 2.7 0 .9-.1 1.8-.1 2.7v1c0 .6-.1 1.1-.1 1.5 0 .4 0 .9-.1 1.5v.5c0 .1-.1.2-.1.3-.1.1-.2.1-.3.1h-1c-.3 0-.6-.1-.9-.2-.3-.1-.5-.2-.7-.4-.2-.2-.3-.4-.2-.6v-.4-.4h-.8c-.3 0-.5 0-.7-.1-.2 0-.5 0-.8-.1-.3 0-.6-.1-.8-.1-.3 0-.5-.1-.7-.1-.2 0-.3-.1-.3-.1-.6-.2-1.1-.5-1.5-.9-.4-.4-.7-.7-.9-1.2-.2-.4-.4-.8-.4-1.3-.1-.5 0-1 0-1.6.1-.5.2-.8.4-1.2.2-.3.4-.6.7-.9.2-.2.4-.3.7-.6.3-.2.6-.4.7-.4.5-.2.9-.4 1.3-.4.4-.1.9-.1 1.6-.2.5 0 .9-.1 1.2-.1h1v-.2-.2-1.5c-.1-.6-.2-1.1-.3-1.5-.1-.2-.1-.3-.1-.4 0-.1-.1-.3-.2-.6-.2-.2-.3-.4-.4-.6-.1-.1-.3-.2-.6-.2-.2 0-.3.1-.5.2-.1.1-.3.2-.4.4-.1.1-.2.3-.2.4-.1.1-.1.2-.1.3-.1.2-.2.5-.2.8-.1.3-.1.6-.1 1 0 .1 0 .3-.1.4 0 .1-.1.2-.2.3-.1.1-.3.1-.5.1h-.9c-.3 0-.6-.1-.8-.2-.2-.1-.3-.3-.4-.5-.1-.2-.1-.4-.1-.6v-.5-.3-.3c.1-.7.2-1.3.4-1.7.2-.4.3-.8.4-1 .1-.2.3-.4.4-.6l.3-.3c.3-.3.6-.6.9-.8.3-.2.6-.4 1-.5.5-.1 1-.1 1.5-.1s1 .2 1.4.5c.1.1.2.1.3.2.1.1.2.1.3.2.3.2.6.4.8.7.2.3.4.6.5.9.2.6.4 1.1.5 1.7 0 .9.1 1.5.2 2.1zm-14.7-.9c-.3-.1-.4-.3-.4-.5s0-.4.1-.5v-.6-.6c0-.2 0-.3-.1-.4-.1-.1-.1-.3-.2-.4-.1-.1-.2-.2-.4-.3-.2-.2-.4-.2-.8-.2-.3 0-.6.2-.8.4-.1.1-.2.2-.2.4s-.1.4-.1.6v1.1c.1.8.4 1.4.8 2 .2.3.4.6.6.8l.6.9c.3.4.5.7.7 1.1.3.4.5.7.7.9.2.2.3.5.6.7.6.8 1.1 1.6 1.5 2.5.4.9.6 1.8.7 2.8v1.4c-.1 1.2-.6 2.1-1.5 2.9l-.2.2-.2.2c-.3.2-.6.4-.9.5-.3.1-.7.2-1 .2h-1.1c-.4 0-.7-.1-1.1-.2-.3-.1-.5-.2-.7-.3-.2-.1-.4-.3-.7-.5l-.6-.6c-.2-.2-.4-.4-.5-.6 0-.1-.1-.2-.1-.2 0-.1-.1-.1-.1-.2-.2-.4-.3-.8-.4-1.2-.1-.4-.1-.8-.1-1.3v-.7c0-.3 0-.5.1-.8 0-.2.1-.4.1-.6 0-.2.1-.3.1-.3.1-.3.4-.4.7-.4H94c.5.1 1.1.3 1.6.4.2.1.3.2.4.2 0 .1.1.2 0 .4 0 .3-.1.5-.1.8v.9c0 .4.1.7.1 1 0 .3.2.5.4.7.2.2.5.3.8.3.3.1.7 0 1-.2.2-.2.4-.4.5-.7.1-.3.2-.6.2-.8 0-.3 0-.7-.1-1.1-.1-.4-.2-.7-.4-1-.2-.3-.4-.7-.6-1-.2-.3-.4-.6-.6-1l-.6-.9c-.2-.3-.3-.6-.5-.9-.1-.2-.3-.4-.4-.7-.1-.2-.3-.4-.4-.7-.3-.4-.5-.7-.7-1-.2-.3-.3-.6-.5-.9 0-.1-.1-.2-.1-.3 0-.1-.1-.2-.2-.3-.4-.6-.6-1.1-.8-1.8-.1-.6-.2-1.2-.3-1.9-.1-.8 0-1.5.2-2.2.1-.5.4-1 .9-1.3.6-.5 1.3-.8 2.2-.9.6-.1 1.3-.1 1.9 0 .7.1 1.2.3 1.8.6.3.2.6.5.8.7.2.3.4.6.6 1 .1.2.2.5.2.7 0 .2.1.5.1.8V106.7c0 .7-.4 1-1.1 1H99c.1 0 0 0 0 0zm-7.8 12v2c-.1.2-.2.3-.4.3-.3.1-.7.1-1 .2-.4 0-.7.1-1 0H83.5c-.2 0-.3-.1-.3-.3v-.4-1.1V113.2v-.3-.2-.4V111.1v-.5-.9-.9c0-.4-.1-.7-.1-1.1 0-.4-.1-.7-.1-1.1v-1.2-.5-.5-.3-.3-.1c0-.2.1-.3.3-.4.2-.2.7-.3 1.4-.4h1.2c.5 0 1-.1 1.5-.1h2.4c.6 0 1 .1 1.2.2.2.1.3.3.4.6V105c0 .2 0 .4-.1.5 0 .2-.2.3-.4.4-.4.1-.7.1-1.1.2-.4 0-.7.1-1.1 0h-2.2v1.6c0 .3 0 .7.1 1.1 0 .4.1.8.1 1.1 0 .4 0 .8-.1 1.1v2.1h3.6c.4 0 .6.2.7.4v.3c0 .3-.1.7-.1 1 0 .3 0 .7-.1 1-.1.3-.3.5-.8.4-.6 0-1.1-.1-1.7-.1h-1.8v2.7c.5 0 1-.1 1.4-.1H90c.6 0 .9.1 1.1.2-.1.3 0 .5.1.8z"/>
  <path class="st1" d="M217.3 119.7v2c-.1.2-.2.3-.4.3-.3.1-.7.1-1 .2-.4 0-.7.1-1 0H209.6c-.2 0-.3-.1-.3-.3v-.4-1.1V113.2v-.3-.2-.4V111.1v-.5-.9-.9c0-.4-.1-.7-.1-1.1 0-.4-.1-.7-.1-1.1v-1.2-.5-.5-.3-.3-.1c0-.2.1-.3.3-.4.2-.2.7-.3 1.4-.4h1.2c.5 0 1-.1 1.5-.1h2.4c.6 0 1 .1 1.2.2.2.1.3.3.4.6V105c0 .2 0 .4-.1.5 0 .2-.2.3-.4.4-.4.1-.7.1-1.1.2-.4 0-.7.1-1.1 0h-2.2v1.6c0 .3 0 .7.1 1.1 0 .4.1.8.1 1.1 0 .4 0 .8-.1 1.1v2.1h3.6c.4 0 .6.2.7.4v.3c0 .3-.1.7-.1 1 0 .3 0 .7-.1 1-.1.3-.3.5-.8.4-.6 0-1.1-.1-1.7-.1h-1.8v2.7c.5 0 1-.1 1.4-.1h2.2c.6 0 .9.1 1.1.2-.1.3 0 .5.1.8m-10.2-13.2c.4.9.5 1.7.3 2.6-.1.4-.2.7-.4 1.1-.1.3-.3.7-.6 1-.1.2-.3.4-.4.6-.2.2-.3.3-.5.4-.4.3-.7.5-1 .6-.3.1-.6.3-1 .5-.3.1-.7.2-1 .3h-1.1v1.2c0 .4.1.9.1 1.3s0 .9.1 1.3V121.3c0 .4-.1.6-.2.7-.1.1-.3.2-.7.2h-1.5c-.3 0-.5-.1-.6-.2-.1-.1-.1-.2-.2-.3-.1-.2-.1-.4-.1-.5 0-.2 0-.4-.1-.6v-1.3-1.5-1.6-.7-2.4-.7-.7c0-.5-.1-.9-.1-1.4v-1.4-.5-.5c0-.3 0-.6-.1-.9v-2.6-.6-.6c0-.2.1-.3.1-.5.1-.2.3-.2.6-.2h2.2c.3 0 .4.1.5.2 0 .1.1.3 0 .6v.5c.3-.1.7-.1 1.2-.1.4 0 .7 0 1.1.1.3.1.7.2 1 .4.1.1.2.1.2.1.5.2.9.4 1.3.8.4.5.7.9.9 1.4zm-23.8-.3V120c0 .1 0 .2-.1.2 0 .1-.1.1-.2.1h-.8c-.2 0-.4-.1-.6-.1-.2 0-.3-.1-.5-.1-.1 0-.2-.1-.5-.2-.2-.1-.6-.2-1-.5s-.8-.5-1-.8c-.2-.3-.5-.6-.6-.8-.3-.3-.5-.6-.6-.9-.1-.3-.3-.6-.4-1.1-.1-.2-.1-.4-.1-.7 0-.3-.1-.6-.1-1 0-.3-.1-.6-.1-.9v-.6-1.1c0-.4.1-.7.2-1.1 0-.2.1-.4.1-.6 0-.2.1-.4.2-.6.1-.2.2-.5.3-.8.1-.3.3-.6.5-.9.2-.2.3-.4.4-.5.1-.1.2-.3.3-.4l.3-.3c.1-.1.3-.2.4-.4.3-.2.7-.5 1.2-.7.4-.2.9-.4 1.3-.5.4 0 .7 0 1-.1.3 0 .4 0 .4.1.1 0 .1.1.1.3 0 .1 0 .3.1.4v.4c-.2.3-.2.4-.2.4zm7.8 6.2v1.1c0 .4-.1.7-.2 1.1 0 .2-.1.4-.1.6 0 .2-.1.4-.2.6-.1.2-.2.5-.3.8-.1.3-.3.6-.5.9-.2.2-.3.4-.4.6-.1.1-.2.3-.3.4l-.3.3c-.1.1-.3.2-.4.4-.3.2-.7.5-1.1.7-.4.2-.9.4-1.3.5-.4 0-.7.1-1 .1-.3 0-.4 0-.4-.1-.1 0-.1-.1-.1-.3 0-.1 0-.3-.1-.4v-.4-.2-1.4-1.4-1.2-.7-1.1-1.4-1.3-.7-.7-1.2-1.2-.6-.4-.5-.2c0-.1.1-.1.2-.1h.8c.4 0 .7.1 1 .2.1 0 .2.1.5.2.2.1.6.2 1 .5s.8.5 1 .8c.2.3.5.6.7.8.3.3.5.6.6.9.1.3.3.6.4 1.1.1.2.1.4.2.7 0 .3.1.6.1 1 0 .3.1.6.1.9.1.1.1.2.1.3zm-16.5 6.5c.2 0 .4.1.5.1.1.1.1.2.1.3v2c0 .1 0 .2-.1.3-.1.2-.4.4-.8.4h-5.5c-.2 0-.3 0-.5-.1H167.4c-.2-.1-.4-.2-.4-.4 0-.4.1-.8.1-1.2 0-.4 0-.8.1-1.2v-1.3c0-.4 0-.8.1-1.2v-.4c0-.4-.1-.8 0-1.2v-1.3c0-.3 0-.6.1-.9v-.9-1.7c0-.6 0-1.2-.1-1.7 0-.5-.1-1.1 0-1.6 0-.5 0-1.1.1-1.6v-.9-.9-.4c0-.2.1-.3.4-.3.9-.2 1.7-.1 2.5 0 .2 0 .3.1.3.3.1.6.1 1.1.1 1.7v1.7c0 .5 0 1 .1 1.5 0 .3.1.7.1 1 0 .4 0 .7.1 1 0 .3.1.6.1.9v1c0 .2-.1.4 0 .7V113.9c0 .2 0 .4-.1.7-.1.2-.1.3 0 .5V118.8h2.8c0 .1.4.1.8.1zm-10 0c.2 0 .4.1.5.1.1.1.1.2.1.3v2c0 .1 0 .2-.1.3-.1.2-.4.4-.8.4h-5.5c-.2 0-.3 0-.5-.1H157.4c-.2-.1-.4-.2-.4-.4 0-.4.1-.8.1-1.2 0-.4 0-.8.1-1.2v-1.3c0-.4 0-.8.1-1.2v-.4c0-.4-.1-.8 0-1.2v-1.3c0-.3 0-.6.1-.9v-.9-1.7c0-.6 0-1.2-.1-1.7 0-.5-.1-1.1 0-1.6 0-.5 0-1.1.1-1.6v-.9-.9-.4c0-.2.1-.3.4-.3.9-.2 1.7-.1 2.5 0 .2 0 .3.1.3.3.1.6.1 1.1.1 1.7v1.7c0 .5 0 1 .1 1.5 0 .3.1.7.1 1 0 .4 0 .7.1 1 0 .3.1.6.1.9v1c0 .2-.1.4 0 .7V113.9c0 .2 0 .4-.1.7-.1.2-.1.3 0 .5V118.8h2.8c0 .1.4.1.8.1zm-17.1-12.7V120c0 .1 0 .2-.1.2 0 .1-.1.1-.2.1h-.8c-.2 0-.4-.1-.6-.1-.2 0-.3-.1-.5-.1-.1 0-.2-.1-.5-.2-.2-.1-.6-.2-1-.5s-.8-.5-1-.8c-.2-.3-.5-.6-.6-.8-.3-.3-.5-.6-.6-.9-.1-.3-.3-.6-.4-1.1-.1-.2-.1-.4-.1-.7 0-.3-.1-.6-.1-1 0-.3-.1-.6-.1-.9v-.6-1.1c0-.4.1-.7.2-1.1 0-.2.1-.4.1-.6 0-.2.1-.4.2-.6.1-.2.2-.5.3-.8.1-.3.3-.6.5-.9.2-.2.3-.4.4-.5.1-.1.2-.3.3-.4l.3-.3c.1-.1.3-.2.4-.4.3-.2.7-.5 1.2-.7.4-.2.9-.4 1.3-.5.4 0 .7 0 1-.1.3 0 .4 0 .4.1.1 0 .1.1.1.3 0 .1 0 .3.1.4v.4c-.2.3-.2.4-.2.4zm7.8 6.2v1.1c0 .4-.1.7-.2 1.1 0 .2-.1.4-.1.6 0 .2-.1.4-.2.6-.1.2-.2.5-.3.8-.1.3-.3.6-.5.9-.2.2-.3.4-.4.6-.1.1-.2.3-.3.4l-.3.3c-.1.1-.3.2-.4.4-.3.2-.7.5-1.1.7-.4.2-.9.4-1.3.5-.4 0-.7.1-1 .1-.3 0-.4 0-.4-.1-.1 0-.1-.1-.1-.3 0-.1 0-.3-.1-.4v-.4-.2-1.4-1.4-1.2-.7-1.1-1.4-1.3-.7-.7-1.2-1.2-.6-.4-.5-.2c0-.1.1-.1.2-.1h.8c.4 0 .7.1 1 .2.1 0 .2.1.5.2.2.1.6.2 1 .5s.8.5 1 .8c.2.3.5.6.7.8.3.3.5.6.6.9.1.3.3.6.4 1.1.1.2.1.4.2.7 0 .3.1.6.1 1 0 .3.1.6.1.9.1.1.1.2.1.3z"/>
  <path class="st1" d="M280.7 108.6c0 .6.1 1.1.1 1.7v1.7c0 .9 0 1.8-.1 2.7 0 .9-.1 1.8-.1 2.7v1c0 .6-.1 1.1-.1 1.5 0 .4 0 .9-.1 1.5v.5c0 .1-.1.2-.1.3-.1.1-.2.1-.3.1h-1c-.3 0-.7-.1-.9-.2-.3-.1-.5-.2-.7-.4-.2-.2-.3-.4-.2-.6v-.4-.4h-.8c-.3 0-.5 0-.7-.1-.2 0-.5 0-.8-.1-.3 0-.6-.1-.8-.1-.3 0-.5-.1-.7-.1-.2 0-.3-.1-.3-.1-.6-.2-1.1-.5-1.5-.9-.4-.4-.7-.7-.9-1.2-.2-.4-.4-.8-.4-1.3-.1-.5 0-1 0-1.6.1-.5.2-.8.4-1.2.2-.3.4-.6.7-.9.2-.2.4-.3.7-.6.3-.2.6-.4.7-.4.5-.2.9-.4 1.3-.4.4-.1.9-.1 1.6-.2.5 0 .9-.1 1.2-.1h1v-.2-.2-1.5c-.1-.6-.2-1.1-.3-1.5-.1-.2-.1-.3-.1-.4 0-.1-.1-.3-.2-.6-.2-.2-.3-.4-.4-.6-.1-.1-.3-.2-.6-.2-.2 0-.3.1-.5.2-.1.1-.3.2-.4.4-.1.1-.2.3-.2.4-.1.1-.1.2-.1.3-.1.2-.2.5-.2.8-.1.3-.1.6-.1 1 0 .1 0 .3-.1.4 0 .1-.1.2-.2.3-.1.1-.3.1-.5.1h-.9c-.3 0-.6-.1-.8-.2-.2-.1-.3-.3-.4-.5-.1-.2-.1-.4-.1-.6v-.5-.3-.3c.1-.7.2-1.3.4-1.7.2-.4.3-.8.4-1 .1-.2.3-.4.4-.6l.3-.3c.3-.3.6-.6.9-.8.3-.2.6-.4 1-.5.5-.1 1-.1 1.5-.1s1 .2 1.4.5c.1.1.2.1.3.2.1.1.2.1.3.2.3.2.6.4.8.7.2.3.4.6.5.9.2.6.4 1.1.5 1.7.1.9.1 1.5.2 2.1m-18.8 2.4c-.1-.1-.1 0-.1.2v2.5c0 .4.1.8 0 1.2v7.4c0 .2 0 .4-.1.6 0 .2-.1.4-.1.5-.1.2-.2.3-.5.4h-1.2c-.3 0-.7-.1-1.1-.2-.1 0-.1-.1-.2-.1s-.1 0-.2-.1c-.2-.1-.2-.2-.2-.4v-.4-.8-.8-.4-1c0-.5 0-1.1.1-1.8v-2.1-1.9c0-.2 0-.6-.1-1.2 0-.6 0-1.2-.1-1.8V109v-1.1-1.5-1-2.7-.5c0-.2 0-.4.1-.5 0-.2.1-.3.3-.4.1 0 .3-.1.4-.1.1 0 .3-.1.4-.1h2c.1 0 .2 0 .4.1.1 0 .3.2.3.4.1.2.2.5.2.8.1.3.1.6.2 1 .1.3.1.6.2.8.1.5.3.9.4 1.4.1.5.2.9.3 1.4 0 .1.1.3.2.7.1.3.2.7.3 1.2.1.4.2.9.4 1.5s.3 1 .4 1.5c.1.5.2.9.3 1.2.1.4.2.6.2.8 0 .2.1.3.1.5 0 .1.1.3.2.5.1.1.1 0 .1-.1v-.7-1-1.1-.9-1.4-.6-.8-.8-.6c0-.4 0-.7-.1-1.1 0-.3 0-.7-.1-1.1v-1.2-1-.2-.3c0-.1.1-.2.1-.3.1-.1.3-.2.6-.2.1 0 .2 0 .4-.1.2 0 .3 0 .5-.1h1.1c.3 0 .5.1.6.3.1.2.2.4.1.6 0 .5-.1.9-.1 1.4V123.2c0 .2 0 .4-.1.5 0 .2-.1.3-.3.3-.2.1-.4.1-.5.1H266c-.1 0-.3 0-.5-.1-.2 0-.4-.1-.5-.2-.3-.2-.5-.4-.5-.7 0-.6-.1-1.1-.3-1.6-.1-.5-.2-1.1-.3-1.6-.2-1-.4-2-.7-3-.3-1-.5-2-.7-3-.1-.4-.2-.9-.4-1.3 0-.8-.1-1.2-.2-1.6zm-12.9-4.8V120c0 .1 0 .2-.1.2 0 .1-.1.1-.2.1h-.8c-.2 0-.4-.1-.6-.1-.2 0-.3-.1-.5-.1-.1 0-.2-.1-.5-.2-.2-.1-.6-.2-1-.5s-.8-.5-1-.8c-.2-.3-.5-.6-.6-.8-.3-.3-.5-.6-.6-.9-.1-.3-.3-.6-.4-1.1-.1-.2-.1-.4-.1-.7 0-.3-.1-.6-.1-1 0-.3-.1-.6-.1-.9v-.6-1.1c0-.4.1-.7.2-1.1 0-.2.1-.4.1-.6 0-.2.1-.4.2-.6.1-.2.2-.5.3-.8.1-.3.3-.6.5-.9.2-.2.3-.4.4-.5.1-.1.2-.3.3-.4l.3-.3c.1-.1.3-.2.4-.4.3-.2.7-.5 1.2-.7.4-.2.9-.4 1.3-.5.4 0 .7 0 1-.1.3 0 .4 0 .4.1.1 0 .1.1.1.3 0 .1 0 .3.1.4v.4c-.2.3-.2.4-.2.4zm7.9 6.2v1.1c0 .4-.1.7-.2 1.1 0 .2-.1.4-.1.6 0 .2-.1.4-.2.6-.1.2-.2.5-.3.8-.1.3-.3.6-.5.9-.2.2-.3.4-.4.6-.1.1-.2.3-.3.4l-.3.3c-.1.1-.3.2-.4.4-.3.2-.7.5-1.1.7-.4.2-.9.4-1.3.5-.4 0-.7.1-1 .1-.3 0-.4 0-.4-.1-.1 0-.1-.1-.1-.3 0-.1 0-.3-.1-.4v-.4-.2-1.4-1.4-1.2-.7-1.1-1.4-1.3-.7-.7-1.2-1.2-.6-.4-.5-.2c0-.1.1-.1.2-.1h.8c.4 0 .7.1 1 .2.1 0 .2.1.5.2.2.1.6.2 1 .5s.8.5 1 .8c.2.3.5.6.7.8.3.3.5.6.6.9.1.3.3.6.4 1.1.1.2.1.4.2.7 0 .3.1.6.1 1 0 .3.1.6.1.9 0 .1.1.2.1.3zm-19.3-4.7c-.3-.1-.4-.3-.4-.5s0-.4.1-.5v-.6-.6c0-.2 0-.3-.1-.4-.1-.1-.1-.3-.2-.4-.1-.1-.2-.2-.4-.3-.2-.2-.4-.2-.8-.2-.3 0-.6.2-.8.4-.1.1-.2.2-.2.4s-.1.4-.1.6v1.1c.1.8.4 1.4.8 2 .2.3.4.6.6.8l.6.9c.3.4.5.7.7 1.1.3.4.5.7.7.9.2.2.3.5.6.7.6.8 1.1 1.6 1.5 2.5.4.9.6 1.8.7 2.8v1.4c-.1 1.2-.6 2.1-1.5 2.9l-.2.2-.2.2c-.3.2-.6.4-.9.5-.3.1-.7.2-1 .2H236c-.4 0-.7-.1-1.1-.2-.3-.1-.5-.2-.7-.3-.2-.1-.4-.3-.7-.5l-.6-.6c-.2-.2-.4-.4-.5-.6 0-.1-.1-.2-.1-.2 0-.1-.1-.1-.1-.2-.2-.4-.3-.8-.4-1.2-.1-.4-.1-.8-.1-1.3v-.7c0-.3 0-.5.1-.8 0-.2.1-.4.1-.6 0-.2.1-.3.1-.3.1-.3.4-.4.7-.4h.3c.5.1 1.1.3 1.6.4.2.1.3.2.4.2 0 .1.1.2 0 .4 0 .3-.1.5-.1.8v.9c0 .4.1.7.1 1 0 .3.2.5.4.7.2.2.5.3.8.3.3.1.7 0 1-.2.2-.2.4-.4.5-.7.1-.3.2-.6.2-.8 0-.3 0-.7-.1-1.1-.1-.4-.2-.7-.4-1-.2-.3-.4-.7-.6-1-.2-.3-.4-.6-.6-1l-.6-.9c-.2-.3-.3-.6-.5-.9-.1-.2-.3-.4-.4-.7-.1-.2-.3-.4-.4-.7-.3-.4-.5-.7-.7-1-.2-.3-.3-.6-.5-.9 0-.1-.1-.2-.1-.3 0-.1-.1-.2-.2-.3-.4-.6-.6-1.1-.8-1.8-.1-.6-.2-1.2-.3-1.9-.1-.8 0-1.5.2-2.2.1-.5.4-1 .9-1.3.6-.5 1.3-.8 2.2-.9.6-.1 1.3-.1 1.9 0 .7.1 1.3.3 1.8.6.3.2.6.5.8.7.2.3.4.6.6 1 .1.2.2.5.2.7 0 .2.1.5.1.8V106.7c0 .7-.4 1-1.1 1H237.6zm-8.4 13.9c.1.2.1.4.1.6 0 .2 0 .4.1.7v.5c-.1.1-.2.1-.4.2s-.5.1-.7.1h-1.9c-.3-.1-.5-.1-.5-.2-.1-.1-.1-.3-.2-.7 0-.2 0-.4-.1-.6 0-.2 0-.4-.1-.6-.1-.6-.2-1.2-.3-1.7-.1-.6-.2-1.2-.3-1.7-.1-.4-.1-.7-.2-1.1-.1-.4-.1-.7-.2-1.1 0-.3-.1-.5-.2-.7-.1-.2-.1-.5-.2-.7-.1-.6-.2-1.2-.3-1.7-.1-.6-.2-1.2-.3-1.7 0-.2 0-.3.1-.4.1-.1.2-.2.4-.2H225.8c.1 0 .3 0 .5.1s.4.2.5.5c.2.8.3 1.5.5 2.3.1.8.3 1.6.4 2.4 0 .3.1.6.2.8.1.3.1.6.2.8.2.8.3 1.5.5 2.2.2.5.4 1.2.6 1.9zm-.2-19.2c.7.8 1 1.7.8 2.8 0 .4-.1.8-.3 1.2-.1.4-.3.8-.5 1.1-.1.2-.3.4-.4.6-.2.2-.4.4-.5.6-.5.4-1 .8-1.6 1-.6.2-1.2.3-1.8.3-.3 0-.6 0-1-.1s-.5-.4-.5-.7v-.6-.6-.8-.8-.5-.5-1.2-1.2-.6c0-.2 0-.4.1-.6 0-.2.1-.4.2-.4.1-.1.2-.1.4-.2.3 0 .6-.1.8-.1.3 0 .5-.1.8-.1h1.1c.4.1.7.2 1 .4.3.1.5.3.8.5.2.1.4.3.6.5zm-6.4 20.1v1c0 .1-.2.2-.6.3-.4.1-.8.1-1 .1h-1.3c-.1 0-.2 0-.3-.1-.2-.1-.3-.3-.3-.6v-.2-.2-1.3-1.2c0-.7.1-1.4 0-2.1 0-.7 0-1.4-.1-2.1v-1.3c0-.4 0-.9.1-1.3 0-.4 0-.8.1-1.2v-1.2-.7-.9-1.3-1.4-.9-.9-1.3-1.3c0-.2 0-.3.1-.5 0-.2.1-.3.1-.5.1-.2.2-.3.5-.4h1.8c.2 0 .4.1.5.1.1.1.2.2.2.4.1.4.2.9.2 1.3v5.7c0 .5 0 1.1-.1 1.8v5.5c0 .2 0 .5.1.8V122.5z"/>
  <path class="st1" d="M290.6 118.9c.2 0 .4.1.5.1.1.1.1.2.1.3v2c0 .1 0 .2-.1.3-.1.2-.4.4-.8.4h-5.5c-.2 0-.3 0-.5-.1H283.4c-.2-.1-.4-.2-.4-.4 0-.4.1-.8.1-1.2 0-.4 0-.8.1-1.2v-1.3c0-.4 0-.8.1-1.2v-.4c0-.4-.1-.8 0-1.2v-1.2c0-.3 0-.6.1-.9v-.9-1.7c0-.6 0-1.2-.1-1.7 0-.5-.1-1.1 0-1.6 0-.5 0-1.1.1-1.6v-.9-.9-.4c0-.2.1-.3.4-.3.9-.2 1.7-.1 2.5 0 .2 0 .3.1.3.3.1.6.1 1.1.1 1.7v1.7c0 .5 0 1 .1 1.5 0 .3.1.7.1 1 0 .4 0 .7.1 1 0 .3.1.6.1.9v1c0 .2-.1.4 0 .7V114c0 .2 0 .4-.1.7-.1.2-.1.3 0 .5V118.9H290.6"/>
  
</svg>