<svg xmlns="http://www.w3.org/2000/svg" width="351.9" height="112.1" viewBox="0 0 351.9 112.1">
  <style>
    .st1,.st2{fill:#08143c}.st2{fill-rule:evenodd;clip-rule:evenodd}
  </style>
  <path fill-rule="evenodd" clip-rule="evenodd" fill="#f38ca0" d="M0 0h351.9v112.1H0z"/>
  <path class="st1" d="M89.3 47.9c.2 0 .2.2.2.7v.5c0 .3 0 .5-.1.7-.1 0-.2-.5-.2-1.4.1-.3.1-.5.1-.5m.8-3.6v.3c0 1.7 0 2.5-.1 2.5 0 0-.1-.4-.2-1.3s-.1-1.5-.1-1.8c0-.5 0-.7.1-.7l.1.2c.1.2.2.5.2.8zm-.4-8c0 .3-.1.4-.2.4s-.1-.4-.2-1.1c-.1-.7-.1-1.1-.1-1.3 0-.1 0-.4.1-.9s.1-.7.2-.7c0 0 .1.5.1 1.6.1 1.1.1 1.8.1 2zm-2.3-10.9v.1c0 .3 0 1.2-.1 2.8 0 1.6-.1 2.7-.1 3.4v.3c0 2.5.1 5.7.2 9.4.2 3.1.2 5.4.2 6.7 0 2.1.1 3.2.3 3.2.1.1.5.2 1 .2.1 0 .3 0 .6-.1.3 0 .5-.1.5-.1l1.1-.1L91 48c0-.4-.1-1.4-.1-2.9s-.1-2.7-.1-3.5c0-.8-.1-4.1-.2-9.7V29v-2.4-1c0-.3 0-.5-.1-.5-.1-.1-.2-.1-.5-.1l-2.2-.3h-.1c-.1 0-.1 0-.2.1 0 0-.1.1-.1.2.1.3 0 .4 0 .4zm2.6-4.8l-2 3.1c-.1.1-.1.2-.1.2v.1c0 .1 0 .1.1.1h.3l2-.1c.5 0 .8-.2 1-.5l1.7-2.8.2-.2c0-.1-.2-.2-.6-.2H91c-.6.1-1 .2-1 .3zm-.7 2.7c.1 0 .2 0 .4.1.1.1.1.1.1.2s-.1.1-.1.1h-.1c-.1 0-.1 0-.2-.1h-.8c-.2 0-.2 0-.2-.1.2-.2.5-.3.9-.2zm3.1-2.7c.2-.1.3-.1.3-.1 0 .1-.1.3-.3.5l-.2.2h-.1c0-.2.1-.4.3-.6zm-9.6 19.5v.6c0 .7 0 1.1-.1 1.1 0 0 0-.2-.1-.5 0-.3 0-.7-.1-1v-.6-.2c0-.1.1-.2.2-.2s.1.1.1.2v.6zm-3.5-1.5c0 .1-.2.1-.5.1-.2 0-.5 0-.9-.1l-.6-.1c-.6 0-.9-.1-.9-.1 0-.1.2-.2.5-.2h.4c1.3.1 2 .2 2 .4zm4.4 6.2c0 .6-.1.9-.1.9-.1 0-.1-.3-.1-.9-.1-.4-.1-1-.1-1.7s.1-1 .2-1 .2.5.2 1.6v.7c-.1.1-.1.3-.1.4zM71.5 25c-1.5.1-2.5.2-3 .2h-.2c-.2 0-.4 0-.4.1-.1 0-.1.1-.1.3v.7c-.1 2.4-.1 8-.1 16.7v6.2c0 .1 0 .2.1.4 0 .2 0 .3.1.4 0 .1.1.1.2.2s.3.1.5.1h3.8l9.2.1H83.9c.2 0 .4 0 .5-.1.1-.1.1-.2.1-.3v-.4c0-.5 0-1.4.1-2.7v-2.6l.2-6.1v-.4c0-.2-.2-.4-.5-.4-.2-.1-1-.1-2.5-.1H81c-.1 0-1.8.2-5.1.5-.2 0-.4.1-.5.1-.1 0-.2 0-.3.1-.1 0-.1.1-.2.1 0 .1 0 .1-.1.2v.7l-.2 1.3c0 .1 0 .2-.1.4s-.1.3-.1.3c0 .2.1.3.4.3h.2c.4 0 1.2-.1 2.2-.1 1 0 1.9-.1 2.6-.1.7 0 1.1-.1 1.2-.1.1 0 .2.1.3.4.1.3.2 1.3.2 2.9 0 .7 0 1.5-.1 2.3-.9 0-2.4-.1-4.4-.1-2 0-3.2-.1-3.5-.1h-2c-.1 0-.1 0-.2-.1l-.2-.2V42.9c0-3.9.1-8.6.4-14.2v-.4s.2-.1.6-.1c3.4-.4 6.3-.6 8.8-.6.2 0 .3.4.3 1.3v1.7c0 .3.1.5.4.5H81.9l2-.1c.3 0 .4-.2.4-.6V30v-.4l-.1-3.7c0-.7-.1-1.1-.2-1.3h-.4c-.8-.2-4.8 0-12.1.4zm-2.3 3.7s-.1 0 0 0c-.1 0-.2-.1-.2-.4 0-.3 0-.7.1-1 .1-.1.1-.2.1-.2s.1.2.1.6c0 .6 0 .9-.1 1zm.4 11.9c.1.9.2 2.1.2 3.6 0 1.2-.1 1.9-.3 1.9 0 0 0-1-.1-2.9 0-1.9-.1-2.9-.1-3V40c0-.1.1-.2.2-.2s.1.1.1.2V40.6zm13.4-15c0 .1-.1.2-.4.2h-2.4c-.1 0-.3 0-.6.1-.2 0-.4.1-.4.1 0-.4.5-.6 1.5-.6h1.1c.8-.1 1.2 0 1.2.2zm-8.4 23.9c-.1 0-.1 0-.2-.1s-.1-.1-.1-.2c.2-.1.4-.1.7-.1H78.6c-.7.2-1.1.4-1.2.4h-1.3c-.6.1-1.1 0-1.5 0zM56.6 27c-.1 0-.1-.1-.1-.1s.2-.1.6-.1h1v.1h-.2-.1-.2c-.4.2-.7.2-1 .1zm5-1.7h-7.8c-1 0-1.9-.1-2.6-.2-.1 0-.3 0-.5-.1-.2 0-.3-.1-.4-.1-.2 0-.3.2-.3.6v.6c0 2-.1 4.5-.1 7.7v5.4c0 3.6-.1 6.2-.1 7.6v2.1c0 .7 0 1.2.1 1.4.1.2.2.3.5.3h6.4c1.8 0 3.3 0 4.3.1 1.6.1 2.7.1 3.3.1h.6c.1-.1.2-.4.2-1.1.1-.7.1-1.2.1-1.7v-.5c-.1-.1-.3-.2-.7-.2h-.3c-.1 0-.3 0-.5.1-.7.1-2 .1-4.1.1-3.9 0-6-.1-6.1-.3 0 0-.1-.6-.1-1.7 0-2.6.1-4.1.1-4.5.1-.2.3-.3.6-.3h.9c2 .1 3.7.2 5.4.2h2.1c.9 0 1.3-.1 1.3-.2v-.4-.5-.6c0-.3-.1-.5-.1-.6v-.3-.2-.1-.1l-.1-.1c-.1 0-.1 0-.1-.1h-.2c-.1 0-.2 0-.4-.1-.3-.1-2.4-.2-6.4-.3-2-.1-3.1-.2-3.2-.3v-.4-1-1.8c0-1.2 0-2.4.1-3.7.1-1.1.1-1.6.3-1.7.1-.1.9-.1 2.2-.1 1 0 2.2 0 3.6.1s2.5.1 3.3.1h1c.2 0 .4 0 .6.1h.4c.2-.2.3-1 .3-2.4 0-.5 0-.8-.1-.8-.4 0-1.4-.1-3.5-.1zm-10.4 4c0 .7-.1 1.4-.1 2.1l-.2.5v-.7c0-.8-.1-1.3-.1-1.5 0-1 .1-1.5.3-1.5.1 0 .1.3.1 1v.1zm4.2 10.5c0 .1-.2.2-.6.2-.4 0-.6-.1-.7-.2 0-.1.2-.1.6-.1.4 0 .7 0 .7.1zm-3.9-3.7c0 1.9-.1 2.8-.1 2.8-.1 0-.1-.8-.1-2.4V36l.1-.1c0-.1.1 0 .1.2zm.9 8.5c0 .4-.1.7-.2.7s-.2-.2-.2-.7c0-.7.1-1.2.2-1.5l.1-.1c.1 0 .1.5.1 1.6zm2.2 4.2c2.3 0 3.5.1 3.5.2s-.4.2-1.3.2c-.1 0-.4 0-1.1.1-.7 0-1.1.1-1.4.1H54v-.1-.2c0-.2.2-.3.6-.3zm6.4 1s0-.1 0 0l.4-.2c.4 0 .7-.1.9-.1h.4c.1 0 .2.1.3.2l.2.2h-.5c-.3.2-.8.1-1.7-.1zm-15.9-.5c0 .1-.5.2-1.3.4-.9.2-1.6.2-2 .2-.2 0-.3 0-.3-.1s.2-.2.7-.3c.5-.1.8-.2.9-.2h2zm-5.7-20.5c0 .1-.1.5-.1 1.2-.1.7-.1 1.3-.2 1.8-.1.6-.1.8-.1.8v-.2-.6-1.2c.1-1.1.1-1.9.2-2.3.1-.3.2-.5.2-.5.1 0 .1.1.1.3v.1c-.1.2-.1.4-.1.6zm-1.5-4c-.1 0-.1.1-.2.1h-.2s-.1 0-.1.1c-.1 0-.1.1-.1.1 0 .1 0 .1-.1.2v.3l-.1.8c-.2 2.1-.7 9.1-1.3 21l-.1 2.4v.4c0 .3 0 .5.1.6.1.1.2.1.5.1h10.9c.1 0 .2 0 .2-.1.1 0 .1-.1.2-.1l.1-.1v-.2-.3-.3l.2-1.4c0-.3-.1-.6-.1-.6 0-.1-.2-.1-.5-.1h-.5c-4.8-.1-7.3-.2-7.4-.3 0-.1-.1-.3-.1-.7v-.4-.7c.1-1.3.2-3.4.4-6.2.2-2.9.3-5.4.4-7.7.1-2.3.2-3.6.3-4.1.2-1.2.3-2 .3-2.2v-.1c0-.3-.1-.5-.4-.5h-.1c-.8-.2-1.6-.1-2.3 0zm0 2.9c-.1.6-.2 1-.3 1-.1 0-.1-.1-.1-.4v-.1c0-.3.1-.6.2-.9.1-.3.1-.5.2-.5s.1.1.1.3V27.4c-.1.2-.1.2-.1.3zm-1 17.4v.1c0 .1-.1.2-.2.4s-.2.2-.3.2h-.1v-.1-.2c0-.5.1-1.1.3-1.9.1-.8.3-1.2.3-1.2v.4c-.1 1-.1 1.7-.1 2V45.1zm-11.8 4c0 .1-.7.1-2.1.1-.1 0-.1 0-.1-.1V49c.1-.1.2-.2.3-.2.1 0 .5 0 1.1.1.5 0 .8.1.8.2zM21 25.4H20.4c-.1 0-.1.1-.1.1l-.1.1v1c-.2.7-.2 1.4-.2 2.4 0 1.9-.1 3.4-.3 4.7-.1.6-.2 3-.3 7.2-.1 4.2-.2 7.1-.2 8.7v.6c0 .1.2.2.6.3.5.1 2.4.1 5.7.1H33c.2 0 .4 0 .4-.1.1-.1.1-.1.1-.2s0-.2.1-.5v-.5-.6c0-.4 0-.7-.1-.8-.2-.2-1.1-.2-2.7-.3-3.7-.2-5.7-.3-6.1-.3l-1.7-.1-.1-1.5v-3.6c.1-1.8.2-2.7.3-2.8.2 0 1.5-.1 3.9-.2 3-.1 4.8-.3 5.2-.6.1-.1.2-.4.2-.8 0-.6.1-1 .2-1.3 0-.2.1-.3.1-.4 0-.1-.1-.2-.4-.3-.4-.1-1.5-.1-3.2-.1h-3.8c-1.8 0-2.7-.1-2.8-.1l.1-3.9.3-3h.7c.3 0 .8-.1 1.4-.1h3.3l4.8.1.1-.9c.1-.5.2-.9.2-1.4 0-.3 0-.5-.1-.6-.2-.1-1.6-.2-4.3-.3-2.7-.1-5-.1-7-.1-.4.1-.8.1-1.1.1zm11.6.7c.2.1.3.2.3.3v.1c-.1.1-.1.1-.2.1-.2 0-.3 0-.5-.1-.7-.1-1-.2-1-.3 0 0 0-.1.1-.1.1-.1.3-.2.5-.2-.1 0 .2.1.8.2zM20.3 36c.1-.1.1-.2.1-.2.1 0 .1.4.1 1.1v1.4c0 .3-.1.7-.2 1.2s-.2.7-.2.7V40v-1.4c-.1-.7 0-1.6.2-2.6zm.5-1.8c.2-.1.2.1.2.6v.2c0 .2-.1.4-.2.4-.1-.2-.1-.4-.1-.6-.1-.3 0-.5.1-.6zM31.7 36s0 .1 0 0c0 .1-.1.2-.4.3-.1.1-.1.1-.2.1H31c-.1 0-.2 0-.2.1-.6 0-1-.1-1-.3 0 0 0-.1.1-.1.2-.1.5-.2.8-.2.2.1.5.1 1 .1zm-6.9-8.1c0 .1 0 .1-.1.2s-.1.1-.2.1h-.3c-.1 0-.3 0-.5-.1l-1.3-.2.1-.1c.4-.1.8-.2 1-.2.1 0 .4 0 .6.1.4.1.6.2.7.2zm2.5 9.8c.2.1.3.2.3.3 0 .1 0 .1-.1.1h-.4c-.2 0-.6-.1-1.3-.2-.6-.1-1-.2-1-.3h.1c.4-.1.8-.1.9-.1.2.1.7.1 1.5.2z"/>
  <path class="st1" d="M131.5 49.3c0 .1-.5.2-1.3.4-.9.2-1.6.2-2 .2-.2 0-.3 0-.3-.1s.2-.2.7-.3c.5-.1.8-.2.9-.2h2z"/>
  <path class="st1" d="M125.8 28.8c0 .1-.1.5-.1 1.2-.1.7-.1 1.3-.2 1.8-.1.6-.1.8-.1.8v-.2-.6-1.2c.1-1.1.1-1.9.2-2.3.1-.3.2-.5.2-.5.1 0 .1.1.1.3v.1c-.1.2-.1.4-.1.6z"/>
  <path class="st1" d="M124.2 24.8c-.1 0-.1.1-.2.1h-.2s-.1 0-.1.1c-.1 0-.1.1-.1.1 0 .1 0 .1-.1.2v.3l-.1.8c-.2 2.1-.7 9.1-1.3 21l-.1 2.4v.4c0 .3 0 .5.1.6.1.1.2.1.5.1h10.9c.1 0 .2 0 .2-.1.1 0 .1-.1.2-.1l.1-.1v-.2-.3-.3l.2-1.4c0-.3-.1-.6-.1-.6 0-.1-.2-.1-.5-.1h-.5c-4.8-.1-7.3-.2-7.4-.3 0-.1-.1-.3-.1-.7v-.4-.7c.1-1.3.2-3.4.4-6.2.2-2.9.3-5.4.4-7.7.1-2.3.2-3.6.3-4.1.2-1.2.3-2 .3-2.2v-.1c0-.3-.1-.5-.4-.5h-.1c-.7-.2-1.5-.1-2.3 0z"/>
  <path class="st1" d="M124.3 27.7c-.1.6-.2 1-.3 1-.1 0-.1-.1-.1-.4v-.1c0-.3.1-.6.2-.9.1-.3.1-.5.2-.5s.1.1.1.3V27.4c-.1.2-.1.2-.1.3z"/>
  <path class="st1" d="M123.2 45.1v.1c0 .1-.1.2-.2.4s-.2.2-.3.2h-.1v-.1-.2c0-.5.1-1.1.3-1.9.1-.8.3-1.2.3-1.2v.4c-.1 1-.1 1.7-.1 2V45.1z"/>
  <path class="st1" d="M111.1 27c-.1 0-.1-.1-.1-.1s.2-.1.6-.1h1v.1h-.2-.1-.2c-.4.2-.7.2-1 .1z"/>
  <path class="st1" d="M116.1 25.3h-7.8c-1 0-1.9-.1-2.6-.2-.1 0-.3 0-.5-.1-.2 0-.3-.1-.4-.1-.2 0-.3.2-.3.6v.6c0 2-.1 4.5-.1 7.7v5.4c0 3.6-.1 6.2-.1 7.6v2.1c0 .7 0 1.2.1 1.4.1.2.2.3.5.3h6.4c1.8 0 3.3 0 4.3.1 1.6.1 2.7.1 3.3.1h.6c.1-.1.2-.4.2-1.1.1-.7.1-1.2.1-1.7v-.5c-.1-.1-.3-.2-.7-.2h-.3c-.1 0-.3 0-.5.1-.7.1-2 .1-4.1.1-3.9 0-6-.1-6.1-.3 0 0-.1-.6-.1-1.7 0-2.6.1-4.1.1-4.5.1-.2.3-.3.6-.3h.9c2 .1 3.7.2 5.4.2h2.1c.9 0 1.3-.1 1.3-.2v-.4-.5-.6c0-.3-.1-.5-.1-.6v-.3-.2-.1-.1l-.1-.1c-.1 0-.1 0-.1-.1h-.2c-.1 0-.2 0-.4-.1-.3-.1-2.4-.2-6.4-.3-2-.1-3.1-.2-3.2-.3v-.4-1-1.8c0-1.2 0-2.4.1-3.7.1-1.1.1-1.6.3-1.7.1-.1.9-.1 2.2-.1 1 0 2.2 0 3.6.1s2.5.1 3.3.1h1c.2 0 .4 0 .6.1h.4c.2-.2.3-1 .3-2.4 0-.5 0-.8-.1-.8-.4 0-1.5-.1-3.5-.1z"/>
  <path class="st1" d="M105.7 29.3c0 .7-.1 1.4-.1 2.1l-.2.5v-.7c0-.8-.1-1.3-.1-1.5 0-1 .1-1.5.3-1.5.1 0 .1.3.1 1v.1z"/>
  <path class="st1" d="M109.9 39.8c0 .1-.2.2-.6.2-.4 0-.6-.1-.7-.2 0-.1.2-.1.6-.1.4 0 .7 0 .7.1z"/>
  <path class="st1" d="M106 36.1c0 1.9-.1 2.8-.1 2.8-.1 0-.1-.8-.1-2.4V36l.1-.1c0-.1.1 0 .1.2z"/>
  <path class="st1" d="M106.9 44.6c0 .4-.1.7-.2.7s-.2-.2-.2-.7c0-.7.1-1.2.2-1.5l.1-.1c.1 0 .1.5.1 1.6z"/>
  <path class="st1" d="M109.1 48.8c2.3 0 3.5.1 3.5.2s-.4.2-1.3.2c-.1 0-.4 0-1.1.1-.7 0-1.1.1-1.4.1h-.3v-.1-.2c0-.2.2-.3.6-.3z"/>
  <path class="st1" d="M115.5 49.8s0-.1 0 0l.4-.2c.4 0 .7-.1.9-.1h.4c.1 0 .2.1.3.2l.2.2h-.5c-.3.2-.9.1-1.7-.1z"/>
  <path class="st1" d="M177.4 27c-.1 0-.1-.1-.1-.1s.2-.1.6-.1h1v.1h-.2-.1-.2c-.4.2-.7.2-1 .1"/>
  <path class="st1" d="M182.4 25.3h-7.8c-1 0-1.9-.1-2.6-.2-.1 0-.3 0-.5-.1-.2 0-.3-.1-.4-.1-.2 0-.3.2-.3.6v.6c0 2-.1 4.5-.1 7.7v5.4c0 3.6-.1 6.2-.1 7.6v2.1c0 .7 0 1.2.1 1.4.1.2.2.3.5.3h6.4c1.8 0 3.3 0 4.3.1 1.6.1 2.7.1 3.3.1h.6c.1-.1.2-.4.2-1.1.1-.7.1-1.2.1-1.7v-.5c-.1-.1-.3-.2-.7-.2h-.3c-.1 0-.3 0-.5.1-.7.1-2 .1-4.1.1-3.9 0-6-.1-6.1-.3 0 0-.1-.6-.1-1.7 0-2.6.1-4.1.1-4.5.1-.2.3-.3.6-.3h.9c2 .1 3.7.2 5.4.2h2.1c.9 0 1.3-.1 1.3-.2v-.4-.5-.6c0-.3-.1-.5-.1-.6v-.3-.2-.1-.1l-.1-.1c-.1 0-.1 0-.1-.1h-.2c-.1 0-.2 0-.4-.1-.3-.1-2.4-.2-6.4-.3-2-.1-3.1-.2-3.2-.3v-.4-1-1.8c0-1.2 0-2.4.1-3.7.1-1.1.1-1.6.3-1.7.1-.1.9-.1 2.2-.1 1 0 2.2 0 3.6.1s2.5.1 3.3.1h1c.2 0 .4 0 .6.1h.4c.2-.2.3-1 .3-2.4 0-.5 0-.8-.1-.8-.4 0-1.5-.1-3.5-.1z"/>
  <path class="st1" d="M171.9 29.3c0 .7-.1 1.4-.1 2.1l-.2.5v-.7c0-.8-.1-1.3-.1-1.5 0-1 .1-1.5.3-1.5.1 0 .1.3.1 1v.1z"/>
  <path class="st1" d="M176.1 39.8c0 .1-.2.2-.6.2-.4 0-.6-.1-.7-.2 0-.1.2-.1.6-.1.5 0 .7 0 .7.1z"/>
  <path class="st1" d="M172.2 36.1c0 1.9-.1 2.8-.1 2.8-.1 0-.1-.8-.1-2.4V36l.1-.1c.1-.1.1 0 .1.2z"/>
  <path class="st1" d="M173.2 44.6c0 .4-.1.7-.2.7s-.2-.2-.2-.7c0-.7.1-1.2.2-1.5V43c.1 0 .2.5.2 1.6z"/>
  <path class="st1" d="M175.3 48.8c2.3 0 3.5.1 3.5.2s-.4.2-1.3.2c-.1 0-.4 0-1.1.1-.7 0-1.1.1-1.4.1h-.3v-.1-.2c.1-.2.3-.3.6-.3z"/>
  <path class="st1" d="M181.8 49.8s-.1-.1 0 0l.4-.2c.4 0 .7-.1.9-.1h.4c.1 0 .2.1.3.2l.2.2h-.5c-.3.2-.9.1-1.7-.1z"/>
  <path class="st1" d="M179.1 20.6l-1.9 3.2c-.1.1-.1.2-.1.2v.1c0 .1 0 .1.1.1h.3l2-.1c.5 0 .8-.2 1-.5l1.7-2.8.2-.2c0-.1-.2-.2-.6-.2h-1.6c-.7 0-1 .1-1.1.2z"/>
  <path class="st1" d="M178.5 23.3c.1 0 .2 0 .4.1.1.1.1.1.1.2s-.1.1-.1.1h-.1c-.1 0-.1 0-.2-.1h-.8c-.1 0-.2 0-.1-.1 0-.2.3-.3.8-.2z"/>
  <path class="st1" d="M181.6 20.6c.2-.1.3-.1.3-.1 0 .1-.1.3-.3.5l-.2.2h-.1c-.1-.2 0-.4.3-.6z"/>
  <path class="st1" d="M167.7 24.3c.2.1.3.1.3.2 0 .2-.1.2-.3.2h-.1-.1c-.7-.1-1-.2-1-.3v-.1h.1c.1 0 .2 0 .4-.1.2 0 .3-.1.4-.1.2.2.3.2.3.2z"/>
  <path class="st1" d="M166.2 28.7c0-.1.1-.1.1-.2.1 0 .1.1.1.4 0 .2 0 .8-.1 1.6 0 .1 0 .2-.1.4l-.1.2v-.6-.5c-.2-.5-.1-.9.1-1.3z"/>
  <path class="st1" d="M148.8 48.6v-.3-.2c-.1 0-.1-.2-.2-.7-.1-.5-.1-.9-.1-1.3v-.2c0-.1 0-.2.1-.2 0 0 .1.6.3 1.7.2 1.1.3 1.7.3 1.7 0 .4 0 .6-.1.6s-.1-.1-.2-.4c-.1-.2-.1-.4-.1-.6v-.1z"/>
  <path class="st1" d="M167.2 45c0 .4-.1.6-.2.6s-.1-.2-.1-.6v-2.1-1.6-.3c.1 0 .1.5.2 1.6s.1 1.9.1 2.3v.1z"/>
  <path class="st1" d="M155.6 40.4c.3.8.4 1.3.4 1.4-.1 0-.3-.3-.5-.8-.2-.6-.3-1-.3-1.2 0-.2-.1-.3-.2-.3h-.1c0-.1 0-.1.1-.1.2.1.4.4.6 1z"/>
  <path class="st1" d="M162.1 36.5c0 .3-.2.8-.4 1.5s-.4 1.1-.5 1.1c-.1 0-.1 0-.1-.1.1-.3.2-.9.5-1.7.2-.8.4-1.2.5-1.2v.4z"/>
  <path class="st1" d="M162.9 33.8c-.1.1-.1.1-.2.1v-.2c0-.1.1-.5.4-1 .2-.6.3-.8.4-.8 0 .1-.1.5-.3 1l-.3.9z"/>
  <path class="st1" d="M147.6 31.7V34l-.1.4c-.1 0-.1-.1-.1-.3-.1-.7-.1-1.6-.1-2.5v-.3-.2l.1-.1h.1v.7z"/>
  <path class="st1" d="M150.1 28.9c0 .3 0 .4-.1.4s-.1-.1-.1-.4v-.2-.1-.2-.2-.2-.1-.3c.1 0 .1.4.1 1.2v.1z"/>
  <path class="st1" d="M151.6 27.9V28.2h-.1c-.1 0-.2-.1-.3-.4-.1-.3-.2-.5-.2-.7V27h.1c.3-.1.4.3.5.9z"/>
  <path class="st1" d="M149.9 24.4h-2.3c-.6 0-.9.1-.9.4V42.9c0 .8 0 2-.1 3.6s-.1 2.7-.1 3.1v.7c0 .2.2.2.7.2H150v-.4c.1-1.7.1-3.3.1-5 0-2.2 0-4.5-.1-7v-.7-1.3-1.3-.5-.4-1.1-.7-2.4l.4 1c.3.6.5 1.5.9 2.5.3 1 .6 1.9.8 2.7.2.7.6 1.9 1.2 3.6.6 1.7 1 2.8 1.1 3.2l2.4 7.4H158.9c.5 0 .7-.1.7-.3.1-1.5.7-4.4 1.7-8.7.9-3.9 1.7-7 2.5-9.4.2-.6.4-1.3.6-2.2.2-.9.4-1.5.5-2 .1-.5.2-.7.3-.7h.1v1c0 1.7-.2 6.9-.7 15.7-.1 3-.2 5-.2 5.9 0 .8.1 1.3.2 1.4.1.1.7.2 1.6.2h1.1c.2 0 .4-.1.5-.2 0-.1.1-.1.1-.3v-.3-.4c0-.8-.1-1.5-.1-2.2-.1-.6-.1-1.8-.1-3.5 0-2.4.1-5.2.1-8.4 0-.3.1-1.2.2-2.9.1-1.6.2-2.9.2-3.8.1-2.8.2-4.4.2-4.5V24v-.2-.2c0-.2 0-.2-.1-.3 0-.1-.1-.1-.3-.1h-.6l-.8.1c-1.1 0-1.9.1-2.5.1-.4 0-.7 0-.7.1-.3.3-.7 1.4-1.1 3.2-.3 1.3-.6 2.2-.6 2.6 0 .1-.4 1.5-1.1 4.3-.7 2.8-1.4 5.2-1.9 7.1-.5 2-.9 3-1 3l-1.5-5.1c-.2-.7-.7-2.2-1.5-4.2-.7-2.1-1.3-3.8-1.7-5l-1.4-4.1c-.1-.5-.2-.8-.3-1v-.1c.1.4-.4.3-1.4.2z"/>
  <path class="st1" d="M242.7 28.8c0-.1.1-.1.1-.1.1 0 .1.1.1.3 0 .2.1.5.1.9s.1.6.1.8v.2c0 .2-.1.6-.2.9-.1.4-.2.5-.3.5V32c0-.3 0-.6-.1-1 0-.4-.1-.7-.1-.9.1-.5.1-.9.3-1.3m-1.7-2.7c-.1.1-.1.4-.1 1v.5l.3 5.9c.2 3.4.3 5.3.3 5.8.1 1.4.2 2.5.2 3.5 0 .5.1 1.5.1 2.9.1 1.4.1 2.2.1 2.4l.3 2.9.5.2c.2.1.9.1 2.2.1h2.6c3-.1 5.3-.1 6.9-.1H257.5V49c0-2.7 0-5.1-.1-7.2-.1-.7-.1-3.4-.1-8.1 0-4.7-.1-7.2-.2-7.4-.1-.2-2.8-.3-8.1-.4h-5.2c-1.8 0-2.8.1-2.8.2zm8.9 1.3v.2c0 .3-.1.5-.2.5h-.1c0-.1-.1-.2-.3-.6v-.2c0-.1.1-.2.2-.2.3.1.4.1.4.3zm-2.4 19.5c-1.4.1-2.2.2-2.3.2h-.2c-.4 0-.6-.2-.6-.7v-.1-.2c.1-.2.1-1.8.1-4.8V40c0-.8 0-2.4-.1-4.7-.1-2.3-.1-3.9-.1-4.7v-1.4c.1 0 .8-.1 2-.1.7 0 1.9.1 3.7.3 1.8.2 2.7.3 2.8.3.5.1.9.1 1 .2.1.1.2.2.3.4.2.6.3 1.5.3 2.7 0 1-.1 3.6-.2 7.8V45c0 1.3 0 1.9-.1 1.9h-.1c-.1 0-.2 0-.3-.1h-.5c-.3 0-.6 0-1 .1-.3.1-.8.1-1.6.1h-3.1zm-3.9-9.6v2.2c-.1.2-.2.3-.2.3-.2 0-.3-.3-.3-.8v-.4c0-.4 0-.9.1-1.5 0-.5.1-1 .1-1.4.1-.4.1-.6.1-.6 0 .2.1.9.2 2.2zm12.9-6.4c0 .4-.1.6-.2.6s-.1-.2-.1-.6c0-.4.1-.6.1-.6.2.1.2.3.2.6zm-1 10.1c-.1.5-.1.8-.2.8s-.1-.3-.1-.8v-1c0-.9.1-1.3.2-1.3s.2.5.2 1.4v.9zM243 44v.9c0 .2 0 .3-.1.3-.2-.1-.2-.7-.3-1.7v-.6c0-.4 0-.6.1-.6.1-.1.2.5.3 1.7zm13.7 3.2c0 .1-.1.1-.1.1-.2 0-.2-.1-.2-.1 0-.1.1-.2.2-.2 0 0 .1.1.1.2zm-1.8 1.6v.2h-.1-.1H253.8l-.1-.1.2-.2h.1c.1 0 .2 0 .3-.1.1 0 .2-.1.3-.1l.3.3zm-8.3 0c.6-.1 1.1-.1 1.2-.1.5 0 .9.1.9.3 0 .1-.1.2-.2.2h-.7c-.6 0-1.3 0-2.1-.1s-1.2-.1-1.2-.2c.1-.1.8-.1 2.1-.1zm-22.9-19.6c0-.1.1-.2.2-.2s.1 0 .1.1c.1.1.1.3.1.5 0 .1 0 .3-.1.6 0 .1-.1.2-.1.5-.1.3-.1.5-.1.6 0 .1-.1.2-.1.2l-.1-.1c-.1-.2-.1-.4-.1-.7 0-.1 0-.4.1-.7 0-.3 0-.5.1-.8zm.2-5h-.2c-.2 0-.3 0-.4.1-.1 0-.1.1-.1.3v.6c-.1 3.4-.4 10-.7 19.7 0 .5-.1 1.2-.1 2.2 0 1-.1 1.7-.1 2l-.1.7c0 .1.2.2.7.3h1.5c.6 0 1.6 0 3.1-.1 1.5 0 2.5-.1 3.2-.1h1.3c2.1 0 3.7-.6 4.8-1.7 1.1-1.1 1.8-2.6 1.9-4.5v-2.9-3.2c0-.9-.1-1.9-.1-3.1 0-1.2-.1-2.2-.2-3-.1-.8-.3-1.7-.4-2.5-.2-.8-.4-1.5-.7-2.1-.3-.5-.6-1-1-1.2-1.3-.8-2.7-1.3-4.2-1.5-1.2-.1-3.1-.1-5.8-.1-1.3 0-2 .1-2.4.1zm3.4.9c0 .1-.4.2-1.2.2-.6 0-.9 0-.9-.1l-.1-.1c0-.1.1-.1.2-.1h1.5c.3.1.5.1.5.1zm5.4 2.8c.8.1 1.3.3 1.5.4.4.2.6 4.8.6 13.9v1.9c0 .5-.1.9-.4 1.2-.2.2-.8.4-1.6.5-2.6.2-4.8.4-6.7.4h-.1c-.2 0-.3-.1-.3-.2v-.7c0-1.7.1-4.6.2-8.8.2-4.1.3-6.9.4-8.2V28v-.2s0-.1.1-.1l.1-.1h.2c.8-.1 1.9-.1 3.1-.1h1.2l1.7.4zm2.7 1.6l-.1.1v-.2c0-.2 0-.2.1-.2l.1.1c0 .1-.1.1-.1.2zm.4 2.4c0 .8 0 1.2-.1 1.2s-.2-.7-.2-2.1v-1.1l.1.6c.1.3.2.7.2 1.4zm.7.8c0 .1 0 .2-.1.2h-.1c-.1-.1-.2-.8-.2-2.1 0-.1 0-.2.1-.2h.1c.1.1.2.8.2 2.1zm-11.2 11.5v.7c-.1 0-.1-.1-.1-.2-.1-.2-.1-1-.1-2.3 0-1.5 0-2.2.1-2.2s.1 1.3.1 4zm-.8 4.8c-.1 0-.1-.3-.1-.9V46c0-.1 0-.2.1-.2.2.1.2.7.2 1.9.1.9 0 1.3-.2 1.3zm4.7-1.7c-.1.1-.3.1-.7.1-.7 0-1.1-.1-1.1-.2s.5-.2 1.5-.2h.3c.1 0 .1.1.1.1 0 .1-.1.1-.1.2zm5.9-.1s-.3.1-.9.2c-.6.1-1 .1-1.2.1h-.1c-.1 0-.1-.1-.1-.2v-.1c.1-.1.1-.1.2-.1h1.6c.3.1.5.1.5.1zm-29.9-18.4c0-.1.1-.1.1-.1.1 0 .1.1.1.3 0 .2.1.5.1.9s.1.6.1.8v.2c0 .2-.1.6-.2.9-.1.4-.2.5-.3.5V32c0-.3 0-.6-.1-1 0-.4-.1-.7-.1-.9.1-.5.2-.9.3-1.3zm-1.7-2.7c-.1.1-.1.4-.1 1v.5l.3 5.9c.2 3.4.3 5.3.3 5.8.1 1.4.2 2.5.2 3.5 0 .5.1 1.5.1 2.9.1 1.4.1 2.2.1 2.4l.3 2.9.5.2c.2.1.9.1 2.2.1h2.6c3-.1 5.3-.1 6.9-.1H220V49c0-2.7 0-5.1-.1-7.2-.1-.7-.1-3.4-.1-8.1 0-4.7-.1-7.2-.2-7.4-.1-.2-2.8-.3-8.1-.4h-5.2c-1.8 0-2.7.1-2.8.2zm9 1.3v.2c0 .3-.1.5-.2.5h-.1c0-.1-.1-.2-.3-.6v-.2c0-.1.1-.2.2-.2.2.1.4.1.4.3zm-2.4 19.5c-1.4.1-2.2.2-2.3.2h-.2c-.4 0-.6-.2-.6-.7v-.1-.2c.1-.2.1-1.8.1-4.8V40c0-.8 0-2.4-.1-4.7-.1-2.3-.1-3.9-.1-4.7v-1.4c.1 0 .8-.1 2-.1.7 0 1.9.1 3.7.3 1.8.2 2.7.3 2.8.3.5.1.9.1 1 .2.1.1.2.2.3.4.2.6.3 1.5.3 2.7 0 1-.1 3.6-.2 7.8V45c0 1.3 0 1.9-.1 1.9h-.1c-.1 0-.2 0-.3-.1h-.5c-.3 0-.6 0-1 .1-.3.1-.8.1-1.6.1h-3.1zm-4-9.6v2.2c-.1.2-.2.3-.2.3-.2 0-.3-.3-.3-.8v-.4c0-.4 0-.9.1-1.5 0-.5.1-1 .1-1.4.1-.4.1-.6.1-.6 0 .2.1.9.2 2.2zm13-6.4c0 .4-.1.6-.2.6s-.1-.2-.1-.6c0-.4.1-.6.1-.6.1.1.2.3.2.6zM218 41c-.1.5-.1.8-.2.8s-.1-.3-.1-.8v-1c0-.9.1-1.3.2-1.3s.2.5.2 1.4v.9zm-12.4 3v.9c0 .2 0 .3-.1.3-.2-.1-.2-.7-.3-1.7v-.6c0-.4 0-.6.1-.6.1-.1.2.5.3 1.7zm13.6 3.2c0 .1-.1.1-.1.1-.2 0-.2-.1-.2-.1 0-.1.1-.2.2-.2s.1.1.1.2zm-1.8 1.6v.2h-.1-.1H216.3l-.1-.1.2-.2h.1c.1 0 .2 0 .3-.1.1 0 .2-.1.3-.1.2.2.3.2.3.3zm-8.2 0c.6-.1 1.1-.1 1.2-.1.5 0 .9.1.9.3 0 .1-.1.2-.2.2h-.7c-.6 0-1.3 0-2.1-.1s-1.2-.1-1.2-.2c.1-.1.7-.1 2.1-.1zm-9.4-21.9c.1 0 .2 0 .4-.1.2 0 .3-.1.4-.1.2 0 .2 0 .2.1v.2c0 .1-.1.2-.2.2-.1.1-.2.1-.3.1H199.3c-.1 0-.3 0-.5-.1-.2 0-.4-.1-.4-.1h-.9c-.1 0-.2 0-.2-.1h.1c.3 0 1.1-.1 2.4-.1zm-5.3 4.2c0 .1 0 .2.1.3 0 .1.1.2.1.5.1.3.1.5.1.7v1.8c-.2 1.5-.4 2.3-.4 2.3v-.2c-.1-.5-.1-1-.1-1.5s0-1.2.1-2c0-.8 0-1.5.1-1.9zm-.3-6.2h-2.7c-1.8 0-2.8 0-3.2.1-.4.1-.6.2-.6.3v.3c.1.8.3 1.8.5 2.9 0 .1.1.2.1.3.1.4.2.6.4.6 0 0 .1 0 .4-.1.2 0 .4-.1.6-.1h2.7v8.2c0 .6.1 2.4.2 5.4 0 .8.1 1.7.1 2.8 0 1.1.1 2 .1 2.8v2c0 .1.1.1.1.1s.1 0 .2.1c.1 0 .1.1.2.1h1.6c.3 0 .5 0 .6-.1.1-.1.2-.2.2-.4v-8.9c0-1.9 0-3.9-.1-6.2 0-2.2-.1-3.6-.1-4 0-1.5.1-2.4.2-2.6.1-.1.8-.2 2-.3h2.3c.4 0 .7-.1.8-.2.1-.1.1-.4.1-.7v-.7-.7-.2-1h-3.5c-2 .1-3.2.2-3.2.2zm-.2.5c0 .1 0 .1-.1.1-1 0-1.6 0-1.8.1h-.1c-.1 0-.1-.1-.1-.2 0-.2.1-.3.3-.3 1.2.1 1.8.2 1.8.3zm-.4 21.3c0 2.1 0 3.2-.1 3.2-.1-.1-.2-.8-.2-2.2 0-.7 0-1.1.1-1.1.2 0 .2 0 .2.1z"/>
  <path class="st1" d="M18.7 69.7c-.4-.1-.6-.2-.6-.3 0-.1.6-.2 1.7-.2s1.7.1 1.9.2c0 .2-.7.2-2.1.2H18.7zm-6 12.4c-.1.4-.2.6-.3.6-.1 0-.2-.6-.2-1.7 0-1 .1-1.7.2-1.9.2 0 .3.8.3 2.5v.5zm-.5 1.8c-.1.4-.1.7-.2.9h-.1c-.1 0-.1-.2-.1-.6 0-.2 0-.4.1-.6.1-.3.2-.5.3-.5.1 0 .2.1.2.3-.1.2-.1.3-.2.5zm.4 1.9c.1.3 0 .5 0 .5-.1 0-.1-.2-.2-.4v-.1l.1-.3c0-.1 0 .1.1.3zm9.9 3.8H25c.1.2.1.2 0 .2-.7.2-1.5.2-2.2.2h-.3c-.2 0-.4-.1-.6-.2-.2-.1-.3-.2-.2-.3.1-.1.2-.1.3-.1.1 0 .2 0 .4.1l.1.1zm-7.7-22.4c-.3 0-1.1.1-2.6.1h-.5c-.1 0-.2.2-.2.5v.3c-.2 3.3-.3 9.5-.4 18.3v1.9c0 2.1 0 3.3.1 3.4.1.2.8.3 2.1.3h1.4c7.4 0 11.1 0 11.2-.1.1 0 .1-.3.1-.9v-2.1c0-.2 0-.3-.1-.3s-.2-.1-.4-.1h-.3c-4.6.1-7.3.2-8.3.3-1 .1-1.7.2-2 .2h-.3c-.1 0-.1 0-.1-.1l-.1-.1v-.1c0-.1-.1-.9-.1-2.3-.1-5.3-.1-8.6-.1-10 0-2.1 0-3.2.1-3.6.1-1.1.2-1.7.3-1.8.1-.1.1-.1.2-.1s.4 0 1 .1h1.6l7.4.5h.2c.3 0 .4-.2.4-.5v-.3-2.8c0-.4 0-.6-.1-.7 0-.1-.2-.1-.4-.1h-.3c-3.1 0-6.4 0-9.8.1zm-2 5.6c-.2 0-.3-.6-.3-1.7v-.3-.3l.1-.5.1.5c.1.3.1.9.1 1.9v.4zm310.9-30c-.1.5-.2.7-.2.7-.1-.1-.1-.2-.1-.4 0-1 .1-1.6.3-1.6.1 0 .1.3.1.9 0 .2 0 .4-.1.4zM313.3 36c.2.1.7.2 1.5.4s1.1.3 1.1.4h-.2c-.2 0-1-.1-2.3-.3-.3 0-.4-.1-.4-.3 0-.1.1-.1.2-.1h.1zm-2.2-3.5c-.1.4-.2.6-.3.6-.1 0-.1-.2-.1-.5 0-.8.1-1.4.3-1.8.1-.2.2-.3.2-.3s.1.2.1.6v.2c0 .5-.1.9-.2 1.2zm8.5-5.7c0 .1-.2.1-.6.1h-1.4c-.5 0-.7-.1-.7-.2s.2-.1.7-.1h.3c1.1 0 1.7 0 1.7.2zm-5.9-2.2c-2 .1-3 .2-3 .2l-.2 1.4c-.1.5-.2 1.3-.3 2.3-.1.6-.2 1.8-.4 3.8-.2 2-.2 3.3-.2 4 0 .7.1 1.1.2 1.3.1.1.7.1 1.9.1.9 0 2.5 0 4.7-.1s3.6-.1 4.2-.1c1.2 0 1.9 0 2.1.1.2.1.3 1.1.3 3.1V43.1c0 2.2-.3 3.4-1 3.4-.2.1-1.7.2-4.4.4s-4.5.3-5.4.3c-.9 0-1.4 0-1.5.1v.3c0 .4 0 1.1.1 1.9.1.9.1 1.3.2 1.4h.3c.2 0 .4-.1.6-.1h1.9c.7 0 2.8-.3 6.3-.7 1.7-.3 2.9-.4 3.6-.5.4 0 1.1 0 1.9-.1.6-.1.9-.1 1-.2.1-.1.1-.4.1-.9V42.9c0-1 0-2.3.1-3.9 0-1.6.1-2.5.1-2.8v-.1c0-.5-.1-.9-.3-1.1-.2-.2-.6-.2-1.2-.2H320.6c-.8 0-2 0-3.4.1-1.4 0-2.3.1-2.7.1-.6 0-1 0-1-.1-.2-.1-.4-.3-.4-.4 0-.4.1-1.5.3-3.4.2-1.9.3-3 .4-3.1l.2-.4 2.7.1c1.5.1 2.6.1 3.2.2.3.1 1.4.1 3.2.3 1.8.1 2.8.2 3.1.2v-1.7l-.1-1.5c-.2-.2-1.9-.4-5.1-.4-2-.4-4.4-.3-7.3-.2zm1.9 23.1c.1 0 .4 0 .6-.1.3 0 .5-.1.6-.1H317.1c.1 0 .1.1.1.1 0 .1 0 .1-.1.1-.2.1-.5.1-.9.1h-.9c-.5-.1-.7-.1-.7-.2v-.1c.1-.1.2-.1.3-.1.1 0 .2 0 .3.1.2.2.3.2.4.2zM311 49c0-.3 0-.5.1-.5h.1c.1.1.1.5.2 1 0 .3 0 .5-.1.6h-.2c-.1-.3-.1-.6-.1-.7v-.2-.2zm-12.4-9.4v-.2l1.6-9.9h1.3l1.7 10.7-4.6-.6zm-2.8 5.7c0 .2-.1.3-.2.4-.1 0-.2-.1-.2-.4 0-.2.1-.5.2-1.1.1-.6.2-.9.3-.9.1 0 .1.1.1.3 0 .2 0 .5-.1.9-.1.6-.1.8-.1.8zm2.2-5.5c-.1.5-.2.7-.3.7-.1 0-.1-.1-.1-.3v-.3c0-.2.1-.6.2-1.3.1-.6.2-1 .2-1 0-.1.1-.1.2-.1v.1c.1.5 0 1.3-.2 2.2zm5.6-6.1c.1.1.2.7.4 1.8.2 1 .3 1.6.3 1.8 0 .1 0 .1-.1.1s-.2-.6-.5-1.8c-.3-1.2-.4-2-.4-2.2 0-.1 0-.2.1-.2-.1 0 0 .1.2.5zm4 16.4v.1c0 .1 0 .2-.1.2-.2 0-.4-.5-.6-1.6-.1-.2-.1-.3-.1-.4 0-.1 0-.2.1-.2s.2.3.4.8c.1.1.2.5.3 1.1zM295.9 49c-.1.2-.1.3-.2.3s-.1-.1-.1-.2v-.2c.1-.3.1-.5.1-.6 0-.1.1-.2.2-.2s.2.1.2.4c-.1.1-.1.3-.2.5zm-2.9 1.4c0 .3.7.5 2 .5h1c.3 0 .5-.2.6-.5.1-.3.1-.6.2-1 .3-1.3.4-2.1.5-2.5l.6-4c.9 0 1.7 0 2.3-.1l3.8-.1c.1 1.1.3 2.6.7 4.5.3 1.9.6 3.1.7 3.4v.1c0 .2.1.3.2.3.1.1.2.1.4.1h.2c.2 0 .7 0 1.4.1s1.1.1 1.3.1h.2l.1-.2-1.9-8.4-.6-2.8-2.7-13.2c-.2-.9-.3-1.5-.5-1.5-.1-.1-.5-.1-1.4-.1-1.9 0-2.9.1-3 .3-.1.1-.2.5-.3 1l-3.3 13.8c-.3 1.3-1 3.9-1.9 7.8-.4 1.5-.6 2.3-.6 2.4zm9.6-24.1h-.1c-.1 0-.2 0-.3-.1-.1-.1-.2-.1-.2-.1H301.1c0-.1.1-.2.2-.3.2-.1.4-.1.7-.1.2 0 .3 0 .5.1s.2.2.2.3c0 .1 0 .2-.1.2zm-2.3 15.5c-.1 0-.1-.1-.1-.1s.1 0 .2-.1c.2 0 .3 0 .5-.1.2 0 .4 0 .4-.1h1.4c.2 0 .4.1.4.2v.1c0 .2-.1.2-.3.2-.1 0-.2 0-.4-.1s-.4-.1-.5-.1c-.1 0-.3 0-.6.1-.2 0-.4.1-.5.1-.2 0-.3 0-.5-.1zm5.9 1.8c.1-.1.2.2.3.9v.1c0 .5-.1.7-.1.7v-.1c-.1-.4-.2-.7-.2-1-.1-.1-.1-.3 0-.6zm-4.4-22.9l-1.9 3.2c-.1.1-.1.2-.1.2v.1s0 .1.1.1h.3l2-.1c.5 0 .8-.2 1-.5l1.7-2.8c.1-.1.1-.2.1-.2 0-.1-.2-.1-.6-.1h-1.6c-.6-.1-1 0-1 .1zm-.7 2.7c.1 0 .2 0 .4.1.1.1.1.1.1.2l-.1.1h-.1c-.1 0-.1 0-.2-.1h-.8c-.1 0-.2 0-.1-.1.1-.2.4-.2.8-.2zm3.1-2.7c.2-.1.3-.2.3-.1s-.1.3-.3.5l-.2.2h-.1c0-.2.1-.4.3-.6zm-12.7 3.6c.2.1.3.1.3.2 0 .2-.1.2-.3.2h-.1-.1c-.7-.1-1-.2-1-.3v-.1h.1c.1 0 .2 0 .4-.1.2 0 .3-.1.4-.1.1.2.2.2.3.2zm-1.6 4.4c0-.1.1-.1.1-.2.1 0 .1.1.1.4 0 .2 0 .8-.1 1.6 0 .1 0 .2-.1.4l-.1.2v-.6-.5c-.1-.5 0-.9.1-1.3zm-17.4 19.9v-.3-.2c-.1 0-.1-.2-.2-.7-.1-.5-.1-.9-.1-1.3v-.2c0-.1 0-.2.1-.2 0 0 .1.6.3 1.7.2 1.1.3 1.7.3 1.7 0 .4 0 .6-.1.6s-.1-.1-.2-.4c-.1-.2-.1-.4-.1-.6v-.1zm18.4-3.6c0 .4-.1.6-.2.6s-.1-.2-.1-.6v-2.1-1.6-.3c.1 0 .1.5.2 1.6s.1 1.9.1 2.3v.1zm-11.5-4.6c.3.8.4 1.3.4 1.4-.1 0-.3-.3-.5-.8-.2-.6-.3-1-.3-1.2 0-.2-.1-.3-.2-.3h-.1c0-.1 0-.1.1-.1.1.1.3.4.6 1zm6.4-3.9c0 .3-.2.8-.4 1.5s-.4 1.1-.5 1.1c-.1 0-.1 0-.1-.1.1-.3.2-.9.5-1.7.2-.8.4-1.2.5-1.2v.4zm.8-2.7c-.1.1-.1.1-.2.1v-.2c0-.1.1-.5.4-1 .2-.6.3-.8.4-.8 0 .1-.1.5-.3 1-.1.6-.2.9-.3.9zm-15.2-2.1V34l-.1.4c-.1 0-.1-.1-.1-.3-.1-.7-.1-1.6-.1-2.5v-.3-.2l.1-.1h.1v.7zm2.4-2.8c0 .3 0 .4-.1.4s-.1-.1-.1-.4v-.2-.1-.2-.2-.2-.1-.3c.1 0 .1.4.1 1.2v.1zm1.5-1V28.2h-.1c-.1 0-.2-.1-.3-.4-.1-.3-.2-.5-.2-.7V27h.1c.3-.1.4.3.5.9zm-1.6-3.5h-2.3c-.6 0-.8.1-.8.4V42.9c0 .8 0 2-.1 3.6s-.1 2.7-.1 3.1v.7c0 .2.2.2.7.2H273.9v-.4c.1-1.7.1-3.3.1-5 0-2.2 0-4.5-.1-7v-.7-1.3-1.3-.5-.4-1.1-.7-2.4l.4 1c.3.6.5 1.5.9 2.5.3 1 .6 1.9.8 2.7.2.7.6 1.9 1.2 3.6.6 1.7 1 2.8 1.1 3.2l2.4 7.4H282.8c.5 0 .7-.1.7-.3.1-1.5.7-4.4 1.7-8.7.9-3.9 1.7-7 2.5-9.4.2-.6.4-1.3.6-2.2.2-.9.4-1.5.5-2 .1-.5.2-.7.3-.7h.1v1c0 1.7-.2 6.9-.7 15.7-.1 3-.2 5-.2 5.9 0 .8.1 1.3.2 1.4.1.1.7.2 1.6.2h1.1c.2 0 .4-.1.5-.2 0-.1.1-.1.1-.3v-.3-.4c0-.8-.1-1.5-.1-2.2-.1-.6-.1-1.8-.1-3.5 0-2.4.1-5.2.1-8.4 0-.3.1-1.2.2-2.9.1-1.6.2-2.9.2-3.8.1-2.8.2-4.4.2-4.5V24v-.2-.2c0-.2 0-.2-.1-.3 0-.1-.1-.1-.3-.1h-.6l-.8.1c-1.1 0-1.9.1-2.5.1-.4 0-.7 0-.7.1-.3.3-.7 1.4-1.1 3.2-.3 1.3-.6 2.2-.6 2.6 0 .1-.4 1.5-1.1 4.3-.7 2.8-1.4 5.2-1.9 7.1-.5 2-.9 3-1 3l-1.5-5.1c-.2-.7-.7-2.2-1.5-4.2-.7-2.1-1.3-3.8-1.7-5l-1.4-4.1c-.1-.5-.2-.8-.3-1v-.1c-.1.4-.6.3-1.5.2z"/>
  <path class="st1" d="M88.7 68.4c-.1 0-.1-.1-.1-.1s.2-.1.6-.1h1v.1H90h-.1-.2c-.4.3-.7.2-1 .1m5-1.7h-7.8c-1 0-1.9-.1-2.6-.2-.1 0-.3 0-.5-.1-.2 0-.3-.1-.4-.1-.2 0-.3.2-.3.6v.6c0 2-.1 4.5-.1 7.7v5.4c0 3.6-.1 6.2-.1 7.6v2.1c0 .7 0 1.2.1 1.4.1.2.2.3.5.3h6.4c1.8 0 3.3 0 4.3.1 1.6.1 2.7.1 3.3.1h.6c.1-.1.2-.4.2-1.1.1-.7.1-1.2.1-1.7v-.5c-.1-.1-.3-.2-.7-.2h-.3c-.1 0-.3 0-.5.1-.7.1-2 .1-4.1.1-3.9 0-6-.1-6.1-.3 0 0-.1-.6-.1-1.7 0-2.6.1-4.1.1-4.5.1-.2.3-.3.6-.3h.9c2 .1 3.7.2 5.4.2h2.1c.9 0 1.3-.1 1.3-.2v-.4-.5-.6c0-.3-.1-.5-.1-.6v-.3-.2-.1-.1l-.1-.1c-.1 0-.1 0-.1-.1h-.2c-.1 0-.2 0-.4-.1-.3-.1-2.4-.2-6.4-.3-2-.1-3.1-.2-3.2-.3V78v-1-1.8c0-1.2 0-2.4.1-3.7.1-1.1.1-1.6.3-1.7.1-.1.9-.1 2.2-.1 1 0 2.2 0 3.6.1s2.5.1 3.3.1h1c.2 0 .4 0 .6.1h.4c.2-.2.3-1 .3-2.4 0-.5 0-.8-.1-.8-.4 0-1.5 0-3.5-.1zm-10.5 4.1c0 .7-.1 1.4-.1 2.1l-.2.5v-.7c0-.8-.1-1.3-.1-1.5 0-1 .1-1.5.3-1.5.1 0 .1.3.1 1v.1zm4.2 10.5c0 .1-.2.2-.6.2-.4 0-.6-.1-.7-.2 0-.1.2-.1.6-.1.5 0 .7 0 .7.1zm-3.9-3.7c0 1.9-.1 2.8-.1 2.8-.1 0-.1-.8-.1-2.4v-.5l.1-.1c.1-.1.1 0 .1.2zm1 8.4c0 .4-.1.7-.2.7s-.2-.2-.2-.7c0-.7.1-1.2.2-1.5l.1-.1c.1 0 .1.6.1 1.6zm2.2 4.3c2.3 0 3.5.1 3.5.2s-.4.2-1.3.2c-.1 0-.4 0-1.1.1-.7 0-1.1.1-1.4.1h-.3v-.1-.2c0-.2.2-.3.6-.3zm6.4.9l.4-.2c.4 0 .7-.1.9-.1h.4c.1 0 .2.1.3.2l.2.2h-.5c-.3.2-.9.1-1.7-.1zm-18.9.7c.1 0 .1 0 .1.1 0 .2-.1.2-.2.3-.2.1-.4.1-.6.1-.2 0-.4 0-.6-.1-.1-.1-.2-.1-.2-.3l.9-.2c.1 0 .4 0 .6.1zm-9.1-24.8s.2.8.6 2.3c.3 1.2.5 2.3.7 3.2.3 1.3.5 2.1.6 2.3.1.3.4 1.3.8 2.9.3 1.3.6 2.7 1 4.2.3 1.5.5 2.4.6 2.6.2.7.4 1.4.6 2 .5 2.2.9 3.4 1 3.8.2.5.2.9.3 1.3.1.5.2.9.3 1 .1.2.9.3 2.2.3.4 0 .7 0 .8-.1.1-.1.3-.6.4-1.5l2.8-13.2.7-2.8 1.9-8.4-.1-.2h-.2c-.1 0-.5 0-1.1.1-.6.1-1 .1-1.2.1h-.2c-.2 0-.4 0-.5.1-.1.1-.1.2-.2.5-.2.8-.5 2.3-.9 4.5-.5 3.3-1.3 7.1-2.3 11.2-.1.3-.1.7-.2 1.3-.1.6-.2 1.1-.3 1.5-.1.4-.1.7-.2.7v.1l-.3-.9c-.1-.1-.2-.7-.4-1.9s-.5-2.5-.7-4c-.3-1.5-.5-2.6-.7-3.3-.3-1.3-.7-3.3-1.2-6-.2-.9-.3-1.8-.5-2.5l-.3-1c-.1-.3-.3-.5-.6-.5H67.4c-1.5-.2-2.3 0-2.3.3zm3.2 1.3c.1.2.1.3.1.5 0 .3-.1.4-.2.4s-.2-.1-.2-.2 0-.3-.1-.6v-.2c0-.1 0-.2.1-.2.2.1.3.2.3.3zm10.9-.3c-.1.6-.2 1-.3 1.1-.2.5-.3.8-.4.8-.1 0-.1-.1-.1-.2s0-.2.1-.4c.2-1.1.4-1.6.6-1.6.1 0 .1 0 .1.1v.2c0-.1 0 0 0 0zm-4.1 16.3c-.1.3-.2.5-.3.5 0 0-.1-.1-.1-.2 0-.2.1-.5.2-.8.1-.3.3-.5.3-.5s.1 0 .1.1c.1.2 0 .5-.2.9zm-4.5-6.1c.2 1 .4 1.7.4 2.3v.1c-.1 0-.2-.1-.2-.2 0 0 0-.2-.1-.6-.1-.4-.2-.8-.2-1.2-.1-.4-.1-.7-.1-.8v-.3-.1c.1.1.2.3.2.8zm-2.5-5.5s0 .3.1.7c0 .4.1.7.1.9 0 .2 0 .3-.1.3s-.1-.3-.3-.8c-.1-.6-.2-.9-.2-1.1 0-.3.1-.4.2-.4s.2.2.2.4zm-19.7 17c0 .2-.1.3-.2.3-.1-.1-.2-.1-.2-.3 0-1.5 0-2.2.1-2.2s.1.3.2 1c0 .6.1 1 .1 1.2zm12.9-7.7l-.1 1v-1.5c0-.5 0-.7.1-.7.1.1.1.2.1.4 0 .1 0 .3-.1.8zm-11.5-1c.1 1.4.1 2.2.1 2.5 0 1.2-.1 1.8-.2 1.8s-.2-.6-.2-1.7c-.1-1.1-.1-2.1-.1-3 0-.5 0-.8.1-.8s.2.4.3 1.2zm10 9.3v.2c0 .2 0 .2-.1.3-.1 0-.1-.1-.1-.4 0-.3 0-.5.1-.5 0 0 0 .1.1.4zM55.3 78c.3.6.5 1 .5 1.3 0 .1 0 .1-.1.1s-.2-.1-.2-.2l-.3-.9c-.2-.5-.3-.7-.3-.8v-.1c.1 0 .2.2.4.6zm-1.4-.7c0 .3.1.7.4 1.3l-.6-.8c-.1 0-.2-.3-.5-.9-.3-.6-.4-.9-.4-.9 0-.1.1-.1.2-.1s.2.2.5.7c.2.4.4.7.4.7zm-5.6-1.5c0 1.2-.1 1.9-.2 1.9s-.2-.6-.2-1.9c0-.3.1-.4.2-.4.1.1.2.2.2.4zm14.4 1.9c-.1.4-.1.6-.3.6-.1 0-.1-.1-.1-.3 0-.5.1-.9.3-1.2l.1-.1c.1 0 .1.1.1.4 0 .2 0 .4-.1.6zm-13.6-7.2c-.1.8-.1 1.2-.3 1.2-.1 0-.2-.2-.2-.7 0-.4 0-.7.1-1.1 0-.3.1-.5.2-.5s.2.3.2.8v.3zm12.7 1.7c-.1.9-.2 1.3-.3 1.3-.1 0-.1-.3-.1-.8 0-1.1.1-1.6.3-1.6.1 0 .1.2.1.5v.6zm-.3-2.3c0 .2 0 .3-.1.3 0 0-.1 0-.1-.1-.1-.1-.1-.2-.1-.3v-.2c0-.2.1-.2.1-.2.1 0 .2.2.2.5zm-1-1.1v3.8c-.1.6-.1 1.5-.1 2.4v1.6l-.1 2.5-.1 6.2-.2 1.2c0-.6-1.2-3.4-3.6-8.4l-1-2.2c-.2-.5-.5-1.3-.9-2.5s-.7-2-.9-2.3c0-.1-.1-.3-.2-.6s-.2-.6-.3-.8c-.1-.3-.2-.5-.3-.7-.1-.1-.1-.2-.2-.4-.1-.1-.1-.3-.1-.3 0-.1-.1-.1-.1-.2s-.1-.1-.1-.2l-.1-.1-.1-.1s-.1 0-.1-.1c0 0-.1 0-.1-.1-1.1-.2-2.6-.3-4.4-.3h-.3v.6c0 .1 0 1 .1 2.8 0 1.8.1 3.6.1 5.4v1.4c0 3.8-.1 6.9-.1 9.4 0 2.4-.1 4.1-.1 5 0 .3.2.5.5.5h.1l.9-.1c.4-.1.8-.1.9-.1h.7c.1 0 .1 0 .1-.1v-.1V87v-2.1-3.4V78c-.1-4.9-.1-7.3-.1-7.4 0 0 .1.1.1.4.1.3.1.6.2 1s.2.6.2.8c.9 1.9 1.7 3.6 2.3 5.1.6 1.5 1.4 3.4 2.2 5.7.9 2.3 1.6 4.1 2.1 5.5.6 1.5.9 2.3 1 2.4 0 0 .8.1 2.4.1 1.1.1 1.6.1 1.7.1.5 0 .8-.1.8-.3 0-.2.1-1.5.1-3.8v-2.4c0-1 0-2.3.1-3.7v-3.3c.1-4.5.1-7.1.1-7.8v-2.3c0-.2 0-.3-.1-.4-.1-.1-.3-.1-.5-.1h-1.4c-.2 0-.5.1-.7.2-.2.1-.3.2-.3.4v.3c-.1.1-.1.2-.1.3zm-30.6 1.5c0-.1.1-.1.1-.1.1 0 .1.1.1.3 0 .2.1.5.1.9s.1.6.1.8v.2c0 .2-.1.6-.2.9-.1.4-.2.5-.3.5V73.5c0-.3 0-.6-.1-1 0-.4-.1-.7-.1-.9.1-.5.1-1 .3-1.3zm-1.7-2.7c-.1.1-.1.4-.1 1v.4l.3 5.9c.2 3.4.3 5.3.3 5.8.1 1.4.2 2.5.2 3.5 0 .5.1 1.5.1 2.9.1 1.4.1 2.2.1 2.4l.3 2.9.5.2c.2.1.9.1 2.2.1h2.6c3-.1 5.3-.1 6.9-.1H44.7v-2.1c0-2.7 0-5.1-.1-7.2-.1-.7-.1-3.4-.1-8.1 0-4.7-.1-7.2-.2-7.4-.1-.2-2.8-.3-8.1-.4H31c-1.8 0-2.8 0-2.8.2zm8.9 1.3v.2c0 .3-.1.5-.2.5h-.1c0-.1-.1-.2-.3-.6v-.2c0-.1.1-.2.2-.2.3 0 .4.1.4.3zm-2.4 19.5c-1.4.1-2.2.2-2.3.2h-.2c-.4 0-.6-.2-.6-.7v-.1-.2c.1-.2.1-1.8.1-4.8V81.5c0-.8 0-2.4-.1-4.7-.1-2.3-.1-3.9-.1-4.7v-1.4c.1 0 .8-.1 2-.1.7 0 1.9.1 3.7.3 1.8.2 2.7.3 2.8.3.5.1.9.1 1 .2.1.1.2.2.3.4.2.6.3 1.5.3 2.7 0 1-.1 3.6-.2 7.8v4.1c0 1.3 0 1.9-.1 1.9h-.1c-.1 0-.2 0-.3-.1h-.5c-.3 0-.6 0-1 .1-.3.1-.8.1-1.6.1h-3.1zm-3.9-9.6V81c-.1.2-.2.3-.2.3-.2 0-.3-.3-.3-.8v-.4c0-.4 0-.9.1-1.5 0-.5.1-1 .1-1.4.1-.4.1-.6.1-.6 0 .2.1.9.2 2.2zm12.9-6.4c0 .4-.1.6-.2.6s-.1-.2-.1-.6c0-.4.1-.6.1-.6.2.1.2.3.2.6zm-1 10.1c-.1.5-.1.8-.2.8s-.1-.3-.1-.8v-1c0-.9.1-1.3.2-1.3s.2.5.2 1.4v.9zm-12.5 2.9v.9c0 .2 0 .3-.1.3-.2-.1-.2-.7-.3-1.7v-.6c0-.4 0-.6.1-.6s.2.6.3 1.7zm13.7 3.3c0 .1-.1.1-.1.1-.2 0-.2-.1-.2-.1 0-.1.1-.2.2-.2 0 0 .1 0 .1.2zm-1.8 1.6v.2H42h-.1H41l-.1-.1.2-.2h.1c.1 0 .2 0 .3-.1.1 0 .2-.1.3-.1l.3.3zm-8.3-.1c.6-.1 1.1-.1 1.2-.1.5 0 .9.1.9.3 0 .1-.1.2-.2.2H35c-.6 0-1.3 0-2.1-.1s-1.2-.1-1.2-.2c.1 0 .8-.1 2.1-.1z"/>
  <path class="st1" d="M173.9 68.4c.1 0 .2 0 .4-.1.2 0 .3-.1.4-.1.2 0 .2 0 .2.1v.1c0 .1-.1.2-.2.2-.1.1-.2.1-.3.1H173.4c-.1 0-.3 0-.5-.1-.2 0-.4-.1-.4-.1h-.9c-.1 0-.2 0-.2-.1h.1c.3.1 1.1 0 2.4 0m-5.4 4.2c0 .1 0 .2.1.3 0 .1.1.2.1.5.1.3.1.5.1.7v1.8c-.2 1.5-.4 2.3-.4 2.3V78c-.1-.5-.1-1-.1-1.5s0-1.2.1-2c.1-.9.1-1.5.1-1.9zm-.3-6.2h-2.6c-1.8 0-2.8 0-3.2.1-.4.1-.6.2-.6.3v.3c.1.8.3 1.8.5 2.9 0 .1.1.2.1.3.1.4.2.6.4.6 0 0 .1 0 .4-.1.2 0 .4-.1.6-.1h2.7v8.2c0 .6.1 2.4.2 5.4 0 .8.1 1.7.1 2.8 0 1.1.1 2 .1 2.8v2c0 .1.1.1.1.1s.1 0 .2.1c.1 0 .1.1.2.1h1.6c.3 0 .5 0 .6-.1.1-.1.2-.2.2-.4v-8.9c0-1.9 0-3.9-.1-6.2 0-2.2-.1-3.6-.1-4 0-1.5.1-2.4.2-2.6.1-.1.8-.2 2-.3H174.2c.4 0 .7-.1.8-.2.1-.1.1-.4.1-.7v-.7-.7-.2-1h-3.5c-2.1.1-3.4.1-3.4.2zm-.1.5c0 .1 0 .1-.1.1-1 0-1.6 0-1.8.1h-.1c-.1 0-.1-.1-.1-.2 0-.2.1-.3.3-.3 1.2.1 1.8.2 1.8.3zm-.4 21.3c0 2.1 0 3.2-.1 3.2-.1-.1-.2-.8-.2-2.2 0-.7 0-1.1.1-1.1s.2 0 .2.1zm-23.3 1.6c0 .2-.1.3-.2.3s-.2-.1-.2-.3c0-1.5 0-2.2.1-2.2s.1.3.2 1c.1.6.1 1 .1 1.2zm13-7.7l-.1 1v-1.5c0-.5 0-.7.1-.7.1.1.1.2.1.4-.1.1-.1.3-.1.8zm-11.6-1c.1 1.4.1 2.2.1 2.5 0 1.2-.1 1.8-.2 1.8s-.2-.6-.2-1.7c-.1-1.1-.1-2.1-.1-3 0-.5 0-.8.1-.8s.2.4.3 1.2zm10 9.3v.2c0 .2 0 .2-.1.3-.1 0-.1-.1-.1-.4 0-.3 0-.5.1-.5 0 0 0 .1.1.4zM151.3 78c.3.6.5 1 .5 1.3 0 .1 0 .1-.1.1s-.2-.1-.2-.2l-.3-.9c-.2-.5-.3-.7-.3-.8v-.1c.1 0 .2.2.4.6zm-1.4-.7c0 .3.1.7.4 1.3l-.6-.8c-.1 0-.2-.3-.5-.9-.3-.6-.4-.9-.4-.9 0-.1.1-.1.2-.1s.2.2.5.7c.3.4.4.7.4.7zm-5.6-1.5c0 1.2-.1 1.9-.2 1.9s-.2-.6-.2-1.9c0-.3.1-.4.2-.4.1.1.2.2.2.4zm14.4 1.9c-.1.4-.1.6-.3.6-.1 0-.1-.1-.1-.3 0-.5.1-.9.3-1.2l.1-.1c.1 0 .1.1.1.4 0 .2 0 .4-.1.6zm-13.6-7.2c-.1.8-.1 1.2-.3 1.2-.1 0-.2-.2-.2-.7 0-.4 0-.7.1-1.1 0-.3.1-.5.2-.5s.2.3.2.8v.3zm12.7 1.7c-.1.9-.2 1.3-.3 1.3-.1 0-.1-.3-.1-.8 0-1.1.1-1.6.3-1.6.1 0 .1.2.1.5v.3c.1.1 0 .2 0 .3zm-.3-2.3c0 .2 0 .3-.1.3 0 0-.1 0-.1-.1-.1-.1-.1-.2-.1-.3v-.2c0-.2.1-.2.1-.2.1 0 .2.2.2.5zm-1-1.1v3.8c-.1.6-.1 1.5-.1 2.4v1.6l-.1 2.5-.1 6.2-.2 1.2c0-.6-1.2-3.4-3.6-8.4l-1-2.2c-.2-.5-.5-1.3-.9-2.5s-.7-2-.9-2.3c0-.1-.1-.3-.2-.6s-.2-.6-.3-.8c-.1-.3-.2-.5-.3-.7-.1-.1-.1-.2-.2-.4-.1-.1-.1-.3-.1-.3 0-.1-.1-.1-.1-.2s-.1-.1-.1-.2l-.1-.1-.1-.1s-.1 0-.1-.1c0 0-.1 0-.1-.1-1.1-.2-2.6-.3-4.4-.3h-.3v.6c0 .1 0 1 .1 2.8 0 1.8.1 3.6.1 5.4v1.4c0 3.8-.1 6.9-.1 9.4 0 2.4-.1 4.1-.1 5 0 .3.2.5.5.5h.1l.9-.1c.4-.1.8-.1.9-.1h.7c.1 0 .1 0 .1-.1v-.1V87v-2.1-3.4V78c-.1-4.9-.1-7.3-.1-7.4 0 0 .1.1.1.4.1.3.1.6.2 1s.2.6.2.8c.9 1.9 1.7 3.6 2.3 5.1.6 1.5 1.4 3.4 2.2 5.7.9 2.3 1.6 4.1 2.1 5.5.6 1.5.9 2.3 1 2.4 0 0 .8.1 2.4.1 1.1.1 1.6.1 1.7.1.5 0 .8-.1.8-.3 0-.2.1-1.5.1-3.8v-2.4c0-1 0-2.3.1-3.7v-3.3c.1-4.5.1-7.1.1-7.8v-2.3c0-.2 0-.3-.1-.4-.1-.1-.3-.1-.5-.1h-1.4c-.2 0-.5.1-.7.2-.2.1-.3.2-.3.4v.3c-.1.1-.1.2-.1.3zm-24.3-.4c-.1 0-.1-.1-.1-.1s.2-.1.6-.1h1v.1h-.2-.1-.2c-.4.3-.7.2-1 .1zm5-1.7h-7.8c-1 0-1.9-.1-2.6-.2-.1 0-.3 0-.5-.1-.2 0-.3-.1-.4-.1-.2 0-.3.2-.3.6v.6c0 2-.1 4.5-.1 7.7v5.4c0 3.6-.1 6.2-.1 7.6v2.1c0 .7 0 1.2.1 1.4.1.2.2.3.5.3h6.4c1.8 0 3.3 0 4.3.1 1.6.1 2.7.1 3.3.1h.6c.1-.1.2-.4.2-1.1.1-.7.1-1.2.1-1.7v-.5c-.1-.1-.3-.2-.7-.2h-.3c-.1 0-.3 0-.5.1-.7.1-2 .1-4.1.1-3.9 0-6-.1-6.1-.3 0 0-.1-.6-.1-1.7 0-2.6.1-4.1.1-4.5.1-.2.3-.3.6-.3h.9c2 .1 3.7.2 5.4.2h2.1c.9 0 1.3-.1 1.3-.2v-.4-.5-.6c0-.3-.1-.5-.1-.6v-.3-.2-.1-.1l-.1-.1c-.1 0-.1 0-.1-.1h-.2c-.1 0-.2 0-.4-.1-.3-.1-2.4-.2-6.4-.3-2-.1-3.1-.2-3.2-.3V78v-1-1.8c0-1.2 0-2.4.1-3.7.1-1.1.1-1.6.3-1.7.1-.1.9-.1 2.2-.1 1 0 2.2 0 3.6.1s2.5.1 3.3.1h1c.2 0 .4 0 .6.1h.4c.2-.2.3-1 .3-2.4 0-.5 0-.8-.1-.8-.5 0-1.5 0-3.5-.1zm-10.5 4.1c0 .7-.1 1.4-.1 2.1l-.2.5v-.7c0-.8-.1-1.3-.1-1.5 0-1 .1-1.5.3-1.5.1 0 .1.3.1 1v.1zm4.2 10.5c0 .1-.2.2-.6.2-.4 0-.6-.1-.7-.2 0-.1.2-.1.6-.1.5 0 .7 0 .7.1zm-3.9-3.7c0 1.9-.1 2.8-.1 2.8-.1 0-.1-.8-.1-2.4v-.5l.1-.1c.1-.1.1 0 .1.2zm1 8.4c0 .4-.1.7-.2.7s-.2-.2-.2-.7c0-.7.1-1.2.2-1.5l.1-.1s.1.6.1 1.6zm2.1 4.3c2.3 0 3.5.1 3.5.2s-.4.2-1.3.2c-.1 0-.4 0-1.1.1-.7 0-1.1.1-1.4.1h-.3v-.1-.2c0-.2.2-.3.6-.3zm6.4.9l.4-.2c.4 0 .7-.1.9-.1h.4c.1 0 .2.1.3.2l.2.2h-.5c-.3.2-.8.1-1.7-.1zM121 89.3c.2 0 .2.2.2.7v.5c0 .3-.1.5-.2.7-.1 0-.1-.5-.1-1.4 0-.2.1-.4.1-.5zm.8-3.6v.3c0 1.7-.1 2.5-.2 2.5 0 0-.1-.4-.1-1.3-.1-.9-.1-1.5-.1-1.8 0-.5 0-.7.1-.7l.1.2c.1.3.2.6.2.8zm-.4-7.9c0 .3-.1.4-.1.4-.1 0-.1-.4-.2-1.1-.1-.7-.1-1.1-.1-1.3 0-.1 0-.4.1-.9s.1-.7.2-.7c0 0 .1.5.1 1.6v2zm-2.3-10.9v.1c0 .3 0 1.2-.1 2.8 0 1.6-.1 2.7-.1 3.4v.3c0 2.5.1 5.7.2 9.4.1 3.1.2 5.4.2 6.7 0 2.1.1 3.2.3 3.2.1.1.4.2 1 .2.1 0 .3 0 .6-.1.3 0 .4-.1.5-.1l1.1-.1-.1-3.2c0-.4-.1-1.4-.1-2.9s-.1-2.7-.1-3.5c-.1-.8-.1-4.1-.2-9.7v-2.9-2.4-1c0-.3 0-.5-.1-.5-.1-.1-.2-.1-.5-.1l-2.2-.3h-.1c-.1 0-.1 0-.2.1 0 0-.1.1-.1.2v.4zm-18.2 22.9c0 .2-.1.3-.2.3s-.2-.1-.2-.3c0-1.5 0-2.2.1-2.2s.1.3.2 1c.1.6.1 1 .1 1.2zm13-7.7l-.1 1v-1.5c0-.5 0-.7.1-.7.1.1.1.2.1.4 0 .1 0 .3-.1.8zm-11.6-1c.1 1.4.1 2.2.1 2.5 0 1.2-.1 1.8-.2 1.8s-.2-.6-.2-1.7c-.1-1.1-.1-2.1-.1-3 0-.5 0-.8.1-.8.2 0 .3.4.3 1.2zm10 9.3v.2c0 .2 0 .2-.1.3-.1 0-.1-.1-.1-.4 0-.3 0-.5.1-.5 0 0 .1.1.1.4zM107.9 78c.3.6.5 1 .5 1.3 0 .1 0 .1-.1.1s-.2-.1-.2-.2l-.3-.9c-.2-.5-.3-.7-.3-.8v-.1s.2.2.4.6zm-1.5-.7c0 .3.1.7.4 1.3l-.6-.8c-.1 0-.2-.3-.5-.9-.3-.6-.4-.9-.4-.9 0-.1.1-.1.2-.1s.2.2.5.7c.3.4.4.7.4.7zm-5.6-1.5c0 1.2-.1 1.9-.2 1.9s-.2-.6-.2-1.9c0-.3.1-.4.2-.4.2.1.2.2.2.4zm14.5 1.9c-.1.4-.1.6-.3.6-.1 0-.1-.1-.1-.3 0-.5.1-.9.3-1.2l.1-.1c.1 0 .1.1.1.4 0 .2-.1.4-.1.6zm-13.7-7.2c-.1.8-.1 1.2-.3 1.2-.1 0-.2-.2-.2-.7 0-.4 0-.7.1-1.1 0-.3.1-.5.2-.5s.2.3.2.8v.3zm12.8 1.7c-.1.9-.2 1.3-.3 1.3-.1 0-.1-.3-.1-.8 0-1.1.1-1.6.3-1.6.1 0 .1.2.1.5v.6zm-.4-2.3c0 .2 0 .3-.1.3 0 0-.1 0-.1-.1-.1-.1-.1-.2-.1-.3v-.2c0-.2.1-.2.1-.2.2 0 .2.2.2.5zm-.9-1.1v3.8c-.1.6-.1 1.5-.1 2.4v1.6l-.1 2.5-.1 6.2-.2 1.2c0-.6-1.2-3.4-3.6-8.4l-1-2.2c-.2-.5-.5-1.3-.9-2.5s-.7-2-.9-2.3c0-.1-.1-.3-.2-.6s-.2-.6-.3-.8c-.1-.3-.2-.5-.3-.7-.1-.1-.1-.2-.2-.4-.1-.1-.1-.3-.1-.3 0-.1-.1-.1-.1-.2s-.1-.1-.1-.2l-.1-.1-.1-.1s-.1 0-.1-.1c0 0-.1 0-.1-.1-1.1-.2-2.6-.3-4.4-.3h-.3v.6c0 .1 0 1 .1 2.8 0 1.8.1 3.6.1 5.4v1.4c0 3.8-.1 6.9-.1 9.4 0 2.4-.1 4.1-.1 5 0 .3.2.5.5.5h.1l.9-.1c.4-.1.8-.1.9-.1h.7c.1 0 .1 0 .1-.1v-.1V87v-2.1-3.4V78c-.1-4.9-.1-7.3-.1-7.4 0 0 .1.1.1.4.1.3.1.6.2 1s.2.6.2.8c.9 1.9 1.7 3.6 2.3 5.1.6 1.5 1.4 3.4 2.2 5.7.9 2.3 1.6 4.1 2.1 5.5.6 1.5.9 2.3 1 2.4 0 0 .8.1 2.4.1 1.1.1 1.6.1 1.7.1.5 0 .8-.1.8-.3 0-.2.1-1.5.1-3.8v-2.4c0-1 0-2.3.1-3.7v-3.3c.1-4.5.1-7.1.1-7.8v-2.3c0-.2 0-.3-.1-.4-.1-.1-.3-.1-.5-.1h-1.4c-.2 0-.5.1-.7.2-.2.1-.3.2-.3.4v.3c-.1.1-.1.2-.1.3z"/>
  <path class="st1" d="M261 81.1v-.2l1.6-9.9h1.3l1.7 10.7-4.6-.6zm-2.8 5.7c0 .2-.1.3-.2.4-.1 0-.2-.1-.2-.4 0-.2.1-.5.2-1.1.1-.6.2-.9.3-.9.1 0 .1.1.1.3 0 .2 0 .5-.1.9-.1.6-.1.8-.1.8zm2.2-5.6c-.1.5-.2.7-.3.7-.1 0-.1-.1-.1-.3v-.3c0-.2.1-.6.2-1.3.1-.6.2-1 .2-1 0-.1.1-.1.2-.1v.1c.1.6 0 1.3-.2 2.2zm5.5-6c.1.1.2.7.4 1.8.2 1 .3 1.6.3 1.8 0 .1 0 .1-.1.1s-.2-.6-.5-1.8c-.3-1.2-.4-2-.4-2.2 0-.1 0-.2.1-.2 0 0 .1.1.2.5zm4 16.3v.1c0 .1 0 .2-.1.2-.2 0-.4-.5-.6-1.6-.1-.2-.1-.3-.1-.4 0-.1 0-.2.1-.2s.2.3.4.8c.1.2.2.5.3 1.1zm-11.7-1c-.1.2-.1.3-.2.3s-.1-.1-.1-.2v-.2c.1-.3.1-.5.1-.6 0-.1.1-.2.2-.2s.2.1.2.4c-.1.1-.1.3-.2.5zm-2.9 1.3c0 .3.7.5 2 .5h1c.3 0 .5-.2.6-.5.1-.3.1-.6.2-1 .3-1.3.4-2.1.5-2.5l.6-4c.9 0 1.7 0 2.3-.1l3.8-.1c.1 1.1.3 2.6.7 4.5.3 1.9.6 3.1.7 3.4v.1c0 .2.1.3.2.3.1.1.2.1.4.1h.2c.2 0 .7 0 1.4.1s1.1.1 1.3.1h.2l.1-.2-1.9-8.4-.6-2.8-2.6-13.2c-.2-.9-.3-1.5-.5-1.5-.1-.1-.5-.1-1.4-.1-1.9 0-2.9.1-3 .3-.1.1-.2.5-.3 1l-3.3 13.8c-.3 1.3-1 3.9-1.9 7.8-.5 1.6-.7 2.4-.7 2.4zm9.7-24.1h-.1c-.1 0-.2 0-.3-.1-.1-.1-.2-.1-.2-.1H263.5c0-.1.1-.2.2-.3.2-.1.4-.1.7-.1.2 0 .3 0 .5.1s.2.2.2.3l-.1.2zm-2.4 15.5c-.1 0-.1-.1-.1-.1s.1 0 .2-.1c.2 0 .3 0 .5-.1.2 0 .4 0 .4-.1h1.4c.2 0 .4.1.4.2v.1c0 .2-.1.2-.3.2-.1 0-.2 0-.4-.1s-.4-.1-.5-.1c-.1 0-.3 0-.6.1-.2 0-.4.1-.5.1-.1.1-.3 0-.5-.1zm5.9 1.9c.1-.1.2.2.3.9v.1c0 .5-.1.7-.1.7v-.1c-.1-.4-.2-.7-.2-1v-.6zm-32.6-17.9v.1c0 .4.1.9.1 1.4.6 3.5.9 6.2 1.1 7.9.1.9.3 2.4.5 4.6.3 2.2.5 4.5.8 6.9.3 2.4.4 3.6.5 3.7 0 .1.2.2.5.2.2 0 .7-.1 1.3-.2l1-.2-.1-.6v-.4c0-.6-.2-2.1-.5-4.5s-.5-3.9-.5-4.3v-.3c.1-.1.6-.2 1.5-.2.7 0 2.2 1.4 4.3 4.1 2.2 2.8 3.3 4.6 3.4 5.6.1.1.1.2.1.3 0 .1.1.2.1.3.1.1.2.1.4.1h2.6c.6 0 .9-.1.9-.2v-.1c0-.6-.6-1.7-1.7-3.4-1.1-1.6-2.3-3.2-3.5-4.6-1.3-1.4-2.1-2.1-2.5-2.1 0-.2 1.7-.4 5.2-.6H253.2s.1 0 .2-.1c.1 0 .2-.1.2-.1 0-.1.1-.2.1-.3V77.9c0-2.4.1-4.5.2-6.3.1-1.3.1-2.4.1-3.3v-.5c0-.2-.1-.4-.3-.4h-.8c-2-.1-4.2-.1-6.8-.1-3.8 0-6.5-.1-8.2-.1h-1.6-.4zm16.3 2.5c0 .9-.1 1.3-.1 1.3v-.1c0-.1-.1-.2-.1-.2v-.2c-.1-.1-.1-.3-.1-.5V69.4c0-.1.1-.2.2-.2 0 0 .1.2.1.5zm-10.1.3l7 .2H250.5c.1.1.2.4.2 1.1.1 1.1.1 2.4.1 4 0 1.1 0 1.7-.1 1.8-.1.1-2 .4-5.6.6-.9.1-1.8.2-2.6.4-.6.1-.9.1-1 .1l-.4.1c-.3.1-.4.1-.4.1-.1-.1-.1-.4-.1-1s-.1-1.4-.2-2.4-.2-1.8-.3-2.4c-.2-.8-.3-1.4-.3-1.8 0-.2 0-.3.1-.4.2-.2.9-.4 2.2-.4zm10.6-.1c0 1.4-.1 2-.1 2s-.1-.3-.1-.9c-.1-.6-.1-1-.1-1.1 0-.2.1-.3.2-.3 0 0 .1.1.1.3zm-14.5 4.3c-.1 0-.1-.2-.2-.6-.1-.4-.1-.8-.1-1v-1.3l.2.9c.1.5.2 1.1.2 1.6-.1.2-.1.3-.1.4zm13.9 3.8c0 .2-.1.2-.4.2-.1 0-.3.1-.7.2-.4.1-.6.2-.7.2h-.1c0-.1-.1-.1-.4-.3l-.4-.2.9-.1c.6-.1 1-.1 1.3-.1.4 0 .5 0 .5.1zm-9.4 1.7c0 .1-.1.1-.2.1h-.2c-.1 0-.2 0-.3.1h-.5c-.2 0-.3 0-.3-.1s.1-.2.3-.2c.2-.1.5-.1.7-.1.4.1.5.1.5.2zm5.2 6.1l.2.3s.2.3.5.7c.4.5.5.7.5.7-.1 0-.4-.3-1-1-.6-.6-.8-1-.8-1.2 0-.1 0-.1.1-.1.1.1.3.3.5.6zm-6.5 5.1c0 .1-.1.2-.2.2-.1.1-.2.1-.3.1l-.2-1.1s.1-.3.1-.8c.1-.5.1-.8.1-1l.2 1.2c.2.9.3 1.3.3 1.4zm11.6-.2h.4s.1 0 .2.1v.1c0 .1-.1.2-.2.2-.3.1-.6.1-.6.1-.1 0-.4 0-.8-.1l-.4-.2c.1-.1.3-.1.6-.1h.8zm-26.4-9.6v-.2l1.6-9.9h1.3l1.7 10.7-4.6-.6zm-2.8 5.7c0 .2-.1.3-.2.4-.1 0-.2-.1-.2-.4 0-.2.1-.5.2-1.1.1-.6.2-.9.3-.9.1 0 .1.1.1.3 0 .2 0 .5-.1.9-.1.6-.1.8-.1.8zm2.2-5.6c-.1.5-.2.7-.3.7-.1 0-.1-.1-.1-.3v-.3c0-.2.1-.6.2-1.3.1-.6.2-1 .2-1 0-.1.1-.1.2-.1v.1c.1.6 0 1.3-.2 2.2zm5.6-6c.1.1.2.7.4 1.8.2 1 .3 1.6.3 1.8 0 .1 0 .1-.1.1s-.2-.6-.5-1.8c-.3-1.2-.4-2-.4-2.2 0-.1 0-.2.1-.2-.1 0 0 .1.2.5zm4 16.3v.1c0 .1 0 .2-.1.2-.2 0-.4-.5-.6-1.6-.1-.2-.1-.3-.1-.4 0-.1 0-.2.1-.2s.2.3.4.8c.1.2.2.5.3 1.1zm-11.7-1c-.1.2-.1.3-.2.3s-.1-.1-.1-.2v-.2c.1-.3.1-.5.1-.6 0-.1.1-.2.2-.2s.2.1.2.4c-.1.1-.1.3-.2.5zm-2.9 1.3c0 .3.7.5 2 .5h1c.3 0 .5-.2.6-.5.1-.3.1-.6.2-1 .3-1.3.4-2.1.5-2.5l.6-4c.9 0 1.7 0 2.3-.1l3.8-.1c.1 1.1.3 2.6.7 4.5.3 1.9.6 3.1.7 3.4v.1c0 .2.1.3.2.3.1.1.2.1.4.1h.2c.2 0 .7 0 1.4.1s1.1.1 1.3.1h.2l.1-.2-1.9-8.4-.6-2.8-2.7-13.1c-.2-.9-.3-1.5-.5-1.5-.1-.1-.5-.1-1.4-.1-1.9 0-2.9.1-3 .3-.1.1-.2.5-.3 1l-3.3 13.8c-.3 1.3-1 3.9-1.9 7.8-.4 1.5-.6 2.3-.6 2.3zm9.6-24.1h-.1c-.1 0-.2 0-.3-.1-.1-.1-.2-.1-.2-.1H229.1c0-.1.1-.2.2-.3.2-.1.4-.1.7-.1.2 0 .3 0 .5.1s.2.2.2.3c0 .2 0 .2-.1.2zm-2.3 15.5c-.1 0-.1-.1-.1-.1s.1 0 .2-.1c.2 0 .3 0 .5-.1.2 0 .4 0 .4-.1h1.4c.2 0 .4.1.4.2v.1c0 .2-.1.2-.3.2-.1 0-.2 0-.4-.1s-.4-.1-.5-.1c-.1 0-.3 0-.6.1-.2 0-.4.1-.5.1-.2.1-.3 0-.5-.1zm5.9 1.9c.1-.1.2.2.3.9v.1c0 .5-.1.7-.1.7v-.1c-.1-.4-.2-.7-.2-1-.1-.1-.1-.3 0-.6zm-14.4-15.5v.6c0 .8-.1 1.1-.2 1.1 0 0-.1-.2-.1-.5s-.1-.7-.1-1v-.6c-.1-.2 0-.4.2-.4 0 0 .1.1.1.2v.4c.1.1.1.2.1.2zm-2.4-1.4c0 .2 0 .3-.1.4-.1.1-.2.1-.4 0-.2 0-.3-.1-.3-.1-.2 0-.4 0-.6-.1-.2-.1-.4-.1-.6-.2-.2-.1-.2-.1-.3-.1-.6 0-.9-.1-.9-.1 0-.1.3-.2.9-.2h.1c1.5.1 2.2.2 2.2.4zm3.2 7.2c-.1.6-.1.9-.1.9-.1 0-.1-.3-.1-.9-.1-.4-.1-1-.1-1.7s.1-1 .2-1 .1.5.1 1.6v1.1zm-10.9-9.2l-2.8-.1h-.1c-.3 0-.5 0-.6.1-.1.1-.1.2-.1.5v5.1c0 10 0 16.1-.1 18.3 0 .1 0 .3-.1.6s-.1.5-.1.7c0 .5.2.7.7.7h2.3c.2 0 .4-.1.5-.1.1-.1.1-.2.1-.4v-1.9c0-5.2.1-7.8.2-8 .1-.1 2.4-.2 7-.5.3 0 .9-.1 1.6-.1.7 0 1.3-.1 1.6-.1h1.5c.1-.1.1-.4.1-1.2.1-2.6.1-4.2.1-4.9l.1-7v-.6c0-.3-.1-.5-.4-.6-.2-.1-1-.1-2.5-.1h-.9c-.4 0-1.7-.1-3.9-.2-2.3-.1-3.7-.2-4.2-.2zm8.1 3.3c.1.3.2 2.1.2 5.3 0 1.9 0 3-.1 3.2 0 .1-.8.2-2.2.3-1.5.1-2.7.1-3.8.1-1.3 0-2.1-.1-2.4-.2-.2-.1-.3-2.4-.4-7V70v-.6c.1-.2.5-.3 1.3-.4h1.1c.6 0 1.7 0 3.2.1 1.5 0 2.3.1 2.6.1h.3s.1 0 .1.1c0 0 .1.1.1.2zm-10.4 1.1c0 1.1-.1 1.7-.1 1.7-.1 0-.2-.6-.2-1.8 0-1 .1-1.6.2-1.6 0 0 .1.6.1 1.7zm-.4 17.6c0 .1-.1.5-.2 1.1-.1.6-.2.9-.2.9-.1 0-.1-.7-.1-2 0-1.9 0-2.9.1-2.9 0 0 .1.5.2 1.4.2.8.2 1.4.2 1.5zm-22.9-19.8c-.1 0-.1-.1-.1-.1s.2-.1.6-.1h1v.1h-.2-.1-.2c-.4.3-.7.2-1 .1zm5-1.7h-7.8c-1 0-1.9-.1-2.6-.2-.1 0-.3 0-.5-.1-.2 0-.3-.1-.4-.1-.2 0-.3.2-.3.6v.6c0 2-.1 4.5-.1 7.7v5.4c0 3.6-.1 6.2-.1 7.6v2.1c0 .7 0 1.2.1 1.4.1.2.2.3.5.3h6.4c1.8 0 3.3 0 4.3.1 1.6.1 2.7.1 3.3.1h.6c.1-.1.2-.4.2-1.1.1-.7.1-1.2.1-1.7v-.5c-.1-.1-.3-.2-.7-.2h-.3c-.1 0-.3 0-.5.1-.7.1-2 .1-4.1.1-3.9 0-6-.1-6.1-.3 0 0-.1-.6-.1-1.7 0-2.6.1-4.1.1-4.5.1-.2.3-.3.6-.3h.9c2 .1 3.7.2 5.4.2h2.1c.9 0 1.3-.1 1.3-.2v-.4-.5-.6c0-.3-.1-.5-.1-.6v-.3-.2-.1-.1l-.1-.1c-.1 0-.1 0-.1-.1h-.2c-.1 0-.2 0-.4-.1-.3-.1-2.4-.2-6.4-.3-2-.1-3.1-.2-3.2-.3V78v-1-1.8c0-1.2 0-2.4.1-3.7.1-1.1.1-1.6.3-1.7.1-.1.9-.1 2.2-.1 1 0 2.2 0 3.6.1s2.5.1 3.3.1h1c.2 0 .4 0 .6.1h.4c.2-.2.3-1 .3-2.4 0-.5 0-.8-.1-.8-.4 0-1.5 0-3.5-.1zm-10.5 4.1c0 .7-.1 1.4-.1 2.1l-.2.5v-.7c0-.8-.1-1.3-.1-1.5 0-1 .1-1.5.3-1.5.1 0 .1.3.1 1v.1zm4.2 10.5c0 .1-.2.2-.6.2-.4 0-.6-.1-.7-.2 0-.1.2-.1.6-.1.5 0 .7 0 .7.1zm-3.9-3.7c0 1.9-.1 2.8-.1 2.8-.1 0-.1-.8-.1-2.4v-.5l.1-.1c.1-.1.1 0 .1.2zm1 8.4c0 .4-.1.7-.2.7s-.2-.2-.2-.7c0-.7.1-1.2.2-1.5l.1-.1s.1.6.1 1.6zm2.1 4.3c2.3 0 3.5.1 3.5.2s-.4.2-1.3.2c-.1 0-.4 0-1.1.1-.7 0-1.1.1-1.4.1h-.3v-.1-.2c.1-.2.3-.3.6-.3zm6.5.9c-.1 0-.1 0 0 0l.4-.2c.4 0 .7-.1.9-.1h.4c.1 0 .2.1.3.2l.2.2h-.5c-.3.2-.9.1-1.7-.1z"/>
  <path class="st1" d="M331.9 84.3c-.1.5-.2.7-.2.7-.1-.1-.1-.2-.1-.5 0-1 .1-1.6.3-1.6.1 0 .1.3.1.9-.1.3-.1.5-.1.5m-10.4-6.9c.2.1.7.2 1.5.4s1.1.3 1.1.4h-.2c-.2 0-1-.1-2.3-.3-.3 0-.4-.1-.4-.3 0-.1.1-.1.2-.1h.1zm-2.3-3.4c-.1.4-.2.6-.3.6-.1 0-.1-.2-.1-.5 0-.8.1-1.4.3-1.8.1-.2.2-.3.2-.3s.1.2.1.6v.2c0 .5 0 .9-.2 1.2zm8.5-5.7c0 .1-.2.1-.6.1h-1.4c-.5 0-.7-.1-.7-.2s.2-.1.7-.1h.3c1.2-.1 1.7 0 1.7.2zm-5.9-2.3c-2 .1-3 .2-3 .2l-.2 1.4c-.1.5-.2 1.3-.3 2.3-.1.6-.2 1.8-.4 3.8-.2 2-.2 3.3-.2 4s.1 1.1.2 1.3c.1.1.7.1 1.9.1.9 0 2.5 0 4.7-.1s3.6-.1 4.2-.1c1.2 0 1.9 0 2.1.1.2.1.3 1.1.3 3.1V84.5c0 2.2-.3 3.4-1 3.4-.2.1-1.7.2-4.4.4s-4.5.3-5.4.3c-.9 0-1.4 0-1.5.1v.3c0 .4 0 1.1.1 1.9.1.9.1 1.3.2 1.4h.3c.2 0 .4-.1.6-.1h1.9c.7 0 2.8-.3 6.3-.7 1.7-.3 2.9-.4 3.6-.5.4 0 1.1 0 1.9-.1.6-.1.9-.1 1-.2.1-.1.1-.4.1-.9V84.3c0-1 0-2.3.1-3.9 0-1.6.1-2.5.1-2.8v-.1c0-.5-.1-.9-.3-1.1-.2-.2-.6-.2-1.2-.2H328.7c-.8 0-2 0-3.4.1-1.4 0-2.3.1-2.7.1-.6 0-1 0-1-.1-.2-.1-.4-.3-.4-.4 0-.4.1-1.5.3-3.4.2-1.9.3-3 .4-3.1l.2-.4 2.7.1c1.5.1 2.6.1 3.2.2.3.1 1.4.1 3.2.3 1.8.1 2.8.2 3.1.2v-1.7l-.1-1.5c-.2-.2-1.9-.4-5.1-.4-1.9-.3-4.3-.3-7.3-.2zm2 23.2c.1 0 .4 0 .6-.1.3 0 .5-.1.6-.1H325.3c.1 0 .1.1.1.1 0 .1 0 .1-.1.1-.2.1-.5.1-.9.1h-.9c-.5-.1-.7-.1-.7-.2V89c.1-.1.2-.1.3-.1.1 0 .2 0 .3.1.2.2.3.2.4.2zm-4.6 1.3c0-.3 0-.5.1-.5h.1c.1.1.1.5.2 1 0 .3 0 .5-.1.6h-.2c-.1-.3-.1-.6-.1-.7v-.2c-.1 0 0-.1 0-.2zm-18.6-20.2c0-.1.1-.1.1-.1.1 0 .1.1.1.3 0 .2.1.5.1.9s.1.6.1.8v.2c0 .2-.1.6-.2.9-.1.4-.2.5-.3.5V73.5c0-.3 0-.6-.1-1 0-.4-.1-.7-.1-.9.1-.5.2-1 .3-1.3zm-1.7-2.7c-.1.1-.1.4-.1 1v.4l.3 5.9c.2 3.4.3 5.3.3 5.8.1 1.4.2 2.5.2 3.5 0 .5.1 1.5.1 2.9.1 1.4.1 2.2.1 2.4l.3 2.9.5.2c.2.1.9.1 2.2.1h2.6c3-.1 5.3-.1 6.9-.1H315.4v-2.1c0-2.7 0-5.1-.1-7.2-.1-.7-.1-3.4-.1-8.1 0-4.7-.1-7.2-.2-7.4-.1-.2-2.8-.3-8.1-.4h-5.2c-1.8 0-2.8 0-2.8.2zm9 1.3v.2c0 .3-.1.5-.2.5h-.1c0-.1-.1-.2-.3-.6v-.2c0-.1.1-.2.2-.2.2 0 .3.1.4.3zm-2.4 19.5c-1.4.1-2.2.2-2.3.2h-.2c-.4 0-.6-.2-.6-.7v-.1-.2c.1-.2.1-1.8.1-4.8V81.5c0-.8 0-2.4-.1-4.7-.1-2.3-.1-3.9-.1-4.7v-1.4c.1 0 .8-.1 2-.1.7 0 1.9.1 3.7.3 1.8.2 2.7.3 2.8.3.5.1.9.1 1 .2.1.1.2.2.3.4.2.6.3 1.5.3 2.7 0 1-.1 3.6-.2 7.8v4.1c0 1.3 0 1.9-.1 1.9h-.1c-.1 0-.2 0-.3-.1h-.5c-.3 0-.6 0-1 .1-.3.1-.8.1-1.6.1h-3.1zm-4-9.6V81c-.1.2-.2.3-.2.3-.2 0-.3-.3-.3-.8v-.4c0-.4 0-.9.1-1.5 0-.5.1-1 .1-1.4.1-.4.1-.6.1-.6 0 .2.1.9.2 2.2zm13-6.4c0 .4-.1.6-.2.6s-.1-.2-.1-.6c0-.4.1-.6.1-.6.1.1.2.3.2.6zm-1.1 10.1c-.1.5-.1.8-.2.8s-.1-.3-.1-.8v-1c0-.9.1-1.3.2-1.3s.2.5.2 1.4v.9zM301 85.4v.9c0 .2 0 .3-.1.3-.2-.1-.2-.7-.3-1.7v-.6c0-.4 0-.6.1-.6s.2.6.3 1.7zm13.6 3.3c0 .1-.1.1-.1.1-.2 0-.2-.1-.2-.1 0-.1.1-.2.2-.2s.1 0 .1.2zm-1.8 1.6v.2h-.1-.1H311.7l-.1-.1.2-.2h.1c.1 0 .2 0 .3-.1.1 0 .2-.1.3-.1l.3.3zm-8.3-.1c.6-.1 1.1-.1 1.2-.1.5 0 .9.1.9.3 0 .1-.1.2-.2.2h-.7c-.6 0-1.3 0-2.1-.1s-1.2-.1-1.2-.2c.1 0 .8-.1 2.1-.1zm-13.3 1.7c.1 0 .1 0 .1.1 0 .2-.1.2-.2.3-.2.1-.4.1-.6.1-.2 0-.4 0-.6-.1-.1-.1-.2-.1-.2-.3l.9-.2c.2 0 .4 0 .6.1zm-9-24.8s.2.8.6 2.3c.3 1.2.5 2.3.7 3.2.3 1.3.5 2.1.6 2.3.1.3.4 1.3.8 2.9.3 1.3.6 2.7 1 4.2.3 1.5.5 2.4.6 2.6.2.7.4 1.4.6 2 .5 2.2.9 3.4 1 3.8.2.5.2.9.3 1.3.1.5.2.9.3 1 .1.2.9.3 2.2.3.4 0 .7 0 .8-.1.1-.1.3-.6.4-1.5l2.8-13.2.7-2.8 1.9-8.4-.1-.2h-.2c-.1 0-.5 0-1.1.1-.6.1-1 .1-1.2.1h-.2c-.2 0-.4 0-.5.1-.1.1-.1.2-.2.5-.2.8-.5 2.3-.9 4.5-.5 3.3-1.3 7.1-2.3 11.2-.1.3-.1.7-.2 1.3-.1.6-.2 1.1-.3 1.5-.1.4-.1.7-.2.7v.1l-.3-.9c-.1-.1-.2-.7-.4-1.9s-.5-2.5-.7-4c-.3-1.5-.5-2.6-.7-3.3-.3-1.3-.7-3.3-1.2-6-.2-.9-.3-1.8-.5-2.5l-.3-1c-.1-.3-.3-.5-.6-.5h-1c-1.4-.2-2.2 0-2.2.3zm3.2 1.3c.1.2.1.3.1.5 0 .3-.1.4-.2.4s-.2-.1-.2-.2 0-.3-.1-.6v-.2c0-.1 0-.2.1-.2.2.1.3.2.3.3zm10.8-.3c-.1.6-.2 1-.3 1.1-.2.5-.3.8-.4.8-.1 0-.1-.1-.1-.2s0-.2.1-.4c.2-1.1.4-1.6.6-1.6.1 0 .1 0 .1.1.1.1.1.1 0 .2 0-.1 0 0 0 0zm-4 16.3c-.1.3-.2.5-.3.5 0 0-.1-.1-.1-.2 0-.2.1-.5.2-.8.1-.3.3-.5.3-.5s.1 0 .1.1c.1.2 0 .5-.2.9zm-4.5-6.1c.2 1 .4 1.7.4 2.3v.1c-.1 0-.2-.1-.2-.2 0 0 0-.2-.1-.6-.1-.4-.2-.8-.2-1.2-.1-.4-.1-.7-.1-.8v-.3-.1c0 .1.1.3.2.8zm-2.5-5.5s0 .3.1.7c0 .4.1.7.1.9 0 .2 0 .3-.1.3s-.1-.3-.3-.8c-.1-.6-.2-.9-.2-1.1 0-.3.1-.4.2-.4s.2.2.2.4z"/>
  <path class="st2" d="M17 10.2c-.5-.1-.8-.3-.8-.4 0-.1.8-.2 2.3-.2 1.4 0 2.2.1 2.4.2 0 .2-.9.3-2.8.3H17zM12 7c-.4 0-1.5 0-3.4.2-.1 0-.3 0-.4.1h-.3c-.1 0-.2.2-.2.6v.3L6.6 24.9h1.9c0-1.4.1-2.2.2-2.4.2 0 .3.8.3 2.5h2.2c0-3-.1-5-.1-6.1 0-2.7 0-4.3.1-4.7.1-1.4.3-2.2.4-2.3.1-.1.2-.1.3-.1s.6 0 1.3.1c.7.1 1.4.1 2 .1l9.7.6h.1c.4 0 .6-.2.6-.6v-.5-3.7c0-.5 0-.8-.1-.9 0-.1-.2-.1-.5-.1h-.4c-3.9 0-8.2.1-12.6.2zm-2.7 7.3c-.2 0-.3-.7-.3-2.2v-.4-.3l.1-.6.1.6c.1.4.1 1.2.1 2.5v.4z"/>
  <path class="st2" d="M337.3 100.5c.5.1.8.3.8.4 0 .1-.8.2-2.3.2-1.4 0-2.2-.1-2.4-.2 0-.2.9-.3 2.8-.3h1.1zm5 3.3c.4 0 1.5-.1 3.4-.2.1 0 .3 0 .4-.1h.3c.1 0 .2-.2.2-.6v-.3l1.1-16.8h-1.9c0 1.4-.1 2.2-.3 2.4-.2 0-.3-.8-.3-2.5H343c0 3 .1 5 .1 6.1 0 2.7 0 4.3-.1 4.7-.1 1.4-.3 2.2-.4 2.3-.1.1-.2.1-.3.1-.1 0-.6 0-1.3-.1-.7-.1-1.4-.1-2-.1l-9.7-.6h-.3c-.4 0-.6.2-.6.6v4.2c0 .5 0 .8.1.9 0 .1.2.1.5.1h.4c4.3 0 8.6 0 12.9-.1zm2.8-7.3c.2 0 .3.7.3 2.2v.7l-.1.6-.1-.6c-.1-.4-.1-1.2-.1-2.5-.1-.2-.1-.4 0-.4z"/>
</svg>