<svg xmlns="http://www.w3.org/2000/svg" width="352.3" height="97.3" viewBox="0 0 352.3 97.3">
  <style>
    .st3{fill:#08143c}
  </style>
  <path fill="#ff90a2" d="M26.4 26.4h325.9v70.8H26.4z"/>
  <path fill="#d2dbdb" d="M0 0h325.9v70.8H0z"/>
  <path fill="#fff" stroke="#08143c" stroke-width="5.6693" stroke-linecap="round" stroke-miterlimit="22.9256" d="M16.2 15.7h318.1v69.1H16.2z"/>
  <path class="st3" d="M257.7 60.4c.1 0 .2.2.2.7v.5c0 .2 0 .5-.1.7-.1 0-.1-.4-.1-1.3-.1-.4-.1-.6 0-.6m.7-3.3v.3c0 1.5 0 2.3-.1 2.3 0 0-.1-.4-.1-1.2-.1-.8-.1-1.4-.1-1.7 0-.4 0-.6.1-.6l.1.2c0 .2.1.5.1.7zm-.3-7.3c0 .2 0 .4-.1.4 0 0-.1-.3-.2-1-.1-.6-.1-1.1-.1-1.2 0-.1 0-.4.1-.8.1-.5.1-.7.2-.7 0 0 .1.5.1 1.5-.1 1 0 1.6 0 1.8zm-2.2-10v.1c0 .3 0 1.1-.1 2.6 0 1.5-.1 2.5-.1 3.2v.3c0 2.3.1 5.2.2 8.6.1 2.9.2 4.9.2 6.1 0 1.9.1 2.9.2 3 .1.1.4.2.9.2.1 0 .3 0 .5-.1.2 0 .4-.1.5-.1l1-.1-.1-3c0-.4-.1-1.2-.1-2.6 0-1.4-.1-2.4-.1-3.2 0-.8-.1-3.7-.2-8.9v-2.7V41v-.9c0-.3 0-.4-.1-.5-.1-.1-.2-.1-.5-.1l-2-.2h-.1c-.1 0-.1 0-.2.1 0 0-.1.1-.1.2.3.1.2.1.2.2zm-7.7 20l-4.2.2H242.4c-.2-.1-.2-4-.2-11.7v-4.1c0-.7 0-1.6.1-2.7 0-.3 0-.5-.1-.6 0-.1-.2-.1-.4-.1h-2.2c-.1 0-.2.1-.2.3 0 1.2 0 2.6.1 4.3.1 3.4.1 9.2.1 17.3 0 .3.1.5.1.5.1.1.2.1.5.1h.2c1 0 2.7-.1 5.1-.2 2.3-.1 4.2-.2 5.6-.2h1.8c.3 0 .4-.1.4-.4 0-.2.1-3.2.2-8.9s.1-10 .1-12.8v-1-.3-.3c0-.2-.1-.3-.3-.3h-1.7c-.5 0-.9.1-1 .2-.1.1-.2.4-.2 1l-.1 1.3c0 .3-.1 2-.1 5s-.1 5.8-.1 8.5-.1 4.1-.1 4.1c.1.5-.6.6-1.8.8zm-6.9-18.4s0 .1 0 0c.1.1.2.2.1.2-.1.1-.3.2-.5.2-.1 0-.3-.1-.8-.2 0-.1.1-.1.3-.1h.5c.2 0 .3-.1.4-.1zM251 51c0-.1 0-.2.1-.2s.2.8.2 2.3c0 .2 0 .5-.1.8-.1.4-.1.5-.2.5v-.1-.4-1.2V51zm.4 3.7c0-.1 0-.1 0 0 .1-.1.2.2.2.9 0 .2 0 .5-.1.7 0 .2-.1.2-.1.1-.1-.3-.1-.5-.1-.7-.1-.4 0-.7.1-1zm-9.2 7.9h-.1s.5-.1 1.4-.1h1c.3 0 .6.1.8.1.1 0 .2 0 0 0h-1.1c-.5.1-1.2.1-2 0zm10.3-21.9c.1.1.2.4.2.7v.3c0 .3 0 .8-.1 1.6 0 .2-.1.4-.1.6 0 .1 0 .1 0 0v-1.4c-.2-.5-.1-1.1 0-1.8zm-11 10.3v-.1c.1 0 .1.5.1 1.5 0 .9 0 1.4-.1 1.4v-.1c-.1-.5-.1-1-.1-1.3 0-.5 0-1 .1-1.4zm9 10.1c0 .1-.2.1-.4.2h-.6c-.1 0-.2-.1-.1-.1.2-.1.4-.2.7-.2h.4zm-14.4-20h.4c.2 0 .3-.1.4-.1.1 0 .2 0 .2.1v.1c0 .1-.1.2-.2.2s-.2.1-.3.1h-.6H235.7c-.1 0-.3 0-.5-.1-.2 0-.3-.1-.4-.1h-.9c-.1 0-.2 0-.2-.1h.1c.4.1 1.1 0 2.3-.1zm-4.9 3.9c0 .1 0 .2.1.3 0 .1.1.2.1.5 0 .2.1.5.1.7v1.6c-.2 1.4-.4 2.1-.4 2.1V50c-.1-.5-.1-.9-.1-1.4 0-.5 0-1.1.1-1.9.1-.7.1-1.3.1-1.7zm-.2-5.7h-2.2c-1.6 0-2.6 0-2.9.1-.4.1-.5.2-.5.3v.3c.1.7.3 1.6.4 2.7 0 .1 0 .2.1.3.1.3.2.5.3.5 0 0 .1 0 .3-.1.2 0 .4-.1.5-.1h2.5v7.6c0 .5.1 2.2.2 5 0 .7.1 1.6.1 2.6s.1 1.9.1 2.6v1.8c0 .1 0 .1.1.1 0 0 .1 0 .1.1.1 0 .1.1.2.1h1.5c.3 0 .5 0 .6-.1.1-.1.1-.2.1-.4V54.4c0-1.7 0-3.6-.1-5.7 0-2.1-.1-3.3-.1-3.7 0-1.4.1-2.2.2-2.3.1-.1.7-.2 1.9-.3h2.2c.4 0 .6-.1.8-.2.1-.1.1-.3.1-.6v-.7-.7-.2V39.1h-3.2c-2.2.2-3.3.2-3.3.2zm-.2.5c0 .1 0 .1-.1.1-1 0-1.5 0-1.6.1h-.1c-.1 0-.1-.1-.1-.2 0-.2.1-.3.3-.3 1.1.1 1.6.2 1.6.3zm-.3 19.5c0 2 0 2.9-.1 2.9-.1-.1-.1-.8-.1-2 0-.7 0-1 .1-1 0 0 .1 0 .1.1zm-13.7-6.5v-.2l1.5-9.1h1.2l1.5 9.8-4.2-.5zm-2.6 5.2c0 .2-.1.3-.2.3s-.2-.1-.2-.3c0-.2.1-.5.2-1s.2-.8.3-.8c0 0 .1.1.1.3 0 .2 0 .5-.1.9 0 .4-.1.6-.1.6zm2-5.1c-.1.4-.1.6-.2.6 0 0-.1-.1-.1-.3V53c0-.2.1-.6.2-1.2s.2-.9.2-.9c0-.1.1-.1.2-.1v.1c.1.5 0 1.2-.3 2zm5.2-5.5c.1.1.2.7.3 1.6.2 1 .2 1.5.2 1.6 0 .1 0 .1-.1.1s-.2-.6-.5-1.7c-.2-1.1-.4-1.8-.4-2 0-.1 0-.2.1-.2.1.1.2.3.4.6zm3.6 15v.1c0 .1 0 .1-.1.1-.2 0-.4-.5-.5-1.5 0-.2-.1-.3-.1-.4 0-.1 0-.2.1-.2s.2.3.4.7c0 .3.1.6.2 1.2zm-10.7-1c0 .2-.1.2-.2.2s-.1-.1-.1-.2v-.1c0-.3.1-.5.1-.6 0-.1.1-.2.2-.2s.1.1.1.4c0 .2 0 .3-.1.5zm-2.7 1.2c0 .3.6.4 1.9.4h.8c.3 0 .4-.2.5-.4 0-.3.1-.6.2-1 .3-1.2.4-1.9.5-2.2l.6-3.6c.8 0 1.5 0 2.1-.1l3.5-.1c.1 1 .3 2.4.6 4.2.3 1.8.5 2.8.6 3.1v.1c0 .2.1.3.2.3s.2.1.4.1h.2c.2 0 .6 0 1.3.1.6.1 1 .1 1.2.1h.2l.1-.2-1.7-7.7-.5-2.6-2.6-12.1c-.2-.9-.3-1.3-.4-1.4-.1-.1-.5-.1-1.3-.1-1.7 0-2.6.1-2.8.3-.1.1-.1.4-.2 1l-3 12.5-1.8 7.2-.6 2.1zm8.9-22h-.1c-.1 0-.2 0-.3-.1-.1 0-.2-.1-.2-.1H219c0-.1.1-.2.2-.3.2-.1.4-.1.6-.1.2 0 .3 0 .5.1.1 0 .2.1.2.3v.2zm-2.2 14.2c-.1 0-.1 0-.1-.1 0 0 .1 0 .2-.1.1 0 .3 0 .5-.1.2 0 .3 0 .4-.1h1.3c.2 0 .3.1.3.2v.1c0 .1-.1.2-.2.2s-.2 0-.4-.1-.4-.1-.4-.1c-.1 0-.3 0-.5.1-.2 0-.4.1-.5.1-.2 0-.4 0-.6-.1zm5.4 1.7s.1-.1 0 0c.1-.1.2.2.3.8v.1c0 .4 0 .7-.1.7V58c-.1-.3-.2-.6-.2-.9v-.6zm-29.8-16.4v.1c0 .4 0 .8.1 1.3.5 3.2.9 5.7 1 7.3.1.8.3 2.2.5 4.2s.5 4.1.8 6.3c.3 2.2.4 3.3.4 3.4 0 .1.2.1.4.1s.6-.1 1.2-.2l.9-.2-.1-.6v-.3c0-.5-.2-1.9-.5-4.1-.3-2.2-.5-3.6-.5-4v-.3c.1-.1.6-.1 1.4-.1.7 0 2 1.3 4 3.8s3 4.2 3.1 5.1c.1.1.1.2.1.3 0 .1 0 .2.1.2s.2.1.4.1h2.4c.5 0 .8-.1.8-.2v-.1c0-.5-.5-1.6-1.5-3.1s-2.1-2.9-3.3-4.2c-1.2-1.3-1.9-1.9-2.3-1.9 0-.2 1.6-.3 4.8-.5h1.6s.1 0 .2-.1c.1 0 .2-.1.2-.1 0-.1 0-.1.1-.3v-2.1c0-2.2 0-4.1.1-5.8.1-1.2.1-2.2.1-3v-.5c0-.2-.1-.3-.2-.3h-.7c-1.8 0-3.9-.1-6.2-.1-3.5 0-6 0-7.5-.1h-1.9zm14.9 2.3c0 .8 0 1.2-.1 1.2v-.1c0-.1 0-.1-.1-.2v-.2c0-.1-.1-.3-.1-.5v-.5c0-.1.1-.2.2-.2 0 0 .1.2.1.5zm-9.2.3l6.4.1H207.4c.1 0 .1.4.2 1 .1 1 .1 2.2.1 3.6 0 1 0 1.6-.1 1.6-.1.1-1.8.3-5.2.6-.9.1-1.7.2-2.4.3-.5.1-.9.1-.9.1l-.4.1c-.2 0-.4.1-.4.1s-.1-.4-.1-.9c0-.6-.1-1.3-.2-2.2-.1-.9-.2-1.6-.3-2.2-.2-.8-.2-1.3-.2-1.6 0-.2 0-.3.1-.3.1-.2.7-.3 2-.3zm9.6-.2c0 1.2 0 1.9-.1 1.9 0 0-.1-.3-.1-.8 0-.6-.1-.9-.1-1 0-.2 0-.3.1-.3.2-.1.2 0 .2.2zm-13.3 4c-.1 0-.1-.2-.2-.6-.1-.4-.1-.7-.1-.9v-1.2l.1.8c.1.5.2 1 .2 1.5.1.2.1.3 0 .4zm12.8 3.4c0 .2-.1.2-.3.2-.1 0-.3.1-.7.2-.4.1-.6.2-.7.2h-.1s-.1-.1-.3-.2l-.3-.2.8-.1c.5 0 .9-.1 1.2-.1h.4zm-8.6 1.6c0 .1-.1.1-.2.1h-.2c-.1 0-.2 0-.3.1h-.3-.2c-.2 0-.3 0-.3-.1s.1-.1.3-.2c.2-.1.4-.1.6-.1.4.1.6.1.6.2zm4.8 5.6l.1.3s.2.3.5.7c.3.4.5.7.5.7-.1 0-.4-.3-.9-.9-.5-.6-.8-.9-.8-1.1 0-.1 0-.1.1-.1s.3.1.5.4zm-6.1 4.7c0 .1-.1.1-.2.2s-.2.1-.3.1l-.1-1s.1-.2.1-.7c0-.5.1-.8.1-.9l.2 1.1c.2.8.2 1.1.2 1.2zm10.7-.2h.4s.1 0 .2.1v.1c0 .1-.1.2-.2.2-.3 0-.5.1-.6.1-.1 0-.4 0-.7-.1-.2-.1-.3-.1-.3-.2.1 0 .3-.1.5-.1h.7zm-19.1-8.4v.6c0 .7 0 1-.1 1 0 0 0-.2-.1-.5v-.9-.5-.2c0-.1.1-.1.2-.1 0 0 .1 0 .1.1v.3c-.1.1-.1.2-.1.2zm-3.3-1.3c0 .1-.1.1-.4.1-.2 0-.5 0-.9-.1l-.5-.1c-.6 0-.9 0-.9-.1s.2-.1.5-.1h.4c1.2 0 1.8.1 1.8.3zm4.1 5.6c0 .5-.1.8-.1.8s-.1-.3-.1-.8c0-.4-.1-.9-.1-1.6 0-.6 0-.9.1-.9s.2.5.2 1.5v1zM180 39.4c-1.4.1-2.3.2-2.8.2H176.6s-.1.1-.1.3v.6c-.1 2.2-.1 7.3-.1 15.3v5.7c0 .1 0 .2.1.4v.3l.2.2c.1.1.3.1.5.1h3.5l8.4.1h2.1c.2 0 .4 0 .4-.1.1 0 .1-.2.1-.3v-.4c0-.4 0-1.3.1-2.5v-2.4l.1-5.6V51c0-.2-.1-.4-.4-.4-.2 0-.9-.1-2.3-.1h-.7c-.1 0-1.6.2-4.6.5-.2 0-.4 0-.5.1-.1 0-.2 0-.3.1-.1 0-.1.1-.2.1 0 .1 0 .1-.1.2v.7l-.2 1.2c0 .1 0 .2-.1.4 0 .2-.1.3-.1.3 0 .2.1.2.4.2h.2c.4 0 1.1-.1 2-.1.9 0 1.7-.1 2.4-.1s1-.1 1.1-.1c.1 0 .2.1.3.4.1.3.2 1.2.2 2.7 0 .7 0 1.4-.1 2.1-.8 0-2.2-.1-4-.1-1.8 0-2.9-.1-3.2-.1H179.9c-.1 0-.1 0-.2-.1-.1 0-.1-.1-.1-.2v-2.9c0-3.6.1-7.9.4-13v-.4s.2-.1.6-.1c3.1-.4 5.8-.6 8.1-.6.2 0 .2.4.2 1.2v1.6c0 .3.1.4.4.4H189.6l1.8-.1c.3 0 .4-.2.4-.5v-.4-.4l-.1-3.4c0-.6-.1-1-.2-1.2h-.5c-.6 0-4.2.2-11 .5zm-2.1 3.4s0 .1 0 0c-.1 0-.2-.1-.2-.4 0-.3 0-.6.1-.9 0-.1.1-.2.1-.2s0 .2.1.5c0 .6 0 1-.1 1zm.4 10.9c.1.8.2 1.9.2 3.3 0 1.1-.1 1.7-.3 1.7 0 0 0-.9-.1-2.7 0-1.8 0-2.7-.1-2.7v-.2c0-.1.1-.1.2-.1 0 0 .1 0 .1.1v.6zM190.6 40c0 .1-.1.1-.3.1h-2.8c-.2 0-.3.1-.4.1 0-.4.5-.5 1.4-.5h1.1c.6 0 1 .1 1 .3zm-7.7 21.9s-.1 0-.2-.1-.1-.1-.1-.2c.2 0 .4-.1.6-.1H186.5c-.7.2-1 .3-1.1.3h-1.2c-.5.1-.9.1-1.3.1z"/>
  <path class="st3" d="M305 55.8c-.1.4-.2.6-.2.6s-.1-.2-.1-.4c0-1 .1-1.4.2-1.4s.1.3.1.8v.4m-9.5-6.3c.2 0 .7.2 1.3.3.7.2 1 .3 1 .3h-.1c-.2 0-.9-.1-2.1-.3-.3 0-.4-.1-.4-.3 0-.1.1-.1.2-.1h.1zm-2.1-3.2c-.1.4-.2.5-.3.5-.1 0-.1-.2-.1-.5 0-.8.1-1.3.3-1.6.1-.2.1-.2.2-.2 0 0 .1.2.1.5v.2c0 .4-.1.8-.2 1.1zm7.8-5.2s-.2.1-.5.1h-1.2c-.5 0-.7 0-.7-.1s.2-.1.6-.1h.3c1-.2 1.5-.1 1.5.1zm-5.4-2.1c-1.8.1-2.7.2-2.8.2l-.2 1.3c0 .5-.2 1.2-.3 2.1-.1.5-.2 1.7-.3 3.5-.1 1.8-.2 3-.2 3.7 0 .7.1 1 .2 1.2.1.1.7.1 1.7.1.8 0 2.3 0 4.3-.1s3.3-.1 3.9-.1c1.1 0 1.8 0 1.9.1.2 0 .3 1 .3 2.8V56c0 2-.3 3.1-.9 3.1-.2.1-1.6.2-4.1.3-2.5.2-4.2.2-5 .2-.8 0-1.3 0-1.3.1v.2c0 .4 0 1 .1 1.8s.1 1.2.2 1.2h.3c.1 0 .3 0 .5-.1h1.9c.6 0 2.6-.2 5.8-.7 1.6-.2 2.7-.4 3.3-.5.4 0 1 0 1.7-.1.5 0 .8-.1.9-.2.1-.1.1-.4.1-.8v-5V52c0-1.5.1-2.3.1-2.6v-.1c0-.5-.1-.8-.3-1-.2-.1-.6-.2-1.1-.2h-4.3c-.8 0-1.8 0-3.1.1-1.3 0-2.1.1-2.4.1-.6 0-.9 0-1-.1-.2-.1-.3-.3-.3-.4 0-.3.1-1.4.3-3.2.2-1.8.3-2.7.4-2.8l.1-.4 2.5.1c1.4 0 2.3.1 2.9.2.3 0 1.3.1 2.9.3 1.6.1 2.6.2 2.9.2v-1.6l-.1-1.4c-.2-.2-1.8-.3-4.6-.3-2 0-4.2 0-6.9.1zm1.8 21.2c.1 0 .3 0 .6-.1.2 0 .4-.1.5-.1H299c.1 0 .1 0 .1.1s0 .1-.1.1c-.2 0-.5.1-.8.1h-.8c-.4-.1-.6-.1-.6-.1v-.1c.1-.1.1-.1.2-.1s.2 0 .3.1c.1.1.2.1.3.1zm-4.2 1.2c0-.3 0-.4.1-.4h.1c.1.1.1.4.2.9 0 .2 0 .4-.1.5h-.2c0-.3-.1-.5-.1-.6v-.2c-.1 0 0-.1 0-.2zm-17-18.5c0-.1 0-.1.1-.1 0 0 .1.1.1.3 0 .2.1.5.1.8 0 .3.1.6.1.7v.2c0 .2-.1.5-.2.8-.1.3-.2.5-.3.5V45.8v-1c0-.4-.1-.7-.1-.9 0-.3 0-.7.2-1zm-1.6-2.5c-.1.1-.1.4-.1.9v.4l.3 5.4c.2 3.1.3 4.9.3 5.3.1 1.3.2 2.3.2 3.2 0 .5.1 1.4.1 2.6.1 1.3.1 2 .1 2.2l.2 2.6.4.1c.2 0 .9.1 2 .1h2.4c2.7 0 4.8-.1 6.3-.1H289.8V61.2c0-2.5 0-4.7-.1-6.6 0-.6-.1-3.1-.1-7.5 0-4.3-.1-6.6-.2-6.7-.1-.2-2.6-.3-7.4-.3h-4.8c-1.5.1-2.4.2-2.4.3zm8.2 1.2v.2c0 .3-.1.4-.2.4h-.1s-.1-.2-.2-.5v-.2c0-.1.1-.2.2-.2.2.1.3.2.3.3zm-2.2 17.9c-1.3.1-2 .1-2.2.2h-.2c-.4 0-.6-.2-.6-.6V59v-.2c.1-.2.1-1.7.1-4.4v-1.2c0-.8 0-2.2-.1-4.3-.1-2.1-.1-3.5-.1-4.3v-1.3c.1 0 .7-.1 1.8-.1.6 0 1.8.1 3.4.3 1.6.2 2.5.3 2.5.3.5 0 .8.1.9.2.1.1.2.2.3.4.2.5.3 1.4.3 2.5 0 .9 0 3.3-.1 7.2v3.7c0 1.2 0 1.7-.1 1.7h-.1c-.1 0-.2 0-.3-.1h-.4c-.2 0-.6 0-.9.1-.3 0-.7.1-1.5.1h-2.7zm-3.6-8.8V52.8c-.1.2-.2.2-.2.2-.1 0-.2-.3-.3-.7V52v-1.3c0-.5.1-.9.1-1.3 0-.3.1-.5.1-.5.1-.1.2.6.3 1.8zm11.9-5.8c0 .4-.1.6-.2.6s-.1-.2-.1-.6c0-.3 0-.5.1-.5s.2.1.2.5zm-1 9.2c0 .5-.1.7-.2.7s-.1-.2-.1-.7v-.9c0-.8.1-1.2.2-1.2s.2.4.2 1.3v.8zm-11.4 2.7v.8c0 .2 0 .3-.1.3-.1-.1-.2-.7-.3-1.6v-.6c0-.4 0-.5.1-.5s.2.5.3 1.6zm12.5 2.9c0 .1 0 .1-.1.1s-.2 0-.2-.1.1-.2.2-.2c.1.1.1.1.1.2zm-1.7 1.5v.2h-.1-.1-.1-.7l-.1-.1.2-.1h.4c.1 0 .2-.1.2-.1.2 0 .3.1.3.1zm-7.5 0c.6 0 1-.1 1.1-.1.5 0 .8.1.9.2 0 .1-.1.1-.2.2h-.7c-.5 0-1.2 0-1.9-.1s-1.1-.1-1.1-.2h1.9zm-8.7-20.1h.4c.2 0 .3-.1.4-.1.1 0 .2 0 .2.1v.1c0 .1-.1.2-.2.2s-.2.1-.3.1h-.6H270.9c-.1 0-.3 0-.5-.1-.2 0-.3-.1-.4-.1h-.9c-.1 0-.2 0-.2-.1h.1c.4.1 1.2 0 2.3-.1zm-4.8 3.9c0 .1 0 .2.1.3 0 .1.1.2.1.5 0 .2.1.5.1.7v1.6c-.2 1.4-.4 2.1-.4 2.1V50c-.1-.5-.1-.9-.1-1.4 0-.5 0-1.1.1-1.9 0-.7 0-1.3.1-1.7zm-.3-5.7H264c-1.6 0-2.6 0-2.9.1-.4.1-.5.2-.5.3v.3c.1.7.3 1.6.4 2.7 0 .1 0 .2.1.3.1.3.2.5.3.5 0 0 .1 0 .3-.1.2 0 .4-.1.5-.1h2.5v7.6c0 .5.1 2.2.2 5 0 .7.1 1.6.1 2.6s.1 1.9.1 2.6v1.8c0 .1 0 .1.1.1 0 0 .1 0 .1.1.1 0 .1.1.2.1h1.5c.3 0 .5 0 .6-.1.1-.1.1-.2.1-.4V54.4c0-1.7 0-3.6-.1-5.7 0-2.1-.1-3.3-.1-3.7 0-1.4.1-2.2.2-2.3.1-.1.7-.2 1.9-.3h2.2c.4 0 .6-.1.8-.2.1-.1.1-.3.1-.6v-.7-.7-.2V39.1h-3.2c-2.2.2-3.3.2-3.3.2zm-.2.5c0 .1 0 .1-.1.1-1 0-1.5 0-1.6.1h-.1c-.1 0-.1-.1-.1-.2 0-.2.1-.3.3-.3 1.1.1 1.6.2 1.6.3zm-.3 19.5c0 2 0 2.9-.1 2.9-.1-.1-.1-.8-.1-2 0-.7 0-1 .1-1 0 0 .1 0 .1.1z"/>
  <g>
    <path class="st3" d="M69.8 41.3c-.1 0-.1 0 0 0-.1-.1.1-.1.5-.1h1v.1h-.2-.1-.2c-.5.2-.8.1-1 0"/>
    <path class="st3" d="M74.4 39.8h-7.1c-.9 0-1.7-.1-2.4-.1h-.4c-.2 0-.3-.1-.4-.1-.2 0-.3.2-.3.5v.5c0 1.8 0 4.2-.1 7.1v5c0 3.3-.1 5.7-.1 7v1.9c0 .7 0 1.1.1 1.3.1.2.2.3.5.3H70c1.7 0 3 0 4 .1 1.5.1 2.5.1 3 .1h.5c.1 0 .1-.4.2-1s.1-1.1.1-1.6v-.5c0-.1-.3-.2-.6-.2h-.3c-.1 0-.2 0-.4.1-.6 0-1.9.1-3.7.1-3.6 0-5.5-.1-5.6-.2 0 0-.1-.6-.1-1.5 0-2.3 0-3.7.1-4.1.1-.2.2-.3.5-.3h.9c1.8.1 3.4.2 4.9.2h1.9c.8 0 1.2-.1 1.2-.2v-.3-.4-.5c0-.3 0-.4-.1-.5v-.3-.2-.1-.1h-.1s-.1 0-.1-.1h-.2c-.1 0-.2 0-.4-.1-.3 0-2.2-.1-5.9-.3-1.8-.1-2.8-.2-3-.3v-.3-.9-1.7c0-1.1 0-2.2.1-3.4 0-1 .1-1.5.2-1.6.1-.1.8-.1 2-.1.9 0 2 0 3.3.1 1.3.1 2.3.1 3.1.1h1c.2 0 .3 0 .5.1H77.3c.2-.2.3-.9.3-2.2 0-.5 0-.7-.1-.8-.3-.4-1.3-.5-3.1-.5z"/>
    <path class="st3" d="M64.7 43.5c0 .7 0 1.3-.1 1.9l-.1.5v-.7c0-.7-.1-1.2-.1-1.4 0-.9.1-1.4.2-1.4s.1.3.1.9v.2z"/>
    <path class="st3" d="M68.6 53.1c0 .1-.2.2-.5.2-.4 0-.6-.1-.6-.2s.2-.1.5-.1c.4 0 .6.1.6.1z"/>
    <path class="st3" d="M65 49.7c0 1.7 0 2.6-.1 2.6s-.1-.7-.1-2.2v-.4l.1-.1c.1-.1.1-.1.1.1z"/>
    <path class="st3" d="M65.9 57.5c0 .4-.1.6-.2.6s-.2-.2-.2-.6c0-.6.1-1.1.2-1.3l.1-.1c.1-.1.1.4.1 1.4z"/>
    <path class="st3" d="M67.9 61.4c2.1 0 3.2.1 3.2.2s-.4.2-1.2.2c0 0-.4 0-1 .1h-1.5v-.1-.2c0-.1.2-.2.5-.2z"/>
    <path class="st3" d="M73.8 62.3l.4-.1c.4 0 .6-.1.8-.1h.3c.1 0 .2.1.3.2.1.1.2.1.2.2h-.1-.4c-.2 0-.7 0-1.5-.2z"/>
    <path class="st3" d="M71.3 35.5l-1.8 2.9c-.1.1-.1.2-.1.2v.1s0 .1.1.1h.3l1.8-.1c.4 0 .8-.2 1-.5l1.6-2.6c.1-.1.1-.2.1-.2 0-.1-.2-.1-.5-.1h-1.5c-.6 0-.9 0-1 .2z"/>
    <path class="st3" d="M70.8 37.9c.1 0 .2 0 .3.1.1.1.1.1.1.2l-.1.1H71s-.1 0-.2-.1h-.2-.5c-.1 0-.2 0-.1-.1s.3-.2.8-.2z"/>
    <path class="st3" d="M73.6 35.5c.2-.1.3-.1.3-.1 0 .1-.1.3-.3.4-.1.1-.2.1-.2.2h-.1c0-.2.1-.3.3-.5z"/>
    <path class="st3" d="M60.9 38.9c.2 0 .2.1.2.2s-.1.2-.2.2h-.1-.1c-.6-.1-.9-.2-.9-.3v-.1h.1c.1 0 .2 0 .4-.1.2 0 .3-.1.4-.1l.2.2z"/>
    <path class="st3" d="M59.5 42.9c0-.1 0-.1.1-.1 0 0 .1.1.1.3 0 .2 0 .7-.1 1.5 0 .1 0 .2-.1.3-.1.1-.1.2-.1.2v-.6-.5c-.1-.3-.1-.7.1-1.1z"/>
    <path class="st3" d="M43.5 61.2v-.3-.2s-.1-.2-.2-.6c-.1-.4-.1-.8-.1-1.2v-.2c0-.1 0-.2.1-.2l.3 1.5c.1 1 .2 1.5.3 1.5 0 .4 0 .6-.1.6s-.1-.1-.2-.3c-.1-.2-.1-.4-.1-.5v-.1z"/>
    <path class="st3" d="M60.4 57.9c0 .3-.1.5-.2.5s-.1-.2-.1-.5V56v-1.5-.2s.1.5.2 1.5.1 1.7.1 2.1z"/>
    <path class="st3" d="M49.8 53.7c.3.8.4 1.2.4 1.3-.1 0-.2-.3-.4-.8s-.3-.9-.3-1.1c0-.2-.1-.3-.2-.3h-.1s0-.1.1-.1c.1.1.3.4.5 1z"/>
    <path class="st3" d="M55.7 50.1c0 .3-.1.7-.3 1.4-.2.7-.3 1-.4 1 0 0-.1 0-.1-.1v-.1c0-.3.2-.8.4-1.6s.4-1.1.5-1.1v.2c-.1.2-.1.2-.1.3z"/>
    <path class="st3" d="M56.4 47.6l-.1.1v-.1c0-.1.1-.4.3-.9.2-.5.3-.8.3-.8 0 .1-.1.4-.2.9s-.2.8-.3.8z"/>
    <path class="st3" d="M42.4 45.7v2.1l-.1.4s-.1-.1-.1-.3c0-.7-.1-1.4-.1-2.3v-.2-.2l.1-.1h.1V45.7z"/>
    <path class="st3" d="M44.7 43.1c0 .3 0 .4-.1.4s-.1-.1-.1-.3V43v-.1-.2-.2-.2-.1-.2c.1 0 .1.4.1 1.1z"/>
    <path class="st3" d="M46.1 42.2V42.5H46c-.1 0-.2-.1-.3-.4-.1-.3-.2-.5-.2-.6v-.1h.1c.3-.1.4.2.5.8z"/>
    <path class="st3" d="M44.5 39h-2.1c-.5 0-.8.1-.8.4v16.5c0 .7 0 1.8-.1 3.3 0 1.5-.1 2.5-.1 2.9v.7c0 .1.2.2.7.2h2.5v-.4c.1-1.6.1-3.1.1-4.6 0-2 0-4.1-.1-6.4V51v-1.2-1.2-.4-.4-1-.6-2.1l.3.9c.2.6.5 1.4.8 2.3.3 1 .6 1.8.8 2.5.2.7.6 1.8 1.1 3.3.5 1.6.9 2.5 1 2.9l2.2 6.8h1.9c.4 0 .7-.1.7-.3.1-1.4.6-4.1 1.5-8 .8-3.5 1.6-6.4 2.3-8.6.2-.5.4-1.2.6-2 .2-.8.4-1.4.5-1.9.1-.5.2-.7.3-.7h.1v1c0 1.6-.2 6.4-.6 14.5-.1 2.8-.2 4.6-.2 5.5 0 .8 0 1.2.1 1.3.1.1.6.2 1.5.2h1c.2 0 .3-.1.4-.2 0 0 .1-.1.1-.2v-.3-.3c0-.7-.1-1.4-.1-2.1 0-.6-.1-1.7-.1-3.2 0-2.2 0-4.7.1-7.8 0-.3 0-1.1.1-2.6s.1-2.6.2-3.5c.1-2.6.2-4 .2-4.2v-.5-.2-.2c0-.1 0-.2-.1-.2 0 0-.1-.1-.2-.1h-.5l-.6.1c-1 0-1.8.1-2.3.1-.4 0-.6 0-.7.1-.3.3-.6 1.3-1 2.9l-.6 2.4c0 .1-.4 1.4-1 4-.7 2.6-1.3 4.8-1.8 6.6-.5 1.8-.8 2.7-.9 2.7l-1.4-4.6c-.2-.7-.7-2-1.3-3.9-.7-1.9-1.2-3.5-1.6-4.6l-1.3-3.8c-.1-.5-.2-.8-.3-.9v-.1c.1-.1-.4-.1-1.3-.2z"/>
    <path class="st3" d="M129.8 43c0-.1 0-.1.1-.1 0 0 .1.1.1.3 0 .2.1.5.1.8 0 .3.1.6.1.7v.2c0 .2-.1.5-.2.8-.1.3-.2.5-.3.5V46v-1c0-.4-.1-.7-.1-.9 0-.4 0-.8.2-1.1m-1.6-2.5c-.1.1-.1.4-.1.9v.4l.3 5.5c.2 3.1.3 4.9.3 5.3.1 1.3.2 2.3.2 3.2 0 .5.1 1.4.1 2.6.1 1.3.1 2 .1 2.2l.2 2.6.4.1c.2 0 .9.1 2 .1h2.4c2.7 0 4.8-.1 6.3-.1H143.2v-2c0-2.5 0-4.7-.1-6.6 0-.6-.1-3.1-.1-7.5 0-4.3-.1-6.6-.2-6.8-.1-.2-2.6-.3-7.4-.3h-4.8c-1.5.2-2.4.3-2.4.4zm8.2 1.2v.2c0 .3-.1.4-.2.4h-.1s-.1-.2-.2-.5v-.2c0-.1.1-.2.2-.2.2.1.3.2.3.3zm-2.2 17.9c-1.3.1-2 .1-2.2.2h-.2c-.4 0-.6-.2-.6-.6v-.1-.2c.1-.2.1-1.7.1-4.4v-1.1c0-.8 0-2.2-.1-4.3-.1-2.1-.1-3.5-.1-4.3v-1.3c.1 0 .7-.1 1.8-.1.6 0 1.8.1 3.4.3 1.6.2 2.5.3 2.5.3.5 0 .8.1.9.2.1.1.2.2.3.4.2.5.3 1.4.3 2.5 0 .9 0 3.3-.1 7.2V58c0 1.2 0 1.7-.1 1.7h-.1c-.1 0-.2 0-.3-.1h-.4c-.3 0-.6 0-.9.1-.3 0-.7.1-1.5.1h-2.7zm-3.6-8.7V53c-.1.2-.1.2-.2.2s-.2-.3-.3-.8v-.3-1.3c0-.5.1-.9.1-1.3 0-.3.1-.5.1-.5.1 0 .2.6.3 1.9zm11.9-5.9c0 .4-.1.6-.2.6s-.1-.2-.1-.6c0-.3 0-.5.1-.5s.2.1.2.5zm-1 9.2c0 .5-.1.7-.2.7s-.1-.2-.1-.7v-.9c0-.8.1-1.2.2-1.2s.2.4.2 1.3v.8zm-11.4 2.7v.9c0 .2 0 .3-.1.3-.1-.1-.2-.7-.3-1.6v-.6c0-.4 0-.5.1-.5s.2.5.3 1.5zm12.5 3c0 .1 0 .1-.1.1s-.2 0-.2-.1.1-.2.2-.2.1.1.1.2zm-1.6 1.5v.2h-.1-.1-.1-.7l-.1-.1.2-.1h.4c.1 0 .2-.1.2-.1.2 0 .2 0 .3.1zm-7.6-.1c.6 0 1-.1 1.1-.1.5 0 .8.1.9.2 0 .1-.1.1-.2.2h-.7c-.5 0-1.2 0-1.9-.1s-1.1-.1-1.1-.2c0 .1.6 0 1.9 0zm-21.1-17.9c0-.1.1-.1.2-.1s.1 0 .1.1.1.2.1.4c0 .1 0 .3-.1.5 0 .1-.1.2-.1.5 0 .2-.1.4-.1.6 0 .1-.1.2-.1.2l-.1-.1c-.1-.2-.1-.4-.1-.6 0-.1 0-.3.1-.6 0-.4.1-.7.1-.9zm.2-4.6h-.5s-.1.1-.1.3v.6c-.1 3.2-.3 9.2-.6 18.1 0 .4-.1 1.1-.1 2 0 .9-.1 1.5-.1 1.8l-.1.7c0 .1.2.2.6.2h1.3c.5 0 1.5 0 2.9-.1 1.4 0 2.3-.1 2.9-.1h1.1c1.9 0 3.4-.5 4.4-1.6 1-1 1.6-2.4 1.7-4.2v-2.7-2.9c0-.8 0-1.7-.1-2.8 0-1.1-.1-2-.2-2.8-.1-.8-.2-1.5-.4-2.3-.2-.8-.4-1.4-.6-1.9-.3-.5-.6-.9-.9-1.1-1.2-.8-2.5-1.2-3.8-1.4-1.1-.1-2.9-.1-5.3-.1-1 .2-1.7.2-2.1.3zm3.1.9c0 .1-.4.2-1.1.2-.5 0-.8 0-.8-.1l-.1-.1c0-.1 0-.1.1-.1h1.5c.3 0 .4 0 .4.1zm5 2.5c.7.1 1.2.2 1.4.3.3.2.5 4.4.5 12.8v1.8c0 .5-.1.9-.3 1.1-.2.2-.7.4-1.4.5-2.4.2-4.4.4-6.1.4h-.3c-.2 0-.3-.1-.3-.2v-.6c0-1.6.1-4.3.2-8.1.2-3.8.3-6.3.4-7.6v-.3-.2-.1l.1-.1h.2c.8 0 1.7-.1 2.9-.1h1.1l1.6.4zm2.5 1.5l-.1.1.1-.1c-.1-.2-.1-.3 0-.3l.1.1c-.1 0-.1.1-.1.2zm.3 2.2c0 .8 0 1.1-.1 1.1s-.2-.7-.2-1.9v-1l.1.6c.2.2.2.6.2 1.2zm.7.7c0 .1 0 .1-.1.1h-.1c-.1-.1-.2-.7-.2-1.9 0-.1 0-.2.1-.2h.1c.1.1.2.8.2 2zm-10.3 10.5v.6s-.1-.1-.1-.2c-.1-.2-.1-.9-.1-2.1 0-1.4 0-2.1.1-2.1.1.2.1 1.4.1 3.8zm-.7 4.5c-.1 0-.1-.3-.1-.8v-2c0-.1 0-.2.1-.2.1.1.2.7.2 1.8 0 .8-.1 1.2-.2 1.2zm4.3-1.6s-.3.1-.6.1c-.7 0-1 0-1-.1s.5-.2 1.4-.2h.2s.1.1 0 .2c.1-.1 0 0 0 0zm5.4-.1s-.3.1-.8.2-.9.1-1.1.1h-.1l-.1-.1V60c0-.1.1-.1.1-.1h2zM95.4 43c0-.1 0-.1.1-.1 0 0 .1.1.1.3 0 .2.1.5.1.8 0 .3.1.6.1.7v.2c0 .2-.1.5-.2.8-.1.3-.2.5-.3.5V46v-1c0-.4-.1-.7-.1-.9 0-.4 0-.8.2-1.1zm-1.6-2.5c-.1.1-.1.4-.1.9v.4l.3 5.5c.2 3.1.3 4.9.3 5.3.1 1.3.2 2.3.2 3.2 0 .5.1 1.4.1 2.6.1 1.3.1 2 .1 2.2l.2 2.6.4.1c.2 0 .9.1 2 .1h2.4c2.7 0 4.8-.1 6.3-.1H108.8v-2c0-2.5 0-4.7-.1-6.6 0-.6-.1-3.1-.1-7.5 0-4.3-.1-6.6-.2-6.8-.1-.2-2.6-.3-7.4-.3h-4.8c-1.5.2-2.4.3-2.4.4zm8.2 1.2v.2c0 .3-.1.4-.2.4h-.1s-.1-.2-.2-.5v-.2c0-.1.1-.2.2-.2.2.1.3.2.3.3zm-2.2 17.9c-1.3.1-2 .1-2.2.2h-.2c-.4 0-.6-.2-.6-.6v-.1-.2c.1-.2.1-1.7.1-4.4v-1.1c0-.8 0-2.2-.1-4.3-.1-2.1-.1-3.5-.1-4.3v-1.3c.1 0 .7-.1 1.8-.1.6 0 1.8.1 3.4.3 1.6.2 2.5.3 2.5.3.5 0 .8.1.9.2.1.1.2.2.3.4.2.5.3 1.4.3 2.5 0 .9 0 3.3-.1 7.2V58c0 1.2 0 1.7-.1 1.7h-.1c-.1 0-.2 0-.3-.1h-.4c-.3 0-.6 0-.9.1-.3 0-.7.1-1.5.1h-2.7zm-3.6-8.7V53c-.1.2-.1.2-.2.2s-.2-.3-.3-.8v-.3-1.3c0-.5.1-.9.1-1.3 0-.3.1-.5.1-.5.1 0 .2.6.3 1.9zm11.9-5.9c0 .4-.1.6-.2.6s-.1-.2-.1-.6c0-.3 0-.5.1-.5s.2.1.2.5zm-1 9.2c0 .5-.1.7-.2.7s-.1-.2-.1-.7v-.9c0-.8.1-1.2.2-1.2s.2.4.2 1.3v.8zm-11.4 2.7v.9c0 .2 0 .3-.1.3-.1-.1-.2-.7-.3-1.6v-.6c0-.4 0-.5.1-.5s.2.5.3 1.5zm12.5 3c0 .1 0 .1-.1.1s-.2 0-.2-.1.1-.2.2-.2.1.1.1.2zm-1.6 1.5v.2h-.1-.1-.1H105.7l-.1-.1.2-.1h.4c.1 0 .2-.1.2-.1.1 0 .1 0 .2.1zm-7.6-.1c.6 0 1-.1 1.1-.1.5 0 .8.1.9.2 0 .1-.1.1-.2.2h-.7c-.5 0-1.2 0-1.9-.1s-1.1-.1-1.1-.2c0 .1.6 0 1.9 0zm-8.7-20h.4c.2 0 .3-.1.4-.1.1 0 .2 0 .2.1v.1c0 .1-.1.2-.2.2s-.2.1-.3.1h-.6H89.9c-.1 0-.3 0-.5-.1-.2 0-.3-.1-.4-.1h-.9c-.1 0-.2 0-.2-.1h.1c.4 0 1.2-.1 2.3-.1zm-4.8 3.8c0 .1 0 .2.1.3 0 .1.1.2.1.5s.1.5.1.7V48.3c-.2 1.4-.4 2.1-.4 2.1v-.2c-.1-.5-.1-.9-.1-1.4 0-.5 0-1.1.1-1.9 0-.8 0-1.4.1-1.8zm-.3-5.7h-2.3c-1.6 0-2.6 0-2.9.1-.4.1-.5.2-.5.3v.2c.1.7.3 1.6.4 2.7 0 .1 0 .2.1.3.1.3.2.5.3.5 0 0 .1 0 .3-.1.2 0 .4-.1.5-.1h2.5v7.6c0 .5.1 2.2.2 5 0 .7.1 1.6.1 2.6s.1 1.9.1 2.6v1.8c0 .1 0 .1.1.1 0 0 .1 0 .1.1.1 0 .1.1.2.1h1.5c.3 0 .5 0 .6-.1.1-.1.1-.2.1-.4v-8.1c0-1.7 0-3.6-.1-5.7 0-2.1-.1-3.3-.1-3.7 0-1.4.1-2.2.2-2.4.1-.1.7-.2 1.9-.3h2.2c.4 0 .6-.1.8-.2.1-.1.1-.3.1-.6V41v-.7-.2V39.2h-3.2c-2.1.2-3.2.2-3.2.2zm-.2.5c0 .1 0 .1-.1.1-1 0-1.5 0-1.6.1h-.1c-.1 0-.1-.1-.1-.2 0-.2.1-.3.3-.3 1.1.1 1.6.2 1.6.3zm-.3 19.6c0 2 0 2.9-.1 2.9-.1-.1-.1-.8-.1-2 0-.7 0-1 .1-1 0 0 .1 0 .1.1z"/>
    <path class="st3" d="M149.1 39.9c-1.8.1-2.7.2-2.8.2l-.2 1.3c0 .5-.2 1.2-.3 2.1-.1.5-.2 1.7-.3 3.5-.1 1.8-.2 3-.2 3.7s.1 1 .2 1.2c.1.1.7.1 1.7.1.8 0 2.3 0 4.3-.1s3.3-.1 3.9-.1c1.1 0 1.8 0 1.9.1.2 0 .3 1 .3 2.8v2.2c0 2-.3 3.1-.9 3.1-.2.1-1.6.2-4.1.3-2.5.2-4.2.2-5 .2-.8 0-1.3 0-1.3.1v.2c0 .4 0 1 .1 1.8s.1 1.2.2 1.2h.3c.1 0 .3 0 .5-.1h1.9c.6 0 2.6-.2 5.8-.7 1.6-.2 2.7-.4 3.3-.5.4 0 1 0 1.7-.1.5 0 .8-.1.9-.2.1-.1.1-.4.1-.8v-5-3.5c0-1.5.1-2.3.1-2.6v-.1c0-.5-.1-.8-.3-1-.2-.1-.6-.2-1.1-.2h-4.3c-.8 0-1.8 0-3.1.1-1.3 0-2.1.1-2.4.1-.6 0-.9 0-1-.1-.2-.1-.3-.3-.3-.4 0-.3.1-1.4.3-3.2.2-1.8.3-2.7.4-2.8l.1-.4 2.5.1c1.4 0 2.3.1 2.9.2.3 0 1.3.1 2.9.3 1.6.1 2.6.2 2.9.2v-1.6l-.1-1.4c-.2-.2-1.8-.3-4.6-.3-2-.1-4.2 0-6.9.1z"/>
  </g>
</svg>