<svg xmlns="http://www.w3.org/2000/svg" width="339.3" height="321" viewBox="0 0 339.3 321">
  <style>
    .st0{fill:#83a8d9}.st2{fill:#6e72b5}.st3{fill:none;stroke:#505457;stroke-width:.844;stroke-miterlimit:10}
  </style>
  <path class="st0" d="M318 207.1c-.8.1-1.6-.5-1.7-1.4-.1-.8.5-1.6 1.4-1.7l4.9-.6c.8-.1 1.6.5 1.7 1.4.1.8-.5 1.6-1.4 1.7l-4.9.6z"/>
  <path class="st0" d="M330.4 214.7c.1.8-.6 1.6-1.4 1.6-.8 0-1.6-.6-1.6-1.4l-.3-5c0-.8.6-1.6 1.5-1.6.8 0 1.6.6 1.6 1.4l.2 5z"/>
  <path class="st0" d="M325.2 195c-.1-.9.6-1.6 1.4-1.6.8-.1 1.6.6 1.6 1.4l.3 5c0 .8-.6 1.5-1.5 1.6-.8 0-1.6-.6-1.6-1.4l-.2-5z"/>
  <path class="st0" d="M337.6 202.5c.8-.1 1.6.5 1.7 1.4.1.8-.5 1.6-1.3 1.7l-5 .6c-.8.1-1.6-.5-1.7-1.4-.1-.8.5-1.6 1.4-1.7l4.9-.6z"/>
  <path d="M327.2 62.3c3.5 4.2 6.1 8.6 7.6 13.3 1.1 3.7 1.7 7.1 1.7 10.2v3c-.5 3.3-1.2 6.6-2 10-2 5.3-5.1 10.5-9.4 15.6-1.1 1.2-2.9 2.8-5.5 5.2-2.5 2.3-4.4 4.2-5.5 5.8-3.3 3.6-5.5 7.7-6.3 12.6-.5 1.5-.8 4-1 7.3-.2 3.3-.5 5.8-.7 7.6-.6 3.7-2 7.7-4 12-3.5 6.4-8.3 11-14.3 13.9-4.9 2.5-11.4 3.7-19.6 3.7-7.1 0-15.2-1-24.2-3-7.3-1.5-15-3.4-23-5.6-5.5-1.5-11.6-2.3-18.3-2.3-5.7 0-10.9.5-15.6 1.3-6 1.2-15.9 3.8-29.8 8-13.8 4.2-24.6 6.8-32.4 7.7-4 .4-7 .6-9 .6-8.5 0-16.3-1.4-23.6-4.3-4.2-1.5-10.2-4.1-17.8-7.7-7.6-3.7-13-6.2-16.1-7.5-1.6-.7-5.6-1.9-12.1-3.9-6.5-1.9-11.3-3.9-14.5-6.1-3.3-2.2-6.5-5.4-9.6-9.6-2.9-3.7-5.1-8.5-6.7-14.3-1.5-5.5-2.3-11.9-2.3-19.2 0-5.3.4-9.3 1-12 .4-1.7 2.3-7.4 5.7-16.9.9-2 2-5.1 3.3-9.6 1.4-4.4 2.3-7.7 3-9.9 5.6-16.8 9.8-27.7 12.7-32.5 6.6-11.1 13.3-19 19.9-23.9 9.4-7 19.3-10.5 29.7-10.5h3.6c9.6.9 20.7 4.3 33.6 10.3.4 0 .8.1 1.3.4.4.2.9.4 1.4.6 1.8.7 4.5 1.2 8.3 1.7 1.6.2 3.8.3 6.6.3l8-.3c3.7-.9 9-2.9 15.6-6 6.7-3.1 11.6-5.1 14.7-5.9C186.3 1 191 .3 195.9.3c7.1 0 14 .7 20.6 2.1 7.6 1.3 13.7 2.2 18.4 2.6 1.5.2 3.7.4 6.6.4l10.6-.6c2.4-.2 6.2-.8 11.2-1.7 5-.8 8.7-1.5 11.1-2 4.2-.7 8.3-1 12.3-1 3.7 0 6.5.2 8.3.6 7.1 1.6 11.7 4.8 14 9.6 1.8 3.6 2.7 9.2 2.7 16.9v8.9c.7 6 2.2 10.6 4.7 13.9 1.1 2 3 4.4 5.8 7.1 2.6 2.8 4.4 4.5 5 5.2" fill="#bbbbde"/>
  <path class="st2" d="M304.7 30.1l.1-10.7-2.9-.1-2.9-.2-.1 3.7v2.6c0 1.1-.1 2.5-.1 4s-.1 2.8-.1 3.7c0 .8-.1 3.5-.2 8.1-.2 4.7-.3 8.4-.3 11.3l-.4 13.6 2.9-.2c1.4-.1 2.2-.2 2.5-.4.4-.2.6-.6.8-1.3.5-1.3.7-12.8.7-34.1m-13.6-18.6c0-.2 1.9-.2 5.5-.2h2.4c3.7 0 6.1.2 6.9.3.9.2 1.8.6 2.8 1.3 1.8 1.4 2.8 2.9 3.3 4.6.5 1.7.7 5.2.7 10.4v2.8c0 11.3-.2 19.1-.4 23.3-.2 4.3-.6 8.6-1.2 12.9-.2 1.6-.5 2.7-.8 3.4-.4.6-.9 1.2-1.7 1.7-.8.6-1.7 1-2.8 1.1-1 .2-3.4.2-7.1.2h-8.9c-.4 0-.6-.9-.6-2.8 0-.4 0-1 .1-1.9.1-1 .1-1.7.1-2.3.2-3.7.4-10.4.6-19.8.6-23 1-34.6 1.1-35m-21.4 1.3c.2-.3 1.3-.4 3.5-.4 3.5 0 5.4.2 5.5.7l.3 1.2c0 .1 0 .3.1.6 0 .3.1.9.2 1.7.1.8.2 1.7.3 2.5l1 7.6c.1.4.2 1.2.4 2.6.2 1.4.4 3.2.8 5.5s.7 4.3.9 6.2c.4 2.8.8 5.6 1.2 8.1.4 2.6.6 4.5.8 5.6.2 1.1.3 2.2.5 3.1.2 1 .3 1.8.4 2.4.6 4.1 1 6.4 1 6.9.3 2.9.6 4.9 1 5.9 0 .1.1.2.1.4 0 .3-.6.4-1.9.4h-1.7l-4.1-.1-.2-2.5c0-.4-.2-1.6-.6-3.9-.4-2.2-.6-4-.8-5.4l-.7-6.9-3.5-.2h-1.3c-1.6 0-2.3.2-2.3.6v.1c0 .5-.2 2.2-.6 5-.5 4.3-.9 7-1 8.2l-.9 5.1h-7.4l.2-1.7c.4-2.7 1.8-13.1 4.1-31.3.5-4.3 1.2-8.7 1.8-13.1.7-4.4 1.3-8 1.8-10.7.7-2.5 1-3.9 1.1-4.2m4.5 14.3s0 .6-.2 1.8c-.1 1.2-.3 2.7-.5 4.6-.2 1.8-.4 3.3-.4 4.4-.6 4.7-1 7.5-1.3 8.4 0 0 0 .1-.1.2s-.1.2-.1.2c0 .2.2.3.7.4.4.1.8.2 1.3.2h.2c1.6 0 2.6-.1 2.8-.3 0-.1.1-.4.1-.9 0-.9-.1-1.8-.2-2.6-1.5-10.9-2.2-16.4-2.3-16.4m-23.5 3l.1-10.7-2.9-.1-2.9-.2-.1 3.7v2.6c0 1.1 0 2.5-.1 4 0 1.5-.1 2.8-.1 3.7 0 .8 0 3.5-.2 8.1-.2 4.7-.3 8.4-.4 11.3l-.4 13.6 2.9-.2c1.4-.1 2.2-.2 2.6-.4.4-.2.6-.6.8-1.3.3-1.3.6-12.8.7-34.1m-13.6-18.6c0-.2 1.9-.2 5.5-.2h2.3c3.7 0 6.1.2 7 .3.8.2 1.8.6 2.8 1.3 1.8 1.4 2.9 2.9 3.3 4.6.5 1.7.7 5.2.7 10.4v2.8c-.1 11.3-.2 19.1-.4 23.3-.2 4.3-.6 8.6-1.3 12.9-.2 1.6-.5 2.7-.8 3.4-.3.6-.9 1.2-1.7 1.7-.8.6-1.7 1-2.7 1.1-1.1.2-3.5.2-7.2.2h-8.8c-.4 0-.6-.9-.6-2.8 0-.4 0-1 .1-1.9.1-1 .1-1.7.1-2.3.2-3.7.3-10.4.6-19.8.5-23 .9-34.6 1.1-35M224.3 16l.1-4.2h3.8c1.6 0 2.7 0 3.2.2s.8.5.8 1v.4l-.1 1.7c0 1.1-.1 2.7-.2 4.8 0 2-.1 4-.2 6-.2 6.5-.3 12.7-.6 18.9-.1 3.3-.3 9.5-.6 18.4-.2 6.7-.4 10.2-.7 10.5-.2.2-1 .3-2.5.3h-1.1l-3.3-.2v-4c0-2.7.2-11.1.5-25.3.3-14.2.5-21.7.6-22.6.1-.6.2-2.5.3-5.9m-18.3-.4l.1-4.2h3.9c1.6 0 2.7 0 3.1.2.5.1.7.4.7 1v.4c0 .6-.1 4.2-.2 10.8-.2 9.3-.4 16-.6 20.2-.1 1.5-.1 4.5-.2 9-.1 4.4-.1 7.6-.2 9.4v.9c0 .4-.1.8-.1 1h6.6l.2 4.4c.1 2.1.2 3.4.2 3.9V73.4l-.3.1h-.5c-2.4 0-5.3-.1-8.6-.2-2.2-.1-3.9-.2-5.1-.2l-.2.1V69c0-2.7.2-11.1.4-25.3.4-14.1.5-21.6.6-22.6v-1.2c0-.6.1-1.2.1-2.1.1-.8.1-1.5.1-2.2m-21.3-2.8c.2-.3 1.3-.4 3.5-.4 3.5 0 5.3.2 5.5.7l.3 1.2c0 .1 0 .3.1.6 0 .3.1.9.2 1.7.1.8.2 1.7.3 2.5l1 7.6c0 .4.2 1.2.4 2.6.2 1.4.4 3.2.8 5.5.3 2.3.6 4.3.9 6.2.4 2.8.8 5.6 1.2 8.1.4 2.6.6 4.5.8 5.6.2 1.1.3 2.2.5 3.1.2 1 .3 1.8.4 2.4.6 4.1 1 6.4 1 6.9.3 2.9.6 4.9 1 5.9 0 .1.1.2.1.4 0 .3-.6.4-1.9.4h-1.7l-4-.1-.2-2.5c0-.4-.2-1.6-.6-3.9-.4-2.2-.6-4-.8-5.4l-.7-6.9-3.5-.2h-1.4c-1.5 0-2.3.2-2.3.6v.1c0 .5-.2 2.2-.6 5-.5 4.3-.8 7-1 8.2l-.9 5.1h-7.4l.2-1.7c.4-2.7 1.8-13.1 4.1-31.3.5-4.3 1.2-8.7 1.9-13.1s1.3-8 1.8-10.7c.6-2.5.9-3.9 1-4.2m4.6 14.3s-.1.6-.2 1.8c-.2 1.2-.3 2.7-.5 4.6-.2 1.8-.4 3.3-.5 4.4-.6 4.7-1 7.5-1.3 8.4 0 0 0 .1-.1.2 0 .1-.1.2-.1.2 0 .2.2.3.7.4.4.1.8.2 1.3.2h.2c1.6 0 2.5-.1 2.7-.3.1-.1.1-.4.1-.9 0-.9-.1-1.8-.2-2.6-1.3-10.9-2.1-16.4-2.1-16.4m-36.7-14.5c.1-.4 1-.6 2.5-.6h1.6l3.6.3c-.2 2.5-.4 6-.5 10.4-.2 4.4-.3 10-.4 16.5-.2 6.5-.3 11.4-.4 14.8 0 1.2-.1 2.9-.1 5 0 3.6.1 5.6.4 6 .4.7 1.2 1 2.5 1 .7 0 1.3-.1 1.6-.4.6-.4 1.2-6.7 1.7-18.7.3-7.7.5-13.9.8-18.3.4-7.7.6-12.3.6-13.9v-2.3l4.3.2c1.6 0 2.5.1 2.9.2.4.1.6.3.6.5v.5c-.2 1.2-.4 6.3-.6 15.5-.2 8.3-.4 13.6-.6 15.9 0 .4-.1 1.3-.2 2.5 0 1.2-.2 2.9-.3 5-.1 2.1-.2 3.8-.3 5.2 0 1-.1 2.1-.2 3.3 0 1.3-.1 2.2-.1 2.8 0 .6 0 1.4-.1 2.1 0 .8-.1 1.4-.2 1.8 0 .4-.1.8-.2 1.4-.1.5-.2.9-.3 1.2-.1.3-.3.6-.4.9l-.6.9c-1.4 1.7-4.4 2.6-9.2 2.7h-.5c-4 0-6.6-.9-7.8-2.7-1.2-1.8-1.8-4.9-1.8-9.2 0-.6 0-1.5.1-2.9 0-1.4.1-2.4.1-3.2 0-4.3.3-10.5.6-18.5.4-8.1.6-12.7.6-14.1 0-7.3.1-11.2.3-11.8m-21 60.3c-1.5.2-2.8.3-4 .3h-.2l-2.6-.2h-.3v.1-.3l1-3.9 7.1-27.8-6.6-28c0-.1 0-.2-.1-.4s-.1-.3-.1-.4c0-.5 1.1-.8 3.3-.8h3.9c.3 1.2.9 3.9 1.8 8.3.8 4.3 1.5 7.5 2 9.6.2-1 .5-2.1.8-3.4.2-1.4.4-2.4.6-3.3.2-.9.2-1.4.3-1.5.4-1 .9-2.9 1.6-5.5l1.1-4.2h4.4c2.2 0 3.3.2 3.3.8 0 .1 0 .4-.2.8 0 0-.1.5-.3 1.3-.2.8-.6 2.1-1 4-.4 1.8-1 3.7-1.5 5.6L141 41.4l7.4 31.8.1.3h-.2c-.1 0-.2-.1-.2-.1l-2.5.2h-.2c-1.5 0-2.9-.1-4.5-.3l-4.1-20.5-2.3 9.6c0 .2-.5 2-1.4 5.3-1 3.3-1.4 5-1.5 5.2m-16.1-52.8l-.1 5.4c0 3.6 0 6.2-.2 8.1l-.1 2.3h6.3v7.9l-3.4-.2h-3.4l.1 10.4v10.4h2.9l4.7.2-.2 4.6-.2 4.4-8.4-.2-6.3.1.2-6.3c0-1.1 0-4.3.1-9.8.1-5.5.2-9.9.2-13.1.2-11.5.4-17.8.4-18.8 0-1.3.2-6.2.3-14.6l6.7.2 7 .1-.1 4.6.1 4.5h-6.6zm-20 32v-.2c0-2.3-.4-3.7-1-4.4-.6-.6-1.3-1.1-2.1-1.4-.8-.3-1.7-.5-2.7-.6-1-.1-1.7-.3-2.1-.4-2.1-.8-3.3-2.9-3.6-6.3V38v-.8c0-1.1 0-2.5-.1-4 0-1.6-.1-2.9-.1-3.7v-2-1.4-4.7c0-2.5.2-4.3.7-5.4.8-1.8 2.3-3.1 4.4-4 1.1-.5 2.5-.7 4.2-.7 2 0 3.8.3 5.5.8 2 .6 3.3 1.4 3.7 2.2.5.9.7 2.7.7 5.7v3.7c-.1 5.3-.3 8.1-.5 8.4-.2.2-.6.2-1.4.2-.6 0-1.4-.1-2.3-.2l-2.8-.4v-6c0-3 0-4.8-.2-5.6-.1-.7-.4-1.1-1-1.1h-1.3c-.6 0-1 .1-1.4.4-.3.3-.5.9-.6 1.7 0 .3-.1.8-.1 1.6v2.6c0 .6 0 1.6-.1 2.9 0 1.3-.1 2.5-.1 3.7v.7c0 2.4.6 3.8 1.8 4.2 0 0 .5.2 1.4.4.9.3 1.4.5 1.6.5.2 0 .6.2 1.4.5.8.3 1.3.5 1.5.7.2.2.6.4 1.2.8.6.3.9.7 1.2 1 .2.4.5.8.8 1.2.3.5.5 1 .6 1.5.1.6.2 1.2.2 1.8 0 2.8.1 7 .1 12.4 0 7.5-.1 11.6-.3 12.2-.2 1.2-1 2.3-2.3 3.3-.9.6-1.7 1-2.3 1.2-.6.2-2 .2-4 .2-4 0-6.5-.7-7.7-2.1-1.2-1.4-1.9-4.6-2.1-9.8-.2-4.6-.4-7.3-.5-7.7l7.3-.2c.3.3.5.7.6 1.2 0 .5.1 1.8.1 4.1v6.1l1.8-.2 2.3-.2V58.4v-1.1c0-.2 0-.8-.1-1.7-.2-.8-.2-2-.3-3.5M58.8 16l.1-4.2h3.8c1.6 0 2.7 0 3.2.2s.8.5.8 1v.4l-.1 1.7c0 1.1-.1 2.7-.2 4.8 0 2-.1 4-.2 6-.2 6.5-.3 12.7-.6 18.9-.1 3.3-.3 9.5-.6 18.4-.2 6.7-.4 10.2-.7 10.5-.2.2-1 .3-2.5.3h-1.1l-3.3-.2v-4c0-2.7.2-11.1.5-25.3.3-14.2.5-21.7.5-22.6.2-.6.3-2.5.4-5.9m-31.2-3.4c.1-.1.6-.2 1.5-.2.5 0 1.5 0 2.9.2l3.9.2 1 6.9C39 34 40.3 41.2 40.6 41.2c0 0 .1 0 .1-.1l.1-.2c.3-.8 1.2-5.7 2.6-14.7 1.4-8.9 2.3-13.5 2.5-13.9.2-.2 1.4-.4 3.7-.4h4.3l-.3 28c0 4.4-.1 9.1-.2 14.2 0 5-.1 9-.2 11.9 0 2.9-.1 4.5-.1 4.8v2.6l-3.4-.2-3.4-.2.2-16 .1-13.7-1 4.9c-.9 4.4-1.6 8.1-2.2 11.3-1.3 7.1-2 10.8-2.2 11.2l-2.2.2c-.2-.4-.6-3.2-1.4-8.3-.2-1.4-.8-5-1.8-10.8l-1.3-7.9.1 13.8v5.4c0 6.6 0 10-.2 10.4l-4-.2-3.1-.2-.1-30.3v-3.9c0-17.4.1-26.2.4-26.3"/>
  <path class="st3" d="M302.5 30.1l.1-10.7-2.9-.1-2.9-.2-.1 3.7v2.6c0 1.1-.1 2.5-.1 4s-.1 2.8-.1 3.7c0 .8-.1 3.5-.2 8.1-.2 4.7-.3 8.4-.3 11.3l-.4 13.6 2.9-.2c1.4-.1 2.2-.2 2.5-.4.4-.2.6-.6.8-1.3.5-1.3.7-12.8.7-34.1zm-13.6-18.6c.1-.2 1.9-.2 5.5-.2h2.4c3.7 0 6.1.2 6.9.3.9.2 1.8.6 2.8 1.3 1.8 1.4 2.9 2.9 3.3 4.6.5 1.7.7 5.2.7 10.4v2.8c0 11.3-.2 19.1-.4 23.3-.2 4.3-.6 8.6-1.2 12.9-.2 1.6-.5 2.7-.8 3.4-.4.6-.9 1.2-1.7 1.7-.8.6-1.7 1-2.8 1.1-1 .2-3.4.2-7.1.2h-8.9c-.4 0-.6-.9-.6-2.8 0-.4 0-1 .1-1.9.1-1 .2-1.7.2-2.3.2-3.7.3-10.4.5-19.8.6-23 1-34.6 1.1-35zm-21.4 1.3c.2-.3 1.3-.4 3.5-.4 3.5 0 5.4.2 5.5.7l.3 1.2c0 .1 0 .3.1.6 0 .3.1.9.2 1.7.1.8.2 1.7.3 2.5l1 7.6c0 .4.2 1.2.4 2.6.2 1.4.4 3.2.8 5.5s.7 4.3.9 6.2c.4 2.8.8 5.6 1.2 8.1.4 2.6.6 4.5.8 5.6.2 1.1.3 2.2.5 3.1.2 1 .3 1.8.4 2.4.6 4.1 1 6.4 1 6.9.3 2.9.6 4.9 1 5.9 0 .1.1.2.1.4 0 .3-.6.4-1.9.4h-1.7l-4-.1-.2-2.5c0-.4-.2-1.6-.6-3.9-.4-2.2-.6-4-.8-5.4l-.7-6.9-3.5-.2h-1.4c-1.6 0-2.3.2-2.3.6v.1c0 .5-.2 2.2-.6 5-.5 4.3-.9 7-1 8.2L266 74h-7.4l.2-1.7c.4-2.7 1.8-13.1 4.1-31.3.5-4.3 1.2-8.7 1.8-13.1.7-4.4 1.3-8 1.8-10.7.6-2.7.9-4.1 1-4.4zm4.6 14.3s-.1.6-.2 1.8c-.2 1.2-.3 2.7-.5 4.6-.2 1.8-.4 3.3-.5 4.4-.6 4.7-1 7.5-1.3 8.4 0 0 0 .1-.1.2s-.1.2-.1.2c0 .2.2.3.7.4.4.1.8.2 1.3.2h.2c1.6 0 2.6-.1 2.8-.3 0-.1.1-.4.1-.9 0-.9-.1-1.8-.2-2.6-1.5-10.9-2.2-16.4-2.2-16.4zm-23.6 3l.1-10.7-2.9-.1-2.8-.2-.1 3.7v2.6c0 1.1-.1 2.5-.1 4-.1 1.5-.1 2.8-.1 3.7 0 .8 0 3.5-.2 8.1-.2 4.7-.3 8.4-.3 11.3l-.4 13.6 2.9-.2c1.4-.1 2.2-.2 2.6-.4.4-.2.6-.6.8-1.3.2-1.3.4-12.8.5-34.1zm-13.6-18.6c0-.2 1.9-.2 5.5-.2h2.4c3.7 0 6.1.2 6.9.3.8.2 1.8.6 2.8 1.3 1.8 1.4 2.9 2.9 3.3 4.6.5 1.7.7 5.2.7 10.4v2.8c-.1 11.3-.2 19.1-.4 23.3-.2 4.3-.6 8.6-1.3 12.9-.2 1.6-.5 2.7-.8 3.4-.3.6-.9 1.2-1.7 1.7-.8.6-1.7 1-2.7 1.1-1.1.2-3.5.2-7.2.2h-8.8c-.4 0-.6-.9-.6-2.8 0-.4 0-1 .1-1.9.1-1 .1-1.7.1-2.3.2-3.7.3-10.4.6-19.8.5-23 .9-34.6 1.1-35zM222.1 16l.1-4.2h3.8c1.6 0 2.7 0 3.2.2s.8.5.8 1v.4l-.1 1.7c0 1.1-.1 2.7-.2 4.8 0 2-.1 4-.2 6-.2 6.5-.3 12.7-.6 18.9-.1 3.3-.3 9.5-.6 18.4-.2 6.7-.4 10.2-.7 10.5-.2.2-1 .3-2.5.3H224l-3.3-.2v-4c0-2.7.2-11.1.5-25.3.3-14.2.5-21.7.5-22.6.2-.6.3-2.5.4-5.9zm-18.2-.4l.1-4.2h3.9c1.6 0 2.7 0 3.2.2.5.1.7.4.7 1v.4c0 .6-.1 4.2-.2 10.8-.2 9.3-.4 16-.6 20.2-.1 1.5-.1 4.5-.2 9-.1 4.4-.1 7.6-.2 9.4v1.9h6.6l.2 4.4c.1 2.1.2 3.4.2 3.9V73.4l-.3.1h-.5c-2.4 0-5.3-.1-8.6-.2-2.1-.1-3.9-.2-5.1-.2h-.2l-.2.1V69c0-2.7.2-11.1.5-25.3.3-14.1.5-21.6.6-22.6v-1.2c0-.6 0-1.2.1-2.1-.1-.8 0-1.5 0-2.2zm-21.3-2.8c.1-.3 1.3-.4 3.5-.4 3.5 0 5.4.2 5.5.7l.3 1.2c0 .1 0 .3.1.6s.2.9.2 1.7c.1.8.2 1.7.3 2.5l1 7.6c0 .4.2 1.2.4 2.6.2 1.4.4 3.2.8 5.5.3 2.3.6 4.3.9 6.2.4 2.8.8 5.6 1.2 8.1.4 2.6.6 4.5.8 5.6.2 1.1.3 2.2.5 3.1.2 1 .3 1.8.4 2.4.6 4.1 1 6.4 1 6.9.3 2.9.6 4.9 1 5.9 0 .1.1.2.1.4 0 .3-.6.4-1.9.4H197l-4-.1-.2-2.5c0-.4-.2-1.6-.6-3.9-.4-2.2-.6-4-.8-5.4l-.7-6.9-3.5-.2h-1.4c-1.5 0-2.3.2-2.3.6v.1c0 .5-.2 2.2-.6 5-.5 4.3-.8 7-1 8.2L181 74h-7.3l.2-1.7c.4-2.7 1.8-13.1 4.1-31.3.5-4.3 1.2-8.7 1.9-13.1s1.3-8 1.8-10.7c.4-2.7.7-4.1.9-4.4zm4.5 14.3s-.1.6-.2 1.8c-.2 1.2-.3 2.7-.5 4.6-.2 1.8-.4 3.3-.5 4.4-.6 4.7-1 7.5-1.3 8.4 0 0 0 .1-.1.2 0 .1-.1.2-.1.2 0 .2.2.3.7.4.4.1.8.2 1.3.2h.2c1.6 0 2.5-.1 2.7-.3.1-.1.1-.4.1-.9 0-.9-.1-1.8-.2-2.6-1.3-10.9-2.1-16.4-2.1-16.4zm-36.7-14.5c.1-.4 1-.6 2.5-.6h1.7l3.5.3c-.2 2.5-.4 6-.5 10.4-.1 4.4-.3 10-.4 16.5-.2 6.5-.3 11.4-.4 14.8 0 1.2-.1 2.9-.1 5 0 3.6.2 5.6.4 6 .4.7 1.2 1 2.5 1 .7 0 1.3-.1 1.6-.4.6-.4 1.2-6.7 1.6-18.7.3-7.7.6-13.9.8-18.3.4-7.7.6-12.3.6-13.9v-2.3l4.3.2c1.5 0 2.5.1 2.8.2.4.1.6.3.6.5v.5c-.2 1.2-.4 6.3-.6 15.5-.2 8.3-.4 13.6-.6 15.9 0 .4-.1 1.3-.2 2.5 0 1.2-.2 2.9-.3 5-.1 2.1-.2 3.8-.3 5.2 0 1-.1 2.1-.2 3.3 0 1.3-.1 2.2-.1 2.8 0 .6 0 1.4-.1 2.1 0 .8-.1 1.4-.2 1.8 0 .4-.1.8-.2 1.4-.1.5-.2.9-.4 1.2-.1.3-.2.6-.4.9l-.6.9c-1.4 1.7-4.5 2.6-9.2 2.7h-.5c-4 0-6.6-.9-7.8-2.7-1.2-1.8-1.8-4.9-1.8-9.2 0-.6 0-1.5.1-2.9s.1-2.4.1-3.2c.1-4.3.3-10.5.6-18.5.4-8.1.6-12.7.6-14.1.3-7.3.5-11.2.6-11.8zm-21 60.3c-1.5.2-2.8.3-4 .3h-.2l-2.6-.2h-.2l-.1.1.1-.3 1-3.9 7.1-27.8-6.6-28.1c0-.1 0-.2-.2-.4-.1-.2-.1-.3-.1-.4 0-.5 1.1-.8 3.3-.8h3.9c.4 1.2.9 3.9 1.8 8.3.9 4.3 1.5 7.5 2 9.6.3-1 .5-2.1.8-3.4.2-1.4.4-2.4.6-3.3.2-.9.3-1.4.3-1.5.4-1 .9-2.9 1.6-5.5l1.1-4.2h4.4c2.2 0 3.3.2 3.3.8 0 .1 0 .4-.1.8 0 0-.1.5-.4 1.3-.2.8-.6 2.1-1 4-.5 1.8-1 3.7-1.5 5.6l-4.8 17.6 7.4 31.8.1.3h-.2c-.1 0-.2-.1-.2-.1l-2.5.2h-.2c-1.5 0-2.9-.1-4.5-.3l-4.1-20.5-2.3 9.6c0 .2-.5 2-1.4 5.3-1 3.2-1.5 4.9-1.6 5.1zm-16.1-52.8l-.1 5.4c0 3.6 0 6.2-.2 8.1l-.1 2.3h6.3v7.9l-3.4-.2h-3.4l.1 10.4v10.4h2.9l4.7.2-.2 4.6-.2 4.4-8.4-.2-6.3.1.2-6.3c0-1.1 0-4.3.1-9.8.1-5.5.2-9.9.2-13.1.2-11.5.4-17.8.4-18.8 0-1.3.2-6.2.3-14.6l6.7.2 7 .1-.1 4.6.1 4.5h-6.6zm-20 32v-.2c0-2.3-.3-3.7-1-4.4-.6-.6-1.4-1.1-2.1-1.4-.8-.3-1.7-.5-2.7-.6-1-.1-1.7-.3-2.1-.4-2.1-.8-3.3-2.9-3.6-6.3V38v-.8c0-1.1 0-2.5-.1-4 0-1.6-.1-2.9-.1-3.7v-2-1.4-4.7c0-2.5.2-4.3.7-5.4.8-1.8 2.3-3.1 4.4-4 1.1-.5 2.5-.7 4.2-.7 2 0 3.8.3 5.5.8 2 .6 3.3 1.4 3.7 2.2.4.9.7 2.7.7 5.7v3.7c-.1 5.3-.3 8.1-.6 8.4-.2.2-.6.2-1.4.2-.6 0-1.4-.1-2.3-.2l-2.5-.3v-6c0-3 0-4.8-.2-5.6-.2-.7-.5-1.1-1-1.1-.4-.1-.8-.1-1.5-.1-.6 0-1 .1-1.4.4-.3.3-.5.9-.6 1.7 0 .3-.1.8-.1 1.6v2.6c0 .6 0 1.6-.1 2.9 0 1.3-.1 2.5-.1 3.7v.7c0 2.4.6 3.8 1.8 4.2 0 0 .5.2 1.4.4.9.3 1.4.5 1.6.5.1 0 .6.2 1.4.5.8.3 1.3.5 1.5.7.2.2.6.4 1.2.8.6.3 1 .7 1.2 1 .2.4.5.8.8 1.2.3.5.5 1 .6 1.5.1.6.2 1.2.2 1.8 0 2.8.1 7 .1 12.4 0 7.5-.1 11.6-.2 12.2-.3 1.2-1.1 2.3-2.4 3.3-.9.6-1.7 1-2.3 1.2-.6.2-2 .2-4 .2-3.9 0-6.5-.7-7.7-2.1-1.2-1.4-1.9-4.6-2.1-9.8-.2-4.6-.4-7.3-.5-7.7l7.3-.2c.3.3.5.7.6 1.2.1.5.1 1.8.1 4.1v6.1l1.8-.2 2.3-.2V58.4v-1.1c0-.2 0-.8-.1-1.7-.2-.8-.2-2-.3-3.5zM56.6 16l.1-4.2h3.8c1.6 0 2.7 0 3.2.2s.7.5.7 1v.4l-.1 1.7c0 1.1-.1 2.7-.2 4.8 0 2-.1 4-.2 6-.2 6.5-.3 12.7-.6 18.9-.1 3.3-.3 9.5-.5 18.4-.2 6.7-.5 10.2-.7 10.5-.2.2-1.1.3-2.5.3h-1.1l-3.3-.2v-4c0-2.7.2-11.1.5-25.3.3-14.2.5-21.7.6-22.6.2-.6.2-2.5.3-5.9zm-31.2-3.4c.1-.1.6-.2 1.5-.2.5 0 1.5 0 2.9.2l4 .2 1 6.9c2.1 14.3 3.3 21.6 3.7 21.6 0 0 .1 0 .1-.1l.1-.2c.3-.8 1.2-5.7 2.6-14.7 1.4-8.9 2.3-13.5 2.5-13.9.2-.2 1.4-.4 3.7-.4h4.4l-.3 28c0 4.4-.1 9.1-.2 14.2 0 5-.1 9-.2 11.9 0 2.9-.1 4.5-.1 4.8v2.6l-3.4-.2-3.4-.2V57l.1-13.7-1 4.9c-.9 4.4-1.6 8.1-2.2 11.3-1.3 7.1-2 10.8-2.2 11.2l-2.2.3c-.2-.4-.6-3.2-1.4-8.3-.2-1.4-.8-5-1.8-10.8L32.2 44l.1 13.8v5.4c0 6.6 0 10-.2 10.4l-4-.2-3.1-.2V38.9c0-17.4.1-26.2.4-26.3z"/>
  <path class="st2" d="M320.3 105.4v-6.6H327.5l-.2 12.9c-.1 5.7-.3 15.6-.6 29.8l-.3 16h-6.9c0-4.7.2-13.7.4-27.2.2-13.4.4-21.7.4-24.9m5.4 56.5l.2 7.7h-4.6l-2.7-.2.3-7.8 6.8.3zm-21.1-22.8v-.2c0-2.3-.3-3.8-1-4.4-.6-.6-1.4-1.1-2.1-1.4-.8-.3-1.7-.5-2.7-.6-1-.1-1.7-.3-2.1-.4-2.1-.8-3.3-2.9-3.6-6.4v-.8-.7c0-1.1 0-2.5-.1-4.1 0-1.6-.1-2.8-.1-3.7v-1.9-1.4-4.7c0-2.5.2-4.3.7-5.4.8-1.8 2.3-3.1 4.4-4 1.1-.5 2.5-.7 4.2-.7 2 0 3.8.3 5.5.9 2 .6 3.3 1.4 3.7 2.2.4.9.7 2.7.7 5.7v3.7c-.1 5.3-.3 8.1-.6 8.4-.2.2-.6.2-1.4.2-.6 0-1.4 0-2.3-.2l-2.8-.4v-6c0-2.9 0-4.8-.2-5.5-.2-.8-.5-1.1-1-1.1-.4 0-.9-.1-1.5-.1s-1 .2-1.4.4c-.3.3-.5.9-.6 1.7 0 .2-.1.8-.1 1.5v2.6c0 .6 0 1.6-.1 2.9 0 1.3-.1 2.5-.1 3.7v.7c0 2.4.6 3.8 1.8 4.2 0 0 .5.1 1.4.4.9.3 1.4.4 1.6.5.1 0 .6.2 1.4.5.8.3 1.3.5 1.5.6.2.2.6.4 1.2.8s1 .7 1.2 1c.2.4.5.8.8 1.2.3.4.5 1 .6 1.5.1.6.2 1.2.2 1.7 0 2.9.1 7 .1 12.4 0 7.5-.1 11.6-.2 12.2-.3 1.2-1.1 2.3-2.4 3.3-.9.6-1.7 1-2.3 1.2-.6.2-2 .2-4 .2-4 0-6.5-.7-7.7-2.1-1.2-1.4-1.9-4.6-2.1-9.8-.2-4.7-.4-7.3-.5-7.7l7.3-.2c.3.3.5.7.6 1.2.1.5.1 1.8.1 4.1V153l1.8-.2 2.3-.2v-7.2-1.1c0-.3 0-.8-.1-1.7.1-.8 0-2 0-3.5m-22.4-32l-.1 5.4c0 3.6-.1 6.3-.2 8.1l-.1 2.4h6.3v8l-3.4-.2h-3.4l-.1 10.2v10.4h2.9l4.7.2-.2 4.6-.2 4.4-8.4-.2-6.3.1.2-6.3c0-1.1 0-4.3.1-9.8.1-5.5.1-9.9.2-13.1.2-11.6.3-17.8.4-18.8 0-1.3.2-6.2.3-14.6l6.8.2 7 .1-.1 4.6.1 4.5h-6.5zm-34.6-3.2v-5H253.3c.6 0 1.1.1 1.4.4.2.2.3.4.4.6.1.3.2.6.3 1.1.1.4.2.9.3 1.3.1.4.2 1 .4 1.7.2.8.3 1.5.4 2.1 0 .2.7 3 1.9 8.3 1.3 5.3 2.2 9.3 2.7 12 .8 5 1.4 7.4 1.7 7.4.2 0 .3-1.7.3-5.3v-16l.1-12.9h7.2l-.3 12.6c0 .5-.4 14.6-1.3 42.3 0 .9 0 1.9-.1 3 0 1.1-.1 1.9-.1 2.5v1c0 .2-1.1.3-3.3.4h-.5c-.7 0-1.2-.1-1.4-.2-.3-.1-.4-.3-.5-.5-.1-.2-.1-.6-.2-1.3-.1-.6-.3-1.3-.5-1.9-.2-.6-.6-2-1.1-4.3-.5-2.3-.9-3.9-1.1-4.6-.6-2.2-1.4-5.3-2.3-9.3-1-4-1.8-7.1-2.4-9.5-.6-2.3-1-3.5-1.1-3.6 0 0-.1 1.2-.1 3.7 0 2.4 0 5.6-.1 9.4v7.9l-.3 14.3h-.7c-.4 0-.9-.1-1.5-.1-.6-.1-1.2-.1-1.8-.1h-3.4l.2-13.3c.4-14.5.7-22.6.7-24.6.2-9.3.4-15.7.4-19.5m-16.1 3c-1.3.1-2 1-2.3 2.6-.2 1.6-.4 7-.5 16.1 0 7.4-.2 15-.4 22.7 0 1.2-.1 2.5-.1 3.9 0 .9.1 1.5.2 1.7.1.2.4.4.9.6.4.2 1 .2 1.8.2 1.2 0 2-.3 2.6-.8.4-.4.6-1.9.7-4.6.1-2.7.2-8.5.2-17.5.1-7.3.1-13.9.1-19.7v-.9c0-1.6-.2-2.7-.4-3.3-.3-.6-1-.9-2-.9h-.4c-.2-.1-.3-.1-.4-.1m-3.1-8.5c1-.3 2-.4 3.1-.4 2.9 0 5.2.4 6.9 1.4 1.2.7 2.1 1.6 2.9 2.9.6 1.1.9 4.4.9 9.9 0 1-.1 6.3-.2 16-.2 16.1-.4 24.8-.6 25.9-.4 2.3-1.7 4.1-3.7 5.4-2.1 1.3-4.8 1.9-8.2 1.9h-.8c-2.9-.1-5-.8-6.2-2.2-1.5-1.9-2.2-4.6-2.2-8.1v-.5l.3-19.7c.3-15.1.5-23.5.6-25.3.2-1.7 1-3.2 2.3-4.5 1.2-1.3 2.9-2.2 4.9-2.7m-19.5 4.6l.1-4.2h3.8c1.6 0 2.7.1 3.2.2s.8.5.8 1v.4l-.1 1.6c0 1.1-.1 2.7-.2 4.8-.1 2.1-.1 4-.2 6-.2 6.5-.4 12.8-.6 18.9-.1 3.3-.3 9.5-.6 18.4-.2 6.8-.4 10.2-.7 10.5-.2.2-1.1.3-2.5.3h-1.1l-3.3-.2v-4.1c0-2.7.2-11.1.5-25.3.3-14.2.5-21.8.6-22.6.1-.4.2-2.3.3-5.7M196 139.1v-.2c0-2.3-.3-3.8-1-4.4-.6-.6-1.3-1.1-2.1-1.4-.8-.3-1.7-.5-2.7-.6-1-.1-1.7-.3-2.2-.4-2.1-.8-3.2-2.9-3.5-6.4v-.8-.7c0-1.1 0-2.5-.1-4.1-.1-1.6-.1-2.8-.1-3.7v-1.9-1.4-4.7c0-2.5.2-4.3.7-5.4.8-1.8 2.3-3.1 4.4-4 1.1-.5 2.5-.7 4.2-.7 2 0 3.9.3 5.5.9 2 .6 3.2 1.4 3.7 2.2.5.9.7 2.7.7 5.7v3.7c-.1 5.3-.3 8.1-.6 8.4-.2.2-.6.2-1.4.2-.6 0-1.3 0-2.3-.2l-2.8-.4v-6c0-2.9 0-4.8-.2-5.5-.1-.8-.4-1.1-1-1.1-.4 0-.9-.1-1.5-.1s-1 .2-1.3.4c-.3.3-.5.9-.6 1.7-.1.2-.1.8-.1 1.5v2.6c0 .6 0 1.6-.1 2.9-.1 1.3-.1 2.5-.1 3.7v.7c0 2.4.6 3.8 1.8 4.2 0 0 .5.1 1.4.4.9.3 1.4.4 1.6.5.2 0 .6.2 1.4.5.8.3 1.2.5 1.5.6.2.2.6.4 1.2.8s.9.7 1.2 1c.2.4.5.8.8 1.2.3.4.6 1 .6 1.5.1.6.2 1.2.2 1.7.1 2.9.1 7 .1 12.4 0 7.5-.1 11.6-.2 12.2-.3 1.2-1 2.3-2.3 3.3-.9.6-1.7 1-2.3 1.2-.7.2-2 .2-4 .2-3.9 0-6.5-.7-7.7-2.1-1.2-1.4-1.9-4.6-2.1-9.8-.2-4.7-.4-7.3-.5-7.7l7.3-.2c.3.3.5.7.6 1.2 0 .5.1 1.8.1 4.1V153l1.8-.2 2.4-.2v-7.2-1.1c0-.3 0-.8-.1-1.7-.2-.8-.2-2-.3-3.5M173 103l.1-4.2h3.8c1.7 0 2.7.1 3.2.2s.8.5.8 1v.4l-.1 1.6c0 1.1-.1 2.7-.2 4.8 0 2.1-.1 4-.2 6-.2 6.5-.3 12.8-.6 18.9-.1 3.3-.3 9.5-.6 18.4-.2 6.8-.4 10.2-.7 10.5-.2.2-1 .3-2.5.3h-1.1l-3.3-.2v-4.1c0-2.7.2-11.1.5-25.3.3-14.2.5-21.8.6-22.6.1-.4.1-2.3.3-5.7m-19-5.2c1.1-.5 2.5-.7 4.3-.7.5 0 1.3.1 2.2.2 1.4.2 2.7.7 4 1.4 1.3.8 2.2 1.5 2.7 2.3.7 1.1 1 3.1 1 5.9v2.8c-.1 5.2-.3 8-.6 8.3-.1.1-.5.2-1.2.2-.3 0-1-.1-1.9-.2l-2.7-.4v-6c0-2.8-.1-4.5-.2-5.1-.1-.6-.5-1.1-1.1-1.4-.8-.4-1.3-.6-1.6-.6-.6 0-1.1.2-1.6.7-.5.4-.8 1.1-.9 1.9-.2 1.1-.4 6.3-.7 15.5-.3 9.2-.4 16.6-.4 22.2v2.6l.1 3c0 1.2.1 1.9.3 2.1.2.2.8.4 1.7.4h.8l2.3.2V146.9c0-2.3 0-3.7.1-4.2 0-.5.2-.9.4-1.2h6.2v4.4c0 1.3 0 2.5-.1 3.5-.2 5.1-1 8.3-2.2 9.8-1.3 1.4-3.9 2.2-7.9 2.2-2 0-3.3-.1-4-.2-.7-.2-1.5-.6-2.4-1.2-1.3-1-2-2.1-2.3-3.3-.2-.8-.3-6.4-.3-16.5 0-10.6.1-19.5.4-26.7.2-5.5.6-8.9 1-10.1.5-2.8 2.2-4.6 4.6-5.6m-16.8 9.3l-.1 5.4c0 3.6-.1 6.3-.2 8.1l-.1 2.4h6.3v8l-3.4-.2h-3.4l-.1 10.2v10.4h2.9l4.7.2-.2 4.6-.2 4.4-8.4-.2-6.3.1.2-6.3c0-1.1 0-4.3.1-9.8.1-5.5.2-9.9.2-13.1.2-11.6.3-17.8.4-18.8 0-1.3.2-6.2.3-14.6l6.7.2 7 .1-.1 4.6.1 4.5h-6.4zm-20.2 10l.1-10.6-2.9-.2-2.9-.2-.1 3.7v2.6c0 1.2 0 2.5-.1 4 0 1.5-.1 2.8-.1 3.7 0 .8-.1 3.5-.2 8.2-.2 4.6-.2 8.4-.3 11.2l-.4 13.6 2.9-.2c1.4-.1 2.2-.2 2.6-.4.3-.2.6-.6.8-1.3.3-1.3.5-12.7.6-34.1m-13.7-18.6c.1-.2 1.9-.2 5.5-.2h2.4c3.7 0 6.1.2 6.9.3.9.2 1.8.6 2.8 1.4 1.8 1.3 2.9 2.8 3.3 4.5.4 1.7.7 5.2.7 10.4v2.7c-.1 11.3-.2 19.1-.4 23.4-.2 4.3-.6 8.6-1.2 12.9-.2 1.6-.5 2.7-.8 3.3-.3.6-.9 1.2-1.7 1.7-.8.6-1.7 1-2.8 1.1-1 .1-3.4.2-7.1.2H102c-.4 0-.6-.9-.6-2.8 0-.4 0-1 .1-2 .1-.9.2-1.7.2-2.3.2-3.7.3-10.4.5-19.9.6-22.7 1-34.3 1.1-34.7m-26.7 40.6v-.2c0-2.3-.3-3.8-1-4.4-.6-.6-1.4-1.1-2.2-1.4-.8-.3-1.7-.5-2.7-.6-1-.1-1.7-.3-2.2-.4-2.1-.8-3.3-2.9-3.6-6.4v-.8-.7c0-1.1 0-2.5-.1-4.1 0-1.6-.1-2.8-.1-3.7v-1.9-1.4-4.7c0-2.5.2-4.3.7-5.4.8-1.8 2.3-3.1 4.4-4 1.1-.5 2.5-.7 4.2-.7 2 0 3.8.3 5.5.9 2 .6 3.3 1.4 3.7 2.2.4.9.7 2.7.7 5.7v3.7c-.1 5.3-.3 8.1-.6 8.4-.2.2-.6.2-1.4.2-.6 0-1.4 0-2.3-.2l-2.8-.4v-6c0-2.9 0-4.8-.2-5.5-.2-.8-.5-1.1-1-1.1-.4 0-.9-.1-1.5-.1s-1 .2-1.4.4c-.3.3-.5.9-.6 1.7 0 .2-.1.8-.1 1.5v2.6c0 .6 0 1.6-.1 2.9 0 1.3-.1 2.5-.1 3.7v.7c0 2.4.6 3.8 1.8 4.2 0 0 .5.1 1.4.4.9.3 1.4.4 1.6.5.1 0 .6.2 1.4.5.8.3 1.3.5 1.5.6.2.2.6.4 1.2.8s1 .7 1.2 1c.2.4.5.8.8 1.2.3.4.5 1 .6 1.5.1.6.2 1.2.2 1.7 0 2.9.1 7 .1 12.4 0 7.5-.1 11.6-.2 12.2-.3 1.2-1.1 2.3-2.4 3.3-.9.6-1.7 1-2.3 1.2-.6.2-2 .2-4 .2-4 0-6.5-.7-7.7-2.1-1.2-1.4-1.9-4.6-2.1-9.8-.2-4.7-.4-7.3-.5-7.7l7.3-.2c.3.3.5.7.6 1.2 0 .5.1 1.8.1 4.1V153l1.8-.2 2.3-.2v-7.2-1.1c0-.3 0-.8-.1-1.7.3-.8.3-2 .2-3.5M53.5 103l.1-4.2h3.8c1.6 0 2.7.1 3.2.2s.7.5.7 1v.4l-.1 1.6c0 1.1-.1 2.7-.1 4.8-.1 2.1-.1 4-.2 6-.2 6.5-.3 12.8-.5 18.9-.1 3.3-.3 9.5-.6 18.4-.2 6.8-.5 10.2-.7 10.5-.2.2-1.1.3-2.5.3h-1.1l-3.3-.2v-4.1c0-2.7.2-11.1.5-25.3.3-14.2.5-21.8.6-22.6.1-.4.2-2.3.2-5.7m-31.2-3.5c.1-.1.6-.2 1.5-.2.5 0 1.5 0 2.9.2l3.9.2 1 6.9c2.1 14.4 3.3 21.6 3.7 21.6 0 0 .1 0 .1-.1l.1-.2c.3-.8 1.2-5.7 2.6-14.7 1.4-8.9 2.3-13.5 2.5-13.9.2-.2 1.4-.3 3.7-.3h4.4l-.3 28c0 4.4-.1 9.2-.2 14.2 0 5-.1 9-.2 11.9 0 2.9-.1 4.5-.1 4.8v2.6l-3.4-.2-3.4-.2.1-16.3.1-13.7-1 4.9c-.9 4.4-1.6 8.1-2.2 11.3-1.3 7.1-2 10.8-2.2 11.2l-2.2.2c-.2-.4-.6-3.1-1.4-8.3-.2-1.4-.8-5-1.8-10.8l-1.3-7.9.1 13.8v5.4c0 6.6-.1 10-.2 10.4l-4-.2-3.2-.2v-34.3c.1-17.1.2-25.9.4-26.1m-12 57.3c0-3.1-.1-10.5-.4-22.2-.2-11.6-.3-19.8-.4-24.6H15.9l.3 16.8c.1 3.7.2 8.3.3 13.9.2 5.6.2 8.9.2 9.8l.2 12.9H10.2v-6.6zm5.1-50.5l-6.4.3-.3-7.7 2.6-.2h4.2l-.1 7.6z"/>
  <path class="st3" d="M321.9 105.1v-6.6H329.1l-.2 13c-.1 5.7-.3 15.6-.6 29.8l-.3 16h-6.9c0-4.7.2-13.8.4-27.2.2-13.5.4-21.8.4-25zm5.4 56.6l.2 7.7h-4.6l-2.7-.2.3-7.8 6.8.3zm-21.1-22.8v-.2c0-2.3-.3-3.7-1-4.4-.6-.6-1.4-1.1-2.1-1.4-.8-.3-1.7-.5-2.7-.6-1-.1-1.7-.3-2.1-.4-2.1-.8-3.3-2.9-3.6-6.3v-.8-.8c0-1.1 0-2.5-.1-4 0-1.6-.1-2.9-.1-3.7v-2-1.4-4.7c0-2.5.2-4.3.7-5.4.8-1.8 2.3-3.1 4.4-4 1.1-.5 2.5-.7 4.2-.7 2 0 3.8.3 5.5.8 2 .6 3.3 1.4 3.7 2.2.4.8.7 2.7.7 5.7v3.7c-.1 5.3-.3 8.1-.6 8.4-.2.2-.6.2-1.4.2-.6 0-1.4-.1-2.3-.2l-2.8-.4v-6c0-3 0-4.8-.2-5.6-.2-.7-.5-1.1-1-1.1-.4 0-.9-.1-1.5-.1s-1 .2-1.4.4c-.3.3-.5.9-.6 1.7 0 .3-.1.8-.1 1.6v2.6c0 .6 0 1.6-.1 2.9 0 1.3-.1 2.5-.1 3.7v.7c0 2.4.6 3.8 1.8 4.2 0 0 .5.2 1.4.4.9.3 1.4.5 1.6.5.1 0 .6.2 1.4.5.8.3 1.3.5 1.5.7.2.2.6.4 1.2.8.6.3 1 .7 1.2 1 .2.4.5.8.8 1.2.3.5.5 1 .6 1.5.1.6.2 1.2.2 1.8 0 2.9.1 7 .1 12.4 0 7.5-.1 11.6-.2 12.2-.3 1.2-1.1 2.3-2.4 3.3-.9.6-1.7 1-2.3 1.2-.6.2-2 .2-4 .2-4 0-6.5-.7-7.7-2.1-1.2-1.4-1.9-4.6-2.1-9.7-.2-4.7-.4-7.3-.5-7.7l7.3-.2c.3.3.5.7.6 1.2.1.5.1 1.8.1 4.1v6.1l1.8-.2 2.3-.2V145.2v-1.1c0-.3 0-.9-.1-1.7v-3.5zm-22.4-32l-.1 5.4c0 3.6-.1 6.3-.2 8.1l-.1 2.4h6.3v7.9l-3.4-.2H283l-.1 10.2v10.4h2.9l4.7.2-.2 4.6-.2 4.4-8.4-.2-6.3.1.2-6.3c0-1 0-4.3.1-9.8.1-5.5.1-9.9.2-13.1.2-11.5.3-17.8.4-18.8 0-1.4.2-6.2.3-14.6l6.8.2h7l-.1 4.7.1 4.5h-6.6zm-34.6-3.2v-5H254.9c.6 0 1.1.2 1.4.4.2.2.3.4.4.6.1.3.2.6.3 1.1.1.4.2.9.3 1.3.1.4.2 1 .4 1.8s.3 1.5.4 2c0 .2.7 3 1.9 8.3 1.3 5.3 2.2 9.3 2.7 12 .8 4.9 1.4 7.4 1.7 7.4.2 0 .3-1.8.3-5.3v-16l.1-13h7.2l-.3 12.7c0 .5-.4 14.6-1.3 42.3 0 1 0 1.9-.1 3 0 1-.1 1.9-.1 2.4v1c0 .2-1.1.3-3.3.4h-.5c-.7 0-1.2 0-1.4-.2-.3-.1-.4-.2-.5-.5-.1-.2-.1-.6-.2-1.3-.1-.6-.3-1.3-.5-1.9-.2-.6-.6-2-1.1-4.4-.5-2.3-.9-3.9-1.1-4.6-.6-2.2-1.4-5.3-2.3-9.3-1-4-1.8-7.1-2.4-9.5-.6-2.3-1-3.5-1.1-3.5 0 0-.1 1.2-.1 3.6 0 2.4 0 5.6-.1 9.4v7.9l-.3 14.3h-.7c-.4 0-.9 0-1.5-.1-.6 0-1.2-.1-1.8-.1H247.7l.2-13.3c.4-14.5.7-22.6.7-24.6.4-9.1.6-15.6.6-19.3zm-16.1 2.9c-1.3.1-2 1-2.3 2.6-.2 1.6-.4 7-.5 16.1 0 7.4-.2 15-.4 22.7 0 1.2-.1 2.4-.1 3.9 0 .9.1 1.5.2 1.7.1.2.4.4.9.6.4.2 1 .2 1.8.2 1.2 0 2-.3 2.6-.9.4-.4.6-1.9.7-4.6.1-2.7.2-8.6.2-17.5.1-7.3.1-13.9.1-19.7v-.9c0-1.6-.2-2.7-.4-3.4-.3-.6-1-.9-2-.9h-.4c-.2.1-.4.1-.4.1zm-3.1-8.4c1-.3 2-.4 3.1-.4 2.9 0 5.2.5 6.9 1.4 1.2.7 2.1 1.6 2.9 2.9.6 1.1.9 4.4.9 10 0 .9-.1 6.3-.2 16-.2 16.1-.4 24.7-.6 25.9-.4 2.3-1.7 4.1-3.7 5.4-2.1 1.3-4.8 1.9-8.2 1.9h-.8c-2.9 0-5-.8-6.2-2.2-1.5-2-2.2-4.6-2.2-8.1v-.5l.3-19.7c.3-15.1.5-23.5.6-25.3.2-1.7 1-3.2 2.3-4.5 1.2-1.4 2.9-2.3 4.9-2.8zm-19.5 4.6l.1-4.2h3.8c1.6 0 2.7.1 3.2.2.5.2.8.5.8 1v.4l-.1 1.7c0 1.1-.1 2.7-.2 4.7-.1 2.1-.1 4-.2 6-.2 6.5-.4 12.7-.6 18.9-.1 3.3-.3 9.5-.6 18.4-.2 6.8-.4 10.2-.7 10.5-.2.2-1.1.3-2.5.3h-1.1l-3.3-.2v-4c0-2.7.2-11.1.5-25.3.3-14.2.5-21.7.6-22.6.1-.6.2-2.4.3-5.8zm-12.9 36.1v-.2c0-2.3-.3-3.7-1-4.4-.6-.6-1.3-1.1-2.1-1.4-.8-.3-1.7-.5-2.7-.6-1-.1-1.7-.3-2.2-.4-2.1-.8-3.2-2.9-3.5-6.3v-.8-.8c0-1.1 0-2.5-.1-4-.1-1.6-.1-2.9-.1-3.7v-2-1.4-4.7c0-2.5.2-4.3.7-5.4.8-1.8 2.3-3.1 4.4-4 1.1-.5 2.5-.7 4.2-.7 2 0 3.9.3 5.5.8 2 .6 3.2 1.4 3.7 2.2.5.8.7 2.7.7 5.7v3.7c-.1 5.3-.3 8.1-.6 8.4-.2.2-.6.2-1.4.2-.6 0-1.3-.1-2.3-.2l-2.8-.4v-6c0-3 0-4.8-.2-5.6-.1-.7-.4-1.1-1-1.1-.4 0-.9-.1-1.5-.1s-1 .2-1.3.4c-.3.3-.5.9-.6 1.7-.1.3-.1.8-.1 1.6v2.6c0 .6 0 1.6-.1 2.9-.1 1.3-.1 2.5-.1 3.7v.7c0 2.4.6 3.8 1.8 4.2 0 0 .5.2 1.4.4.9.3 1.4.5 1.6.5.2 0 .6.2 1.4.5.8.3 1.2.5 1.5.7.2.2.6.4 1.2.8.6.3.9.7 1.2 1 .2.4.5.8.8 1.2.3.5.6 1 .6 1.5.1.6.2 1.2.2 1.8.1 2.9.1 7 .1 12.4 0 7.5-.1 11.6-.2 12.2-.2 1.2-1 2.3-2.3 3.3-.9.6-1.7 1-2.3 1.2-.7.2-2 .2-4 .2-3.9 0-6.5-.7-7.7-2.1-1.2-1.4-1.9-4.6-2.1-9.7-.2-4.7-.4-7.3-.5-7.7l7.3-.2c.3.3.5.7.6 1.2 0 .5.1 1.8.1 4.1v6.1l1.8-.2 2.4-.2V145.2v-1.1c0-.3 0-.9-.1-1.7-.2-.8-.2-2-.3-3.5zm-23.1-36.1l.1-4.2h3.8c1.6 0 2.7.1 3.2.2.5.2.8.5.8 1v.4l-.1 1.7c0 1.1-.1 2.7-.2 4.7 0 2.1-.1 4-.2 6-.2 6.5-.3 12.7-.6 18.9-.1 3.3-.3 9.5-.6 18.4-.2 6.8-.4 10.2-.7 10.5-.2.2-1 .3-2.5.3h-1.1l-3.3-.2v-4c0-2.7.2-11.1.5-25.3.3-14.2.5-21.7.6-22.6.2-.6.2-2.4.3-5.8zm-18.9-5.2c1.1-.5 2.5-.7 4.3-.7.5 0 1.3 0 2.2.2 1.4.2 2.7.7 4 1.4 1.3.8 2.2 1.5 2.7 2.3.7 1.1 1 3.1 1 5.9v2.8c-.1 5.3-.3 8-.6 8.3-.1.1-.5.2-1.2.2-.3 0-1 0-1.9-.2l-2.7-.4v-6c0-2.8-.1-4.5-.2-5.2-.1-.6-.5-1.1-1.1-1.4-.8-.4-1.3-.6-1.6-.6-.6 0-1.1.2-1.6.7-.5.4-.8 1.1-.9 1.9-.2 1.1-.4 6.3-.7 15.5-.3 9.2-.4 16.6-.4 22.2v2.6l.1 3c0 1.2.1 1.8.3 2.1.2.2.8.4 1.7.4h.8l2.3.2v-6.1c0-2.3 0-3.7.1-4.2 0-.5.2-.9.4-1.2h6.2v4.4c0 1.3 0 2.5-.1 3.6-.2 5-1 8.3-2.2 9.7-1.3 1.5-3.9 2.2-7.9 2.2-2 0-3.3-.1-4-.2-.7-.2-1.5-.6-2.4-1.2-1.3-1-2-2.1-2.3-3.3-.2-.8-.3-6.4-.3-16.5 0-10.6.1-19.5.4-26.7.2-5.6.6-8.9 1-10.1.5-2.8 2.2-4.6 4.6-5.6zm-16.9 9.3l-.1 5.4c0 3.6-.1 6.3-.2 8.1l-.1 2.4h6.3v7.9l-3.4-.2H138l-.1 10.2v10.4h2.9l4.7.2-.2 4.6-.2 4.4-8.4-.2-6.3.1.2-6.3c0-1 0-4.3.1-9.8.1-5.5.2-9.9.2-13.1.2-11.5.3-17.8.4-18.8 0-1.4.2-6.2.3-14.6l6.7.2h7l-.1 4.7.1 4.5h-6.6zm-20.1 10l.1-10.7-2.9-.1-2.9-.2-.1 3.7v2.6c0 1.1 0 2.5-.1 4 0 1.5-.1 2.8-.1 3.7 0 .8-.1 3.5-.2 8.1-.2 4.7-.2 8.4-.3 11.3l-.4 13.6 2.9-.2c1.4-.1 2.2-.2 2.6-.4.3-.2.6-.6.8-1.3.2-1.3.5-12.8.6-34.1zm-13.7-18.6c.1-.1 1.9-.2 5.5-.2h2.4c3.7 0 6.1.2 6.9.3.9.2 1.8.6 2.8 1.4 1.8 1.4 2.9 2.9 3.3 4.6.4 1.7.7 5.2.7 10.4v2.8c-.1 11.3-.2 19.1-.4 23.3-.2 4.3-.6 8.6-1.2 12.9-.2 1.6-.5 2.8-.8 3.4-.3.6-.9 1.2-1.7 1.7-.8.6-1.7.9-2.8 1-1 .2-3.4.2-7.1.2h-8.9c-.4 0-.6-.9-.6-2.7 0-.4 0-1 .1-2s.2-1.7.2-2.3c.2-3.7.3-10.4.5-19.8.6-23 .9-34.6 1.1-35zm-26.7 40.6v-.2c0-2.3-.3-3.7-1-4.4-.6-.6-1.4-1.1-2.2-1.4-.8-.3-1.7-.5-2.7-.6-1-.1-1.7-.3-2.2-.4-2.1-.8-3.3-2.9-3.6-6.3v-.8-.8c0-1.1 0-2.5-.1-4 0-1.6-.1-2.9-.1-3.7v-2-1.4-4.7c0-2.5.2-4.3.7-5.4.8-1.8 2.3-3.1 4.4-4 1.1-.5 2.5-.7 4.2-.7 2 0 3.8.3 5.5.8 2 .6 3.3 1.4 3.7 2.2.4.8.7 2.7.7 5.7v3.7c-.1 5.3-.3 8.1-.6 8.4-.2.2-.6.2-1.4.2-.6 0-1.4-.1-2.3-.2l-2.8-.4v-6c0-3 0-4.8-.2-5.6-.2-.7-.5-1.1-1-1.1-.4 0-.9-.1-1.5-.1s-1 .2-1.4.4c-.3.3-.5.9-.6 1.7 0 .3-.1.8-.1 1.6v2.6c0 .6 0 1.6-.1 2.9 0 1.3-.1 2.5-.1 3.7v.7c0 2.4.6 3.8 1.8 4.2 0 0 .5.2 1.4.4.9.3 1.4.5 1.6.5.1 0 .6.2 1.4.5.8.3 1.3.5 1.5.7.2.2.6.4 1.2.8.6.3 1 .7 1.2 1 .2.4.5.8.8 1.2.3.5.5 1 .6 1.5.1.6.2 1.2.2 1.8 0 2.9.1 7 .1 12.4 0 7.5-.1 11.6-.2 12.2-.3 1.2-1.1 2.3-2.4 3.3-.9.6-1.7 1-2.3 1.2-.6.2-2 .2-4 .2-4 0-6.5-.7-7.7-2.1-1.2-1.4-1.9-4.6-2.1-9.7-.2-4.7-.4-7.3-.5-7.7l7.3-.2c.3.3.5.7.6 1.2 0 .5.1 1.8.1 4.1v6.1l1.8-.2 2.3-.2V145.2v-1.1c0-.3 0-.9-.1-1.7.3-.8.3-2 .2-3.5zm-23.1-36.1l.1-4.2H59c1.6 0 2.7.1 3.2.2.5.2.7.5.7 1v.4l-.1 1.7c0 1.1-.1 2.7-.1 4.7-.1 2.1-.1 4-.2 6-.2 6.5-.3 12.7-.5 18.9-.1 3.3-.3 9.5-.6 18.4-.2 6.8-.5 10.2-.7 10.5-.2.2-1.1.3-2.5.3h-1.1l-3.3-.2v-4c0-2.7.2-11.1.5-25.3.3-14.2.5-21.7.6-22.6.1-.6.2-2.4.2-5.8zm-31.2-3.5c.1-.1.6-.2 1.5-.2.5 0 1.5.1 2.9.2l3.9.2 1 6.9c2.1 14.4 3.3 21.6 3.7 21.6 0 0 .1 0 .1-.1l.1-.2c.3-.8 1.2-5.7 2.6-14.7 1.4-8.8 2.3-13.5 2.5-13.9.2-.2 1.4-.3 3.7-.3h4.4l-.3 28c0 4.4-.1 9.1-.2 14.2 0 5-.1 9-.2 11.9 0 2.9-.1 4.5-.1 4.8v2.6l-3.4-.2-3.4-.2.1-16.2.1-13.7-1 4.9c-.9 4.4-1.6 8.1-2.2 11.3-1.3 7.1-2 10.8-2.2 11.2l-2.2.2c-.2-.4-.6-3.1-1.4-8.3-.2-1.4-.8-5-1.8-10.8l-1.3-7.9.1 13.8v5.5c0 6.6 0 10-.2 10.3l-4-.2-3.2-.2v-34.2c.1-17.4.1-26.1.4-26.3zm-12 57.3c0-3.1-.1-10.5-.4-22.2-.2-11.7-.4-19.9-.4-24.6H17.5l.4 16.8c0 3.6.1 8.3.3 13.9.2 5.6.2 8.9.2 9.8l.2 12.9H11.9v-6.6zm5.1-50.5l-6.3.3-.3-7.7 2.6-.2h4.2l-.2 7.6z"/>
  <path class="st0" d="M310.2 307.8c0 8.8 4.3 13.2 13.1 13.2s13.3-4.4 13.3-13.2c0-8.7-4.4-13-13.3-13-8.7 0-13.1 4.3-13.1 13"/>
  <path d="M10.2 299.4c-6.8 0-10.2 3.5-10.2 10.3 0 6.8 3.4 10.2 10.2 10.2 6.8 0 10.3-3.4 10.3-10.2 0-6.8-3.4-10.3-10.3-10.3" fill="#888c90"/>
  <path class="st2" d="M176.8 249c-.4-1.5-.8-2.9-1.2-4.3-.4-1.5-.8-2.9-1.1-4.4-.2-.6-.3-1.2-.4-1.7-.2-.6-.3-1.2-.4-1.7-.3-1.6-.6-3.2-.9-4.7-.3-1.6-.6-3.1-1-4.6-.1-.3-.2-.5-.4-.7-.2-.1-.4-.3-.6-.3-.2-.1-.3-.1-.5-.1h-4.2c-.4 0-.7.2-.9.5-.2.3-.3.6-.2.9.3 1.2.5 2.3.6 3.5.2 1.2.4 2.4.7 3.5.1.5.3 1 .4 1.5.1.5.3 1 .3 1.5.2.7.3 1.4.4 2.2.1.7.2 1.5.4 2.2.2 1.2.4 2.3.6 3.5.2 1.2.4 2.3.6 3.5 0 .4.1.9.2 1.3s.1.9.1 1.3c0 .5.1.8.2 1 .1.3.2.4.4.5.2.1.5.2.8.3.4.1.8.1 1.3.1h1.2c.5 0 1 0 1.5-.1.5 0 1-.2 1.4-.3.3 0 .5-.1.6-.2.2-.1.2-.2.3-.4v-.7c0-.4-.1-.7-.1-1 0-.3-.1-.6-.1-.8.2-.7.1-1 0-1.3m-.4-38.8c-.4-.5-.8-.9-1.3-1.2l-1.5-.9c-.7-.4-1.4-.7-2.1-.8-.8-.1-1.5-.2-2.3-.1-.5 0-1.1 0-1.7.1-.6.1-1.1.1-1.7.2-.5.1-.8.1-.9.3-.2.1-.3.5-.4.9 0 .4-.1.8-.1 1.2v1.2c0 .8 0 1.6.1 2.4v2.4c0 .3 0 .7.1 1v1c0 .5-.1 1 0 1.6v4c0 .4.1.7.3.9.2.2.5.4.8.5l.9.3c.3.1.6.1 1 0 1.3 0 2.5-.3 3.7-.7 1.2-.4 2.2-1 3.2-1.9.4-.3.7-.7 1.1-1.1l.9-1.2c.4-.7.7-1.5 1-2.3.3-.8.5-1.6.5-2.4.1-1 0-2.1-.2-3-.2-.7-.7-1.6-1.4-2.4m-13.1 31.2v-2.7c0-.5-.1-.9-.1-1.2v-2c.1-1.1.1-2.2 0-3.2 0-1 0-2.1.1-3.2v-1.5c0-.5 0-1 .1-1.5 0-.9 0-1.7.1-2.5 0-.8 0-1.6.1-2.3 0-.8 0-1.6-.1-2.5v-2.4c0-.3 0-.6.1-.9v-.8-1c0-.9 0-1.7-.1-2.6 0-.9-.1-1.7-.3-2.6-.1-.4-.2-.7-.4-.9-.2-.2-.5-.3-.9-.3h-3.8c-.2 0-.5.1-.6.2-.1.1-.3.3-.3.6-.1.3-.2.6-.3 1-.1.3-.1.6-.1.9-.1.9-.1 1.8-.1 2.7 0 .9 0 1.8.1 2.7 0 .6 0 1.2.1 1.8v1.8c-.1.9-.1 1.9-.1 2.8 0 .9 0 1.8.1 2.6v1.7c0 .5 0 1 .1 1.5v2.4c0 .8-.1 1.6-.1 2.4-.1.9-.1 1.8-.2 2.7v2.7c.1 1.3.1 2.7.1 4.1 0 1.4 0 2.8-.1 4.2-.1.8-.1 1.6 0 2.5v3.5c0 .3.1.5.2.7.1.2.2.4.4.5.2.1.4.2.6.2h3.3c.4 0 .9-.1 1.4-.2.5 0 .8-.2.9-.3.2-.2.3-.4.3-.7v-1.5c-.3-3.2-.4-6.3-.5-9.4M140 224.3H142.9c.5-.1.9-.2 1.3-.3.3-.1.7-.1 1-.3.3-.1.6-.2 1-.4s.7-.4 1-.6c.3-.2.5-.4.8-.6.3-.2.5-.5.8-.7.6-.5 1-1 1.4-1.6l.9-1.8c.1-.4.2-.7.2-1.1v-1-1c0-.4-.1-.7-.2-1-.1-.4-.3-.7-.4-1-.4-.9-1-1.6-1.6-2.4-.7-.7-1.5-1.2-2.4-1.6-.1-.1-.3-.1-.4-.2-.1-.1-.2-.1-.4-.2-.8-.4-1.6-.7-2.4-.8-.8-.1-1.7-.1-2.6 0-.6.1-1.1.3-1.4.5-.3.3-.5.7-.6 1.3 0 .5-.1 1-.2 1.5s-.1 1-.1 1.5c0 1.5.1 3 .1 4.4 0 1.5 0 3-.1 4.4v1.8c0 .5.2.7.4.9.1.3.5.4 1 .3m11.7 10.7c-.1-.3-.2-.7-.3-1-.1-.3-.1-.7-.2-1l-.6-1.8c-.2-.6-.6-1.1-1-1.6l-.7-.7c-.3-.3-.5-.5-.8-.7-.8-.7-1.7-1.3-2.6-1.7-.9-.4-1.9-.7-3-.7-.3 0-.6 0-.9-.1h-.9c-.5 0-.9 0-1.2.3-.3.2-.5.5-.6 1-.1.3-.1.5-.2.8v.8c0 .6-.1 1.3-.1 1.9 0 .7.1 1.3.1 2 0 .5.1 1 .1 1.7s0 1.5.1 2.3c0 .8.1 1.6.1 2.4v2.2c0 .7.1 1.2.1 1.7v4.7c0 1.3 0 2.5-.1 3.7v1.9c.1.3.3.5.6.6.3.1.8.1 1.3.1s.9 0 1.4-.1c.5-.1.9-.2 1.3-.4.4-.1.8-.3 1-.4.4-.3.8-.5 1.2-.8.4-.3.8-.6 1.1-.8.3-.2.5-.4.7-.5.7-.6 1.3-1.2 1.8-1.8.5-.7 1-1.5 1.5-2.5.4-.8.6-1.7.8-2.5.2-.9.3-1.7.3-2.4v-2.1c0-.7-.1-1.4-.2-2.1.3-1 .1-1.7-.1-2.4m-14.4-6.1v-.9-1.5-1.8-1.7-1.3-1.9-2.3c0-.8 0-1.6.1-2.4 0-.8 0-1.4.1-2v-1.2-.7-2.2c0-.3-.1-.6-.2-.9-.1-.3-.3-.5-.6-.6-.7-.1-1.5-.1-2.3-.1-.8 0-1.5.1-2.2.2-.5 0-.8.1-1 .3-.2.1-.3.5-.3 1v1.4c0 .5 0 1 .1 1.5v1c0 .3 0 .7-.1 1v.9c0 .5 0 1 .1 1.8v2.2c0 .7 0 1.5.1 2.2v5.3c0 1.2 0 2.4.1 3.5 0 1.2 0 2.4-.1 3.5v16.4c0 .7-.1 1.3-.1 2v.9c0 .2.1.4.2.5.1.1.3.3.5.3.1 0 .3 0 .4.1h3.6c.2 0 .3 0 .5-.1.2 0 .4-.1.5-.2.2 0 .3-.1.5-.2.1-.1.2-.3.2-.5v-.3-.3c0-.7.1-1.5.1-2.2v-2.2c0-.4.1-.9.1-1.3s.1-.9.1-1.3c-.1-2.2-.1-4.3-.2-6.5 0-.4 0-1-.1-1.7 0-.7 0-1.5-.1-2.3v-2.4-2-1m-13.6-21.4c-.1-.1-.2-.2-.3-.2-.8-.3-1.5-.3-2.3-.2-.7.1-1.4.4-2.1 1-.5.5-.9 1-1.1 1.6-.2.6-.3 1.2-.2 1.9.1.5.3 1 .7 1.5.4.4.8.8 1.4 1 .5.3 1.1.4 1.6.4.2 0 .4 0 .6-.1.3 0 .5-.1.8-.2.3 0 .5-.1.6-.2.6-.3 1-.6 1.3-1 .3-.4.5-.9.5-1.5.1-.6.1-1.1 0-1.6s-.3-1-.5-1.5c-.4-.3-.7-.7-1-.9m.9 42.6c0-1.2-.1-2.2-.1-3.2V244c0-1 0-2 .1-3.1v-.6c0-.4 0-.9.1-1.4 0-.6 0-1.1.1-1.7v-1.5-2.4-7.3-3.7-4.8c0-.3 0-.6-.2-.8-.1-.2-.4-.3-.8-.4-.6-.1-1.3-.1-1.9-.1h-2.3c-.1 0-.2 0-.4.1-.2 0-.3.2-.5.3-.1.1-.2.3-.3.5 0 .3 0 .5-.1.7v19.8c0 .6-.1 1.2-.1 1.8v1.9c0 1.3-.1 2.7-.2 4.1 0 1.3-.1 2.7-.1 4.1v1.6c0 .6.1 1.1.2 1.5 0 .2.1.4.2.6.1.2.3.2.6.3.8.1 1.7.2 2.6.2.9 0 1.7-.1 2.6-.2.3 0 .4-.1.6-.2.2-.2.3-.3.3-.5.1-.2.1-.4.1-.6v-.6c0-.2-.1-.5-.1-.7-.4-.4-.4-.6-.4-.8m-12.3-6.5c-.4 0-.8-.1-1.2-.1h-3.2c-.6 0-1.2-.1-1.8-.1h-1.7v-.9-1.4-1.4c-.1-.6-.1-1.2-.1-1.9v-1.9c0-.1-.1-.3-.1-.5s.1-.4.1-.6c0-.4.1-.7.1-1V231c0-.5 0-.9.1-1.4v-1.3-1.2c0-.4 0-.7-.1-1.2 0-.7-.1-1.4-.1-2.1 0-.7-.1-1.4-.2-2.1 0-.5-.1-1-.1-1.5v-1.5-3.4c0-1.2-.1-2.3-.2-3.4 0-.2-.1-.4-.2-.5-.1-.1-.3-.1-.5-.2-.9-.2-1.7-.3-2.6-.3-.8 0-1.7.1-2.5.2-.2 0-.4.1-.5.2-.1.1-.2.3-.2.4v4.6c-.1 1.1-.1 2.1-.1 3.2s0 2.2.1 3.3c0 1.2.1 2.3.1 3.5v3.5c0 .6 0 1.2-.1 1.8 0 .6-.1 1.2-.1 1.8 0 .9-.1 1.7-.1 2.5 0 .9 0 1.7.1 2.5v.7c-.1.8-.2 1.6-.2 2.5v2.6c-.1.8-.1 1.6-.1 2.4 0 .8-.1 1.6-.2 2.4 0 .3.1.5.2.6.1.2.3.2.6.3H99.4c.3 0 .7.1 1 .1h1c.9.1 1.9.1 2.8.1.9 0 1.8 0 2.8-.1h4.5c.4 0 .8-.1 1-.2.3-.1.5-.3.6-.5.1-.2.2-.4.2-.6 0-.2 0-.5.1-.9 0-.4 0-.8.1-1.2 0-.5 0-.9.1-1.3v-.8c.1-.3 0-.5-.2-.6-.3-.1-.6-.3-1.1-.3"/>
  <path class="st2" d="M111.4 267.6c-.1-.2-.2-.2-.3-.2-.8-.3-1.6-.3-2.3-.2-.8.1-1.4.4-2.1 1-.5.4-.9 1-1.1 1.6-.2.6-.3 1.3-.2 1.9.1.6.3 1 .7 1.5.4.4.8.7 1.3 1 .5.3 1.1.4 1.6.4.2 0 .4 0 .6-.1.3 0 .5-.1.8-.2.3 0 .5-.1.6-.2.6-.3 1-.6 1.3-1 .3-.4.5-.9.5-1.5.1-.6.1-1.1 0-1.7-.1-.5-.3-1-.5-1.4-.2-.3-.5-.6-.9-.9m.9 42.6c0-1.2-.1-2.2-.1-3.2v-3c0-1 .1-2 .1-3.1v-.6c0-.4 0-.8.1-1.4v-1.7-3.9-3.4-7.5-4.8c0-.3-.1-.6-.2-.8-.2-.2-.5-.3-.9-.4-.6 0-1.2-.1-1.9-.1h-1.9c-.1 0-.2.1-.3.1h-.4c-.2.1-.3.1-.5.3-.1.1-.2.3-.3.5 0 .2-.1.4-.1.7v19.6c0 .6 0 1.2-.1 1.8v1.8c0 1.3-.1 2.7-.2 4.1 0 1.4-.1 2.7-.1 4.1v1.7c0 .5.1 1 .2 1.5 0 .3.1.5.2.6.2.1.3.2.6.3.8.1 1.7.1 2.6.1.9 0 1.7 0 2.6-.1.2 0 .4-.1.6-.2.2-.1.3-.3.3-.5.1-.2.1-.3.1-.6v-.6c0-.2-.1-.5-.1-.7-.2-.2-.2-.4-.3-.6m-11.1-42c0-.2-.1-.3-.2-.4-.1-.1-.3-.1-.5-.1h-3.4s-.1 0-.4.1h-.8c-.3 0-.6.1-.8.1-.3 0-.6.1-.9.3-.2.2-.4.5-.5.8-.1.3-.1.5-.3.8-.1.3-.2.6-.2.8-.2.9-.5 1.9-.6 2.8-.2.9-.4 1.9-.6 2.8-.2.7-.4 1.5-.5 2.2-.1.8-.3 1.5-.3 2.3-.1 1.1-.3 2.2-.5 3.4l-.6 3.3-.6 2.7-.6 2.7c-.1.4-.2.7-.3 1.1 0 .4-.1.7-.2 1.1-.1-.4-.1-.7-.2-1.1-.1-.3-.2-.7-.3-1.1l-.6-2.7-.6-2.7c-.3-1.1-.5-2.2-.6-3.3-.2-1.2-.3-2.3-.4-3.4-.2-.8-.3-1.6-.4-2.3-.2-.7-.3-1.5-.5-2.2-.4-1.9-.8-3.7-1.3-5.6 0-.3-.1-.6-.2-.8-.1-.3-.1-.5-.2-.8-.1-.3-.3-.6-.5-.8-.3-.2-.6-.3-.9-.3-.2 0-.5 0-.8-.1h-.8c-.2 0-.4 0-.4-.1h-3.4c-.2 0-.3 0-.5.1-.1.1-.2.2-.2.4v1.2c.2.7.3 1.5.4 2.3l.3 2.4c0 .3.1.5.1.8.1.3.1.6.2.9.2.7.4 1.5.6 2.2.2.7.4 1.5.6 2.2.1.4.2.7.3 1.1.1.4.1.7.1 1.2.1.9.3 1.8.5 2.8s.3 1.9.5 2.8l.3 1.2.3 1.2c.3.9.5 1.7.6 2.5.1.6.1 1.1.3 1.7.1.6.2 1.2.3 1.7.2.9.4 1.8.7 2.5.3.8.5 1.6.7 2.4.2.8.4 1.7.5 2.6 0 .2.1.6.3 1.1.1.5.3 1.1.5 1.8.2.6.4 1.3.6 1.9.2.6.3 1.2.5 1.6.1.5.2.7.2.9 0 .1 0 .3.1.6 0 .3.2.5.4.8.2.3.5.6.9.7.4.2 1 .3 1.7.3h.4c.8 0 1.4-.1 1.9-.4.5-.3.8-.6.9-.9.2-.3.3-.6.3-.7 0-.1.1-.4.1-.7.1-.4.2-.7.3-1.2.1-.5.2-.9.3-1.3.1-.4.2-.8.2-1 .1-.9.3-1.9.6-2.7.2-.9.5-1.8.8-2.7.3-.9.6-1.8.8-2.7 0-.2.2-.6.3-1.4.2-.7.3-1.7.6-2.8.3-1.1.5-2.3.8-3.6.3-1.3.6-2.6.8-3.9.3-1.3.5-2.5.7-3.6.2-1.1.4-2 .6-2.7.2-.7.2-1.1.3-1.2.2-.7.4-1.5.6-2.2.2-.7.4-1.5.6-2.2.1-.3.1-.6.2-.9.1-.3.1-.6.2-.8l.3-2.4c0-.7.2-1.5.3-2.3 0-.2.1-.4.1-.6.2-.1.2-.3.1-.5M250 245.1c-.1-.3-.2-.6-.4-.9-.2-.2-.4-.3-.8-.4-.4-.1-1-.2-1.7-.2h-1.7c-.9-.1-1.9-.1-2.8-.1-1 0-1.9 0-2.9.1v-.5-.8c0-.3.1-.6.1-.8 0-.5.1-1.1.1-1.6 0-.6 0-1.1.1-1.7v-.2h3.5c1.1 0 2.3.1 3.3.2.5 0 .9 0 1.2-.1.3-.2.5-.4.5-.8.1-.7.1-1.4.2-2 .1-.7.1-1.3.2-2v-.3-.3c-.2-.6-.6-.9-1.4-.9h-5.2c-.6 0-1.3 0-1.9-.1h-.4v-.7-1.5-1.5-.4-.4c.1-.7.2-1.5.2-2.3 0-.8-.1-1.5-.1-2.3-.1-.7-.1-1.4-.1-2.1 0-.7 0-1.4.1-2.1v-.6-.5c.8 0 1.5 0 2.3.1h2.3c.8 0 1.5 0 2.3-.1.8-.1 1.5-.2 2.3-.4.3 0 .5-.1.6-.2.1-.2.2-.3.3-.5.1-.1.1-.3.1-.4v-.5-1.1V212.8v-.3c-.1-.3-.2-.6-.4-.9-.1-.2-.5-.4-.9-.5-.4-.1-1-.1-1.8-.2h-2.1c-1.1 0-2.1-.1-3.1-.1s-2.1.1-3.1.1c-.4 0-.8 0-1.2.1h-1.1c-.8 0-1.4.1-1.9.2s-.8.3-1 .5c-.2 0-.3.1-.4.2-.1.1-.1.3-.1.5v.2c0 .2.1.4.1.5v.5c0 .3.1.7.1 1 0 .3 0 .6.1 1v2.4c0 .8.1 1.5.2 2.2.1.7.2 1.4.2 2.2v1.9c0 .6 0 1.3.1 1.9v3.3c0 .3 0 .5-.1.8V249c0 .2.1.3.2.4.1.1.2.1.4.1.3 0 .5 0 .8.1h1.3c.3 0 .6 0 .9.1h3.1c.8 0 1.5.1 2.3.1h2.2c.7 0 1.4 0 2.1-.1.7-.1 1.4-.2 2.1-.4.2 0 .4-.1.6-.3.1-.1.3-.3.3-.4v-1-1.1-1.5c-.2.3-.2.2-.2.1m-37.1-10.6v1.4c0 .6 0 1.4-.1 2.2v5.6c0 .9 0 1.8.1 2.7V248.1c0 .4.1.8.2 1.2.1.3.2.6.3.7 0 .1.2.2.5.2h1.2c.5 0 1.1-.1 1.7-.1.8-.1 1.5-.4 2.3-.7.7-.3 1.4-.7 2.1-1.1.7-.4 1.3-.8 1.8-1.2.6-.4 1-.8 1.4-1.2.4-.3.7-.7 1.1-1.2.3-.4.8-1 1.3-1.7.5-.8.9-1.5 1.3-2.3.4-.7.6-1.4.8-2 .2-.5.3-1 .5-1.4.1-.5.3-1 .3-1.5.2-.9.3-1.8.5-2.7.1-.9.2-1.9.1-2.8 0-.2 0-.6-.1-1-.1-.5-.1-1-.2-1.7s-.1-1.3-.2-2-.2-1.3-.3-1.9c-.1-.6-.2-1-.3-1.4-.2-.7-.5-1.3-.7-1.9-.2-.6-.5-1-.8-1.5-.3-.5-.7-1-1.2-1.5-.3-.4-.6-.9-1-1.3-.4-.5-.8-.9-1.4-1.4-.5-.5-1.1-.9-1.8-1.3l-2.4-1.2c-.6-.3-1-.4-1.2-.4-.3-.1-.7-.3-1.2-.4-.5-.1-.9-.1-1.4-.2-.5-.1-.9-.1-1.3-.1h-.8c-.2.1-.4.2-.5.4 0 .1 0 .2-.1.3v.3c0 .3-.1.7-.1 1.1 0 .4 0 .7-.1 1.1V216.7c0 .6-.1 1.3-.1 2s0 1.4-.1 2.1c0 .6 0 1.2-.1 1.6 0 .5 0 .7-.1.9V234.5zm-14.7 10.6l-.3-.9c-.1-.2-.4-.3-.8-.4-.4-.1-.9-.2-1.7-.2h-1.6c-.9-.1-1.9-.1-2.8-.1-1 0-1.9 0-2.9.1v-.5-.8c0-.3 0-.6.1-.8 0-.5.1-1.1.1-1.6V238h3.5c1.2 0 2.3.1 3.4.2.5 0 .9 0 1.2-.1.3-.2.4-.4.5-.8.1-.7.2-1.4.2-2 .1-.7.1-1.3.2-2v-.3-.3c-.2-.6-.7-.9-1.4-.9H190.7c-.6 0-1.3 0-1.9-.1h-.2V227.2c.1-.7.2-1.5.2-2.3 0-.8-.1-1.5-.2-2.3-.1-.7-.1-1.4-.1-2.1v-2.7-.5c.8 0 1.5 0 2.3.1h2.3c.8 0 1.5 0 2.3-.1.8-.1 1.5-.2 2.3-.4.3 0 .5-.1.6-.2.1-.2.2-.3.3-.5 0-.1.1-.3.1-.4v-.5-1.1V212.8c0-.1 0-.2-.1-.3-.1-.3-.2-.6-.4-.9-.2-.2-.5-.4-.9-.5-.4-.1-1-.1-1.8-.2h-1.8c-1.1 0-2.1-.1-3.1-.1-1.1 0-2.1.1-3.1.1-.4 0-.8 0-1.2.1h-1.1c-.8 0-1.4.1-1.9.2s-.8.3-1 .5c-.2 0-.4.1-.5.2-.1.1-.1.3-.1.5v.2c0 .2.1.4.1.5v.5c0 .3.1.7.1 1V218c0 .8.1 1.5.2 2.2.1.7.2 1.4.2 2.2v1.9c0 .6 0 1.3.1 1.9v3.3c0 .3 0 .5-.1.8V249c0 .2.1.3.1.4.1.1.3.1.5.1.3 0 .5 0 .8.1h1.3c.3 0 .6 0 .9.1h3.1c.8 0 1.5.1 2.3.1h2.2c.7 0 1.4 0 2.1-.1.7-.1 1.4-.2 2.1-.4.3 0 .5-.1.6-.3.1-.1.3-.3.3-.4 0-.2.1-.3.1-.5v-.5-1.1-1.5c-.4.3-.4.2-.5.1"/>
  <path class="st2" d="M197.2 287.7c.3.9.6 1.7.8 2.5.3.8.5 1.7.7 2.5.3 1.3.6 2.7 1 4 .4 1.3.7 2.7 1 4 .3 1.3.6 2.7.8 4 .1.7.2 1.5.4 2.2.1.7.3 1.4.5 2.1.2.7.3 1.5.3 2.2 0 .3.1.6.3.8.2.2.4.4.7.6.1.1.3.2.5.2.2.1.4.1.5.1.5.1.9.1 1.3.2.3 0 .7.1 1 .1s.8 0 1.3-.1h1c.4 0 .7-.1 1.1-.2.3-.2.6-.4.7-.7 0-.2.1-.5.1-1s0-1.1.1-1.8v-2.2c0-.8 0-1.4-.1-2.1 0-1.1.1-2.1.1-3.1v-2.9-2.4-1.1-2c0-.7.1-1.5.1-2.2v-2-1.2-3.6c0-1.2 0-2.2.1-3.3 0-1 .1-2.2.1-3.3v-3.6c0-.9 0-1.8.1-2.7 0-.9.1-1.8.2-2.7.1-.4 0-.8-.3-1.2-.3-.3-.7-.5-1.2-.6H209c-.6 0-1.1 0-1.5.1-.5 0-.9.1-1.1.1-.4.1-.7.2-.9.3l-.4.4c-.1.2-.1.3-.2.5v5.5c0 .6.1 1.1.1 1.5 0 .5 0 .9.1 1.4 0 .5 0 .9.1 1.5v5.8c0 .8-.1 1.5-.1 2.1v2.7c0 .7.1 1.5.1 2.2v2c0 .6 0 1.1-.1 1.4 0 .3-.2.4-.3.2-.1-.4-.2-.7-.3-1.1l-.3-.9c-.1-.3-.2-.9-.4-1.6-.2-.8-.4-1.6-.7-2.5-.2-1-.5-1.9-.8-3-.3-1-.5-2-.8-3-.2-.9-.4-1.7-.6-2.4-.1-.7-.3-1.1-.3-1.3-.2-.9-.5-1.8-.7-2.8-.3-.9-.6-1.8-.8-2.7-.1-.5-.2-1-.4-1.6-.1-.6-.2-1.3-.4-1.9-.1-.6-.3-1.2-.5-1.7s-.5-.8-.7-.9c-.2 0-.3-.1-.5-.1h-4.4c-.3 0-.6.1-.9.1l-.9.3c-.2.1-.3.2-.4.3-.1.1-.2.3-.2.5 0 .4-.1.7-.1 1.1v6.4c0 .7 0 1.3.1 2v4.3c0 .6 0 1.3.1 2.1v2.5c0 .9.1 1.7.1 2.5s.1 1.6.1 2.2c0 .6.1 1.1.1 1.5 0 .9.1 1.9.1 3.1v3.4c0 1.2 0 2.2-.1 3.3 0 1 0 1.9-.1 2.6v6.6c0 .1 0 .3.1.5l.3.3c.1.1.3.1.4.2.1.1.3.1.4.2l1.5.3c.5.1 1 .1 1.5.1s1.1 0 1.8-.1c.2-.1.4-.1.6-.3.2-.1.3-.3.4-.5.1-.3.2-.7.3-1.1.1-.4.1-.7.1-1.1v-1.3-1.2-2.7-2.2-2.2-1.9-1.2-2.3c0-.8 0-1.6-.1-2.4 0-.4 0-.8-.1-1.3 0-.5 0-1-.1-1.5v-1.4c0-.4 0-.7.1-1-.4-.4-.3-.5-.1-.4m-10.8 17.5c-.1-.4-.2-.6-.4-.9-.2-.2-.4-.4-.8-.5-.4-.1-1-.2-1.7-.2h-1.6c-.9 0-1.9-.1-2.9-.1-.9 0-1.9 0-2.9.1v-.5-.8c0-.3.1-.5.1-.8v-1.6c0-.5 0-1.1.1-1.7v-.2h3.5c1.1 0 2.3.1 3.3.2.6 0 .9 0 1.2-.2.2-.1.4-.4.5-.7.1-.7.1-1.3.2-2 0-.7.1-1.3.2-2v-.3c0-.1 0-.2-.1-.3-.2-.5-.6-.8-1.4-.9H176.4v-.8-1.5-1.5-.4-.4c.1-.8.2-1.5.2-2.3 0-.7-.1-1.5-.2-2.2-.1-.7-.1-1.5-.1-2.1 0-.7 0-1.4.1-2.1v-.5-.6c.8 0 1.6.1 2.3.1.8 0 1.5 0 2.3.1.8 0 1.5 0 2.3-.1.8-.1 1.5-.2 2.3-.4.3 0 .5-.1.6-.3.2-.1.2-.3.3-.4.1-.1.1-.3.1-.5v-.5-1.1V272.9v-.3c-.1-.4-.2-.7-.4-.9-.2-.2-.5-.4-.9-.5-.4-.1-1-.2-1.8-.2h-1.8c-1.1-.1-2.1-.1-3.2-.1-1 0-2.1 0-3.1.1-.4 0-.8.1-1.1.1-.4 0-.8 0-1.2.1-.8 0-1.4.1-1.9.2s-.8.3-1 .5c-.2 0-.3.1-.4.3-.1.1-.1.3-.1.5v.2c0 .1.1.3.1.5v1.4c0 .3 0 .6.1 1v2.4c0 .7.1 1.5.2 2.2.1.7.1 1.5.2 2.2 0 .6 0 1.3.1 1.9v5.2c0 .2-.1.5-.1.8v18.6c0 .2.1.3.2.4.1.1.2.1.4.1.3 0 .6.1.8.1h1.3c.3 0 .6.1.9.1.3 0 .7 0 1 .1h4.4c.8 0 1.5 0 2.2.1.7 0 1.4 0 2.1-.1.7-.1 1.4-.2 2.1-.4.2 0 .4-.1.6-.2.2-.1.3-.3.3-.5v-.8-1.1V305.5c-.2-.1-.2-.2-.2-.3m-20.8-1.5c-.4-.1-.8-.1-1.2-.1h-4.9c-.6 0-1.2 0-1.8-.1v-.8-1.3-1.4c0-.6-.1-1.3-.1-1.9v-1.9-.5c0-.2 0-.3.1-.5 0-.4 0-.7.1-1v-1.6-1.4c0-.5 0-.9.1-1.4v-2.5c0-.4 0-.8-.1-1.2-.1-.7-.1-1.4-.1-2.1 0-.7-.1-1.4-.1-2.1-.1-.5-.1-1-.2-1.5v-1.5-3.4c0-1.1-.1-2.3-.2-3.4 0-.2-.1-.4-.1-.5-.1-.1-.3-.2-.5-.2-.9-.2-1.8-.3-2.6-.3-.9 0-1.7.1-2.6.2-.2 0-.4.1-.5.2-.1.1-.2.2-.2.4v4.6c-.1 1.1-.2 2.2-.2 3.3 0 1.1 0 2.1.1 3.2.1 1.2.1 2.4.1 3.5v3.5c0 .6 0 1.2-.1 1.8 0 .6-.1 1.2-.1 1.8 0 .8 0 1.6-.1 2.5 0 .8 0 1.7.1 2.5 0 .1.1.3.1.4v.3c-.1.8-.1 1.6-.1 2.5v2.7c0 .8-.1 1.5-.1 2.4 0 .7 0 1.6-.1 2.4 0 .3 0 .5.2.6.1.1.3.2.6.3.1 0 .1.1.2.1h1.8c.3.1.6.1 1 .1.3 0 .7 0 1 .1.9 0 1.9.1 2.8 0h5.1c.7 0 1.5 0 2.2-.1.4 0 .8-.1 1-.2.3-.1.4-.3.6-.5.1-.2.2-.4.2-.5v-.9c0-.4.1-.8.1-1.2 0-.4.1-.9.1-1.2v-.9c0-.3 0-.5-.2-.6-.6-.5-.9-.6-1.4-.7M130.9 278v-.4-.9c0-.3 0-.6-.1-.9 0-.3-.1-.4-.3-.5 0-.1-.1-.1-.3-.2h-1c-.4 0-.9.1-1.4.1-.6.1-1.2.3-1.8.6-.6.3-1.1.6-1.7.9-.6.3-1.1.6-1.5.9-.4.4-.8.7-1.1.9l-.9.9c-.3.3-.6.8-1.1 1.4-.4.6-.7 1.2-1.1 1.8-.3.6-.5 1.1-.7 1.6l-.3 1.2c-.1.4-.2.8-.3 1.1-.2.7-.3 1.5-.4 2.2-.1.7-.1 1.5 0 2.2v.8c.1.4.1.9.1 1.4 0 .5.1 1 .2 1.6.1.5.1 1 .2 1.5s.1.9.2 1.1c.2.6.4 1.1.6 1.5.2.5.4.9.7 1.2.2.4.6.8.9 1.2.3.6.8 1.1 1.3 1.7.5.6 1.2 1.1 2.1 1.6.8.4 1.5.7 2 .9.5.2.8.3.9.4l.9.3c.4.1.8.1 1.1.2.3 0 .7.1 1 .1h.6c.1 0 .2 0 .3-.1 0-.1.1-.1.1-.2s.1-.1.1-.2v-.3c0-.3.1-.6.1-.9 0-.3 0-.6.1-.9v-.9-1.7c0-.7 0-1.3.1-2v-1.8c0-.5 0-.8.1-.9v-.9-1.9-2.3V286.1c0-.7 0-1.5.1-2.5v-2.9c.3-.9.3-1.8.2-2.7m15.9 12.5c0-.1 0-.5-.1-.8 0-.4-.1-.9-.1-1.3-.1-.5-.1-1.1-.2-1.6-.1-.6-.2-1-.3-1.5-.1-.5-.1-.9-.3-1.1-.1-.6-.3-1.1-.5-1.5l-.6-1.2c-.2-.4-.6-.8-.9-1.2-.4-.5-.8-1-1.4-1.6-.5-.6-1.2-1.1-2.1-1.6-.8-.4-1.4-.8-1.9-.9-.5-.2-.8-.3-1-.4-.4-.1-.8-.3-1.3-.3-.5-.1-1-.1-1.4-.2h-1c-.1 0-.2 0-.3.1l-.2.2v.5c0 .3 0 .6-.1.9 0 .3-.1.6-.1.9 0 .1 0 .4-.1.9v1.7c0 .7-.1 1.3-.1 2s-.1 1.3-.1 1.8V305.1c0 .3 0 .6.1.9.1.3.2.5.3.6 0 .1.3.2.8.2s1.2-.1 2-.1c.6-.1 1.2-.3 1.8-.6.6-.3 1.1-.6 1.7-.9.5-.3 1.1-.6 1.5-.9.5-.3.8-.6 1.1-.9l.9-.9c.3-.3.6-.8 1.1-1.4.3-.6.7-1.2 1-1.8.3-.6.5-1.1.7-1.6.1-.4.3-.8.4-1.1.1-.4.2-.7.2-1.2.2-.7.3-1.5.4-2.2.1-1.2.2-1.9.1-2.7"/>
  <path class="st2" d="M268.9 282.8c-.1-1.2-.3-2.4-.6-3.6-.2-1.2-.6-2.3-1.1-3.4-.3-.7-.6-1.3-1.1-1.8-.4-.5-.9-1-1.6-1.3-.2-.1-.4-.3-.6-.4-.2-.1-.5-.2-.6-.4-.9-.5-1.9-.9-2.9-1-1-.1-2-.1-3.1.1-.8.2-1.5.5-2.1.9-.6.5-1.2 1-1.8 1.6-.2.2-.4.4-.6.7s-.5.6-.8 1.1c-.3.5-.6 1.2-.9 2.1-.3.9-.6 2-.8 3.4 0 .2 0 .4-.1.5v1.5c0 .4.1.7.2 1.1.1.4.4.7.7.9.3.3.9.4 1.5.5.8.1 1.4.1 1.9 0 .5 0 .8-.2 1-.3.2-.1.4-.3.5-.6.1-.2.1-.5.2-.8 0-.7.1-1.3.3-1.9.1-.6.3-1.2.5-1.7 0-.1.1-.3.2-.6s.3-.6.5-.8c.2-.3.5-.6.8-.7.3-.2.6-.3 1-.4.5 0 .9.1 1.2.3.3.3.6.6.9 1.1.2.5.4.8.5 1.1l.3.9c.1.6.3 1.2.4 1.9.1.7.2 1.4.2 2.1v2.9c-.5 0-.9-.1-1.3-.1-.5 0-.9 0-1.4.1-.5 0-1.1.1-1.8.1-.8.1-1.6.2-2.2.3l-1.8.3c-.5.2-1.1.3-1.7.7-.2.1-.5.3-.9.5s-.8.4-1.1.7c-.3.3-.6.5-.9.7-.6.6-1.1 1.2-1.5 1.9-.4.7-.6 1.5-.8 2.4-.1 1.1-.1 2.2 0 3.1.1.9.4 1.8.9 2.6.5.9 1.1 1.6 1.9 2.4.8.7 1.8 1.3 3 1.7.1 0 .3.1.7.1.4.1.9.2 1.4.3.6.1 1.1.2 1.7.3.6.1 1.1.1 1.6.1.4 0 .8.1 1.3.1h1.6c0 .3-.1.6-.1.9v.8c0 .5.1 1 .5 1.3.4.3.8.6 1.4.7.6.2 1.2.3 1.9.3h1.9c.3 0 .5-.1.6-.3l.3-.6c0-.2.1-.5.1-.7v-.3c0-.8.1-1.5.1-2.1 0-.6.1-1.3.1-1.9 0-.6 0-1.3.1-2.1 0-.3 0-.6.1-.9 0-.3.1-.6.1-.9.1-1.8.2-3.7.3-5.5 0-1.8.1-3.7.2-5.5V286c-.3-.9-.3-2.1-.4-3.2m-26.3-15.2c-.1-.2-.2-.2-.3-.2-.8-.3-1.6-.3-2.3-.2-.8.1-1.4.5-2.1 1-.5.5-.9 1-1.1 1.6-.2.6-.3 1.3-.2 1.9.1.6.3 1 .7 1.5.4.4.8.7 1.3 1 .5.3 1.1.4 1.6.4.2 0 .4 0 .6-.1.3 0 .5-.1.8-.1.3 0 .5-.1.6-.2.6-.3 1-.6 1.3-1 .3-.4.5-.9.5-1.5.1-.6.1-1.1 0-1.7-.1-.5-.3-1-.5-1.4-.3-.4-.6-.7-.9-1m.9 42.6c0-1.2-.1-2.2-.1-3.2v-3c0-1 0-2 .1-3.1v-.6c0-.4 0-.8.1-1.4v-1.7-3.9-3.4-7.5-4.8c0-.3-.1-.6-.2-.8-.2-.2-.5-.3-.9-.4-.6 0-1.2-.1-1.9-.1h-1.9c-.1 0-.2.1-.3.1h-.4c-.2.1-.3.1-.5.3-.2.1-.2.3-.3.5 0 .2-.1.5-.1.7v19.6c0 .6 0 1.2-.1 1.8v1.8c0 1.3-.1 2.7-.1 4.1 0 1.4-.1 2.7-.2 4.1v1.7c0 .5.1 1 .2 1.5 0 .3.1.5.2.6.2.1.3.2.6.3.8.1 1.7.1 2.6.1.9 0 1.7 0 2.6-.1.2 0 .4-.1.6-.2.1-.1.3-.3.3-.5.1-.1.1-.3.1-.6v-.6c0-.2-.1-.5-.2-.7-.1-.2-.2-.4-.2-.6m-12.6-41.9s0-.1-.1-.1l-.1-.1c-.1-.2-.3-.4-.5-.6-.2-.1-.5-.2-.9-.2s-1 .1-1.6.3c-.6.2-1.2.4-1.7.6-.5.2-.9.4-1.3.7l-1.2.9c-.4.3-.9.8-1.4 1.2l-.8.7c-.8.6-1.5 1.5-2.2 2.5-.8 1-1.5 2.3-2.2 3.9-.3.7-.6 1.4-.9 2.2-.3.8-.6 1.6-.8 2.7-.2.7-.3 1.5-.5 2.2-.1.7-.2 1.4-.2 2.1v1.2c0 .6-.1 1.2-.1 1.9v2.4c0 .6 0 1.2.1 2s.2 1.7.4 2.7c.1 1.1.5 2.3.9 3.6.5 1.3 1.1 2.7 2 4.1.9 1.4 2 2.8 3.4 4.2 1.2 1.2 2.3 2.1 3.5 2.8 1.2.7 2.2 1.2 3.2 1.5.2 0 .3.1.4.1h.4c.5 0 1-.1 1.4-.5.5-.3.8-.7 1-1.3.3-.7.5-1.3.5-1.9.1-.6.1-1.2.1-1.8 0-.4 0-.7-.2-.8-.1-.2-.4-.3-.8-.5l-.2-.1c-.4-.1-.9-.2-1.3-.5-.5-.2-1.1-.5-1.8-1-.8-.4-1.4-.9-1.9-1.4-.5-.5-1-1.1-1.4-1.7-.4-.6-.8-1.4-1.2-2.2-.1-.2-.3-.6-.4-1-.2-.5-.4-1-.6-1.6-.2-.6-.4-1.2-.5-1.8-.1-.6-.3-1-.3-1.4v-.3-.7c0-.1 0-.2-.1-.3-.2-1.2-.2-2.4-.1-3.7.1-1.3.3-2.6.7-4 .1-.4.3-.7.4-1.1s.3-.8.4-1.2c.8-1.8 1.5-3.4 2.4-4.6.9-1.3 1.9-2.3 3-3.1.2-.1.4-.3.5-.3.2-.1.3-.2.3-.3.1-.1.3-.2.5-.3.1-.1.3-.2.6-.4.6-.3.9-.5 1.2-.7.3-.2.5-.3.6-.5.1-.2.2-.5.4-.8.1-.7.1-1.3 0-1.8s-.2-.9-.4-1.3c-.3-.1-.4-.4-.6-.6"/>
</svg>