<svg xmlns="http://www.w3.org/2000/svg" width="923.7" height="225.9" viewBox="0 0 923.7 225.9">
  <style>
    .st0{fill-rule:evenodd;clip-rule:evenodd;fill:#f38ca0}
  </style>
  <path class="st0" d="M0 133h3.9v3.9H0z"/>
  <path class="st0" d="M10.9 133h3.9v3.9h-3.9z"/>
  <path class="st0" d="M21.9 133h3.9v3.9h-3.9z"/>
  <path class="st0" d="M32.8 133h3.9v3.9h-3.9z"/>
  <path class="st0" d="M43.8 133h3.9v3.9h-3.9z"/>
  <path class="st0" d="M54.7 133h3.9v3.9h-3.9z"/>
  <path class="st0" d="M65.7 133h3.9v3.9h-3.9z"/>
  <path class="st0" d="M87.6 59.1h3.9V63h-3.9z"/>
  <path class="st0" d="M98.5 59.1h3.9V63h-3.9z"/>
  <path class="st0" d="M109.5 59.1h3.9V63h-3.9z"/>
  <path class="st0" d="M120.4 59.1h3.9V63h-3.9z"/>
  <path class="st0" d="M131.4 59.1h3.9V63h-3.9z"/>
  <path class="st0" d="M142.3 59.1h3.9V63h-3.9z"/>
  <path class="st0" d="M153.3 59.1h3.9V63h-3.9z"/>
  <path class="st0" d="M164.2 59.1h3.9V63h-3.9z"/>
  <path class="st0" d="M175.2 59.1h3.9V63h-3.9z"/>
  <path class="st0" d="M186.1 59.1h3.9V63h-3.9z"/>
  <path class="st0" d="M197.1 59.1h3.9V63h-3.9z"/>
  <path class="st0" d="M208 59.1h3.9V63H208z"/>
  <path class="st0" d="M219 59.1h3.9V63H219z"/>
  <path class="st0" d="M229.9 59.1h3.9V63h-3.9z"/>
  <path class="st0" d="M240.8 59.1h3.9V63h-3.9z"/>
  <path class="st0" d="M251.8 59.1h3.9V63h-3.9z"/>
  <path class="st0" d="M262.7 59.1h3.9V63h-3.9z"/>
  <path class="st0" d="M273.7 59.1h3.9V63h-3.9z"/>
  <path class="st0" d="M284.6 59.1h3.9V63h-3.9z"/>
  <path class="st0" d="M295.6 59.1h3.9V63h-3.9z"/>
  <path class="st0" d="M306.5 59.1h3.9V63h-3.9z"/>
  <path class="st0" d="M317.5 59.1h3.9V63h-3.9z"/>
  <path class="st0" d="M328.4 59.1h3.9V63h-3.9z"/>
  <path class="st0" d="M339.4 59.1h3.9V63h-3.9z"/>
  <path class="st0" d="M350.3 59.1h3.9V63h-3.9z"/>
  <path class="st0" d="M361.3 59.1h3.9V63h-3.9z"/>
  <path class="st0" d="M372.2 59.1h3.9V63h-3.9z"/>
  <path class="st0" d="M383.2 59.1h3.9V63h-3.9z"/>
  <path class="st0" d="M394.1 59.1h3.9V63h-3.9z"/>
  <path class="st0" d="M405.1 59.1h3.9V63h-3.9z"/>
  <path class="st0" d="M416 59.1h3.9V63H416z"/>
  <path class="st0" d="M427 59.1h3.9V63H427z"/>
  <path class="st0" d="M437.9 59.1h3.9V63h-3.9z"/>
  <path class="st0" d="M448.8 59.1h3.9V63h-3.9z"/>
  <path class="st0" d="M459.8 59.1h3.9V63h-3.9z"/>
  <path class="st0" d="M109.5 44.3h3.9v3.9h-3.9z"/>
  <path class="st0" d="M120.4 44.3h3.9v3.9h-3.9z"/>
  <path class="st0" d="M131.4 44.3h3.9v3.9h-3.9z"/>
  <path class="st0" d="M142.3 44.3h3.9v3.9h-3.9z"/>
  <path class="st0" d="M153.3 44.3h3.9v3.9h-3.9z"/>
  <path class="st0" d="M164.2 44.3h3.9v3.9h-3.9z"/>
  <path class="st0" d="M175.2 44.3h3.9v3.9h-3.9z"/>
  <path class="st0" d="M186.1 44.3h3.9v3.9h-3.9z"/>
  <path class="st0" d="M197.1 44.3h3.9v3.9h-3.9z"/>
  <path class="st0" d="M208 44.3h3.9v3.9H208z"/>
  <path class="st0" d="M219 44.3h3.9v3.9H219z"/>
  <path class="st0" d="M229.9 44.3h3.9v3.9h-3.9z"/>
  <path class="st0" d="M240.8 44.3h3.9v3.9h-3.9z"/>
  <path class="st0" d="M251.8 44.3h3.9v3.9h-3.9z"/>
  <path class="st0" d="M262.7 44.3h3.9v3.9h-3.9z"/>
  <path class="st0" d="M273.7 44.3h3.9v3.9h-3.9z"/>
  <path class="st0" d="M284.6 44.3h3.9v3.9h-3.9z"/>
  <path class="st0" d="M295.6 44.3h3.9v3.9h-3.9z"/>
  <path class="st0" d="M306.5 44.3h3.9v3.9h-3.9z"/>
  <path class="st0" d="M317.5 44.3h3.9v3.9h-3.9z"/>
  <path class="st0" d="M328.4 44.3h3.9v3.9h-3.9z"/>
  <path class="st0" d="M339.4 44.3h3.9v3.9h-3.9z"/>
  <path class="st0" d="M350.3 44.3h3.9v3.9h-3.9z"/>
  <path class="st0" d="M361.3 44.3h3.9v3.9h-3.9z"/>
  <path class="st0" d="M372.2 44.3h3.9v3.9h-3.9z"/>
  <path class="st0" d="M383.2 44.3h3.9v3.9h-3.9z"/>
  <path class="st0" d="M394.1 44.3h3.9v3.9h-3.9z"/>
  <path class="st0" d="M405.1 44.3h3.9v3.9h-3.9z"/>
  <path class="st0" d="M416 44.3h3.9v3.9H416z"/>
  <path class="st0" d="M427 44.3h3.9v3.9H427z"/>
  <path class="st0" d="M437.9 44.3h3.9v3.9h-3.9z"/>
  <path class="st0" d="M448.8 44.3h3.9v3.9h-3.9z"/>
  <path class="st0" d="M459.8 44.3h3.9v3.9h-3.9z"/>
  <path class="st0" d="M131.4 29.6h3.9v3.9h-3.9z"/>
  <path class="st0" d="M142.3 29.6h3.9v3.9h-3.9z"/>
  <path class="st0" d="M153.3 29.6h3.9v3.9h-3.9z"/>
  <path class="st0" d="M164.2 29.6h3.9v3.9h-3.9z"/>
  <path class="st0" d="M175.2 29.6h3.9v3.9h-3.9z"/>
  <path class="st0" d="M186.1 29.6h3.9v3.9h-3.9z"/>
  <path class="st0" d="M197.1 29.6h3.9v3.9h-3.9z"/>
  <path class="st0" d="M208 29.6h3.9v3.9H208z"/>
  <path class="st0" d="M219 29.6h3.9v3.9H219z"/>
  <path class="st0" d="M229.9 29.6h3.9v3.9h-3.9z"/>
  <path class="st0" d="M240.8 29.6h3.9v3.9h-3.9z"/>
  <path class="st0" d="M251.8 29.6h3.9v3.9h-3.9z"/>
  <path class="st0" d="M262.7 29.6h3.9v3.9h-3.9z"/>
  <path class="st0" d="M273.7 29.6h3.9v3.9h-3.9z"/>
  <path class="st0" d="M284.6 29.6h3.9v3.9h-3.9z"/>
  <path class="st0" d="M295.6 29.6h3.9v3.9h-3.9z"/>
  <path class="st0" d="M306.5 29.6h3.9v3.9h-3.9z"/>
  <path class="st0" d="M317.5 29.6h3.9v3.9h-3.9z"/>
  <path class="st0" d="M328.4 29.6h3.9v3.9h-3.9z"/>
  <path class="st0" d="M339.4 29.6h3.9v3.9h-3.9z"/>
  <path class="st0" d="M350.3 29.6h3.9v3.9h-3.9z"/>
  <path class="st0" d="M361.3 29.6h3.9v3.9h-3.9z"/>
  <path class="st0" d="M372.2 29.6h3.9v3.9h-3.9z"/>
  <path class="st0" d="M383.2 29.6h3.9v3.9h-3.9z"/>
  <path class="st0" d="M394.1 29.6h3.9v3.9h-3.9z"/>
  <path class="st0" d="M405.1 29.6h3.9v3.9h-3.9z"/>
  <path class="st0" d="M416 29.6h3.9v3.9H416z"/>
  <path class="st0" d="M427 29.6h3.9v3.9H427z"/>
  <path class="st0" d="M437.9 29.6h3.9v3.9h-3.9z"/>
  <path class="st0" d="M448.8 29.6h3.9v3.9h-3.9z"/>
  <path class="st0" d="M459.8 29.6h3.9v3.9h-3.9z"/>
  <path class="st0" d="M142.3 14.8h3.9v3.9h-3.9z"/>
  <path class="st0" d="M153.3 14.8h3.9v3.9h-3.9z"/>
  <path class="st0" d="M164.2 14.8h3.9v3.9h-3.9z"/>
  <path class="st0" d="M175.2 14.8h3.9v3.9h-3.9z"/>
  <path class="st0" d="M186.1 14.8h3.9v3.9h-3.9z"/>
  <path class="st0" d="M197.1 14.8h3.9v3.9h-3.9z"/>
  <path class="st0" d="M208 14.8h3.9v3.9H208z"/>
  <path class="st0" d="M219 14.8h3.9v3.9H219z"/>
  <path class="st0" d="M229.9 14.8h3.9v3.9h-3.9z"/>
  <path class="st0" d="M240.8 14.8h3.9v3.9h-3.9z"/>
  <path class="st0" d="M251.8 14.8h3.9v3.9h-3.9z"/>
  <path class="st0" d="M262.7 14.8h3.9v3.9h-3.9z"/>
  <path class="st0" d="M273.7 14.8h3.9v3.9h-3.9z"/>
  <path class="st0" d="M284.6 14.8h3.9v3.9h-3.9z"/>
  <path class="st0" d="M295.6 14.8h3.9v3.9h-3.9z"/>
  <path class="st0" d="M306.5 14.8h3.9v3.9h-3.9z"/>
  <path class="st0" d="M317.5 14.8h3.9v3.9h-3.9z"/>
  <path class="st0" d="M328.4 14.8h3.9v3.9h-3.9z"/>
  <path class="st0" d="M339.4 14.8h3.9v3.9h-3.9z"/>
  <path class="st0" d="M350.3 14.8h3.9v3.9h-3.9z"/>
  <path class="st0" d="M361.3 14.8h3.9v3.9h-3.9z"/>
  <path class="st0" d="M372.2 14.8h3.9v3.9h-3.9z"/>
  <path class="st0" d="M383.2 14.8h3.9v3.9h-3.9z"/>
  <path class="st0" d="M394.1 14.8h3.9v3.9h-3.9z"/>
  <path class="st0" d="M405.1 14.8h3.9v3.9h-3.9z"/>
  <path class="st0" d="M416 14.8h3.9v3.9H416z"/>
  <path class="st0" d="M427 14.8h3.9v3.9H427z"/>
  <path class="st0" d="M437.9 14.8h3.9v3.9h-3.9z"/>
  <path class="st0" d="M448.8 14.8h3.9v3.9h-3.9z"/>
  <path class="st0" d="M459.8 14.8h3.9v3.9h-3.9z"/>
  <path class="st0" d="M164.2 0h3.9v3.9h-3.9z"/>
  <path class="st0" d="M175.2 0h3.9v3.9h-3.9z"/>
  <path class="st0" d="M186.1 0h3.9v3.9h-3.9z"/>
  <path class="st0" d="M197.1 0h3.9v3.9h-3.9z"/>
  <path class="st0" d="M208 0h3.9v3.9H208z"/>
  <path class="st0" d="M219 0h3.9v3.9H219z"/>
  <path class="st0" d="M229.9 0h3.9v3.9h-3.9z"/>
  <path class="st0" d="M240.8 0h3.9v3.9h-3.9z"/>
  <path class="st0" d="M251.8 0h3.9v3.9h-3.9z"/>
  <path class="st0" d="M262.7 0h3.9v3.9h-3.9z"/>
  <path class="st0" d="M273.7 0h3.9v3.9h-3.9z"/>
  <path class="st0" d="M284.6 0h3.9v3.9h-3.9z"/>
  <path class="st0" d="M295.6 0h3.9v3.9h-3.9z"/>
  <path class="st0" d="M306.5 0h3.9v3.9h-3.9z"/>
  <path class="st0" d="M317.5 0h3.9v3.9h-3.9z"/>
  <path class="st0" d="M328.4 0h3.9v3.9h-3.9z"/>
  <path class="st0" d="M339.4 0h3.9v3.9h-3.9z"/>
  <path class="st0" d="M350.3 0h3.9v3.9h-3.9z"/>
  <path class="st0" d="M361.3 0h3.9v3.9h-3.9z"/>
  <path class="st0" d="M372.2 0h3.9v3.9h-3.9z"/>
  <path class="st0" d="M383.2 0h3.9v3.9h-3.9z"/>
  <path class="st0" d="M394.1 0h3.9v3.9h-3.9z"/>
  <path class="st0" d="M405.1 0h3.9v3.9h-3.9z"/>
  <path class="st0" d="M416 0h3.9v3.9H416z"/>
  <path class="st0" d="M427 0h3.9v3.9H427z"/>
  <path class="st0" d="M437.9 0h3.9v3.9h-3.9z"/>
  <path class="st0" d="M448.8 0h3.9v3.9h-3.9z"/>
  <path class="st0" d="M459.8 0h3.9v3.9h-3.9z"/>
  <path class="st0" d="M76.6 133h3.9v3.9h-3.9z"/>
  <path class="st0" d="M87.6 133h3.9v3.9h-3.9z"/>
  <path class="st0" d="M98.5 133h3.9v3.9h-3.9z"/>
  <path class="st0" d="M109.5 133h3.9v3.9h-3.9z"/>
  <path class="st0" d="M120.4 133h3.9v3.9h-3.9z"/>
  <path class="st0" d="M131.4 133h3.9v3.9h-3.9z"/>
  <path class="st0" d="M142.3 133h3.9v3.9h-3.9z"/>
  <path class="st0" d="M153.3 133h3.9v3.9h-3.9z"/>
  <path class="st0" d="M164.2 133h3.9v3.9h-3.9z"/>
  <path class="st0" d="M175.2 133h3.9v3.9h-3.9z"/>
  <path class="st0" d="M186.1 133h3.9v3.9h-3.9z"/>
  <path class="st0" d="M197.1 133h3.9v3.9h-3.9z"/>
  <path class="st0" d="M208 133h3.9v3.9H208z"/>
  <path class="st0" d="M219 133h3.9v3.9H219z"/>
  <path class="st0" d="M229.9 133h3.9v3.9h-3.9z"/>
  <path class="st0" d="M240.8 133h3.9v3.9h-3.9z"/>
  <path class="st0" d="M251.8 133h3.9v3.9h-3.9z"/>
  <path class="st0" d="M262.7 133h3.9v3.9h-3.9z"/>
  <path class="st0" d="M273.7 133h3.9v3.9h-3.9z"/>
  <path class="st0" d="M284.6 133h3.9v3.9h-3.9z"/>
  <path class="st0" d="M295.6 133h3.9v3.9h-3.9z"/>
  <path class="st0" d="M306.5 133h3.9v3.9h-3.9z"/>
  <path class="st0" d="M317.5 133h3.9v3.9h-3.9z"/>
  <path class="st0" d="M328.4 133h3.9v3.9h-3.9z"/>
  <path class="st0" d="M339.4 133h3.9v3.9h-3.9z"/>
  <path class="st0" d="M350.3 133h3.9v3.9h-3.9z"/>
  <path class="st0" d="M361.3 133h3.9v3.9h-3.9z"/>
  <path class="st0" d="M372.2 133h3.9v3.9h-3.9z"/>
  <path class="st0" d="M383.2 133h3.9v3.9h-3.9z"/>
  <path class="st0" d="M394.1 133h3.9v3.9h-3.9z"/>
  <path class="st0" d="M405.1 133h3.9v3.9h-3.9z"/>
  <path class="st0" d="M416 133h3.9v3.9H416z"/>
  <path class="st0" d="M427 133h3.9v3.9H427z"/>
  <path class="st0" d="M437.9 133h3.9v3.9h-3.9z"/>
  <path class="st0" d="M448.8 133h3.9v3.9h-3.9z"/>
  <path class="st0" d="M459.8 133h3.9v3.9h-3.9z"/>
  <path class="st0" d="M21.9 118.2h3.9v3.9h-3.9z"/>
  <path class="st0" d="M32.8 118.2h3.9v3.9h-3.9z"/>
  <path class="st0" d="M43.8 118.2h3.9v3.9h-3.9z"/>
  <path class="st0" d="M54.7 118.2h3.9v3.9h-3.9z"/>
  <path class="st0" d="M65.7 118.2h3.9v3.9h-3.9z"/>
  <path class="st0" d="M76.6 118.2h3.9v3.9h-3.9z"/>
  <path class="st0" d="M87.6 118.2h3.9v3.9h-3.9z"/>
  <path class="st0" d="M98.5 118.2h3.9v3.9h-3.9z"/>
  <path class="st0" d="M109.5 118.2h3.9v3.9h-3.9z"/>
  <path class="st0" d="M120.4 118.2h3.9v3.9h-3.9z"/>
  <path class="st0" d="M131.4 118.2h3.9v3.9h-3.9z"/>
  <path class="st0" d="M142.3 118.2h3.9v3.9h-3.9z"/>
  <path class="st0" d="M153.3 118.2h3.9v3.9h-3.9z"/>
  <path class="st0" d="M164.2 118.2h3.9v3.9h-3.9z"/>
  <path class="st0" d="M175.2 118.2h3.9v3.9h-3.9z"/>
  <path class="st0" d="M186.1 118.2h3.9v3.9h-3.9z"/>
  <path class="st0" d="M197.1 118.2h3.9v3.9h-3.9z"/>
  <path class="st0" d="M208 118.2h3.9v3.9H208z"/>
  <path class="st0" d="M219 118.2h3.9v3.9H219z"/>
  <path class="st0" d="M229.9 118.2h3.9v3.9h-3.9z"/>
  <path class="st0" d="M240.8 118.2h3.9v3.9h-3.9z"/>
  <path class="st0" d="M251.8 118.2h3.9v3.9h-3.9z"/>
  <path class="st0" d="M262.7 118.2h3.9v3.9h-3.9z"/>
  <path class="st0" d="M273.7 118.2h3.9v3.9h-3.9z"/>
  <path class="st0" d="M284.6 118.2h3.9v3.9h-3.9z"/>
  <path class="st0" d="M295.6 118.2h3.9v3.9h-3.9z"/>
  <path class="st0" d="M306.5 118.2h3.9v3.9h-3.9z"/>
  <path class="st0" d="M317.5 118.2h3.9v3.9h-3.9z"/>
  <path class="st0" d="M328.4 118.2h3.9v3.9h-3.9z"/>
  <path class="st0" d="M339.4 118.2h3.9v3.9h-3.9z"/>
  <path class="st0" d="M350.3 118.2h3.9v3.9h-3.9z"/>
  <path class="st0" d="M361.3 118.2h3.9v3.9h-3.9z"/>
  <path class="st0" d="M372.2 118.2h3.9v3.9h-3.9z"/>
  <path class="st0" d="M383.2 118.2h3.9v3.9h-3.9z"/>
  <path class="st0" d="M394.1 118.2h3.9v3.9h-3.9z"/>
  <path class="st0" d="M405.1 118.2h3.9v3.9h-3.9z"/>
  <path class="st0" d="M416 118.2h3.9v3.9H416z"/>
  <path class="st0" d="M427 118.2h3.9v3.9H427z"/>
  <path class="st0" d="M437.9 118.2h3.9v3.9h-3.9z"/>
  <path class="st0" d="M448.8 118.2h3.9v3.9h-3.9z"/>
  <path class="st0" d="M459.8 118.2h3.9v3.9h-3.9z"/>
  <path class="st0" d="M32.8 103.4h3.9v3.9h-3.9z"/>
  <path class="st0" d="M43.8 103.4h3.9v3.9h-3.9z"/>
  <path class="st0" d="M54.7 103.4h3.9v3.9h-3.9z"/>
  <path class="st0" d="M65.7 103.4h3.9v3.9h-3.9z"/>
  <path class="st0" d="M76.6 103.4h3.9v3.9h-3.9z"/>
  <path class="st0" d="M87.6 103.4h3.9v3.9h-3.9z"/>
  <path class="st0" d="M98.5 103.4h3.9v3.9h-3.9z"/>
  <path class="st0" d="M109.5 103.4h3.9v3.9h-3.9z"/>
  <path class="st0" d="M120.4 103.4h3.9v3.9h-3.9z"/>
  <path class="st0" d="M131.4 103.4h3.9v3.9h-3.9z"/>
  <path class="st0" d="M142.3 103.4h3.9v3.9h-3.9z"/>
  <path class="st0" d="M153.3 103.4h3.9v3.9h-3.9z"/>
  <path class="st0" d="M164.2 103.4h3.9v3.9h-3.9z"/>
  <path class="st0" d="M175.2 103.4h3.9v3.9h-3.9z"/>
  <path class="st0" d="M186.1 103.4h3.9v3.9h-3.9z"/>
  <path class="st0" d="M197.1 103.4h3.9v3.9h-3.9z"/>
  <path class="st0" d="M208 103.4h3.9v3.9H208z"/>
  <path class="st0" d="M219 103.4h3.9v3.9H219z"/>
  <path class="st0" d="M229.9 103.4h3.9v3.9h-3.9z"/>
  <path class="st0" d="M240.8 103.4h3.9v3.9h-3.9z"/>
  <path class="st0" d="M251.8 103.4h3.9v3.9h-3.9z"/>
  <path class="st0" d="M262.7 103.4h3.9v3.9h-3.9z"/>
  <path class="st0" d="M273.7 103.4h3.9v3.9h-3.9z"/>
  <path class="st0" d="M284.6 103.4h3.9v3.9h-3.9z"/>
  <path class="st0" d="M295.6 103.4h3.9v3.9h-3.9z"/>
  <path class="st0" d="M306.5 103.4h3.9v3.9h-3.9z"/>
  <path class="st0" d="M317.5 103.4h3.9v3.9h-3.9z"/>
  <path class="st0" d="M328.4 103.4h3.9v3.9h-3.9z"/>
  <path class="st0" d="M339.4 103.4h3.9v3.9h-3.9z"/>
  <path class="st0" d="M350.3 103.4h3.9v3.9h-3.9z"/>
  <path class="st0" d="M361.3 103.4h3.9v3.9h-3.9z"/>
  <path class="st0" d="M372.2 103.4h3.9v3.9h-3.9z"/>
  <path class="st0" d="M383.2 103.4h3.9v3.9h-3.9z"/>
  <path class="st0" d="M394.1 103.4h3.9v3.9h-3.9z"/>
  <path class="st0" d="M405.1 103.4h3.9v3.9h-3.9z"/>
  <path class="st0" d="M416 103.4h3.9v3.9H416z"/>
  <path class="st0" d="M427 103.4h3.9v3.9H427z"/>
  <path class="st0" d="M437.9 103.4h3.9v3.9h-3.9z"/>
  <path class="st0" d="M448.8 103.4h3.9v3.9h-3.9z"/>
  <path class="st0" d="M459.8 103.4h3.9v3.9h-3.9z"/>
  <path class="st0" d="M54.7 88.7h3.9v3.9h-3.9z"/>
  <path class="st0" d="M65.7 88.7h3.9v3.9h-3.9z"/>
  <path class="st0" d="M76.6 88.7h3.9v3.9h-3.9z"/>
  <path class="st0" d="M87.6 88.7h3.9v3.9h-3.9z"/>
  <path class="st0" d="M98.5 88.7h3.9v3.9h-3.9z"/>
  <path class="st0" d="M109.5 88.7h3.9v3.9h-3.9z"/>
  <path class="st0" d="M120.4 88.7h3.9v3.9h-3.9z"/>
  <path class="st0" d="M131.4 88.7h3.9v3.9h-3.9z"/>
  <path class="st0" d="M142.3 88.7h3.9v3.9h-3.9z"/>
  <path class="st0" d="M153.3 88.7h3.9v3.9h-3.9z"/>
  <path class="st0" d="M164.2 88.7h3.9v3.9h-3.9z"/>
  <path class="st0" d="M175.2 88.7h3.9v3.9h-3.9z"/>
  <path class="st0" d="M186.1 88.7h3.9v3.9h-3.9z"/>
  <path class="st0" d="M197.1 88.7h3.9v3.9h-3.9z"/>
  <path class="st0" d="M208 88.7h3.9v3.9H208z"/>
  <path class="st0" d="M219 88.7h3.9v3.9H219z"/>
  <path class="st0" d="M229.9 88.7h3.9v3.9h-3.9z"/>
  <path class="st0" d="M240.8 88.7h3.9v3.9h-3.9z"/>
  <path class="st0" d="M251.8 88.7h3.9v3.9h-3.9z"/>
  <path class="st0" d="M262.7 88.7h3.9v3.9h-3.9z"/>
  <path class="st0" d="M273.7 88.7h3.9v3.9h-3.9z"/>
  <path class="st0" d="M284.6 88.7h3.9v3.9h-3.9z"/>
  <path class="st0" d="M295.6 88.7h3.9v3.9h-3.9z"/>
  <path class="st0" d="M306.5 88.7h3.9v3.9h-3.9z"/>
  <path class="st0" d="M317.5 88.7h3.9v3.9h-3.9z"/>
  <path class="st0" d="M328.4 88.7h3.9v3.9h-3.9z"/>
  <path class="st0" d="M339.4 88.7h3.9v3.9h-3.9z"/>
  <path class="st0" d="M350.3 88.7h3.9v3.9h-3.9z"/>
  <path class="st0" d="M361.3 88.7h3.9v3.9h-3.9z"/>
  <path class="st0" d="M372.2 88.7h3.9v3.9h-3.9z"/>
  <path class="st0" d="M383.2 88.7h3.9v3.9h-3.9z"/>
  <path class="st0" d="M394.1 88.7h3.9v3.9h-3.9z"/>
  <path class="st0" d="M405.1 88.7h3.9v3.9h-3.9z"/>
  <path class="st0" d="M416 88.7h3.9v3.9H416z"/>
  <path class="st0" d="M427 88.7h3.9v3.9H427z"/>
  <path class="st0" d="M437.9 88.7h3.9v3.9h-3.9z"/>
  <path class="st0" d="M448.8 88.7h3.9v3.9h-3.9z"/>
  <path class="st0" d="M459.8 88.7h3.9v3.9h-3.9z"/>
  <path class="st0" d="M76.6 73.9h3.9v3.9h-3.9z"/>
  <path class="st0" d="M87.6 73.9h3.9v3.9h-3.9z"/>
  <path class="st0" d="M98.5 73.9h3.9v3.9h-3.9z"/>
  <path class="st0" d="M109.5 73.9h3.9v3.9h-3.9z"/>
  <path class="st0" d="M120.4 73.9h3.9v3.9h-3.9z"/>
  <path class="st0" d="M131.4 73.9h3.9v3.9h-3.9z"/>
  <path class="st0" d="M142.3 73.9h3.9v3.9h-3.9z"/>
  <path class="st0" d="M153.3 73.9h3.9v3.9h-3.9z"/>
  <path class="st0" d="M164.2 73.9h3.9v3.9h-3.9z"/>
  <path class="st0" d="M175.2 73.9h3.9v3.9h-3.9z"/>
  <path class="st0" d="M186.1 73.9h3.9v3.9h-3.9z"/>
  <path class="st0" d="M197.1 73.9h3.9v3.9h-3.9z"/>
  <path class="st0" d="M208 73.9h3.9v3.9H208z"/>
  <path class="st0" d="M219 73.9h3.9v3.9H219z"/>
  <path class="st0" d="M229.9 73.9h3.9v3.9h-3.9z"/>
  <path class="st0" d="M240.8 73.9h3.9v3.9h-3.9z"/>
  <path class="st0" d="M251.8 73.9h3.9v3.9h-3.9z"/>
  <path class="st0" d="M262.7 73.9h3.9v3.9h-3.9z"/>
  <path class="st0" d="M273.7 73.9h3.9v3.9h-3.9z"/>
  <path class="st0" d="M284.6 73.9h3.9v3.9h-3.9z"/>
  <path class="st0" d="M295.6 73.9h3.9v3.9h-3.9z"/>
  <path class="st0" d="M306.5 73.9h3.9v3.9h-3.9z"/>
  <path class="st0" d="M317.5 73.9h3.9v3.9h-3.9z"/>
  <path class="st0" d="M328.4 73.9h3.9v3.9h-3.9z"/>
  <path class="st0" d="M339.4 73.9h3.9v3.9h-3.9z"/>
  <path class="st0" d="M350.3 73.9h3.9v3.9h-3.9z"/>
  <path class="st0" d="M361.3 73.9h3.9v3.9h-3.9z"/>
  <path class="st0" d="M372.2 73.9h3.9v3.9h-3.9z"/>
  <path class="st0" d="M383.2 73.9h3.9v3.9h-3.9z"/>
  <path class="st0" d="M394.1 73.9h3.9v3.9h-3.9z"/>
  <path class="st0" d="M405.1 73.9h3.9v3.9h-3.9z"/>
  <path class="st0" d="M416 73.9h3.9v3.9H416z"/>
  <path class="st0" d="M427 73.9h3.9v3.9H427z"/>
  <path class="st0" d="M437.9 73.9h3.9v3.9h-3.9z"/>
  <path class="st0" d="M448.8 73.9h3.9v3.9h-3.9z"/>
  <path class="st0" d="M459.8 73.9h3.9v3.9h-3.9z"/>
  <g>
    <path class="st0" d="M919.8 88.9h3.9v3.9h-3.9z"/>
    <path class="st0" d="M908.8 88.9h3.9v3.9h-3.9z"/>
    <path class="st0" d="M897.9 88.9h3.9v3.9h-3.9z"/>
    <path class="st0" d="M886.9 88.9h3.9v3.9h-3.9z"/>
    <path class="st0" d="M876 88.9h3.9v3.9H876z"/>
    <path class="st0" d="M865 88.9h3.9v3.9H865z"/>
    <path class="st0" d="M854.1 88.9h3.9v3.9h-3.9z"/>
    <path class="st0" d="M832.2 162.8h3.9v3.9h-3.9z"/>
    <path class="st0" d="M821.3 162.8h3.9v3.9h-3.9z"/>
    <path class="st0" d="M810.3 162.8h3.9v3.9h-3.9z"/>
    <path class="st0" d="M799.4 162.8h3.9v3.9h-3.9z"/>
    <path class="st0" d="M788.4 162.8h3.9v3.9h-3.9z"/>
    <path class="st0" d="M777.5 162.8h3.9v3.9h-3.9z"/>
    <path class="st0" d="M766.5 162.8h3.9v3.9h-3.9z"/>
    <path class="st0" d="M755.6 162.8h3.9v3.9h-3.9z"/>
    <path class="st0" d="M744.6 162.8h3.9v3.9h-3.9z"/>
    <path class="st0" d="M733.7 162.8h3.9v3.9h-3.9z"/>
    <path class="st0" d="M722.7 162.8h3.9v3.9h-3.9z"/>
    <path class="st0" d="M711.8 162.8h3.9v3.9h-3.9z"/>
    <path class="st0" d="M700.8 162.8h3.9v3.9h-3.9z"/>
    <path class="st0" d="M689.9 162.8h3.9v3.9h-3.9z"/>
    <path class="st0" d="M678.9 162.8h3.9v3.9h-3.9z"/>
    <path class="st0" d="M668 162.8h3.9v3.9H668z"/>
    <path class="st0" d="M657 162.8h3.9v3.9H657z"/>
    <path class="st0" d="M646.1 162.8h3.9v3.9h-3.9z"/>
    <path class="st0" d="M635.1 162.8h3.9v3.9h-3.9z"/>
    <path class="st0" d="M624.2 162.8h3.9v3.9h-3.9z"/>
    <path class="st0" d="M613.2 162.8h3.9v3.9h-3.9z"/>
    <path class="st0" d="M602.3 162.8h3.9v3.9h-3.9z"/>
    <path class="st0" d="M591.4 162.8h3.9v3.9h-3.9z"/>
    <path class="st0" d="M580.4 162.8h3.9v3.9h-3.9z"/>
    <path class="st0" d="M569.5 162.8h3.9v3.9h-3.9z"/>
    <path class="st0" d="M558.5 162.8h3.9v3.9h-3.9z"/>
    <path class="st0" d="M547.6 162.8h3.9v3.9h-3.9z"/>
    <path class="st0" d="M536.6 162.8h3.9v3.9h-3.9z"/>
    <path class="st0" d="M525.7 162.8h3.9v3.9h-3.9z"/>
    <path class="st0" d="M514.7 162.8h3.9v3.9h-3.9z"/>
    <path class="st0" d="M503.8 162.8h3.9v3.9h-3.9z"/>
    <path class="st0" d="M492.8 162.8h3.9v3.9h-3.9z"/>
    <path class="st0" d="M481.9 162.8h3.9v3.9h-3.9z"/>
    <path class="st0" d="M470.9 162.8h3.9v3.9h-3.9z"/>
    <path class="st0" d="M460 162.8h3.9v3.9H460z"/>
    <path class="st0" d="M810.3 177.6h3.9v3.9h-3.9z"/>
    <path class="st0" d="M799.4 177.6h3.9v3.9h-3.9z"/>
    <path class="st0" d="M788.4 177.6h3.9v3.9h-3.9z"/>
    <path class="st0" d="M777.5 177.6h3.9v3.9h-3.9z"/>
    <path class="st0" d="M766.5 177.6h3.9v3.9h-3.9z"/>
    <path class="st0" d="M755.6 177.6h3.9v3.9h-3.9z"/>
    <path class="st0" d="M744.6 177.6h3.9v3.9h-3.9z"/>
    <path class="st0" d="M733.7 177.6h3.9v3.9h-3.9z"/>
    <path class="st0" d="M722.7 177.6h3.9v3.9h-3.9z"/>
    <path class="st0" d="M711.8 177.6h3.9v3.9h-3.9z"/>
    <path class="st0" d="M700.8 177.6h3.9v3.9h-3.9z"/>
    <path class="st0" d="M689.9 177.6h3.9v3.9h-3.9z"/>
    <path class="st0" d="M678.9 177.6h3.9v3.9h-3.9z"/>
    <path class="st0" d="M668 177.6h3.9v3.9H668z"/>
    <path class="st0" d="M657 177.6h3.9v3.9H657z"/>
    <path class="st0" d="M646.1 177.6h3.9v3.9h-3.9z"/>
    <path class="st0" d="M635.1 177.6h3.9v3.9h-3.9z"/>
    <path class="st0" d="M624.2 177.6h3.9v3.9h-3.9z"/>
    <path class="st0" d="M613.2 177.6h3.9v3.9h-3.9z"/>
    <path class="st0" d="M602.3 177.6h3.9v3.9h-3.9z"/>
    <path class="st0" d="M591.4 177.6h3.9v3.9h-3.9z"/>
    <path class="st0" d="M580.4 177.6h3.9v3.9h-3.9z"/>
    <path class="st0" d="M569.5 177.6h3.9v3.9h-3.9z"/>
    <path class="st0" d="M558.5 177.6h3.9v3.9h-3.9z"/>
    <path class="st0" d="M547.6 177.6h3.9v3.9h-3.9z"/>
    <path class="st0" d="M536.6 177.6h3.9v3.9h-3.9z"/>
    <path class="st0" d="M525.7 177.6h3.9v3.9h-3.9z"/>
    <path class="st0" d="M514.7 177.6h3.9v3.9h-3.9z"/>
    <path class="st0" d="M503.8 177.6h3.9v3.9h-3.9z"/>
    <path class="st0" d="M492.8 177.6h3.9v3.9h-3.9z"/>
    <path class="st0" d="M481.9 177.6h3.9v3.9h-3.9z"/>
    <path class="st0" d="M470.9 177.6h3.9v3.9h-3.9z"/>
    <path class="st0" d="M460 177.6h3.9v3.9H460z"/>
    <path class="st0" d="M788.4 192.4h3.9v3.9h-3.9z"/>
    <path class="st0" d="M777.5 192.4h3.9v3.9h-3.9z"/>
    <path class="st0" d="M766.5 192.4h3.9v3.9h-3.9z"/>
    <path class="st0" d="M755.6 192.4h3.9v3.9h-3.9z"/>
    <path class="st0" d="M744.6 192.4h3.9v3.9h-3.9z"/>
    <path class="st0" d="M733.7 192.4h3.9v3.9h-3.9z"/>
    <path class="st0" d="M722.7 192.4h3.9v3.9h-3.9z"/>
    <path class="st0" d="M711.8 192.4h3.9v3.9h-3.9z"/>
    <path class="st0" d="M700.8 192.4h3.9v3.9h-3.9z"/>
    <path class="st0" d="M689.9 192.4h3.9v3.9h-3.9z"/>
    <path class="st0" d="M678.9 192.4h3.9v3.9h-3.9z"/>
    <path class="st0" d="M668 192.4h3.9v3.9H668z"/>
    <path class="st0" d="M657 192.4h3.9v3.9H657z"/>
    <path class="st0" d="M646.1 192.4h3.9v3.9h-3.9z"/>
    <path class="st0" d="M635.1 192.4h3.9v3.9h-3.9z"/>
    <path class="st0" d="M624.2 192.4h3.9v3.9h-3.9z"/>
    <path class="st0" d="M613.2 192.4h3.9v3.9h-3.9z"/>
    <path class="st0" d="M602.3 192.4h3.9v3.9h-3.9z"/>
    <path class="st0" d="M591.4 192.4h3.9v3.9h-3.9z"/>
    <path class="st0" d="M580.4 192.4h3.9v3.9h-3.9z"/>
    <path class="st0" d="M569.5 192.4h3.9v3.9h-3.9z"/>
    <path class="st0" d="M558.5 192.4h3.9v3.9h-3.9z"/>
    <path class="st0" d="M547.6 192.4h3.9v3.9h-3.9z"/>
    <path class="st0" d="M536.6 192.4h3.9v3.9h-3.9z"/>
    <path class="st0" d="M525.7 192.4h3.9v3.9h-3.9z"/>
    <path class="st0" d="M514.7 192.4h3.9v3.9h-3.9z"/>
    <path class="st0" d="M503.8 192.4h3.9v3.9h-3.9z"/>
    <path class="st0" d="M492.8 192.4h3.9v3.9h-3.9z"/>
    <path class="st0" d="M481.9 192.4h3.9v3.9h-3.9z"/>
    <path class="st0" d="M470.9 192.4h3.9v3.9h-3.9z"/>
    <path class="st0" d="M460 192.4h3.9v3.9H460z"/>
    <path class="st0" d="M777.5 207.1h3.9v3.9h-3.9z"/>
    <path class="st0" d="M766.5 207.1h3.9v3.9h-3.9z"/>
    <path class="st0" d="M755.6 207.1h3.9v3.9h-3.9z"/>
    <path class="st0" d="M744.6 207.1h3.9v3.9h-3.9z"/>
    <path class="st0" d="M733.7 207.1h3.9v3.9h-3.9z"/>
    <path class="st0" d="M722.7 207.1h3.9v3.9h-3.9z"/>
    <path class="st0" d="M711.8 207.1h3.9v3.9h-3.9z"/>
    <path class="st0" d="M700.8 207.1h3.9v3.9h-3.9z"/>
    <path class="st0" d="M689.9 207.1h3.9v3.9h-3.9z"/>
    <path class="st0" d="M678.9 207.1h3.9v3.9h-3.9z"/>
    <path class="st0" d="M668 207.1h3.9v3.9H668z"/>
    <path class="st0" d="M657 207.1h3.9v3.9H657z"/>
    <path class="st0" d="M646.1 207.1h3.9v3.9h-3.9z"/>
    <path class="st0" d="M635.1 207.1h3.9v3.9h-3.9z"/>
    <path class="st0" d="M624.2 207.1h3.9v3.9h-3.9z"/>
    <path class="st0" d="M613.2 207.1h3.9v3.9h-3.9z"/>
    <path class="st0" d="M602.3 207.1h3.9v3.9h-3.9z"/>
    <path class="st0" d="M591.4 207.1h3.9v3.9h-3.9z"/>
    <path class="st0" d="M580.4 207.1h3.9v3.9h-3.9z"/>
    <path class="st0" d="M569.5 207.1h3.9v3.9h-3.9z"/>
    <path class="st0" d="M558.5 207.1h3.9v3.9h-3.9z"/>
    <path class="st0" d="M547.6 207.1h3.9v3.9h-3.9z"/>
    <path class="st0" d="M536.6 207.1h3.9v3.9h-3.9z"/>
    <path class="st0" d="M525.7 207.1h3.9v3.9h-3.9z"/>
    <path class="st0" d="M514.7 207.1h3.9v3.9h-3.9z"/>
    <path class="st0" d="M503.8 207.1h3.9v3.9h-3.9z"/>
    <path class="st0" d="M492.8 207.1h3.9v3.9h-3.9z"/>
    <path class="st0" d="M481.9 207.1h3.9v3.9h-3.9z"/>
    <path class="st0" d="M470.9 207.1h3.9v3.9h-3.9z"/>
    <path class="st0" d="M460 207.1h3.9v3.9H460z"/>
    <path class="st0" d="M755.6 221.9h3.9v3.9h-3.9z"/>
    <path class="st0" d="M744.6 221.9h3.9v3.9h-3.9z"/>
    <path class="st0" d="M733.7 221.9h3.9v3.9h-3.9z"/>
    <path class="st0" d="M722.7 221.9h3.9v3.9h-3.9z"/>
    <path class="st0" d="M711.8 221.9h3.9v3.9h-3.9z"/>
    <path class="st0" d="M700.8 221.9h3.9v3.9h-3.9z"/>
    <path class="st0" d="M689.9 221.9h3.9v3.9h-3.9z"/>
    <path class="st0" d="M678.9 221.9h3.9v3.9h-3.9z"/>
    <path class="st0" d="M668 221.9h3.9v3.9H668z"/>
    <path class="st0" d="M657 221.9h3.9v3.9H657z"/>
    <path class="st0" d="M646.1 221.9h3.9v3.9h-3.9z"/>
    <path class="st0" d="M635.1 221.9h3.9v3.9h-3.9z"/>
    <path class="st0" d="M624.2 221.9h3.9v3.9h-3.9z"/>
    <path class="st0" d="M613.2 221.9h3.9v3.9h-3.9z"/>
    <path class="st0" d="M602.3 221.9h3.9v3.9h-3.9z"/>
    <path class="st0" d="M591.4 221.9h3.9v3.9h-3.9z"/>
    <path class="st0" d="M580.4 221.9h3.9v3.9h-3.9z"/>
    <path class="st0" d="M569.5 221.9h3.9v3.9h-3.9z"/>
    <path class="st0" d="M558.5 221.9h3.9v3.9h-3.9z"/>
    <path class="st0" d="M547.6 221.9h3.9v3.9h-3.9z"/>
    <path class="st0" d="M536.6 221.9h3.9v3.9h-3.9z"/>
    <path class="st0" d="M525.7 221.9h3.9v3.9h-3.9z"/>
    <path class="st0" d="M514.7 221.9h3.9v3.9h-3.9z"/>
    <path class="st0" d="M503.8 221.9h3.9v3.9h-3.9z"/>
    <path class="st0" d="M492.8 221.9h3.9v3.9h-3.9z"/>
    <path class="st0" d="M481.9 221.9h3.9v3.9h-3.9z"/>
    <path class="st0" d="M470.9 221.9h3.9v3.9h-3.9z"/>
    <path class="st0" d="M460 221.9h3.9v3.9H460z"/>
    <path class="st0" d="M843.1 88.9h3.9v3.9h-3.9z"/>
    <path class="st0" d="M832.2 88.9h3.9v3.9h-3.9z"/>
    <path class="st0" d="M821.3 88.9h3.9v3.9h-3.9z"/>
    <path class="st0" d="M810.3 88.9h3.9v3.9h-3.9z"/>
    <path class="st0" d="M799.4 88.9h3.9v3.9h-3.9z"/>
    <path class="st0" d="M788.4 88.9h3.9v3.9h-3.9z"/>
    <path class="st0" d="M777.5 88.9h3.9v3.9h-3.9z"/>
    <path class="st0" d="M766.5 88.9h3.9v3.9h-3.9z"/>
    <path class="st0" d="M755.6 88.9h3.9v3.9h-3.9z"/>
    <path class="st0" d="M744.6 88.9h3.9v3.9h-3.9z"/>
    <path class="st0" d="M733.7 88.9h3.9v3.9h-3.9z"/>
    <path class="st0" d="M722.7 88.9h3.9v3.9h-3.9z"/>
    <path class="st0" d="M711.8 88.9h3.9v3.9h-3.9z"/>
    <path class="st0" d="M700.8 88.9h3.9v3.9h-3.9z"/>
    <path class="st0" d="M689.9 88.9h3.9v3.9h-3.9z"/>
    <path class="st0" d="M678.9 88.9h3.9v3.9h-3.9z"/>
    <path class="st0" d="M668 88.9h3.9v3.9H668z"/>
    <path class="st0" d="M657 88.9h3.9v3.9H657z"/>
    <path class="st0" d="M646.1 88.9h3.9v3.9h-3.9z"/>
    <path class="st0" d="M635.1 88.9h3.9v3.9h-3.9z"/>
    <path class="st0" d="M624.2 88.9h3.9v3.9h-3.9z"/>
    <path class="st0" d="M613.2 88.9h3.9v3.9h-3.9z"/>
    <path class="st0" d="M602.3 88.9h3.9v3.9h-3.9z"/>
    <path class="st0" d="M591.4 88.9h3.9v3.9h-3.9z"/>
    <path class="st0" d="M580.4 88.9h3.9v3.9h-3.9z"/>
    <path class="st0" d="M569.5 88.9h3.9v3.9h-3.9z"/>
    <path class="st0" d="M558.5 88.9h3.9v3.9h-3.9z"/>
    <path class="st0" d="M547.6 88.9h3.9v3.9h-3.9z"/>
    <path class="st0" d="M536.6 88.9h3.9v3.9h-3.9z"/>
    <path class="st0" d="M525.7 88.9h3.9v3.9h-3.9z"/>
    <path class="st0" d="M514.7 88.9h3.9v3.9h-3.9z"/>
    <path class="st0" d="M503.8 88.9h3.9v3.9h-3.9z"/>
    <path class="st0" d="M492.8 88.9h3.9v3.9h-3.9z"/>
    <path class="st0" d="M481.9 88.9h3.9v3.9h-3.9z"/>
    <path class="st0" d="M470.9 88.9h3.9v3.9h-3.9z"/>
    <path class="st0" d="M460 88.9h3.9v3.9H460z"/>
    <path class="st0" d="M897.9 103.7h3.9v3.9h-3.9z"/>
    <path class="st0" d="M886.9 103.7h3.9v3.9h-3.9z"/>
    <path class="st0" d="M876 103.7h3.9v3.9H876z"/>
    <path class="st0" d="M865 103.7h3.9v3.9H865z"/>
    <path class="st0" d="M854.1 103.7h3.9v3.9h-3.9z"/>
    <path class="st0" d="M843.1 103.7h3.9v3.9h-3.9z"/>
    <path class="st0" d="M832.2 103.7h3.9v3.9h-3.9z"/>
    <path class="st0" d="M821.3 103.7h3.9v3.9h-3.9z"/>
    <path class="st0" d="M810.3 103.7h3.9v3.9h-3.9z"/>
    <path class="st0" d="M799.4 103.7h3.9v3.9h-3.9z"/>
    <path class="st0" d="M788.4 103.7h3.9v3.9h-3.9z"/>
    <path class="st0" d="M777.5 103.7h3.9v3.9h-3.9z"/>
    <path class="st0" d="M766.5 103.7h3.9v3.9h-3.9z"/>
    <path class="st0" d="M755.6 103.7h3.9v3.9h-3.9z"/>
    <path class="st0" d="M744.6 103.7h3.9v3.9h-3.9z"/>
    <path class="st0" d="M733.7 103.7h3.9v3.9h-3.9z"/>
    <path class="st0" d="M722.7 103.7h3.9v3.9h-3.9z"/>
    <path class="st0" d="M711.8 103.7h3.9v3.9h-3.9z"/>
    <path class="st0" d="M700.8 103.7h3.9v3.9h-3.9z"/>
    <path class="st0" d="M689.9 103.7h3.9v3.9h-3.9z"/>
    <path class="st0" d="M678.9 103.7h3.9v3.9h-3.9z"/>
    <path class="st0" d="M668 103.7h3.9v3.9H668z"/>
    <path class="st0" d="M657 103.7h3.9v3.9H657z"/>
    <path class="st0" d="M646.1 103.7h3.9v3.9h-3.9z"/>
    <path class="st0" d="M635.1 103.7h3.9v3.9h-3.9z"/>
    <path class="st0" d="M624.2 103.7h3.9v3.9h-3.9z"/>
    <path class="st0" d="M613.2 103.7h3.9v3.9h-3.9z"/>
    <path class="st0" d="M602.3 103.7h3.9v3.9h-3.9z"/>
    <path class="st0" d="M591.4 103.7h3.9v3.9h-3.9z"/>
    <path class="st0" d="M580.4 103.7h3.9v3.9h-3.9z"/>
    <path class="st0" d="M569.5 103.7h3.9v3.9h-3.9z"/>
    <path class="st0" d="M558.5 103.7h3.9v3.9h-3.9z"/>
    <path class="st0" d="M547.6 103.7h3.9v3.9h-3.9z"/>
    <path class="st0" d="M536.6 103.7h3.9v3.9h-3.9z"/>
    <path class="st0" d="M525.7 103.7h3.9v3.9h-3.9z"/>
    <path class="st0" d="M514.7 103.7h3.9v3.9h-3.9z"/>
    <path class="st0" d="M503.8 103.7h3.9v3.9h-3.9z"/>
    <path class="st0" d="M492.8 103.7h3.9v3.9h-3.9z"/>
    <path class="st0" d="M481.9 103.7h3.9v3.9h-3.9z"/>
    <path class="st0" d="M470.9 103.7h3.9v3.9h-3.9z"/>
    <path class="st0" d="M460 103.7h3.9v3.9H460z"/>
    <path class="st0" d="M886.9 118.5h3.9v3.9h-3.9z"/>
    <path class="st0" d="M876 118.5h3.9v3.9H876z"/>
    <path class="st0" d="M865 118.5h3.9v3.9H865z"/>
    <path class="st0" d="M854.1 118.5h3.9v3.9h-3.9z"/>
    <path class="st0" d="M843.1 118.5h3.9v3.9h-3.9z"/>
    <path class="st0" d="M832.2 118.5h3.9v3.9h-3.9z"/>
    <path class="st0" d="M821.3 118.5h3.9v3.9h-3.9z"/>
    <path class="st0" d="M810.3 118.5h3.9v3.9h-3.9z"/>
    <path class="st0" d="M799.4 118.5h3.9v3.9h-3.9z"/>
    <path class="st0" d="M788.4 118.5h3.9v3.9h-3.9z"/>
    <path class="st0" d="M777.5 118.5h3.9v3.9h-3.9z"/>
    <path class="st0" d="M766.5 118.5h3.9v3.9h-3.9z"/>
    <path class="st0" d="M755.6 118.5h3.9v3.9h-3.9z"/>
    <path class="st0" d="M744.6 118.5h3.9v3.9h-3.9z"/>
    <path class="st0" d="M733.7 118.5h3.9v3.9h-3.9z"/>
    <path class="st0" d="M722.7 118.5h3.9v3.9h-3.9z"/>
    <path class="st0" d="M711.8 118.5h3.9v3.9h-3.9z"/>
    <path class="st0" d="M700.8 118.5h3.9v3.9h-3.9z"/>
    <path class="st0" d="M689.9 118.5h3.9v3.9h-3.9z"/>
    <path class="st0" d="M678.9 118.5h3.9v3.9h-3.9z"/>
    <path class="st0" d="M668 118.5h3.9v3.9H668z"/>
    <path class="st0" d="M657 118.5h3.9v3.9H657z"/>
    <path class="st0" d="M646.1 118.5h3.9v3.9h-3.9z"/>
    <path class="st0" d="M635.1 118.5h3.9v3.9h-3.9z"/>
    <path class="st0" d="M624.2 118.5h3.9v3.9h-3.9z"/>
    <path class="st0" d="M613.2 118.5h3.9v3.9h-3.9z"/>
    <path class="st0" d="M602.3 118.5h3.9v3.9h-3.9z"/>
    <path class="st0" d="M591.4 118.5h3.9v3.9h-3.9z"/>
    <path class="st0" d="M580.4 118.5h3.9v3.9h-3.9z"/>
    <path class="st0" d="M569.5 118.5h3.9v3.9h-3.9z"/>
    <path class="st0" d="M558.5 118.5h3.9v3.9h-3.9z"/>
    <path class="st0" d="M547.6 118.5h3.9v3.9h-3.9z"/>
    <path class="st0" d="M536.6 118.5h3.9v3.9h-3.9z"/>
    <path class="st0" d="M525.7 118.5h3.9v3.9h-3.9z"/>
    <path class="st0" d="M514.7 118.5h3.9v3.9h-3.9z"/>
    <path class="st0" d="M503.8 118.5h3.9v3.9h-3.9z"/>
    <path class="st0" d="M492.8 118.5h3.9v3.9h-3.9z"/>
    <path class="st0" d="M481.9 118.5h3.9v3.9h-3.9z"/>
    <path class="st0" d="M470.9 118.5h3.9v3.9h-3.9z"/>
    <path class="st0" d="M460 118.5h3.9v3.9H460z"/>
    <path class="st0" d="M865 133.3h3.9v3.9H865z"/>
    <path class="st0" d="M854.1 133.3h3.9v3.9h-3.9z"/>
    <path class="st0" d="M843.1 133.3h3.9v3.9h-3.9z"/>
    <path class="st0" d="M832.2 133.3h3.9v3.9h-3.9z"/>
    <path class="st0" d="M821.3 133.3h3.9v3.9h-3.9z"/>
    <path class="st0" d="M810.3 133.3h3.9v3.9h-3.9z"/>
    <path class="st0" d="M799.4 133.3h3.9v3.9h-3.9z"/>
    <path class="st0" d="M788.4 133.3h3.9v3.9h-3.9z"/>
    <path class="st0" d="M777.5 133.3h3.9v3.9h-3.9z"/>
    <path class="st0" d="M766.5 133.3h3.9v3.9h-3.9z"/>
    <path class="st0" d="M755.6 133.3h3.9v3.9h-3.9z"/>
    <path class="st0" d="M744.6 133.3h3.9v3.9h-3.9z"/>
    <path class="st0" d="M733.7 133.3h3.9v3.9h-3.9z"/>
    <path class="st0" d="M722.7 133.3h3.9v3.9h-3.9z"/>
    <path class="st0" d="M711.8 133.3h3.9v3.9h-3.9z"/>
    <path class="st0" d="M700.8 133.3h3.9v3.9h-3.9z"/>
    <path class="st0" d="M689.9 133.3h3.9v3.9h-3.9z"/>
    <path class="st0" d="M678.9 133.3h3.9v3.9h-3.9z"/>
    <path class="st0" d="M668 133.3h3.9v3.9H668z"/>
    <path class="st0" d="M657 133.3h3.9v3.9H657z"/>
    <path class="st0" d="M646.1 133.3h3.9v3.9h-3.9z"/>
    <path class="st0" d="M635.1 133.3h3.9v3.9h-3.9z"/>
    <path class="st0" d="M624.2 133.3h3.9v3.9h-3.9z"/>
    <path class="st0" d="M613.2 133.3h3.9v3.9h-3.9z"/>
    <path class="st0" d="M602.3 133.3h3.9v3.9h-3.9z"/>
    <path class="st0" d="M591.4 133.3h3.9v3.9h-3.9z"/>
    <path class="st0" d="M580.4 133.3h3.9v3.9h-3.9z"/>
    <path class="st0" d="M569.5 133.3h3.9v3.9h-3.9z"/>
    <path class="st0" d="M558.5 133.3h3.9v3.9h-3.9z"/>
    <path class="st0" d="M547.6 133.3h3.9v3.9h-3.9z"/>
    <path class="st0" d="M536.6 133.3h3.9v3.9h-3.9z"/>
    <path class="st0" d="M525.7 133.3h3.9v3.9h-3.9z"/>
    <path class="st0" d="M514.7 133.3h3.9v3.9h-3.9z"/>
    <path class="st0" d="M503.8 133.3h3.9v3.9h-3.9z"/>
    <path class="st0" d="M492.8 133.3h3.9v3.9h-3.9z"/>
    <path class="st0" d="M481.9 133.3h3.9v3.9h-3.9z"/>
    <path class="st0" d="M470.9 133.3h3.9v3.9h-3.9z"/>
    <path class="st0" d="M460 133.3h3.9v3.9H460z"/>
    <path class="st0" d="M843.1 148h3.9v3.9h-3.9z"/>
    <path class="st0" d="M832.2 148h3.9v3.9h-3.9z"/>
    <path class="st0" d="M821.3 148h3.9v3.9h-3.9z"/>
    <path class="st0" d="M810.3 148h3.9v3.9h-3.9z"/>
    <path class="st0" d="M799.4 148h3.9v3.9h-3.9z"/>
    <path class="st0" d="M788.4 148h3.9v3.9h-3.9z"/>
    <path class="st0" d="M777.5 148h3.9v3.9h-3.9z"/>
    <path class="st0" d="M766.5 148h3.9v3.9h-3.9z"/>
    <path class="st0" d="M755.6 148h3.9v3.9h-3.9z"/>
    <path class="st0" d="M744.6 148h3.9v3.9h-3.9z"/>
    <path class="st0" d="M733.7 148h3.9v3.9h-3.9z"/>
    <path class="st0" d="M722.7 148h3.9v3.9h-3.9z"/>
    <path class="st0" d="M711.8 148h3.9v3.9h-3.9z"/>
    <path class="st0" d="M700.8 148h3.9v3.9h-3.9z"/>
    <path class="st0" d="M689.9 148h3.9v3.9h-3.9z"/>
    <path class="st0" d="M678.9 148h3.9v3.9h-3.9z"/>
    <path class="st0" d="M668 148h3.9v3.9H668z"/>
    <path class="st0" d="M657 148h3.9v3.9H657z"/>
    <path class="st0" d="M646.1 148h3.9v3.9h-3.9z"/>
    <path class="st0" d="M635.1 148h3.9v3.9h-3.9z"/>
    <path class="st0" d="M624.2 148h3.9v3.9h-3.9z"/>
    <path class="st0" d="M613.2 148h3.9v3.9h-3.9z"/>
    <path class="st0" d="M602.3 148h3.9v3.9h-3.9z"/>
    <path class="st0" d="M591.4 148h3.9v3.9h-3.9z"/>
    <path class="st0" d="M580.4 148h3.9v3.9h-3.9z"/>
    <path class="st0" d="M569.5 148h3.9v3.9h-3.9z"/>
    <path class="st0" d="M558.5 148h3.9v3.9h-3.9z"/>
    <path class="st0" d="M547.6 148h3.9v3.9h-3.9z"/>
    <path class="st0" d="M536.6 148h3.9v3.9h-3.9z"/>
    <path class="st0" d="M525.7 148h3.9v3.9h-3.9z"/>
    <path class="st0" d="M514.7 148h3.9v3.9h-3.9z"/>
    <path class="st0" d="M503.8 148h3.9v3.9h-3.9z"/>
    <path class="st0" d="M492.8 148h3.9v3.9h-3.9z"/>
    <path class="st0" d="M481.9 148h3.9v3.9h-3.9z"/>
    <path class="st0" d="M470.9 148h3.9v3.9h-3.9z"/>
    <path class="st0" d="M460 148h3.9v3.9H460z"/>
  </g>
</svg>