<svg xmlns="http://www.w3.org/2000/svg" width="230.9" height="250.7" viewBox="0 0 230.9 250.7">
  <style>
    .st0{fill:#74c275}.st1{fill:#f68d3d}.st2{fill:#e86da7}.st3{fill:#b767aa}.st5{fill:#f9bcc9}.st6{fill:#fff}.st7{fill:#54caf2}.st8{fill:#74cbc8}.st9{fill:#3eb0ad}.st10{fill:none}.st11{fill:#3cbfbd}
  </style>
  <path class="st0" d="M150.1 237.9c-3.7-.6-7.7.4-11.4.7-3.9.4-7.8.5-11.8.3-3.8-.2-7.7-.6-11.5-1.2-3.9-.6-7.8-1.7-11.8-1.9-1.1-.1-2.2 1.5-1 2.2 6.8 4.2 16.1 5.2 23.9 5.5 4.2.1 8.4.1 12.6-.4 3.8-.4 8.2-.9 11.4-3.1 1-.6.6-1.9-.4-2.1"/>
  <path class="st1" d="M190.6 215.5c-2.2 1.2-3.8 3.2-5.6 4.9-2 1.8-4.1 3.4-6.4 4.8-4.3 2.7-9.3 4.7-14.1 6.5-.9.3-.3 1.7.5 1.6 5.7-.5 10.8-2.5 15.7-5.6 3.9-2.5 9.7-6.2 11.3-10.9.2-.8-.6-1.7-1.4-1.3"/>
  <path class="st2" d="M121.4 249c-3-1.4-6.1-1.7-9.4-2.4-3.3-.7-6.6-1.4-9.8-2.4-5.7-1.8-11.9-4.3-16.5-8.2-.7-.6-1.9.3-1.1 1.1 4.7 4.5 9.8 7.8 15.9 9.8 3.5 1.2 7 2.1 10.6 2.7 3.5.7 6.7 1.4 10.3.9.8 0 .6-1.2 0-1.5"/>
  <path class="st2" d="M205.4 210.2c-.1-.6-.8-1-1.3-.6-1.7 1.4-2.5 3.6-3.5 5.5-1.2 2.3-2.6 4.5-4.2 6.6-3.1 4.1-7 7.4-11 10.8-1.1.9-.1 2.9 1.3 2.3 4.8-2.5 8.9-6.3 12.2-10.6 1.7-2.1 3.1-4.3 4.4-6.7 1.1-2.1 2.5-4.7 2.1-7.3"/>
  <path class="st3" d="M169.8 240.6c-2-.1-3.7 1.1-5.5 1.9-2.3 1-4.7 1.9-7.1 2.6-2.4.7-4.9 1.2-7.4 1.5-2.3.3-4.6.3-6.8 1.1-.5.2-.5 1 0 1.2 4.3 1.9 10.2.4 14.6-.7 2.6-.7 5.1-1.6 7.5-2.8 1.9-.9 4.3-1.9 5.2-3.9.1-.4-.1-.9-.5-.9"/>
  <path d="M199.9 161.1c0 2.9-.2 5.8-.7 8.8-.9 5.2-2.5 10.5-4.7 15.5-1.2 2.6-2.5 5.2-3.9 7.6-3.7 6.3-8.3 12-13.5 16.5-10.9 9.5-24.9 15.1-39.3 16.1-14.4.9-29-2.8-41.3-10.3-12.8-7.8-23.3-20-27.1-34.5-1.4-5.5-1.9-11.2-2.2-16.8-.5-11.9-.1-24.2 5.1-34.9 1.6-3.3 3.5-6.3 5.8-9 1.8-2.3 3.9-4.4 6-6.4.2-.2.4-.4.7-.6 2.5-2.3 5.2-4.4 7.9-6.3 14.7-10.3 32.9-16.9 50.5-13.4 3.9.8 7.7 2 11.4 3.6.3.1.7.3 1.1.5 4.9 2.2 9.7 4.9 14.3 7.7 5 3 8.8 6.1 11.8 9.6 2.5 3 4.6 6.4 6.4 10.4.7 1.5 1.3 3.1 2 4.9.1.4.3.8.5 1.1.1.1.1.3.2.4 1.2 2.5 2.9 4.6 4 7.1.3.7.5 1.5.5 2.4.6 1.4 1.1 2.9 1.5 4.4.1.3.2.7.3 1.1.1.3.1.5.2.7.5 1.9 1 3.7 1.7 5.5l.3.9c.1.4.2.9.3 1.3 0 .3.1.5.1.8 0 1.8.1 3.6.1 5.3" fill="#4f8dcb"/>
  <path class="st5" d="M117.6 133.4c-.2.4-.8.4-1.1.3-.5-.2-.9-.7-1.4-1-.8-.5-1.7-.7-2.5-1.2-.1-.8.3-1.5-.3-2.2-.7-.9-1-.2-1.8.1-.9.3-1.7.2-2.5.7-.6.4-1.1.9-1.4 1.5-.3.6-.3 1.4-.4 2.1 0 .4-.1.9.2 1.2 1-.5 2.1-.4 3.1-.2.8.2 1.6.2 2.5.3.7.1 1.1 0 1.6.7.2.3.5.6.7.9-12.6.6-25.3-1.6-37.9-4.9.1-.4.2-.7.3-1.1.3-.9.7-1.8 1-2.6.1-.3.1-.8.3-1.1.2-.4.7-.3.9-.7-.3-.5-1.1-.9-.9-1.6.1-.3.4-.9.6-1.3.3-.5.7-.9.5-1.6-.3-.9-.9-1.1-.9-1.7 1.8-2.3 3.9-4.4 6-6.4 4.1.7 8.2 1.4 12.3 2-.2.5-.4.9-.5 1.5-.1.4-.1.9-.3 1.3-.5.9-2.1.9-2.9 1.2-.6.2-1.6.4-2.1.8-1.5 1.1-3.7 1.9-4.3 3.7 1 .1 1.2 1.3 2 1.5.3.1 1 0 1.4 0h3.5c2.1 0 5.7.1 5.4-2.8-.1-.9-.5-1.6-.9-2.4-.2-.4-.4-1.6.1-2.1.3-.3 3.1.1 3.3.5.4.5-.1 1.7.4 2.1.6.6 1.5-.2 1.9-.7.3-.3.5-.7.6-1.2 0-.2.1-.4.1-.7.3-.2.7 0 1 .1 1.2.6 2.3 1.5 3.2 2.4.3.4.8.8 1.3.9.3.1.7.1 1 .1 1.2.3 1.7 1.7 2.3 2.6.4.7.2 1.7.7 2.5.7 1 2.3.7 3.1 1.5.7.8-.3 2.2.2 3.2-.1.6.9 1.3.6 1.8"/>
  <path class="st6" d="M72.7 145.1c6.2 4.3 15.7 5.2 22.7 6.4.4.1.8.1 1.2.2.1-.1.3-.2.4-.3.7-.6.9-1.3.5-2.1 0-.3 0-.7.1-1 .3-.4.7-.8 1.1-1.2.7-1.1.8-2.6 2-3.4.9-.6 2.6-.9 3.6-1.3.6-.3 1.9-.7 2.5-1.3.5-.5.2-.4.3-1.1.1-.4.5-.9.8-1.3.5-.7.7-1.6 1.6-1.8 1.6-.3 3.3.3 4.7 1 .2.1.8.5 1.1.3.4-.3-.2-1-.4-1.3-.1-.2-.3-.3-.4-.5-12.6.6-25.3-1.6-37.9-4.9-.1.7-.2 1.3-.2 2 0 .6.1 1.1.2 1.7.1.4.1.7 0 1.1-.2 1.2-.9 2.2-1.6 3.2-.5.7-.8 1.6-1.2 2.3-.7 1.1-1.2 2.1-1.1 3.3z"/>
  <path class="st7" d="M90.1 163.9c.6.4 1 1 1.7 1.3.3.1.9.4 1.3.4.6-.1.8-1.1.6-1.6-.1-.3-.4-.5-.7-.6l-.2-.2c-1.5-.1-3-.2-4.5-.4.1 0 .1.1.1.1.4.4 1.1.7 1.7 1"/>
  <path class="st7" d="M92 162.3c-.5-1-1-1.9-1.5-2.9-.5-.9-1-2.1-.8-3.2.2-1 1-1.4 1.9-1.7.9-.2 1.4-.3 2.1-.9.6-.5 1.3-.9 1.9-1.3.3-.2.6-.5.9-.7-.4-.1-.8-.1-1.2-.2-7.1-1.2-16.5-2.1-22.7-6.4.1.4.3.6.5 1 .9 1 1 2.1 1 3.5v2.9c0 .8-.3 1-.7 1.6-.7.8-1 2.2-1 3.4 2.6 2 5.6 3.3 8.7 4.1v-.1c.1-.7.6-1.2 1.3-1.5.6-.1 1.2-.3 1.7-.6.5-.4 1-.7 1.6-.9.7.5.8 1.4 1 2.1.3 1 .5 1.7 1.4 2.3 1.5.2 3 .3 4.5.4-.3-.2-.5-.5-.6-.9"/>
  <path class="st6" d="M99.3 190.8c-.9-.3-1.8-.6-2.7-.8-1.4-.4-1.4-1.1-1.4-2.5 0-1 .4-2.4-.7-2.9-.5-.2-.9-.1-1.3.1-.8.1-1.4.1-2.2-.1-1.1-.3-1.7-.7-2-1.8-.3-1.1-.9-2.4-2-3-.5-.3-.9-.3-1-.8-.1-.3-.1-.7-.1-1.1-.3-.1-.6-.1-.9-.2.8 1.4 1.5 2.9 1.9 4.3.2.9.1 1.9.1 2.7 0 .7-.1 1.5 0 2.3 0 .5.1.5.3.9.6.6 1.2 1.1 1.7 1.9 0 .1.1.1.1.1 3.8.8 7.7 1.4 11.6 1.8-.5-.4-.9-.7-1.4-.9"/>
  <path class="st6" d="M121.3 192.8c-.5-.5-1.4-1.2-1.9-1.5-.6-.4-1.2-.8-1.7-1.3-.4-.4-.5-.8-1.1-.9-1.1-.2-2 .8-2.9 1.2-.8.4-1.6 0-2.4 0-.1-.6.1-1.3-.2-1.8-.1-.3-.6-.6-.9-.8-.4.3-.3 1.2-.2 1.7.1.8 0 1-.9 1.1-.7.1-1.5-.2-2.1.1-.3.1-.6.5-.9.7-.5.3-.9.6-1.4.8 3.7.3 7.3.5 10.9.7 1.8-.1 3.7-.1 5.7 0"/>
  <path class="st5" d="M145.2 203.9c.5-1 .7-1.5-.2-2.1-1-.7-2.1-.5-3.1-.8-.9-.3-1.4-1.1-2.1-1.5-.6-.4-.9-.5-1.6-.5-.5 0-2.2.2-2.6.6-.1.7-.4 1.3-.7 1.9-.3.3-.5.7-.7 1-.5.5-1.3.8-1.9 1.1-.5-.9.5-2 .5-2.9 0-1-.7-2.3-1.6-2.8-.7.4-1.1.7-1.9.8-.8.1-1.6.2-2.5-.1-.5-.1-.8-.4-1.2-.7-.5-.4-1.4-.8-1.8-1.3-.2-.2-.2-.6-.4-.8-.5-.6-1-1.1-1.4-1.7-.2-.3-.3-.7-.6-1 0-.1-.1-.1-.1-.1-1.9 0-3.9-.1-5.8-.1-3.6-.1-7.2-.3-10.9-.7-.9.4-2 .5-3 .1-.3-.1-.6-.3-.9-.5-3.9-.4-7.8-1-11.6-1.8.3.5.4.8 1 1.1.8.4 1.3 1.2 2.2 1.5.5.1 1.1.4 1.5.5 1.1.2 2.1-.2 3.2.2 1.2.5 2.1 1.1 3.3 1.3.5.1.9.2 1.4.2.3 0 .6 0 .9.1.6.2 1.6 1 2.3.9.2 1.1-.1 2.1.3 3.1.5 1.3 1.3 2.7 2.2 3.7.3.3.7.6 1 .9 12.3 1.3 24.6 1.3 36.8.4"/>
  <path class="st7" d="M145.2 203.9c-12.2.9-24.5.9-36.7-.5.2.2.4.3.5.5.5.8.7 2.1.9 3 .2.8.3 1.7.6 2.5.3.6.2.3.5.7 2.8 2.9 5.6 4.8 9.8 4.6 2.8-.1 2.6 1.5 3.8 3.6 1.6 2.7 4.6 4.5 7.7 4.9.2 0 .5 0 .6-.1.3-.3-.1-.7-.4-1-.8-.8-.9-1.7-1-2.8.5-.3.6-.7.9-1.1.1-.2.6-.9.6-1.1 0-.2-.1-.3-.1-.5s.3-.3.5-.4l1.5-.6c-.2-.3.1-.6.3-.8.7-.7 1.4-1.6 2.3-2 .8-.3 1.2-.4 1.9-1 .8-.8 1.5-2 2.4-2.6.5-.4 1.1-.6 1.6-1.1.3-.3.5-.8.8-1.1.1-.1.3-.2.4-.3.1-.3 0-.6 0-.9 0-.8.3-1.3.6-1.9"/>
  <path class="st6" d="M77.4 176.5c.4.4.3 1.2.4 1.8.2 1.1.7 1.7 1.1 2.7.5 1 .6 2 1.2 2.9.4.7 1 1.2 1.7 1.4.6.2.5 0 1.2-.3.5-.2.7-.1 1.2.1.6.3 1.3 1.2 2.1 1.3.1-.8-.5-1.8-1-2.3-.6-.7-1.2-1.5-2-2.1-1.2-.9-1.5-1.8-1.5-3.3 0-.6-.1-1.2-.2-1.8-1.7-.4-3.4-.9-5.1-1.5.2 1 .3.6.9 1.1"/>
  <path class="st5" d="M86.8 173c0-.7-.1-1.5-.3-2.3-.1-.7-.3-.8-.8-1.3s-.8-1-1.2-1.5l-.9-.9c-.1-.1-.2-.3-.2-.4-.2-.2-.5-.3-.7-.6-.3-.5.3-1.2.1-1.7-.3-.8-1.5-.6-1.7-1.3-.1-.2 0-.9 0-1.3-3.1-.9-6.1-2.1-8.7-4.1v.7c.2 1.5 1.4 2.3 1.8 3.6.1.3.3.6.4 1 .2.6 0 1.4 0 2 0 1-.1 2 .1 3 .1 1 .5 2 .7 3 0 .3 0 .6.2.9.2.4.5.7.6 1.2.3.8.5 1.7.5 2.6v.1c1.7.5 3.3 1 5.1 1.5-.1-.9-.3-1.8-.3-2.7 0-.9-.1-1.5-.5-2.3-.2-.5-.6-1-.5-1.6.1.3.1.6.3.9.2.2.7.3.9.5.6.5.6 1.1.9 1.8.1.3.3.3.5.6s.1.8.3 1.1c.2.3.6.7.9 1 .3.5.6.9.9 1.4.3.1.6.1.9.2.1-.6.3-1.2.4-1.7 0-1.4.3-2.4.3-3.4"/>
  <path class="st7" d="M142.7 111.6c.7.1 1.1.7 1.8 1 .5.2 1.1.3 1.7.2.5-.1.8-.3 1.3-.5.7-.4.7-.7.7-1.5 0-.3.1-.6 0-.9-.1-.3-.2-.5-.3-.9-.1-.8.3-1.8 0-2.5-.5.3-1.1.6-1.7 1-.7.4-.7.8-1.2 1.4-.3.3-.6.6-.9.8-.3.3-.9 1-1.4 1.1h-.2.2l.7-.5c-.4 0-2.3.7-2.3 1 .1.4 1.3.2 1.6.3"/>
  <path class="st8" d="M142.6 110.8h.2-.2z"/>
  <path class="st8" d="M100 107.8l-.8.3c.4 0 .8 0 .8-.3"/>
  <path class="st7" d="M116.2 120.3c.3.3.4.6.7.8.9.6 1.9 1.1 2.5 1.9.9 1.4 2.1-.9 2.5-1.8.3-.6.7-1.3.8-2 .1-.3.1-.7.1-1.1-3-.2-6-.4-9-.7.2.3.5.7.7 1 .6.8 1.2 1.3 1.7 1.9"/>
  <path class="st9" d="M100 116.1c-.8-.1-1.7-.2-2.5-.3 0 .1-.1.1-.1.1.6.4 1.8.2 2.6.2"/>
  <path class="st8" d="M188.7 146.4c-.1 0-.3.1-.3.2.3-.1.7-.2 1-.3-.3 0-.5 0-.7.1"/>
  <path class="st7" d="M199.6 155.8c-1.4.5-2.8 1-4.2 1.4-.3.1-.6.1-.9.2l-.9.3c-.3.1-.6.1-.9.2-.3.1-.6.1-.9.2-.3.1-.6.1-.9.2-.3.1-.6.1-.9.2-1.1.3-2.3.5-3.5.7-.3.1-.6.1-.9.2-.9.2-1.9.3-2.8.5.1-.9.3-1.7.8-2.5.6-.9 1.1-1.9 1.6-2.9.7-1.5 1.8-2.7 2.1-4.4.2-.9.1-2.9.9-3.6.3-.1.7-.2 1-.3.5.1.9.3 1.4.3.8 0 1.2.1 1.8.8.1.2.4.4.5.6.1.3.2 1 .5 1.1.3.1 1.4-.3 1.6-.5.2-.1.3-.3.5-.5.3-.2.5-.6.8-.8.2-.1.5 0 .7 0 .1 0 .2 0 .3-.1.5 1.9 1 3.7 1.7 5.5l.3.9c.1.4.2.9.3 1.3v1"/>
  <path class="st5" d="M199.9 161.1c0 2.9-.2 5.8-.7 8.8-3.4.9-6.7 2-10 3.4-2.7 1.2-5.8 1.8-8.9 2.1 0-.7.1-1.5.2-2.2.3-2.4.9-4.7 1.5-7 .3-1.2.7-2.4.8-3.7 0-.6-.1-1.2 0-1.8 0-.2.1-.4.1-.6.9-.2 1.9-.3 2.8-.5.3-.1.6-.1.9-.2.9-.1 1.8-.3 2.7-.5.3-.1.6-.1.9-.2.3-.1.6-.1.9-.2.3-.1.6-.1.9-.2.3-.1.6-.2.9-.2.3-.1.6-.1.9-.2l.9-.3c.3-.1.6-.1.9-.2.7-.2 1.4-.5 2.1-.7.7-.2 1.4-.5 2.1-.7 0 1.6.1 3.4.1 5.1"/>
  <path class="st7" d="M194.5 185.3c-1.2 2.6-2.5 5.2-3.9 7.6-.6.5-1.2.9-1.8 1.1-.5.2-1 0-1.5.1-1.5.4-2.6 1.8-3.6 3-.4.5-.8.9-1.2 1.4-1.2.2-2.4.5-3.6.7.6-.7.9-1.5 1.3-2.3.3-.6.9-.9 1.3-1.5.5-.7 1.1-1.4 1.7-2.1.6-.7 1.3-1.4 1.9-2.1.3-.5.8-.7 1.1-1.1.7-.7 1.1-1.6 1.6-2.4.1-.2.5-.6.7-1 1.9-.4 4-.8 6-1.4"/>
  <path class="st6" d="M178.8 199.3l-.1.1c-.5.5-1 .7-1.4 1.2-.6.8-1 1.7-1.7 2.4-.4.4-.7.7-1.1 1.2-.1.3-.3.5-.5.7-.2.1-.3.1-.5 0-.3.1-.4.3-.6.5-.4.3-.7.4-.9.8-.2.4-.5.9-.7 1.3.7.8 2.4.1 3-.5.7-.7 1.4-1.3 2.2-1.8 1-.7 2.2-1.3 2.8-2.3.6-1.1 1.1-2.2 2-3.1.3-.4.7-.8 1.1-1.1-1.2.1-2.4.4-3.6.6"/>
  <path class="st7" d="M179.2 190.5c.6.3 1 .2 1.7.2 1.1 0 1.5-.4 2.4-1.1.9-.9 2-1.8 3.1-2.2l.6-.3c-2.9.6-5.9 1.2-8.8 1.7.1.7.2 1.3 1 1.7"/>
  <path class="st6" d="M199.2 169.8c-.9 5.2-2.5 10.5-4.7 15.5-2 .5-4 1-6 1.4.3-.4.5-.9.3-1.3-.3.3-.4.7-.7 1-.3.3-.6.5-1 .6-2.9.6-5.9 1.2-8.8 1.7 0-.7.1-1.4 0-2-.4-.1-.9.2-1.2-.1-.4-.3-.2-.7-.2-1.1.1-.7.3-1.3.9-1.7.5-.3.6-.3.9-.7.6-.8 1.3-1.3 1.3-2.5 0-.4 0-.6-.2-1s-.8-.6-.9-1c.7-.8 1.2-1.2 1.3-2.3 0-.3 0-.7.1-1 3.1-.3 6.1-.9 8.9-2.1 3.3-1.4 6.6-2.4 10-3.4"/>
  <path class="st7" d="M122.8 116c0-.5-.1-1 0-1.5s.8-1.3 1.1-1.7c.5-.8 1-1.6 1.3-2.6.5-1.5 1-3.5-.9-4.4-.5-.2-.9-.2-1.4-.3-.6-.1-.6-.3-1.1-.8-.6-.7-1.1-1.1-2-1.2-1.1-.1-1.9.3-3 .5-.7.1-1.4 0-2.1.1-.5 0-3.5 0-2.9-1.3.4-.9 2.5-1.1 3.4-1.4.7-.2 1.1-.4 1.8-.5.4-.1.7-.2 1-.3.2-.1.8-.1 1-.2.3-.3.3-.7.1-1-.3-.4-1.2-.8-1.6-.7-.3.1-.7.5-1 .7-.6.6-.9.7-1.7.9-1.1.2-2.1.8-3.1 1.2-.5.2-.9.5-1.4.7-.8.3-1.7.4-2.5.7-.3.1-.7.2-1.1.3-.6.2-1 .7-1.6.9-.4.1-.9.1-1.3.2-.5.2-.9.3-1.5.3-1.6.1-3.9-.5-5.1 1.2-.2.3-.3.8-.2 1.2.2.6.7.9 1.3 1 2.3.5 3.4 0 5.3-1.3.5-.3 1.1-.5 1.6-.8.6-.3 1.3-.5 2-.3.2.5-.2.8-.2 1.2.8.2 2.1-.3 2.7.3.3.4.3 1.3.3 1.7 0 .6-.1 1.2.1 1.8 0 .1.1 1 .2 1.2.3.5.9.4 1.3.7.3.2.9.7 1 1 .1.2 0 .7 0 1 .1.5.2 1.1.4 1.5.2.5.5 1.1.9 1.6 3 .3 6 .5 9 .7-.1-.8-.1-1.6-.1-2.3"/>
  <path class="st7" d="M123.7 116c-.1-1.7.9-2.5 1.7-3.9.5-1.1.9-2.3 1.1-3.4.1-1 0-1.9-.6-2.7-.9-1.1-1.9-.9-3-1.5s-1.4-1.6-2.8-1.9c-1.6-.3-3.3.5-4.9.5-.4 0-2.2 0-2.2-.1s3.8-1.2 4.1-1.2c1.3-.4 4.4-1 2.9-3.1-1.6-2.3-3.4-.1-5.1.6-1.6.7-3.2 1.3-4.8 1.9-1.4.6-2.9.8-4.3 1.4-1.5.7-3 1-4.7 1-1.2 0-2.4-.1-3.4.6-1.9 1.2-2 3.9.2 4.7 1.3.5 2.9.4 4.1-.1 1.8-.7 3.3-2.3 5.3-2.2-.3-.3-.7-.6-1-.9 0 .3-.1.6-.1.9-.1.6.3 1.2.9 1.2.7.1 1-.1 1.6.4.6.5.4.8.4 1.7 0 .6 0 1.5.2 2.1.2.5.4.9.8 1.1 1.1.7 1.2.6 1.5 1.8.3 1.3.7 3.2 2.1 3.7 1.1.5 2.9.3 4.2.3 1.7.1 3.3.2 5 .3.5 0 1-.5.9-1 0-.7-.1-1.4-.1-2.2 0-1.2-1.9-1.2-1.9 0 0 .7.1 1.5.1 2.2.3-.3.7-.6 1-.9-3-.2-6-.4-9-.7.3.1.5.3.8.5-.7-1-1-1.9-1.1-3.1-.1-.6-.1-.9-.5-1.4-.7-1-1.7-.9-2-2-.4-1.3.3-2.9-.5-4s-2.3-.7-3.5-.8l.9 1.2c.1-.5.3-.9.2-1.5 0-.5-.4-.9-.9-1-1.3-.1-2.4.4-3.5 1-.9.5-1.6 1.1-2.6 1.4-.5.1-2.1.5-2.6.1-1.9-1.9 3.1-1.5 3.7-1.6 1.3-.1 2.7-.5 3.8-1 3.1-1.3 6.3-2.3 9.5-3.5.5-.2.8-.4 1.2-.7.4-.2 2.3-1.1 1-.8-1.3.3-2.6.8-3.9 1.2-1.3.3-3.7 1.1-2.9 3 .6 1.4 2.9 1.3 4.1 1.3 1.8 0 4.2-1 5.8.2.4.3.6.8 1 1 .9.5 1.2.2 2 1.1 1.3 1.5-.1 3.7-1.1 5.2-.8 1.3-1.1 1.9-1.1 3.5.1 1.4 2.1 1.4 2 .1"/>
  <path class="st7" d="M104.2 113.1l-1.2 2.4c-.3.6-.1.5-.8.5H100c-.8-.1-1.7-.2-2.5-.3.3-.4.8-.6 1.1-1 .3-.5.3-.9.2-1.5 0-.6 0-1.3-.7-.7-.7.5-1.2 2.1-1.6 2.8 0 .1-.1.2-.1.3-4.1-.6-8.2-1.3-12.3-2 .2-.2.4-.4.7-.6.2.2.5.4.7.5.7.3 2 .2 2.4-.5.2-.4.1-2.1.8-2.1.5 0 .5.7.5.9.1.4-.1.8.4 1.1.4.2.7 0 1.1-.2 1.3-.8 2.7-.8 4.1-1.2.7-.1 1-.4 1.7-.7 1.6-.8 2.9-1 4.6-.8.9.1 2.6.2 3.3.9.8.7.2 1.6-.2 2.2"/>
  <path class="st5" d="M180.1 125.9c.8-1.4-.8-2.9-1.6-3.9-.9-1.1-1.9-2.6-3.3-3.3-.6-.3-.9-.1-1-.7-.1-.6 0-1.1 0-1.7v-.1c2.5-.4 5-.9 7.5-1.5 2.5 3 4.6 6.4 6.4 10.4-3.8 1-7.7 1.9-11.5 2.7.2-.4.5-.8.6-.9.9-.6 2.1.4 2.9-1"/>
  <path class="st6" d="M187.8 128.8c-.3.9.4 1.8.2 2.7-.2 1.1-.6 2.4-.1 3.5.4.8 1.3 1.1 1.5 1.9.2.7 0 1.4 0 2.1.1.9.5 1.8.2 2.7-.4-.2-.6-.2-1.1-.2-.5 0-.9-.1-1.4-.2-.8-.2-1.5-.3-2.3-.4-1.7-.2-3.5-1.1-4.7-2.4.4-.5.5-1.1.7-1.8.3-1.3.6-2.4 1.4-3.5.4-.6.5-.9.5-1.6v-1.8c0-.4 0-.7-.3-1-.4-.4-.5-.2-.9-.1s-.8-.1-1.2 0c-.8.1-1.4.9-2.3.8-.4 0-1.7-.6-1.7-1.1 0-.1.1-.4.3-.7 3.9-.8 7.7-1.7 11.5-2.7.7 1.5 1.3 3.1 2 4.9.1.4.3.8.5 1.1-.3.3-.4 1-.5 1.3-.6-.5-.7-4.2-2.3-3.5"/>
  <path class="st7" d="M181.7 114.7c-2.5.6-5 1.1-7.5 1.5 0-.7-.5-1.1-.7-1.8-.3-.9 0-1.9-1.1-2.3-.5-.2-.9-.6-1.3-.8-.5-.2-1.1.1-1.7 0-.8-.1-1-.7-1.4-1.3-.3-.3-.3-.3-.3-.7 0-.3.2-.5.2-.7.1-.8.2-1.8-.4-2.3-.3-.3-.7-.3-.9-.7-.3-.5-.1-.7-.7-1-1.4-.6-1.7.1-2.7.8-.4.3-.9.5-1.3.7-.3.2-.6.5-.9.5-1.3 0-.3-1.3-.6-1.8-.9.1-1.5.4-2.4.1-.5-.2-.8-.4-1.3-.6-.8-.3-1.8-.3-1.5-1.5 1 .1 0-1.9-.3-2.2-.3-.3-.8-.5-1.2-.6-.6-.3-1.2-.6-1.8-.8-.7-.3-1.3-.7-2-.9-.5-.1-1.3-.2-.8-.8.4-.5 2.1-1.1 2.6-.5l2.3.5c0-.2.3-.5.6-.6.3.1.7.3 1.1.5 4.9 2.2 9.7 4.9 14.3 7.7 5 3 8.7 6.1 11.7 9.6"/>
  <path class="st10" d="M142.7 137.6c4.4 0 8 3.2 8.5 7.4.9.1 1.7.3 2.6.4-.3-5.8-5.2-10.3-11.1-10.3-6.2 0-11.2 4.9-11.2 11s5 11 11.2 11c5.2 0 9.6-3.5 10.8-8.2-.8-.2-1.7-.3-2.5-.4-1 3.5-4.3 6.2-8.3 6.2-4.8 0-8.6-3.8-8.6-8.5-.1-4.8 3.8-8.6 8.6-8.6z"/>
  <path class="st10" d="M187.8 204.1c10.1-12.2 16.2-27.8 16.2-44.9 0-19.5-8-37.3-20.9-50.1s-30.8-20.7-50.5-20.7-37.6 7.9-50.5 20.7c-12.9 12.8-20.9 30.5-20.9 50.1s8 37.3 20.9 50.1C95 222.1 112.9 230 132.6 230c18.4 0 35.1-6.9 47.8-18.2 0-.2.1-.3.2-.5 2.1-3.3 3.6-6.8 4.7-10.5s1.6-7.5 1.6-11.3c0-11.4-4.6-21.7-12.1-29.2-3.9-3.9-8.7-7.1-13.9-9.2-.9 3.1-2.5 5.9-4.8 8.1-3.4 3.3-8.1 5.4-13.3 5.4-5.2 0-9.9-2.1-13.3-5.4-3.4-3.3-5.5-8-5.5-13.1s2.1-9.7 5.5-13.1c3.4-3.3 8.1-5.4 13.3-5.4 5.2 0 9.9 2.1 13.3 5.4 3.4 3.3 5.5 8 5.5 13.1 0 .5 0 1-.1 1.5 5.9 2.3 11.3 5.8 15.7 10.2 8.1 8.1 13.1 19.3 13.1 31.6 0 4.2-.6 8.3-1.7 12.3-.3.8-.6 1.6-.8 2.4z"/>
  <path class="st10" d="M44.1 23.6c.5 1 1.1 1.9 1.8 2.5.6.5 1.3.8 1.9.8.7 0 1.3-.3 2-.8.7-.6 1.3-1.4 1.8-2.5.6-1.1 1.1-2.5 1.4-4.1.3-1.5.5-3.1.5-4.9 0-1.7-.2-3.3-.5-4.8s-.8-2.9-1.4-4.1c-.5-1-1.1-1.9-1.8-2.4-.6-.5-1.3-.8-2-.8s-1.3.3-1.9.8c-.7.6-1.3 1.4-1.8 2.4-.6 1.2-1.1 2.5-1.4 4.1-.3 1.5-.5 3.1-.5 4.8 0 1.7.2 3.4.5 4.9.4 1.6.8 2.9 1.4 4.1z"/>
  <path class="st10" d="M10.6 23.6c.5 1 1.2 1.9 1.8 2.5.6.5 1.3.8 1.9.8.7 0 1.3-.3 2-.8.7-.6 1.3-1.4 1.8-2.5.6-1.1 1.1-2.5 1.4-4.1.3-1.5.5-3.1.5-4.9 0-1.7-.2-3.3-.5-4.8s-.8-2.9-1.4-4.1c-.5-1-1.2-1.9-1.8-2.4-.6-.5-1.3-.8-2-.8s-1.3.3-1.9.8c-.7.6-1.3 1.4-1.8 2.4-.6 1.2-1.1 2.5-1.4 4.1-.3 1.5-.5 3.1-.5 4.8 0 1.7.2 3.4.5 4.9.4 1.6.9 2.9 1.4 4.1z"/>
  <path class="st11" d="M41.9 24.7c.7 1.5 1.7 2.6 2.7 3.4 1 .8 2.1 1.2 3.3 1.2 1.2 0 2.3-.4 3.3-1.2 1-.8 1.9-1.9 2.7-3.4.6-1.1 1-2.4 1.4-3.8.3-1.2.5-2.5.7-3.9.1.1.2.1.3.2.2.1.4.3.6.5.6.6 1.3 1.3 1.6 2.1.3.8.7 1.6.7 2.5v27.5h1.9-.1V22.3c0-1.2-.2-2.4-.6-3.5-.5-1.1-1.1-2.1-1.9-2.9-.4-.4-.8-.7-1.2-1-.4-.3-.8-.5-1.2-.7 0-1.8-.2-3.5-.6-5.1-.4-1.7-.9-3.2-1.6-4.5-.7-1.4-1.7-2.6-2.7-3.4-1-.8-2.1-1.2-3.3-1.2-1.2 0-2.3.4-3.3 1.2-1 .8-1.9 1.9-2.7 3.4-.7 1.3-1.2 2.9-1.6 4.6-.3 1.7-.5 3.5-.5 5.4 0 1.9.2 3.7.5 5.4.4 1.8 1 3.4 1.6 4.7zm.8-14.9c.3-1.5.8-2.9 1.4-4.1.5-1 1.1-1.9 1.8-2.4.6-.5 1.3-.8 1.9-.8.7 0 1.3.3 2 .8.7.6 1.3 1.4 1.8 2.4.6 1.2 1.1 2.5 1.4 4.1.3 1.5.5 3.1.5 4.8 0 1.7-.2 3.4-.5 4.9-.3 1.5-.8 2.9-1.4 4.1-.5 1-1.1 1.9-1.8 2.5-.6.5-1.3.8-2 .8s-1.3-.3-1.9-.8c-.7-.6-1.3-1.4-1.8-2.5-.6-1.1-1.1-2.5-1.4-4.1-.3-1.5-.5-3.1-.5-4.9 0-1.7.2-3.3.5-4.8z"/>
  <path class="st11" d="M3.4 49.9H4V22.3c0-.9 0-1.7.3-2.5s.7-1.5 1.3-2.1c.2-.2.4-.4.6-.5.1-.1.1-.2.2-.2.1 1.4.3 2.7.6 3.9.3 1.4.8 2.7 1.4 3.8.7 1.5 1.6 2.6 2.7 3.4 1 .8 2.1 1.2 3.3 1.2 1.2 0 2.3-.4 3.3-1.2 1-.8 1.9-1.9 2.7-3.4.7-1.3 1.2-2.9 1.6-4.6.4-1.7.6-3.5.6-5.4 0-1.9-.2-3.7-.6-5.4-.4-1.7-.9-3.3-1.6-4.6-.7-1.4-1.6-2.6-2.7-3.4-1-.8-2.1-1.2-3.3-1.2-1.2 0-2.3.4-3.3 1.2-1 .8-1.9 1.9-2.7 3.4-.6 1.2-1.1 2.7-1.5 4.4-.3 1.6-.5 3.3-.6 5.1-.5.2-.9.5-1.3.7-.5.3-.9.7-1.3 1-.8.8-1.6 1.8-2 2.9-.4 1.1-.7 2.3-.7 3.5v27.5h2.4zM9.3 9.8c.3-1.5.8-2.9 1.4-4.1.5-1 1.2-1.9 1.8-2.4.6-.5 1.3-.8 1.9-.8.7 0 1.3.3 2 .8.7.6 1.3 1.4 1.8 2.4.6 1.2 1.1 2.5 1.4 4.1.3 1.5.5 3.1.5 4.8 0 1.7-.2 3.4-.5 4.9-.3 1.5-.8 2.9-1.4 4.1-.5 1-1.2 1.9-1.8 2.5-.6.5-1.3.8-2 .8s-1.3-.3-1.9-.8c-.7-.6-1.3-1.4-1.8-2.5-.6-1.1-1.1-2.5-1.4-4.1-.3-1.5-.5-3.1-.5-4.8 0-1.8.2-3.4.5-4.9z"/>
  <path class="st11" d="M160.6 147.3v-1.1c0-4.8-2-9.2-5.3-12.4-3.2-3.2-7.7-5.1-12.6-5.1-4.9 0-9.4 1.9-12.7 5.1-3.2 3.2-5.2 7.6-5.2 12.4 0 4.8 2 9.2 5.2 12.4 3.2 3.1 7.7 5.1 12.7 5.1 4.9 0 9.4-2 12.6-5.1 2.2-2.1 3.8-4.8 4.6-7.8-.9-.3-1.8-.7-2.7-.9-1.7 6.4-7.5 11.1-14.5 11.1-8.3 0-15-6.6-15-14.7 0-8.2 6.9-14.7 15.2-14.7 8.3 0 15.2 6.6 15.2 14.7v.2c.9.1 1.6.4 2.5.8z"/>
  <path class="st11" d="M185.7 106.4c-13.6-13.5-32.4-21.8-53.1-21.8-20.7 0-39.5 8.3-53.1 21.8-13.6 13.5-22 32.2-22 52.8 0 20.6 8.4 39.3 22 52.8 7.8 7.8 17.4 13.9 28.1 17.6-19.7-1.9-37.2-10.7-50.4-24-15-15-24.1-35.8-24.1-58.6v-28.8c8-.1 15.7-3.5 21.1-8.9 5.5-5.5 8.9-13.1 8.9-21.4v-34h-4v33.9c0 7.3-3.1 13.7-7.9 18.5-4.8 4.8-11.5 7.6-18.8 7.6h-1.8c-7.3 0-13.9-2.7-18.7-7.6-5-4.8-7.9-11.2-7.9-18.5V53.9H0v33.9c0 8.4 3.6 15.9 9.1 21.4 5.1 5.1 11.9 8.4 19.9 8.9v28.8c0 23.9 9.6 45.6 25.4 61.3 15.7 15.7 37.3 25.5 61.1 25.5 6 0 11.3.1 17.1.1 20.7 0 39.5-8.4 53.1-21.8 13.6-13.5 22-32.2 22-52.8.1-20.7-8.4-39.3-22-52.8zm-8.6 51.4c-4.4-4.4-9.7-7.9-15.7-10.2 0-.5.1-1 .1-1.5 0-5.1-2.1-9.7-5.5-13.1-3.4-3.3-8.1-5.4-13.3-5.4-5.2 0-9.9 2.1-13.3 5.4-3.4 3.3-5.5 8-5.5 13.1s2.1 9.7 5.5 13.1c3.4 3.3 8.1 5.4 13.3 5.4 5.2 0 9.9-2.1 13.3-5.4 2.3-2.2 4-5 4.8-8.1 5.3 2.1 10 5.3 13.9 9.2 7.5 7.5 12.1 17.8 12.1 29.2 0 3.9-.5 7.7-1.6 11.3-1.1 3.7-2.6 7.2-4.7 10.5-.1.2-.2.3-.2.5-12.6 11.3-29.3 18.2-47.7 18.2-19.7 0-37.6-7.9-50.5-20.7-12.9-12.8-20.9-30.5-20.9-50.1 0-19.5 8-37.3 20.9-50.1 12.9-12.8 30.8-20.7 50.5-20.7s37.6 7.9 50.5 20.7 20.9 30.5 20.9 50.1c0 17.1-6.1 32.7-16.2 44.9.3-.8.5-1.5.7-2.3 1.1-4 1.7-8.1 1.7-12.3 0-12.4-5-23.6-13.1-31.7zm-34.3-26.4c-8.3 0-15.1 6.6-15.1 14.7s6.7 14.7 15 14.7c7 0 12.9-4.7 14.5-11.1l2.7.9c-.8 3-2.4 5.7-4.6 7.8-3.2 3.1-7.7 5.1-12.6 5.1-4.9 0-9.4-2-12.7-5.1-3.2-3.2-5.2-7.6-5.2-12.4 0-4.8 2-9.2 5.2-12.4 3.2-3.2 7.7-5.1 12.7-5.1 4.9 0 9.4 1.9 12.6 5.1 3.2 3.2 5.2 7.6 5.2 12.4 0 .4.1.8.1 1.1-.9-.3-1.6-.6-2.6-.9v-.2c0-8-6.9-14.6-15.2-14.6zm-.1 23.2c3.9 0 7.3-2.6 8.3-6.2.9.1 1.7.3 2.5.4-1.2 4.8-5.6 8.2-10.8 8.2-6.2 0-11.2-4.9-11.2-11s5-11 11.2-11c5.9 0 10.8 4.5 11.1 10.3-.9-.2-1.7-.3-2.6-.4-.6-4.1-4.2-7.4-8.5-7.4-4.8 0-8.6 3.8-8.6 8.5-.1 4.8 3.8 8.6 8.6 8.6z"/>
  <path d="M143 71.9c-3.3-2.1-8.3-1.6-12.1-1.4-4.3.2-8.7.8-12.9 1.6-8.8 1.7-17.3 4.7-25.3 9-14.9 8-27.3 19.8-36.1 34.3-2.3 3.9-4.4 7.9-6.2 12-1.7 4.1-3.8 8.7-3.9 13.2 0 .9 1.2 1.2 1.7.4 1.7-3.2 2.6-6.8 4-10.2 1.6-3.9 3.4-7.6 5.5-11.2 4-6.9 8.8-13.1 14.4-18.7 11.9-11.8 27-19.8 43.3-23.6 4.8-1.1 9.6-1.9 14.5-2.2 4.1-.3 9.2.5 13-1.2 1-.3.8-1.6.1-2" fill="#5792cd"/>
  <path class="st9" d="M193 94.8c-4.8-6.1-12.3-11-19.1-14.5-3.4-1.8-7-3.3-10.6-4.6-3.2-1.1-7.5-3-10.9-2-.6.2-.9 1.1-.4 1.5 2.4 2 6.1 2.6 9 3.7 3.7 1.3 7.3 3.1 10.8 5.1 3.3 1.9 6.4 4.1 9.4 6.5 3 2.4 5.6 5.2 8.5 7.8 2.3 1.9 5.2-1.1 3.3-3.5"/>
  <path class="st0" d="M173.4 70c-.8-4-7.3-5.5-10.6-6.5-4.8-1.5-9.7-2.5-14.7-3-4.9-.6-9.8-.7-14.7-.3-4.5.3-10.1.5-13.8 3.3-.8.6-.9 2.1.3 2.3 1 .2 2 .3 3 .3 0 .2.1.4.4.4.3 0 .4-.2.4-.5 3.1-.1 6.3-.8 9.3-1 4.8-.2 9.7-.1 14.5.7 4.5.7 9.1 1.7 13.4 3.2 3.3 1.1 8.5 4.5 12 2.7.4-.3.6-1 .5-1.6"/>
  <path class="st0" d="M220.8 143c-2.7-11-7.9-23.6-16.9-30.8-.5-.4-1.2.1-.9.7 2.6 5 5.7 9.6 8.1 14.6 2.5 5.3 4.5 10.9 5.9 16.6 1.3 5.6 2 11.3 2.1 17 0 2.7-.1 5.4-.4 8.1-.3 2.8-1.1 5.6-.5 8.4.3 1.2 1.8 1.1 2.4.3 1.6-2.2 1.7-5.2 2-7.8.3-3 .5-6 .5-9-.1-6.1-.8-12.2-2.3-18.1"/>
  <path d="M216.8 106.9c-1.6-3.2-3.6-6.2-5.7-9.1-4-5.4-9-11.1-15.2-13.9-1-.4-2.5.6-1.7 1.7 3.9 5.4 9.2 9.4 13.1 14.9 1.9 2.7 3.6 5.5 5.1 8.4 1.3 2.5 2.5 5.8 4.9 7.5.6.4 1.6 0 1.8-.7.7-3-1-6.3-2.3-8.8" fill="#f2d54d"/>
  <path class="st1" d="M226.4 130.9c-1-2.7-1.9-5.6-3.4-8.2-.7-1.2-2.2-.3-2.1.9.4 3.2 1.5 6.3 2.5 9.3.8 2.5 1.4 5.3 3.3 7.2.7.7 1.7.1 1.7-.7.4-2.9-1-5.8-2-8.5"/>
  <path class="st1" d="M83.4 77.5c-1.8.6-3.3 2-4.9 3.1-1.7 1.2-3.3 2.5-4.9 3.8-3.3 2.8-6.1 5.8-8.9 9.2-.3.5.2 1 .7.7 3-2.7 6.1-5.3 9.3-7.8 1.6-1.3 3.3-2.6 5-3.8 1.5-1.1 3.4-2 4.7-3.4.8-.7.1-2.2-1-1.8"/>
  <path class="st2" d="M111.4 59.1c-4.4-2.8-11.4-1.3-16.1 0-2.6.7-5.2 1.7-7.6 2.9-2.3 1.1-5.5 2.5-6.6 4.9-.3.7 0 1.6.9 1.6 2.1-.1 3.9-1.5 5.8-2.4 2.6-1.3 5.2-2.3 8-3 2.6-.7 5.2-1.1 7.9-1.3 2.5-.2 5-.1 7.4-1.1.8-.4.9-1.2.3-1.6"/>
  <path class="st2" d="M187.5 73.2c-1.3-1.4-2.9-2.4-4.7-3.1-1.7-.7-3 2.3-1.3 3.1 1.7.8 2.9 1.9 4.2 3.2.7.7 2.3 3.1 3.5 1.7.9-1.4-.8-3.9-1.7-4.9"/>
  <path class="st3" d="M198.9 69.6c-2.8-2.6-5.8-5-9-7.1-6.1-3.9-14.3-7.9-21.7-7.4-.9.1-1.6 1.5-.5 2 3.1 1.4 6.5 2.3 9.8 3.5 3.5 1.3 6.9 3.1 10.1 5.1 3.1 1.9 6 4.2 8.6 6.6 2.3 2.2 4.4 5.8 7.5 7 .7.3 1.5-.4 1.5-1.1-.5-3.4-4-6.3-6.3-8.6"/>
  <path class="st3" d="M227 110.3c-1.2-1.2-3.2.3-2.7 1.8.7 1.7 1.5 3.2 2.1 5 .5 1.7.7 3.2 1.9 4.5.6.6 1.7.3 2-.4 1.8-3.2-1.1-8.5-3.3-10.9"/>
  <path class="st3" d="M147.1 55.1c-2.1-2.1-6-2.1-8.8-2.3-3.3-.2-6.7-.1-9.8 1.3-.6.3-.2 1.1.3 1.1 3.1.4 6.3.2 9.5.4 2.7.2 5.9 1.5 8.5.7.5-.1.7-.8.3-1.2"/>
  <path class="st3" d="M107 66c-2-.1-3.7.7-5.4 1.5-1.8.8-3.9 1.5-5.3 2.9-.7.7-.2 1.9.8 1.9 1.9 0 3.7-1 5.4-1.7 1.9-.8 3.7-1.5 5.1-3.1.4-.7.2-1.5-.6-1.5"/>
</svg>