<svg xmlns="http://www.w3.org/2000/svg" width="291.1" height="75.6" viewBox="0 0 291.1 75.6">
  <style>
    .st1{fill:#6e72b4}.st2{fill:#fff}
  </style>
  <path fill="#6e6f71" d="M2.9 40.5h81V75h-81z"/>
  <path class="st1" d="M0 0h283.7v34.1H0z"/>
  <path class="st2" d="M10.3 29.1l-2.7.1v-2.4-3.6c0-2.1 0-3.7.1-5 .1-4.1.1-6.4.1-6.8v-.9c0-.5 0-.9.1-1.2H5.3l.1-1.7.1-1.7L8 6h2.5l2.5.1v3.4h-2.4v2c0 1.1 0 2-.1 2.7v.9l-.2 6.9v7.1z"/>
  <path class="st2" d="M15.4 11.7l.1-5.8 1.6.1 1.3.1v2.4c0 1 0 3.6-.1 7.9-.1 4.3-.1 7.3-.1 9.2V29.3h-2.8V11.7z"/>
  <path class="st2" d="M24.2 9.1v2c0 1.3 0 2.4-.1 3v.9h2.4v3h-2.6V25.7H25l1.7.1-.1 1.7-.1 1.7-3.1-.1H21l.1-2.4V23c0-2.1.1-3.7.1-4.9.1-4.3.1-6.7.1-7.1 0-.5.1-2.3.1-5.5l2.5.1h2.6V9h-2.3z"/>
  <path class="st2" d="M29.9 9.4l.1-3.1h1.2c.6 0 1 0 1.1.1.1 0 .2.2.3.5l.3 1.2c.1.4.4 1.4.8 3.2.4 1.8.8 3.4 1.2 5l.6 2.4V18v-3.3-4c0-2.6.1-4 .1-4.2 0-.1.1-.1.3-.1h1c.8 0 1.3.1 1.3.2 0 .2-.1 2.9-.2 8.1-.1 5.2-.2 8.8-.3 10.8v3.6l-1.8.1-3.3-11.7v3.3c0 1.2 0 2.7-.1 4.5l-.1 3.8h-1c-1.1 0-1.7-.1-1.7-.1v-.2c.1-.6.2-3.3.2-8.2-.2-4.7-.1-8.4 0-11.2z"/>
  <path class="st2" d="M43.7 9.1v2c0 1.3 0 2.4-.1 3v.9H46v3h-2.6V25.7h1.1l1.7.1-.1 1.7-.1 1.7-3.1-.1h-2.4l.1-2.4V23c0-2.1.1-3.7.1-4.9.1-4.3.1-6.7.1-7.1 0-.5.1-2.3.1-5.5l2.5.1H46V9h-2.3z"/>
  <path class="st2" d="M49.3 9.4l.1-3.1h1.2c.6 0 1 0 1.1.1.1 0 .2.2.3.5l.3 1.2c.1.4.4 1.4.8 3.2.4 1.8.8 3.4 1.2 5l.6 2.4V18v-3.3-4c0-2.6.1-4 .1-4.2 0-.1.1-.1.3-.1h1c.8 0 1.3.1 1.3.2 0 .2-.1 2.9-.2 8.1-.3 5.3-.4 8.9-.4 10.9v3.6l-1.8.1-3.3-11.7v3.3c0 1.2 0 2.7-.1 4.5l-.1 3.8h-1c-1.1 0-1.7-.1-1.7-.1v-.2c.1-.6.2-3.3.2-8.2-.1-4.8 0-8.5.1-11.3z"/>
  <path class="st2" d="M69.5 5.9c.4-.1.7-.1 1.2-.1 1.1 0 1.9.2 2.6.5.5.3.8.6 1.1 1.1.2.4.3 1.7.3 3.7 0 .4 0 2.4-.1 6-.1 6-.1 9.3-.2 9.7-.2.9-.6 1.5-1.4 2s-1.8.7-3.1.7h-.3c-1.1 0-1.9-.3-2.3-.8-.6-.7-.8-1.7-.8-3v-.2l.1-7.4c.1-5.7.2-8.8.2-9.5.1-.6.4-1.2.8-1.7.6-.5 1.2-.8 1.9-1zm1.2 3.2c-.5 0-.8.4-.9 1-.1.6-.2 2.6-.2 6 0 2.8-.1 5.6-.1 8.5v1.5c0 .3 0 .5.1.6 0 .1.1.2.3.2.1.1.3.1.6.1.4 0 .8-.1 1-.3.1-.1.2-.7.3-1.7 0-1 .1-3.2.1-6.6v-7.7c0-.6-.1-1-.2-1.3-.1-.3-.4-.4-.8-.4h-.1l-.1.1z"/>
  <path class="st2" d="M80.7 6h2.1c.6 0 1 .1 1.2.2.2.1.5.4.8.8.2.4.4 1.2.4 2.3v2.5c0 1.8-.1 3-.1 3.5-.1.5-.2.9-.4 1.2l-.3.3-.3.3c-.1.1-.1.1-.1.2s0 .1.1.2.1.1.3.2c.1.1.2.1.2.1.2.1.3.4.3.9.1.5.1 1.7.1 3.5v3.9c0 .5-.1 1-.3 1.4-.2.4-.3.7-.5.9-.1.2-.4.3-.9.4-.4.1-.8.2-1.2.2h-4.7l.1-8.8c.1-5.3.1-9.1.2-11.5l.1-2.7h2.9zm1.2 12.8c-.2-.2-.8-.4-1.7-.4v1.5c-.1 1.1-.1 2.4-.1 3.8V26h.9c.6 0 1-.2 1.2-.6.1-.4.2-1.3.2-2.8 0-2.2-.2-3.5-.5-3.8zm.5-7.4V11v-.4-.5c0-.7-.2-1-.5-1h-1.4l-.1 2.9-.1 3.1h.9c.5 0 .8-.2 1-.6.2-.4.3-1.1.3-2.3v-.8z"/>
  <path class="st2" d="M88.1 7.5V5.9h1.5c.6 0 1 0 1.2.1.2 0 .3.2.3.4v.1c0 .2 0 1.6-.1 4.1-.1 3.5-.1 6-.2 7.6 0 .6 0 1.7-.1 3.4 0 1.7 0 2.8-.1 3.5v.8H93l.1 1.7c0 .8.1 1.3.1 1.5v.2H92.9c-.9 0-2 0-3.2-.1-.8 0-1.4-.1-1.9-.1h-.2v-1.6c0-1 .1-4.2.2-9.5s.2-8.1.2-8.5v-.4-.8c.1-.3.1-.6.1-.8z"/>
  <path class="st2" d="M95.7 11.7l.1-5.8 1.6.1 1.3.1v2.4c0 1 0 3.6-.1 7.9-.1 4.3-.1 7.3-.1 9.2V29.3h-2.8V11.7z"/>
  <path class="st2" d="M104.8 6h.7c1.3 0 2.2.2 2.6.5.4.3.6.6.7 1 .1.4.2 1.2.2 2.3V13.4l-1.2-.1-1.2-.1V8.8h-.9c-.4 0-.7 0-.8.1-.1 0-.2.2-.3.4 0 .2-.1 2-.2 5.3s-.1 6.2-.1 8.7v.7c0 1.2.1 2 .2 2.3.1.3.5.4 1 .4s.8-.1.9-.4c.1-.2.2-.9.2-2.1v-1.6-1.1c0-.5 0-.7-.1-.8h-.8c-.2 0-.2-.1-.2-.4v-.5-2.2l1.6-.1h.6c.7 0 1.1.1 1.1.2v1.2c0 4.3-.1 6.9-.2 7.9-.1.9-.4 1.6-1 2.1-.5.5-1.3.7-2.3.7h-.7c-.6 0-1.1-.1-1.5-.3-.4-.2-.7-.5-.9-.8-.2-.3-.4-.7-.5-1.3-.1-.6-.2-1.1-.2-1.5v-1.8c0-1.5 0-3.4.1-5.7s.1-4.3.1-6c0-1.7.1-2.6.1-2.8 0-1 .3-1.8.9-2.4.6-.6 1.3-.9 2.1-1z"/>
  <path class="st2" d="M113.6 6.3c0-.1.7-.2 2.2-.2h2l.3 2c.8 7.2 1.5 13.1 2 17.9.1 1.1.2 2 .3 2.6l.1.7-1.5.1-1.3.1c-.1-.9-.2-1.8-.3-2.9 0-.4-.1-.9-.2-1.6-.1-.7-.1-1.2-.2-1.6 0-.4-.1-.6-.1-.6s-.2-.1-.5-.1H114.5l-.4 3c-.1 1.1-.2 2-.3 2.8l-.1.7-1.4.1-1.4.1.1-.7c0-.1.2-1.6.5-4.7s.7-6.4 1.1-10.1c.6-3.7.9-6.2 1-7.6zm2.8 9.4l-.6-5.9-.4 3.5-.6 5.8v.7l2.1-.1-.5-4z"/>
  <path class="st2" d="M124.8 5.6c.4-.2.9-.3 1.6-.3.2 0 .5 0 .8.1.5.1 1 .3 1.5.5.5.3.8.6 1 .9.3.4.4 1.2.4 2.2v1c0 2-.1 3-.2 3.1 0 0-.2.1-.4.1-.1 0-.4 0-.7-.1l-1-.1v-2.3c0-1 0-1.7-.1-1.9 0-.2-.2-.4-.4-.5-.3-.1-.5-.2-.6-.2-.2 0-.4.1-.6.3-.2.2-.3.4-.3.7-.1.4-.1 2.4-.3 5.8-.1 3.5-.2 6.2-.2 8.3v2.1c0 .4 0 .7.1.8.1.1.3.1.6.1h.3l.9.1V24v-1.6c0-.2.1-.3.2-.4h2.3v3c-.1 1.9-.4 3.1-.8 3.7-.5.5-1.5.8-3 .8-.8 0-1.3 0-1.5-.1s-.6-.2-.9-.4c-.5-.4-.8-.8-.9-1.2-.1-.3-.1-2.4-.1-6.2 0-4 0-7.3.1-10 .1-2.1.2-3.3.4-3.8.3-1.1.9-1.8 1.8-2.2z"/>
  <path class="st2" d="M132.7 11.7l.1-5.8 1.6.1 1.3.1v2.4c0 1 0 3.6-.1 7.9-.1 4.3-.1 7.3-.1 9.2V29.3h-2.8V11.7z"/>
  <path class="st2" d="M140.9 6.1c.6-.1 1.1-.2 1.6-.2 1.5 0 2.6.3 3.6.9.4.3.7.7.8 1.4.1.7.2 1.8.2 3.3V16.1c-.1 4.9-.1 7.6-.1 8.1-.1 1.6-.3 2.8-.6 3.4-.3.7-1 1.2-2 1.5-.4.1-.9.2-1.6.2-.8 0-1.5-.1-2.2-.4-.7-.2-1.2-.6-1.5-.9-.3-.4-.5-1.2-.5-2.3v-7.5-6.1c0-2.3.2-3.8.4-4.4.2-.7.9-1.3 1.9-1.6zm3 8.7V11v-.5-.4c0-.3-.1-.5-.2-.6-.1-.1-.4-.2-.9-.2h-.2c-.4 0-.7.1-.9.2-.2.2-.3.4-.3.9v.5c0 1.9 0 4.3-.1 7.2-.1 2.2-.1 3.8-.1 4.9 0 1.4 0 2.2.1 2.4.2.4.7.6 1.3.6.3 0 .6-.1.7-.2.2-.1.3-.3.4-.6.1-.3.1-1 .1-2.2v-8.2zm-.1-9.5l-2.2-.1 2-2.7 2.8.1-2.6 2.7z"/>
  <path class="st2" d="M150.2 9.4l.1-3.1h1.2c.6 0 1 0 1.1.1s.2.2.3.5l.3 1.2c.1.4.4 1.4.8 3.2.4 1.8.8 3.4 1.2 5l.6 2.4V18v-3.3-4c0-2.6.1-4 .1-4.2 0-.1.1-.1.3-.1h1c.8 0 1.3.1 1.3.2 0 .2-.1 2.9-.2 8.1-.1 5.2-.2 8.8-.3 10.8v3.6l-1.8.1-3.3-11.7v3.3c0 1.2 0 2.7-.1 4.5l-.1 3.8h-1c-1.1 0-1.7-.1-1.7-.1v-.2c.1-.6.2-3.3.2-8.2-.2-4.7-.1-8.4 0-11.2z"/>
  <path class="st2" d="M167.7 5.9c0-.1.7-.1 2-.1h.9c1.4 0 2.3.1 2.6.1.3.1.7.2 1.1.5.7.5 1.1 1.1 1.2 1.7.2.6.3 1.9.3 3.9v1c0 4.2-.1 7.1-.1 8.8-.1 1.6-.2 3.2-.5 4.8-.1.6-.2 1-.3 1.3-.1.2-.3.4-.6.6-.3.2-.6.4-1 .4s-1.3.1-2.7.1h-3.4c-.2 0-.2-.3-.2-1v-.7-.9c.1-1.4.1-3.9.2-7.4.4-8.6.5-12.9.5-13.1zm5.1 7v-4l-1.1-.1-1.1-.1V14c0 .3 0 1.3-.1 3.1-.1 1.7-.1 3.2-.1 4.2l-.1 5.1 1.1-.1c.5 0 .8-.1 1-.1.1-.1.2-.2.3-.5 0-.5.1-4.8.1-12.8z"/>
  <path class="st2" d="M178.7 9.8l.1-3.6h5.9V9h-.2c-1.1 0-2 0-2.9.1V15.9h2.9V19h-1.4c-.9 0-1.3 0-1.4.1 0 0-.1 1.2-.1 3.5v3.3h2.5c.2 0 .3 0 .3.1 0 0 .1.1.1.3V27.9l.1 1.4H178.9v-5.6c0-3.3.1-5.9.1-7.9v-2.6-1.7c-.3-.9-.3-1.4-.3-1.7z"/>
  <g>
    <path class="st2" d="M196.4 6.4c.1-.1.5-.2 1.3-.2 1.3 0 2 .1 2 .3l.1.5v.2c0 .1 0 .3.1.7 0 .3.1.6.1.9l.4 2.9c0 .1.1.4.1 1 .1.5.2 1.2.3 2.1.1.9.2 1.6.3 2.3.2 1.1.3 2.1.4 3.1.1 1 .2 1.7.3 2.1.1.4.1.8.2 1.2.1.4.1.7.1.9.2 1.5.4 2.4.4 2.6.1 1.1.2 1.8.4 2.2v.1c0 .1-.2.1-.7.1h-2.1l-.1-.9c0-.1-.1-.6-.2-1.5-.1-.8-.2-1.5-.3-2l-.3-2.6-1.3-.1h-.5c-.6 0-.9.1-.9.2 0 .2-.1.8-.2 1.9-.2 1.6-.3 2.6-.4 3.1l-.3 1.9H193l.1-.6c.2-1 .7-4.9 1.5-11.8.2-1.6.4-3.2.7-4.9.3-1.7.5-3 .7-4 .2-1.1.3-1.6.4-1.7zm1.7 5.4s0 .3-.1.7c0 .4-.1 1-.2 1.7s-.1 1.2-.2 1.7c-.2 1.8-.4 2.8-.5 3.1v.2c0 .1.1.1.3.1.2 0 .3.1.5.1h.1c.6 0 1 0 1-.1V19c0-.3 0-.7-.1-1-.5-4.2-.8-6.2-.8-6.2z"/>
    <path class="st2" d="M204 7.4V6.1h6.9V9h-2.1l-.1 3.2-.5 17.3h-2.7l.6-20.7H204V7.4z"/>
    <path class="st2" d="M216.4 9.1v2c0 1.3 0 2.4-.1 3v.9h2.4v3l-1.3-.1h-1.3V25.6h1.1l1.7.1-.1 1.7-.1 1.7-3.1-.1h-2.4l.1-2.4v-3.7c0-2.1.1-3.7.1-4.9.1-4.3.1-6.7.1-7.1 0-.5.1-2.3.1-5.5l2.5.1h2.6v3.4h-2.3z"/>
    <path class="st2" d="M222 9.4l.1-3.1h1.2c.6 0 1 0 1.1.1s.2.2.3.5l.3 1.2c.1.4.4 1.4.8 3.2.4 1.8.8 3.4 1.2 5l.6 2.4V18v-3.3-4c0-2.6.1-4 .1-4.2 0-.1.1-.1.3-.1h1c.8 0 1.3.1 1.3.2 0 .2-.1 2.9-.2 8.1-.1 5.2-.2 8.8-.3 10.8v3.6l-1.8.1-3.3-11.7v3.3c0 1.2 0 2.7-.1 4.5l-.1 3.8h-1c-1.1 0-1.7-.1-1.7-.1v-.2c.1-.6.2-3.3.2-8.2-.2-4.7-.1-8.4 0-11.2z"/>
    <path class="st2" d="M233.3 5.9c0-.1.7-.1 2-.1h.9c1.4 0 2.3.1 2.6.1.3.1.7.2 1.1.5.7.5 1.1 1.1 1.2 1.7.2.6.3 1.9.3 3.9v1c0 4.2-.1 7.1-.1 8.8-.1 1.6-.2 3.2-.5 4.8-.1.6-.2 1-.3 1.3-.1.2-.3.4-.6.6-.3.2-.6.4-1 .4s-1.3.1-2.7.1h-3.4c-.2 0-.2-.3-.2-1v-.7-.9c.1-1.4.1-3.9.2-7.4.3-8.6.4-12.9.5-13.1zm5.1 7v-4l-1.1-.1-1.1-.1V14c0 .3 0 1.3-.1 3.1-.1 1.7-.1 3.2-.1 4.2l-.1 5.1 1.1-.1c.5 0 .8-.1 1-.1.1-.1.2-.2.3-.5-.1-.5 0-4.8.1-12.8z"/>
    <path class="st2" d="M244.2 9.8l.1-3.6h5.9V9h-.2c-1.1 0-2 0-2.9.1V15.9h2.9V19h-1.4c-.9 0-1.3 0-1.4.1 0 0-.1 1.2-.1 3.5v3.3h2.5c.2 0 .3 0 .3.1 0 0 .1.1.1.3V27.9l.1 1.4H244v-5.6c0-3.3.1-5.9.1-7.9v-2.6-1.7c.1-.9.1-1.4.1-1.7z"/>
    <path class="st2" d="M253 13.8l.1-6.4v-.9c0-.3 0-.4.1-.5 0-.1.2-.1.4-.1H256.9c.9 0 1.5 0 1.8.1.7.1 1.1.4 1.2.9.2.5.3 1.4.3 2.8v3.9c0 1.1-.1 2-.2 2.6-.1.4-.2.7-.4.9s-.5.4-1 .5l-.7.2.9 3.9c.3 1.3.7 3 1 5.1.1.7.3 1.3.4 1.9v.2c0 .1-.1.2-.2.2h-2.3l-.3-1.3c-.9-4.5-1.4-7.1-1.5-7.7 0 0-.1-.3-.1-.6s-.1-.7-.2-1.1c-.1-.3-.1-.5-.2-.5 0 0-.1.4-.1 1.2V24.5c0 .1 0 1-.1 2.5v2.1h-2.5v-4.4c.3-1.4.3-5.1.3-10.9zm4.6-4.9c0-.2-.5-.3-1.5-.3-.2 0-.4 0-.4.1v1.8c0 .6 0 1.2-.1 1.7l-.1 3.4.9-.1 1-.1.1-3.2V8.9z"/>
    <path class="st2" d="M262.7 7.4V6.1h6.9V9h-2.1l-.1 3.2-.5 17.3h-2.7l.6-20.7H262.7V7.4z"/>
    <path class="st2" d="M272.1 9.8l.1-3.6h5.9V9h-.2c-1.1 0-2 0-2.9.1V15.9h2.9V19h-1.4c-.9 0-1.3 0-1.4.1 0 0-.1 1.2-.1 3.5v3.3h2.5c.2 0 .3 0 .3.1 0 0 .1.1.1.3V27.9l.1 1.4h-6v-5.6c0-3.3.1-5.9.1-7.9v-2.6-1.7-1.7z"/>
  </g>
  <path class="st1" d="M93.4 41.5h197.7v34.1H93.4z"/>
  <g>
    <path class="st2" d="M99.7 47.9c0-.2.1-.3.2-.4.1 0 .5-.1 1.2-.1h1.4l.6 6.6.2 2.2.9-4.1c.2-1.3.5-2.4.7-3.3l.2-1.2h1.2l1.9-.1c0 .3-.5 2.2-1.4 5.7s-1.7 6.1-2.2 8c-.1 2.2-.1 3.6-.1 4.4V70.5h-3l.1-4.8c0-2.5.1-3.9.1-4.1v-.9c-1.4-7.9-2-12.2-2-12.8z"/>
  </g>
  <g>
    <path class="st2" d="M117.3 49.4v-1.9h2.1c.2 0 .4 0 .5.1.1.1.1.1.1.2s.1.2.1.4.1.3.1.5c0 .1.1.4.1.7.1.3.1.6.1.8 0 .1.3 1.1.7 3.1.5 2 .8 3.5 1 4.5.3 1.9.5 2.8.6 2.8.1 0 .1-.7.1-2V47.7h2.7l-.1 4.7c0 .2-.2 5.5-.5 15.9v2.4c0 .1-.4.1-1.2.1h-.2c-.3 0-.4 0-.5-.1-.1 0-.2-.1-.2-.2s0-.2-.1-.5c0-.2-.1-.5-.2-.7-.1-.2-.2-.8-.4-1.6-.2-.9-.3-1.4-.4-1.7-.2-.8-.5-2-.9-3.5s-.7-2.7-.9-3.5c-.2-.9-.4-1.3-.4-1.3v7.9l-.1 5.4h-2.8l.1-5c.2-5.4.2-8.5.3-9.2.3-3.6.3-6 .3-7.4z"/>
    <path class="st2" d="M130.9 47.6c.6-.1 1.1-.2 1.6-.2 1.5 0 2.6.3 3.6.9.4.3.7.7.8 1.4.1.7.2 1.8.2 3.3v4.7c-.1 4.9-.1 7.6-.1 8.1-.1 1.6-.3 2.8-.6 3.4-.3.7-1 1.2-2 1.5-.4.1-.9.2-1.6.2-.8 0-1.5-.1-2.2-.4-.7-.2-1.2-.6-1.5-.9-.3-.4-.5-1.2-.5-2.3v-7.5-6.1c0-2.3.2-3.8.4-4.4.1-.8.8-1.4 1.9-1.7zm2.9 8.7v-3.8-.5-.4c0-.3-.1-.5-.2-.6-.1-.1-.4-.2-.9-.2h-.2c-.4 0-.7.1-.9.2-.2.2-.3.4-.3.9v.4c0 1.9 0 4.3-.1 7.2-.1 2.2-.1 3.8-.1 5 0 1.4 0 2.2.1 2.4.2.4.7.6 1.3.6.3 0 .6-.1.7-.2.2-.1.3-.3.4-.6.1-.3.1-1 .1-2.2v-8.2z"/>
  </g>
  <g>
    <path class="st2" d="M151.2 59.1c-1.3.2-2.1.2-2.4.2 0 0-.1.4-.1 1.2V70.2c0 .2-.1.3-.2.3h-2.1c-.2 0-.2-.1-.2-.2V66v-2.7-4.2c0-1.6 0-3 .1-4l.1-7.4c0-.4.1-.6.4-.6h.6l1.5.1h2.3c.1 0 .4 0 .6.1.3.1.5.2.6.3.1.1.3.3.5.6.3.4.4.8.5 1.3.1.4.1 1.6.1 3.5v1.4c0 .3 0 1-.1 2-.1.9-.2 1.5-.5 1.8-.2.4-.8.7-1.7.9zm-.3-8.8c0-.2-.5-.3-1.5-.3-.2 0-.4 0-.4.1v.5c0 .3 0 .8-.1 1.3s0 1.2-.1 1.7l-.1 3.4.9-.1 1-.1.1-3.2c0-1.4.1-2.3.1-2.7.1-.3.1-.6.1-.6z"/>
    <path class="st2" d="M161.4 58.4l.4-10.9 1.3.1 1.3.1-.1 4.1c0 3.6-.1 7.3-.3 11.3-.1 2.9-.2 4.7-.4 5.6-.2.8-.6 1.5-1.3 2-.4.3-.7.4-1 .5-.3.1-.9.1-1.7.1-1.1 0-1.9-.1-2.4-.3-.5-.2-.9-.6-1.1-1.2-.2-.4-.3-1.2-.3-2.4 0-.2 0-1.2.1-3 .1-6.5.3-11.2.5-14.2l.1-2.2h2.8l-.1.9c-.1.8-.2 4.5-.2 11.1v4.4c0 2.4.1 3.7.3 3.8.1.1.3.1.5.1.6 0 .9-.2 1-.5.3-.6.5-3.6.6-9.4z"/>
    <path class="st2" d="M170.2 50.6v2c0 1.3 0 2.4-.1 3v.9h2.4v3l-1.3-.1h-1.3V67.1h1.1l1.7.1-.1 1.7-.1 1.7-3.1-.1H167l.1-2.4v-3.7c0-2.1.1-3.7.1-4.9.1-4.3.1-6.7.1-7.1 0-.5.1-2.3.1-5.5l2.5.1h2.6v3.4h-2.3z"/>
    <path class="st2" d="M175.9 47.6H180.1c1.3.1 2.2.3 2.7.8s.8 1.3.9 2.5c0 .6.1 1 .1 1.5v1.3c-.1 2.9-.2 5.6-.2 8.3-.1 3.1-.2 5.1-.4 6s-.5 1.6-1.1 2.1c-.4.3-.7.5-1.2.6s-1 .2-1.9.2H177.7l-2.2-.1v-4c0-2.3.1-6 .2-11.3.1-5.2.2-7.9.2-7.9zm4.9 10.5l.2-7.1-1.1-.1h-1c-.1 0-.2 0-.2.1-.1 0-.1.2-.1.4 0 .6-.1 2.6-.2 6 0 .9-.1 1.8-.1 2.9v7.1c.4 0 .7.1 1 .1h.1c.3 0 .6-.1.8-.2.1 0 .1-.1.2-.1s.1-.1.2-.2l.1-.1v-.6-.6c0-.3 0-2.9.1-7.6z"/>
    <path class="st2" d="M189.5 50.6v2c0 1.3 0 2.4-.1 3v.9h2.4v3l-1.3-.1h-1.3V67.1h1.1l1.7.1V69l-.1 1.7-3.1-.1h-2.4l.1-2.4v-3.7c0-2.1.1-3.7.1-4.9.1-4.3.1-6.7.1-7.1 0-.5.1-2.3.1-5.5l2.5.1h2.6v3.4h-2.4z"/>
    <path class="st2" d="M195.1 50.9l.1-3.1h1.2c.6 0 1 0 1.1.1.1 0 .2.2.3.5l.3 1.2c.1.4.4 1.4.8 3.2s.8 3.4 1.2 5l.6 2.4v-.7-3.3-4c0-2.6.1-4 .1-4.2 0-.1.1-.1.3-.1h1c.8 0 1.3.1 1.3.2 0 .2-.1 2.9-.2 8.1-.1 5.2-.2 8.8-.3 10.8v3.6l-1.8.1-3.5-11.7v3.3c0 1.2 0 2.7-.1 4.5l-.1 3.8h-1c-1.1 0-1.7-.1-1.7-.1v-.2c.1-.6.2-3.3.2-8.2.1-4.8.1-8.4.2-11.2z"/>
  </g>
  <g>
    <path class="st2" d="M212.9 49.4v-1.9h2.1c.2 0 .4 0 .5.1.1.1.1.1.1.2s.1.2.1.4.1.3.1.5.1.4.1.7c.1.3.1.6.1.8 0 .1.3 1.1.7 3.1.5 2 .8 3.5 1 4.5.3 1.9.5 2.8.6 2.8.1 0 .1-.7.1-2V47.7h2.7l-.1 4.7c0 .2-.2 5.5-.5 15.9v2.4c0 .1-.4.1-1.2.1h-.2c-.3 0-.4 0-.5-.1-.1 0-.2-.1-.2-.2s0-.2-.1-.5c0-.2-.1-.5-.2-.7-.1-.2-.2-.8-.4-1.6-.2-.9-.3-1.4-.4-1.7-.2-.8-.5-2-.9-3.5s-.7-2.7-.9-3.5c-.2-.9-.4-1.3-.4-1.3v7.9L215 71h-2.8l.1-5c.2-5.4.2-8.5.3-9.2.3-3.6.3-6 .3-7.4z"/>
    <path class="st2" d="M224.1 51.2l.1-3.6h5.9v2.7h-.2c-1.1 0-2 0-2.9.1v6.9h2.9v3.3h-1.4c-.9 0-1.3 0-1.4.1 0 0-.1 1.2-.1 3.5v3.3h2.5c.2 0 .3 0 .3.1 0 0 .1.1.1.3V69.5l.1 1.4h-6v-5.6c0-3.3.1-5.9.1-7.9v-2.6-1.7-1.9z"/>
    <path class="st2" d="M236.2 47.5h.7c1.3 0 2.2.2 2.6.5.4.3.6.6.7 1s.2 1.2.2 2.3V54.9l-1.2-.1-1.2-.1v-4.4h-1c-.4 0-.7 0-.8.1s-.2.2-.3.4c0 .2-.1 2-.2 5.3s-.1 6.2-.1 8.7v.7c0 1.2.1 2 .2 2.3.1.3.5.4 1 .4s.8-.1.9-.4c.1-.2.2-.9.2-2.1v-1.6V63c0-.5 0-.7-.1-.8h-.8c-.2 0-.2-.1-.2-.4v-.5V59l1.6-.1h.6c.7 0 1.1.1 1.1.2v1.2c0 4.3-.1 6.9-.2 7.9-.1.9-.4 1.6-1 2.1-.5.5-1.3.7-2.3.7h-.6c-.6 0-1.1-.1-1.5-.3-.4-.2-.7-.5-.9-.8-.2-.3-.4-.7-.5-1.3-.1-.6-.2-1.1-.2-1.5v-1.8c0-1.5 0-3.4.1-5.7 0-2.3.1-4.3.1-6 0-1.7.1-2.6.1-2.8 0-1 .3-1.8.9-2.4.6-.5 1.3-.9 2.1-.9z"/>
    <path class="st2" d="M245 47.7c0-.1.7-.2 2.2-.2h2l.3 2c.8 7.2 1.5 13.1 2 17.9.1 1.1.2 2 .3 2.6l.1.7-1.5.1-1.3.1c-.1-.9-.2-1.8-.3-2.9 0-.4-.1-.9-.2-1.6s-.1-1.2-.2-1.6c0-.4-.1-.6-.1-.6s-.2-.1-.5-.1H246l-.4 3c-.1 1.1-.2 2-.3 2.8l-.1.7-1.4.1-1.4.1.1-.7c0-.1.2-1.6.5-4.7s.7-6.4 1.1-10.1c.5-3.6.8-6.2.9-7.6zm2.8 9.5l-.6-5.9-.4 3.5-.6 5.8v.7l2.1-.1-.5-4z"/>
    <path class="st2" d="M254.4 55.3l.1-6.4V48c0-.3 0-.4.1-.5 0-.1.2-.1.4-.1H258.3c.9 0 1.5 0 1.8.1.7.1 1.1.4 1.2.9s.3 1.4.3 2.8V55c0 1.1-.1 2-.2 2.6-.1.4-.2.7-.4.9-.2.2-.5.4-1 .5l-.7.2.9 3.9c.3 1.3.7 3 1 5.1.1.7.3 1.3.4 1.9v.2c0 .1-.1.2-.2.2h-2.3l-.3-1.3c-.9-4.5-1.4-7.1-1.5-7.7 0 0-.1-.3-.1-.6-.1-.4-.1-.7-.2-1.1-.1-.3-.1-.5-.2-.5 0 0-.1.4-.1 1.2V66c0 .1 0 1-.1 2.5v2.1h-2.5v-4.4c.2-1.5.2-5.1.3-10.9zm4.6-5c0-.2-.5-.3-1.5-.3-.2 0-.4 0-.4.1v1.8c0 .6 0 1.2-.1 1.7l-.1 3.4.9-.1 1-.1.1-3.2V50.3z"/>
    <path class="st2" d="M264 48.9v-1.3h6.9v2.8h-2.1l-.1 3.2-.5 17.3h-2.7l.6-20.7H264v-1.3z"/>
    <path class="st2" d="M273.5 51.2l.1-3.6h5.9v2.7h-.2c-1.1 0-2 0-2.9.1v6.9h2.9v3.3h-1.4c-.9 0-1.3 0-1.4.1 0 0-.1 1.2-.1 3.5v3.3h2.5c.2 0 .3 0 .3.1 0 0 .1.1.1.3V69.5l.1 1.4H273.7v-5.6c0-3.3.1-5.9.1-7.9v-2.6-1.7c-.3-1-.3-1.5-.3-1.9z"/>
  </g>
  <g>
    <path class="st2" d="M273.8 49.5l2.5.1V53H274l-.2-3.5zm.2-8l2.4-.1v3.2H274v-3.1z"/>
  </g>
  <g>
    <path class="st2" d="M13.9 62.2c0-1-.1-1.6-.4-1.9-.3-.3-.5-.4-.9-.6-.3-.1-.7-.2-1.1-.3-.4-.1-.7-.1-.9-.2-.8-.3-1.3-1.2-1.4-2.6v-.3-.3-1.7V52v-.6-1.9c0-1 .1-1.8.3-2.2.3-.7.9-1.3 1.8-1.6.4-.2 1-.3 1.7-.3.8 0 1.5.1 2.2.4.8.3 1.3.6 1.5.9.2.3.3 1.1.3 2.3v1.5c0 2.2-.1 3.3-.2 3.4-.1.1-.3.1-.6.1-.2 0-.5 0-.9-.1l-1.1-.2v-2.4c0-1.2 0-1.9-.1-2.2-.1-.3-.2-.4-.4-.4h-.6c-.2 0-.4.1-.5.2-.1.1-.2.3-.3.7v4.7c0 1 .2 1.5.7 1.7 0 0 .2.1.6.2.4.1.6.2.6.2.1 0 .3.1.6.2s.5.2.6.3c.1.1.2.2.5.3s.4.3.5.4.2.3.3.5l.3.6c0 .2.1.5.1.7v5c0 3.1 0 4.7-.1 4.9-.1.5-.4.9-1 1.3-.4.3-.7.4-.9.5-.3.1-.8.1-1.6.1-1.6 0-2.6-.3-3.1-.8-.5-.6-.8-1.9-.8-4-.1-1.9-.1-2.9-.2-3.1l2.9-.1c.1.1.2.3.2.5v4l.7-.1 1-.1v-2.1-.8-.4-.7c0-.4-.3-.7-.3-1.3z"/>
    <path class="st2" d="M19.9 52l.1-6.2 1.7.1 1.4.1v2.6c0 1.1 0 3.9-.1 8.5s-.1 7.9-.1 9.9v4H19.8l.1-19z"/>
    <path class="st2" d="M29.4 49.2v2.2c0 1.5 0 2.5-.1 3.3v1h2.6v3.2l-1.4-.1h-1.4v8.3h1.2l1.9.1-.1 1.9-.1 1.7-3.4-.1H26l.1-2.6v-4c0-2.2.1-4 .1-5.3.1-4.7.1-7.2.2-7.6 0-.5.1-2.5.1-5.9l2.7.1H32v3.7h-2.6z"/>
  </g>
  <g>
    <path class="st2" d="M35.2 46.1s.2-.1.6-.1c.2 0 .6 0 1.2.1l1.6.1.4 2.8c.8 5.8 1.3 8.7 1.5 8.7v-.1c.1-.3.5-2.3 1.1-6 .6-3.6.9-5.5 1-5.6.1-.1.6-.1 1.5-.1h1.8l-.1 11.3c0 1.8 0 3.7-.1 5.7 0 2 0 3.6-.1 4.8v3.1l-1.4-.1-1.4-.1V58.5l-.4 2c-.4 1.8-.7 3.3-.9 4.6-.5 2.9-.8 4.4-.9 4.5l-.9.1c-.1-.1-.2-1.3-.5-3.4-.1-.6-.3-2-.7-4.4l-.5-3.1v7.8c0 2.7 0 4.1-.1 4.2l-1.6-.1-1.3-.1V56.7c.1-7 .1-10.5.2-10.6z"/>
  </g>
  <g>
    <path class="st2" d="M54.3 58.4c-1.4.2-2.2.3-2.6.3 0 0-.1.4-.1 1.3v10.5c0 .2-.1.3-.2.3H49c-.2 0-.3-.1-.3-.2V66v-2.9-4.5c0-1.8 0-3.2.1-4.3l.1-8c0-.4.1-.6.4-.6h.7l1.7.1h2.5c.2 0 .4.1.7.1.3.1.5.2.6.3.1.1.3.3.5.6.3.4.4.9.5 1.4s.1 1.7.1 3.8v1.5c0 .3 0 1.1-.1 2.1-.1.9-.2 1.6-.5 1.9-.1.4-.8.7-1.7.9zm-.4-9.6c0-.2-.6-.3-1.6-.3-.3 0-.4 0-.4.1v.5c0 .3 0 .8-.1 1.5 0 .6 0 1.2-.1 1.8l-.1 3.7 1-.1 1.1-.1.1-3.4c0-1.5.1-2.5.1-2.9v-.8z"/>
    <path class="st2" d="M59.7 56.9l.3-11.2h6.4c.6.1 1.1.3 1.3.7.2.4.3 1.2.3 2.4V52.4c0 2.3-.1 3.8-.2 4.5-.1.7-.7 1.2-1.9 1.4-.2 0-.4.1-.5.2l.6 3.2.8 4.1c.2 1.3.4 2.3.5 2.8l.4 2.1-1.3.1-1.4.2-.6-3-1.7-9.6-.3 3.5-.3 9.1H59.5v-1.4c0-.1 0-4.3.2-12.7zm5.2-7.4c-.3-.3-.7-.4-1.1-.4h-.1l-.9.1v7c0 .1.1.1.3.1.3 0 .7-.1 1.2-.3.3-.1.6-.2.7-.4.1-.1.2-.4.2-.9.1-1 .2-1.9.2-2.9v-.4c-.2-1.1-.3-1.8-.5-1.9z"/>
    <path class="st2" d="M71.1 49.9l.1-3.9h6.4V49.1h-.2c-1.2 0-2.2 0-3.1.1v7h3v3.6h-1.6c-.9 0-1.4 0-1.5.1 0 0-.1 1.3-.1 3.8v3.6h2.7c.2 0 .3 0 .4.1 0 0 .1.1.1.3v1.7l.1 1.5h-6.2v-6.1c0-3.5.1-6.4.1-8.6v-2.8-1.8c-.2-.8-.2-1.4-.2-1.7z"/>
  </g>
</svg>