<svg xmlns="http://www.w3.org/2000/svg" width="176.7" height="259.4" viewBox="0 0 176.7 259.4">
  <path d="M148.1 252l-4.8-124.7c.9-2.6 3.1-4.4 5.7-4.5l20.5-.8c4.1-.2 7.4-4 7.3-8.5l-.1-2.5-5-5.8-66.7-77-4.8-5.5c-2.8-3.2-7.5-3.3-10.4-.1l-1 1.1-4.3 5.3L21 110.7l-3.6 4.6c-1.6 2.1-2.1 4.8-1.6 7.3 1.2 2.9 3.9 4.9 7 4.7l5.2-.2 16.7-.6c2.6-.1 4.9 1.6 5.9 4.1l-.1-4.3 1.9 133 95.7-7.3z" fill="#fff"/>
  <path d="M140.3 239.6l-4.8-124.7c.9-2.6 3.1-4.4 5.7-4.5l20.5-.8c4.1-.2 7.4-4 7.3-8.5l-.1-2.5-5-5.8-66.7-77-4.8-5.5C89.5 7 84.8 7 81.9 10.1l-1 1.1-4.2 5.4-63.5 81.7-3.6 4.6C8 105 7.5 107.8 8 110.3c1.2 2.9 3.9 4.9 7 4.7l5.2-.2 16.7-.6c2.6-.1 4.9 1.6 5.9 4.1l-.1-4.3 1.9 133 95.7-7.4z" fill="none" stroke="#eb008b" stroke-width="15.5906" stroke-miterlimit="22.9256"/>
</svg>