<svg xmlns="http://www.w3.org/2000/svg" width="232.1" height="25.6" viewBox="0 0 232.1 25.6">
  <style>
    .st0{fill:#f9c3d3}
  </style>
  <path class="st0" d="M80.4 20.8v2.1c-.1.2-.3.3-.5.4-.4.1-.8.2-1.1.2-.4.1-.8.1-1.1 0H72.1c-.2 0-.3-.1-.3-.3v-.4-1.3-8.1-.3-.3-.4-1.3-.5-1-1c0-.4-.1-.8-.1-1.2 0-.4-.1-.8-.1-1.2V4.8v-.5-.5-.3-.3-.1c0-.2.1-.4.3-.4.2-.2.7-.4 1.6-.4h1.2c.6 0 1.1-.1 1.7-.1h2.7c.7 0 1.1.1 1.3.2.2.1.3.3.4.6v1.5c0 .2 0 .4-.1.5 0 .2-.2.4-.5.4-.4.1-.8.2-1.2.2-.4.1-.8.1-1.2 0h-2.5V7.3c0 .4 0 .8.1 1.2 0 .4.1.8.1 1.2 0 .4 0 .8-.1 1.2v2.4H79c.4 0 .7.2.8.5v.4c0 .4-.1.7-.1 1.1s-.1.7-.1 1.1c-.1.4-.4.5-.9.5-.6 0-1.2-.1-1.8-.1H75V20c.5 0 1-.1 1.6-.1.5 0 1 0 1.5.1h.9c.6 0 1 .1 1.2.2 0 .2.1.4.2.6M68.9.7c.1.2.2.4.4.7.1.3.2.8.1 1.3-.1.1-.1.2-.2.3 0 .1-.1.2-.2.2-.1.1-.2.1-.3.2-.1.1-.3.2-.5.3-.2.3-.3.4-.4.4l-.2.2s-.1.1-.2.1-.2.1-.3.2c-.6.4-1.2 1-1.7 1.7-.4.7-.8 1.5-1.3 2.5 0 .2-.1.5-.2.7-.1.2-.1.4-.2.6-.4 1.5-.5 2.9-.3 4.2v.7c0 .2.1.4.2.8.1.3.2.6.3 1l.3.9c.1.3.2.5.2.6.3.7.7 1.3 1 1.7.3.4.8.8 1.4 1.2.4.3.7.4 1 .5.2.1.5.2.7.2h.1l.4.2c.1.1.1.2.1.4 0 .3 0 .6-.1 1 0 .3-.1.7-.3 1-.3.6-.7 1-1.3 1H67c-1.1-.3-2.3-1-3.6-2.3-1.2-1.1-2-2.3-2.5-3.4-.5-1.2-.8-2.2-.9-3.1-.1-.5-.2-1-.2-1.4 0-.4 0-.8-.1-1.1v-.3-1c0-.3 0-.7.1-1v-.3-.3c0-.7.1-1.5.4-2.4.1-.5.3-1 .4-1.5.2-.4.3-.8.5-1.2.8-1.6 1.6-2.8 2.4-3.5l.5-.5c.3-.3.5-.5.8-.7.2-.2.5-.4.7-.5.2-.1.5-.3.7-.4l.9-.3c.5-.2.9-.2 1.2-.1.2.1.4.2.5.4l.1.1zM50.1 6v15.2c0 .1 0 .2-.1.3 0 .1-.1.2-.2.2H49c-.2 0-.4-.1-.6-.1-.2 0-.4-.1-.5-.1-.1 0-.3-.1-.5-.2-.3-.1-.6-.3-1.1-.5-.5-.3-.9-.6-1.1-.9-.3-.3-.5-.6-.7-.9-.3-.4-.5-.7-.7-1-.2-.3-.3-.7-.5-1.2-.1-.2-.1-.5-.2-.8 0-.4-.1-.7-.1-1.1 0-.4-.1-.7-.1-1v-.6-1.2c.1-.4.1-.8.2-1.2 0-.2.1-.4.1-.6-.2-.5-.2-.7-.1-.9.1-.3.2-.6.4-.9.2-.3.4-.7.6-1 .2-.2.3-.4.4-.6.1-.2.2-.3.4-.4.1-.1.2-.3.4-.4.1-.1.3-.2.5-.4s.7-.5 1.1-.7c.5-.3 1-.5 1.4-.5.4 0 .8 0 1.1-.1.3 0 .4 0 .4.1.1 0 .1.1.1.3 0 .2.1.3.1.5v.5c0 .2.1.2.1.2zm8.7 6.8V14c-.1.4-.1.8-.2 1.2 0 .2-.1.4-.1.6-.1.2-.1.4-.2.6-.1.3-.2.6-.4.9s-.3.7-.5 1c-.2.2-.3.4-.5.6-.1.2-.3.3-.4.4-.1.1-.2.2-.4.3-.1.1-.3.2-.5.4-.4.2-.8.5-1.3.8-.5.3-.9.5-1.4.5-.4 0-.8.1-1.1.1-.3 0-.4 0-.4-.1-.1 0-.1-.1-.1-.3 0-.2-.1-.3-.1-.5V20v-.2-1.5-1.6-1.4-.8-1.2-1.6-1.4-.7-.7-1.3-1.3-.7-.5-.5-.3c0-.1.1-.2.2-.2h.9c.4.1.8.1 1.1.2.1 0 .3.1.5.2.3.1.6.3 1.1.5.5.3.9.6 1.1.9.3.3.5.6.7.9.3.4.5.7.7 1 .2.3.3.7.5 1.2.1.2.1.5.2.8.1.4.1.7.1 1.1 0 .4.1.7.1 1 .4.6.4.8.4.9zM33 11.3c-.1-.1-.1 0-.2.2V14.3c0 .4.1.9 0 1.3V23.8c0 .2 0 .4-.1.6 0 .2-.1.4-.2.6-.1.2-.3.4-.5.4-.5 0-1 .1-1.4 0-.4 0-.8-.1-1.2-.2-.1 0-.1-.1-.2-.1s-.1-.1-.2-.1c-.2-.1-.3-.3-.3-.4v-.5-.9-.9-.5-1.1c0-.6 0-1.2.1-2s0-1.5 0-2.3v-2.1c0-.3 0-.7-.1-1.4 0-.6 0-1.3-.1-2 0-.7 0-1.4-.1-2V7.7 6 4.9v-3-.6c0-.2 0-.4.1-.6 0-.2.1-.3.3-.4.2 0 .3-.1.5-.1.2-.1.3-.1.5-.1h2.2c.1 0 .2 0 .5.1.2 0 .3.2.4.5l.3.9c.1.3.1.7.2 1.1.1.4.1.7.2.9.2.5.3 1 .4 1.5.1.5.3 1 .4 1.5 0 .1.1.4.2.8s.2.8.3 1.3c.1.5.3 1 .4 1.6.1.6.3 1.1.4 1.6.1.5.3 1 .4 1.4.1.4.2.7.2.9 0 .2.1.3.1.5.1.2.1.4.2.6.1.1.1 0 .1-.1 0-.2.1-.4.1-.7v-1.1-1.2-1-1.6-.7V8v-.9-.7c0-.4 0-.8-.1-1.2 0-.3 0-.7-.1-1.2V2.7 1.6v-.2-.3c0-.1.1-.3.2-.4.1-.1.3-.2.7-.2.1 0 .2 0 .4-.1.2 0 .4 0 .6-.1h1.1c.3 0 .5.1.7.3.6-.1.7.1.6.4 0 .5-.1 1-.1 1.5v21.8c0 .3 0 .5-.1.5 0 .2-.2.3-.4.4-.2.1-.4.1-.6.1h-1.9c-.1 0-.3-.1-.5-.1s-.4-.1-.6-.2c-.3-.2-.5-.4-.6-.8 0-.6-.1-1.2-.3-1.8-.2-.6-.3-1.2-.3-1.8-.2-1.1-.4-2.2-.7-3.3-.3-1.1-.6-2.2-.8-3.3-.1-.5-.2-.9-.4-1.4-.4-.4-.5-.9-.7-1.3zM18.9 6v15.2c0 .1 0 .2-.1.3 0 .1-.1.2-.2.2h-.8c-.2 0-.4-.1-.6-.1-.2 0-.4-.1-.5-.1-.1 0-.3-.1-.5-.2-.3-.1-.6-.3-1.1-.5-.5-.3-.9-.6-1.1-.9-.3-.3-.5-.6-.7-.9-.3-.4-.5-.7-.7-1-.2-.3-.3-.7-.5-1.2-.1-.2-.1-.5-.2-.8 0-.4-.1-.7-.1-1.1 0-.4-.1-.7-.1-1v-.6-1.2c.1-.4.1-.8.2-1.2 0-.2.1-.4.1-.6.1-.2.1-.4.2-.6.1-.3.2-.6.4-.9.2-.3.4-.7.6-1 .2-.2.3-.4.4-.6.1-.2.2-.3.4-.4.1-.1.2-.3.4-.4.1-.1.3-.2.5-.4.4-.2.8-.5 1.3-.8.5-.3 1-.5 1.4-.5.4 0 .8 0 1.1-.1.3 0 .4 0 .4.1.1 0 .1.1.1.3 0 .2.1.3.1.5V6c0 .2-.4 0-.4 0zm8.6 6.8V14c-.1.4-.1.8-.2 1.2 0 .2-.1.4-.1.6-.1.2-.1.4-.2.6-.1.3-.2.6-.4.9-.2.3-.3.7-.5 1-.2.2-.3.4-.5.6-.1.2-.3.3-.4.4-.1.1-.2.2-.4.3-.1.1-.3.2-.5.4-.4.2-.8.5-1.3.8-.5.3-.9.5-1.4.5-.4 0-.8.1-1.1.1-.3 0-.4 0-.4-.1-.1 0-.1-.1-.1-.3 0-.2-.1-.3-.1-.5V20v-.2-1.5-1.6-1.4-.8-1.2-1.6-1.4-.7-.7-1.3-1.3-.7-.5c0-.2 0-.3.1-.5v-.3c0-.1.1-.2.2-.2h.9c.4.1.8.1 1.1.2.1 0 .3.1.5.2.3.1.6.3 1.1.5.5.3.9.6 1.1.9.3.3.5.6.7.9.3.4.5.7.7 1 .2.3.3.7.5 1.2.1.2.1.5.2.8.1.4.1.7.1 1.1 0 .4.1.7.1 1 .3.6.3.8.3.9zM9.1.7c.1.2.2.4.4.7.1.3.2.8.1 1.3-.1.3-.2.4-.2.5 0 .1-.1.2-.2.2s-.2.1-.3.2c-.1.1-.3.2-.5.3-.2.1-.3.2-.4.2 0 .1-.1.1-.2.2 0 0-.1.1-.2.1s-.2.1-.3.2c-.6.4-1.2 1-1.7 1.7-.4.7-.8 1.5-1.3 2.5 0 .2-.1.5-.2.7 0 .2-.1.4-.2.6-.4 1.5-.5 2.9-.3 4.2v.7c0 .2.1.4.2.8.1.3.2.6.3 1l.3.9c.1.3.2.5.2.6.3.7.7 1.3 1 1.7.3.4.8.8 1.4 1.2.4.3.7.4 1 .5.2.1.5.2.7.2h.1l.4.2c.1.1.1.2.1.4 0 .3 0 .6-.1 1 0 .3-.1.7-.3 1-.3.6-.7 1-1.3 1h-.4c-1.1-.3-2.3-1-3.6-2.3-1.2-1.1-2-2.3-2.5-3.4-.5-1.2-.8-2.2-.9-3.1-.1-.5-.2-1-.2-1.4 0-.4 0-.8-.1-1.1v-.3-1c0-.3 0-.7.1-1v-.3-.3c0-.7.1-1.5.4-2.4.1-.5.3-1 .4-1.5.2-.4.3-.8.5-1.2.9-1.7 1.7-2.9 2.5-3.6l.4-.4c.3-.2.6-.5.8-.7.3-.2.5-.3.7-.5.2-.1.5-.3.7-.4l.9-.3c.5-.2.9-.2 1.2-.1.3.1.4.2.5.4l.1.1z"/>
  <path class="st0" d="M176.9 20.8v2.1c-.1.2-.3.3-.5.4-.4.1-.8.2-1.1.2-.4.1-.8.1-1.1 0H168.6c-.2 0-.3-.1-.3-.3v-.4-1.3-8.1-.3-.3-.4-1.3-.5-1-1c0-.4-.1-.8-.1-1.2 0-.4-.1-.8-.1-1.2V4.8v-.5-.5-.3-.3-.1c0-.2.1-.4.3-.4.2-.2.7-.4 1.6-.4h1.2c.6 0 1.1-.1 1.7-.1h2.7c.7 0 1.1.1 1.3.2.2.1.3.3.4.6v1.5c0 .2 0 .4-.1.5 0 .2-.2.4-.5.4-.4.1-.8.2-1.2.2-.4.1-.8.1-1.2 0h-2.5V7.3c0 .4 0 .8.1 1.2 0 .4.1.8.1 1.2 0 .4 0 .8-.1 1.2v2.4h4c.4 0 .7.2.8.5v.4c0 .4-.1.7-.1 1.1 0 .4-.1.7-.1 1.1-.1.4-.4.5-.9.5-.6 0-1.2-.1-1.8-.1H171.9V20c.5 0 1.1-.1 1.6-.1h2.4c.6 0 1 .1 1.2.2s-.3.5-.2.7M165.2 23c.1.2.1.5.1.7 0 .2.1.5.1.8v.5c-.1.1-.2.1-.5.2-.2.1-.5.1-.8.1h-2.2c-.3-.1-.5-.2-.6-.3-.1-.1-.2-.4-.2-.8 0-.2 0-.5-.1-.7 0-.2-.1-.5-.1-.7-.1-.6-.2-1.3-.3-1.9-.1-.6-.2-1.3-.3-1.9-.1-.4-.1-.8-.2-1.2-.1-.4-.1-.8-.2-1.2 0-.3-.1-.6-.2-.8-.1-.3-.1-.5-.2-.8-.2-.6-.3-1.3-.4-1.9-.1-.6-.2-1.3-.4-1.9 0-.2 0-.3.1-.5.1-.1.3-.2.5-.2h2.1c.2 0 .4 0 .5.1.2.1.4.3.5.6.2.8.4 1.7.5 2.5.2.9.3 1.7.5 2.6 0 .3.1.6.2.9.1.3.2.6.2.9l.6 2.4c.4.9.6 1.7.8 2.5zM165 1.8c.7.9 1.1 1.9.9 3.1 0 .5-.1.9-.3 1.3-.2.4-.3.8-.6 1.3-.1.2-.3.5-.5.7l-.6.6c-.5.5-1.1.8-1.7 1.1-.6.2-1.3.3-2 .4-.3 0-.7 0-1-.2-.4-.2-.6-.4-.6-.8v-.7-.7V7v-.9-.6c0-.2 0-.4-.1-.6V3.6 2.3v-.6c0-.2.1-.4.1-.6 0-.2.1-.4.2-.5.1-.1.3-.1.5-.2.3 0 .6-.1.9-.1.3 0 .6-.1.9-.1h1.2c.4.1.8.2 1.1.4.3.2.6.3.8.5.4.3.6.5.8.7zm-7 22.1V25c-.1.1-.3.2-.6.3-.5.1-.8.1-1.1.1-.3 0-.6 0-1-.1h-.5c-.1 0-.2 0-.3-.1-.2-.2-.3-.4-.3-.7v-.3-.3-1.4-1.4c0-.8.1-1.5 0-2.3 0-.7 0-1.5-.1-2.3V15c0-.5.1-1 .1-1.5 0-.4 0-.9.1-1.3v-1.3-.8-1-1.4-1.5-1-1-1.4-1.4c0-.2.1-.3.1-.5s.1-.4.1-.5c.1-.2.2-.4.5-.4h2c.2 0 .4.1.5.2.1.1.2.2.2.5.1.5.2 1 .2 1.4v4.2c0 .7.1 1.4 0 2 0 .6 0 1.3-.1 2v1.6c0 .6-.1 1.2 0 1.8v2.6c0 .3 0 .6.1.9v1.4l.1 5.3zm-5.9-3.1v2.1c-.1.2-.3.3-.5.4-.4.1-.8.2-1.1.2-.4.1-.8.1-1.1 0H143.8c-.2 0-.3-.1-.3-.3v-.4-1.3-8.1-.3-.3-.4-1.3-.5-1-1c0-.4-.1-.8-.1-1.2 0-.4-.1-.8-.1-1.2V4.8v-.5-.5-.3-.3-.1c0-.2.1-.4.3-.4.2-.2.7-.4 1.6-.4h1.2c.6 0 1.1-.1 1.7-.1h2.7c.7 0 1.1.1 1.3.2.2.1.3.3.4.6v1.5c0 .2 0 .4-.1.5 0 .2-.2.4-.5.4-.4.1-.8.2-1.2.2-.4.1-.8.1-1.2 0H147V7.3c0 .4 0 .8.1 1.2 0 .4.1.8.1 1.2 0 .4 0 .8-.1 1.2v2.4h4c.4 0 .7.2.8.5v.4c0 .4-.1.7-.1 1.1 0 .4-.1.7-.1 1.1-.1.4-.4.5-.9.5-.6 0-1.2-.1-1.8-.1H147.1V20c.5 0 1.1-.1 1.6-.1h2.4c.6 0 1 .1 1.2.2-.4.3-.2.5-.2.7zM132 15.1v-1.5-2-1.8-.9c0-.1 0-.4.1-.9V6.4 4.8v-.9-.6c0-.2 0-.4.1-.6v-.2-.2c.1-.1.2-.2.3-.2h.4c.2 0 .4 0 .7.1.2 0 .5.1.7.1s.5.1.6.2c.1 0 .3.1.6.3.3.1.8.4 1.3.7.6.4 1.1.7 1.4 1.1s.6.8.9 1.1c.4.5.7.9.9 1.2.2.4.4.9.6 1.5.1.2.1.6.2 1s.1.9.2 1.3c0 .5.1.9.1 1.2 0 .4.1.6.1.8v1.5l-.3 1.5c0 .3-.1.5-.2.8-.1.3-.2.5-.2.8-.1.3-.3.7-.5 1.1-.2.4-.4.8-.7 1.2-.2.3-.4.6-.6.7-.2.2-.3.4-.5.5-.2.2-.3.3-.5.4-.2.1-.4.3-.6.5-.5.3-1 .6-1.6.9-.6.3-1.2.6-1.8.7-.5 0-1 .1-1.3.1s-.5 0-.5-.1c-.1-.1-.2-.2-.2-.4s-.1-.4-.1-.6v-.6-.3-1.8-2-1.7c.4-.3.4-.6.4-.8zm-11.4-7.5c-.3-.1-.4-.3-.4-.6s0-.5.1-.6 0-.4 0-.7V5c0-.2-.1-.4-.1-.4-.1-.2-.1-.3-.2-.4-.1-.1-.2-.3-.4-.4-.2-.2-.5-.2-.9-.2-.4.1-.7.2-.9.5-.1.1-.2.3-.2.5s-.1.4-.1.6v1.1c.1.8.4 1.6.9 2.2.2.3.4.6.7.9.2.3.5.6.7 1 .3.4.6.8.8 1.2.3.4.5.7.7 1 .2.2.4.5.6.8.7.9 1.2 1.8 1.6 2.8.4 1 .6 2 .7 3.1v1.6c-.1 1.3-.6 2.3-1.7 3.2-.1.1-.2.1-.2.2l-.2.2c-.3.2-.7.4-1 .6-.3.1-.7.2-1.1.2h-1.3c-.4 0-.8-.1-1.2-.2-.3-.1-.6-.2-.8-.3-.2-.1-.5-.3-.8-.6-.2-.2-.4-.4-.7-.6-.2-.2-.4-.4-.6-.7 0-.1-.1-.2-.1-.2 0-.1-.1-.2-.1-.2-.2-.4-.3-.9-.4-1.3-.1-.4-.2-.9-.2-1.4V19c0-.3 0-.6.1-.8 0-.3.1-.5.1-.7 0-.2.1-.3.1-.4.2-.3.4-.5.8-.5h.3c.6.1 1.2.3 1.8.5.2.1.4.2.4.3.1.1.1.2 0 .5 0 .3-.1.6-.1.9v1c0 .4.1.8.1 1.1 0 .3.2.6.4.8.2.2.6.3.9.4.4.1.8 0 1.1-.2.2-.2.4-.4.6-.7.1-.3.2-.6.2-.9 0-.4 0-.8-.1-1.2-.1-.4-.3-.8-.4-1.1-.2-.4-.4-.7-.6-1.1-.2-.4-.4-.7-.7-1.1-.2-.3-.4-.6-.6-1-.2-.3-.4-.7-.6-1-.2-.2-.3-.5-.4-.7-.1-.2-.3-.5-.5-.7-.3-.4-.6-.8-.7-1.1-.2-.3-.4-.7-.5-1 0-.1-.1-.2-.1-.3-.1-.1-.1-.2-.2-.3-.4-.6-.7-1.3-.9-1.9-.2-.7-.3-1.4-.3-2.1-.1-.9 0-1.7.2-2.4.2-.6.5-1.1 1-1.5.7-.5 1.5-.9 2.4-1 .7-.1 1.4-.1 2.1 0 .7.1 1.4.3 2 .7.3.2.6.5.9.8.3.3.5.6.7 1 .1.3.2.5.2.8.1.3.1.6.1.9v2c0 .8-.4 1.1-1.2 1.1h-1.3c-.4-.4-.5-.4-.5-.5zm-19.2 2.2V8.6 7 5.4c0-.5 0-.8.1-1v-.6-1-1.1-.8-.2-.2c.1-.2.2-.3.5-.3h1.7c.5 0 .9 0 1.4.1h5.6c.4 0 .6.2.6.6 0 .4.1.8.1 1.2v2.5c0 .5.1 1.1.1 1.6v6.5c0 .6-.1 1.3-.1 1.9v1.6c0 .5 0 1-.1 1.5s-.1 1-.2 1.5c-.1.4-.2.9-.2 1.3-.1.5-.2.9-.3 1.4-.2.8-.6 1.6-1.1 2.3-.3.3-.7.6-1.1.9-.4.2-.9.4-1.4.4-.5.1-1 0-1.5-.1s-1-.4-1.4-.7c-.4-.3-.7-.6-1-1-.4-.6-.8-1.2-1-1.9-.2-.7-.4-1.3-.5-2 0-.4-.1-.8-.1-1.2v-1.2c0-.4-.1-1-.1-1.8v-2.4V11 9.8zm-1.6-6.9v2.3c0 .2-.1.3-.2.3-.1.1-.4.1-.7.2-.6.1-1.3.1-1.9.1h-1.4V8c0 .4-.1.7 0 1v1.6c0 .4.1.6.1.8V14.7c0 .3 0 .6-.1.9 0 .4-.1.8-.1 1.1 0 .4 0 .8-.1 1.1 0 .3-.1.6-.1.8v2.6c0 .6-.1 1.2-.1 1.8 0 .2-.1.4-.4.4-.9.2-1.8.2-2.8 0-.2 0-.4-.1-.4-.3v-.5-1-1c0-.6-.1-1.2-.1-1.8v-1.7c0-.6.1-1.3.1-1.9v-1.9-1c0-.3 0-.6-.1-1V9.9 8.6v-.4c0-.4-.1-.8-.1-1.2V5.7h-3c-.2 0-.3-.1-.5-.3-.1-.1-.1-.2-.2-.3-.3-.7-.4-1.4-.4-2.1 0-.2.1-.3.3-.4.1-.1.4-.2.8-.2.3 0 .6-.1.9-.1h.9c.7 0 1.4-.1 2.2 0h5.7c.6 0 1 .1 1.2.4.4.1.5.2.5.2z"/>
  <path class="st0" d="M228.6 7.6c-.3-.1-.4-.3-.4-.6s0-.5.1-.6v-.7V5c0-.2-.1-.4-.1-.4-.1-.2-.1-.3-.2-.4-.1-.1-.2-.3-.4-.4-.2-.2-.5-.2-.9-.2-.4.1-.7.2-.9.5-.1.1-.2.3-.2.5s-.1.4-.1.6v1.1c.1.8.4 1.6.9 2.2.2.3.4.6.7.9.2.3.5.6.7 1 .3.4.6.8.8 1.2.3.4.5.7.7 1 .2.2.4.5.6.8.7.9 1.2 1.8 1.6 2.8.4 1 .6 2 .7 3.1v1.6c-.1 1.3-.6 2.3-1.7 3.2-.1.1-.2.1-.2.2l-.2.2c-.3.2-.7.4-1 .6-.4.1-.7.2-1.1.2h-1.3c-.4 0-.8-.1-1.2-.2-.3-.1-.6-.2-.8-.3-.2-.1-.5-.3-.8-.6-.2-.2-.4-.4-.7-.6-.2-.2-.4-.4-.6-.7 0-.1-.1-.2-.1-.2 0-.1-.1-.2-.1-.2-.2-.4-.3-.9-.4-1.3-.1-.4-.2-.9-.2-1.4V19c0-.3 0-.6.1-.8 0-.3.1-.5.1-.7 0-.2.1-.3.1-.4.2-.3.4-.5.8-.5h.3c.6.1 1.2.3 1.8.5.2.1.4.2.4.3.1.1.1.2 0 .5 0 .3-.1.6-.1.9v1c0 .4.1.8.1 1.1 0 .3.2.6.4.8.2.2.6.3.9.4.4.1.8 0 1.1-.2.2-.2.4-.4.6-.7.1-.3.2-.6.2-.9 0-.4 0-.8-.1-1.2-.1-.4-.3-.8-.4-1.1-.2-.4-.4-.7-.6-1.1-.2-.4-.4-.7-.7-1.1-.2-.3-.4-.6-.6-1-.2-.3-.4-.7-.6-1-.2-.2-.3-.5-.4-.7-.1-.2-.3-.5-.5-.7-.3-.4-.6-.8-.7-1.1-.2-.3-.4-.7-.5-1 0-.1-.1-.2-.1-.3-.1-.1-.1-.2-.2-.3-.4-.6-.7-1.3-.9-1.9-.2-.7-.3-1.4-.3-2.1-.1-.9 0-1.7.2-2.4.2-.6.5-1.1 1-1.5.7-.5 1.5-.9 2.4-1 .7-.1 1.4-.1 2.1 0 .7.1 1.4.3 2 .7.3.2.6.5.9.8.3.3.5.6.7 1 .1.3.2.5.2.8.1.3.1.6.1.9v2c0 .8-.4 1.1-1.2 1.1h-1.3c-.3-.4-.4-.4-.5-.5M211.7 6v14.7c0 .2 0 .3-.1.5 0 .1 0 .2-.1.3 0 .1-.1.2-.2.2h-.8c-.2 0-.4-.1-.6-.1-.2 0-.4-.1-.5-.1-.1 0-.3-.1-.5-.2-.3-.1-.6-.3-1-.5-.5-.3-.9-.6-1.1-.9-.3-.3-.5-.6-.7-.9-.3-.4-.5-.7-.7-1-.2-.3-.3-.7-.5-1.2-.1-.2-.1-.5-.2-.8s-.1-.7-.1-1.1c0-.4-.1-.7-.1-1 0-.3-.1-.5-.1-.6v-1.2c.1-.4.1-.8.2-1.2 0-.2.1-.4.1-.6.1-.2.1-.4.2-.6.1-.3.2-.6.4-.9.2-.3.4-.7.6-1 .2-.2.3-.4.4-.6.1-.2.2-.3.4-.4.1-.1.2-.3.4-.4.1-.1.3-.2.5-.4.4-.2.8-.5 1.3-.8.5-.3 1-.5 1.4-.5.4 0 .8 0 1.1-.1.3 0 .4 0 .4.1.1 0 .1.1.1.3 0 .2.1.3.1.5V6c0 .2-.3 0-.3 0zm8.7 6.8V14c-.1.4-.1.8-.2 1.2 0 .2-.1.4-.1.6-.1.2-.1.4-.2.6-.1.3-.2.6-.4.9-.2.3-.3.7-.5 1-.2.2-.3.4-.5.6-.1.2-.3.3-.4.4-.1.1-.2.2-.4.3-.1.1-.3.2-.5.4-.4.2-.8.5-1.3.8-.5.3-.9.5-1.4.5-.4 0-.8.1-1.1.1-.3 0-.4 0-.4-.1-.1 0-.1-.1-.1-.3 0-.2-.1-.3-.1-.5V20v-.2-1.5-1.6-1.4-.8-1.2-1.6-1.4-.7-.7-1.3-1.3-.7-.5-.5-.3c0-.1.1-.2.2-.2h.9c.4.1.8.1 1.1.2.1 0 .3.1.5.2.3.1.6.3 1.1.5.5.3.9.6 1.1.9.3.3.5.6.7.9.3.4.5.7.7 1 .2.3.3.7.5 1.2.1.2.1.5.2.8.1.4.1.7.1 1.1 0 .4.1.7.1 1 .4.6.4.8.4.9zm-22.7-5.9c.2 0 .3.1.3.2.1.1.1.2.1.4v2.4c0 .1 0 .2-.1.3-.1.3-.3.4-.6.4s-.6 0-.9.1h-2.6v1.2c0 .3.1.6.1 1 0 .3 0 .6.1 1v.1c0 .5-.1 1-.1 1.4 0 .5 0 1-.1 1.4v6.1c0 .5-.1.9-.2 1.1-.1.3-.2.5-.4.7-.2.2-.4.3-.6.3-.2 0-.4.1-.7.1-.4 0-.7.1-1.1 0-.4 0-.7-.1-1-.3-.1-.1-.2-.3-.2-.5v-.6-.7-1.2-1.2-.7V18v-1.9-.9c0-.3 0-.6.1-.9v-1.2-1.3-1.3-1.3-.7-.9-.9V6 4.8c0-.5 0-1 .1-1.6 0-.6.1-1.1.1-1.6.1-.5.2-.8.3-1 .1-.3.3-.4.5-.5.4-.1.9-.2 1.3-.2s.9 0 1.3.1c.2 0 .4.1.4.2.1.1.1.2.1.5v1c0 .3 0 .6-.1 1 0 .5-.1.9-.1 1.4v2.8h2.4c.1 0 .3 0 .4-.1.6 0 .9 0 1.2.1zm4.8-4.8V8.7c0 .7 0 1.4-.1 2.1-.1.7-.1 1.4 0 2.1v8.5c0 .7 0 1.4.1 2v1c0 .4 0 .6-.2.7-.2.1-.4.2-.6.2-.3 0-.5.1-.8.1h-1.6c-.3 0-.5-.1-.7-.2-.2-.1-.3-.3-.3-.6v-.3-.3c0-.2 0-.6.1-1v-1.4-1.3-.7c0-.4.1-.7.1-1.1v-1.1V16v-1.4c0-.5.1-1 .1-1.5s.1-1 .1-1.7c0-.2.1-.3 0-.5v-.5V8 5.6c0-.7-.1-1.3-.1-2v-2-.3V1c.1-.3.3-.5.7-.6.2 0 .5-.1.9-.1h1.7c.2 0 .4.2.4.4v.7c.2.1.2.4.2.7zM187.4.7c.1.2.2.4.4.7.1.3.2.8.1 1.3-.1.1-.1.2-.2.3 0 .1-.1.2-.2.2-.1.1-.2.1-.3.2-.1.1-.3.2-.5.3-.2.1-.3.2-.4.2l-.2.2s-.1.1-.2.1-.2.1-.3.2c-.6.4-1.2 1-1.7 1.7s-.9 1.5-1.3 2.5c-.1.2-.2.4-.2.6-.1.2-.1.4-.2.6-.4 1.5-.5 2.9-.3 4.2v.7c0 .2.1.4.2.8.1.3.2.6.3 1l.3.9c.1.3.2.5.2.6.3.7.7 1.3 1 1.7.3.4.8.8 1.4 1.2.4.3.7.4 1 .5.2.1.5.2.7.2h.1l.4.2c.1.1.1.2.1.4 0 .3 0 .6-.1 1 0 .3-.1.7-.3 1-.3.6-.7 1-1.3 1h-.4c-1.1-.3-2.3-1-3.6-2.3-1.2-1.1-2-2.3-2.5-3.4-.5-1.2-.8-2.2-.9-3.1-.1-.5-.2-1-.2-1.4 0-.4 0-.8-.1-1.1v-.3-1c0-.3 0-.7.1-1v-.3-.3c0-.7.1-1.5.4-2.4.1-.5.3-1 .4-1.5.2-.4.3-.8.5-1.2.8-1.6 1.6-2.8 2.4-3.5l.4-.4c.3-.3.5-.5.8-.7.2-.2.5-.4.7-.5.2-.1.5-.3.7-.4l.9-.3c.5-.2.9-.2 1.2-.1.2.1.4.2.5.4.1.2.1.2.2.3z"/>
</svg>