<svg xmlns="http://www.w3.org/2000/svg" width="547.6" height="116.5" viewBox="0 0 547.6 116.5">
  <style>
    .st1{fill:#808184}.st2,.st3,.st4{fill:none;stroke:#808184}.st2{stroke-linecap:round;stroke-linejoin:round;stroke-miterlimit:10;stroke-width:1.4173}.st3,.st4{stroke-width:2.8346}.st3{stroke-linecap:round;stroke-miterlimit:10}.st4{stroke-miterlimit:22.9256}
  </style>
  <path d="M263.2 106.9l-35.4-19.7c-1.2-.7-1.6-2.2-1-3.4.7-1.2 2.2-1.6 3.4-1l35.4 19.7c1.2.7 1.6 2.2 1 3.4-.7 1.2-2.2 1.7-3.4 1zm4-7.1l32.8-59c4.3-7.8 3.1-17.4-3-23.8l1.6-2.9c1.7-3 .6-6.8-2.4-8.4-3-1.7-6.8-.6-8.4 2.4l-1.6 2.9c-8.6-1.7-17.4 2.3-21.7 10.1l-3.5 6.3c-.4.8-.1 1.7.6 2.2.8.4 1.7.1 2.2-.6l3.5-6.3c3.8-6.9 11.8-10.3 19.4-8.3.7.2 1.4-.1 1.8-.8l2.2-4c.8-1.5 2.7-2 4.1-1.2 1.5.8 2 2.7 1.2 4.1l-2.2 4c-.4.6-.2 1.4.3 1.9 5.7 5.4 7.1 13.9 3.2 20.8l-32.8 59-30-16.7 26.2-47.2c.4-.8.1-1.7-.6-2.2-.8-.4-1.7-.1-2.2.6L231.7 80c-2.7-1.5-6.1-.5-7.6 2.2s-.5 6.2 2.2 7.7l35.4 19.7c2.7 1.5 6.2.5 7.7-2.2s.5-6.1-2.2-7.6z" fill-rule="evenodd" clip-rule="evenodd" fill="#368482"/>
  <path class="st1" d="M101.8 100.5c.3.9.7 1.9 1.1 2.8h34.2c.4-.9.8-1.8 1.1-2.8h-36.4z"/>
  <path class="st1" d="M135.9 105.2H104c.6 1 1.4 1.9 2.2 2.8h27.4c1-.9 1.7-1.8 2.3-2.8"/>
  <path class="st1" d="M104.1 84.1H136c-.7-1-1.4-1.9-2.2-2.8h-27.4c-.9.9-1.7 1.8-2.3 2.8"/>
  <path class="st1" d="M100.9 95.7c0 .9.2 1.9.3 2.8h37.5c.2-.9.3-1.8.4-2.8h-38.2z"/>
  <path class="st1" d="M101.3 90.9c-.2.9-.3 1.8-.3 2.8h38.2c0-.9-.2-1.9-.3-2.8h-37.6z"/>
  <path class="st1" d="M131.4 79.3c-6.7-5-16-5-22.8 0h22.8z"/>
  <path class="st1" d="M102.9 86.1c-.4.9-.8 1.8-1.1 2.8h36.4c-.3-.9-.7-1.9-1.1-2.8h-34.2z"/>
  <path class="st1" d="M108.6 110c6.7 5 16 5 22.8 0h-22.8z"/>
  <path class="st2" d="M61.8 62.3v26.2L35.6 75.4z"/>
  <path class="st1" d="M45.4598 39.02118l8.0864-20.89024 20.89024 8.0864-8.0864 20.89024z"/>
  <path class="st1" d="M151.1817 56.95882l5.2706-13.61596 13.61596 5.2706-5.2706 13.61596z"/>
  <path class="st3" d="M109.5 1.4v26.4M96.3 14.6h26.4"/>
  <ellipse transform="rotate(-45 8.11696778 108.41035195)" class="st4" cx="8.1" cy="108.4" rx="6.5" ry="6.9"/>
  <g>
    <path class="st1" d="M466.6 21.9c-.4-.9-.8-1.8-1.3-2.7l-34.1 2.7c-.4.9-.7 1.9-.9 2.8l36.3-2.8z"/>
    <path class="st1" d="M432.2 19.8l31.8-2.5c-.7-.9-1.5-1.8-2.5-2.6l-27.3 2.1c-.7 1-1.4 2-2 3"/>
    <path class="st1" d="M465.6 38.4l-31.8 2.5c.7.9 1.5 1.8 2.5 2.6l27.3-2.1c.8-1 1.5-1.9 2-3"/>
    <path class="st1" d="M467.9 26.6c-.1-.9-.3-1.8-.6-2.7l-37.4 2.9c-.1.9-.2 1.9-.1 2.8l38.1-3z"/>
    <path class="st1" d="M467.9 31.4c.1-.9.2-1.9.1-2.8l-38.1 3c.1.9.3 1.8.6 2.7l37.4-2.9z"/>
    <path class="st1" d="M438.8 45.3c7.1 4.5 16.4 3.7 22.7-1.8l-22.7 1.8z"/>
    <path class="st1" d="M466.6 36.3c.4-.9.7-1.9.9-2.8l-36.3 2.8c.4.9.8 1.8 1.3 2.7l34.1-2.7z"/>
    <path class="st1" d="M459.1 12.9c-7.1-4.5-16.4-3.7-22.7 1.8l22.7-1.8z"/>
  </g>
  <path class="st2" d="M499.5 57.6l-2-26 27.1 11z"/>
  <path class="st1" d="M459.87516 96.92932l6.43552-21.45696 21.45696 6.43552-6.43552 21.45696z"/>
  <path class="st1" d="M362.67469 60.47619l4.19458-13.98388 13.98388 4.19458-4.19458 13.98388z"/>
  <path class="st3" d="M426.8 114.4l-2.1-26.3m14.2 12.1l-26.3 2.1"/>
  <ellipse transform="rotate(-49.469 539.42857466 8.2751658)" class="st4" cx="539.5" cy="8.3" rx="6.5" ry="6.9"/>
</svg>