<svg xmlns="http://www.w3.org/2000/svg" width="227.5" height="34.1" viewBox="0 0 227.5 34.1">
  <style>
    .st1{fill:#fff}
  </style>
  <path fill="#6e72b4" d="M0 0h227.5v34.1H0z"/>
  <path class="st1" d="M12.2 21.2c0-.9-.1-1.5-.4-1.8-.2-.2-.5-.4-.8-.5-.3-.1-.6-.2-1-.2s-.6-.1-.8-.2c-.8-.3-1.2-1.1-1.3-2.4v-.3-.3V14 11.9v-.5-1.8c0-1 .1-1.6.3-2 .3-.7.8-1.2 1.6-1.6.4-.2.9-.3 1.6-.3.8 0 1.4.1 2.1.3.8.2 1.2.5 1.4.8.2.3.3 1 .3 2.1v1.4c0 2-.1 3.1-.2 3.2-.1.1-.2.1-.5.1-.2 0-.5 0-.9-.1l-1-.1v-2.3c0-1.1 0-1.8-.1-2.1 0-.3-.2-.4-.4-.4h-.6c-.2 0-.4.1-.5.2-.1.1-.2.3-.2.6V13.8c0 .9.2 1.4.7 1.6 0 0 .2.1.5.2s.5.2.6.2c.1 0 .2.1.5.2s.5.2.6.3c.1.1.2.2.4.3.2.1.4.3.4.4.1.1.2.3.3.4.1.2.2.4.2.6 0 .2.1.4.1.7v4.7c0 2.8 0 4.4-.1 4.6-.1.5-.4.9-.9 1.3-.3.2-.6.4-.9.4-.2.1-.8.1-1.5.1-1.5 0-2.5-.3-2.9-.8-.4-.5-.7-1.8-.8-3.7-.1-1.8-.1-2.7-.2-2.9l2.7-.1c.1.1.2.3.2.4v3.8l.7-.1.9-.1v-2-.8-.4-.7c0-.2-.1-.7-.1-1.2z"/>
  <path class="st1" d="M17.8 11.7l.2-5.8 1.6.1h1.3v2.4c0 1 0 3.7-.1 7.9-.1 4.3-.1 7.4-.1 9.3V29.3h-2.8l-.1-17.6z"/>
  <path class="st1" d="M34.3 21.2c0-.9-.1-1.5-.4-1.8-.2-.2-.5-.4-.8-.5-.3-.1-.6-.2-1-.2s-.6-.1-.8-.2c-.8-.3-1.2-1.1-1.3-2.4v-.3-.3V14 11.9v-.5-1.8c0-1 .1-1.6.3-2 .3-.7.8-1.2 1.7-1.6.4-.2.9-.3 1.6-.3.8 0 1.4.1 2.1.3.8.2 1.2.5 1.4.8.2.3.3 1 .3 2.1v1.4c0 2-.1 3.1-.2 3.2-.1.1-.2.1-.5.1-.2 0-.5 0-.9-.1l-1-.1v-2.3c0-1.1 0-1.8-.1-2.1 0-.3-.2-.4-.4-.4h-.6c-.2 0-.4.1-.5.2-.2.2-.3.4-.4.7V13.9c0 .9.2 1.4.7 1.6 0 0 .2.1.5.2s.5.2.6.2c.1 0 .2.1.5.2s.5.2.6.3c.1.1.2.2.4.3.2.1.4.3.4.4.1.1.2.3.3.4.1.2.2.4.2.6 0 .2.1.4.1.7v4.7c0 2.8 0 4.4-.1 4.6-.1.5-.4.9-.9 1.3-.3.2-.6.4-.9.4-.2.1-.8.1-1.5.1-1.5 0-2.5-.3-2.9-.8-.4-.5-.7-1.8-.8-3.7-.1-1.8-.1-2.7-.2-2.9l2.7-.1c.1.1.2.3.2.4v3.8l.7-.1.9-.1v-2-.8-.4-.7c.1-.3.1-.8 0-1.3z"/>
  <path class="st1" d="M40.1 9.7l.1-3.7h5.9V8.8h-.2c-1.1 0-2 0-2.9.1V15.7h2.9V19H43s-.1 1.2-.1 3.5v3.4h2.5c.2 0 .3 0 .3.1 0 0 .1.1.1.3V27.9l.1 1.4H40v-5.7c0-3.3.1-5.9.1-8V13v-1.7-1.6z"/>
  <path class="st1" d="M55.8 7.9V6h2.1c.2 0 .4 0 .5.1.1.1.1.1.1.2s.1.2.1.4.1.3.1.5.1.4.1.7c.1.3.1.6.1.8 0 .1.3 1.1.7 3.1.5 2 .8 3.5 1 4.5.3 1.9.5 2.8.6 2.8.1 0 .1-.7.1-2V6.2H64l.2 4.8c0 .2-.2 5.5-.5 15.9v2.4c0 .1-.4.1-1.3.1h-.2c-.3 0-.4 0-.5-.1-.1 0-.2-.1-.2-.2s0-.2-.1-.5c0-.2-.1-.5-.2-.7-.1-.2-.2-.8-.4-1.6-.2-.9-.3-1.4-.4-1.7-.2-.8-.5-2-.9-3.5s-.7-2.7-.9-3.6c-.2-.9-.4-1.3-.4-1.3v7.9l-.2 5.5h-2.8l.1-5c.2-5.4.2-8.5.3-9.3.2-3.6.2-6 .2-7.4z"/>
  <path class="st1" d="M66.9 11.7l.1-5.8 1.6.1H70v2.4c0 1 0 3.7-.1 7.9-.1 4.3-.1 7.4-.1 9.3V29.3H67l-.1-17.6z"/>
  <path class="st1" d="M75.8 9.1v2c0 1.4 0 2.4-.1 3v.9h2.4v3h-2.6V25.7h1.1l1.8.1-.1 1.7-.1 1.7-3.2-.1h-2.4l.1-2.4V23c0-2.1.1-3.7.1-5 .1-4.3.1-6.7.1-7.1 0-.5.1-2.3.1-5.5l2.5.1h2.6V9h-2.3z"/>
  <path class="st1" d="M86.4 15.2V11c0-1.1-.1-1.8-.2-2.2-.1-.4-.4-.6-.8-.6h-.2c-.3 0-.5.2-.7.6-.2.4-.3.8-.3 1.4 0 .1 0 .4-.1 1 0 .6-.1 1.5-.1 2.6s-.1 2.3-.1 3.5c-.1 4.7-.2 7.5-.2 8.3 0 .7.1 1.2.2 1.5.1.3.4.5.9.5.2 0 .5-.1.7-.3.2-.1.3-.4.3-.8.1-.4.1-1.2.2-2.4 0-.3 0-.7.1-1.2 0-.5.1-.9.1-1.3v-.7-.3c-.1-.1-.2-.1-.5-.1H84.9l.1-1.6.1-1.2h1.7c1.2 0 1.8.1 1.9.3v.8c0 1.3 0 2.8-.1 4.5-.1 1.5-.1 2.5-.1 3.2 0 .6-.1 1.2-.3 1.7-.1.5-.3.8-.5.9-.2.1-.5.3-.9.5-.5.3-1.3.4-2.3.4-1.5 0-2.6-.4-3.2-1.2-.5-.6-.7-1.6-.7-3 0 0 0-1.8.1-5.4.3-6.5.4-10.2.4-11.1.1-1.1.4-1.9.9-2.4.7-.6 1.8-1 3.4-1 .8 0 1.5.1 2 .3.6.2 1 .6 1.2 1.1.2.5.3 1.4.3 2.7 0 .1 0 1.4-.1 3.8v1.6l-1.4-.1-1-.1z"/>
  <path class="st1" d="M94.1 6.3c.1-.1.5-.2 1.3-.2 1.3 0 2 .1 2.1.3l.1.5v.2c0 .1 0 .3.1.7 0 .3.1.6.1.9l.4 2.9c0 .1.1.4.1 1 .1.5.2 1.2.3 2.1.1.9.2 1.6.3 2.3.2 1.1.3 2.1.4 3.1.1 1 .2 1.7.3 2.1s.1.8.2 1.2c.1.4.1.7.1.9.2 1.5.4 2.4.4 2.6.1 1.1.2 1.8.4 2.2v.1c0 .1-.2.1-.7.1h-2.1l-.1-1c0-.1-.1-.6-.2-1.5-.1-.8-.2-1.5-.3-2l-.3-2.6-1.3-.1h-.5c-.6 0-.9.1-.9.2 0 .2-.1.8-.2 1.9-.1 1.8-.2 2.8-.3 3.3l-.3 1.9h-2.7l.1-.6c.2-1 .7-5 1.5-11.8.2-1.6.4-3.3.7-4.9.3-1.7.5-3 .7-4 .1-1.1.2-1.7.3-1.8zm1.7 5.4s0 .3-.1.7c0 .4-.1 1-.2 1.7s-.1 1.3-.2 1.7c-.2 1.8-.4 2.8-.5 3.2v.2c0 .1.1.1.3.1.2 0 .3.1.5.1h.1c.6 0 1 0 1-.1V19c0-.3 0-.7-.1-1-.5-4.2-.8-6.3-.8-6.3z"/>
  <path class="st1" d="M103.3 9.4l.1-3.1h1.2c.6 0 1 0 1.1.1.1 0 .2.2.3.5l.3 1.2c.1.4.4 1.4.8 3.2s.8 3.4 1.2 5l.6 2.4V18v-3.3-4c0-2.6.1-4.1.1-4.2 0-.1.1-.1.3-.1h1c.9 0 1.3.1 1.3.2 0 .2-.1 2.9-.2 8.1-.1 5.2-.2 8.9-.3 10.9v3.6l-1.8.1-3.4-11.8V20.9c0 1.2 0 2.7-.1 4.5l-.1 3.8h-1c-1.1 0-1.7-.1-1.7-.1v-.2c.1-.6.2-3.3.2-8.3-.1-4.7 0-8.4.1-11.2z"/>
  <g>
    <path class="st1" d="M126.9 9.5h.6c.2 0 .3 0 .4.1.2.2.3.4.3.7 0 .1 0 .3-.1.7v1.9c-.1 1.1-.1 2.2-.1 3.3v.3c0 1.9-.6 2.9-1.7 3.1l-1.3.4c-.1.1-.3.2-.5.2-.2.1-.4.1-.6.2-.2 0-.3.1-.3.1-.1.1-.2 1.5-.2 4.3v1c0 .2.5.4 1.4.4.9 0 1.3-.1 1.4-.4v-.6-1-.7-.3-.3-.2c0-.1 0-.1.1-.2 0 0 .1 0 .1-.1.1 0 .1-.1.2-.1h1.6c.4 0 .7.1.8.3s.2.4.2.8v1.1c0 1.1-.1 2.2-.2 3.2-.2.7-.5 1.2-.8 1.4-.4.2-1 .3-1.8.3h-.7c-1.8 0-3-.1-3.5-.2s-1-.5-1.4-1c-.2-.2-.3-.4-.3-.6 0-.2-.1-.6-.1-1.2 0-.1 0-1.1.1-2.9l.1-1.6V21v-.8-.6c0-.3 0-.5.1-.5 0-.1.1-.2.1-.4.1-.2.1-.3.2-.4.1-.1.2-.1.3-.3.1-.1.3-.2.4-.3.2-.1.4-.1.6-.2l1.8-.6c.4-.1.7-.2.8-.4.1-.2.2-1.2.2-3v-1.3-1-.8c0-.6.1-.9.2-.9s.2-.1.3-.1c.3 0 .6 0 1.3.1zm.6-1.2h-1c-.3 0-.6-.1-.7-.2-.2-.1-.3-.4-.3-.7V5.3c0-.2 0-.3.1-.4.1-.1.3-.1.6-.1h1.3c.2 0 .3.1.4.2.1.1.1.3.1.6v.1l-.1 2c0 .4-.1.6-.1.6H127.5z"/>
  </g>
  <g>
    <path class="st1" d="M135.5 5.9c.3-.1.7-.1 1.2-.1 1.1 0 2 .2 2.6.5.5.3.8.6 1.1 1.1.2.4.3 1.7.3 3.8 0 .4 0 2.4-.1 6-.1 6.1-.1 9.3-.2 9.8-.2 1.1-.9 1.9-2 2.4l.1.4c.1.4.1.6.1.7v.1c0 .1 0 .1-.1.1 0 0 0 .1-.1.1h-.1-.1c-.1 0-.1 0-.2.1-.5.1-.8.2-1 .2-.2 0-.4-.1-.4-.2l-.3-1.3h-.7c-1.2 0-2.1-.3-2.5-.8-.6-.7-.8-1.7-.8-3v-.2l.1-7.4c.1-5.7.2-8.9.2-9.5.1-.6.4-1.2.9-1.7.5-.6 1.2-.9 2-1.1zm1.2 3.2h-.1-.6s-.1 0-.2.1c-.1 0-.2.1-.2.2s-.1.2-.2.4-.1.3-.2.6c0 .2-.1.5-.1.8s-.1.7-.1 1.1 0 .9-.1 1.5v1.9c0 2.8-.1 5.7-.1 8.6v.3c0 1.3.3 2.1.9 2.5-.3-1.2-.4-2-.4-2.2 0-.2.4-.2 1.1-.2.3 0 .5 0 .6.1.1 0 .2.1.2.1s0 .1.1.3l.3 1.3c.2-.9.2-3.5.3-7.8v-7.8c0-.6-.1-1-.2-1.3s-.4-.6-.8-.6c-.1 0-.1 0-.2.1z"/>
    <path class="st1" d="M148.7 17l.4-11 1.3.1 1.3.1-.1 4.1c0 3.6-.1 7.4-.3 11.4-.1 2.9-.2 4.8-.4 5.6-.2.8-.6 1.5-1.3 2-.4.3-.7.4-1 .5s-.9.1-1.7.1c-1.1 0-1.9-.1-2.4-.3s-.9-.6-1.1-1.3c-.2-.4-.3-1.2-.3-2.4 0-.2 0-1.2.1-3 .1-6.5.3-11.3.5-14.3l.1-2.2h2.8l-.1.9c-.1.8-.2 4.5-.2 11.2v4.4c0 2.4.1 3.7.3 3.8.1.1.3.1.5.1.6 0 .9-.2 1-.5.3-.5.5-3.6.6-9.3z"/>
  </g>
  <g>
    <path class="st1" d="M154.7 9.7l.1-3.7h5.9V8.8h-.2c-1.1 0-2 0-2.9.1V15.7h2.9V19h-1.4c-.9 0-1.3 0-1.4.1 0 0-.1 1.2-.1 3.5V26h2.5c.2 0 .3 0 .3.1 0 0 .1.1.1.3V28l.1 1.4h-5.8v-5.7c0-3.3.1-5.9.1-8v-2.6-1.7c-.2-.8-.2-1.3-.2-1.7zm3.9-4.5l-2.2-.1 2-2.7 2.8.1-2.6 2.7z"/>
  </g>
  <g>
    <path class="st1" d="M175 17.7c-1.3.2-2.1.2-2.4.2 0 0-.1.4-.1 1.2V28.8c0 .2-.1.3-.2.3H170c-.2 0-.2-.1-.2-.2v-4.3-2.7-4.2c0-1.6 0-3 .1-4l.1-7.5c0-.4.1-.6.4-.6h.6l1.5.1h2.3c.1 0 .4 0 .6.1.3.1.5.2.6.3.1.1.3.3.5.6.3.4.4.8.5 1.3.1.4.1 1.6.1 3.5V13c0 .3 0 1-.1 2-.1.9-.2 1.5-.5 1.8-.1.4-.7.6-1.5.9zm-.4-8.9c0-.2-.5-.3-1.5-.3-.2 0-.4 0-.4.1V9c0 .3 0 .8-.1 1.4 0 .6 0 1.2-.1 1.7l-.1 3.4.9-.1 1-.1.1-3.2c0-1.4.1-2.3.1-2.7.1-.3.1-.6.1-.6z"/>
    <path class="st1" d="M180.9 6.2c0-.1.7-.2 2.2-.2h2l.3 2.1c.9 7.2 1.5 13.2 2.1 18 .1 1.1.2 2 .3 2.6l.1.7-1.5.1-1.3.1c-.1-.9-.2-1.8-.3-2.9 0-.4-.1-.9-.2-1.6-.1-.7-.1-1.2-.2-1.6 0-.4-.1-.6-.1-.6s-.2-.1-.5-.1H181.9l-.4 3c-.1 1.1-.2 2-.3 2.8l-.1.7-1.4.1-1.4.1.1-.7c0-.1.2-1.6.5-4.7s.7-6.5 1.1-10.2c.5-3.7.7-6.3.9-7.7zm2.8 9.5l-.6-5.9-.4 3.5-.6 5.8v.7l2.1-.1-.5-4z"/>
    <path class="st1" d="M194.1 21.2c0-.9-.1-1.5-.4-1.8-.2-.2-.5-.4-.8-.5-.3-.1-.6-.2-1-.2s-.6-.1-.8-.2c-.8-.3-1.2-1.1-1.3-2.4v-.3-.3V14 11.9v-.5-1.8c0-1 .1-1.6.3-2 .3-.7.9-1.2 1.7-1.5.4-.2.9-.3 1.6-.3.8 0 1.4.1 2.1.3.8.2 1.2.5 1.4.8.2.3.3 1 .3 2.1v1.4c0 2-.1 3.1-.2 3.2-.1.1-.2.1-.5.1-.2 0-.5 0-.9-.1l-1-.1v-2.3c0-1.1 0-1.8-.1-2.1 0-.3-.2-.4-.4-.4h-.6c-.2 0-.4.1-.5.2-.1.1-.2.3-.2.6V13.9c0 .9.2 1.4.7 1.6 0 0 .2.1.5.2s.5.2.6.2c.1 0 .2.1.5.2s.5.2.6.3.2.2.4.3c.2.1.4.3.4.4.1.1.2.3.3.4.1.2.2.4.2.6s.1.4.1.7v4.7c0 2.8 0 4.4-.1 4.6-.1.5-.4.9-.9 1.3-.3.2-.6.4-.9.4-.2.1-.8.1-1.5.1-1.5 0-2.5-.3-2.9-.8-.4-.5-.7-1.8-.8-3.7-.1-1.8-.1-2.7-.2-2.9l2.7-.1c.1.1.2.3.2.4v3.8l.7-.1.9-.1v-2-.8-.4-.7c-.2-.3-.2-.8-.2-1.3z"/>
    <path class="st1" d="M201.4 6.2c0-.1.7-.2 2.2-.2h2l.3 2.1c.9 7.2 1.5 13.2 2.1 18 .1 1.1.2 2 .3 2.6l.1.7-1.5.1-1.3.1c-.1-.9-.2-1.8-.3-2.9 0-.4-.1-.9-.2-1.6-.1-.7-.1-1.2-.2-1.6 0-.4-.1-.6-.1-.6s-.2-.1-.5-.1H202.4l-.4 3c-.1 1.1-.2 2-.3 2.8l-.1.7-1.4.1-1.4.1.1-.7c0-.1.2-1.6.5-4.7s.7-6.5 1.1-10.2c.5-3.7.8-6.3.9-7.7zm2.8 9.5l-.6-5.9-.4 3.5-.6 5.8v.7l2.1-.1-.5-4z"/>
  </g>
  <g>
    <path class="st1" d="M213.5 25.3h-.5l-.8-.1v-3.9-2.8c0-2 .6-3 1.7-3.1l1.2-.3c.7-.2 1.2-.4 1.4-.5 0 0 .1-.6.1-1.6.1-1.1.1-2 .1-2.8v-.8c0-.2-.4-.3-1.3-.3s-1.4.1-1.5.4v3.4h-3v-2.2c0-1.4.1-2.4.2-3.2.2-.7.5-1.2.9-1.4.5-.2 1.1-.4 1.8-.4l.6.1c1.8 0 3 .1 3.5.2s1 .4 1.4 1c.3.3.4.9.4 1.6v1.3c0 .7 0 1.2-.1 1.7v3.9c0 .3 0 .5-.1.6 0 .1-.1.3-.1.4s-.1.3-.2.4l-.3.3c-.1.1-.3.2-.5.2s-.4.1-.6.1l-1.8.2c-.4.1-.7.3-.8.7s-.1 1-.1 2.1V24.4l-.1 1-1.5-.1zm1.6 1.5V30l-.7-.1h-.5l-.9.1h-.5v-3.6c.4 0 .8 0 1.4.1.6.2 1 .2 1.2.3z"/>
  </g>
</svg>