<svg xmlns="http://www.w3.org/2000/svg" width="854" height="142.6" viewBox="0 0 854 142.6">
  <style>
    .st0{fill:#7c51a0}.st2{fill:#08143c}
  </style>
  <path class="st0" d="M847 78.8h7v7h-7z"/>
  <path class="st0" d="M827.5 78.8h7v7h-7z"/>
  <path class="st0" d="M808 78.8h7v7h-7z"/>
  <path class="st0" d="M788.6 78.8h7v7h-7z"/>
  <path class="st0" d="M769.1 78.8h7v7h-7z"/>
  <path class="st0" d="M749.6 78.8h7v7h-7z"/>
  <path class="st0" d="M730.2 78.8h7v7h-7z"/>
  <path class="st0" d="M710.7 78.8h7v7h-7z"/>
  <path class="st0" d="M691.2 78.8h7v7h-7z"/>
  <path class="st0" d="M671.8 78.8h7v7h-7z"/>
  <path class="st0" d="M652.3 78.8h7v7h-7z"/>
  <path class="st0" d="M632.8 78.8h7v7h-7z"/>
  <path class="st0" d="M613.4 78.8h7v7h-7z"/>
  <path class="st0" d="M593.9 78.8h7v7h-7z"/>
  <path class="st0" d="M574.4 78.8h7v7h-7z"/>
  <path class="st0" d="M827.5 52.6h7v7h-7z"/>
  <path class="st0" d="M808 52.6h7v7h-7z"/>
  <path class="st0" d="M788.6 52.6h7v7h-7z"/>
  <path class="st0" d="M769.1 52.6h7v7h-7z"/>
  <path class="st0" d="M749.6 52.6h7v7h-7z"/>
  <path class="st0" d="M730.2 52.6h7v7h-7z"/>
  <path class="st0" d="M710.7 52.6h7v7h-7z"/>
  <path class="st0" d="M691.2 52.6h7v7h-7z"/>
  <path class="st0" d="M671.8 52.6h7v7h-7z"/>
  <path class="st0" d="M652.3 52.6h7v7h-7z"/>
  <path class="st0" d="M632.8 52.6h7v7h-7z"/>
  <path class="st0" d="M613.4 52.6h7v7h-7z"/>
  <path class="st0" d="M593.9 52.6h7v7h-7z"/>
  <path class="st0" d="M574.4 52.6h7v7h-7z"/>
  <path class="st0" d="M808 26.3h7v7h-7z"/>
  <path class="st0" d="M788.6 26.3h7v7h-7z"/>
  <path class="st0" d="M769.1 26.3h7v7h-7z"/>
  <path class="st0" d="M749.6 26.3h7v7h-7z"/>
  <path class="st0" d="M730.2 26.3h7v7h-7z"/>
  <path class="st0" d="M710.7 26.3h7v7h-7z"/>
  <path class="st0" d="M691.2 26.3h7v7h-7z"/>
  <path class="st0" d="M671.8 26.3h7v7h-7z"/>
  <path class="st0" d="M652.3 26.3h7v7h-7z"/>
  <path class="st0" d="M632.8 26.3h7v7h-7z"/>
  <path class="st0" d="M613.4 26.3h7v7h-7z"/>
  <path class="st0" d="M593.9 26.3h7v7h-7z"/>
  <path class="st0" d="M574.4 26.3h7v7h-7z"/>
  <path class="st0" d="M788.6 0h7v7h-7z"/>
  <path class="st0" d="M769.1 0h7v7h-7z"/>
  <path class="st0" d="M749.6 0h7v7h-7z"/>
  <path class="st0" d="M730.2 0h7v7h-7z"/>
  <path class="st0" d="M710.7 0h7v7h-7z"/>
  <path class="st0" d="M691.2 0h7v7h-7z"/>
  <path class="st0" d="M671.8 0h7v7h-7z"/>
  <path class="st0" d="M652.3 0h7v7h-7z"/>
  <path class="st0" d="M632.8 0h7v7h-7z"/>
  <path class="st0" d="M613.4 0h7v7h-7z"/>
  <path class="st0" d="M593.9 0h7v7h-7z"/>
  <path class="st0" d="M574.4 0h7v7h-7z"/>
  <g>
    <path class="st0" d="M0 49.8h7v7H0z"/>
    <path class="st0" d="M19.5 49.8h7v7h-7z"/>
    <path class="st0" d="M38.9 49.8h7v7h-7z"/>
    <path class="st0" d="M58.4 49.8h7v7h-7z"/>
    <path class="st0" d="M77.9 49.8h7v7h-7z"/>
    <path class="st0" d="M97.3 49.8h7v7h-7z"/>
    <path class="st0" d="M116.8 49.8h7v7h-7z"/>
    <path class="st0" d="M136.3 49.8h7v7h-7z"/>
    <path class="st0" d="M155.7 49.8h7v7h-7z"/>
    <path class="st0" d="M175.2 49.8h7v7h-7z"/>
    <path class="st0" d="M194.7 49.8h7v7h-7z"/>
    <path class="st0" d="M214.1 49.8h7v7h-7z"/>
    <path class="st0" d="M233.6 49.8h7v7h-7z"/>
    <path class="st0" d="M253.1 49.8h7v7h-7z"/>
    <path class="st0" d="M272.6 49.8h7v7h-7z"/>
    <path class="st0" d="M19.5 76.1h7v7h-7z"/>
    <path class="st0" d="M38.9 76.1h7v7h-7z"/>
    <path class="st0" d="M58.4 76.1h7v7h-7z"/>
    <path class="st0" d="M77.9 76.1h7v7h-7z"/>
    <path class="st0" d="M97.3 76.1h7v7h-7z"/>
    <path class="st0" d="M116.8 76.1h7v7h-7z"/>
    <path class="st0" d="M136.3 76.1h7v7h-7z"/>
    <path class="st0" d="M155.7 76.1h7v7h-7z"/>
    <path class="st0" d="M175.2 76.1h7v7h-7z"/>
    <path class="st0" d="M194.7 76.1h7v7h-7z"/>
    <path class="st0" d="M214.1 76.1h7v7h-7z"/>
    <path class="st0" d="M233.6 76.1h7v7h-7z"/>
    <path class="st0" d="M253.1 76.1h7v7h-7z"/>
    <path class="st0" d="M272.6 76.1h7v7h-7z"/>
    <path class="st0" d="M38.9 102.4h7v7h-7z"/>
    <path class="st0" d="M58.4 102.4h7v7h-7z"/>
    <path class="st0" d="M77.9 102.4h7v7h-7z"/>
    <path class="st0" d="M97.3 102.4h7v7h-7z"/>
    <path class="st0" d="M116.8 102.4h7v7h-7z"/>
    <path class="st0" d="M136.3 102.4h7v7h-7z"/>
    <path class="st0" d="M155.7 102.4h7v7h-7z"/>
    <path class="st0" d="M175.2 102.4h7v7h-7z"/>
    <path class="st0" d="M194.7 102.4h7v7h-7z"/>
    <path class="st0" d="M214.1 102.4h7v7h-7z"/>
    <path class="st0" d="M233.6 102.4h7v7h-7z"/>
    <path class="st0" d="M253.1 102.4h7v7h-7z"/>
    <path class="st0" d="M272.6 102.4h7v7h-7z"/>
    <path class="st0" d="M58.4 128.6h7v7h-7z"/>
    <path class="st0" d="M77.9 128.6h7v7h-7z"/>
    <path class="st0" d="M97.3 128.6h7v7h-7z"/>
    <path class="st0" d="M116.8 128.6h7v7h-7z"/>
    <path class="st0" d="M136.3 128.6h7v7h-7z"/>
    <path class="st0" d="M155.7 128.6h7v7h-7z"/>
    <path class="st0" d="M175.2 128.6h7v7h-7z"/>
    <path class="st0" d="M194.7 128.6h7v7h-7z"/>
    <path class="st0" d="M214.1 128.6h7v7h-7z"/>
    <path class="st0" d="M233.6 128.6h7v7h-7z"/>
    <path class="st0" d="M253.1 128.6h7v7h-7z"/>
    <path class="st0" d="M272.6 128.6h7v7h-7z"/>
  </g>
  <path fill-rule="evenodd" clip-rule="evenodd" fill="#fff" stroke="#000" stroke-width="8.5039" stroke-miterlimit="22.9256" d="M193.8 25.2h471.9v113.1H193.8z"/>
  <g>
    <path class="st2" d="M414.4 63c-.1 0-.1-.2-.1-.8 0-.9 0-1.6.1-2.1 0-.3 0-.5.1-.5 0 0 .1 0 .1.1.1.1.1.3.1.8v.8c-.1.9-.2 1.5-.3 1.7m-12.5-3.2c-.1.1-.2.1-.2.1-.2 0-.3-.1-.3-.4l.2-2.5s.1.2.1.5.1.7.1 1.1c0 .4.1.7.1.9.1.1.1.2 0 .3zm-.9-19.5c-.3.1-.4 9.8-.6 28.9v2.7c0 .3 0 .5.1.6.1.1.3.2.7.2h1.4l14-1.5h.2c.2 0 .4 0 .4-.1.1 0 .1-.2.1-.4 0-.1 0-.7.1-1.8s.2-2.4.3-3.9c.1-1.5.2-2.8.3-4v-1c0-.4 0-.8.1-1v-.8-.9c.1-1.7.3-4.4.5-8 .3-3.6.4-5.8.5-6.5v-.3-.4-.5c0-.1-.4-.2-1-.4H416c-.7 0-1.1.3-1.1 1l-.2 2.4-1.8 21.9v.8c0 .2-.1.3-.4.3-2.3.7-5 1-8.1 1-.2 0-.4 0-.4-.1-.1 0-.1-.2-.1-.4v-2c0-6.5.2-14 .5-22.6l.1-2.1c-.1-.4-1.2-.8-3.3-1.3l-.2.2zm16.6 2.2v-.1c.1 0 .1.2.2.6.1.4.1.8.1 1v.1c0 .3-.1.8-.2 1.3s-.2 1-.3 1.4c-.1.4-.2.6-.2.6v-.5V43.8c.3-.7.4-1.1.4-1.3zm-15.3 17.9c.2-.1.3.2.3.8v.1c-.1.8-.2 1.2-.3 1.2 0 0-.1 0-.1-.1-.1-.3-.1-.6-.1-.8-.1-.4 0-.8.2-1.2zm9.9 9.3c.3-.1.6-.2.9-.2h1.7c.2 0 .3 0 .4.1 0 .1 0 .2-.1.2-.3.1-.5.1-.6.1-.1 0-.3 0-.7-.1h-1.5c-.2 0-.3 0-.3-.1h.2zm-32.3-3.6c-.1.2-.2.3-.2.3-.1 0-.1-.3-.1-.9 0-.6.1-1.2.3-1.9.1-.3.2-.5.2-.5.1 0 .1.3.2 1v.4c0 .7-.1 1.3-.4 1.6zm8.3-2.9c-.1 0-.7-.5-1.6-1.7-1-1.2-1.5-1.9-1.7-2.2-.1-.1-.1-.2-.1-.4 0-.1 0-.2.1-.4.1 0 .1.1.2.2s.2.3.3.5c.1.2.3.4.4.5.2.2.6.8 1.3 1.9.7.9 1.1 1.5 1.1 1.6zm6.8-12.6v.5c0 .7 0 1-.1 1-.3 0-.4-.3-.4-.8 0-.3.1-.9.2-2 .1-1 .2-1.5.3-1.5.1 0 .1.2.1.6v1.2c-.1.6-.1.9-.1 1zm-8.4-6.4l6 .3c.2.2.2.5.2 1.1v7.7c0 .1-.4.2-1.1.2-.5 0-1.2 0-2.2-.1-1-.1-1.5-.1-1.5-.1l-6.8-.1.1-8.8c.2-.2 2-.2 5.3-.2zm-7.8.4c0 2.6-.1 3.8-.2 3.8v-.5-1.7V44.5c0-.3 0-.4.1-.4.1.1.1.2.1.5zm4.8-2c-.4.1-.8.1-1 .1-.3 0-.4-.1-.4-.3 0-.2.1-.3.3-.3h.5c.3 0 .6 0 .8-.1.1 0 .1.1.1.2s-.1.3-.3.4zm-5.9-2.1c-.2.5-.4 6.4-.8 17.8-.1 4.6-.3 7.7-.4 9.3 0 .3 0 .9-.1 1.9-.1 1-.1 1.7-.1 2.1 0 .5 0 .8.1 1 .1.1.1.2.2.3.1.1 1 .2 2.5.2h1c.3 0 .4-.1.4-.3v-.4c0-.6.1-2.1.1-4.3 0-1 .1-2.4.1-4.3s0-3.4.1-4.7c0-1.2.1-2.1.2-2.5.2 0 .8.8 2 2.3 6.8 8.8 10.5 13.2 11 13.2l4.1-1.8c0-.1-.1-.2-.2-.5l-3.5-3.7-1.5-1.5c-.8-.8-1.4-1.5-2-2.2-.6-.6-1.2-1.4-1.9-2.1-.7-.8-1.2-1.5-1.6-2-.4-.6-.6-1-.6-1.3 0-.1.9-.1 2.8-.1 4.6 0 6.9-.2 6.9-.5 0-.1 0-.5.1-1.3.1-.7.1-1.7.2-2.8 0-1.1.1-2.2.1-3.3 0-1.7-.1-3.4-.2-5.1-.1-1.7-.2-2.7-.2-2.9 0-.5-2-.8-6.1-.8h-9.1c-2.4-.2-3.6 0-3.6.3zm10.5 13.6c.2 0 .3.1.3.3v.1c-.1.1-.3.1-.5.1h-1.8c-.2 0-.3 0-.3-.1s0-.1.1-.1c.2-.1.4-.1.8-.1h.9c.1-.1.3-.1.5-.2zm5.3 16c0-.1.2-.2.7-.3h1.1c.4.1.6.2.6.2-.6.1-1.1.1-1.3.1-.1.1-.5.1-1.1 0zm-.5-28.5c.6 0 1.1.1 1.4.2.3.1.5.3.6.4.1.1.2.4.3.8.1.1.1.3.1.4v.1s-.1-.2-.3-.4c-.2-.2-.4-.5-.6-.7-.3-.3-.6-.4-.9-.5l-.6-.3c-.1 0-.1 0 0 0zm-23.8 13.7h.4c.7 0 1.1 0 1.1.1h-.1c-1.2.3-2 .4-2.4.4-.1 0-.4 0-.9-.1h-.1c-.1-.2.6-.3 2-.4zm-9.3 9.7c.2 0 .3 0 .3.1.2 1.2.3 2.6.3 4.3v2.8l-.1-.2c-.1-.6-.2-1.3-.3-1.9-.1-.6-.1-1.1-.1-1.5 0-.4-.1-1-.1-1.7V65zm12.8-22c.1 0 .1 0 .1.1s-.1.1-.3.2c-.2.1-.4.1-.5.1-.9 0-1.4-.1-1.4-.3 0 0 0-.1.1-.1.2-.1.5-.1.9-.1.2 0 .6.1 1.1.1zm-14.8 29.1v.4c0 .1.2.1.6.1h.6l1.5.1h.6c.5 0 .7-.2.7-.6 0-.1 0-.5-.1-1.1l-.1-3.7-.3-10.9c.2-.2.5-.3.9-.3h2.1l7.1.2h.3c.1 0 .3-.2.5-.6v-.6c0-.6 0-1.3-.1-1.9v-.7c0-.7-.3-1.1-.8-1.1-.1 0-.5 0-1 .1h-.8c-1.6 0-3.4.1-5.4.2-2 .1-3.1.3-3.3.3-.1-.2-.1-1.7-.1-4.5 0-2.4 0-3.6.1-3.7.1-.1.3-.1.7-.1h1.8c.9 0 1.7.1 2.4.1l7.8.3.1-.6c.1-.2.1-.7.1-1.6 0-.7 0-1.2-.1-1.6 0-.6-.1-.9-.3-1-.1-.1-.5-.2-1.2-.2l-9.3-.1h-4.8c-.4 0-.7 0-.8.1-.1.1-.2.3-.2.5v.7c0 .3.1 2.6.2 6.8.1 4.2.2 8.7.3 13.5.1 4.8.2 7.8.2 8.9V70.8c.1.8.1 1.2.1 1.3zm.9-30.2c0 1.6-.1 2.4-.2 2.4-.2 0-.3-.9-.3-2.6v-.5c0-.1.1-.2.2-.2.2 0 .3.3.3.9zm.9 9.6c0 .8-.1 1.1-.3 1.1-.1 0-.1-.7-.1-2 0-4.4.1-6.7.3-6.7 0 .1.1 2.6.1 7.6zm-15.5 4.4h-.1c0-.1.4-.2 1.4-.2h2.5c.2 0 .4 0 .8-.1s.6-.1.7-.1c.1 0 .2 0 .2.1v.1c-.2.3-.5.5-.8.5h-1c-.8.1-1.4.1-1.7.1H345c-.4-.3-.6-.3-.8-.4zm.1 15.2s-.5.1-1.5.1c-1 .1-1.6.1-1.8.1-1 0-1.6 0-1.6-.1 0 0 .2-.1.7-.2.5-.1.8-.2.8-.2h2c.9-.1 1.4 0 1.4.3zm9.1-6.9c-.2.1-.2-.1-.2-.5v-1-.7c0-.5.1-.8.2-.8v.3c.2 1.6.1 2.4 0 2.7zm-15.9-20.3V45c0 .2 0 .2-.1.2-.2 0-.2-.4-.2-1.3 0-.3 0-.6.1-.7 0-.2.1-.3.2-.3s.1.2.1.5v.5zm10.5-3.8l-7.6.4c-.6 0-1.3.1-2.2.1-.9.1-1.4.1-1.6.1h-.3c-.2 0-.3 0-.3.1-.1.2-.1.5-.1.9-.1 1.8-.1 4-.1 6.6v9c0 .4.2.6.7.7h.2c.4 0 2.3-.2 5.5-.5 3.3-.3 5.5-.5 6.8-.5h.8c-.1 1-.2 2.1-.2 3.2v4.1c0 1.1-.1 2.1-.2 2.8l-1.1.2c-.7.1-1.6.1-2.7.1h-.6c-3.1 0-5.4-.1-7-.3-1.2-.2-1.9-.2-2.2-.2-.5 0-.7.2-.7.5 0 .2 0 .4.1.7.2.8.3 1.4.3 1.7 0 1.2.4 1.8 1.1 1.9.4.3.8.3 1.4.3h.9c2.2 0 5.2-.1 8.9-.3 3.7-.2 5.6-.3 5.7-.4.1-.1.1-.4.2-.9V68c0-1.1.1-2.2.2-3.3.2-1.6.2-2.8.2-3.8 0-.7 0-1.8-.1-3.2-.1-1.4-.1-2.5-.1-3.3v-.7-.7l-1.5-.2h-.4c-.6 0-2.2.1-5 .4-2.8.3-4.6.4-5.5.4-.6 0-.9 0-1-.1-.2-.2-.3-1.6-.3-4.2v-.2-1.2c0-2.3.1-3.4.2-3.4h11.7c.6 0 .9-.3.9-.8 0-.2.1-.4.1-.8v-2.1c0-.7-.4-1-1.3-1h-.1l-3.7.3zm-9.9 5l.1-.1c.2 0 .3.6.3 1.8 0 .9-.1 1.7-.3 2.3v-.5-.6-2c-.3-.5-.2-.7-.1-.9zm8.6-4.2c1.3-.3 2.4-.4 3.3-.4h1.9c0 .2-.7.3-2.2.4-.9.1-1.6.1-2 .1-.8 0-1.2 0-1.2-.1h.2zm-9.9 14c0-.1.1-.1.2-.1s.1.2.1.7V57c0 .1 0 .2-.1.3-.1.1-.1.2-.2.2 0-.1 0-.4-.1-.7-.1-.3-.1-.6-.1-.8-.1-.4 0-.8.2-1.1zm-.7 13.1c.2-.1.3.2.4.9v.2c0 .5 0 .8-.1.8v-.1c-.2-.5-.3-.9-.3-1.1-.1-.1 0-.3 0-.7zm-7.2-4.4c0 2.9-.1 4.4-.2 4.4 0 0-.1-.7-.1-2-.1-1.3-.1-2.1-.1-2.4 0-.3.1-.4.2-.4s.2.1.2.4zm-.2-23.7c-.4 0-.6.1-.7.2-.1.1-.1.5-.1 1.2-.1 4.3-.1 12.6-.1 24.9v6c0 .2.2.3.5.3h2.4l.9-.1c.3 0 .4-.1.4-.3v-.3l-.1-5.5c-.1-1.9-.1-8.2-.1-18.9v-6.6c0-.4-.1-.7-.2-.8-.1-.1-.5-.1-1.1-.1h-1.8zm0 .7c.2-.3.5-.4.8-.4.2 0 .4 0 .8.1s.6.1.8.1c-.1.2-.2.3-.3.3-1.1.1-1.7.2-1.8.2-.3 0-.5-.1-.5-.2.2 0 .2-.1.2-.1zm2.1 4.3c0-.2.1-.3.1-.3.2 0 .3 1.4.3 4.4 0 1.4-.1 2.1-.2 2.1s-.1-.1-.1-.2c-.2-2-.3-3.2-.3-3.7 0-.8.1-1.6.2-2.3zm-1.6 15.8c0-.1.1-.1.1-.1.3.2.4.5.4 1 0 .2 0 .3-.1.6-.2.5-.3.6-.4.4-.2-.6-.2-1-.2-1.1-.1-.3 0-.5.2-.8zm-6.9 8.8c-.2.4-.4.7-.5.9-.1.2-.3.4-.6.6-.3.2-.6.4-1 .5h-.1l.2-.1c.1-.1.3-.2.4-.3.2-.1.3-.2.3-.3.1-.1.2-.1.3-.2.2-.1.3-.2.3-.2l.7-.9zm-15.1-10.1s.1-.1 0 0c.2 0 .3.2.3.8v.3c0 .1-.1.2-.1.1-.1-.4-.2-.6-.2-.8v-.2-.2zm.1 11.8c.1-.2.4-.3 1-.4.1 0 .4 0 1 .1h.4c.3.1.4.1.3.1-.7.2-1.3.2-1.7.2-.2.1-.5 0-1 0zm.1-17.7c0 2 0 3.5-.1 4.5h-.1c-.2 0-.3-.3-.3-.8 0-.2 0-.7.1-1.4s.1-1.2.1-1.5v-.5-.3-.3c0-.1 0-.2.1-.3h.1c.1 0 .1.2.1.6zm13.2 10.3v-.1c.1 0 .1.7.1 2 0 1.2-.1 1.8-.2 1.8v-.1-.8-.7c-.1-.6 0-1.3.1-2.1zm-6.2-20c.4 0 .9 0 1.4-.1.5-.1.9-.1 1.1-.1h1c.3 0 .4 0 .4.1s0 .2-.1.2c-.1.2-.3.2-.6.2-.1 0-.3 0-.5-.1-.2 0-.4-.1-.5-.1-.2 0-.5 0-1.1.1-.5.1-.9.1-1 .1-.2 0-.2 0-.2-.1l.1-.2zm4.4 28.5c.2 0 .5-.1 1-.2s.8-.1 1-.2c.2 0 .4-.2.8-.3.4-.2.6-.4.8-.6.2-.3.4-.6.6-1.1.2-.5.4-1 .5-1.7.5-2.5.8-5.5.9-9 0-.3.1-1.5.2-3.5s.2-3.5.2-4.5c0-2.2-.2-4-.6-5.3-.6-2.1-2-3.4-4.2-4-2.6-.6-5.1-.9-7.8-.9-1 0-3.5.1-7.3.3l-.1.7c0 .2-.1 4-.1 11.5l-.1 19.6 7.3-.1h1.2c.8-.1 1.8-.2 3-.3 1-.1 1.9-.2 2.7-.4zm.9-26.7l.1.5c.1.4.2.9.3 1.5.1.6.1 1.3.1 1.9v1.6c0 .2-.1 2.7-.3 7.7 0 1.4-.3 4.1-.7 8.1-.1.8-.3 1.4-.7 1.7-.4.3-1 .5-1.7.6l-8.3.4v-.2-.8c0-.2 0-.8-.1-1.8l.5-21.1h10.8zm-13.5-2.8v2.8c-.1 0-.2-1-.4-2.9v-.4c0-.1.1-.2.1-.2h.2c.2.1.2.4.1.7z"/>
    <path class="st2" d="M559.4 63c-.1 0-.1-.2-.1-.8 0-.9 0-1.6.1-2.1 0-.3 0-.5.1-.5 0 0 .1 0 .1.1.1.1.1.3.1.8v.8c-.1.9-.2 1.5-.3 1.7m-12.5-3.2c-.1.1-.2.1-.2.1-.2 0-.3-.1-.3-.4l.2-2.5s.1.2.1.5.1.7.1 1.1c0 .4.1.7.1.9.1.1.1.2 0 .3zm-.9-19.5c-.3.1-.4 9.8-.6 28.9v2.7c0 .3 0 .5.1.6.1.1.3.2.7.2h1.4l14-1.5h.2c.2 0 .4 0 .4-.1.1 0 .1-.2.1-.4 0-.1 0-.7.1-1.8s.2-2.4.3-3.9c.1-1.5.2-2.8.3-4v-1c0-.4 0-.8.1-1v-.8-.9c.1-1.7.3-4.4.5-8 .3-3.6.4-5.8.5-6.5v-.3-.4-.5c0-.1-.4-.2-1-.4H561c-.7 0-1.1.3-1.1 1l-.2 2.4-1.8 21.9v.8c0 .2-.1.3-.4.3-2.3.7-5 1-8.1 1-.2 0-.4 0-.4-.1-.1 0-.1-.2-.1-.4v-2c0-6.5.2-14 .5-22.6l.1-2.1c-.1-.4-1.2-.8-3.3-1.3l-.2.2zm16.7 2.2v-.1c.1 0 .1.2.2.6.1.4.1.8.1 1v.1c0 .3-.1.8-.2 1.3s-.2 1-.3 1.4c-.1.4-.2.6-.2.6v-.5V43.8c.2-.7.3-1.1.4-1.3zm-15.4 17.9c.2-.1.3.2.3.8v.1c-.1.8-.2 1.2-.3 1.2 0 0-.1 0-.1-.1-.1-.3-.1-.6-.1-.8-.1-.4 0-.8.2-1.2zm9.9 9.3c.3-.1.6-.2.9-.2h1.7c.2 0 .3 0 .4.1 0 .1 0 .2-.1.2-.3.1-.5.1-.6.1-.1 0-.3 0-.7-.1h-1.5c-.2 0-.3 0-.3-.1h.2zm-21.3-4v-.2s.1.2.1.5c.1.3.1.7.2 1.2 0 .4.1.8.1 1 0 2.3-.1 3.5-.2 3.5s-.1-.1-.1-.3c-.2-1-.2-1.8-.2-2.5 0-.3 0-.9.1-1.6-.1-.7 0-1.3 0-1.6zm-7.1-25.3c.3-.1.7-.1.9-.1h.8c.1.1.1.1.1.2s0 .1-.1.1h-.3c-.1 0-.4 0-.8-.1-.5.1-.7 0-.6-.1zm-.7-.5V41c0 .3 0 .9.1 1.8l.1.4c0 .4.2.6.5.6h2.1c1.3 0 2 0 2.1.1.1 0 .1 1.6.1 4.7v4.9c-.1 6.5-.1 12.2-.1 17.2v1.4c0 .4.4.7 1.1.7.1 0 .6 0 1.3-.1h1.4c.1 0 .1 0 .2-.1l.1-.1V72l-.1-1.9.7-24.7c.1-.1.3-.1.8-.1.4 0 .9 0 1.5.1.6 0 1.1.1 1.6.1s.7.1.7.1h.9c.1 0 .1-.3.1-1V42c0-.3-.1-.6-.2-.7-.1-.1-.4-.2-.7-.2l-1.7-.1c-.4 0-1.9-.1-4.4-.2-1.1-.1-2-.2-2.9-.3-2.7-.5-4.3-.8-4.9-.8-.3.1-.4.1-.4.2zm7.9 6.4c-.1 2.2-.3 3.3-.4 3.3-.2 0-.2-1-.2-3.1 0-1.2.1-1.8.3-1.8.2 0 .3.3.3.9v.7zm-1.3 2.3c0 1.8-.1 2.7-.2 2.8-.1 0-.2-.9-.2-2.8 0-.9 0-1.3.1-1.3.2.1.3.5.3 1.3zm-.8 12.8c0 .8-.1 1.3-.3 1.3-.1 0-.2-.4-.2-1.3 0-.5 0-.8.1-.8.3.1.4.4.4.8zm-32.8 9.3c0 .1-.9.1-2.6.1-.1 0-.2 0-.2-.1v-.1c.1-.1.2-.2.3-.2.2 0 .7 0 1.4.1.8.1 1.1.2 1.1.2zm-5.1-30H495.1c-.1 0-.2.1-.2.1s-.1.1-.1.2v1.4c-.1.8-.1 1.8-.1 3 0 2.4-.1 4.4-.3 6-.1.8-.2 3.8-.4 9.1-.2 5.4-.2 9-.2 11.1v.7c0 .1.3.2.8.4.6.1 3 .1 7.2.1h9.7c.3 0 .5 0 .6-.1l.2-.2c0-.1 0-.3.1-.6v-.7-.8c0-.6 0-.9-.1-1-.3-.2-1.4-.3-3.4-.4-4.7-.2-7.3-.3-7.7-.4l-2.2-.1-.1-1.9V62c.1-2.3.2-3.5.4-3.6.3-.1 2-.2 5-.3 3.9-.2 6.1-.4 6.6-.8.2-.1.3-.5.3-1 0-.7.1-1.3.2-1.6.1-.2.1-.4.1-.5 0-.1-.2-.2-.5-.3-.5-.1-1.8-.1-4.1-.1h-4.8c-2.3 0-3.5-.1-3.6-.2l.1-5 .4-3.8h.9c.4 0 1-.1 1.8-.1h4.3l6.1.1.2-1.1c.2-.6.2-1.2.2-1.7 0-.4 0-.7-.1-.7-.2-.1-2-.3-5.4-.4-3.4-.1-6.4-.2-8.9-.2-1.2-.1-1.8-.1-2.1 0zm14.7.9c.2.1.4.2.4.4v.1c-.1.1-.2.1-.3.1-.2 0-.4 0-.6-.1-.8-.1-1.3-.2-1.3-.3 0 0 0-.1.1-.1.2-.1.4-.2.6-.2 0-.2.4-.1 1.1.1zm-15.6 12.6l.1-.2c.1 0 .1.5.1 1.4v1.8c0 .3-.1.8-.2 1.5-.1.6-.2.9-.2.9v-.2-1.7c-.2-1.1-.1-2.3.2-3.5zm.6-2.4c.2-.1.2.2.2.7v.3c0 .3-.1.5-.3.5-.1-.3-.1-.5-.1-.7 0-.4 0-.6.2-.8zm13.9 2.4c0 .1-.1.2-.5.3-.1.1-.1.1-.2.1h-.1c-.2 0-.3.1-.3.2-.8 0-1.2-.1-1.2-.3 0 0 0-.1.1-.1.3-.2.6-.2 1-.2.1-.1.5-.1 1.2 0zm-8.8-10.4c0 .1 0 .2-.1.2-.1.1-.2.1-.2.1h-.3c-.1 0-.3 0-.7-.1l-1.7-.2s0-.1.1-.1c.6-.1 1-.2 1.3-.2.2 0 .5 0 .8.1.4.1.7.2.8.2zm3.1 12.5c.3.1.4.2.4.4 0 .1 0 .1-.1.1h-.5c-.3 0-.8-.1-1.7-.3-.8-.1-1.2-.2-1.2-.3h.1c.6-.1 1-.1 1.2-.1.3 0 .9.1 1.8.2zm-15.4 13.2c-.2.4-.4.7-.5.9-.1.2-.3.4-.6.6-.3.2-.6.4-1 .5h-.1l.2-.1c.1-.1.3-.2.4-.3.2-.1.3-.2.3-.3.1-.1.2-.1.3-.2.2-.1.3-.2.3-.2l.7-.9zm-15.1-10.1s.1-.1 0 0c.2 0 .3.2.3.8v.3c0 .1-.1.2-.1.1-.1-.4-.2-.6-.2-.8v-.2-.2zm.1 11.8c.1-.2.4-.3 1-.4.1 0 .4 0 1 .1h.4c.3.1.4.1.3.1-.7.2-1.3.2-1.7.2-.2.1-.5 0-1 0zm.1-17.7c0 2 0 3.5-.1 4.5h-.1c-.2 0-.3-.3-.3-.8 0-.2 0-.7.1-1.4s.1-1.2.1-1.5v-.5-.3-.3c0-.1 0-.2.1-.3h.1s.1.2.1.6zm13.1 10.3v-.1c.1 0 .1.7.1 2 0 1.2-.1 1.8-.2 1.8v-.1-.8-.7c0-.6.1-1.3.1-2.1zm-6.1-20c.4 0 .9 0 1.4-.1.5-.1.9-.1 1.1-.1h1c.3 0 .4 0 .4.1s0 .2-.1.2c-.1.2-.3.2-.6.2-.1 0-.3 0-.5-.1-.2 0-.4-.1-.5-.1-.2 0-.5 0-1.1.1-.5.1-.9.1-1 .1-.2 0-.2 0-.2-.1l.1-.2zm4.4 28.5c.2 0 .5-.1 1-.2s.8-.1 1-.2c.2 0 .4-.2.8-.3.4-.2.6-.4.8-.6.2-.3.4-.6.6-1.1.2-.5.4-1 .5-1.7.5-2.5.8-5.5.9-9 0-.3.1-1.5.2-3.5s.2-3.5.2-4.5c0-2.2-.2-4-.6-5.3-.6-2.1-2-3.4-4.2-4-2.6-.6-5.1-.9-7.8-.9-1 0-3.5.1-7.3.3l-.1.7c0 .2-.1 4-.1 11.5l-.1 19.6 7.3-.1h1.2c.8-.1 1.8-.2 3-.3 1-.1 1.9-.2 2.7-.4zm.8-26.7l.1.5c.1.4.2.9.3 1.5.1.6.1 1.3.1 1.9v1.6c0 .2-.1 2.7-.3 7.7 0 1.4-.3 4.1-.7 8.1-.1.8-.3 1.4-.7 1.7-.4.3-1 .5-1.7.6l-8.3.4v-.2-.8c0-.2 0-.8-.1-1.8l.5-21.1h10.8zm-13.4-2.8v2.8c-.1 0-.2-1-.4-2.9v-.4c0-.1.1-.2.1-.2h.2c.2.1.2.4.1.7zm-35.9 25.8c.1-.2.2-.3.2-.3.1.1.1.2.1.3l-.1.6c-.2.5-.3.7-.4.7v-.1-.3l.2-.9zm2.9-6.4c.2-1 .5-2.3 1-4 0-.1.1-.2.1-.3 0-.1.1-.2.1-.3v-.1.2c0 .1-.1.4-.2 1-.1.9-.2 1.4-.3 1.8 0 .1-.1.4-.3.9l-.4 1c.1.1 0 0 0-.2zm12.1 10.1c0-.1 0-.2.1-.3.1-.1.2-.2.3-.2h.9c.5 0 1 .1 1.5.3h.1s-.1 0-.2.1h-1.1s-.2 0-.5.1c-.3 0-.5.1-.6.1 0 0-.2 0-.5-.1zm0-12.6c-.4-1-.6-1.9-.6-2.8v-.1c.1 0 .3.5.6 1.6.1.4.1.8.1 1.2 0 .1 0 .2-.1.1zm-11.6-3.3c.4-2.2.9-4.6 1.7-7.2v-.1c.1 0 .1.3.1.9v.3c0 .2-.2 1-.6 2.4-.1.2-.1.5-.2.8-.1.3-.1.6-.2.9-.1.3-.1.5-.2.8-.3.9-.6 1.4-.7 1.4v-.2h.1zm4-15.5c.1-.2.5-.2 1.2-.2 0 0 .2 0 .6-.1.4 0 .6-.1.8-.1h.2v.1c0 .2-.1.2-.2.2h-.2H444.4c-.3.2-.5.2-.5.1zm-4.5 26.3c0-.2.1-.7.3-1.5l.3-1.2c0-.3.1-.6.3-.9.2 0 .2.2.2.5 0 .2-.2.8-.6 1.7-.2.9-.4 1.4-.5 1.4zm8.9-5.9h.5v.3c-.5.1-1 .1-1.6.1h-1.1c0-.1.7-.2 2.2-.4zm-6.5.9h1.7l5.4.2.9 5.4c.3 1.8.5 3.2.8 4 .2.5.3.9.4 1 .1.1.6.2 1.3.2h.5c1.4 0 2.2 0 2.2-.1v-.1c0-.1-.2-1-.5-2.5s-.8-3.7-1.3-6.4c-.6-2.7-1.1-5.2-1.5-7.5-.9-4.9-1.5-8.2-1.7-10.1-.1-.7-.2-1.5-.4-2.6-.4-2.7-.7-4.1-.9-4.1h-4.9c-.5 0-.7 0-.8.1 0 0-.4 1.8-1.3 5.4-.9 3.7-1.9 7.6-2.9 11.5-1 3.9-1.7 6.9-2.2 8.8-.5 2-.8 3.3-1 4.1-.1.5-.3.9-.4 1.3-.1.4-.2.7-.3.9 0 .2-.1.3-.1.3 0 .2.2.2.5.2h.1c1.3 0 2.4-.1 3.5-.4.2 0 .3-.1.4-.1.1-.1.1-.1.1-.2v-.3c0-.2.1-.3.1-.5l2.3-8.5zm7.5-7.3c-.6-1.7-1-3-1-3.8V51v-.1c.1 0 .4.9.9 2.8.1.2.2.6.1 1.2zm-7.5 3.8l1.4-6.1v-.3c0-.1.1-.3.2-.7.1-.4.2-.8.3-1.3l1.8-6.8h.7s.1.8.3 2.3c.2 1.5.3 3.2.5 4.8.2 1.7.3 2.7.4 2.9l.8 4.6c-.6 0-1.6.1-3.2.2-1.6.3-2.6.4-3.2.4zm-12.2 7v-.2s.1.2.1.5c.1.3.1.7.2 1.2 0 .4.1.8.1 1 0 2.3-.1 3.5-.2 3.5s-.1-.1-.1-.3c-.2-1-.2-1.8-.2-2.5 0-.3 0-.9.1-1.6v-1.6zm-7.1-25.3c.3-.1.7-.1.9-.1h.8c.1.1.1.1.1.2s0 .1-.1.1h-.3c-.1 0-.4 0-.8-.1-.5.1-.7 0-.6-.1zm-.7-.5V41c0 .3 0 .9.1 1.8l.1.4c0 .4.2.6.5.6h2.1c1.3 0 2 0 2.1.1.1 0 .1 1.6.1 4.7v4.9c-.1 6.5-.1 12.2-.1 17.2v1.4c0 .4.4.7 1.1.7.1 0 .6 0 1.3-.1h1.4c.1 0 .1 0 .2-.1l.1-.1V72l-.1-1.9.7-24.7c.1-.1.3-.1.8-.1.4 0 .9 0 1.5.1.6 0 1.1.1 1.6.1s.7.1.7.1h.9c.1 0 .1-.3.1-1V42c0-.3-.1-.6-.2-.7-.1-.1-.4-.2-.7-.2l-1.7-.1c-.4 0-1.9-.1-4.4-.2-1.1-.1-2-.2-2.9-.3-2.7-.5-4.3-.8-4.9-.8-.3.1-.4.1-.4.2zm7.9 6.4c-.1 2.2-.3 3.3-.4 3.3-.2 0-.2-1-.2-3.1 0-1.2.1-1.8.3-1.8.2 0 .3.3.3.9v.7zm-1.3 2.3c0 1.8-.1 2.7-.2 2.8-.1 0-.2-.9-.2-2.8 0-.9 0-1.3.1-1.3.3.1.3.5.3 1.3zm-.8 12.8c0 .8-.1 1.3-.3 1.3-.1 0-.2-.4-.2-1.3 0-.5 0-.8.1-.8.3.1.4.4.4.8z"/>
    <path class="st2" d="M317 121.4c.1-.2.2-.3.2-.3.1.1.1.2.1.3l-.1.6c-.2.5-.3.7-.4.7v-.1-.3l.2-.9zm2.9-6.4c.2-1 .5-2.3 1-4 0-.1.1-.2.1-.3 0-.1.1-.2.1-.3v-.1.2c0 .1-.1.4-.2 1-.1.9-.2 1.4-.3 1.8 0 .1-.1.4-.3.9l-.4 1c.1 0 0-.1 0-.2zm12.1 10.1c0-.1 0-.2.1-.3.1-.1.2-.2.3-.2h.9c.5 0 1 .1 1.5.3h.1s-.1 0-.2.1h-1.1s-.2 0-.5.1c-.3 0-.5.1-.6.1 0 0-.2-.1-.5-.1zm0-12.6c-.4-1-.6-1.9-.6-2.8v-.1c.1 0 .3.5.6 1.6.1.4.1.8.1 1.2 0 .1 0 .2-.1.1zm-11.6-3.4c.4-2.2.9-4.6 1.7-7.2v-.1c.1 0 .1.3.1.9v.3c0 .2-.2 1-.6 2.4-.1.2-.1.5-.2.8-.1.3-.1.6-.2.9-.1.3-.1.5-.2.8-.3.9-.6 1.4-.7 1.4v-.2h.1zm4-15.4c.1-.2.5-.2 1.2-.2 0 0 .2 0 .6-.1.4 0 .6-.1.8-.1h.2v.1c0 .2-.1.2-.2.2h-.2H324.9c-.3.2-.5.2-.5.1zm-4.5 26.3c0-.2.1-.7.3-1.5l.3-1.2c0-.3.1-.6.3-.9.2 0 .2.2.2.5 0 .2-.2.8-.6 1.7-.1.9-.4 1.4-.5 1.4zm8.9-5.9h.5v.3c-.5.1-1 .1-1.6.1h-1.1c0-.1.7-.3 2.2-.4zm-6.5.9h1.7l5.4.2.9 5.4c.3 1.8.5 3.2.8 4 .2.5.3.9.4 1 .1.1.6.2 1.3.2h.5c1.4 0 2.2 0 2.2-.1v-.1c0-.1-.2-1-.5-2.5s-.8-3.7-1.3-6.4c-.6-2.7-1.1-5.2-1.5-7.5-.9-4.9-1.5-8.2-1.7-10.1-.1-.7-.2-1.5-.4-2.6-.4-2.7-.7-4.1-.9-4.1h-5c-.5 0-.7 0-.8.1 0 0-.4 1.8-1.3 5.4-.9 3.7-1.9 7.6-2.9 11.5-1 3.9-1.7 6.9-2.2 8.8-.5 2-.8 3.3-1 4.1-.1.5-.2.9-.4 1.3-.1.4-.2.7-.3.9 0 .2-.1.3-.1.3 0 .2.2.2.5.2h.1c1.3 0 2.4-.1 3.5-.4.2 0 .3-.1.4-.1.1-.1.1-.1.1-.2v-.3c0-.2.1-.3.1-.5l2.4-8.5zm7.5-7.3c-.6-1.7-1-3-1-3.8v-.1-.1c.1 0 .4.9.9 2.8.1.2.2.6.1 1.2zm-7.5 3.8l1.4-6.1v-.3c0-.1.1-.3.2-.7.1-.4.2-.8.3-1.3l1.8-6.8h.7s.1.8.3 2.3c.2 1.5.3 3.2.5 4.8.2 1.7.3 2.7.4 2.9l.8 4.6c-.6 0-1.6.1-3.2.2-1.6.3-2.6.4-3.2.4zm-12 4.3c-.1 0-.1-.2-.1-.8 0-.9 0-1.6.1-2.1 0-.3 0-.5.1-.5 0 0 .1 0 .1.1.1.1.1.3.1.8v.8c-.1.9-.2 1.5-.3 1.7zm-12.5-3.3c-.1.1-.2.1-.2.1-.2 0-.3-.1-.3-.4l.2-2.5s.1.2.1.5.1.7.1 1.1c0 .4.1.7.1.9.1.2.1.3 0 .3zm-.9-19.4c-.3.1-.4 9.8-.6 28.9v2.7c0 .3 0 .5.1.6.1.1.3.2.7.2h1.4l14-1.5h.2c.2 0 .4 0 .4-.1.1 0 .1-.2.1-.4 0-.1 0-.7.1-1.8s.2-2.4.3-3.9c.1-1.5.2-2.8.3-4v-1c0-.4 0-.8.1-1v-.8-.9c.1-1.7.3-4.4.5-8 .3-3.6.4-5.8.5-6.5v-.3-.4-.5c0-.1-.4-.2-1-.4h-2.1c-.7 0-1.1.3-1.1 1l-.2 2.4-1.8 21.9v.8c0 .2-.1.3-.4.3-2.3.7-5 1-8.1 1-.2 0-.4 0-.4-.1-.1 0-.1-.2-.1-.4v-2.1c0-6.5.2-14 .5-22.6l.1-2.1c-.1-.4-1.2-.8-3.3-1.3 0 .1-.1.2-.2.3zm16.6 2.1v-.1c.1 0 .1.2.2.6.1.4.1.8.1 1v.1c0 .3-.1.8-.2 1.3s-.2 1-.3 1.4c-.1.4-.2.6-.2.6v-.5V96.5c.3-.6.4-1 .4-1.3zm-15.3 18c.2-.1.3.2.3.8v.1c-.1.8-.2 1.2-.3 1.2 0 0-.1 0-.1-.1-.1-.3-.1-.6-.1-.8-.1-.4 0-.8.2-1.2zm9.9 9.2c.3-.1.6-.2.9-.2h1.7c.2 0 .3 0 .4.1 0 .1 0 .2-.1.2-.3.1-.5.1-.6.1-.1 0-.3 0-.7-.1h-1.5c-.2 0-.3 0-.3-.1h.2zm-30.5-22c-.1 0-.1 0 0 0 0-.1.3.3.7.9.4.6.7 1.1.8 1.4.5 1.3.8 2 .8 2.1l-.1-.1c-.7-1-1.5-2.4-2.2-4.3zm13.6-5.2s0 .1 0 0c0 .1 0 .2-.2.3-.2.1-.4.1-.5.1-.7 0-1-.1-1-.2l.1-.1c.3-.2.6-.2.8-.2.1-.1.4 0 .8.1zm-5.9 11.1c.2.2.2.3.2.4-.6 1.1-1 1.7-1.2 1.7h-.1c0-.1.1-.2.2-.4s.3-.5.5-.8c.1-.4.3-.7.4-.9zm6 17.9c0 .1-.1.2-.3.2-.2 0-.3 0-.3-.1-.1-.1-.3-.6-.6-1.4l-.5-1.6.1.1c.8.8 1.3 1.8 1.6 2.8zm-11.5-8.4h.1v.1c0 .3-.2.8-.5 1.4-.1.1-.2.3-.4.4-.2.2-.3.2-.4.2v-.1c.3-.4.5-.8.7-1.2.2-.4.4-.7.5-.8zm-1.2.7c.1-.2.2-.2.2-.2s-.1.2-.2.6c-.1.4-.3.8-.5 1.3s-.3.8-.4 1.1c-.1.2-.2.5-.3 1-.1.4-.3.8-.4 1.1-.8 1.7-1.3 2.6-1.4 2.6v-.2c.6-2.1 1.6-4.4 3-7.3zm-3-23.1c.3.1.4.2.4.4v.1c-.2.1-.3.1-.3.1-.1 0-.2 0-.4-.1s-.3-.1-.4-.1c-.1 0-.2-.1-.5-.1-.2 0-.4-.1-.5-.1-.1 0-.2-.1-.2-.1l.1-.1c.2-.1.5-.2.7-.2.1 0 .5.1 1.1.2zm11.7 5c0-.1.1-.1.1-.1v.1c0 .6-.2 1.3-.5 2.2-.7 1.7-1.2 2.6-1.4 2.6v-.2c.3-.8.6-1.6 1-2.5.4-1 .6-1.7.8-2.1zm-4.1 6.8c-.4-.2-1.8-2.9-4.3-8.3l-1.4-2.9c0-.1-.1-.2-.1-.4-.1-.2-.1-.3-.1-.3l-.2-.2c-.1-.1-.2-.2-.3-.2-.1 0-.2 0-.4-.1h-2.9c-.6 0-.8.1-.8.3 0 .3.7 2 2 4.9 1.3 2.9 2.8 5.9 4.5 9.1.9 1.8 1.4 2.8 1.4 3 0 .1-2 4.4-6 12.9-.1.1-.2.5-.4 1s-.4.9-.5 1.1c-.2.4-.3.7-.3.7 0 .1.3.2.8.3 1.3.1 2.4.2 3.5.2.1 0 .4-.4.8-1.3.1-.3.5-1.3 1.2-2.9l3.5-8.3c.1 0 .3.3.5.8.3.5.8 1.6 1.5 3.1s1.5 3.1 2.2 4.6l1.3 2.7c.1.1.1.2.2.3.1.2.2.3.2.3s.1.1.2.1c.1.1.2.1.4.1h.5c.4 0 1 0 1.8.1s1.3.1 1.5.1c.3 0 .5-.1.5-.2 0-.3-2.3-4.7-6.8-13.1-.2-.4-.5-.9-.8-1.5-.3-.5-.5-1-.7-1.2-.2-.3-.3-.4-.3-.5 0-.3 1.8-4.3 5.5-12.2l.4-1c.3-.7.4-1.1.4-1.1 0-.1-.3-.2-1-.3-1.3-.1-2.4-.2-3.4-.2-.1 0-.2.2-.4.7-.3.5-.7 1.5-1.2 2.9-.5 1.3-1 2.5-1.4 3.6-.4 1.1-.7 1.9-.9 2.4.1.3 0 .7-.2.9zm-22.6 18.3c0 .1-.9.1-2.6.1-.1 0-.2 0-.2-.1v-.1c.1-.1.2-.2.3-.2.2 0 .7 0 1.4.1s1.1.2 1.1.2zm-5.1-30.1H254.6c-.1 0-.2.1-.2.1s-.1.1-.1.2v1.4c-.1.8-.1 1.8-.1 3 0 2.4-.1 4.4-.3 6-.1.8-.2 3.8-.4 9.1-.2 5.4-.2 9-.2 11.1v.7c0 .1.3.2.8.4.6.1 3 .1 7.2.1h9.7c.3 0 .5 0 .6-.1l.2-.2c0-.1 0-.3.1-.6v-.7-.8c0-.6 0-.9-.1-1-.3-.2-1.4-.3-3.4-.4-4.7-.2-7.3-.3-7.7-.4l-2.2-.1-.1-1.9v-4.6c.1-2.3.2-3.5.4-3.6.3-.1 2-.2 5-.3 3.9-.2 6.1-.4 6.6-.8.2-.1.3-.5.3-1 0-.7.1-1.3.2-1.6.1-.2.1-.4.1-.5 0-.1-.2-.2-.5-.3-.5-.1-1.8-.1-4.1-.1h-4.8c-2.3 0-3.5-.1-3.6-.2l.1-5 .4-3.8h.9c.4 0 1-.1 1.8-.1h4.3l6.1.1.2-1.1c.2-.6.2-1.2.2-1.7 0-.4 0-.7-.1-.7-.2-.1-2-.3-5.4-.4-3.4-.1-6.4-.2-8.9-.2h-2.1zm14.6.9c.2.1.4.2.4.4v.1c-.1.1-.2.1-.3.1-.2 0-.4 0-.6-.1-.8-.1-1.3-.2-1.3-.3 0 0 0-.1.1-.1.2-.1.4-.2.6-.2.1-.1.4 0 1.1.1zM254.5 107l.1-.2c.1 0 .1.5.1 1.4v1.8c0 .3-.1.8-.2 1.5-.1.6-.2.9-.2.9v-.2-1.7c-.2-1.2 0-2.3.2-3.5zm.6-2.4c.2-.1.2.2.2.7v.3c0 .3-.1.5-.3.5-.1-.3-.1-.5-.1-.7 0-.4.1-.6.2-.8zM269 107c0 .1-.1.2-.5.3-.1.1-.1.1-.2.1h-.1c-.2 0-.3.1-.3.2-.8 0-1.2-.1-1.2-.3 0 0 0-.1.1-.1.3-.2.6-.2 1-.2.2-.1.6-.1 1.2 0zm-8.7-10.4c0 .1 0 .2-.1.2-.1.1-.2.1-.2.1h-.3c-.1 0-.3 0-.7-.1l-1.7-.2s0-.1.1-.1c.6-.1 1-.2 1.3-.2.2 0 .5 0 .8.1.4.1.6.2.8.2zm3.1 12.5c.3.1.4.2.4.4 0 .1 0 .1-.1.1h-.5c-.3 0-.8-.1-1.7-.3-.8-.1-1.2-.2-1.2-.3h.1c.6-.1 1-.1 1.2-.1.2 0 .8.1 1.8.2zm-23.3-.4h-.1c0-.1.4-.2 1.4-.2h2.5c.2 0 .4 0 .8-.1s.6-.1.7-.1c.1 0 .2 0 .2.1v.1c-.2.3-.5.5-.8.5h-1c-.8.1-1.4.1-1.7.1h-1.2c-.3-.3-.6-.3-.8-.4zm.1 15.2s-.5.1-1.5.1c-1 .1-1.6.1-1.8.1-1 0-1.6 0-1.6-.1 0 0 .2-.1.7-.2.5-.1.8-.2.8-.2h2c1-.1 1.4 0 1.4.3zm9.2-6.9c-.2.1-.2-.1-.2-.5v-1-.7c0-.5.1-.8.2-.8v.3c.2 1.5.1 2.4 0 2.7zm-15.9-20.3v1.1c0 .2 0 .2-.1.2-.2 0-.2-.4-.2-1.3 0-.3 0-.6.1-.7 0-.2.1-.3.2-.3s.1.2.1.5v.5zm10.5-3.8l-7.6.4c-.6 0-1.3.1-2.2.1-.9.1-1.4.1-1.6.1h-.3c-.2 0-.3 0-.3.1-.1.2-.1.5-.1.9-.1 1.8-.1 4-.1 6.6v9c0 .4.2.6.7.7h.2c.4 0 2.3-.2 5.5-.5 3.3-.3 5.5-.5 6.8-.5h.8c-.1 1-.2 2.1-.2 3.2v4.1c0 1.1-.1 2.1-.2 2.8l-1.1.2c-.7.1-1.6.1-2.7.1h-.6c-3.1 0-5.4-.1-7-.3-1.2-.2-1.9-.2-2.2-.2-.5 0-.7.2-.7.5 0 .2 0 .4.1.7.2.8.3 1.4.3 1.7 0 1.2.4 1.8 1.1 1.9.2.1.7.1 1.2.1h.9c2.2 0 5.2-.1 8.9-.3 3.7-.2 5.6-.3 5.7-.4.1-.1.1-.4.2-.9v-2.4c0-1.1.1-2.2.2-3.3.2-1.6.2-2.8.2-3.8 0-.7 0-1.8-.1-3.2-.1-1.4-.1-2.5-.1-3.3v-.7-.7l-1.5-.2h-.2c-.6 0-2.2.1-5 .4-2.8.3-4.6.4-5.5.4-.6 0-.9 0-1-.1-.2-.2-.3-1.6-.3-4.2V100.8c0-2.3.1-3.4.2-3.4h11.7c.6 0 .9-.3.9-.8 0-.2.1-.4.1-.8v-2.1c0-.7-.4-1-1.3-1h-.1l-3.7.2zm-10 4.9l.1-.1c.2 0 .3.6.3 1.8 0 .9-.1 1.7-.3 2.3v-.5-.6-2c-.2-.4-.2-.6-.1-.9zm8.6-4.1c1.3-.3 2.4-.4 3.3-.4h1.9c0 .2-.7.3-2.2.4-.9.1-1.6.1-2 .1-.8 0-1.2 0-1.2-.1h.2zm-9.8 14c0-.1.1-.1.2-.1s.1.2.1.7v1.5c0 .1 0 .2-.1.3-.1.1-.1.2-.2.2 0-.1 0-.4-.1-.7-.1-.3-.1-.6-.1-.8-.1-.5 0-.8.2-1.1zm-.7 13.1c.2-.1.3.2.4.9v.2c0 .5 0 .8-.1.8v-.1c-.2-.5-.3-.9-.3-1.1-.1-.1-.1-.4 0-.7z"/>
    <path class="st2" d="M456.2 116.4c0 2.9-.1 4.4-.2 4.4 0 0-.1-.7-.1-2-.1-1.3-.1-2.1-.1-2.4 0-.3.1-.4.2-.4.2 0 .2.1.2.4m-.2-23.7c-.4 0-.6.1-.7.2-.1.1-.1.5-.1 1.2-.1 4.3-.1 12.6-.1 24.9v6c0 .2.2.3.5.3h2.4l.9-.1c.3 0 .4-.1.4-.3v-.3l-.1-5.5c-.1-1.9-.1-8.2-.1-18.9v-6.6c0-.4-.1-.7-.2-.8-.1-.1-.5-.1-1.1-.1H456zm.1.6c.2-.3.5-.4.8-.4.2 0 .4 0 .8.1s.6.1.8.1c-.1.2-.2.3-.3.3-1.1.1-1.7.2-1.8.2-.3 0-.5-.1-.5-.2.1.1.2 0 .2-.1zm2.1 4.4c0-.2.1-.3.1-.3.2 0 .3 1.4.3 4.4 0 1.4-.1 2.1-.2 2.1s-.1-.1-.1-.2c-.2-2-.3-3.2-.3-3.7 0-.8 0-1.6.2-2.3zm-1.7 15.8c0-.1.1-.1.1-.1.3.2.4.5.4 1 0 .2 0 .3-.1.6-.2.5-.3.6-.4.4-.2-.6-.2-1-.2-1.1 0-.3.1-.6.2-.8zm-5.1 8.3s.1 0 0 0c.1 0 .2 0 .3.2.1.2.1.3.1.5 0 .9-.1 1.4-.2 1.4l-.1-.1c-.2-.4-.3-.7-.3-.9.1-.2.1-.6.2-1.1zm-8.1-12.7l.1-.3c.2 0 .3 1.1.3 3.4v.4c0 .8-.1 1.7-.2 2.7-.1 1.1-.2 1.6-.3 1.6l-.1-.4c-.1-1-.2-2.1-.2-3.1s.2-2.5.4-4.3zm-2.5 16.4h1.4c.1.1 1.2.1 3.4.1h1.2l4.9-.1c.2 0 .4 0 .4-.1 0 0 .1-.3.1-.8v-.9-1.1c0-.7-.1-1.2-.2-1.3-.2-.2-.6-.3-1.4-.3h-3.5c-1.6-.1-2.5-.3-2.6-.5-.2-.2-.2-1.3-.2-3.2v-5.1V93c0-.2 0-.3-.1-.4-.1 0-.3-.1-.5-.1H441c-.1 0-.1 0-.2.1s-.1.1-.1.2v2.5c0 1-.1 2.2-.1 3.6s-.1 2.6-.1 3.6c-.1 2.7-.2 5.4-.2 8.1v9.2l-.1 4.3v.9c-.1.4.1.5.6.5zm2.4-.6c0 .1-.7.2-2.2.2-.3 0-.4-.1-.4-.4 0-.2.1-.2.2-.2h.1c.3.1 1 .1 2.2.1 0 0 .1.1.1.3zm-1.9-31.3c.1 0 .2 1.4.2 4.1 0 .1-.1.1-.2.1s-.1-.5-.1-1.4c-.1-1.7 0-2.6.1-2.8zm-20.2 28.7c-.2.4-.4.7-.5.9-.1.2-.3.4-.6.6-.3.2-.6.4-1 .5h-.1l.2-.1c.1-.1.3-.2.4-.3.2-.1.3-.2.3-.3.1-.1.2-.1.3-.2.2-.1.3-.2.3-.2l.7-.9zM406 112.2c.1-.1.1-.1 0 0 .2 0 .3.2.3.8v.3c0 .1-.1.2-.1.1-.1-.4-.2-.6-.2-.8v-.2-.2zm.1 11.7c.1-.2.4-.3 1-.4.1 0 .4 0 1 .1h.4c.3.1.4.1.3.1-.7.2-1.3.2-1.7.2-.1.1-.5.1-1 0zm.1-17.6c0 2 0 3.5-.1 4.5h-.1c-.2 0-.3-.3-.3-.8 0-.2 0-.7.1-1.4s.1-1.2.1-1.5v-.5-.3-.3c0-.1 0-.2.1-.3h.1c.1-.1.1.2.1.6zm13.2 10.3v-.1c.1 0 .1.7.1 2 0 1.2-.1 1.8-.2 1.8v-.1-.8-.7c-.1-.6 0-1.3.1-2.1zm-6.2-20c.4 0 .9 0 1.4-.1.5-.1.9-.1 1.1-.1h1c.3 0 .4 0 .4.1s0 .2-.1.2c-.1.2-.3.2-.6.2-.1 0-.3 0-.5-.1-.2 0-.4-.1-.5-.1-.2 0-.5 0-1.1.1-.5.1-.9.1-1 .1-.2 0-.2 0-.2-.1l.1-.2zm4.4 28.5c.2 0 .5-.1 1-.2s.8-.1 1-.2c.2 0 .4-.2.8-.3.4-.2.6-.4.8-.6.2-.3.4-.6.6-1.1.2-.5.4-1 .5-1.7.5-2.5.8-5.5.9-9 0-.3.1-1.5.2-3.5s.2-3.5.2-4.5c0-2.2-.2-4-.6-5.3-.6-2.1-2-3.4-4.2-4-2.6-.6-5.1-.9-7.8-.9-1 0-3.5.1-7.3.3l-.1.7c0 .2-.1 4-.1 11.5l-.1 19.6 7.3-.1h1.2c.8-.1 1.8-.2 3-.3 1-.1 2-.3 2.7-.4zm.9-26.7l.1.5c.1.4.2.9.3 1.5.1.6.1 1.3.1 1.9v1.6c0 .2-.1 2.7-.3 7.7 0 1.4-.3 4.1-.7 8.1-.1.8-.3 1.4-.7 1.7-.4.3-1 .5-1.7.6l-8.3.4v-.2-.8c0-.2 0-.8-.1-1.8l.5-21.1h10.8zM405 95.6V98.3c-.1 0-.2-1-.4-2.9V95c0-.1.1-.2.1-.2h.2c.2.2.3.4.1.8zm-22.3 25.8c.1-.2.2-.3.2-.3.1.1.1.2.1.3v.6c-.2.5-.3.7-.4.7v-.1-.3l.1-.9zm3-6.4c.2-1 .5-2.3 1-4 0-.1.1-.2.1-.3 0-.1.1-.2.1-.3v-.1.2c0 .1-.1.4-.2 1-.1.9-.2 1.4-.3 1.8 0 .1-.1.4-.3.9l-.4 1v-.2zm12.1 10.1s-.1 0 0 0c0-.1 0-.2.1-.3.1-.1.2-.2.3-.2h.9c.5 0 1 .1 1.5.3h.1s-.1 0-.2.1h-1.1s-.2 0-.5.1c-.3 0-.5.1-.6.1-.1 0-.3-.1-.5-.1zm-.1-12.6c-.4-1-.6-1.9-.6-2.8v-.1c.1 0 .3.5.6 1.6.1.4.1.8.1 1.2 0 .1 0 .2-.1.1zm-11.6-3.4c.4-2.2.9-4.6 1.7-7.2v-.1c.1 0 .1.3.1.9v.3c0 .2-.2 1-.6 2.4-.1.2-.1.5-.2.8-.1.3-.1.6-.2.9-.1.3-.1.5-.2.8-.3.9-.6 1.4-.7 1.4v-.2h.1zm4.1-15.4c.1-.2.5-.2 1.2-.2 0 0 .2 0 .6-.1.4 0 .6-.1.8-.1h.2v.1c0 .2-.1.2-.2.2h-.2H390.7c-.3.2-.5.2-.5.1zm-4.5 26.3c0-.2.1-.7.3-1.5l.3-1.2c0-.3.1-.6.3-.9.2 0 .2.2.2.5 0 .2-.2.8-.6 1.7-.2.9-.4 1.4-.5 1.4zm8.8-5.9h.5v.3c-.5.1-1 .1-1.6.1h-1.1c0-.1.8-.3 2.2-.4zm-6.4.9h1.7l5.4.2.9 5.4c.3 1.8.5 3.2.8 4 .2.5.3.9.4 1 .1.1.6.2 1.3.2h.5c1.4 0 2.2 0 2.2-.1v-.1c0-.1-.2-1-.5-2.5s-.8-3.7-1.3-6.4c-.6-2.7-1.1-5.2-1.5-7.5-.9-4.9-1.5-8.2-1.7-10.1-.1-.7-.2-1.5-.4-2.6-.4-2.7-.7-4.1-.9-4.1h-5c-.5 0-.7 0-.8.1 0 0-.4 1.8-1.3 5.4-.9 3.7-1.9 7.6-2.9 11.5-1 3.9-1.7 6.9-2.2 8.8-.5 2-.8 3.3-1 4.1-.1.5-.2.9-.4 1.3-.1.4-.2.7-.3.9 0 .2-.1.3-.1.3 0 .2.2.2.5.2h.1c1.3 0 2.4-.1 3.5-.4.2 0 .3-.1.4-.1.1-.1.1-.1.1-.2v-.3c0-.2.1-.3.1-.5l2.4-8.5zm7.4-7.3c-.6-1.7-1-3-1-3.8v-.1-.1c.1 0 .4.9.9 2.8.2.2.2.6.1 1.2zm-7.5 3.8l1.4-6.1v-.3c0-.1.1-.3.2-.7.1-.4.2-.8.3-1.3l1.8-6.8h.7s.1.8.3 2.3c.2 1.5.3 3.2.5 4.8.2 1.7.3 2.7.4 2.9l.8 4.6c-.6 0-1.6.1-3.2.2-1.5.3-2.6.4-3.2.4zm-9.8 10.8c-.2.4-.4.7-.5.9-.1.2-.3.4-.6.6-.3.2-.6.4-1 .5h-.1l.2-.1c.1-.1.3-.2.4-.3.2-.1.3-.2.3-.3.1-.1.2-.1.3-.2.2-.1.3-.2.3-.2l.7-.9zm-15.1-10.1c.1-.1.1-.1 0 0 .2 0 .3.2.3.8v.3c0 .1-.1.2-.1.1-.1-.4-.2-.6-.2-.8v-.2-.2zm.1 11.7c.1-.2.4-.3 1-.4.1 0 .4 0 1 .1h.4c.3.1.4.1.3.1-.7.2-1.3.2-1.7.2-.1.1-.5.1-1 0zm.1-17.6c0 2 0 3.5-.1 4.5h-.1c-.2 0-.3-.3-.3-.8 0-.2 0-.7.1-1.4s.1-1.2.1-1.5v-.5-.3-.3c0-.1 0-.2.1-.3h.1c.1-.1.1.2.1.6zm13.2 10.3v-.1c.1 0 .1.7.1 2 0 1.2-.1 1.8-.2 1.8v-.1-.8-.7c-.1-.6 0-1.3.1-2.1zm-6.2-20c.4 0 .9 0 1.4-.1.5-.1.9-.1 1.1-.1h1c.3 0 .4 0 .4.1s0 .2-.1.2c-.1.2-.3.2-.6.2-.1 0-.3 0-.5-.1-.2 0-.4-.1-.5-.1-.2 0-.5 0-1.1.1-.5.1-.9.1-1 .1-.2 0-.2 0-.2-.1l.1-.2zm4.4 28.5c.2 0 .5-.1 1-.2s.8-.1 1-.2c.2 0 .4-.2.8-.3.4-.2.6-.4.8-.6.2-.3.4-.6.6-1.1.2-.5.4-1 .5-1.7.5-2.5.8-5.5.9-9 0-.3.1-1.5.2-3.5s.2-3.5.2-4.5c0-2.2-.2-4-.6-5.3-.6-2.1-2-3.4-4.2-4-2.6-.6-5.1-.9-7.8-.9-1 0-3.5.1-7.3.3l-.1.7c0 .2-.1 4-.1 11.5l-.1 19.6 7.3-.1h1.2c.8-.1 1.8-.2 3-.3 1-.1 2-.3 2.7-.4zm.9-26.7l.1.5c.1.4.2.9.3 1.5.1.6.1 1.3.1 1.9v1.6c0 .2-.1 2.7-.3 7.7 0 1.4-.3 4.1-.7 8.1-.1.8-.3 1.4-.7 1.7-.4.3-1 .5-1.7.6l-8.3.4v-.2-.8c0-.2 0-.8-.1-1.8l.5-21.1h10.8zm-13.4-2.8V98.3c-.1 0-.2-1-.4-2.9V95c0-.1.1-.2.1-.2h.2c.1.2.2.4.1.8zm-8.5 20.8c0 2.9-.1 4.4-.2 4.4 0 0-.1-.7-.1-2-.1-1.3-.1-2.1-.1-2.4 0-.3.1-.4.2-.4.2 0 .2.1.2.4zm-.2-23.7c-.4 0-.6.1-.7.2-.1.1-.1.5-.1 1.2-.1 4.3-.1 12.6-.1 24.9v6c0 .2.2.3.5.3h2.4l.9-.1c.3 0 .4-.1.4-.3v-.3l-.1-5.5c-.1-1.9-.1-8.2-.1-18.9v-6.6c0-.4-.1-.7-.2-.8-.1-.1-.5-.1-1.1-.1h-1.8zm.1.6c.2-.3.5-.4.8-.4.2 0 .4 0 .8.1s.6.1.8.1c-.1.2-.2.3-.3.3-1.1.1-1.7.2-1.8.2-.3 0-.5-.1-.5-.2.1.1.2 0 .2-.1zm2.1 4.4c0-.2.1-.3.1-.3.2 0 .3 1.4.3 4.4 0 1.4-.1 2.1-.2 2.1s-.1-.1-.1-.2c-.2-2-.3-3.2-.3-3.7 0-.8 0-1.6.2-2.3zm-1.7 15.8c0-.1.1-.1.1-.1.3.2.4.5.4 1 0 .2 0 .3-.1.6-.2.5-.3.6-.4.4-.2-.6-.2-1-.2-1.1 0-.3.1-.6.2-.8zm-5.1 8.3s.1 0 0 0c.1 0 .2 0 .3.2.1.2.1.3.1.5 0 .9-.1 1.4-.2 1.4l-.1-.1c-.2-.4-.3-.7-.3-.9.1-.2.1-.6.2-1.1zm-8.1-12.7l.1-.3c.2 0 .3 1.1.3 3.4v.4c0 .8-.1 1.7-.2 2.7-.1 1.1-.2 1.6-.3 1.6l-.1-.4c-.1-1-.2-2.1-.2-3.1s.2-2.5.4-4.3zm-2.5 16.4h1.4c.1.1 1.2.1 3.4.1h1.2l4.9-.1c.2 0 .4 0 .4-.1 0 0 .1-.3.1-.8v-.9-1.1c0-.7-.1-1.2-.2-1.3-.2-.2-.6-.3-1.4-.3h-3.5c-1.6-.1-2.5-.3-2.6-.5-.2-.2-.2-1.3-.2-3.2v-5.1V93c0-.2 0-.3-.1-.4-.1 0-.3-.1-.5-.1H338.5c-.1 0-.1 0-.2.1s-.1.1-.1.2v2.5c0 1-.1 2.2-.1 3.6s-.1 2.6-.1 3.6c-.1 2.7-.2 5.4-.2 8.1v9.2l-.1 4.3v.9c-.1.4.1.5.6.5zm2.4-.6c0 .1-.7.2-2.2.2-.3 0-.4-.1-.4-.4 0-.2.1-.2.2-.2h.1c.3.1 1 .1 2.2.1 0 0 .1.1.1.3zm-1.9-31.3c.1 0 .2 1.4.2 4.1 0 .1-.1.1-.2.1s-.1-.5-.1-1.4c-.1-1.7 0-2.6.1-2.8z"/>
    <path class="st2" d="M539.6 122.1c.3 0 .5.8.8 2.4-.1 0-.3-.2-.5-.7-.2-.6-.4-1.1-.4-1.6 0 .1 0 0 .1-.1zm-8.5 4.2h.9c.3 0 .5-.1.7-.3v.6c0 .1-.1.1-.2.1h-.1-.1c-.1 0-.5-.2-1.2-.4zm21.4-32.6c.1 0 .1.1.1.2 0 .2 0 .2-.1.2-.4 0-1-.2-1.6-.5-.3-.2-.4-.3-.4-.4.8.1 1.5.2 2 .5zm-22.3-1.6c-.5 0-.8.2-.8.5v31.6c.1 1.7.1 2.6.1 2.7.1.3.5.5 1.1.5h.5c.9 0 1.6-.1 1.9-.2.1-.1.1-.7.1-1.7V123.8c-.2-2.8-.3-5.3-.3-7.6 0-3.4-.1-8.8-.3-16.1.2.1 1.1 3.9 2.9 11.4.3 1.3.7 2.8 1.1 4.5.1.2.2.6.4 1.3.2.6.4 1.3.5 2 .2.7.3 1.3.5 1.9.6 2.5 1 3.8 1.2 4.1.1.2.6.2 1.7.2h2.4c.1 0 .2-.1.3-.2.1-.1.1-.2.1-.3 0-.1 0-.3.1-.5 0-.3.1-.5.2-.8 0-.1.1-.5.1-1.1 0-.7.1-1.2.2-1.7.4-2.2.7-3.5.8-4 .4-2.9 1.1-6.7 2.1-11.6 1-4.9 1.7-7.5 2.1-7.8v10.9c-.2 5.7-.3 10.5-.4 14.3v1.1s.3.1.9.2c1.6.2 2.6.3 3.1.3h.1c.1 0 .1-.1.1-.4v-.2c-.1-.1-.1-.2-.1-.5v-.5c0-.6 0-2.1.1-4.4 0-.5 0-2.2.1-5.1.1-2.9.1-5.1.1-6.5.1-4.8.1-8.1.2-9.9V94c0-.2 0-.4-.1-.5-.1-.1-.3-.2-.8-.2-.8-.2-2.3-.3-4.5-.4H546.8c-.4 0-.7.1-.8.2-.2.2-.3.5-.5 1-1.1 4-1.8 6.5-2 7.6-1.4 7.2-2.4 11.6-2.9 13.2v.5c0 .3-.1.5-.1.8 0 .3 0 .4-.1.4V115.7c-.1-.1-.3-.6-.5-1.6s-.5-2.2-.8-3.7c-.3-1.5-.5-2.5-.7-3-.1-.4-.2-1-.4-1.7l-.3-1.2-2.8-10.7c-.2-.8-.4-1.3-.6-1.4-.3-.2-1.6-.2-4-.2h-.1zm7.9 18.2V110.6c0 .2 0 .2-.1.2s-.2-.3-.4-.8-.3-1-.3-1.3c.3 0 .6.6.8 1.6zm14.3-10.9c0 .9 0 1.3-.1 1.3-.2 0-.2-.4-.2-1.3 0-.8.1-1.3.2-1.3s.2.4.2 1.1v.2zm-20.9-3.3V98c0 .7-.1 1-.2 1-.2 0-.2-.7-.2-2.1 0-.8 0-1.3.1-1.7.1-.2.1-.2.2-.2s.2.3.2.8v.3zm19.2 12.2c0 .2 0 .3-.1.3-.1-.1-.2-.2-.2-.3 0-.1 0-.2.1-.2.1-.1.2 0 .2.2zm-5.1-3.6c-.1.3-.2.4-.3.4-.1 0-.1-.1-.1-.3 0-.1 0-.3.1-.6s.1-.4.2-.4c0 0 .1 0 .1.1.1.1.1.2.1.3 0 .1 0 .3-.1.5zm-2.3 7.4c0 .3-.2.7-.5 1.3-.3.6-.5.9-.6.9 0-.2.2-.8.6-1.8.4-1 .6-1.5.7-1.5v.1c-.1.5-.1.8-.2 1zm9.3 4.8v.1c-.1 0-.1-.1-.3-.2-.1-.1-.2-.3-.2-.4 0-1.4 0-2.1.1-2.1 0 .1.1.5.2 1.2.1.8.2 1.3.2 1.4zm-.5 2.5c0 .9-.1 1.4-.2 1.6-.1 0-.1-.5-.1-1.4v-.3c0-.8 0-1.2.1-1.2.1-.1.2.4.2 1.3zm-20.1-1.6v-1.2-1.8-1.2-1.1c0-1.9 0-2.8.1-2.8.1.1.1.4.1 1v2.6c0 3.2-.1 4.8-.3 4.8l.1-.3zm-16.2 5.7c0 .1-.9.1-2.6.1-.1 0-.2 0-.2-.1v-.1c.1-.1.2-.2.3-.2.2 0 .7 0 1.4.1s1.1.2 1.1.2zm-5.2-30.1H509.7c-.1 0-.2.1-.2.1s-.1.1-.1.2v1.4c-.1.8-.1 1.8-.1 3 0 2.4-.1 4.4-.3 6-.1.8-.2 3.8-.4 9.1-.2 5.4-.2 9-.2 11.1v.7c0 .1.3.2.8.4.6.1 3 .1 7.2.1h9.7c.3 0 .5 0 .6-.1l.2-.2c0-.1 0-.3.1-.6v-.7-.8c0-.6 0-.9-.1-1-.3-.2-1.4-.3-3.4-.4-4.7-.2-7.3-.3-7.7-.4l-2.2-.1-.1-1.9v-4.6c.1-2.3.2-3.5.4-3.6.3-.1 2-.2 5-.3 3.9-.2 6.1-.4 6.6-.8.2-.1.3-.5.3-1 0-.7.1-1.3.2-1.6.1-.2.1-.4.1-.5 0-.1-.2-.2-.5-.3-.5-.1-1.8-.1-4.1-.1h-4.8c-2.3 0-3.5-.1-3.6-.2l.1-5 .4-3.8h.9c.4 0 1-.1 1.8-.1h4.3l6.1.1.2-1.1c.2-.6.2-1.2.2-1.7 0-.4 0-.7-.1-.7-.2-.1-2-.3-5.4-.4-3.4-.1-6.4-.2-8.9-.2h-2.1zm14.7.9c.2.1.4.2.4.4v.1c-.1.1-.2.1-.3.1-.2 0-.4 0-.6-.1-.8-.1-1.3-.2-1.3-.3 0 0 0-.1.1-.1.2-.1.4-.2.6-.2.1-.1.4 0 1.1.1zM509.7 107l.1-.2c.1 0 .1.5.1 1.4v1.8c0 .3-.1.8-.2 1.5-.1.6-.2.9-.2.9v-.2-1.7c-.2-1.2 0-2.3.2-3.5zm.6-2.4c.2-.1.2.2.2.7v.3c0 .3-.1.5-.3.5-.1-.3-.1-.5-.1-.7 0-.4.1-.6.2-.8zm13.9 2.4c0 .1-.1.2-.5.3-.1.1-.1.1-.2.1h-.1c-.2 0-.3.1-.3.2-.8 0-1.2-.1-1.2-.3 0 0 0-.1.1-.1.3-.2.6-.2 1-.2.1-.1.6-.1 1.2 0zm-8.7-10.4c0 .1 0 .2-.1.2-.1.1-.2.1-.2.1h-.3c-.1 0-.3 0-.7-.1l-1.7-.2s0-.1.1-.1c.6-.1 1-.2 1.3-.2.2 0 .5 0 .8.1.4.1.6.2.8.2zm3.1 12.5c.3.1.4.2.4.4 0 .1 0 .1-.1.1h-.5c-.3 0-.8-.1-1.7-.3-.8-.1-1.2-.2-1.2-.3h.1c.6-.1 1-.1 1.2-.1.2 0 .8.1 1.8.2zm-30.1 9.8c-.1.2-.2.3-.2.3-.1 0-.1-.3-.1-.9 0-.6.1-1.2.3-1.9.1-.3.2-.5.2-.5.1 0 .1.3.2 1v.4c-.1.7-.2 1.2-.4 1.6zm8.2-2.9c-.1 0-.7-.5-1.6-1.7-1-1.2-1.5-1.9-1.7-2.2-.1-.1-.1-.2-.1-.4 0-.1 0-.2.1-.4.1 0 .1.1.2.2s.2.3.3.5c.1.2.3.4.4.5.2.2.6.8 1.3 1.9.8.9 1.1 1.5 1.1 1.6zm6.9-12.6v.5c0 .7 0 1-.1 1-.3 0-.4-.3-.4-.8 0-.3.1-.9.2-2 .1-1 .2-1.5.3-1.5.1 0 .1.2.1.6v1.2c-.1.6-.1.9-.1 1zm-8.4-6.5l6 .3c.2.2.2.5.2 1.1v7.7c0 .1-.4.2-1.1.2-.5 0-1.2 0-2.2-.1-1-.1-1.5-.1-1.5-.1l-6.8-.1.1-8.8c.2-.1 1.9-.2 5.3-.2zm-7.8.5c0 2.6-.1 3.8-.2 3.8v-.5V99 97.3c0-.3 0-.4.1-.4.1.1.1.2.1.5zm4.8-2c-.4.1-.8.1-1 .1-.3 0-.4-.1-.4-.3 0-.2.1-.3.3-.3h.5c.3 0 .6 0 .8-.1.1 0 .1.1.1.2-.1.1-.2.3-.3.4zm-6-2.1c-.2.5-.4 6.4-.8 17.8-.1 4.6-.3 7.7-.4 9.3 0 .3 0 .9-.1 1.9-.1 1-.1 1.7-.1 2.1 0 .5 0 .8.1 1 .1.1.1.2.2.3.1.1 1 .2 2.5.2h1c.3 0 .4-.1.4-.3v-.4c0-.6.1-2.1.1-4.3 0-1 .1-2.4.1-4.3s0-3.4.1-4.7c0-1.2.1-2.1.2-2.5.2 0 .8.8 2 2.3 6.8 8.8 10.5 13.2 11 13.2l4.1-1.8c0-.1-.1-.2-.2-.5l-3.5-3.7-1.5-1.5c-.8-.8-1.4-1.5-2-2.2-.6-.6-1.2-1.4-1.9-2.1-.7-.8-1.2-1.5-1.6-2-.4-.6-.6-1-.6-1.3 0-.1.9-.1 2.8-.1 4.6 0 6.9-.2 6.9-.5 0-.1 0-.5.1-1.3.1-.7.1-1.7.2-2.8 0-1.1.1-2.2.1-3.3 0-1.7-.1-3.4-.2-5.1-.1-1.7-.2-2.7-.2-2.9 0-.5-2-.8-6.1-.8h-9.1c-2.3-.2-3.5 0-3.6.3zm10.5 13.6c.2 0 .3.1.3.3v.1c-.1.1-.3.1-.5.1h-1.8c-.2 0-.3 0-.3-.1s0-.1.1-.1c.2-.1.4-.1.8-.1h.9c.2-.1.4-.1.5-.2zm5.4 16s-.1 0 0 0c0-.1.2-.2.7-.3h1.1c.4.1.6.2.6.2-.6.1-1.1.1-1.3.1-.2.1-.5.1-1.1 0zm-.6-28.5c.6 0 1.1.1 1.4.2.3.1.5.3.6.4.1.1.2.4.3.8.1.1.1.3.1.4v.1s-.1-.2-.3-.4c-.2-.2-.4-.5-.6-.7-.3-.3-.6-.4-.9-.5l-.6-.3zm-35.6 8.9c.1 0 .2 0 .2.1.1.1.1.2.1.3.1.4.2.8.2.9v.3c0 .2 0 .5-.1.8-.1.3-.1.5-.2.5v-.1c-.1-.5-.2-.9-.2-1.4-.1-.1-.1-.6 0-1.4zm-1.5-5.1c0 .2-.1.8-.2 2s-.2 1.8-.3 1.8c-.1 0-.1-1.2-.1-3.7 0-1.7 0-2.6.1-2.6s.2.4.3 1.1c.1.9.2 1.3.2 1.4zm.4 22c0 1.5-.1 2.2-.2 2.2s-.2-.7-.2-2c0-1.5.1-2.3.2-2.3.2 0 .2.7.2 2.1zm13 1.3c-.1.3-.2.5-.4.5h-.2c-.3 0-1.4 0-3.2.1-1.9.1-3.2.1-4 .1h-1c-1.1-.1-1.7-.3-1.7-.5v-.8-1.6-1.7-2.5c0-.7 0-1.5.1-2.4 0-.8.1-1.5.2-2.1.1-.5.2-.8.3-.8.4-.1 1.3-.2 2.7-.2h4.8c1.5 0 2.2 0 2.2.1.2.6.3 3.7.3 9.2 0 1.5-.1 2.3-.1 2.6zm-10.1 4.7c.7 0 2.5-.2 5.3-.4s4.4-.3 4.8-.3c2.3 0 3.8-1.1 4.3-3.3.2-.8.3-2.1.3-3.9v-1.7V112.4c0-1-.1-1.8-.3-2.2-.2-.5-.8-1-1.7-1.6l-1.4-1 .4-.2c.2-.1.5-.3.8-.6.3-.3.5-.7.7-1.2.2-.3.2-1 .2-1.9v-1-1c0-2-.3-3.7-.8-5.3-.6-1.6-1.3-2.5-2.3-2.6-1.3-.4-3.4-.6-6.4-.6h-7.4c-.8 0-1.1.5-1.1 1.5v1c.1 1.4.1 9 .1 22.9v7.2c0 .2 0 .3.1.3 0 0 .2.1.4.1h4zm13.6-12.2v1.8c0 1.4-.1 2-.2 2s-.2-.4-.2-1.3 0-1.6.1-2.2c0-.9 0-1.4.1-1.4.1.1.1.4.2 1.1zm-4.1 9.6c0 .3-1 .4-2.9.4h-.5c-.4 0-.6-.1-.6-.2s.3-.2 1-.2h.6c.3 0 .6-.1.9-.1h.9c.4-.1.6-.1.6.1zm3-1.9v.7c0 .1-.1.2-.1.2-.2 0-.2-.1-.2-.2v-.3-.8c0-.4 0-.9.1-1.3 0-.4 0-.6.1-.7.1 0 .2.5.2 1.5 0 .6 0 .8-.1.9zm-10.6-14.6c0-.1.3-.2.9-.2.5 0 .8 0 .8.1-.1.2-.4.2-.8.2-.6.1-.9.1-.9-.1zm9.6-8.6v-.2c0-.8.1-1.2.2-1.2.2 0 .2.6.2 1.9v2.8l-.2-.7c-.2-1.2-.2-2.1-.2-2.6zm-4.8-4.3c0-.2.4-.2 1.3-.2.4 0 .7 0 .8.1.1.1.1.2.1.2h-.3c-1.2.1-1.9 0-1.9-.1zm-7.6 2.8c1.1 0 2.9.1 5.5.2s3.9.3 4.1.4c.2.1.3.8.4 2.2.2 3.3.3 4.9.4 5 0 0-.3.1-.9.2-.6.1-1.3.2-2.2.3-.9.1-1.7.2-2.4.2-.3.1-.9.1-2 .2-1 0-1.8.1-2.4.2h-.2c0-.5-.1-1.3-.1-2.4 0-1.1-.1-2.3-.1-3.7-.1-1.5-.1-2.4-.1-2.8z"/>
    <path class="st2" d="M626.4 123.5c0 .1-.9.1-2.6.1-.1 0-.2 0-.2-.1v-.1c.1-.1.2-.2.3-.2.2 0 .7 0 1.4.1s1.1.2 1.1.2m-5.1-30.1H620.4c-.1 0-.2.1-.2.1s-.1.1-.1.2v1.4c-.1.8-.1 1.8-.1 3 0 2.4-.1 4.4-.3 6-.1.8-.2 3.8-.4 9.1-.2 5.4-.2 9-.2 11.1v.7c0 .1.3.2.8.4.6.1 3 .1 7.2.1h9.7c.3 0 .5 0 .6-.1l.2-.2c0-.1 0-.3.1-.6v-.7-.8c0-.6 0-.9-.1-1-.3-.2-1.4-.3-3.4-.4-4.7-.2-7.3-.3-7.7-.4l-2.2-.1-.1-1.9v-4.6c.1-2.3.2-3.5.4-3.6.3-.1 2-.2 5-.3 3.9-.2 6.1-.4 6.6-.8.2-.1.3-.5.3-1 0-.7.1-1.3.2-1.6.1-.2.1-.4.1-.5 0-.1-.2-.2-.5-.3-.5-.1-1.8-.1-4.1-.1h-4.8c-2.3 0-3.5-.1-3.6-.2l.1-5 .4-3.8h.9c.4 0 1-.1 1.8-.1h4.3l6.1.1.2-1.1c.2-.6.2-1.2.2-1.7 0-.4 0-.7-.1-.7-.2-.1-2-.3-5.4-.4-3.4-.1-6.4-.2-8.9-.2h-2.1zm14.7.9c.3.1.4.2.4.4v.1c-.1.1-.2.1-.3.1-.2 0-.4 0-.6-.1-.8-.1-1.3-.2-1.3-.3 0 0 0-.1.1-.1.2-.1.4-.2.6-.2 0-.1.4 0 1.1.1zM620.4 107l.1-.2c.1 0 .1.5.1 1.4v1.8c0 .3-.1.8-.2 1.5-.1.6-.2.9-.2.9v-.2-1.7c-.2-1.2-.1-2.3.2-3.5zm.6-2.4c.2-.1.2.2.2.7v.3c0 .3-.1.5-.3.5-.1-.3-.1-.5-.1-.7-.1-.4 0-.6.2-.8zm13.8 2.4c.1 0 .1 0 0 0 0 .1-.1.2-.5.3-.1.1-.1.1-.2.1h-.1c-.2 0-.3.1-.3.2-.8 0-1.2-.1-1.2-.3 0 0 0-.1.1-.1.3-.2.6-.2 1-.2.2-.1.6-.1 1.2 0zm-8.7-10.4c0 .1 0 .2-.1.2-.1.1-.2.1-.2.1h-.3c-.1 0-.3 0-.7-.1l-1.7-.2s0-.1.1-.1c.6-.1 1-.2 1.3-.2.2 0 .5 0 .8.1.4.1.7.2.8.2zm3.1 12.5c.3.1.4.2.4.4 0 .1 0 .1-.1.1h-.5c-.3 0-.8-.1-1.7-.3-.8-.1-1.2-.2-1.2-.3h.1c.6-.1 1-.1 1.2-.1.2 0 .9.1 1.8.2zm-19.7 9.4v-.2s.1.2.1.5c.1.3.1.7.2 1.2 0 .4.1.8.1 1 0 2.3-.1 3.5-.2 3.5s-.1-.1-.1-.3c-.2-1-.2-1.8-.2-2.5 0-.3 0-.9.1-1.6v-1.6zm-7.1-25.3c.3-.1.7-.1.9-.1h.8c.1.1.1.1.1.2s0 .1-.1.1h-.3c-.1 0-.4 0-.8-.1-.4 0-.7 0-.6-.1zm-.7-.5v1.1c0 .3 0 .9.1 1.8l.1.4c0 .4.2.6.5.6h2.1c1.3 0 2 0 2.1.1.1 0 .1 1.6.1 4.7v4.9c-.1 6.5-.1 12.2-.1 17.2v1.4c0 .4.4.7 1.1.7.1 0 .6 0 1.3-.1h1.4c.1 0 .1 0 .2-.1l.1-.1v-.5l-.1-1.9.7-24.7c.1-.1.3-.1.8-.1.4 0 .9 0 1.5.1.6 0 1.1.1 1.6.1s.7.1.7.1h.9c.1 0 .1-.3.1-1v-2.2c0-.3-.1-.6-.2-.7-.1-.1-.4-.2-.7-.2l-1.7-.1c-.4 0-1.9-.1-4.4-.2-1.1-.1-2-.2-2.9-.3-2.7-.5-4.3-.8-4.9-.8-.2-.4-.4-.3-.4-.2zm7.9 6.4c-.1 2.2-.3 3.3-.4 3.3-.2 0-.2-1-.2-3.1 0-1.2.1-1.8.3-1.8.2 0 .3.3.3.9.1.4 0 .6 0 .7zm-1.2 2.2c0 1.8-.1 2.7-.2 2.8-.1 0-.2-.9-.2-2.8 0-.9 0-1.3.1-1.3.2.2.3.6.3 1.3zm-.9 12.9c0 .8-.1 1.3-.3 1.3-.1 0-.2-.4-.2-1.3 0-.5 0-.8.1-.8.3.1.4.3.4.8zm-10.7 7c0 .8-.1 1.2-.2 1.2-.2 0-.3-.7-.3-2.2 0-.6 0-1 .1-1.1 0 0 .1.2.1.5s.1.6.1 1 .1.6.1.6zm-.6-13.7v2.1c-.1 0-.2-.1-.3-.4-.2-.7-.3-1-.3-1v-.2-.5-.5c0-.3.1-.6.3-.9h.2v1.4zm-.8-10.1c0 .9-.1 1.6-.3 1.9-.1 0-.1-.1-.1-.3v-.5-1.9c0-.4 0-.6.1-.6.2.1.3.5.3 1.4zm-16.8 27.7l2.9.2h.2c.3 0 .5-.2.5-.6v-.2-.2-.1l.1-5.2c.1-13.6.3-20.4.6-20.5 0 0 .5 1.7 1.4 5.2.9 3.5 1.8 7.1 2.8 10.8.9 3.7 1.5 5.8 1.6 6.3.2 1 .4 1.8.6 2.6.2.7.4 1.3.6 1.6.2.3.3.5.4.5l6 .2h.5c.2 0 .4 0 .5-.1.1-.1.2-.2.2-.3 0-.1.1-.4.1-.7.3-3.6.4-6 .4-7.1 0-2.8.1-6.4.3-10.7.2-5.2.3-9.1.3-11.6V93c0-.5-.1-.7-.2-.7s-.3 0-.8.1c-.2 0-.5.1-.8.2-.3.1-.5.1-.6.2l-.9.1c-.5.1-.8.2-.9.3-.1.1-.1.4-.1.8v.3l-.1 11.1c-.1 3.8-.2 7.2-.4 10.3-.2 3-.5 4.6-.7 4.6-.1 0-.2-.1-.2-.2s-.3-1-.8-2.6-1.1-3.5-1.7-5.7c-.7-2.2-1.1-4-1.5-5.6L586.2 95c-.1-.3-.1-.5-.2-.6-.1-.1-.2-.2-.3-.2-.1 0-.3-.1-.7-.1h-.2c-.4 0-1.3 0-2.8.1-1.5.1-2.3.1-2.4.1h-.3c-.1 0-.1.1-.1.2v3c0 1.1-.1 2.6-.1 4.3 0 1.7-.1 3-.1 4-.1 2.2-.2 6.5-.5 12.8-.1 3-.2 4.7-.2 5.3v.8c-.2.2 0 .4.3.4zm2.8-14.3v-.3s.1.1.1.4c0 .3.1.6.1 1v1.4c0 .5-.1 1.2-.2 2s-.2 1.2-.3 1.2v-.3c-.1-.8-.1-1.5-.1-2.2.1-.8.2-1.9.4-3.2zM580.2 95c.7-.2 1.4-.2 2.2-.2h.7c.1 0 .1.1.1.1 0 .2-.6.4-1.9.5h-.1c-.8 0-1.1-.1-1-.4-.1.1-.1 0 0 0zm8.3 22.1c.1.2.2.3.2.5.1.2.1.3.1.4.2.6.3 1.1.4 1.4v.9c0 .3 0 .5-.1.5v-.1c-.3-.9-.5-2.1-.6-3.6zm-7 6.4c.1 0 .1.1.1.2v.1H580c-.2 0-.2-.1-.2-.2 0-.2.1-.3.4-.3.2 0 .4 0 .7.1.3.1.6.1.6.1zm3-22.4v-.1c.1 0 .3.8.7 2.3.2.9.3 1.6.3 1.9v-.1c-.5-1.4-.8-2.7-1-4zm-19.9 22.4c0 .1-.9.1-2.6.1-.1 0-.2 0-.2-.1v-.1c.1-.1.2-.2.3-.2.2 0 .7 0 1.4.1.8.1 1.1.2 1.1.2zm-5.1-30.1H558.6c-.1 0-.2.1-.2.1s-.1.1-.1.2v1.4c-.1.8-.1 1.8-.1 3 0 2.4-.1 4.4-.3 6-.1.8-.2 3.8-.4 9.1-.2 5.4-.2 9-.2 11.1v.7c0 .1.3.2.8.4.6.1 3 .1 7.2.1h9.7c.3 0 .5 0 .6-.1l.2-.2c0-.1 0-.3.1-.6v-.7-.8c0-.6 0-.9-.1-1-.3-.2-1.4-.3-3.4-.4-4.7-.2-7.3-.3-7.7-.4l-2.2-.1-.1-1.9v-4.6c.1-2.3.2-3.5.4-3.6.3-.1 2-.2 5-.3 3.9-.2 6.1-.4 6.6-.8.2-.1.3-.5.3-1 0-.7.1-1.3.2-1.6.1-.2.1-.4.1-.5 0-.1-.2-.2-.5-.3-.5-.1-1.8-.1-4.1-.1h-4.8c-2.3 0-3.5-.1-3.6-.2l.1-5 .4-3.8h.9c.4 0 1-.1 1.8-.1h4.3l6.1.1.2-1.1c.2-.6.2-1.2.2-1.7 0-.4 0-.7-.1-.7-.2-.1-2-.3-5.4-.4-3.4-.1-6.4-.2-8.9-.2h-2.1zm14.7.9c.2.1.4.2.4.4v.1c-.1.1-.2.1-.3.1-.2 0-.4 0-.6-.1-.8-.1-1.3-.2-1.3-.3 0 0 0-.1.1-.1.2-.1.4-.2.6-.2.1-.1.4 0 1.1.1zM558.6 107l.1-.2c.1 0 .1.5.1 1.4v1.8c0 .3-.1.8-.2 1.5-.1.6-.2.9-.2.9v-.2-1.7c-.2-1.2-.1-2.3.2-3.5zm.6-2.4c.2-.1.2.2.2.7v.3c0 .3-.1.5-.3.5-.1-.3-.1-.5-.1-.7 0-.4.1-.6.2-.8zm13.9 2.4c0 .1-.1.2-.5.3-.1.1-.1.1-.2.1h-.1c-.2 0-.3.1-.3.2-.8 0-1.2-.1-1.2-.3 0 0 0-.1.1-.1.3-.2.6-.2 1-.2.1-.1.5-.1 1.2 0zm-8.7-10.4c0 .1 0 .2-.1.2-.1.1-.2.1-.2.1h-.3c-.1 0-.3 0-.7-.1l-1.7-.2s0-.1.1-.1c.6-.1 1-.2 1.3-.2.2 0 .5 0 .8.1.3.1.6.2.8.2zm3 12.5c.3.1.4.2.4.4 0 .1 0 .1-.1.1h-.5c-.3 0-.8-.1-1.7-.3-.8-.1-1.2-.2-1.2-.3h.1c.6-.1 1-.1 1.2-.1.3 0 .9.1 1.8.2z"/>
  </g>
</svg>