<!-- Generator: Adobe Illustrator 19.2.1, SVG Export Plug-In  -->
<svg version="1.1"
	 xmlns="http://www.w3.org/2000/svg" xmlns:xlink="http://www.w3.org/1999/xlink" xmlns:a="http://ns.adobe.com/AdobeSVGViewerExtensions/3.0/"
	 x="0px" y="0px" width="303.4px" height="59.8px" viewBox="0 0 303.4 59.8" style="enable-background:new 0 0 303.4 59.8;"
	 xml:space="preserve">
<style type="text/css">
	.st0{fill:#FFFFFF;}
</style>
<defs>
</defs>
<g>
	<path class="st0" d="M28.1,6.8c0,0.3,0,0.6,0.1,1.1c0,0.5,0.1,1,0.1,1.5c0,0.5,0.1,1,0.1,1.5c0,0.5,0.1,0.8,0.1,1
		c0,0.4-0.1,0.6-0.4,0.8c-0.3,0.2-0.8,0.3-1.7,0.4c-1.5,0.3-2.9,0.3-4.4,0.2c-0.5,0-1-0.1-1.5-0.1c-0.5,0-1,0-1.5,0v1.5
		c0,1.2,0,2.4,0,3.5c-0.1,0.8-0.1,1.6-0.1,2.4c0,0.8,0,1.6-0.1,2.4c-0.1,0.4,0,0.8,0.1,1.3c0.1,0.8,0.2,1.4,0.2,1.9
		c0,0.4,0,0.9,0,1.4c0,0.6,0,1.2,0,1.8c0,0.6,0,1.2,0.1,1.7c0,1,0.1,1.8,0.1,2.5c0,0.7-0.1,1.4-0.1,2.2c-0.1,0.9-0.2,1.8-0.2,2.7
		s-0.1,1.8-0.2,2.7c-0.1,0.7-0.2,1.3-0.2,2s0,1.3,0,1.9c0,1.4,0,2.9,0,4.3c-0.1,1.4-0.1,2.9-0.3,4.3c-0.1,0.6-0.3,0.9-0.8,0.9
		c-2.2,0.5-4.3,0.5-6.6,0.1c-0.5,0-0.8-0.3-0.9-0.8V53c-0.1-0.8-0.1-1.6,0-2.3c0-0.8,0-1.6,0-2.3c-0.1-1.4-0.2-2.8-0.2-4.1
		c0-1.4,0-2.7,0.1-4.1c0.1-1.5,0.2-3,0.2-4.4c0-1.5,0-3,0-4.5c0-0.7,0-1.5-0.1-2.2c-0.1-0.8-0.1-1.5-0.1-2.2
		c-0.1-1.1-0.1-2.2-0.1-3.2s0-2.1,0.1-3.1c0-0.2,0.1-0.5,0.1-0.9c-0.1-0.9-0.2-1.9-0.2-2.8s0-1.9,0-3c-0.8,0.1-1.6,0.1-2.4,0.1
		c-0.8,0-1.6,0-2.4,0c-1.1,0-1.9,0-2.2-0.1c-0.4-0.1-0.7-0.3-1.1-0.7c-0.1-0.1-0.3-0.4-0.6-0.7c-0.7-1.7-1-3.3-0.8-4.9
		c0.1-0.4,0.3-0.7,0.6-0.9C1,6.2,1.5,6,2.4,5.8c0.7-0.1,1.5-0.2,2.2-0.2c0.7,0,1.5-0.1,2.2-0.1c1.7-0.1,3.4-0.1,5.1-0.1s3.3,0,5,0
		c1.4,0,2.7-0.1,4.1,0c1.4,0,2.7,0,4.1,0c1.4,0,2.3,0.3,2.8,0.9C28,6.5,28.1,6.7,28.1,6.8z"/>
</g>
<g>
	<path class="st0" d="M32,22.9c0-0.6,0-1.5-0.1-2.7s-0.1-2.5-0.1-3.8c0-1.3,0-2.5,0.1-3.7c0-1.1,0.1-2,0.2-2.4
		c0-0.2,0.1-0.6,0.1-1.3c0-0.7,0-1.5,0-2.3c0-0.9,0-1.7,0-2.6c0-0.8,0-1.5,0-2c0-0.1,0.1-0.3,0.1-0.5c0-0.2,0-0.3,0-0.5
		c0.1-0.5,0.5-0.8,1-0.8l1.2,0c0.8,0,1.7,0.1,2.8,0.1c1.1,0.1,2.2,0.1,3.4,0.1c1.2,0.1,2.2,0.1,3,0.1c0.9,0,1.9,0,3,0
		c1.1,0,2.2,0,3.2,0c1,0,1.9,0.1,2.6,0.1c0.7,0.1,1.2,0.1,1.3,0.1c0.9,0.1,1.4,0.5,1.5,1.3c0.1,0.9,0.2,1.8,0.2,2.7
		c0,0.9,0,1.8,0,2.7c-0.1,0.6-0.1,1.1,0,1.6c0,0.5,0.1,1,0.1,1.6c0.1,1.3,0.2,2.5,0.2,3.8c0.1,1.3,0.1,2.5,0,3.8
		c0,1.2,0,2.3-0.1,3.5c-0.1,1.1,0,2.3,0.1,3.5c0.1,1.5,0.1,3,0,4.4c-0.1,1.5-0.1,3-0.2,4.4c0,0.7,0,1.3,0,2s0,1.3-0.1,2
		c0,1.2-0.1,2.3-0.2,3.5c-0.1,1.1-0.3,2.3-0.5,3.5c-0.2,1-0.4,2.1-0.6,3.2s-0.4,2.2-0.7,3.2c-0.4,2-1.3,3.7-2.7,5.4
		c-0.7,0.8-1.6,1.5-2.6,2c-1,0.5-2.1,0.8-3.2,1c-1.2,0.1-2.3,0-3.5-0.3c-1.2-0.3-2.3-0.8-3.3-1.6c-0.9-0.6-1.7-1.4-2.3-2.3
		c-1-1.4-1.8-2.8-2.3-4.4c-0.5-1.6-0.9-3.1-1.1-4.8c-0.1-0.9-0.2-1.9-0.2-2.8c0-1-0.1-1.9-0.1-2.8c-0.1-1-0.2-2.4-0.2-4.2
		c-0.1-1.8-0.1-3.7-0.1-5.5c0-1.9,0-3.6,0-5.2S32,23.4,32,22.9z"/>
</g>
<g>
	<path class="st0" d="M84.5,0.7c0.7,0.4,1.2,1.1,1.5,2.1c0.3,1,0.4,2,0.2,3.1c-0.1,0.8-0.3,1.5-0.6,1.9c-0.3,0.5-0.9,0.9-1.7,1.3
		c-0.3,0.2-0.7,0.3-1.2,0.3c-0.6,0.1-1,0.1-1.3,0.2c-1,0-2-0.4-2.9-1.1C77.5,7.9,76.9,7,76.8,6c-0.3-1.9,0.3-3.4,1.7-4.5
		c1.7-1.4,3.5-1.7,5.6-1C84.2,0.5,84.3,0.5,84.5,0.7z M85.6,55.1c0,0.3,0.1,0.6,0.1,0.9c0,0.3,0.1,0.6,0.1,0.9
		c0.2,0.5,0.1,1-0.1,1.5c-0.3,0.6-0.6,1-1.2,1c-2.3,0.3-4.4,0.3-6.5-0.1c-0.6,0-0.9-0.4-1-1.1c-0.1-0.6-0.2-1.2-0.2-1.9
		c-0.1-0.7-0.1-1.4,0-2.1c0.1-1.8,0.2-3.5,0.2-5.2c0-1.7,0.1-3.5,0.2-5.2c0-0.8,0-1.6,0-2.4c0-0.8,0.1-1.5,0.1-2.3
		c0-1.1,0.1-2.2,0-3.3c0-1.1,0-2.2,0-3.3c0-0.6,0-1.5,0-2.9c0-1.3,0-2.8,0-4.3s0-3,0-4.3s0-2.3,0-3c0-0.6,0-1.1,0-1.7
		c0-0.5,0-1.1,0-1.6c0-0.3,0-0.6,0-0.9c0-0.3,0.1-0.6,0.1-0.9c0-0.4,0.3-0.7,0.9-0.9c0.2,0,0.3-0.1,0.5-0.1c0.2,0,0.3,0,0.5-0.1
		c0.8,0,1.6-0.1,2.4,0c0.8,0,1.6,0.1,2.4,0.2c0.6,0.1,1,0.3,1.1,0.5c0.2,0.3,0.3,0.6,0.3,1c0,0.6,0,2,0,4.1c0,2.1,0,4.3,0,6.8
		c0,2.5,0,4.8,0.1,7.1c0,2.3,0,4,0,5.1c0,0.5,0,1.1,0,1.9s0,1.5-0.1,2.2c-0.1,0.7-0.1,1.3-0.1,1.8l0,0.8c-0.1,1.1-0.1,2.1-0.1,3.1
		s0,1.9,0,2.8c0,0.9,0,1.9,0,2.8S85.6,53.9,85.6,55.1z"/>
</g>
<g>
	<path class="st0" d="M92.5,35.3c0-0.8,0-1.9,0-3.4c0-1.5,0-3,0-4.6s0-2.9,0-4.1c0-1.2,0-1.9,0.1-2.1c0-0.2,0.1-1,0.1-2.1
		c0-1.1,0.1-2.4,0.1-3.8c0-1.4,0.1-2.6,0.1-3.7c0-1.1,0.1-1.8,0.1-2C93,8.9,93,8.5,93,8c0-0.5,0.1-1,0.1-1.4c0-0.1,0.1-0.3,0.1-0.4
		c0-0.1,0-0.3,0.1-0.4c0.1-0.2,0.4-0.3,0.7-0.4c0.2,0,0.5,0,1,0c0.5,0,1,0.1,1.6,0.2c0.6,0.1,1.1,0.2,1.7,0.3
		c0.6,0.1,1.1,0.3,1.5,0.5c0.2,0.1,0.8,0.3,1.5,0.6c0.8,0.3,1.8,0.8,3.1,1.5c1.4,0.8,2.5,1.7,3.3,2.6c0.8,0.9,1.5,1.7,2.1,2.6
		c0.9,1.1,1.5,2.1,2,2.9c0.5,0.9,0.9,2,1.4,3.5c0.2,0.6,0.3,1.4,0.5,2.4c0.2,1,0.3,2,0.4,3.1c0.1,1.1,0.2,2,0.3,2.9
		c0.1,0.9,0.1,1.5,0.1,1.8c0.1,1.2,0.1,2.4-0.1,3.5c-0.1,1.2-0.4,2.4-0.6,3.5c-0.1,0.6-0.2,1.2-0.4,1.9c-0.2,0.6-0.4,1.2-0.6,1.8
		c-0.3,0.8-0.6,1.6-1.1,2.5c-0.5,0.9-1,1.9-1.6,2.9c-0.5,0.7-0.9,1.3-1.3,1.7c-0.4,0.4-0.7,0.8-1.1,1.2c-0.4,0.4-0.7,0.7-1.1,1
		c-0.4,0.3-0.8,0.7-1.3,1.2c-1.1,0.7-2.3,1.4-3.7,2.2c-1.4,0.8-2.8,1.3-4.2,1.6c-1.2,0.1-2.3,0.2-3.2,0.2c-0.9,0-1.3,0-1.2-0.3
		c-0.2-0.1-0.4-0.5-0.5-0.9c-0.1-0.5-0.2-0.9-0.2-1.4c0-0.5,0-1,0-1.4s0-0.7,0-0.7c-0.1-1.3-0.1-2.7-0.1-4.3c0-1.6,0-3.1,0-4.6
		c0-1.5,0.1-2.8,0.1-4C92.5,36.5,92.5,35.7,92.5,35.3z"/>
</g>
<g>
	<path class="st0" d="M139.7,48.8c0,0.2,0.1,0.5,0.1,0.8c0,1,0,1.9,0,2.9c0,0.3,0,0.5,0,0.6c0,0.2,0,0.4-0.1,0.6
		c-0.2,0.5-0.6,0.8-1.2,0.9c-0.9,0.2-1.8,0.4-2.7,0.5c-0.9,0.1-1.8,0.2-2.7,0.1c-0.9,0-1.9-0.1-2.8-0.1c-0.9,0-1.9,0-2.9-0.1h-2.6
		c-0.4,0-0.8-0.1-1.2-0.1c-0.4,0-0.8,0-1.2-0.1h-0.1h-0.6c-0.3,0-0.6,0-0.9,0c-0.3,0-0.7-0.1-1.1-0.1c-0.5,0-0.7-0.3-0.8-0.7v-0.9
		c0-1,0-2,0-3c0-1,0-1.9,0-3V31.3c0-0.2,0-0.5,0-0.7c0-0.2,0-0.4,0-0.6c0-0.3,0.1-0.7,0.1-1c0-0.3,0-0.7,0-1V26c0-0.4,0-0.8,0.1-1.2
		c-0.1-0.8-0.1-1.6-0.1-2.4c0-0.8,0-1.6-0.1-2.4c-0.1-0.9-0.2-1.8-0.3-2.8c-0.1-0.9-0.2-1.9-0.2-2.8v-3.2c-0.1-0.4-0.1-0.8-0.1-1.2
		c0-0.4,0-0.8-0.1-1.3c0-0.3,0-0.5,0-0.6s-0.1-0.4-0.1-0.7c-0.1,0-0.1-0.1-0.1-0.2c0-0.5,0.2-0.8,0.7-1c0.4-0.6,1.7-0.9,3.7-0.9
		c0.5,0,1-0.1,1.4-0.1c0.5,0,1,0,1.5-0.1c1.3-0.1,2.7-0.2,4-0.2c1.3,0,2.7,0,4,0.1h2.2c1.6,0.1,2.6,0.3,3,0.5c0.4,0.3,0.7,0.7,1,1.5
		c0,0.2,0.1,0.5,0.1,0.8c0,1,0,1.9,0,2.8c0,0.6-0.1,1-0.1,1.2c-0.1,0.6-0.5,0.9-1.2,0.9c-1,0.2-1.9,0.4-2.9,0.5
		c-1,0.1-1.9,0.2-2.9,0.1c-1,0-1.9-0.1-2.9-0.1c-0.9,0-1.9,0-2.9-0.1c0,0.3,0,0.5,0,0.7c0,0.2,0,0.4,0,0.7c-0.1,0.9-0.1,1.8-0.1,2.6
		s0,1.8,0.2,2.7c0.1,1,0.2,2,0.2,2.9c0,1-0.1,2-0.3,2.9c-0.1,0.2-0.1,0.4,0,0.6c0,0.2,0,0.4,0,0.5c0,0.7,0,1.3,0,1.9
		c0,0.6,0,1.2,0,1.9v0.9h0.3c0.8,0.1,1.6,0.1,2.4,0.1s1.6,0,2.5,0h1.3h1.6h1.3c1,0.1,1.6,0.5,1.8,1.1c0,0.2,0.1,0.5,0.1,0.9
		c-0.1,0.9-0.2,1.7-0.2,2.6c-0.1,0.8-0.1,1.7-0.2,2.6c-0.1,0.8-0.9,1.2-2.2,1.2c-1.4-0.1-2.9-0.2-4.3-0.2c-1.4,0-2.9-0.1-4.3-0.1
		H127v0.3c-0.1,0.7-0.1,1.4-0.1,2.1c0,0.7,0,1.4-0.1,2.1c-0.1,0.4-0.1,0.7-0.1,1c0,0.3,0,0.7,0,1.1v0.6c1.2-0.1,2.5-0.2,3.7-0.2
		c1.2,0,2.4,0,3.6,0.1h2.1c1.5,0.1,2.4,0.3,2.8,0.6C139.2,47.6,139.5,48.1,139.7,48.8z"/>
</g>
<g>
	<path class="st0" d="M153.4,26.3c-0.2-0.2-0.3,0-0.4,0.5c-0.1,0.5-0.1,1.1,0,1.9s0.1,1.6,0.1,2.5c0,0.9,0.1,1.6,0.1,2.2
		c0.1,1,0.1,2,0.1,3c0,1,0,2,0,3c0,0.5,0,1.3,0,2.6c0,1.3,0,2.7,0.1,4.1c0,1.4,0,2.7,0.1,3.9c0,1.2,0,2,0,2.3c0,0.6,0.1,1.1,0.1,1.6
		s0,1,0,1.6c0,0.5-0.1,1-0.2,1.5c-0.1,0.5-0.2,0.9-0.4,1.4c-0.2,0.5-0.6,0.8-1.2,1c-1.2,0.1-2.3,0.1-3.2,0.1c-0.9,0-1.8-0.2-2.9-0.5
		c-0.1-0.1-0.3-0.2-0.5-0.2s-0.4-0.1-0.5-0.2c-0.4-0.3-0.6-0.6-0.6-1c0,0,0-0.4,0-1.1c0-0.7,0-1.4,0-2.2c0-0.8,0.1-1.5,0.1-2.1
		s0-1,0-1.1c0-0.4,0-1.3,0.1-2.6c0-1.4,0.1-2.9,0.1-4.7c0-1.8,0.1-3.6,0.1-5.4c0-1.9,0-3.5-0.1-5c-0.1-0.6-0.1-1.7-0.1-3.2
		c-0.1-1.5-0.1-3.1-0.2-4.8c-0.1-1.7-0.1-3.2-0.1-4.6c0-1.4,0-2.3,0-2.8c0-1.4,0-2.7,0-4c-0.1-0.9-0.1-1.7-0.1-2.6
		c0-0.8,0-1.7-0.1-2.6V4.4c0-0.5,0-0.9,0.1-1.4c0.1-0.5,0.1-0.9,0.2-1.4c0-0.4,0.3-0.7,0.8-0.9c0.4-0.1,0.7-0.2,1.1-0.3
		c0.4-0.1,0.7-0.2,1.1-0.2c0.9,0,1.7,0,2.6,0c0.8,0,1.7,0,2.6,0c0.2,0,0.5,0.1,1.1,0.2c0.3,0.1,0.6,0.5,0.9,1.1s0.4,1.4,0.6,2.2
		c0.2,0.8,0.3,1.6,0.5,2.5c0.2,0.8,0.3,1.5,0.5,2.1c0.3,1.2,0.7,2.4,1,3.5c0.3,1.2,0.6,2.4,0.9,3.5c0,0.3,0.2,0.9,0.4,1.8
		c0.2,0.9,0.5,1.9,0.8,3c0.3,1.2,0.6,2.4,1,3.8c0.3,1.4,0.7,2.6,1,3.8c0.3,1.2,0.6,2.3,0.8,3.2s0.4,1.6,0.5,2
		c0.1,0.4,0.2,0.8,0.3,1.2c0.1,0.4,0.3,0.8,0.4,1.4c0.2,0.2,0.3,0.1,0.4-0.3c0.1-0.4,0.1-1,0.1-1.7s0-1.6,0-2.6c0-1-0.1-2-0.1-2.9
		c0-0.7,0-1.5,0-2.3c-0.1-0.8,0-2.1,0.1-3.7c0-0.3,0-0.9,0-1.6c0-0.7,0-1.4,0-2.2s0-1.5,0-2.1c0-0.7,0-1.2,0-1.6
		c0-1-0.1-1.9-0.2-2.7c-0.1-0.8-0.1-1.8-0.2-2.9c0.1-1.3,0.1-2.3,0-3.1c0-0.8,0-1.6,0-2.6c0-0.2,0-0.4,0-0.6s0-0.4,0.1-0.7
		c0-0.3,0.2-0.6,0.4-0.9c0.2-0.3,0.7-0.5,1.6-0.6c0.2,0,0.5-0.1,1-0.1c0.4,0,0.9-0.1,1.4-0.2c0.5,0,1-0.1,1.4-0.1s0.9,0,1.3,0.1
		c0.7,0.1,1.3,0.3,1.6,0.7c0.3,0.4,0.5,0.9,0.4,1.5c-0.1,1.2-0.2,2.3-0.3,3.5s-0.1,2.3-0.1,3.5c0,1.7,0,3.3,0,4.7
		c0,1.4-0.1,2.8-0.1,4.2s0,2.8-0.1,4.2c0,1.4,0,3,0,4.7c0,0.3,0,1,0,2.1c0,1.1-0.1,2.2-0.1,3.4c-0.1,1.2-0.1,2.3-0.1,3.4
		c0,1.1-0.1,1.7-0.1,2.1c0,1.3,0,2.9,0.1,4.8c0.1,1.9,0,3.9-0.1,6c0,0.8,0.1,1.7,0.1,2.6c0,1,0,1.9,0,2.8s0,1.7-0.1,2.4
		s-0.1,1.1-0.2,1.3c-0.1,0.4-0.4,0.7-0.8,0.8c-0.5,0.2-0.9,0.3-1.4,0.3c-0.1,0-0.3,0-0.6,0c-0.3,0-0.5,0-0.6,0
		c-0.5,0.1-0.9,0.1-1.3,0.1c-0.3,0-0.7,0-1,0c-0.3,0-0.7-0.1-1-0.1c-0.3,0-0.8-0.1-1.3-0.2c-0.5-0.1-0.9-0.3-1.3-0.5
		c-0.8-0.4-1.3-1-1.3-1.8c-0.1-1.4-0.3-2.8-0.7-4.1c-0.4-1.3-0.6-2.7-0.8-4.1c-0.4-2.6-1-5.2-1.7-7.7c-0.7-2.5-1.4-5.1-1.9-7.7
		c-0.3-1.1-0.6-2.2-0.9-3.3C154.1,28.5,153.8,27.4,153.4,26.3z"/>
</g>
<g>
	<path class="st0" d="M203.2,6.8c0,0.3,0,0.6,0.1,1.1c0,0.5,0.1,1,0.1,1.5c0,0.5,0.1,1,0.1,1.5c0,0.5,0.1,0.8,0.1,1
		c0,0.4-0.1,0.6-0.4,0.8c-0.3,0.2-0.8,0.3-1.7,0.4c-1.5,0.3-2.9,0.3-4.4,0.2c-0.5,0-1-0.1-1.5-0.1c-0.5,0-1,0-1.5,0v1.5
		c0.1,1.2,0.1,2.4,0,3.5c-0.1,0.8-0.1,1.6-0.1,2.4c0,0.8,0,1.6-0.1,2.4c0,0.4,0,0.8,0.1,1.3c0.1,0.8,0.2,1.4,0.2,1.9
		c0,0.4,0,0.9,0,1.4c0,0.6,0,1.2,0,1.8c0,0.6,0,1.2,0.1,1.7c0,1,0.1,1.8,0.1,2.5c0,0.7,0,1.4-0.1,2.2c-0.1,0.9-0.2,1.8-0.2,2.7
		s-0.1,1.8-0.2,2.7c-0.1,0.7-0.2,1.3-0.2,2s0,1.3,0,1.9c0,1.4,0,2.9,0,4.3c0,1.4-0.1,2.9-0.3,4.3c-0.1,0.6-0.3,0.9-0.8,0.9
		c-2.2,0.5-4.3,0.5-6.6,0.1c-0.5,0-0.8-0.3-0.9-0.8V53c-0.1-0.8-0.1-1.6,0-2.3c0-0.8,0-1.6,0-2.3c-0.1-1.4-0.2-2.8-0.2-4.1
		c0-1.4,0-2.7,0.1-4.1c0.1-1.5,0.2-3,0.2-4.4c0-1.5,0-3,0-4.5c0-0.7,0-1.5-0.1-2.2c0-0.8-0.1-1.5-0.1-2.2c0-1.1-0.1-2.2-0.1-3.2
		c0-1.1,0-2.1,0.1-3.1c0-0.2,0.1-0.5,0.1-0.9c-0.1-0.9-0.2-1.9-0.2-2.8s0-1.9,0-3c-0.8,0.1-1.6,0.1-2.4,0.1c-0.8,0-1.6,0-2.4,0
		c-1.1,0-1.9,0-2.2-0.1c-0.4-0.1-0.7-0.3-1.1-0.7c-0.1-0.1-0.3-0.4-0.6-0.7c-0.7-1.7-1-3.3-0.8-4.9c0.1-0.4,0.3-0.7,0.6-0.9
		c0.3-0.2,0.9-0.4,1.8-0.6c0.7-0.1,1.5-0.2,2.2-0.2c0.7,0,1.5-0.1,2.2-0.1c1.7-0.1,3.4-0.1,5.1-0.1c1.7,0,3.3,0,5,0
		c1.4,0,2.7-0.1,4.1,0c1.4,0,2.7,0,4.1,0s2.3,0.3,2.8,0.9C203.1,6.5,203.2,6.7,203.2,6.8z"/>
</g>
<g>
	<path class="st0" d="M216.1,0.7c0.7,0.4,1.2,1.1,1.5,2.1c0.3,1,0.4,2,0.2,3.1c-0.1,0.8-0.3,1.5-0.6,1.9s-0.9,0.9-1.7,1.3
		c-0.3,0.2-0.7,0.3-1.2,0.3c-0.6,0.1-1,0.1-1.3,0.2c-1,0-2-0.4-2.9-1.1c-0.9-0.7-1.5-1.6-1.7-2.6c-0.3-1.9,0.3-3.4,1.7-4.5
		c1.7-1.4,3.5-1.7,5.6-1C215.8,0.5,216,0.5,216.1,0.7z M217.3,55.1c0,0.3,0.1,0.6,0.1,0.9c0,0.3,0.1,0.6,0.1,0.9
		c0.2,0.5,0.1,1-0.1,1.5c-0.3,0.6-0.6,1-1.2,1c-2.3,0.3-4.4,0.3-6.5-0.1c-0.6,0-0.9-0.4-1-1.1c-0.1-0.6-0.2-1.2-0.2-1.9
		c-0.1-0.7-0.1-1.4,0-2.1c0.1-1.8,0.2-3.5,0.2-5.2c0-1.7,0.1-3.5,0.2-5.2c0-0.8,0-1.6,0-2.4c0-0.8,0.1-1.5,0.1-2.3
		c0.1-1.1,0.1-2.2,0-3.3c0-1.1,0-2.2,0-3.3c0-0.6,0-1.5,0-2.9c0-1.3,0-2.8,0-4.3s0-3,0-4.3s0-2.3,0-3c0-0.6,0-1.1,0-1.7
		c0-0.5,0-1.1,0-1.6c0-0.3,0-0.6,0-0.9c0-0.3,0.1-0.6,0.1-0.9c0-0.4,0.3-0.7,0.9-0.9c0.2,0,0.3-0.1,0.5-0.1c0.2,0,0.3,0,0.5-0.1
		c0.8,0,1.6-0.1,2.4,0c0.8,0,1.6,0.1,2.4,0.2c0.6,0.1,1,0.3,1.1,0.5c0.2,0.3,0.3,0.6,0.3,1c0,0.6,0,2,0,4.1c0,2.1,0,4.3,0,6.8
		c0,2.5,0,4.8,0.1,7.1c0,2.3,0,4,0,5.1c0,0.5,0,1.1,0,1.9s0,1.5-0.1,2.2c-0.1,0.7-0.1,1.3-0.1,1.8l0,0.8c0,1.1-0.1,2.1-0.1,3.1
		s0,1.9,0,2.8c0,0.9,0,1.9,0,2.8S217.2,53.9,217.3,55.1z"/>
</g>
<g>
	<path class="st0" d="M224.1,35.3c0-0.8,0-1.9,0-3.4c0-1.5,0-3,0-4.6s0-2.9,0-4.1c0-1.2,0-1.9,0.1-2.1c0-0.2,0.1-1,0.1-2.1
		c0-1.1,0.1-2.4,0.1-3.8c0-1.4,0.1-2.6,0.1-3.7c0-1.1,0.1-1.8,0.1-2c0.1-0.5,0.1-0.9,0.1-1.4c0-0.5,0.1-1,0.1-1.4
		c0.1-0.1,0.1-0.3,0.1-0.4c0-0.1,0-0.3,0.1-0.4c0.2-0.2,0.4-0.3,0.7-0.4c0.2,0,0.5,0,1,0c0.5,0,1,0.1,1.6,0.2
		c0.6,0.1,1.1,0.2,1.7,0.3c0.6,0.1,1.1,0.3,1.5,0.5c0.2,0.1,0.8,0.3,1.5,0.6s1.8,0.8,3.1,1.5c1.4,0.8,2.5,1.7,3.3,2.6
		c0.8,0.9,1.5,1.7,2.1,2.6c0.9,1.1,1.5,2.1,2,2.9c0.5,0.9,0.9,2,1.4,3.5c0.2,0.6,0.3,1.4,0.5,2.4c0.2,1,0.3,2,0.4,3.1
		c0.1,1.1,0.2,2,0.3,2.9c0.1,0.9,0.1,1.5,0.1,1.8c0.1,1.2,0.1,2.4-0.1,3.5c-0.2,1.2-0.4,2.4-0.6,3.5c-0.1,0.6-0.2,1.2-0.4,1.9
		c-0.2,0.6-0.4,1.2-0.6,1.8c-0.3,0.8-0.6,1.6-1.1,2.5c-0.5,0.9-1,1.9-1.6,2.9c-0.5,0.7-0.9,1.3-1.3,1.7c-0.4,0.4-0.7,0.8-1.1,1.2
		c-0.4,0.4-0.7,0.7-1.1,1c-0.4,0.3-0.8,0.7-1.3,1.2c-1.1,0.7-2.3,1.4-3.7,2.2c-1.4,0.8-2.8,1.3-4.2,1.6c-1.2,0.1-2.3,0.2-3.2,0.2
		c-0.9,0-1.3,0-1.2-0.3c-0.2-0.1-0.4-0.5-0.5-0.9c-0.1-0.5-0.2-0.9-0.2-1.4c0-0.5,0-1,0-1.4s0-0.7,0-0.7c0-1.3-0.1-2.7-0.1-4.3
		c0-1.6,0-3.1,0-4.6c0-1.5,0.1-2.8,0.1-4C224.1,36.5,224.1,35.7,224.1,35.3z"/>
</g>
<g>
	<path class="st0" d="M276,20.2c0.1,1.4,0.1,2.8,0.1,4.3c0,1.4,0,2.8-0.1,4.3c-0.1,2.4-0.1,4.7-0.2,7c-0.1,2.3-0.2,4.7-0.3,7.1
		c0,0.4,0,0.8-0.1,1.2c-0.1,0.4-0.1,0.8-0.1,1.2c-0.1,1.5-0.2,2.8-0.2,3.9c0,1.1-0.1,2.4-0.2,3.9c0,0,0,0.2,0,0.5s0,0.5-0.1,0.8
		s-0.2,0.6-0.3,0.9c-0.2,0.3-0.5,0.4-0.8,0.4c-0.8,0-1.6,0-2.5,0c-0.9-0.1-1.7-0.2-2.4-0.4c-0.8-0.2-1.4-0.5-1.8-1
		c-0.5-0.4-0.7-0.9-0.6-1.6c0-0.3,0-0.7,0-1c0-0.3,0.1-0.7,0.1-1.1c-0.7,0-1.3,0-2-0.1c-0.7,0-1.2-0.1-1.7-0.1c-0.6,0-1.2,0-2-0.2
		c-0.8-0.1-1.5-0.2-2.2-0.3c-0.7-0.1-1.3-0.3-1.8-0.4c-0.5-0.1-0.8-0.2-0.8-0.2c-1.6-0.6-2.8-1.3-3.8-2.2c-1-0.9-1.8-1.9-2.4-3
		c-0.6-1-1-2.1-1.2-3.3c-0.1-1.2-0.1-2.5,0.1-4c0.2-1.2,0.5-2.2,1-3c0.5-0.9,1.1-1.7,1.9-2.4c0.4-0.4,1-0.9,1.8-1.4s1.5-0.9,1.9-1.1
		c1.2-0.6,2.3-0.9,3.3-1.1c1.1-0.2,2.4-0.3,4-0.5c1.3-0.1,2.4-0.2,3.2-0.2c0.8-0.1,1.6,0,2.5,0.1c0-0.2,0-0.4,0-0.6s0-0.4,0-0.6
		c0.1-1.1,0.1-2.4-0.1-3.9c-0.2-1.5-0.4-2.7-0.8-3.8c-0.2-0.4-0.3-0.8-0.4-1.1c-0.1-0.4-0.3-0.9-0.6-1.5c-0.4-0.6-0.8-1.1-1.1-1.4
		c-0.4-0.3-0.9-0.5-1.6-0.4c-0.5,0-0.9,0.1-1.2,0.4s-0.7,0.6-0.9,1c-0.3,0.4-0.5,0.7-0.6,1.1s-0.3,0.6-0.3,0.8
		c-0.3,0.6-0.5,1.3-0.6,2.2s-0.3,1.7-0.4,2.5c0,0.4-0.1,0.7-0.2,1c-0.1,0.3-0.3,0.6-0.6,0.7c-0.3,0.2-0.7,0.3-1.3,0.4
		c-0.6,0.1-1.4,0.1-2.4-0.1c-0.9,0-1.5-0.3-2-0.6c-0.4-0.3-0.7-0.8-0.9-1.2c-0.2-0.5-0.3-0.9-0.2-1.4c0-0.5,0-0.9,0-1.3
		c0-0.3,0-0.5,0-0.7s0.1-0.4,0.1-0.7c0.2-1.8,0.5-3.3,0.9-4.4c0.4-1.1,0.8-2,1.1-2.6c0.3-0.6,0.7-1.1,1-1.4c0.3-0.3,0.6-0.6,0.8-0.9
		c0.8-0.8,1.6-1.4,2.4-2s1.7-1,2.7-1.2c1.3-0.3,2.6-0.3,3.9-0.2s2.5,0.6,3.7,1.3c0.3,0.2,0.5,0.3,0.8,0.4c0.3,0.2,0.6,0.3,0.8,0.5
		c0.8,0.5,1.5,1,2,1.7c0.5,0.7,1,1.5,1.4,2.4c0.6,1.4,1.1,2.9,1.4,4.4C275.5,17.1,275.8,18.6,276,20.2z"/>
</g>
<g>
	<path class="st0" d="M281.2,35.3c0-0.8,0-1.9,0-3.4c0-1.5,0-3,0-4.6s0-2.9,0-4.1c0-1.2,0-1.9,0.1-2.1c0-0.2,0.1-1,0.1-2.1
		c0-1.1,0.1-2.4,0.1-3.8c0-1.4,0.1-2.6,0.1-3.7c0-1.1,0.1-1.8,0.1-2c0.1-0.5,0.1-0.9,0.1-1.4c0-0.5,0.1-1,0.1-1.4
		c0.1-0.1,0.1-0.3,0.1-0.4c0-0.1,0-0.3,0.1-0.4c0.2-0.2,0.4-0.3,0.7-0.4c0.2,0,0.5,0,1,0c0.5,0,1,0.1,1.6,0.2
		c0.6,0.1,1.1,0.2,1.7,0.3c0.6,0.1,1.1,0.3,1.5,0.5c0.2,0.1,0.8,0.3,1.5,0.6s1.8,0.8,3.1,1.5c1.4,0.8,2.5,1.7,3.3,2.6
		c0.8,0.9,1.5,1.7,2.1,2.6c0.9,1.1,1.5,2.1,2,2.9c0.5,0.9,0.9,2,1.4,3.5c0.2,0.6,0.3,1.4,0.5,2.4c0.2,1,0.3,2,0.4,3.1
		c0.1,1.1,0.2,2,0.3,2.9c0.1,0.9,0.1,1.5,0.1,1.8c0.1,1.2,0.1,2.4-0.1,3.5c-0.2,1.2-0.4,2.4-0.6,3.5c-0.1,0.6-0.2,1.2-0.4,1.9
		c-0.2,0.6-0.4,1.2-0.6,1.8c-0.3,0.8-0.6,1.6-1.1,2.5c-0.5,0.9-1,1.9-1.6,2.9c-0.5,0.7-0.9,1.3-1.3,1.7c-0.4,0.4-0.7,0.8-1.1,1.2
		c-0.4,0.4-0.7,0.7-1.1,1c-0.4,0.3-0.8,0.7-1.3,1.2c-1.1,0.7-2.3,1.4-3.7,2.2c-1.4,0.8-2.8,1.3-4.2,1.6c-1.2,0.1-2.3,0.2-3.2,0.2
		c-0.9,0-1.3,0-1.2-0.3c-0.2-0.1-0.4-0.5-0.5-0.9c-0.1-0.5-0.2-0.9-0.2-1.4c0-0.5,0-1,0-1.4s0-0.7,0-0.7c0-1.3-0.1-2.7-0.1-4.3
		c0-1.6,0-3.1,0-4.6c0-1.5,0.1-2.8,0.1-4C281.2,36.5,281.2,35.7,281.2,35.3z"/>
</g>
</svg>
