<svg xmlns="http://www.w3.org/2000/svg" width="290.8" height="77" viewBox="0 0 290.8 77">
  <style>
    .st0{fill:none;stroke:#2a2f39;stroke-width:.5}.st1{fill:#49576e}.st2{fill:#7670b2}
  </style>
  <path class="st0" d="M.9 14.8v17.7l1.6.1 2 .1c.1-.2.1-2 .1-5.4v-10l.7 4.1c.5 3 .8 4.9.9 5.6.5 2.9.8 4.3.8 4.5l1.1-.1c.1-.2.5-2.1 1.1-5.8.3-1.6.7-3.6 1.1-5.9l.5-2.5v15.5l1.8.1 1.8.1v-1.4V29c0-1.5.1-3.6.1-6.2s.1-5.1.1-7.4L14.7 1h-2.2c-1.2 0-1.8.1-1.9.2-.1.1-.6 2.5-1.3 7.1-.7 4.7-1.2 7.2-1.4 7.6v.1c-.2.1-.9-3.7-1.9-11.1l-.6-3.6-2-.1c-.8-.1-1.3-.1-1.5-.1-.5 0-.7 0-.8.1C1 1.3.9 5.8.9 14.8z"/>
  <path class="st0" d="M18.3 32.8H22.2v-1.2-3.8c0-2.6 0-6.8.1-12.7.1-5.9.1-9.5.1-10.9V.9L20.6.8 18.4.7l-.2 8 .1 24.1z"/>
  <path class="st0" d="M37 1.3c-.5.2-.9.6-1.1 1.2-.1.3-.3 1.6-.4 3.9-.1 2.3-.2 4.4-.2 6.4v.2c0 1 0 1.7.1 2.3.1.5.2 1 .4 1.3.2.4.5.6.7.8.2.2.7.5 1.3 1 .6.5 1.2 1 1.8 1.6l2.3 1.8v1.9c0 1.4-.1 2.7-.2 3.7-.1.6-.2 1-.4 1.2-.2.2-.5.3-.9.3h-.8c-.3 0-.5 0-.6-.1-.2-.1-.3-1.2-.3-3.3l.2-3.5h-3.7l-.1 4.5v1.8c0 1.6.1 2.7.3 3.2.2.5.7.9 1.5 1.2.6.3 1.7.4 3.3.4 1.7 0 2.8-.2 3.5-.5.6-.3 1.1-.6 1.3-1 .2-.4.4-1 .5-1.8.1-.8.2-2.3.2-4.3.1-1.8.1-2.9.1-3.3 0-1.5-.1-2.5-.2-2.9-.2-.5-1.2-1.6-2.8-3.2-.4-.4-.8-.8-1.4-1.2-.5-.4-.9-.8-1-.9-.2-.2-.4-.4-.6-.7-.2-.3-.4-.6-.4-.8-.1-.3-.1-.6-.2-1v-.2c0-.3 0-1 .1-2.1s.1-1.7.1-2c.1-1.4.6-2.2 1.7-2.2h.4c.5.1.9.3 1 .6.2.3.2.9.2 1.6v.6l-.1 2.7h3.9l.1-4.4v-2c0-1-.1-1.7-.3-2.3-.3-.7-1.3-1.1-3-1.2h-4.1c-1 .3-1.7.4-2.2.7z"/>
  <path class="st0" d="M52.5 3.6c-.2 1.4-.6 3.2-.9 5.6-.4 2.3-.7 4.6-1 6.8-1.2 9.5-1.9 14.9-2.1 16.3l-.1.9h3.8l.4-2.7c.1-.6.3-2 .5-4.3.2-1.4.3-2.3.3-2.6 0-.2.4-.3 1.2-.3h.7l1.8.1.4 3.6c.1.7.2 1.6.4 2.8.2 1.1.3 1.8.3 2l.1 1.3h3c.7 0 1-.1 1-.2v-.2c-.2-.5-.3-1.6-.5-3.1 0-.3-.2-1.5-.5-3.6-.1-.3-.1-.7-.2-1.2s-.2-1.1-.2-1.6c-.1-.6-.2-1.6-.4-2.9l-.6-4.2c-.1-1-.3-2-.5-3.2-.2-1.2-.3-2.1-.4-2.8-.1-.7-.2-1.2-.2-1.3l-.5-4c-.3-.6-.3-1-.4-1.5-.1-.4-.1-.7-.1-.9v-.3l-.2-.7c-.1-.2-1-.4-2.8-.4-1.1 0-1.7.1-1.8.2-.1.3-.3 1-.5 2.4zm3.9 13.7c.1.4.1.9.1 1.4v.5c-.1.1-.6.2-1.4.2H55c-.2 0-.4 0-.7-.1-.2-.1-.4-.1-.4-.2V19v-.1c.1-.4.4-1.9.7-4.3.1-.6.1-1.3.2-2.3.1-1 .2-1.7.3-2.4.1-.6.1-.9.1-1 .1-.1.5 2.7 1.2 8.4z"/>
  <path class="st0" d="M66 5.8c0 3.4-.1 6.4-.2 9-.1 1.6-.3 5.4-.5 11.4l-.2 6.7h6.3l.2-.9c.1-.8.2-1.4.2-2v-1.1H69l.2-7.7c.1-4.9.3-9.4.5-13.6.1-2.2.1-4 .1-5.4v-.8h-3.6L66 5.8z"/>
  <path class="st0" d="M75.7 7.2c0 .7-.1 3.1-.3 7.3-.2 4.2-.3 7.4-.3 9.6v3.2c0 2.2.3 3.8.9 4.8.6.9 2 1.4 4 1.4h.2c2.5-.1 4-.5 4.8-1.4.1-.2.2-.3.3-.5.1-.1.2-.3.2-.5.1-.2.1-.4.2-.6 0-.3.1-.5.1-.7 0-.2.1-.5.1-.9s0-.8.1-1.1c0-.3 0-.8.1-1.5 0-.7.1-1.2.1-1.7 0-.7.1-1.6.1-2.7.1-1.1.1-1.9.1-2.6 0-.6.1-1.1.1-1.3.1-1.2.2-3.9.3-8.2.1-4.8.2-7.4.3-8v-.3c0-.1-.1-.2-.3-.3-.2 0-.7-.1-1.5-.1L83.1 1v1.2c0 .8-.1 3.2-.3 7.2-.1 2.3-.3 5.5-.4 9.5-.2 6.3-.5 9.5-.9 9.7-.2.1-.4.2-.8.2-.7 0-1.1-.2-1.3-.5-.1-.2-.2-1.3-.2-3.1v-2.6c.1-1.7.1-4.3.2-7.7.1-3.4.2-6.2.2-8.5.1-2.3.2-4.1.3-5.4h-2.7c-.8 0-1.3.1-1.3.3 0 .2-.1 2.2-.2 5.9z"/>
  <path class="st0" d="M97.9 28c-.1.4-.2.6-.4.7-.2.1-.6.1-1.3.2l-1.5.1.2-7c0-1.5.1-3.4.2-5.8s.1-3.8.1-4.2v-1.9c0-.8 0-1.5.1-2.1V4.8l1.5.1 1.5.1v5.5c-.1 10.9-.2 16.8-.4 17.5zm-7.3-9.3c-.1 4.9-.2 8.3-.3 10.3 0 .3 0 .7-.1 1.2 0 .5-.1.8-.1 1 0 1 .1 1.4.3 1.4h4.7c1.9 0 3.1 0 3.7-.1s1-.3 1.4-.6c.4-.3.7-.6.9-.9.2-.3.3-.9.4-1.7.3-2.2.5-4.5.7-6.7.1-2.2.2-6.3.2-12.1V9.1c0-2.7-.1-4.5-.4-5.4-.2-.9-.8-1.7-1.7-2.4-.5-.4-1-.6-1.5-.7-.5-.1-1.6-.1-3.6-.2H94c-1.9 0-2.8 0-2.8.1-.1.4-.3 6.4-.6 18.2z"/>
  <path class="st0" d="M106 32.7h1.2l-1 3.3 1 .1 2.1-3.3-.2-.1h.2V28l-3.3.2z"/>
  <path class="st0" d="M132.3 4.8l-2.7 14.3L126.8 1h-4.1v3.4c0 2.7-.1 10.1-.4 22.1v3.7c0 1.7.1 2.6.3 2.6h.5c1.5 0 2.4-.1 2.6-.3.1-.1.2-2.1.3-5.9V23v-3.9-1.6l2.7 13.4.9.1.4-.2 3.4-14.9v5.2c0 .7 0 2.2-.1 4.7l-.2 6.7.2.1c.3.2.6.3.9.3.2 0 .6 0 .9-.1.4-.1.6-.1.7-.1.6 0 .9-.1.9-.2.1-.3.1-4.6.2-12.9 0-2.3.1-7.6.3-15.8V.6l-2 .1c-1.2.1-1.9.2-2.2.3 0 .2-.3 1.4-.7 3.8z"/>
  <path class="st0" d="M141.1 32.8H145v-1.2-3.8c0-2.6 0-6.8.1-12.7.1-5.9.1-9.5.1-10.9V.9l-1.8-.1-2.2-.1-.2 8 .1 24.1z"/>
  <path class="st0" d="M159.7 1.3c-.5.2-.9.6-1.1 1.2-.1.3-.3 1.6-.4 3.9-.1 2.3-.2 4.4-.2 6.4v.2c0 1 0 1.7.1 2.3.1.5.2 1 .4 1.3.2.4.5.6.7.8.2.2.7.5 1.3 1s1.2 1 1.8 1.6l2.3 1.8v1.9c0 1.4-.1 2.7-.2 3.7-.1.6-.2 1-.4 1.2-.2.2-.5.3-.9.3h-.8c-.3 0-.5 0-.6-.1-.2-.1-.3-1.2-.3-3.3l.2-3.5H158l-.1 4.5v1.8c0 1.6.1 2.7.3 3.2.2.5.7.9 1.5 1.2.6.3 1.7.4 3.3.4 1.7 0 2.8-.2 3.5-.5.6-.3 1.1-.6 1.3-1 .2-.4.4-1 .5-1.8.1-.8.2-2.3.2-4.3.1-1.8.1-2.9.1-3.3 0-1.5-.1-2.5-.2-2.9-.2-.5-1.2-1.6-2.8-3.2-.4-.4-.8-.8-1.4-1.2-.5-.4-.9-.8-1-.9s-.4-.4-.6-.7c-.2-.3-.4-.6-.4-.8-.1-.3-.1-.6-.2-1v-.2c0-.3 0-1 .1-2.1s.1-1.7.1-2c0-1.6.5-2.3 1.6-2.3h.4c.5.1.9.3 1 .6s.2.9.2 1.6v.6l-.1 2.7h3.9l.1-4.4V4c0-1-.1-1.7-.3-2.3-.3-.7-1.3-1.1-3-1.2h-4.1c-.9.4-1.7.5-2.2.8z"/>
  <path class="st0" d="M178.9 5.1h1.7V.4H177l-3.5-.1c-.1 4.4-.1 6.9-.2 7.6 0 .5-.1 3.8-.2 9.8 0 1.7-.1 4-.1 6.8 0 2.9-.1 4.6-.1 5.1l-.1 3.3h3.3l4.3.1.1-2.3.1-2.4-2.4-.1h-1.5V17.5h1.8l1.8.1v-4.1H177v-1.2c.1-.9.1-2.3.1-4.2V5.3h1.8z"/>
  <path class="st0" d="M187.3 1h-1.7L184 .9h-.2v.2l.5 2 3.7 14.4-3.3 14.5c-.1.2-.1.4-.1.4 0 .3.6.4 1.7.4h2c.2-.6.5-2 .9-4.3s.8-3.9 1-5c.1.5.3 1.1.4 1.8.1.7.2 1.2.3 1.7.1.5.1.7.2.8.1.4.4 1.4.8 2.9l.6 2.2h4.1l-.2-.8-.1-.7c-.1-.4-.3-1.1-.5-2-.2-.9-.5-1.9-.8-2.9l-2.7-9.2L196.2 1V.8h-.2l-1.3-.1h-2.4L190 11l-1-4.3c-.4-1.7-.8-3.6-1.4-5.7h-.3z"/>
  <path class="st0" d="M199.5 7.2c0 .7-.1 3.1-.3 7.3-.2 4.2-.3 7.4-.3 9.6v3.2c0 2.2.3 3.8.9 4.8.6.9 2 1.4 4 1.4h.2c2.5-.1 4-.5 4.8-1.4.1-.2.2-.3.3-.5.1-.1.2-.3.2-.5.1-.2.1-.4.2-.6 0-.3.1-.5.1-.7 0-.2.1-.5.1-.9s0-.8.1-1.1c0-.3 0-.8.1-1.5 0-.7.1-1.2.1-1.7 0-.7.1-1.6.1-2.7.1-1.1.1-1.9.1-2.6 0-.6.1-1.1.1-1.3.1-1.2.2-3.9.3-8.2.1-4.8.2-7.4.3-8v-.3c0-.1-.1-.2-.3-.3-.2 0-.7-.1-1.5-.1l-2.2-.1v1.2c0 .8-.1 3.2-.3 7.2-.1 2.3-.3 5.5-.4 9.5-.2 6.3-.5 9.5-.9 9.7-.2.1-.4.2-.8.2-.7 0-1.1-.2-1.3-.5-.1-.2-.2-1.3-.2-3.1v-2.6c.1-1.7.1-4.3.2-7.7.1-3.4.2-6.2.2-8.5.1-2.3.2-4.1.3-5.4H201c-.8 0-1.3.1-1.3.3-.1.2-.2 2.2-.2 5.9z"/>
  <path class="st0" d="M220.9 19.8l-2.9.2v-1l.8-8 .6-4.8.8 8.1.7 5.5zm-5.7-8.1c-.5 5.1-1.1 9.8-1.5 14-.5 4.2-.7 6.4-.7 6.5l-.2.9 1.9-.1 1.9-.1.1-1c.1-1.1.2-2.4.4-3.9l.5-4.2h2.7c.4 0 .7 0 .7.1 0 0 .1.3.1.9.1.5.1 1.3.2 2.2.1.9.2 1.7.2 2.2.2 1.4.3 2.8.4 4l1.8-.1 2.1-.1-.1-1c-.1-.9-.3-2.1-.5-3.6-.7-6.6-1.7-14.8-2.8-24.7L222 .9h-2.7c-2 0-3 .1-3 .3-.2 1.9-.5 5.4-1.1 10.5z"/>
  <path class="st0" d="M229.7 4V5.7c0 .5-.1 4.4-.3 11.7-.2 7.3-.2 11.7-.2 13.1v2.2h.2c.6 0 1.5.1 2.6.1 1.7.1 3.2.1 4.4.1h.4v-.2-.2c0-.3 0-1-.1-2l-.1-2.3h-3.4v-.5-.5c0-.9.1-2.5.1-4.9 0-2.3.1-3.9.1-4.7.1-2.2.2-5.7.3-10.5.1-3.4.1-5.3.1-5.6v-.3c0-.3-.1-.4-.4-.5-.2-.1-.8-.1-1.6-.1h-2v2.2c-.1.3-.1.7-.1 1.2z"/>
  <path class="st0" d="M240.2 32.8H244.1v-1.2-3.8c0-2.6 0-6.8.1-12.7.1-5.9.1-9.5.1-10.9V.9l-1.8-.1-2.2-.1-.2 8 .1 24.1z"/>
  <path class="st0" d="M255.5 28c-.1.4-.2.6-.4.7-.2.1-.6.1-1.3.2l-1.5.1.2-7c0-1.5.1-3.4.2-5.8s.1-3.8.1-4.2v-1.9c0-.8 0-1.5.1-2.1V4.8l1.5.1 1.5.1v5.5c-.1 10.9-.2 16.8-.4 17.5zm-7.3-9.3c-.1 4.9-.2 8.3-.3 10.3 0 .3 0 .7-.1 1.2 0 .5-.1.8-.1 1 0 1 .1 1.4.3 1.4h4.6c1.9 0 3.1 0 3.7-.1.5-.1 1-.3 1.4-.6.4-.3.7-.6.9-.9.2-.3.3-.9.4-1.7.3-2.2.5-4.5.7-6.7.1-2.2.2-6.3.2-12.1V9.1c0-2.7-.1-4.5-.4-5.4-.2-.9-.8-1.7-1.7-2.4-.5-.4-1-.6-1.5-.7-.5-.1-1.6-.1-3.6-.2h-1.2c-1.9 0-2.8 0-2.8.1 0 .4-.2 6.4-.5 18.2z"/>
  <path class="st0" d="M270.5 19.8l-2.9.2v-1l.8-8 .6-4.8.8 8.1.7 5.5zm-5.6-8.1c-.5 5.1-1.1 9.8-1.5 14-.5 4.2-.7 6.4-.7 6.5l-.2.9 1.9-.1 1.9-.1.1-1c.1-1.1.2-2.4.4-3.9l.5-4.2h2.7c.4 0 .7 0 .7.1 0 0 .1.3.1.9.1.5.1 1.3.2 2.2.1.9.2 1.7.2 2.2.2 1.4.3 2.8.4 4l1.8-.1 2.1-.1-.1-1c-.1-.9-.3-2.1-.5-3.6-.7-6.6-1.7-14.8-2.8-24.7l-.4-2.8H269c-2 0-3 .1-3 .3-.2 1.9-.6 5.4-1.1 10.5z"/>
  <path class="st0" d="M286 28c-.1.4-.2.6-.4.7-.2.1-.6.1-1.3.2l-1.5.1.2-7c0-1.5.1-3.4.2-5.8s.1-3.8.1-4.2v-1.9c0-.8 0-1.5.1-2.1V4.8l1.5.1 1.5.1v5.5c0 10.9-.1 16.8-.4 17.5zm-7.2-9.3c-.1 4.9-.2 8.3-.3 10.3 0 .3 0 .7-.1 1.2 0 .5-.1.8-.1 1 0 1 .1 1.4.3 1.4h4.6c1.9 0 3.1 0 3.7-.1.5-.1 1-.3 1.4-.6.4-.3.7-.6.9-.9.2-.3.3-.9.4-1.7.3-2.2.5-4.5.7-6.7s.2-6.3.2-12.1V9.1c0-2.7-.1-4.5-.4-5.4-.2-.9-.8-1.7-1.7-2.4-.5-.4-1-.6-1.5-.7-.5-.1-1.6-.1-3.6-.2h-1.2c-1.9 0-2.8 0-2.8.1 0 .4-.2 6.4-.5 18.2z"/>
  <path class="st1" d="M49.7 50.4l-2.7.1-.1-3.3 1.1-.1h1.8l-.1 3.3zm-2.1 21.2c0-1.3 0-4.4-.1-9.3s-.2-8.4-.2-10.4H50l.1 7.1c0 1.5.1 3.5.1 5.8.1 2.4.1 3.7.1 4.1l.1 5.5h-2.8v-2.8z"/>
  <path class="st1" d="M54.8 48.8V47h1.6c.7 0 1.1 0 1.3.1.2.1.3.2.3.4v.2c0 .2 0 1.8-.1 4.6-.1 3.9-.2 6.7-.2 8.5 0 .6 0 1.9-.1 3.8 0 1.9 0 3.2-.1 3.9v.8h2.9l.1 1.9c0 .9.1 1.4.1 1.7V73.2H60.3c-1 0-2.2 0-3.6-.1-.9 0-1.6-.1-2.1-.1h-.2V71.3c0-1.1.1-4.7.2-10.6.1-6 .2-9.1.2-9.5v-.5-.9-1z"/>
  <path class="st1" d="M63.7 53.6l.1-6.5 1.8.1 1.5.1V50c0 1.1 0 4.1-.1 8.9-.1 4.8-.1 8.2-.1 10.3v4.1h-3.2V53.6z"/>
  <path class="st1" d="M70.7 47.2c.1-.1.8-.1 2.1-.1h2.7c1 0 1.6.1 2 .3.4.2.7.5.8.9.2.4.2 1.1.2 2v7c0 .4-.1.7-.1.9-.1.2-.1.4-.2.6-.1.2-.2.4-.4.6-.2.2-.4.4-.6.7l-.4.4s.1.1.3.2c.2.1.4.2.6.4.2.1.4.3.4.4.2.4.4.8.4 1.3s.1 1.7.1 3.5c0 3-.1 4.7-.3 5.4-.3.8-.6 1.2-1.1 1.4-.5.2-1.6.3-3.3.3h-3.3v-9.3-4-4c0-5.8 0-8.8.1-8.9zm4.8 19.3v-4.3h-2.1V66c0 2.8-.1 4.2-.1 4.2 0 .2.4.4 1.1.4l1.1.1v-4.2zm-.1-16.1c-.3-.1-.6-.1-1.1-.1h-.7v8.2l.9-.1c.6 0 1-.1 1.1-.2.1-.1.2-1.4.2-3.9 0-1.6 0-2.6-.1-3.1 0-.5-.1-.7-.3-.8z"/>
  <path class="st1" d="M82.2 58.7l.3-11.7h6.7c.7.1 1.1.3 1.3.7.2.4.3 1.3.3 2.5V54.1c0 2.4-.1 4-.2 4.7-.1.8-.8 1.3-1.9 1.5-.2 0-.4.1-.5.2l.6 3.3.8 4.3c.2 1.4.4 2.4.5 2.9l.4 2.2-1.3.1-1.4.1-.6-3.2-1.8-10-.3 3.7-.3 9.6H82V72c0-.2.1-4.6.2-13.3zm5.4-7.7c-.3-.3-.7-.4-1.1-.4h-.1l-.9.1V58c0 .1.1.1.3.1.3 0 .7-.1 1.2-.3.4-.1.6-.2.7-.4.1-.1.2-.5.2-1 .1-1 .2-2 .2-3v-.5c-.1-1-.2-1.7-.5-1.9z"/>
  <path class="st1" d="M94.4 51.4l.1-4.1h6.6V50.4h-.2c-1.2 0-2.3 0-3.2.1v7.6h3.2v3.7h-1.7c-1 0-1.5 0-1.5.1 0 0-.1 1.4-.1 3.9v3.8h2.7c.2 0 .3 0 .4.1 0 0 .1.1.1.3v1.7l.1 1.6h-6.6V67c0-3.7.1-6.6.1-8.9v-2.9-1.9-1.9z"/>
  <path class="st1" d="M112.5 47.1c0-.1.8-.1 2.3-.1h1c1.6 0 2.5.1 2.9.1s.8.3 1.2.6c.7.6 1.2 1.2 1.4 1.9.2.7.3 2.2.3 4.4v1.2c0 4.7-.1 8-.2 9.8-.1 1.8-.3 3.6-.5 5.4-.1.7-.2 1.2-.3 1.4-.1.3-.4.5-.7.7-.3.2-.7.4-1.2.4-.4.1-1.4.1-3 .1H112c-.2 0-.3-.4-.3-1.2V71v-1c.1-1.6.1-4.4.2-8.4.4-9.5.6-14.4.6-14.5zm5.7 7.8v-4.5l-1.2-.1-1.2-.1v5.9c0 .3 0 1.5-.1 3.4-.1 2-.1 3.5-.1 4.7l-.2 5.7 1.2-.1c.6 0 .9-.1 1.1-.2.1-.1.2-.2.3-.5.1-.4.2-5.2.2-14.2z"/>
  <path class="st1" d="M125.1 51.4l.1-4.1h6.6V50.4h-.2c-1.2 0-2.3 0-3.2.1v7.6h3.2v3.7h-1.7c-1 0-1.5 0-1.5.1 0 0-.1 1.4-.1 3.9v3.8h2.7c.2 0 .3 0 .4.1 0 0 .1.1.1.3v1.7l.1 1.6h-6.5V67c0-3.7.1-6.6.1-8.9v-2.9-1.9c-.1-.9-.1-1.5-.1-1.9z"/>
  <g>
    <path class="st1" d="M145 47.2l2.1 16.3.4 3.1c.1 0 .3-1 .4-3.1l2-16.2h2.6c.5 0 .8.1.8.2v.2c-.1.4-.3 1.3-.4 2.5-.1.8-.2 1.7-.4 2.9-.2.9-.6 3.6-1.2 8.2l-1.6 11.8-.1.5c0 .2-.9.3-2.5.3-.9 0-1.4-.1-1.5-.2-.2-.5-.9-4.6-1.8-12.4-1-7.7-1.6-12.1-1.7-13.2l-.1-.7h1.4l1.6-.2z"/>
    <path class="st1" d="M156.2 53.6l.1-6.5 1.8.1 1.5.1V50c0 1.1 0 4.1-.1 8.9-.1 4.8-.1 8.2-.1 10.3v4.1h-3.2V53.6z"/>
    <path class="st1" d="M166.3 47c.4-.1.8-.2 1.3-.2 1.2 0 2.2.2 2.9.6.5.3.9.7 1.2 1.2.2.5.4 1.9.4 4.2 0 .4 0 2.6-.1 6.7-.1 6.8-.2 10.4-.2 10.9-.2 1-.7 1.7-1.6 2.3-.9.5-2 .8-3.5.8h-.3c-1.2 0-2.1-.3-2.6-.9-.6-.8-.9-2-.9-3.4V69l.1-8.3c.1-6.4.2-9.9.3-10.7.1-.7.4-1.3.9-1.9.6-.5 1.3-.9 2.1-1.1zm1.3 3.6c-.5 0-.9.4-1 1.1-.1.7-.2 3-.2 6.8 0 3.1-.1 6.3-.2 9.6v1.6c0 .4 0 .6.1.7 0 .1.2.2.4.2.2.1.4.1.7.1.5 0 .9-.1 1.1-.4.2-.2.3-.8.3-1.9 0-1.1.1-3.6.1-7.4V52.3c0-.7-.1-1.2-.2-1.4-.1-.3-.4-.4-.8-.4h-.2c0 .1 0 .1-.1.1z"/>
    <path class="st1" d="M176.3 47.6H179.2v.7c0 1.1 0 2.6-.1 4.4-.1 3.4-.3 7.1-.4 11.1l-.1 6.3h2.3v.9c0 .5-.1 1-.2 1.6l-.1.7H175.4l.2-5.5c.2-4.9.3-8 .4-9.3.1-2.1.2-4.5.2-7.3l.1-3.6z"/>
    <path class="st1" d="M187.5 50.7V53c0 1.5 0 2.6-.1 3.4v1h2.7V60.8l-1.4-.1h-1.4v8.7h1.2l2 .1-.1 1.9-.1 1.9-3.5-.1h-2.7l.1-2.7v-4.1c0-2.3.1-4.2.1-5.5.1-4.9.1-7.5.2-7.9 0-.6.1-2.6.1-6.2l2.8.1h2.9v3.9h-2.8z"/>
    <path class="st1" d="M194.2 51l.1-3.5h1.3c.7 0 1.1 0 1.2.1.1.1.2.2.3.5.1.5.2.9.3 1.3l.9 3.6c.5 2 .9 3.8 1.3 5.6l.6 2.7v-.8-3.7-4.5c0-3 .1-4.5.1-4.7 0-.1.1-.1.3-.1h1.2c1 0 1.4.1 1.4.2 0 .2-.1 3.2-.3 9.1-.2 5.9-.3 9.9-.3 12.2v4l-2 .1-3.6-13v3.8c0 1.4 0 3.1-.1 5l-.2 4.3h-1.1c-1.2 0-1.9-.1-1.9-.1V72.8c.1-.6.2-3.7.3-9.3 0-5.2.1-9.4.2-12.5z"/>
    <path class="st1" d="M209.1 46.8c.5-.2 1.1-.3 1.8-.3.2 0 .5 0 .9.1.6.1 1.2.3 1.7.6s.9.6 1.1 1c.3.5.4 1.3.4 2.5v1.1c0 2.2-.1 3.4-.2 3.5 0 0-.2.1-.5.1-.1 0-.4 0-.8-.1l-1.2-.2v-2.5c0-1.2 0-1.9-.1-2.2-.1-.3-.2-.5-.5-.6-.3-.2-.5-.2-.7-.2-.2 0-.5.1-.7.3-.2.2-.3.5-.4.8-.1.5-.2 2.6-.3 6.5-.1 3.9-.2 7-.2 9.4V69c0 .5 0 .8.1.9.1.1.3.1.7.1h.3l1 .1v-2.6-1.8c0-.2.1-.4.2-.5h2.6v3.3c-.1 2.1-.4 3.5-.9 4.1-.5.6-1.6.9-3.3.9-.8 0-1.4 0-1.7-.1-.3-.1-.6-.2-1-.5-.5-.4-.9-.9-1-1.4-.1-.4-.1-2.7-.1-7 0-4.5.1-8.2.2-11.3.1-2.3.2-3.8.4-4.3.5-.9 1.2-1.7 2.2-2.1z"/>
    <path class="st1" d="M218.3 53.6l.1-6.5 1.8.1 1.5.1V50c0 1.1 0 4.1-.1 8.9-.1 4.8-.1 8.2-.1 10.3v4.1h-3.2V53.6z"/>
    <path class="st1" d="M227.3 47.5c0-.2.8-.2 2.4-.2h2.2l.3 2.3c1 8 1.7 14.7 2.3 20.1.1 1.2.3 2.2.4 2.9l.1.8-1.7.1-1.4.1c-.1-1-.2-2.1-.3-3.2 0-.4-.1-1-.2-1.8s-.1-1.4-.2-1.8c0-.4-.1-.7-.1-.7s-.2-.1-.6-.1h-2.1l-.4 3.4c-.2 1.2-.3 2.2-.3 3.1l-.1.8-1.6.1-1.6.1.1-.7c0-.1.2-1.8.6-5.2.4-3.4.8-7.2 1.2-11.4.6-4.3.9-7.1 1-8.7zm3.2 10.6l-.7-6.6-.5 3.9-.6 6.5v.8l2.3-.1-.5-4.5z"/>
  </g>
  <g>
    <path class="st1" d="M242.1 73.8l.1 3.2h-1.9l-1.1-.1.1-3.3 2.8.2zM239.8 50v-2.8h3l-.1 5.5c0 2.4-.1 6.6-.2 12.5l-.1 6.8h-2.9c0-2 .1-5.8.2-11.5s.1-9.2.1-10.5z"/>
  </g>
  <g>
    <path class="st2" d="M.2 1.8c.1-.1.3-.1.8-.1.2 0 .8 0 1.5.1l2 .1.5 3.5c1.1 7.5 1.7 11.2 1.9 11.2v-.1c.2-.4.6-2.9 1.4-7.6.7-4.6 1.2-7 1.3-7.2.1-.1.7-.2 1.9-.2h2.2L13.6 16c0 2.3-.1 4.7-.1 7.4 0 2.6-.1 4.7-.1 6.2v3.9l-1.8-.1-1.8-.1V17.8l-.5 2.5c-.5 2.3-.8 4.2-1.1 5.9-.7 3.7-1 5.6-1.1 5.8h-1c-.1-.2-.3-1.6-.7-4.3-.1-.7-.4-2.6-.9-5.6L3.8 18v10c0 3.4 0 5.2-.1 5.4l-2-.1-1.7-.2V15.4C0 6.4.1 1.8.2 1.8z"/>
    <path class="st2" d="M17.4 9.3l.2-8 2.2.1 1.8.1v3.3c0 1.4 0 5-.1 10.9s-.1 10.1-.1 12.7v5H17.5l-.1-24.1z"/>
    <path class="st2" d="M38.3 1.3h4.1c1.7.1 2.8.5 3 1.2.2.5.3 1.3.3 2.3v2l-.1 4.4h-3.9l.1-2.7v-.3-.3c0-.7-.1-1.3-.2-1.6-.2-.3-.5-.5-1-.6h-.4c-1 0-1.6.8-1.6 2.3 0 .3 0 .9-.1 2s-.1 1.8-.1 2.1v.2c.1.4.1.8.2 1 .1.3.2.6.4.8.2.3.4.5.6.7.2.2.5.5 1 .9.5.5 1 .9 1.4 1.2 1.7 1.6 2.6 2.6 2.8 3.2.2.4.2 1.4.2 2.9 0 .4 0 1.5-.1 3.3-.1 2.1-.1 3.5-.2 4.3-.1.8-.3 1.4-.5 1.8-.2.4-.7.7-1.3 1-.9.4-2 .6-3.7.6-1.6 0-2.7-.1-3.3-.4-.8-.3-1.3-.7-1.5-1.2-.2-.5-.3-1.6-.3-3.2v-1.8l.1-4.5h3.6l-.2 3.5c.1 2.1.2 3.2.3 3.3.1.1.3.1.6.1h.8c.4-.1.8-.2.9-.3.2-.2.3-.6.4-1.2.1-1 .2-2.3.2-3.7v-1.9l-2.3-1.8c-.6-.6-1.2-1.1-1.8-1.6s-1-.8-1.3-1c-.2-.2-.5-.5-.7-.8-.2-.4-.4-.8-.4-1.3-.1-.5-.1-1.3-.1-2.3v-.2c0-2 .1-4.1.2-6.4.1-2.3.2-3.6.4-3.9.2-.5.6-.9 1.1-1.2.6-.6 1.3-.8 2.4-.9z"/>
    <path class="st2" d="M51.9 1.9c.1-.2.7-.2 1.8-.2 1.8 0 2.8.1 2.8.4l.2.7v.3c0 .2.1.5.1.9.1.3.2.7.2 1.2l.5 4c0 .2.1.6.2 1.3.1.7.2 1.7.4 2.8.2 1.2.3 2.2.5 3.2.2 1.5.4 2.9.6 4.2.2 1.4.3 2.3.4 2.9.1.6.2 1.1.2 1.6.1.5.1.9.2 1.2.3 2.1.5 3.3.5 3.6.2 1.5.3 2.5.5 3.1v.2c0 .1-.3.2-1 .2h-3l-.1-1.3c0-.2-.1-.9-.3-2-.2-1.1-.3-2.1-.4-2.8l-.4-3.6-1.8-.1h-.7c-.8 0-1.2.1-1.2.3 0 .3-.1 1.1-.3 2.6-.3 2.2-.5 3.6-.5 4.3l-.5 2.7H47l.1-.9c.2-1.4.9-6.8 2.1-16.3.3-2.2.6-4.5 1-6.8s.7-4.2.9-5.6c.6-1.2.7-2 .8-2.1zm2.4 7.4s0 .3-.1 1c-.1.6-.2 1.4-.3 2.4-.1 1-.2 1.7-.2 2.3-.3 2.5-.5 3.9-.7 4.3v.2c0 .1.1.2.4.2.2.1.4.1.7.1h.1c.8 0 1.3-.1 1.4-.2v-.5c0-.5 0-.9-.1-1.4-.8-5.5-1.2-8.4-1.2-8.4z"/>
    <path class="st2" d="M65.2 1.8h3.6v.8c0 1.4 0 3.2-.1 5.4-.2 4.2-.3 8.8-.5 13.6l-.2 7.7h2.8v1.1c0 .6-.1 1.2-.2 2l-.2.9h-6.3l.2-6.7c.2-6 .3-9.8.5-11.4.2-2.5.2-5.5.2-9l.2-4.4z"/>
    <path class="st2" d="M74.9 1.8c.1-.2.5-.3 1.3-.3h.9l1.8.1c-.1 1.3-.2 3.1-.3 5.4-.1 2.3-.1 5.2-.2 8.5-.1 3.4-.2 5.9-.2 7.7v2.6c0 1.9.1 2.9.2 3.1.2.4.6.5 1.3.5.4 0 .7-.1.8-.2.3-.2.6-3.5.9-9.7.1-4 .3-7.2.4-9.5.2-4 .3-6.4.3-7.2V1.6l2.2.1c.8 0 1.3.1 1.5.1.2 0 .3.1.3.3v.2c-.1.6-.2 3.3-.3 8-.1 4.3-.2 7.1-.3 8.2 0 .2-.1.6-.1 1.3 0 .6-.1 1.5-.1 2.6-.1 1.1-.1 2-.1 2.7 0 .5-.1 1.1-.1 1.7 0 .7 0 1.1-.1 1.5 0 .3 0 .7-.1 1.1 0 .4-.1.7-.1.9 0 .2-.1.4-.1.7 0 .3-.1.5-.2.6-.1.2-.1.3-.2.5s-.2.3-.3.5c-.7.9-2.3 1.3-4.8 1.4H79c-2.1 0-3.4-.5-4-1.4-.6-.9-.9-2.5-.9-4.8v-1.5-1.7c0-2.2.1-5.4.3-9.6.2-4.2.3-6.6.3-7.3 0-3.6.1-5.6.2-5.9z"/>
    <path class="st2" d="M90.1 1.2c0-.1 1-.1 2.8-.1h1.2c1.9 0 3.1.1 3.6.2s.9.3 1.5.7c.9.7 1.5 1.5 1.7 2.4.2.9.4 2.7.4 5.4v1.4c0 5.8-.1 9.9-.2 12.1-.1 2.2-.3 4.5-.7 6.7-.1.8-.2 1.4-.4 1.7-.2.3-.5.6-.9.9-.4.3-.9.5-1.4.6-.5.1-1.8.1-3.7.1h-4.6c-.2 0-.3-.5-.3-1.4 0-.2 0-.5.1-1s.1-.9.1-1.2c.1-1.9.2-5.4.3-10.3.2-12 .4-18 .5-18.2zm7 9.6V5.3l-1.5-.1-1.5-.1v3.2c0 .6 0 1.3-.1 2.1v1.9c0 .4 0 1.8-.1 4.2s-.1 4.4-.2 5.8l-.2 7 1.5-.1c.7-.1 1.2-.1 1.3-.2.2-.1.3-.3.4-.7.3-.4.4-6.4.4-17.5z"/>
    <path class="st2" d="M104.8 28.7l3.3-.1V33.3h-.2l.2.1-2.1 3.3-1-.1 1-3.2h-1.2v-4.7z"/>
    <path class="st2" d="M132 1.6c.3-.2 1-.3 2.2-.3l2-.1v3.2c-.2 8.2-.3 13.5-.3 15.8-.1 8.4-.2 12.7-.2 12.9-.1.2-.4.2-.9.2-.1 0-.3 0-.7.1-.4.1-.7.1-.9.1-.4 0-.7-.1-.9-.3l-.2-.1.2-6.7c.1-2.5.1-4 .1-4.7v-1.8-3.4L129 31.4l-.4.2-.9-.1-2.7-13.4v9.1c-.1 3.8-.2 5.8-.3 5.9-.2.2-1.1.3-2.6.3h-.5c-.2 0-.3-.9-.3-2.6v-3.7c.3-12 .4-19.4.4-22.1V1.6h4.1l2.8 18.1 2.7-14.3c.3-2.4.6-3.7.7-3.8z"/>
    <path class="st2" d="M139.9 9.3l.2-8 2.2.1 1.8.1v3.3c0 1.4 0 5-.1 10.9s-.1 10.1-.1 12.7v5h-4V9.3z"/>
    <path class="st2" d="M160.8 1.3h4.1c1.7.1 2.8.5 3 1.2.2.5.3 1.3.3 2.3v2l-.1 4.4h-3.9l.1-2.7v-.3-.3c0-.7-.1-1.3-.2-1.6-.2-.3-.5-.5-1-.6h-.4c-1 0-1.6.8-1.6 2.3 0 .3 0 .9-.1 2s-.1 1.8-.1 2.1v.2c.1.4.1.8.2 1 .1.3.2.6.4.8.2.3.4.5.6.7s.5.5 1 .9c.5.5 1 .9 1.4 1.2 1.7 1.6 2.6 2.6 2.8 3.2.2.4.2 1.4.2 2.9 0 .4 0 1.5-.1 3.3-.1 2.1-.1 3.5-.2 4.3-.1.8-.3 1.4-.5 1.8-.2.4-.7.7-1.3 1-.7.3-1.9.5-3.5.5s-2.7-.1-3.3-.4c-.8-.3-1.3-.7-1.5-1.2-.2-.5-.3-1.6-.3-3.2v-1.8l.1-4.5h3.6l-.2 3.5c.1 2.1.2 3.2.3 3.3.1.1.3.1.6.1h.8c.4-.1.8-.2.9-.3.2-.2.3-.6.4-1.2.1-1 .2-2.3.2-3.7v-1.9l-2.3-1.8c-.6-.6-1.2-1.1-1.8-1.6-.6-.5-1-.8-1.3-1-.2-.2-.5-.5-.7-.8-.2-.4-.4-.8-.4-1.3-.1-.5-.1-1.3-.1-2.3v-.2c0-2 .1-4.1.2-6.4.1-2.3.2-3.6.4-3.9.2-.5.6-.9 1.1-1.2s1.1-.7 2.2-.8z"/>
    <path class="st2" d="M175.9 5.7v2.8c0 1.9 0 3.3-.1 4.2v1.2h3.3V18l-1.8-.1h-1.8v10.7h1.5l2.4.1-.1 2.4-.1 2.3-4.3-.1h-3.3l.1-3.3c0-.5 0-2.2.1-5.1 0-2.9.1-5.1.1-6.8.1-6 .2-9.2.2-9.8 0-.7.1-3.2.2-7.6l3.5.1h3.6V5.5h-3.5z"/>
    <path class="st2" d="M186.3 1.5c.5 2.1 1 4 1.4 5.7l1.1 4.3 2.4-10.2h2.4l1.3.1h.2v.2l-3.9 16.2 2.7 9.2c.3 1 .6 2 .8 2.9.2.9.4 1.6.5 2l.1.7.2.8h-4.1l-.6-2.2c-.4-1.5-.7-2.5-.8-2.9 0-.1-.1-.3-.2-.8s-.2-1-.3-1.7c-.1-.7-.3-1.3-.4-1.8-.2 1.1-.6 2.8-1 5-.4 2.3-.7 3.7-.9 4.3h-2c-1.1 0-1.7-.1-1.7-.4 0-.1 0-.2.1-.4l3.5-14.6-3.7-14.4-.5-2v-.2h.2l1.6.1h1.7c-.3.1-.2.1-.1.1z"/>
    <path class="st2" d="M198.3 1.8c.1-.2.5-.3 1.3-.3h.9l1.8.1c-.1 1.3-.2 3.1-.3 5.4-.1 2.3-.1 5.2-.2 8.5-.1 3.4-.2 5.9-.2 7.7v2.6c0 1.9.1 2.9.2 3.1.2.4.6.5 1.3.5.4 0 .7-.1.8-.2.3-.2.6-3.5.9-9.7.1-4 .3-7.2.4-9.5.2-4 .3-6.4.3-7.2V1.6l2.2.1c.8 0 1.3.1 1.5.1.2 0 .3.1.3.3v.2c-.1.6-.2 3.3-.3 8-.1 4.3-.2 7.1-.3 8.2 0 .2-.1.6-.1 1.3 0 .6-.1 1.5-.1 2.6-.1 1.1-.1 2-.1 2.7 0 .5-.1 1.1-.1 1.7 0 .7 0 1.1-.1 1.5 0 .3 0 .7-.1 1.1 0 .4-.1.7-.1.9 0 .2-.1.4-.1.7 0 .3-.1.5-.2.6-.1.2-.1.3-.2.5s-.2.3-.3.5c-.7.9-2.3 1.3-4.8 1.4h-.2c-2.1 0-3.4-.5-4-1.4-.6-.9-.9-2.5-.9-4.8v-1.5-1.7c0-2.2.1-5.4.3-9.6.2-4.2.3-6.6.3-7.3.1-3.6.2-5.6.2-5.9z"/>
    <path class="st2" d="M215 1.7c0-.2 1-.3 3-.3h2.7l.4 2.8c1.2 9.9 2.1 18.1 2.8 24.7.2 1.5.3 2.7.5 3.6l.1 1-2.1.1-1.8.1c-.1-1.2-.2-2.5-.4-4-.1-.5-.1-1.3-.2-2.2-.1-.9-.2-1.7-.2-2.2-.1-.5-.1-.8-.1-.9-.1-.1-.3-.1-.7-.1h-2.7l-.5 4.2c-.2 1.5-.3 2.8-.4 3.9l-.1 1-1.9.1-1.9.1.2-.9c0-.1.3-2.2.7-6.5.5-4.2 1-8.9 1.5-14 .5-5 .9-8.5 1.1-10.5zm3.8 13l-.8-8.1-.6 4.8-.8 8v1l2.9-.2-.7-5.5z"/>
    <path class="st2" d="M228.3 3.4V1.2h2c.8 0 1.4 0 1.6.1.2.1.4.2.4.5V2c0 .3 0 2.2-.1 5.6-.1 4.8-.2 8.3-.3 10.5 0 .8-.1 2.3-.1 4.7 0 2.3-.1 3.9-.1 4.9v1h3.4l.1 2.3c.1 1.1.1 1.8.1 2v.4h-.4c-1.3 0-2.7 0-4.4-.1-1.1-.1-2-.1-2.6-.1h-.2V31c0-1.4.1-5.8.2-13.1s.3-11.2.3-11.7v-.6-1.1c.1-.4.1-.8.1-1.1z"/>
    <path class="st2" d="M238.8 9.3l.2-8 2.2.1 1.8.1v3.3c0 1.4 0 5-.1 10.9s-.1 10.1-.1 12.7v5H238.9l-.1-24.1z"/>
    <path class="st2" d="M247.4 1.2c0-.1 1-.1 2.8-.1h1.2c1.9 0 3.1.1 3.6.2s.9.3 1.5.7c.9.7 1.5 1.5 1.7 2.4.2.9.4 2.7.4 5.4v1.4c0 5.8-.1 9.9-.2 12.1-.1 2.2-.3 4.5-.7 6.7-.1.8-.2 1.4-.4 1.7-.2.3-.5.6-.9.9-.4.3-.9.5-1.4.6-.5.1-1.8.1-3.7.1h-4.6c-.2 0-.3-.5-.3-1.4 0-.2 0-.5.1-1s.1-.9.1-1.2c.1-1.9.2-5.4.3-10.3.2-12 .4-18 .5-18.2zm7 9.6V5.3l-1.5-.1-1.5-.1v3.2c0 .6 0 1.3-.1 2.1v1.9c0 .4 0 1.8-.1 4.2-.1 2.4-.1 4.4-.2 5.8l-.2 7 1.5-.1c.7-.1 1.2-.1 1.3-.2.2-.1.3-.3.4-.7.3-.4.4-6.4.4-17.5z"/>
    <path class="st2" d="M264.5 1.7c0-.2 1-.3 3-.3h2.7l.4 2.8c1.2 9.9 2.1 18.1 2.8 24.7.2 1.5.3 2.7.5 3.6l.1 1-2.1.1-1.8.1c-.1-1.2-.2-2.5-.4-4-.1-.5-.1-1.3-.2-2.2-.1-.9-.2-1.7-.2-2.2-.1-.5-.1-.8-.1-.9-.1-.1-.3-.1-.7-.1h-2.7l-.5 4.2c-.2 1.5-.3 2.8-.4 3.9l-.1 1-1.9.1-1.9.1.2-.9c0-.1.3-2.2.7-6.5.5-4.2 1-8.9 1.5-14 .5-5 .9-8.5 1.1-10.5zm3.9 13l-.8-8.1-.6 4.8-.8 8v1l2.9-.2-.7-5.5z"/>
    <path class="st2" d="M277.9 1.2c0-.1 1-.1 2.8-.1h1.2c1.9 0 3.1.1 3.6.2s.9.3 1.5.7c.9.7 1.5 1.5 1.7 2.4.2.9.4 2.7.4 5.4v1.4c0 5.8-.1 9.9-.2 12.1-.1 2.2-.3 4.5-.7 6.7-.1.8-.2 1.4-.4 1.7-.2.3-.5.6-.9.9-.4.3-.9.5-1.4.6-.5.1-1.8.1-3.7.1h-4.6c-.2 0-.3-.5-.3-1.4 0-.2 0-.5.1-1 0-.5.1-.9.1-1.2.1-1.9.2-5.4.3-10.3.2-12 .4-18 .5-18.2zm7 9.6V5.3l-1.5-.1H282v3.2c0 .6 0 1.3-.1 2.1v1.9c0 .4 0 1.8-.1 4.2s-.1 4.4-.2 5.8l-.2 7 1.5-.1c.7-.1 1.2-.1 1.3-.2.2-.1.3-.3.4-.7.2-.5.3-6.5.3-17.6z"/>
  </g>
</svg>