<svg xmlns="http://www.w3.org/2000/svg" width="255.6" height="79" viewBox="0 0 255.6 79">
  <style>
    .st0{fill:#fff}
  </style>
  <path class="st0" d="M.1 5.9C0 5.8 0 5.6 0 5.4s.1-.4.2-.6c.1-.2.4-.3.6-.3H4c.2 0 .5.1.6.3.2.1.4.3.4.5l7.1 23.2c0 .1.1.1.2.1s.2 0 .3-.1l2-5.4c2.3-6.4 3.9-12.2 4.8-17.4.1-.8.6-1.2 1.4-1.2h2.1c.5 0 .8.1 1 .3.2.2.3.4.3.6v.4c0 1.6-.8 4.8-2.4 9.7-.4 1.2-.8 2.4-1.3 3.7-1.2 3.3-2 5.5-2.5 6.7l-1.3 3c-.6 1.4-1 2.2-1.3 2.7-.2.4-.5.7-.7.9-.4.3-1.1.5-2.1.5h-1c-.9 0-1.6-.1-1.9-.3-.6-.4-1-.9-1.3-1.7L.1 5.9z"/>
  <path class="st0" d="M30.5 8.4c-.8 0-1.6-.3-2.2-.9-.6-.6-.9-1.3-.9-2.2 0-.8.3-1.6.9-2.2.6-.6 1.3-.9 2.2-.9 1.3 0 2.3.6 2.8 1.8.2.4.2.8.2 1.2 0 .9-.3 1.6-.9 2.2-.5.7-1.2 1-2.1 1zm2.2 19.4c0 .9.3 1.3.9 1.3.2 0 .4-.1.7-.2.5-.2.8-.3 1-.3.3 0 .5.2.6.5l.6 1.3c.1.2.1.4.1.6 0 .5-.5 1-1.4 1.5-.9.4-1.7.7-2.6.7-.8 0-1.5-.1-2-.3-.5-.2-.9-.5-1.3-.9-.7-.9-1.1-2.3-1.1-4.3V13.2c0-.3.1-.6.3-.9.2-.2.4-.4.7-.4h2.5c.3 0 .5.1.7.4.2.2.3.5.3.9v14.6z"/>
  <path class="st0" d="M39.7 22.4c0-1.6.3-3.1.8-4.4.5-1.3 1.3-2.5 2.2-3.4 2-2 4.4-3 7.4-3 3.4 0 5.9 1 7.8 3 1.8 1.9 2.7 4.6 2.7 7.9 0 3.2-1 5.9-3 7.9s-4.4 3-7.4 3c-3.2 0-5.7-1-7.6-3.1-1.9-2.1-2.9-4.7-2.9-7.9zm6-4.8c-.5.7-.8 1.5-1 2.3-.2.9-.3 1.8-.3 2.7 0 .9.1 1.8.4 2.6.2.8.6 1.6 1.1 2.2 1.1 1.4 2.5 2.1 4.5 2.1 1.9 0 3.4-.7 4.4-2.1.9-1.2 1.3-2.9 1.3-5 0-3.1-1-5.3-3.1-6.5-.8-.4-1.7-.6-2.7-.6-1.1 0-2 .2-2.7.6-.8.5-1.4 1-1.9 1.7z"/>
  <path class="st0" d="M70.8 27.8c0 .9.3 1.3.9 1.3.2 0 .5-.1.8-.2.6-.2.9-.3 1-.3.3 0 .5.2.7.5l.6 1.3c.1.2.1.4.1.5 0 .3-.2.6-.7 1-.9.8-2.2 1.2-3.7 1.2-2.8 0-4.2-1.8-4.2-5.5V1.2c0-.3.1-.6.3-.9.2-.2.5-.3.7-.3h2.5c.3 0 .5.1.7.4.2.2.3.5.3.9v26.5z"/>
  <path class="st0" d="M82.1 23.5v.4c0 1.7.5 3.1 1.6 4.1 1.1 1.1 2.7 1.6 4.6 1.6 1.8 0 3.4-.5 4.9-1.6.3-.2.5-.3.8-.3.5 0 .8.2 1 .7l.5 1c.1.2.2.5.2.8 0 .3-.1.6-.4.9-.3.3-.6.6-1 .8-.4.2-.9.5-1.4.6-.5.2-1.1.3-1.7.5-1.1.2-2.3.4-3.6.4-1.2 0-2.5-.2-3.7-.7-1.3-.5-2.3-1.2-3.3-2.1-2-1.9-3-4.5-3-7.8 0-5.7 2-9.3 6-10.7 1.3-.4 2.6-.6 3.9-.6 1.3 0 2.5.1 3.4.4.9.3 1.7.7 2.4 1.3 1.4 1.2 2.2 2.8 2.2 4.9 0 2.1-.8 3.6-2.5 4.7-1.5 1-3.4 1.4-5.8 1.4-1.5.1-3.2-.2-5.1-.7zm9.1-5.5c0-1.8-1.2-2.7-3.6-2.7-2.3 0-3.8.8-4.8 2.5-.3.6-.5 1.3-.6 2.2 1.1.5 2.4.8 4.1.8 3.3 0 4.9-.9 4.9-2.8z"/>
  <path class="st0" d="M101.1 13.3c0-.9.4-1.3 1.3-1.3h1c.7 0 1.2.3 1.4.8.3.7.6 1.7.9 2.9 1.1-2 2.8-3.3 5-3.9.7-.2 1.6-.3 2.6-.3s2 .2 2.9.7c.9.4 1.6 1 2.1 1.8.9 1.4 1.4 3.5 1.4 6.2v11.5c0 .3-.1.6-.3.9-.2.2-.6.4-1 .4h-1.8c-.5 0-.8-.1-1-.4-.2-.2-.3-.5-.3-.9V20.1c0-3.2-1.2-4.8-3.5-4.8-1.4 0-2.6.6-3.7 1.7-1.2 1.2-1.8 2.6-1.8 4.3v10.3c0 .3-.1.6-.3.9-.2.2-.5.4-1 .4h-1.9c-.4 0-.8-.1-1-.4-.2-.2-.3-.5-.3-.9V20.3c0-2.5-.1-4.2-.2-5.2-.4-1-.5-1.6-.5-1.8z"/>
  <path class="st0" d="M140.4 20.2c-1 0-1.5-.5-1.5-1.5 0-1.2-.4-2-1.1-2.6-.6-.5-1.4-.8-2.4-.8s-1.9.2-2.5.6c-.7.4-1.2 1-1.6 1.6-.8 1.3-1.2 2.8-1.2 4.6 0 3.4 1 5.6 3.1 6.6.7.4 1.6.6 2.5.6.9 0 1.6-.1 2.2-.3.6-.2 1.1-.4 1.6-.6.5-.2.9-.5 1.2-.6.3-.2.6-.3.8-.3.4 0 .8.2 1.1.6l.4.7c.2.3.3.6.3.9 0 .3-.1.6-.4.9-.2.3-.6.6-1 .9-.4.3-.9.5-1.4.7-.5.2-1.1.4-1.7.6-2.7.7-5.2.6-7.5-.3-2.5-1.1-4.3-3-5.2-5.7-.5-1.4-.7-2.9-.7-4.6 0-1.7.3-3.2.8-4.5.5-1.3 1.2-2.5 2.1-3.4 1.8-1.9 4.2-2.9 7.2-2.9 2.6 0 4.6.7 6 2.1 1.2 1.2 1.8 2.6 1.8 4.4 0 1.5-.8 2.2-2.3 2.2h-.6z"/>
  <path class="st0" d="M150.8 8.4c-.8 0-1.6-.3-2.2-.9-.6-.6-.9-1.3-.9-2.2 0-.8.3-1.6.9-2.2.6-.6 1.3-.9 2.2-.9 1.3 0 2.3.6 2.8 1.8.2.4.2.8.2 1.2 0 .9-.3 1.6-.9 2.2-.5.7-1.2 1-2.1 1zm2.2 19.4c0 .9.3 1.3.9 1.3.2 0 .4-.1.7-.2.5-.2.8-.3 1-.3.3 0 .5.2.6.5l.6 1.3c.1.2.1.4.1.6 0 .5-.5 1-1.4 1.5-.9.4-1.7.7-2.6.7-.8 0-1.5-.1-2-.3-.5-.2-.9-.5-1.3-.9-.7-.9-1.1-2.3-1.1-4.3V13.2c0-.3.1-.6.3-.9.2-.2.4-.4.7-.4h2.5c.3 0 .5.1.7.4.2.2.3.5.3.9v14.6z"/>
  <path class="st0" d="M178.1 31.9c0 .7-.3 1-1 1h-1.8c-.5 0-.8-.1-.9-.3-.1-.2-.2-.4-.2-.5 0-.2 0-.3-.1-.6-.1-.6-.2-1.3-.3-2-1 1.8-2.5 2.9-4.5 3.5-.7.2-1.5.3-2.4.3-.9 0-1.8-.1-2.6-.4-.9-.3-1.7-.7-2.3-1.3-1.5-1.3-2.3-3-2.3-5.1 0-2.3.8-4 2.5-5.3 1.4-1 3.2-1.5 5.3-1.5 2.2 0 4 .6 5.5 1.9 0-.4.1-.9.1-1.6s-.1-1.3-.4-1.9c-.2-.6-.6-1.2-1.1-1.6-.9-.8-2.3-1.2-3.9-1.2-1.5 0-3 .4-4.6 1.2-.3.2-.6.2-.8.2-.3 0-.7-.3-1-1-.3-.7-.5-1.2-.5-1.4 0-.5.4-1.1 1.2-1.6 1.6-1 3.6-1.4 6.3-1.4 2.4 0 4.3.6 5.9 1.9 1.8 1.6 2.8 3.8 2.8 6.6 0 1.3-.2 2.9-.6 4.8 1.1 3.2 1.6 5.6 1.7 7.3zM165.6 24c-.5.4-.9.8-1.1 1.1-.2.4-.3.8-.3 1.3s.1.9.3 1.3c.2.4.4.7.8 1 .7.5 1.4.8 2.3.8.8 0 1.5-.1 2.1-.3.5-.2 1-.5 1.4-.8.9-.7 1.3-1.4 1.3-2.1-.1-.9-.6-1.7-1.5-2.2-.9-.5-1.9-.7-3-.7-1.1.1-1.8.3-2.3.6z"/>
  <g>
    <path class="st0" d="M58.7 71.5c-.5-1.1-.9-2.3-1.2-3.5-.3-1.3-.4-2.7-.4-4.5 0-1.7.3-3.5 1-5.2.7-1.8 1.6-3.3 2.8-4.6 2.6-2.7 5.9-4.1 9.9-4.1 4.3 0 7.7 1.4 10.2 4.2 2.3 2.6 3.5 6.1 3.5 10.3 0 4.2-1.3 7.7-3.9 10.6-1.2 1.3-2.7 2.4-4.4 3.2-1.7.8-3.4 1.2-5.1 1.2-1.7 0-3.2-.2-4.4-.5s-2.3-.9-3.3-1.5c-1-.7-1.9-1.5-2.7-2.4-.9-1.1-1.5-2.1-2-3.2zm3.4-7.5c0 1.4.2 2.8.5 4 .3 1.3.9 2.4 1.6 3.4 1.6 2.2 3.8 3.3 6.6 3.3s5-1 6.6-3.1c1.4-1.9 2.1-4.4 2.1-7.5 0-2.9-.7-5.3-2.2-7.2-1.6-2-3.8-3.1-6.5-3.1s-4.8 1-6.3 2.9c-1.7 1.9-2.4 4.3-2.4 7.3z"/>
    <path class="st0" d="M91.5 78.5c-.7 0-1.1-.5-1.1-1.4V46.8c0-.3.1-.6.3-.9.2-.2.4-.4.7-.4h2.5c.3 0 .5.1.7.4.2.2.3.5.3.9v13.6c1.6-2.2 3.8-3.3 6.8-3.3 2.7 0 4.8 1 6.2 3 1.3 1.8 1.9 4.2 1.9 7.2 0 3.5-.8 6.3-2.5 8.5-1.7 2.1-3.8 3.2-6.3 3.2-1.4 0-2.7-.3-3.8-.9-1.2-.6-2.1-1.6-2.9-2.9 0 .4-.1.8-.1 1.1 0 .4-.1.7-.1 1.1 0 .8-.6 1.2-1.5 1.2h-1.1zM96.2 63c-.5.6-.9 1.4-1.2 2.2-.3.8-.4 1.7-.4 2.7 0 .9.1 1.8.4 2.7.3.9.6 1.6 1.1 2.3 1.1 1.5 2.4 2.2 4 2.2 1.8 0 3.1-.8 4-2.3.7-1.3 1.1-2.9 1.1-4.9 0-3.3-.9-5.5-2.6-6.4-.6-.3-1.3-.5-2.2-.5s-1.6.2-2.4.6c-.7.3-1.3.8-1.8 1.4z"/>
    <path class="st0" d="M121.1 75.2c2.4 0 3.6-.8 3.6-2.4 0-.9-.7-1.6-2-2.2-.6-.3-1.2-.5-1.9-.7-.7-.2-1.3-.5-1.9-.8-.6-.3-1.2-.6-1.7-1s-1-.8-1.4-1.3c-.8-1-1.2-2.2-1.2-3.8 0-1.9.8-3.3 2.3-4.4 1.4-1 3.1-1.5 5.1-1.5 2.2 0 4 .4 5.4 1.3.5.3.7.6.7 1 0 .5-.1 1.1-.4 1.8-.3.6-.6 1-1 1s-.7-.1-1.1-.2c-.3-.2-.6-.3-.9-.4-.3-.1-.5-.2-.8-.3-.6-.2-1.2-.3-1.7-.3s-.9 0-1.3.1c-.3.1-.6.2-.9.4-.6.4-.9.9-.9 1.4s.1 1 .4 1.3c.3.3.6.6 1 .8.4.2 1 .5 1.6.7l2 .8c1.6.7 2.7 1.3 3.3 1.9 1.1 1.1 1.7 2.5 1.7 4 0 1.9-.6 3.4-1.9 4.6-1.4 1.3-3.4 2-6.1 2-2.7 0-4.7-.5-6-1.5-.7-.5-1-.9-1-1.3s.1-.8.2-1.1c.1-.3.3-.7.6-1.1.2-.4.5-.6.9-.6s.8.2 1.2.5c.4.4 1 .7 1.8.9.8.2 1.6.4 2.3.4z"/>
    <path class="st0" d="M145.7 60.4c0 .7-.4 1-1.2 1h-5.2v11.7c0 1.3.6 1.9 1.9 1.9.8 0 1.8-.4 3.1-1.2.2-.2.5-.2.8-.2.3 0 .5.2.7.6l.4 1c.2.4.2.7.2.9s-.2.6-.6.9c-.4.3-.9.6-1.5.9-1.4.6-2.6.9-3.7.9s-2-.1-2.6-.3c-.6-.2-1.2-.6-1.7-1-1-1-1.5-2.4-1.5-4.2V61.4h-1.6c-.8 0-1.2-.4-1.2-1.1v-1.1c0-.3.1-.5.2-.7.1-.2.4-.3.9-.4l1.9-.5.7-4.4c.1-.8.5-1.2 1-1.2h1.5c.3 0 .5.1.7.3.2.2.3.5.3.9v4.2h5.2c.8 0 1.2.3 1.2 1v2z"/>
    <path class="st0" d="M153.2 69.1v.4c0 1.7.5 3.1 1.6 4.1 1.1 1.1 2.7 1.6 4.6 1.6 1.8 0 3.4-.5 4.9-1.6.3-.2.5-.3.8-.3.5 0 .8.2 1 .7l.5 1c.1.2.2.5.2.8 0 .3-.1.6-.4.9-.3.3-.6.6-1 .8-.4.2-.9.5-1.4.6-.5.2-1.1.3-1.7.5-1.1.2-2.3.4-3.6.4-1.2 0-2.5-.2-3.7-.7-1.3-.5-2.3-1.2-3.3-2.1-2-1.9-3-4.5-3-7.8 0-5.7 2-9.3 6-10.7 1.3-.4 2.6-.6 3.9-.6 1.3 0 2.5.1 3.4.4.9.3 1.7.7 2.4 1.3 1.4 1.2 2.2 2.8 2.2 4.9 0 2.1-.8 3.6-2.5 4.7-1.5 1-3.4 1.4-5.8 1.4-1.4.1-3.1-.2-5.1-.7zm9.2-5.5c0-1.8-1.2-2.7-3.6-2.7-2.3 0-3.8.8-4.8 2.5-.3.6-.5 1.3-.6 2.2 1.1.5 2.4.8 4.1.8 3.3 0 4.9-.9 4.9-2.8zm-5.1-9c-.2.1-.3.1-.6.1-.2 0-.4-.1-.5-.3l-.9-1.3c-.1-.1-.1-.3-.1-.4s.1-.4.4-.6l5.7-5.2c.3-.3.6-.4.9-.4.4 0 .8.1 1 .4l1.4 1.8c.1.2.2.4.2.6 0 .5-.3.9-.7 1.2l-6.8 4.1z"/>
    <path class="st0" d="M183.6 60.4c0 .7-.4 1-1.2 1h-5.2v11.7c0 1.3.6 1.9 1.9 1.9.8 0 1.8-.4 3.1-1.2.2-.2.5-.2.8-.2.3 0 .5.2.7.6l.4 1c.2.4.2.7.2.9s-.2.6-.6.9c-.4.3-.9.6-1.5.9-1.4.6-2.6.9-3.7.9s-2-.1-2.6-.3c-.6-.2-1.2-.6-1.7-1-1-1-1.5-2.4-1.5-4.2V61.4h-1.6c-.8 0-1.2-.4-1.2-1.1v-1.1c0-.3.1-.5.2-.7.1-.2.4-.3.9-.4l1.9-.5.7-4.4c.1-.8.5-1.2 1-1.2h1.5c.3 0 .5.1.7.3.2.2.3.5.3.9v4.2h5.2c.8 0 1.2.3 1.2 1v2z"/>
    <path class="st0" d="M187.6 58.9c0-.9.4-1.3 1.2-1.3h1c.7 0 1.2.3 1.4.9.4.9.7 2.1.9 3.6 0 0 .1-.2.1-.6.1-.4.2-.9.5-1.5s.7-1.1 1.1-1.5c.9-.8 2-1.2 3.2-1.2 1.4 0 2.4.2 3 .7.3.2.4.5.3.9l-.3 2.3c-.1.6-.4.9-1 .9-.3 0-.6-.1-1-.2-.8-.2-1.4-.3-1.8-.3s-.9.2-1.4.6c-.5.4-.9.9-1.3 1.5-.7 1.2-1.1 2.5-1.1 3.9v9.9c0 .3-.1.6-.3.9-.2.2-.5.4-.9.4H189c-.4 0-.7-.1-.9-.4-.2-.2-.3-.5-.3-.9v-13c0-2.2-.1-3.6-.2-4.3.1-.7 0-1.1 0-1.3z"/>
    <path class="st0" d="M206.2 54c-.8 0-1.6-.3-2.2-.9-.6-.6-.9-1.3-.9-2.2 0-.8.3-1.6.9-2.2.6-.6 1.3-.9 2.2-.9 1.3 0 2.3.6 2.8 1.8.2.4.2.8.2 1.2 0 .9-.3 1.6-.9 2.2-.6.7-1.3 1-2.1 1zm2.2 19.4c0 .9.3 1.3.9 1.3.2 0 .4-.1.7-.2.5-.2.8-.3 1-.3.3 0 .5.2.6.5l.6 1.3c.1.2.1.4.1.6 0 .5-.5 1-1.4 1.5-.9.4-1.7.7-2.6.7-.8 0-1.5-.1-2-.3-.5-.2-.9-.5-1.3-.9-.7-.9-1.1-2.3-1.1-4.3V58.8c0-.3.1-.6.3-.9.2-.2.4-.4.7-.4h2.5c.3 0 .5.1.7.4.2.2.3.5.3.9v14.6z"/>
    <path class="st0" d="M230.5 65.8c-1 0-1.5-.5-1.5-1.5 0-1.2-.4-2-1.1-2.6-.6-.5-1.4-.8-2.4-.8s-1.9.2-2.5.6c-.7.4-1.2 1-1.6 1.6-.8 1.3-1.2 2.8-1.2 4.6 0 3.4 1 5.6 3.1 6.6.7.4 1.6.6 2.5.6.9 0 1.6-.1 2.2-.3.6-.2 1.1-.4 1.6-.6.5-.2.9-.5 1.2-.6.3-.2.6-.3.8-.3.4 0 .8.2 1.1.6l.4.7c.2.3.3.6.3.9 0 .3-.1.6-.4.9-.2.3-.6.6-1 .9-.4.3-.9.5-1.4.7-.5.2-1.1.4-1.7.6-2.7.7-5.2.6-7.5-.3-2.5-1.1-4.3-3-5.2-5.7-.5-1.4-.7-2.9-.7-4.6 0-1.7.3-3.2.8-4.5.5-1.3 1.2-2.5 2.1-3.4 1.8-1.9 4.2-2.9 7.2-2.9 2.6 0 4.6.7 6 2.1 1.2 1.2 1.8 2.6 1.8 4.4 0 1.5-.8 2.2-2.3 2.2h-.6z"/>
    <path class="st0" d="M255.6 77.5c0 .7-.3 1-1 1h-1.8c-.5 0-.8-.1-.9-.3-.1-.2-.2-.4-.2-.5 0-.2 0-.3-.1-.6-.1-.6-.2-1.3-.3-2-1 1.8-2.5 2.9-4.5 3.5-.7.2-1.5.3-2.4.3-.9 0-1.8-.1-2.6-.4-.9-.3-1.7-.7-2.3-1.3-1.5-1.3-2.3-3-2.3-5.1 0-2.3.8-4 2.5-5.3 1.4-1 3.2-1.5 5.3-1.5 2.2 0 4 .6 5.5 1.9 0-.4.1-.9.1-1.6s-.1-1.3-.4-1.9c-.2-.6-.6-1.2-1.1-1.6-.9-.8-2.3-1.2-3.9-1.2-1.5 0-3 .4-4.6 1.2-.3.2-.6.2-.8.2-.3 0-.7-.3-1-1-.3-.7-.5-1.2-.5-1.4 0-.5.4-1.1 1.2-1.6 1.6-1 3.6-1.4 6.3-1.4 2.4 0 4.3.6 5.9 1.9 1.8 1.6 2.8 3.8 2.8 6.6 0 1.3-.2 2.9-.6 4.8 1.1 3.2 1.6 5.6 1.7 7.3zm-12.5-7.9c-.5.4-.9.8-1.1 1.1-.2.4-.3.8-.3 1.3s.1.9.3 1.3c.2.4.4.7.8 1 .7.5 1.4.8 2.3.8.8 0 1.5-.1 2.1-.3.5-.2 1-.5 1.4-.8.9-.7 1.3-1.4 1.3-2.1-.1-.9-.6-1.7-1.5-2.2-.9-.5-1.9-.7-3-.7-1.1.1-1.8.3-2.3.6z"/>
  </g>
</svg>