<svg xmlns="http://www.w3.org/2000/svg" width="46.5" height="67.2" viewBox="0 0 46.5 67.2">
  <path d="M39.3 39.5H35c-.7 0-1.3-.4-1.5-1v1-36h-24v35c-.2.6-.8 1-1.5 1H2.6c-1.1 0-1.9.9-1.9 1.9v.6L2 43.5l16.9 18.7 1.2 1.3c.7.8 1.9.8 2.7.1l.3-.2 1.1-1.2 16.9-18.7 1-1.1c.4-.5.6-1.1.5-1.7-.3-.7-1-1.2-1.8-1.2h-1.5z" fill-rule="evenodd" clip-rule="evenodd" fill="#fff100"/>
  <path d="M30.9 3.5l-.1-1.1L6.4 5.2l2.7 23.2m13.9 35l1.4 1.2c.8.7 2 .6 2.7-.2l.2-.3 1-1.4 14.8-20.9.8-1.2c.4-.5.5-1.2.3-1.8-.4-.7-1.1-1.1-1.9-1l-1.3.3-4.4.5c-.7.1-1.3-.3-1.6-.8l-1.4-12.1m-31.4 18c-.1.3-.1.6-.1.9l.1.6 5.7 5 .1.1" fill="none" stroke="#fff" stroke-width="4.252" stroke-miterlimit="22.9256"/>
</svg>