<svg xmlns="http://www.w3.org/2000/svg" width="9.9" height="8.6" viewBox="0 0 9.9 8.6">
  <path d="M7.9 2.3c.4.3.8.5 1.1.8.3.2.6.4.8.5.1.1.1.3.1.4 0 .1-.1.2-.2.3-.5.4-1 .8-1.5 1.3-.5.4-1 .8-1.4 1.3-.5.4-1 .9-1.4 1.3 0 .1-.1.1-.1.2v.1H5c-.1 0-.2.1-.3 0-.1 0-.2-.1-.3-.2-.2 0-.3-.1-.3-.3V6.3c0-.6 0-1.1.1-1.7-1-.1-2.1-.1-3.1-.1h-1v-1h1.1c1.1 0 2.2-.1 3.2-.2 0-.5 0-1 .1-1.5V.2c0-.2.1-.3.3-.3 0 .1.2.1.3.3 0 .1.1.1.1.2l.4.4c.3.2.6.5 1 .8.4.1.9.4 1.3.7M5.2 3.5v3.1c.3-.3.7-.5 1-.8.4-.3.8-.6 1.1-.8.4-.3.7-.5.9-.7.3-.2.5-.3.6-.4 0 0-.1 0-.1-.1 0 0-.1 0-.1-.1l-.1-.1c-.3-.1-.5-.3-.7-.3-.2-.1-.4-.2-.5-.2-.3-.1-.5-.2-.7-.4-.2-.1-.4-.2-.7-.4-.2-.1-.5-.3-.7-.4h-.1c.1.5.1 1.1.1 1.6" fill="#521147"/>
</svg>