<svg xmlns="http://www.w3.org/2000/svg" width="59.1" height="67.5" viewBox="0 0 59.1 67.5">
  <style>
    .analgesicos{fill:#6070b2}
  </style>
  <path class="analgesicos" d="M20.6 16.3L8 47.8l-.2.4-3-1.2-.8 2.1 6 2.4-2.7 6.9-.3.5-.5-.2L1 56.5 0 59l21.3 8.5 1-2.5-6.2-2.4-.5-.2.2-.5 2.7-7 6.7 2.7.9-2.2-3-1.2.1-.2 13.2-31.4-2.8-1.1.1-.2 2.4-6-3.3-1.3L38 .9 35.7 0l-4.9 12.4-.3.7-2.8-1.1-2.3 5.8-.2.5-4.6-2zM10.4 48.5l4.1-10 10.7 4.3-.3.8-1.4 3.6-6.6-2.7-.9 2.3 6.4 2.6.2.1-1.5 3.8-10.3-4.1-.7-.2.3-.5zm5.9 5.6l-3 7.2-.1.1-4-1.6.1-.2 2.9-7.2.5.2 3.6 1.5zm5.8-34.7l1.5.6 9.6 3.8-1.7 4.2-6.9-2.8-1 2.5 6.9 2.8-1.7 4.2-7-2.8L21 34l6.9 2.8-1.6 4.1-10.5-4.2-.5-.2 6.8-17.1zm4.9-.5l1.6-3.9.6.2 4.2 1.7-1.6 4-4.8-2z"/>
  <path class="analgesicos" d="M41.3 50.3h2.9v2.9c-.2.6.2 1.1.9.9h2.5c.1.2 1.1-.3.9-.9v-2.9h2.9c.1.2 1.1-.3.9-.9v-2.5c.2-.1-.8-1.1-.9-.9h-2.9v-2.9c.2-.1-.8-1.1-.9-.9H45c-.7-.2-1.1.8-.9.9V46h-2.9c-.7-.2-1.1.8-.9.9v2.5c-.1.6.3 1.1 1 .9"/>
  <path class="analgesicos" d="M55.9 66.9H37.1c-1 0-1.9-.4-2.5-1.1-.7-.7-1.1-1.7-1.1-2.6V38.7h.3-.3c0-.9.4-2.1.9-3.1.5-.9 1.2-1.8 2.1-2.5.1-.1.2-.2.4-.3.1-.1.3-.2.4-.3-.6-.1-1.1-.4-1.5-.7-.4-.4-.7-1-.7-1.6V23c.1-.9.5-1.8 1.1-2.5.5-.6 1.3-1 2.2-1h15.9c.9 0 1.6.4 2.2 1 .6.7 1 1.6 1.1 2.5v6.7c-.1.6-.4 1.2-.9 1.7-.3.3-.7.6-1.1.7 1 1 1.9 2 2.5 3 .7 1.1 1 2.3 1 3.5v24.6c0 .9-.4 1.9-1 2.6-.5.7-1.3 1.1-2.2 1.1M35.6 55H57V40.9H35.6V55zm1.5 9.9h18.8c.3 0 .6-.2.8-.5.2-.3.4-.7.4-1.2V57H35.6v6.2c0 .3.2.8.5 1.1.3.4.7.6 1 .6m1.2-34.3h16c.3-.1.6-.2.8-.4.2-.1.3-.3.3-.5V23c0-.4-.1-.7-.3-.9-.3-.2-.6-.4-.9-.4H38.4c-.3 0-.6.2-.9.4-.2.2-.4.5-.3.9v6.7c0 .2.1.3.3.5.2.2.5.3.8.4m13.6 2.1h-10c-1.1 0-2.8.9-4.2 2.1-1.1 1.1-2 2.4-2.1 3.7v.3H57v-.2c0-.7-.2-1.4-.5-2.1-.4-.7-.9-1.3-1.6-1.9-.3-.5-.8-.9-1.3-1.2-.7-.5-1.4-.7-1.7-.7"/>
  <path class="analgesicos" d="M39.3 22.4c-.5 0-.7.2-.7.7v5.2c0 .4.2.7.7.7.5 0 .7-.3.7-.7v-5.2c0-.5-.2-.7-.7-.7m13.9 6.7c.5 0 .7-.3.7-.7v-5.2c0-.5-.2-.7-.7-.7-.5 0-.7.2-.7.7v5.2c0 .3.2.7.7.7m-3.4-6.7c-.5 0-.7.2-.7.7v5.2c0 .4.2.7.7.7.5 0 .7-.3.7-.7v-5.2c0-.5-.2-.7-.7-.7m-3.6 0c-.5 0-.7.2-.7.7v5.2c0 .4.2.7.7.7.5 0 .7-.3.7-.7v-5.2c0-.5-.2-.7-.7-.7m-3.3 0c-.5 0-.7.2-.7.7v5.2c0 .4.2.7.7.7.5 0 .7-.3.7-.7v-5.2c0-.5-.2-.7-.7-.7"/>
</svg>