<svg xmlns="http://www.w3.org/2000/svg" width="60.7" height="63.2" viewBox="0 0 60.7 63.2">
  <style>
    .cesarea{fill:#6070b2}
  </style>
  <path class="cesarea" d="M5.2 1.9C5.3 1 4.7.1 3.9 0 3-.1 2.2.5 2.1 1.4c0 0-.9 6.8.2 13.4.1.8.5 1.8.9 3.1 1.2 3.9 3.3 10.4 1.5 14.7C2.5 37.8 1.2 43.4.6 48.3c-1.1 7.6-.4 13.9.7 14.6.7.5 1.7.3 2.1-.5.5-.8.3-1.8-.5-2.3-.4-.3-.2-5 .7-11.4.7-4.7 1.9-10 3.9-14.9 2.3-5.4 0-12.6-1.4-17-.4-1.2-.7-2.1-.8-2.6-1-6.1-.1-12.3-.1-12.3"/>
  <path class="cesarea" d="M58.6 1.4c-.1-.9-.9-1.5-1.8-1.4-.9.1-1.4 1-1.3 1.9 0 0 .9 6.3-.2 12.3-.1.5-.4 1.5-.8 2.6-1.4 4.4-3.7 11.6-1.4 17 2 4.9 3.3 10.2 3.9 14.9.9 6.4 1 11.1.7 11.4-.7.5-.9 1.5-.5 2.3.5.8 1.4 1 2.2.5 1.1-.8 1.8-7 .7-14.6-.7-4.9-2-10.5-4.1-15.7-1.8-4.3.3-10.7 1.5-14.7.4-1.3.7-2.3.9-3.1 1.1-6.6.2-13.4.2-13.4"/>
  <path class="cesarea" d="M29.2 29.3c.6 0 1.2.3 1.6.7.4.5.7 1.1.7 1.8s-.3 1.3-.7 1.8c-.4.5-1 .7-1.6.7-.6 0-1.2-.3-1.6-.7-.4-.5-.7-1.1-.7-1.8s.3-1.3.7-1.8c.4-.4 1-.7 1.6-.7m.7 1.7c-.2-.2-.4-.3-.7-.3-.3 0-.5.1-.7.3-.2.2-.3.5-.3.8 0 .3.1.6.3.8.2.2.4.3.7.3.3 0 .5-.1.7-.3.2-.2.3-.5.3-.8 0-.3-.1-.6-.3-.8"/>
  <path class="cesarea" d="M43.5 46c.8-.8-.2-2.3-1.2-1.6-.1 0-.1.1-.1.1-.8.7-.2 2.1.8 1.8.1 0 .2-.1.4-.2l.1-.1zm-23.7.7c-.9-.6-1.9.6-1.3 1.5l.3.3H21.9c1 .5 1.9-1 1-1.7-.1 0-.1-.1-.2-.1H19.8zm6.9 2.6c-1-.2-1.6 1.3-.6 1.9.1.1.2.1.3.1H29.5c1.2.1 1.4-1.8.2-2H26.7zm7.4-.4c-1.1.3-.9 2.1.3 2H37.9c1.1-.4.7-2.2-.5-2H34.1z"/>
</svg>