<svg xmlns="http://www.w3.org/2000/svg" width="65.2" height="60.7" viewBox="0 0 65.2 60.7">
  <style>
    .con-sentimiento{fill:#6070b2}
  </style>
  <path class="con-sentimiento" d="M63.7 37.7c-2-1.3-3.1-3.1-3.7-4.7 3.2-3.5 5.1-7.9 5.1-12.7C65.2 9.1 54.8 0 42.1 0 30.7 0 21.2 7.2 19.3 16.7c1.1-.1 2.2-.2 3.4-.2 14.3 0 26 10.3 26.6 23 1.9-.5 3.7-1.3 5.4-2.3 3.3 1.9 6.8 1.9 8.8 1.6.5 0 .7-.7.2-1.1"/>
  <path class="con-sentimiento" d="M41.4 40.6c0 8.9-8.4 16.2-18.7 16.2-3.7 0-7.2-.9-10.3-2.7l-1-.6-1 .6c-1 .6-2.1 1-3.4 1.2.6-.8 1-1.7 1.4-2.6l.4-1.1-.8-1c-2.7-2.9-4.1-6.4-4.1-10.1 0-8.9 8.4-16.2 18.7-16.2 10.4.1 18.8 7.3 18.8 16.3m3.9 0c0-11.1-10.2-20.1-22.7-20.1S0 29.5 0 40.6c0 4.2 1.5 8.3 4.3 11.7-.5.9-1.2 1.7-2 2.2-.9.6-1.3 1.6-1.1 2.7.2 1 1.1 1.8 2.1 1.9.7.1 1.5.1 2.2.1 2.2 0 4.2-.4 6-1.3 3.4 1.7 7.3 2.7 11.2 2.7 12.5.1 22.6-8.9 22.6-20"/>
  <path class="con-sentimiento" d="M23.3 36.1c1.4 0 2.5-1.1 2.5-2.5s-1.1-2.5-2.5-2.5-2.5 1.1-2.5 2.5c0 1.3 1.1 2.5 2.5 2.5"/>
  <path class="con-sentimiento" d="M26.3 47.5c-.2.1-.5.3-.7.4l-.9.3c-.4 0-.7-.2-.8-.5-.1-.3-.1-.6-.1-.9l.3-1.8c.3-1.8.7-3.6 1-5.4.1-.5.2-1 .2-1.5 0-.6-.4-.9-.9-.9H19.1c-.4.1-.5.2-.6.5 0 .3.1.5.4.6.3.1.5.1.8.2.6.1.9.3.9 1v.3c-.3 1.6-.6 3.1-.8 4.7-.1.9-.3 1.8-.4 2.7-.2 1.3 1.1 2.6 2.1 2.7.6.1 1.2.1 1.8.1 1.3 0 2.4-.6 3.3-1.5.2-.2.3-.4.3-.6.1-.3-.2-.6-.6-.4"/>
</svg>