<svg xmlns="http://www.w3.org/2000/svg" width="44.6" height="63.7" viewBox="0 0 44.6 63.7">
  <path d="M31.9 36.8l.1-6 7.3 6.8c.6.6 1.4.8 2.1.8.8 0 1.7-.3 2.3-1 1.2-1.3 1.1-3.2-.2-4.4 0 0-8.4-9.1-9.6-10.2-2.2-2-5.5-3.1-10.8-3.1h-1.7c-5.3 0-8.6 1.1-10.9 3.1C9.4 23.9 1 33 1 33c-1.3 1.2-1.3 3.2-.1 4.4.6.7 1.5 1 2.3 1 .8 0 1.5-.3 2.1-.8l7.3-6.8.1 6h19.2zM22.3 0c4.9 0 8.9 4 8.9 8.8 0 4.9-4 8.8-8.8 8.8-4.9 0-8.8-3.9-8.8-8.8C13.5 4 17.4 0 22.3 0m-9.7 40.3l-6.1 6.1c-2 2-1.5 5.4.4 7.3l8.5 8.8c3.3 3.3 7.6-1.3 4.5-4.4l-5.4-5.4 5.2-5.2-7.1-7.2zm19 0l6.1 6.1c1.9 2 1.4 5.4-.4 7.3l-8.5 8.8c-3.3 3.3-7.7-1.3-4.5-4.4l5.4-5.4-5.3-5.2 7.2-7.2z" fill="#6070b2"/>
</svg>