<svg xmlns="http://www.w3.org/2000/svg" width="140" height="203.6" viewBox="0 0 140 203.6">
  <style>
    .parto-respetado-st0{fill:#fbccb9}.parto-respetado-st1{stroke-width:.572;stroke-linecap:round}.parto-respetado-st1,.parto-respetado-st2,.parto-respetado-st4{fill:none;stroke:#c5a6b5;stroke-miterlimit:10}.parto-respetado-st2{stroke-linecap:round;stroke-width:.858}.parto-respetado-st4{stroke-width:.572}.parto-respetado-st5{fill:#a2cec7}.parto-respetado-st6{fill:#f16863}.parto-respetado-st9{fill:#f9b487}.parto-respetado-st10{fill:#f9af81}
  </style>
  <path class="parto-respetado-st0" d="M63.9 60.6c-12.3 22.2-27.2 15.9-20.5 26l.1.1c2.6 3.9 7.7 2.2 12.9 3.9 15.3 4.7 14.1 27.6-4.2 21.7-3.9-1.2-16.1-13.4-25-18.9-3-1.8-5.6-2.9-7.4-2.6-.1 0-.2-.1-.2-.4-.2-1.8.9-9-1.2-15.8-1.2-4-2.9-10.6-4.2-16.2-.1-.3-.2-.4-.2-.6-3.9-12.9-2.6-11.4.6-25.5 0 0 1.2.1 3.2.3 6.1 1 11 .9 11 .9 3.3 0 6.8-.1 10.1-.6 10.3-1.4 20.6-8.3 22.2-12.2 0 0 9.5 10.8 7.6 26.3-.8 4.3-2.1 8.8-4.8 13.6"/>
  <path class="parto-respetado-st1" d="M63.9 60.6c-12.3 22.2-27.2 15.9-20.5 26l.1.1c2.6 3.9 7.7 2.2 12.9 3.9 15.3 4.7 14.1 27.6-4.2 21.7-3.9-1.2-16.1-13.4-25-18.9-3-1.8-5.6-2.9-7.4-2.6-.1 0-.2-.1-.2-.4-.2-1.8.9-9-1.2-15.8-1.2-4-2.9-10.6-4.2-16.2-.1-.3-.2-.4-.2-.6-3.9-12.9-2.6-11.4.6-25.5 0 0 1.2.1 3.2.3 6.1 1 11 .9 11 .9 3.3 0 6.8-.1 10.1-.6 10.3-1.4 20.6-8.3 22.2-12.2 0 0 9.5 10.8 7.6 26.3-.8 4.3-2.1 8.8-4.8 13.6z"/>
  <path class="parto-respetado-st2" d="M67.1 43s-1.3-4.6-4.6-6.6c-15.8-10-9.2 24.2-11 23.7-2.3-.6-5.1-2.7-5.1-2.7m1.4 10.8s-5.4 3.5-8.3-3m23.2-17s-3.6 7.9-5.5 5.4-1.8-8.8-1.8-8.8m-7.3-1.4s-3.2 7.1-6.4 5c-3.1-2.1-1.9-8.6-1.9-8.6"/>
  <path d="M65.3 10.2S48 40.8 4.8 23.6M40 152.1s.2 4.1 5.7 5.9" fill="none" stroke="#18171c" stroke-width=".572" stroke-miterlimit="10"/>
  <path class="parto-respetado-st0" d="M85.7 67.7c-10.2 2.4-17.5 10.6-17.5 21.4 0 12.2 10.4 22.1 23.3 22.1 4.7 0 10-2.3 9.8-2.2 7.8 4.9.4 28-6.8 29.3-1.6.3-3 .4-4.3.3.2 5.6 1.1 10.2 3.3 11.8.4.2.7.4 1.1.5 1.9.5 4.1.6 6.3.5 10.8-.8 24.3-8.5 26.9-16.9.1-.2.1-.5.2-.7 3.5-12.2-13.7-6-19.1-30.8-.1.1 5.1-8.8 5.8-13.8 3.7-26.1-23-18.6-25.9-25.3-1.3-3.2.2.6-3.1 3.8"/>
  <path class="parto-respetado-st4" d="M85.7 67.7c-10.2 2.4-17.5 10.6-17.5 21.4 0 12.2 10.4 22.1 23.3 22.1 4.7 0 10-2.3 9.8-2.2 7.8 4.9.4 28-6.8 29.3-1.6.3-3 .4-4.3.3.2 5.6 1.1 10.2 3.3 11.8.4.2.7.4 1.1.5 1.9.5 4.1.6 6.3.5 10.8-.8 24.3-8.5 26.9-16.9.1-.2.1-.5.2-.7 3.5-12.2-13.7-6-19.1-30.8-.1.1 5.1-8.8 5.8-13.8 3.7-26.1-23-18.6-25.9-25.3-1.3-3.2.2.6-3.1 3.8z"/>
  <path class="parto-respetado-st5" d="M90.2 138.6c.2 5.6 1.1 10.2 3.3 11.8-.4.1-18.1 4.6-4.9 24.6-23.5-4.2-45.2-36-52.3-56.8-.5-9.9-9.2-24.9-9.2-24.9 8.9 5.5 21 17.7 25 18.9 18.3 5.9 19.5-17 4.2-21.7-5.2-1.6-10.3 0-12.9-3.9l-.1-.1s18.2-3.5 24.9-.2c-.1.9-.1 1.8-.1 2.7 0 7 3.4 13.2 8.8 17.3 3.8 2.9 8.7 4.7 14 4.8v2c-2.6 5.3-2.9 12.8-3 13.3-1-.9-13.6-11.5-20.1-9.6-6.8 2-3.9 9-1.9 10.4 2 1.4 1.4-1.7 4.5-3.3 5.2-2.5 6.1 14 19.8 14.7"/>
  <path class="parto-respetado-st4" d="M90.2 138.6c.2 5.6 1.1 10.2 3.3 11.8-.4.1-18.1 4.6-4.9 24.6-23.5-4.2-45.2-36-52.3-56.8-.5-9.9-9.2-24.9-9.2-24.9 8.9 5.5 21 17.7 25 18.9 18.3 5.9 19.5-17 4.2-21.7-5.2-1.6-10.3 0-12.9-3.9l-.1-.1s18.2-3.5 24.9-.2c-.1.9-.1 1.8-.1 2.7 0 7 3.4 13.2 8.8 17.3 3.8 2.9 8.7 4.7 14 4.8v2c-2.6 5.3-2.9 12.8-3 13.3-1-.9-13.6-11.5-20.1-9.6-6.8 2-3.9 9-1.9 10.4 2 1.4 1.4-1.7 4.5-3.3 5.2-2.5 6.1 14 19.8 14.7z"/>
  <path class="parto-respetado-st5" d="M27.2 93.4s8.7 14.9 9.2 24.9c.5 9.9-19.7 8.7-19.7 8.7-7.7-15.2-9.9-27.5 3-36.6 0 .3.1.4.2.4 1.7-.3 4.3.8 7.3 2.6"/>
  <path class="parto-respetado-st1" d="M27.2 93.4s8.7 14.9 9.2 24.9c.5 9.9-19.7 8.7-19.7 8.7-7.7-15.2-9.9-27.5 3-36.6 0 .3.1.4.2.4 1.7-.3 4.3.8 7.3 2.6z"/>
  <path class="parto-respetado-st6" d="M107.8 183.9c2.2 2.7 4.7 7.6.9 13.5-1.2 1.8-10.9 11-17.2 2.2-2-2.8 6.3-5.3 5.8-9.4-.1-.7-.3-1.5-.5-2.2 6.7 3.6 10.6-3.3 11-4.1"/>
  <path class="parto-respetado-st4" d="M107.8 183.9c2.2 2.7 4.7 7.6.9 13.5-1.2 1.8-10.9 11-17.2 2.2-2-2.8 6.3-5.3 5.8-9.4-.1-.7-.3-1.5-.5-2.2 6.7 3.6 10.6-3.3 11-4.1z"/>
  <path class="parto-respetado-st6" d="M132.5 185.9c.8.5 4.2 2.9 4 5.7-.2 2.7-3.8 6-8.3 5.6-9.3-.8-8.1-6.3-5.1-9.5.1-.1.2-.2.2-.3 7.7 2.1 9.2-1.5 9.2-1.5"/>
  <path class="parto-respetado-st4" d="M132.5 185.9c.8.5 4.2 2.9 4 5.7-.2 2.7-3.8 6-8.3 5.6-9.3-.8-8.1-6.3-5.1-9.5.1-.1.2-.2.2-.3 7.7 2.1 9.2-1.5 9.2-1.5z"/>
  <path d="M127.8 134.5c10.7 9.8 13.1 18.9 9.9 26.9-.1.2-.2.5-.3.7-.7 2-1.5 3.9-2.9 5.7-.6.7-1.2 1.5-2.1 2.2-4.7 1.8-15.8 4.2-15.8 4.2s-1.2-.1 1.7-2.7c3-2.7 2.9-4.9 2.5-5-3.8-.9-6.7 3.7-12.9 6.2-1.1.4-2.2.8-3.2 1.1-6.7-7-3.8-22.3-3.8-22.3 10.9-.9 24.4-8.6 26.9-17" fill="#076588"/>
  <path d="M127.8 134.5c10.7 9.8 13.1 18.9 9.9 26.9-.1.2-.2.5-.3.7-.7 2-1.5 3.9-2.9 5.7-.6.7-1.2 1.5-2.1 2.2-4.7 1.8-15.8 4.2-15.8 4.2s-1.2-.1 1.7-2.7c3-2.7 2.9-4.9 2.5-5-3.8-.9-6.7 3.7-12.9 6.2-1.1.4-2.2.8-3.2 1.1-6.7-7-3.8-22.3-3.8-22.3 10.9-.9 24.4-8.6 26.9-17z" fill="none" stroke="#c5a6b5" stroke-width=".286" stroke-miterlimit="10"/>
  <path class="parto-respetado-st0" d="M101.3 109c7.8 4.9.4 28-6.8 29.3-1.6.3-3 .4-4.3.3-13.7-.6-14.6-17.2-19.7-14.6-3.1 1.6-2.5 4.7-4.5 3.3-2-1.4-4.9-8.3 1.9-10.4 6.5-2 19.1 8.7 20.1 9.6 0-.4.3-8 3-13.3.4-.7.8-1.4 1.3-2.1 1.6-2.2 4-3.6 7.2-2.9.6.2 1.2.5 1.8.8"/>
  <path class="parto-respetado-st4" d="M101.3 109c7.8 4.9.4 28-6.8 29.3-1.6.3-3 .4-4.3.3-13.7-.6-14.6-17.2-19.7-14.6-3.1 1.6-2.5 4.7-4.5 3.3-2-1.4-4.9-8.3 1.9-10.4 6.5-2 19.1 8.7 20.1 9.6 0-.4.3-8 3-13.3.4-.7.8-1.4 1.3-2.1 1.6-2.2 4-3.6 7.2-2.9.6.2 1.2.5 1.8.8z"/>
  <path class="parto-respetado-st0" d="M100.9 151.4s-2.8 15.3 3.8 22.3c-4.1 1.2-7.9 1.6-8 1.6-2.7.3-5.5.2-8.2-.3-13.2-20 4.5-24.5 4.9-24.6.4.3.7.4 1.1.5 2 .5 4.2.6 6.4.5"/>
  <path class="parto-respetado-st4" d="M100.9 151.4s-2.8 15.3 3.8 22.3c-4.1 1.2-7.9 1.6-8 1.6-2.7.3-5.5.2-8.2-.3-13.2-20 4.5-24.5 4.9-24.6.4.3.7.4 1.1.5 2 .5 4.2.6 6.4.5z"/>
  <path class="parto-respetado-st0" d="M97.4 181.8c2.7.1 5.4 0 8-.2 0 0 1.1.8 2.3 2.2-.4.8-4.3 7.7-11 4.1-1.3-3.4-4.2-6.6-4.2-6.6 1.8.3 3.5.5 4.9.5"/>
  <path class="parto-respetado-st4" d="M97.4 181.8c2.7.1 5.4 0 8-.2 0 0 1.1.8 2.3 2.2-.4.8-4.3 7.7-11 4.1-1.3-3.4-4.2-6.6-4.2-6.6 1.8.3 3.5.5 4.9.5z"/>
  <path class="parto-respetado-st0" d="M130 175.7s.9 9.3 2.5 10.2c0 0-1.5 3.5-9.2 1.6 2.5-3.2-1.9-9-1.9-9 3.2-.8 6.1-1.9 8.6-2.8"/>
  <path class="parto-respetado-st4" d="M130 175.7s.9 9.3 2.5 10.2c0 0-1.5 3.5-9.2 1.6 2.5-3.2-1.9-9-1.9-9 3.2-.8 6.1-1.9 8.6-2.8z"/>
  <path class="parto-respetado-st0" d="M36.3 118.3c7.1 20.8 28.7 52.5 52.3 56.8 2.7.5 5.5.6 8.2.3.1 0 3.9-.4 8-1.6 1.1-.3 2.2-.7 3.2-1.1 6.2-2.5 9.1-7 12.9-6.2.4.1.5 2.3-2.5 5s-1.7 2.7-1.7 2.7 11-2.4 15.8-4.2c1.2-.5 2-.9 2.1-1.2 0-.3 0-.6-.1-1 1.4-1.9 2.2-3.7 2.9-5.7 0 0 5.8 8.1-1.2 11.1-1.6.7-3.7 1.6-6.2 2.5-2.5.9-5.4 2-8.6 2.9-4.8 1.4-10.2 2.6-15.9 3.1-2.6.2-5.3.3-8.1.2-1.5-.1-3.1-.2-4.8-.4-18.1-2.1-51.1-12.2-64.6-34.5-4.3-7.1-8.3-13.8-11.4-19.9 0-.1 20.2 1.1 19.7-8.8"/>
  <path class="parto-respetado-st4" d="M36.3 118.3c7.1 20.8 28.7 52.5 52.3 56.8 2.7.5 5.5.6 8.2.3.1 0 3.9-.4 8-1.6 1.1-.3 2.2-.7 3.2-1.1 6.2-2.5 9.1-7 12.9-6.2.4.1.5 2.3-2.5 5s-1.7 2.7-1.7 2.7 11-2.4 15.8-4.2c1.2-.5 2-.9 2.1-1.2 0-.3 0-.6-.1-1 1.4-1.9 2.2-3.7 2.9-5.7 0 0 5.8 8.1-1.2 11.1-1.6.7-3.7 1.6-6.2 2.5-2.5.9-5.4 2-8.6 2.9-4.8 1.4-10.2 2.6-15.9 3.1-2.6.2-5.3.3-8.1.2-1.5-.1-3.1-.2-4.8-.4-18.1-2.1-51.1-12.2-64.6-34.5-4.3-7.1-8.3-13.8-11.4-19.9 0-.1 20.2 1.1 19.7-8.8z"/>
  <path class="parto-respetado-st6" d="M65.3 13.8S76.5 32.3 72 42.2c-.9 1.6-2.1 3.3-3.5 5 2-15.5-7.6-26.3-7.6-26.3l4.4-7.1z"/>
  <path class="parto-respetado-st1" d="M65.3 13.8S76.5 32.3 72 42.2c-.9 1.6-2.1 3.3-3.5 5 2-15.5-7.6-26.3-7.6-26.3l4.4-7.1z"/>
  <path class="parto-respetado-st2" d="M84 101.6c1.1 1.1-3.8 8.5-9.3 2.5m-.1-13.8S73 97 69 94.7m18.4-5.9s-2.9 8.8-9.2 1.3"/>
  <path class="parto-respetado-st9" d="M66.8 11.3S81.8 25 72 42.2c4.5-9.8-6.7-28.4-6.7-28.4l1.5-2.5z"/>
  <path class="parto-respetado-st1" d="M66.8 11.3S81.8 25 72 42.2c4.5-9.8-6.7-28.4-6.7-28.4l1.5-2.5z"/>
  <path class="parto-respetado-st9" d="M65.3 10.2S48 40.8 4.8 23.6c.6-1 1.2-1.9 1.8-2.8C36.5 36.5 64 9.4 64 9.4c.4.3.9.6 1.3.8"/>
  <path class="parto-respetado-st4" d="M65.3 10.2S48 40.8 4.8 23.6c.6-1 1.2-1.9 1.8-2.8C36.5 36.5 64 9.4 64 9.4c.4.3.9.6 1.3.8z"/>
  <path class="parto-respetado-st9" d="M59 6.5s-13.8 12-46.6 6.6c1.1-1.3 2.3-2.5 3.5-3.6.3-.1.5-.2.7-.3 12.8 4.7 39.1-4.4 39.1-4.4 1.2.5 2.2 1.1 3.3 1.7"/>
  <path class="parto-respetado-st4" d="M59 6.5s-13.8 12-46.6 6.6c1.1-1.3 2.3-2.5 3.5-3.6.3-.1.5-.2.7-.3 12.8 4.7 39.1-4.4 39.1-4.4 1.2.5 2.2 1.1 3.3 1.7z"/>
  <path class="parto-respetado-st6" d="M38.8 33c-3.3.4-6.8.6-10.1.6-4.4 0-8.3-.3-11-.6-4.8-.8-10.4-2.6-14.7-6.2.6-1.1 1.2-2.1 1.8-3.1C48 40.9 65.3 10.2 65.3 10.2c.5.4 1 .7 1.5 1l-1.5 2.5C58.9 26.2 53.4 31 38.8 33"/>
  <path class="parto-respetado-st4" d="M38.8 33c-3.3.4-6.8.6-10.1.6-4.4 0-8.3-.3-11-.6-4.8-.8-10.4-2.6-14.7-6.2.6-1.1 1.2-2.1 1.8-3.1C48 40.9 65.3 10.2 65.3 10.2c.5.4 1 .7 1.5 1l-1.5 2.5C58.9 26.2 53.4 31 38.8 33z"/>
  <path class="parto-respetado-st6" d="M64 9.4S36.6 36.5 6.6 20.9c.9-1.4 1.9-2.7 2.8-3.9C40 26.8 62.2 8.3 62.2 8.3c.5.3 1.2.7 1.8 1.1"/>
  <path class="parto-respetado-st4" d="M64 9.4S36.6 36.5 6.6 20.9c.9-1.4 1.9-2.7 2.8-3.9C40 26.8 62.2 8.3 62.2 8.3c.5.3 1.2.7 1.8 1.1z"/>
  <path class="parto-respetado-st6" d="M16.7 9.2C32.6 3.3 54.1 4 54.1 4c.6.3 1.2.5 1.8.8-.1 0-26.4 9.1-39.2 4.4"/>
  <path class="parto-respetado-st4" d="M16.7 9.2C32.6 3.3 54.1 4 54.1 4c.6.3 1.2.5 1.8.8-.1 0-26.4 9.1-39.2 4.4z"/>
  <path class="parto-respetado-st6" d="M16 9.5C26.5-.2 38.9-2.6 54.1 4c0 0-21.4-.7-37.3 5.2-.3.1-.6.2-.8.3"/>
  <path class="parto-respetado-st4" d="M16 9.5C26.5-.2 38.9-2.6 54.1 4c0 0-21.4-.7-37.3 5.2-.3.1-.6.2-.8.3z"/>
  <path class="parto-respetado-st6" d="M62.1 8.2S39.8 26.7 9.3 16.9c1-1.4 2.1-2.7 3.2-3.9C45.3 18.4 59 6.5 59 6.5c1 .5 2.1 1.1 3.1 1.7"/>
  <path class="parto-respetado-st4" d="M62.1 8.2S39.8 26.7 9.3 16.9c1-1.4 2.1-2.7 3.2-3.9C45.3 18.4 59 6.5 59 6.5c1 .5 2.1 1.1 3.1 1.7z"/>
  <path class="parto-respetado-st9" d="M3 26.8c4.3 3.6 9.9 5.4 14.7 6.2-2-.2-3.2-.4-3.2-.4-2.6 2.2-5.3 2.6-7.5 2.4-3.9-.5-6.6-3.2-6.6-3.2.8-1.8 1.7-3.4 2.6-5"/>
  <path class="parto-respetado-st1" d="M3 26.8c4.3 3.6 9.9 5.4 14.7 6.2-2-.2-3.2-.4-3.2-.4-2.6 2.2-5.3 2.6-7.5 2.4-3.9-.5-6.6-3.2-6.6-3.2.8-1.8 1.7-3.4 2.6-5z"/>
  <path class="parto-respetado-st9" d="M14.5 32.7c-1.5 6.6-2.6 9.7-2.8 12.6-.1.5-.2 1.1-.1 1.8.1 2.5.8 5.4 2.4 10.7l.1.4c-.3-.1-.5-.2-.7-.4C5.8 52.9 6.7 38.6 7.1 35c2.2.2 4.8-.3 7.4-2.3"/>
  <path class="parto-respetado-st1" d="M14.5 32.7c-1.5 6.6-2.6 9.7-2.8 12.6-.1.5-.2 1.1-.1 1.8.1 2.5.8 5.4 2.4 10.7l.1.4c-.3-.1-.5-.2-.7-.4C5.8 52.9 6.7 38.6 7.1 35c2.2.2 4.8-.3 7.4-2.3z"/>
  <path class="parto-respetado-st6" d="M7.1 35c-.4 3.6-1.3 17.9 6.2 22.8C.5 50.2.1 35.5.4 31.7c1 .8 3.8 2.9 6.6 3.2h.1z"/>
  <path class="parto-respetado-st1" d="M7.1 35c-.4 3.6-1.3 17.9 6.2 22.8C.5 50.2.1 35.5.4 31.7c1 .8 3.8 2.9 6.6 3.2h.1z"/>
  <path class="parto-respetado-st0" d="M112.8 117.2s-4 9.8-4.9 7.9c-.9-1.9 0-17.3 6.2-17.2 6.2.2 13.2 7.1 8.3 21.2-2 5.6-2.2-8.7-2-10 0-.1-2.6 12.3-4 12-1.4-.4.2-13.2.2-13.2s-3.7 12-4.9 11.3c-1.2-.7 1.1-12 1.1-12"/>
  <path class="parto-respetado-st1" d="M112.8 117.2s-4 9.8-4.9 7.9c-.9-1.9 0-17.3 6.2-17.2 6.2.2 13.2 7.1 8.3 21.2-2 5.6-2.2-8.7-2-10 0-.1-2.6 12.3-4 12-1.4-.4.2-13.2.2-13.2s-3.7 12-4.9 11.3c-1.2-.7 1.1-12 1.1-12z"/>
  <path class="parto-respetado-st6" d="M89.2 71.5c.1.2.1.4-.1.5-.2.1-.4.1-.5-.1-.2-.4-.3-.8-.1-1.2.1-.4.4-.8.7-1 .4-.3.9-.3 1.2-.3.4.1.8.3 1 .7.4.7.5 1.4.3 2.1-.2.7-.7 1.4-1.4 1.8-.7.4-1.5.5-2.2.4-.7-.1-1.4-.5-1.8-1.2-.6-.9-.7-2-.4-3 .3-1 1-1.9 2-2.5 1-.6 2.1-.8 3.1-.6 1 .2 2 .8 2.5 1.7.7 1.2.9 2.6.5 3.9-.4 1.3-1.2 2.5-2.5 3.4-.2.1-.4 0-.5-.1-.1-.2-.1-.4.1-.5 1.1-.7 1.9-1.8 2.2-2.9.3-1.1.2-2.3-.4-3.4-.5-.8-1.2-1.2-2.1-1.4-.8-.1-1.8 0-2.6.5-.9.5-1.4 1.3-1.6 2.1-.2.8-.1 1.7.3 2.4.3.5.7.7 1.3.9.5.1 1.1 0 1.7-.3.5-.4.9-.8 1-1.4.1-.5.1-1.1-.2-1.5-.1-.2-.3-.3-.5-.4-.2 0-.5 0-.7.1-.2.1-.4.4-.5.6.1.3.1.5.2.7"/>
  <path class="parto-respetado-st10" d="M91.2 96.7c-2.1 0-3.7 1.4-3.7 3 0 1.7 1.6 3.1 3.7 3.1 2 0 3.7-1.4 3.7-3.1 0-1.6-1.6-3-3.7-3"/>
  <path class="parto-respetado-st10" d="M31.1 53.8c-2.1 0-3.7 1.4-3.7 3.1s1.6 3 3.7 3c2 0 3.7-1.4 3.7-3s-1.7-3.1-3.7-3.1"/>
  <path class="parto-respetado-st10" d="M55.3 63.2c-2 0-3.7 1.4-3.7 3 0 1.7 1.6 3.1 3.7 3.1s3.7-1.4 3.7-3.1c0-1.6-1.6-3-3.7-3"/>
  <path d="M18.2 49.4c.2-.2.6-.1.7.1.2.2.1.6-.1.7l-.6-.8zm-7.1-2c1.1 7.7 7.7 2.9 7.7 2.9l-.6-.9s-5.2 3.8-6.1-2.1l-1 .1zm7.7-3.4s-8.8-4.5-7.7 3.4l1-.1c-.8-5.8 6.2-2.3 6.2-2.3l.5-1zm0 0c.3.1.4.4.2.7-.1.2-.5.4-.7.2l.5-.9z" fill="#c5a6b5"/>
</svg>