<svg xmlns="http://www.w3.org/2000/svg" width="68.7" height="56.7" viewBox="0 0 68.7 56.7">
  <style>
    .visitas{fill:#6070b2}
  </style>
  <path class="visitas" d="M41.6 11.7c-1 0-1.9-.3-2.7-.7-.9.5-1.9.8-2.9.8-1.1 0-2-.3-2.9-.8-.8.4-1.7.7-2.7.7-1 0-2-.3-2.8-.8C29 10.1 30 8.7 30.3 7c-.2-.3-.3-.7-.3-1.1 0-1.6.7-3.1 1.7-4.2C32.8.7 34.3 0 35.9 0s3.1.7 4.2 1.7c1.1 1.1 1.7 2.5 1.7 4.2 0 .3 0 .7-.1 1 .2 1.7 1.3 3.2 2.7 4.1-.8.4-1.8.7-2.8.7"/>
  <path class="visitas" d="M41.2 26.6c.3.3.5.7.7 1.1l-.7-3.6v2.5zm1.5 5.5c-.1.8-.3 1.6-.6 2.3l1.3 5.1h-2.5l-.4 15c0 .7-.4 1.4-.9 1.8-.3.1-.5.1-.8.1-.6 0-1.1-.2-1.5-.5-.2-.3-.3-.7-.3-1.1l-.6-13v-2.3h-.7v2.3l-.6 13c0 .4-.1.8-.3 1.1-.4.3-1 .5-1.5.5-.3 0-.6 0-.8-.1-.5-.4-.9-1.1-.9-1.8l-.4-15h-2.1l.7-3.8c-.9-1.2-1.4-2.8-1.4-4.4 0-.7.1-1.3.3-2-1.2-1.9-2.2-5-2.7-6.2-.2-.4-.2-.9-.1-1.3l1.1-2.5 3-5.7c.1-.4.5-.7 1-.7h2.4c.7 1.5 2.7 4.4 2.7 4.4l2.5-4.4H41c.8-.1 1.5.4 1.7 1.3L46.2 32c.2.9-.4 1.9-1.3 2.1-.9.3-1.8-.3-2-1.2l-.2-.8zm-12.2-6.2l.2-.2v-5.3c-.6 1-.8 1.2-1.3 2.2l1.1 3.3z"/>
  <path class="visitas" d="M63.7 20.6v6.2l1.3-4c-.4-1-.6-1.2-1.3-2.2m-6.3 6.9c-.1 0-.1 0-.1.1v.2c0 .1 0 .1.1.1h.2c.1 0 .1 0 .1-.1v-.2c0-.1 0-.1-.1-.1h-.2zm0-2.5c-.1 0-.1 0-.1.1v.2c0 .1 0 .1.1.1h.2c.1 0 .1 0 .1-.1v-.2c0-.1 0-.1-.1-.1h-.2zm0-2.5c-.1 0-.1 0-.1.1v.2c0 .1 0 .1.1.1h.2c.1 0 .1 0 .1-.1v-.2c0-.1 0-.1-.1-.1h-.2zm0-2.5c-.1 0-.1 0-.1.1v.2c0 .1 0 .1.1.1h.2c.1 0 .1 0 .1-.1v-.2c0-.1 0-.1-.1-.1h-.2zm.8-4h.5v13.2h-.5V16zM63 54.6c0 1-.6 1.9-1.7 1.9s-1.8-.5-1.9-1.6l-.6-13v-7.6H58v7.6l-.6 13c-.1 1.1-.8 1.6-1.9 1.6-1.1 0-1.7-.9-1.7-1.9-.2-7.2-.3-14.3-.4-21.4.8-.1 1.6-.5 2.2-1.1.7-.7 1.2-1.7 1.2-2.8v-.2h-.6v.2c0 .9-.4 1.8-1 2.4-.5.5-1.1.8-1.8.9-.1-4.1-.1-8.3-.1-12.4l-2 3.5c-.2.3-.6.6-1 .7l-7.5 1.8v-2.9l5.8-2 3.6-7.4c.1-.4.5-.7.9-.7h2.6c-.5.5-.7 1.1-.7 1.8.1 1.8 1.9 2.9 3.1 1.1-1.2-.5-2-2.2-2.3-2.9h5.3c-.3.7-1.1 2.4-2.3 2.9 1.2 1.8 3 .7 3.1-1.1 0-.7-.3-1.3-.7-1.8H63.6c.5.1.6.3.8.7l3 5.7 1.1 2.5c.2.4.1.8-.1 1.3-.8 1.8-2.6 7.8-4.6 7.8h-.3v1.4h-.1c-.7-.1-1.3-.5-1.8-.9-.6-.6-1-1.5-1-2.4v-.2H60v.2c0 1.1.4 2.1 1.2 2.8.6.6 1.3 1 2.2 1.1h.1c.1 7-.3 14.3-.5 21.4"/>
  <path class="visitas" d="M54 2.3C55.1 1.2 56.5.6 58.2.6c1.6 0 3.1.7 4.2 1.7 1 1.1 1.6 2.5 1.6 4.2 0 1.6-.7 3.1-1.7 4.2-1.1 1.1-2.5 1.7-4.2 1.7-1.6 0-3.1-.7-4.2-1.7-1.1-1.1-1.7-2.5-1.7-4.2.1-1.7.7-3.1 1.8-4.2"/>
  <path class="visitas" d="M64.6 6.8c-.3 1.6.6 3.3 2.1 4.1.3.2.7.3 1.1.3.2-1.6-.6-3.2-2.1-4-.4-.2-.7-.3-1.1-.4"/>
  <path class="visitas" d="M10.6 0c3.1 0 5.6 2.5 5.6 5.6 0 3.1-2.5 5.6-5.6 5.6C7.5 11.3 5 8.8 5 5.7S7.5 0 10.6 0"/>
  <path class="visitas" d="M10.6 0c3.1 0 5.6 2.5 5.6 5.6 0 3.1-2.5 5.6-5.6 5.6C7.5 11.3 5 8.8 5 5.7S7.5 0 10.6 0"/>
  <path class="visitas" d="M5.1 20.4v6.3l-1.3-4.1c.4-1 .7-1.2 1.3-2.2m.7 34.4c0 1 .7 1.9 1.7 1.9 1.1 0 1.8-.5 1.9-1.7l.6-13.2V34.1h.8V41.8l.7 13.2c.1 1.1.8 1.7 1.9 1.7 1.1 0 1.7-.9 1.7-1.9.3-11.7.6-23.2.6-34.9l2 3.6c.2.4.6.6 1.1.7l7.5 1.8v-3l-5.9-2-3.6-7.5c-.1-.4-.5-.7-1-.7H5.1c-.5.1-.6.3-.8.7l-3 5.8-1.1 2.5c-.2.4-.1.8.1 1.3.7 1.9 2.5 8 4.5 8h.3c0 7.7.5 15.9.7 23.7"/>
</svg>