<svg xmlns="http://www.w3.org/2000/svg" width="803.9" height="124.8" viewBox="0 0 803.9 124.8">
  <style>
    .st0{fill:#7c51a0}.st3{fill:#3b1552}
  </style>
  <path class="st0" d="M0 118.1h6.7v6.7H0z"/>
  <path class="st0" d="M18.5 118.1h6.7v6.7h-6.7z"/>
  <path class="st0" d="M37.1 118.1h6.7v6.7h-6.7z"/>
  <path class="st0" d="M55.6 118.1h6.7v6.7h-6.7z"/>
  <path class="st0" d="M74.2 118.1h6.7v6.7h-6.7z"/>
  <path class="st0" d="M92.7 118.1h6.7v6.7h-6.7z"/>
  <path class="st0" d="M111.2 118.1h6.7v6.7h-6.7z"/>
  <path class="st0" d="M129.8 118.1h6.7v6.7h-6.7z"/>
  <path class="st0" d="M148.3 118.1h6.7v6.7h-6.7z"/>
  <path class="st0" d="M166.9 118.1h6.7v6.7h-6.7z"/>
  <path class="st0" d="M185.4 118.1h6.7v6.7h-6.7z"/>
  <path class="st0" d="M203.9 118.1h6.7v6.7h-6.7z"/>
  <path class="st0" d="M222.5 118.1h6.7v6.7h-6.7z"/>
  <path class="st0" d="M241 118.1h6.7v6.7H241z"/>
  <path class="st0" d="M259.6 118.1h6.7v6.7h-6.7z"/>
  <path class="st0" d="M278.1 118.1h6.7v6.7h-6.7z"/>
  <path class="st0" d="M296.7 118.1h6.7v6.7h-6.7z"/>
  <path class="st0" d="M315.2 118.1h6.7v6.7h-6.7z"/>
  <path class="st0" d="M333.7 118.1h6.7v6.7h-6.7z"/>
  <path class="st0" d="M352.3 118.1h6.7v6.7h-6.7z"/>
  <path class="st0" d="M370.8 118.1h6.7v6.7h-6.7z"/>
  <path class="st0" d="M389.4 118.1h6.7v6.7h-6.7z"/>
  <path class="st0" d="M407.9 118.1h6.7v6.7h-6.7z"/>
  <path class="st0" d="M426.4 118.1h6.7v6.7h-6.7z"/>
  <path class="st0" d="M445 118.1h6.7v6.7H445z"/>
  <path class="st0" d="M463.5 118.1h6.7v6.7h-6.7z"/>
  <path class="st0" d="M482.1 118.1h6.7v6.7h-6.7z"/>
  <path class="st0" d="M500.6 118.1h6.7v6.7h-6.7z"/>
  <path class="st0" d="M519.1 118.1h6.7v6.7h-6.7z"/>
  <path class="st0" d="M537.7 118.1h6.7v6.7h-6.7z"/>
  <path class="st0" d="M556.2 118.1h6.7v6.7h-6.7z"/>
  <path class="st0" d="M574.8 118.1h6.7v6.7h-6.7z"/>
  <path class="st0" d="M593.3 118.1h6.7v6.7h-6.7z"/>
  <path class="st0" d="M611.8 118.1h6.7v6.7h-6.7z"/>
  <path class="st0" d="M630.4 118.1h6.7v6.7h-6.7z"/>
  <path class="st0" d="M648.9 118.1h6.7v6.7h-6.7z"/>
  <path class="st0" d="M667.5 118.1h6.7v6.7h-6.7z"/>
  <path class="st0" d="M686 118.1h6.7v6.7H686z"/>
  <path class="st0" d="M704.5 118.1h6.7v6.7h-6.7z"/>
  <path class="st0" d="M723.1 118.1h6.7v6.7h-6.7z"/>
  <path class="st0" d="M741.6 118.1h6.7v6.7h-6.7z"/>
  <path class="st0" d="M760.2 118.1h6.7v6.7h-6.7z"/>
  <path class="st0" d="M778.7 118.1h6.7v6.7h-6.7z"/>
  <path class="st0" d="M797.2 118.1h6.7v6.7h-6.7z"/>
  <path class="st0" d="M18.5 93.1h6.7v6.7h-6.7z"/>
  <path class="st0" d="M37.1 93.1h6.7v6.7h-6.7z"/>
  <path class="st0" d="M55.6 93.1h6.7v6.7h-6.7z"/>
  <path class="st0" d="M74.2 93.1h6.7v6.7h-6.7z"/>
  <path class="st0" d="M92.7 93.1h6.7v6.7h-6.7z"/>
  <path class="st0" d="M111.2 93.1h6.7v6.7h-6.7z"/>
  <path class="st0" d="M129.8 93.1h6.7v6.7h-6.7z"/>
  <path class="st0" d="M148.3 93.1h6.7v6.7h-6.7z"/>
  <path class="st0" d="M166.9 93.1h6.7v6.7h-6.7z"/>
  <path class="st0" d="M185.4 93.1h6.7v6.7h-6.7z"/>
  <path class="st0" d="M203.9 93.1h6.7v6.7h-6.7z"/>
  <path class="st0" d="M222.5 93.1h6.7v6.7h-6.7z"/>
  <path class="st0" d="M241 93.1h6.7v6.7H241z"/>
  <path class="st0" d="M259.6 93.1h6.7v6.7h-6.7z"/>
  <path class="st0" d="M278.1 93.1h6.7v6.7h-6.7z"/>
  <path class="st0" d="M296.7 93.1h6.7v6.7h-6.7z"/>
  <path class="st0" d="M315.2 93.1h6.7v6.7h-6.7z"/>
  <path class="st0" d="M333.7 93.1h6.7v6.7h-6.7z"/>
  <path class="st0" d="M352.3 93.1h6.7v6.7h-6.7z"/>
  <path class="st0" d="M370.8 93.1h6.7v6.7h-6.7z"/>
  <path class="st0" d="M389.4 93.1h6.7v6.7h-6.7z"/>
  <path class="st0" d="M407.9 93.1h6.7v6.7h-6.7z"/>
  <path class="st0" d="M426.4 93.1h6.7v6.7h-6.7z"/>
  <path class="st0" d="M445 93.1h6.7v6.7H445z"/>
  <path class="st0" d="M463.5 93.1h6.7v6.7h-6.7z"/>
  <path class="st0" d="M482.1 93.1h6.7v6.7h-6.7z"/>
  <path class="st0" d="M500.6 93.1h6.7v6.7h-6.7z"/>
  <path class="st0" d="M519.1 93.1h6.7v6.7h-6.7z"/>
  <path class="st0" d="M537.7 93.1h6.7v6.7h-6.7z"/>
  <path class="st0" d="M556.2 93.1h6.7v6.7h-6.7z"/>
  <path class="st0" d="M574.8 93.1h6.7v6.7h-6.7z"/>
  <path class="st0" d="M593.3 93.1h6.7v6.7h-6.7z"/>
  <path class="st0" d="M611.8 93.1h6.7v6.7h-6.7z"/>
  <path class="st0" d="M630.4 93.1h6.7v6.7h-6.7z"/>
  <path class="st0" d="M648.9 93.1h6.7v6.7h-6.7z"/>
  <path class="st0" d="M667.5 93.1h6.7v6.7h-6.7z"/>
  <path class="st0" d="M686 93.1h6.7v6.7H686z"/>
  <path class="st0" d="M704.5 93.1h6.7v6.7h-6.7z"/>
  <path class="st0" d="M723.1 93.1h6.7v6.7h-6.7z"/>
  <path class="st0" d="M741.6 93.1h6.7v6.7h-6.7z"/>
  <path class="st0" d="M760.2 93.1h6.7v6.7h-6.7z"/>
  <path class="st0" d="M778.7 93.1h6.7v6.7h-6.7z"/>
  <path class="st0" d="M797.2 93.1h6.7v6.7h-6.7z"/>
  <path class="st0" d="M0 68.1h6.7v6.7H0z"/>
  <path class="st0" d="M18.5 68.1h6.7v6.7h-6.7z"/>
  <path class="st0" d="M37.1 68.1h6.7v6.7h-6.7z"/>
  <path class="st0" d="M55.6 68.1h6.7v6.7h-6.7z"/>
  <path class="st0" d="M74.2 68.1h6.7v6.7h-6.7z"/>
  <path class="st0" d="M92.7 68.1h6.7v6.7h-6.7z"/>
  <path class="st0" d="M111.2 68.1h6.7v6.7h-6.7z"/>
  <path class="st0" d="M129.8 68.1h6.7v6.7h-6.7z"/>
  <path class="st0" d="M148.3 68.1h6.7v6.7h-6.7z"/>
  <path class="st0" d="M166.9 68.1h6.7v6.7h-6.7z"/>
  <path class="st0" d="M185.4 68.1h6.7v6.7h-6.7z"/>
  <path class="st0" d="M203.9 68.1h6.7v6.7h-6.7z"/>
  <path class="st0" d="M222.5 68.1h6.7v6.7h-6.7z"/>
  <path class="st0" d="M241 68.1h6.7v6.7H241z"/>
  <path class="st0" d="M259.6 68.1h6.7v6.7h-6.7z"/>
  <path class="st0" d="M278.1 68.1h6.7v6.7h-6.7z"/>
  <path class="st0" d="M296.7 68.1h6.7v6.7h-6.7z"/>
  <path class="st0" d="M315.2 68.1h6.7v6.7h-6.7z"/>
  <path class="st0" d="M333.7 68.1h6.7v6.7h-6.7z"/>
  <path class="st0" d="M352.3 68.1h6.7v6.7h-6.7z"/>
  <path class="st0" d="M370.8 68.1h6.7v6.7h-6.7z"/>
  <path class="st0" d="M389.4 68.1h6.7v6.7h-6.7z"/>
  <path class="st0" d="M407.9 68.1h6.7v6.7h-6.7z"/>
  <path class="st0" d="M426.4 68.1h6.7v6.7h-6.7z"/>
  <path class="st0" d="M445 68.1h6.7v6.7H445z"/>
  <path class="st0" d="M463.5 68.1h6.7v6.7h-6.7z"/>
  <path class="st0" d="M482.1 68.1h6.7v6.7h-6.7z"/>
  <path class="st0" d="M500.6 68.1h6.7v6.7h-6.7z"/>
  <path class="st0" d="M519.1 68.1h6.7v6.7h-6.7z"/>
  <path class="st0" d="M537.7 68.1h6.7v6.7h-6.7z"/>
  <path class="st0" d="M556.2 68.1h6.7v6.7h-6.7z"/>
  <path class="st0" d="M574.8 68.1h6.7v6.7h-6.7z"/>
  <path class="st0" d="M593.3 68.1h6.7v6.7h-6.7z"/>
  <path class="st0" d="M611.8 68.1h6.7v6.7h-6.7z"/>
  <path class="st0" d="M630.4 68.1h6.7v6.7h-6.7z"/>
  <path class="st0" d="M648.9 68.1h6.7v6.7h-6.7z"/>
  <path class="st0" d="M667.5 68.1h6.7v6.7h-6.7z"/>
  <path class="st0" d="M686 68.1h6.7v6.7H686z"/>
  <path class="st0" d="M704.5 68.1h6.7v6.7h-6.7z"/>
  <path class="st0" d="M723.1 68.1h6.7v6.7h-6.7z"/>
  <path class="st0" d="M741.6 68.1h6.7v6.7h-6.7z"/>
  <path class="st0" d="M760.2 68.1h6.7v6.7h-6.7z"/>
  <path class="st0" d="M778.7 68.1h6.7v6.7h-6.7z"/>
  <path class="st0" d="M797.2 68.1h6.7v6.7h-6.7z"/>
  <path class="st0" d="M55.6 43.1h6.7v6.7h-6.7z"/>
  <path class="st0" d="M74.2 43.1h6.7v6.7h-6.7z"/>
  <path class="st0" d="M92.7 43.1h6.7v6.7h-6.7z"/>
  <path class="st0" d="M111.2 43.1h6.7v6.7h-6.7z"/>
  <path class="st0" d="M129.8 43.1h6.7v6.7h-6.7z"/>
  <path class="st0" d="M148.3 43.1h6.7v6.7h-6.7z"/>
  <path class="st0" d="M166.9 43.1h6.7v6.7h-6.7z"/>
  <path class="st0" d="M185.4 43.1h6.7v6.7h-6.7z"/>
  <path class="st0" d="M203.9 43.1h6.7v6.7h-6.7z"/>
  <path class="st0" d="M222.5 43.1h6.7v6.7h-6.7z"/>
  <path class="st0" d="M241 43.1h6.7v6.7H241z"/>
  <path class="st0" d="M259.6 43.1h6.7v6.7h-6.7z"/>
  <path class="st0" d="M278.1 43.1h6.7v6.7h-6.7z"/>
  <path class="st0" d="M296.7 43.1h6.7v6.7h-6.7z"/>
  <path class="st0" d="M315.2 43.1h6.7v6.7h-6.7z"/>
  <path class="st0" d="M333.7 43.1h6.7v6.7h-6.7z"/>
  <path class="st0" d="M352.3 43.1h6.7v6.7h-6.7z"/>
  <path class="st0" d="M370.8 43.1h6.7v6.7h-6.7z"/>
  <path class="st0" d="M389.4 43.1h6.7v6.7h-6.7z"/>
  <path class="st0" d="M407.9 43.1h6.7v6.7h-6.7z"/>
  <path class="st0" d="M426.4 43.1h6.7v6.7h-6.7z"/>
  <path class="st0" d="M445 43.1h6.7v6.7H445z"/>
  <path class="st0" d="M463.5 43.1h6.7v6.7h-6.7z"/>
  <path class="st0" d="M482.1 43.1h6.7v6.7h-6.7z"/>
  <path class="st0" d="M500.6 43.1h6.7v6.7h-6.7z"/>
  <path class="st0" d="M519.1 43.1h6.7v6.7h-6.7z"/>
  <path class="st0" d="M537.7 43.1h6.7v6.7h-6.7z"/>
  <path class="st0" d="M556.2 43.1h6.7v6.7h-6.7z"/>
  <path class="st0" d="M574.8 43.1h6.7v6.7h-6.7z"/>
  <path class="st0" d="M593.3 43.1h6.7v6.7h-6.7z"/>
  <path class="st0" d="M611.8 43.1h6.7v6.7h-6.7z"/>
  <path class="st0" d="M630.4 43.1h6.7v6.7h-6.7z"/>
  <path class="st0" d="M648.9 43.1h6.7v6.7h-6.7z"/>
  <path class="st0" d="M667.5 43.1h6.7v6.7h-6.7z"/>
  <path class="st0" d="M686 43.1h6.7v6.7H686z"/>
  <path class="st0" d="M704.5 43.1h6.7v6.7h-6.7z"/>
  <path class="st0" d="M723.1 43.1h6.7v6.7h-6.7z"/>
  <path class="st0" d="M741.6 43.1h6.7v6.7h-6.7z"/>
  <path class="st0" d="M760.2 43.1h6.7v6.7h-6.7z"/>
  <path class="st0" d="M778.7 43.1h6.7v6.7h-6.7z"/>
  <path class="st0" d="M797.2 43.1h6.7v6.7h-6.7z"/>
  <path class="st0" d="M55.6 18h6.7v6.7h-6.7z"/>
  <path class="st0" d="M74.2 18h6.7v6.7h-6.7z"/>
  <path class="st0" d="M92.7 18h6.7v6.7h-6.7z"/>
  <path class="st0" d="M111.2 18h6.7v6.7h-6.7z"/>
  <path class="st0" d="M129.8 18h6.7v6.7h-6.7z"/>
  <path class="st0" d="M148.3 18h6.7v6.7h-6.7z"/>
  <path class="st0" d="M166.9 18h6.7v6.7h-6.7z"/>
  <path class="st0" d="M185.4 18h6.7v6.7h-6.7z"/>
  <path class="st0" d="M203.9 18h6.7v6.7h-6.7z"/>
  <path class="st0" d="M222.5 18h6.7v6.7h-6.7z"/>
  <path class="st0" d="M241 18h6.7v6.7H241z"/>
  <path class="st0" d="M259.6 18h6.7v6.7h-6.7z"/>
  <path class="st0" d="M278.1 18h6.7v6.7h-6.7z"/>
  <path class="st0" d="M296.7 18h6.7v6.7h-6.7z"/>
  <path class="st0" d="M315.2 18h6.7v6.7h-6.7z"/>
  <path class="st0" d="M333.7 18h6.7v6.7h-6.7z"/>
  <path class="st0" d="M352.3 18h6.7v6.7h-6.7z"/>
  <path class="st0" d="M370.8 18h6.7v6.7h-6.7z"/>
  <path class="st0" d="M389.4 18h6.7v6.7h-6.7z"/>
  <path class="st0" d="M407.9 18h6.7v6.7h-6.7z"/>
  <path class="st0" d="M426.4 18h6.7v6.7h-6.7z"/>
  <path class="st0" d="M445 18h6.7v6.7H445z"/>
  <path class="st0" d="M463.5 18h6.7v6.7h-6.7z"/>
  <path class="st0" d="M482.1 18h6.7v6.7h-6.7z"/>
  <path class="st0" d="M500.6 18h6.7v6.7h-6.7z"/>
  <path class="st0" d="M519.1 18h6.7v6.7h-6.7z"/>
  <path class="st0" d="M537.7 18h6.7v6.7h-6.7z"/>
  <path class="st0" d="M556.2 18h6.7v6.7h-6.7z"/>
  <path class="st0" d="M574.8 18h6.7v6.7h-6.7z"/>
  <path class="st0" d="M593.3 18h6.7v6.7h-6.7z"/>
  <path class="st0" d="M611.8 18h6.7v6.7h-6.7z"/>
  <path class="st0" d="M630.4 18h6.7v6.7h-6.7z"/>
  <path class="st0" d="M648.9 18h6.7v6.7h-6.7z"/>
  <path class="st0" d="M667.5 18h6.7v6.7h-6.7z"/>
  <path class="st0" d="M686 18h6.7v6.7H686z"/>
  <path class="st0" d="M704.5 18h6.7v6.7h-6.7z"/>
  <path class="st0" d="M723.1 18h6.7v6.7h-6.7z"/>
  <path class="st0" d="M741.6 18h6.7v6.7h-6.7z"/>
  <path class="st0" d="M760.2 18h6.7v6.7h-6.7z"/>
  <path class="st0" d="M778.7 18h6.7v6.7h-6.7z"/>
  <path class="st0" d="M797.2 18h6.7v6.7h-6.7z"/>
  <path fill-rule="evenodd" clip-rule="evenodd" fill="#fff" d="M21.9.4h745.7v107.9H21.9z"/>
  <path fill="none" stroke="#8e73a6" stroke-width=".8504" stroke-miterlimit="22.9256" d="M21.9.4h745.7v107.9H21.9z"/>
  <path class="st3" d="M177.3 60.9c-1.1 0-2.1-.2-2.8-.6-.8-.4-1.4-1-1.8-1.8-.4-.8-.6-1.7-.6-2.8v-4.1c0-1.1.2-2.1.6-2.8.4-.8 1-1.4 1.8-1.8.8-.4 1.7-.6 2.8-.6.9 0 1.7.1 2.3.4.7.3 1.2.7 1.6 1.2.4.5.7 1.2.8 2l-2.2.7c-.2-.7-.4-1.2-.9-1.6-.4-.4-1-.5-1.6-.5-.9 0-1.7.3-2.2.8-.5.5-.7 1.3-.7 2.3v4.1c0 1 .2 1.7.7 2.2.5.5 1.2.8 2.2.8.7 0 1.2-.2 1.6-.5.4-.3.7-.8.9-1.5l2.1.7c-.1.8-.4 1.4-.8 1.9s-.9.9-1.6 1.2c-.6.2-1.3.3-2.2.3m-12.9 0c-1.1 0-2-.2-2.8-.6-.8-.4-1.4-1.1-1.8-1.9-.4-.8-.6-1.8-.6-3v-3.2c0-1.2.2-2.3.6-3.1.4-.9 1-1.5 1.7-2 .8-.5 1.7-.7 2.7-.7 1 0 1.9.2 2.6.7.7.4 1.3 1.1 1.7 2 .4.9.6 1.9.6 3.1v2.4h-8.4v-2h6.1v-.8c0-1-.2-1.8-.7-2.4-.5-.6-1.1-.9-2-.9-.9 0-1.6.3-2.1.9-.5.6-.7 1.5-.7 2.6v3.5c0 1 .3 1.8.8 2.4.5.6 1.3.9 2.2.9.6 0 1.1-.1 1.6-.4.4-.3.7-.7.9-1.3l2.1.7c-.3 1-.8 1.8-1.6 2.4-.7.4-1.7.7-2.9.7zm-9.8-3.9c0 .5.1.9.3 1.1.2.3.5.4.9.4h1.1v2.2h-1.4c-1 0-1.9-.3-2.4-1-.6-.7-.9-1.6-.9-2.8v-16h2.3V57zm-15.5-16.1h2.3v19.7h-2.3V40.9zm5.7 20c-.9 0-1.6-.2-2.2-.6-.6-.4-1.1-1-1.3-1.8l.2-2.5c0 .6.1 1.1.3 1.5.2.4.5.8.9 1 .4.2.8.4 1.4.4.8 0 1.5-.3 2-.8s.7-1.3.7-2.3v-4.2c0-1-.2-1.7-.7-2.3-.5-.5-1.1-.8-2-.8-.5 0-1 .1-1.4.4-.4.2-.7.6-.9 1-.2.4-.3.9-.3 1.5l-.3-2.3c.4-.8.9-1.5 1.6-1.9.7-.4 1.4-.7 2.2-.7.8 0 1.6.2 2.2.6.6.4 1.1 1 1.4 1.7.3.8.5 1.7.5 2.8v4.3c0 1.1-.2 2-.5 2.8-.3.8-.8 1.4-1.4 1.8-.8.2-1.5.4-2.4.4zm-14.8 0c-1.4 0-2.5-.3-3.3-1-.7-.7-1.1-1.7-1.1-3.1 0-1.5.4-2.6 1.1-3.3.8-.7 1.9-1.1 3.4-1.1h3.2l.2 1.9h-3.4c-.8 0-1.4.2-1.8.6-.4.4-.6 1-.6 1.9 0 .7.2 1.3.7 1.6.4.4 1.1.6 2 .6.9 0 1.7-.2 2.1-.5.5-.3.7-.8.7-1.4l.3 1.6c-.1.5-.4.9-.7 1.3-.3.3-.7.6-1.2.8-.4 0-1 .1-1.6.1zm3.3-9.8c0-.9-.2-1.5-.7-2-.5-.5-1.1-.7-1.9-.7-.6 0-1.1.1-1.6.4-.5.3-.8.7-1 1.2l-2-.6c.3-1 .8-1.7 1.6-2.2.8-.5 1.8-.8 3-.8 1 0 1.9.2 2.6.6.7.4 1.3.9 1.7 1.6.4.7.6 1.5.6 2.5v9.7h-2.2v-9.7zm-16.5-4.5h6.2v2.1h-6.2v-2.1zm4.7 14.2c-1.1 0-2-.3-2.5-.9-.5-.6-.8-1.6-.8-2.8V42.5h2.3V57c0 .5.1.9.3 1.1.2.3.5.4 1 .4h1.2v2.2h-1.5zm-11.8.1c-.9 0-1.7-.1-2.4-.4-.7-.2-1.3-.6-1.7-1.1-.5-.5-.8-1.1-1-1.8l2-.9c.3.7.8 1.2 1.3 1.6.5.4 1.1.5 1.8.5.9 0 1.7-.2 2.2-.6.5-.4.8-.9.8-1.7 0-.5-.1-.8-.4-1.1-.3-.3-.6-.5-1-.6-.4-.1-.9-.2-1.6-.4h-.4-.1-.1c-.8-.2-1.5-.3-2.1-.6-.6-.2-1-.6-1.4-1.1-.4-.5-.6-1.3-.6-2.2 0-.9.2-1.7.5-2.3.4-.6.9-1.1 1.6-1.4.7-.3 1.6-.5 2.6-.5.8 0 1.5.1 2.2.3.6.2 1.1.5 1.6 1 .4.4.8 1 1 1.6l-2 .9c-.3-.6-.7-1-1.1-1.3-.5-.3-1-.5-1.6-.5-.8 0-1.5.2-1.9.5-.4.4-.7.9-.7 1.6 0 .5.1.8.4 1.1.3.3.6.4 1 .6.4.1 1 .2 1.7.3h.4c.9.1 1.6.3 2.2.6.6.2 1.1.6 1.5 1.2.4.6.6 1.3.6 2.4 0 .9-.2 1.7-.6 2.3-.4.6-1 1.1-1.7 1.4-1 .4-1.9.6-3 .6zm-12.1 0c-1.1 0-2-.2-2.8-.6-.8-.4-1.4-1.1-1.8-1.9-.4-.8-.6-1.8-.6-3v-3.2c0-1.2.2-2.3.6-3.1.4-.9 1-1.5 1.7-2 .8-.5 1.7-.7 2.7-.7 1 0 1.9.2 2.6.7.7.4 1.3 1.1 1.7 2 .4.9.6 1.9.6 3.1v2.4H94v-2h6.1v-.8c0-1-.2-1.8-.7-2.4-.5-.6-1.1-.9-2-.9-.9 0-1.6.3-2.1.9-.5.6-.7 1.5-.7 2.6v3.5c0 1 .3 1.8.8 2.4.5.6 1.3.9 2.2.9.6 0 1.1-.1 1.6-.4.4-.3.7-.7.9-1.3l2.1.7c-.3 1-.8 1.8-1.6 2.4-.7.4-1.7.7-3 .7zm-17.5-2.2c.8 0 1.5-.3 1.9-.8.5-.5.7-1.2.7-2.1v-4.3c0-.9-.2-1.6-.7-2.1-.5-.5-1.1-.8-1.9-.8-.8 0-1.5.2-1.9.8-.5.5-.7 1.2-.7 2.1v4.3c0 .9.2 1.6.7 2.1.4.5 1 .8 1.9.8zm0 2.2c-1 0-1.9-.2-2.7-.6-.7-.4-1.3-1-1.7-1.8-.4-.8-.6-1.7-.6-2.8v-4.4c0-1.1.2-2 .6-2.7.4-.8 1-1.3 1.7-1.7.7-.4 1.6-.6 2.7-.6 1 0 1.9.2 2.7.6.7.4 1.3 1 1.7 1.7.4.8.6 1.7.6 2.7v4.4c0 1.1-.2 2-.6 2.7-.4.8-.9 1.3-1.7 1.7-.8.6-1.7.8-2.7.8zM70.6 57c0 .5.1.9.3 1.1.2.3.5.4.9.4h1.1v2.2h-1.4c-1 0-1.9-.3-2.4-1-.6-.7-.9-1.6-.9-2.8v-16h2.3V57zm-13-14.2l3.6-4.8 1.8 1.4-3.9 4.6-1.5-1.2zm.2 3.8h2.3v14.1h-2.3V46.6zm-8.4 14.3c-.9 0-1.7-.1-2.4-.4-.7-.2-1.3-.6-1.7-1.1-.5-.5-.8-1.1-1-1.8l2-.9c.3.7.8 1.2 1.3 1.6.5.4 1.1.5 1.8.5.9 0 1.7-.2 2.2-.6.5-.4.8-.9.8-1.7 0-.5-.1-.8-.4-1.1-.3-.3-.6-.5-1-.6-.4-.1-.9-.2-1.6-.4H49h-.1-.1c-.8-.2-1.5-.3-2.1-.6-.6-.2-1-.6-1.4-1.1-.4-.5-.6-1.3-.6-2.2 0-.9.2-1.7.5-2.3.4-.6.9-1.1 1.6-1.4.7-.3 1.6-.5 2.6-.5.8 0 1.5.1 2.2.3.6.2 1.1.5 1.6 1 .4.4.8 1 1 1.6l-2 .9c-.3-.6-.7-1-1.1-1.3-.5-.3-1-.5-1.6-.5-.8 0-1.5.2-1.9.5-.4.4-.7.9-.7 1.6 0 .5.1.8.4 1.1.3.3.6.4 1 .6.4.1 1 .2 1.7.3h.4c.9.1 1.6.3 2.2.6.6.2 1.1.6 1.5 1.2.4.6.6 1.3.6 2.4 0 .9-.2 1.7-.6 2.3-.4.6-1 1.1-1.7 1.4-.9.4-1.9.6-3 .6zM31.9 54h8.3v2.2h-8.3V54zm2.9-13.1h2.4l5.9 19.7h-2.5L36 44l-4.6 16.7h-2.5l5.9-19.8zm563.8-11.3h3.2v3.2h-3.2v-3.2zm-8.7 3.5c-.8 0-1.6-.1-2.4-.2-.8-.2-1.5-.4-2.1-.7-.7-.3-1.3-.7-1.8-1.1l2-2.4c.7.5 1.5.9 2.2 1.2.7.3 1.5.4 2.2.4 1 0 1.7-.1 2.2-.4.5-.3.8-.7.8-1.2 0-.4-.1-.7-.4-.9-.3-.2-.6-.3-1-.4-.4-.1-.9-.1-1.6-.2h-.8-.1-.1c-1-.1-1.8-.3-2.4-.5-.6-.2-1.2-.6-1.6-1.1-.4-.6-.6-1.3-.6-2.4 0-1 .2-1.8.6-2.5.4-.7 1.1-1.2 1.9-1.5.8-.3 1.9-.5 3.1-.5.7 0 1.4.1 2.1.2.7.1 1.3.3 2 .6.6.3 1.2.6 1.8 1l-1.9 2.4c-.7-.4-1.3-.7-2-.9-.7-.2-1.3-.3-2-.3-.9 0-1.5.1-1.9.4-.4.2-.7.6-.7 1.1 0 .3.1.5.4.7.2.2.6.3.9.3.4.1.9.1 1.6.2h.6c1 .1 1.9.2 2.6.4.7.2 1.3.6 1.8 1.2s.7 1.5.7 2.6c0 1-.2 1.8-.7 2.5-.4.7-1.1 1.2-2 1.5-1 .3-2.1.5-3.4.5zM575.1 30c.9 0 1.5-.3 2-.8s.7-1.3.7-2.2v-2.3c0-.9-.2-1.7-.7-2.2-.5-.5-1.1-.8-2-.8-.9 0-1.5.3-2 .8s-.7 1.2-.7 2.2V27c0 .9.2 1.7.7 2.2.5.5 1.1.8 2 .8zm0 3.1c-1.3 0-2.3-.2-3.2-.7-.9-.5-1.6-1.2-2-2.1-.5-.9-.7-2-.7-3.3v-2.3c0-1.3.2-2.4.7-3.3.5-.9 1.1-1.6 2-2.1.9-.5 2-.7 3.2-.7 1.3 0 2.3.2 3.2.7.9.5 1.6 1.2 2 2.1.5.9.7 2 .7 3.3V27c0 1.3-.2 2.4-.7 3.3-.5.9-1.1 1.6-2 2.1-.9.4-1.9.7-3.2.7zm-15.7-14.3h6.6v2.8h-6.6v-2.8zm4.9 14.2c-1.2 0-2.1-.3-2.6-.9-.6-.6-.8-1.6-.8-2.8V14.7h3.2v14.1c0 .3.1.6.2.8.1.2.3.3.6.3h1.1V33h-1.7zm-10.9-14.2h3.2v14.1h-3.2V18.8zm0-5.7h3.2v3.2h-3.2v-3.2zm-12.1 14.3c0 .8.2 1.5.7 1.9.4.5 1.1.7 1.9.7.8 0 1.4-.2 1.9-.7.4-.4.7-1 .7-1.8l.2 3c-.3.7-.7 1.3-1.4 1.8-.6.5-1.4.7-2.3.7-1.5 0-2.7-.5-3.6-1.5-.8-1-1.3-2.4-1.3-4.2v-8.6h3.2v8.7zm5-8.6h3.2v14.1h-3.2V18.8zm-18.4 0h6.6v2.8h-6.6v-2.8zm4.9 14.2c-1.2 0-2.1-.3-2.6-.9-.6-.6-.8-1.6-.8-2.8V14.7h3.2v14.1c0 .3.1.6.2.8.1.2.3.3.6.3h1.1V33h-1.7zm-14.5.1c-1.6 0-2.8-.4-3.6-1.1-.8-.7-1.2-1.8-1.2-3.3 0-1.4.4-2.4 1.2-3.1.8-.7 2-1 3.7-1h3.8l.2 2.5h-3.9c-.6 0-1.1.1-1.4.4-.3.3-.5.7-.5 1.3 0 .6.2 1 .6 1.3.4.3 1 .4 1.9.4 1 0 1.8-.1 2.3-.3.5-.2.8-.6.8-1.1l.3 2c-.2.4-.4.8-.8 1.1-.4.3-.8.5-1.4.7-.7.1-1.3.2-2 .2zm3.7-9.2c0-.8-.2-1.4-.7-1.8-.5-.4-1.1-.7-2-.7-.5 0-1.1.1-1.6.3-.5.2-1 .4-1.4.7l-2.2-1.8c.6-.6 1.3-1.1 2.2-1.5.9-.4 1.9-.5 3-.5 1.2 0 2.2.2 3.1.6.8.4 1.5 1 1.9 1.8.4.8.7 1.7.7 2.8v9.1h-3v-9zm-11.8-1.5c-.2-.2-.5-.4-.8-.5-.3-.1-.7-.2-1.1-.2-.8 0-1.4.2-1.9.7-.4.5-.7 1.2-.7 2l-.3-3.2c.4-.8 1-1.5 1.6-2 .7-.5 1.4-.7 2.2-.7.6 0 1.2.1 1.7.3.5.2.9.5 1.3.8l-2 2.8zm-7.9-3.6h3.4v14.1h-3.4V18.8zm-10.6 14.3c-1 0-1.9-.2-2.6-.7-.7-.5-1.3-1.1-1.6-2-.4-.9-.6-2-.6-3.2v-2.7c0-1.2.2-2.3.6-3.2.4-.9.9-1.6 1.6-2 .7-.5 1.6-.7 2.6-.7.8 0 1.5.2 2.2.7.7.4 1.2 1.1 1.6 1.9l-.3 3c0-.5-.1-1-.3-1.4-.2-.4-.5-.7-.8-.9-.4-.2-.8-.3-1.3-.3-.8 0-1.4.3-1.9.8-.4.5-.7 1.3-.7 2.2v2.7c0 .9.2 1.7.7 2.2.4.5 1.1.8 1.9.8.5 0 1-.1 1.3-.3.4-.2.6-.5.8-.9.2-.4.3-.8.3-1.4l.2 3.1c-.3.7-.7 1.3-1.3 1.8-.8.3-1.5.5-2.4.5zm.5 5.5c-1.1 0-2.1-.2-2.9-.6-.9-.4-1.5-1-2-1.7l2.2-2c.3.4.8.7 1.2 1 .5.2 1 .3 1.5.3.9 0 1.6-.3 2.2-.8.5-.5.8-1.2.8-2.1v-14h3.2v13.7c0 1.3-.2 2.4-.7 3.3-.5.9-1.2 1.6-2.1 2.1-1 .6-2.1.8-3.4.8zm-16.8-14.3c0-.8-.2-1.5-.7-2-.5-.5-1.1-.7-1.9-.7-.8 0-1.4.2-1.8.6-.4.4-.6 1-.6 1.8l-.3-2.9c.4-.9 1-1.5 1.6-2 .6-.5 1.4-.7 2.3-.7 1.5 0 2.7.5 3.5 1.5.8 1 1.2 2.4 1.2 4.2v8.6h-3.2v-8.4zm-8.4-5.5h3.2v14.1H467V18.8zM457.4 30c.9 0 1.5-.3 2-.8s.7-1.3.7-2.2v-2.3c0-.9-.2-1.7-.7-2.2-.5-.5-1.1-.8-2-.8-.9 0-1.5.3-2 .8s-.7 1.2-.7 2.2V27c0 .9.2 1.7.7 2.2.5.5 1.2.8 2 .8zm0 3.1c-1.3 0-2.3-.2-3.2-.7-.9-.5-1.6-1.2-2-2.1-.5-.9-.7-2-.7-3.3v-2.3c0-1.3.2-2.4.7-3.3.5-.9 1.1-1.6 2-2.1.9-.5 2-.7 3.2-.7 1.3 0 2.3.2 3.2.7.9.5 1.6 1.2 2 2.1.5.9.7 2 .7 3.3V27c0 1.3-.2 2.4-.7 3.3-.5.9-1.1 1.6-2 2.1-.9.4-1.9.7-3.2.7zm-14.8 0c-.8 0-1.6-.1-2.4-.2-.8-.2-1.5-.4-2.1-.7-.7-.3-1.3-.7-1.8-1.1l2-2.4c.7.5 1.5.9 2.2 1.2.7.3 1.5.4 2.2.4 1 0 1.7-.1 2.2-.4.5-.3.8-.7.8-1.2 0-.4-.1-.7-.4-.9-.3-.2-.6-.3-1-.4-.4-.1-.9-.1-1.6-.2h-.8-.1-.1c-1-.1-1.8-.3-2.4-.5-.6-.2-1.2-.6-1.6-1.1-.4-.6-.6-1.3-.6-2.4 0-1 .2-1.8.6-2.5.4-.7 1.1-1.2 1.9-1.5.8-.3 1.9-.5 3.1-.5.7 0 1.4.1 2.1.2.7.1 1.3.3 2 .6.6.3 1.2.6 1.8 1l-1.9 2.4c-.7-.4-1.3-.7-2-.9-.7-.2-1.3-.3-2-.3-.9 0-1.5.1-1.9.4-.4.2-.7.6-.7 1.1 0 .3.1.5.4.7.2.2.6.3.9.3.4.1.9.1 1.6.2h.6c1 .1 1.9.2 2.6.4.7.2 1.3.6 1.8 1.2s.7 1.5.7 2.6c0 1-.2 1.8-.7 2.5-.4.7-1.1 1.2-2 1.5-1 .3-2 .5-3.4.5zm-218.2 0c-.8 0-1.6-.1-2.4-.2-.8-.2-1.5-.4-2.1-.7-.7-.3-1.3-.7-1.8-1.1l2-2.4c.7.5 1.5.9 2.2 1.2.7.3 1.5.4 2.2.4 1 0 1.7-.1 2.2-.4.5-.3.8-.7.8-1.2 0-.4-.1-.7-.4-.9-.3-.2-.6-.3-1-.4-.4-.1-.9-.1-1.6-.2h-.8-.1-.1c-1-.1-1.8-.3-2.4-.5-.6-.2-1.2-.6-1.6-1.1-.4-.6-.6-1.3-.6-2.4 0-1 .2-1.8.6-2.5.4-.7 1.1-1.2 1.9-1.5.8-.3 1.9-.5 3.1-.5.7 0 1.4.1 2.1.2.7.1 1.3.3 2 .6.6.3 1.2.6 1.8 1l-1.9 2.4c-.7-.4-1.3-.7-2-.9-.7-.2-1.3-.3-2-.3-.9 0-1.5.1-1.9.4-.4.2-.7.6-.7 1.1 0 .3.1.5.4.7.2.2.6.3.9.3.4.1.9.1 1.6.2h.6c1 .1 1.9.2 2.6.4.7.2 1.3.6 1.8 1.2s.7 1.5.7 2.6c0 1-.2 1.8-.7 2.5-.4.7-1.1 1.2-2 1.5-1 .3-2.1.5-3.4.5zM209.6 30c.9 0 1.5-.3 2-.8s.7-1.3.7-2.2v-2.3c0-.9-.2-1.7-.7-2.2-.5-.5-1.1-.8-2-.8-.9 0-1.5.3-2 .8s-.7 1.2-.7 2.2V27c0 .9.2 1.7.7 2.2.5.5 1.1.8 2 .8zm0 3.1c-1.3 0-2.3-.2-3.2-.7-.9-.5-1.6-1.2-2-2.1-.5-.9-.7-2-.7-3.3v-2.3c0-1.3.2-2.4.7-3.3.5-.9 1.1-1.6 2-2.1.9-.5 2-.7 3.2-.7 1.3 0 2.3.2 3.2.7.9.5 1.6 1.2 2 2.1.5.9.7 2 .7 3.3V27c0 1.3-.2 2.4-.7 3.3-.5.9-1.1 1.6-2 2.1-.9.4-1.9.7-3.2.7zm-19.7-3.3h11.4v3.1h-11.4v-3.1zm-1.5-16.7h3.2v19.7h-3.2V13.1z"/>
  <path class="st3" d="M643.3 58.7c.8 0 1.5-.3 1.9-.8.5-.5.7-1.2.7-2.1v-4.3c0-.9-.2-1.6-.7-2.1-.5-.5-1.1-.8-1.9-.8-.8 0-1.5.2-1.9.8-.5.5-.7 1.2-.7 2.1v4.3c0 .9.2 1.6.7 2.1.4.5 1 .8 1.9.8m0 2.2c-1 0-1.9-.2-2.7-.6-.7-.4-1.3-1-1.7-1.8-.4-.8-.6-1.7-.6-2.8v-4.4c0-1.1.2-2 .6-2.7.4-.8 1-1.3 1.7-1.7.7-.4 1.6-.6 2.7-.6 1 0 1.9.2 2.7.6.7.4 1.3 1 1.7 1.7.4.8.6 1.7.6 2.7v4.4c0 1.1-.2 2-.6 2.7-.4.8-.9 1.3-1.7 1.7-.8.6-1.7.8-2.7.8zM635.6 49c-.2-.2-.3-.3-.6-.3-.2-.1-.5-.1-.8-.1-1.1 0-2 .3-2.6.8-.6.6-.9 1.3-1 2.4l-.3-2.7c.5-.8 1.1-1.5 1.9-2 .8-.5 1.6-.7 2.5-.7.3 0 .6 0 .9.1.3.1.5.2.7.4l-.7 2.1zm-7.2-2.4h2.3v14.1h-2.3V46.6zm-9.3 0h6.2v2.1h-6.2v-2.1zm4.8 14.2c-1.1 0-2-.3-2.5-.9-.5-.6-.8-1.6-.8-2.8V42.5h2.3V57c0 .5.1.9.3 1.1.2.3.5.4 1 .4h1.2v2.2h-1.5zm-9.6-9.3c0-1-.2-1.7-.7-2.2-.5-.5-1.1-.8-2-.8-.9 0-1.5.2-2 .7-.5.5-.7 1.2-.7 2.1l-.3-2.4c.4-.9.9-1.5 1.6-2 .7-.4 1.4-.7 2.3-.7 1.3 0 2.3.4 3 1.3.7.8 1 2.1 1 3.7v9.4h-2.3v-9.1zm-7.7-4.9h2.3v14.1h-2.3V46.6zm-8 14.3c-1.1 0-2-.2-2.8-.6-.8-.4-1.4-1.1-1.8-1.9-.4-.8-.6-1.8-.6-3v-3.2c0-1.2.2-2.3.6-3.1.4-.9 1-1.5 1.7-2 .8-.5 1.7-.7 2.7-.7 1 0 1.9.2 2.6.7.7.4 1.3 1.1 1.7 2 .4.9.6 1.9.6 3.1v2.4H595v-2h6.1v-.8c0-1-.2-1.8-.7-2.4-.5-.6-1.1-.9-2-.9-.9 0-1.6.3-2.1.9-.5.6-.7 1.5-.7 2.6v3.5c0 1 .3 1.8.8 2.4.5.6 1.3.9 2.2.9.6 0 1.1-.1 1.6-.4.4-.3.7-.7.9-1.3l2.1.7c-.3 1-.8 1.8-1.6 2.4-.8.4-1.7.7-3 .7zm-12.2 0c-1.1 0-2.1-.2-2.8-.6-.8-.4-1.4-1-1.8-1.8-.4-.8-.6-1.7-.6-2.8v-4.1c0-1.1.2-2.1.6-2.8.4-.8 1-1.4 1.8-1.8.8-.4 1.7-.6 2.8-.6.9 0 1.7.1 2.3.4.7.3 1.2.7 1.6 1.2.4.5.7 1.2.8 2l-2.2.7c-.2-.7-.4-1.2-.9-1.6-.4-.4-1-.5-1.6-.5-.9 0-1.7.3-2.2.8-.5.5-.7 1.3-.7 2.3v4.1c0 1 .2 1.7.7 2.2.5.5 1.2.8 2.2.8.7 0 1.2-.2 1.6-.5.4-.3.7-.8.9-1.5l2.1.7c-.1.8-.4 1.4-.8 1.9s-.9.9-1.6 1.2c-.5.2-1.3.3-2.2.3zm-15.1-9.4c0-1-.2-1.7-.7-2.2-.5-.5-1.1-.8-2-.8-.9 0-1.5.2-2 .7-.5.5-.7 1.2-.7 2.1l-.3-2.4c.4-.9.9-1.5 1.6-2 .7-.4 1.4-.7 2.3-.7 1.3 0 2.3.4 3 1.3.7.8 1 2.1 1 3.7v9.4h-2.3v-9.1zm-7.7-4.9h2.3v14.1h-2.3V46.6zm-8 14.3c-1.1 0-2-.2-2.8-.6-.8-.4-1.4-1.1-1.8-1.9-.4-.8-.6-1.8-.6-3v-3.2c0-1.2.2-2.3.6-3.1.4-.9 1-1.5 1.7-2 .8-.5 1.7-.7 2.7-.7 1 0 1.9.2 2.6.7.7.4 1.3 1.1 1.7 2 .4.9.6 1.9.6 3.1v2.4h-8.4v-2h6.1v-.8c0-1-.2-1.8-.7-2.4-.5-.6-1.1-.9-2-.9-.9 0-1.6.3-2.1.9-.5.6-.7 1.5-.7 2.6v3.5c0 1 .3 1.8.8 2.4.5.6 1.3.9 2.2.9.6 0 1.1-.1 1.6-.4.4-.3.7-.7.9-1.3l2.1.7c-.3 1-.8 1.8-1.6 2.4-.7.4-1.7.7-2.9.7zm-17.5 0c-.9 0-1.7-.1-2.4-.4-.7-.2-1.3-.6-1.7-1.1-.5-.5-.8-1.1-1-1.8l2-.9c.3.7.8 1.2 1.3 1.6.5.4 1.1.5 1.8.5.9 0 1.7-.2 2.2-.6.5-.4.8-.9.8-1.7 0-.5-.1-.8-.4-1.1-.3-.3-.6-.5-1-.6-.4-.1-.9-.2-1.6-.4h-.4-.1-.1c-.8-.2-1.5-.3-2.1-.6-.6-.2-1-.6-1.4-1.1-.4-.5-.6-1.3-.6-2.2 0-.9.2-1.7.5-2.3.4-.6.9-1.1 1.6-1.4.7-.3 1.6-.5 2.6-.5.8 0 1.5.1 2.2.3.6.2 1.1.5 1.6 1 .4.4.8 1 1 1.6l-2 .9c-.3-.6-.7-1-1.1-1.3-.5-.3-1-.5-1.6-.5-.8 0-1.5.2-1.9.5-.4.4-.7.9-.7 1.6 0 .5.1.8.4 1.1.3.3.6.4 1 .6.4.1 1 .2 1.7.3h.4c.9.1 1.6.3 2.2.6.6.2 1.1.6 1.5 1.2.4.6.6 1.3.6 2.4 0 .9-.2 1.7-.6 2.3-.4.6-1 1.1-1.7 1.4-1 .4-1.9.6-3 .6zm-12.3-2.2c.8 0 1.5-.3 1.9-.8.5-.5.7-1.2.7-2.1v-4.3c0-.9-.2-1.6-.7-2.1-.5-.5-1.1-.8-1.9-.8-.8 0-1.5.2-1.9.8-.5.5-.7 1.2-.7 2.1v4.3c0 .9.2 1.6.7 2.1.4.5 1.1.8 1.9.8zm0 2.2c-1 0-1.9-.2-2.7-.6-.7-.4-1.3-1-1.7-1.8-.4-.8-.6-1.7-.6-2.8v-4.4c0-1.1.2-2 .6-2.7.4-.8 1-1.3 1.7-1.7.7-.4 1.6-.6 2.7-.6 1 0 1.9.2 2.7.6.7.4 1.3 1 1.7 1.7.4.8.6 1.7.6 2.7v4.4c0 1.1-.2 2-.6 2.7-.4.8-.9 1.3-1.7 1.7-.8.6-1.6.8-2.7.8zm-9.5-3.9c0 .5.1.9.3 1.1.2.3.5.4.9.4h1.1v2.2h-1.4c-1 0-1.9-.3-2.4-1-.6-.7-.9-1.6-.9-2.8v-16h2.3V57zm-8.4-10.4h2.3v14.1h-2.3V46.6zm0-5.4h2.3v2.3h-2.3v-2.3zm-9.5 19.7c-.9 0-1.6-.2-2.2-.6-.6-.4-1.1-1-1.4-1.7-.3-.7-.5-1.6-.5-2.7v-4.5c0-1.1.2-2 .5-2.7.3-.8.8-1.3 1.4-1.7.6-.4 1.3-.6 2.2-.6.8 0 1.5.2 2.2.6.7.4 1.2 1 1.6 1.9l-.3 2.4c0-.6-.1-1-.3-1.5-.2-.4-.5-.8-.9-1-.4-.2-.8-.4-1.4-.4-.8 0-1.5.3-1.9.8-.5.5-.7 1.3-.7 2.2v4.4c0 .9.2 1.6.7 2.1.5.5 1.1.8 1.9.8.5 0 1-.1 1.4-.4.4-.2.7-.6.9-1 .2-.4.3-.9.3-1.5l.2 2.4c-.3.8-.7 1.4-1.4 1.8-.7.7-1.4.9-2.3.9zm3.4-20h2.3v19.7h-2.3V40.9zm-15.1 20c-1.1 0-2-.2-2.8-.6-.8-.4-1.4-1.1-1.8-1.9-.4-.8-.6-1.8-.6-3v-3.2c0-1.2.2-2.3.6-3.1.4-.9 1-1.5 1.7-2 .8-.5 1.7-.7 2.7-.7 1 0 1.9.2 2.6.7.7.4 1.3 1.1 1.7 2 .4.9.6 1.9.6 3.1v2.4H483v-2h6.1v-.8c0-1-.2-1.8-.7-2.4-.5-.6-1.1-.9-2-.9-.9 0-1.6.3-2.1.9-.5.6-.7 1.5-.7 2.6v3.5c0 1 .3 1.8.8 2.4.5.6 1.3.9 2.2.9.6 0 1.1-.1 1.6-.4.4-.3.7-.7.9-1.3l2.1.7c-.3 1-.8 1.8-1.6 2.4-.7.4-1.7.7-2.9.7zm-19.6-20h2.3v19.7h-2.3V40.9zm1.4 9.9h5.1c.5 0 1-.1 1.4-.4.4-.2.7-.6.9-1 .2-.4.3-1 .3-1.6v-1.7c0-.6-.1-1.2-.3-1.6-.2-.5-.5-.8-.9-1.1-.4-.2-.9-.4-1.4-.4h-5.1v-2.2h5.1c1 0 1.9.2 2.7.6.8.4 1.3 1 1.8 1.8.4.8.6 1.7.6 2.8v1.8c0 1-.2 2-.6 2.7-.4.8-1 1.4-1.8 1.8-.8.4-1.7.6-2.7.6h-5.1v-2.1zm-12.8 6.6h3.2v3.2h-3.2v-3.2zm-9.1 3.5c-1.1 0-2.2-.2-3.1-.6-.9-.4-1.6-1-2.1-1.8s-.8-1.8-.9-2.9h3.3c.1.5.2.9.4 1.2.2.3.5.6.9.7.4.2.8.2 1.3.2.8 0 1.4-.2 1.9-.7.4-.4.7-1.1.7-1.9v-.5c0-.9-.2-1.5-.6-2-.4-.5-1-.7-1.7-.7h-1.5v-3.1h1.5c.6 0 1.1-.2 1.4-.6.3-.4.5-1 .5-1.7V46c0-.7-.2-1.2-.5-1.6-.4-.4-.9-.6-1.6-.6-.4 0-.8.1-1.1.3-.3.2-.6.4-.8.8-.2.3-.4.8-.5 1.3h-3.3c.1-1.1.5-2.1 1-2.9.5-.8 1.2-1.4 2-1.9.8-.4 1.7-.6 2.8-.6 1.7 0 3.1.4 4 1.3.9.9 1.4 2.2 1.4 3.8v.5c0 .9-.2 1.8-.7 2.5-.5.7-1.2 1.2-2.1 1.6 1 .2 1.8.7 2.4 1.5.6.8.8 1.8.8 3.1v.5c0 1.1-.2 2.1-.7 2.9-.4.8-1.1 1.4-2 1.9-.8.3-1.8.5-3.1.5zm-8.8-17.5L433 60.7h-3.5l4.7-16.6H430V47h-3.2v-6h11v2.4zm-19.5 14.4c.8 0 1.4-.2 1.8-.7.4-.5.6-1.1.6-2 0-1-.2-1.7-.6-2.2-.4-.5-1-.8-1.8-.8-.7 0-1.3.3-1.7.8-.4.5-.6 1.3-.6 2.2 0 .8.2 1.5.6 2 .3.4.9.7 1.7.7zm0 3.1c-1.2 0-2.2-.2-3-.7-.8-.5-1.5-1.1-1.9-2-.4-.9-.7-2-.7-3.2 0-.7.1-1.5.3-2.3.2-.8.4-1.6.8-2.4.1-.1.1-.3.2-.4.1-.1.1-.3.2-.4l4.2-8.5h3.6l-4.9 9.8-.5-.5c.2-.4.6-.8 1-1 .4-.2.9-.4 1.5-.4 1.1 0 2 .2 2.7.7.8.5 1.3 1.1 1.7 2 .4.9.6 1.9.6 3.2 0 1.3-.2 2.4-.7 3.3-.4.9-1.1 1.6-1.9 2.1-1 .5-2 .7-3.2.7zm-11.9-3.5h3.2v3.2h-3.2v-3.2zm-9.1 3.5c-1 0-1.9-.2-2.7-.6-.8-.4-1.5-1.1-2-1.9-.5-.8-.8-1.8-.9-2.9h3.2c.1.7.4 1.3.8 1.7.4.4 1 .6 1.7.6.8 0 1.4-.3 1.8-.8.4-.5.6-1.2.6-2.2v-1.7c0-.9-.2-1.6-.6-2.1-.4-.5-1-.8-1.7-.8-.5 0-1 .1-1.4.4-.4.3-.7.6-1 1.1h-3V40.9h10.3V44h-7.1v4c.3-.3.7-.5 1.2-.7.5-.2.9-.2 1.4-.2 1.1 0 2 .2 2.8.7.8.5 1.4 1.2 1.8 2.1.4.9.6 2 .6 3.3v1.7c0 1.3-.2 2.4-.7 3.3-.4.9-1.1 1.6-1.9 2.1-1 .4-2 .6-3.2.6zM377 57.8l6.8-9c.4-.5.6-.9.8-1.4.2-.5.3-1 .3-1.4 0-.7-.2-1.2-.6-1.5-.4-.4-1-.5-1.7-.5s-1.3.2-1.7.7c-.4.4-.7 1.1-.8 1.9h-3.3c.1-1.2.4-2.2.9-3 .5-.8 1.2-1.5 2-1.9.8-.4 1.8-.7 2.9-.7 1.2 0 2.2.2 3.1.6.9.4 1.5 1 2 1.8.4.8.7 1.7.7 2.8 0 .8-.1 1.6-.4 2.4-.3.8-.7 1.6-1.3 2.3l-5.3 7h7.1V61H377v-3.2zm-9.2-1.3c0 .3.1.6.3.8.2.2.4.3.7.3h1v3.1H368c-1.1 0-1.9-.3-2.5-1-.6-.7-.9-1.6-.9-2.8v-16h3.2v15.6zM354 60.9c-1.6 0-2.8-.4-3.6-1.1-.8-.7-1.2-1.8-1.2-3.3 0-1.4.4-2.4 1.2-3.1.8-.7 2-1 3.7-1h3.8l.2 2.5H354c-.6 0-1.1.1-1.4.4-.3.3-.5.7-.5 1.3 0 .6.2 1 .6 1.3.4.3 1 .4 1.9.4 1 0 1.8-.1 2.3-.3.5-.2.8-.6.8-1.1l.3 2c-.2.4-.4.8-.8 1.1-.4.3-.8.5-1.4.7-.6.1-1.2.2-1.8.2zm3.7-9.1c0-.8-.2-1.4-.7-1.8-.5-.4-1.1-.7-2-.7-.5 0-1.1.1-1.6.3-.5.2-1 .4-1.4.7l-2.2-1.8c.6-.6 1.3-1.1 2.2-1.5.9-.4 1.9-.5 3-.5 1.2 0 2.2.2 3.1.6.8.4 1.5 1 1.9 1.8.4.8.7 1.7.7 2.8v9.1h-3v-9zm-15.1.3c0-.8-.2-1.5-.7-2-.5-.5-1.1-.7-1.9-.7-.8 0-1.4.2-1.8.6-.4.4-.6 1-.6 1.8l-.3-2.9c.4-.9 1-1.5 1.6-2 .6-.5 1.4-.7 2.3-.7 1.5 0 2.7.5 3.5 1.5.8 1 1.2 2.4 1.2 4.2v8.6h-3.2v-8.4zm-8.3-5.5h3.2v14.1h-3.2V46.6zm-9.6 11.2c.9 0 1.5-.3 2-.8s.7-1.3.7-2.2v-2.3c0-.9-.2-1.7-.7-2.2-.5-.5-1.1-.8-2-.8-.9 0-1.5.3-2 .8s-.7 1.2-.7 2.2v2.3c0 .9.2 1.7.7 2.2.4.5 1.1.8 2 .8zm0 3.1c-1.3 0-2.3-.2-3.2-.7-.9-.5-1.6-1.2-2-2.1-.5-.9-.7-2-.7-3.3v-2.3c0-1.3.2-2.4.7-3.3.5-.9 1.1-1.6 2-2.1.9-.5 2-.7 3.2-.7 1.3 0 2.3.2 3.2.7.9.5 1.6 1.2 2 2.1.5.9.7 2 .7 3.3v2.3c0 1.3-.2 2.4-.7 3.3-.5.9-1.1 1.6-2 2.1-.9.5-2 .7-3.2.7zM312 46.6h3.2v14.1H312V46.6zm0-5.7h3.2v3.2H312v-3.2zm-7.9 20c-1.3 0-2.4-.3-3.4-.7-.9-.5-1.6-1.2-2.1-2.2-.5-.9-.7-2.1-.7-3.4v-1.9c0-1.3.2-2.5.7-3.4.5-.9 1.2-1.7 2.1-2.1.9-.5 2.1-.7 3.4-.7.8 0 1.5.1 2.1.3.7.2 1.3.4 1.8.8.5.3 1 .7 1.3 1.2l-2.2 2.1c-.4-.4-.8-.7-1.3-.9-.5-.2-1-.3-1.6-.3-1 0-1.8.3-2.3.8-.6.5-.8 1.3-.8 2.3v1.9c0 1 .3 1.8.8 2.4.6.6 1.3.8 2.3.8.6 0 1.1-.1 1.6-.3.5-.2.9-.5 1.3-1l2.2 2.2c-.4.5-.8.9-1.3 1.2-.5.3-1.1.6-1.8.8-.6 0-1.3.1-2.1.1zm-16.4 0c-1.6 0-2.8-.4-3.6-1.1-.8-.7-1.2-1.8-1.2-3.3 0-1.4.4-2.4 1.2-3.1.8-.7 2-1 3.7-1h3.8l.2 2.5h-3.9c-.6 0-1.1.1-1.4.4-.3.3-.5.7-.5 1.3 0 .6.2 1 .6 1.3.4.3 1 .4 1.9.4 1 0 1.8-.1 2.3-.3.5-.2.8-.6.8-1.1l.3 2c-.2.4-.4.8-.8 1.1-.4.3-.8.5-1.4.7-.8.1-1.4.2-2 .2zm3.7-9.1c0-.8-.2-1.4-.7-1.8-.5-.4-1.1-.7-2-.7-.5 0-1.1.1-1.6.3-.5.2-1 .4-1.4.7l-2.2-1.8c.6-.6 1.3-1.1 2.2-1.5.9-.4 1.9-.5 3-.5 1.2 0 2.2.2 3.1.6.8.4 1.5 1 1.9 1.8.4.8.7 1.7.7 2.8v9.1h-3v-9zm-15.1.3c0-.8-.2-1.5-.7-2-.5-.5-1.1-.7-1.9-.7-.8 0-1.4.2-1.8.6-.4.4-.6 1-.6 1.8l-.3-2.9c.4-.9 1-1.5 1.6-2 .6-.5 1.4-.7 2.3-.7 1.5 0 2.7.5 3.5 1.5.8 1 1.2 2.4 1.2 4.2v8.6h-3.2v-8.4zm-8.3-5.5h3.2v14.1H268V46.6zm-19.7 0h3.2l4.5 12.2-1.9 3-5.8-15.2zm12.7 0L254.9 64c-.2.6-.5 1.1-.9 1.5-.3.4-.8.6-1.3.8-.5.2-1.1.2-1.9.2h-.7v-3.1h.7c.5 0 .8-.1 1.1-.3.3-.2.5-.5.7-1l5.2-15.6h3.2zm-20.2 14.3c-1.3 0-2.5-.2-3.4-.7-.9-.5-1.7-1.2-2.2-2.2-.5-.9-.7-2.1-.7-3.4V53c0-1.4.2-2.6.7-3.6.5-1 1.2-1.7 2.1-2.3.9-.5 2-.8 3.3-.8 1.2 0 2.2.3 3.1.9.9.6 1.5 1.5 2 2.6.4 1.1.7 2.5.7 4.1V55h-9.6v-2.4h6.6v-.2c-.1-1-.4-1.7-.8-2.3-.5-.5-1.1-.8-1.9-.8-1 0-1.7.3-2.3.9-.5.6-.8 1.5-.8 2.6v1.8c0 1.1.3 1.9.9 2.5.6.6 1.4.9 2.4.9.5 0 1.1-.1 1.6-.3.5-.2 1-.5 1.4-.9l2.1 2c-.7.7-1.5 1.2-2.4 1.6-1 .3-1.9.5-2.8.5zm-10.7-4.4c0 .3.1.6.3.8.2.2.4.3.7.3h1v3.1h-1.8c-1.1 0-1.9-.3-2.5-1-.6-.7-.9-1.6-.9-2.8v-16h3.2v15.6zm-17 4.4c-1.4 0-2.5-.3-3.3-1-.7-.7-1.1-1.7-1.1-3.1 0-1.5.4-2.6 1.1-3.3.8-.7 1.9-1.1 3.4-1.1h3.2l.2 1.9h-3.4c-.8 0-1.4.2-1.8.6-.4.4-.6 1-.6 1.9 0 .7.2 1.3.7 1.6.4.4 1.1.6 2 .6.9 0 1.7-.2 2.1-.5.5-.3.7-.8.7-1.4l.3 1.6c-.1.5-.4.9-.7 1.3-.3.3-.7.6-1.2.8-.4 0-1 .1-1.6.1zm3.3-9.8c0-.9-.2-1.5-.7-2-.5-.5-1.1-.7-1.9-.7-.6 0-1.1.1-1.6.4-.5.3-.8.7-1 1.2l-2-.6c.3-1 .8-1.7 1.6-2.2.8-.5 1.8-.8 3-.8 1 0 1.9.2 2.6.6.7.4 1.3.9 1.7 1.6.4.7.6 1.5.6 2.5v9.7h-2.2v-9.7zM204.2 57c0 .5.1.9.3 1.1.2.3.5.4.9.4h1.1v2.2h-1.4c-1 0-1.9-.3-2.4-1-.6-.7-.9-1.6-.9-2.8v-16h2.3V57zm-14.7 3.9c-1.1 0-2-.2-2.8-.6-.8-.4-1.4-1.1-1.8-1.9-.4-.8-.6-1.8-.6-3v-3.2c0-1.2.2-2.3.6-3.1.4-.9 1-1.5 1.7-2 .8-.5 1.7-.7 2.7-.7 1 0 1.9.2 2.6.7.7.4 1.3 1.1 1.7 2 .4.9.6 1.9.6 3.1v2.4h-8.4v-2h6.1v-.8c0-1-.2-1.8-.7-2.4-.5-.6-1.1-.9-2-.9-.9 0-1.6.3-2.1.9-.5.6-.7 1.5-.7 2.6v3.5c0 1 .3 1.8.8 2.4.5.6 1.3.9 2.2.9.6 0 1.1-.1 1.6-.4.4-.3.7-.7.9-1.3l2.1.7c-.3 1-.8 1.8-1.6 2.4-.7.4-1.7.7-2.9.7z"/>
  <path class="st3" d="M253.1 88.7c-.9 0-1.7-.1-2.4-.4-.7-.2-1.3-.6-1.7-1.1-.5-.5-.8-1.1-1-1.8l2-.9c.3.7.8 1.2 1.3 1.6.5.4 1.1.5 1.8.5.9 0 1.7-.2 2.2-.6.5-.4.8-.9.8-1.7 0-.5-.1-.8-.4-1.1-.3-.3-.6-.5-1-.6-.4-.1-.9-.2-1.6-.4h-.4-.1-.1c-.8-.2-1.5-.3-2.1-.6-.6-.2-1-.6-1.4-1.1-.4-.5-.6-1.3-.6-2.2 0-.9.2-1.7.5-2.3.4-.6.9-1.1 1.6-1.4.7-.3 1.6-.5 2.6-.5.8 0 1.5.1 2.2.3.6.2 1.1.5 1.6 1 .4.4.8 1 1 1.6l-2 .9c-.3-.6-.7-1-1.1-1.3-.5-.3-1-.5-1.6-.5-.8 0-1.5.2-1.9.5-.4.4-.7.9-.7 1.6 0 .5.1.8.4 1.1.3.3.6.4 1 .6.4.1 1 .2 1.7.3h.4c.9.1 1.6.3 2.2.6.6.2 1.1.6 1.5 1.2.4.6.6 1.3.6 2.4 0 .9-.2 1.7-.6 2.3-.4.6-1 1.1-1.7 1.4-.9.4-1.9.6-3 .6m-14.3-9.4c0-1-.2-1.7-.7-2.2-.5-.5-1.1-.8-2-.8-.9 0-1.5.2-2 .7-.5.5-.7 1.2-.7 2.1l-.3-2.4c.4-.9.9-1.5 1.6-2 .7-.4 1.4-.7 2.3-.7 1.3 0 2.3.4 3 1.3.7.8 1 2.1 1 3.7v9.4h-2.3v-9.1zm-7.7-4.9h2.3v14.1h-2.3V74.4zm-9.5-3.7l3.6-4.8 1.8 1.4-3.9 4.6-1.5-1.2zm1.5 18c-1.1 0-2-.2-2.8-.6-.8-.4-1.4-1.1-1.8-1.9-.4-.8-.6-1.8-.6-3V80c0-1.2.2-2.3.6-3.1.4-.9 1-1.5 1.7-2 .8-.5 1.7-.7 2.7-.7 1 0 1.9.2 2.6.7.7.4 1.3 1.1 1.7 2 .4.9.6 1.9.6 3.1v2.4h-8.4v-2h6.1v-.8c0-1-.2-1.8-.7-2.4-.5-.6-1.1-.9-2-.9-.9 0-1.6.3-2.1.9-.5.6-.7 1.5-.7 2.6v3.5c0 1 .3 1.8.8 2.4.5.6 1.3.9 2.2.9.6 0 1.1-.1 1.6-.4.4-.3.7-.7.9-1.3l2.1.7c-.3 1-.8 1.8-1.6 2.4-.7.4-1.7.7-2.9.7zm-11-14.3h2.3v14.1h-2.3V74.4zm0-5.4h2.3v2.3h-2.3V69zm-13.3-.2h2.3v19.7h-2.3V68.8zm5.7 19.9c-.9 0-1.6-.2-2.2-.6-.6-.4-1.1-1-1.3-1.8l.2-2.5c0 .6.1 1.1.3 1.5.2.4.5.8.9 1 .4.2.8.4 1.4.4.8 0 1.5-.3 2-.8s.7-1.3.7-2.3v-4.2c0-1-.2-1.7-.7-2.3-.5-.5-1.1-.8-2-.8-.5 0-1 .1-1.4.4-.4.2-.7.6-.9 1-.2.4-.3.9-.3 1.5l-.3-2.3c.4-.8.9-1.5 1.6-1.9.7-.4 1.4-.7 2.2-.7.8 0 1.6.2 2.2.6.6.4 1.1 1 1.4 1.7.3.8.5 1.7.5 2.8v4.3c0 1.1-.2 2-.5 2.8-.3.8-.8 1.4-1.4 1.8-.8.2-1.5.4-2.4.4zm-18.9-9.4c0-1-.2-1.7-.6-2.2-.4-.5-1-.8-1.8-.8s-1.5.2-1.9.7c-.4.5-.7 1.2-.7 2.1l-.3-2.4c.4-.9.9-1.5 1.5-2 .6-.4 1.4-.7 2.2-.7.8 0 1.5.2 2.1.6.6.4 1 .9 1.3 1.7.3.7.4 1.6.4 2.7v9.4h-2.3v-9.1zm-7.4-4.9h2.3v14.1h-2.3V74.4zm14.7 4.9c0-1-.2-1.7-.7-2.2-.4-.5-1.1-.8-1.9-.8-.8 0-1.4.3-1.8.8-.4.5-.6 1.3-.6 2.2l-.6-2.1c.4-1 .9-1.7 1.5-2.3.7-.5 1.4-.8 2.3-.8.9 0 1.6.2 2.2.6.6.4 1.1.9 1.4 1.7.3.7.5 1.6.5 2.7v9.4h-2.3v-9.2zm-23.8 9.4c-1.4 0-2.5-.3-3.3-1-.7-.7-1.1-1.7-1.1-3.1 0-1.5.4-2.6 1.1-3.3.8-.7 1.9-1.1 3.4-1.1h3.2l.2 1.9h-3.4c-.8 0-1.4.2-1.8.6-.4.4-.6 1-.6 1.9 0 .7.2 1.3.7 1.6.4.4 1.1.6 2 .6.9 0 1.7-.2 2.1-.5.5-.3.7-.8.7-1.4l.3 1.6c-.1.5-.4.9-.7 1.3-.3.3-.7.6-1.2.8-.4 0-1 .1-1.6.1zm3.3-9.8c0-.9-.2-1.5-.7-2-.5-.5-1.1-.7-1.9-.7-.6 0-1.1.1-1.6.4-.5.3-.8.7-1 1.2l-2-.6c.3-1 .8-1.7 1.6-2.2.8-.5 1.8-.8 3-.8 1 0 1.9.2 2.6.6.7.4 1.3.9 1.7 1.6.4.7.6 1.5.6 2.5v9.7h-2.2v-9.7zm-20.7-10.1h11.8V71h-11.8v-2.2zm4.7 1.4h2.3v18.3h-2.3V70.2zm-12.8 16h2.3v2.3h-2.3v-2.3zm-7.9 2.5c-.9 0-1.7-.1-2.4-.4-.7-.2-1.3-.6-1.7-1.1-.5-.5-.8-1.1-1-1.8l2-.9c.3.7.8 1.2 1.3 1.6.5.4 1.1.5 1.8.5.9 0 1.7-.2 2.2-.6.5-.4.8-.9.8-1.7 0-.5-.1-.8-.4-1.1-.3-.3-.6-.5-1-.6-.4-.1-.9-.2-1.6-.4h-.4-.1-.1c-.8-.2-1.5-.3-2.1-.6-.6-.2-1-.6-1.4-1.1-.4-.5-.6-1.3-.6-2.2 0-.9.2-1.7.5-2.3.4-.6.9-1.1 1.6-1.4.7-.3 1.6-.5 2.6-.5.8 0 1.5.1 2.2.3.6.2 1.1.5 1.6 1 .4.4.8 1 1 1.6l-2 .9c-.3-.6-.7-1-1.1-1.3-.5-.3-1-.5-1.6-.5-.8 0-1.5.2-1.9.5-.4.4-.7.9-.7 1.6 0 .5.1.8.4 1.1.3.3.6.4 1 .6.4.1 1 .2 1.7.3h.4c.9.1 1.6.3 2.2.6.6.2 1.1.6 1.5 1.2.4.6.6 1.3.6 2.4 0 .9-.2 1.7-.6 2.3-.4.6-1 1.1-1.7 1.4-1 .4-1.9.6-3 .6zm-12.1 0c-1.1 0-2-.2-2.8-.6-.8-.4-1.4-1.1-1.8-1.9-.4-.8-.6-1.8-.6-3V80c0-1.2.2-2.3.6-3.1.4-.9 1-1.5 1.7-2 .8-.5 1.7-.7 2.7-.7 1 0 1.9.2 2.6.7.7.4 1.3 1.1 1.7 2 .4.9.6 1.9.6 3.1v2.4H120v-2h6.1v-.8c0-1-.2-1.8-.7-2.4-.5-.6-1.1-.9-2-.9-.9 0-1.6.3-2.1.9-.5.6-.7 1.5-.7 2.6v3.5c0 1 .3 1.8.8 2.4.5.6 1.3.9 2.2.9.6 0 1.1-.1 1.6-.4.4-.3.7-.7.9-1.3l2.1.7c-.3 1-.8 1.8-1.6 2.4-.7.4-1.7.7-3 .7zm-9.8-3.9c0 .5.1.9.3 1.1.2.3.5.4.9.4h1.1v2.2h-1.4c-1 0-1.9-.3-2.4-1-.6-.7-.9-1.6-.9-2.8v-16h2.3v16.1zm-11.4 3.9c-1.4 0-2.5-.3-3.3-1-.7-.7-1.1-1.8-1.1-3.2 0-1.5.4-2.6 1.1-3.3.8-.7 1.9-1.1 3.4-1.1h3.2l.3 1.9h-3.4c-.8 0-1.4.2-1.8.6-.4.4-.6 1-.6 1.9 0 .7.2 1.3.7 1.6.4.4 1.1.6 2 .6.9 0 1.7-.2 2.1-.5.5-.3.7-.8.7-1.4l.3 1.6c-.1.5-.4.9-.7 1.3-.3.3-.7.6-1.2.8-.5.1-1.1.2-1.7.2zm3.3-9.8c0-.9-.2-1.5-.7-2-.5-.5-1.1-.7-1.9-.7-.6 0-1.1.1-1.6.4-.5.3-.8.7-1 1.2l-2-.6c.3-1 .8-1.7 1.6-2.2.8-.5 1.8-.8 3-.8 1 0 1.9.2 2.6.6.7.4 1.3.9 1.7 1.6.4.7.6 1.5.6 2.5v9.7h-2.2v-9.7zm-16.5-4.5h6.2v2.1h-6.2v-2.1zm4.7 14.2c-1.1 0-2-.3-2.5-.9-.5-.6-.8-1.6-.8-2.8V70.3h2.3v14.5c0 .5.1.9.3 1.1.2.3.5.4 1 .4h1.2v2.2h-1.5zm-9.7-14.2h2.3v14.1h-2.3V74.4zm0-5.4h2.3v2.3h-2.3V69zm-7.7 19.7c-.9 0-1.6-.2-2.2-.6-.6-.4-1.1-1-1.3-1.8l.2-2.5c0 .6.1 1.1.3 1.5.2.4.5.8.9 1 .4.2.8.4 1.4.4.8 0 1.5-.3 2-.8s.7-1.3.7-2.3v-4.2c0-1-.2-1.7-.7-2.3-.5-.5-1.1-.8-2-.8-.5 0-1 .1-1.4.4-.4.2-.7.6-.9 1-.2.4-.3.9-.3 1.5l-.3-2.3c.4-.8.9-1.5 1.6-1.9.7-.4 1.4-.7 2.2-.7.8 0 1.6.2 2.2.6.6.4 1.1 1 1.4 1.7.3.8.5 1.7.5 2.8v4.3c0 1.1-.2 2-.5 2.8-.3.8-.8 1.4-1.4 1.8-.7.2-1.5.4-2.4.4zm-5.7-14.3h2.3v19.8h-2.3V74.4zm-8.1 14.3c-.9 0-1.7-.1-2.4-.4-.7-.2-1.3-.6-1.7-1.1-.5-.5-.8-1.1-1-1.8l2-.9c.3.7.8 1.2 1.3 1.6.5.4 1.1.5 1.8.5.9 0 1.7-.2 2.2-.6.5-.4.8-.9.8-1.7 0-.5-.1-.8-.4-1.1-.3-.3-.6-.5-1-.6-.4-.1-.9-.2-1.6-.4h-.4-.1-.1c-.8-.2-1.5-.3-2.1-.6-.6-.2-1-.6-1.4-1.1-.4-.5-.6-1.3-.6-2.2 0-.9.2-1.7.5-2.3.4-.6.9-1.1 1.6-1.4.7-.3 1.6-.5 2.6-.5.8 0 1.5.1 2.2.3.6.2 1.1.5 1.6 1 .4.4.8 1 1 1.6l-2 .9c-.3-.6-.7-1-1.1-1.3-.5-.3-1-.5-1.6-.5-.8 0-1.5.2-1.9.5-.4.4-.7.9-.7 1.6 0 .5.1.8.4 1.1.3.3.6.4 1 .6.4.1 1 .2 1.7.3h.4c.9.1 1.6.3 2.2.6.6.2 1.1.6 1.5 1.2.4.6.6 1.3.6 2.4 0 .9-.2 1.7-.6 2.3-.4.6-1 1.1-1.7 1.4-1 .4-1.9.6-3 .6zm-12.3-2.2c.8 0 1.5-.3 1.9-.8.5-.5.7-1.2.7-2.1v-4.3c0-.9-.2-1.6-.7-2.1-.5-.5-1.1-.8-1.9-.8-.8 0-1.5.2-1.9.8-.5.5-.7 1.2-.7 2.1v4.3c0 .9.2 1.6.7 2.1.4.5 1 .8 1.9.8zm0 2.2c-1 0-1.9-.2-2.7-.6-.7-.4-1.3-1-1.7-1.8-.4-.8-.6-1.7-.6-2.8v-4.4c0-1.1.2-2 .6-2.7.4-.8 1-1.3 1.7-1.7.7-.4 1.6-.6 2.7-.6 1 0 1.9.2 2.7.6.7.4 1.3 1 1.7 1.7.4.8.6 1.7.6 2.7v4.4c0 1.1-.2 2-.6 2.7-.4.8-.9 1.3-1.7 1.7-.8.6-1.7.8-2.7.8zm-10.5-9.4c0-1-.2-1.7-.7-2.2-.5-.5-1.1-.8-2-.8-.9 0-1.5.2-2 .7-.4.5-.7 1.2-.7 2.1l-.3-2.4c.4-.9.9-1.5 1.6-1.9.7-.4 1.4-.6 2.3-.6 1.3 0 2.3.4 3 1.3.7.8 1 2.1 1 3.7v9.4h-2.3v-9.3zm-7.7-10.5h2.3v19.7h-2.3V68.8zm725-10.4h2.3v2.3l-2.3 2.3v-4.6zm-9 2.5c-.9 0-1.6-.2-2.2-.6-.6-.4-1.1-1-1.4-1.7-.3-.7-.5-1.6-.5-2.7v-4.5c0-1.1.2-2 .5-2.7.3-.8.8-1.3 1.4-1.7.6-.4 1.3-.6 2.2-.6.8 0 1.5.2 2.2.6.7.4 1.2 1 1.6 1.9l-.3 2.4c0-.6-.1-1-.3-1.5-.2-.4-.5-.8-.9-1-.4-.2-.8-.4-1.4-.4-.8 0-1.5.3-1.9.8-.5.5-.7 1.3-.7 2.2v4.4c0 .9.2 1.6.7 2.1.5.5 1.1.8 1.9.8.5 0 1-.1 1.4-.4.4-.2.7-.6.9-1 .2-.4.3-.9.3-1.5l.2 2.4c-.3.8-.7 1.4-1.4 1.8-.6.7-1.4.9-2.3.9zm3.5-20h2.3v19.7h-2.3V40.9zM733.4 56c0 .9.2 1.5.7 2 .5.5 1.1.7 1.9.7.8 0 1.5-.2 1.9-.6.4-.4.7-1.1.7-1.9l.2 2.4c-.3.7-.7 1.3-1.3 1.7-.6.4-1.4.6-2.3.6-1.3 0-2.3-.4-3-1.3-.7-.8-1.1-2-1.1-3.6v-9.4h2.3V56zm5.2-9.4h2.3v14.1h-2.3V46.6zM726.2 57c0 .5.1.9.3 1.1.2.3.5.4.9.4h1.1v2.2h-1.4c-1 0-1.9-.3-2.4-1-.6-.7-.9-1.6-.9-2.8v-16h2.3V57zm-11.5 3.9c-1.4 0-2.5-.3-3.3-1-.7-.7-1.1-1.7-1.1-3.1 0-1.5.4-2.6 1.1-3.3.8-.7 1.9-1.1 3.4-1.1h3.2l.2 1.9h-3.4c-.8 0-1.4.2-1.8.6-.4.4-.6 1-.6 1.9 0 .7.2 1.3.7 1.6.4.4 1.1.6 2 .6.9 0 1.7-.2 2.1-.5.5-.3.7-.8.7-1.4l.3 1.6c-.1.5-.4.9-.7 1.3-.3.3-.7.6-1.2.8-.4 0-.9.1-1.6.1zm3.3-9.8c0-.9-.2-1.5-.7-2-.5-.5-1.1-.7-1.9-.7-.6 0-1.1.1-1.6.4-.5.3-.8.7-1 1.2l-2-.6c.3-1 .8-1.7 1.6-2.2.8-.5 1.8-.8 3-.8 1 0 1.9.2 2.6.6.7.4 1.3.9 1.7 1.6.4.7.6 1.5.6 2.5v9.7H718v-9.7zm-15.4 9.8c-.9 0-1.7-.1-2.4-.4-.7-.2-1.3-.6-1.7-1.1-.5-.5-.8-1.1-1-1.8l2-.9c.3.7.8 1.2 1.3 1.6.5.4 1.1.5 1.8.5.9 0 1.7-.2 2.2-.6.5-.4.8-.9.8-1.7 0-.5-.1-.8-.4-1.1-.3-.3-.6-.5-1-.6-.4-.1-.9-.2-1.6-.4h-.4-.1-.1c-.8-.2-1.5-.3-2.1-.6-.6-.2-1-.6-1.4-1.1-.4-.5-.6-1.3-.6-2.2 0-.9.2-1.7.5-2.3.4-.6.9-1.1 1.6-1.4.7-.3 1.6-.5 2.6-.5.8 0 1.5.1 2.2.3.6.2 1.1.5 1.6 1 .4.4.8 1 1 1.6l-2 .9c-.3-.6-.7-1-1.1-1.3-.5-.3-1-.5-1.6-.5-.8 0-1.5.2-1.9.5-.4.4-.7.9-.7 1.6 0 .5.1.8.4 1.1.3.3.6.4 1 .6.4.1 1 .2 1.7.3h.4c.9.1 1.6.3 2.2.6.6.2 1.1.6 1.5 1.2.4.6.6 1.3.6 2.4 0 .9-.2 1.7-.6 2.3-.4.6-1 1.1-1.7 1.4-1 .4-1.9.6-3 .6zm-16.5 0c-1.1 0-2-.2-2.8-.6-.8-.4-1.4-1.1-1.8-1.9-.4-.8-.6-1.8-.6-3v-3.2c0-1.2.2-2.3.6-3.1.4-.9 1-1.5 1.7-2 .8-.5 1.7-.7 2.7-.7 1 0 1.9.2 2.6.7.7.4 1.3 1.1 1.7 2 .4.9.6 1.9.6 3.1v2.4h-8.4v-2h6.1v-.8c0-1-.2-1.8-.7-2.4-.5-.6-1.1-.9-2-.9-.9 0-1.6.3-2.1.9-.5.6-.7 1.5-.7 2.6v3.5c0 1 .3 1.8.8 2.4.5.6 1.3.9 2.2.9.6 0 1.1-.1 1.6-.4.4-.3.7-.7.9-1.3l2.1.7c-.3 1-.8 1.8-1.6 2.4-.7.4-1.7.7-2.9.7zm-14.2 0c-.9 0-1.6-.2-2.2-.6-.6-.4-1.1-1-1.4-1.7-.3-.7-.5-1.6-.5-2.7v-4.5c0-1.1.2-2 .5-2.7.3-.8.8-1.3 1.4-1.7.6-.4 1.3-.6 2.2-.6.8 0 1.5.2 2.2.6.7.4 1.2 1 1.6 1.9l-.3 2.4c0-.6-.1-1-.3-1.5-.2-.4-.5-.8-.9-1-.4-.2-.8-.4-1.4-.4-.8 0-1.5.3-1.9.8-.5.5-.7 1.3-.7 2.2v4.4c0 .9.2 1.6.7 2.1.5.5 1.1.8 1.9.8.5 0 1-.1 1.4-.4.4-.2.7-.6.9-1 .2-.4.3-.9.3-1.5l.2 2.4c-.3.8-.7 1.4-1.4 1.8-.7.7-1.4.9-2.3.9zm3.4-20h2.3v19.7h-2.3V40.9zm-19.8 20c-.9 0-1.7-.1-2.4-.4-.7-.2-1.3-.6-1.7-1.1-.5-.5-.8-1.1-1-1.8l2-.9c.3.7.8 1.2 1.3 1.6.5.4 1.1.5 1.8.5.9 0 1.7-.2 2.2-.6.5-.4.8-.9.8-1.7 0-.5-.1-.8-.4-1.1-.3-.3-.6-.5-1-.6-.4-.1-.9-.2-1.6-.4h-.4-.1-.1c-.8-.2-1.5-.3-2.1-.6-.6-.2-1-.6-1.4-1.1-.4-.5-.6-1.3-.6-2.2 0-.9.2-1.7.5-2.3.4-.6.9-1.1 1.6-1.4.7-.3 1.6-.5 2.6-.5.8 0 1.5.1 2.2.3.6.2 1.1.5 1.6 1 .4.4.8 1 1 1.6l-2 .9c-.3-.6-.7-1-1.1-1.3-.5-.3-1-.5-1.6-.5-.8 0-1.5.2-1.9.5-.4.4-.7.9-.7 1.6 0 .5.1.8.4 1.1.3.3.6.4 1 .6.4.1 1 .2 1.7.3h.4c.9.1 1.6.3 2.2.6.6.2 1.1.6 1.5 1.2.4.6.6 1.3.6 2.4 0 .9-.2 1.7-.6 2.3-.4.6-1 1.1-1.7 1.4-.9.4-1.8.6-3 .6z"/>
  <path class="st3" d="M603.8 84.8c0 .5.1.9.3 1.1.2.3.5.4.9.4h1.1v2.2h-1.4c-1 0-1.9-.3-2.4-1-.6-.7-.9-1.6-.9-2.8v-16h2.3v16.1zm-11.4 3.9c-1.4 0-2.5-.3-3.3-1-.7-.7-1.1-1.7-1.1-3.1 0-1.5.4-2.6 1.1-3.3.8-.7 1.9-1.1 3.4-1.1h3.2l.3 1.8h-3.4c-.8 0-1.4.2-1.8.6-.4.4-.6 1-.6 1.9 0 .7.2 1.3.7 1.6.4.4 1.1.6 2 .6.9 0 1.7-.2 2.1-.5.5-.3.7-.8.7-1.4l.3 1.6c-.1.5-.4.9-.7 1.3-.3.3-.7.6-1.2.8-.5.1-1.1.2-1.7.2zm3.3-9.8c0-.9-.2-1.5-.7-2-.5-.5-1.1-.7-1.9-.7-.6 0-1.1.1-1.6.4-.5.3-.8.7-1 1.2l-2-.6c.3-1 .8-1.7 1.6-2.2.8-.5 1.8-.8 3-.8 1 0 1.9.2 2.6.6.7.4 1.3.9 1.7 1.6.4.7.6 1.5.6 2.5v9.7h-2.2v-9.7zm-13.3-4.5h2.3v14.1h-2.3V74.4zm0-5.4h2.3v2.3h-2.3V69zm-7.5 19.7c-1.1 0-2.1-.2-2.8-.6-.8-.4-1.4-1-1.8-1.8-.4-.8-.6-1.7-.6-2.8v-4.1c0-1.1.2-2.1.6-2.8.4-.8 1-1.4 1.8-1.8.8-.4 1.7-.6 2.8-.6.9 0 1.7.1 2.3.4.7.3 1.2.7 1.6 1.2.4.5.7 1.2.8 2l-2.2.7c-.2-.7-.4-1.2-.9-1.6-.4-.4-1-.5-1.6-.5-.9 0-1.7.3-2.2.8-.5.5-.7 1.3-.7 2.3v4.1c0 1 .2 1.7.7 2.2.5.5 1.2.8 2.2.8.7 0 1.2-.2 1.6-.5.4-.3.7-.8.9-1.5l2.1.7c-.1.8-.4 1.4-.8 1.9s-.9.9-1.6 1.2c-.6.2-1.3.3-2.2.3zm-13.1-2.2c.8 0 1.5-.3 1.9-.8.5-.5.7-1.2.7-2.1v-4.3c0-.9-.2-1.6-.7-2.1-.5-.5-1.1-.8-1.9-.8-.8 0-1.5.2-1.9.8-.5.5-.7 1.2-.7 2.1v4.3c0 .9.2 1.6.7 2.1.4.5 1 .8 1.9.8zm0 2.2c-1 0-1.9-.2-2.7-.6-.7-.4-1.3-1-1.7-1.8-.4-.8-.6-1.7-.6-2.8v-4.4c0-1.1.2-2 .6-2.7.4-.8 1-1.3 1.7-1.7.7-.4 1.6-.6 2.7-.6 1 0 1.9.2 2.7.6.7.4 1.3 1 1.7 1.7.4.8.6 1.7.6 2.7v4.4c0 1.1-.2 2-.6 2.7-.4.8-.9 1.3-1.7 1.7-.8.6-1.7.8-2.7.8zm-12.8 0c-.9 0-1.7-.1-2.4-.4-.7-.2-1.3-.6-1.7-1.1-.5-.5-.8-1.1-1-1.8l2-.9c.3.7.8 1.2 1.3 1.6.5.4 1.1.5 1.8.5.9 0 1.7-.2 2.2-.6.5-.4.8-.9.8-1.7 0-.5-.1-.8-.4-1.1-.3-.3-.6-.5-1-.6-.4-.1-.9-.2-1.6-.4h-.4-.1-.1c-.8-.2-1.5-.3-2.1-.6-.6-.2-1-.6-1.4-1.1-.4-.5-.6-1.3-.6-2.2 0-.9.2-1.7.5-2.3.4-.6.9-1.1 1.6-1.4.7-.3 1.6-.5 2.6-.5.8 0 1.5.1 2.2.3.6.2 1.1.5 1.6 1 .4.4.8 1 1 1.6l-2 .9c-.3-.6-.7-1-1.1-1.3-.5-.3-1-.5-1.6-.5-.8 0-1.5.2-1.9.5-.4.4-.7.9-.7 1.6 0 .5.1.8.4 1.1.3.3.6.4 1 .6.4.1 1 .2 1.7.3h.4c.9.1 1.6.3 2.2.6.6.2 1.1.6 1.5 1.2.4.6.6 1.3.6 2.4 0 .9-.2 1.7-.6 2.3-.4.6-1 1.1-1.7 1.4-1 .4-1.9.6-3 .6zm-16.6 0c-.9 0-1.7-.1-2.4-.4-.7-.2-1.3-.6-1.7-1.1-.5-.5-.8-1.1-1-1.8l2-.9c.3.7.8 1.2 1.3 1.6.5.4 1.1.5 1.8.5.9 0 1.7-.2 2.2-.6.5-.4.8-.9.8-1.7 0-.5-.1-.8-.4-1.1-.3-.3-.6-.5-1-.6-.4-.1-.9-.2-1.6-.4h-.4-.1-.1c-.8-.2-1.5-.3-2.1-.6-.6-.2-1-.6-1.4-1.1-.4-.5-.6-1.3-.6-2.2 0-.9.2-1.7.5-2.3.4-.6.9-1.1 1.6-1.4.7-.3 1.6-.5 2.6-.5.8 0 1.5.1 2.2.3.6.2 1.1.5 1.6 1 .4.4.8 1 1 1.6l-2 .9c-.3-.6-.7-1-1.1-1.3-.5-.3-1-.5-1.6-.5-.8 0-1.5.2-1.9.5-.4.4-.7.9-.7 1.6 0 .5.1.8.4 1.1.3.3.6.4 1 .6.4.1 1 .2 1.7.3h.4c.9.1 1.6.3 2.2.6.6.2 1.1.6 1.5 1.2.4.6.6 1.3.6 2.4 0 .9-.2 1.7-.6 2.3-.4.6-1 1.1-1.7 1.4-1 .4-1.9.6-3 .6zm-13.2 0c-1.4 0-2.5-.3-3.3-1-.7-.7-1.1-1.7-1.1-3.1 0-1.5.4-2.6 1.1-3.3.8-.7 1.9-1.1 3.4-1.1h3.2l.2 1.9h-3.4c-.8 0-1.4.2-1.8.6-.4.4-.6 1-.6 1.9 0 .7.2 1.3.7 1.6.4.4 1.1.6 2 .6.9 0 1.7-.2 2.1-.5.5-.3.7-.8.7-1.4l.3 1.6c-.1.5-.4.9-.7 1.3-.3.3-.7.6-1.2.8-.4 0-1 .1-1.6.1zm3.3-9.8c0-.9-.2-1.5-.7-2-.5-.5-1.1-.7-1.9-.7-.6 0-1.1.1-1.6.4-.5.3-.8.7-1 1.2l-2-.6c.3-1 .8-1.7 1.6-2.2.8-.5 1.8-.8 3-.8 1 0 1.9.2 2.6.6.7.4 1.3.9 1.7 1.6.4.7.6 1.5.6 2.5v9.7h-2.2v-9.7zm-10.3-2.1c-.2-.2-.3-.3-.6-.3-.2-.1-.5-.1-.8-.1-1.1 0-2 .3-2.6.8-.6.6-.9 1.3-1 2.4l-.3-2.7c.5-.8 1.1-1.5 1.9-2 .8-.5 1.6-.7 2.5-.7.3 0 .6 0 .9.1.3.1.5.2.7.4l-.7 2.1zm-7.2-2.4h2.3v14.1H505V74.4zm-13.2-5.6h2.3v19.7h-2.3V68.8zm5.7 19.9c-.9 0-1.6-.2-2.2-.6-.6-.4-1.1-1-1.3-1.8l.2-2.5c0 .6.1 1.1.3 1.5.2.4.5.8.9 1 .4.2.8.4 1.4.4.8 0 1.5-.3 2-.8s.7-1.3.7-2.3v-4.2c0-1-.2-1.7-.7-2.3-.5-.5-1.1-.8-2-.8-.5 0-1 .1-1.4.4-.4.2-.7.6-.9 1-.2.4-.3.9-.3 1.5l-.3-2.3c.4-.8.9-1.5 1.6-1.9.7-.4 1.4-.7 2.2-.7.8 0 1.6.2 2.2.6.6.4 1.1 1 1.4 1.7.3.8.5 1.7.5 2.8v4.3c0 1.1-.2 2-.5 2.8-.3.8-.8 1.4-1.4 1.8-.8.2-1.5.4-2.4.4zm-13.9-2.2c.8 0 1.5-.3 1.9-.8.5-.5.7-1.2.7-2.1v-4.3c0-.9-.2-1.6-.7-2.1-.5-.5-1.1-.8-1.9-.8-.8 0-1.5.2-1.9.8-.5.5-.7 1.2-.7 2.1v4.3c0 .9.2 1.6.7 2.1.4.5 1 .8 1.9.8zm0 2.2c-1 0-1.9-.2-2.7-.6-.7-.4-1.3-1-1.7-1.8-.4-.8-.6-1.7-.6-2.8v-4.4c0-1.1.2-2 .6-2.7.4-.8 1-1.3 1.7-1.7.7-.4 1.6-.6 2.7-.6 1 0 1.9.2 2.7.6.7.4 1.3 1 1.7 1.7.4.8.6 1.7.6 2.7v4.4c0 1.1-.2 2-.6 2.7-.4.8-.9 1.3-1.7 1.7-.8.6-1.7.8-2.7.8zm-14.9-9.4c0-1-.2-1.7-.7-2.2-.5-.5-1.1-.8-2-.8-.9 0-1.5.2-2 .7-.5.5-.7 1.2-.7 2.1l-.3-2.4c.4-.9.9-1.5 1.6-2 .7-.4 1.4-.7 2.3-.7 1.3 0 2.3.4 3 1.3.7.8 1 2.1 1 3.7v9.4h-2.3v-9.1zm-7.7-4.9h2.3v14.1H461V74.4zm-8 14.3c-1.1 0-2-.2-2.8-.6-.8-.4-1.4-1.1-1.8-1.9-.4-.8-.6-1.8-.6-3V80c0-1.2.2-2.3.6-3.1.4-.9 1-1.5 1.7-2 .8-.5 1.7-.7 2.7-.7 1 0 1.9.2 2.6.7.7.4 1.3 1.1 1.7 2 .4.9.6 1.9.6 3.1v2.4h-8.4v-2h6.1v-.8c0-1-.2-1.8-.7-2.4-.5-.6-1.1-.9-2-.9-.9 0-1.6.3-2.1.9-.5.6-.7 1.5-.7 2.6v3.5c0 1 .3 1.8.8 2.4.5.6 1.3.9 2.2.9.6 0 1.1-.1 1.6-.4.4-.3.7-.7.9-1.3l2.1.7c-.3 1-.8 1.8-1.6 2.4-.7.4-1.7.7-2.9.7zm-17.5 0c-.9 0-1.7-.1-2.4-.4-.7-.2-1.3-.6-1.7-1.1-.5-.5-.8-1.1-1-1.8l2-.9c.3.7.8 1.2 1.3 1.6.5.4 1.1.5 1.8.5.9 0 1.7-.2 2.2-.6.5-.4.8-.9.8-1.7 0-.5-.1-.8-.4-1.1-.3-.3-.6-.5-1-.6-.4-.1-.9-.2-1.6-.4h-.4-.1-.1c-.8-.2-1.5-.3-2.1-.6-.6-.2-1-.6-1.4-1.1-.4-.5-.6-1.3-.6-2.2 0-.9.2-1.7.5-2.3.4-.6.9-1.1 1.6-1.4.7-.3 1.6-.5 2.6-.5.8 0 1.5.1 2.2.3.6.2 1.1.5 1.6 1 .4.4.8 1 1 1.6l-2 .9c-.3-.6-.7-1-1.1-1.3-.5-.3-1-.5-1.6-.5-.8 0-1.5.2-1.9.5-.4.4-.7.9-.7 1.6 0 .5.1.8.4 1.1.3.3.6.4 1 .6.4.1 1 .2 1.7.3h.4c.9.1 1.6.3 2.2.6.6.2 1.1.6 1.5 1.2.4.6.6 1.3.6 2.4 0 .9-.2 1.7-.6 2.3-.4.6-1 1.1-1.7 1.4-.9.4-1.9.6-3 .6zm-10.1-14.3h2.3v14.1h-2.3V74.4zm0-5.4h2.3v2.3h-2.3V69zm-9.5 5.4h6.2v2.1h-6.2v-2.1zm4.8 14.2c-1.1 0-2-.3-2.5-.9-.5-.6-.8-1.6-.8-2.8V70.3h2.3v14.5c0 .5.1.9.3 1.1.2.3.5.4 1 .4h1.2v2.2h-1.5zm-12.8.1c-1.4 0-2.5-.3-3.3-1-.7-.7-1.1-1.7-1.1-3.1 0-1.5.4-2.6 1.1-3.3.8-.7 1.9-1.1 3.4-1.1h3.2l.2 1.9H408c-.8 0-1.4.2-1.8.6-.4.4-.6 1-.6 1.9 0 .7.2 1.3.7 1.6.4.4 1.1.6 2 .6.9 0 1.7-.2 2.1-.5.5-.3.7-.8.7-1.4l.3 1.6c-.1.5-.4.9-.7 1.3-.3.3-.7.6-1.2.8-.4 0-.9.1-1.6.1zm3.3-9.8c0-.9-.2-1.5-.7-2-.5-.5-1.1-.7-1.9-.7-.6 0-1.1.1-1.6.4-.5.3-.8.7-1 1.2l-2-.6c.3-1 .8-1.7 1.6-2.2.8-.5 1.8-.8 3-.8 1 0 1.9.2 2.6.6.7.4 1.3.9 1.7 1.6.4.7.6 1.5.6 2.5v9.7h-2.2v-9.7zm-10.3-2.1c-.2-.2-.3-.3-.6-.3-.2-.1-.5-.1-.8-.1-1.1 0-2 .3-2.6.8-.6.6-.9 1.3-1 2.4l-.3-2.7c.5-.8 1.1-1.5 1.9-2 .8-.5 1.6-.7 2.5-.7.3 0 .6 0 .9.1.3.1.5.2.7.4l-.7 2.1zm-7.2-2.4h2.3v14.1h-2.3V74.4zm-9.3 14.3c-.9 0-1.6-.2-2.2-.6-.6-.4-1.1-1-1.4-1.7-.3-.7-.5-1.6-.5-2.7v-4.5c0-1.1.2-2 .5-2.7.3-.8.8-1.3 1.4-1.7.6-.4 1.3-.6 2.2-.6.8 0 1.5.2 2.2.6.7.4 1.2 1 1.6 1.9l-.3 2.4c0-.6-.1-1.1-.3-1.5-.2-.4-.5-.8-.9-1-.4-.2-.8-.4-1.4-.4-.8 0-1.5.3-2 .8s-.7 1.3-.7 2.2v4.5c0 .9.2 1.6.7 2.1.5.5 1.1.8 2 .8.5 0 1-.1 1.4-.4.4-.2.7-.6.9-1 .2-.4.3-.9.3-1.5l.2 2.4c-.3.8-.7 1.4-1.4 1.8-.7.6-1.5.8-2.3.8zm.5 5.5c-1.3 0-2.3-.3-3-.9-.8-.6-1.2-1.4-1.4-2.5l2.1-.7c.1.6.4 1.1.8 1.4.4.3.9.5 1.6.5.9 0 1.6-.2 2.1-.7.5-.5.7-1.2.7-2.1V74.4h2.3v14.8c0 1.1-.2 2-.6 2.7-.4.8-1 1.3-1.8 1.7-.8.4-1.7.6-2.8.6zm-14.6-14.9c0-1-.2-1.7-.7-2.2-.5-.5-1.1-.8-2-.8-.9 0-1.5.2-2 .7-.5.5-.7 1.2-.7 2.1l-.3-2.4c.4-.9.9-1.5 1.6-2 .7-.4 1.4-.7 2.3-.7 1.3 0 2.3.4 3 1.3.7.8 1 2.1 1 3.7v9.4h-2.3v-9.1zm-7.7-4.9h2.3v14.1h-2.3V74.4zm-9.1 14.3c-1.4 0-2.5-.3-3.3-1-.7-.7-1.1-1.7-1.1-3.1 0-1.5.4-2.6 1.1-3.3.8-.7 1.9-1.1 3.4-1.1h3.2l.2 1.9h-3.4c-.8 0-1.4.2-1.8.6-.4.4-.6 1-.6 1.9 0 .7.2 1.3.7 1.6.4.4 1.1.6 2 .6.9 0 1.7-.2 2.1-.5.5-.3.7-.8.7-1.4l.3 1.6c-.1.5-.4.9-.7 1.3-.3.3-.7.6-1.2.8-.4 0-1 .1-1.6.1zm3.3-9.8c0-.9-.2-1.5-.7-2-.5-.5-1.1-.7-1.9-.7-.6 0-1.1.1-1.6.4-.5.3-.8.7-1 1.2l-2-.6c.3-1 .8-1.7 1.6-2.2.8-.5 1.8-.8 3-.8 1 0 1.9.2 2.6.6.7.4 1.3.9 1.7 1.6.4.7.6 1.5.6 2.5v9.7h-2.2v-9.7zm-16.6 9.8c-.9 0-1.6-.2-2.2-.6-.6-.4-1.1-1-1.4-1.7-.3-.7-.5-1.6-.5-2.7v-4.5c0-1.1.2-2 .5-2.7.3-.8.8-1.3 1.4-1.7.6-.4 1.3-.6 2.2-.6.8 0 1.5.2 2.2.6.7.4 1.2 1 1.6 1.9l-.3 2.4c0-.6-.1-1.1-.3-1.5-.2-.4-.5-.8-.9-1-.4-.2-.8-.4-1.4-.4-.8 0-1.5.3-2 .8s-.7 1.3-.7 2.2v4.5c0 .9.2 1.6.7 2.1.5.5 1.1.8 2 .8.5 0 1-.1 1.4-.4.4-.2.7-.6.9-1 .2-.4.3-.9.3-1.5l.2 2.4c-.3.8-.7 1.4-1.4 1.8-.7.6-1.4.8-2.3.8zm.6 5.5c-1.3 0-2.3-.3-3-.9-.8-.6-1.2-1.4-1.4-2.5l2.1-.7c.1.6.4 1.1.8 1.4.4.3.9.5 1.6.5.9 0 1.6-.2 2.1-.7.5-.5.7-1.2.7-2.1V74.4h2.3v14.8c0 1.1-.2 2-.6 2.7-.4.8-1 1.3-1.8 1.7-.8.4-1.7.6-2.8.6zm-12.3-5.5c-1.1 0-2-.2-2.8-.6-.8-.4-1.4-1.1-1.8-1.9-.4-.8-.6-1.8-.6-3V80c0-1.2.2-2.3.6-3.1.4-.9 1-1.5 1.7-2 .8-.5 1.7-.7 2.7-.7 1 0 1.9.2 2.6.7.7.4 1.3 1.1 1.7 2 .4.9.6 1.9.6 3.1v2.4h-8.4v-2h6.1v-.8c0-1-.2-1.8-.7-2.4-.5-.6-1.1-.9-2-.9-.9 0-1.6.3-2.1.9-.5.6-.7 1.5-.7 2.6v3.5c0 1 .3 1.8.8 2.4.5.6 1.3.9 2.2.9.6 0 1.1-.1 1.6-.4.4-.3.7-.7.9-1.3l2.1.7c-.3 1-.8 1.8-1.6 2.4-.7.4-1.7.7-2.9.7zm-8-11.9c-.2-.2-.3-.3-.6-.3-.2-.1-.5-.1-.8-.1-1.1 0-2 .3-2.6.8-.6.6-.9 1.3-1 2.4l-.3-2.7c.5-.8 1.1-1.5 1.9-2 .8-.5 1.6-.7 2.5-.7.3 0 .6 0 .9.1.3.1.5.2.7.4l-.7 2.1zm-7.2-2.4h2.3v14.1h-2.3V74.4zm-9.3 0h6.2v2.1H304v-2.1zm4.8 14.2c-1.1 0-2-.3-2.5-.9-.5-.6-.8-1.6-.8-2.8V70.3h2.3v14.5c0 .5.1.9.3 1.1.2.3.5.4 1 .4h1.2v2.2h-1.5zm-9.6-9.3c0-1-.2-1.7-.7-2.2-.5-.5-1.1-.8-2-.8-.9 0-1.5.2-2 .7-.5.5-.7 1.2-.7 2.1l-.3-2.4c.4-.9.9-1.5 1.6-2 .7-.4 1.4-.7 2.3-.7 1.3 0 2.3.4 3 1.3.7.8 1 2.1 1 3.7v9.4h-2.3v-9.1zm-7.7-4.9h2.3v14.1h-2.3V74.4zm-8 14.3c-1.1 0-2-.2-2.8-.6-.8-.4-1.4-1.1-1.8-1.9-.4-.8-.6-1.8-.6-3V80c0-1.2.2-2.3.6-3.1.4-.9 1-1.5 1.7-2 .8-.5 1.7-.7 2.7-.7 1 0 1.9.2 2.6.7.7.4 1.3 1.1 1.7 2 .4.9.6 1.9.6 3.1v2.4h-8.4v-2h6.1v-.8c0-1-.2-1.8-.7-2.4-.5-.6-1.1-.9-2-.9-.9 0-1.6.3-2.1.9-.5.6-.7 1.5-.7 2.6v3.5c0 1 .3 1.8.8 2.4.5.6 1.3.9 2.2.9.6 0 1.1-.1 1.6-.4.4-.3.7-.7.9-1.3l2.1.7c-.3 1-.8 1.8-1.6 2.4-.7.4-1.7.7-2.9.7zm-17.3 0c-1.1 0-2-.2-2.8-.6-.8-.4-1.4-1.1-1.8-1.9-.4-.8-.6-1.8-.6-3V80c0-1.2.2-2.3.6-3.1.4-.9 1-1.5 1.7-2 .8-.5 1.7-.7 2.7-.7 1 0 1.9.2 2.6.7.7.4 1.3 1.1 1.7 2 .4.9.6 1.9.6 3.1v2.4h-8.4v-2h6.1v-.8c0-1-.2-1.8-.7-2.4-.5-.6-1.1-.9-2-.9-.9 0-1.6.3-2.1.9-.5.6-.7 1.5-.7 2.6v3.5c0 1 .3 1.8.8 2.4.5.6 1.3.9 2.2.9.6 0 1.1-.1 1.6-.4.4-.3.7-.7.9-1.3l2.1.7c-.3 1-.8 1.8-1.6 2.4-.7.4-1.7.7-2.9.7z"/>
  <path class="st3" d="M755.3 86.2h2.3v2.3h-2.3v-2.3zm-7.9 2.5c-.9 0-1.7-.1-2.4-.4-.7-.2-1.3-.6-1.7-1.1-.5-.5-.8-1.1-1-1.8l2-.9c.3.7.8 1.2 1.3 1.6.5.4 1.1.5 1.8.5.9 0 1.7-.2 2.2-.6.5-.4.8-.9.8-1.7 0-.5-.1-.8-.4-1.1-.3-.3-.6-.5-1-.6-.4-.1-.9-.2-1.6-.4h-.4-.1-.1c-.8-.2-1.5-.3-2.1-.6-.6-.2-1-.6-1.4-1.1-.4-.5-.6-1.3-.6-2.2 0-.9.2-1.7.5-2.3.4-.6.9-1.1 1.6-1.4.7-.3 1.6-.5 2.6-.5.8 0 1.5.1 2.2.3.6.2 1.1.5 1.6 1 .4.4.8 1 1 1.6l-2 .9c-.3-.6-.7-1-1.1-1.3-.5-.3-1-.5-1.6-.5-.8 0-1.5.2-1.9.5-.4.4-.7.9-.7 1.6 0 .5.1.8.4 1.1.3.3.6.4 1 .6.4.1 1 .2 1.7.3h.4c.9.1 1.6.3 2.2.6.6.2 1.1.6 1.5 1.2.4.6.6 1.3.6 2.4 0 .9-.2 1.7-.6 2.3-.4.6-1 1.1-1.7 1.4-1 .4-1.9.6-3 .6zm-13.2 0c-1.4 0-2.5-.3-3.3-1-.7-.7-1.1-1.7-1.1-3.1 0-1.5.4-2.6 1.1-3.3.8-.7 1.9-1.1 3.4-1.1h3.2l.2 1.9h-3.4c-.8 0-1.4.2-1.8.6-.4.4-.6 1-.6 1.9 0 .7.2 1.3.7 1.6.4.4 1.1.6 2 .6.9 0 1.7-.2 2.1-.5.5-.3.7-.8.7-1.4l.3 1.6c-.1.5-.4.9-.7 1.3-.3.3-.7.6-1.2.8-.4 0-.9.1-1.6.1zm3.3-9.8c0-.9-.2-1.5-.7-2-.5-.5-1.1-.7-1.9-.7-.6 0-1.1.1-1.6.4-.5.3-.8.7-1 1.2l-2-.6c.3-1 .8-1.7 1.6-2.2.8-.5 1.8-.8 3-.8 1 0 1.9.2 2.6.6.7.4 1.3.9 1.7 1.6.4.7.6 1.5.6 2.5v9.7h-2.2v-9.7zm-16.6 9.8c-.9 0-1.6-.2-2.2-.6-.6-.4-1.1-1-1.4-1.7-.3-.7-.5-1.6-.5-2.7v-4.5c0-1.1.2-2 .5-2.7.3-.8.8-1.3 1.4-1.7.6-.4 1.3-.6 2.2-.6.8 0 1.5.2 2.2.6.7.4 1.2 1 1.6 1.9l-.3 2.4c0-.6-.1-1.1-.3-1.5-.2-.4-.5-.8-.9-1-.4-.2-.8-.4-1.4-.4-.8 0-1.5.3-2 .8s-.7 1.3-.7 2.2v4.5c0 .9.2 1.6.7 2.1.5.5 1.1.8 2 .8.5 0 1-.1 1.4-.4.4-.2.7-.6.9-1 .2-.4.3-.9.3-1.5l.2 2.4c-.3.8-.7 1.4-1.4 1.8-.6.6-1.4.8-2.3.8zm.6 5.5c-1.3 0-2.3-.3-3-.9-.8-.6-1.2-1.4-1.4-2.5l2.1-.7c.1.6.4 1.1.8 1.4.4.3.9.5 1.6.5.9 0 1.6-.2 2.1-.7.5-.5.7-1.2.7-2.1V74.4h2.3v14.8c0 1.1-.2 2-.6 2.7-.4.8-1 1.3-1.8 1.7-.8.4-1.7.6-2.8.6zm-13.4-5.5c-1.4 0-2.5-.3-3.3-1-.7-.7-1.1-1.7-1.1-3.1 0-1.5.4-2.6 1.1-3.3.8-.7 1.9-1.1 3.4-1.1h3.2l.2 1.9h-3.4c-.8 0-1.4.2-1.8.6-.4.4-.6 1-.6 1.9 0 .7.2 1.3.7 1.6.4.4 1.1.6 2 .6.9 0 1.7-.2 2.1-.5.5-.3.7-.8.7-1.4l.3 1.6c-.1.5-.4.9-.7 1.3-.3.3-.7.6-1.2.8-.4 0-1 .1-1.6.1zm3.2-9.8c0-.9-.2-1.5-.7-2-.5-.5-1.1-.7-1.9-.7-.6 0-1.1.1-1.6.4-.5.3-.8.7-1 1.2l-2-.6c.3-1 .8-1.7 1.6-2.2.8-.5 1.8-.8 3-.8 1 0 1.9.2 2.6.6.7.4 1.3.9 1.7 1.6.4.7.6 1.5.6 2.5v9.7h-2.2v-9.7zm-14.7 9.8c-.9 0-1.6-.2-2.2-.6-.6-.4-1.1-1-1.3-1.8l.2-2.5c0 .6.1 1.1.3 1.5.2.4.5.8.9 1 .4.2.8.4 1.4.4.8 0 1.5-.3 2-.8s.7-1.3.7-2.3v-4.2c0-1-.2-1.7-.7-2.3-.5-.5-1.1-.8-2-.8-.5 0-1 .1-1.4.4-.4.2-.7.6-.9 1-.2.4-.3.9-.3 1.5l-.3-2.3c.4-.8.9-1.5 1.6-1.9.7-.4 1.4-.7 2.2-.7.8 0 1.6.2 2.2.6.6.4 1.1 1 1.4 1.7.3.8.5 1.7.5 2.8v4.3c0 1.1-.2 2-.5 2.8-.3.8-.8 1.4-1.4 1.8-.7.2-1.5.4-2.4.4zM691 74.4h2.3v19.8H691V74.4zm-8 14.3c-1.1 0-2-.2-2.8-.6-.8-.4-1.4-1.1-1.8-1.9-.4-.8-.6-1.8-.6-3V80c0-1.2.2-2.3.6-3.1.4-.9 1-1.5 1.7-2 .8-.5 1.7-.7 2.7-.7 1 0 1.9.2 2.6.7.7.4 1.3 1.1 1.7 2 .4.9.6 1.9.6 3.1v2.4h-8.4v-2h6.1v-.8c0-1-.2-1.8-.7-2.4-.5-.6-1.1-.9-2-.9-.9 0-1.6.3-2.1.9-.5.6-.7 1.5-.7 2.6v3.5c0 1 .3 1.8.8 2.4.5.6 1.3.9 2.2.9.6 0 1.1-.1 1.6-.4.4-.3.7-.7.9-1.3l2.1.7c-.3 1-.8 1.8-1.6 2.4-.7.4-1.7.7-2.9.7zm-8-11.9c-.2-.2-.3-.3-.6-.3-.2-.1-.5-.1-.8-.1-1.1 0-2 .3-2.6.8-.6.6-.9 1.3-1 2.4l-.3-2.7c.5-.8 1.1-1.5 1.9-2 .8-.5 1.6-.7 2.5-.7.3 0 .6 0 .9.1.3.1.5.2.7.4l-.7 2.1zm-7.2-2.4h2.3v14.1h-2.3V74.4zm-7.5 14.3c-.9 0-1.6-.2-2.2-.6-.6-.4-1.1-1-1.3-1.8l.2-2.5c0 .6.1 1.1.3 1.5.2.4.5.8.9 1 .4.2.8.4 1.4.4.8 0 1.5-.3 2-.8s.7-1.3.7-2.3v-4.2c0-1-.2-1.7-.7-2.3-.5-.5-1.1-.8-2-.8-.5 0-1 .1-1.4.4-.4.2-.7.6-.9 1-.2.4-.3.9-.3 1.5l-.3-2.3c.4-.8.9-1.5 1.6-1.9.7-.4 1.4-.7 2.2-.7.8 0 1.6.2 2.2.6.6.4 1.1 1 1.4 1.7.3.8.5 1.7.5 2.8v4.3c0 1.1-.2 2-.5 2.8-.3.8-.8 1.4-1.4 1.8-.8.2-1.5.4-2.4.4zm-5.7-14.3h2.3v19.8h-2.3V74.4zm-17.5 0h2.4l3.8 12.4-1.2 2.8-5-15.2zm11 0l-5.2 17.4c-.2.6-.5 1.1-.8 1.5-.3.4-.8.7-1.3.8-.5.2-1.2.3-1.9.3h-.4v-2.2h.4c.7 0 1.2-.1 1.6-.4.4-.3.7-.8.9-1.4l4.5-15.9h2.2zm-22.4 14.3c-.9 0-1.7-.1-2.4-.4-.7-.2-1.3-.6-1.7-1.1-.5-.5-.8-1.1-1-1.8l2-.9c.3.7.8 1.2 1.3 1.6.5.4 1.1.5 1.8.5.9 0 1.7-.2 2.2-.6.5-.4.8-.9.8-1.7 0-.5-.1-.8-.4-1.1-.3-.3-.6-.5-1-.6-.4-.1-.9-.2-1.6-.4h-.4-.1-.1c-.8-.2-1.5-.3-2.1-.6-.6-.2-1-.6-1.4-1.1-.4-.5-.6-1.3-.6-2.2 0-.9.2-1.7.5-2.3.4-.6.9-1.1 1.6-1.4.7-.3 1.6-.5 2.6-.5.8 0 1.5.1 2.2.3.6.2 1.1.5 1.6 1 .4.4.8 1 1 1.6l-2 .9c-.3-.6-.7-1-1.1-1.3-.5-.3-1-.5-1.6-.5-.8 0-1.5.2-1.9.5-.4.4-.7.9-.7 1.6 0 .5.1.8.4 1.1.3.3.6.4 1 .6.4.1 1 .2 1.7.3h.4c.9.1 1.6.3 2.2.6.6.2 1.1.6 1.5 1.2.4.6.6 1.3.6 2.4 0 .9-.2 1.7-.6 2.3-.4.6-1 1.1-1.7 1.4-1 .4-1.9.6-3 .6zm-12.1 0c-1.1 0-2-.2-2.8-.6-.8-.4-1.4-1.1-1.8-1.9-.4-.8-.6-1.8-.6-3V80c0-1.2.2-2.3.6-3.1.4-.9 1-1.5 1.7-2 .8-.5 1.7-.7 2.7-.7 1 0 1.9.2 2.6.7.7.4 1.3 1.1 1.7 2 .4.9.6 1.9.6 3.1v2.4H610v-2h6.1v-.8c0-1-.2-1.8-.7-2.4-.5-.6-1.1-.9-2-.9-.9 0-1.6.3-2.1.9-.5.6-.7 1.5-.7 2.6v3.5c0 1 .3 1.8.8 2.4.5.6 1.3.9 2.2.9.6 0 1.1-.1 1.6-.4.4-.3.7-.7.9-1.3l2.1.7c-.3 1-.8 1.8-1.6 2.4-.7.4-1.7.7-3 .7z"/>
  <path class="st3" d="M423.5 33.1c-.8 0-1.6-.1-2.4-.2-.8-.2-1.5-.4-2.1-.7-.7-.3-1.3-.7-1.8-1.1l2-2.4c.7.5 1.5.9 2.2 1.2.7.3 1.5.4 2.2.4 1 0 1.7-.1 2.2-.4.5-.3.8-.7.8-1.2 0-.4-.1-.7-.4-.9-.3-.2-.6-.3-1-.4-.4-.1-.9-.1-1.6-.2h-.8-.1-.1c-1-.1-1.8-.3-2.4-.5-.6-.2-1.2-.6-1.6-1.1-.4-.6-.6-1.3-.6-2.4 0-1 .2-1.8.6-2.5.4-.7 1.1-1.2 1.9-1.5.8-.3 1.9-.5 3.1-.5.7 0 1.4.1 2.1.2.7.1 1.3.3 2 .6.6.3 1.2.6 1.8 1l-1.9 2.4c-.7-.4-1.3-.7-2-.9-.7-.2-1.3-.3-2-.3-.9 0-1.5.1-1.9.4-.4.2-.7.6-.7 1.1 0 .3.1.5.4.7.2.2.6.3.9.3.4.1.9.1 1.6.2h.6c1 .1 1.9.2 2.6.4.7.2 1.3.6 1.8 1.2s.7 1.5.7 2.6c0 1-.2 1.8-.7 2.5-.4.7-1.1 1.2-2 1.5-1 .3-2.1.5-3.4.5M408.7 30c.9 0 1.5-.3 2-.8s.7-1.3.7-2.2v-2.3c0-.9-.2-1.7-.7-2.2-.5-.5-1.1-.8-2-.8-.9 0-1.5.3-2 .8s-.7 1.2-.7 2.2V27c0 .9.2 1.7.7 2.2.5.5 1.1.8 2 .8zm0 3.1c-1.3 0-2.3-.2-3.2-.7-.9-.5-1.6-1.2-2-2.1-.5-.9-.7-2-.7-3.3v-2.3c0-1.3.2-2.4.7-3.3.5-.9 1.1-1.6 2-2.1.9-.5 2-.7 3.2-.7 1.3 0 2.3.2 3.2.7.9.5 1.6 1.2 2 2.1.5.9.7 2 .7 3.3V27c0 1.3-.2 2.4-.7 3.3-.5.9-1.1 1.6-2 2.1-.9.4-2 .7-3.2.7zm-11.3-14.3h3.3l-5.3 14.1H393l-5.3-14.1h3.3l3.2 9.4 3.2-9.4zm-15.2 0h3.2v14.1h-3.2V18.8zm0-5.7h3.2v3.2h-3.2v-3.2zm-10.1 5.7h6.6v2.8h-6.6v-2.8zM377 33c-1.2 0-2.1-.3-2.6-.9-.6-.6-.8-1.6-.8-2.8V14.7h3.2v14.1c0 .3.1.6.2.8.1.2.3.3.6.3h1.1V33H377zm-12.3.1c-.9 0-1.6-.2-2.2-.6-.6-.4-1.1-1-1.4-1.8l.2-3.1c0 .5.1 1 .3 1.4.2.4.5.7.8.9.4.2.8.3 1.3.3.8 0 1.4-.3 1.9-.8.4-.5.7-1.2.7-2.2v-2.6c0-.9-.2-1.7-.7-2.2-.4-.5-1.1-.8-1.9-.8-.5 0-1 .1-1.3.3-.4.2-.6.5-.8.9-.2.4-.3.8-.3 1.4l-.3-2.9c.4-.8.9-1.5 1.6-1.9.7-.5 1.4-.7 2.2-.7 1 0 1.8.2 2.6.7.7.5 1.3 1.1 1.6 2 .4.9.6 2 .6 3.2v2.7c0 1.2-.2 2.3-.6 3.2-.4.9-.9 1.5-1.6 2-.8.4-1.7.6-2.7.6zm-6.6-14.3h3.2v19.8h-3.2V18.8zm-9 14.3c-1.3 0-2.5-.2-3.4-.7-.9-.5-1.7-1.2-2.2-2.2-.5-.9-.7-2.1-.7-3.4v-1.6c0-1.4.2-2.6.7-3.6.5-1 1.2-1.7 2.1-2.3.9-.5 2-.8 3.3-.8 1.2 0 2.2.3 3.1.9.9.6 1.5 1.5 2 2.6.4 1.1.7 2.5.7 4.1v.9H345v-2.4h6.6v-.2c-.1-1-.4-1.7-.8-2.3-.5-.5-1.1-.8-1.9-.8-1 0-1.7.3-2.3.9-.5.6-.8 1.5-.8 2.6v1.8c0 1.1.3 1.9.9 2.5.6.6 1.4.9 2.4.9.5 0 1.1-.1 1.6-.3.5-.2 1-.5 1.4-.9l2.1 2c-.7.7-1.5 1.2-2.4 1.6-.9.5-1.8.7-2.7.7zm-14 0c-1.3 0-2.4-.3-3.4-.7-.9-.5-1.6-1.2-2.1-2.2-.5-.9-.7-2.1-.7-3.4v-1.9c0-1.3.2-2.5.7-3.4.5-.9 1.2-1.7 2.1-2.1.9-.5 2.1-.7 3.4-.7.8 0 1.5.1 2.1.3.7.2 1.3.4 1.8.8.5.3 1 .7 1.3 1.2l-2.2 2.1c-.4-.4-.8-.7-1.3-.9-.5-.2-1-.3-1.6-.3-1 0-1.8.3-2.3.8-.6.5-.8 1.3-.8 2.3v1.9c0 1 .3 1.8.8 2.4.6.6 1.3.8 2.3.8.6 0 1.1-.1 1.6-.3.5-.2.9-.5 1.3-1l2.2 2.2c-.4.5-.8.9-1.3 1.2-.5.3-1.1.6-1.8.8-.6 0-1.3.1-2.1.1zm-13-8.8c0-.8-.2-1.5-.7-2-.5-.5-1.1-.7-1.9-.7-.8 0-1.4.2-1.8.6-.4.4-.6 1-.6 1.8l-.3-2.9c.4-.9 1-1.5 1.6-2 .6-.5 1.4-.7 2.3-.7 1.5 0 2.7.5 3.5 1.5.8 1 1.2 2.4 1.2 4.2v8.6h-3.2v-8.4zm-8.3-5.5h3.2v14.1h-3.2V18.8zM304.2 30c.9 0 1.5-.3 2-.8s.7-1.3.7-2.2v-2.3c0-.9-.2-1.7-.7-2.2-.5-.5-1.1-.8-2-.8-.9 0-1.5.3-2 .8s-.7 1.2-.7 2.2V27c0 .9.2 1.7.7 2.2.4.5 1.1.8 2 .8zm0 3.1c-1.3 0-2.3-.2-3.2-.7-.9-.5-1.6-1.2-2-2.1-.5-.9-.7-2-.7-3.3v-2.3c0-1.3.2-2.4.7-3.3.5-.9 1.1-1.6 2-2.1.9-.5 2-.7 3.2-.7 1.3 0 2.3.2 3.2.7.9.5 1.6 1.2 2 2.1.5.9.7 2 .7 3.3V27c0 1.3-.2 2.4-.7 3.3-.5.9-1.1 1.6-2 2.1-.9.4-2 .7-3.2.7zm-13.6 0c-1.3 0-2.4-.3-3.4-.7-.9-.5-1.6-1.2-2.1-2.2-.5-.9-.7-2.1-.7-3.4v-1.9c0-1.3.2-2.5.7-3.4.5-.9 1.2-1.7 2.1-2.1.9-.5 2.1-.7 3.4-.7.8 0 1.5.1 2.1.3.7.2 1.3.4 1.8.8.5.3 1 .7 1.3 1.2l-2.2 2.1c-.4-.4-.8-.7-1.3-.9-.5-.2-1-.3-1.6-.3-1 0-1.8.3-2.3.8-.6.5-.8 1.3-.8 2.3v1.9c0 1 .3 1.8.8 2.4.6.6 1.3.8 2.3.8.6 0 1.1-.1 1.6-.3.5-.2.9-.5 1.3-1l2.2 2.2c-.4.5-.8.9-1.3 1.2-.5.3-1.1.6-1.8.8-.6 0-1.4.1-2.1.1zm-12.9-14.3h3.2v14.1h-3.2V18.8zm0-5.7h3.2v3.2h-3.2v-3.2zm-10.1 5.7h6.6v2.8h-6.6v-2.8zm4.9 14.2c-1.2 0-2.1-.3-2.6-.9-.6-.6-.8-1.6-.8-2.8V14.7h3.2v14.1c0 .3.1.6.2.8.1.2.3.3.6.3h1.1V33h-1.7zm-11-8.7c0-.8-.2-1.5-.7-2-.5-.5-1.1-.7-1.9-.7-.8 0-1.4.2-1.8.6-.4.4-.6 1-.6 1.8l-.3-2.9c.4-.9 1-1.5 1.6-2 .6-.5 1.4-.7 2.3-.7 1.5 0 2.7.5 3.5 1.5.8 1 1.2 2.4 1.2 4.2v8.6h-3.2v-8.4zm-8.3-5.5h3.2v14.1h-3.2V18.8zm-10.6 14.3c-1.6 0-2.8-.4-3.6-1.1-.8-.7-1.2-1.8-1.2-3.3 0-1.4.4-2.4 1.2-3.1.8-.7 2-1 3.7-1h3.8l.2 2.5h-3.9c-.6 0-1.1.1-1.4.4-.3.3-.5.7-.5 1.3 0 .6.2 1 .6 1.3.4.3 1 .4 1.9.4 1 0 1.8-.1 2.3-.3.5-.2.8-.6.8-1.1l.3 2c-.2.4-.4.8-.8 1.1-.4.3-.8.5-1.4.7-.8.1-1.4.2-2 .2zm3.6-9.2c0-.8-.2-1.4-.7-1.8-.5-.4-1.1-.7-2-.7-.5 0-1.1.1-1.6.3-.5.2-1 .4-1.4.7l-2.2-1.8c.6-.6 1.3-1.1 2.2-1.5.9-.4 1.9-.5 3-.5 1.2 0 2.2.2 3.1.6.8.4 1.5 1 1.9 1.8.4.8.7 1.7.7 2.8v9.1h-3v-9z"/>
</svg>