<svg xmlns="http://www.w3.org/2000/svg" width="368.8" height="51" viewBox="0 0 368.8 51">
  <style>
    .st0,.st1{fill:#7c51a0}.st1{fill-rule:evenodd;clip-rule:evenodd}
  </style>
  <path class="st0" d="M65.5 18.7c0 .4 0 .6-.1.6s-.1-.4-.1-1.2v-.6s0 .1.1.2c0 .2 0 .3.1.5v.5zm-.3-7.2v1.2l-.2-.2c-.1-.4-.1-.5-.1-.6v-.1-.3-.2c0-.2.1-.3.2-.5h.1v.7zm-.4-5.4c0 .5-.1.8-.2 1v-.2-.3V5.7v-.3c.1 0 .2.3.2.7zm-8.9 14.7l1.5.1h.1c.2 0 .3-.1.3-.3v-.1-.1-.1l.1-2.8c.1-7.2.2-10.8.3-10.8 0 0 .3.9.7 2.7.5 1.8 1 3.7 1.5 5.7s.8 3.1.8 3.3c.1.5.2 1 .3 1.4.1.4.2.7.3.8.2.3.2.4.3.4l3.2.1h.3c.1 0 .2 0 .3-.1l.1-.1c0-.1 0-.2.1-.4.1-1.9.2-3.2.2-3.8 0-1.5.1-3.4.2-5.7.1-2.8.2-4.8.2-6.2v-1c0-.2 0-.4-.1-.4 0 0-.2 0-.4.1-.1 0-.2 0-.4.1-.2 0-.3.1-.3.1l-.5.1c-.3 0-.4.1-.5.2 0 .1-.1.2-.1.4v.1l-.1 5.9c0 2-.1 3.8-.2 5.4-.1 1.6-.2 2.4-.4 2.4 0 0-.1 0-.1-.1s-.2-.5-.4-1.4c-.3-.9-.6-1.9-.9-3-.3-1.1-.6-2.1-.8-2.9l-1.3-6c0-.2-.1-.3-.1-.3 0-.1-.1-.1-.2-.1s-.2 0-.4-.1h-.1c-.2 0-.7 0-1.5.1-.8 0-1.2.1-1.3.1h-.1l-.1.1v1.6c0 .6 0 1.3-.1 2.2v2.1c0 1.2-.1 3.4-.3 6.8-.1 1.6-.1 2.5-.1 2.8v.5c-.3.1-.2.2 0 .2zm1.5-7.6v-.1.1c.1.2.1.4.1.6v.8c0 .3-.1.6-.1 1.1-.1.4-.1.6-.1.6v-.1c0-.4-.1-.8-.1-1.2 0-.5.1-1.1.2-1.8zm-.7-8.3c.4-.1.7-.1 1.2-.1h.3s.1 0 .1.1-.3.2-1 .2h-.1c-.4 0-.5-.1-.5-.2zm4.4 11.6c.1.1.1.2.1.3 0 .1.1.2.1.2.1.3.2.6.2.7v.8-.1c-.2-.4-.3-1.1-.4-1.9zm-3.7 3.4s.1 0 .1.1v.1h-.7-.1-.1c-.1 0-.1 0-.1-.1s.1-.2.2-.2.2 0 .4.1h.3zM59 8.1c0-.1 0-.1 0 0 0-.1.2.3.4 1.1.1.5.2.8.2 1v-.1c-.3-.7-.5-1.3-.6-2zM44.9 18.8c.1-.1.1-.2.1-.2 0 .1.1.1.1.1l-.1.4c-.1.3-.2.4-.2.4v-.1-.2l.1-.4zm1.5-3.4c.1-.5.3-1.2.5-2.1 0 0 0-.1.1-.1 0-.1 0-.1.1-.2v-.1.1s0 .2-.1.6c-.1.5-.1.8-.1.9 0 .1-.1.2-.2.5l-.2.5c-.1.1-.1 0-.1-.1zm6.4 5.4c0-.1 0-.1.1-.2s.1-.1.2-.1h.5c.3 0 .5 0 .8.1h0-.6-.5c-.3.2-.4.2-.5.2zm0-6.7c-.2-.5-.3-1-.3-1.5v-.1s.1.3.3.8v.8s0 .1 0 0zm-6.2-1.8c.2-1.2.5-2.4.9-3.8v-.1.7c0 .1-.1.5-.3 1.3 0 .1-.1.3-.1.4 0 .2-.1.3-.1.5 0 .1-.1.3-.1.4-.1.5-.2.7-.3.6zm2.2-8.1c0-.1.2-.1.6-.1H50.2v.1c0 .1 0 .1-.1.1H50h-1c-.1-.1-.2-.1-.2-.1zm-2.4 13.9c0-.1.1-.4.2-.8l.2-.7c0-.1.1-.3.2-.5.1 0 .1.1.1.3 0 .1-.1.4-.3.9-.2.5-.3.8-.4.8zm4.7-3.1h.2v.2c-.3 0-.5.1-.8.1H50h-.1c0-.2.4-.3 1.2-.3zm-3.4.4h.9l2.9.1.5 2.9c.1 1 .3 1.7.4 2.1.1.3.2.5.2.5.1 0 .3.1.7.1h.2c.8 0 1.1 0 1.2-.1 0-.1-.1-.5-.3-1.3-.2-.8-.4-1.9-.7-3.4-.3-1.4-.6-2.8-.8-4-.5-2.6-.8-4.4-.9-5.3-.1-.4-.1-.8-.2-1.4-.2-1.5-.4-2.2-.5-2.2h-.2-2.9s-.2 1-.7 2.9c-.5 2-1 4-1.5 6.1-.5 2.1-.9 3.6-1.1 4.7-.2 1-.4 1.8-.6 2.2-.1.2-.1.5-.2.7-.1.2-.1.4-.1.5v.2c0 .1.1.1.2.1h.1c.7 0 1.3-.1 1.8-.2.1 0 .2 0 .2-.1l.1-.1v-.2c0-.1 0-.2.1-.3l1.2-4.5zm3.9-3.8c-.3-.9-.5-1.6-.5-2v-.1-.1s.2.5.5 1.5c0 .1.1.3 0 .7zm-3.9 2l.7-3.2v-.2c0-.1.1-.2.1-.4.1-.2.1-.4.2-.7l1-3.6h.3s.1.4.1 1.2c.1.8.2 1.7.3 2.6.1.9.2 1.4.2 1.5l.4 2.5c-.3 0-.9 0-1.7.1-.8.1-1.3.2-1.6.2zm-20 4.9c-.2.1-.3.1-.4.1-.1 0-.2 0-.4-.1h.8zm4.4-8.9c-.2-.1-.6-.4-1.3-.9-.6-.5-1.2-.9-1.6-1.3 0 0-.3-.2-.7-.5-.4-.3-.7-.4-.7-.5-.1-.1-.2-.1-.3-.1h-1.9c-.4 0-.6 0-.6.1l.2.2.2.2c.9.6 1.8 1.3 2.8 2 1 .7 1.7 1.2 2.1 1.4l2.3 1.7.8.5c.1.1.2.1.3.2h-.3c-.1 0-.2.1-.3.1l-.7.6c-.7.5-1.5 1.1-2.3 1.6-.3.3-1 .8-2 1.4-1 .7-1.9 1.3-2.7 2l-.3.3-.2.2c0 .1.2.1.6.1H27c.3 0 .5-.1.7-.2l1.6-1.1c.4-.4 1-.8 1.7-1.3s1.2-.8 1.4-.9l.6-.4c.4-.3.8-.6 1.4-1 .6-.4 1-.7 1.3-.9 0 0 .1-.1.3-.2.1-.1.2-.2.3-.2l.1-.1-.1-.1s-.1-.1-.3-.2c-.1-.1-.2-.2-.3-.2-.3-.2-.8-.5-1.4-1l-1.5-1-.7-.5zm-4.3-2.8l.4.4c.2.2.3.3.5.4 0 .1 0 .2-.1.2s-.1 0-.2-.1l-.3-.3c0-.2-.1-.2-.1-.3l-.1-.1c-.2-.2-.2-.4-.2-.4l.1.2zM35 12c.1 0 .2.1.3.2.1.1.2.2.4.2v.1c-.1.1-.3 0-.5-.1-.2-.2-.3-.4-.2-.4-.1-.1-.1-.1 0 0zm-4-2.5c.1.1.1.1.2.1.1.1.2.1.2.1.1 0 .1.1.1.1-.1.1-.4 0-.7-.3h.2zm-5.2-3c.1-.1.3-.1.5-.1.1 0 .3 0 .4.1l-.5.1-.4-.1zm3 10.3c0 .1-.1.1-.1.1l.1-.1c0-.1 0-.3.1-.4l.2-.2.3-.3c.1-.1.2-.1.2-.1.1 0 .1.1.1.2-.2.1-.4.3-.5.4-.2.2-.3.4-.4.4zm2.1-7c.5.4 1 .8 1.4 1.2V11.3s-.1 0-.2-.1l-.3-.3-.2-.2c-.2-.2-.4-.3-.4-.3l-.2-.2c0-.3-.1-.4-.1-.4zm1.6 4.3l.2-.2.2-.2c.1-.1.3-.2.4-.3l.2-.2.3-.3c.1-.1.2-.1.2-.1v.2c-.4.3-.8.7-1.5 1.1zm-17.4 4.4c-.2.1-.3.1-.4.1-.1 0-.2 0-.4-.1h.8zm4.5-8.9c-.2-.1-.6-.4-1.3-.9-.6-.5-1.2-.9-1.6-1.3 0 0-.3-.2-.7-.5-.4-.3-.7-.4-.7-.5-.1-.1-.2-.1-.3-.1h-1.9c-.4 0-.6 0-.6.1l.2.2.3.1c.9.6 1.8 1.3 2.8 2 1 .7 1.7 1.2 2.1 1.4l2.3 1.7.8.5c.1.1.2.1.3.2H21c-.1 0-.2.1-.3.1l-.7.6c-.7.5-1.5 1.1-2.3 1.6-.4.3-1 .8-2 1.4-1 .7-1.9 1.3-2.7 2l-.3.3-.2.2c0 .1.2.1.6.1h1.5c.3 0 .5-.1.7-.2l1.6-1.1c.4-.4 1-.8 1.7-1.3s1.2-.8 1.4-.9l.6-.4c.4-.3.8-.6 1.4-1 .6-.4 1-.7 1.3-.9 0 0 .1-.1.3-.2.1-.1.2-.2.3-.2l.1-.1-.1-.1s-.1-.1-.3-.2c-.1-.1-.2-.2-.3-.2-.3-.2-.8-.5-1.4-1l-1.5-1-.8-.4zm-4.3-2.8l.4.4c.2.2.3.3.5.4 0 .1 0 .2-.1.2s-.1 0-.2-.1l-.3-.3-.2-.2-.1-.1c-.2-.2-.2-.4-.2-.4l.2.1zm7.2 5.2c.1 0 .2.1.3.2.1.1.2.2.4.2v.1c-.1.1-.3 0-.5-.1-.2-.2-.3-.4-.2-.4-.1-.1-.1-.1 0 0zm-4-2.5c.1.1.1.1.2.1.1.1.2.1.2.1.1 0 .1.1.1.1-.1.1-.4 0-.7-.3h.2zm-5.2-3c.1-.1.3-.1.5-.1.1 0 .3 0 .4.1l-.5.1-.4-.1zm3 10.3c0 .1-.1.1-.1.1l.1-.1c0-.1 0-.3.1-.4l.2-.2.3-.3c.1-.1.2-.1.2-.1.1 0 .1.1.1.2-.2.1-.4.3-.5.4-.2.2-.3.4-.4.4zm2.1-7c.5.4 1 .8 1.4 1.2V11.3s-.1 0-.2-.1l-.3-.3-.2-.2c-.2-.2-.4-.3-.4-.3l-.2-.2c-.1-.3-.1-.4-.1-.4zm1.6 4.3l.2-.2.2-.2c.1-.1.3-.2.4-.3l.2-.2.3-.3c.1-.1.2-.1.2-.1v.2c-.4.3-.9.7-1.5 1.1zM2.6 18.5c-.2.1-.3.1-.4.1-.1 0-.2 0-.4-.1h.8zm4.5-8.9c-.2-.2-.6-.5-1.2-1-.7-.5-1.2-.9-1.6-1.3 0 0-.3-.2-.7-.5-.4-.3-.7-.4-.7-.5-.2-.1-.3-.1-.3-.1H.7c-.4 0-.6 0-.6.1l.2.2.2.2c.9.6 1.8 1.3 2.8 2 1 .7 1.7 1.2 2.1 1.4l2.3 1.7.8.5c.1.1.2.1.3.2h-.3c-.1 0-.2.1-.3.1l-.7.6c-.7.5-1.5 1.1-2.3 1.6-.3.3-1 .8-2 1.4-1 .7-1.9 1.3-2.7 2l-.3.3-.2.2c0 .1.2.1.6.1h1.5c.3 0 .5-.1.7-.2l1.6-1.1c.4-.4 1-.8 1.7-1.3s1.2-.8 1.4-.9L8 15c.4-.3.8-.6 1.4-1 .6-.4 1-.7 1.3-.9 0 0 .1-.1.3-.2.1-.1.2-.2.3-.2l.1-.1-.1-.1s-.1-.1-.3-.2c-.1-.1-.2-.2-.3-.2-.3-.2-.8-.5-1.4-1l-1.5-1-.7-.5zM2.8 6.8c.1 0 .2.1.4.3.2.2.3.3.5.4 0 .1 0 .2-.1.2s-.1 0-.2-.1c0-.1-.1-.2-.2-.3-.1-.1-.2-.1-.2-.2L2.9 7c-.2-.2-.2-.3-.2-.4l.1.2zM10 12c.1 0 .2.1.3.2.1.1.2.2.4.2v.1c-.1.1-.3 0-.5-.1-.2-.2-.3-.4-.2-.4-.1-.1-.1-.1 0 0zM6 9.5c0 .1.1.1.2.2s.2.1.2.1c.1 0 .1.1.1.1-.1.1-.4 0-.7-.3l.2-.1zm-5.2-3c.1-.1.2-.1.4-.1.1 0 .3 0 .4.1H.8zm3 10.3c0 .1-.1.1-.1.1l.1-.1c0-.1 0-.3.2-.4l.2-.2.3-.3c.1-.1.2-.1.2-.1.1 0 .1.1.1.2-.2.1-.4.3-.5.4-.3.2-.4.4-.5.4zm2-7c.5.4 1 .8 1.4 1.2V11.3s-.1 0-.2-.1c0-.2-.1-.3-.2-.4l-.2-.2c-.2-.2-.4-.3-.4-.3l-.2-.2c-.1-.2-.1-.3-.2-.3zm1.7 4.3l.2-.2.2-.2c.1-.1.3-.2.4-.3l.2-.2.3-.3c.1-.1.2-.1.2-.1v.2c-.4.3-.9.7-1.5 1.1z"/>
  <path class="st0" d="M117.7 18.7c0 .6 0 .9-.1.9 0 0 0-.1-.1-.4 0-.3-.1-.5-.1-.6 0-.2.1-.3.1-.3.1 0 .2.1.2.4m.8-14.8s-.1.1-.3.1c-.2 0-.3.1-.4.1-.1 0-.2 0-.5-.1-.3 0-.4-.1-.4-.1s.1-.1.4-.1c0-.1.1-.1.3-.1h.2c.4.1.7.1.7.2zm-.6-.3h-.5-.1-.2c-.2 0-.3.1-.3.4 0 3.6.1 6.7.2 9.5l.2 4.5c.1 1.6.1 2.5.2 2.6 0 .1.2.2.4.2s.9 0 1.9.1H125.4c.1 0 .1-.3.1-1v-.6-.3c0-.1-.2-.1-.4-.2-.3-.1-.5-.1-.9-.1-.3 0-1.1 0-2.5-.1s-2.1-.1-2.1-.2v-.1c0-.1 0-.2-.1-.4 0-.1 0-.3-.1-.4-.1-.7-.2-2.2-.3-4.7-.1-2.5-.2-4.4-.2-5.8 0-.6 0-1 .1-1 .1-.1 1.5-.2 4.3-.2h.7c.4 0 .6 0 .7-.1.1-.1.1-.3.1-.7l.1-.6v-.6c0-.1 0-.2-.1-.3-.1-.1-1.4-.1-4-.1-1.4.1-2.4.1-2.9.2zm3.2 1.8s-.1 0 0 0c-.1-.1.2-.2.8-.2.6 0 .9.1.9.1h-.1c-.4.1-.7.1-.8.1-.1.1-.4.1-.8 0zm-2.4 7.5c.1.7.1 1.1.1 1.3 0 .3 0 .6-.1 1v.1s0-.1-.1-.2c0-.1 0-.3-.1-.5v-.5-.3-.3s0-.1.1-.3c0 0 0-.2.1-.3 0-.1 0-.1 0 0zm6.2 6.2l-.1.1H123s0-.1.1-.1c.2-.1.4-.1.6-.1.1 0 .3 0 .6.1h.6zm-10.9-.4c0 .4 0 .6-.1.6s-.1-.4-.1-1.2v-.6s0 .1.1.2c0 .2 0 .3.1.5-.1.3 0 .4 0 .5zm-.4-7.2v1.2l-.2-.2c-.1-.4-.1-.5-.1-.6v-.1-.3-.2c0-.2.1-.3.2-.5h.1v.7zm-.4-5.4c0 .5-.1.8-.2 1v-.2-.3V5.7v-.3c.2 0 .2.3.2.7zm-8.9 14.7l1.5.1h.1c.2 0 .3-.1.3-.3v-.1-.1-.1l.1-2.8c.1-7.2.2-10.8.3-10.8 0 0 .3.9.7 2.7.5 1.8 1 3.7 1.5 5.7s.8 3.1.8 3.3c.1.5.2 1 .3 1.4.1.4.2.7.3.8.1.2.2.3.2.3l3.2.1h.3c.1 0 .2 0 .3-.1l.1-.1c0-.1 0-.2.1-.4.1-1.9.2-3.2.2-3.8 0-1.5.1-3.4.2-5.7.1-2.8.2-4.8.2-6.2v-.9c0-.2 0-.4-.1-.4 0 0-.2 0-.4.1-.1 0-.2 0-.4.1-.2 0-.3.1-.3.1l-.5.1c-.3 0-.4.1-.5.2 0 .1-.1.2-.1.4v.1l-.1 5.9c0 2-.1 3.8-.2 5.4-.1 1.6-.2 2.4-.4 2.4 0 0-.1 0-.1-.1s-.2-.5-.4-1.4c-.3-.9-.6-1.9-.9-3-.3-1.1-.6-2.1-.8-2.9l-1.3-6c0-.2-.1-.3-.1-.3 0-.1-.1-.1-.2-.1s-.2 0-.4-.1h-.1c-.2 0-.7 0-1.5.1-.8 0-1.2.1-1.3.1h-.1l-.1.1v1.6c0 .6 0 1.3-.1 2.2v2.1c0 1.2-.1 3.4-.3 6.8-.1 1.6-.1 2.5-.1 2.8v.5c-.1.1 0 .2.1.2zm1.5-7.6v-.1c.1 0 .1.1 0 .1.1.2.1.4.1.6v.8c0 .3-.1.6-.1 1.1-.1.4-.1.6-.1.6v-.1c0-.4-.1-.8-.1-1.2.1-.5.1-1.1.2-1.8zm-.6-8.3c.4-.1.7-.1 1.2-.1h.3s.1 0 .1.1-.3.2-1 .2h-.1c-.4 0-.6-.1-.5-.2-.1 0-.1 0 0 0zm4.4 11.6c.1.1.1.2.1.3 0 .1.1.2.1.2.1.3.2.6.2.7v.8-.1c-.2-.4-.4-1.1-.4-1.9zm-3.7 3.4s.1 0 .1.1v.1h-.7-.1-.1c-.1 0-.1 0-.1-.1s.1-.2.2-.2.2 0 .4.1h.3zm1.6-11.8c0-.1 0-.1 0 0 0-.1.2.3.4 1.1.1.5.2.8.2 1v-.1c-.4-.7-.5-1.3-.6-2zM95.1 19.9c.5 0 .8-.1.9-.1h.4c.2 0 .4.1.4.1v.1h-.3-1.1c-.5 0-.7-.1-.8-.1.1.1.2 0 .5 0zm-2 .5s-.1-.1 0 0c-.1-.1 0-.2.1-.2h.8c.3 0 .5.1.5.2-.2.1-.5.1-.7.1-.2-.1-.4-.1-.7-.1zm8.5-16.8c.1 0 .1 0 .1.1v.1l-.1.1s-.1 0-.2-.1h-.6c-.1 0-.1 0-.1-.1v-.1c.1-.1.2-.1.3-.1 0 0 .1 0 .3.1.1-.1.2 0 .3 0zm-8.5 0h-.5c-.2 0-.4 0-.5.1 0 .1-.1.3-.1.6v2.1c0 6.1 0 9.9.1 11.5v2.7l.1.1c.1.1.5.1 1.1.1H101.8c.2 0 .3 0 .3-.1V20.1 18v-2.8L102 4.9V3.6c0-.1 0-.2-.1-.2 0 0-.1-.1-.3-.1h-2c-.3 0-1 0-2 .1-1 0-2 .1-3 .1-.8.1-1.4.1-1.5.1zM92.7 5c-.1 0-.1-.1-.1-.3 0-.2-.1-.3-.1-.5V4h.1v.1c0 .1.1.3.1.7V5zm.5.7v2.2c-.1 0-.1-.5-.1-1.6 0-.5 0-.8.1-.8l.1-.1s-.1.1-.1.3zm7.2.1s.1 1.4.1 4.1c0 3.9-.1 6.6-.1 7.9 0 .4-.1.7-.1.7v.4c-.4 0-2-.1-4.9-.4l-.7-.1V17c0-.1 0-.6-.1-1.5s-.1-1.6-.1-2.1L94.4 6h.4c.2 0 1.2 0 2.9-.1H99c.4 0 .8 0 1-.1h.4zm.3 10.9v-.9-1c.1.1.1.5.1 1.2 0 .4 0 .6-.1.7zm.6.5c0 .9 0 1.3-.1 1.3 0 0-.1-.2-.1-.6 0-.4-.1-.6-.1-.8 0-.1 0-.1.1-.1.1.1.2.1.2.2zm-18.4 1.5c0 .6 0 .9-.1.9 0 0 0-.1-.1-.4 0-.3-.1-.5-.1-.6 0-.2.1-.3.1-.3.1 0 .2.1.2.4zm.8-14.8s-.1.1-.3.1c-.2 0-.3.1-.4.1-.1 0-.2 0-.5-.1-.3 0-.4-.1-.4-.1s.1-.1.4-.1c0-.1.1-.1.3-.1h.2c.5.1.7.1.7.2zm-.6-.3h-.5-.1-.2c-.2 0-.3.1-.3.4 0 3.6.1 6.7.2 9.5l.2 4.5c.1 1.6.1 2.5.2 2.6 0 .1.2.2.4.2s.9 0 1.9.1H90.6c.1 0 .1-.3.1-1v-.6-.3c0-.1-.2-.1-.4-.2-.3-.1-.5-.1-.9-.1-.3 0-1.1 0-2.5-.1s-2.1-.1-2.1-.2v-.1c0-.1 0-.2-.1-.4 0-.1 0-.3-.1-.4-.1-.7-.2-2.2-.3-4.7-.1-2.5-.2-4.4-.2-5.8 0-.6 0-1 .1-1 .1-.1 1.5-.2 4.3-.2h.7c.4 0 .6 0 .7-.1.1-.1.1-.3.1-.7v-.5-.6c0-.1 0-.2-.1-.3-.1-.1-1.4-.1-4-.1-1.3 0-2.2 0-2.8.1zm3.2 1.8s-.1 0 0 0c-.1-.1.2-.2.8-.2s.9.1.9.2h-.1c-.4.1-.7.1-.8.1-.1 0-.4 0-.8-.1zM84 12.9v1.3c0 .3 0 .6-.1 1v.1s0-.1-.1-.2c0-.1 0-.3-.1-.5v-.5-.3-.3s0-.1.1-.3c0 0 0-.2.2-.3-.1-.1-.1-.1 0 0zm6.1 6.2l-.1.1H88.2s0-.1.1-.1c.2-.1.4-.1.6-.1.1 0 .3 0 .6.1h.6zm-11.7-2.9c0 1.5 0 2.3-.1 2.3 0 0 0-.3-.1-1v-1.3c0-.1 0-.2.1-.2.1-.1.1 0 .1.2zm-.1-12.5c-.2 0-.3 0-.4.1 0 .1-.1.3-.1.6 0 2.2-.1 6.6-.1 13.2V20.8c0 .1.1.2.3.2H79.3l.5-.1c.1 0 .2-.1.2-.2v-3.1V4.1c0-.2 0-.4-.1-.4-.1-.1-.3-.1-.6-.1h-1zm0 .3c.1-.1.2-.2.4-.2.1 0 .2 0 .4.1s.3.1.4.1c0 .1-.1.2-.1.2-.6.1-.9.1-.9.1-.2 0-.2 0-.2-.1V4zm1.1 2.3c0-.1 0-.2.1-.2s.2.8.2 2.3c0 .7 0 1.1-.1 1.1 0 0-.1 0-.1-.1-.1-1-.2-1.7-.2-2 0-.3.1-.7.1-1.1zm-.8 8.3c.2 0 .3.2.3.5 0 .1 0 .2-.1.3-.1.3-.2.3-.2.2-.1-.3-.1-.5-.1-.6-.1-.1 0-.2.1-.4zm-6.4 2.7v-.1s0 .1.1.3c0 .2.1.4.1.6v.6c0 1.2 0 1.8-.1 1.8v-.1c-.1-.5-.1-1-.1-1.3v-.8-1zM68.5 3.9c.2-.1.4-.1.5-.1h.4l.1.1V4h-.2c-.1 0-.2 0-.4-.1-.3.1-.5 0-.4 0zm-.4-.2V4.3c0 .2 0 .5.1.9l.1.2c0 .2.1.3.3.3h1.1c.7 0 1.1 0 1.1.1.1 0 .1.8.1 2.5v2.6c-.1 3.4-.1 6.5-.1 9.1v.7c0 .2.2.3.6.3H72.8s.1 0 .1-.1v-.1-1.3l.3-13.1c0-.1.2-.1.4-.1h.8c.3 0 .6.1.8.1H76.1c.1 0 .1-.2.1-.5V4.7c0-.2 0-.3-.1-.4-.1-.1-.2-.1-.4-.1l-.9-.1c-.2 0-1-.1-2.3-.1-.6 0-1.1-.1-1.6-.2-1.4-.3-2.3-.4-2.6-.4-.1.2-.2.2-.2.3zM72.3 7c-.1 1.2-.1 1.8-.2 1.8s-.1-.6-.1-1.6c0-.6.1-1 .2-1s.2.2.2.5c-.1.1-.1.3-.1.3zm-.7 1.2c0 .9 0 1.4-.1 1.5-.1 0-.1-.5-.1-1.5 0-.5 0-.7.1-.7.1.1.1.3.1.7zm-.4 6.8c0 .4-.1.7-.1.7-.1 0-.1-.2-.1-.7 0-.3 0-.4.1-.4 0 0 .1.2.1.4z"/>
  <path class="st0" d="M186.9 18.7c0 .4 0 .6-.1.6s-.1-.4-.1-1.2v-.6s0 .1.1.2c0 .2 0 .3.1.5v.5zm-.4-7.2v1.2l-.2-.2c-.1-.4-.1-.5-.1-.6v-.1-.3-.2c0-.2.1-.3.2-.5h.1v.7zm-.4-5.4c0 .5-.1.8-.2 1v-.2-.3V5.7v-.3c.2 0 .2.3.2.7zm-8.8 14.7l1.5.1h.1c.2 0 .3-.1.3-.3v-.1-.1-.1l.1-2.8c.1-7.2.2-10.8.3-10.8 0 0 .3.9.7 2.7.5 1.8 1 3.7 1.5 5.7s.8 3.1.8 3.3c.1.5.2 1 .3 1.4.1.4.2.7.3.8.1.2.2.3.2.3l3.2.1h.3c.1 0 .2 0 .3-.1l.1-.1c0-.1 0-.2.1-.4.1-1.9.2-3.2.2-3.8 0-1.5.1-3.4.2-5.7.1-2.8.2-4.8.2-6.2v-.9c0-.2 0-.4-.1-.4 0 0-.2 0-.4.1-.1 0-.2 0-.4.1-.2 0-.3.1-.3.1h-.8c-.3 0-.4.1-.5.2 0 .1-.1.2-.1.4v.1l-.1 5.9c0 2-.1 3.8-.2 5.4-.1 1.6-.2 2.4-.4 2.4 0 0-.1 0-.1-.1s-.2-.5-.4-1.4c-.3-.9-.6-1.9-.9-3-.3-1.1-.6-2.1-.8-2.9l-1.3-6c0-.2-.1-.3-.1-.3 0-.1-.1-.1-.2-.1s-.2 0-.4-.1h-.1c-.2 0-.7 0-1.5.1-.8 0-1.2.1-1.3.1h-.1l-.1.1v1.6c0 .6 0 1.3-.1 2.2v2.1c0 1.2-.1 3.4-.3 6.8-.1 1.6-.1 2.5-.1 2.8v.5c.1.2.2.3.4.3zm1.4-7.6v-.1c.1 0 .1.1 0 .1.1.2.1.4.1.6v.8c0 .3-.1.6-.1 1.1-.1.4-.1.6-.1.6v-.1c0-.4-.1-.8-.1-1.2.1-.5.1-1.1.2-1.8zm-.6-8.3c.4-.1.7-.1 1.2-.1h.3s.1 0 .1.1-.3.2-1 .2h-.1c-.4 0-.6-.1-.5-.2-.1 0-.1 0 0 0zm4.4 11.6c.1.1.1.2.1.3 0 .1.1.2.1.2.1.3.2.6.2.7v.8-.1c-.2-.4-.4-1.1-.4-1.9zm-3.7 3.4s.1 0 .1.1v.1h-.7-.1-.1c-.1 0-.1 0-.1-.1s.1-.2.2-.2.2 0 .4.1h.3zm1.6-11.8c0-.1 0-.1 0 0 0-.1.2.3.4 1.1.1.5.2.8.2 1v-.1c-.4-.7-.5-1.3-.6-2zM168 19.9c.5 0 .8-.1.9-.1h.4c.2 0 .4.1.4.1v.1h-.3-1.1c-.5 0-.7-.1-.8-.1.1.1.2 0 .5 0zm-2 .5s-.1-.1 0 0c-.1-.1 0-.2.1-.2h.8c.3 0 .5.1.5.2-.2.1-.5.1-.7.1-.2-.1-.4-.1-.7-.1zm8.5-16.8c.1 0 .1 0 .1.1v.1l-.1.1s-.1 0-.2-.1h-.6c-.1 0-.1 0-.1-.1v-.1c.1-.1.2-.1.3-.1 0 0 .1 0 .3.1.1-.1.2 0 .3 0zm-8.5 0h-.5c-.2 0-.4 0-.5.1-.1.1-.1.2-.1.5v2.1c0 6.1 0 9.9.1 11.5v2.7l.1.1c.1.1.5.1 1.1.1H174.7c.2 0 .3 0 .3-.1V20v-2.1-2.8l-.1-10.3V3.6c0-.1 0-.2-.1-.2 0 0-.1-.1-.3-.1h-2c-.3 0-1 0-2 .1-1 0-2 .1-3 .1-.8.1-1.4.1-1.5.1zm-.4 1.4c-.1 0-.1-.1-.1-.3 0-.2-.1-.3-.1-.5V4l.1-.1V4c0 .1.1.3.1.7V5zm.5.7v2.2c-.1 0-.1-.5-.1-1.6 0-.5 0-.8.1-.8l.1-.1s-.1.1-.1.3zm7.2.1s.1 1.4.1 4.1c0 3.9-.1 6.6-.1 7.9 0 .4-.1.7-.1.7v.4c-.4 0-2-.1-4.9-.4l-.7-.1V17c0-.1 0-.6-.1-1.5s-.1-1.6-.1-2.1l-.1-7.4h.4c.2 0 1.2 0 2.9-.1h1.3c.4 0 .8 0 1-.1h.4zm.3 10.9v-.9-1c.1.1.1.5.1 1.2 0 .4 0 .6-.1.7zm.6.5c0 .9 0 1.3-.1 1.3 0 0-.1-.2-.1-.6 0-.4-.1-.6-.1-.8 0-.1 0-.1.1-.1.1.1.2.1.2.2zM170.7.1l-1.3 2.1-.1.1v.1H170.9c.3 0 .6-.1.7-.4l1.1-1.9.1-.1c0-.1-.1-.1-.4-.1h-1.1c-.4.1-.6.2-.6.2zm-.5 1.9c.1 0 .2 0 .2.1.1 0 .1.1.1.1s0 .1-.1.1h-.1-.1-.1-.4c-.1 0-.1 0-.1-.1.1-.2.3-.3.6-.2zm2.1-1.9c.1-.1.2-.1.2-.1 0 .1-.1.2-.2.3l-.1.1h-.1s.1-.1.2-.3zm-10.9 16.1c0 1.5 0 2.3-.1 2.3 0 0 0-.3-.1-1v-1.3c0-.1 0-.2.1-.2 0-.1.1 0 .1.2zm-.1-12.5c-.2 0-.3 0-.4.1 0 .1-.1.3-.1.6 0 2.2-.1 6.6-.1 13.2V20.8c0 .1.1.2.3.2H162.3l.5-.1c.1 0 .2-.1.2-.2v-.2l-.1-2.9V4.1c0-.2 0-.4-.1-.4-.1-.1-.3-.1-.6-.1h-.9zm0 .3c.1-.1.2-.2.4-.2.1 0 .2 0 .4.1s.3.1.4.1c0 .1-.1.2-.1.2-.6.1-.9.1-.9.1-.2 0-.2 0-.2-.1V4zm1.1 2.3c0-.1 0-.2.1-.2s.2.8.2 2.3c0 .7 0 1.1-.1 1.1 0 0-.1 0-.1-.1-.1-1-.1-1.7-.1-2-.1-.3-.1-.7 0-1.1zm-.9 8.3c.1 0 .1 0 0 0 .2 0 .3.2.3.5 0 .1 0 .2-.1.3-.1.3-.2.3-.2.2-.1-.3-.1-.5-.1-.6 0-.1.1-.2.1-.4zm-9.9 4.1c0 .6 0 .9-.1.9 0 0 0-.1-.1-.4 0-.3-.1-.5-.1-.6 0-.2.1-.3.1-.3.1 0 .2.1.2.4zm.8-14.8s-.1.1-.3.1c-.2 0-.3.1-.4.1-.1 0-.2 0-.5-.1-.3 0-.4-.1-.4-.1s.1-.1.4-.1c0-.1.1-.1.3-.1h.2c.5.1.7.1.7.2zm-.6-.3h-.5-.1-.2c-.2 0-.3.1-.3.4 0 3.6.1 6.7.2 9.5l.2 4.5c.1 1.6.1 2.5.2 2.6 0 .1.2.2.4.2s.9 0 1.9.1H159.3c.1 0 .1-.3.1-1v-.6-.3c0-.1-.2-.1-.4-.2-.3-.1-.5-.1-.9-.1-.3 0-1.1 0-2.5-.1s-2.1-.1-2.1-.2v-.1c0-.1 0-.2-.1-.4 0-.1 0-.3-.1-.4-.1-.7-.2-2.2-.3-4.7-.1-2.5-.2-4.4-.2-5.8 0-.6 0-1 .1-1 .1-.1 1.5-.2 4.3-.2h.7c.4 0 .6 0 .7-.1.1-.1.1-.3.1-.7l.1-.6v-.6c0-.1 0-.2-.1-.3-.1-.1-1.4-.1-4-.1-1.4.1-2.3.1-2.9.2zm3.2 1.8s-.1 0 0 0c-.1-.1.2-.2.8-.2.6 0 .9.1.9.1h-.1c-.4.1-.7.1-.8.1-.1.1-.4.1-.8 0zm-2.3 7.5c.1.7.1 1.1.1 1.3 0 .3 0 .6-.1 1v.1s0-.1-.1-.2c0-.1 0-.3-.1-.5v-.5-.3-.3s0-.1.1-.3c-.1 0-.1-.2.1-.3-.1-.1-.1-.1 0 0zm6.1 6.2l-.1.1H156.9s0-.1.1-.1c.2-.1.4-.1.6-.1.1 0 .3 0 .6.1h.6zM147.2 8.9c0 .2.1.3.1.4v.1c0 .7-.1 1.1-.2 1.1-.1-.6 0-1.1.1-1.6zm-6.9 4.2s.2-.1.6-.1c.4 0 .9-.1 1.6-.1.6 0 1.3 0 1.9-.1.6 0 1.2-.1 1.8-.1h1.9c.4 0 .6 0 .6-.1.1 0 .1-.1.1-.3v-.4-.4c.1-2.8.1-4.4.1-4.8V5v-.6c0-.1 0-.2-.1-.2s.1-.2 0-.2c-.2-.1-1.5-.2-3.9-.3-2.3-.2-4.2-.3-5.4-.3h-.9c-.1 0-.1.3-.1.7-.1 1.4-.2 4.2-.4 8.4s-.2 6.9-.3 8v.3l.2.2h.2c.1 0 .2 0 .3.1l.9.1h.5c.1 0 .1-.3.1-.7v-2.6-3.2c.2-1.1.2-1.6.3-1.6zm7.8-8.6s-.1.1-.4.1c-.3 0-.5.1-.6.1-.1 0-.3 0-.6-.1s-.5-.1-.5-.2.4-.1 1.1-.1h.1c.1 0 .2 0 .5.1.3 0 .4 0 .4.1zm-5.5.6l4.3.3-.1 1.2c0 .2 0 .6-.1 1.3 0 .7-.1 1.3-.1 1.9 0 .6-.1.8-.1.9h-.3c-.6 0-2.2 0-4.8-.1h-.9l-.1-.4v-.7c0-.7 0-1.6.1-2.7s.1-1.6.2-1.7h.4c.1 0 .3.1.6.1.3-.1.6-.1.9-.1zm-3.5.3v-.7-.5-.1c.1 0 .1.1.1.4v.2c.2.5.1.8-.1.7zm-.1-.1c0 .1 0 .4-.1.8s-.1.6-.1.6v-.3c0-.8.1-1.3.2-1.4l.1-.1s.1.1.1.2v.2zm3.9 7.1c0 .2-.2.3-.7.3-.4 0-.6-.1-.7-.1-.1-.1-.1-.2-.1-.2 1-.2 1.4-.1 1.5 0zm-4.6 6.4v.9c0 .5 0 .7-.1.7s-.1 0-.1-.1v-.5c0-.4 0-.6.1-.6-.1 0 0-.2.1-.4zm-7.6 1.1s-.5.1-1.4.1c-.1 0-.1 0-.1-.1v-.1c.1-.1.1-.1.2-.1s.3 0 .7.1c.4.1.6.1.6.1zM128 4h-.3-.1c-.1 0-.1 0-.1.1l-.1.1V4.8c0 .4-.1.9-.1 1.6 0 1.3-.1 2.3-.2 3.2-.1.4-.1 2-.2 4.8s-.1 4.8-.1 5.9v.4c0 .1.2.1.4.2.3 0 1.6.1 3.8.1h5.1c.1 0 .3 0 .3-.1l.1-.1v-.7-.4c0-.3 0-.5-.1-.5-.1-.1-.8-.2-1.8-.2-2.5-.1-3.8-.2-4.1-.2l-1.2-.1v-1V15.3c.1-1.2.1-1.8.2-1.9.1 0 1-.1 2.7-.1 2.1-.1 3.2-.2 3.5-.4.1-.1.1-.3.1-.6 0-.4 0-.7.1-.9v-.2c0-.1-.1-.1-.2-.2-.3-.1-1-.1-2.2-.1H131c-1.2 0-1.8 0-1.9-.1l.1-2.7.2-2h.5c.2 0 .5 0 .9-.1h2.3l3.2.1.1-.6c.1-.3.1-.6.1-.9 0-.2 0-.4-.1-.4-.1-.1-1.1-.1-2.9-.2H128zm7.7.5c.1.1.2.1.2.2v.1l-.1.1c-.1 0-.2 0-.3-.1-.4-.1-.7-.1-.7-.2l.1-.1c.1-.1.2-.1.3-.1 0 0 .2 0 .5.1zm-8.2 6.7c0-.1.1-.1.1-.1s.1.2.1.7v1c0 .2-.1.4-.1.8-.1.3-.1.5-.1.5V14v-.9c-.2-.7-.2-1.3 0-1.9zm.3-1.3c.1-.1.1.1.1.4v.1c0 .2-.1.2-.2.2-.1-.2-.1-.3-.1-.4.1 0 .1-.2.2-.3zm7.3 1.3s.1 0 0 0c0 .1-.1.1-.2.2l-.1.1h-.1c-.1 0-.1 0-.1.1-.4 0-.7-.1-.7-.2l.1-.1c.2-.1.3-.1.5-.1.1-.1.3-.1.6 0zm-4.6-5.5c0 .1 0 .1-.1.1l-.1.1h-.2c-.1 0-.2 0-.4-.1l-.9-.1h.1c.3-.1.5-.1.7-.1.1 0 .2 0 .4.1h.5zm1.7 6.6c.1 0 .2.1.2.2 0 0 0 .1-.1.1h-.3c-.1 0-.4-.1-.9-.1-.4-.1-.7-.1-.7-.2h.1c.3 0 .5-.1.6-.1.2 0 .6 0 1.1.1z"/>
  <path class="st0" d="M239.8 19.2c.1 0 .3.4.4 1.3-.1 0-.1-.1-.2-.4-.2-.3-.2-.6-.2-.9 0 .1 0 0 0 0zm-4.5 2.2c.1 0 .1 0 0 0h.5c.1 0 .3-.1.4-.2v.4l-.1.1h-.1s-.3-.2-.7-.3zm11.4-17.2c.1 0 .1.1.1.1 0 .1 0 .1-.1.1-.2 0-.5-.1-.8-.3-.2-.1-.2-.2-.2-.2.3 0 .7.1 1 .3zm-11.9-.9c-.3 0-.4.1-.4.3V20.3c0 .9.1 1.4.1 1.4.1.2.3.2.6.2h.3c.5 0 .8 0 1-.1.1-.1.1-.4.1-.9V20c-.1-1.5-.1-2.8-.1-4 0-1.8-.1-4.6-.2-8.5.1.1.6 2.1 1.5 6 .1.7.4 1.5.6 2.4 0 .1.1.3.2.7.1.3.2.7.3 1 .1.4.2.7.3 1 .3 1.3.5 2 .6 2.2.1.1.3.1.9.1h1.3c.1 0 .1 0 .1-.1s.1-.1.1-.1v-.3c0-.1.1-.3.1-.4 0 0 0-.2.1-.6 0-.4.1-.6.1-.9.2-1.2.4-1.9.4-2.1.2-1.5.6-3.6 1.1-6.1.5-2.6.9-4 1.1-4.1V12c-.1 3-.2 5.5-.2 7.6v.6s.2.1.5.1c.9.1 1.4.2 1.6.2h.1c.1 0 .1-.1.1-.2v-.1s-.1-.1-.1-.3v-.2c0-.3 0-1.1.1-2.4v-2.7c0-1.5.1-2.7.1-3.4 0-2.5.1-4.3.1-5.2V4.3c0-.1 0-.2-.1-.3 0 0-.2-.1-.4-.1-.4-.1-1.2-.2-2.4-.2h-.6c-.2 0-.4 0-.4.1-.1.1-.2.3-.3.5-.6 2.1-.9 3.5-1.1 4-.8 3.8-1.3 6.1-1.5 7v.8-.6c-.1 0-.1-.3-.3-.8-.1-.5-.3-1.2-.4-2-.2-.8-.3-1.3-.4-1.6 0-.2-.1-.5-.2-.9l-.2-.7-1.5-5.7c-.1-.4-.2-.7-.3-.7-.2-.1-.9-.1-2.1-.1h-.3zM239 13v.2c0 .1 0 .1-.1.1 0 0-.1-.1-.2-.4-.1-.3-.1-.5-.1-.7.2-.1.3.2.4.8zm7.6-5.8c0 .5 0 .7-.1.7s-.1-.2-.1-.7c0-.4 0-.7.1-.7 0 0 .1.2.1.7zm-11.1-1.7v1c0 .4 0 .5-.1.5s-.1-.4-.1-1.1c0-.4 0-.7.1-.9 0-.1.1-.1.1-.1v.6zm10.2 6.4c0 .1 0 .1-.1.1-.1-.1-.1-.1-.1-.2s0-.1.1-.1c0 0 .1.1.1.2zM243 10c-.1.1-.1.2-.1.2-.1 0-.1 0-.1-.1s0-.2.1-.3c0-.1.1-.2.1-.2l.1.1c0 .1.1.1.1.1-.1 0-.2.1-.2.2zm-1.2 3.9c0 .1-.1.4-.3.7-.2.3-.3.5-.3.5 0-.1.1-.4.3-.9.2-.5.3-.8.4-.8v.1c0 .2-.1.3-.1.4zm4.9 2.6c-.1.1-.1 0-.2 0-.1-.1-.1-.1-.1-.2v-1.1c0 .1.1.3.1.6.2.3.2.6.2.7zm-.3 1.3c0 .5 0 .8-.1.8 0 0-.1-.2-.1-.8v-.1c0-.4 0-.6.1-.6.1-.1.1.2.1.7zm-10.6-.9v-.6-.9-.6-.6c0-1 0-1.5.1-1.5 0 0 .1.2.1.6v1.4c0 1.7 0 2.5-.1 2.5l-.1-.3zm-12.2.6c0 .1-.1.2-.1.2-.1 0-.1-.2-.1-.5s0-.7.1-1c0-.2.1-.3.1-.3s.1.2.1.6v.2c.1.3 0 .6-.1.8zm4.3-1.6c-.1 0-.4-.3-.9-.9-.5-.6-.8-1-.9-1.1 0 0-.1-.1-.1-.2s0-.1.1-.2c0 0 .1 0 .1.1s.1.1.2.2.1.2.2.3c.1.1.3.4.7 1 .5.5.6.8.6.8zm3.7-6.6v.3c0 .4 0 .5-.1.5s-.2-.1-.2-.4c0-.1 0-.5.1-1s.1-.8.2-.8v1.4zm-4.5-3.4l3.2.1c.1.1.1.3.1.6V10.9c0 .1-.2.1-.6.1-.3 0-.7 0-1.2-.1-.5 0-.8-.1-.8-.1l-3.6-.1.1-4.7c.1-.1 1-.1 2.8-.1zm-4.1.2c0 1.4 0 2-.1 2v-.3-.9-.8c0-.1 0-.2.1-.2v.2zm2.5-1c-.2 0-.4.1-.5.1-.2 0-.2-.1-.2-.1 0-.1 0-.2.1-.2h.3c.2 0 .3 0 .4-.1.1 0 .1.1.1.1l-.2.2zm-3.1-1.2c-.1.2-.2 3.4-.4 9.4-.1 2.4-.1 4.1-.2 4.9 0 .1 0 .5-.1 1 0 .5-.1.9-.1 1.1 0 .3 0 .4.1.5 0 .1.1.1.1.1.1.1.5.1 1.3.1h.6c.1 0 .2-.1.2-.2V20.5c0-.3 0-1.1.1-2.3v-2.3-2.5c0-.6.1-1.1.1-1.3.1 0 .4.4 1.1 1.2 3.6 4.7 5.6 7 5.8 7l2.2-1c0-.1 0-.1-.1-.3l-1.9-2-.8-.8-1.1-1.1c-.3-.3-.7-.7-1-1.1-.4-.4-.6-.8-.9-1.1-.2-.3-.3-.5-.3-.7 0-.1.5-.1 1.5-.1 2.4 0 3.6-.1 3.6-.3 0 0 0-.3.1-.7 0-.4.1-.9.1-1.5V7.9c0-.9 0-1.8-.1-2.7-.1-.9-.1-1.4-.1-1.6 0-.3-1.1-.4-3.2-.4h-4.9c-1.1.5-1.7.6-1.7.7zm5.5 7.3c.1 0 .2.1.2.1v.1c-.1 0-.1.1-.3.1h-1.2s0-.1.1-.1.2-.1.4-.1h.5c.1-.1.3-.1.3-.1zm2.9 8.4c-.1 0-.1 0 0 0 0-.1.1-.1.4-.1H231.8c.2.1.3.1.3.1-.3 0-.6.1-.7.1-.1 0-.3-.1-.6-.1zm-.3-15.1c.3 0 .6 0 .7.1.2.1.3.1.3.2.1.1.1.2.2.4 0 .1.1.1.1.2v.1s-.1-.1-.1-.2c-.1-.1-.2-.3-.3-.4-.1-.1-.3-.2-.5-.3l-.4-.1c-.1 0-.1 0 0 0zm-17.7 15.4c.5 0 .8-.1.9-.1h.4c.2 0 .4.1.4.1v.1h-.3-1.1c-.5 0-.7-.1-.8-.1.1.1.2 0 .5 0zm-2 .5c-.1 0-.1-.1 0 0-.1-.1 0-.2.1-.2h.8c.3 0 .5.1.5.2-.2.1-.5.1-.7.1-.2-.1-.4-.1-.7-.1zm8.5-16.8c.1 0 .1 0 .1.1v.1l-.1.1s-.1 0-.2-.1h-.6c-.1 0-.1 0-.1-.1v-.1c.1-.1.2-.1.3-.1 0 0 .1 0 .3.1.1-.1.2 0 .3 0zm-8.5 0h-.5c-.2 0-.4 0-.5.1-.1.1-.1.2-.1.5v2.1c0 6.1 0 9.9.1 11.5v2.7l.1.1c.1.1.5.1 1.1.1H219.5c.2 0 .3 0 .3-.1V20v-2.1-2.8l-.1-10.3V3.6c0-.1 0-.2-.1-.2 0 0-.1-.1-.3-.1h-2c-.3 0-1 0-2 .1-1 0-2 .1-3 .1-.8.1-1.4.1-1.5.1zm-.4 1.4c-.1 0-.1-.1-.1-.3 0-.2-.1-.3-.1-.5V4l.1-.1V4c0 .1.1.3.1.7V5zm.5.7v2.2c-.1 0-.1-.5-.1-1.6 0-.5 0-.8.1-.8l.1-.1c-.1 0-.1.1-.1.3zm7.2.1s.1 1.4.1 4.1c0 3.9-.1 6.6-.1 7.9 0 .4-.1.7-.1.7v.4c-.4 0-2-.1-4.9-.4l-.7-.1V17c0-.1 0-.6-.1-1.5s-.1-1.6-.1-2.1L212 6h.4c.2 0 1.2 0 2.9-.1h1.3c.4 0 .8 0 1-.1h.5zm.2 10.9v-.9-1c.1.1.1.5.1 1.2.1.4 0 .6-.1.7zm.7.5c0 .9 0 1.3-.1 1.3 0 0-.1-.2-.1-.6 0-.4-.1-.6-.1-.8 0-.1 0-.1.1-.1.1.1.2.1.2.2zm-16.2-5.7c0-.1.5-.1 1.4-.1.9 0 1.4 0 1.4.1 0 0-.3.1-.8.1s-1 .1-1.4.1h-.5c-.1-.1-.1-.1-.1-.2zm2.5 9.3l.1-.1h.6c.1.1.1.2 0 .3-.5 0-.8-.1-.7-.2zm-7.9-1.6c0-.1 0-.1.1-.1s.1 0 .1.1c0 0 0 .3-.1.7-.1.4-.1.6-.1.6v-.3-.4V19.2zm9.2-2.4c.1-.8.1-1.1.2-1.1 0 0 .1.1.1.4v.5c0 .7-.1 1.1-.2 1.1 0 0-.1-.1-.1-.2v-.7zm-9.2-6.4c0-.4 0-.6.2-.6.1 0 .2.2.1.6 0 .4-.1.5-.1.5-.1 0-.1-.1-.2-.5zm.1-2.3c0-.3.1-.4.1-.4.1 0 .1.1.1.4 0 .3 0 .4-.1.4 0 0-.1-.2-.1-.4zm9 .6c.1-.9.1-1.4.1-1.4.1 0 .1.4.1 1.2v1c0 .6-.1.9-.2.9 0 0-.1 0-.1-.1v-.5c.1-.5.1-.9.1-1.1zm-9.4-3.8c-.1.1-.1 1.8-.1 5v5.5c-.1 1.4-.1 3.1-.1 5v1.1c0 .3.1.4.4.4h1.4c.1 0 .2 0 .2-.1s.1-.2.1-.3v-1.1-1.7-.4-1.6-3.3h.2c1.5 0 3.6-.1 6.3-.2 0 1.2-.1 1.9-.1 2.1 0 .1-.1.4-.1 1 0 .5-.1.9-.1 1.2-.1.8-.2 2.1-.3 3.7v.3c0 .2.1.3.2.3h2l.1-.1v-.1-.1-.1-.1-.2l.1-1.1c0-.1 0-.7.1-1.6 0-1 .1-1.6.1-2 0-.6.1-1.4.1-2.3 0-.3.1-1.6.2-3.9l.2-4v-.7c0-.3 0-.5-.1-.6l-1.8-.1c-.4 0-.6.1-.6.4v2.2c0 .1-.1 1.2-.1 3.2v.5c-2.6-.1-4.4-.2-5.5-.3l-1.1-.1c0-2 .1-3.7.1-4.9v-.6c0-.2 0-.3-.1-.4 0-.1-.1-.1-.2-.1h-.4c-.5.1-1 .1-1.1.2zm.8 1.3c.1-.2.1-.2.3-.2.1 0 .1.1.1.3-.1.2-.1.3-.2.4h-.1c-.1 0-.1-.1-.1-.3v-.2zm3.6 6.5c0 .1-.3.1-.9.1-.2 0-.3 0-.4-.1-.1-.1-.1-.2-.1-.2h.1c.8 0 1.2.1 1.3.2z"/>
  <path class="st0" d="M308.9 19.3c-.1.2-.2.4-.3.5l-.3.3c-.2.1-.3.2-.6.2h-.1l.1-.1.2-.2c.1-.1.1-.1.2-.1 0 0 .1-.1.2-.1.1-.1.1-.1.2-.1l.4-.4zm-8-5.4c.1 0 .1.1.1.4v.2c-.1-.2-.1-.3-.1-.4v-.2c0 .1 0 0 0 0zm0 6.3c0-.1.2-.2.5-.2H302.2c.2 0 .2.1.2.1-.4.1-.7.1-.9.1h-.6zm.1-9.4v2.4h-.1c-.1 0-.1-.1-.1-.4v-.7c0-.4.1-.6.1-.8v-.2-.2-.2c0-.1 0-.1.1-.2h.1c-.1 0-.1.1-.1.3zm7 5.5c0-.1 0-.1 0 0 .1-.1.1.3.1 1 0 .6 0 .9-.1.9v-.1-.4-.4c-.1-.2-.1-.6 0-1zm-3.3-10.6c.2 0 .5 0 .7-.1.3-.1.5-.1.6-.1h.8c0 .1 0 .1-.1.1-.1.1-.2.1-.3.1h-.6c-.1 0-.3 0-.6.1-.3 0-.5.1-.5.1v-.2zm2.3 15.1c.1 0 .3 0 .5-.1.3 0 .4-.1.5-.1.1 0 .2-.1.4-.2s.3-.2.4-.3c.1-.1.2-.3.3-.6.1-.2.2-.5.3-.9.3-1.3.4-2.9.5-4.8 0-.2 0-.8.1-1.8.1-1.1.1-1.9.1-2.4 0-1.2-.1-2.1-.3-2.8-.3-1.1-1-1.8-2.2-2.1-1.3-.3-2.7-.5-4.1-.5-.6 0-1.8.1-3.9.2l-.1.4c0 .1 0 2.1-.1 6.1l-.1 10.4 3.9-.1h.6c.4 0 .9-.1 1.6-.1.7-.2 1.2-.3 1.6-.3zm8.6-.9s-.5.1-1.4.1c-.1 0-.1 0-.1-.1v-.1c.1-.1.1-.1.2-.1s.3 0 .7.1c.4.1.6.1.6.1zM312.9 4h-.3-.1c-.1 0-.1 0-.1.1l-.1.1V4.8c0 .4-.1.9-.1 1.6 0 1.3-.1 2.3-.2 3.2-.1.4-.1 2-.2 4.8s-.1 4.8-.1 5.9v.4c0 .1.2.1.4.2.3 0 1.6.1 3.8.1h5.1c.1 0 .3 0 .3-.1l.1-.1v-.7-.4c0-.3 0-.5-.1-.5-.1-.1-.8-.2-1.8-.2-2.5-.1-3.8-.2-4.1-.2l-1.2-.1v-1V15.3c.1-1.2.1-1.8.2-1.9.1 0 1-.1 2.7-.1 2.1-.1 3.2-.2 3.5-.4.1-.1.1-.3.1-.6 0-.4 0-.7.1-.9v-.2c0-.1-.1-.1-.2-.2-.3-.1-1-.1-2.2-.1h-2.5c-1.2 0-1.8 0-1.9-.1l.1-2.7.2-2h.5c.2 0 .5 0 .9-.1h2.3l3.2.1.1-.6c.1-.3.1-.6.1-.9 0-.2 0-.4-.1-.4-.1-.1-1.1-.1-2.9-.2h-5.5zm7.7.5c.1.1.2.1.2.2v.1l-.1.1c-.1 0-.2 0-.3-.1-.4-.1-.7-.1-.7-.2l.1-.1c.1-.1.2-.1.3-.1 0 0 .2 0 .5.1zm-8.2 6.7c0-.1.1-.1.1-.1s.1.2.1.7v1c0 .2-.1.4-.1.8-.1.3-.1.5-.1.5V14v-.9c-.2-.7-.2-1.3 0-1.9zm.3-1.3c.1-.1.1.1.1.4v.1c0 .2-.1.2-.1.2-.1-.2-.1-.3-.1-.4 0 0 0-.2.1-.3zm7.3 1.3c0 .1-.1.1-.2.2l-.1.1h-.1c-.1 0-.1 0-.1.1-.4 0-.7-.1-.7-.2l.1-.1c.1-.1.3-.1.5-.1.1-.1.3-.1.6 0zm-4.6-5.5c0 .1 0 .1-.1.1l-.1.1h-.2c-.1 0-.2 0-.4-.1l-.9-.1h.1c.3-.1.5-.1.7-.1.1 0 .2 0 .4.1h.5zm1.6 6.6c.1 0 .2.1.2.2 0 0 0 .1-.1.1h-.3c-.1 0-.4-.1-.9-.1-.4-.1-.7-.1-.7-.2h.1c.3 0 .5-.1.6-.1.3 0 .6 0 1.1.1zm-9.5-5.7l.1.3c0 .2.1.5.1.8 0 .3.1.7.1 1v.8c0 .1 0 1.5-.1 4.1 0 .7-.1 2.1-.4 4.3 0 .4-.2.7-.4.9-.2.2-.5.3-.9.3l-4.4.2v-.1-.4-1l.3-11.2h5.6zm-7.1-1.4v1.4s-.1-.5-.2-1.5v-.2c0-.1 0-.1.1-.1h.1v.4zm-10 13.8c.1 0 .1 0 .1.1s.1.2.1.3c0 .5 0 .7-.1.7h-.1c-.1-.2-.1-.4-.1-.5 0-.1 0-.3.1-.6zm-4.3-6.7l.1-.1c.1 0 .2.6.2 1.8v.2c0 .4-.1.9-.1 1.5-.1.6-.1.8-.2.8l-.1-.2c-.1-.5-.1-1.1-.1-1.6 0-.7 0-1.4.2-2.4zm-1.3 8.7h.7c.1 0 .6.1 1.8.1h.6l2.6-.1c.1 0 .2 0 .2-.1 0 0 0-.1.1-.4V20v-.6c0-.4 0-.6-.1-.7-.1-.1-.3-.2-.8-.2H288c-.9-.1-1.3-.1-1.4-.2-.1-.1-.1-.7-.1-1.7v-2.7V3.8c0-.1 0-.2-.1-.2h-1.7s-.1 0-.1.1l-.1.1v1.3c0 .5 0 1.1-.1 1.9 0 .8 0 1.4-.1 1.9-.1 1.4-.1 2.9-.1 4.3v4.9l-.1 2.3v.5c.3 0 .4.1.7.1zm1.2-.3c0 .1-.4.1-1.2.1-.1 0-.2-.1-.2-.2s0-.1.1-.1h1.3v.2zm-1-16.6c.1 0 .1.7.1 2.2 0 .1 0 .1-.1.1 0 0-.1-.2-.1-.7 0-1 .1-1.5.1-1.6zm-11.5 14.7c.1-.1.1-.2.1-.2 0 .1.1.1.1.1l-.1.3c-.1.3-.2.4-.2.4v-.1-.2l.1-.3zm1.5-3.4c.1-.5.3-1.2.5-2.1 0 0 0-.1.1-.1 0-.1 0-.1.1-.2v-.1.1s0 .2-.1.6c-.1.5-.1.8-.1.9 0 .1-.1.2-.2.5l-.2.5c0 .1-.1 0-.1-.1zm6.4 5.4c0-.1 0-.1.1-.2l.1-.1h.5c.3 0 .5 0 .8.1h0-.6-.5c-.1.2-.2.2-.4.2zm0-6.7c-.2-.5-.3-1-.3-1.5v-.1s.1.3.3.8c.1.3.1.5 0 .8.1 0 .1.1 0 0zm-6.1-1.8c.2-1.2.5-2.4.9-3.8v-.1.7c0 .1-.1.5-.3 1.3 0 .1-.1.3-.1.4 0 .2-.1.3-.1.5 0 .1-.1.3-.1.4-.2.5-.3.7-.3.6zm2.1-8.1c0-.1.2-.1.6-.1H278.8v.1c0 .1 0 .1-.1.1h-.1-1c-.1-.1-.2-.1-.2-.1zM275 18.1c0-.1.1-.4.2-.8l.2-.7c0-.1.1-.3.2-.5.1 0 .1.1.1.3 0 .1-.1.4-.3.9-.2.5-.3.8-.4.8zm4.7-3.1h.2v.2c-.3 0-.5.1-.8.1h-.5-.1c.1-.2.5-.3 1.2-.3zm-3.4.4h.9l2.9.1.5 2.9c.1 1 .3 1.7.4 2.1.1.3.2.5.2.5.1 0 .3.1.7.1h.2c.8 0 1.1 0 1.2-.1 0-.1-.1-.5-.3-1.3-.2-.8-.4-1.9-.7-3.4-.3-1.4-.6-2.8-.8-4-.5-2.6-.8-4.3-.9-5.3-.1-.4-.1-.8-.2-1.4-.2-1.5-.4-2.2-.5-2.2h-.2-2.9s-.2 1-.7 2.9c-.5 2-1 4-1.5 6.1-.5 2.1-.9 3.6-1.1 4.7-.2 1-.4 1.8-.6 2.2-.1.2-.1.5-.2.7-.1.2-.1.4-.1.5v.2c0 .1.1.1.2.1h.1c.7 0 1.3-.1 1.8-.2.1 0 .2 0 .2-.1l.1-.1v-.2c0-.1 0-.2.1-.3l1.2-4.5zm3.9-3.8c-.3-.9-.5-1.6-.5-2v-.1-.1s.2.5.5 1.5c.1.1.1.3 0 .7zm-3.9 2l.7-3.2v-.2c0-.1.1-.2.1-.4.1-.2.1-.4.2-.7l1-3.6h.4s.1.4.1 1.2c.1.8.2 1.7.3 2.6.1.9.2 1.4.2 1.5l.4 2.5c-.3 0-.9 0-1.7.1-.8.1-1.4.2-1.7.2zm-5.2 5.1c0 .4 0 .6-.1.6s-.1-.4-.1-1.2v-.6s0 .1.1.2c0 .2 0 .3.1.5v.5zm-.3-7.2v1.2s-.1-.1-.1-.2c-.1-.4-.1-.5-.1-.6v-.1-.3-.2c0-.2.1-.3.2-.5h.1v.7zm-.4-5.4c0 .5-.1.8-.2 1v-.2-.3V5.7v-.3c.1 0 .2.3.2.7zm-8.9 14.7l1.5.1h.1c.2 0 .3-.1.3-.3v-.1-.1-.1l.1-2.8c.1-7.2.2-10.8.3-10.8 0 0 .3.9.7 2.7.5 1.8 1 3.7 1.5 5.7s.8 3.1.8 3.3c.1.5.2 1 .3 1.4.1.4.2.7.3.8.1.2.2.3.2.3l3.2.1h.3c.1 0 .2 0 .3-.1l.1-.1c0-.1 0-.2.1-.4.1-1.9.2-3.2.2-3.8 0-1.5.1-3.4.2-5.7.1-2.8.2-4.8.2-6.2v-.9c0-.2 0-.4-.1-.4 0 0-.2 0-.4.1-.1 0-.2 0-.4.1-.2 0-.3.1-.3.1l-.5.1c-.3 0-.4.1-.5.2 0 .1-.1.2-.1.4v.1l-.1 5.9c0 2-.1 3.8-.2 5.4-.1 1.6-.2 2.4-.4 2.4 0 0-.1 0-.1-.1s-.2-.5-.4-1.4c-.3-.9-.6-1.9-.9-3-.3-1.1-.6-2.1-.8-2.9l-1.3-6c0-.2-.1-.3-.1-.3 0-.1-.1-.1-.2-.1s-.2 0-.4-.1h-.1c-.2 0-.7 0-1.5.1-.8 0-1.2.1-1.3.1h-.1l-.1.1v1.6c0 .6 0 1.3-.1 2.2v2.1c0 1.2-.1 3.4-.3 6.8-.1 1.6-.1 2.5-.1 2.8v.5c-.1.1-.1.2.1.2zm1.5-7.6v-.1s.1.1 0 .1c.1.2.1.4.1.6v.8c0 .3-.1.6-.1 1.1-.1.4-.1.6-.1.6v-.1c0-.4-.1-.8-.1-1.2 0-.5.1-1.1.2-1.8zm-.6-8.3c.4-.1.7-.1 1.2-.1h.4s.1 0 .1.1-.3.2-1 .2h-.1c-.5 0-.7-.1-.6-.2-.1 0-.1 0 0 0zm4.3 11.6c.1.1.1.2.1.3 0 .1.1.2.1.2.1.3.2.6.2.7v.8-.1c-.2-.4-.3-1.1-.4-1.9zm-3.6 3.4s.1 0 .1.1v.1h-.8-.1-.1c-.1 0-.1 0-.1-.1s.1-.2.2-.2.2 0 .4.1h.4zm1.6-11.8c-.1-.1-.1-.1 0 0 0-.1.2.3.4 1.1.1.5.2.8.2 1v-.1c-.4-.7-.6-1.3-.6-2zm-12.4 11.8c.5 0 .8-.1.9-.1h.4c.2 0 .4.1.4.1v.1h-.3-1.1c-.5 0-.7-.1-.8-.1.1.1.2 0 .5 0zm-2 .5c-.1 0-.1-.1 0 0-.1-.1 0-.2.1-.2h.8c.3 0 .5.1.5.2-.2.1-.5.1-.7.1-.2-.1-.4-.1-.7-.1zm8.5-16.8c.1 0 .1 0 .1.1v.1l-.1.1s-.1 0-.2-.1h-.6c-.1 0-.1 0-.1-.1v-.1c.1-.1.2-.1.3-.1 0 0 .1 0 .3.1.1-.1.2 0 .3 0zm-8.5 0h-.5c-.2 0-.4 0-.5.1-.1.1-.1.2-.1.5v2.1c0 6.1 0 9.9.1 11.5v2.7l.1.1c.1.1.5.1 1.1.1H259c.2 0 .3 0 .3-.1V20v-2.1-2.8l-.1-10.3V3.6c0-.1 0-.2-.1-.2 0 0-.1-.1-.3-.1h-2c-.3 0-1 0-2 .1-1 0-2 .1-3 .1-.8.1-1.4.1-1.5.1zm-.4 1.4c-.1 0-.1-.1-.1-.3 0-.2-.1-.3-.1-.5V4l.1-.1V4c0 .1.1.3.1.7V5zm.5.7v2.2c-.1 0-.1-.5-.1-1.6 0-.5 0-.8.1-.8l.1-.1s-.1.1-.1.3zm7.2.1s.1 1.4.1 4.1c0 3.9-.1 6.6-.1 7.9 0 .4-.1.7-.1.7v.4c-.4 0-2-.1-4.9-.4l-.7-.1V17c0-.1 0-.6-.1-1.5s-.1-1.6-.1-2.1l-.2-7.4h.4c.2 0 1.2 0 2.9-.1h1.3c.4 0 .8 0 1-.1h.5zm.2 10.9v-.9-1c.1.1.1.5.1 1.2.1.4 0 .6-.1.7zm.7.5c0 .9 0 1.3-.1 1.3 0 0-.1-.2-.1-.6 0-.4-.1-.6-.1-.8 0-.1 0-.1.1-.1.1.1.2.1.2.2z"/>
  <path class="st0" d="M74 47.9s-.5.1-1.4.1c-.1 0-.1 0-.1-.1v-.1c.1-.1.1-.1.2-.1s.3 0 .7.1c.4 0 .6 0 .6.1m-2.7-16H71h-.1c-.1 0-.1 0-.1.1l-.1.1V32.7c0 .4-.1.9-.1 1.6 0 1.3-.1 2.3-.2 3.2-.1.4-.1 2-.2 4.8s-.1 4.8-.1 5.9v.4c0 .1.2.1.4.2.3 0 1.6.1 3.8.1h5.1c.1 0 .3 0 .3-.1l.1-.1V48v-.4c0-.3 0-.5-.1-.5-.1-.1-.8-.2-1.8-.2-2.5-.1-3.8-.2-4.1-.2l-1.2-.1v-1V43.2c.1-1.2.1-1.8.2-1.9.1 0 1-.1 2.7-.1 2.1-.1 3.2-.2 3.5-.4.1-.1.1-.3.1-.6 0-.4 0-.7.1-.9v-.2c0-.1-.1-.1-.2-.2-.3-.1-1-.1-2.2-.1h-2.5c-1.2 0-1.8 0-1.9-.1l.1-2.7.2-2h.5c.2 0 .5 0 .9-.1h2.3l3.2.1.1-.6c.1-.3.1-.6.1-.9 0-.2 0-.4-.1-.4-.1-.1-1.1-.1-2.9-.2-1.8-.1-3.4-.1-4.7-.1-.4.1-.7.1-.8.1zm7.7.5c.1.1.2.1.2.2v.1s-.1.1-.2.1-.2 0-.3-.1c-.4-.1-.7-.1-.7-.2l.1-.1c.1-.1.2-.1.3-.1.1 0 .3 0 .6.1zm-8.2 6.7c0-.1.1-.1.1-.1s.1.2.1.7v1c0 .2-.1.4-.1.8-.1.3-.1.5-.1.5v-.1-.9c-.2-.7-.1-1.3 0-1.9zm.3-1.3c.1-.1.1.1.1.4v.1c0 .2-.1.2-.1.2-.1-.1-.1-.2-.1-.3 0-.1 0-.3.1-.4zm7.3 1.3c.1 0 .1 0 0 0 0 .1-.1.1-.2.2l-.1.1H78c-.1 0-.1 0-.1.1-.4 0-.7-.1-.7-.2l.1-.1c.1-.1.3-.1.5-.1.1-.1.3 0 .6 0zm-4.6-5.5c0 .1 0 .1-.1.1l-.1.1h-.2c-.1 0-.2 0-.4-.1l-.9-.1h.1c.3-.1.5-.1.7-.1.1 0 .2 0 .4.1h.5zm1.7 6.6c.1 0 .2.1.2.2 0 0 0 .1-.1.1h-.3c-.1 0-.4-.1-.9-.1-.4-.1-.7-.1-.7-.2h.1c.3 0 .5-.1.6-.1.2 0 .6.1 1.1.1zm-14.8 6.9s.1 0 0 0c.1 0 .3.4.4 1.3-.1 0-.1-.1-.2-.4-.1-.3-.2-.5-.2-.9 0 .1 0 .1 0 0zm-4.4 2.2h.5c.1 0 .3-.1.4-.2v.4l-.1.1H57s-.4-.1-.7-.3zm11.3-17.2c.1 0 .1.1.1.1 0 .1 0 .1-.1.1-.2 0-.5-.1-.9-.3l-.2-.2c.4.1.8.1 1.1.3zm-11.9-.9c-.3 0-.4.1-.4.3V48.2c0 .9.1 1.4.1 1.4.1.2.3.2.6.2h.3c.5 0 .8 0 1-.1.1-.1.1-.4.1-.9V48c-.1-1.5-.1-2.8-.1-4 0-1.8-.1-4.6-.2-8.5.1.1.6 2.1 1.5 6 .1.7.4 1.5.6 2.4 0 .1.1.3.2.7.1.3.2.7.3 1 .1.4.2.7.3 1 .3 1.3.5 2 .6 2.2.1.1.3.1.9.1H62.9c.1 0 .1 0 .1-.1s.1-.1.1-.1v-.3c0-.1.1-.3.1-.4 0 0 0-.2.1-.6 0-.4.1-.6.1-.9.2-1.2.4-1.9.4-2.1.2-1.5.6-3.6 1.1-6.1.5-2.6.9-4 1.1-4.1V40c-.1 3-.2 5.5-.2 7.6v.6s.2.1.5.1c.9.1 1.4.2 1.6.2h.1c.1 0 .1-.1.1-.2V48s-.1-.1-.1-.3v-.2c0-.3 0-1.1.1-2.4v-2.7c0-1.5.1-2.7.1-3.4 0-2.5.1-4.3.1-5.2v-1.6c0-.1 0-.2-.1-.3 0 0-.2-.1-.4-.1-.4-.1-1.2-.2-2.4-.2h-.6c-.2 0-.4 0-.4.1-.1.1-.2.3-.3.5-.6 2.1-.9 3.5-1.1 4-.8 3.8-1.3 6.1-1.5 7v.8-.6c-.1 0-.1-.3-.3-.8-.1-.5-.3-1.2-.4-2-.2-.8-.3-1.3-.4-1.6 0-.2-.1-.5-.2-.9l-.2-.7-1.5-5.7c-.1-.4-.2-.7-.3-.7-.2-.1-.9-.1-2.1-.1h-.4zm4.3 9.7v.2c0 .1 0 .1-.1.1 0 0-.1-.1-.2-.4-.1-.3-.1-.5-.1-.7.1-.1.2.2.4.8zm7.5-5.8c0 .5 0 .7-.1.7s-.1-.2-.1-.7c0-.4 0-.7.1-.7s.1.2.1.7zm-11-1.7v1c0 .4 0 .5-.1.5s-.1-.4-.1-1.1c0-.4 0-.7.1-.9 0-.1.1-.1.1-.1-.1 0-.1.2 0 .6zm10.1 6.4c0 .1 0 .1-.1.1-.1-.1-.1-.1-.1-.2s0-.1.1-.1.1.1.1.2zm-2.7-1.9c-.1.1-.1.2-.1.2-.1 0-.1 0-.1-.1s0-.2.1-.3c0-.1.1-.2.1-.2l.1.1c0 .1.1.1.1.1-.1 0-.1.1-.2.2zm-1.2 3.9c0 .1-.1.4-.3.7-.2.3-.3.5-.3.5 0-.1.1-.4.3-.9.2-.5.3-.8.4-.8v.1c0 .2-.1.3-.1.4zm4.9 2.6s0 .1 0 0c-.1.1-.1 0-.2 0-.1-.1-.1-.1-.1-.2v-1.1c0 .1.1.3.1.6.2.3.2.6.2.7zm-.2 1.3c0 .5 0 .8-.1.8 0 0-.1-.2-.1-.8v-.1c0-.4 0-.6.1-.6 0 0 .1.2.1.7zm-10.7-.9v-.6-.9-.6-.6c0-1 0-1.5.1-1.5 0 0 .1.2.1.6v1.4c0 1.7 0 2.5-.1 2.5l-.1-.3zm-8.6 3.1s-.5.1-1.4.1c-.1 0-.1 0-.1-.1v-.1c.1-.1.1-.1.2-.1s.3 0 .7.1c.4 0 .6 0 .6.1zm-2.7-16h-.3-.1c-.1 0-.1 0-.1.1l-.1.1V32.7c0 .4-.1.9-.1 1.6 0 1.3-.1 2.3-.2 3.2-.1.4-.1 2-.2 4.8s-.1 4.8-.1 5.9v.4c0 .1.2.1.4.2.3 0 1.6.1 3.8.1h5.1c.1 0 .3 0 .3-.1l.1-.1V48v-.4c0-.3 0-.5-.1-.5-.1-.1-.8-.2-1.8-.2-2.5-.1-3.8-.2-4.1-.2l-1.2-.1v-1V43.2c.1-1.2.1-1.8.2-1.9.1 0 1-.1 2.7-.1 2.1-.1 3.2-.2 3.5-.4.1-.1.2-.3.2-.6 0-.4 0-.7.1-.9v-.2c0-.1-.1-.1-.2-.2-.3-.1-1-.1-2.2-.1h-2.5c-1.2 0-1.8 0-1.9-.1l.1-2.7.2-2h.5c.2 0 .5 0 .9-.1h2.3l3.2.1.1-.6c.1-.3.1-.6.1-.9 0-.2 0-.4-.1-.4-.1-.1-1.1-.1-2.9-.2-1.8-.1-3.4-.1-4.7-.1-.4.1-.7.1-.9.1zm7.8.5c.1.1.2.1.2.2v.1s-.1.1-.2.1-.2 0-.3-.1c-.4-.1-.7-.1-.7-.2l.1-.1c.1-.1.2-.1.3-.1 0 0 .2 0 .6.1zm-8.3 6.7l.1-.1s.1.2.1.7v1c0 .2-.1.4-.1.8-.1.3-.1.5-.1.5v-.1-.9c-.2-.7-.1-1.3 0-1.9zm.4-1.3c.1-.1.1.1.1.4v.1c0 .2-.1.2-.1.2-.1-.2-.1-.3-.1-.4-.1 0 0-.2.1-.3zm7.3 1.3c0 .1-.1.1-.2.2l-.1.1h-.1c-.1 0-.1 0-.1.1-.4 0-.7-.1-.7-.2l.1-.1c.1-.1.3-.1.5-.1 0-.1.3 0 .6 0zM48 33.6c0 .1 0 .1-.1.1l-.1.1h-.2c-.1 0-.2 0-.4-.1l-.9-.1h.1c.3-.1.5-.1.7-.1.1 0 .2 0 .4.1h.5zm1.6 6.6c.1 0 .2.1.2.2 0 0 0 .1-.1.1h-.3c-.1 0-.4-.1-.9-.1-.4-.1-.7-.1-.7-.2h.1c.3 0 .5-.1.6-.1.3 0 .6.1 1.1.1z"/>
  <path class="st0" d="M132 46.6c0 .6 0 .9-.1.9 0 0 0-.1-.1-.4 0-.3-.1-.5-.1-.6 0-.2.1-.3.1-.3.1 0 .2.1.2.4m.8-14.8s-.1.1-.3.1c-.2 0-.3.1-.4.1-.1 0-.2 0-.5-.1-.3 0-.4-.1-.4-.1s.1-.1.4-.1c0-.1.1-.1.3-.1h.2c.4.1.7.2.7.2zm-.6-.3h-.5-.1-.2c-.2 0-.3.1-.3.4 0 3.6.1 6.7.2 9.5l.2 4.5c.1 1.6.1 2.5.2 2.6 0 .1.2.2.4.2s.9 0 1.9.1H139.7c.1 0 .1-.3.1-1v-.6-.3c0-.1-.2-.1-.4-.2-.3-.1-.5-.1-.9-.1-.3 0-1.1 0-2.5-.1s-2.1-.1-2.1-.2v-.1c0-.1 0-.2-.1-.4 0-.1 0-.3-.1-.4-.1-.7-.2-2.2-.3-4.7-.1-2.5-.2-4.4-.2-5.8 0-.6 0-1 .1-1 .1-.1 1.5-.2 4.3-.2h.7c.4 0 .6 0 .7-.1.1-.1.1-.3.1-.7l.1-.6v-.6c0-.1 0-.2-.1-.3-.1-.1-1.4-.1-4-.1-1.4.1-2.4.2-2.9.2zm3.2 1.8s-.1 0 0 0c-.1-.1.2-.2.8-.2.6 0 .9.1.9.1h-.1c-.4.1-.7.1-.8.1-.1.1-.4.1-.8 0zm-2.4 7.5c.1.7.1 1.1.1 1.3 0 .3 0 .6-.1 1v.1s0-.1-.1-.2c0-.1 0-.3-.1-.5V42v-.3-.3s0-.1.1-.3c0 0 0-.1.1-.3 0-.1 0-.1 0 0zm6.2 6.3l-.1.1H137.3s0-.1.1-.1c.2-.1.4-.1.6-.1.1 0 .3 0 .6.1.2-.1.4 0 .6 0zm-10.9-.5c0 .4 0 .6-.1.6s-.1-.4-.1-1.2v-.6s0 .1.1.2c0 .2 0 .3.1.5-.1.3 0 .4 0 .5zm-.4-7.2v1.2s-.1-.1-.1-.2c-.1-.4-.1-.5-.1-.6v-.1-.3-.2c0-.2.1-.3.2-.5h.1v.7zm-.4-5.4c0 .5-.1.8-.2 1v-.2-.3-1-.3c.1.1.2.4.2.8zm-8.9 14.7l1.5.1h.1c.2 0 .3-.1.3-.3v-.1-.1-.1l.1-2.8c.1-7.2.2-10.8.3-10.8 0 0 .3.9.7 2.7.5 1.8 1 3.7 1.5 5.7s.8 3.1.8 3.3c.1.5.2 1 .3 1.4.1.4.2.7.3.8.1.2.2.3.2.3l3.3.2h.3c.1 0 .2 0 .3-.1l.1-.1c0-.1 0-.2.1-.4.1-1.9.2-3.2.2-3.8 0-1.5.1-3.4.2-5.7.1-2.8.2-4.8.2-6.2V31.5c0-.2 0-.4-.1-.4 0 0-.2 0-.4.1-.1 0-.2 0-.4.1-.2 0-.3.1-.3.1l-.5.1c-.3 0-.4.1-.5.2 0 .1-.1.2-.1.4v.1l-.1 5.9c0 2-.1 3.8-.2 5.4-.1 1.6-.2 2.4-.4 2.4 0 0-.1 0-.1-.1s-.2-.5-.4-1.4c-.3-.9-.6-1.9-.9-3-.3-1.1-.6-2.1-.8-2.9l-1.3-6c0-.2-.1-.3-.1-.3 0-.1-.1-.1-.2-.1s-.2 0-.4-.1h-.1c-.2 0-.7 0-1.5.1-.8 0-1.2.1-1.3.1h-.1l-.1.1V34.1c0 .6 0 1.3-.1 2.2v2.1c0 1.2-.1 3.4-.3 6.8-.1 1.6-.1 2.5-.1 2.8v.5c-.2.1-.1.2 0 .2zm1.5-7.6V41c.1 0 .1.1 0 .1.1.2.1.4.1.6v.8c0 .3-.1.6-.1 1.1-.1.4-.1.6-.1.6v-.1c0-.4-.1-.8-.1-1.2 0-.5.1-1.1.2-1.8zm-.6-8.3c.4-.1.7-.1 1.2-.1h.4s.1 0 .1.1-.3.2-1 .2h-.1c-.5 0-.7-.1-.6-.2-.1 0-.1 0 0 0zm4.3 11.7c.1.1.1.2.1.3 0 .1.1.2.1.2.1.3.2.6.2.7v.8-.1c-.2-.5-.3-1.2-.4-1.9zm-3.6 3.4s.1 0 .1.1v.1h-.7-.1-.1c-.1 0-.1 0-.1-.1s.1-.2.2-.2.2 0 .4.1c.1-.1.2 0 .3 0zm1.6-11.9c-.1-.1 0-.1 0 0 0-.1.2.3.4 1.1.1.5.2.8.2 1V38c-.4-.6-.5-1.3-.6-2zm-10.5 11.9s-.5.1-1.4.1c-.1 0-.1 0-.1-.1v-.1c.1-.1.1-.1.2-.1s.3 0 .7.1c.4 0 .6 0 .6.1zm-2.7-16h-.3-.1c-.1 0-.1 0-.1.1l-.1.1V32.7c0 .4-.1.9-.1 1.6 0 1.3-.1 2.3-.2 3.2-.1.4-.1 2-.2 4.8s-.1 4.8-.1 5.9v.4c0 .1.2.1.4.2.3 0 1.6.1 3.8.1h5.1c.1 0 .3 0 .3-.1l.1-.1V48v-.4c0-.3 0-.5-.1-.5-.1-.1-.8-.2-1.8-.2-2.5-.1-3.8-.2-4.1-.2l-1.2-.1v-1V43.2c.1-1.2.1-1.8.2-1.9.1 0 1-.1 2.7-.1 2.1-.1 3.2-.2 3.5-.4.1-.1.1-.3.1-.6 0-.4 0-.7.1-.9v-.2c0-.1-.1-.1-.2-.2-.3-.1-1-.1-2.2-.1h-2.5c-1.2 0-1.8 0-1.9-.1l.1-2.7.2-2h.5c.2 0 .5 0 .9-.1h2.3l3.2.1.1-.6c.1-.3.1-.6.1-.9 0-.2 0-.4-.1-.4-.1-.1-1.1-.1-2.9-.2-1.8-.1-3.4-.1-4.7-.1-.4.1-.7.1-.8.1zm7.7.5c.1.1.2.1.2.2v.1l-.1.1c-.1 0-.2 0-.3-.1-.4-.1-.7-.1-.7-.2l.1-.1c.1-.1.2-.1.3-.1 0 0 .1 0 .5.1zm-8.2 6.7c0-.1.1-.1.1-.1s.1.2.1.7v1c0 .2-.1.4-.1.8-.1.3-.1.5-.1.5v-.1-.9c-.3-.7-.2-1.3 0-1.9zm.3-1.3c.1-.1.1.1.1.4v.1c0 .2-.1.2-.1.2-.1-.2-.1-.3-.1-.4 0 0 0-.2.1-.3zm7.3 1.3c0 .1-.1.1-.2.2l-.1.1h-.1c-.1 0-.1 0-.1.1-.4 0-.7-.1-.7-.2l.1-.1c.1-.1.3-.1.5-.1.1-.1.3 0 .6 0zm-4.6-5.5c0 .1 0 .1-.1.1l-.1.1h-.2c-.1 0-.2 0-.4-.1l-.9-.1h.1c.3-.1.5-.1.7-.1.1 0 .2 0 .4.1h.5zm1.6 6.6c.1 0 .2.1.2.2 0 0 0 .1-.1.1h-.3c-.1 0-.4-.1-.9-.1-.4-.1-.7-.1-.7-.2h.1c.3 0 .5-.1.6-.1.3 0 .6.1 1.1.1zm-8.6 9.7c-.1.2-.2.3-.4.3h-.1c-.1 0-.1 0-.1-.1s.1-.1.1-.1h.1c.2 0 .3-.1.4-.1zm-4.3-8.3c.1 0 .1.1.1.4 0 .1 0 .2-.1.4l-.1.1c0-.1-.1-.3-.1-.4.1-.1.1-.3.2-.5zm.1-.3c-.4 0-.7.1-.7.2v1.6c0 .2.1.2.3.2h.5c.4 0 1-.1 1.7-.2.8-.1 1.2-.1 1.4-.1h.1v3c0 .4 0 .6-.1.6-.4 0-1.2.1-2.3.3-.3.1-1.2.1-2.9.2-.5 0-1.1.1-1.6.1h-.1c-.3 0-.4-.1-.4-.4v-.1-.1c.1-.1.1-1.2.1-3.2v-.9c0-1.8 0-3 .1-3.6v-.7c0-.6 0-1.1.1-1.5 0-.2.1-.5.1-.8v-.8-.3h.9c2.2 0 4 .1 5.2.2.4 0 .6.1.7.1.1 0 .2.1.2.2V36.7c0 .1 0 .1.1.1s.2.1.3.1h1.1c.3 0 .5-.1.6-.1.1-.1.1-.3.1-.6V32.8c0-.2 0-.3-.1-.4 0 0-.1-.1-.3-.1h-1.5c-1.5 0-3.3 0-5.3-.1h-1.8c-.9 0-1.4 0-1.5.1l-.3.1-.2 2c0 .2 0 .6-.1 1.1 0 .5-.1 1-.1 1.4V38c0 .5-.1 1.3-.1 2.3 0 .4-.1 1.7-.2 3.9l-.2 4v.3c0 .4 0 .6.1.6.1.1.7.2 1.9.2h3.5c.2 0 .9 0 1.8-.1 1-.1 1.6-.1 1.9-.1h.2c.1.1.1.3.1.8v.2c0 .2 0 .3.1.3h.1c1.1-.1 1.7-.2 1.8-.4.1-.1.1-2.5.2-7.2v-.6c0-.7 0-1.1-.1-1.2h-.3c-.4 0-1.2.1-2.4.2-1.3 0-2.2.1-2.7.1zm-4.8 3.9v1.4s-.1-.3-.1-.8-.1-1-.1-1.5v-.2c0-.4.1-.6.1-.6l.1.1c.1.2.1.6.1 1.3v.3zm9.7.7c0 .3 0 .4-.1.4s-.1-.1-.1-.4c0-.3 0-.4.1-.4s.1.1.1.4zm.1-2.3v.6s0-.1-.1-.2-.1-.3-.1-.5c0-.4 0-.6.1-.6 0 .1 0 .3.1.7zm-9.8-6.5c-.1.8-.1 1.1-.2 1.1 0 0-.1-.1-.1-.4v-.5c0-.6.1-1 .2-1.1v.2c.1.3.1.5.1.7zm9.8-2.1c0 .7 0 1.1-.1 1.1s-.1-.4-.1-1.1c0-.1 0-.1.1-.1s.1 0 .1.1zm-.7-1.3c0 .1-.2.2-.5.2h-.4c-.1 0-.1 0-.2-.1v-.1h1.1zm-3.5.7c-.1.1-.5.1-1.4.1-.9 0-1.3 0-1.3-.1 0 0 .3-.1.8-.1s1-.1 1.4-.1h.4c.1.1.1.1.1.2zm-17.8 11c0 .1-.1.2-.1.2-.1 0-.1-.2-.1-.5s0-.7.1-1c0-.2.1-.3.1-.3s.1.2.1.6v.2c.1.3 0 .6-.1.8zm4.4-1.6c-.1 0-.4-.3-.9-.9-.5-.6-.8-1-.9-1.1 0 0-.1-.1-.1-.2s0-.1.1-.2c0 0 .1 0 .1.1s.1.1.2.2.1.2.2.3c.1.1.3.4.7 1 .4.5.6.8.6.8zm3.6-6.6v.3c0 .4 0 .5-.1.5s-.2-.1-.2-.4c0-.1 0-.5.1-1s.1-.8.2-.8v1.4zm-4.4-3.4l3.2.1c.1.1.1.3.1.6V38.8c0 .1-.2.1-.6.1-.3 0-.7 0-1.2-.1-.5 0-.8-.1-.8-.1l-3.6-.1.1-4.7c.1-.1 1-.1 2.8-.1zm-4.2.2c0 1.4 0 2-.1 2v-.3-.9-.8c0-.1 0-.2.1-.2v.2zm2.6-1c-.2 0-.4.1-.5.1-.2 0-.2-.1-.2-.1 0-.1 0-.2.1-.2h.3c.2 0 .3 0 .4-.1.1 0 .1.1.1.1-.1 0-.1.1-.2.2zm-3.2-1.2c-.1.2-.2 3.4-.4 9.4-.1 2.4-.1 4.1-.2 4.9 0 .1 0 .5-.1 1 0 .5-.1.9-.1 1.1 0 .3 0 .4.1.5 0 .1.1.1.1.1.1.1.5.1 1.3.1h.6c.1 0 .2-.1.2-.2V48.4c0-.3 0-1.1.1-2.3v-2.3-2.5c0-.6.1-1.1.1-1.3.1 0 .4.4 1.1 1.2 3.6 4.7 5.6 7 5.8 7l2.2-1c0-.1 0-.1-.1-.3l-1.9-2-.8-.8-1.1-1.1c-.3-.3-.7-.7-1-1.1-.4-.4-.6-.8-.8-1.1-.2-.3-.3-.5-.3-.7 0-.1.5-.1 1.5-.1 2.4 0 3.6-.1 3.6-.3 0 0 0-.3.1-.7 0-.4.1-.9.1-1.5v-1.7c0-.9 0-1.8-.1-2.7-.1-.9-.1-1.4-.1-1.6 0-.3-1.1-.4-3.2-.4h-4.9c-1.1.5-1.7.6-1.8.7zm5.6 7.3c.1 0 .2.1.2.1v.1c-.1 0-.1.1-.3.1h-1.1s0-.1.1-.1.2-.1.4-.1h.5c0-.1.1-.1.2-.1zm2.8 8.4c0-.1.1-.1.4-.1H91.1c.2.1.3.1.3.1-.3 0-.6.1-.7.1-.1 0-.3 0-.6-.1zm-.3-15.1c.3 0 .6 0 .7.1.2.1.3.1.3.2.1.1.1.2.2.4 0 .1.1.1.1.2v.1s-.1-.1-.1-.2c-.1-.1-.2-.3-.3-.4-.1-.1-.3-.2-.5-.3l-.4-.1z"/>
  <path class="st0" d="M196.4 47.9s-.5.1-1.4.1c-.1 0-.1 0-.1-.1v-.1c.1-.1.1-.1.2-.1s.3 0 .7.1c.4 0 .6 0 .6.1m-2.7-16h-.3-.1c-.1 0-.1 0-.1.1l-.1.1V32.7c0 .4-.1.9-.1 1.6 0 1.3-.1 2.3-.2 3.2-.1.4-.1 2-.2 4.8s-.1 4.8-.1 5.9v.4c0 .1.2.1.4.2.3 0 1.6.1 3.8.1h5.1c.1 0 .3 0 .3-.1l.1-.1V48v-.4c0-.3 0-.5-.1-.5-.1-.1-.8-.2-1.8-.2-2.5-.1-3.8-.2-4.1-.2l-1.2-.1v-1V43.2c.1-1.2.1-1.8.2-1.9.1 0 1-.1 2.7-.1 2.1-.1 3.2-.2 3.5-.4.1-.1.1-.3.1-.6 0-.4 0-.7.1-.9v-.2c0-.1-.1-.1-.2-.2-.3-.1-1-.1-2.2-.1h-2.5c-1.2 0-1.8 0-1.9-.1l.1-2.7.2-2h.5c.2 0 .5 0 .9-.1h2.3l3.2.1.1-.6c.1-.3.1-.6.1-.9 0-.2 0-.4-.1-.4-.1-.1-1.1-.1-2.9-.2-1.8-.1-3.4-.1-4.7-.1-.4.1-.7.1-.8.1zm7.7.5c.1.1.2.1.2.2v.1l-.1.1c-.1 0-.2 0-.3-.1-.4-.1-.7-.1-.7-.2l.1-.1c.1-.1.2-.1.3-.1 0 0 .2 0 .5.1zm-8.2 6.7c0-.1.1-.1.1-.1s.1.2.1.7v1c0 .2-.1.4-.1.8-.1.3-.1.5-.1.5v-.1-.9c-.2-.7-.2-1.3 0-1.9zm.3-1.3c.1-.1.1.1.1.4v.1c0 .2-.1.2-.1.2-.1-.2-.1-.3-.1-.4 0 0 0-.2.1-.3zm7.3 1.3s.1 0 0 0c0 .1-.1.1-.2.2l-.1.1h-.1c-.1 0-.1 0-.1.1-.4 0-.7-.1-.7-.2l.1-.1c.1-.1.3-.1.5-.1.1-.1.3 0 .6 0zm-4.6-5.5c0 .1 0 .1-.1.1l-.1.1h-.2c-.1 0-.2 0-.4-.1l-.9-.1h.1c.3-.1.5-.1.7-.1.1 0 .2 0 .4.1h.5zm1.7 6.6c.1 0 .2.1.2.2 0 0 0 .1-.1.1h-.3c-.1 0-.4-.1-.9-.1-.4-.1-.7-.1-.7-.2h.1c.3 0 .5-.1.6-.1.2 0 .6.1 1.1.1zm-12.3-.8c0-.1.5-.1 1.4-.1.9 0 1.4 0 1.4.1 0 0-.3.1-.8.1s-1 .1-1.4.1h-.5c-.1-.1-.1-.1-.1-.2zm2.5 9.3l.1-.1h.6c.1.1.1.2 0 .3-.5 0-.8-.1-.7-.2zm-7.9-1.6c0-.1 0-.1.1-.1s.1 0 .1.1c0 0 0 .3-.1.7-.1.4-.1.6-.1.6v-.3-.4V47.1zm9.2-2.4c.1-.8.1-1.1.2-1.1 0 0 .1.1.1.4v.5c0 .7-.1 1.1-.2 1.1 0 0-.1-.1-.1-.2v-.7zm-9.2-6.4c0-.4 0-.6.2-.6.1 0 .2.2.1.6 0 .4-.1.5-.1.5-.1 0-.1-.1-.2-.5zm.1-2.3c0-.3.1-.4.1-.4.1 0 .1.1.1.4 0 .3 0 .4-.1.4 0 0-.1-.1-.1-.4zm9 .6c.1-.9.1-1.4.1-1.4.1 0 .1.4.1 1.2v1c0 .6-.1.9-.2.9 0 0-.1 0-.1-.1v-.5c.1-.5.1-.9.1-1.1zm-9.4-3.8c-.1.1-.2 1.8-.2 5v5.5c-.1 1.4-.1 3.1-.1 5v1.1c0 .3.1.4.4.4h1.4c.1 0 .2 0 .2-.1s.1-.2.1-.3v-1.1-1.7-.4-1.6-3.3h.2c1.5 0 3.6-.1 6.3-.2 0 1.2-.1 1.9-.1 2.1 0 .1-.1.4-.1 1 0 .5-.1.9-.1 1.2-.1.8-.2 2.1-.3 3.7v.3c0 .2.1.3.2.3h2l.1-.1v-.1-.1-.1-.1-.2l.1-1.1c0-.1 0-.7.1-1.6 0-1 .1-1.6.1-2 0-.6.1-1.4.1-2.3 0-.3.1-1.6.2-3.9l.2-4v-.4c0-.3 0-.5-.1-.6l-1.8-.1c-.4 0-.6.1-.6.4v2.2c0 .1-.1 1.2-.1 3.2v.2c-2.6-.1-4.4-.2-5.5-.3l-1.1-.1c0-2 .1-3.7.1-4.9v-.6c0-.2 0-.3-.1-.4 0-.1-.1-.1-.2-.1h-.4c-.4.1-.9.1-1 .2zm.8 1.3c0-.1.1-.2.3-.2.1 0 .1.1.1.3-.1.2-.1.3-.2.4h-.1c-.1 0-.2-.1-.2-.3.1-.1.1-.2.1-.2zm3.6 6.5c0 .1-.3.1-.9.1-.2 0-.3 0-.4-.1-.1-.1-.1-.2-.1-.2h.1c.8 0 1.2.1 1.3.2zm-15.5 6.1c.1-.1.1-.2.1-.2 0 .1.1.1.1.1l-.1.3c-.1.3-.2.4-.2.4v-.1-.2l.1-.3zm1.5-3.4c.1-.5.3-1.2.5-2.1 0 0 0-.1.1-.1 0-.1 0-.1.1-.2v-.1.1s0 .2-.1.6c-.1.5-.1.8-.1.9 0 .1-.1.2-.2.5l-.2.5c0 .1-.1 0-.1-.1zm6.5 5.4c-.1 0-.1 0 0 0 0-.1 0-.1.1-.2l.1-.1h.5c.3 0 .5 0 .8.1h0-.6-.5c-.2.2-.3.2-.4.2zm-.1-6.7c-.2-.5-.3-1-.3-1.5v-.1s.1.3.3.8c.1.3.1.5 0 .8.1 0 .1.1 0 0zm-6.1-1.8c.2-1.2.5-2.4.9-3.8v-.1.7c0 .1-.1.5-.3 1.3 0 .1-.1.3-.1.4 0 .2-.1.3-.1.5 0 .1-.1.3-.1.4-.2.5-.3.7-.3.6zm2.1-8.1c0-.1.2-.1.6-.1H174.1v.1c0 .1 0 .1-.1.1h-1c-.2-.1-.3-.1-.3-.1zM170.3 46c0-.1.1-.4.2-.8l.2-.7c0-.1.1-.3.2-.5.1 0 .1.1.1.3 0 .1-.1.4-.3.9-.2.5-.3.8-.4.8zm4.7-3.1h.2v.2c-.3 0-.5.1-.8.1h-.5-.1c.1-.2.5-.3 1.2-.3zm-3.4.4h.9l2.9.1.5 2.9c.1 1 .3 1.7.4 2.1.1.3.2.5.2.5.1 0 .3.1.7.1h.2c.8 0 1.1 0 1.2-.1v-.1c0-.1-.1-.5-.3-1.3-.2-.8-.4-1.9-.7-3.4-.3-1.4-.6-2.8-.8-4-.5-2.6-.8-4.3-.9-5.3-.1-.4-.1-.8-.2-1.4-.2-1.5-.4-2.2-.5-2.2h-.2-2.9s-.2 1-.7 2.9c-.5 2-1 4-1.5 6.1-.5 2.1-.9 3.6-1.1 4.7-.2 1-.4 1.8-.6 2.2-.1.2-.1.5-.2.7-.1.2-.1.4-.1.5v.2c0 .1.1.1.2.1h.1c.7 0 1.3-.1 1.8-.2.1 0 .2 0 .2-.1l.1-.1V48c0-.1 0-.2.1-.3l1.2-4.4zm4-3.8c-.3-.9-.5-1.6-.5-2v-.1-.1s.2.5.5 1.5v.7zm-4 2l.7-3.2v-.2c0-.1.1-.2.1-.4.1-.2.1-.4.2-.7l1-3.6h.4s.1.4.1 1.2c.1.8.2 1.7.3 2.6.1.9.2 1.4.2 1.5l.4 2.5c-.3 0-.9 0-1.7.1-.8.2-1.4.2-1.7.2zm-7.1 7l.3.4c.1 0 .1.1.2.1.1.1.1.1.2.1 0 0 .1.1.2.1.1.1.2.1.2.2l.1.1c-.2 0-.4-.1-.6-.2-.2-.1-.3-.2-.3-.3-.1-.2-.2-.3-.3-.5zm.4-11.9c-.1-.2-.1-.4-.1-.7 0-.1 0-.4.1-.8 0 0 .1.1.1.4.1.3.1.5.1.5v.1c0 .1 0 .2-.1.3 0 .2-.1.2-.1.2zm.5 8.9c.1.4.1.8.1 1.1V47.4c-.1 0-.1-.3-.1-.9-.1-.8-.1-1.1 0-1zm1.5-13.8c0 .1.1.1.1.1h-.1c-.1 0-.3 0-.5-.1-.3 0-.5-.1-.6-.1h-.6c-.1 0-.2 0-.3-.1l-.1-.1s.1-.1.2-.1h.6c.1 0 .3 0 .6.1.3.3.5.3.7.3zm.7 17.2c-.3-.1-.5-.2-.7-.4-.2-.2-.4-.5-.5-.8-.1-.4-.2-.7-.3-1-.1-.3-.1-.7-.2-1.3 0-.6-.1-1-.1-1.3v-1.4-1.2c-.1-2.2-.1-4.1-.1-5.7v-1.5c0-.8.1-1.4.2-1.7.1-.3.4-.4 1-.4.2 0 .3 0 .4-.1.1 0 .1-.1.1-.3v-1.1c0-.2-.1-.3-.2-.3h-.1-.2c-.3.1-.6.1-1.1.2-1.2.3-1.9 1-2.2 2.1-.2.7-.3 1.9-.3 3.6 0 .4.1 2.2.2 5.3.1 2.9.2 5 .5 6.1.1.3.1.6.2.8.1.2.2.4.3.5.1.1.2.3.3.4.1.1.2.2.4.2.2.1.3.1.4.1.1 0 .3.1.5.1s.4.1.5.1c.2.1.5.1.8.1.3 0 .4.1.5.1.1 0 .2-.1.2-.4v-.2c-.3-.3-.4-.5-.5-.6zm-22.4-2.2c.1-.1.1-.2.1-.2 0 .1.1.1.1.1l-.1.3c-.1.3-.2.4-.2.4v-.1-.2l.1-.3zm1.5-3.4c.1-.5.3-1.2.5-2.1 0 0 0-.1.1-.1 0-.1 0-.1.1-.2v-.1.1s0 .2-.1.6c-.1.5-.1.8-.1.9 0 .1-.1.2-.2.5l-.2.5c-.1.1-.1 0-.1-.1zm6.4 5.4c0-.1 0-.1.1-.2l.1-.1h.5c.3 0 .5 0 .8.1h0-.6-.5c-.2.2-.2.2-.4.2zm0-6.7c-.2-.5-.3-1-.3-1.5v-.1s.1.3.3.8c0 .3.1.5 0 .8.1 0 0 .1 0 0zm-6.2-1.8c.2-1.2.5-2.4.9-3.8v-.1.7c0 .1-.1.5-.3 1.3 0 .1-.1.3-.1.4 0 .2-.1.3-.1.5 0 .1-.1.3-.1.4-.1.5-.2.7-.3.6zm2.2-8.1c0-.1.2-.1.6-.1H150.5v.1c0 .1 0 .1-.1.1h-.1-1c-.1-.1-.2-.1-.2-.1zM146.7 46c0-.1.1-.4.2-.8l.2-.7c0-.1.1-.3.2-.5.1 0 .1.1.1.3 0 .1-.1.4-.3.9-.2.5-.3.8-.4.8zm4.7-3.1h.2v.2c-.3 0-.5.1-.8.1h-.5-.1c0-.2.4-.3 1.2-.3zm-3.4.4h.9l2.9.1.5 2.9c.1 1 .3 1.7.4 2.1.1.3.2.5.2.5.1 0 .3.1.7.1h.2c.8 0 1.1 0 1.2-.1v-.1c0-.1-.1-.5-.3-1.3-.2-.8-.4-1.9-.7-3.4-.3-1.4-.6-2.8-.8-4-.5-2.6-.8-4.3-.9-5.3-.1-.4-.1-.8-.2-1.4-.2-1.5-.4-2.2-.5-2.2h-.2-2.9s-.2 1-.7 2.9c-.5 2-1 4-1.5 6.1-.5 2.1-.9 3.6-1.1 4.7-.2 1-.4 1.8-.6 2.2-.1.2-.1.5-.2.7-.1.2-.1.4-.1.5v.2c0 .1.1.1.2.1h.1c.7 0 1.3-.1 1.8-.2.1 0 .2 0 .2-.1l.1-.1V48c0-.1 0-.2.1-.3l1.2-4.4zm3.9-3.8c-.3-.9-.5-1.6-.5-2v-.1-.1s.2.5.5 1.5c.1.1.1.4 0 .7zm-3.9 2l.7-3.2v-.2c0-.1.1-.2.1-.4.1-.2.1-.4.2-.7l1-3.6h.4s.1.4.1 1.2c.1.8.2 1.7.3 2.6.1.9.2 1.4.2 1.5l.4 2.5c-.3 0-.9 0-1.7.1-.9.2-1.4.2-1.7.2zm-6.2 2.6c0 1.5 0 2.3-.1 2.3 0 0 0-.3-.1-1v-1.3c0-.1 0-.2.1-.2 0-.1.1 0 .1.2zm-.1-12.5c-.2 0-.3 0-.4.1 0 .1-.1.3-.1.6 0 2.2-.1 6.6-.1 13.2V48.7c0 .1.1.2.3.2H142.7l.5-.1c.2 0 .2-.1.2-.2v-.2l-.1-2.9V32c0-.2 0-.4-.1-.4-.1-.1-.3-.1-.6-.1h-.9zm0 .3c.1-.1.2-.2.4-.2.1 0 .2 0 .4.1s.3.1.4.1c0 .1-.1.2-.1.2-.6.1-.9.1-.9.1-.2 0-.2 0-.2-.1v-.2zm1.1 2.3c0-.1 0-.2.1-.2s.2.8.2 2.3c0 .7 0 1.1-.1 1.1 0 0-.1 0-.1-.1-.1-1-.1-1.7-.1-2-.1-.3-.1-.7 0-1.1zm-.9 8.3s.1 0 0 0c.2 0 .3.2.3.5 0 .1 0 .2-.1.3-.1.3-.2.3-.2.2-.1-.3-.1-.5-.1-.6 0-.1 0-.2.1-.4z"/>
  <path class="st0" d="M203.4 49c-.2 0-.3.3-.3.7v.1c0 .3.1.4.2.4s.3-.1.4-.1c.4-.1.7-.1.9-.2.1 0 .2 0 .4-.1.2 0 .4-.1.5-.1.1 0 .2-.1.4-.1.2-.1.3-.1.4-.2.1-.1.2-.2.3-.4.1-.1.2-.3.3-.6.1-.2.1-.5.2-.8.2-1 .3-3 .3-5.9v-.4V40v-1.5c0-.5 0-1.2-.1-2.2-.1-1.7-.2-2.9-.4-3.6-.4-1.1-1.1-1.8-2.3-2-.1 0-.3 0-.5-.1-.2 0-.4-.1-.5-.1H203.3c-.1 0-.2.1-.2.3v.2l.1.7v.2c0 .1 0 .2.1.3.1 0 .2.1.4.1.5 0 .9.2 1 .5.1.2.2.9.3 2.1V44.2c0 2.8-.5 4.5-1.6 4.8m.1-17.2c.2 0 .4 0 .7-.1.3 0 .5-.1.6-.1h.5c.1 0 .2 0 .2.1h-.1c-.1.1-.2.1-.3.1h-.5c-.1 0-.3 0-.6.1s-.5.1-.5.1c-.1-.1-.1-.1 0-.2-.1.1-.1 0 0 0zm2 13.7c0-.1 0-.1 0 0 .1-.1.1.3.1 1 0 .6 0 .8-.1.8v-.1-.4-.5c-.1-.1-.1-.4 0-.8zm.1-8.9c-.1 0-.1 0-.1-.2 0-.1-.1-.3-.1-.3l.1-.5c.1-.3.1-.4.1-.4 0 .2 0 .5.1.8 0 .1 0 .3-.1.6zm.9 11.8c-.1.3-.3.6-.4.7-.1.2-.4.3-.7.4l.1-.1.2-.2c.1-.1.1-.1.2-.1l.2-.2.1-.1.3-.4z"/>
  <path class="st1" d="M350.5 34.6l-17.8 10.3c-.3-.5-.6-1-.9-1.6l2.4-1.4c.4-.2.5-.7.3-1.2-.2-.4-.7-.5-1.2-.3l-2.2 1.3c-.2-.9-.4-1.8-.4-2.8 0-5.7 4.6-10.3 10.3-10.3 2.9 0 5.5 1.2 7.4 3.1l-11.7 6.8c-.4.2-.5.7-.3 1.2.2.4.8.5 1.2.3l12-6.9c.3.4.6.9.9 1.5M341.1 51c6.6 0 12-5.4 12-12s-5.4-12-12-12-12 5.4-12 12c0 6.5 5.4 12 12 12zm0-1.7c-2.9 0-5.5-1.2-7.4-3.1l17.3-10c.2.9.4 1.8.4 2.8.1 5.6-4.6 10.3-10.3 10.3z"/>
  <path class="st1" d="M347.4 10.8L365.2 21c.3-.5.6-1 .9-1.6l-2.4-1.4c-.4-.2-.5-.7-.3-1.2.2-.4.7-.5 1.2-.3l2.2 1.3c.2-.9.4-1.8.4-2.8 0-5.7-4.6-10.3-10.3-10.3-2.9 0-5.5 1.2-7.4 3.1l11.7 6.8c.4.2.5.7.3 1.2-.2.4-.7.5-1.2.3l-12-6.9c-.3.5-.6 1-.9 1.6m9.4 16.3c-6.6 0-12-5.4-12-12s5.4-12 12-12 12 5.4 12 12-5.4 12-12 12zm0-1.7c2.9 0 5.5-1.2 7.4-3.1l-17.3-10c-.2.9-.4 1.8-.4 2.8-.1 5.7 4.6 10.3 10.3 10.3z"/>
</svg>