<svg xmlns="http://www.w3.org/2000/svg" width="121" height="61.5" viewBox="0 0 121 61.5">
  <style>
    .st0{fill:#fff}
  </style>
  <path class="st0" d="M98.9 25.2V26.5c0 .1-.1.2-.3.2-.2 0-.4.1-.6.1h-3.6c-.1 0-.2-.1-.2-.2v-.2-.7-4.4-.2-.1-.2-.7-.3-.6-.6c0-.2 0-.4-.1-.6 0-.2 0-.4-.1-.7v-.7-.3-.3-.2-.2-.1c0-.1.1-.2.2-.2.1-.1.4-.2.9-.2H98c.4 0 .6.1.7.1.1.1.2.2.2.3v1.2c0 .1-.1.2-.3.2-.2 0-.5.1-.7.1H95.8v2.3c0 .2 0 .5-.1.7v1.3h2.5c.2 0 .4.1.4.3v.2c0 .2 0 .4-.1.6 0 .2 0 .4-.1.6 0 .2-.2.3-.5.3s-.7 0-1-.1h-1v1.6h2.2c.3 0 .6.1.7.1 0 0 .1.1.1.3m-5.8-9.8v1.3c0 .1 0 .1-.1.2-.1 0-.2.1-.4.1-.3.1-.7.1-1 .1h-.8v8.5c0 .3 0 .7-.1 1 0 .1-.1.2-.2.2-.5.1-1 .1-1.5 0-.1 0-.2-.1-.2-.2v-.3-.5-.5-1-1-1-1-.5-.5-.8-.7-.2-.7-.7h-1.7c-.1 0-.2-.1-.3-.2 0 0-.1-.1-.1-.2-.2-.4-.2-.8-.2-1.2 0-.1.1-.2.1-.2.1 0 .2-.1.4-.1h5.4c.4 0 .5.1.6.2.1-.2.1-.2.1-.1zm-11.7 4.5s-.1 0-.1.1V27c0 .1-.1.2-.1.3 0 .1-.1.2-.3.2h-.7c-.2 0-.4 0-.7-.1 0 0-.1 0-.1-.1 0 0-.1 0-.1-.1-.1-.1-.1-.1-.1-.2v-.3-.5-.5-.3-.6-1.1-1.3-1.2-.7-1.1-1.1-.7-.9-.6-1.6-.3-.3c0-.1.1-.2.2-.2s.2-.1.3-.1h1.8c.1 0 .2.1.2.3.1.1.1.3.1.5s.1.4.1.6c0 .2.1.4.1.5.1.3.2.6.2.8.1.3.1.6.2.8 0 .1 0 .2.1.4s.1.4.2.7c.1.3.1.6.2.9.1.3.2.6.2.9.1.3.1.5.2.8.1.2.1.4.1.5s.1.2.1.3c0 .1.1.2.1.3 0 0 .1 0 .1-.1v-.4-.6-.7-.5-.9-.4-.5-.5-.4-.6-.7-.7-.6-.1-.2c0-.1 0-.1.1-.2 0-.1.2-.1.4-.1h1.1c.2 0 .3.1.4.2.1.1.1.2.1.4 0 .3 0 .5-.1.8V27.4c0 .1-.1.2-.2.2s-.2.1-.3.1H84.3c-.1 0-.2 0-.3-.1-.1 0-.2-.1-.3-.1-.2-.1-.3-.2-.3-.4 0-.3-.1-.7-.2-1-.1-.3-.1-.6-.2-1-.1-.6-.2-1.2-.4-1.8-.2-.6-.3-1.2-.4-1.8-.1-.3-.1-.5-.2-.8-.4-.3-.5-.5-.6-.8zm-3.3-1.4v2c0 .6 0 1.1-.1 1.6 0 .5 0 1.1-.1 1.6v2.7c0 .1 0 .1-.1.2 0 .1-.1.1-.2.1H77c-.2 0-.4 0-.6-.1-.2-.1-.3-.1-.4-.2-.1-.1-.2-.2-.1-.4v-.2-.3h-1.4c-.2 0-.4-.1-.5-.1-.2 0-.3-.1-.4-.1h-.2c-.4-.1-.7-.3-.9-.5-.2-.2-.4-.4-.6-.7-.1-.2-.2-.5-.3-.8v-.9c0-.3.1-.5.2-.7.1-.2.3-.4.4-.6.1-.1.2-.2.4-.3.2-.1.3-.2.4-.3.3-.1.5-.2.8-.3.2 0 .6-.1.9-.1.3 0 .6 0 .7-.1h.6v-.1-.1-.9c0-.3-.1-.6-.2-.9 0-.1-.1-.2-.1-.3 0-.1-.1-.2-.1-.3-.1-.1-.2-.3-.3-.3-.1-.1-.2-.1-.4-.1-.1 0-.2 0-.3.1-.1.1-.2.1-.2.2-.1.1-.1.2-.1.3 0 .1-.1.1-.1.2-.1.1-.1.3-.1.5s-.1.4-.1.6c0 .1 0 .2-.1.2 0 .1-.1.1-.1.2-.1 0-.2.1-.3.1h-.6c-.2 0-.4-.1-.5-.1-.1-.1-.2-.2-.2-.3 0-.1-.1-.2-.1-.3v-.3-.2-.2c0-.4.1-.8.2-1 .1-.3.2-.5.3-.6.1-.1.2-.3.2-.3l.2-.2c.2-.2.4-.3.6-.5l.6-.3c.3-.1.6-.1.9 0 .3 0 .6.1.9.3.1 0 .1.1.2.1s.1.1.2.1c.2.1.3.2.5.4.1.2.2.3.3.5.1.3.2.7.3 1 .4.3.5.6.6 1zm-12.9.6v-.6-.9-.9-.6-.3-.5-.6-.5-.1-.1c0-.1.1-.2.3-.2H70.4c.2 0 .3.1.3.3 0 .2 0 .4.1.6v1.4c0 .3 0 .6.1.9v6.3c0 .3-.1.5-.1.8 0 .2-.1.5-.1.7 0 .3-.1.5-.2.8-.1.5-.3.9-.6 1.3-.2.2-.4.3-.6.5-.2.1-.5.2-.8.2-.3 0-.5 0-.8-.1-.3-.1-.5-.2-.8-.4-.2-.1-.4-.3-.5-.5-.2-.3-.4-.7-.5-1-.1-.4-.2-.7-.3-1.1v-.7-.7c0-.2 0-.6-.1-1v-1.3-1.2c-.3-.1-.3-.3-.3-.5zM64 14.2V23.5c0 .3 0 .6-.1 1-.1.3-.1.7-.2 1-.1.3-.2.7-.4 1-.2.4-.5.7-.8.9l-.5.1c-.3.1-.6.2-.9.2-.3 0-.6 0-.9-.1l-.6-.3c-.2-.1-.4-.3-.5-.5l-.2-.2c-.1-.1-.1-.2-.2-.3-.1-.2-.2-.4-.2-.6-.1-.3-.1-.6-.2-1-.1-.6-.1-1.2-.1-1.6 0-.4 0-.7.1-.8V22v-.3c0-.3.2-.4.5-.5.3-.1.5-.1.6-.1h.6c.1 0 .2.1.3.2.1.1.1.3 0 .5 0 .2-.1.3-.1.5 0 .1 0 .3-.1.4v1.6c0 .3.1.5.1.7 0 0 0 .1.1.2 0 .1.1.2.1.2.1.1.1.2.2.2.1.1.2.1.3.1.2 0 .3 0 .4-.1l.3-.3c.1-.1.1-.2.2-.3 0-.1.1-.2.1-.3.1-.2.2-.5.2-.9.1-.3.1-.6.1-.9v-.7-.7-.5-.5-.8-.9-.5V16.4v-.9-.9-.7c0-.2 0-.3.1-.3 0 0 .1-.1.2-.1h1c.2 0 .3.1.3.1.2.4.2.4.2.6zm-4.5 5.9c-.3-.1-.5-.3-.7-.5-.2-.2-.3-.5-.4-.7-.2-.5-.3-1-.2-1.6.1-.2.1-.4.2-.6l.3-.6c.1-.1.1-.2.2-.3l.3-.3c.2-.2.3-.3.5-.4.1-.1.3-.2.5-.3.2-.1.3-.1.5-.2h.6c.2 0 .3.1.4.2.1.1.1.2.1.5V19c0 .3 0 .5-.1.8 0 .1 0 .2-.1.3 0 .1-.1.1-.2.1-.2 0-.4.1-.7.1h-.6c-.2-.1-.4-.1-.5-.2h-.1c.1 0 .1 0 0 0z"/>
  <path class="st0" d="M98.5 45.2V46.5c0 .1-.1.2-.3.2-.2 0-.4.1-.6.1H94c-.1 0-.2-.1-.2-.2v-.2-.7-4.4-.2-.1-.2-.7-.3-.6-.6c0-.2 0-.4-.1-.6 0-.2 0-.4-.1-.7v-.7-.3-.3-.2-.2-.1c0-.1.1-.2.2-.2.1-.1.4-.2.9-.2h2.9c.4 0 .6.1.7.1.1.1.2.2.2.3v1.2c0 .1-.1.2-.3.2-.2 0-.5.1-.7.1H95.4v2.3c0 .2 0 .5-.1.7v1.3h2.3c.2 0 .4.1.4.3v.2c0 .2 0 .4-.1.6 0 .2 0 .4-.1.6 0 .2-.2.3-.5.3s-.7 0-1-.1h-1v1.6h2.2c.3 0 .6.1.7.1.2 0 .3.1.3.3m-5.8-9.9v1.3c0 .1 0 .1-.1.2-.1 0-.2.1-.4.1-.3.1-.7.1-1 .1h-.8v8.5c0 .3 0 .7-.1 1 0 .1-.1.2-.2.2-.5.1-1 .1-1.5 0-.1 0-.2-.1-.2-.2v-.3-.5-.5-1-1-1-1-.5-.5-.8-.7-.2-.7-.7h-1.7c-.1 0-.2-.1-.3-.2 0 0-.1-.1-.1-.2-.2-.4-.2-.8-.2-1.2 0-.1.1-.2.1-.2.1 0 .2-.1.4-.1H92c.3 0 .5.1.6.2l.1-.1zm-7.4 3.1c0 .3.1.7.1 1v1c0 .6 0 1.1-.1 1.6 0 .5-.1 1.1-.1 1.6v2.7c0 .1 0 .1-.1.2 0 .1-.1.1-.2.1h-.6c-.2 0-.4 0-.6-.1-.2-.1-.3-.1-.4-.2-.2 0-.3-.1-.3-.3v-.3-.3h-1.4c-.2 0-.4-.1-.5-.1-.2 0-.3-.1-.4-.1h-.2c-.4-.1-.7-.3-.9-.5-.2-.2-.4-.5-.6-.7-.1-.2-.2-.5-.3-.8v-.9c0-.3.1-.5.2-.7.1-.2.3-.4.4-.6.1-.1.2-.2.4-.3.2-.1.3-.2.4-.3.3-.1.5-.2.8-.3.2 0 .6-.1.9-.1.3 0 .6 0 .8-.1h.6v-.3-.9c0-.3-.1-.6-.2-.9 0-.1 0-.2-.1-.3 0-.1-.1-.2-.1-.3.2 0 .1-.2 0-.2-.1-.1-.2-.1-.4-.1-.1 0-.2 0-.3.1-.1.1-.2.1-.2.2-.1.1-.1.2-.1.2 0 .1-.1.1-.1.2-.1.1-.1.3-.1.5s-.1.4-.1.6c0 .1 0 .2-.1.3 0 .1-.1.1-.1.2-.1 0-.2.1-.3.1h-.6c-.2 0-.4-.1-.5-.1-.1-.1-.2-.2-.2-.3 0-.1-.1-.2-.1-.3v-.3-.2-.2c0-.4.1-.8.2-1 .1-.3.2-.5.3-.6.1-.1.1-.3.2-.3l.2-.2c.2-.2.4-.3.5-.5l.6-.3c.3-.1.6-.1.9 0 .3 0 .6.1.9.3l.4.2c.3.2.6.5.8 1 .2.3.3.7.3 1.1.3.1.3.5.4.8zm-4.9-4.1c0-.1-.1-.3-.1-.4 0-.1-.1-.3-.1-.4 0-.2 0-.2.1-.3 0 0 .2 0 .4-.1.2 0 .4-.1.6-.2.2-.1.4-.1.6-.2.2-.1.3-.1.4-.1H82.9c.2 0 .4-.1.5-.1.1 0 .3-.1.5-.2 0 0 .1 0 .1-.1h.1c.1 0 .1.1.1.2.1.2.1.3.2.5s.1.4.1.6v.2s-.1.1-.2.1-.1 0-.2.1c-.2 0-.3.1-.5.1s-.3.1-.5.1h-.4c-.2 0-.4.1-.6.2 0 0-.1 0-.3.1-.1 0-.2.1-.4.1-.1 0-.3.1-.4.1-.1 0-.2.1-.3.1 0 0-.1 0-.1.1h-.2-.1-.1c-.1 0-.1 0-.1-.1.3-.2.3-.3.3-.4zm-2.6 10.4c.1 0 .2.1.3.1 0 0 .1.1 0 .2V46.4c0 .1 0 .1-.1.2s-.2.2-.5.2H73.5h-.1c-.1 0-.2-.1-.2-.3v-.7-.7-.8-.7-.2-.8-.8-.5-.5-1.1-1.1-1-1-.5-.6-.3c0-.1.1-.2.2-.2.5-.1 1-.1 1.5 0 .1 0 .2.1.2.2 0 .3.1.7.1 1V44.6h1.6c.5.1.7.1 1 .1zm43.1-19.5V26.5c0 .1-.1.2-.3.2-.2 0-.4.1-.6.1h-3.6c-.1 0-.2-.1-.2-.2v-.2-.7-4.4-.2-.1-.2-.7-.3-.6-.6c0-.2 0-.4-.1-.6 0-.2 0-.4-.1-.7v-.7-.3-.3-.2-.2-.1c0-.1.1-.2.2-.2.1-.1.4-.2.9-.2h2.9c.4 0 .6.1.7.1.1.1.2.2.2.3v1.2c0 .1-.1.2-.3.2-.2 0-.5.1-.7.1H117.8v2.3c0 .2 0 .5-.1.7v1.3h2.3c.2 0 .4.1.4.3v.2c0 .2 0 .4-.1.6 0 .2 0 .4-.1.6 0 .2-.2.3-.5.3s-.7 0-1-.1h-1v1.6h2.2c.3 0 .6.1.7.1.2 0 .3.1.3.3zm-11-3.2v-.8-1.1-1-.5-.5-.9-.9-.5-.3-.3-.1-.1s.1-.1.2-.1H110.7c.1 0 .3 0 .4.1.1 0 .3.1.4.1.1 0 .2.1.4.1.2.1.4.2.7.4.3.2.6.4.8.6.2.2.4.4.5.6.2.3.4.5.5.7s.2.5.3.8c0 .1.1.3.1.5s.1.5.1.7c0 .3 0 .5.1.7V21.4c0 .3-.1.6-.1.8 0 .1-.1.3-.1.4 0 .1-.1.3-.1.4-.1.2-.1.4-.3.6s-.2.4-.4.7c-.1.2-.2.3-.3.4l-.3.3c-.1.1-.2.2-.3.2l-.3.3c-.3.2-.5.3-.9.5-.3.2-.7.3-1 .4-.3 0-.5 0-.7.1-.2 0-.3 0-.3-.1 0 0-.1-.1-.1-.2v-.3-.3-.2-1-1.1-.9c.1-.1.1-.3.1-.4zm-6.3-4c-.2 0-.2-.2-.2-.3v-.3-.4-.4c0-.1 0-.2-.1-.2 0-.1-.1-.2-.1-.2 0-.1-.1-.1-.2-.2s-.3-.1-.5-.1-.4.1-.5.3c-.1.1-.1.1-.1.3 0 .1 0 .2-.1.3v.6c.1.5.2.9.5 1.2.1.2.2.3.4.5.1.2.2.4.4.5.2.2.3.5.4.7.2.2.3.4.4.5.1.1.2.3.3.4.4.5.7 1 .9 1.5.2.5.3 1.1.4 1.7v.9c0 .7-.4 1.3-.9 1.8l-.1.1-.1.1-.6.3c-.2.1-.4.1-.6.1h-.7c-.2 0-.4 0-.7-.1-.2 0-.3-.1-.4-.2-.1-.1-.3-.2-.4-.3-.1-.1-.2-.2-.4-.3-.1-.1-.2-.2-.3-.4 0 0 0-.1-.1-.1 0 0 0-.1-.1-.1-.1-.2-.2-.5-.2-.7-.1-.2-.1-.5-.1-.8v-.4-.5c0-.1 0-.3.1-.4v-.2c.1-.2.2-.3.4-.3h.2c.3.1.7.2 1 .3.1 0 .2.1.2.1v.3c0 .2 0 .3-.1.5v.5c0 .2 0 .4.1.6 0 .2.1.3.2.4.1.1.3.2.5.2s.4 0 .6-.1c.1-.1.2-.2.3-.4.1-.2.1-.3.1-.5s0-.4-.1-.6c-.1-.2-.1-.4-.2-.6l-.3-.6c-.1-.2-.2-.4-.4-.6-.1-.2-.2-.3-.3-.5s-.2-.4-.3-.5c-.1-.1-.2-.3-.2-.4-.1-.1-.2-.3-.3-.4-.2-.2-.3-.4-.4-.6l-.3-.6c0-.1-.1-.1-.1-.2s-.1-.1-.1-.2c-.2-.3-.4-.7-.5-1.1-.1-.4-.1-.7-.2-1.1 0-.5 0-.9.1-1.3.1-.3.3-.6.5-.8.4-.3.8-.5 1.3-.5.4-.1.8-.1 1.2 0 .4.1.8.2 1.1.4.2.1.3.3.5.4.1.2.3.3.4.6.1.1.1.3.1.4 0 .1.1.3.1.5v1.2c0 .4-.2.6-.7.6h-.8c.2-.3.2-.3.1-.3z"/>
  <path class="st0" d="M105.5 44.6l.3.6.3.6c.1.2.1.3 0 .4-.1.1-.2.2-.5.2-.2 0-.5.1-.7.1s-.5 0-.8.1c-.2 0-.3-.1-.4-.2v-.1-.1c0-.2-.1-.3-.1-.5-.1-.1-.1-.3-.2-.5s-.1-.4-.2-.5c-.1-.2-.1-.3-.2-.5 0-.1-.1-.2-.1-.2 0-.1-.1-.2-.1-.2 0 .1-.1.2-.1.2 0 .1-.1.2-.1.2-.1.2-.2.3-.2.5-.1.2-.1.3-.2.5s-.1.3-.2.5c-.1.1-.1.3-.2.5v.2c-.1.1-.2.2-.4.2-.3 0-.5 0-.8-.1-.3 0-.5 0-.7-.1-.2 0-.4-.1-.4-.2-.1-.1-.1-.3 0-.4l.3-.6.3-.6.3-.9c.1-.2.1-.5.2-.7.1-.2.2-.4.3-.7.1-.1.1-.2.2-.4 0-.1.1-.2.2-.4 0-.1.1-.2.1-.3.1-.1.1-.3.2-.5-.1-.1-.1-.3-.2-.5s-.1-.3-.2-.5-.1-.4-.2-.6l-.3-.6c-.1-.3-.2-.5-.3-.8-.1-.3-.2-.5-.3-.8-.1-.2-.1-.3-.2-.5 0-.1-.1-.3-.2-.5-.1-.1-.1-.2-.1-.3 0-.1-.1-.2-.1-.3 0-.1-.1-.1-.1-.2v-.2c.1 0 .1-.1.2-.1h1.7c.3 0 .4.1.5.3 0 .1.1.3.1.4 0 .1.1.3.1.4.1.2.1.3.2.5s.1.3.2.5c0 .1.1.1.1.3 0 .1.1.2.2.4.1-.3.2-.5.3-.6.1-.2.1-.3.2-.5s.1-.3.2-.5c0-.1.1-.3.2-.4.1-.1.1-.3.2-.4.1-.2.3-.3.5-.3H106c.1 0 .1.1.2.1s.1.1 0 .2c0 .1-.1.2-.1.2 0 .1-.1.2-.1.3 0 .1-.1.2-.1.3-.1.2-.2.4-.2.5 0 .1-.1.3-.2.5-.1.3-.2.5-.3.8-.1.3-.2.5-.3.8l-.3.6c-.1.2-.2.4-.2.6 0 .1-.1.3-.2.5s-.1.4-.2.5c.1.2.1.4.2.5.1.1.1.3.1.3 0 .1.1.2.1.4 0 .1.1.2.2.4s.2.5.3.7c.1.2.2.5.2.7.2.2.3.5.4.8"/>
  <path d="M5.9 52.5c1.5-8 2.1-9.9-.3-17.7.1.8-1.5-5.1-1.9-6.4l-1.4-5.7c-.1-.3-.1-.6-.1-.8 0-.7.3-1 1-1.3.6-.1.9-.1 1.4.5.2.2.3.4.4.7L7.7 28c.8 1.8 3.4 1.5 3.5-.8.9-22.2.8-21 .8-21.1-.1-.8.5-1.6 1.4-1.7.9 0 1.6.6 1.7 1.4l-.8 19.6c0 .7.5 1.4 1.4 1.4.7 0 1.3-.4 1.4-1.1l5.3-22.1v-.1c.1-.8.9-1.4 1.8-1.2.8.1 1.3.9 1.2 1.7L20 26.3c-.4 1.5 1.8 2.2 2.4.8l8.1-18.3c.4-.7 1.3-1.1 2-.7.8.4 1.1 1.3.7 2l-7.8 18c-.3.6-.1 1.3.5 1.7.6.4 1.5.2 1.8-.4l7.8-12c.8-1.2 2.5.2 1.5 1.8l-5.7 9c-2.1 3.5-2.8 6.2-4 9-.3.6 0 1.2.6 1.5.6.3 1.2 0 1.5-.6 1.3-2.9 1.9-5.4 3.9-8.7l5.7-9c.4-.7.6-1.4.6-2.1v-.1c0-1.1-.6-2.1-1.3-2.7-1.4-1.1-3.5-1-4.7.7l-1.9 2.9 3.5-8c.9-1.9.1-4.1-1.8-5-1.9-.9-4.2-.1-5 1.8l-3.7 8.2c0-.1 2.8-11.7 2.8-11.7.4-2.1-1-4-3.1-4.4-2-.4-4 1-4.4 3l-3.2 13.4c.5-11.5.5-10.7.4-10.9-.2-2.1-2.1-3.6-4.1-3.4-2.1.2-3.6 2-3.4 4.1l-.7 19-1.9-4.4c-.9-2-2.6-3-4.5-2.5-2.1.7-3 2.7-2.4 5 1.2 4.8 2.5 9.4 3.9 14.1 1.6 5.4.7 8.9-.4 14.9-1.3.2-2.3 1.3-2.5 2.6-.2 1.7.9 3.3 2.7 3.5l6.9 1c.6.1 1.2-.3 1.3-1 .1-.6-.3-1.2-1-1.3l-6.9-1c-.5-.1-.8-.5-.7-1 .1-.5.6-.8 1-.7l20.1 2.8c.5.1.8.5.7 1-.1.5-.5.8-1 .7l-8-1.1c-.6-.1-1.2.3-1.3 1-.1.6.3 1.2 1 1.3l8 1.1h.5c3.2 0 4.3-4.6 1.2-6 .1-3.6 0-7.3 1.9-12.4.2-.6-.1-1.2-.7-1.5-.6-.2-1.2.1-1.5.7-2 5.7-1.9 9.9-2 12.7L5.9 52.5z" fill-rule="evenodd" clip-rule="evenodd" fill="#fff"/>
</svg>