<svg xmlns="http://www.w3.org/2000/svg" width="230.8" height="104" viewBox="0 0 230.8 104">
  <style>
    .st0{fill:#fff}.st1,.st2{fill-rule:evenodd;clip-rule:evenodd}.st2{fill:#fff}.st3{fill:#a44685}
  </style>
  <circle class="st0" cx="27.9" cy="96.9" r="7.1"/>
  <circle class="st0" cx="96.1" cy="96.9" r="7.1"/>
  <circle class="st0" cx="156.9" cy="96.4" r="7.1"/>
  <path class="st1" d="M4.5 62.5c-.1.5-.5.9-.9 1.1-.8.5-1.8.4-2.1-.2-.2-.3-.1-.6-.1-.8.1-.4.5-.9.9-1.1.8-.5 1.8-.4 2.1.2.2.4.2.6.1.8m0-7.4c-.3.6-1.3.7-2.1.2-.5-.3-.8-.7-.9-1.1-.1-.2-.1-.5.1-.8.3-.6 1.3-.7 2.1-.2.5.3.8.7.9 1.1 0 .3 0 .5-.1.8zm13.4-.9s-1.1-.9-2-.4c-.7.4-5.2 2.7-7.3 3.7l-2.9-1.6c.3-.7.4-1.3.2-1.9-.2-.8-.8-1.5-1.6-2-1.5-.9-3.3-.5-4 .7-.3.6-.4 1.2-.2 1.8.2.8.8 1.5 1.6 2 .4.2.7.3 1.1.4h.1c2.4.4 3.6 1 4.2 1.5-.6.5-1.8 1.1-4.2 1.5h-.1c-.4.1-.8.2-1.1.4-.8.5-1.4 1.2-1.6 2-.2.7-.1 1.3.2 1.9.7 1.2 2.5 1.6 4 .7.8-.5 1.4-1.2 1.6-2 .2-.6.1-1.2-.2-1.8l2.9-1.6c2 1 6.6 3.3 7.3 3.7.9.5 2-.4 2-.4l-7.5-4.3 7.5-4.3z"/>
  <path class="st1" d="M12.1 58.1h1.8v.8h-1.8z"/>
  <path class="st1" d="M14.9 58.1h1.8v.8h-1.8z"/>
  <path class="st1" d="M17.8 58.1h1.8v.8h-1.8z"/>
  <path class="st2" d="M17.7 64.2c-1.3 0-2.4 1.1-2.4 2.4 0 1.3 1.1 2.4 2.4 2.4h21.4c1.3 0 2.4-1.1 2.4-2.4 0-1.3-1.1-2.4-2.4-2.4H17.7zm21.4 7.2H17.7c-2.6 0-4.8-2.1-4.8-4.8 0-2.6 2.1-4.8 4.8-4.8h21.4c2.6 0 4.8 2.1 4.8 4.8-.1 2.6-2.2 4.8-4.8 4.8z"/>
  <path class="st2" d="M20.1 61.8h16.7v-44c0-3.8-2.7-7.4-6.2-8.4-.5-.1-.9-.6-.9-1.2V3.6c0-.7-.5-1.2-1.2-1.2s-1.2.5-1.2 1.2v4.8c0 .5-.4 1-.9 1.2-3.6.9-6.2 4.5-6.2 8.4v43.8zm17.8 2.4h-19c-.7 0-1.2-.5-1.2-1.2V17.8c0-4.7 3-8.9 7.1-10.4V3.6c0-2 1.6-3.6 3.6-3.6S32 1.6 32 3.6v3.9c4.2 1.5 7.1 5.7 7.1 10.4V63c0 .7-.6 1.2-1.2 1.2z"/>
  <path class="st1" d="M4.5 22.6c-.1.5-.5.9-.9 1.1-.8.5-1.8.4-2.1-.2-.2-.3-.1-.6-.1-.8.1-.4.5-.9.9-1.1.8-.5 1.8-.4 2.1.2.2.3.2.6.1.8m0-7.5c-.3.6-1.3.7-2.1.2-.5-.3-.8-.7-.9-1.1-.1-.2-.1-.5.1-.8.3-.6 1.3-.7 2.1-.2.5.3.8.7.9 1.1 0 .3 0 .6-.1.8zm13.4-.9s-1.1-.9-2-.4c-.7.4-5.2 2.7-7.3 3.7l-2.9-1.6c.3-.6.4-1.3.2-1.9-.2-.8-.8-1.5-1.6-2-1.5-.9-3.3-.5-4 .7-.3.6-.4 1.3-.2 1.9.2.8.8 1.5 1.6 2 .4.2.7.3 1.1.4h.1c2.4.4 3.6 1 4.2 1.5-.6.5-1.8 1.1-4.2 1.5h-.1c-.4.1-.8.2-1.1.4-.8.5-1.4 1.2-1.6 2-.2.6-.1 1.2.2 1.8.7 1.2 2.5 1.6 4 .7.8-.5 1.4-1.2 1.6-2 .2-.6.1-1.2-.2-1.8l2.9-1.6c2 1 6.6 3.3 7.3 3.7.9.5 2-.4 2-.4l-7.5-4.3 7.5-4.3z"/>
  <path class="st1" d="M12.1 18.1h1.8v.8h-1.8z"/>
  <path class="st1" d="M14.9 18.1h1.8v.8h-1.8z"/>
  <path class="st1" d="M17.8 18.1h1.8v.8h-1.8z"/>
  <path class="st1" d="M20.3 18.1h1.8v.8h-1.8z"/>
  <path class="st1" d="M29.2 18.1H31v.8h-1.8z"/>
  <path class="st1" d="M23 18.1h1.8v.8H23z"/>
  <path class="st1" d="M32 18.1h1.8v.8H32z"/>
  <path class="st1" d="M26 18.1h1.8v.8H26z"/>
  <path class="st1" d="M34.9 18.1h1.8v.8h-1.8z"/>
  <path class="st1" d="M20.3 58.1h1.8v.8h-1.8z"/>
  <path class="st1" d="M29.2 58.1H31v.8h-1.8z"/>
  <path class="st1" d="M23 58.1h1.8v.8H23z"/>
  <path class="st1" d="M32 58.1h1.8v.8H32z"/>
  <path class="st1" d="M26 58.1h1.8v.8H26z"/>
  <path class="st1" d="M34.9 58.1h1.8v.8h-1.8z"/>
  <g>
    <path class="st0" d="M102 16.2H90.2c-.2 0-.3.1-.5.2-.1.1-.2.3-.2.5v36.3c0 .2.1.3.2.5.1.1.3.2.5.2H102c.2 0 .3-.1.5-.2.1-.1.2-.3.2-.5V16.8c0-.2-.1-.3-.2-.5-.1 0-.3-.1-.5-.1m-11.8-2H102c.7 0 1.4.3 1.9.8s.8 1.1.8 1.9v36.3c0 .7-.3 1.4-.8 1.9s-1.1.8-1.9.8H90.2c-.7 0-1.4-.3-1.9-.8s-.8-1.1-.8-1.9V16.8c0-.7.3-1.4.8-1.9.5-.4 1.1-.7 1.9-.7z"/>
    <path class="st1" d="M95.4 51.3h.8v1.8h-.8z"/>
    <path class="st1" d="M95.4 42.4h.8v1.8h-.8z"/>
    <path class="st1" d="M95.4 48.5h.8v1.8h-.8z"/>
    <path class="st1" d="M95.4 39.6h.8v1.8h-.8z"/>
    <path class="st1" d="M95.4 45.6h.8v1.8h-.8z"/>
    <path class="st1" d="M95.4 36.7h.8v1.8h-.8z"/>
    <path class="st1" d="M95.4 34h.8v1.8h-.8z"/>
    <path class="st1" d="M95.4 25.1h.8v1.8h-.8z"/>
    <path class="st1" d="M95.4 31.2h.8V33h-.8z"/>
    <path class="st1" d="M95.4 22.3h.8v1.8h-.8z"/>
    <path class="st1" d="M95.4 28.3h.8v1.8h-.8z"/>
    <path class="st1" d="M95.4 19.4h.8v1.8h-.8z"/>
    <path class="st1" d="M95.4 16.7h.8v1.8h-.8z"/>
    <path class="st1" d="M100.3 65.3c.5.1.9.5 1.1.9.5.8.4 1.8-.2 2.1-.3.2-.6.1-.8.1-.4-.1-.9-.5-1.1-.9-.5-.8-.4-1.8.2-2.1.3-.2.6-.2.8-.1m-7.4.1c.6.3.7 1.3.2 2.1-.3.5-.7.8-1.1.9-.2.1-.5.1-.8-.1-.6-.3-.7-1.3-.2-2.1.3-.5.7-.8 1.1-.9.2-.1.5-.1.8.1zm-1-13.4s-.9 1.1-.4 2c.4.7 2.7 5.2 3.7 7.3l-1.6 2.9c-.6-.3-1.2-.4-1.8-.2-.8.2-1.5.8-2 1.6-.9 1.5-.5 3.3.7 4 .6.3 1.2.4 1.8.2.8-.2 1.5-.8 2-1.6.2-.4.3-.7.4-1.1V67c.4-2.4 1-3.6 1.5-4.2.5.6 1.1 1.8 1.5 4.2v.1c.1.4.2.8.4 1.1.5.8 1.2 1.4 2 1.6.6.2 1.3.1 1.8-.2 1.2-.7 1.6-2.5.7-4-.5-.8-1.2-1.4-2-1.6-.6-.2-1.2-.1-1.8.2l-1.6-2.9c1-2 3.3-6.6 3.7-7.3.5-.9-.4-2-.4-2l-4.3 7.5-4.3-7.5z"/>
  </g>
  <g>
    <path class="st3" d="M25.8 99.7h1.7V95l.2-.8-.7.7-1 .7-.7-.9 2.7-2.2h.9v7.2h1.6v1.3h-4.8v-1.3z"/>
  </g>
  <g>
    <path class="st3" d="M98.4 94.3c0 .4-.1.8-.2 1.2-.1.4-.3.8-.6 1.2-.2.4-.5.8-.8 1.2-.3.4-.5.7-.8 1l-.6.5v.1l.9-.2h2.3v1.3h-5.1v-.8c.2-.2.4-.4.6-.7.2-.3.5-.6.7-.9.2-.3.5-.6.7-.9.2-.3.4-.6.6-1 .2-.3.3-.6.4-.9.1-.3.2-.6.2-.9 0-.3-.1-.6-.3-.8-.2-.2-.5-.3-.9-.3-.3 0-.5.1-.8.2-.3.1-.5.2-.7.4l-.4-1c.3-.3.7-.5 1.1-.6.4-.2.9-.2 1.4-.2.3 0 .7 0 .9.1.3.1.5.2.7.4s.4.4.5.7c.2.3.2.6.2.9z"/>
  </g>
  <g>
    <path class="st3" d="M156.4 99.4c.5 0 .9-.1 1.1-.4s.4-.6.4-1c0-.5-.1-.8-.4-1-.3-.2-.7-.3-1.3-.3h-.9v-.8l1.5-2 .7-.5-.9.1h-2v-1.3h4.6v.8l-1.7 2.3-.5.3v.1l.5-.1c.3 0 .5.1.8.2.3.1.5.3.7.5.2.2.3.4.4.7.1.3.2.6.2 1 0 .5-.1.9-.2 1.2l-.6.9c-.3.2-.6.4-1 .5s-.8.2-1.2.2c-.4 0-.7 0-1.1-.1-.4-.1-.7-.2-.9-.3l.4-1.3c.2.1.4.2.7.3h.7z"/>
  </g>
  <g>
    <path class="st0" d="M169.9 41.2v-.1c.1-1.4.1-2.8.3-4.2v-.3c.1-.8.5-2.8.5-3.7 0-.8-.1-1.7-.3-2.6-.3-.9-.7-1.7-1.6-2.1-.2-.1-.5-.1-.7-.1-.4 0-.8 0-1.2.2-.5-.2-2.5-1-3.9-.2-1.1.6-3.4 4.1-4.5 5.8-.3.5-.5.8-.6.9 0 0-.3.1-.6.3-.7.3-1.5.6-1.9 1.3-.6 1-.6 10.9-.6 10.9s.6 7.2-.1 7.8c-.6.6-2.5 2.6-3.8 4.5-.9 1.2-1.4 2.4-1.3 3.2.3 1.6 2.5 2.6 2.9 2.9.5.4 3.1 2.5 5.2 1.7s6.1-7 6.5-7.6c.4-.5 4.2-4.6 5.2-6.3.5-1 1-3 1.2-5.1.6-3.4.5-4.6-.7-7.2m-.7-6.6v.2c-.3 1.6-.5 5-.6 5.9l-.1.4v.2l.1.2s.2.5.9 2.2c.3.8.3 2.6.1 4.4-.2 1.9-.6 3.8-1 4.6-.9 1.7-5 6-5 6.1v.1s-4 6.5-5.9 7.1c-1.7.6-4-1.5-4-1.5l-.1-.1h-.1s-2-.9-2.3-2c-.1-.3.4-1.2 1.1-2.2 1.2-1.8 3-3.8 3.6-4.3 1.2-1.1.5-8.8.5-8.9 0-.7-.1-9.5.4-10.2.2-.3.8-.6 1.3-.8.5-.2.9-.3 1.1-.6.1-.1.3-.5.7-1 1.1-1.6 3.1-4.9 4-5.3.5-.3 1.3-.2 1.9 0-.2.2-.3.4-.5.7-.3.5-.6 1.2-.8 2.1-.1 0-.4-1.9-.4-1.9 0-.2-.2-.3-.4-.3s-.3.2-.3.4c0 0 .4 2.3.9 2.5-.1.6-.2 1.3-.3 2.1-.1.5-.1 1-.1 1.5h-.2c-1 0-1.5-.8-1.5-.8-.1-.1-.3-.2-.5-.1-.1.1-.2.3-.1.5 0 0 .7 1 2 1h.1c0 .8 0 1.5.1 2v.5c-.6-.4-2.6-1.5-3.7-.3-.1.1-.1.3 0 .5.1.1.3.1.5 0 .6-.6 1.7-.2 2.4.2-.5-.2-1.1-.3-1.7-.1-.2.1-.2.3-.2.4.1.2.3.2.4.2.3-.1.7-.1 1 0h-.3c-.2 0-.3.2-.3.4 0 .1.1.2.2.3-.3.1-.6.3-.9.7-.1.1-.1.3 0 .5.1.1.3.1.5 0 .6-.7 1.1-.7 1.3-.6-.9 1.5-1.8 4-1.8 4.1-.1.3 0 .7.4.8.3.1.7 0 .8-.4 0 0 1.2-3.2 2-4.4.6-.9.6-1.6.5-2.7-.1-.9-.1-2 .1-3.9s.6-3.4 1.1-4.3c.5-.8 1.1-1.1 1.9-1.1h.3c.4.1.6.6.8 1.2.2.7.3 1.5.2 2.2 0 .5-.1 1-.1 1.1.1 0 0 .2 0 .5z"/>
    <path class="st0" d="M222.7 12h-46.3c-1.8 0-3.4.7-4.5 1.9-1.2 1.2-1.9 2.8-1.9 4.5v25c0 1.8.7 3.4 1.9 4.5 1.2 1.2 2.8 1.9 4.5 1.9h46.3c1.8 0 3.4-.7 4.5-1.9 1.2-1.2 1.9-2.8 1.9-4.5v-25c0-1.8-.7-3.4-1.9-4.5-1.1-1.2-2.7-1.9-4.5-1.9m-46.3-1.7h46.3c2.2 0 4.2.9 5.7 2.4s2.4 3.5 2.4 5.7v25c0 2.2-.9 4.2-2.4 5.7s-3.5 2.4-5.7 2.4h-46.3c-2.2 0-4.2-.9-5.7-2.4s-2.4-3.5-2.4-5.7v-25c0-2.2.9-4.2 2.4-5.7 1.4-1.5 3.5-2.4 5.7-2.4z"/>
    <path class="st0" d="M215.3 23.2v-.8-1.1-1-.5-.5-.9-.9-.5-.3-.3-.1-.1s.1-.1.2-.1H216.1c.1 0 .3 0 .4.1.1 0 .3.1.4.1.1 0 .2.1.4.1.2.1.4.2.7.4.3.2.6.4.8.6.2.2.4.4.5.6.2.3.4.5.5.7.1.2.2.5.3.8 0 .1.1.3.1.5s.1.5.1.7c0 .3 0 .5.1.7V22.6c0 .3-.1.6-.1.8 0 .1-.1.3-.1.4 0 .1-.1.3-.1.4-.1.2-.1.4-.3.6-.1.2-.2.4-.4.7-.1.2-.2.3-.3.4l-.3.3c-.1.1-.2.2-.3.2l-.3.3c-.3.2-.5.3-.9.5-.3.2-.7.3-1 .4-.3 0-.5 0-.7.1-.2 0-.3 0-.3-.1 0 0-.1-.1-.1-.2v-.3-.3-.2-1-1.1-.9c.1-.1.1-.3.1-.4m-8.9-5V26.7c0 .1-.1.1-.1.1h-.5c-.1 0-.2 0-.3-.1-.1 0-.2 0-.3-.1 0 0-.1-.1-.3-.1-.1-.1-.3-.1-.6-.3-.3-.2-.5-.3-.6-.5-.1-.2-.3-.3-.4-.5-.2-.2-.3-.4-.4-.5l-.3-.6c0-.1-.1-.3-.1-.5s0-.4-.1-.6c0-.2 0-.4-.1-.5v-.3-.7c0-.2.1-.4.1-.7 0-.1.1-.2.1-.3 0-.1.1-.2.1-.4 0-.1.1-.3.2-.5s.2-.4.3-.5c.1-.1.2-.2.2-.3.1-.1.1-.2.2-.2l.2-.2c.1-.1.2-.1.3-.2.2-.1.4-.3.7-.4.3-.1.5-.2.8-.3h.6c.2 0 .2 0 .2.1 0 0 .1.1.1.2V18.2zm4.7 3.7v.7c0 .2-.1.4-.1.7 0 .1-.1.2-.1.3 0 .1-.1.2-.1.3 0 .1-.1.3-.2.5s-.2.4-.3.5l-.3.3c-.1.1-.1.2-.2.2l-.2.2c-.1.1-.2.1-.3.2-.2.1-.4.3-.7.4-.3.2-.5.2-.8.3h-.6c-.2 0-.2 0-.2-.1 0 0-.1-.1-.1-.2v-.3-.3-.1-.8-.9-.7-.4-.6-.9-.8-.4-.4-.7-.7-.4-.3-.3-.1c0-.1.1-.1.1-.1h.5c.2 0 .4.1.6.1 0 0 .1.1.3.1.1.1.3.1.6.3.3.2.5.3.6.5.1.2.3.3.4.5.2.2.3.4.4.5l.3.6c0 .1.1.3.1.5s.1.4.1.6c0 .2 0 .4.1.6.1.5.1.6.1.6zm-9.9-3.6c.3.5.3 1 .2 1.6-.1.2-.1.4-.2.6l-.3.6-.3.3-.3.3c-.2.2-.4.3-.6.4l-.6.3c-.2.1-.4.1-.6.2h-.7v4.8c0 .2-.1.4-.1.4-.1.1-.2.1-.4.1h-.9c-.2 0-.3 0-.4-.1 0-.1-.1-.1-.1-.2s-.1-.2-.1-.3v-.4-.8-.9-1-.4-1.4-.4-.4-.8-.8-.3-.3-.5-1.5-.3-.3c0-.1 0-.2.1-.3 0-.1.2-.1.4-.1h1.4c.2 0 .3.1.3.1v.7c.2 0 .4-.1.7-.1h.6c.2.1.4.1.6.2l.1.1c.3.1.6.3.8.5 0-.1.2.2.4.4zm-6.9-.6v9.6c0 .1-.1.2-.2.2s-.2.1-.2.1c-.2.1-.4.1-.7.1h-.7c-.2 0-.3-.1-.3-.2-.1-.2-.1-.4-.1-.6v-.3-.3-.5-.8-.8-.5-.6-.6-.4-.5-.4c0-.1 0-.1-.1-.1l-.3.6c-.1.2-.2.4-.2.6 0 .1-.1.3-.1.4-.1.2-.1.3-.2.5s-.1.3-.2.4c-.1.1-.1.2-.1.2s0 .1-.1.1c0 0 0 .1-.1.1-.1.2-.2.3-.3.3-.1 0-.2 0-.3-.1l-.3-.3c-.1-.2-.2-.5-.3-.7 0-.3-.1-.6-.2-.9-.1-.2-.1-.4-.2-.7l-.3-.6s-.1 0-.1.1v5.6c0 .2 0 .4-.1.6 0 .1-.1.2-.3.2h-.7c-.2 0-.4 0-.7-.1-.1 0-.1 0-.2-.1-.1 0-.1-.1-.1-.2v-.2-.4-.4-.2-.5-.9-1.1-1-.6-.9-.9-.6-.8-.5-1.4-.3-.3c0-.1.1-.2.2-.2s.2-.1.3-.1h1.8c.1 0 .2.1.2.2.1.1.1.3.1.4 0 .2.1.3.1.5s.1.3.1.4c.1.2.2.5.2.7.1.2.1.5.2.7 0 .1.1.3.2.6s.2.7.3 1.1c.1-.4.2-.7.3-1.1.1-.3.2-.5.2-.6.1-.2.1-.5.2-.7.1-.2.2-.5.2-.7 0-.1.1-.2.1-.4s.1-.3.1-.5.1-.3.1-.4c.1-.1.1-.2.2-.2h1.5c.1 0 .2 0 .3.1.1 0 .2 0 .3.1.1 0 .1.1.2.2 0 .1 0 .2.1.3v.7c0 .1.2.3.2.5zm-8.9 1.9v2c0 .6 0 1.1-.1 1.6 0 .5 0 1.1-.1 1.6v2.7c0 .1 0 .1-.1.2 0 .1-.1.1-.2.1h-.6c-.2 0-.4 0-.6-.1-.2-.1-.3-.1-.4-.2s-.2-.2-.1-.4v-.2-.3h-1.4c-.2 0-.4-.1-.5-.1-.2 0-.3-.1-.4-.1h-.2c-.4-.1-.7-.3-.9-.5-.2-.2-.4-.4-.6-.7-.1-.2-.2-.5-.3-.8v-.9c0-.3.1-.5.2-.7.1-.2.3-.4.4-.6.1-.1.2-.2.4-.3.2-.1.3-.2.4-.3.3-.1.5-.2.8-.3.2 0 .6-.1.9-.1.3 0 .6 0 .7-.1h.6V21v-.1-.9c0-.3-.1-.6-.2-.9 0-.1-.1-.2-.1-.3 0-.1-.1-.2-.1-.3-.1-.1-.2-.3-.3-.3-.1-.1-.2-.1-.4-.1-.1 0-.2 0-.3.1-.1.1-.2.1-.2.2-.1.1-.1.2-.1.3 0 .1-.1.1-.1.2-.1.1-.1.3-.1.5s-.1.4-.1.6c0 .1 0 .2-.1.2 0 .1-.1.1-.1.2-.1 0-.2.1-.3.1h-.6c-.2 0-.4-.1-.5-.1-.1-.1-.2-.2-.2-.3 0-.1-.1-.2-.1-.3v-.3-.2-.2c0-.4.1-.8.2-1 .1-.3.2-.5.3-.6.1-.1.2-.3.2-.3l.2-.2c.2-.2.4-.3.6-.5l.6-.3c.3-.1.6-.1.9 0 .3 0 .6.1.9.3.1 0 .1.1.2.1s.1.1.2.1c.2.1.3.2.5.4.1.2.2.3.3.5.1.3.2.7.3 1 .5.3.5.7.6 1zm-7.4-4.3c.1.1.1.2.2.4s.1.4 0 .7c0 .1-.1.1-.1.2l-.1.1s-.1.1-.2.1-.2.1-.3.2c-.1 0-.2.1-.2.1l-.1.1s-.1 0-.1.1c0 0-.1.1-.2.1-.3.2-.7.5-.9.9-.3.4-.5.8-.7 1.4 0 .1-.1.2-.1.4 0 .1-.1.2-.1.3-.2.8-.3 1.6-.2 2.3v.4c0 .1 0 .2.1.4s.1.3.2.5.1.3.2.5c.1.1.1.3.1.3.2.4.4.7.5.9.2.2.4.5.8.7.2.1.4.2.5.3.1.1.3.1.4.1h.1c.1 0 .2.1.2.1v.7c0 .2-.1.4-.2.6-.1.3-.4.5-.7.5h-.2c-.6-.1-1.3-.6-2-1.3-.6-.6-1.1-1.2-1.4-1.9-.3-.6-.4-1.2-.5-1.7-.1-.3-.1-.6-.1-.8v-.7-.6-.5-.2-.2c0-.4.1-.8.2-1.3.1-.3.2-.6.2-.8.1-.2.2-.5.3-.7.4-.9.9-1.5 1.3-1.9l.2-.2c.2-.1.3-.3.4-.4.1-.1.3-.2.4-.3.1-.1.3-.1.4-.2.1-.1.3-.1.5-.2.3-.1.5-.1.6-.1.4.4.5.4.6.6-.1-.1 0 0 0 0z"/>
    <path class="st0" d="M215.6 45.7l.3.6.3.6c.1.2.1.3 0 .4-.1.1-.2.2-.5.2-.2 0-.5.1-.7.1s-.5 0-.8.1c-.2 0-.3-.1-.4-.2v-.1-.1c0-.2-.1-.3-.1-.5-.1-.1-.1-.3-.2-.5s-.1-.4-.2-.5c-.1-.2-.1-.3-.2-.5 0-.1-.1-.2-.1-.2 0-.1-.1-.2-.1-.2 0 .1-.1.2-.1.2 0 .1-.1.2-.1.2-.1.2-.2.3-.2.5-.1.2-.1.3-.2.5s-.1.3-.2.5-.1.3-.2.5v.2c-.1.1-.2.2-.4.2-.3 0-.5 0-.8-.1-.3 0-.5 0-.7-.1-.2 0-.4-.1-.4-.2-.1-.1-.1-.3 0-.4l.3-.6.3-.6.3-.9c.1-.2.1-.5.2-.7.1-.2.2-.4.3-.7.1-.1.1-.2.2-.4 0-.1.1-.2.2-.4 0-.1.1-.2.1-.3s.1-.3.2-.5c-.1-.1-.1-.3-.2-.5s-.1-.3-.2-.5-.1-.4-.2-.6l-.3-.6c-.1-.3-.2-.5-.3-.8-.1-.3-.2-.5-.3-.8-.1-.2-.1-.3-.2-.5 0-.1-.1-.3-.2-.5-.1-.1-.1-.2-.1-.3 0-.1-.1-.2-.1-.3 0-.1-.1-.1-.1-.2V36c.1 0 .1-.1.2-.1h1.7c.3 0 .4.1.5.3 0 .1.1.3.1.4 0 .1.1.3.1.4.1.2.1.3.2.5s.1.3.2.5c0 .1.1.1.1.3 0 .1.1.2.2.4.1-.3.2-.5.3-.6.1-.2.1-.3.2-.5s.1-.3.2-.5c0-.1.1-.3.2-.4.1-.1.1-.3.2-.4.1-.2.3-.3.5-.3H216.1c.1 0 .1.1.2.1s.1.1 0 .2c0 .1-.1.2-.1.2 0 .1-.1.2-.1.3 0 .1-.1.2-.1.3-.1.2-.2.4-.2.5 0 .1-.1.3-.2.5-.1.3-.2.5-.3.8-.1.3-.2.5-.3.8l-.3.6c-.1.2-.2.4-.2.6 0 .1-.1.3-.2.5s-.1.4-.2.5c.1.2.1.4.2.5.1.1.1.3.1.3 0 .1.1.2.1.4 0 .1.1.2.2.4s.2.5.3.7c.1.2.2.5.2.7.2.3.3.6.4.8m-7 .6V47.6c0 .1-.1.2-.3.2-.2 0-.4.1-.6.1h-3.6c-.1 0-.2-.1-.2-.2v-.2-.7-4.4-.2-.1-.2V41v-.3-.6-.6c0-.2 0-.4-.1-.6 0-.2 0-.4-.1-.7v-.7-.3-.3-.2-.2-.1c0-.1.1-.2.2-.2.1-.1.4-.2.9-.2h2.9c.4 0 .6.1.7.1.1.1.2.2.2.3v1.2c0 .1-.1.2-.3.2-.2 0-.5.1-.7.1H205.5v2.3c0 .2 0 .5-.1.7v1.3h2.3c.2 0 .4.1.4.3v.2c0 .2 0 .4-.1.6 0 .2 0 .4-.1.6 0 .2-.2.3-.5.3s-.7 0-1-.1-.7 0-1 0v1.6h2.2c.3 0 .6.1.7.1.2.2.3.3.3.5zm-5.8-9.8v1.3c0 .1 0 .1-.1.2s-.2.1-.4.1c-.3.1-.7.1-1 .1h-.8v8.5c0 .3 0 .7-.1 1 0 .1-.1.2-.2.2-.5.1-1 .1-1.5 0-.1 0-.2-.1-.2-.2v-.3-.5-.5-1-1-1-1-.5-.5-.8-.7-.2-.7-.7h-1.7c-.1 0-.2-.1-.3-.2 0 0-.1-.1-.1-.2-.2-.4-.2-.8-.2-1.2 0-.1.1-.2.1-.2.1 0 .2-.1.4-.1h5.4c.4 0 .5.1.6.2.1-.2.1-.2.1-.1zm-7.5 3.1v2c0 .6 0 1.1-.1 1.6 0 .5 0 1.1-.1 1.6v2.7c0 .1 0 .1-.1.2 0 .1-.1.1-.2.1h-.6c-.2 0-.4 0-.6-.1-.2-.1-.3-.1-.4-.2s-.2-.2-.1-.4v-.2-.3h-1.4c-.2 0-.4-.1-.5-.1-.2 0-.3-.1-.4-.1h-.2c-.4-.1-.7-.3-.9-.5-.2-.2-.4-.4-.6-.7-.1-.2-.2-.5-.3-.8v-.9c0-.3.1-.5.2-.7.1-.2.3-.4.4-.6.1-.1.2-.2.4-.3.2-.1.3-.2.4-.3.3-.1.5-.2.8-.3.2 0 .6-.1.9-.1.3 0 .6 0 .7-.1h.6V41v-.1-.9c0-.3-.1-.6-.2-.9 0-.1-.1-.2-.1-.3 0-.1-.1-.2-.1-.3-.1-.1-.2-.3-.3-.3-.1-.1-.2-.1-.4-.1-.1 0-.2 0-.3.1-.1.1-.2.1-.2.2-.1.1-.1.2-.1.3 0 .1-.1.1-.1.2-.1.1-.1.3-.1.5s-.1.4-.1.6c0 .1 0 .2-.1.2 0 .1-.1.1-.1.2-.1 0-.2.1-.3.1h-.6c-.2 0-.4-.1-.5-.1-.1-.1-.2-.2-.2-.3 0-.1-.1-.2-.1-.3v-.3-.2-.2c0-.4.1-.8.2-1 .1-.3.2-.5.3-.6.1-.1.2-.3.2-.3l.2-.2c.2-.2.4-.3.6-.5l.6-.3c.3-.1.6-.1.9 0 .3 0 .6.1.9.3.1 0 .1.1.2.1s.1.1.2.1c.2.1.3.2.5.4.1.2.2.3.3.5.1.3.2.7.3 1 .5.3.6.6.6 1zm-7.2 6.2c.1 0 .2.1.3.1 0 0 .1.1 0 .2V47.5c0 .1 0 .1-.1.2s-.2.2-.5.2H183.8h-.1c-.1 0-.2-.1-.2-.3v-.7-.7-.8-.7-.2-.8-.8-.5-.5-1.1-1.1-1-1-.5-.6-.3c0-.1.1-.2.2-.2.5-.1 1-.1 1.5 0 .1 0 .2.1.2.2 0 .3.1.7.1 1V45.7h1.6c.5.1.7.1 1 .1zm38.3-19.5V27.6c0 .1-.1.2-.3.2-.2 0-.4.1-.6.1h-3.6c-.1 0-.2-.1-.2-.2v-.2-.7-4.4-.2-.1-.2V21v-.3-.6-.6c0-.2 0-.4-.1-.6 0-.2 0-.4-.1-.7v-.7-.3-.3-.2-.2-.1c0-.1.1-.2.2-.2.1-.1.4-.2.9-.2h2.9c.4 0 .6.1.7.1.1.1.2.2.2.3v1.2c0 .1-.1.2-.3.2-.2 0-.5.1-.7.1H223.3v2.3c0 .2 0 .5-.1.7v1.3h2.3c.2 0 .4.1.4.3v.2c0 .2 0 .4-.1.6 0 .2 0 .4-.1.6 0 .2-.2.3-.5.3s-.7 0-1-.1h-1v1.6h2.2c.3 0 .6.1.7.1.2.3.2.4.3.5z"/>
  </g>
</svg>