<svg xmlns="http://www.w3.org/2000/svg" width="75.8" height="43.6" viewBox="0 0 75.8 43.6">
  <style>
    .st1,.st2{fill-rule:evenodd;clip-rule:evenodd;fill:#007481}.st2{fill:#fff}
  </style>
  <path d="M75.4 25.7c.1 0 .2.1.3.1 0 0 .1.1 0 .2V27.4c0 .1 0 .1-.1.2s-.2.2-.5.2H71.1 71c-.1 0-.2-.1-.2-.3v-.7-.7-.8-.7-.2-.8-.8-.5-.5-1.1-1.1-1-1-.5-.6-.3c0-.1.1-.2.2-.2.5-.1 1-.1 1.5 0 .1 0 .2.1.2.2 0 .3.1.7.1 1V25.6h1.6c.5 0 .8 0 1 .1m-6.6-10.9c.2.1.3.3.4.5.1.2.1.5.1.7 0 .2-.1.3-.2.4-.1.1-.2.2-.4.3-.1 0-.2.1-.3.1h-.3c-.2 0-.5-.1-.7-.3-.2-.2-.4-.4-.4-.6-.1-.4.1-.8.4-1.1.4-.3.8-.4 1.3-.2 0 .2.1.2.1.2zm.3 12.8v.8c-.1.1-.1.2-.3.2-.5.1-1 .1-1.5 0-.1 0-.2-.1-.2-.3 0-.1 0-.3-.1-.5v-.5-1.2-1.2-.6-.5-.8-.8-.7-1-1-.7-.4-.4-.2-.2c0-.1.1-.2.2-.2h1.4c.1 0 .2.1.3.1 0 .1.1.1.1.2v9c0 .4.1.6.1.9zm-8.6-4.7v-.8V21v-1-.5-.5-.9-.9-.5-.3-.3-.1-.1s.1-.1.2-.1H61.3c.1 0 .3 0 .4.1.1 0 .3.1.4.1.1 0 .2.1.4.1.2.1.4.2.7.4.3.2.6.4.8.6.2.2.4.4.5.6.2.3.4.5.5.7s.2.5.3.8c0 .1.1.3.1.5s.1.5.1.7c0 .3 0 .5.1.7V22.3c0 .3-.1.6-.1.8 0 .1-.1.3-.1.4 0 .1-.1.3-.1.4-.1.2-.1.4-.3.6-.1.2-.2.4-.4.7-.1.2-.2.3-.3.4l-.3.3c-.1.1-.2.2-.3.2l-.3.3c-.3.2-.5.3-.9.5-.3.2-.7.3-1 .4-.3 0-.5 0-.7.1-.2 0-.3 0-.3-.1 0 0-.1-.1-.1-.2v-.3-.3-.2-1-1.1-.9c.1-.1.1-.3.1-.4zm-1 3.2V27.4c0 .1-.1.2-.3.2-.2 0-.4.1-.6.1H54.9c-.1 0-.2-.1-.2-.2v-.2-.7V22v-.2-.1-.2-.7-.3-.6-.6c0-.2 0-.4-.1-.6 0-.2 0-.4-.1-.7v-.7-.3-.3-.2-.2-.1c0-.1.1-.2.2-.2.1-.1.4-.2.9-.2h2.9c.4 0 .6.1.7.1.1.1.2.2.2.3v1.2c0 .1-.1.2-.3.2-.2 0-.5.1-.7.1H56.3V20c0 .2 0 .5-.1.7V22H58.7c.2 0 .4.1.4.3v.2c0 .2 0 .4-.1.6 0 .2 0 .4-.1.6 0 .2-.2.3-.5.3s-.7 0-1-.1h-1v1.6h2.2c.3 0 .6.1.7.1.1.2.1.4.2.5zm-11.1-3.2v-.8V21v-1-.5-.5-.9-.9-.5-.3-.3-.1-.1s.1-.1.2-.1H49.2c.1 0 .3 0 .4.1.1 0 .3.1.4.1.1 0 .2.1.4.1.2.1.4.2.7.4.3.2.6.4.8.6.2.2.4.4.5.6.2.3.4.5.5.7.1.2.2.5.3.8 0 .1.1.3.1.5s.1.5.1.7c0 .3 0 .5.1.7V22.3c0 .3-.1.6-.1.8 0 .1-.1.3-.1.4 0 .1-.1.3-.1.4-.1.2-.1.4-.3.6-.1.2-.2.4-.4.7-.1.2-.2.3-.3.4l-.3.3c-.1.1-.2.2-.3.2l-.3.3c-.3.2-.5.3-.9.5-.3.2-.7.3-1 .4-.3 0-.5 0-.7.1-.2 0-.3 0-.3-.1 0 0-.1-.1-.1-.2v-.3-.3-.2-1-1.1-.9c.1-.1.1-.3.1-.4z" fill="#fff"/>
  <path class="st1" d="M10.9 17.3h4.4v-12c0-.5-.2-.9-.7-1.2l-.3-.5c-.1-.4 0-.8-.4-1.4-.6-.7-1.8-.5-2 1.1l-.3.7-.1.1-.1.1c-.3.2-.5.7-.5 1.1v12z"/>
  <path class="st1" d="M10 20.4h6.2c.2 0 .2-.6.2-.7v-.1c-.1-.1-.2-.1-.4-.1h-6l-.2.2v.1c-.1.1-.1.6.2.6"/>
  <path class="st2" d="M11.1 27.3v-5.1H9.9v2.3L9 22.7 7.7 20l-.3-.6C6.3 17.7 4 17 2.2 18 .4 19-.1 21.2.6 23.1c.4.9.8 1.9 1.2 2.8.3.7.6 1.5 1 2.2 1.8 3.8 3.8 7.6 6.1 11.2.7 1.1 1 2.3 1 3.5 0 .3.3.6.6.6h17.1c.3 0 .6-.3.6-.6 0-1.2.3-2.3.9-3.4 2.1-3.8 3.4-8.6 3.4-12.9v-4.6c0-1.8-1.5-3.3-3.3-3.3-.5 0-1 .1-1.4.3l-.6.3v-1.6c0-1.8-1.5-3.3-3.3-3.3-.5 0-1.1.1-1.6.4l-.5.3-.2-.5c-.4-1.4-1.7-2.3-3.1-2.3-.5 0-1 .1-1.4.3l-.3.1v1.7c.4-.5 1-.9 1.7-.9 1.1 0 2.1.9 2.1 2.1v5.9c0 .3.3.6.6.6s.6-.3.6-.6v-3.7c0-1.1.9-2.1 2.1-2.1 1.1 0 2.1.9 2.1 2.1v5.9c0 .3.3.6.6.6s.6-.3.6-.6V22c0-1.1.9-2.1 2.1-2.1 1.1 0 2.1.9 2.1 2.1v4.6c0 4.1-1.3 8.7-3.3 12.3-.5.9-.8 1.9-1 3v.4h-16l-.1-.6c-.1-1.1-.5-2.2-1.2-3.2-2.2-3.5-4.3-7.2-6-11-.5-1.2-1.1-2.3-1.5-3.5-.1-.3-.3-.7-.4-1-.1-.1-.1-.3-.2-.4-.7-1.2-.2-2.8 1.1-3.4 1.2-.7 2.8-.2 3.5 1 .8 1.3 1.5 2.7 2.3 4 .4.8.8 1.5 1.1 2.3.2.4.4.9.4 1.4.4.1 1-.1 1-.6z"/>
  <path d="M11.1 27.3v-5.1H9.9v2.3L9 22.7 7.7 20l-.3-.6C6.3 17.7 4 17 2.2 18 .4 19-.1 21.2.6 23.1c.4.9.8 1.9 1.2 2.8.3.7.6 1.5 1 2.2 1.8 3.8 3.8 7.6 6.1 11.2.7 1.1 1 2.3 1 3.5 0 .3.3.6.6.6h17.1c.3 0 .6-.3.6-.6 0-1.2.3-2.3.9-3.4 2.1-3.8 3.4-8.6 3.4-12.9v-4.6c0-1.8-1.5-3.3-3.3-3.3-.5 0-1 .1-1.4.3l-.6.3v-1.6c0-1.8-1.5-3.3-3.3-3.3-.5 0-1.1.1-1.6.4l-.5.3-.2-.5c-.4-1.4-1.7-2.3-3.1-2.3-.5 0-1 .1-1.4.3l-.3.1v1.7c.4-.5 1-.9 1.7-.9 1.1 0 2.1.9 2.1 2.1v5.9c0 .3.3.6.6.6s.6-.3.6-.6v-3.7c0-1.1.9-2.1 2.1-2.1 1.1 0 2.1.9 2.1 2.1v5.9c0 .3.3.6.6.6s.6-.3.6-.6V22c0-1.1.9-2.1 2.1-2.1 1.1 0 2.1.9 2.1 2.1v4.6c0 4.1-1.3 8.7-3.3 12.3-.5.9-.8 1.9-1 3v.4h-16l-.1-.6c-.1-1.1-.5-2.2-1.2-3.2-2.2-3.5-4.3-7.2-6-11-.5-1.2-1.1-2.3-1.5-3.5-.1-.3-.3-.7-.4-1-.1-.1-.1-.3-.2-.4-.7-1.2-.2-2.8 1.1-3.4 1.2-.7 2.8-.2 3.5 1 .8 1.3 1.5 2.7 2.3 4 .4.8.8 1.5 1.1 2.3.2.4.4.9.4 1.4.4.1 1-.1 1-.6z" fill="none" stroke="#fff" stroke-width=".5669" stroke-miterlimit="22.9256"/>
  <path class="st2" d="M15.5 17.6h-4.9V5.3c0-.3.1-.5.2-.8.1-.2.3-.4.5-.5l.3-.3c.1-.1.1-.2.1-.4 0-.5.2-.9.4-1.2.3-.3.6-.5 1-.5s.8.2 1 .5c.3.3.4.8.4 1.2 0 .1 0 .3.1.4.1.1.1.2.3.3.2.1.4.3.5.5.1.2.2.5.2.8v12.3zm.9 3.3H9.8c-.2 0-.3-.1-.4-.2-.1-.1-.2-.3-.2-.6v-.3-.3c0-.1.1-.2.1-.2l.2-.2c.1 0 .1-.1.2 0H16.1c.1 0 .1 0 .2.1.1 0 .1.1.2.2s.1.2.1.2v.6c0 .2-.1.4-.2.6.2 0 .1.1 0 .1zm-5.3 1.3v.2h5.3c.6 0 1-.3 1.4-.7.3-.4.6-1 .6-1.6v-.3c0-.6-.2-1.1-.5-1.5-.2-.3-.6-.6-1-.7v-3.5l-.1.1v-1.7l.1-.1V5.1c0-.5-.1-1-.3-1.4-.2-.4-.4-.7-.7-1-.1-.8-.4-1.5-.9-2-.5-.4-1.2-.7-1.9-.7s-1.4.3-1.9.9c-.5.5-.8 1.2-.9 2-.3.3-.5.6-.7 1-.3.4-.4.9-.4 1.4v12.4c-.4.1-.7.4-1 .7-.3.4-.5.9-.5 1.5v.4l.9 1.7c.3.3.7.4 1.1.4h.1v-.2h1.3z"/>
</svg>