<svg xmlns="http://www.w3.org/2000/svg" width="105.5" height="19" viewBox="0 0 105.5 19">
  <style>
    .st0{fill:#fff}
  </style>
  <path class="st0" d="M81.8 2.6c-.3-.2-.5-.5-.6-.9-.1-.4 0-.7.2-1 .3-.4.7-.6 1.1-.5.3 0 .6 0 .9.2.1 0 .2.1.3.3.3.6.3 1.2 0 1.9-.1.1-.2.3-.4.3-.5.1-1 0-1.5-.3m1.9.8c.1 0 .2.1.2.1.1.1.1.2.1.3v5.5c0 .7 0 1.4-.1 2.1v1.3c0 .4-.1.9-.1 1.3-.1.5-.2.9-.3 1.4-.1.5-.3.9-.5 1.3-.3.5-.6.9-1.1 1.2-.1 0-.2.1-.3.1-.1 0-.2.1-.2.1-.4.2-.8.3-1.2.3-.4 0-.8 0-1.2-.1-.3-.1-.6-.2-.8-.4-.2-.2-.5-.4-.7-.6-.1-.1-.2-.2-.2-.3-.1-.1-.2-.2-.3-.4-.1-.2-.2-.5-.3-.8-.1-.3-.2-.8-.2-1.3-.1-.8-.1-1.5-.1-2.1 0-.5 0-.9.1-1.1v-.4-.4c0-.2.1-.3.2-.4.1-.1.2-.2.5-.2.3-.1.6-.1.8-.2h.8c.1 0 .2.1.3.2.1.1.1.4 0 .7 0 .2-.1.4-.1.6 0 .2-.1.4-.1.5v1.1c0 .3 0 .6.1 1 0 .4.1.7.2 1 0 0 0 .1.1.2 0 .1.1.2.2.3l.3.3c.1.1.2.1.4.2.2 0 .4 0 .5-.1l.4-.4c.1-.2.2-.3.2-.4 0-.1.1-.2.1-.3.1-.3.2-.7.3-1.1.1-.4.1-.8.1-1.2v-.9-.9-.7-.6V8c0-.4 0-.8-.1-1.2v-.5-.4l-.1-1.7c0-.2.1-.4.2-.5l.6-.3c.2-.1.5-.1.7-.1.1.1.4.1.6.1zm-8.6 11.7v1.5c-.1.2-.2.2-.4.3-.3.1-.5.1-.8.2-.3 0-.6.1-.8 0h-4.2c-.1 0-.2-.1-.2-.2v-.3-.9-6-.2-.2V9 8v-.4-.7-.7c0-.3-.1-.6-.1-.9 0-.3-.1-.6-.1-.9v-1V3v-.4-.2-.2-.1c0-.2.1-.3.2-.3.1-.2.5-.3 1.1-.3h1c.4 0 .8-.1 1.2-.1h1.9c.5 0 .8.1.9.2l.3.6v1.5c-.1.2-.2.3-.4.3-.3.1-.6.1-.9.2-.3 0-.6.1-.9 0h-1.8v2c0 .3.1.6.1.9 0 .3 0 .6-.1.9V9.9H74c.3 0 .5.2.6.4v.3c0 .3-.1.5-.1.8 0 .3 0 .5-.1.8 0 .3-.3.4-.7.4-.4 0-.9-.1-1.3-.1h-1.3V14.8c.4 0 .8-.1 1.1-.1H74c.5 0 .7.1.9.2 0-.2.1 0 .2.2zM64.8 5.6c-.2-.1-.3-.2-.3-.4v-.4-.5-.5c0-.2 0-.3-.1-.3 0-.1-.1-.2-.2-.3 0-.2-.1-.3-.2-.4-.1-.1-.4-.2-.6-.1-.3 0-.5.2-.7.3-.1.1-.1.2-.2.3 0 .1-.1.3-.1.4v.9c.1.6.3 1.1.6 1.6.2.2.3.4.5.7.2.2.3.5.5.7l.6.9c.3.3.4.5.6.7.1.2.3.4.5.6.5.6.9 1.3 1.2 2 .3.7.5 1.4.5 2.2v1.1c-.1.9-.5 1.7-1.2 2.3-.1 0-.1.1-.2.1 0 0-.1.1-.2.1-.2.2-.5.3-.7.4-.3.1-.5.1-.8.1h-.9c-.3 0-.6-.1-.9-.1-.3 0-.5 0-.7-.1-.2-.1-.3-.2-.5-.4l-.5-.5c-.2-.1-.3-.3-.4-.5 0-.1-.1-.1-.1-.2s-.1-.1-.1-.2c-.1-.3-.2-.6-.3-1-.1-.3-.1-.7-.1-1v-.6-.6c0-.2 0-.4.1-.5 0-.1 0-.2.1-.3.1-.2.3-.4.6-.4h.2c.4.1.9.2 1.3.4.2.1.3.1.3.2s.1.2 0 .3c0 .2-.1.4-.1.6v.7c0 .3.1.6.1.8 0 .2.1.4.3.6.2.1.4.2.7.3.3.1.5 0 .8-.2.2-.1.3-.3.4-.5.1-.2.2-.5.2-.7 0-.3 0-.5-.1-.8-.1-.3-.2-.5-.3-.8-.1-.3-.3-.5-.4-.8-.2-.3-.3-.5-.5-.8-.2-.2-.3-.5-.5-.7-.1-.2-.3-.5-.4-.7-.1-.2-.2-.3-.3-.5-.1-.2-.2-.3-.3-.5-.2-.3-.4-.6-.5-.8-.1-.2-.3-.5-.4-.7 0-.1-.1-.2-.1-.2 0-.1-.1-.1-.1-.2-.3-.4-.5-.9-.6-1.4-.1-.5-.2-1-.2-1.5 0-.6 0-1.2.2-1.8.1-.4.3-.8.7-1.1.5-.4 1.1-.6 1.7-.7.5-.1 1-.1 1.5 0s1 .2 1.4.5c.2.2.5.4.6.6.2.2.3.5.5.8.1.2.1.4.2.6 0 .2.1.4.1.6v1.5c0 .6-.3.8-.9.8h-1.3zM52.9 8.2c-.1 0-.1 0-.1.2V17.8c0 .1-.1.3-.1.4-.1.2-.2.3-.4.3h-1c-.3 0-.6-.1-.9-.1 0 0-.1-.1-.2-.1s-.1 0-.2-.1c.1-.2 0-.3 0-.4v-.3-.7-.7-.3-.8-1.4-1.7-1.6-1-1.5-1.4-.9-1.2-.8-2.1V1 .6c0-.1.1-.2.2-.3.1 0 .2-.1.3-.1.1 0 .2-.1.4-.1H52.8c.1 0 .2.1.3.3.1.2.1.4.2.7.1.2.1.5.2.8 0 .3.1.5.1.7.1.4.2.7.3 1.1.1.3.2.6.3 1 0 .1.1.3.1.5.1.3.2.6.2.9.1.4.2.7.3 1.2l.3 1.2c.1.4.2.7.3 1 .1.3.1.5.2.6 0 .1.1.2.1.4 0 .1.1.3.1.4 0 .1.1 0 .1-.1v-.5-.8-.9-.7-1.1-.5-.7-.7-.5-.8-.9-.9V1 .8.6c0-.1.1-.2.1-.3.1-.1.2-.1.5-.2h1.6c.2 0 .4.1.5.2.1.1.2.3.1.5 0 .4-.1.7-.1 1.1v16c0 .1-.1.2-.3.3-.1 0-.3.1-.4.1H56.5c-.1 0-.2 0-.4-.1-.2 0-.3-.1-.4-.1-.3-.1-.4-.3-.4-.5 0-.4-.1-.9-.2-1.3s-.2-.8-.2-1.3c-.1-.8-.3-1.6-.5-2.4l-.6-2.4c-.1-.3-.2-.7-.3-1-.4-.4-.5-.7-.6-1zM42.6 4.4V15.3c0 .1-.1.1-.2.1H41.8c-.1 0-.3 0-.4-.1-.2 0-.3-.1-.4-.1-.1 0-.2-.1-.4-.2l-.8-.4c-.3-.2-.6-.4-.8-.6-.2-.2-.4-.4-.5-.7-.2-.3-.4-.5-.5-.7-.1-.2-.2-.5-.4-.9 0-.1-.1-.3-.1-.6s-.1-.5-.1-.8c0-.3-.1-.5-.1-.7v-.5-.9c0-.3.1-.6.2-.9 0-.1.1-.3.1-.4 0-.2.1-.3.1-.5l.3-.6c.1-.2.3-.5.4-.7.1-.2.2-.3.3-.4l.3-.3c-.1.2 0 .1 0 .1l.3-.3c.3-.2.7-.4 1-.6.3-.2.7-.3 1-.4h.8c.2 0 .3 0 .3.1 0 0 .1.1.1.2v.7c.1.1.1.2.1.2zm6.3 4.9v.9c0 .3-.1.6-.2.9 0 .2-.1.3-.1.5 0 .1-.1.3-.1.5l-.3.6c-.1.2-.2.5-.4.7-.1.2-.2.3-.3.4l-.3.3c-.1.1-.2.2-.3.2-.1.1-.2.2-.4.3l-.9.6c-.3.2-.7.3-1 .4-.3 0-.6.1-.8.1-.2 0-.3 0-.3-.1 0 0-.1-.1-.1-.2V15v-.3-.2-1.1-1.1-1-.6-.9-1.2-1-.5-.5-.9-.9-.5V4v-.4-.2c0-.1.1-.1.2-.1h.7c.3 0 .6.1.8.2.1 0 .2.1.4.2l.8.4c.3.2.6.4.8.7.2.2.4.4.5.7.2.3.4.5.5.7.1.2.2.5.3.8 0 .1.1.3.1.6s.1.5.1.8c0 .3.1.5.1.7.2 0 .2.1.2.2zM35.6.6c.1.1.2.3.3.5.1.2.1.5.1 1 0 .1-.1.2-.1.2 0 .1-.1.1-.1.2-.1 0-.1.1-.2.2s-.2.1-.4.2c-.3 0-.4.1-.4.1s-.1.1-.2.1l-.1.1c-.1 0-.1.1-.2.1-.5.3-.9.7-1.2 1.2-.3.5-.7 1.1-1 1.8 0 .3-.1.4-.1.6 0 .2-.1.3-.1.4-.3 1.1-.4 2.1-.2 3.1v.5c0 .1.1.3.1.5.1.2.1.5.2.7.1.2.1.5.2.7.1.2.1.3.2.4.2.5.5.9.7 1.2.2.3.6.6 1 .9.3.2.5.3.7.4.2.1.3.1.5.2h.1c.2.1.3.1.3.2s.1.2.1.3v.7c0 .2-.1.5-.2.7-.2.5-.5.7-1 .7h-.3c-.8-.2-1.7-.8-2.6-1.7-.8-.8-1.4-1.6-1.8-2.5-.4-.8-.6-1.6-.7-2.2-.1-.4-.1-.7-.1-1V10v-.7-.7-.2-.2c0-.5.1-1.1.3-1.7.1-.4.2-.7.3-1.1 0-.4.2-.7.3-1 .6-1.2 1.1-2 1.8-2.5l.2-.3c.2-.2.4-.4.6-.5.2-.1.3-.3.5-.4.2-.1.3-.2.5-.3.2-.1.4-.2.7-.2.4-.1.7-.2.9-.1.1.1.2.2.4.5-.1-.1-.1-.1 0 0-.1-.1-.1-.1 0 0z"/>
  <path class="st0" d="M102.9 5.6c-.2-.1-.3-.2-.3-.4v-.4-.5-.5c0-.2 0-.3-.1-.3 0-.1-.1-.2-.2-.3l-.3-.3c-.1-.1-.4-.2-.6-.1-.3 0-.5.2-.7.3-.1.1-.1.2-.2.3 0 .1-.1.3-.1.4v.9c.1.6.3 1.1.6 1.6.2.2.3.4.5.7.2.2.3.5.5.7l.6.9c.2.3.4.5.5.7.1.2.3.4.5.6.5.6.9 1.3 1.2 2 .3.7.5 1.4.5 2.2v1.1c-.1.9-.5 1.7-1.2 2.3-.1 0-.1.1-.2.1 0 0-.1.1-.2.1-.2.2-.5.3-.7.4-.3.1-.5.1-.8.1h-.9c-.3 0-.6-.1-.9-.1-.2-.1-.4-.1-.6-.2-.2-.1-.3-.2-.5-.4l-.5-.5c-.2-.1-.3-.3-.4-.5 0-.1-.1-.1-.1-.2s-.1-.1-.1-.2c-.1-.3-.2-.6-.3-1-.1-.3-.1-.7-.1-1v-.6-.6c0-.2 0-.4.1-.5 0-.1 0-.2.1-.3.1-.2.3-.4.6-.4h.2c.4.1.9.2 1.3.4.2.1.3.1.3.2s.1.2 0 .3c0 .2-.1.4-.1.6v.7c0 .3.1.6.1.8 0 .2.1.4.3.6.2.1.4.2.7.3.3.1.5 0 .8-.2.2-.1.3-.3.4-.5.1-.2.2-.5.2-.7 0-.3 0-.5-.1-.8-.1-.3-.2-.5-.3-.8-.1-.3-.3-.5-.4-.8-.2-.3-.3-.5-.5-.8-.2-.2-.3-.5-.5-.7-.1-.2-.3-.5-.4-.7-.1-.2-.2-.3-.3-.5-.1-.2-.2-.3-.3-.5-.2-.3-.4-.6-.5-.8-.1-.2-.3-.5-.4-.7 0-.1-.1-.2-.1-.2 0-.1-.1-.1-.1-.2-.3-.4-.5-.9-.6-1.4-.1-.5-.2-1-.2-1.5 0-.6 0-1.2.2-1.8.1-.4.3-.8.7-1.1.5-.4 1.1-.6 1.7-.7.5-.1 1-.1 1.5 0s1 .2 1.4.5c.2.2.5.4.6.6.2.2.3.5.5.8.1.2.1.4.2.6 0 .2.1.4.1.6v1.5c0 .6-.3.8-.9.8h-1-.2M90.7 4.4V15.3c0 .1-.1.1-.2.1H89.9c-.1 0-.3 0-.4-.1-.2 0-.3-.1-.4-.1-.1 0-.2-.1-.4-.2l-.8-.4c-.3-.2-.6-.4-.8-.6-.2-.2-.4-.4-.5-.7-.2-.3-.4-.5-.5-.7-.1-.2-.2-.5-.4-.9 0-.1-.1-.3-.1-.6s-.1-.5-.1-.8c0-.3-.1-.5-.1-.7v-.5-.9c0-.3.1-.6.2-.9 0-.1.1-.3.1-.4 0-.2.1-.3.1-.5l.3-.6c.1-.2.3-.5.4-.7.1-.2.2-.3.3-.4l.3-.3.3-.3.3-.3.9-.6c.3-.2.7-.3 1-.4h.8c.2 0 .3 0 .3.1 0 0 .1.1.1.2v.7c-.1.5-.1.6-.1.6zM97 9.3v.9c0 .3-.1.6-.2.9 0 .2-.1.3-.1.5 0 .1-.1.3-.1.5l-.3.6c-.1.2-.2.5-.4.7-.1.2-.2.3-.3.4l-.3.3c-.1.1-.2.2-.3.2-.1.1-.2.2-.4.3l-.9.6c-.3.2-.7.3-1 .4-.3 0-.6.1-.8.1-.2 0-.3 0-.3-.1 0 0-.1-.1-.1-.2V15v-.3-.2-1.1-1.1-1-.6-.9-1.2-1-.5-.5-.9-.9-.5V4v-.4-.2c0-.1.1-.1.2-.1h.7c.3 0 .6.1.8.2.1 0 .2.1.4.2l.8.4c.3.2.6.4.8.7.2.2.4.4.5.7.2.3.4.5.5.7.1.2.2.5.3.8 0 .1.1.3.1.6s.1.5.1.8c0 .3.1.5.1.7.2 0 .2.1.2.2z"/>
  <path d="M9 6.8c0-.2-.1-.3-.2-.5-.1-.1-.2-.1-.3-.2l-.9-.3c-.2-.1-.5-.2-.8-.3-.4-.1-.7-.2-1.1-.4-.3-.1-.7-.3-1-.6-.2-.1-.5-.3-.7-.4-.3-.1-.5-.2-.8-.3H3c0 .1-.1.2 0 .3.1.5.2 1 .2 1.5v1.5c0 .5 0 1 .1 1.5 0 .3.1.6.1.9 0 .3 0 .6.1.9v1.5c0 .5-.1 1-.2 1.5 0 .2-.1.3-.1.5v.4c0 .2.2.4.3.5.2.1.3.1.5-.1.1 0 .2-.1.3-.2.1-.1.2-.1.3-.2.6-.4 1.2-.9 1.8-1.3.6-.4 1.2-.9 1.8-1.3.2-.2.4-.3.5-.5.1-.2.2-.4.2-.7 0-.6.1-1.1.1-1.7V7.1 7v-.2M.6 2.6C.5 2.1.5 1.7.5 1.5c0-.3.1-.5.2-.7.2-.5.5-.7.8-.8.3-.1.7.1 1 .4.3.2.5.4.8.5.3.2.6.3.9.5.2.1.5.3.7.4.2.2.5.3.7.5.4.2.8.4 1.1.6.4.2.8.4 1.2.5.5.2.8.2.9.1.2-.1.2-.4.2-.8v-.4-.4c0-.1.1-.2.1-.3.1-.1.1-.2.3-.3.4-.3.7-.4 1-.4.3 0 .6.2.9.5.3.3.7.7 1 .9.4.3.7.5 1.1.8.7.5 1.5 1 2.2 1.6.7.5 1.5 1 2.3 1.5l.6.3c.2.1.4.2.7.3.4.2.9.3 1.3.5l1.2.6c.3.2.5.4.6.7.1.3.1.6 0 1-.1.2-.2.4-.4.6-.2.2-.3.3-.6.4l-.6.3c-.2.1-.4.2-.5.3-.8.5-1.5 1-2.3 1.6-.7.5-1.5 1-2.2 1.6-.5.3-.9.6-1.3.9-.4.3-.9.7-1.2 1-.3.3-.6.6-1 .9-.3.3-.7.6-.9.9-.3.3-.6.4-.9.4-.4 0-.7-.1-.9-.3-.3-.2-.5-.5-.5-.9v-.5c0-.2 0-.3.1-.5.1-.3.1-.5.1-.8 0-.3 0-.5-.1-.8 0-.3-.1-.4-.2-.5-.1-.1-.2 0-.4.2-.6.5-1.1.9-1.7 1.4-.6.4-1.2.9-1.7 1.3-.4.3-.9.7-1.3.9-.8.2-1.3.5-1.8.7-.1 0-.2.1-.3.1-.1 0-.2.1-.3.1-.2.1-.4.1-.6 0-.2 0-.3-.1-.5-.3-.1-.1-.1-.2-.2-.3-.1-.1-.1-.2-.2-.3.1-.1.1-.4.1-.7 0-.3.2-.6.3-.9.1-.2.2-.5.3-.8.1-.4.1-.7.2-1.1.1-.4.1-.8.1-1.1 0-.4.1-.6.1-.7 0-.7.1-1.3.1-2 0-.6 0-1.3-.1-1.9 0-.3 0-.6-.1-.8v-.9-1.6C.9 5 .8 4.4.7 3.9v-.7c0-.3-.1-.5-.1-.6z" fill-rule="evenodd" clip-rule="evenodd" fill="#fff"/>
</svg>