<svg xmlns="http://www.w3.org/2000/svg" width="132.4" height="39" viewBox="0 0 132.4 39">
  <style>
    .st0{fill:#fff}
  </style>
  <path class="st0" d="M80.2 23.9V25.2c0 .1-.1.2-.3.2-.2 0-.4.1-.6.1h-3.7c-.1 0-.2-.1-.2-.2V25v-.7-4.4-.2-.1-.2-.7-.3-.6-.6c0-.2 0-.4-.1-.6 0-.2 0-.4-.1-.7v-.7-.3-.3-.2-.2-.1c0-.1.1-.2.2-.2.1-.1.4-.2.9-.2h2.9c.4 0 .6.1.7.1.1.1.2.2.2.3v1.2c0 .1-.1.2-.3.2-.2 0-.5.1-.7.1H77v2.3c0 .2 0 .5-.1.7v1.3h2.3c.2 0 .4.1.4.3v.2c0 .2 0 .4-.1.6 0 .2 0 .4-.1.6 0 .2-.2.3-.5.3s-.7 0-1-.1-.7 0-1 0v1.6h2.2c.3 0 .6.1.7.1.3.2.3.3.4.4m-7.8-7.2c-.2 0-.2-.2-.2-.3v-.3-.4-.4c0-.1 0-.2-.1-.2 0-.1-.1-.2-.1-.2 0-.1-.1-.1-.2-.2s-.3-.1-.5-.1-.4.1-.5.3c-.1.1-.1.1-.1.3 0 .1 0 .2-.1.3v.6c.1.5.2.9.5 1.2.1.2.2.3.4.5.1.2.2.4.4.5.2.2.3.5.4.7.2.2.3.4.4.5.1.1.2.3.3.4.4.5.7 1 .9 1.5.2.5.3 1.1.4 1.7v.9c0 .7-.4 1.3-.9 1.8l-.1.1-.1.1-.6.3c-.2.1-.4.1-.6.1h-.7c-.2 0-.4 0-.7-.1-.2 0-.3-.1-.4-.2-.1-.1-.3-.2-.4-.3-.1-.1-.2-.2-.4-.3-.1-.1-.2-.2-.3-.4 0 0 0-.1-.1-.1 0 0 0-.1-.1-.1-.1-.2-.2-.5-.2-.7-.1-.2-.1-.5-.1-.8V23v-.5c0-.1 0-.3.1-.4v-.2c.1-.2.2-.3.4-.3h.2c.3.1.7.2 1 .3.1 0 .2.1.2.1v.3c0 .2 0 .3-.1.5v.5c0 .2 0 .4.1.6 0 .2.1.3.2.4.1.1.3.2.5.2s.4 0 .6-.1c.1-.1.2-.2.3-.4.1-.2.1-.3.1-.5s0-.4-.1-.6c-.1-.2-.1-.4-.2-.6l-.3-.6c-.1-.2-.2-.4-.4-.6-.1-.2-.2-.3-.3-.5-.1-.2-.2-.4-.3-.5-.1-.1-.2-.3-.2-.4-.1-.1-.2-.3-.3-.4-.2-.2-.3-.4-.4-.6l-.3-.6c0-.1-.1-.1-.1-.2s-.1-.1-.1-.2c-.2-.3-.4-.7-.5-1.1-.1-.4-.1-.7-.2-1.1 0-.5 0-.9.1-1.3.1-.3.3-.6.5-.8.4-.3.8-.5 1.3-.5.4-.1.8-.1 1.2 0 .4.1.8.2 1.1.4.2.1.3.3.5.4.1.2.3.3.4.6.1.1.1.3.1.4 0 .1.1.3.1.5v1.2c0 .4-.2.6-.7.6h-.8c.2-.3.1-.3.1-.3zm-4.7 7.2V25.2c0 .1-.1.2-.3.2-.2 0-.4.1-.6.1h-3.6c-.1 0-.2-.1-.2-.2V25v-.7-4.4-.2-.1-.2-.7-.3-.6-.6c0-.2 0-.4-.1-.6 0-.2 0-.4-.1-.7v-.7-.3-.3-.2-.2-.1c0-.1.1-.2.2-.2.1-.1.4-.2.9-.2h2.9c.4 0 .6.1.7.1.1.1.2.2.2.3v1.2c0 .1-.1.2-.3.2-.2 0-.5.1-.7.1H64.6v2.3c0 .2 0 .5-.1.7v1.3h2.3c.2 0 .4.1.4.3v.2c0 .2 0 .4-.1.6 0 .2 0 .4-.1.6 0 .2-.2.3-.5.3s-.7 0-1-.1-.7 0-1 0v1.6h2.2c.3 0 .6.1.7.1.1.2.2.3.3.4zm-6.5 1.2c0 .1.1.3.1.4 0 .1 0 .3.1.4v.3s-.1.1-.3.1c-.1 0-.3.1-.4.1H59.5c-.2 0-.3-.1-.3-.1 0-.1-.1-.2-.1-.4v-.4c0-.1 0-.3-.1-.4-.1-.3-.1-.7-.2-1-.1-.3-.1-.7-.2-1 0-.2-.1-.4-.1-.7 0-.2-.1-.4-.1-.6 0-.2-.1-.3-.1-.5 0-.1-.1-.3-.1-.4-.1-.3-.1-.7-.2-1.1 0-.4-.1-.7-.2-1.1 0-.1 0-.2.1-.3.1-.1.1-.1.3-.1h1.2c.1 0 .2 0 .3.1.1 0 .2.1.3.3.1.5.2.9.3 1.4.1.5.2.9.3 1.4 0 .2.1.3.1.5s.1.3.1.5c.1.5.2.9.3 1.3-.1.5 0 .9.1 1.3zm-.1-11.6c.4.5.6 1 .5 1.7 0 .3-.1.5-.2.7-.1.2-.2.5-.3.7-.1.1-.2.3-.3.4l-.3.3c-.3.3-.6.5-1 .6-.3.1-.7.2-1.1.2-.2 0-.4 0-.6-.1-.2-.1-.3-.2-.3-.4v-.4-.4-.5-.5-.3-.3-.7-.7-.4c0-.1 0-.2.1-.4 0-.1.1-.2.1-.3 0 0 .1-.1.3-.1.2 0 .3 0 .5-.1h1.2c.2 0 .4.1.6.2.2.1.3.2.5.3.1.3.2.4.3.5zm-3.8 12.1v.6c0 .1-.1.1-.3.2-.3 0-.5.1-.6.1h-.8c-.1 0-.1 0-.2-.1s-.2-.2-.2-.4v-.1-.1-.8-.7-1.2-1.2-.8c0-.3 0-.5.1-.8v-.7-.7-.4-.5-.8-.8-.5-.5-.8-.8c0-.1 0-.2.1-.3 0-.1 0-.2.1-.3 0-.1.1-.2.3-.2h1c.1 0 .2 0 .3.1.1 0 .1.1.1.3.1.3.1.5.1.8v11.4zM53.9 16c.3.5.3 1 .2 1.6-.1.2-.1.4-.2.6l-.3.6-.3.3-.3.3c-.2.2-.4.3-.6.4l-.6.3c-.2.1-.4.1-.6.2s-.4 0-.7 0v4.8c0 .2-.1.4-.1.4-.1.1-.2.1-.4.1h-.9c-.2 0-.3 0-.4-.1 0-.1-.1-.1-.1-.2s-.1-.2-.1-.3v-.4-.8-.9-1-.4-1.4-.4-.4-.8-.8-.3-.3-.5-1.5-.3-.3c0-.1 0-.2.1-.3 0-.1.2-.1.4-.1h1.4c.2 0 .3.1.3.1v.7c.2 0 .4-.1.7-.1h.6c.2.1.4.1.6.2l.1.1c.3.1.6.3.8.5.1-.1.2.1.4.4z"/>
  <path class="st0" d="M122.7 12.9v.4c-.1.2-.1.5-.1.7 0 .2 0 .5-.1.7 0 .1 0 .2-.1.3 0 .1 0 .2-.1.3-.1.2-.1.4-.2.6-.1.2-.1.4-.2.7 0 0 0 .2-.1.5s-.1.6-.2 1-.2.8-.3 1.3c-.1.5-.2.9-.3 1.3-.1.4-.2.8-.2 1.1-.1.3-.1.5-.1.5-.1.4-.2.8-.4 1.2l-.3 1.2c0 .1 0 .2-.1.3 0 .1-.1.3-.1.4 0 .1-.1.3-.1.4v.2s0 .1-.1.2l-.2.2c-.1.1-.2.1-.3.2-.1 0-.3.1-.4.1h-.1c-.2 0-.4 0-.5-.1-.1-.1-.2-.1-.3-.2-.1-.1-.1-.2-.1-.3v-.2s0-.2-.1-.4-.1-.4-.2-.7c-.1-.2-.1-.5-.2-.7-.1-.2-.1-.4-.1-.5-.1-.4-.1-.8-.3-1.1-.1-.3-.2-.7-.3-1.1 0-.2-.1-.3-.1-.5s-.1-.3-.1-.5c0-.3-.1-.5-.2-.8 0-.1-.1-.3-.1-.4 0-.1-.1-.2-.1-.4 0-.3-.1-.6-.2-.8-.1-.3-.1-.6-.1-.8 0-.1 0-.2-.1-.3 0-.1 0-.2-.1-.3-.1-.2-.1-.4-.2-.7-.1-.2-.1-.4-.2-.6 0-.1 0-.2-.1-.3v-.3c0-.2-.1-.5-.1-.7 0-.2-.1-.5-.1-.7v-.2-.2c0-.1.1-.2.2-.2h1.6c.2 0 .4.1.4.3 0 .1 0 .2.1.2 0 .1 0 .2.1.2l.4 1.7c0 .2.1.5.1.7 0 .2.1.5.1.7 0 .3.1.7.1 1 0 .3.1.7.2 1 .1.3.1.5.2.8.1.3.1.5.2.8 0 .1 0 .2.1.3 0 .1 0 .2.1.3 0-.1 0-.2.1-.3 0-.1 0-.2.1-.3.1-.3.1-.5.2-.8.1-.3.1-.5.2-.8.1-.3.1-.7.2-1 0-.3.1-.7.1-1 0-.2.1-.5.1-.7 0-.2.1-.4.2-.7.1-.3.1-.6.2-.8.1-.3.1-.6.2-.8 0-.1 0-.2.1-.2 0-.1 0-.2.1-.2.1-.2.2-.3.4-.3h1.6c.2-.1.3 0 .3.1m-9.1-.2c.2.1.3.3.4.5.1.2.1.5.1.7 0 .2-.1.3-.2.4-.1.1-.2.2-.4.3-.1 0-.2.1-.3.1h-.3c-.2 0-.5-.1-.7-.3-.2-.2-.4-.4-.4-.6-.1-.4.1-.8.4-1.1.4-.3.8-.4 1.3-.2 0 .1 0 .1.1.2zm.2 12.7v.8c-.1.1-.1.2-.3.2-.5.1-1 .1-1.5 0-.1 0-.2-.1-.2-.3 0-.1 0-.3-.1-.5v-.5-1.2-1.2-.6-.5-.8-.8-.7-1-1-.7-.4-.4-.2-.2c0-.1.1-.2.2-.2h1.4c.1 0 .2.1.3.1 0 .1.1.1.1.2v9c.1.4.1.7.1.9zm-3.3-11.3v1.3c0 .1 0 .1-.1.2-.1 0-.2.1-.4.1-.3.1-.7.1-1 .1h-.8V24.1c0 .3 0 .7-.1 1 0 .1-.1.2-.2.2-.5.1-1 .1-1.5 0-.1 0-.2-.1-.2-.2v-.3-.5-.5-1-1-1-1-.5-.5-.8-.7-.2-.7-.7h-1.7c-.1 0-.2-.1-.3-.2 0 0-.1-.1-.1-.2-.2-.4-.2-.8-.2-1.2 0-.1.1-.2.1-.2s.2-.1.4-.1h5.4c.4 0 .5.1.6.2.1 0 .1.1.1.1zm-7.4 3.2v2c0 .6 0 1.1-.1 1.6 0 .5 0 1.1-.1 1.6v2.7c0 .1 0 .1-.1.2 0 .1-.1.1-.2.1h-.6c-.2 0-.4 0-.6-.1-.2-.1-.3-.1-.4-.2s-.2-.2-.1-.4v-.2-.3h-1.4c-.2 0-.4-.1-.5-.1-.2 0-.3-.1-.4-.1h-.2c-.4-.1-.7-.3-.9-.5-.2-.2-.4-.4-.6-.7-.1-.2-.2-.5-.3-.8v-.9c0-.3.1-.5.2-.7.1-.2.3-.4.4-.6.1-.1.2-.2.4-.3.2-.1.3-.2.4-.3.3-.1.5-.2.8-.3.2 0 .6-.1.9-.1.3 0 .6 0 .7-.1h.6v-.1-.1-.9c0-.3-.1-.6-.2-.9 0-.1-.1-.2-.1-.3 0-.1-.1-.2-.1-.3-.1-.1-.2-.3-.3-.3-.1-.1-.2-.1-.4-.1-.1 0-.2 0-.3.1-.1.1-.2.1-.2.2-.1.1-.1.2-.1.3 0 .1-.1.1-.1.2-.1.1-.1.3-.1.5s-.1.4-.1.6c0 .1 0 .2-.1.2 0 .1-.1.1-.1.2.2-.1.1-.1 0-.1h-.6c-.2 0-.4-.1-.5-.1-.1-.1-.2-.2-.2-.3 0-.1-.1-.2-.1-.3V17v-.2-.2c0-.4.1-.8.2-1 .1-.3.2-.5.3-.6.1-.1.2-.3.2-.3l.2-.2c.2-.2.4-.3.6-.5s.4-.2.6-.3c.3-.1.6-.1.9 0 .3 0 .6.1.9.3.1 0 .1.1.2.1s.1.1.2.1c.2.1.3.2.5.4.1.2.2.3.3.5.1.3.2.7.3 1 .2.4.2.8.3 1.2zm-7-4.4v.4c-.1.2-.1.5-.1.7 0 .2 0 .5-.1.7 0 .1 0 .2-.1.3 0 .1 0 .2-.1.3-.1.2-.1.4-.2.6-.1.2-.1.4-.2.7 0 0 0 .2-.1.5s-.1.6-.2 1-.2.8-.3 1.3c-.1.5-.2.9-.3 1.3-.1.4-.2.8-.2 1.1-.1.3-.1.5-.1.5-.1.4-.2.8-.4 1.2l-.3 1.2c0 .1 0 .2-.1.3 0 .1-.1.3-.1.4 0 .1-.1.3-.1.4v.2s0 .1-.1.2c0 .1-.1.1-.2.2s-.2.1-.3.2c-.1 0-.3.1-.4.1H92c-.2 0-.4 0-.5-.1-.1-.1-.2-.1-.3-.2-.1-.1-.1-.2-.1-.3v-.2s0-.2-.1-.4-.1-.4-.2-.7c.2-.3.2-.6.1-.8-.1-.2-.1-.4-.1-.5-.1-.4-.1-.8-.3-1.1-.1-.3-.2-.7-.3-1.1 0-.2-.1-.3-.1-.5s-.1-.3-.1-.5c0-.3-.1-.5-.2-.8 0-.1-.1-.3-.1-.4 0-.1-.1-.2-.1-.4 0-.3-.1-.6-.2-.8-.1-.3-.1-.6-.1-.8 0-.1 0-.2-.1-.3 0-.1 0-.2-.1-.3-.1-.2-.1-.4-.2-.7-.1-.2-.1-.4-.2-.6 0-.1 0-.2-.1-.3v-.3c0-.2-.1-.5-.1-.7 0-.2-.1-.5-.1-.7V13v-.2c0-.1.1-.2.2-.2h1.6c.2 0 .4.1.4.3 0 .1 0 .2.1.2 0 .1 0 .2.1.2l.4 1.7c0 .2.1.5.1.7 0 .2.1.5.1.7 0 .3.1.7.1 1 0 .3.1.7.2 1 .1.3.1.5.2.8.1.3.1.5.2.8 0 .1 0 .2.1.3 0 .1 0 .2.1.3 0-.1 0-.2.1-.3s0-.2.1-.3c.1-.3.1-.5.2-.8.1-.3.1-.5.2-.8.1-.3.1-.7.2-1 0-.3.1-.7.1-1 0-.2.1-.5.1-.7 0-.2.1-.4.2-.7.1-.3.1-.6.2-.8.1-.3.1-.6.2-.8 0-.1 0-.2.1-.2 0-.1 0-.2.1-.2.1-.2.2-.3.4-.3h1.6c-.1 0 0 .1 0 .2zm-8.7 12.2c0 .1.1.3.1.4 0 .1 0 .3.1.4v.3s-.1.1-.3.1c-.1 0-.3.1-.4.1H85.7c-.2 0-.3-.1-.3-.1 0-.1-.1-.2-.1-.4v-.4c0-.1 0-.3-.1-.4-.1-.3-.1-.7-.2-1-.1-.3-.1-.7-.2-1 0-.2-.1-.4-.1-.7 0-.2-.1-.4-.1-.6 0-.2-.1-.3-.1-.5 0-.1-.1-.3-.1-.4-.1-.3-.2-.7-.2-1.1 0-.4-.1-.7-.2-1.1 0-.1 0-.2.1-.3.1-.1.2-.1.3-.1h1.2c.1 0 .2 0 .3.1.1 0 .2.1.3.3.1.5.2.9.3 1.4.1.5.2.9.3 1.4 0 .2.1.3.1.5s.1.3.1.5c.1.5.2.9.3 1.3-.2.5-.1.9.1 1.3zm-.1-11.6c.4.5.6 1 .5 1.7 0 .3-.1.5-.2.7-.1.2-.2.5-.3.7-.1.1-.2.3-.3.4l-.3.3c-.3.3-.6.5-1 .6-.3.1-.7.2-1.1.2-.2 0-.4 0-.6-.1-.2-.1-.3-.2-.3-.4v-.4-.4-.5-.5-.3-.3-.7-.7-.4c0-.1 0-.2.1-.4 0-.1.1-.2.1-.3 0 0 .1-.1.3-.1.2 0 .3 0 .5-.1h1.2c.2 0 .4.1.6.2.2.1.3.2.5.3 0 .3.1.4.3.5zm-3.9 12.1v.6c0 .1-.1.1-.3.2-.3 0-.5.1-.6.1h-.8c-.1 0-.1 0-.2-.1s-.2-.2-.2-.4v-.1-.1-.8-.7-1.2-1.2-.8c0-.3 0-.5.1-.8v-.7-.7-.4-.5-.8-.8-.5-.5-.8-.8c0-.1 0-.2.1-.3 0-.1 0-.2.1-.3 0-.1.1-.2.3-.2h1c.1 0 .2 0 .3.1.1 0 .1.1.1.3.1.3.1.5.1.8v11.4z"/>
  <path class="st0" d="M127.6 15.8V24.3c0 .1-.1.1-.1.1h-.5c-.1 0-.2 0-.3-.1-.1 0-.2 0-.3-.1 0 0-.1-.1-.3-.1-.1-.1-.3-.1-.6-.3-.3-.2-.5-.3-.6-.5-.1-.2-.3-.3-.4-.5-.2-.2-.3-.4-.4-.5l-.3-.6c0-.1-.1-.3-.1-.5s0-.4-.1-.6c0-.2 0-.4-.1-.5v-.3-.7c0-.2.1-.4.1-.7 0-.1.1-.2.1-.3 0-.1.1-.2.1-.4 0-.1.1-.3.2-.5s.2-.4.3-.5c.1-.1.2-.2.2-.3.1-.1.1-.2.2-.2l.2-.2c.1-.1.2-.1.3-.2.2-.1.4-.3.7-.4s.5-.2.8-.3h.6c.2 0 .2 0 .2.1 0 0 .1.1.1.2V15.8m4.8 3.8v.7c0 .2-.1.4-.1.7 0 .1-.1.2-.1.3 0 .1-.1.2-.1.3 0 .1-.1.3-.2.5s-.2.4-.3.5l-.3.3c-.1.1-.1.2-.2.2l-.2.2c-.1.1-.2.1-.3.2-.2.1-.4.3-.7.4-.3.2-.5.2-.8.3h-.6c-.2 0-.2 0-.2-.1 0 0-.1-.1-.1-.2v-.3-.3-.1-.8-.9-.7-.4-.6-.9-.8-.4-.4-.7-.7-.4-.3-.3-.1c0-.1.1-.1.1-.1h.5c.2 0 .4.1.6.1 0 0 .1.1.3.1.1.1.3.1.6.3.3.2.5.3.6.5.1.2.3.3.4.5.2.2.3.4.4.5l.3.6c0 .1.1.3.1.5s.1.4.1.6c0 .2 0 .4.1.6.1.4.1.5.1.6z"/>
  <path d="M14.8 37.4L1.9 30.3c-.4-.3-.6-.8-.3-1.3.2-.4.8-.6 1.2-.4l12.9 7.2c.4.2.6.8.4 1.2-.3.5-.9.7-1.3.4zm1.5-2.6l11.9-21.5c1.6-2.8 1.1-6.3-1.1-8.7l.6-1.1c.6-1.1.2-2.5-.9-3.1-1.1-.6-2.5-.2-3.1.9l-.6 1.1c-3.1-.6-6.3.8-7.9 3.7L14 8.4c-.2.3-.1.6.2.8.3.2.7.1.8-.2l1.3-2.3c1.4-2.5 4.3-3.7 7.1-3 .3.1.5 0 .7-.3l.7-1.4c.3-.5 1-.7 1.5-.4.5.3.7 1 .4 1.5l-.8 1.4c-.1.2-.1.5.1.7 2.1 2 2.6 5.1 1.2 7.6L15.3 34.3l-11-6.1L13.9 11c.2-.3.1-.6-.2-.8-.3-.2-.6-.1-.8.2L3.3 27.7c-1-.5-2.2-.2-2.8.8-.6 1-.2 2.3.8 2.8l12.9 7.2c1 .6 2.3.2 2.8-.8.6-1 .2-2.3-.7-2.9z" fill-rule="evenodd" clip-rule="evenodd" fill="#fff"/>
  <path d="M14.8 37.4L1.9 30.3c-.4-.3-.6-.8-.3-1.3.2-.4.8-.6 1.2-.4l12.9 7.2c.4.2.6.8.4 1.2-.3.5-.9.7-1.3.4zm1.5-2.6l11.9-21.5c1.6-2.8 1.1-6.3-1.1-8.7l.6-1.1c.6-1.1.2-2.5-.9-3.1-1.1-.6-2.5-.2-3.1.9l-.6 1.1c-3.1-.6-6.3.8-7.9 3.7L14 8.4c-.2.3-.1.6.2.8.3.2.7.1.8-.2l1.3-2.3c1.4-2.5 4.3-3.7 7.1-3 .3.1.5 0 .7-.3l.7-1.4c.3-.5 1-.7 1.5-.4.5.3.7 1 .4 1.5l-.8 1.4c-.1.2-.1.5.1.7 2.1 2 2.6 5.1 1.2 7.6L15.3 34.3l-11-6.1L13.9 11c.2-.3.1-.6-.2-.8-.3-.2-.6-.1-.8.2L3.3 27.7c-1-.5-2.2-.2-2.8.8-.6 1-.2 2.3.8 2.8l12.9 7.2c1 .6 2.3.2 2.8-.8.6-1 .2-2.3-.7-2.9z" fill="none" stroke="#fff" stroke-width=".5669" stroke-miterlimit="22.9256"/>
</svg>