<svg xmlns="http://www.w3.org/2000/svg" width="349.3" height="35.7" viewBox="0 0 349.3 35.7">
  <style>
    .st0{fill:#7c51a0}.st1{fill:none;stroke:#7c51a0;stroke-width:.8504;stroke-miterlimit:22.9256}
  </style>
  <path class="st0" d="M73.2 11.3c0 .2.1.3.1.4v.1c0 .7-.1 1.1-.2 1.1 0-.6.1-1.1.1-1.6m-6.9 4.1s.2-.1.6-.1c.4 0 .9-.1 1.6-.1.6 0 1.3 0 1.9-.1.6 0 1.2-.1 1.8-.1h1.9c.4 0 .6 0 .6-.1.1 0 .1-.1.1-.3v-.4-.4C75 11 75 9.4 75 9V7.3v-.6c0-.1 0-.2-.1-.2l-.1-.1c-.2-.1-1.5-.2-3.8-.4s-4.2-.3-5.4-.3h-.9c-.1 0-.1.3-.1.7-.1 1.4-.2 4.2-.4 8.4s-.2 6.9-.3 8v.2l.2.2h.2c.1 0 .2 0 .3.1l.9.1h.5c.1 0 .1-.3.1-.7v-2.6-3.2c.1-1 .2-1.4.2-1.5zm7.9-8.5s-.1.1-.4.1h-.6c-.1 0-.3 0-.6-.1s-.5-.1-.5-.2.4-.1 1.1-.1h.1c.1 0 .2 0 .5.1.2.1.4.1.4.2zm-5.5.6l4.3.3-.1 1.2c0 .2 0 .6-.1 1.3 0 .7-.1 1.3-.1 1.9 0 .6-.1.8-.1.9h-.3c-.6 0-2.2 0-4.8-.1h-.9l-.1-.4v-.7c0-.7 0-1.6.1-2.7s.1-1.6.2-1.7h.4c.1 0 .3.1.6.1.3-.2.6-.1.9-.1zm-3.5.3v-.7-.5-.1c.1 0 .1.1.1.4v.2c.1.5.1.8-.1.7zm-.2-.1c0 .1 0 .4-.1.8s-.1.6-.1.6v-.3c0-.8.1-1.3.2-1.4l.1-.1s.1.1.1.2v.2zm4 7s0 .1 0 0c0 .2-.2.3-.7.3-.4 0-.6-.1-.7-.1-.1-.1-.1-.2-.1-.2.9-.1 1.4 0 1.5 0zm-4.7 6.4v.9c0 .5 0 .7-.1.7s-.1 0-.1-.1v-.5c0-.4 0-.6.1-.6 0 0 .1-.1.1-.4zm-9.7.5c0-.1 0-.1 0 0 .1 0 .3.4.4 1.3-.1 0-.1-.1-.2-.4-.2-.3-.3-.6-.2-.9-.1 0-.1 0 0 0zm-4.5 2.2c0-.1.1-.1 0 0h.5c.1 0 .3-.1.4-.2v.4l-.1.1h-.1c-.1-.1-.3-.2-.7-.3zM61.4 6.6c.1 0 .1.1.1.1 0 .1 0 .1-.1.1-.2 0-.5-.1-.8-.3l-.2-.2c.4 0 .7.1 1 .3zm-11.8-.9c-.3 0-.4.1-.4.3V22.7c0 .9.1 1.4.1 1.4.1.2.3.2.6.2h.3c.5 0 .8 0 1-.1.1-.1.1-.4.1-.9v-.9c-.1-1.5-.1-2.8-.1-4 0-1.8-.1-4.6-.2-8.5.1.1.6 2.1 1.5 6 .1.7.4 1.5.6 2.4 0 .1.1.3.2.7.1.3.2.7.3 1 .1.4.2.7.3 1 .3 1.3.5 2 .6 2.2.1.1.3.1.9.1h1.3c.1 0 .1 0 .1-.1s.1-.1.1-.1v-.3c0-.1.1-.3.1-.4 0 0 0-.2.1-.6 0-.4.1-.6.1-.9.2-1.2.4-1.9.4-2.1.2-1.5.6-3.6 1.1-6.1.5-2.6.9-4 1.1-4.1v5.8c-.1 3-.2 5.5-.2 7.6v.6s.2.1.5.1c.9.1 1.4.2 1.6.2h.1c.1 0 .1-.1.1-.2v-.1s-.1-.1-.1-.3v-.2c0-.3 0-1.1.1-2.4V17c0-1.5.1-2.7.1-3.4 0-2.5.1-4.3.1-5.2V6.7c0-.1 0-.2-.1-.3 0 0-.2-.1-.4-.1-.4-.1-1.2-.2-2.4-.2h-.6c-.2 0-.4 0-.4.1-.1.1-.2.3-.3.5-.6 2.1-.9 3.5-1.1 4-.8 3.8-1.3 6.1-1.5 7v.8-.6c-.1 0-.1-.3-.3-.8-.1-.5-.3-1.2-.4-2-.2-.8-.3-1.3-.4-1.6 0-.2-.1-.5-.2-.9l-.2-.7-1.5-5.7c-.1-.4-.2-.7-.3-.7-.2-.1-.9-.1-2.1-.1h-.3zm4.2 9.6v.2c0 .1 0 .1-.1.1 0 0-.1-.1-.2-.4-.1-.3-.1-.5-.1-.7.1 0 .3.3.4.8zm7.5-5.7c0 .5 0 .7-.1.7s-.1-.2-.1-.7c0-.4 0-.7.1-.7s.1.2.1.7zm-11-1.8v1c0 .4 0 .5-.1.5s-.1-.4-.1-1.1c0-.4 0-.7.1-.9 0-.1.1-.1.1-.1-.1.1 0 .2 0 .6zm10.1 6.5c0 .1 0 .1-.1.1-.1-.1-.1-.1-.1-.2s0-.1.1-.1.1.1.1.2zm-2.7-1.9c-.1.1-.1.2-.2.2s-.1 0-.1-.1 0-.2.1-.3c0-.1.1-.2.1-.2l.1.1c0 .1.1.1.1.1 0-.1 0 0-.1.2zm-1.2 3.9c0 .1-.1.4-.3.7-.2.3-.3.5-.3.5 0-.1.1-.4.3-.9.2-.5.3-.8.4-.8v.1c0 .1 0 .3-.1.4zm4.9 2.5c0 .1 0 .1 0 0-.1.1-.1 0-.2 0-.1-.1-.1-.1-.1-.2v-1.1c0 .1.1.3.1.6.2.4.2.6.2.7zm-.2 1.3c0 .5 0 .8-.1.8 0 0-.1-.2-.1-.8V20c0-.4 0-.6.1-.6s.1.3.1.7zm-10.6-.8v-.6-.9-.6-.6c0-1 0-1.5.1-1.5 0 0 .1.2.1.6V17c0 1.7 0 2.5-.1 2.5l-.1-.2zm-4.9-.8c0 1.5 0 2.3-.1 2.3 0 0 0-.3-.1-1v-1.3c0-.1 0-.2.1-.2 0 0 .1.1.1.2zM45.6 6c-.2 0-.3 0-.4.1 0 .1-.1.3-.1.6 0 2.3-.1 6.7-.1 13.3V23.2c0 .1.1.2.3.2H46.6l.5-.1c.1 0 .2-.1.2-.2V20 6.5c0-.2 0-.4-.1-.4-.2 0-.3-.1-.7-.1h-.9zm0 .4c.1-.1.2-.2.4-.2.1 0 .2 0 .4.1s.3.1.4.1c0 .1-.1.2-.1.2-.6.1-.9.1-.9.1-.2 0-.2 0-.2-.1v-.2zm1.1 2.2c0-.1 0-.2.1-.2s.2.8.2 2.3c0 .7 0 1.1-.1 1.1 0 0-.1 0-.1-.1-.1-1-.1-1.7-.1-2-.1-.3-.1-.7 0-1.1zm-.9 8.4s0-.1 0 0c.2 0 .3.2.3.5 0 .1 0 .2-.1.3-.1.3-.2.3-.2.2-.1-.3-.1-.5-.1-.6 0-.1 0-.3.1-.4zm-18.1 3.9c-.2.1-.3.1-.4.1-.1 0-.2 0-.4-.1h.8zm4.4-9c-.2-.1-.6-.4-1.3-.9-.6-.5-1.2-.9-1.6-1.3 0 0-.3-.2-.7-.5-.4-.3-.7-.4-.7-.5-.1-.1-.2-.1-.3-.1h-1.9c-.4 0-.6 0-.6.1l.2.2.2.2c.9.6 1.8 1.3 2.8 2 1 .7 1.7 1.2 2.1 1.4l2.3 1.7.8.5c.1.1.2.1.3.2h-.3c-.1 0-.2.1-.3.1l-.7.6c-.7.5-1.5 1.1-2.3 1.6-.3.3-1 .8-2 1.4-1 .7-1.9 1.3-2.7 2l-.3.3c0 .1-.1.2-.1.2 0 .1.2.1.6.1h1.5c.3 0 .5-.1.7-.2l1.6-1.1c.4-.4 1-.8 1.7-1.3s1.2-.8 1.4-.9l.6-.4c.4-.3.8-.6 1.4-1 .6-.4 1-.7 1.3-.9 0 0 .1-.1.3-.2.1-.1.2-.2.3-.2l.1-.1-.1-.1s-.1-.1-.3-.2c-.1-.1-.2-.2-.3-.2-.3-.2-.8-.5-1.4-1l-1.5-1-.8-.5zm-4.3-2.8l.4.4c.2.2.3.3.5.4 0 .1 0 .2-.1.2s-.1 0-.2-.1l-.3-.3c0-.1-.1-.2-.1-.2l-.1-.1c-.2-.2-.2-.4-.2-.4l.1.1zm7.2 5.2c.1 0 .2.1.3.2.1.1.2.2.4.2v.1c-.1.1-.3 0-.5-.1-.2-.2-.3-.3-.2-.4-.1 0-.1 0 0 0zm-4-2.4c.1.1.1.1.2.1.1.1.2.1.2.1.1 0 .1.1.1.1-.1.1-.4 0-.7-.3h.2zm-5.2-3.1c.1-.1.3-.1.5-.1.1 0 .3 0 .4.1l-.5.1-.4-.1zm3 10.4c0 .1-.1.1-.1.1l.1-.1c0-.1 0-.3.1-.4l.2-.2.3-.3c.1-.1.2-.1.2-.1.1 0 .1.1.1.2-.2.1-.4.3-.5.4l-.4.4zm2.1-7c.5.4 1 .8 1.4 1.2V13.7s-.1 0-.2-.1l-.3-.3-.2-.2c-.2-.2-.4-.3-.4-.3l-.2-.2c0-.3-.1-.4-.1-.4zm1.6 4.3l.2-.2.2-.2c.1-.1.3-.2.4-.3l.2-.2.3-.3c.1-.1.2-.1.2-.1v.2c-.4.3-.8.7-1.5 1.1zm-17.4 4.4c-.2.1-.3.1-.4.1-.1 0-.2 0-.4-.1h.8zm4.5-9c-.2-.1-.6-.4-1.3-.9-.6-.5-1.2-.9-1.6-1.3 0 0-.3-.2-.7-.5-.4-.3-.7-.4-.7-.5-.1-.1-.2-.1-.3-.1h-1.9c-.4 0-.6 0-.6.1l.2.2.3.2c.9.6 1.8 1.3 2.8 2 1 .7 1.7 1.2 2.1 1.4l2.3 1.7.8.5c.1.1.2.1.3.2H21c-.1 0-.2.1-.3.1l-.7.6c-.7.5-1.5 1.1-2.3 1.6-.4.3-1 .8-2 1.4-1 .7-1.9 1.3-2.7 2l-.3.3-.2.2c0 .1.2.1.6.1h1.5c.3 0 .5-.1.7-.2l1.6-1.1c.4-.4 1-.8 1.7-1.3s1.2-.8 1.4-.9l.6-.4c.4-.3.8-.6 1.4-1 .6-.4 1-.7 1.3-.9 0 0 .1-.1.3-.2.1-.1.2-.2.3-.2l.1-.1-.1-.1s-.1-.1-.3-.2c-.1-.1-.2-.2-.3-.2-.3-.2-.8-.5-1.4-1l-1.5-1-.8-.5zm-4.3-2.8l.4.4c.2.2.3.3.5.4 0 .1 0 .2-.1.2s-.1 0-.2-.1l-.3-.3-.2-.2-.1-.1c-.2-.2-.2-.4-.2-.4l.2.1zm7.2 5.2c.1 0 .2.1.3.2.1.1.2.2.4.2v.1c-.1.1-.3 0-.5-.1-.2-.2-.3-.3-.2-.4-.1 0-.1 0 0 0zm-4-2.4c.1.1.1.1.2.1.1.1.2.1.2.1.1 0 .1.1.1.1-.1.1-.4 0-.7-.3h.2zm-5.2-3.1c.1-.1.3-.1.5-.1.1 0 .3 0 .4.1l-.5.1-.4-.1zm3 10.4c0 .1-.1.1-.1.1l.1-.1c0-.1 0-.3.1-.4l.2-.2.3-.3c.1-.1.2-.1.2-.1.1 0 .1.1.1.2-.2.1-.4.3-.5.4l-.4.4zm2.1-7c.5.4 1 .8 1.4 1.2V13.7s-.1 0-.2-.1l-.3-.3-.2-.2c-.2-.2-.4-.3-.4-.3l-.2-.2c-.1-.3-.1-.4-.1-.4zm1.6 4.3l.2-.2.2-.2c.1-.1.3-.2.4-.3l.2-.2.3-.3c.1-.1.2-.1.2-.1v.2c-.4.3-.9.7-1.5 1.1zM2.6 20.9c-.2 0-.3.1-.4.1-.1 0-.2 0-.4-.1h.8zm4.5-9c-.2-.1-.6-.4-1.3-.9-.6-.5-1.2-.9-1.6-1.3 0 0-.3-.2-.7-.5-.3-.3-.6-.4-.6-.5-.2-.1-.3-.1-.3-.1H.7c-.4 0-.6 0-.6.1l.2.2.2.2c.9.6 1.8 1.3 2.8 2 1 .7 1.7 1.2 2.1 1.4l2.3 1.7.8.5c.1.1.2.1.3.2h-.3c-.1 0-.2.1-.3.1l-.7.6c-.7.5-1.5 1.1-2.3 1.6-.3.3-1 .8-2 1.4-1 .7-1.9 1.3-2.7 2l-.3.3-.2.2c0 .1.2.1.6.1h1.5c.3 0 .5-.1.7-.2l1.6-1c.4-.4 1-.8 1.7-1.3s1.2-.8 1.4-.9l.5-.4c.4-.3.8-.6 1.4-1 .6-.4 1-.7 1.3-.9 0 0 .1-.1.3-.2.1-.1.2-.2.3-.2l.1-.1-.1-.1s-.1-.1-.3-.2c-.1-.1-.2-.2-.3-.2-.3-.2-.8-.5-1.4-1l-1.5-1-.7-.6zM2.8 9.1l.4.4c.2.2.3.3.5.4 0 .1 0 .2-.1.2s-.1 0-.2-.1c0-.1-.1-.2-.2-.3L3 9.5l-.1-.1c-.2-.2-.2-.3-.2-.4l.1.1zm7.2 5.2c.1 0 .2.1.3.2.1.1.2.2.4.2v.1c-.1.1-.3 0-.5-.1-.2-.2-.3-.3-.2-.4-.1 0-.1 0 0 0zm-4-2.4c0 .1.1.1.2.2s.2.1.2.1c.1 0 .1.1.1.1-.1.1-.4 0-.7-.3l.2-.1zM.8 8.8c.1 0 .2-.1.4-.1.1 0 .3 0 .4.1l-.4.1-.4-.1zm3 10.4c0 .1-.1.1-.1.1l.1-.1c0-.1 0-.3.2-.4l.2-.2.3-.3c.1-.1.2-.1.2-.1.1 0 .1.1.1.2-.2.1-.4.3-.5.4-.3.2-.4.3-.5.4zm2-7c.5.4 1 .8 1.4 1.2V13.7s-.1 0-.2-.1l-.3-.3-.2-.2c-.2-.2-.4-.3-.4-.3l-.2-.2c0-.3 0-.4-.1-.4zm1.7 4.3l.2-.2.2-.2.3-.3.2-.2.3-.3c.1-.1.2-.1.2-.1v.2c-.3.3-.8.7-1.4 1.1z"/>
  <path class="st0" d="M120.8 22.3s-.5.1-1.4.1c-.1 0-.1 0-.1-.1v-.1c.1-.1.1-.1.2-.1s.3 0 .7.1c.4 0 .6.1.6.1m-2.7-15.9h-.3-.1c-.1 0-.1 0-.1.1l-.1.1V7.2c0 .4-.1.9-.1 1.6 0 1.3-.1 2.3-.2 3.2-.1.4-.1 2-.2 4.8s-.1 4.8-.1 5.9v.4c0 .1.2.1.4.2.3 0 1.6.1 3.8.1h5.1c.1 0 .3 0 .3-.1l.1-.1v-.7-.4c0-.3 0-.5-.1-.5-.2-.1-.8-.2-1.8-.2-2.5-.1-3.8-.2-4.1-.2l-1.2-.1v-1V17.7c.1-1.2.1-1.8.2-1.9.1 0 1-.1 2.7-.1 2.1-.1 3.2-.2 3.5-.4.1-.1.1-.3.1-.6 0-.4 0-.7.1-.9v-.2c0-.1-.1-.1-.2-.2-.3-.1-1-.1-2.2-.1h-2.5c-1.2 0-1.8 0-1.9-.1l.1-2.7.2-2h.5c.2 0 .5 0 .9-.1h2.3l3.2.1.1-.6c.1-.3.1-.6.1-.9 0-.2 0-.4-.1-.4-.1-.1-1.1-.1-2.9-.2-1.8-.1-3.4-.1-4.7-.1-.3.1-.7.1-.8.1zm7.8.5c.1.1.2.1.2.2v.1l-.1.1c-.1 0-.2 0-.3-.1-.4-.1-.7-.1-.7-.2l.1-.1c.1-.1.2-.1.3-.1-.1 0 .1 0 .5.1zm-8.3 6.7c0-.1.1-.1.1-.1s.1.2.1.7v1c0 .2-.1.4-.1.8-.1.3-.1.5-.1.5v-.1-.9c-.2-.7-.1-1.3 0-1.9zm.3-1.3c.1-.1.1.1.1.4v.1c0 .2-.1.2-.1.2-.1-.2-.1-.3-.1-.4 0-.1 0-.2.1-.3zm7.4 1.3c0 .1-.1.1-.2.2l-.1.1h-.1c-.1 0-.1 0-.1.1-.4 0-.7-.1-.7-.2l.1-.1c.1-.1.3-.1.5-.1 0-.1.2-.1.6 0zm-4.7-5.5c0 .1 0 .1-.1.1l-.1.1h-.2c-.1 0-.2 0-.4-.1l-.8-.1h.1c.3-.1.5-.1.7-.1.1 0 .2 0 .4.1.2-.1.4 0 .4 0zm1.7 6.6c.1 0 .2.1.2.2 0 0 0 .1-.1.1h-.3c-.1 0-.4-.1-.9-.1-.4-.1-.7-.1-.7-.2h.1c.3 0 .5-.1.6-.1.2 0 .6 0 1.1.1zm-10.4 5v-.1s0 .1.1.3c0 .2.1.4.1.6v.6c0 1.2 0 1.8-.1 1.8v-.1c-.1-.5-.1-1-.1-1.3v-.8c-.1-.6 0-.9 0-1zm-3.8-13.4c.2-.1.4-.1.5-.1h.4l.1.1v.1h-.2c-.1 0-.2 0-.4-.1-.3.1-.4 0-.4 0zm-.4-.3V6.6c0 .2 0 .5.1.9l.1.2c0 .2.1.3.3.3h1.1c.7 0 1.1 0 1.1.1.1 0 .1.8.1 2.5v2.6c-.1 3.4-.1 6.5-.1 9.1v.7c0 .2.2.3.6.3H112.4s.1 0 .1-.1v-.1-1.3l.3-13.1c0-.1.2-.1.4-.1h.8c.3 0 .6.1.8.1H115.7c.1 0 .1-.2.1-.5V7.1c0-.2 0-.3-.1-.4-.1-.1-.2-.1-.4-.1l-.9-.1c-.2 0-1-.1-2.3-.1-.6 0-1.1-.1-1.6-.2-1.4-.3-2.3-.4-2.6-.4l-.2.2zm4.2 3.4c-.1 1.2-.1 1.8-.2 1.8s-.1-.5-.1-1.6c0-.6.1-1 .2-1s.2.2.2.5c-.1.1-.1.2-.1.3zm-.6 1.2c0 .9 0 1.4-.1 1.5-.1 0-.1-.5-.1-1.5 0-.5 0-.7.1-.7 0 .1.1.3.1.7zm-.5 6.8c0 .4-.1.7-.1.7-.1 0-.1-.2-.1-.7 0-.3 0-.4.1-.4s.1.1.1.4zm-5.7 3.7c0 .4 0 .6-.1.6s-.1-.4-.1-1.2v-.6s0 .1.1.2c0 .2 0 .3.1.5v.5zm-.3-7.2v1.2s-.1-.1-.1-.2c-.1-.4-.1-.5-.1-.6v-.1-.3-.2c0-.2.1-.3.2-.5h.1v.7zm-.4-5.4c0 .5-.1.8-.2 1v-.2V9 8.1v-.3c.1 0 .2.2.2.7zm-8.9 14.7l1.5.1h.1c.2 0 .3-.1.3-.3v-.1-.1-.1l.1-2.8c.1-7.2.2-10.8.3-10.8 0 0 .3.9.7 2.7.5 1.8 1 3.7 1.5 5.7s.8 3.1.8 3.3c.1.5.2 1 .3 1.4.1.4.2.7.3.8.1.2.2.3.2.3l3.2.1h.3c.1 0 .2 0 .3-.1l.1-.1c0-.1 0-.2.1-.4.1-1.9.2-3.2.2-3.8 0-1.5.1-3.4.2-5.7.1-2.8.2-4.8.2-6.2v-.9c0-.2 0-.4-.1-.4 0 0-.2 0-.4.1-.1 0-.2 0-.4.1-.2 0-.3.1-.3.1l-.5.1c-.3 0-.4.1-.5.2 0 .1-.1.2-.1.4v.1l-.1 5.9c0 2-.1 3.8-.2 5.4-.1 1.6-.2 2.4-.4 2.4 0 0-.1 0-.1-.1s-.2-.5-.4-1.4c-.3-.9-.6-1.9-.9-3-.3-1.1-.6-2.1-.8-2.9l-1.3-6c0-.2-.1-.3-.1-.3 0-.1-.1-.1-.2-.1s-.2 0-.4-.1h-.1c-.2 0-.7 0-1.5.1-.8 0-1.2.1-1.3.1H96l-.1.1v1.6c0 .6 0 1.3-.1 2.2v2.1c0 1.2-.1 3.4-.3 6.8-.1 1.6-.1 2.5-.1 2.8v.5c-.2.1-.1.1.1.2zm1.5-7.6v-.1s.1 0 0 .1c.1.2.1.4.1.6v.8c0 .3-.1.6-.1 1.1-.1.4-.1.6-.1.6v-.1c0-.4-.1-.8-.1-1.2 0-.5.1-1.1.2-1.8zm-.7-8.3c.4-.1.7-.1 1.2-.1h.3s.1 0 .1.1-.3.2-1 .2h-.1c-.3-.1-.5-.1-.5-.2zm4.4 11.6c.1.1.1.2.1.3 0 .1.1.2.1.2.1.3.2.6.2.7v.8-.1c-.2-.5-.3-1.1-.4-1.9zm-3.6 3.4s.1 0 .1.1v.1h-.8-.1-.1c-.1 0-.1 0-.1-.1s.1-.2.2-.2.2 0 .4.1h.4zm1.5-11.9c0-.1 0-.1 0 0 0-.1.2.3.4 1.1.1.5.2.8.2 1v-.1c-.3-.6-.5-1.3-.6-2zM84.5 21.2c.1-.1.1-.2.1-.2 0 .1.1.1.1.1l-.1.3c-.1.3-.2.4-.2.4v-.1-.2l.1-.3zm1.5-3.4c.1-.5.3-1.2.5-2.1 0 0 0-.1.1-.1 0-.1 0-.1.1-.2v-.1.1s0 .2-.1.6c-.1.5-.1.8-.1.9 0 .1-.1.2-.2.5l-.2.5c-.1 0-.1 0-.1-.1zm6.4 5.3c0-.1 0-.1.1-.2l.1-.1h.5c.3 0 .5 0 .8.1h0-.6-.5c-.1.3-.2.3-.4.2zm0-6.6c-.2-.5-.3-1-.3-1.5v-.1s.1.3.3.8c0 .3.1.5 0 .8.1 0 .1 0 0 0zm-6.1-1.8c.2-1.2.5-2.4.9-3.8v-.1.7c0 .1-.1.5-.3 1.3 0 .1-.1.3-.1.4 0 .2-.1.3-.1.5 0 .1-.1.3-.1.4-.2.4-.3.7-.3.6zm2.1-8.1c0-.1.2-.1.6-.1H89.8v.1c0 .1 0 .1-.1.1h-.1-1c-.1-.1-.2-.1-.2-.1zM86 20.5c0-.1.1-.4.2-.8l.2-.7c0-.1.1-.3.2-.5.1 0 .1.1.1.3 0 .1-.1.4-.3.9-.2.5-.3.8-.4.8zm4.7-3.2h.2v.2c-.3 0-.5.1-.8.1h-.5-.1c.1-.1.4-.2 1.2-.3zm-3.4.5h.9l2.9.1.5 2.9c.1 1 .3 1.7.4 2.1.1.3.2.5.2.5.1 0 .3.1.7.1h.2c.8 0 1.1 0 1.2-.1v-.1c0-.1-.1-.5-.3-1.3-.2-.8-.4-1.9-.7-3.4-.3-1.4-.6-2.8-.8-4-.5-2.6-.8-4.3-.9-5.3 0-.3-.1-.8-.2-1.3-.2-1.5-.4-2.2-.5-2.2h-.2-2.9s-.2 1-.7 2.9c-.5 2-1 4-1.5 6.1-.5 2.1-.9 3.6-1.1 4.7-.2 1-.4 1.8-.6 2.2-.1.2-.1.5-.2.7-.1.2-.1.4-.1.5v.2c0 .1.1.1.2.1h.1c.7 0 1.3-.1 1.8-.2.1 0 .2 0 .2-.1l.1-.1v-.2c0-.1 0-.2.1-.3l1.2-4.5zm3.9-3.9c-.3-.9-.5-1.6-.5-2v-.1-.1s.2.5.5 1.5c.1.2.1.4 0 .7zM87.3 16l.7-3.2v-.2c0-.1.1-.2.1-.4.1-.2.1-.4.2-.7l1-3.6h.4s.1.4.1 1.2c.1.8.2 1.7.3 2.6.1.9.2 1.4.2 1.5l.4 2.5c-.3 0-.9 0-1.7.1-.9.1-1.4.2-1.7.2zm-4.6 5.4s.1 0 0 0c.1 0 .1 0 .1.1s.1.2.1.3c0 .5 0 .7-.1.7h-.1c-.1-.2-.1-.4-.1-.5 0-.1.1-.3.1-.6zm-4.3-6.7l.1-.1c.1 0 .2.6.2 1.8v.2c0 .4-.1.9-.1 1.5-.1.6-.1.8-.2.8l-.1-.2c-.1-.5-.1-1.1-.1-1.6 0-.7.1-1.5.2-2.4zm-1.3 8.7h.7c.1 0 .6.1 1.8.1h.6l2.6-.1c.1 0 .2 0 .2-.1 0 0 0-.1.1-.4v-.5-.6c0-.4 0-.6-.1-.7-.1-.1-.3-.2-.8-.2h-1.9c-.8-.1-1.3-.1-1.4-.2.1.1.1-.5.1-1.5v-2.7V6.2 6h-1.7s-.1 0-.1.1l-.1.1v1.3c0 .5 0 1.1-.1 1.9 0 .8 0 1.4-.1 1.9-.1 1.4-.1 2.9-.1 4.3v4.8l-.1 2.3v.5c0 .1.2.2.4.2zm1.3-.4c0 .1-.4.1-1.2.1-.1 0-.2-.1-.2-.2s0-.1.1-.1h1.3v.2zm-1-16.5c.1 0 .1.7.1 2.2 0 .1 0 .1-.1.1 0 0-.1-.2-.1-.7 0-1 0-1.5.1-1.6z"/>
  <path class="st0" d="M186.1 22.3s-.5.1-1.4.1c-.1 0-.1 0-.1-.1v-.1c.1-.1.1-.1.2-.1s.3 0 .7.1c.4 0 .6.1.6.1m-2.7-15.9h-.3-.1c-.1 0-.1 0-.1.1l-.1.1V7.2c0 .4-.1.9-.1 1.6 0 1.3-.1 2.3-.2 3.2-.1.4-.1 2-.2 4.8s-.1 4.8-.1 5.9v.4c0 .1.2.1.4.2.3 0 1.6.1 3.8.1h5.1c.1 0 .3 0 .3-.1l.1-.1v-.7-.4c0-.3 0-.5-.1-.5-.1-.1-.8-.2-1.8-.2-2.5-.1-3.8-.2-4.1-.2l-1.2-.1v-1V17.7c.1-1.2.1-1.8.2-1.9.1 0 1-.1 2.7-.1 2.1-.1 3.2-.2 3.5-.4.1-.1.1-.3.1-.6 0-.4 0-.7.1-.9v-.2c0-.1-.1-.1-.2-.2-.3-.1-1-.1-2.2-.1h-2.5c-1.2 0-1.8 0-1.9-.1l.1-2.7.2-2h.5c.2 0 .5 0 .9-.1h2.3l3.2.1.1-.6c.1-.3.1-.6.1-.9 0-.2 0-.4-.1-.4-.1-.1-1.1-.1-2.9-.2-1.8-.1-3.4-.1-4.7-.1-.3.1-.7.1-.8.1zm7.8.5c.1.1.2.1.2.2v.1s-.1.1-.2.1-.2 0-.3-.1c-.4-.1-.7-.1-.7-.2l.1-.1c.1-.1.2-.1.3-.1 0 0 .2 0 .6.1zm-8.3 6.7c0-.1.1-.1.1-.1s.1.2.1.7v1c0 .2-.1.4-.1.8-.1.3-.1.5-.1.5v-.1-.9c-.2-.7-.1-1.3 0-1.9zm.3-1.3c.1-.1.1.1.1.4v.1c0 .2-.1.2-.1.2-.1-.2-.1-.3-.1-.4 0-.1 0-.2.1-.3zm7.4 1.3c0 .1-.1.1-.2.2l-.1.1h-.1c-.1 0-.1 0-.1.1-.4 0-.7-.1-.7-.2l.1-.1c.1-.1.3-.1.5-.1 0-.1.2-.1.6 0zm-4.7-5.5c0 .1 0 .1-.1.1l-.1.1h-.2c-.1 0-.2 0-.4-.1l-.9-.1h.1c.3-.1.5-.1.7-.1.1 0 .2 0 .4.1.3-.1.5 0 .5 0zm1.7 6.6c.1 0 .2.1.2.2 0 0 0 .1-.1.1h-.3c-.1 0-.4-.1-.9-.1-.4-.1-.7-.1-.7-.2h.1c.3 0 .5-.1.6-.1.3 0 .6 0 1.1.1zm-.1-11.6l-1.3 2.1-.1.1v.1h1.7c.3 0 .6-.1.7-.4l1.2-1.9.1-.1c0-.1-.1-.1-.4-.1h-1.1c-.5 0-.7.1-.8.2zm-.4 1.8c.1 0 .2 0 .2.1.1 0 .1.1.1.1s0 .1-.1.1h-.1-.1-.1-.4c-.1 0-.1 0-.1-.1.1-.2.3-.3.6-.2zm2.1-1.8c.1-.1.2-.1.2-.1 0 .1-.1.2-.2.3l-.1.1h-.1c0-.1 0-.2.2-.3zm-9.8 18.6c-.1.2-.2.4-.3.5l-.3.3c-.2.1-.3.2-.6.2h-.1l.1-.1.2-.2c.1-.1.1-.1.2-.1 0 0 .1-.1.2-.1.1-.1.1-.1.2-.1l.4-.4zm-8-5.4s.1 0 0 0c.1 0 .1.1.1.4v.2c-.1-.2-.1-.3-.1-.4v-.2c0 .1 0 0 0 0zm.1 6.2c0-.1.2-.2.5-.2H172.8c.2 0 .2.1.1.1-.4.1-.7.1-.9.1-.1.1-.3.1-.5 0zm0-9.3v2.4h-.1c-.1 0-.1-.1-.1-.4v-.7c0-.4.1-.6.1-.8v-.2-.2-.2c0-.1 0-.1.1-.2h.1c-.1 0-.1.1-.1.3zm7 5.4c.1-.1.1.3.1 1 0 .6 0 .9-.1.9v-.1-.4-.4c-.1-.2-.1-.5 0-1zm-3.3-10.5c.2 0 .5 0 .7-.1.3-.1.5-.1.6-.1h.8c0 .1 0 .1-.1.1-.1.1-.2.1-.3.1h-.6c-.1 0-.3 0-.6.1-.3 0-.5.1-.5.1v-.2zm2.4 15c.1 0 .3 0 .5-.1.3 0 .4-.1.5-.1.1 0 .2-.1.4-.2s.3-.2.4-.3c.1-.1.2-.3.3-.6.1-.2.2-.5.3-.9.3-1.3.4-2.9.5-4.8 0-.2 0-.8.1-1.8.1-1.1.1-1.9.1-2.4 0-1.2-.1-2.1-.3-2.8-.3-1.1-1-1.8-2.2-2.1-1.3-.3-2.7-.5-4.1-.5-.6 0-1.8.1-3.9.2l-.1.4c0 .1 0 2.1-.1 6.1v10.4l3.9-.1h.6c.4 0 .9-.1 1.6-.1.6-.1 1.1-.2 1.5-.3zM178 9l.1.3c0 .2.1.5.1.8 0 .3.1.7.1 1v.8c0 .1 0 1.5-.1 4.1 0 .7-.1 2.1-.4 4.3 0 .4-.2.7-.4.9-.2.2-.5.3-.9.3l-4.4.2v-.1-.4-1l.2-11.2H178zm-7.1-1.4V9s-.1-.5-.2-1.5v-.2c0-.1 0-.1.1-.1h.1c.1 0 .1.2 0 .4zm-11.2 4c.1 0 .1 0 .1.1v.2c.1.2.1.4.1.5v.2c0 .1 0 .3-.1.4 0 .2-.1.2-.1.2v-.1c-.1-.3-.1-.5-.1-.8.1 0 .1-.3.1-.7zm-.8-2.7c0 .1 0 .4-.1 1.1-.1.6-.1.9-.2.9v-2-1.4s.1.2.2.6c.1.5.1.8.1.8zm.3 11.7c0 .8 0 1.2-.1 1.2s-.1-.4-.1-1.1c0-.8 0-1.2.1-1.2.1-.1.1.3.1 1.1zm6.8.6c-.1.2-.1.2-.2.2h-.1c-.1 0-.7 0-1.7.1s-1.7.1-2.1.1h-.5c-.6-.1-.9-.2-.9-.3v-.4-.8-.9-1.3-1.3c0-.4 0-.8.1-1.1 0-.3.1-.4.1-.4.2-.1.7-.1 1.4-.1h2.5c.8 0 1.2 0 1.2.1.1.3.2 1.9.2 4.9.1.7.1 1.1 0 1.2zm-5.3 2.5c.4 0 1.3-.1 2.8-.2 1.5-.1 2.3-.2 2.5-.2 1.2 0 2-.6 2.3-1.7.1-.4.2-1.1.2-2v-.9-2.2c0-.5-.1-.9-.2-1.2-.1-.3-.4-.5-.9-.8l-.7-.5s.1-.1.2-.1c.1-.1.3-.2.4-.3.1-.1.3-.4.4-.6.1-.2.1-.5.1-1v-.5-.5c0-1-.1-2-.4-2.8-.3-.8-.7-1.3-1.2-1.4-.7-.2-1.8-.3-3.4-.3h-4c-.4 0-.6.3-.6.8v.5c.1.7.1 4.8.1 12.1v4h.5l1.9-.2zm7.2-6.4v.9c0 .7 0 1.1-.1 1.1s-.1-.2-.1-.7v-1.1c0-.5 0-.8.1-.8 0 0 .1.2.1.6zm-2.2 5c0 .1-.5.2-1.6.2H163.8c-.2 0-.3 0-.3-.1s.2-.1.5-.1H164.3c.1 0 .3 0 .5-.1h.5c.3 0 .4.1.4.1zm1.6-.9v.4c0 .1 0 .1-.1.1s-.1 0-.1-.1v-.1-.4-.7-.4c.1 0 .1.3.1.8.1.2.1.3.1.4zm-5.6-7.8c0-.1.2-.1.5-.1s.4 0 .4.1c-.1.1-.2.1-.4.1-.3.1-.5 0-.5-.1zm5.1-4.5c0-.5 0-.8.1-.8s.1.3.1 1v1.5l-.1-.4c-.1-.6-.1-1.1-.1-1.3zm-2.6-2.3c0-.1.2-.1.7-.1.2 0 .4 0 .4.1l.1.1h-.2c-.6 0-1 0-1-.1zm-4 1.5c.6 0 1.6 0 2.9.1 1.4.1 2.1.1 2.2.2.1 0 .2.4.2 1.1.1 1.7.2 2.6.2 2.7 0 0-.2 0-.5.1-.3 0-.7.1-1.2.1-.5.1-.9.1-1.3.1-.1 0-.5.1-1 .1s-1 .1-1.3.1h-.1-.1c0-.3 0-.7-.1-1.3V9.7c.1-.7.1-1.2.1-1.4zm-6.1 9.9c-.1 0-.1-.1-.1-.4 0-.5 0-.9.1-1.1v-.3l.1.1s.1.2.1.4v.4c-.1.5-.1.8-.2.9zm-6.6-1.7l-.1.1c-.1 0-.1-.1-.1-.2l.1-1.3s0 .1.1.2c0 .2.1.3.1.6v.5c-.1 0-.1.1-.1.1zM147 6.2c-.1.1-.2 5.2-.3 15.3v1.4c0 .1 0 .3.1.3 0 0 .2.1.4.1h.7l7.4-.8H155.6v-.2c0-.1 0-.4.1-1s.1-1.3.2-2c.1-.8.1-1.5.1-2.1v-.5-.5-.4-.5c.1-.9.1-2.3.3-4.3.1-1.9.2-3.1.2-3.5v-.1-.2V6.9s-.2-.1-.5-.2h-1.2c-.4 0-.6.2-.6.5l-.1 1.3-1 11.6v.4c0 .1-.1.1-.2.1-1.2.4-2.6.5-4.3.5h-.2s-.1-.1-.1-.2v-1c0-3.4.1-7.4.3-11.9l.1-1.1c0-.2-.6-.4-1.8-.7.2-.1.1 0 .1 0zm8.8 1.2c0-.1 0-.1 0 0 .1-.1.1 0 .1.2.1.2.1.4.1.6v.1c0 .2 0 .4-.1.7-.1.3-.1.5-.2.8-.1.2-.1.3-.1.3v-.3V8c.1-.3.2-.5.2-.6zm-8.1 9.5c.1 0 .2.1.2.4v.1c-.1.4-.1.6-.2.6l-.1-.1c-.1-.1-.1-.3-.1-.4 0-.2.1-.4.2-.6zm5.2 4.8c.1-.1.3-.1.5-.1h.9c.1 0 .1 0 .2.1 0 .1 0 .1-.1.1-.2 0-.3.1-.3.1-.1 0-.2 0-.4-.1h-.8v-.1zm-13.1-7.2c-.1-.1.2-.1.7-.2h1.3c.1 0 .2 0 .4-.1s.3-.1.4-.1c.1 0 .1 0 .1.1v.1c-.1.2-.2.2-.4.2h-.6c-.4 0-.7.1-.9.1h-.6c-.2-.1-.3-.1-.4-.1zm0 8s-.3 0-.8.1c-.5 0-.9.1-1 .1-.6 0-.8 0-.8-.1 0 0 .1-.1.4-.1.2-.1.4-.1.4-.1h1c.6-.1.8 0 .8.1zm4.9-3.6c-.1.1-.1-.1-.1-.3v-.5-.4c0-.3 0-.4.1-.4v.1c.1.8 0 1.3 0 1.5zm-8.5-10.8v.7c-.1 0-.1-.2-.1-.7v-.4c0-.1.1-.1.1-.1s.1.1.1.3v.2zm5.6-2l-4 .2c-.3 0-.7 0-1.1.1-.5 0-.7.1-.9.1h-.1c-.1 0-.2 0-.2.1s-.1.3-.1.5c0 .9-.1 2.1-.1 3.5v4.8c0 .2.1.3.4.4h.1c.2 0 1.2-.1 2.9-.3 1.7-.2 2.9-.3 3.6-.3h.4c-.1.5-.1 1.1-.1 1.7v2.2c0 .6 0 1.1-.1 1.5l-.6.1c-.3.1-.8.1-1.4.1h-.3c-1.7 0-2.9-.1-3.7-.1-.6-.1-1-.1-1.1-.1-.3 0-.4.1-.4.3 0 .1 0 .2.1.4.1.4.1.7.1.9 0 .6.2 1 .6 1 .1 0 .4.1.6.1h.5c1.2 0 2.8 0 4.7-.1 2-.1 3-.2 3-.2 0-.1.1-.2.1-.5v-1.3c0-.6 0-1.2.1-1.7.1-.8.1-1.5.1-2 0-.4 0-.9-.1-1.7 0-.7-.1-1.3-.1-1.7v-.4-.4l-.8-.1h-.2c-.3 0-1.2.1-2.7.2-1.5.2-2.4.2-2.9.2-.3 0-.5 0-.6-.1-.1-.1-.1-.8-.1-2.2v-.1-.7c0-1.2 0-1.8.1-1.8H143.7c.3 0 .5-.1.5-.4v-.4-1.4c0-.3-.2-.5-.7-.5h-.1l-1.6.1zm-5.3 2.6c.1-.1.2.2.2.8 0 .5-.1.9-.2 1.2v-.3-.3V9.2v-.5zm4.6-2.2c.7-.1 1.3-.2 1.8-.2h1c0 .1-.4.2-1.2.2-.5.1-.9.1-1.1.1-.4 0-.6 0-.6-.1h.1zm-5.2 7.4c0-.1.1-.1.1-.1s.1.1.1.4v.8s0 .1-.1.2c0 .1-.1.1-.1.1 0-.1 0-.2-.1-.4 0-.2-.1-.3-.1-.4 0-.2.1-.4.2-.6zm-.4 7c.1-.1.2.1.2.5v.5-.1c-.1-.3-.2-.5-.2-.6v-.3z"/>
  <path class="st0" d="M238 22.3c.5 0 .8-.1.9-.1h.4c.2 0 .4.1.4.1v.1h-.3-1.1c-.5 0-.7-.1-.8-.1h.5m-2 .4c-.1 0-.1 0 0 0-.1-.1 0-.2.1-.2h.8c.3 0 .5.1.5.2-.2.1-.5.1-.7.1-.2 0-.4 0-.7-.1zm8.5-16.8c.1 0 .1 0 .1.1v.1l-.1.1s-.1 0-.2-.1h-.6c-.1 0-.1 0-.1-.1v-.1c.1-.1.2-.1.3-.1 0 0 .1 0 .3.1h.3zM236 6h-.5c-.2 0-.4 0-.5.1-.1.1-.1.2-.1.5v2.1c0 6.1 0 9.9.1 11.5v2.7l.1.1c.1.1.5.1 1.1.1H244.7c.2 0 .3 0 .3-.1V22.4v-2.1-2.8l-.1-10.3V6c0-.1 0-.2-.1-.2 0 0-.1-.1-.3-.1h-2c-.3 0-1 0-2 .1-1 0-2 .1-3 .1-.8.1-1.4.1-1.5.1zm-.4 1.4c-.1 0-.1-.1-.1-.3 0-.2-.1-.3-.1-.5v-.2l.1-.1v.1c0 .1.1.3.1.7v.3zm.5.6v2.2c-.1 0-.1-.5-.1-1.6 0-.5 0-.8.1-.8l.1-.1c-.1.1-.1.1-.1.3zm7.2.2s.1 1.4.1 4.1c0 3.9-.1 6.6-.1 7.9 0 .4-.1.7-.1.7v.4c-.4 0-2-.1-4.9-.4l-.7-.1v-1.4c0-.1 0-.6-.1-1.5s-.1-1.6-.1-2.1l-.1-7.7h.4c.2 0 1.2 0 2.9-.1h1.3c.4 0 .8 0 1-.1.1.3.3.3.4.3zm.3 10.9v-.9-1c.1.1.1.5.1 1.2 0 .4-.1.6-.1.7zm.6.4c0 .9 0 1.3-.1 1.3 0 0-.1-.2-.1-.6 0-.4-.1-.6-.1-.8 0-.1 0-.1.1-.1l.2.2zM225.8 21c0 .6 0 .9-.1.9 0 0 0-.1-.1-.4 0-.3-.1-.5-.1-.6 0-.2.1-.3.1-.3.1.1.2.2.2.4zm.8-14.7s-.1.1-.3.1c-.2 0-.3.1-.4.1-.1 0-.2 0-.5-.1-.3 0-.4-.1-.4-.1s.1-.1.4-.1c0-.1.1-.1.3-.1h.2c.4.1.7.1.7.2zm-.6-.4h-.5-.1-.2c-.2 0-.3.1-.3.4 0 3.6.1 6.7.2 9.5l.2 4.5c.1 1.6.1 2.5.2 2.6 0 .1.2.2.4.2s.9 0 1.9.1H233.5c.1 0 .1-.3.1-1v-.6-.3c0-.1-.2-.1-.4-.2-.3-.1-.5-.1-.9-.1-.3 0-1.1 0-2.5-.1s-2.1-.1-2.1-.2v-.1c0-.1 0-.2-.1-.4 0-.1 0-.3-.1-.4-.1-.7-.2-2.2-.3-4.7-.1-2.5-.2-4.4-.2-5.8 0-.6 0-1 .1-1 .1-.1 1.5-.2 4.3-.2h.7c.4 0 .6 0 .7-.1.1-.1.1-.3.1-.7l.1-.6v-.6c0-.1 0-.2-.1-.3-.1-.1-1.4-.1-4-.1-1.4.2-2.4.2-2.9.2zm3.2 1.9s-.1 0 0 0c-.1-.1.2-.2.8-.2.6 0 .9.1.9.1h-.1c-.4.1-.7.1-.8.1-.1.1-.4.1-.8 0zm-2.4 7.4c.1.7.1 1.1.1 1.3 0 .3 0 .6-.1 1v.1s0-.1-.1-.2c0-.1 0-.3-.1-.5v-.5-.3-.3s0-.1.1-.3c0 0 0-.1.1-.3zm6.2 6.3l-.1.1H231.1s0-.1.1-.1c.2-.1.4-.1.6-.1.1 0 .3 0 .6.1h.6zm-11.7-3c0 1.5 0 2.3-.1 2.3 0 0 0-.3-.1-1v-1.3c0-.1 0-.2.1-.2s.1.1.1.2zM221.2 6c-.2 0-.3 0-.4.1 0 .1-.1.3-.1.6 0 2.2-.1 6.6-.1 13.2V23.1c0 .1.1.2.3.2H222.2l.5-.1c.1 0 .2-.1.2-.2v-.2l-.1-2.9V6.5c0-.2 0-.4-.1-.4-.1-.1-.3-.1-.6-.1h-.9zm0 .4c.1-.1.2-.2.4-.2.1 0 .2 0 .4.1s.3.1.4.1c0 .1-.1.2-.1.2-.6.1-.9.1-.9.1-.2 0-.2 0-.2-.1v-.2zm1.1 2.2c0-.1 0-.2.1-.2s.2.8.2 2.3c0 .7 0 1.1-.1 1.1 0 0-.1 0-.1-.1-.1-1-.1-1.7-.1-2-.1-.3 0-.7 0-1.1zm-.8 8.4s0-.1 0 0c.2 0 .3.2.3.5 0 .1 0 .2-.1.3-.1.3-.2.3-.2.2-.1-.3-.1-.5-.1-.6-.1-.1 0-.3.1-.4zm-10.2 4.6c0-.1 0-.1 0 0 .1 0 .3.4.4 1.3-.1 0-.1-.1-.2-.4-.2-.3-.3-.6-.2-.9-.1 0-.1 0 0 0zm-4.5 2.2c0-.1 0-.1 0 0h.5c.1 0 .3-.1.4-.2v.4l-.1.1h-.1s-.3-.2-.7-.3zm11.3-17.2c.1 0 .1.1.1.1 0 .1 0 .1-.1.1-.2 0-.5-.1-.8-.3l-.2-.2c.4 0 .7.1 1 .3zm-11.8-.9c-.3 0-.4.1-.4.3V22.7c0 .9.1 1.4.1 1.4.1.2.3.2.6.2h.3c.5 0 .8 0 1-.1.1-.1.1-.4.1-.9v-.9c-.1-1.5-.1-2.8-.1-4 0-1.8-.1-4.6-.2-8.5.1.1.6 2.1 1.5 6 .1.7.4 1.5.6 2.4 0 .1.1.3.2.7.1.3.2.7.3 1 .1.4.2.7.3 1 .3 1.3.5 2 .6 2.2.1.1.3.1.9.1h1.3c.1 0 .1 0 .1-.1s.1-.1.1-.1v-.3c0-.1.1-.3.1-.4 0 0 0-.2.1-.6 0-.4.1-.6.1-.9.2-1.2.4-1.9.4-2.1.2-1.5.6-3.6 1.1-6.1.5-2.6.9-4 1.1-4.1v5.8c-.1 3-.2 5.5-.2 7.6v.6s.2.1.5.1c.9.1 1.4.2 1.6.2h.1c.1 0 .1-.1.1-.2v-.1s-.1-.1-.1-.3v-.2c0-.3 0-1.1.1-2.4V17c0-1.5.1-2.7.1-3.4 0-2.5.1-4.3.1-5.2V6.7c0-.1 0-.2-.1-.3 0 0-.2-.1-.4-.1-.4-.1-1.2-.2-2.4-.2h-.6c-.2 0-.4 0-.4.1-.1.1-.2.3-.3.5-.6 2.1-.9 3.5-1.1 4-.8 3.8-1.3 6.1-1.5 7v.8-.6c-.1 0-.1-.3-.3-.8-.1-.5-.3-1.2-.4-2-.2-.8-.3-1.3-.4-1.6 0-.2-.1-.5-.2-.9l-.2-.7-1.5-5.7c-.1-.4-.2-.7-.3-.7-.2-.1-.9-.1-2.1-.1h-.3zm4.2 9.6v.2c0 .1 0 .1-.1.1 0 0-.1-.1-.2-.4-.1-.3-.1-.5-.1-.7.1 0 .3.3.4.8zm7.5-5.7c0 .5 0 .7-.1.7s-.1-.2-.1-.7c0-.4 0-.7.1-.7s.1.2.1.7zm-11-1.8v1c0 .4 0 .5-.1.5s-.1-.4-.1-1.1c0-.4 0-.7.1-.9 0-.1.1-.1.1-.1-.1.1 0 .2 0 .6zm10.1 6.5c0 .1 0 .1-.1.1-.1-.1-.1-.1-.1-.2s0-.1.1-.1.1.1.1.2zm-2.7-1.9c-.1.1-.1.2-.1.2-.1 0-.1 0-.1-.1s0-.2.1-.3c0-.1.1-.2.1-.2l.1.1c0 .1.1.1.1.1-.1-.1-.1 0-.2.2zm-1.2 3.9c0 .1-.1.4-.3.7-.2.3-.3.5-.3.5 0-.1.1-.4.3-.9.2-.5.3-.8.4-.8v.1c0 .1 0 .3-.1.4zm4.9 2.5c0 .1 0 .1 0 0-.1.1-.1 0-.2 0-.1-.1-.1-.1-.1-.2v-1.1c0 .1.1.3.1.6.2.4.2.6.2.7zm-.2 1.3c0 .5 0 .8-.1.8 0 0-.1-.2-.1-.8V20c0-.4 0-.6.1-.6 0 0 .1.3.1.7zm-10.7-.8v-.6-.9-.6-.6c0-1 0-1.5.1-1.5 0 0 .1.2.1.6V17c0 1.7 0 2.5-.1 2.5l-.1-.2zm-12.2.6c0 .1-.1.2-.1.2-.1 0-.1-.2-.1-.5s0-.7.1-1c0-.2.1-.3.1-.3s.1.2.1.6v.1c.1.4.1.7-.1.9zm4.4-1.6c-.1 0-.4-.3-.9-.9-.5-.6-.8-1-.9-1.1 0 0-.1-.1-.1-.2s0-.1.1-.2c0 0 .1 0 .1.1s.1.1.2.2.1.2.2.3c.1.1.3.4.7 1 .4.5.6.8.6.8zm3.6-6.6v.3c0 .4 0 .5-.1.5s-.2-.1-.2-.4c0-.1 0-.5.1-1s.1-.8.2-.8v1.4zm-4.4-3.4l3.2.1c.1.1.1.3.1.6V13.3c0 .1-.2.1-.6.1-.3 0-.7 0-1.2-.1-.5 0-.8-.1-.8-.1l-3.6-.1.1-4.7c.1-.1 1-.1 2.8-.1zm-4.2.2c0 1.4 0 2-.1 2v-.3-.9-.8c0-.1 0-.2.1-.2v.2zm2.6-1.1c-.2 0-.4.1-.5.1-.2 0-.2-.1-.2-.1 0-.1 0-.2.1-.2h.3c.2 0 .3 0 .4-.1.1 0 .1.1.1.1-.1.1-.1.2-.2.2zm-3.2-1.1c-.1.2-.2 3.4-.4 9.4-.1 2.4-.1 4.1-.2 4.9 0 .1 0 .5-.1 1 0 .5-.1.9-.1 1.1 0 .3 0 .4.1.5 0 .1.1.1.1.1.1.1.5.1 1.3.1h.6c.1 0 .2-.1.2-.2V22.9c0-.3 0-1.1.1-2.3v-2.3-2.5c0-.6.1-1.1.1-1.3.1 0 .4.4 1.1 1.2 3.6 4.7 5.6 7 5.8 7l2.2-1c0-.1 0-.1-.1-.3l-1.9-2-.8-.8-1.1-1.1c-.3-.3-.7-.7-1-1.1-.4-.4-.6-.8-.9-1.1-.2-.3-.3-.5-.3-.7 0-.1.5-.1 1.5-.1 2.4 0 3.6-.1 3.6-.3 0 0 0-.3.1-.7 0-.4.1-.9.1-1.5v-1.7c0-.9 0-1.8-.1-2.7-.1-.9-.1-1.4-.1-1.6 0-.3-1.1-.4-3.2-.4h-4.9c-1 .5-1.6.6-1.7.7zm5.6 7.2c.1 0 .2.1.2.1v.1c-.1 0-.1.1-.3.1h-1.1s0-.1.1-.1.2-.1.4-.1h.5s.1-.1.2-.1zm2.8 8.5c0-.1.1-.1.4-.1H203.2c.2.1.3.1.3.1-.3 0-.6.1-.7.1-.1-.1-.3-.1-.6-.1zm-.3-15.1c.3 0 .6 0 .7.1.2.1.3.1.3.2.1.1.1.2.2.4 0 .1.1.1.1.2v.1s-.1-.1-.1-.2c-.1-.1-.2-.3-.3-.4-.1-.1-.3-.2-.5-.3l-.4-.1z"/>
  <path class="st1" d="M278.6 34.9l69.1-30.2c.9-.4 1.4-1.5 1-2.5l-.3-.6c-.4-.9-1.5-1.4-2.5-1l-69.1 30.2c-.9.4-1.4 1.5-1 2.5l.3.6c.5 1 1.6 1.4 2.5 1z"/>
  <ellipse transform="rotate(-23.638 277.09175805 33.13116833)" class="st1" cx="277.1" cy="33.1" rx="1.2" ry="2.2"/>
</svg>