<svg xmlns="http://www.w3.org/2000/svg" width="423.8" height="57.2" viewBox="0 0 423.8 57.2">
  <style>
    .st0,.st1{fill:#7c51a0}.st1{fill-rule:evenodd;clip-rule:evenodd}
  </style>
  <path class="st0" d="M403.1 13.4l2.2 1.3.5-.8-2.2-1.3-.5.8zm-.8 1.4l2.2 1.3.5-.8-2.2-1.3-.5.8zm-.8 1.4l2.2 1.3.5-.8-2.2-1.3-.5.8zm-.8 1.4l2.2 1.3.5-.8-2.2-1.3-.5.8zm-.9 1.5l2.2 1.3.5-.8-2.2-1.3-.5.8zm-.8 1.4l2.2 1.3.5-.8-2.2-1.3-.5.8zm-.8 1.4l2.2 1.3.5-.8-2.2-1.3-.5.8zm-.8 1.5l2.2 1.3.5-.8-2.2-1.3-.5.8zm-.9 1.4l2.2 1.3.5-.8L397 24l-.5.8zm-.8 1.4l2.2 1.3.5-.8-2.2-1.3-.5.8zm-.8 1.5l2.2 1.3.5-.8-2.2-1.3-.5.8zm-.9 1.4l2.2 1.3.5-.8-2.2-1.3-.5.8zm-.8 1.4l2.2 1.3.5-.8-2.2-1.3-.5.8zm-.8 1.5l2.2 1.3.5-.8-2.2-1.3-.5.8zm-.8 1.4l2.2 1.3.5-.8-2.2-1.3-.5.8zm-.9 1.4l2.2 1.3.5-.8-2.2-1.3-.5.8zm-.8 1.5l2.2 1.3.5-.8-2.2-1.3-.5.8zM404 11.9l2.2 1.3.5-.8-2.2-1.3-.5.8zm18.4 5.7l-.3-.6-4.7-7.8c-2.6-4.3-6.1-3.1-9.3-1.8-.5-3.5-1.2-7.1-6.2-7.2l-9-.1h-3.5s-1.2 2 .8 2.3c1.7.3 2.5.2 2.8-.5l8.8.1c3.8.1 4.2 3.2 4.6 6.2v.2l-1.2 2.2.8.4.8.5 1.3-2.2.2-.1c2.7-1.1 5.7-2.3 7.7.9l4.5 7.5c-.5.6-.2 1.4.9 2.7 1.4 1.6 2.4-.4 2.4-.4l-1.4-2.3z"/>
  <path class="st1" d="M389.8 37.3c-.8-.5-1.9-.2-2.4.6l-.7 1.2c-.5.8-.2 1.9.6 2.4s1.9.2 2.4-.6l.7-1.2c.6-.8.3-1.9-.6-2.4"/>
  <path class="st0" d="M390.8 41c-.1-.1-.1-.4 0-.5.1-.1.4-.1.5 0 0 0 1.3 1.4 0 2.4-1 .8-4.6 2.3-4.6 2.4-.2.1-.4 0-.5-.2-.1-.2 0-.4.2-.5 0 0 3.6-1.6 4.5-2.3.7-.4-.1-1.3-.1-1.3"/>
  <path class="st0" d="M384.9 47.5c0-.2.2-.3.4-.3s.3.2.3.4c-.2 2.3-.8 3.4-1.7 4.9-.3.4-.5.9-.8 1.5-.1.2-.3.2-.5.1s-.2-.3-.1-.5c.3-.6.6-1.1.9-1.5.7-1.5 1.3-2.5 1.5-4.6"/>
  <path class="st0" d="M386.3 37.8c.2 0 .3.2.3.3 0 .2-.2.3-.3.3 0 0-1.4 0-1.5.6-.1.9.3 4.6.4 4.6 0 .2-.1.4-.3.4-.2 0-.4-.1-.4-.3 0 0-.5-3.8-.3-4.8.1-1.1 2.1-1.1 2.1-1.1"/>
  <path class="st0" d="M383.3 46.3c.2-.1.4 0 .5.2.1.2 0 .4-.2.5-1.8.9-2.9 3.4-3.8 5.6-.9 2.2-1.7 4.1-3.2 4.6-.2.1-.4 0-.4-.2-.1-.2 0-.4.2-.4 1.2-.4 1.9-2.2 2.8-4.3 1-2.4 2-5 4.1-6"/>
  <path class="st1" d="M385.4 44.9c-.4-.2-1 0-1.3.5-.3.5-.2 1.1.2 1.4.4.2 1 0 1.3-.5.3-.6.2-1.2-.2-1.4"/>
  <g>
    <path class="st0" d="M66 22.6c-.1-.1.2-.1.7-.2H68c.1 0 .2 0 .4-.1s.3-.1.4-.1c.1 0 .1 0 .1.1v.1c-.1.2-.2.2-.4.2h-.6c-.4 0-.7.1-.9.1h-.6c-.2 0-.3-.1-.4-.1m0 8.1s-.3 0-.8.1c-.5 0-.9.1-1 .1-.6 0-.8 0-.8-.1 0 0 .1-.1.4-.1.2-.1.4-.1.4-.1h1c.6-.2.8-.1.8.1zm4.9-3.7c-.1.1-.1-.1-.1-.3v-.5-.4c0-.3 0-.4.1-.4v.1c.1.9 0 1.4 0 1.5zm-8.5-10.7v.7c-.1 0-.1-.2-.1-.7v-.4c0-.1.1-.1.1-.1s.1.1.1.3v.2zm5.6-2l-4 .2c-.3 0-.7 0-1.1.1-.5 0-.7.1-.9.1h-.1c-.1 0-.2 0-.2.1s-.1.3-.1.5c0 .9-.1 2.1-.1 3.5v4.8c0 .2.1.3.4.4h.1c.2 0 1.2-.1 2.9-.3 1.7-.2 2.9-.3 3.6-.3h.5c-.1.5-.1 1.1-.1 1.7v2.2c0 .6 0 1.1-.1 1.5l-.6.1c-.4.1-.8.1-1.4.1h-.3c-1.7 0-2.9-.1-3.7-.1-.6-.1-1-.1-1.1-.1-.3 0-.4.1-.4.3 0 .1 0 .2.1.4.1.4.1.7.1.9 0 .6.2 1 .6 1 .1 0 .4.1.6.1h.5c1.2 0 2.8 0 4.7-.1 2-.1 3-.2 3-.2 0-.1.1-.2.1-.5v-1.3c0-.6 0-1.2.1-1.7.1-.8.1-1.5.1-2 0-.4 0-.9-.1-1.7 0-.7-.1-1.3-.1-1.7v-.4-.4l-.6-.5h-.2c-.3 0-1.2.1-2.7.2-1.5.2-2.4.2-2.9.2-.3 0-.5 0-.6-.1-.1-.1-.1-.8-.1-2.2V19v-.7c0-1.2 0-1.8.1-1.8H70.2c.3 0 .5-.1.5-.4v-.4-1.1c0-.3-.2-.5-.7-.5h-.1l-1.9.2zm-5.2 2.6c.1-.1.2.2.2.8 0 .5-.1.9-.2 1.2v-.3-.3-1c-.1-.2-.1-.3 0-.4zm4.5-2.2c.7-.1 1.3-.2 1.8-.2h1c0 .1-.4.2-1.2.2-.5.1-.9.1-1.1.1-.4 0-.6 0-.6-.1h.1zm-5.2 7.4c0-.1.1-.1.1-.1s.1.1.1.4v.8s0 .1-.1.2c0 .1-.1.1-.1.1 0-.1 0-.2-.1-.4 0-.2-.1-.3-.1-.4 0-.3.1-.5.2-.6zm-.4 6.9c.1-.1.2.1.2.5v.5-.1c-.1-.3-.2-.5-.2-.6V29zm-3.8-2.3c0 1.5 0 2.3-.1 2.3 0 0 0-.3-.1-1v-1.3c0-.1 0-.2.1-.2s.1 0 .1.2zm-.1-12.5c-.2 0-.3 0-.4.1 0 .1-.1.3-.1.6 0 2.2-.1 6.6-.1 13.2V31.3c0 .1.1.2.3.2H58.8l.5-.1c.1 0 .2-.1.2-.2V31l-.1-2.9V14.6c0-.2 0-.4-.1-.4-.1-.1-.3-.1-.6-.1h-.9zm0 .3c.1-.1.2-.2.4-.2.1 0 .2 0 .4.1s.3.1.4.1c0 .1-.1.2-.1.2-.6.1-.9.1-.9.1-.2 0-.2 0-.2-.1v-.2zm1.1 2.3c0-.1 0-.2.1-.2s.2.8.2 2.3c0 .7 0 1.1-.1 1.1 0 0-.1 0-.1-.1-.1-1-.1-1.7-.1-2-.1-.3 0-.7 0-1.1zm-.9 8.4c.1-.1.1-.1 0 0 .2 0 .3.2.3.5 0 .1 0 .2-.1.3-.1.3-.2.3-.2.2-.1-.3-.1-.5-.1-.6 0-.2.1-.3.1-.4zm-3.6 4.6c-.1.2-.2.4-.3.5l-.3.3c-.2.1-.3.2-.6.2h-.1l.1-.1.2-.2c.1-.1.1-.1.2-.1 0 0 .1-.1.2-.1.1-.1.1-.1.2-.1l.4-.4zm-8-5.3c0-.1.1-.1 0 0 .1 0 .1.1.1.4v.2c-.1-.2-.1-.3-.1-.4v-.2zm.1 6.2c0-.1.2-.2.5-.2H47.8c.2 0 .2.1.1.1-.4.1-.7.1-.9.1h-.5zm0-9.3v2.4h-.1c-.1 0-.1-.1-.1-.4v-.7c0-.4.1-.6.1-.8v-.2-.2-.2c0-.1 0-.1.1-.2h.1c-.1-.1-.1 0-.1.3zm7 5.4c0-.1 0-.1 0 0 .1-.1.1.3.1 1 0 .6 0 .9-.1.9v-.1-.4-.4c-.1-.2-.1-.6 0-1zm-3.3-10.6c.2 0 .5 0 .7-.1.3-.1.5-.1.6-.1h.8c0 .1 0 .1-.1.1-.1.1-.2.1-.3.1h-.6c-.1 0-.3 0-.6.1-.3 0-.5.1-.5.1v-.2zm2.4 15.1c.1 0 .3 0 .5-.1.3 0 .4-.1.5-.1.1 0 .2-.1.4-.2s.3-.2.4-.3c.1-.1.2-.3.3-.6.1-.2.2-.5.3-.9.3-1.3.4-2.9.5-4.8 0-.2 0-.8.1-1.8.1-1.1.1-1.9.1-2.4 0-1.2-.1-2.1-.3-2.8-.3-1.1-1-1.8-2.2-2.1-1.3-.3-2.7-.5-4.1-.5-.6 0-1.8.1-3.9.2l-.1.4c0 .1 0 2.1-.1 6.1v10.3l3.9-.1h.6c.4 0 .9-.1 1.6-.1.6-.1 1.1-.1 1.5-.2zm.4-14.2l.1.3c0 .2.1.5.1.8 0 .3.1.7.1 1v.8c0 .1 0 1.5-.1 4.1 0 .7-.1 2.1-.4 4.3 0 .4-.2.7-.4.9-.2.2-.5.3-.9.3l-4.4.2v-.1-.4-1l.3-11.2H53zm-7.1-1.4v1.4s-.1-.5-.2-1.5v-.2c0-.1 0-.1.1-.1h.1c.1.1.1.2 0 .4zM27.7 29c-.2.1-.3.1-.4.1-.1 0-.2 0-.4-.1h.8zm4.4-8.9c-.2-.1-.6-.4-1.3-.9-.6-.5-1.2-.9-1.6-1.3 0 0-.3-.2-.7-.5-.4-.3-.7-.4-.7-.5-.1-.1-.2-.1-.3-.1h-1.9c-.4 0-.6 0-.6.1l.2.2.2.2c.9.6 1.8 1.3 2.8 2 1 .7 1.7 1.2 2.1 1.4l2.3 1.7.8.5c.1.1.2.1.3.2h-.3c-.1 0-.2.1-.3.1l-.7.6c-.7.5-1.5 1.1-2.3 1.6-.4.3-1 .8-2 1.4-1 .7-1.9 1.3-2.7 2l-.2.2-.2.2c0 .1.2.1.6.1h1.5c.3 0 .5-.1.7-.2l1.6-1.1c.4-.4 1-.8 1.7-1.3s1.2-.8 1.4-.9l.6-.4c.4-.3.8-.6 1.4-1 .6-.4 1-.7 1.3-.9 0 0 .1-.1.3-.2.1-.1.2-.2.3-.2l.1-.1-.1-.1s-.1-.1-.3-.2c-.1-.1-.2-.2-.3-.2-.3-.2-.8-.5-1.4-1l-1.5-1-.8-.4zm-4.3-2.8l.4.4c.2.2.3.3.5.4 0 .1 0 .2-.1.2s-.1 0-.2-.1l-.3-.3-.2-.2-.1-.1c-.2-.2-.2-.4-.2-.4l.2.1zm7.2 5.2c.1 0 .2.1.3.2.1.1.2.2.4.2v.1c-.1.1-.3 0-.5-.1-.2-.2-.3-.3-.2-.4-.1-.1-.1-.1 0 0zm-4-2.4c.1.1.1.1.2.1.1.1.2.1.2.1.1 0 .1.1.1.1-.1.1-.4 0-.7-.3h.2zM25.8 17c.1-.1.3-.1.5-.1.1 0 .3 0 .4.1h-.9zm3 10.4c0 .1-.1.1-.1.1l.1-.1c0-.1 0-.3.1-.4l.2-.2.3-.3c.1-.1.2-.1.2-.1.1 0 .1.1.1.2-.2.1-.4.3-.5.4-.2.1-.3.3-.4.4zm2.1-7.1c.5.4 1 .8 1.4 1.2V21.8s-.1 0-.2-.1l-.3-.3-.2-.2c-.2-.2-.4-.3-.4-.3l-.2-.2c0-.3-.1-.4-.1-.4zm1.6 4.4l.2-.2.2-.2c.1-.1.3-.2.4-.3l.2-.2.3-.3c.1-.1.2-.1.2-.1v.2c-.4.2-.8.6-1.5 1.1zM15.1 29c-.2.1-.3.1-.4.1-.1 0-.2 0-.4-.1h.8zm4.5-8.9c-.2-.1-.6-.4-1.3-.9-.6-.5-1.2-.9-1.6-1.3 0 0-.3-.2-.7-.5-.4-.3-.7-.4-.7-.5-.1-.1-.2-.1-.3-.1h-1.9c-.4 0-.6 0-.6.1l.2.2.2.2c.9.6 1.8 1.3 2.8 2 1 .7 1.7 1.2 2.1 1.4l2.3 1.7.8.5c.1.1.2.1.3.2h-.3c-.1 0-.2.1-.3.1l-.7.6c-.7.5-1.5 1.1-2.3 1.6-.4.3-1 .8-2 1.4-1 .7-1.9 1.3-2.7 2l-.2.2-.2.2c0 .1.2.1.6.1h1.5c.3 0 .5-.1.7-.2l1.6-1.1c.4-.4 1-.8 1.7-1.3s1.2-.8 1.4-.9l.6-.4c.4-.3.8-.6 1.4-1 .6-.4 1-.7 1.3-.9 0 0 .1-.1.3-.2.1-.1.2-.2.3-.2l.1-.1-.1-.1s-.1-.1-.3-.2c-.1-.1-.2-.2-.3-.2-.3-.2-.8-.5-1.4-1l-1.5-1-.8-.4zm-4.3-2.8l.4.4c.2.2.3.3.5.4 0 .1 0 .2-.1.2s-.1 0-.2-.1l-.3-.3-.2-.2-.1-.1c-.2-.2-.2-.4-.2-.4l.2.1zm7.2 5.2c.1 0 .2.1.3.2.1.1.2.2.4.2v.1c-.1.1-.3 0-.5-.1-.2-.2-.3-.3-.2-.4-.1-.1-.1-.1 0 0zm-4-2.4c.1.1.1.1.2.1.1.1.2.1.2.1.1 0 .1.1.1.1-.1.1-.4 0-.7-.3h.2zM13.3 17c.1-.1.3-.1.5-.1.1 0 .3 0 .4.1h-.9zm3 10.4c0 .1-.1.1-.1.1l.1-.1c0-.1 0-.3.1-.4l.2-.2.3-.3c.1-.1.2-.1.2-.1.1 0 .1.1.1.2-.2.1-.4.3-.5.4-.2.1-.3.3-.4.4zm2.1-7.1c.5.4 1 .8 1.4 1.2V21.8s-.1 0-.2-.1l-.3-.3-.2-.2c-.2-.2-.4-.3-.4-.3l-.2-.2c-.1-.3-.1-.4-.1-.4zm1.6 4.4l.2-.2.2-.2c.1-.1.3-.2.4-.3l.2-.2.3-.3c.1-.1.2-.1.2-.1v.2c-.4.2-.9.6-1.5 1.1zM2.6 29c-.2.1-.3.1-.4.1-.1 0-.2 0-.4-.1h.8zm4.5-8.9c-.2-.1-.6-.4-1.3-.9-.6-.5-1.2-.9-1.6-1.3 0 0-.3-.2-.7-.5-.4-.3-.7-.4-.7-.5-.1-.1-.2-.1-.3-.1H.6c-.4 0-.6 0-.6.1l.2.2.2.2c.9.6 1.8 1.3 2.8 2 1 .7 1.7 1.2 2.1 1.4l2.3 1.7.8.5c.1.1.2.1.3.2h-.3c-.1 0-.2.1-.3.1l-.7.6c-.7.5-1.5 1.1-2.3 1.6-.3.3-1 .8-2 1.4-1 .7-1.9 1.3-2.7 2l-.2.2c-.1.2-.2.2-.2.3 0 .1.2.1.6.1h1.5c.3 0 .5-.1.7-.2l1.6-1.1c.4-.4 1-.8 1.7-1.3s1.2-.8 1.4-.9l.5-.4c.4-.3.8-.6 1.4-1 .6-.4 1-.7 1.3-.9 0 0 .1-.1.3-.2.1-.1.2-.2.3-.2l.1-.1-.1-.1s-.1-.1-.3-.2c-.1-.1-.2-.2-.3-.2-.3-.2-.8-.5-1.4-1l-1.5-1-.7-.5zm-4.3-2.8l.4.4c.2.2.3.3.5.4 0 .1 0 .2-.1.2s-.1 0-.2-.1l-.3-.3c0-.1-.1-.2-.1-.2l-.1-.1c-.2-.2-.2-.4-.2-.4l.1.1zm7.2 5.2c.1 0 .2.1.3.2.1.1.2.2.4.2v.1c-.1.1-.3 0-.5-.1-.2-.2-.3-.3-.2-.4-.1-.1-.1-.1 0 0zm-4-2.4c.1.1.1.1.2.1.1.1.2.1.2.1.1 0 .1.1.1.1-.1.1-.4 0-.7-.3H6zM.8 17c.1-.1.3-.1.5-.1.1 0 .3 0 .4.1H.8zm3 10.4c0 .1-.1.1-.1.1l.1-.1c0-.1 0-.3.1-.4l.2-.2.3-.3c.1-.1.2-.1.2-.1.1 0 .1.1.1.2-.2.1-.4.3-.5.4-.2.1-.3.3-.4.4zm2-7.1c.5.4 1 .8 1.4 1.2V21.8s-.1 0-.2-.1l-.3-.3-.2-.2c-.2-.2-.4-.3-.4-.3l-.2-.2c0-.3 0-.4-.1-.4zm1.7 4.4l.2-.2.2-.2c.1-.2.2-.3.3-.4l.2-.2.3-.3c.1-.1.2-.1.2-.1v.2c-.3.3-.8.7-1.4 1.2z"/>
    <path class="st0" d="M128.7 19.2l.1-.1s.1.2.2.5c.1.1.1.3.1.5s.1.5.1.9c.1.4.1.6.1.7l-.1-.3c0-.1 0-.1-.1-.1-.1-.9-.2-1.6-.4-2.1m1.9 2l-1.6-6.1c0-.1-.1-.2-.1-.3v-.2s0-.1-.1-.1c0 0-.1-.1-.2-.1-.5-.1-1.1-.2-1.9-.2-.2 0-.3 0-.3.1 0 0 0 .1.1.2 0 .1.1.3.1.5.1.2.1.5.2.7.1.4.3 1.1.6 2.2.2 1 .6 2.6 1.1 4.7.5 2.1 1 4.1 1.5 6.1 0 .2.1.6.2 1.1.1.5.2.9.3 1.2.1.3.1.5.1.5s.2.1.4.1h2.6s.1 0 .1-.1c.1-.1.3-1.3.6-3.5.1-1 .4-2.8.9-5.3.2-1.2.5-2.5.8-4 .3-1.5.5-2.6.7-3.4.2-.8.2-1.2.2-1.3 0 0-.4-.1-1.2-.1h-.3c-.4 0-.6 0-.7.1-.1.1-.2.2-.2.5-.1.4-.2 1.1-.4 2.1l-1.3 7.5c-.1.2-.1.5-.1.9-.1.3-.1.7-.2 1-.1.3-.1.6-.2 1.1-.1.5-.1.9-.2 1.2-.1.3-.1.5-.1.5l-.7-3c-.1-.3-.1-.5-.2-.7-.1-.2-.1-.3-.1-.4v-.2l-.4-3.3zm4.7-6.7c.1 0 .2-.1.3-.1H136.8c-.2.1-.5.1-.8.1h-.4c-.1 0-.1 0-.2-.1-.1.2-.2.2-.1.1zm-1.3 7.2c0-.1.1 0 0 0 .1.3 0 .5 0 .7-.3 1-.4 1.5-.5 1.5v-.2c0-.4.2-1.1.5-2zm.1 1.4v.7c-.2.6-.3.8-.3.8v-.1c-.1-.3 0-.8.3-1.4zm-5-.4c.1-.1.2.2.3.6.1.1.1.3.1.4 0 .1.1.3.1.5s.1.3.1.4l.3 1.3v.1c0 .3 0 .5-.1.5l-.1-.1c-.1-1.2-.4-2.4-.7-3.7zm3.5 8.6c0-.1 0-.1 0 0 0-.1 0-.1 0 0 0-.1.1-.2.3-.2h.1c.1 0 .1.1.1.1v.1c-.1.1-.2.1-.3.1-.1 0-.1-.1-.2-.1zm-4.1-16.4c.2-.1.2.1.3.5 0 .2 0 .2-.1.2-.1-.2-.2-.4-.2-.5v-.2zm-4.8 11.8c0 1.5 0 2.3-.1 2.3 0 0 0-.3-.1-1v-1.3c0-.1 0-.2.1-.2 0 0 .1 0 .1.2zm-.1-12.5c-.2 0-.3 0-.4.1 0 .1-.1.3-.1.6 0 2.2-.1 6.6-.1 13.2V31.3c0 .1.1.2.3.2H124.6l.5-.1c.2 0 .2-.1.2-.2V31l-.1-2.9V14.6c0-.2 0-.4-.1-.4-.1-.1-.3-.1-.6-.1h-.9zm0 .3c.1-.1.2-.2.4-.2.1 0 .2 0 .4.1s.3.1.4.1c0 .1-.1.2-.1.2-.6.1-.9.1-.9.1-.2 0-.2 0-.2-.1v-.2zm1.1 2.3c0-.1 0-.2.1-.2s.2.8.2 2.3c0 .7 0 1.1-.1 1.1 0 0-.1 0-.1-.1-.1-1-.1-1.7-.1-2-.1-.3-.1-.7 0-1.1zm-.9 8.4c0-.1.1-.1 0 0 .2 0 .3.2.3.5 0 .1 0 .2-.1.3-.1.3-.2.3-.2.2-.1-.3-.1-.5-.1-.6 0-.2 0-.3.1-.4zm-6.3 2.6v-.1s0 .1.1.3c0 .2.1.4.1.6v.6c0 1.2 0 1.8-.1 1.8v-.1c-.1-.5-.1-1-.1-1.3v-.8-1zm-3.8-13.4c.2-.1.4-.1.5-.1h.4l.1.1v.1h-.2c-.1 0-.2 0-.4-.1-.3.1-.4.1-.4 0zm-.3-.2V14.8c0 .2 0 .5.1.9l.1.2c0 .2.1.3.3.3h1.1c.7 0 1.1 0 1.1.1.1 0 .1.8.1 2.5v2.6c-.1 3.4-.1 6.5-.1 9.1v.7c0 .2.2.3.6.3H118.1s.1 0 .1-.1v-.1V30l.3-13.1c0-.1.2-.1.4-.1h.8c.3 0 .6.1.9.1H121.5c.1 0 .1-.2.1-.5v-1.2c0-.2 0-.3-.1-.4-.1-.1-.2-.1-.4-.1l-.9-.1c-.2 0-1-.1-2.3-.1-.6 0-1.1-.1-1.6-.2-1.4-.3-2.3-.4-2.6-.4-.3.2-.3.2-.3.3zm4.1 3.3c-.1 1.2-.1 1.8-.2 1.8s-.1-.5-.1-1.6c0-.6.1-1 .2-1s.2.2.2.5c0 .2-.1.3-.1.3zm-.6 1.2c0 .9 0 1.4-.1 1.5-.1 0-.1-.5-.1-1.5 0-.5 0-.7.1-.7 0 .1.1.3.1.7zm-.5 6.8c0 .4-.1.7-.1.7-.1 0-.1-.2-.1-.7 0-.3 0-.4.1-.4.1.1.1.2.1.4zm-6.4 1.2c0 1.5 0 2.3-.1 2.3 0 0 0-.3-.1-1v-1.3c0-.1 0-.2.1-.2s.1 0 .1.2zm-.1-12.5c-.2 0-.3 0-.4.1 0 .1-.1.3-.1.6 0 2.2-.1 6.6-.1 13.2V31.3c0 .1.1.2.3.2H110.9l.5-.1c.1 0 .2-.1.2-.2V31l-.1-2.9V14.6c0-.2 0-.4-.1-.4-.1-.1-.3-.1-.6-.1h-.9zm0 .3c.1-.1.2-.2.4-.2.1 0 .2 0 .4.1s.3.1.4.1c0 .1-.1.2-.1.2-.6.1-.9.1-.9.1-.2 0-.2 0-.2-.1v-.2zm1.1 2.3c0-.1 0-.2.1-.2s.2.8.2 2.3c0 .7 0 1.1-.1 1.1 0 0-.1 0-.1-.1-.1-1-.2-1.7-.2-2 0-.3.1-.7.1-1.1zm-.9 8.4c.1-.1.1-.1 0 0 .2 0 .3.2.3.5 0 .1 0 .2-.1.3-.1.3-.2.3-.2.2-.1-.3-.1-.5-.1-.6 0-.2.1-.3.1-.4zm-7.7-2.6c-.1-.1.2-.1.7-.2h1.3c.1 0 .2 0 .4-.1s.3-.1.4-.1c.1 0 .1 0 .1.1v.1c-.1.2-.2.2-.4.2h-.6c-.4 0-.7.1-.9.1h-.6c-.2 0-.3-.1-.4-.1zm0 8.1s-.3 0-.8.1c-.5 0-.9.1-1 .1-.6 0-.8 0-.8-.1 0 0 .1-.1.4-.1.2-.1.4-.1.4-.1h1c.6-.2.8-.1.8.1zm4.9-3.7c-.1.1-.1-.1-.1-.3v-.5-.4c0-.3 0-.4.1-.4v.1c.1.9.1 1.4 0 1.5zm-8.4-10.7v.7c-.1 0-.1-.2-.1-.7v-.4c0-.1.1-.1.1-.1s.1.1.1.3v.2zm5.5-2l-4 .2c-.3 0-.7 0-1.1.1-.5 0-.7.1-.9.1h-.1c-.1 0-.2 0-.2.1s-.1.3-.1.5c0 .9-.1 2.1-.1 3.5v4.8c0 .2.1.3.4.4h.1c.2 0 1.2-.1 2.9-.3 1.7-.2 2.9-.3 3.6-.3h.4c-.1.5-.1 1.1-.1 1.7v2.2c0 .6 0 1.1-.1 1.5l-.6.1c-.3.1-.8.1-1.4.1h-.3c-1.7 0-2.9-.1-3.7-.1-.6-.1-1-.1-1.1-.1-.3 0-.4.1-.4.3 0 .1 0 .2.1.4.1.4.1.7.1.9 0 .6.2 1 .6 1 .1 0 .4.1.6.1h.5c1.2 0 2.8 0 4.7-.1 2-.1 3-.2 3-.2 0-.1.1-.2.1-.5v-1.3c0-.6 0-1.2.1-1.7.1-.8.1-1.5.1-2 0-.4 0-.9-.1-1.7 0-.7-.1-1.3-.1-1.7v-.4-.4l-.8-.1h-.2c-.3 0-1.2.1-2.7.2-1.5.2-2.4.2-2.9.2-.3 0-.5 0-.6-.1-.1-.1-.1-.8-.1-2.2v-.1-.7c0-1.2 0-1.8.1-1.8H106.3c.3 0 .5-.1.5-.4v-.4V15c0-.3-.2-.5-.7-.5h-.1l-1.6-.2zm-5.2 2.6c.1-.1.2.2.2.8 0 .5-.1.9-.2 1.2v-.3-.3-1c-.1-.2-.1-.3 0-.4zm4.5-2.2c.7-.1 1.3-.2 1.8-.2h1c0 .1-.4.2-1.2.2-.5.1-.9.1-1.1.1-.4 0-.6 0-.6-.1h.1zm-5.2 7.4c0-.1.1-.1.1-.1s.1.1.1.4v.8s0 .1-.1.2c0 .1-.1.1-.1.1 0-.1 0-.2-.1-.4 0-.2-.1-.3-.1-.4 0-.3.1-.5.2-.6zm-.4 6.9c.1-.1.2.1.2.5v.5-.1c-.1-.3-.2-.5-.2-.6V29zm-9.3 1.5c.5 0 .8-.1.9-.1h.4c.2 0 .4.1.4.1v.1h-.3-1.1c-.5 0-.7-.1-.8-.1h.5zm-2.1.4c-.1-.1 0-.2.1-.2h.8c.3 0 .5.1.5.2-.2.1-.5.1-.7.1-.2-.1-.4-.1-.7-.1zm8.6-16.8c.1 0 .1 0 .1.1v.1l-.1.1s-.1 0-.2-.1h-.6c-.1 0-.1 0-.1-.1v-.1c.1-.1.2-.1.3-.1 0 0 .1 0 .3.1h.3zm-8.5 0h-.5c-.2 0-.4 0-.5.1-.1.1-.1.2-.1.5v2.1c0 6.1 0 9.9.1 11.5V31.1l.1.1c.1.1.5.1 1.1.1H95.5c.2 0 .3 0 .3-.1V30.6v-2.1-2.8l-.1-10.3v-1.1c0-.1 0-.2-.1-.2 0 0-.1-.1-.3-.1h-2c-.3 0-1 0-2 .1-1 0-2 .1-3 .1-.8-.1-1.4-.1-1.5-.1zm-.5 1.4c-.1 0-.1-.1-.1-.3 0-.2-.1-.3-.1-.5v-.2l.1-.1v.1c0 .1.1.3.1.7.1.1.1.2 0 .3zm.5.7v2.2c-.1 0-.1-.5-.1-1.6 0-.5 0-.8.1-.8l.1-.1c-.1 0-.1.1-.1.3zm7.3.1s.1 1.4.1 4.1c0 3.9-.1 6.6-.1 7.9 0 .4-.1.7-.1.7v.4c-.4 0-2-.1-4.9-.4l-.7-.1v-1.4c0-.1 0-.6-.1-1.5s-.1-1.6-.1-2.1l-.2-7.4h.4c.2 0 1.2 0 2.9-.1h1.3c.4 0 .8 0 1-.1h.5zm.2 10.9s0 .1 0 0v-.9-1c.1.1.1.5.1 1.2.1.4 0 .7-.1.7zm.7.5c0 .9 0 1.3-.1 1.3 0 0-.1-.2-.1-.6 0-.4-.1-.6-.1-.8 0-.1 0-.1.1-.1.1.1.2.1.2.2zm-12.8-8.3c0 .2.1.3.1.4v.1c0 .7-.1 1.1-.2 1.1 0-.5 0-1.1.1-1.6zm-6.9 4.2s.2-.1.6-.1c.4 0 .9-.1 1.6-.1.6 0 1.3 0 1.9-.1.6 0 1.2-.1 1.8-.1h1.9c.4 0 .6 0 .6-.1.1 0 .1-.1.1-.3v-.4-.4c.1-2.8.1-4.4.1-4.8v-1.7-.6c0-.1 0-.2-.1-.2l-.1-.1c-.2-.1-1.5-.2-3.9-.3-2.3-.2-4.2-.3-5.4-.3h-.9c-.1 0-.1.3-.1.7-.1 1.4-.2 4.2-.4 8.4s-.2 6.9-.3 8v.3l.2.2h.2c.1 0 .2 0 .3.1l.9.1h.5c.1 0 .1-.3.1-.7v-2.6-3.2c.3-1.2.3-1.7.4-1.7zm7.8-8.6s-.1.1-.4.1c-.3 0-.5.1-.6.1-.1 0-.3 0-.6-.1s-.5-.1-.5-.2.4-.1 1.1-.1h.1c.1 0 .2 0 .5.1.3 0 .4.1.4.1zm-5.5.6l4.3.3-.1 1.2c0 .2 0 .6-.1 1.3 0 .7-.1 1.3-.1 1.9 0 .6-.1.8-.1.9h-.3c-.6 0-2.2 0-4.8-.1h-.9l-.1-.4V20c0-.7 0-1.6.1-2.7s.1-1.6.2-1.7h.4c.1 0 .3.1.6.1.3-.1.6-.1.9-.1zm-3.4.3v-.7-.5-.1c.1 0 .1.1.1.4v.2c.1.6 0 .8-.1.7zm-.2-.1c0 .1 0 .4-.1.8s-.1.6-.1.6v-.3c0-.8.1-1.3.2-1.4l.1-.1s.1.1.1.2v.2zm3.9 7.1c.1 0 .1 0 0 0 0 .2-.2.3-.7.3-.4 0-.6-.1-.7-.1-.1-.1-.1-.2-.1-.2 1-.1 1.5-.1 1.5 0zm-4.6 6.4v.9c0 .5 0 .7-.1.7s-.1 0-.1-.1v-.5c0-.4 0-.6.1-.6 0 0 0-.2.1-.4z"/>
    <path class="st0" d="M195.7 29.3c.1-.1.1-.2.1-.2 0 .1.1.1.1.1l-.1.3c-.1.3-.2.4-.2.4v-.1-.2l.1-.3zm1.6-3.4c.1-.5.3-1.2.5-2.1 0 0 0-.1.1-.1 0-.1 0-.1.1-.2v-.1.1s0 .2-.1.6c-.1.5-.1.8-.1.9 0 .1-.1.2-.2.5l-.2.5c-.1.1-.1 0-.1-.1zm6.4 5.4c0-.1 0-.1.1-.2l.1-.1h.5c.3 0 .5 0 .8.1h0-.6-.5c-.2.2-.3.2-.4.2zm0-6.7c-.2-.5-.3-1-.3-1.5V23s.1.3.3.8v.8s0 .1 0 0zm-6.2-1.7c.2-1.2.5-2.4.9-3.8V19v.7c0 .1-.1.5-.3 1.3 0 .1-.1.3-.1.4 0 .2-.1.3-.1.5 0 .1-.1.3-.1.4-.1.4-.3.6-.3.6zm2.1-8.2c0-.1.2-.1.6-.1H201v.1c0 .1 0 .1-.1.1h-.1-1c0-.1-.2-.1-.2-.1zm-2.3 13.9c0-.1.1-.4.2-.8l.2-.7c0-.1.1-.3.2-.5.1 0 .1.1.1.3 0 .1-.1.4-.3.9-.3.5-.4.8-.4.8zm4.7-3.1h.2v.2c-.3 0-.5.1-.8.1h-.5-.1c0-.2.4-.3 1.2-.3zm-3.5.5h.9l2.9.1.5 2.9c.1 1 .3 1.7.4 2.1.1.3.2.5.2.5.1 0 .3.1.7.1h.2c.8 0 1.1 0 1.2-.1v-.1c0-.1-.1-.5-.3-1.3-.2-.8-.4-1.9-.7-3.4-.3-1.4-.6-2.8-.8-4-.5-2.6-.8-4.3-.9-5.3-.1-.4-.1-.8-.2-1.4-.2-1.5-.4-2.2-.5-2.2h-.2-2.9s-.2 1-.7 2.9c-.5 2-1 4-1.5 6.1-.5 2.1-.9 3.6-1.1 4.7-.2 1-.4 1.8-.6 2.2-.1.2-.1.5-.2.7-.1.2-.1.4-.1.5v.2c0 .1.1.1.2.1h.1c.7 0 1.3-.1 1.8-.2.1 0 .2 0 .2-.1l.1-.1v-.2c0-.1 0-.2.1-.3l1.2-4.4zm4-3.9c-.3-.9-.5-1.6-.5-2V20v-.1s.2.5.5 1.5v.7zm-4 2l.7-3.2v-.2c0-.1.1-.2.1-.4.1-.2.1-.4.2-.7l1-3.6h.4s.1.4.1 1.2c.1.8.2 1.7.3 2.6.1.9.2 1.4.2 1.5l.4 2.5c-.3 0-.9 0-1.7.1-.8.2-1.4.2-1.7.2zM185 28c0 .1-.1.2-.1.2-.1 0-.1-.2-.1-.5s0-.7.1-1c0-.2.1-.3.1-.3s.1.2.1.6v.2c.1.3 0 .6-.1.8zm4.4-1.5c-.1 0-.4-.3-.9-.9-.5-.6-.8-1-.9-1.1 0 0-.1-.1-.1-.2s0-.1.1-.2c0 0 .1 0 .1.1s.1.1.2.2.1.2.2.3c.1.1.3.4.7 1 .4.4.6.7.6.8zm3.6-6.7v.3c0 .4 0 .5-.1.5s-.2-.1-.2-.4c0-.1 0-.5.1-1s.1-.8.2-.8v1.4zm-4.5-3.4l3.2.1c.1.1.1.3.1.6V21.4c0 .1-.2.1-.6.1-.3 0-.7 0-1.2-.1-.5 0-.8-.1-.8-.1l-3.6-.1.1-4.7c.1-.1 1.1-.1 2.8-.1zm-4.1.2c0 1.4 0 2-.1 2v-.3-.9-.9c0-.1 0-.2.1-.2v.3zm2.5-1c-.2 0-.4.1-.5.1-.2 0-.2-.1-.2-.1 0-.1 0-.2.1-.2h.3c.2 0 .3 0 .4-.1.1 0 .1.1.1.1l-.2.2zm-3.1-1.2c-.1.2-.2 3.4-.4 9.4-.1 2.4-.1 4.1-.2 4.9 0 .1 0 .5-.1 1 0 .5-.1.9-.1 1.1 0 .3 0 .4.1.5 0 .1.1.1.1.1.1.1.5.1 1.3.1h.6c.1 0 .2-.1.2-.2V31c0-.3 0-1.1.1-2.3v-2.3-2.5c0-.6.1-1.1.1-1.3.1 0 .4.4 1.1 1.2 3.6 4.7 5.6 7 5.8 7l2.2-1c0-.1 0-.1-.1-.3l-1.9-2-.8-.8-1.1-1.1c-.3-.3-.7-.7-1-1.1-.4-.4-.6-.8-.9-1.1-.2-.3-.3-.5-.3-.7 0-.1.5-.1 1.5-.1 2.4 0 3.6-.1 3.6-.3 0 0 0-.3.1-.7 0-.4.1-.9.1-1.5v-1.7c0-.9 0-1.8-.1-2.7-.1-.9-.1-1.4-.1-1.6 0-.3-1.1-.4-3.2-.4h-4.9c-1 .5-1.7.6-1.7.7zm5.6 7.3c.1 0 .2.1.2.1v.1c-.1 0-.1.1-.3.1h-1.1s0-.1.1-.1.2-.1.4-.1h.5c0-.1.1-.1.2-.1zm2.8 8.4c0-.1.1-.1.4-.1H193.2c.2.1.3.1.3.1-.3 0-.6.1-.7.1-.1 0-.3 0-.6-.1zm-.3-15.1c.3 0 .6 0 .7.1.2.1.3.1.3.2.1.1.1.2.2.4 0 .1.1.1.1.2v.1s-.1-.1-.1-.2c-.1-.1-.2-.3-.3-.4-.1-.1-.3-.2-.5-.3l-.4-.1c0 .1 0 0 0 0zm-13.4 12.8v-.1s0 .1.1.3c0 .2.1.4.1.6v.6c0 1.2 0 1.8-.1 1.8v-.1c-.1-.5-.1-1-.1-1.3v-.8-1zm-3.8-13.4c.2-.1.4-.1.5-.1h.4l.1.1v.1h-.2c-.1 0-.2 0-.4-.1-.3.1-.4.1-.4 0zm-.4-.2V14.8c0 .2 0 .5.1.9l.1.2c0 .2.1.3.3.3h1.1c.7 0 1.1 0 1.1.1.1 0 .1.8.1 2.5v2.6c-.1 3.4-.1 6.5-.1 9.1v.7c0 .2.2.3.6.3H179s.1 0 .1-.1v-.1V30l.4-13.1c0-.1.2-.1.4-.1h.8c.3 0 .6.1.8.1H182.4c.1 0 .1-.2.1-.5v-1.2c0-.2 0-.3-.1-.4-.1-.1-.2-.1-.4-.1l-.9-.1c-.2 0-1-.1-2.3-.1-.6 0-1.1-.1-1.6-.2-1.4-.3-2.3-.4-2.6-.4-.2.2-.3.2-.3.3zm4.2 3.3c-.1 1.2-.1 1.8-.2 1.8s-.1-.5-.1-1.6c0-.6.1-1 .2-1s.2.2.2.5c-.1.2-.1.3-.1.3zm-.6 1.2c0 .9 0 1.4-.1 1.5-.1 0-.1-.5-.1-1.5 0-.5 0-.7.1-.7 0 .1.1.3.1.7zm-.5 6.8c0 .4-.1.7-.1.7-.1 0-.1-.2-.1-.7 0-.3 0-.4.1-.4.1.1.1.2.1.4zm-5.7 3.7c0 .4 0 .6-.1.6s-.2-.4-.2-1.2V28s0 .1.1.2c0 .2 0 .3.1.5.1.3.1.4.1.5zm-.3-7.2v1.2s-.1-.1-.1-.2c-.1-.4-.1-.5-.1-.6v-.1-.3-.2c0-.2.1-.3.2-.5h.1v.7zm-.4-5.4c0 .5-.1.8-.2 1v-.2-.3-1-.3c.1.1.2.4.2.8zm-8.9 14.7l1.5.1h.1c.2 0 .3-.1.3-.3V31v-.1-.1l.1-2.8c.1-7.2.2-10.8.3-10.8 0 0 .3.9.7 2.7.5 1.8 1 3.7 1.5 5.7s.8 3.1.8 3.3c.1.5.2 1 .3 1.4.1.4.2.7.3.8.1.2.2.3.2.3l3.2.1h.3c.1 0 .2 0 .3-.1l.1-.1c0-.1 0-.2.1-.4.1-1.9.2-3.2.2-3.8 0-1.5.1-3.4.2-5.7.1-2.8.2-4.8.2-6.2V14c0-.2 0-.4-.1-.4 0 0-.2 0-.4.1-.1 0-.2 0-.4.1-.2 0-.3.1-.3.1l-.5.1c-.3 0-.4.1-.5.2 0 .1-.1.2-.1.4v.4l-.1 5.9c0 2-.1 3.8-.2 5.4-.1 1.6-.2 2.4-.4 2.4 0 0-.1 0-.1-.1s-.2-.5-.4-1.4c-.3-.9-.6-1.9-.9-3-.3-1.1-.6-2.1-.8-2.9l-1.3-6c0-.2-.1-.3-.1-.3 0-.1-.1-.1-.2-.1s-.2 0-.4-.1h-.1c-.2 0-.7 0-1.5.1-.8 0-1.2.1-1.3.1h-.1l-.1.1v1.5c0 .6 0 1.3-.1 2.3V21c0 1.2-.1 3.4-.3 6.8-.1 1.6-.1 2.5-.1 2.8v.5c-.1.1-.1.2.1.2zm1.5-7.5v-.1c.1-.1.1 0 0 .1.1.2.1.4.1.6v.8c0 .3-.1.6-.1 1.1-.1.4-.1.6-.1.6v-.1c0-.4-.1-.8-.1-1.2 0-.6.1-1.2.2-1.8zm-.6-8.4c.4-.1.7-.1 1.2-.1h.4s.1 0 .1.1-.3.2-1 .2h-.1c-.5 0-.7-.1-.6-.2-.1 0-.1 0 0 0zm4.3 11.7c.1.1.1.2.1.3 0 .1.1.2.1.2.1.3.2.6.2.7v.8-.1c-.2-.5-.3-1.1-.4-1.9zm-3.6 3.4s.1 0 .1.1v.1h-.7-.1-.1c-.1 0-.1 0-.1-.1s.1-.2.2-.2.2 0 .4.1c.1-.1.2 0 .3 0zm1.6-11.9c-.1-.1-.1-.1 0 0 0-.1.2.3.4 1.1.1.5.2.8.2 1v-.1c-.4-.6-.6-1.3-.6-2zm-6.9 8.1c0 1.5 0 2.3-.1 2.3 0 0 0-.3-.1-1v-1.3c0-.1 0-.2.1-.2s.1 0 .1.2zm-.1-12.5c-.2 0-.3 0-.4.1 0 .1-.1.3-.1.6 0 2.2-.1 6.6-.1 13.2V31.3c0 .1.1.2.3.2H159.3l.5-.1c.2 0 .2-.1.2-.2V31l-.1-2.9V14.6c0-.2 0-.4-.1-.4-.1-.1-.3-.1-.6-.1h-.9zm.1.3c.1-.1.2-.2.4-.2.1 0 .2 0 .4.1s.3.1.4.1c0 .1-.1.2-.1.2-.6.1-.9.1-.9.1-.2 0-.2 0-.2-.1-.1-.1-.1-.2 0-.2zm1.1 2.3c0-.1 0-.2.1-.2s.2.8.2 2.3c0 .7 0 1.1-.1 1.1 0 0-.1 0-.1-.1-.1-1-.1-1.7-.1-2-.1-.3-.1-.7 0-1.1zm-.9 8.4c0-.1 0-.1 0 0 .2 0 .3.2.3.5 0 .1 0 .2-.1.3-.1.3-.2.3-.2.2-.1-.3-.1-.5-.1-.6 0-.2 0-.3.1-.4zm-17.1 5.3c.5 0 .8-.1.9-.1h.4c.2 0 .4.1.4.1v.1h-.3-1.1c-.5 0-.7-.1-.8-.1h.5zm-2 .4c-.1 0-.1 0 0 0-.1-.1 0-.2.1-.2h.8c.3 0 .5.1.5.2-.2.1-.5.1-.7.1-.2-.1-.4-.1-.7-.1zm8.5-16.8c.1 0 .1 0 .1.1v.1l-.1.1s-.1 0-.2-.1h-.6c-.1 0-.1 0-.1-.1v-.1c.1-.1.2-.1.3-.1 0 0 .1 0 .3.1h.3zm-8.5 0h-.5c-.2 0-.4 0-.5.1-.1.1-.1.2-.1.5v2.1c0 6.1 0 9.9.1 11.5V31.1l.1.1c.1.1.5.1 1.1.1H148.2c.2 0 .3 0 .3-.1V30.6v-2.1-2.8l-.1-10.3v-1.1c0-.1 0-.2-.1-.2 0 0-.1-.1-.3-.1h-2c-.3 0-1 0-2 .1-1 0-2 .1-3 .1-.8-.1-1.4-.1-1.5-.1zm-.4 1.4c-.1 0-.1-.1-.1-.3 0-.2-.1-.3-.1-.5v-.2l.1-.1v.1c0 .1.1.3.1.7v.3zm.5.7v2.2c-.1 0-.1-.5-.1-1.6 0-.5 0-.8.1-.8l.1-.1s-.1.1-.1.3zm7.2.1s.1 1.4.1 4.1c0 3.9-.1 6.6-.1 7.9 0 .4-.1.7-.1.7v.4c-.4 0-2-.1-4.9-.4l-.7-.1v-1.4c0-.1 0-.6-.1-1.5s-.1-1.6-.1-2.1l-.1-7.7h.4c.2 0 1.2 0 2.9-.1h1.3c.4 0 .8 0 1-.1.1.3.3.3.4.3zm.2 10.9s0 .1 0 0v-.9-1c.1.1.1.5.1 1.2.1.4 0 .7-.1.7zm.7.5c0 .9 0 1.3-.1 1.3 0 0-.1-.2-.1-.6 0-.4-.1-.6-.1-.8 0-.1 0-.1.1-.1.1.1.2.1.2.2z"/>
    <path class="st0" d="M264.7 29.2c0 .4 0 .6-.1.6s-.1-.4-.1-1.2V28s0 .1.1.2c0 .2 0 .3.1.5v.5zm-.3-7.2v1.2s-.1-.1-.1-.2c-.1-.4-.1-.5-.1-.6v-.1-.3-.2c0-.2.1-.3.2-.5h.1v.7zm-.4-5.4c0 .5-.1.8-.2 1v-.2-.3-1-.3c.1.1.2.4.2.8zm-8.9 14.7l1.5.1h.1c.2 0 .3-.1.3-.3V31v-.1-.1l.1-2.8c.1-7.2.2-10.8.3-10.8 0 0 .3.9.7 2.7.5 1.8 1 3.7 1.5 5.7s.8 3.1.8 3.3c.1.5.2 1 .3 1.4.1.4.2.7.3.8.1.2.2.3.2.3l3.2.1h.3c.1 0 .2 0 .3-.1l.1-.1c0-.1 0-.2.1-.4.1-1.9.2-3.2.2-3.8 0-1.5.1-3.4.2-5.7.1-2.8.2-4.8.2-6.2V14c0-.2 0-.4-.1-.4 0 0-.2 0-.4.1-.1 0-.2 0-.4.1-.2 0-.3.1-.3.1l-.5.1c-.3 0-.4.1-.5.2 0 .1-.1.2-.1.4v.4l-.1 5.9c0 2-.1 3.8-.2 5.4-.1 1.6-.2 2.4-.4 2.4 0 0-.1 0-.1-.1s-.2-.5-.4-1.4c-.3-.9-.6-1.9-.9-3-.3-1.1-.6-2.1-.8-2.9l-1.3-6c0-.2-.1-.3-.1-.3 0-.1-.1-.1-.2-.1s-.2 0-.4-.1h-.1c-.2 0-.7 0-1.5.1-.8 0-1.2.1-1.3.1h-.1l-.1.1v1.5c0 .6 0 1.3-.1 2.3V21c0 1.2-.1 3.4-.3 6.8-.1 1.6-.1 2.5-.1 2.8v.5c-.2.1-.1.2.1.2zm1.5-7.5v-.1.1c.1.2.1.4.1.6v.8c0 .3-.1.6-.1 1.1-.1.4-.1.6-.1.6v-.1c0-.4-.1-.8-.1-1.2 0-.6.1-1.2.2-1.8zm-.7-8.4c.4-.1.7-.1 1.2-.1h.3s.1 0 .1.1-.3.2-1 .2h-.1c-.4 0-.5-.1-.5-.2zm4.4 11.7c.1.1.1.2.1.3 0 .1.1.2.1.2.1.3.2.6.2.7v.8-.1c-.2-.5-.3-1.1-.4-1.9zm-3.7 3.4s.1 0 .1.1v.1h-.7-.1-.1c-.1 0-.1 0-.1-.1s.1-.2.2-.2.2 0 .4.1c.2-.1.3 0 .3 0zm1.6-11.9c0-.1 0-.1 0 0 0-.1.2.3.4 1.1.1.5.2.8.2 1v-.1c-.3-.6-.5-1.3-.6-2zm-6.8 8.1c0 1.5 0 2.3-.1 2.3 0 0 0-.3-.1-1v-1.3c0-.1 0-.2.1-.2s.1 0 .1.2zm-.1-12.5c-.2 0-.3 0-.4.1 0 .1-.1.3-.1.6 0 2.2-.1 6.6-.1 13.2V31.3c0 .1.1.2.3.2H252.3l.5-.1c.1 0 .2-.1.2-.2V31l-.1-2.9V14.6c0-.2 0-.4-.1-.4-.1-.1-.3-.1-.6-.1h-.9zm0 .3c.1-.1.2-.2.4-.2.1 0 .2 0 .4.1s.3.1.4.1c0 .1-.1.2-.1.2-.6.1-.9.1-.9.1-.2 0-.2 0-.2-.1v-.2zm1.1 2.3c0-.1 0-.2.1-.2s.2.8.2 2.3c0 .7 0 1.1-.1 1.1 0 0-.1 0-.1-.1-.1-1-.1-1.7-.1-2-.1-.3 0-.7 0-1.1zm-.9 8.4c.1-.1.1-.1 0 0 .2 0 .3.2.3.5 0 .1 0 .2-.1.3-.1.3-.2.3-.2.2-.1-.3-.1-.5-.1-.6 0-.2.1-.3.1-.4zM239.9 28c0 .1-.1.2-.1.2-.1 0-.1-.2-.1-.5s0-.7.2-1c0-.2.1-.3.1-.3s.1.2.1.6v.2c0 .3-.1.6-.2.8zm4.3-1.5c-.1 0-.4-.3-.9-.9-.5-.6-.8-1-.9-1.1 0 0-.1-.1-.1-.2s0-.1.1-.2c0 0 .1 0 .1.1s.1.1.2.2.1.2.2.3c.1.1.3.4.7 1 .5.4.6.7.6.8zm3.7-6.7v.3c0 .4 0 .5-.1.5s-.2-.1-.2-.4c0-.1 0-.5.1-1s.1-.8.2-.8v1.4zm-4.5-3.4l3.2.1c.1.1.1.3.1.6V21.4c0 .1-.2.1-.6.1-.3 0-.7 0-1.2-.1-.5 0-.8-.1-.8-.1l-3.6-.1.1-4.7c.1-.1 1-.1 2.8-.1zm-4.1.2c0 1.4 0 2-.1 2v-.3-.9-.9c0-.1 0-.2.1-.2v.3zm2.5-1c-.2 0-.4.1-.5.1-.2 0-.2-.1-.2-.1 0-.1 0-.2.2-.2h.3c.2 0 .3 0 .4-.1.1 0 .1.1.1.1-.1 0-.2.1-.3.2zm-3.1-1.2c-.1.2-.2 3.4-.4 9.4-.1 2.4-.1 4.1-.2 4.9 0 .1 0 .5-.1 1 0 .5-.1.9-.1 1.1 0 .3 0 .4.1.5 0 .1.1.1.1.1.1.1.5.1 1.3.1h.6c.1 0 .2-.1.2-.2V31c0-.3 0-1.1.1-2.3v-2.3-2.5c0-.6.1-1.1.1-1.3.1 0 .4.4 1.1 1.2 3.6 4.7 5.6 7 5.8 7l2.2-1c0-.1 0-.1-.1-.3l-1.9-2-.8-.8-1.1-1.1c-.3-.3-.7-.7-1-1.1-.4-.4-.6-.8-.9-1.1-.2-.3-.3-.5-.3-.7 0-.1.5-.1 1.5-.1 2.4 0 3.6-.1 3.6-.3 0 0 0-.3.1-.7 0-.4.1-.9.1-1.5v-1.7c0-.9 0-1.8-.1-2.7-.1-.9-.1-1.4-.1-1.6 0-.3-1.1-.4-3.2-.4h-4.9c-1.1.5-1.7.6-1.7.7zm5.5 7.3c.1 0 .2.1.2.1v.1c-.1 0-.1.1-.3.1H243s0-.1.1-.1.2-.1.4-.1h.5c0-.1.1-.1.2-.1zm2.9 8.4c-.1 0-.1 0 0 0 0-.1.1-.1.4-.1H248.1c.2.1.3.1.3.1-.3 0-.6.1-.7.1-.1 0-.3 0-.6-.1zm-.3-15.1c.3 0 .6 0 .7.1.2.1.3.1.3.2.1.1.1.2.2.4 0 .1.1.1.1.2v.1s-.1-.1-.1-.2c-.1-.1-.2-.3-.3-.4-.1-.1-.3-.2-.5-.3l-.4-.1c-.1.1-.1 0 0 0zm-15.9 15.5s-.5.1-1.4.1c-.1 0-.1 0-.1-.1v-.1c.1-.1.1-.1.2-.1s.3 0 .7.1c.4 0 .6 0 .6.1zm-2.7-16h-.3-.1c-.1 0-.1 0-.1.1l-.1.1V15.3c0 .4-.1.9-.1 1.6 0 1.3-.1 2.3-.2 3.2-.1.4-.1 2-.2 4.8s-.1 4.8-.1 5.9v.4c0 .1.2.1.4.2.3 0 1.6.1 3.8.1h5.1c.1 0 .3 0 .3-.1l.1-.1v-.7-.4c0-.3 0-.5-.1-.5-.1-.1-.8-.2-1.8-.2-2.5-.1-3.8-.2-4.1-.2l-1.2-.1v-1V25.8c.1-1.2.1-1.8.2-1.9.1 0 1-.1 2.7-.1 2.1-.1 3.2-.2 3.5-.4.1-.1.1-.3.1-.6 0-.4 0-.7.1-.9v-.2c0-.1-.1-.1-.2-.2-.3-.1-1-.1-2.2-.1h-2.5c-1.2 0-1.8 0-1.9-.1l.1-2.7.2-2h.5c.2 0 .5 0 .9-.1h2.3l3.2.1.1-.6c.1-.3.1-.6.1-.9 0-.2 0-.4-.1-.4-.1-.1-1.1-.1-2.9-.2-1.8-.1-3.4-.1-4.7-.1-.3.1-.6.1-.8.1zm7.8.5c.1.1.2.1.2.2v.1l-.1.1c-.1 0-.2 0-.3-.1-.4-.1-.7-.1-.7-.2l.1-.1c.1-.1.2-.1.3-.1-.1 0 .1 0 .5.1zm-8.3 6.7c0-.1.1-.1.1-.1s.1.2.1.7v1c0 .2-.1.4-.1.8-.1.3-.1.5-.1.5v-.1-.9c-.2-.6-.1-1.2 0-1.9zm.4-1.2c.1-.1.1.1.1.4v.1c0 .2-.1.2-.1.2-.1-.2-.1-.3-.1-.4-.1-.1 0-.2.1-.3zm7.3 1.2c0 .1-.1.1-.2.2l-.1.1h-.1c-.1 0-.1 0-.1.1-.4 0-.7-.1-.7-.2l.1-.1c.2-.1.3-.1.5-.1h.6zm-4.6-5.5c0 .1 0 .1-.1.1l-.1.1h-.2c-.1 0-.2 0-.4-.1l-.9-.1h.1c.3-.1.5-.1.7-.1.1 0 .2 0 .4.1h.5zm1.6 6.6c.1 0 .2.1.2.2 0 0 0 .1-.1.1h-.3c-.1 0-.4-.1-.9-.1-.4-.1-.7-.1-.7-.2h.1c.3 0 .5-.1.6-.1.3 0 .6.1 1.1.1zm-10.4 5v-.1s0 .1.1.3c0 .2.1.4.1.6v.6c0 1.2 0 1.8-.1 1.8v-.1c-.1-.5-.1-1-.1-1.3v-.8-1zm-3.8-13.4c.2-.1.4-.1.5-.1h.4l.1.1v.1h-.2c-.1 0-.2 0-.4-.1-.3.1-.4.1-.4 0zm-.3-.2V14.8c0 .2 0 .5.1.9l.1.2c0 .2.1.3.3.3h1.1c.7 0 1.1 0 1.1.1.1 0 .1.8.1 2.5v2.6c-.1 3.4-.1 6.5-.1 9.1v.7c0 .2.2.3.6.3H222.6s.1 0 .1-.1v-.1V30l.4-13.1c0-.1.2-.1.4-.1h.8c.3 0 .6.1.9.1H226.1c.1 0 .1-.2.1-.5v-1.2c0-.2 0-.3-.1-.4-.1-.1-.2-.1-.4-.1l-.9-.1c-.2 0-1-.1-2.3-.1-.6 0-1.1-.1-1.6-.2-1.4-.3-2.3-.4-2.6-.4-.3.2-.4.2-.4.3zm4.2 3.3c-.1 1.2-.1 1.8-.2 1.8s-.1-.5-.1-1.6c0-.6.1-1 .2-1s.2.2.2.5c-.1.2-.1.3-.1.3zm-.7 1.2c0 .9 0 1.4-.1 1.5-.1 0-.1-.5-.1-1.5 0-.5 0-.7.1-.7.1.1.1.3.1.7zm-.4 6.8c0 .4-.1.7-.1.7-.1 0-.1-.2-.1-.7 0-.3 0-.4.1-.4 0 .1.1.2.1.4zm-7 .9c-.1 0-.1-.1-.1-.4 0-.5 0-.9.1-1.1v-.3l.1.1s.1.2.1.4v.4c-.1.4-.2.8-.2.9zm-6.6-1.7l-.1.1c-.1 0-.1-.1-.1-.2l.1-1.3s0 .1.1.2c0 .2.1.3.1.6v.5c-.1 0-.1 0-.1.1zm-.5-10.4c-.1.1-.2 5.2-.3 15.3V31c0 .1 0 .3.1.3 0 0 .2.1.4.1h.7l7.4-.8H215.5v-.2c0-.1 0-.4.1-1s.1-1.3.2-2c.1-.8.1-1.5.1-2.1v-.5-.5-.4-.5c.1-.9.1-2.3.3-4.3.1-1.9.2-3.1.2-3.5v-.1-.2V15s-.2-.1-.5-.2h-1.2c-.4 0-.6.2-.6.5l-.1 1.3-1 11.6v.4c0 .1-.1.1-.2.1-1.2.4-2.6.5-4.3.5h-.2s-.1-.1-.1-.2v-1c0-3.4.1-7.4.3-11.9l.1-1.1c0-.2-.6-.4-1.8-.7h.1zm8.8 1.2s0-.1 0 0c.1-.1.1 0 .1.2.1.2.1.4.1.6v.1c0 .2 0 .4-.1.7-.1.3-.1.5-.2.8-.1.2-.1.3-.1.3v-.3-1.8c.1-.2.2-.5.2-.6zm-8.1 9.5c.1 0 .2.1.2.4v.1c-.1.4-.1.6-.2.6l-.1-.1c-.1-.1-.1-.3-.1-.4 0-.2.1-.4.2-.6zm5.2 4.9c.1-.1.3-.1.5-.1h.9c.1 0 .1 0 .2.1 0 .1 0 .1-.1.1-.2 0-.3.1-.3.1-.1 0-.2 0-.4-.1h-.8s-.1-.1 0-.1z"/>
    <path class="st0" d="M326.3 26.4c-.1 0-.1-.1-.1-.4 0-.5 0-.9.1-1.1v-.3l.1.1s.1.2.1.4v.4c-.1.4-.1.8-.2.9m-6.6-1.7l-.1.1c-.1 0-.1-.1-.1-.2l.1-1.3s0 .1.1.2c0 .2.1.3.1.6v.5c-.1 0-.1 0-.1.1zm-.5-10.4c-.1.1-.2 5.2-.3 15.3V31c0 .1 0 .3.1.3 0 0 .2.1.4.1h.7l7.4-.8H327.8v-.2c0-.1 0-.4.1-1s.1-1.3.2-2c.1-.8.1-1.5.1-2.1v-.5-.5-.4-.5c.1-.9.1-2.3.3-4.3.1-1.9.2-3.1.2-3.5v-.1-.2V15s-.2-.1-.5-.2h-.9c-.4 0-.6.2-.6.5l-.1 1.3-1 11.6v.4c0 .1-.1.1-.2.1-1.2.4-2.6.5-4.3.5h-.2s-.1-.1-.1-.2v-1c0-3.4.1-7.4.3-11.9l.1-1.1c0-.2-.6-.4-1.8-.7h-.2zm8.8 1.2s0-.1 0 0c.1-.1.1 0 .1.2.1.2.1.4.1.6v.1c0 .2 0 .4-.1.7-.1.3-.1.5-.2.8-.1.2-.1.3-.1.3v-.3-1.8c.2-.2.2-.5.2-.6zm-8.1 9.5c.1 0 .2.1.2.4v.1c-.1.4-.1.6-.2.6l-.1-.1c-.1-.1-.1-.3-.1-.4.1-.2.1-.4.2-.6zm5.2 4.9c.1-.1.3-.1.5-.1h.9c.1 0 .1 0 .2.1 0 .1 0 .1-.1.1-.2 0-.3.1-.3.1-.1 0-.2 0-.4-.1h-.8v-.1zm-9.7-3.2c0 1.5 0 2.3-.1 2.3 0 0 0-.3-.1-1v-1.3c0-.1 0-.2.1-.2 0 0 .1 0 .1.2zm-.1-12.5c-.2 0-.3 0-.4.1 0 .1-.1.3-.1.6 0 2.2-.1 6.6-.1 13.2V31.3c0 .1.1.2.3.2H316.3l.5-.1c.1 0 .2-.1.2-.2V31l-.1-2.9V14.6c0-.2 0-.4-.1-.4-.1-.1-.3-.1-.6-.1h-.9zm0 .3c.1-.1.2-.2.4-.2.1 0 .2 0 .4.1s.3.1.4.1c0 .1-.1.2-.1.2-.6.1-.9.1-.9.1-.2 0-.2 0-.2-.1v-.2zm1.1 2.3c0-.1 0-.2.1-.2s.2.8.2 2.3c0 .7 0 1.1-.1 1.1 0 0-.1 0-.1-.1-.1-1-.1-1.7-.1-2-.1-.3-.1-.7 0-1.1zm-.9 8.4c.1-.1.1-.1 0 0 .2 0 .3.2.3.5 0 .1 0 .2-.1.3-.1.3-.2.3-.2.2-.1-.3-.1-.5-.1-.6 0-.2.1-.3.1-.4zm-3.6 4.6c-.1.2-.2.4-.3.5l-.3.3c-.2.1-.3.2-.6.2h-.1l.1-.1.2-.2c.1-.1.1-.1.2-.1 0 0 .1-.1.2-.1.1-.1.1-.1.2-.1l.4-.4zm-8-5.3c0-.1.1-.1 0 0 .1 0 .1.1.1.4v.2c-.1-.2-.1-.3-.1-.4v-.2zm.1 6.2c0-.1.2-.2.5-.2H305.3c.2 0 .2.1.1.1-.4.1-.7.1-.9.1h-.5zm0-9.3v2.4h-.1c-.1 0-.1-.1-.1-.4v-.7c0-.4.1-.6.1-.8v-.2-.2-.2c0-.1 0-.1.1-.2h.1c-.1-.1-.1 0-.1.3zm7 5.4c0-.1 0-.1 0 0 .1-.1.1.3.1 1 0 .6 0 .9-.1.9v-.1-.4-.4c-.1-.2-.1-.6 0-1zm-3.3-10.6c.2 0 .5 0 .7-.1.3-.1.5-.1.6-.1h.8c0 .1 0 .1-.1.1-.1.1-.2.1-.3.1h-.6c-.1 0-.3 0-.6.1-.3 0-.5.1-.5.1v-.2zm2.4 15.1c.1 0 .3 0 .5-.1.3 0 .4-.1.5-.1.1 0 .2-.1.4-.2s.3-.2.4-.3c.1-.1.2-.3.3-.6.1-.2.2-.5.3-.9.3-1.3.4-2.9.5-4.8 0-.2 0-.8.1-1.8.1-1.1.1-1.9.1-2.4 0-1.2-.1-2.1-.3-2.8-.3-1.1-1-1.8-2.2-2.1-1.3-.3-2.7-.5-4.1-.5-.6 0-1.8.1-3.9.2l-.1.4c0 .1 0 2.1-.1 6.1l-.1 10.4 3.9-.1h.6c.4 0 .9-.1 1.6-.1.6-.2 1.2-.2 1.6-.3zm.4-14.2l.1.3c0 .2.1.5.1.8 0 .3.1.7.1 1v.8c0 .1 0 1.5-.1 4.1 0 .7-.1 2.1-.4 4.3 0 .4-.2.7-.4.9-.2.2-.5.3-.9.3l-4.4.2v-.1-.4-1l.3-11.2h5.6zm-7.1-1.4v1.4s-.1-.5-.2-1.5v-.2c0-.1 0-.1.1-.1h.1c0 .1.1.2 0 .4zM287.8 22h-.3c-.1 0-.1 0-.1.1 0 0-.1 0-.1.1v.5l-.1 1c0 .1 0 .1-.1.2v.2c0 .1.1.1.3.1H293.2c.1 0 .1 0 .2-.1 0-.1.1-.2.1-.2v-1.6-.2h-.4l-5.3-.1zm1.3 1.6H291.5c0 .1-.4.2-1.3.2h-.6c-.1 0-.2 0-.4-.1l-.1-.1zm3.7-1.5c.1 0 .1 0 0 0 .1 0 .1.1.1.2v.4c0 .1 0 .2-.1.3 0 .1-.1.2-.1.2-.1 0-.1-.1-.1-.2v-.1-.1c0-.3.1-.5.2-.7zm-5.1.2h.8c.2 0 .4 0 .5.1 0 0-.2.1-.7.1h-.1c-.1 0-.2 0-.3-.1 0 0-.1-.1-.2-.1zm-17.1 8.2c.5 0 .8-.1.9-.1h.4c.2 0 .3.1.3.1v.1h-.3-.9c-.5 0-.7-.1-.8-.1h.4zm-2 .4c-.1 0-.1 0 0 0-.1-.1 0-.2.1-.2h.8c.3 0 .5.1.5.2-.2.1-.5.1-.7.1-.2-.1-.4-.1-.7-.1zm8.5-16.8c.1 0 .1 0 .1.1v.1l-.1.1s-.1 0-.2-.1h-.6c-.1 0-.1 0-.1-.1v-.1c.1-.1.2-.1.3-.1 0 0 .1 0 .3.1h.3zm-8.5 0h-.5c-.2 0-.4 0-.5.1-.1.1-.1.2-.1.5v2.1c0 6.1 0 9.9.1 11.5V31.1l.1.1c.1.1.5.1 1.1.1H277.3c.2 0 .3 0 .3-.1V30.6v-2.1-2.8l-.1-10.3v-1.1c0-.1 0-.2-.1-.2 0 0-.1-.1-.3-.1h-2c-.3 0-1 0-2 .1-1 0-2 .1-3 .1-.8-.1-1.4-.1-1.5-.1zm-.4 1.4c-.1 0-.1-.1-.1-.3 0-.2-.1-.3-.1-.5v-.2l.1-.1v.1c0 .1.1.3.1.7v.3zm.5.7v2.2c-.1 0-.1-.5-.1-1.6 0-.5 0-.8.1-.8l.1-.1s-.1.1-.1.3zm7.2.1s.1 1.4.1 4.1c0 3.9-.1 6.6-.2 7.9 0 .4-.1.7-.1.7v.4c-.4 0-2-.1-4.9-.4l-.7-.1v-1.4c0-.1 0-.6-.1-1.5s-.1-1.6-.1-2.1l-.1-7.7h.4c.2 0 1.2 0 2.9-.1h1.3c.4 0 .8 0 1-.1.2.3.4.3.5.3zm.2 10.9s0 .1 0 0v-.9-1c.1.1.1.5.1 1.2.1.4 0 .7-.1.7zm.7.5c0 .9 0 1.3-.1 1.3 0 0-.1-.2-.1-.6 0-.4-.1-.6-.1-.8 0-.1 0-.1.1-.1.1.1.2.1.2.2z"/>
  </g>
</svg>