<svg xmlns="http://www.w3.org/2000/svg" width="392.2" height="32.4" viewBox="0 0 392.2 32.4">
  <style>
    .st0{fill:#7c51a0}
  </style>
  <path class="st0" d="M56.7 30.2c0 .1 0 .2-.1.2s-.1-.1-.1-.2c0-1 0-1.5.1-1.5 0 0 .1.2.1.7v.8m8.7-5.2l-.1.6v-1c0-.3 0-.5.1-.5 0 .1.1.1.1.3 0 .2-.1.3-.1.6zm-7.8-.6c.1 1 .1 1.5.1 1.7 0 .8 0 1.2-.1 1.2 0 0-.1-.4-.2-1.1-.1-.7-.1-1.4-.1-2 0-.4 0-.6.1-.6s.2.2.2.8zm6.8 6.2V30.9c-.1 0-.1-.1-.1-.3 0-.2 0-.3.1-.3-.1.1-.1.1 0 .3zm-3.1-8.3c.2.4.3.7.3.8 0 .1 0 .1-.1.1s-.1 0-.1-.1c0 0-.1-.2-.2-.6-.2-.3-.2-.5-.2-.6v-.1c.1.1.2.2.3.5zm-.9-.5c0 .2.1.5.3.8l-.4-.5-.3-.6-.3-.6c0-.1 0-.1.1-.1 0 0 .1.1.3.4l.3.6zm-3.8-1c0 .8 0 1.3-.1 1.3s-.1-.4-.1-1.3c0-.2 0-.3.1-.3.1.1.1.2.1.3zm9.7 1.3c0 .3-.1.4-.2.4 0 0-.1-.1-.1-.2 0-.3.1-.6.2-.8.1 0 .1.1.1.2.1.1.1.2 0 .4zm-9.2-4.8c0 .5-.1.8-.2.8s-.1-.2-.1-.5c0-.2 0-.5.1-.7 0-.2.1-.3.1-.3.1 0 .1.2.1.5v.2zm8.6 1.1c-.1.6-.1.9-.2.9s-.1-.2-.1-.6c0-.7.1-1.1.2-1.1s.1.1.1.3v.5zm-.2-1.6c0 .1 0 .2-.1.2l-.1-.1c-.1-.1-.1-.1-.1-.2v-.1c0-.1.1-.2.1-.2.2.1.2.2.2.4zm-.6-.7v2.5c0 .4-.1 1-.1 1.6V23l-.1 4.2-.1.8c0-.4-.8-2.3-2.4-5.6l-.7-1.4c-.1-.3-.3-.9-.6-1.7-.3-.8-.5-1.3-.6-1.5 0-.1-.1-.2-.2-.4s-.2-.4-.2-.6c-.1-.2-.2-.3-.2-.5 0-.1-.1-.1-.1-.3 0-.1-.1-.2-.1-.2s0-.1-.1-.1c0-.1 0-.1-.1-.1v-.1l-.1-.1h-.1-.1c-.8-.1-1.7-.2-2.9-.2h-.2v6.9c0 2.6 0 4.7-.1 6.3v3.4c0 .2.1.3.4.3h.7c.3 0 .5-.1.6-.1h.6v-.1-3.3-1.4-2.3-2.4c-.1-3.3-.1-4.9-.1-5 0 0 0 .1.1.3 0 .2.1.4.2.7.1.3.1.4.2.5.6 1.3 1.1 2.4 1.6 3.4.4 1 .9 2.3 1.5 3.8s1.1 2.8 1.4 3.7c.4 1 .6 1.6.6 1.6s.5.1 1.6.1c.7 0 1.1.1 1.1.1.3 0 .5-.1.5-.2V29v-1.6-2.5-2.2c.1-3 .1-4.8.1-5.3v-1.7c0-.1 0-.2-.1-.3-.1-.1-.2-.1-.4-.1h-.9c-.2 0-.3 0-.5.1-.1.1-.2.1-.2.2v.2c0 .2.1.3.1.3zm-17 8.3v-.1l1.1-6.7h.9l1.1 7.2-3.1-.4zM46 28.2c0 .1-.1.2-.2.2s-.1-.1-.1-.2 0-.4.1-.8.2-.6.2-.6.1.1.1.2v.6c-.1.4-.1.6-.1.6zm1.4-3.7c0 .3-.1.5-.2.5v-.4c0-.1.1-.4.2-.8s.1-.6.1-.7c0-.1 0-.1.1-.1v.1c.1.3 0 .8-.2 1.4zm3.8-4.1c.1.1.1.5.3 1.2.1.7.2 1.1.2 1.2 0 .1 0 .1-.1.1s-.2-.4-.4-1.2c-.2-.8-.3-1.3-.3-1.5v-.1c.1-.1.2.1.3.3zm2.7 11c0 .2 0 .2-.1.2s-.3-.4-.4-1.1c0-.1-.1-.2-.1-.3 0-.1 0-.1.1-.1s.2.2.3.6c0 0 .1.3.2.7zm-7.9-.7c0 .1-.1.2-.2.2s-.1-.1-.1-.1v-.1c0-.2.1-.3.1-.4 0-.1 0-.1.1-.1s.1.1.1.3c.1-.1.1.1 0 .2zm-1.9.9c0 .2.5.3 1.4.3h.7c.2 0 .3-.1.4-.3 0-.2.1-.4.1-.7.2-.9.3-1.4.4-1.7l.4-2.7c.6 0 1.1 0 1.5-.1l2.6-.1c.1.7.2 1.8.5 3.1.2 1.3.4 2.1.4 2.3v.1c0 .1.1.2.1.2s.1.1.3.1h.1c.1 0 .5 0 .9.1.5.1.8.1.9.1h.2v-.1l-1.3-5.7-.4-1.9-1.8-8.9c-.1-.6-.2-1-.3-1 0-.1-.4-.1-.9-.1-1.3 0-1.9.1-2 .2-.1.1-.1.3-.2.7l-2.3 9.3c-.2.9-.7 2.7-1.3 5.3-.3.9-.4 1.5-.4 1.5zm6.4-16.2c-.1 0-.2 0-.3-.1-.1 0-.1-.1-.2-.1H49.4c0-.1 0-.2.1-.2s.3-.1.4-.1c.1 0 .2 0 .4.1.1 0 .2.1.2.2.1.1.1.2 0 .2zM49 25.8c-.1 0-.1 0 0 0-.1-.1-.1-.1 0 0 .2-.1.3-.1.4-.1h1.2c.2 0 .3 0 .3.1v.1c0 .1-.1.1-.2.1s-.1 0-.3-.1c-.2 0-.3-.1-.3-.1h-.7c-.2.1-.3.1-.4 0zm3.9 1.3c0-.1 0-.1 0 0 .1-.1.2.2.2.6v.1c0 .3 0 .5-.1.5v-.1c-.1-.3-.1-.5-.1-.6v-.5zm-25.2 2.2c-.2.1-.3.1-.4.1-.1 0-.2 0-.4-.1h.8zm4.4-9c-.2-.1-.6-.4-1.3-.9-.6-.5-1.2-.9-1.6-1.3 0 0-.3-.2-.7-.5-.4-.3-.7-.4-.7-.5 0-.1-.1-.1-.2-.1h-1.9c-.4 0-.6 0-.6.1l.2.2.2.2c.9.6 1.8 1.3 2.8 2 1 .7 1.7 1.2 2.1 1.4l2.3 1.7.8.5c.1.1.2.1.3.2h-.3c-.1 0-.2.1-.3.1l-.8.6c-.7.5-1.5 1.1-2.3 1.6-.3.3-1 .8-2 1.4-1 .7-1.9 1.3-2.7 2l-.3.3-.2.2c0 .1.2.1.6.1H27c.3 0 .5-.1.7-.2l1.6-1.1c.4-.4 1-.8 1.7-1.3s1.2-.8 1.4-.9l.6-.4c.4-.3.8-.6 1.4-1 .6-.4 1-.7 1.3-.9 0 0 .1-.1.3-.2.1-.1.2-.2.3-.2l.1-.1-.1-.1s-.1-.1-.3-.2c-.1-.1-.2-.2-.3-.2-.3-.2-.8-.5-1.4-1l-1.5-1-.7-.5zm-4.3-2.8l.4.4c.2.2.3.3.5.4 0 .1 0 .2-.1.2s-.1 0-.2-.1l-.3-.3c0-.1-.1-.2-.1-.2l-.1-.1c-.2-.2-.2-.4-.2-.4l.1.1zm7.2 5.2c.1 0 .2.1.3.2.1.1.2.2.4.2v.1c-.1.1-.3 0-.5-.1-.2-.2-.3-.3-.2-.4-.1 0-.1 0 0 0zm-4-2.4c.1.1.1.1.2.1.1.1.2.1.2.1.1 0 .1.1.1.1-.1.1-.4 0-.7-.3h.2zm-5.2-3.1c.1-.1.3-.1.5-.1.1 0 .3 0 .4.1l-.5.1-.4-.1zm3 10.4c0 .1-.1.1-.1.1l.1-.1c0-.1 0-.3.2-.4l.2-.2.3-.3c.1-.1.2-.1.2-.1.1 0 .1.1.1.2-.2.1-.4.3-.5.4-.3.2-.4.3-.5.4zm2.1-7c.5.4 1 .8 1.4 1.2V22.1s-.1 0-.2-.1l-.3-.3-.2-.2c-.2-.2-.4-.3-.4-.3L31 21c0-.3-.1-.4-.1-.4zm1.6 4.3l.2-.2.2-.2c.1-.1.3-.2.4-.3l.2-.2.3-.3c.1-.1.2-.1.2-.1v.2c-.4.3-.8.7-1.5 1.1zm-17.4 4.4c-.2.1-.3.1-.4.1-.1 0-.2 0-.4-.1h.8zm4.5-9c-.2-.1-.6-.4-1.3-.9-.6-.5-1.2-.9-1.6-1.3 0 0-.3-.2-.7-.5-.4-.3-.7-.4-.7-.5-.1-.1-.2-.1-.2-.1h-1.9c-.4 0-.6 0-.6.1l.2.2.2.2c.9.6 1.8 1.3 2.8 2 1 .7 1.7 1.2 2.1 1.4l2.3 1.7.8.5c.1.1.2.1.3.2H21c-.1 0-.2.1-.3.1l-.8.6c-.7.5-1.5 1.1-2.3 1.6-.3.3-1 .8-2 1.4-1 .7-1.9 1.3-2.7 2l-.3.3-.2.2c0 .1.2.1.6.1h1.5c.3 0 .5-.1.7-.2l1.6-1.1c.4-.4 1-.8 1.7-1.3s1.2-.8 1.4-.9l.6-.4c.4-.3.8-.6 1.4-1 .6-.4 1-.7 1.3-.9 0 0 .1-.1.3-.2.1-.1.2-.2.3-.2l.1-.1-.1-.1s-.1-.1-.3-.2c-.1-.1-.2-.2-.3-.2-.3-.2-.8-.5-1.4-1l-1.5-1-.7-.5zm-4.3-2.8l.4.4c.2.2.3.3.5.4 0 .1 0 .2-.1.2s-.1 0-.2-.1l-.3-.3-.2-.2-.1-.1c-.2-.2-.2-.4-.2-.4l.2.1zm7.2 5.2c.1 0 .2.1.3.2.1.1.2.2.4.2v.1c-.1.1-.3 0-.5-.1-.2-.2-.3-.3-.2-.4-.1 0-.1 0 0 0zm-4-2.4c.1.1.1.1.2.1.1.1.2.1.2.1.1 0 .1.1.1.1-.1.1-.4 0-.7-.3h.2zm-5.2-3.1c.1-.1.3-.1.5-.1.1 0 .3 0 .4.1l-.5.1-.4-.1zm3 10.4c0 .1-.1.1-.1.1l.1-.1c0-.1 0-.3.1-.4l.2-.2.3-.3c.1-.1.2-.1.2-.1.1 0 .1.1.1.2-.2.1-.4.3-.5.4l-.4.4zm2.1-7c.5.4 1 .8 1.4 1.2V22.1s-.1 0-.2-.1l-.3-.3-.2-.2c-.2-.2-.4-.3-.4-.3l-.2-.2c-.1-.3-.1-.4-.1-.4zm1.6 4.3l.2-.2.2-.2c.1-.1.3-.2.4-.3l.2-.2.3-.3c.1-.1.2-.1.2-.1v.2c-.4.3-.9.7-1.5 1.1zM2.6 29.3c-.2.1-.3.1-.4.1-.1 0-.2 0-.4-.1h.8zm4.5-9c-.2-.1-.6-.4-1.3-.9-.6-.5-1.2-.9-1.6-1.3 0 0-.3-.2-.7-.5-.4-.3-.7-.4-.7-.5-.1-.1-.2-.1-.2-.1H.7c-.4 0-.6 0-.6.1l.2.2.2.2c.9.6 1.8 1.3 2.8 2 1 .7 1.7 1.2 2.1 1.4l2.3 1.7.8.5c.1.1.2.1.3.2h-.3c-.1 0-.2.1-.3.1l-.8.6c-.7.5-1.5 1.1-2.3 1.6-.4.3-1 .8-2 1.4-1 .7-1.9 1.3-2.7 2l-.3.3c0 .1-.1.2-.1.2 0 .1.2.1.6.1h1.5c.3 0 .5-.1.7-.2l1.6-1.1c.4-.4 1-.8 1.7-1.3s1.2-.8 1.4-.9l.5-.3c.4-.3.8-.6 1.4-1 .6-.4 1-.7 1.3-.9 0 0 .1-.1.3-.2.1-.1.2-.2.3-.2l.1-.1-.1-.1s-.1-.1-.3-.2c-.1-.1-.2-.2-.3-.2-.3-.2-.8-.5-1.4-1l-1.5-1-.7-.6zm-4.3-2.8l.4.4c.2.2.3.3.5.4 0 .1 0 .2-.1.2s-.1 0-.2-.1l-.3-.3c0-.1-.1-.2-.1-.2l-.1-.1c-.2-.2-.2-.4-.2-.4l.1.1zm7.2 5.2c.1 0 .2.1.3.2.1.1.2.2.4.2v.1c-.1.1-.3 0-.5-.1-.2-.2-.3-.3-.2-.4-.1 0-.1 0 0 0zm-4-2.4c.1.1.1.1.2.1.1.1.2.1.2.1.1 0 .1.1.1.1-.1.1-.4 0-.7-.3H6zM.8 17.2c.1-.1.3-.1.5-.1.1 0 .3 0 .4.1l-.5.1-.4-.1zm3 10.4c0 .1-.1.1-.1.1l.1-.1c0-.1 0-.3.1-.4l.2-.2.3-.3c.1-.1.2-.1.2-.1.1 0 .1.1.1.2-.2.1-.4.3-.5.4l-.4.4zm2-7c.5.4 1 .8 1.4 1.2V22.1s-.1 0-.2-.1l-.3-.3-.2-.2c-.1-.4-.3-.5-.3-.5l-.2-.2c-.1-.1-.1-.2-.2-.2zm1.7 4.3l.2-.2.2-.2c.1-.1.3-.2.4-.3l.2-.2.3-.3c.1-.1.2-.1.2-.1v.2c-.4.3-.9.7-1.5 1.1z"/>
  <path class="st0" d="M125.7 16.7c-.3-.1-.4-.1-.4-.2s.4-.1 1.2-.1c.7 0 1.1 0 1.3.1 0 .1-.5.2-1.4.2h-.7zm-4.1 8.3c0 .2-.1.4-.2.4s-.1-.4-.1-1.2c0-.7 0-1.1.1-1.3.1 0 .2.6.2 1.7v.4zm-.3 1.2c0 .3-.1.5-.1.6h-.1c-.1 0-.1-.1-.1-.4 0-.1 0-.2.1-.4s.1-.3.2-.3.1.1.1.2c0 .2 0 .2-.1.3zm.3 1.3v.3c-.1 0-.1-.1-.1-.3v-.1l.1-.2c-.1.1 0 .2 0 .3zm6.7 2.6h1.7c.1.1.1.1 0 .1-.5.1-1 .2-1.5.2h-.2c-.1 0-.3-.1-.4-.1-.2-.1-.2-.1-.1-.2 0 0 .1-.1.2-.1h.2c0 .1.1.1.1.1zM123.1 15c-.2 0-.8 0-1.7.1h-.4c-.1 0-.1.1-.1.3v.2c-.1 2.3-.2 6.4-.3 12.3v1.3c0 1.4 0 2.2.1 2.3.1.1.5.2 1.4.2h1c5 0 7.5 0 7.6-.1.1 0 .1-.2.1-.6V29.6c0-.1 0-.2-.1-.2h-.5c-3.1 0-4.9.1-5.6.2-.7.1-1.1.1-1.3.1h-.2-.1v-.1-.1c0-.1 0-.6-.1-1.6-.1-3.6-.1-5.8-.1-6.7 0-1.4 0-2.2.1-2.4.1-.7.1-1.1.2-1.2l.1-.1c.1 0 .3 0 .7.1.4 0 .7.1 1 .1l5 .3h.1c.2 0 .3-.1.3-.3v-.2V15.6v-.4c0-.1-.1-.1-.3-.1h-.2c-2.2-.2-4.4-.1-6.7-.1zm-1.4 3.8c-.1 0-.2-.4-.2-1.2v-.2-.2l.1-.3.1.3c0 .2.1.6.1 1.3-.1.2-.1.3-.1.3zm-13.2 11.4c0 .1 0 .2-.1.2s-.1-.1-.1-.2c0-1 0-1.5.1-1.5 0 0 .1.2.1.7-.1.4 0 .7 0 .8zm8.7-5.2l-.1.6v-1c0-.3 0-.5.1-.5 0 .1.1.1.1.3-.1.2-.1.3-.1.6zm-7.8-.6c.1 1 .1 1.5.1 1.7 0 .8 0 1.2-.1 1.2 0 0-.1-.4-.2-1.1-.1-.7-.1-1.4-.1-2 0-.4 0-.6.1-.6s.2.2.2.8zm6.7 6.2V30.9c-.1 0-.1-.1-.1-.3 0-.2 0-.3.1-.3v.3zm-3-8.3c.2.4.3.7.3.8 0 .1 0 .1-.1.1s-.1 0-.1-.1c0 0-.1-.2-.2-.6-.2-.3-.2-.5-.2-.6v-.1c.1.1.2.2.3.5zm-.9-.5c0 .2.1.5.3.8l-.4-.5-.3-.6-.3-.6c0-.1 0-.1.1-.1 0 0 .1.1.3.4l.3.6zm-3.8-1c0 .8 0 1.3-.1 1.3s-.1-.4-.1-1.3c0-.2 0-.3.1-.3 0 .1.1.2.1.3zm9.7 1.3c0 .3-.1.4-.2.4 0 0-.1-.1-.1-.2 0-.3.1-.6.2-.8.1 0 .1.1.1.2.1.1.1.2 0 .4zm-9.2-4.8c0 .5-.1.8-.2.8s-.1-.2-.1-.5c0-.2 0-.5.1-.7 0-.2.1-.3.1-.3.1 0 .1.2.1.5v.2zm8.6 1.1c-.1.6-.1.9-.2.9s-.1-.2-.1-.6c0-.7.1-1.1.2-1.1s.1.1.1.3v.5zm-.2-1.6c0 .1 0 .2-.1.2l-.1-.1c-.1-.1-.1-.1-.1-.2v-.1c0-.1.1-.2.1-.2.1.1.2.2.2.4zm-.7-.7v2.5c0 .4-.1 1-.1 1.6v1l-.1 1.7-.1 4.2-.1.8c0-.4-.8-2.3-2.4-5.6l-.7-1.5c-.1-.3-.3-.9-.6-1.7-.3-.8-.5-1.3-.6-1.5 0-.1-.1-.2-.2-.4s-.2-.4-.2-.6c-.1-.2-.2-.3-.2-.5 0-.1-.1-.1-.1-.3 0-.1-.1-.2-.1-.2s0-.1-.1-.1c0-.1 0-.1-.1-.1v-.1l-.1-.1h-.1-.1c-.8-.1-1.7-.2-2.9-.2h-.2v6.9c0 2.6 0 4.7-.1 6.3v3.4c0 .2.1.3.4.3h.7c.3 0 .5-.1.6-.1h.6v-.1-3.3V27v-2.3-2.4c-.1-3.3-.1-4.9-.1-5 0 0 0 .1.1.3 0 .2.1.4.2.7.1.3.1.4.2.5.6 1.3 1.1 2.4 1.6 3.4.4 1 .9 2.3 1.5 3.8s1.1 2.8 1.4 3.7c.4 1 .6 1.6.6 1.6s.5.1 1.6.1c.7 0 1.1.1 1.1.1.3 0 .5-.1.5-.2v-2.5-1.6-2.5-2.2c.1-3 .1-4.8.1-5.3v-1.5c0-.1 0-.2-.1-.3-.1-.1-.2-.1-.4-.1h-1c-.2 0-.3 0-.5.1-.1.1-.2.1-.2.2v.2c.3.2.3.3.3.3zm-20.6 1c0-.1 0-.1 0 0 .1-.1.1 0 .1.1 0 .2.1.4.1.6 0 .2 0 .4.1.5v.1c0 .2 0 .4-.1.6-.1.2-.1.4-.2.4v-.2-.7-.6c-.1-.3-.1-.6 0-.8zm-1.2-1.8c-.1.1-.1.3-.1.7v.3l.2 4c.1 2.3.2 3.6.2 3.9.1.9.1 1.7.1 2.3 0 .4 0 1 .1 1.9.1.9.1 1.5.1 1.6l.2 1.9.3.1c.1 0 .6.1 1.5.1h1.8c2 0 3.5-.1 4.6-.1h2.1v-1.4c0-1.8 0-3.4-.1-4.8 0-.5-.1-2.3-.1-5.5s0-4.8-.1-5c-.1-.1-1.9-.2-5.5-.3h-3.5c-1.1.1-1.7.2-1.8.3zm6.1.9v.2c0 .2 0 .3-.1.3h-.1l-.2-.4v-.1c0-.1 0-.1.1-.1.2-.1.3-.1.3.1zm-1.6 13.1c-.9.1-1.5.1-1.6.1h-.1c-.3 0-.4-.1-.4-.5v-.1-.1c0-.2.1-1.2.1-3.2v-.9c0-.6 0-1.6-.1-3.2 0-1.5-.1-2.6-.1-3.2v-1h1.3c.5 0 1.3.1 2.5.2s1.8.2 1.9.2c.4 0 .6.1.7.1.1 0 .2.1.2.3.1.4.2 1 .2 1.8 0 .7 0 2.4-.1 5.3V28c0 .8 0 1.3-.1 1.3h-.1-.5c-.2 0-.4 0-.7.1-.2 0-.5.1-1.1.1h-2zm-2.7-6.5v1.5c-.1.1-.1.2-.1.2-.1 0-.2-.2-.2-.6v-.2-1c0-.4.1-.7.1-.9 0-.3.1-.4.1-.4 0 .1 0 .5.1 1.4zm8.7-4.3c0 .3-.1.4-.2.4s-.1-.1-.1-.4c0-.3 0-.4.1-.4.2.1.2.2.2.4zm-.7 6.8c0 .4-.1.5-.2.5s-.1-.2-.1-.5v-.6c0-.6 0-.9.1-.9s.1.3.1.9v.6zm-8.4 2v.8c-.1-.1-.2-.5-.2-1.1v-.4c0-.3 0-.4.1-.4 0-.1.1.3.1 1.1zm9.2 2.2s0 .1 0 0c-.2.1-.3.1-.3 0s.1-.1.2-.1c.1-.1.1 0 .1.1zm-1.2 1c0 .1 0 .1 0 0l.1.1h-.1-.1-.5v-.1l.1-.1h.5c-.1.1 0 .1 0 .1zm-5.6 0c.4 0 .7-.1.8-.1.4 0 .6.1.6.2s-.1.1-.1.1h-.5c-.4 0-.9 0-1.4-.1-.5 0-.8-.1-.8-.1.1.1.5 0 1.4 0zM88.5 16.7c-.3-.1-.4-.1-.4-.2s.4-.1 1.2-.1c.7 0 1.1 0 1.3.1 0 .1-.5.2-1.4.2h-.7zM84.4 25c0 .2-.1.4-.2.4s-.1-.4-.1-1.2c0-.7 0-1.1.1-1.3.1 0 .2.6.2 1.7v.4zm-.3 1.2c0 .3-.1.5-.1.6h-.1c-.1 0-.1-.1-.1-.4 0-.1 0-.2.1-.4s.1-.3.2-.3.1.1.1.2c0 .2-.1.2-.1.3zm.3 1.3v.3c-.1 0-.1-.1-.1-.3v-.1l.1-.2c-.1.1-.1.2 0 .3zm6.7 2.6h1.7c.1.1.1.1 0 .1-.5.1-1 .2-1.5.2H91c-.1 0-.3-.1-.4-.1-.2-.1-.2-.1-.1-.2 0 0 .1-.1.2-.1h.2c0 .1.1.1.2.1zM85.9 15c-.2 0-.8 0-1.7.1H83.9c-.1 0-.1.1-.1.3v.2c-.1 2.3-.2 6.4-.3 12.3v1.3c0 1.4 0 2.2.1 2.3.1.1.5.2 1.4.2h1c5 0 7.5 0 7.6-.1.1 0 .1-.2.1-.6V29.6c0-.1 0-.2-.1-.2h-.5c-3.1 0-4.9.1-5.6.2-.7.1-1.1.1-1.3.1H86h-.1v-.1-.1c0-.1 0-.6-.1-1.6-.1-3.6-.1-5.8-.1-6.7 0-1.4 0-2.2.1-2.4.1-.7.1-1.1.2-1.2l.1-.1c.1 0 .3 0 .7.1.4 0 .7.1 1 .1l5 .3h.1c.2 0 .3-.1.3-.3v-.2V15.6v-.4c0-.1-.1-.1-.3-.1h-.2c-2.4-.2-4.6-.1-6.8-.1zm-1.4 3.8c-.1 0-.2-.4-.2-1.2v-.2-.2l.1-.3.1.3c0 .2.1.6.1 1.3-.1.2-.1.3-.1.3zm-4.1 11.1c.1 0 .1.2.1.5V30.7c0 .2 0 .3-.1.5-.1 0-.1-.3-.1-1 .1-.1.1-.3.1-.3zm.5-2.4v.2c0 1.1 0 1.7-.1 1.7 0 0 0-.3-.1-.9 0-.6-.1-1-.1-1.2 0-.3 0-.5.1-.5l.1.1c.1.2.1.4.1.6zm-.2-5.3c0 .2 0 .3-.1.3 0 0-.1-.2-.1-.7-.1-.5-.1-.8-.1-.9 0-.1 0-.3.1-.6s.1-.5.1-.5 0 .4.1 1.1v1.3zm-1.6-7.4v4.5c0 1.7.1 3.8.2 6.3.1 2.1.1 3.6.1 4.5 0 1.4.1 2.1.2 2.2.1.1.3.1.6.1h.8l.7-.1-.1-2.2c0-.3 0-.9-.1-1.9 0-1-.1-1.8-.1-2.3 0-.6-.1-2.8-.1-6.6v-2-1.6-.6c0-.2 0-.3-.1-.4 0 0-.2-.1-.3-.1l-1.5-.2h-.1s0 .1-.1.1c0 .2 0 .3-.1.3zm-2.6 1h.6c.1 0 .1 0 .1.1v.1c0 .1-.1.1-.1.1-.1 0-.1.1-.2.1h-.4-.1-.8H74.8h.1c.2-.3.8-.4 1.6-.4zm-3.6 2.8c0 .1 0 .1.1.2 0 .1 0 .2.1.3 0 .2.1.3.1.5V20.9l-.3 1.5v-.1c-.1-.4-.1-.7-.1-1 0-.3 0-.8.1-1.4v-1.3zm-.2-4.1H71c-1.2 0-1.9 0-2.1.1-.3.1-.4.1-.4.2v.2c.1.5.2 1.2.3 2 0 .1 0 .1.1.2.1.2.1.4.3.4h2.5v5.5c0 .4 0 1.6.1 3.7 0 .5 0 1.1.1 1.9 0 .8 0 1.4.1 1.9V32c0 .1 0 .1.1.1h1.3c.2 0 .4 0 .4-.1.1 0 .1-.1.1-.3v-6-4.2-2.7c0-1 .1-1.6.1-1.7.1-.1.5-.2 1.4-.2H77c.3 0 .4-.1.6-.1 0-.1.1-.2.1-.5v-.5-.5-.1-.6h-2.3c-1.8-.2-2.7-.2-2.7-.1zm-.1.3c0 .1 0 .1 0 0-.8.1-1.2.1-1.3.2h-.1c-.1 0-.1 0-.1-.1s.1-.2.2-.2c.9 0 1.3 0 1.3.1zm-.2 14.3c0 1.4 0 2.2-.1 2.2-.1-.1-.1-.6-.1-1.5 0-.5 0-.7.2-.7-.1 0 0 0 0 0z"/>
  <path class="st0" d="M182.6 17.1c0-.1 0-.1 0 0 .1-.1.1 0 .1.1 0 .2.1.4.1.6 0 .2 0 .4.1.5v.1c0 .2 0 .4-.1.6-.1.2-.1.4-.2.4v-.2-.7-.6c-.2-.3-.1-.6 0-.8m-1.2-1.8c-.1.1-.1.3-.1.7v.3l.2 4c.1 2.3.2 3.6.2 3.9.1.9.1 1.7.1 2.3 0 .4 0 1 .1 1.9.1.9.1 1.5.1 1.6l.2 1.9.3.1c.1 0 .6.1 1.5.1h1.8c2 0 3.5-.1 4.6-.1h2.1v-1.4c0-1.8 0-3.4-.1-4.8 0-.5-.1-2.3-.1-5.5s0-4.8-.1-5c-.1-.1-1.9-.2-5.5-.3h-3.5c-1.1.1-1.8.2-1.8.3zm6.1.9v.2c0 .2 0 .3-.1.3h-.1l-.2-.4v-.1c0-.1 0-.1.1-.1.2-.1.2-.1.3.1zm-1.7 13.1c-.9.1-1.5.1-1.6.1h-.1c-.3 0-.4-.1-.4-.5v-.1-.1c0-.2.1-1.2.1-3.2v-.9c0-.6 0-1.6-.1-3.2 0-1.5-.1-2.6-.1-3.2v-1h1.3c.5 0 1.3.1 2.5.2s1.8.2 1.9.2c.4 0 .6.1.7.1.1 0 .2.1.2.3.1.4.2 1 .2 1.8 0 .7 0 2.4-.1 5.3V28c0 .8 0 1.3-.1 1.3h-.1-.5c-.2 0-.4 0-.7.1-.2 0-.5.1-1.1.1h-2zm-2.6-6.5v1.5c-.1.1-.1.2-.1.2-.1 0-.2-.2-.2-.6v-.2-1c0-.4.1-.7.1-.9 0-.3.1-.4.1-.4-.1.1 0 .5.1 1.4zm8.7-4.3c0 .3-.1.4-.2.4s-.1-.1-.1-.4c0-.3 0-.4.1-.4.2.1.2.2.2.4zm-.7 6.8c0 .4-.1.5-.1.5-.1 0-.1-.2-.1-.5v-.6c0-.6 0-.9.1-.9s.1.3.1.9v.6zm-8.4 2v.8c-.1-.1-.2-.5-.2-1.1v-.4c0-.3 0-.4.1-.4 0-.1 0 .3.1 1.1zm9.2 2.2s0 .1 0 0c-.2.1-.3.1-.3 0s.1-.1.2-.1c.1-.1.1 0 .1.1zm-1.2 1c0 .1 0 .1 0 0l.1.1h-.1-.1-.5v-.1l.1-.1h.5c-.1.1-.1.1 0 .1zm-5.6 0c.4 0 .7-.1.8-.1.4 0 .6.1.6.2s-.1.1-.1.1h-.5c-.4 0-.9 0-1.4-.1-.5 0-.8-.1-.8-.1.1.1.5 0 1.4 0zm-8.9 1.1c.1.2 0 .2-.1.3-.1.1-.3.1-.4.1-.1 0-.3 0-.4-.1-.1 0-.1-.1-.1-.2l.6-.1c.1-.1.2 0 .4 0zm-6.1-16.7s.1.5.4 1.6c.2.8.3 1.5.5 2.2.2.9.4 1.4.4 1.6.1.2.3.9.5 2 .2.9.4 1.8.6 2.8.2 1 .4 1.6.4 1.8.2.5.3.9.4 1.3.4 1.5.6 2.3.6 2.5.1.3.2.6.2.8.1.4.1.6.2.7.1.1.6.2 1.5.2.3 0 .5 0 .5-.1.1-.1.2-.4.3-1l1.9-8.9.5-1.9 1.3-5.7-.1-.1h-.1c-.1 0-.3 0-.7.1-.4.1-.7.1-.8.1h-.1c-.2 0-.3 0-.3.1 0 0-.1.1-.1.3-.2.5-.4 1.5-.6 3-.4 2.2-.9 4.8-1.6 7.5 0 .2-.1.5-.1.9-.1.4-.1.7-.2 1-.1.3-.1.4-.1.5v.1s-.1-.2-.2-.6c0-.1-.1-.5-.3-1.3-.1-.8-.3-1.7-.5-2.7-.2-1-.3-1.8-.4-2.2-.2-.9-.5-2.2-.8-4.1-.1-.6-.2-1.2-.3-1.7l-.2-.7c-.1-.2-.2-.3-.4-.3h-.7c-1.1-.1-1.6 0-1.6.2zm2.1 1c.1.1.1.2.1.4s0 .3-.1.3-.1-.1-.1-.2 0-.2-.1-.4v-.1c0-.1 0-.1.1-.1 0-.1.1-.1.1.1zm7.3-.3c-.1.4-.2.7-.2.7-.1.4-.2.6-.3.6 0 0-.1 0-.1-.1 0 0 0-.1.1-.3.1-.7.3-1.1.4-1.1.1 0 .1 0 .1.1v.1zm-2.7 11l-.2.4v-.1c0-.1 0-.3.1-.5s.2-.3.2-.3v.1c.1 0 0 .2-.1.4zm-3-4.1c.2.7.3 1.2.3 1.5v.1c-.1 0-.1 0-.1-.1 0 0 0-.1-.1-.4-.1-.3-.1-.5-.2-.8-.1-.3-.1-.5-.1-.5v-.2-.1c.1 0 .1.2.2.5zm-1.7-3.7v1.3s-.1-.2-.2-.6c-.1-.4-.1-.6-.1-.7 0-.2 0-.3.1-.3s.2.1.2.3zm-4.1 11.1c.1 0 .1.2.1.5V30.7c0 .2 0 .3-.1.5-.1 0-.1-.3-.1-1 .1-.1.1-.3.1-.3zm.5-2.4v.2c0 1.1 0 1.7-.1 1.7 0 0 0-.3-.1-.9 0-.6-.1-1-.1-1.2 0-.3 0-.5.1-.5l.1.1c.1.2.1.4.1.6zm-.2-5.3c0 .2 0 .3-.1.3 0 0-.1-.2-.1-.7-.1-.5-.1-.8-.1-.9 0-.1 0-.3.1-.6s.1-.5.1-.5 0 .4.1 1.1v1.3zm-1.6-7.4v4.5c0 1.7.1 3.8.2 6.3.1 2.1.1 3.6.1 4.5 0 1.4.1 2.1.2 2.2.1.1.3.1.6.1h.8l.7-.1-.1-2.2c0-.3 0-.9-.1-1.9 0-1-.1-1.8-.1-2.3 0-.6-.1-2.8-.1-6.6v-2-1.6-.6c0-.2 0-.3-.1-.4 0 0-.2-.1-.3-.1l-1.5-.2h-.1s0 .1-.1.1c0 .2-.1.3-.1.3zm-2.6 1h.6c.1 0 .1 0 .1.1v.1c0 .1-.1.1-.1.1-.1 0-.1.1-.2.1h-.4-.1-.8H162.5h.1c.2-.3.7-.4 1.6-.4zm-3.6 2.8c0 .1 0 .1.1.2 0 .1 0 .2.1.3 0 .2.1.3.1.5V20.9l-.3 1.5v-.1c-.1-.4-.1-.7-.1-1 0-.3 0-.8.1-1.4v-1.3zm-.2-4.1h-1.7c-1.2 0-1.9 0-2.1.1-.3.1-.4.1-.4.2v.2c.1.5.2 1.2.3 2 0 .1 0 .1.1.2.1.2.1.4.3.4h2.5v5.5c0 .4 0 1.6.1 3.7 0 .5 0 1.1.1 1.9 0 .8 0 1.4.1 1.9V32c0 .1 0 .1.1.1H161c.2 0 .4 0 .4-.1.1 0 .1-.1.1-.3v-6-4.2-2.7c0-1 .1-1.6.1-1.7.1-.1.5-.2 1.4-.2h1.6c.3 0 .4-.1.6-.1 0-.1.1-.2.1-.5v-.5-.5-.1-.6H163c-1.8-.2-2.6-.2-2.6-.1zm-.1.3c0 .1 0 .1 0 0-.8.1-1.2.1-1.3.2-.1 0-.1 0-.1-.1s.1-.2.2-.2c.8 0 1.2 0 1.2.1zm-.3 14.3c0 1.4 0 2.2-.1 2.2-.1-.1-.1-.6-.1-1.5.1-.5.1-.7.2-.7zm-6.4-12.5v.4c0 .5 0 .8-.1.8 0 0 0-.1-.1-.4 0-.2 0-.4-.1-.7v-.4c-.1-.2 0-.2.1-.2 0 0 .1 0 .1.1v.2c0 .1 0 .2.1.2zm-1.6-.9c0 .1 0 .2-.1.3h-.5c-.1 0-.3 0-.4-.1-.2 0-.3-.1-.4-.1-.1 0-.2-.1-.2-.1-.4 0-.6 0-.6-.1s.2-.1.6-.1h.1c.9 0 1.5 0 1.5.2zm2.1 4.8c0 .4-.1.6-.1.6s-.1-.2-.1-.6c0-.3-.1-.7-.1-1.1 0-.5 0-.7.1-.7s.1.4.1 1.1v.7zm-7.4-6.1l-1.9-.1h-.1c-.2 0-.3 0-.4.1-.1.1-.1.2-.1.3v3.4c0 6.8 0 10.9-.1 12.3 0 .1 0 .2-.1.4 0 .2-.1.3-.1.4 0 .3.2.5.5.5h1.5c.2 0 .3-.1.3-.1.1-.1.1-.1.1-.3V30c0-3.5.1-5.3.1-5.4.1 0 1.6-.2 4.7-.4.2 0 .6 0 1.1-.1.5 0 .9 0 1.1-.1h1s.1-.3.1-.8c.1-1.8.1-2.8.1-3.3l.1-4.7V15c0-.2-.1-.3-.3-.4-.1 0-.7-.1-1.7-.1h-.6c-.3 0-1.2 0-2.7-.1h-2.6zm5.5 2.2c.1.2.1 1.4.1 3.6 0 1.3 0 2-.1 2.2 0 .1-.5.1-1.5.2s-1.8.1-2.6.1c-.9 0-1.4 0-1.6-.1-.1-.1-.2-1.6-.3-4.7v-.8-.4c0-.1.3-.2.9-.3h4.8l.1.1c.2-.1.2 0 .2.1zm-7 .7c0 .8 0 1.2-.1 1.2s-.1-.4-.1-1.2c0-.7 0-1.1.1-1.1 0 0 .1.3.1 1.1zm-.3 11.8c0 .1 0 .3-.1.7-.1.4-.1.6-.1.6-.1 0-.1-.5-.1-1.4 0-1.3 0-1.9.1-1.9 0 0 .1.3.1.9.1.7.1 1 .1 1.1zm-8.2-13.2c0-.1-.1-.1 0 0-.1-.1.1-.1.4-.1H137.9v.1h-.2-.1-.1c-.4.1-.6 0-.8 0zm3.4-1.2h-5.2c-.7 0-1.3-.1-1.7-.1h-.6c-.1 0-.2.1-.2.4v.4c0 1.3 0 3-.1 5.2v3.7c0 2.5 0 4.2-.1 5.1v1.4c0 .5 0 .8.1.9 0 .1.2.2.4.2h4.4c1.2 0 2.2 0 2.9.1 1.1.1 1.8.1 2.2.1h.4c.1 0 .1-.3.2-.7 0-.4.1-.8.1-1.2V29.9c0-.1-.2-.1-.5-.1h-.5c-.5 0-1.4.1-2.7.1-2.7 0-4-.1-4.1-.2v-1.1c0-1.7 0-2.7.1-3 .1-.1.2-.2.4-.2h.6c1.3.1 2.5.1 3.6.1h1.5c.6 0 .9-.1.9-.1v-.3-.3-.4c0-.2 0-.3-.1-.4v-.2-.1-.1-.1h-.1-.1-.1c-.1 0-.2 0-.3-.1-.2 0-1.6-.1-4.3-.2-1.4 0-2.1-.1-2.2-.2v-.3-.7-1.2c0-.8 0-1.6.1-2.5 0-.7.1-1.1.2-1.2.1-.1.6-.1 1.5-.1.6 0 1.5 0 2.4.1 1 0 1.7.1 2.2.1h.7c.1 0 .2 0 .4.1h.2c.1-.1.2-.7.2-1.6 0-.3 0-.5-.1-.6-.7-.3-1.4-.4-2.7-.4zm-7.1 2.7c0 .5 0 1-.1 1.4l-.1.3v-.5-1c0-.7.1-1 .2-1v.8zm2.9 7.1c0 .1-.1.1-.4.1-.3 0-.4 0-.4-.1s.1-.1.4-.1c.2 0 .4 0 .4.1zm-2.7-2.5c0 1.3 0 1.9-.1 1.9s-.1-.5-.1-1.6V22l.1-.1c.1-.1.1 0 .1.1zm.7 5.7c0 .3 0 .4-.1.4s-.1-.2-.1-.5c0-.5 0-.8.1-1l.1-.1v1.2zm1.4 2.9c1.6 0 2.3 0 2.3.1s-.3.1-.9.1h-1.8v-.1-.1h.4zm4.4.6c-.1 0-.1 0 0 0l.3-.1H140.9c.1 0 .1.1.2.1l.1.1h-.1-.4c-.1.1-.5 0-1-.1z"/>
  <path class="st0" d="M259.3 16.7c-.3-.1-.4-.1-.4-.2s.4-.1 1.2-.1c.7 0 1.1 0 1.3.1 0 .1-.5.2-1.4.2h-.7zm-4.1 8.3c0 .2-.1.4-.2.4s-.1-.4-.1-1.2c0-.7 0-1.1.1-1.3.1 0 .2.6.2 1.7v.4zm-.3 1.2c0 .3-.1.5-.1.6h-.1c-.1 0-.1-.1-.1-.4 0-.1 0-.2.1-.4s.1-.3.2-.3.1.1.1.2c0 .2 0 .2-.1.3zm.3 1.3v.3c-.1 0-.1-.1-.1-.3v-.1l.1-.2c-.1.1-.1.2 0 .3zm6.7 2.6h1.7c.1.1.1.1 0 .1-.5.1-1 .2-1.5.2h-.2c-.1 0-.3-.1-.4-.1-.2-.1-.2-.1-.1-.2 0 0 .1-.1.2-.1h.2c0 .1 0 .1.1.1zM256.7 15c-.2 0-.8 0-1.7.1H254.7c-.1 0-.1.1-.1.3v.2c-.1 2.3-.2 6.4-.3 12.3v1.3c0 1.4 0 2.2.1 2.3.1.1.5.2 1.4.2h1c5 0 7.5 0 7.6-.1.1 0 .1-.2.1-.6V29.6c0-.1 0-.2-.1-.2h-.5c-3.1 0-4.9.1-5.6.2-.7.1-1.1.1-1.3.1h-.2-.1v-.1-.1c0-.1 0-.6-.1-1.6-.1-3.6-.1-5.8-.1-6.7 0-1.4 0-2.2.1-2.4.1-.7.1-1.1.2-1.2l.1-.1c.1 0 .3 0 .7.1.4 0 .7.1 1 .1l5 .3h.1c.2 0 .3-.1.3-.3v-.2V15.6v-.4c0-.1-.1-.1-.3-.1h-.2c-2.3-.2-4.5-.1-6.8-.1zm-1.4 3.8c-.1 0-.2-.4-.2-1.2v-.2-.2l.1-.3.1.3c0 .2.1.6.1 1.3-.1.2-.1.3-.1.3zm-8.5-2.9c0-.1-.1-.1 0 0-.1-.1.1-.1.4-.1H248v.1h-.2-.1-.1c-.4.1-.6 0-.8 0zm3.4-1.2H245c-.7 0-1.3-.1-1.7-.1h-.6c-.1 0-.2.1-.2.4v.4c0 1.3 0 3-.1 5.2v3.7c0 2.5 0 4.2-.1 5.1v1.4c0 .5 0 .8.1.9 0 .1.2.2.4.2h4.4c1.2 0 2.2 0 2.9.1 1.1.1 1.8.1 2.2.1h.4c.1 0 .1-.3.2-.7 0-.4.1-.8.1-1.2V29.9c0-.1-.2-.1-.5-.1h-.5c-.5 0-1.4.1-2.7.1-2.7 0-4-.1-4.1-.2v-1.1c0-1.7 0-2.7.1-3 .1-.1.2-.2.4-.2h.6c1.3.1 2.5.1 3.6.1h1.5c.6 0 .9-.1.9-.1v-.3-.3-.4c0-.2 0-.3-.1-.4v-.2-.1-.1-.1h-.1-.1-.1c-.1 0-.2 0-.3-.1-.2 0-1.6-.1-4.3-.2-1.4 0-2.1-.1-2.2-.2v-.3-.7-1.2c0-.8 0-1.6.1-2.5 0-.7.1-1.1.2-1.2.1-.1.6-.1 1.5-.1.6 0 1.5 0 2.4.1 1 0 1.7.1 2.2.1h.7c.1 0 .2 0 .4.1h.2c.1-.1.2-.7.2-1.6 0-.3 0-.5-.1-.6-.7-.3-1.4-.4-2.7-.4zm-7.1 2.7c0 .5 0 1-.1 1.4l-.1.3v-.5-1c0-.7.1-1 .2-1v.8zm2.9 7.1c0 .1-.1.1-.4.1-.3 0-.4 0-.4-.1s.1-.1.4-.1c.2 0 .4 0 .4.1zm-2.7-2.5c0 1.3 0 1.9-.1 1.9s-.1-.5-.1-1.6V22l.1-.1c.1-.1.1 0 .1.1zm.7 5.7c0 .3 0 .4-.1.4s-.1-.2-.1-.5c0-.5 0-.8.1-1l.1-.1v1.2zm1.4 2.9c1.6 0 2.3 0 2.3.1s-.3.1-.9.1H245v-.1-.1h.4zm4.4.6s-.1 0 0 0l.3-.1H251c.1 0 .1.1.2.1l.1.1h-.1-.4c-.1.1-.5 0-1-.1zM235 22.5v9.4c.1.1.3.1.6.1h.8l.6-.1c.2 0 .3-.1.3-.4v-.8-1.1c0-1.3-.1-2.4-.1-3.4V25v-2.1-.4l4-7.4s0-.1.1-.1l.1-.1v-.1c0-.1-.2-.1-.6-.1h-.6c-.7 0-1.1 0-1.2.1-.1 0-.2.3-.5.8s-.6 1.2-1.1 2.1c-.5.9-.9 1.7-1.4 2.4l-.2.2-.2-.2-2.9-5-.2-.4c-.1-.1-.5-.1-1.2-.1s-1.1 0-1.1.1l2 3.4c.1.2.4.6.8 1.1.4.5.7 1 1 1.5.3.4.6 1 1 1.8zm.7 2.8c0 .2 0 .3-.1.3 0 0-.1-.2-.1-.7-.1-.5-.1-.8-.1-.9 0-.1 0-.3.1-.6s.1-.5.1-.5c0-.1.1.8.1 2.4zm.8 1.3v.2c0 1.1 0 1.6-.1 1.6l-.1-.4c0-.3 0-.6-.1-1v-.7-.5l.1.1c.1.3.2.5.2.7zm-.5 2.9c.1.1.1.2.1.2V30.3c0 .1 0 .3-.1.5-.1-.3-.1-.6-.1-1 0-.1 0-.3.1-.3zm-1.6-10.2c.4.5.6.8.6 1h-.1c-.1 0-.3-.2-.6-.6-.3-.4-.5-.6-.5-.8 0-.1-.1-.2-.3-.2-.2 0-.3 0-.3-.1s.1-.1.2-.1c.2 0 .5.3 1 .8zm-2-2.8v.2c-.1 0-.2-.1-.3-.3-.1-.2-.2-.4-.2-.5v-.1c.2 0 .3.2.5.7zm6.6-.9s0-.1.1-.1h.2s.1 0 .1.1-.1.3-.2.5-.2.3-.2.4l-.4.9s-.1.1-.1.2c-.1.1-.1.2-.2.2 0 .1-.1.1-.2.1-.1.1-.2.1-.2.1h-.1-.1s0-.1.1-.2.1-.2.2-.3c.1-.1.1-.2.2-.2l.4-.8c.2-.3.3-.6.4-.9zm-19.5 14.6c0 .1 0 .2-.1.2s-.1-.1-.1-.2c0-1 0-1.5.1-1.5 0 0 .1.2.1.7-.1.4 0 .7 0 .8zm8.7-5.2l-.1.6v-1c0-.3 0-.5.1-.5 0 .1.1.1.1.3-.1.2-.1.3-.1.6zm-7.8-.6c.1 1 .1 1.5.1 1.7 0 .8 0 1.2-.1 1.2 0 0-.1-.4-.2-1.1-.1-.7-.1-1.4-.1-2 0-.4 0-.6.1-.6s.2.2.2.8zm6.7 6.2V30.9c-.1 0-.1-.1-.1-.3 0-.2 0-.3.1-.3v.3zm-3-8.3c.2.4.3.7.3.8 0 .1 0 .1-.1.1s-.1 0-.1-.1c0 0-.1-.2-.2-.6-.2-.3-.2-.5-.2-.6v-.1c.1.1.2.2.3.5zm-.9-.5c0 .2.1.5.3.8l-.4-.5-.3-.6-.3-.6c0-.1 0-.1.2-.1 0 0 .1.1.3.4.1.4.2.6.2.6zm-3.8-1c0 .8 0 1.3-.1 1.3s-.1-.4-.1-1.3c0-.2 0-.3.1-.3 0 .1.1.2.1.3zm9.7 1.3c0 .3-.1.4-.2.4 0 0-.1-.1-.1-.2 0-.3.1-.6.2-.8.1 0 .1.1.1.2.1.1.1.2 0 .4zm-9.2-4.8c0 .5-.1.8-.2.8s-.1-.2-.1-.5c0-.2 0-.5.1-.7 0-.2.1-.3.1-.3.1 0 .1.2.1.5v.2zm8.6 1.1c-.1.6-.1.9-.2.9s-.1-.2-.1-.6c0-.7.1-1.1.2-1.1s.1.1.1.3v.5zm-.2-1.6c0 .1 0 .2-.1.2l-.1-.1c-.1-.1-.1-.1-.1-.2v-.1c0-.1.1-.2.1-.2.1.1.2.2.2.4zm-.7-.7v2.5c0 .4-.1 1-.1 1.6v1l-.1 1.7-.1 4.2-.1.8c0-.4-.8-2.3-2.4-5.6l-.7-1.5c-.1-.3-.3-.9-.6-1.7-.3-.8-.5-1.3-.6-1.5 0-.1-.1-.2-.2-.4s-.2-.4-.2-.6c-.1-.2-.2-.3-.2-.5 0-.1-.1-.1-.1-.3 0-.1-.1-.2-.1-.2s0-.1-.1-.1c0-.1 0-.1-.1-.1v-.1l-.1-.1h-.1-.1c-.8-.1-1.7-.2-2.9-.2h-.2v6.9c0 2.6 0 4.7-.1 6.3v3.4c0 .2.1.3.3.3h.7c.3 0 .5-.1.6-.1h.6v-.1-3.3V27v-2.3-2.4c-.1-3.3-.1-4.9-.1-5 0 0 0 .1.1.3 0 .2.1.4.2.7.1.3.1.4.2.5.6 1.3 1.1 2.4 1.6 3.4.4 1 .9 2.3 1.5 3.8s1.1 2.8 1.4 3.7c.4 1 .6 1.6.6 1.6s.5.1 1.6.1c.7 0 1.1.1 1.1.1.3 0 .5-.1.5-.2v-2.5-1.6-2.5-2.2c.1-3 .1-4.8.1-5.3v-1.5c0-.1 0-.2-.1-.3-.1-.1-.2-.1-.4-.1h-1c-.2 0-.3 0-.5.1-.1.1-.2.1-.2.2v.2c.4.2.4.3.4.3zm-11.9 13.8c.1 0 .1.2.1.5V30.7c0 .2 0 .3-.1.5-.1 0-.1-.3-.1-1 0-.1 0-.3.1-.3zm.5-2.4v.2c0 1.1 0 1.7-.1 1.7 0 0 0-.3-.1-.9 0-.6-.1-1-.1-1.2 0-.3 0-.5.1-.5l.1.1c0 .2.1.4.1.6zm-.2-5.3c0 .2 0 .3-.1.3 0 0-.1-.2-.1-.7-.1-.5-.1-.8-.1-.9 0-.1 0-.3.1-.6s.1-.5.1-.5 0 .4.1 1.1c-.1.6 0 1.1 0 1.3zm-1.6-7.4v4.5c0 1.7.1 3.8.2 6.3.1 2.1.1 3.6.1 4.5 0 1.4.1 2.1.2 2.2.1.1.3.1.6.1h.8l.7-.1-.1-2.2c0-.3 0-.9-.1-1.9 0-1-.1-1.8-.1-2.3 0-.6-.1-2.8-.1-6.6v-2-1.6-.6c0-.2 0-.3-.1-.4 0 0-.2-.1-.3-.1l-1.5-.2h-.1s0 .1-.1.1c-.1.2-.1.3-.1.3zm-10.8 11.7c-.1.3-.1.5-.1.5v-.3c0-.7.1-1.1.2-1.1 0 0 .1.2.1.6-.2.2-.2.3-.2.3zm-7-4.6c.1 0 .5.1 1 .3.5.1.8.2.8.2h-.1c-.1 0-.6-.1-1.6-.2-.2 0-.3-.1-.3-.2s.1-.1.2-.1zm-1.5-2.3c-.1.3-.1.4-.2.4 0 0-.1-.1-.1-.4 0-.6.1-1 .2-1.2.1-.1.1-.2.1-.2s0 .1.1.4v.2c0 .3 0 .6-.1.8zm5.7-3.8h-1.4c-.3 0-.5 0-.5-.1s.1-.1.5-.1h.2c.8 0 1.2 0 1.2.2zm-4-1.6c-1.3.1-2 .1-2 .1l-.1 1c0 .4-.1.9-.2 1.5-.1.4-.1 1.2-.2 2.6-.1 1.3-.2 2.2-.2 2.7s0 .8.1.8c.1.1.5.1 1.3.1.6 0 1.7 0 3.2-.1 1.5-.1 2.4-.1 2.8-.1.8 0 1.3 0 1.4.1.1 0 .2.7.2 2.1v1.6c0 1.5-.2 2.3-.7 2.3-.2.1-1.2.1-3 .3-1.8.1-3.1.2-3.7.2-.6 0-.9 0-1 .1v.2c0 .3 0 .7.1 1.3.1.6.1.9.1.9h.2c.1 0 .2 0 .4-.1H196.8c.5 0 1.9-.2 4.2-.5 1.2-.2 2-.3 2.4-.4.3 0 .7 0 1.3-.1.4 0 .6-.1.7-.1.1-.1.1-.3.1-.6v-3.6-2.6-2c0-.4-.1-.6-.2-.7-.1-.1-.4-.2-.8-.2h-7.3c-.4 0-.7 0-.7-.1-.2-.1-.3-.2-.3-.3 0-.3.1-1 .2-2.3.1-1.3.2-2 .3-2.1l.3-.2 1.8.1c1 0 1.7.1 2.1.1.2 0 .9.1 2.1.2 1.2.1 1.9.1 2.1.1v-1.1l-.1-1c-.2-.2-1.3-.2-3.4-.2-1.1-.1-2.8 0-4.8 0zm1.4 15.6h1c.1 0 .1 0 .1.1s0 .1-.1.1-.3.1-.6.1h-.6c-.3-.1-.5-.1-.5-.1 0-.1.1-.1.2-.1h.2c.1-.1.2-.1.3-.1zm-3.1.9c0-.2 0-.3.1-.3h.1c.1.1.1.3.1.7 0 .2 0 .3-.1.4h-.2v-.4-.1c-.1-.2 0-.3 0-.3z"/>
  <path class="st0" d="M311.3 15.9c0-.1-.1-.1 0 0-.1-.1.1-.1.4-.1H312.5v.1h-.2-.1-.1c-.4.1-.6 0-.8 0m3.4-1.2h-5.2c-.7 0-1.3-.1-1.7-.1h-.6c-.1 0-.2.1-.2.4v.4c0 1.3 0 3-.1 5.2v3.7c0 2.5 0 4.2-.1 5.1v1.4c0 .5 0 .8.1.9 0 .1.2.2.4.2h4.4c1.2 0 2.2 0 2.9.1 1.1.1 1.8.1 2.2.1h.4c.1 0 .1-.3.2-.7 0-.4.1-.8.1-1.2V29.9c0-.1-.2-.1-.5-.1h-.5c-.5 0-1.4.1-2.7.1-2.7 0-4-.1-4.1-.2v-1.1c0-1.7 0-2.7.1-3 .1-.1.2-.2.4-.2h.6c1.3.1 2.5.1 3.6.1h1.5c.6 0 .9-.1.9-.1v-.3-.3-.4c0-.2 0-.3-.1-.4v-.2-.1-.1-.1h-.1-.1-.1s-.2 0-.3-.1c-.2 0-1.6-.1-4.3-.2-1.4 0-2.1-.1-2.2-.2v-.3-.7-1.2c0-.8 0-1.6.1-2.5 0-.7.1-1.1.2-1.2.1-.1.6-.1 1.5-.1.6 0 1.5 0 2.4.1 1 0 1.7.1 2.2.1h.7c.1 0 .2 0 .4.1h.2c.1-.1.2-.7.2-1.6 0-.3 0-.5-.1-.6-.7-.3-1.4-.4-2.7-.4zm-7.1 2.7c0 .5 0 1-.1 1.4l-.1.3v-.5-1c0-.7.1-1 .2-1v.8zm2.9 7.1c0 .1-.1.1-.4.1-.3 0-.4 0-.4-.1s.1-.1.4-.1c.2 0 .4 0 .4.1zm-2.7-2.5c0 1.3 0 1.9-.1 1.9s-.1-.5-.1-1.6V22l.1-.1c.1-.1.1 0 .1.1zm.7 5.7c0 .3 0 .4-.1.4s-.1-.2-.1-.5c0-.5 0-.8.1-1l.1-.1v1.2zm1.4 2.9c1.6 0 2.3 0 2.3.1s-.3.1-.9.1h-1.8v-.1-.1h.4zm4.4.6s-.1 0 0 0l.3-.1H315.5c.1 0 .1.1.2.1l.1.1h-.1-.4c-.1.1-.5 0-1-.1zm-10.7-.3c0 .1-.3.2-.9.3-.6.1-1.1.2-1.4.2-.1 0-.2 0-.2-.1 0 0 .2-.1.5-.2s.5-.1.6-.1h1.2c.1-.1.2-.1.2-.1zm-3.9-13.8c0 .1 0 .3-.1.8 0 .4-.1.8-.1 1.2 0 .4-.1.6-.1.6v-.1-.4-.8c0-.8.1-1.3.1-1.5.1-.2.1-.3.1-.3s.1.1.1.2V17.1zm-1-2.7s-.1 0-.2.1h-.1-.1l-.1.1V14.9l-.1.6c-.2 1.4-.5 6.1-.9 14.1l-.1 1.6V31.5c0 .2 0 .3.1.4.1.1.2.1.4.1h7.4s.1 0 .1-.1l.1-.1v-.1-.2-.2l.1-.9c0-.2 0-.4-.1-.4 0 0-.1-.1-.4-.1h-.4c-3.3-.1-4.9-.1-5-.2v-.5-.3-.5c.1-.9.2-2.3.3-4.2.1-1.9.2-3.7.3-5.2.1-1.5.2-2.4.2-2.8.1-.8.2-1.3.2-1.5v-.1c0-.2-.1-.3-.3-.3h-.1c-.3 0-.8 0-1.3.1zm0 1.9c-.1.4-.1.7-.2.7s-.1-.1-.1-.3v-.1c0-.2 0-.4.1-.6 0-.2.1-.4.1-.4s.1.1.1.2v.5zM298 28c0 .1 0 .1 0 0 0 .2 0 .3-.1.4-.1.1-.1.2-.2.2v-.1-.2c0-.3.1-.8.2-1.3.1-.6.2-.8.2-.8v.2c0 .7-.1 1.1-.1 1.3V28zm-12.6 3.1c0 .2 0 .4-.1.4s-.1-.1-.1-.3c0-.1 0-.1.2-.1-.1 0 0 0 0 0zm6.4-7.6c0 .2-.3.2-1 .2h-.4c-.1-.1-.3-.2-.8-.3 1.4-.1 2.1 0 2.2.1zm-6-7.2c0 .2-.1.4-.1.4-.1 0-.1-.1-.1-.3 0-.2 0-.3.1-.3l.1-.1c-.1-.1 0 0 0 .3zm.4 0c-.1.1-.1 0-.1-.1-.1-.1-.1-.1-.1-.2v-.3-.8s.1.2.1.6c.1.4.1.7.1.8zm4 .4l1.5.1c.4 0 .6.1.7.1.1.1.2.2.2.5V22l-.1.1H287.9 287.6c-.2 0-.3-.1-.3-.4V21c0-.7 0-1.6.1-2.7s.1-1.6.2-1.7c0 0 .2-.1.4-.1s.6 0 1.1.1c.4 0 .8.1 1.1.1zm3.2-1.5c0 .6 0 .8-.1.8s-.1-.3-.1-.8c0-.1.1-.1.1-.1.1-.1.1 0 .1.1zm.7 11.7c0 .1 0 .1-.1.2V27.1c0-.7.1-1 .1-1 .1 0 .1.2.1.6 0 .1 0 .2-.1.2zm-4.8-4.3c.1 0 .4.1.9.3.5.1.8.2.8.3h-.1c-.1 0-.6-.1-1.5-.2-.2 0-.3-.1-.3-.2v-.1c0-.1 0-.1.1-.1h.1zm0 7.6H290.9c.1 0 .1 0 .1.1s0 .1-.1.1c-.5.1-.9.1-1.5.1h-.2c-.4-.1-.6-.1-.6-.3 0 0 .1-.1.2-.1h.2c.2.1.2.1.3.1zm-2.9-2.4c0-.2 0-.3.1-.3.1.1.1.3.1.6v.4h-.1-.1c0-.2-.1-.4-.1-.5v-.1c.1 0 .1-.1.1-.1zm1.1-3.1v-.2h.2c.8-.1 1.8-.1 3.1-.1h.1c1.4 0 2.2 0 2.4.1.1 0 .1.5.1 1.5v3.2c0 .2-.1.3-.2.3-.3.1-2.2.3-5.6.4-.1 0-.2 0-.2-.1v-.2c0-.6 0-1.4.1-2.6v-2.3zm-1.6 7.4l.9.1h1.4c1 0 2.3-.1 4-.4.5-.1.9-.1 1.2-.2.3-.1.6-.1.8-.3.3-.1.5-.2.6-.3.1-.1.3-.2.4-.4.1-.2.2-.4.3-.5 0-.1.1-.4.1-.7 0-.4.1-.7.1-.9 0-.2 0-.6.1-1.2 0-1.2-.2-2.2-.4-2.8 0-.2-.2-.4-.6-.8-.4-.4-.7-.6-1.1-.7 0 0 .1 0 .2-.1l.2-.2.2-.2c.1-.1.2-.2.2-.3.1-.1.1-.2.2-.3.1-.1.1-.2.1-.4 0-.1.1-.3.1-.4v-3.8-.7c0-.2 0-.4-.1-.6-.1-.2-.1-.3-.1-.5 0-.1-.1-.2-.3-.3-.1-.1-.3-.2-.4-.3-.1-.1-.3-.1-.5-.2-.3-.1-.5-.1-.6-.1-.2 0-.4-.1-.8-.1s-.7-.1-1-.1h-1.2c-1.4 0-2.7-.1-3.8-.1H285.1h-.1v.4c-.1 2.2-.1 6.4-.1 12.5V31.8s.1.1.3.1c.3.1.5.1.7.2zm-8.9-7.7v-.1l1.1-6.7h.9l1.1 7.2-3.1-.4zm-1.9 3.8c0 .1-.1.2-.2.2s-.1-.1-.1-.2 0-.4.1-.8.2-.6.2-.6.1.1.1.2v.6c-.1.4-.1.6-.1.6zm1.5-3.7c0 .3-.1.5-.2.5v-.4c0-.1.1-.4.2-.8s.1-.6.1-.7c0-.1 0-.1.1-.1v.1c0 .3-.1.8-.2 1.4zm3.8-4.1c.1.1.1.5.3 1.2.1.7.2 1.1.2 1.2 0 .1 0 .1-.1.1s-.2-.4-.4-1.2c-.2-.8-.3-1.3-.3-1.5v-.1c.1-.1.2.1.3.3zm2.7 11c0 .2 0 .2-.1.2s-.3-.4-.4-1.1c0-.1-.1-.2-.1-.3 0-.1 0-.1.1-.1s.2.2.3.6c0 0 .1.3.2.7zm-7.9-.7c0 .1-.1.2-.1.2-.1 0-.1-.1-.1-.1v-.1c0-.2.1-.3.1-.4 0-.1 0-.1.1-.1s.1.1.1.3c-.1-.1-.1.1-.1.2zm-2 .9c0 .2.5.3 1.4.3h.7c.2 0 .3-.1.4-.3 0-.2.1-.4.1-.7.2-.9.3-1.4.4-1.7l.4-2.7c.6 0 1.1 0 1.5-.1l2.6-.1c.1.7.2 1.8.5 3.1.2 1.3.4 2.1.4 2.3v.1c0 .1.1.2.1.2s.1.1.3.1h.1c.1 0 .5 0 .9.1.5.1.8.1.9.1h.1v-.1l-1.3-5.7-.4-1.9-1.8-8.9c-.1-.6-.2-1-.3-1 0-.1-.4-.1-.9-.1-1.3 0-1.9.1-2 .2-.1.1-.1.3-.2.7l-2.3 9.3c-.2.9-.7 2.7-1.3 5.3-.1.9-.3 1.5-.3 1.5zm6.5-16.2c-.1 0-.2 0-.3-.1-.1 0-.1-.1-.2-.1H278.6c0-.1 0-.2.1-.2s.3-.1.4-.1c.1 0 .2 0 .4.1.1 0 .2.1.2.2.1.1 0 .2 0 .2zm-1.6 10.4s-.1 0 0 0c-.1-.1 0-.1 0 0 .2-.1.3-.1.4-.1h1.2c.2 0 .3 0 .3.1v.1c0 .1-.1.1-.2.1s-.1 0-.3-.1c-.2 0-.3-.1-.3-.1h-.7c-.1.1-.3.1-.4 0zm4 1.3c0-.1 0-.1 0 0 .1-.1.2.2.2.6v.1c0 .3 0 .5-.1.5v-.1c-.1-.3-.1-.5-.1-.6v-.5zm-8.7-11.3h.6c.1 0 .1 0 .1.1v.1c0 .1-.1.1-.1.1-.1 0-.1.1-.2.1h-.4-.1-.8H271.7h.1c.2-.3.7-.4 1.6-.4zm-3.6 2.8c0 .1 0 .1.1.2 0 .1 0 .2.1.3 0 .2.1.3.1.5V20.9l-.3 1.5v-.1c-.1-.4-.1-.7-.1-1 0-.3 0-.8.1-1.4v-1.3zm-.2-4.1h-1.7c-1.2 0-1.9 0-2.1.1-.3.1-.4.1-.4.2v.2c.1.5.2 1.2.3 2 0 .1 0 .1.1.2.1.2.1.4.3.4h2.5v5.5c0 .4 0 1.6.1 3.7 0 .5 0 1.1.1 1.9 0 .8 0 1.4.1 1.9V32c0 .1 0 .1.1.1H270.2c.2 0 .4 0 .4-.1.1 0 .1-.1.1-.3v-6-4.2-2.7c0-1 .1-1.6.1-1.7.1-.1.5-.2 1.4-.2h1.6c.3 0 .4-.1.6-.1 0-.1.1-.2.1-.5v-.5-.5-.1-.6h-2.3c-1.8-.2-2.6-.2-2.6-.1zm-.1.3c0 .1 0 .1 0 0-.8.1-1.2.1-1.3.2h-.1c-.1 0-.1 0-.1-.1s.1-.2.2-.2c.9 0 1.3 0 1.3.1zm-.3 14.3c0 1.4 0 2.2-.1 2.2-.1-.1-.1-.6-.1-1.5.1-.5.1-.7.2-.7z"/>
  <path class="st0" d="M327.6 26.5c-.1.3-.1.5-.1.5v-.3c0-.7.1-1.1.2-1.1 0 0 .1.2.1.6-.1.2-.1.3-.2.3m-7-4.6c.1 0 .5.1 1 .3.5.1.8.2.8.2h-.1c-.1 0-.6-.1-1.6-.2-.2 0-.3-.1-.3-.2s.1-.1.2-.1zm-1.5-2.3c-.1.3-.1.4-.2.4 0 0-.1-.1-.1-.4 0-.6.1-1 .2-1.2.1-.1.1-.2.1-.2s0 .1.1.4v.2c0 .3 0 .6-.1.8zm5.8-3.8h-1.4c-.3 0-.5 0-.5-.1s.1-.1.5-.1h.2c.8 0 1.2 0 1.2.2zm-4-1.6c-1.3.1-2 .1-2 .1l-.1 1c0 .4-.1.9-.2 1.5-.1.4-.1 1.2-.2 2.6-.1 1.3-.2 2.2-.2 2.7s0 .8.1.8c.1.1.5.1 1.3.1.6 0 1.7 0 3.2-.1 1.5-.1 2.4-.1 2.8-.1.8 0 1.3 0 1.4.1.1 0 .2.7.2 2.1v1.6c0 1.5-.2 2.3-.7 2.3-.2.1-1.2.1-3 .3-1.8.1-3.1.2-3.7.2-.6 0-.9 0-1 .1v.2c0 .3 0 .7.1 1.3.1.6.1.9.1.9h.2c.1 0 .2 0 .4-.1H320.9c.5 0 1.9-.2 4.2-.5 1.2-.2 2-.3 2.4-.4.3 0 .7 0 1.3-.1.4 0 .6-.1.7-.1.1-.1.1-.3.1-.6v-3.6-2.6-2c0-.4-.1-.6-.2-.7-.1-.1-.4-.2-.8-.2h-7.3c-.4 0-.7 0-.7-.1-.2-.1-.3-.2-.3-.3 0-.3.1-1 .2-2.3.1-1.3.2-2 .3-2.1l.2-.2 1.8.1c1 0 1.7.1 2.1.1.2 0 .9.1 2.1.2 1.2.1 1.9.1 2.1.1v-1.1l-.1-1c-.2-.2-1.3-.2-3.4-.2-1.1-.1-2.7 0-4.7 0zm1.3 15.6h1c.1 0 .1 0 .1.1s0 .1-.1.1-.3.1-.6.1h-.6c-.3-.1-.5-.1-.5-.1 0-.1.1-.1.2-.1h.2c.1-.1.2-.1.3-.1zm-3.1.9c0-.2 0-.3.1-.3h.1c.1.1.1.3.1.7 0 .2 0 .3-.1.4h-.2v-.4-.1-.3z"/>
  <path d="M360.4 12.1c-.2.4-.7.6-1.1.4-.4-.2-.6-.7-.4-1.1.2-.4.7-.6 1.1-.4.4.2.6.7.4 1.1" fill-rule="evenodd" clip-rule="evenodd"/>
  <path d="M390 19c-.4-.2-.9 0-1.1.4-.2.5-2.4 5.4-2.8 6.2-.2.4 0 .9.4 1.1.4.2.9 0 1.1-.4l2.8-6.2c.2-.4 0-.9-.4-1.1m-9-.4l-.7 1.5 5.3 2.4.7-1.5-5.3-2.4zm-.2-3.8l-2.5-1.1-1.1 2.3c-.2.4-.7.6-1.1.4-.4-.2-.6-.7-.4-1.1l1.1-2.3-1.5-.7-.4.8c-.2.4-.7.6-1.1.4-.4-.2-.6-.7-.4-1.1l.4-.8-1.5-.7-1.1 2.3c-.2.4-.7.6-1.1.4-.4-.2-.6-.7-.4-1.1l1.1-2.3-1.5-.7-3.5 7.7 11.8 5.3 3.2-7.7zM366 8.1l-.4.8c-.2.4-.7.6-1.1.4-.4-.2-.6-.7-.4-1.1l.4-.8-1.5-.7-1.2 2.3c-.2.4-.7.6-1.1.4-.4-.2-.6-.7-.4-1.1l1.1-2.3-.5-.2c-2.2-1-4.7 0-5.7 2.2-.9 2.1 0 4.6 2.2 5.5l6.7 3 3.5-7.7-1.6-.7zm-12.7-2.9c-.4-.2-.9 0-1.1.4-.9 1.9-.6 1.4-.7 1.5-.2.4 0 .9.4 1.1l1.3.6c.1-.5.2-1.1.4-1.6.2-.6.6-1.1 1-1.5l-1.3-.5zm38.6 15.6l-2.8 6.2c-.6 1.3-2.1 1.9-3.4 1.3-1.3-.6-1.9-2.1-1.3-3.4l.4-.8-5.3-2.4c-.2.4-1.6 3.5-1.8 3.9-.2.4-.7.6-1.1.4-.4-.2-.6-.7-.4-1.1l.4-.8c-.4-.2-18.6-8.4-20-9.1-1.8-.8-3.1-2.5-3.4-4.3l-2-.9c-1.3-.6-1.9-2.1-1.3-3.4l-10.7-4.8c-.4-.2-.6-.7-.4-1.1.2-.4.7-.6 1.1-.4l10.7 4.8c.6-1.3 2.1-1.9 3.4-1.3l2 .9c1.7-1 3.8-1.1 5.5-.3 4.3 2 15.6 7.1 20 9.1l.4-.8c.2-.4.7-.6 1.1-.4.4.2.6.7.4 1.1-.2.4-1.6 3.5-1.8 3.9l5.3 2.4.4-.8c.6-1.3 2.1-1.9 3.4-1.3 1.2.6 1.8 2.1 1.2 3.4z" fill-rule="evenodd" clip-rule="evenodd" fill="#7c51a0"/>
</svg>