<svg xmlns="http://www.w3.org/2000/svg" width="157.7" height="115.4" viewBox="0 0 157.7 115.4">
  <style>
    .st0{fill-rule:evenodd;clip-rule:evenodd;fill:#a44685}.st1{fill:#fff}.st2{fill:#007481}
  </style>
  <path class="st0" d="M20.1 10.9c-.3-.1-.7-.2-1-.3-.3-.1-.6-.2-1-.3-.7-.2-1.2-.4-1.5-.7-.3-.2-.4-.5-.4-.9 0-.3.2-.9.6-1.5.3-.5.6-1.1.8-1.6.2-.6.4-1.2.5-1.8.2-1.5-.1-2.6-.9-3.3-.8-.6-1.9-.8-3.3-.4h-.2c-.7.2-1.3.4-1.7.8-.4.4-.7.8-.9 1.4l-.3.6c-.1.2-.1.4-.2.6L10 5c-.2.5-.4 1-.7 1.5 0 .4-.2.6-.5.7-.3.1-.6 0-1-.2-.6-.3-1.2-.5-1.8-.9-.5-.4-1.1-.7-1.6-1.1-.5-.2-.9-.4-1.4-.4-.5 0-1 .2-1.4.4-.5.2-.8.6-1.1 1-.4.7-.5 1.5-.5 2.3.1.8.3 1.6.7 2.2.4.7.9 1.1 1.6 1.3.5.1 1 .3 1.5.5l1.5.6c.5.2.9.5 1.1.9.2.4.3.9.3 1.4 0 .5-.1 1-.4 1.5-.3.4-.5.9-.8 1.3-.3.5-.6 1-.9 1.6-.2.5-.4 1.1-.6 1.7-.3 1.1-.3 2 .1 2.8.3.9.9 1.6 1.8 2.2.5.3 1.1.5 1.7.5.6 0 1.1-.1 1.6-.4.5-.3.9-.7 1.2-1.2.1-.2.2-.4.2-.7.1-.2.1-.5.1-.8.2-1 .4-2 .6-2.9.3-1 .6-1.9.9-2.8.3-1 .7-1.6 1.1-1.8.4-.2 1.1-.2 2 .2l3 .9c1 .3 2 .7 2.9 1.1.8.4 1.4.6 1.9.7.5.1.8.1 1.1 0 .3-.1.5-.4.8-.8.3-.4.6-.9.9-1.5.1-.1.1-.2.1-.2 0-.1.1-.2.1-.3.1-.4.1-.8 0-1.3s-.3-1-.5-1.5-.6-.9-.9-1.2c-.4-.3-.8-.5-1.4-.5-.6 0-1.1-.1-1.7-.3-.4-.3-.9-.4-1.5-.6"/>
  <path class="st0" d="M157.7 76.4c.1-.8.1-1.6-.1-2.4-.2-.8-.5-1.6-1-2.4-.3-.5-.7-1-1.1-1.4-.4-.4-.8-.8-1.3-1.1-.6-.4-1.2-.9-1.8-1.3-.6-.5-1.1-1-1.5-1.6-.4-.5-.5-1-.5-1.3 0-.4.3-.8.8-1.1.4-.3.8-.6 1.2-.8.4-.2.8-.5 1.3-.7.9-.4 1.6-1 2.1-1.8s.9-1.6 1.1-2.5c.3-1.2.4-2.3.1-3.4-.2-1.1-.8-2.1-1.7-2.9-.6-.6-1.2-1.1-1.7-1.7-.6-.6-1.2-1.1-1.9-1.4-.5-.3-.9-.7-1.1-1.2-.2-.5-.3-1.1-.2-1.7.1-.6.4-1.1 1-1.6.5-.4.9-.8 1.4-1.2.5-.4.9-.8 1.5-1.1.6-.4 1.2-.9 1.6-1.5.4-.6.7-1.2.8-1.9.2-1.2.3-2.3.1-3.4-.2-1.1-.7-2.1-1.5-3-.3-.3-.6-.6-.9-1-.3-.3-.6-.6-1-.8-.4-.2-.8-.5-1.1-.9-.3-.4-.6-.8-.8-1.2-.3-.7-.5-1.2-.6-1.6s0-.8.3-1.2c.2-.3.6-.6 1.2-.9.5-.3 1-.6 1.4-.9.5-.3 1-.7 1.4-1 .6-.4 1-.8 1.4-1.3.3-.5.5-1.1.5-1.8 0-.9-.1-1.7-.2-2.6-.1-.9-.3-1.7-.4-2.5-.1-.5-.2-.9-.5-1.4-1.3-2.3-3.1-4.4-5.5-5.5-1.1-.5-3.2-1.1-4.2-.1-.3.2-.5.5-.6.9-.1.4-.1.9.1 1.3s.5.8.9 1c.2.1.4.2.6.2.2.1.4.1.7.1.6.1 1.1.3 1.5.6.5.3.9.7 1.2 1.1.4.4.7.9 1 1.4.3.5.6 1.1.8 1.6.5 1 .6 1.9.3 2.6-.2.7-.9 1.3-1.9 1.8-.7.4-1.3.9-1.9 1.5-.5.6-1 1.2-1.5 1.9-.6.9-.8 1.7-.9 2.6-.1.9.1 1.8.5 2.8.3.7.7 1.3 1.1 1.9.4.6.9 1.1 1.5 1.6.4.4.9.7 1.3 1.2.4.4.8.9 1.1 1.4.3.4.4.7.5 1.1.1.4 0 .8-.2 1.2-.1.3-.3.6-.5.9-.2.3-.4.5-.7.6-.3.2-.6.4-.8.5-.3.2-.6.3-.8.5-.9.5-1.6 1.2-2 2-.5.8-.7 1.8-.8 2.8v2c-.1 1.1.1 2 .5 2.7.4.8 1 1.4 1.8 2 .5.4 1 .8 1.6 1.2.5.4 1.1.8 1.6 1.1.6.5 1.1 1 1.3 1.6.2.6.2 1.2 0 1.8-.2.6-.6 1.2-1.3 1.6l-1.8 1.2c-.6.4-1.2.8-1.9 1.2-.7.5-1.2 1.1-1.5 1.8-.3.7-.5 1.5-.5 2.4 0 .8.2 1.6.6 2.4l.6.9c.2.3.4.5.6.8.7.8 1.4 1.5 2.2 2.2.8.6 1.6 1.3 2.4 1.9.5.4.8.8.9 1.3.1.5.1 1 0 1.5s-.5 1-.9 1.3c-3.1 2.5-7.9 4.6-7.3 9.2.2.8.5 1.6 1 2.4.3.5.7 1 1.1 1.4.4.4.8.8 1.3 1.1.6.4 1.2.9 1.8 1.3.6.5 1.1 1 1.5 1.6.4.5.5 1 .5 1.3 0 .4-.3.8-.8 1.1-.4.3-.8.6-1.2.8-.4.2-.8.5-1.3.7-.9.4-1.6 1-2.1 1.8s-.9 1.6-1.1 2.5c-.4 1.7-.1 5 .7 6.6.2.4.5.8.8 1.2.2.3.5.6.8.9.3.3.5.6.8.9l.6.6c.2.2.4.4.7.5.6.4 1.3.7 2 1 .7.3 1.3.6 2 1 .3.1.6.1.9 0 .3-.1.6-.3.8-.5.3-.2.4-.5.5-.9.1-.4.1-.9-.1-1.3s-.5-.8-.9-1c-.2-.1-.4-.2-.6-.2-.2-.1-.4-.1-.6-.1-.5-.1-1-.3-1.5-.6-.4-.3-.8-.7-1.1-1.1-.4-.4-.7-.9-1-1.4-.7-1.2-1.9-3.2-1.5-4.5.2-.6.6-1.2 1.3-1.6l1.8-1.2c.6-.4 1.2-.8 1.9-1.2.7-.5 1.2-1.1 1.5-1.8.3-.7.5-1.5.5-2.4 0-.8-.2-1.6-.6-2.4l-.6-.9c-.2-.3-.4-.5-.6-.8-.7-.8-1.4-1.5-2.2-2.2-.8-.6-1.6-1.3-2.4-1.9-.5-.4-.8-.8-.9-1.3-1.1-3.5 7.5-4.6 8.3-9.5"/>
  <path class="st1" d="M65.5 33.8c.2.1.3.3.5.6v.9c0 .2-.1.4-.2.6-.1.1-.3.3-.5.4-.1 0-.2.1-.4.1h-.4c-.3 0-.6-.1-.9-.3-.3-.2-.4-.5-.5-.8-.1-.6.1-1 .5-1.3.5-.4 1-.5 1.6-.3.2 0 .2 0 .3.1-.1 0-.1 0 0 0m-.1 3.3c.3 0 .4.1.4.4V44.4c0 .5 0 1-.1 1.4v1.4c0 .2.1.3.1.5v.4c0 .1-.2.2-.3.2-.6.1-1.3.1-1.9 0-.2 0-.3-.1-.3-.2s-.1-.3-.1-.5v-.5c0-.4.1-.8.1-1.2 0-.4 0-.8.1-1.2v-.5-.6-.8-.8-.7-1-1-.7-.4-.4-.2-.2c0-.1.1-.2.3-.2H64.6c.3-.2.6-.1.8-.1zM61.2 34c.1.1.2.2.3.4.1.2.1.4.1.8-.1.2-.2.3-.2.3-.1.1-.3.2-.6.3-.1 0-.2.1-.3.1-.1 0-.1.1-.2.1l-.1.1c-.1 0-.1.1-.2.1-.4.3-.8.6-1.1 1-.3.4-.6.9-.9 1.5-.1.1-.1.2-.2.4 0 .1-.1.2-.1.4-.3.9-.4 1.7-.2 2.4v.4c0 .1.1.3.1.5.1.2.1.4.2.6.1.2.1.4.2.5.1.2.1.3.2.3.2.4.5.8.9 1.1.4.3.9.5 1.4.7.4.1.7.2.9.3.2.1.2.4.2.6 0 .2-.1.3-.1.4-.1.1-.1.3-.2.5-.2.4-.5.6-.9.6h-.3c-.4-.1-.8-.2-1.2-.5-.4-.2-.9-.5-1.3-.9-.8-.6-1.4-1.3-1.7-2-.3-.7-.6-1.3-.6-1.8-.1-.3-.1-.6-.1-.8V41.5v-.6-.6-.2-.2c0-.2.1-.4.1-.7 0-.2.1-.5.2-.7.2-.6.4-1.1.6-1.5.6-1 1.1-1.7 1.7-2.1l.3-.2c.2-.2.4-.3.6-.4.2-.1.3-.2.5-.3.2-.1.3-.2.5-.2.2-.1.4-.1.6-.2.4-.1.6-.1.8-.1-.1.2 0 .3.1.5 0-.1 0-.1 0 0zm-7.7 0c.1.1.2.2.3.4.1.2.1.4.1.8-.1.2-.2.3-.2.3-.1.1-.3.2-.6.3-.1 0-.2.1-.3.1-.1 0-.1.1-.2.1l-.1.1c-.1 0-.1.1-.2.1-.4.3-.8.6-1.1 1-.3.4-.6.9-.9 1.5-.1.1-.1.2-.2.4 0 .1-.1.2-.1.4-.3.9-.4 1.7-.2 2.4v.4c0 .1.1.3.1.5.1.2.1.4.2.6.1.2.1.4.2.5.1.2.1.3.2.3.2.4.5.8.9 1.1.4.3.9.5 1.4.7.4.1.7.2.9.3.2.1.2.4.2.6 0 .2-.1.3-.1.4-.1.1-.1.3-.2.5-.2.4-.5.6-.9.6h-.3c-.4-.1-.8-.2-1.2-.5-.4-.2-.9-.5-1.3-.9-.8-.6-1.4-1.3-1.7-2-.3-.7-.6-1.3-.6-1.8-.1-.3-.1-.6-.1-.8V41.5v-.6-.6-.2-.2c0-.2.1-.4.1-.7 0-.2.1-.5.2-.7.2-.6.4-1.1.6-1.5.6-1 1.1-1.7 1.7-2.1l.3-.2c.2-.2.4-.3.6-.4.2-.1.3-.2.5-.3.2-.1.3-.2.5-.2.2-.1.4-.1.6-.2.4-.1.6-.1.8-.1-.1.2 0 .3.1.5-.1-.1 0-.1 0 0zm-11 .9c-.3 0-.5-.2-.5-.6v-.5-.5c0-.3 0-.5.1-.7.1-.1.3-.2.6-.2h.6c.3 0 .5-.1.8-.1h1.2c.3 0 .5.1.6.2.1.1.1.2.2.5v1.5c0 .1-.1.2-.2.3-.2.1-.4.1-.6.1h-2.5-.3zm2.7 4.8c.2 0 .3.2.4.4v1c0 .3 0 .5-.1.8 0 .3-.2.4-.4.4-.3 0-.6-.1-.9-.1h-1.3c-.1 0-.3 0-.4-.1-.2 0-.3-.1-.4-.4 0-.2-.1-.4-.1-.6v-.8c0-.3.2-.4.4-.5.2 0 .3-.1.5-.1H45.2zm.8 7.9v1.5c0 .2-.1.3-.2.3-.2.1-.4.1-.6.1h-2.4-.2c-.3-.1-.5-.2-.5-.6v-.5-.5c0-.3 0-.5.1-.6.1-.1.3-.2.6-.2h.6c.5-.1 1-.1 1.6 0h.4c.3 0 .5.1.6.2-.1-.1 0 0 0 .3zm-4.3-10.3c0 .3 0 .7.1 1 0 .3 0 .7-.1 1V49c0 .2-.1.3-.2.3-.2 0-.3.1-.3.1l-.9.1h-.6c-.2 0-.2-.1-.2-.3v-.1-7.9-.2-.2-.3-.3-.3-.9-.9-.9c0-.3-.1-.7-.1-1v-1V34c0-.4 0-.8-.1-1.2v-.1c0-.2.1-.3.3-.4.2 0 .4-.1.7-.1h.6c.2 0 .4.1.6.1.2 0 .2.1.2.3l.1 1.1v2.5c-.2.5-.1.8-.1 1.1zm-3.9-2.1v.2c-.1.2-.2.4-.3.4-.1.1-.4.1-.8.2H35c-.4 0-.7 0-1.1-.1v2h1.3c.4 0 .8 0 1.3-.1.4 0 .6.1.6.3.1.5.1 1 .1 1.5v.2c-.1.2-.3.3-.5.3H34V42.3c0 .3.1.6.1.9 0 .3 0 .6-.1.9v3.8c0 .2-.1.2-.2.2-.2 0-.4.1-.6.1H32c-.1 0-.2-.1-.2-.1s-.1-.1-.1-.2v-.1c.1-.3.1-.7.1-1v-1c0-.3 0-.6.1-.8 0-.3.1-.6.1-.8v-.7-1.1-.3-.3-.3-.3-.2-6.8-.3c0-.1.1-.2.2-.2h4.7c.3 0 .5.1.8.1.2 0 .3.1.3.2V35.2zm-13.1 4.9c-.1 0-.1 0-.1.1V47.3c0 .2-.1.5-.2.7 0 .2-.2.2-.4.2h-.9c-.3 0-.5 0-.8-.1-.1 0-.2-.1-.3-.1-.1 0-.2-.1-.2-.2v-.3-.5-.5-.3-.7-1.2-1.4-1.3-.8-1.2-1.2-.7-.5-.5-.6-1.8-.3c0-.1 0-.2.1-.3 0-.1.1-.2.2-.2.2-.1.5-.2.7-.2h1.8c.1 0 .2.1.3.3.1.2.1.3.2.5s.1.4.1.6c0 .2.1.4.1.5l.3.9.3.9c0 .1.1.4.2.8s.3.9.4 1.4c.1.5.3 1 .4 1.4.1.4.2.7.3.9.1.2.1.4.2.7 0 0 .1 0 .1-.1v-.4-.7-.7-.6-.9-.4-.5-.5-.4-.7V34.2v-.1-.1c0-.1 0-.1.1-.2s.2-.1.5-.1h1.5c.2 0 .4.1.5.2.1.1.1.2.1.4-.1.6-.1 1.2-.1 1.8V48.5c0 .1-.1.2-.3.2-.1 0-.3.1-.4.1H28c-.1 0-.2 0-.4-.1h-.2c-.1 0-.1 0-.2-.1-.2-.1-.4-.2-.4-.5s-.1-.7-.2-1c-.1-.3-.2-.7-.2-1-.1-.7-.3-1.3-.5-2-.2-.6-.4-1.3-.6-1.9-.1-.3-.2-.5-.3-.8-.1-.7-.2-1-.3-1.3zm-5.1-7.8c.2.1.3.3.5.6.1.3.1.6.1.9 0 .2-.1.4-.2.6-.1.1-.3.3-.5.4-.1 0-.2.1-.4.1s-.3 0-.4.1c-.3 0-.6-.1-.9-.3-.3-.2-.4-.5-.5-.8-.1-.6.1-1 .5-1.3.5-.4 1-.5 1.6-.3h.2zm.4 16v1.1c-.1.2-.2.3-.3.3-.7.1-1.3.1-1.9 0-.2 0-.3-.1-.3-.3 0-.2-.1-.4-.1-.6v-.6c0-.5 0-1 .1-1.5 0-.5 0-1 .1-1.5v-.7-.7-1-1-.8-1.3-1.3-.9-.5-.5-.3-.3c0-.1.1-.2.3-.3H18.8c.2 0 .5 0 .7.1.2 0 .3.1.3.2.2 0 .2.1.2.2V48.3z"/>
  <path class="st1" d="M110.3 42.8v-.7-1V40v-1-.8-.4-.8-1.4-1.4-.7-.5-.5-.3c0-.1.1-.2.2-.2h.8c.2 0 .3.1.5.1s.3.1.4.2c.1 0 .2.1.5.2.2.1.5.3.9.5.4.3.7.6 1 .9l.6.9c.1.2.2.4.3.5.1.2.2.3.2.5.1.2.1.3.2.5s.1.4.2.7c.1.2.1.4.2.8 0 .4.1.7.1 1.1 0 .4.1.7.1 1V41.7c0 .4-.1.8-.2 1.2 0 .2-.1.4-.1.6-.1.2-.1.4-.2.6-.1.3-.2.5-.3.9-.1.3-.3.7-.5 1-.2.2-.3.4-.4.6-.1.2-.2.3-.3.4l-.3.3c-.1.1-.3.2-.4.4-.3.2-.7.5-1.1.8-.4.3-.8.5-1.2.5-.3.1-.6.1-.9.1-.3 0-.4-.1-.4-.1 0-.1-.1-.3-.1-.6s0-.5-.1-.8v-.7-.3-2.5c.3-.4.3-.9.3-1.3m-8.1-4.9c-.2-.1-.3-.2-.3-.4v-.3-.4-.4c0-.1 0-.2-.1-.3 0-.1-.1-.2-.2-.2-.1-.1-.2-.2-.3-.2-.1-.1-.3-.1-.6-.1s-.5.1-.6.3c-.1.1-.1.2-.2.3 0 .1-.1.2-.1.4v.7c0 .2.1.4.2.7.1.2.2.4.4.6.2.2.3.4.5.6.2.2.3.4.5.6.1.1.2.2.3.4.1.1.2.2.3.4.2.3.4.5.5.6s.3.3.4.5c.9 1 1.5 2.2 1.6 3.4v.9c-.1.8-.5 1.4-1.1 1.9l-.1.1c-.1 0-.1.1-.2.1-.2.1-.4.2-.7.3-.2.1-.5.1-.8.1h-.8c-.3 0-.6-.1-.8-.1-.2 0-.4-.1-.6-.2-.2-.1-.3-.2-.5-.3-.2-.1-.3-.2-.5-.4-.2-.1-.3-.3-.4-.4l-.1-.1-.1-.1c-.1-.3-.2-.5-.3-.8-.1-.3-.1-.5-.1-.8v-.5-.5c0-.2 0-.3.1-.4v-.2c.1-.2.3-.3.5-.3h.2c.2 0 .4.1.6.1.2 0 .4.1.6.2.2.1.3.2.3.4s0 .3-.1.5v.6c0 .2.1.5.1.6 0 .2.1.3.3.5.2.1.4.2.6.2.3 0 .5 0 .8-.1.2-.1.3-.3.4-.4.1-.2.1-.4.1-.6 0-.2 0-.4-.1-.7l-.3-.6c-.1-.2-.3-.4-.4-.6-.2-.2-.3-.4-.5-.6-.2-.2-.3-.4-.4-.6-.1-.2-.3-.4-.4-.6-.1-.2-.2-.3-.3-.4-.1-.1-.2-.3-.3-.4-.2-.3-.4-.5-.5-.7-.1-.2-.3-.4-.4-.6 0-.1-.1-.1-.1-.2s-.1-.1-.1-.2c-.3-.4-.5-.7-.6-1.1-.1-.4-.2-.8-.2-1.2v-.7c0-.2.1-.5.2-.7.1-.4.3-.6.7-.9.5-.3 1-.5 1.6-.6.5-.1 1-.1 1.5 0s1 .2 1.4.4c.2.2.4.3.6.5.2.2.3.4.5.6.1.2.2.3.2.5s.1.3.1.5v1.3c0 .4-.3.7-.8.7h-1c.1-.6 0-.6-.1-.6zm-9.5-3c-.3 0-.5-.2-.5-.6v-.5-.5c0-.3 0-.5.1-.7.1-.1.3-.2.6-.2h.6c.3 0 .5-.1.8-.1h1.2c.3 0 .5.1.6.2.1.1.1.2.2.5v1.5c0 .1-.1.2-.2.3-.2.1-.4.1-.6.1h-2.8zm2.7 4.8c.2 0 .3.2.4.4v1c0 .3 0 .5-.1.8 0 .3-.2.4-.4.4-.3 0-.6-.1-.9-.1h-1.3c-.1 0-.3 0-.4-.1-.2 0-.3-.1-.4-.4 0-.2-.1-.4-.1-.6v-.8c0-.3.2-.4.4-.5.2 0 .3-.1.5-.1H95.4zm.8 7.9v1.5c0 .2-.1.3-.2.3-.2.1-.4.1-.6.1h-2.7c-.3-.1-.5-.2-.5-.6v-.5-.5c0-.3 0-.5.1-.6.1-.1.3-.2.6-.2h.6c.5-.1 1-.1 1.6 0h.4c.3 0 .5.1.6.2 0-.1.1 0 .1.3zm-4.3-10.3c0 .3 0 .7.1 1 0 .3 0 .7-.1 1V49c0 .2-.1.3-.2.3-.2 0-.3.1-.3.1l-.9.1h-.6c-.2 0-.2-.1-.2-.3v-.1-7.9-.2-.2-.3-.3-.3-.9-.9-.9c0-.3-.1-.7-.1-1v-1V34c0-.4 0-.8-.1-1.2v-.1c0-.2.1-.3.3-.4.2 0 .4-.1.7-.1h.6c.2 0 .4.1.6.1.2 0 .2.1.2.3l.1 1.1v2.5c-.1.5-.1.8-.1 1.1zm-9.3 2.8c-.1 0-.1 0-.1.1V47.3c0 .2-.1.5-.2.7 0 .2-.2.2-.4.2H81c-.3 0-.5 0-.8-.1-.1 0-.2-.1-.3-.1-.1 0-.2-.1-.2-.2v-.3-.5-.5-.3-.7-1.2-1.4-1.3-.8-1.2-1.2-.7-.5-.5-.6-1.8-.3c0-.1 0-.2.1-.3 0-.1.1-.2.2-.2.2-.1.5-.2.7-.2h1.8c.1 0 .2.1.3.3.1.2.1.3.2.5s.1.4.1.6c0 .2.1.4.1.5l.3.9.3.9c0 .1.1.4.2.8s.3.9.4 1.4c.1.5.3 1 .4 1.4.1.4.2.7.3.9.1.2.1.4.2.7 0 0 .1 0 .1-.1v-.4-.7-.7-.6-.9-.4-.5-.5-.4-.7V34.2v-.1-.1c0-.1 0-.1.1-.2s.2-.1.5-.1h1.5c.2 0 .4.1.5.2.1.1.1.2.1.4-.1.6-.1 1.2-.1 1.8V48.5c0 .1-.1.2-.3.2-.1 0-.3.1-.4.1H85.9c-.1 0-.2 0-.4-.1h-.2c-.1 0-.1 0-.2-.1-.2-.1-.4-.2-.4-.5s-.1-.7-.2-1c-.1-.3-.2-.7-.2-1-.1-.7-.3-1.3-.5-2-.2-.6-.4-1.3-.6-1.9-.1-.3-.2-.5-.3-.8-.1-.7-.2-1-.3-1.3zm-6.3.8v-.5c0-.1-.1-.3-.1-.5 0-.1-.1-.3-.1-.4-.1-.2-.2-.3-.3-.5-.1-.2-.2-.3-.3-.4l-.2-.2c-.1-.1-.2-.2-.4-.3-.2-.1-.3-.2-.3-.2s-.1 0-.2-.1c-.1 0-.2-.1-.3-.1-.2-.1-.4-.1-.7-.1h-.6c-.2 0-.3.1-.5.1-.1 0-.3.1-.5.2-.3.2-.5.3-.7.5l-.2.2-.2.2c-.1.1-.2.2-.3.4-.1.1-.2.3-.2.4 0 0 0 .1-.1.2 0 .1-.1.2-.1.4 0 .1-.1.3-.1.4 0 .1-.1.2-.1.3v.5c0 .1 0 .3.1.5 0 .1.1.3.1.4.1.2.2.3.3.5.1.2.2.3.3.4l.2.2c.1.1.2.2.4.3.2.1.3.2.3.2s.1 0 .2.1c.1 0 .2.1.4.1.2.1.4.1.6.1h.6c.2 0 .3-.1.5-.1.1 0 .3-.1.5-.2.1-.1.3-.2.4-.2.1-.1.2-.2.3-.2.1-.1.2-.2.3-.4.1-.1.2-.2.3-.4.1-.1.1-.3.2-.4 0 0 0-.1.1-.2 0-.1.1-.2.1-.4 0-.1.1-.3.1-.4.2-.2.2-.3.2-.4zm2.4-.1v.8c0 .3-.1.5-.2.8l-.3.9-.3.6c-.1.2-.3.5-.4.7-.1.2-.3.3-.4.4l-.3.3c-.1.1-.2.2-.3.2-.1.1-.2.2-.4.3-.3.2-.6.3-1 .5s-.7.3-1.1.4H72.2c-.2 0-.3 0-.5-.1-.2 0-.3-.1-.4-.1-.1 0-.2-.1-.4-.1-.2-.1-.5-.2-.8-.3-.4-.2-.7-.4-.9-.6l-.6-.6c-.2-.3-.4-.5-.6-.7-.1-.2-.3-.5-.4-.8 0-.1-.1-.3-.1-.6 0-.2-.1-.5-.1-.7 0-.2-.1-.5-.1-.7V41v-.8c0-.3.1-.5.2-.8 0-.2.1-.3.1-.4.1-.1.1-.3.1-.4.2-.4.4-.8.7-1.3.1-.2.3-.3.3-.4l.3-.3c.1-.1.2-.2.3-.2.1-.1.2-.2.4-.3.3-.2.6-.3 1-.5s.7-.3 1.1-.4H73.6c.2 0 .3 0 .5.1.2 0 .3.1.4.1.1 0 .2.1.4.1.2.1.5.2.8.3.4.2.7.4.9.6l.6.6c.3.3.4.5.6.7.1.2.2.5.4.8 0 .1.1.3.1.6 0 .2.1.5.1.7 0 .2.1.5.1.7.2.1.2.3.2.3z"/>
  <path class="st1" d="M48.4 65.1c-.1 0-.1 0-.1.1V72.3c0 .2-.1.5-.2.7 0 .2-.2.2-.4.2h-.9c-.3 0-.5 0-.8-.1-.1 0-.2-.1-.3-.1-.1 0-.2-.1-.2-.2v-.3-.5-.5-.3-.7-1.2-1.4-1.3-.8-1.2-1.2-.7-.5-.5-.6-1.8-.3c0-.1 0-.2.1-.3 0-.1.1-.2.2-.2.2-.1.5-.2.7-.2h1.8c.1 0 .2.1.3.3.1.2.1.3.2.5s.1.4.1.6c0 .2.1.4.1.5l.3.9.3.9c0 .1.1.4.2.8s.3.9.4 1.4c.1.5.3 1 .4 1.4.1.4.2.7.3.9.1.2.1.4.2.7 0 0 .1 0 .1-.1v-.4-.7-.7-.6-.9-.4-.5-.5-.4-.7V59.2v-.1-.1c0-.1 0-.1.1-.2s.2-.1.5-.1h1.5c.2 0 .4.1.5.2.1.1.1.2.1.4-.1.6-.1 1.2-.1 1.8V73.5c0 .1-.1.2-.3.2-.1 0-.3.1-.4.1H51.7c-.1 0-.2 0-.4-.1h-.2c-.1 0-.1 0-.2-.1-.2-.1-.4-.2-.4-.5s-.1-.7-.2-1c-.1-.3-.2-.7-.2-1-.1-.7-.3-1.3-.5-2-.2-.6-.4-1.3-.6-1.9-.1-.3-.2-.5-.3-.8 0-.8-.2-1-.3-1.3M44.3 74s0 .1 0 0v.2c0 .1-.1.2-.2.2-.2 0-.4.1-.5.1h-1c-.1 0-.3 0-.4-.1-.3-.1-.5-.2-.5-.5-.1-.4-.2-.8-.2-1.2-.1-.4-.2-.8-.2-1.2 0-.3-.1-.5-.1-.7s-.1-.5-.2-.7c0-.2-.1-.3-.1-.5s-.1-.3-.1-.5h-1.2c-.4 0-.8.1-1.2.1 0 .2-.1.3-.1.6 0 .2 0 .4-.1.7-.1.6-.2 1.1-.2 1.6-.1.5-.1.9-.2 1.3s-.1.6-.2.9c-.1.2-.2.3-.3.3-.2 0-.3.1-.5.1h-.4c-.1 0-.2 0-.4-.1-.1 0-.3-.1-.5-.1h-.2-.1c-.2 0-.2-.1-.2-.3V74v-.2c.1-.3.1-.7.2-1.1.1-.4.1-.7.2-1.1 0-.2.1-.3.1-.5s0-.3.1-.5c.1-.7.1-1.3.2-2 0-.6.1-1.3.2-2 0-.2.1-.4.1-.6v-.6c0-.4.1-.9.1-1.3s.1-.9.2-1.3c0-.2.1-.4.1-.5v-.6c0-.6.1-1.1.2-1.7.1-.6.2-1.1.3-1.7v-.2c0-.2.1-.2.2-.3.1 0 .2-.1.4-.1.2-.1.3-.1.6-.2.2 0 .5-.1.8-.1h.9c.3 0 .7 0 1 .1.1 0 .2.2.3.5.1.3.2.6.3 1 .1.4.2.8.2 1.1.1.4.1.7.1 1 0 .3.1.6.1.8 0 .2.1.4.1.6 0 .2 0 .3.1.5 0 .2.1.3.1.5.1.3.1.7.2 1.1.1.4.1.7.2.9.1.3.1.6.2.8.1.3.1.5.2.8 0 .3.1.5.1.7.1.2.1.5.2.7.1.2.1.5.2.9s.1.7.2 1.1c.1.3.1.6.2.9.1.3.1.4.1.5.1.4.1.7.2 1.1 0 .3.1.6.1 1zm-10.4-1.2v.3s-.2.1-.3.1c-.2 0-.3.1-.6.1h-1.6c-.2 0-.3-.1-.4-.1v-.5-.4c0-.1 0-.3-.1-.4-.1-.3-.2-.7-.2-1-.1-.3-.2-.7-.2-1l-.3-1.3c0-.2-.1-.3-.1-.4-.1-.1-.1-.3-.1-.4 0-.2-.1-.3-.1-.5s-.1-.4-.1-.5h-.2-.7v2.8c0 .5 0 1 .1 1.5 0 .5 0 1 .1 1.5V73.2c0 .1-.1.1-.1.1h-.3c-.3.1-.6.1-.8.1h-1.2c-.2-.1-.2-.2-.2-.4v-.1-.1-.8-.8-1.3c0-.4 0-.9-.1-1.3v-.9c0-.3 0-.6.1-.9v-.7-.7-.5-.6-.8-.9-.6-.6-.8-.8c0-.1 0-.2.1-.3 0-.1.1-.2.1-.3.1-.2.2-.2.4-.2h1.4c.2 0 .3 0 .3.1.1 0 .1.1.1.3.1.3.1.5.1.7.2 0 .4-.1.6-.1h1.6c.3 0 .6.1.9.3.2.1.4.2.7.4.2.1.4.3.6.5.6.6.9 1.3.7 2.1 0 .3-.1.6-.2.9-.1.3-.3.6-.4.9-.1.2-.2.3-.4.5-.2.1-.3.3-.5.4-.1 0-.1.1-.2.1 0 0-.1.1-.2.1.1.4.2.8.3 1.3.1.4.2.8.3 1.3 0 .2.1.3.1.5.1.2.1.3.2.5.1.4.3.9.4 1.3.2.4.3.9.5 1.3 0 .1.1.3.1.4-.3-.3-.3-.2-.2 0zM25 57.9c.1.5 0 1-.2 1.4 0 0 0 .1-.1.1 0 0 0 .1-.1.1-.1.1-.2.2-.3.2H22.2v8c0 .5 0 1 .1 1.5v1.4c0 .5 0 .9-.1 1.4v2c0 .1-.1.2-.2.3-.6.1-1.3.1-1.9 0-.2 0-.2-.1-.2-.3 0-.5-.1-1-.1-1.5V71v-.7-.7c0-.3 0-.6-.1-.9 0-.3 0-.6-.1-.9V67v-.9-.6-.6-.5-.6-.2-.2-.8-.8-1.2-.5-.5h-1c-.4 0-.9 0-1.3-.1-.3 0-.4-.1-.5-.1-.1 0-.1-.1-.1-.2v-.3-.4-.5-.3c0-.1 0-.1.1-.2.2-.2.4-.3.8-.3h6c.2 0 .4 0 .6.1.3 0 .4.1.5.2.3.2.3.3.3.4zm96.5-23c-.3 0-.5-.2-.5-.6v-.5-.5c0-.3 0-.5.1-.7.1-.1.3-.2.6-.2h.6c.3 0 .5-.1.8-.1h1.2c.3 0 .5.1.6.2.1.1.1.2.2.5v1.5c0 .1-.1.2-.2.3-.2.1-.4.1-.6.1h-2.8zm2.7 4.8c.2 0 .3.2.4.4v1c0 .3 0 .5-.1.8 0 .3-.2.4-.4.4-.3 0-.6-.1-.9-.1h-1.3c-.1 0-.3 0-.4-.1-.2 0-.3-.1-.4-.4 0-.2-.1-.4-.1-.6v-.8c0-.3.2-.4.4-.5.2 0 .3-.1.5-.1H124.2zm.9 7.9v1.5c0 .2-.1.3-.2.3-.2.1-.4.1-.6.1h-2.7c-.3-.1-.5-.2-.5-.6v-.5-.5c0-.3 0-.5.1-.6.1-.1.3-.2.6-.2h.6c.5-.1 1-.1 1.6 0h.4c.3 0 .5.1.6.2-.1-.1 0 0 .1.3zm-4.4-10.3c0 .3 0 .7.1 1 0 .3 0 .7-.1 1V49c0 .2-.1.3-.2.3-.2 0-.3.1-.3.1l-.9.1h-.6c-.2 0-.2-.1-.2-.3v-.1-7.9-.2-.2-.3-.3-.3-.9-.9-.9c0-.3-.1-.7-.1-1v-1V34c0-.4 0-.8-.1-1.2v-.1c0-.2.1-.3.3-.4.2 0 .4-.1.7-.1h.6c.2 0 .4.1.6.1.2 0 .2.1.2.3l.1 1.1v2.5c-.1.5-.1.8-.1 1.1z"/>
  <path class="st1" d="M94.5 59.3c-.1-.3-.2-.7-.3-1 0-.2 0-.3.1-.3s.2-.1.4-.1c.2-.1.5-.1.7-.2.3-.1.5-.2.8-.2.2-.1.4-.1.6-.2.1 0 .3-.1.5-.1s.3-.1.3-.1c.3 0 .5-.1.7-.1.2-.1.4-.1.7-.2 0 0 .1 0 .1-.1 0 0 .1 0 .1-.1 0 0 .1-.1.2 0 .1 0 .1.1.2.2.1.2.2.5.2.7.1.2.1.5.2.7 0 .1 0 .2-.1.2-.1.1-.3.1-.4.2-.2 0-.4.1-.6.1-.2 0-.4.1-.6.1h-.5c-.1 0-.2.1-.4.1-.1 0-.2.1-.4.1-.1 0-.2.1-.3.1-.2 0-.3.1-.5.1s-.3.1-.5.1-.3.1-.3.1h-.2c-.1 0-.1 0-.2.1h-.2c-.1 0-.1-.1-.2-.2-.1.1-.1.1-.1 0 0 .1 0 0 0 0m5.9 6.7v-.5c0-.1-.1-.3-.1-.5 0-.1-.1-.3-.1-.4-.1-.2-.2-.3-.3-.5-.1-.2-.2-.3-.3-.4l-.2-.2c-.1-.1-.2-.2-.4-.3-.2-.1-.3-.2-.3-.2s-.1 0-.2-.1-.2-.1-.3-.1c-.2-.1-.4-.1-.7-.1h-.6c-.2 0-.3.1-.5.1-.1 0-.3.1-.5.2-.3.2-.5.3-.7.5l-.2.2-.2.2c-.1.1-.2.2-.3.4-.1.1-.2.3-.2.4 0 0 0 .1-.1.2 0 .1-.1.2-.1.4 0 .1-.1.3-.1.4 0 .1-.1.2-.1.3v.5c0 .1 0 .3.1.5 0 .1.1.3.1.4.1.2.2.3.3.5.1.2.2.3.3.4l.2.2c.1.1.2.2.4.3.2.1.3.2.3.2s.1 0 .2.1c.1 0 .2.1.3.1.2.1.4.1.6.1h.6c.2 0 .3-.1.5-.1.1 0 .3-.1.5-.2.3-.1.5-.3.7-.5l.2-.2c.1-.1.1-.1.1-.2.1-.1.2-.2.3-.4.1-.1.1-.3.2-.4 0 0 0-.1.1-.2 0-.1.1-.2.1-.4 0-.1.1-.3.1-.4.3-.1.3-.2.3-.3zm2.4-.1v.8c0 .3-.1.6-.2.8l-.3.9-.3.6c-.1.2-.3.5-.4.7-.1.2-.3.3-.4.4l-.3.3c-.1.1-.2.2-.3.2-.1.1-.2.2-.4.3-.3.2-.6.3-1 .5s-.7.3-1.1.4H97h-.7c-.2 0-.3 0-.5-.1-.2 0-.3-.1-.4-.1-.1 0-.2-.1-.4-.1-.2-.1-.5-.2-.8-.3-.4-.2-.7-.4-.9-.6l-.6-.6c-.2-.3-.4-.5-.5-.7-.1-.2-.2-.5-.4-.8 0-.1-.1-.3-.1-.6 0-.2-.1-.5-.1-.7 0-.2-.1-.5-.1-.7v-.4-.8c0-.2.1-.5.2-.8 0-.2.1-.3.1-.4 0-.1.1-.3.1-.4l.3-.6c.1-.2.3-.4.4-.7.1-.2.3-.3.3-.4l.3-.3c.1-.1.2-.2.3-.2.1-.1.2-.2.4-.3.3-.2.6-.3 1-.5s.7-.3 1.1-.4H97.8c.2 0 .3 0 .5.1.2 0 .3.1.4.1.1 0 .2.1.4.2s.5.2.8.4c.4.2.7.4.9.6l.6.6c.3.3.4.5.6.7.1.2.2.5.4.8 0 .1.1.3.1.6 0 .2.1.5.1.7 0 .2.1.5.1.7.1-.1.1.1.1.1zm-13.5-7.1c.2.1.3.3.5.6.1.3.1.6.1.9 0 .2-.1.4-.2.6-.1.1-.3.3-.5.4-.1 0-.2.1-.4.1h-.4c-.3 0-.6-.1-.9-.3-.3-.2-.4-.5-.5-.8-.1-.6.1-1 .5-1.3.5-.4 1-.5 1.6-.3.2 0 .2 0 .2.1 0-.1 0 0 0 0zm0 3.3c.3 0 .4.1.4.4V69.4c0 .5 0 1-.1 1.4v1.4c0 .2.1.3.1.5v.4c0 .1-.2.2-.3.2-.6.1-1.3.1-1.9 0-.2 0-.3-.1-.3-.2s-.1-.3-.1-.5v-.5c0-.4.1-.8.1-1.2 0-.4 0-.8.1-1.2v-.5-.6-.8-.8-.7-1-1-.7-.4-.4-.2-.2c0-.1.1-.2.3-.2H88.5c.3-.2.6-.1.8-.1zm-6.4.8c-.2-.1-.3-.2-.3-.4v-.3-.4-.4c0-.1 0-.2-.1-.3 0-.1-.1-.2-.2-.2-.1-.1-.2-.2-.3-.2-.1-.1-.3-.1-.6-.1s-.5.1-.6.3c-.1.1-.1.2-.2.3 0 .1-.1.2-.1.4v.7c0 .2.1.4.2.7.1.2.2.4.4.6.2.2.3.4.5.6.2.2.3.4.5.6.1.1.2.2.3.4.1.1.2.2.3.4.2.3.4.5.5.6.1.2.3.3.4.5.9 1 1.5 2.2 1.6 3.4v.9c-.1.8-.5 1.4-1.1 1.9l-.1.1c-.1 0-.1.1-.2.1-.2.1-.4.2-.7.3-.2.1-.5.1-.8.1h-.8c-.3 0-.6-.1-.8-.1-.2 0-.4-.1-.6-.2-.2-.1-.3-.2-.5-.3-.2-.1-.3-.2-.5-.4-.2-.1-.3-.3-.4-.4l-.1-.1-.1-.1c-.1-.3-.2-.5-.3-.8-.1-.3-.1-.5-.1-.8v-.5-.5c0-.2 0-.3.1-.4v-.2c.1-.2.3-.3.5-.3h.2c.2 0 .4.1.6.1.2 0 .4.1.6.2.2.1.3.2.3.4s0 .3-.1.5v.6c0 .2.1.5.1.6 0 .2.1.3.3.5.2.1.4.2.6.2.3 0 .5 0 .8-.1.2-.1.3-.3.4-.4.1-.2.1-.4.1-.6 0-.2 0-.4-.1-.7l-.3-.6c-.1-.2-.3-.4-.4-.6-.2-.2-.3-.4-.5-.6-.2-.2-.3-.4-.4-.6-.1-.2-.3-.4-.4-.6-.1-.2-.2-.3-.3-.4-.1-.1-.2-.3-.3-.4-.2-.3-.4-.5-.5-.7-.1-.2-.3-.4-.4-.6 0-.1-.1-.1-.1-.2s-.1-.1-.1-.2c-.3-.4-.5-.7-.6-1.1-.1-.4-.2-.8-.2-1.2v-.7c0-.2.1-.5.2-.7.1-.4.3-.6.7-.9.5-.3 1-.5 1.6-.6.5-.1 1-.1 1.5 0s1 .2 1.4.4c.2.2.4.3.6.5.2.2.3.4.5.6.1.2.2.3.2.5s.1.3.1.5v1.3c0 .4-.3.7-.8.7h-1c0-.6-.1-.6-.1-.6zm-6.8-4.1c.2.1.3.3.5.6.1.3.1.6.1.9 0 .2-.1.4-.2.6-.1.1-.3.3-.5.4-.1 0-.2.1-.4.1h-.4c-.3 0-.6-.1-.9-.3-.3-.2-.4-.5-.5-.8-.1-.6.1-1 .5-1.3.5-.4 1-.5 1.6-.3.1 0 .1 0 .2.1-.1-.1-.1 0 0 0zm-.1 3.3c.3 0 .4.1.4.4V69.4c0 .5 0 1-.1 1.4v1.4c0 .2.1.3.1.5v.4c0 .1-.2.2-.3.2-.6.1-1.3.1-1.9 0-.2 0-.3-.1-.3-.2s-.1-.3-.1-.5v-.5c0-.4.1-.8.1-1.2 0-.4 0-.8.1-1.2v-.5-.6-.8-.8-.7-1-1-.7-.4-.4-.2-.2c0-.1.1-.2.3-.2H75.2c.4-.2.6-.1.8-.1zm-3.9-3.2V64.2c0 .5 0 1.1-.1 1.7 0 .6 0 1.2-.1 1.8 0 .6-.1 1-.1 1.2v4.9c0 .1-.1.3-.1.4-.1.2-.3.3-.7.3H68.6c-.5 0-.9 0-1.3-.1H66c-.4 0-.8.1-1.1.1h-.7c-.2 0-.3-.1-.4-.1-.1-.1-.1-.2-.1-.5v-.3-.3-.7-1.1-1.1-.8-.7-.9-.5-.5-1.8-1.8-2-2-.5c0-.1 0-.4.1-.5 0-.2.1-.3.1-.4l.3-.3h.4c.1.1.2.2.4.2l.3.3.3.3.9.9.9.9c.1.1.2.2.3.2.1 0 .1-.1.3-.2l.8-.8.8-.8.6-.6.6-.6.1-.1.1-.1h.3c.1 0 .3.1.3.1.1.1.2.2.2.3v.4c0 .2 0 .4.1.5.2.1.2.2.2.3zm-12.2 4c-.2-.1-.3-.2-.3-.4v-.3-.4-.4c0-.1 0-.2-.1-.3 0-.1-.1-.2-.2-.2-.1-.1-.2-.2-.3-.2-.1-.1-.3-.1-.6-.1s-.5.1-.6.3c-.1.1-.1.2-.2.3 0 .1-.1.2-.1.4v.7c0 .2.1.4.2.7.1.2.2.4.4.6.2.2.3.4.5.6.2.2.3.4.5.6.1.1.2.2.3.4.1.1.2.2.3.4.2.3.4.5.5.6.1.2.3.3.4.5.9 1 1.5 2.2 1.6 3.4v.9c-.1.8-.5 1.4-1.1 1.9l-.1.1c-.1 0-.1.1-.2.1-.2.1-.4.2-.7.3-.2.1-.5.1-.8.1h-.8c-.3 0-.6-.1-.8-.1-.2 0-.4-.1-.6-.2-.2-.1-.3-.2-.5-.3-.2-.1-.3-.2-.5-.4-.2-.1-.3-.3-.4-.4l-.1-.1-.1-.1c-.1-.3-.2-.5-.3-.8-.1-.3-.1-.5-.1-.8v-.5-.5c0-.2 0-.3.1-.4v-.2c.1-.2.3-.3.5-.3h.2c.2 0 .4.1.6.1.2 0 .4.1.6.2.2.1.3.2.3.4s0 .3-.1.5v.6c0 .2.1.5.1.6 0 .2.1.3.3.5.2.1.4.2.6.2.3 0 .5 0 .8-.1.2-.1.3-.3.4-.4.1-.2.1-.4.1-.6 0-.2 0-.4-.1-.7l-.3-.6c-.1-.2-.3-.4-.4-.6-.2-.2-.3-.4-.5-.6-.2-.2-.3-.4-.4-.6-.1-.2-.3-.4-.4-.6-.1-.2-.2-.3-.3-.4-.1-.1-.2-.3-.3-.4-.2-.3-.4-.5-.5-.7-.1-.2-.3-.4-.4-.6 0-.1-.1-.1-.1-.2s-.1-.1-.1-.2c-.3-.4-.5-.7-.6-1.1-.1-.4-.2-.8-.2-1.2v-.7c0-.2.1-.5.2-.7.1-.4.3-.6.7-.9.5-.3 1-.5 1.6-.6.5-.1 1-.1 1.5 0s1 .2 1.4.4c.2.2.4.3.6.5.2.2.3.4.5.6.1.2.2.3.2.5s.1.3.1.5v1.3c0 .4-.3.7-.8.7h-1c0-.6-.1-.6-.1-.6z"/>
  <path class="st1" d="M52.1 89.7v3.2c0 .3 0 .6-.1.9 0 .3-.1.6-.1.9-.1.3-.1.5-.2.8-.1.3-.1.5-.2.8-.1.5-.4 1-.8 1.4-.2.2-.5.4-.8.5-.3.1-.6.2-1 .2s-.7 0-1.1-.1c-.4-.1-.7-.2-1-.4-.2-.1-.5-.3-.7-.6-.3-.3-.6-.7-.7-1.1-.3-.4-.4-.8-.4-1.2 0-.2 0-.5-.1-.7 0-.2 0-.5-.1-.7 0-.2-.1-.6-.1-1 0-.5 0-.9-.1-1.4v-1.3-.8-.7-1-.9-.6-.3-.6-.6-.5-.2c0-.1.1-.2.3-.2h.6c.4 0 .8 0 1.3.1.2 0 .4.1.4.1.1.1.1.2.1.4v8.8c0 .7.1 1.4.3 1.9 0 .2.1.4.2.5.2.3.4.5.6.4.2-.1.4-.3.6-.7.1-.2.1-.4.1-.6 0-.2.1-.4.1-.6 0-.2.1-.5.1-.7 0-.2 0-.5.1-.7 0-.3 0-.5.1-.7V90v-.8-.8-.8V85v-.3V83.8c0-.2.1-.2.2-.2h1.5c.3 0 .4.1.5.4v2c0 .3.1.7.1 1v1.9c.3.2.3.5.3.8m-8.6 8.9c.1.1.1.2.2.4s.1.3-.1.4c-.1.1-.3.1-.5.1h-3c-.4 0-.9 0-1.4-.1h-.4c-.5 0-1 0-1.5.1h-3c-.2 0-.3 0-.5-.1-.1-.1-.2-.2-.1-.4s.2-.3.2-.4c0-.1.1-.1.1-.2s.1-.1.1-.2c.2-.3.3-.6.5-.9.1-.3.3-.6.5-.9.1-.1.1-.2.2-.3.1-.1.1-.2.1-.3.2-.3.3-.6.5-.9.1-.3.3-.6.5-.9.2-.5.5-.9.7-1.4.2-.5.4-.9.6-1.4v-.1c.1-.1.1-.2 0-.4l-.3-.7c0-.1-.1-.3-.3-.6-.1-.3-.3-.6-.5-1s-.3-.7-.5-1.1c-.2-.3-.3-.6-.4-.8l-.3-.6-.3-.6s-.1-.1-.1-.2c-.1-.1-.1-.3-.2-.4-.1-.2-.2-.3-.2-.5-.1-.2-.2-.3-.2-.4-.1-.2-.2-.4-.2-.6-.1-.2 0-.3.2-.4.1-.1.2-.1.3-.1H39.8c.4 0 .8 0 1.2.1H43.2c.1 0 .2 0 .3.1.2.1.2.3.2.4l-.3.6c-.1.1-.1.2-.2.4s-.2.3-.2.5c-.1.2-.2.3-.2.4-.1.1-.1.2-.1.2-.1.2-.3.4-.3.6l-.3.6c-.1.2-.2.5-.4.8-.2.4-.3.7-.5 1.1-.2.4-.3.7-.5 1-.1.3-.2.5-.3.6-.1.1-.1.2-.2.4 0 .1-.1.2-.2.4s-.1.3 0 .4v.1c.2.5.4.9.6 1.4.2.5.4.9.7 1.4.2.3.3.6.5.9.1.3.3.6.5.9.1.1.1.2.2.3 0 .1.1.2.2.3.2.3.3.6.5.9.1.3.3.6.5.9 0 .1.1.1.1.2-.4-.2-.3-.1-.3 0zM28.8 84.9c-.3 0-.5-.2-.5-.6v-.5-.5c0-.3 0-.5.1-.7.1-.1.3-.2.6-.2h.6c.3 0 .5-.1.8-.1h1.2c.3 0 .5.1.6.2.1.1.1.2.2.5v1.5c0 .1-.1.2-.2.3-.2.1-.4.1-.6.1h-2.8zm2.7 4.8c.2 0 .3.2.4.4v1c0 .3 0 .5-.1.8 0 .3-.2.4-.4.4-.3 0-.6-.1-.9-.1h-1.3c-.1 0-.3 0-.4-.1-.2 0-.3-.1-.4-.4 0-.2-.1-.4-.1-.6v-.8c0-.3.2-.4.4-.5.2 0 .3-.1.5-.1H31.5zm.8 7.8V99c0 .2-.1.3-.2.3-.2.1-.4.1-.6.1h-2.7c-.3-.1-.5-.2-.5-.6v-.5-.5c0-.3 0-.5.1-.6.1-.1.3-.2.6-.2h.6c.5-.1 1-.1 1.6 0h.4c.3 0 .5.1.6.2 0 0 .1.1.1.3zM28 87.3c0 .3 0 .7.1 1 0 .3 0 .7-.1 1V99c0 .2-.1.3-.2.3-.2 0-.3.1-.3.1l-.9.1H26c-.2 0-.2-.1-.2-.3v-.1-7.9-.2-.2-.3-.3-.3-.9-.9-.9c0-.3-.1-.7-.1-1v-1V84c0-.4 0-.8-.1-1.2v-.1c0-.2.1-.3.3-.4.2 0 .4-.1.7-.1h.6c.2 0 .4.1.6.1.2 0 .2.1.2.3l.1 1.1v2.5c-.2.5-.2.8-.1 1.1zm-6.4.6c-.2-.1-.3-.2-.3-.4v-.3-.4-.4c0-.1 0-.2-.1-.3 0-.1-.1-.2-.2-.2-.1-.1-.2-.2-.3-.2-.1-.1-.3-.1-.6-.1s-.5.1-.6.3c-.1.1-.1.2-.2.3 0 .1-.1.2-.1.4v.7c0 .2.1.4.2.7.1.2.2.4.4.6.2.2.3.4.5.6.2.2.3.4.5.6.1.1.2.2.3.4.1.1.2.2.3.4.2.3.4.5.5.6.1.2.3.3.4.5.9 1 1.5 2.2 1.6 3.4v.9c-.1.8-.5 1.4-1.1 1.9l-.1.1c-.1 0-.1.1-.2.1-.2.1-.4.2-.7.3-.2.1-.5.1-.8.1h-.8c-.3 0-.6-.1-.8-.1-.2 0-.4-.1-.6-.2-.2-.1-.3-.2-.5-.3-.2-.1-.3-.2-.5-.4-.2-.1-.3-.3-.4-.4l-.1-.1-.1-.1c-.1-.3-.2-.5-.3-.8.1-.6.1-.9.1-1.2v-.5-.5c0-.2 0-.3.1-.4v-.2c.1-.2.3-.3.5-.3h.2c.2 0 .4.1.6.1.2 0 .4.1.6.2.2.1.3.2.3.4s0 .3-.1.5v.6c0 .2.1.5.1.6 0 .2.1.3.3.5.2.1.4.2.6.2.3 0 .5 0 .8-.1.2-.1.3-.3.4-.4.1-.2.1-.4.1-.6 0-.2 0-.4-.1-.7l-.3-.6c-.1-.2-.3-.4-.4-.6-.2-.2-.3-.4-.5-.6-.2-.2-.3-.4-.4-.6-.1-.2-.3-.4-.4-.6-.1-.2-.2-.3-.3-.4-.1-.1-.2-.3-.3-.4-.2-.3-.4-.5-.5-.7-.1-.2-.3-.4-.4-.6 0-.1-.1-.1-.1-.2s-.1-.1-.1-.2c-.3-.4-.5-.7-.6-1.1-.1-.4-.2-.8-.2-1.2v-.7c0-.2.1-.5.2-.7.1-.4.3-.6.7-.9.5-.3 1-.5 1.6-.6.5-.1 1-.1 1.5 0s1 .2 1.4.4c.2.2.4.3.6.5.2.2.3.4.5.6.1.2.2.3.2.5s.1.3.1.5v1.3c0 .4-.3.7-.8.7h-1c-.1-.2-.2-.2-.3-.2zM107 65.1c-.1 0-.1 0-.1.1V72.3c0 .2-.1.5-.2.7 0 .2-.2.2-.4.2h-.9c-.3 0-.5 0-.8-.1-.1 0-.2-.1-.3-.1-.1 0-.2-.1-.2-.2v-.3-.5-.5-.3-.7-1.2-1.4-1.3-.8-1.2-1.2-.7-.5-.5-.6-1.8-.3c0-.1 0-.2.1-.3 0-.1.1-.2.2-.2.2-.1.5-.2.7-.2h1.8c.1 0 .2.1.3.3.1.2.1.3.2.5s.1.4.1.6c0 .2.1.4.1.5l.3.9.3.9c0 .1.1.4.2.8s.3.9.4 1.4c.1.5.3 1 .4 1.4.1.4.2.7.3.9.1.2.1.4.2.7 0 0 .1 0 .1-.1v-.4-.7-.7-.6-.9-.4-.5-.5-.4-.7V59.2v-.1-.1c0-.1 0-.1.1-.2s.2-.1.5-.1h1.5c.2 0 .4.1.5.2.1.1.1.2.1.4-.1.6-.1 1.2-.1 1.8V73.5c0 .1-.1.2-.3.2-.1 0-.3.1-.4.1H110.3c-.1 0-.2 0-.4-.1h-.2c-.1 0-.1 0-.2-.1-.2-.1-.4-.2-.4-.5s-.1-.7-.2-1c-.1-.3-.2-.7-.2-1-.1-.7-.3-1.3-.5-2-.2-.6-.4-1.3-.6-1.9-.1-.3-.2-.5-.3-.8 0-.8-.2-1-.3-1.3z"/>
  <path class="st1" d="M70.9 97c.1 0 .2.1.2.1s.1.1.1.2v1.8c0 .1-.1.1-.2.2s-.2.1-.3.1H68.1c-.2 0-.5 0-.6-.1-.1 0-.2-.1-.3-.1 0-.1-.1-.2-.1-.3 0-.5 0-1 .2-1.5v-.1-.1c.1-.1.1-.2.2-.2s.2 0 .3-.1h2.7c.2.1.3.1.4.1m-4.3-9.8c0 .3.1.6.1.9V98c0 .2 0 .3-.1.5 0 .2 0 .3-.1.5 0 .3-.2.4-.5.5-.3 0-.6.1-.9.1h-1c-.2 0-.3-.2-.3-.4v-1.1-1-1.2-1.1-.2-.1-1.1-1.1-.8-.8-1.5c0-.5 0-1-.1-1.5v-1.4c0-.5 0-1 .1-1.4v-.8-.8-.2-.2c0-.2.1-.3.2-.3.7-.1 1.3-.1 1.9 0 .2 0 .2.1.2.3 0 .5.1 1 .1 1.5v2.2c.3.1.4.4.4.6zM62.5 99s0 .1 0 0v.2c0 .1-.1.2-.2.2-.2 0-.4.1-.5.1h-1c-.1 0-.3 0-.4-.1-.3-.1-.5-.2-.5-.5-.1-.4-.2-.8-.2-1.2-.1-.4-.2-.8-.2-1.2 0-.3-.1-.5-.1-.7-.1-.2-.1-.5-.2-.7 0-.2-.1-.3-.1-.5s-.1-.3-.1-.5h-1.2c-.4 0-.8.1-1.2.1 0 .2-.1.3-.1.6 0 .2 0 .4-.1.7-.2.5-.3 1.1-.4 1.5-.1.5-.1.9-.2 1.3s-.1.6-.2.9c-.1.2-.2.3-.3.3-.2 0-.3.1-.5.1h-.4c-.1 0-.2 0-.4-.1-.1 0-.3-.1-.5-.1h-.2-.1c-.2 0-.2-.1-.2-.3v-.2-.2c.1-.3.1-.7.2-1.1.1-.4.1-.7.2-1.1 0-.2.1-.3.1-.5s0-.3.1-.5c.1-.7.1-1.3.2-2 0-.6.1-1.3.2-2 0-.2.1-.4.1-.6v-.6c0-.4.1-.9.1-1.3s.1-.9.2-1.3c0-.2.1-.4.1-.5v-.6c0-.6.1-1.1.2-1.7.1-.6.2-1.1.3-1.7V83c0-.2.1-.2.2-.3.1 0 .2-.1.4-.1.2-.1.3-.1.6-.2.2 0 .5-.1.8-.1h.9c.3 0 .7 0 1 .1.1 0 .2.2.3.5.1.3.2.6.3 1 .1.4.2.8.2 1.1.1.4.1.7.1 1 0 .3.1.6.1.8 0 .2.1.4.1.6 0 .2 0 .3.1.5 0 .2.1.3.1.5.1.3.1.7.2 1.1.1.4.1.7.2.9.1.3.1.6.2.8.1.3.1.5.2.8 0 .3.1.5.1.7.1.2.1.5.2.7.1.2.1.5.2.9s.1.7.2 1.1c.1.3.1.6.2.9.1.3.1.4.1.5.1.4.1.7.2 1.1.2.4.2.7.3 1.1z"/>
  <path class="st2" d="M64.1 33.5c.2.1.3.3.5.6.1.3.1.6.1.9 0 .2-.1.4-.2.6-.1.1-.3.3-.5.4-.1 0-.2.1-.4.1h-.4c-.3 0-.6-.1-.9-.3-.3-.2-.4-.5-.5-.8-.1-.6.1-1 .5-1.3.5-.4 1-.5 1.6-.3.1 0 .1 0 .2.1m0 3.3c.3 0 .4.1.4.4V44.1c0 .5 0 1-.1 1.4v1.4c0 .2.1.3.1.5v.4c0 .1-.2.2-.3.2-.6.1-1.3.1-1.9 0-.2 0-.3-.1-.3-.2s-.1-.3-.1-.5v-.5c0-.4.1-.8.1-1.2 0-.4 0-.8.1-1.2v-.5-.6-.8-.8-.7-1-1-.7-.4-.4-.2-.2c0-.1.1-.2.3-.2H63.3c.3-.1.5-.1.8-.1zm-4.2-3.1c.1.1.2.2.3.4.1.2.1.4.1.8-.1.2-.2.3-.2.3-.1.1-.3.2-.6.3-.1 0-.2.1-.3.1-.1 0-.1.1-.2.1l-.1.1c-.1 0-.1.1-.2.1-.4.3-.8.6-1.1 1-.3.4-.6.9-.9 1.5-.1.1-.1.2-.2.4 0 .1-.1.2-.1.4-.4.8-.4 1.6-.3 2.3v.4c0 .1.1.3.1.5.1.2.1.4.2.6.1.2.1.4.2.5.1.2.1.3.2.3.2.4.5.8.9 1.1.4.3.9.5 1.4.7.4.1.7.2.9.3.2.1.2.4.2.6 0 .2-.1.3-.1.4-.1.1-.1.3-.2.5-.2.5-.5.6-.9.6h-.3c-.4-.1-.8-.2-1.2-.5-.4-.2-.9-.5-1.3-.9-.8-.6-1.4-1.3-1.7-2-.3-.7-.6-1.3-.6-1.8-.1-.3-.1-.6-.1-.8V41.1v-.6-.6-.2-.2c0-.2.1-.4.1-.7 0-.2.1-.5.2-.7.2-.6.4-1.1.6-1.5.6-1 1.1-1.7 1.7-2.1l.3-.2c.2-.2.4-.3.6-.4.2-.1.3-.2.5-.3.2-.1.3-.2.5-.2.2-.1.4-.1.6-.2.4-.1.6-.1.8-.1-.1.3.1.4.2.6-.1-.1 0-.1 0 0zm-7.8 0c.1.1.2.2.3.4.1.2.1.4.1.8-.1.2-.2.3-.2.3-.1.1-.3.2-.6.3-.1 0-.2.1-.3.1-.1 0-.1.1-.2.1l-.1.1c-.1 0-.1.1-.2.1-.4.3-.8.6-1.1 1-.3.4-.6.9-.9 1.5-.1.1-.1.2-.2.4 0 .1-.1.2-.1.4-.3.9-.4 1.7-.2 2.4v.4c0 .1.1.3.1.5.1.2.1.4.2.6.1.2.1.4.2.5.1.2.1.3.2.3.2.4.5.8.9 1.1.4.3.9.5 1.4.7.4.1.7.2.9.3.2.1.2.4.2.6 0 .2-.1.3-.1.4-.1.1-.1.3-.2.5-.2.4-.6.5-1 .5h-.3c-.4-.1-.8-.2-1.2-.5-.4-.2-.9-.5-1.3-.9-.8-.6-1.4-1.3-1.7-2-.3-.7-.6-1.3-.6-1.8-.1-.3-.1-.6-.1-.8V41.1v-.6-.6-.2-.2c0-.2.1-.4.1-.7 0-.2.1-.5.2-.7.2-.6.4-1.1.6-1.5.6-1 1.1-1.7 1.7-2.1l.3-.2c.2-.2.4-.3.6-.4.2-.1.3-.2.5-.3.2-.1.3-.2.5-.2.2-.1.4-.1.6-.2.4-.1.6-.1.8-.1 0 .3.1.4.2.6 0-.1 0-.1 0 0zm-11 .9c-.3 0-.5-.2-.5-.6v-.5-.5c0-.3 0-.5.1-.7.1-.1.3-.2.6-.2h.6c.3 0 .5-.1.8-.1h1.2c.3 0 .5.1.6.2.1.1.1.2.2.5v1.5c0 .1-.1.2-.2.3-.2.1-.4.1-.6.1h-2.5-.3zm2.7 4.8c.2 0 .3.2.4.4v1c0 .3 0 .5-.1.8 0 .3-.2.4-.4.4-.3 0-.6-.1-.9-.1h-1.3c-.1 0-.3 0-.4-.1-.2 0-.3-.1-.4-.4 0-.2-.1-.4-.1-.6V40c0-.3.2-.4.4-.5.2 0 .3-.1.5-.1H43.8zm.9 7.9v1.5c0 .2-.1.3-.2.3-.2.1-.4.1-.6.1h-2.5-.2c-.3-.1-.5-.2-.5-.6v-.5-.5c0-.3 0-.5.1-.6.1-.1.3-.2.6-.2h.6c.5-.1 1-.1 1.6 0h.4c.3 0 .5.1.6.2-.1-.1 0 0 .1.3zM40.3 37c0 .3 0 .7.1 1 0 .3 0 .7-.1 1V48.7c0 .2-.1.3-.2.3-.2 0-.3.1-.3.1l-.9.1h-.6c-.2 0-.2-.1-.2-.3v-.1V41v-.2-.2-.3-.3-.3-.8-.9-.9c0-.3-.1-.7-.1-1v-1-1.2c0-.4 0-.8-.1-1.2v-.1c0-.2.1-.3.3-.4.2 0 .4-.1.7-.1h.6c.2 0 .4.1.6.1.2 0 .2.1.2.3l.1 1.1v2.5c-.1.3-.1.6-.1.9zm-3.9-2.1v.2c-.1.2-.2.4-.3.4-.1.1-.4.1-.8.2H33.6c-.4 0-.7 0-1.1-.1v2h1.3c.4 0 .8 0 1.3-.1.4 0 .6.1.6.3.1.5.1 1 .1 1.5v.2c-.1.2-.3.3-.5.3h-2.7v1.8c0 .3.1.6.1.9 0 .3 0 .6-.1.9v3.8c0 .2-.1.2-.2.2-.2 0-.4.1-.6.1h-1.2c-.1 0-.2-.1-.2-.1s-.1-.1-.1-.2v-.1c.1-.3.1-.7.1-1v-1c0-.3 0-.6.1-.8 0-.3.1-.6.1-.8v-.7V42v-.3-.3-.3-.3-.2-6.8-.3c0-.1.1-.2.2-.2h4.7c.3 0 .5.1.8.1.2 0 .3.1.3.2v1.3zm-13 4.9c-.1 0-.1 0-.1.1V47c0 .2-.1.5-.2.7 0 .2-.2.2-.4.2h-.9c-.3 0-.5 0-.8-.1-.1 0-.2-.1-.3-.1-.1 0-.2-.1-.2-.2v-.3-.5-.5-.3-.7V44v-1.4-1.3-.8-1.2-1.2-.7-.5-.5-.6V34v-.3c0-.1 0-.2.1-.3 0-.1.1-.2.2-.2.2-.1.5-.2.7-.2h1.8c.1 0 .2.1.3.3.1.2.1.3.2.5s.1.4.1.6c0 .2.1.4.1.5l.3.9.3.9c0 .1.1.4.2.8s.3.9.4 1.4c.1.5.3 1 .4 1.4.1.4.2.7.3.9.1.2.1.4.2.7 0 0 .1 0 .1-.1v-.4-.7-.7-.6-.9-.4-.5-.5-.4-.7-2-.1-.1c0-.1 0-.1.1-.2s.2-.1.5-.1h1.5c.2 0 .4.1.5.2.1.1.1.2.1.4-.1.6-.1 1.2-.1 1.8V48.3c0 .1-.1.2-.3.2-.4-.5-.5-.5-.6-.5H26.5c-.1 0-.2 0-.4-.1h-.2c-.1 0-.1 0-.2-.1-.2-.1-.4-.2-.4-.5s-.1-.7-.2-1c-.1-.3-.2-.7-.2-1-.1-.7-.3-1.3-.5-2-.2-.6-.4-1.3-.6-1.9-.1-.3-.2-.5-.3-.8.1-.2 0-.5-.1-.8zM18.3 32c.2.1.3.3.5.6.1.3.1.6.1.9 0 .2-.1.4-.2.6-.1.1-.3.3-.5.4-.1 0-.2.1-.4.1s-.3 0-.4.1c-.3 0-.6-.1-.9-.3-.3-.2-.4-.5-.5-.8-.1-.6.1-1 .5-1.3.5-.4 1-.5 1.6-.3h.2zm.3 16v1.1c-.1.2-.2.3-.3.3-.7.1-1.3.1-1.9 0-.2 0-.3-.1-.3-.3 0-.2-.1-.4-.1-.6v-.6c0-.5 0-1 .1-1.5 0-.5 0-1 .1-1.5v-.7-.7-1-1-.8-1.3-1.3-.9-.5-.5-.3-.3c0-.1.1-.2.3-.3H17.4c.2 0 .5 0 .7.1.2 0 .3.1.3.2.1.1.1.2.1.3V47.1c.1.3.1.6.1.9z"/>
  <path class="st2" d="M108.9 42.5v-.7-1-1.1-1-.8-.4-.8-1.4-1.4-.7-.5-.5-.3c0-.1.1-.2.2-.2h.8c.2 0 .3.1.5.1s.3.1.4.2c.1 0 .2.1.5.2.2.1.5.3.9.5.4.3.7.6 1 .9l.6.9c.1.2.2.4.3.5.1.2.2.3.2.5.1.2.1.3.2.5s.1.4.2.7c.1.2.1.4.2.8 0 .4.1.7.1 1.1 0 .4.1.7.1 1V41.4c0 .4-.1.8-.2 1.2 0 .2-.1.4-.1.6-.1.2-.1.4-.2.6-.1.3-.2.5-.3.9-.1.3-.3.7-.5 1-.2.2-.3.4-.4.6-.1.2-.2.3-.3.4l-.3.3c-.1.1-.3.2-.4.4-.3.2-.7.5-1.1.8-.4.3-.8.5-1.2.5-.3.1-.6.1-.9.1-.3 0-.4-.1-.4-.1 0-.1-.1-.3-.1-.6s0-.5-.1-.8v-.7-.3-2.5c.3-.4.3-.9.3-1.3m-8-4.9c-.2-.1-.3-.2-.3-.4v-.3-.4-.4c0-.1 0-.2-.1-.3 0-.1-.1-.2-.2-.2-.1-.1-.2-.2-.3-.2-.1-.1-.3-.1-.6-.1s-.5.1-.6.3c-.1.1-.1.2-.2.3 0 .1-.1.2-.1.4v.7c0 .2.1.4.2.7.1.2.2.4.4.6.2.2.3.4.5.6.2.2.3.4.5.6.1.1.2.2.3.4.1.1.2.2.3.4.2.3.4.5.5.6.1.2.3.3.4.5.9 1 1.5 2.2 1.6 3.4v.9c-.1.8-.5 1.4-1.1 1.9l-.1.1c-.1 0-.1.1-.2.1-.2.1-.4.2-.7.3-.2.1-.5.1-.8.1h-.8c-.3 0-.6-.1-.8-.1-.2 0-.4-.1-.6-.2-.2-.1-.3-.2-.5-.3-.2-.1-.3-.2-.5-.4-.2-.1-.3-.3-.4-.4l-.1-.1-.1-.1c-.1-.3-.2-.5-.3-.8-.1-.3-.1-.5-.1-.8v-.5-.5c0-.2 0-.3.1-.4v-.2c.1-.2.3-.3.5-.3h.2c.2 0 .4.1.6.1.2 0 .4.1.6.2.2.1.3.2.3.4s0 .3-.1.5v.6c0 .2.1.5.1.6 0 .2.1.3.3.5.2.1.4.2.6.2.3 0 .5 0 .8-.1.2-.1.3-.3.4-.4.1-.2.1-.4.1-.6 0-.2 0-.4-.1-.7l-.3-.6c-.1-.2-.3-.4-.4-.6-.2-.2-.3-.4-.5-.6-.2-.2-.3-.4-.4-.6-.1-.2-.3-.4-.4-.6-.1-.2-.2-.3-.3-.4-.1-.1-.2-.3-.3-.4-.2-.3-.4-.5-.5-.7-.1-.2-.3-.4-.4-.6 0-.1-.1-.1-.1-.2s-.1-.1-.1-.2c-.3-.4-.5-.7-.6-1.1-.1-.4-.2-.8-.2-1.2v-.7c0-.2.1-.5.2-.7.1-.4.3-.6.7-.9.5-.3 1-.5 1.6-.6.5-.1 1-.1 1.5 0s1 .2 1.4.4c.2.2.4.3.6.5.2.2.3.4.5.6.1.2.2.3.2.5s.1.3.1.5v1.3c0 .4-.3.7-.8.7h-1c0-.6-.1-.6-.1-.6zm-9.6-3c-.3 0-.5-.2-.5-.6v-.5-.5c0-.3 0-.5.1-.7.1-.1.3-.2.6-.2h.6c.3 0 .5-.1.8-.1h1.2c.3 0 .5.1.6.2.1.1.1.2.2.5v1.5c0 .1-.1.2-.2.3-.2.1-.4.1-.6.1h-2.8zm2.7 4.8c.2 0 .3.2.4.4v1c0 .3 0 .5-.1.8 0 .3-.2.4-.4.4-.3 0-.6-.1-.9-.1h-1.3c-.1 0-.3 0-.4-.1-.2 0-.3-.1-.4-.4 0-.2-.1-.4-.1-.6V40c0-.3.2-.4.4-.5.2 0 .3-.1.5-.1H94zm.9 7.9v1.5c0 .2-.1.3-.2.3-.2.1-.4.1-.6.1h-2.7c-.3-.1-.5-.2-.5-.6v-.5-.5c0-.3 0-.5.1-.6.1-.1.3-.2.6-.2h.6c.5-.1 1-.1 1.6 0h.4c.3 0 .5.1.6.2 0-.1 0 0 .1.3zM90.5 37c0 .3 0 .7.1 1 0 .3 0 .7-.1 1V48.7c0 .2-.1.3-.2.3-.2 0-.3.1-.3.1l-1 .2h-.6c-.2 0-.2-.1-.2-.3v-.1V41v-.2-.2-.3-.3-.3-.8-.9-.9c0-.3-.1-.7-.1-1v-1-1.2c0-.4 0-.8-.1-1.2v-.1c0-.2.1-.3.3-.4.2 0 .4-.1.7-.1h.6c.2 0 .4.1.6.1.2 0 .2.1.2.3l.1 1.1V37zm-9.2 2.8c-.1 0-.1 0-.1.1V47c0 .2-.1.5-.2.7 0 .2-.2.2-.4.2h-.9c-.3 0-.5 0-.8-.1-.1 0-.2-.1-.3-.1-.1 0-.2-.1-.2-.2v-.3-.5-.5-.3-.7V44v-1.4-1.3-.8-1.2-1.2-.7-.5-.5-.6V34v-.3c0-.1 0-.2.1-.3 0-.1.1-.2.2-.2.2-.1.5-.2.7-.2h1.8c.1 0 .2.1.3.3.1.2.1.3.2.5s.1.4.1.6c0 .2.1.4.1.5l.3.9.3.9c0 .1.1.4.2.8s.3.9.4 1.4c.1.5.3 1 .4 1.4.1.4.2.7.3.9.1.2.1.4.2.7 0 0 .1 0 .1-.1v-.4-.7-.7-.6-.9-.4-.5-.5-.4-.7-2-.1-.1c0-.1 0-.1.1-.2s.2-.1.5-.1h1.5c.2 0 .4.1.5.2.1.1.1.2.1.4-.1.6-.1 1.2-.1 1.8V48.3c0 .1-.1.2-.3.2-.1 0-.3.1-.4.1H84.6c-.1 0-.2 0-.4-.1H84c-.1 0-.1 0-.2-.1-.2-.1-.4-.2-.4-.5s-.1-.7-.2-1c-.1-.3-.2-.7-.2-1-.1-.7-.3-1.3-.5-2-.2-.6-.4-1.3-.6-1.9-.1-.3-.2-.5-.3-.8-.1-.8-.2-1.1-.3-1.4zm-6.4.8v-.5c0-.1-.1-.3-.1-.5 0-.1-.1-.3-.1-.4-.1-.2-.2-.3-.3-.5-.1-.2-.2-.3-.3-.4l-.2-.2c-.1-.1-.2-.2-.4-.3-.2-.1-.3-.2-.3-.2s-.1 0-.2-.1c-.1 0-.2-.1-.3-.1-.2-.1-.4-.1-.7-.1h-.6c-.2 0-.3.1-.5.1-.1 0-.3.1-.5.2-.3.2-.5.3-.7.5l-.2.2-.2.2c-.1.1-.2.2-.3.4-.1.1-.2.3-.2.4 0 0 0 .1-.1.2 0 .1-.1.2-.1.4 0 .1-.1.3-.1.4 0 .1-.1.2-.1.3v.5c0 .1 0 .3.1.5 0 .1.1.3.1.4.1.2.2.3.3.5.1.2.2.3.3.4l.2.2c.1.1.2.2.4.3.2.1.3.2.3.2s.1 0 .2.1c.1 0 .2.1.4.1.2.1.4.1.6.1h.6c.2 0 .3-.1.5-.1.1 0 .3-.1.5-.2.1-.1.3-.2.4-.2.1-.1.2-.2.3-.2.1-.1.2-.2.3-.4.1-.1.2-.2.3-.4.1-.1.1-.3.2-.4 0 0 0-.1.1-.2 0-.1.1-.2.1-.4 0-.1.1-.3.1-.4.2-.2.2-.3.2-.4zm2.4-.1v.8c0 .3-.1.5-.2.8l-.3.9-.3.6c-.1.2-.3.5-.4.7-.1.2-.3.3-.4.4l-.3.3c-.1.1-.2.2-.3.2-.1.1-.2.2-.4.3-.3.2-.6.3-1 .5s-.7.3-1.1.4H70.8c-.2 0-.3 0-.5-.1-.2 0-.3-.1-.4-.1-.1 0-.2-.1-.4-.1-.2-.1-.5-.2-.8-.3-.4-.2-.7-.4-.9-.6l-.6-.6c-.2-.3-.4-.5-.6-.7-.1-.2-.3-.5-.4-.8 0-.1-.1-.3-.1-.6 0-.2-.1-.5-.1-.7 0-.2-.1-.5-.1-.7v-.4-.8c0-.3.1-.5.2-.8 0-.2.1-.3.1-.4.1-.1.1-.3.1-.4.2-.4.4-.8.7-1.3.1-.2.3-.3.3-.4l.3-.3c.1-.1.2-.2.3-.2.1-.1.2-.2.4-.3.3-.2.6-.3 1-.5s.7-.3 1.1-.4H72.2c.2 0 .3 0 .5.1.2 0 .3.1.4.1.1 0 .2.1.4.1.2.1.5.2.8.3.4.2.7.4.9.6l.6.6c.3.3.4.5.6.7s.2.5.4.8c0 .1.1.3.1.6 0 .2.1.5.1.7 0 .2.1.5.1.7.2.1.2.3.2.3z"/>
  <path class="st2" d="M47.1 64.8c-.1 0-.1 0-.1.1V72c0 .2-.1.5-.2.7 0 .2-.2.2-.4.2h-.9c-.3 0-.5 0-.8-.1-.1 0-.2-.1-.3-.1-.1 0-.2-.1-.2-.2v-.3-.5-.5-.3-.7V69v-1.4-1.3-.8-1.2-1.2-.7-.5-.5-.6V59v-.3c0-.1 0-.2.1-.3 0-.1.1-.2.2-.2.2-.1.5-.2.7-.2H47c.1 0 .2.1.3.3.1.2.1.3.2.5s.1.4.1.6c0 .2.1.4.1.5l.3.9.3.9c0 .1.1.4.2.8s.3.9.4 1.4c.1.5.3 1 .4 1.4.1.4.2.7.3.9.1.2.1.4.2.7 0 0 .1 0 .1-.1v-.4-.7-.7-.6-.9-.4-.5-.5-.4-.7-2-.1-.1c0-.1 0-.1.1-.2s.2-.1.5-.1H52c.2 0 .4.1.5.2.1.1.1.2.1.4-.1.6-.1 1.2-.1 1.8V73.3c0 .1-.1.2-.3.2-.1 0-.3.1-.4.1H50.4c-.1 0-.2 0-.4-.1h-.2c-.1 0-.1 0-.2-.1-.2-.1-.4-.2-.4-.5s-.1-.7-.2-1c-.1-.3-.2-.7-.2-1-.1-.7-.3-1.3-.5-2-.2-.6-.4-1.3-.6-1.9-.1-.3-.2-.5-.3-.8-.1-.8-.2-1.1-.3-1.4M43 73.7s0 .1 0 0v.2c0 .1-.1.2-.2.2-.2 0-.4.1-.5.1h-1c-.1 0-.3 0-.4-.1-.3-.1-.5-.2-.5-.5-.1-.4-.2-.8-.2-1.2-.1-.4-.2-.8-.2-1.2 0-.3-.1-.5-.1-.7-.1-.2-.1-.5-.2-.7 0-.2-.1-.3-.1-.5s-.1-.3-.1-.5h-1.2c-.4 0-.8.1-1.2.1 0 .2-.1.3-.1.6 0 .2 0 .4-.1.7-.1.6-.2 1.1-.2 1.6-.1.5-.1.9-.2 1.3s-.1.6-.2.9c-.1.2-.2.3-.3.3-.2 0-.3.1-.5.1h-.4c-.1 0-.2 0-.4-.1-.1 0-.3-.1-.5-.1H34h-.1c-.2 0-.2-.1-.2-.3v-.2-.2c.1-.3.1-.7.2-1.1.1-.4.1-.7.2-1.1 0-.2.1-.3.1-.5s0-.3.1-.5c.1-.7.1-1.3.2-2 0-.6.1-1.3.2-2 0-.2.1-.4.1-.6v-.6c0-.4.1-.9.1-1.3s.1-.9.2-1.3c0-.2.1-.4.1-.5v-.6c0-.6.1-1.1.2-1.7.1-.6.2-1.1.3-1.7v-.2c0-.2.1-.2.2-.3.1 0 .2-.1.4-.1.2-.1.3-.1.6-.2.2 0 .5-.1.8-.1h.9c.3 0 .7 0 1 .1.1 0 .2.2.3.5.1.3.2.6.3 1 .1.4.2.8.2 1.1.1.4.1.7.1 1 0 .3.1.6.1.8 0 .2.1.4.1.6 0 .2 0 .3.1.5 0 .2.1.3.1.5.1.3.1.7.2 1.1.1.4.1.7.2.9.1.3.1.6.2.8s.1.5.2.8c0 .3.1.5.1.7.1.2.1.5.2.7.1.2.1.5.2.9s.1.7.2 1.1c.1.3.1.6.2.9.1.3.1.4.1.5.1.4.1.7.2 1.1 0 .3 0 .6.1 1zm-10.5-1.2v.3s-.2.1-.3.1c-.2 0-.3.1-.6.1H30c-.2 0-.3-.1-.4-.1-.1-.1-.1-.2-.1-.4v-.4c0-.1 0-.3-.1-.4-.1-.3-.2-.7-.2-1-.1-.3-.2-.7-.2-1l-.3-1.3c0-.2-.1-.3-.1-.4-.1-.1-.1-.3-.1-.4 0-.2-.1-.3-.1-.5s-.1-.4-.1-.5h-.2-.7v2.8c0 .5 0 1 .1 1.5 0 .5 0 1 .1 1.5V73c0 .1-.1.1-.1.1h-.3c-.4-.1-.6-.1-.8-.1h-1.2c-.2-.1-.2-.2-.2-.4v-.1-.1-.8-.8-1.3c0-.4 0-.9-.1-1.3v-.9c0-.3 0-.6.1-.9v-.7-.7-.5-.6-.8-.9-.6-.6-.8-.8c0-.1 0-.2.1-.3 0-.1.1-.2.1-.3.1-.2.2-.2.4-.2H27c.2 0 .3 0 .3.1.1 0 .1.1.1.3.1.3.1.5.1.7.2 0 .4-.1.6-.1h1.6c.3 0 .6.1.9.3.2.1.4.2.7.4.2.1.4.3.6.5.6.6.9 1.3.7 2.1 0 .3-.1.6-.2.9-.1.3-.3.6-.4.9-.1.2-.2.3-.4.5-.2.1-.3.3-.5.4-.1 0-.1.1-.2.1 0 0-.1.1-.2.1.1.4.2.8.3 1.3.1.4.2.8.3 1.3 0 .2.1.3.1.5.1.2.1.3.2.5.1.4.3.9.4 1.3.2.4.3.9.5 1.3 0 .1.1.3.1.4-.2-.2-.1-.1-.1.1zm-8.8-14.9c.1.5 0 1-.2 1.4 0 0 0 .1-.1.1 0 0 0 .1-.1.1-.1.1-.2.2-.3.2H20.9v8c0 .5 0 1 .1 1.5v1.4c0 .5 0 .9-.1 1.4v2c0 .1-.1.2-.2.3-.6.1-1.3.1-1.9 0-.2 0-.2-.1-.2-.3 0-.5-.1-1-.1-1.5v-1.5-.7-.7c0-.3 0-.6-.1-.9 0-.3 0-.6-.1-.9v-.8-.9-.6-.6-.5-.6-.2-.2-.8-.8-1.2-.5-.5h-1c-.4 0-.9 0-1.3-.1-.3 0-.4-.1-.5-.1-.1 0-.1-.1-.1-.2v-.3-.4-.5-.3c0-.1 0-.1.1-.2.2-.2.4-.3.8-.3h6c.2 0 .4 0 .6.1.3 0 .4.1.5.2.2.2.3.3.3.4zm96.5-23c-.3 0-.5-.2-.5-.6v-.5-.5c0-.3 0-.5.1-.7.1-.1.3-.2.6-.2h.6c.3 0 .5-.1.8-.1h1.2c.3 0 .5.1.6.2.1.1.1.2.2.5v1.5c0 .1-.1.2-.2.3-.2.1-.4.1-.6.1h-2.8zm2.7 4.8c.2 0 .3.2.4.4v1c0 .3 0 .5-.1.8 0 .3-.2.4-.4.4-.3 0-.6-.1-.9-.1h-1.3c-.1 0-.3 0-.4-.1-.2 0-.3-.1-.4-.4 0-.2-.1-.4-.1-.6V40c0-.3.2-.4.4-.5.2 0 .3-.1.5-.1H122.9zm.8 7.9v1.5c0 .2-.1.3-.2.3-.2.1-.4.1-.6.1h-2.7c-.3-.1-.5-.2-.5-.6v-.5-.5c0-.3 0-.5.1-.6.1-.1.3-.2.6-.2h.6c.5-.1 1-.1 1.6 0h.4c.3 0 .5.1.6.2 0-.1 0 0 .1.3zM119.4 37c0 .3 0 .7.1 1 0 .3 0 .7-.1 1V48.7c0 .2-.1.3-.2.3-.2 0-.3.1-.3.1l-.9.1h-.6c-.2 0-.2-.1-.2-.3v-.1V41v-.2-.2-.3-.3-.3-.8-.9-.9c0-.3-.1-.7-.1-1v-1-1.2c0-.4 0-.8-.1-1.2v-.1c0-.2.1-.3.3-.4.2 0 .4-.1.7-.1h.6c.2 0 .4.1.6.1.2 0 .2.1.2.3l.1 1.1v2.5c-.2.3-.2.6-.1.9z"/>
  <path class="st2" d="M93.1 59c-.1-.3-.2-.7-.3-1 0-.2 0-.3.1-.3s.2-.1.4-.1c.2-.1.5-.1.7-.2.3-.1.5-.2.8-.2.2-.1.4-.1.6-.2.1 0 .3-.1.5-.1s.3-.1.3-.1c.3 0 .5-.1.7-.1.2-.1.4-.1.7-.2 0 0 .1 0 .1-.1 0 0 .1 0 .1-.1 0 0 .1-.1.2 0 .1 0 .1.1.2.2.1.2.2.5.2.7.1.2.1.5.2.7 0 .1 0 .2-.1.2-.1.1-.3.1-.4.2-.2 0-.4.1-.6.1-.2 0-.4.1-.6.1h-.5c-.1 0-.2.1-.4.1-.1 0-.2.1-.4.1-.1 0-.2.1-.3.1-.2 0-.3.1-.5.1s-.3.1-.5.1-.3.1-.3.1h-.2c-.1 0-.1 0-.2.1h-.2c-.1 0-.1-.1-.2-.2 0 .2 0 .1-.1 0 .1.1 0 0 0 0m5.9 6.7v-.5c0-.1-.1-.3-.1-.5 0-.1-.1-.3-.1-.4-.1-.2-.2-.3-.3-.5-.1-.2-.2-.3-.3-.4l-.2-.2c-.1-.1-.2-.2-.4-.3-.2-.1-.3-.2-.3-.2s-.1 0-.2-.1-.2-.1-.3-.1c-.2-.1-.4-.1-.7-.1h-.6c-.2 0-.3.1-.5.1-.1 0-.3.1-.5.2-.3.2-.5.3-.7.5l-.2.2-.2.2c-.1.1-.2.2-.3.4-.1.1-.2.3-.2.4 0 0 0 .1-.1.2 0 .1-.1.2-.1.4 0 .1-.1.3-.1.4 0 .1-.1.2-.1.3v.5c0 .1 0 .3.1.5 0 .1.1.3.1.4.1.2.2.3.3.5.1.2.2.3.3.4l.2.2c.1.1.2.2.4.3.2.1.3.2.3.2s.1 0 .2.1c.1 0 .2.1.3.1.2.1.4.1.6.1h.6c.2 0 .3-.1.5-.1.1 0 .3-.1.5-.2.3-.1.5-.3.7-.5l.2-.2c.1-.1.1-.1.1-.2.1-.1.2-.2.3-.4.1-.1.1-.3.2-.4 0 0 0-.1.1-.2 0-.1.1-.2.1-.4 0-.1.1-.3.1-.4.3-.1.3-.2.3-.3zm2.4-.1v.8c0 .3-.1.6-.2.8l-.3.9-.3.6c-.1.2-.3.5-.4.7-.1.2-.3.3-.4.4l-.3.3c-.1.1-.2.2-.3.2-.1.1-.2.2-.4.3-.3.2-.6.3-1 .5s-.7.3-1.1.4h-1.1-.7c-.2 0-.3 0-.5-.1-.2 0-.3-.1-.4-.1-.1 0-.2-.1-.4-.1-.2-.1-.5-.2-.8-.3-.4-.2-.7-.4-.9-.6l-.6-.6c-.2-.3-.4-.5-.5-.7-.1-.2-.2-.5-.4-.8 0-.1-.1-.3-.1-.6 0-.2-.1-.5-.1-.7 0-.2-.1-.5-.1-.7v-.4-.8c0-.3.1-.5.2-.8 0-.2.1-.3.1-.4 0-.1.1-.3.1-.4l.3-.6c.1-.2.3-.4.4-.7.1-.2.3-.3.3-.4l.3-.3c.1-.1.2-.2.3-.2.1-.1.2-.2.4-.3.3-.2.6-.3 1-.5s.7-.3 1.1-.4H96.4c.2 0 .3 0 .5.1.2 0 .3.1.4.1.1 0 .2.1.4.2s.5.2.8.4c.4.2.7.4.9.6l.6.6c.3.3.4.5.6.7.1.2.2.5.4.8 0 .1.1.3.1.6 0 .2.1.5.1.7 0 .2.1.5.1.7.1-.1.1.1.1.1zM88 58.5c.2.1.3.3.5.6.1.3.1.6.1.9 0 .2-.1.4-.2.6-.1.1-.3.3-.5.4-.1 0-.2.1-.4.1h-.4c-.3 0-.6-.1-.9-.3-.3-.2-.4-.5-.5-.8-.1-.6.1-1 .5-1.3.5-.4 1-.5 1.6-.3.1 0 .1 0 .2.1-.1 0 0 0 0 0zm-.1 3.3c.3 0 .4.1.4.4V69.1c0 .5 0 1-.1 1.4v1.4c0 .2.1.3.1.5v.4c0 .1-.2.2-.3.2-.6.1-1.3.1-1.9 0-.2 0-.3-.1-.3-.2s-.1-.3-.1-.5v-.5c0-.4.1-.8.1-1.2 0-.4 0-.8.1-1.2v-.5-.6-.8-.8-.7-1-1-.7-.4-.4-.2-.2c0-.1.1-.2.3-.2H87.1c.4-.2.6-.1.8-.1zm-6.4.8c-.2-.1-.3-.2-.3-.4v-.3-.4-.4c0-.1 0-.2-.1-.3 0-.1-.1-.2-.2-.2-.1-.1-.2-.2-.3-.2-.1-.1-.3-.1-.6-.1s-.5.1-.6.3c-.1.1-.1.2-.2.3 0 .1-.1.2-.1.4v.7c0 .2.1.4.2.7.1.2.2.4.4.6.2.2.3.4.5.6.2.2.3.4.5.6.1.1.2.2.3.4.1.1.2.2.3.4.2.3.4.5.5.6s.3.3.4.5c.9 1 1.5 2.2 1.6 3.4v.9c-.1.8-.5 1.4-1.1 1.9l-.1.1c-.1 0-.1.1-.2.1-.2.1-.4.2-.7.3-.1-.2-.4-.1-.7-.1h-.8c-.3 0-.6-.1-.8-.1-.2 0-.4-.1-.6-.2-.2-.1-.3-.2-.5-.3-.2-.1-.3-.2-.5-.4-.2-.1-.3-.3-.4-.4l-.1-.1-.1-.1c-.1-.3-.2-.5-.3-.8-.1-.3-.1-.5-.1-.8v-.5-.5c0-.2 0-.3.1-.4v-.2c.1-.2.3-.3.5-.3h.2c.2 0 .4.1.6.1h.8c.2.1.3.2.3.4s0 .3-.1.5v.6c0 .2.1.5.1.6 0 .2.1.3.3.5.2.1.4.2.6.2.3 0 .5 0 .8-.1.2-.1.3-.3.4-.4.1-.2.1-.4.1-.6 0-.2 0-.4-.1-.7l-.3-.6c-.1-.2-.3-.4-.4-.6-.2-.2-.3-.4-.5-.6-.2-.2-.3-.4-.4-.6-.1-.2-.3-.4-.4-.6-.1-.2-.2-.3-.3-.4-.1-.1-.2-.3-.3-.4-.2-.3-.4-.5-.5-.7-.1-.2-.3-.4-.4-.6 0-.1-.1-.1-.1-.2s-.1-.1-.1-.2c-.3-.4-.5-.7-.6-1.1-.1-.4-.2-.8-.2-1.2v-.7c0-.2.1-.5.2-.7.1-.4.3-.6.7-.9.5-.3 1-.5 1.6-.6.5-.1 1-.1 1.5 0s1 .2 1.4.4c.2.2.4.3.6.5.2.2.3.4.5.6.1.2.2.3.2.5s.1.3.1.5v1.3c0 .4-.3.7-.8.7h-1c-.2-.2-.3-.2-.4-.2zm-6.8-4.1c.2.1.3.3.5.6.1.3.1.6.1.9 0 .2-.1.4-.2.6-.1.1-.3.3-.5.4-.1 0-.2.1-.4.1h-.4c-.3 0-.6-.1-.9-.3-.3-.2-.4-.5-.5-.8-.1-.6.1-1 .5-1.3.5-.4 1-.5 1.6-.3.1 0 .2 0 .2.1zm0 3.3c.3 0 .4.1.4.4V69.1c0 .5 0 1-.1 1.4v1.4c0 .2.1.3.1.5v.4c0 .1-.2.2-.3.2-.6.1-1.3.1-1.9 0-.2 0-.3-.1-.3-.2s-.1-.3-.1-.5v-.5c0-.4.1-.8.1-1.2 0-.4 0-.8.1-1.2v-.5-.6-.8-.8-.7-1-1-.7-.4-.4-.2-.2c0-.1.1-.2.3-.2H73.9c.3-.2.5-.1.8-.1zm-4-3.2V63.9c0 .5 0 1.1-.1 1.7 0 .6 0 1.2-.1 1.8 0 .6-.1 1-.1 1.2v4.9c0 .1-.1.3-.1.4-.1.2-.3.3-.7.3H67.2c-.5 0-.9 0-1.3-.1h-1.3c-.4 0-.8.1-1.1.1h-.7c-.2 0-.3-.1-.4-.1-.1-.1-.1-.2-.1-.5v-.3-.3-.7-1.1-1.1-.8-.7-.9-.5-.5-1.8-1.8-2-2-.5c0-.1 0-.4.1-.5 0-.2.1-.3.1-.4l.3-.3h.4c.1.1.2.2.4.2l.3.3.3.3.9.9.9.9c.1.1.2.2.3.2.1 0 .1-.1.3-.2l.8-.8.8-.8.6-.6.6-.6.1-.1.1-.1h.3c.1 0 .3.1.3.1.1.1.2.2.2.3v.4c0 .2 0 .4.1.5.2.1.2.2.2.3zm-12.2 4c-.2-.1-.3-.2-.3-.4v-.3-.4-.4c0-.1 0-.2-.1-.3 0-.1-.1-.2-.2-.2-.1-.1-.2-.2-.3-.2-.1-.1-.3-.1-.6-.1s-.5.1-.6.3c-.1.1-.1.2-.2.3 0 .1-.1.2-.1.4v.7c0 .2.1.4.2.7.1.2.2.4.4.6.2.2.3.4.5.6.2.2.3.4.5.6.1.1.2.2.3.4.1.1.2.2.3.4.2.3.4.5.5.6s.3.3.4.5c.9 1 1.5 2.2 1.6 3.4v.9c-.1.8-.5 1.4-1.1 1.9l-.1.1c-.1 0-.1.1-.2.1-.2.1-.4.2-.7.3-.1-.2-.4-.1-.7-.1h-.8c-.3 0-.6-.1-.8-.1-.2 0-.4-.1-.6-.2-.2-.1-.3-.2-.5-.3-.2-.1-.3-.2-.5-.4-.2-.1-.3-.3-.4-.4l-.1-.1-.1-.1c-.1-.3-.2-.5-.3-.8-.1-.3-.1-.5-.1-.8v-.5-.5c0-.2 0-.3.1-.4v-.2c.1-.2.3-.3.5-.3h.2c.2 0 .4.1.6.1.2 0 .4.1.6.2.2.1.3.2.3.4s0 .3-.1.5v.6c0 .2.1.5.1.6 0 .2.1.3.3.5.2.1.4.2.6.2.3 0 .5 0 .8-.1.2-.1.3-.3.4-.4.1-.2.1-.4.1-.6 0-.2 0-.4-.1-.7l-.3-.6c-.1-.2-.3-.4-.4-.6-.2-.2-.3-.4-.5-.6-.2-.2-.3-.4-.4-.6s-.3-.4-.4-.6c-.1-.2-.2-.3-.3-.4-.1-.1-.2-.3-.3-.4-.2-.3-.4-.5-.5-.7-.1-.2-.3-.4-.4-.6 0-.1-.1-.1-.1-.2s-.1-.1-.1-.2c-.3-.4-.5-.7-.6-1.1-.1-.4-.2-.8-.2-1.2v-.7c0-.2.1-.5.2-.7.1-.4.3-.6.7-.9.5-.3 1-.5 1.6-.6.5-.1 1-.1 1.5 0s1 .2 1.4.4c.2.2.4.3.6.5.2.2.3.4.5.6.1.2.2.3.2.5s.1.3.1.5v1.3c0 .4-.3.7-.8.7h-1c0-.4-.1-.4-.2-.4z"/>
  <path class="st2" d="M50.7 89.4v3.2c0 .3 0 .6-.1.9 0 .3-.1.6-.1.9-.1.3-.1.5-.2.8-.1.3-.1.5-.2.8-.1.5-.4 1-.8 1.4-.2.2-.5.4-.8.5-.3.1-.6.2-1 .2s-.7 0-1.1-.1c-.4-.1-.7-.2-1-.4-.2-.1-.5-.3-.7-.6-.3-.3-.6-.7-.7-1.1-.2-.4-.3-.8-.3-1.2 0-.2 0-.5-.1-.7 0-.2 0-.5-.1-.7 0-.2-.1-.6-.1-1 0-.5 0-.9-.1-1.4v-1.3-.8-.7-1-.9-.6-.3-.6-.6-.5-.2c0-.1.1-.2.3-.2h.6c.4 0 .8 0 1.3.1.2 0 .4.1.4.1.1.1.1.2.1.4v8.8c0 .7.1 1.4.3 1.9 0 .2.1.4.2.5.2.3.4.5.6.4.2-.1.4-.3.6-.7.1-.2.1-.4.1-.6 0-.2.1-.4.1-.6 0-.2.1-.5.1-.7 0-.2 0-.5.1-.7 0-.3 0-.5.1-.7v-1.5-.8-.8-.8V85v-.3V83.8c0-.2.1-.2.2-.2h1.5c.3 0 .4.1.5.4v2c0 .3.1.7.1 1v1.9c.2-.1.2.2.2.5m-8.5 8.9c.1.1.1.2.2.4s.1.3-.1.4c-.1.1-.3.1-.5.1h-3c-.4 0-.9 0-1.4-.1H37c-.5 0-1 0-1.5.1h-3c-.2 0-.3 0-.5-.1-.1-.1-.2-.2-.1-.4s.2-.3.2-.4c0-.1.1-.1.1-.2s.1-.1.1-.2c.2-.3.3-.6.5-.9.1-.3.3-.6.5-.9.1-.1.1-.2.2-.3.1-.1.1-.2.1-.3.2-.3.3-.6.5-.9.1-.3.3-.6.5-.9.2-.5.5-.9.7-1.4.2-.5.4-.9.6-1.4v-.1c.1-.1.1-.2 0-.4l-.3-.7c0-.1-.1-.3-.3-.6-.1-.3-.3-.6-.5-1s-.3-.7-.5-1.1c-.2-.3-.3-.6-.4-.8l-.3-.6-.3-.6s-.1-.1-.1-.2c-.1-.1-.1-.3-.2-.4-.1-.2-.2-.3-.2-.5-.1-.2-.2-.3-.2-.4-.1-.2-.2-.4-.2-.6-.1-.2 0-.3.2-.4.1-.1.2-.1.3-.1H38.5c.4 0 .8 0 1.2.1H41.9c.1 0 .2 0 .3.1.2.1.2.3.2.4l-.3.6c-.1.1-.1.2-.2.4s-.2.3-.2.5c-.1.2-.2.3-.2.4-.1.1-.1.2-.1.2-.1.2-.3.4-.3.6l-.3.6c-.1.2-.2.5-.4.8-.2.4-.3.7-.5 1.1-.2.4-.3.7-.5 1-.1.3-.2.5-.3.6-.1.1-.1.2-.2.4 0 .1-.1.2-.2.4s-.1.3 0 .4v.1c.2.5.4.9.6 1.4.2.5.4.9.7 1.4.2.3.3.6.5.9.1.3.3.6.5.9.1.1.1.2.2.3 0 .1.1.2.2.3.2.3.3.6.5.9.1.3.3.6.5.9-.4-.1-.4-.1-.4 0 .1 0 .1.1.2.2zM27.4 84.6c-.3 0-.5-.2-.5-.6v-.5-.5c0-.3 0-.5.1-.7.1-.1.3-.2.6-.2h.6c.3 0 .5-.1.8-.1h1.2c.3 0 .5.1.6.2.1.1.1.2.2.5v1.5c0 .1-.1.2-.2.3-.2.1-.4.1-.6.1h-2.8zm2.7 4.8c.2 0 .3.2.4.4v1c0 .3 0 .5-.1.8 0 .3-.2.4-.4.4-.3 0-.6-.1-.9-.1h-1.3c-.1 0-.3 0-.4-.1-.2 0-.3-.1-.4-.4 0-.2-.1-.4-.1-.6V90c0-.3.2-.4.4-.5.2 0 .3-.1.5-.1H30.1zm.8 7.8v1.5c0 .2-.1.3-.2.3-.2.1-.4.1-.6.1h-2.7c-.3-.1-.5-.2-.5-.6V98v-.5c0-.3 0-.5.1-.6.1-.1.3-.2.6-.2h.6c.5-.1 1-.1 1.6 0h.4c.3 0 .5.1.6.2 0 0 .1.1.1.3zM26.6 87c0 .3 0 .7.1 1 0 .3 0 .7-.1 1V98.7c0 .2-.1.3-.2.3-.2 0-.3.1-.3.1l-.9.1h-.6c-.2 0-.2-.1-.2-.3v-.1V91v-.2-.2-.3-.3-.3-.8-.9-.9c0-.3-.1-.7-.1-1v-1-1.2c0-.4 0-.8-.1-1.2v-.1c0-.2.1-.3.3-.4.2 0 .4-.1.7-.1h.6c.2 0 .4.1.6.1.2 0 .2.1.2.3l.1 1.1v2.5c-.1.3-.1.6-.1.9zm-6.3.6c-.2-.1-.3-.2-.3-.4v-.3-.4-.4c0-.1 0-.2-.1-.3 0-.1-.1-.2-.2-.2-.1-.1-.2-.2-.3-.2-.1-.1-.3-.1-.6-.1s-.5.1-.6.3c-.1.1-.1.2-.2.3 0 .1-.1.2-.1.4v.7c0 .2.1.4.2.7.1.2.2.4.4.6.2.2.3.4.5.6.2.2.3.4.5.6.1.1.2.2.3.4.1.1.2.2.3.4.2.3.4.5.5.6.1.2.3.3.4.5.9 1 1.5 2.2 1.6 3.4v.9c-.1.8-.5 1.4-1.1 1.9l-.1.1c-.1 0-.1.1-.2.1-.2.1-.4.2-.7.3-.2.1-.5.1-.8.1h-.8c-.3 0-.6-.1-.8-.1-.2 0-.4-.1-.6-.2-.2-.1-.3-.2-.5-.3-.2-.1-.3-.2-.5-.4-.2-.1-.3-.3-.4-.4l-.1-.1-.1-.1c-.1-.3-.2-.5-.3-.8-.1-.3-.1-.5-.1-.8v-.5-.5c0-.2 0-.3.1-.4v-.2c.1-.2.3-.3.5-.3h.2c.2 0 .4.1.6.1.2 0 .4.1.6.2.2.1.3.2.3.4s0 .3-.1.5v.6c0 .2.1.5.1.6 0 .2.1.3.3.5.2.1.4.2.6.2.3 0 .5 0 .8-.1.2-.1.3-.3.4-.4.1-.2.1-.4.1-.6 0-.2 0-.4-.1-.7l-.3-.6c-.1-.2-.3-.4-.4-.6-.2-.2-.3-.4-.5-.6-.2-.2-.3-.4-.4-.6s-.3-.4-.4-.6c-.1-.2-.2-.3-.3-.4-.1-.1-.2-.3-.3-.4-.2-.3-.4-.5-.5-.7-.1-.2-.3-.4-.4-.6 0-.1-.1-.1-.1-.2s-.1-.1-.1-.2c-.3-.4-.5-.7-.6-1.1-.1-.4-.2-.8-.2-1.2v-.7c0-.2.1-.5.2-.7.1-.4.3-.6.7-.9.5-.3 1-.5 1.6-.6.5-.1 1-.1 1.5 0s1 .2 1.4.4c.2.2.4.3.6.5.2.2.3.4.5.6.1.2.2.3.2.5s.1.3.1.5v1.3c0 .4-.3.7-.8.7h-1c0-.6-.1-.6-.1-.6zm85.4-22.8c-.1 0-.1 0-.1.1V72c0 .2-.1.5-.2.7 0 .2-.2.2-.4.2h-.9c-.3 0-.5 0-.8-.1-.1 0-.2-.1-.3-.1-.1 0-.2-.1-.2-.2v-.3-.5-.5-.3-.7V69v-1.4-1.3-.8-1.2-1.2-.7-.5-.5-.6V59v-.3c0-.1 0-.2.1-.3 0-.1.1-.2.2-.2.2-.1.5-.2.7-.2h1.8c.1 0 .2.1.3.3.1.2.1.3.2.5s.1.4.1.6c0 .2.1.4.1.5l.3.9.3.9c0 .1.1.4.2.8s.3.9.4 1.4c.1.5.3 1 .4 1.4.1.4.2.7.3.9.1.2.1.4.2.7 0 0 .1 0 .1-.1v-.4-.7-.7-.6-.9-.4-.5-.5-.4-.7-2-.1-.1c0-.1 0-.1.1-.2s.2-.1.5-.1h1.5c.2 0 .4.1.5.2.1.1.1.2.1.4-.1.6-.1 1.2-.1 1.8V73.3c0 .1-.1.2-.3.2-.1 0-.3.1-.4.1H109c-.1 0-.2 0-.4-.1h-.2c-.1 0-.1 0-.2-.1-.2-.1-.4-.2-.4-.5s-.1-.7-.2-1c-.1-.3-.2-.7-.2-1-.1-.7-.3-1.3-.5-2-.2-.6-.4-1.3-.6-1.9-.1-.3-.2-.5-.3-.8-.1-.8-.2-1.1-.3-1.4z"/>
  <path class="st2" d="M69.6 96.8c.1 0 .2.1.2.1s.1.1.1.2v1.8c0 .1-.1.1-.2.2s-.2.1-.3.1H66.8c-.2 0-.5 0-.6-.1-.1 0-.2-.1-.3-.1 0-.1-.1-.2-.1-.3 0-.5 0-1 .2-1.5v-.1-.1c.1-.1.1-.2.2-.2s.2 0 .3-.1h2.7c.1 0 .2 0 .4.1m-4.4-9.9c0 .3.1.6.1.9v9.9c0 .2 0 .3-.1.5 0 .2 0 .3-.1.5 0 .3-.2.4-.5.5-.3 0-.6.1-.9.1h-1c-.2 0-.3-.2-.3-.4v-1.1-1-1.2-1.1-.2-.1-1.1V92v-.8-.8-1.5c0-.5 0-1-.1-1.5V86c0-.5 0-1 .1-1.4v-.8-.8-.2-.2c0-.2.1-.3.2-.3.7-.1 1.3-.1 1.9 0 .2 0 .2.1.2.3 0 .5.1 1 .1 1.5v2.2c.4.2.4.4.4.6zm-4.1 11.8s0 .1 0 0v.2c0 .1-.1.2-.2.2-.2 0-.4.1-.5.1h-1c-.1 0-.3 0-.4-.1-.3-.1-.5-.2-.5-.5-.1-.4-.2-.8-.2-1.2-.1-.4-.2-.8-.2-1.2 0-.3-.1-.5-.1-.7-.1-.2-.1-.5-.2-.7 0-.2-.1-.3-.1-.5s-.1-.3-.1-.5h-1.2c-.4 0-.8.1-1.2.1 0 .2-.1.3-.1.6 0 .2 0 .4-.1.7-.1.6-.2 1.1-.2 1.6-.1.5-.1.9-.2 1.3s-.1.6-.2.9c-.1.2-.2.3-.3.3-.2 0-.3.1-.5.1h-.4c-.1 0-.2 0-.4-.1-.1 0-.3-.1-.5-.1h-.2-.1c-.2 0-.2-.1-.2-.3v-.2-.2c.1-.3.1-.7.2-1.1.1-.4.1-.7.2-1.1 0-.2.1-.3.1-.5s0-.3.1-.5c.1-.7.1-1.3.2-2 0-.6.1-1.3.2-2 0-.2.1-.4.1-.6v-.6c0-.4.1-.9.1-1.3s.1-.9.2-1.3c0-.2.1-.4.1-.5v-.6c0-.6.1-1.1.2-1.7.1-.6.2-1.1.3-1.7v-.2c0-.2.1-.2.2-.3.1 0 .2-.1.4-.1.2-.1.3-.1.6-.2.2 0 .5-.1.8-.1h.9c.3 0 .7 0 1 .1.1 0 .2.2.3.5.1.3.2.6.3 1 .1.4.2.8.2 1.1.1.4.1.7.1 1 0 .3.1.6.1.8 0 .2.1.4.1.6 0 .2 0 .3.1.5 0 .2.1.3.1.5.1.3.1.7.2 1.1.1.4.1.7.2.9.1.3.1.6.2.8.1.3.1.5.2.8 0 .3.1.5.1.7.1.2.1.5.2.7.1.2.1.5.2.9s.1.7.2 1.1c.1.3.1.6.2.9.1.3.1.4.1.5.1.4.1.7.2 1.1 0 .3.1.6.1 1z"/>
</svg>