<svg xmlns="http://www.w3.org/2000/svg" width="8" height="8.2" viewBox="0 0 8 8.2">
  <path d="M6.1 3.3c-.1 0-.2 0-.3-.1-.1 0-.2-.1-.3-.1-.2 0-.3-.1-.4-.1-.1-.1-.2-.2-.1-.3 0-.1 0-.3.1-.5s.2-.3.2-.5c.1-.2.1-.4.1-.5 0-.5 0-.8-.3-1C5 0 4.7-.1 4.2.1c-.2 0-.4.1-.5.2-.1.1-.2.2-.3.4 0 .1-.1.1-.1.2s0 .1-.1.2c0 .1-.1.3-.1.4-.1.2-.1.3-.2.5-.1.1-.1.2-.2.2s-.2 0-.3-.1c-.2 0-.4-.1-.6-.2-.1-.1-.3-.3-.5-.4-.1 0-.2-.1-.4-.1s-.3 0-.4.1c-.2.1-.3.2-.3.3-.2.2-.2.5-.2.7 0 .3.1.5.2.7.1.2.3.3.5.4.2 0 .3.1.5.1.1.1.3.1.4.2.2.1.3.2.3.3.1.1.1.2.1.4s0 .3-.1.5c-.1.1-.1.3-.2.4-.1.1-.2.3-.3.5 0 .1-.1.3-.2.5-.1.3-.1.6 0 .9.1.2.3.4.6.6.2.1.3.2.5.2s.3 0 .5-.1.3-.2.4-.4c0-.1.1-.1.1-.2v-.2c0-.3.1-.6.2-.9 0-.4.1-.6.2-.9.1-.3.2-.5.4-.6.1 0 .3 0 .6.1l.9.3.9.3c.2.1.4.2.6.2h.3c.1 0 .2-.1.2-.2.1-.1.2-.3.3-.5V5H8v-.4c0-.2-.1-.3-.2-.5 0-.2-.1-.3-.2-.4-.2-.1-.3-.1-.4-.1-.2 0-.3 0-.5-.1s-.4-.1-.6-.2" fill-rule="evenodd" clip-rule="evenodd" fill="#a44685"/>
</svg>