<svg xmlns="http://www.w3.org/2000/svg" width="8" height="8.6" viewBox="0 0 8 8.6">
  <path d="M1.7 5.1c0-.4-.1-.8-.1-1.2 0-.4 0-.8-.1-1.2 0-.1 0-.2.1-.3h.3c.9.5 1.8 1 2.8 1.5.2.1.3.2.3.3 0 .1-.1.2-.2.3l-.6.3c-.2.1-.4.3-.6.4l-.6.3-.6.3c-.2.1-.3.1-.4.1-.1 0-.1-.1-.2-.3 0-.1 0-.2-.1-.2.1-.1.1-.2 0-.3m-.2 3.4c.1 0 .2 0 .3-.1.1 0 .2-.1.2-.2l.7-.7c.3-.3.7-.5 1.2-.8.4-.2.9-.4 1.3-.7l1.2-.6c.3-.2.6-.3.8-.4.2 0 .4-.1.5-.3l.3-.6v-.4c-.1-.1-.2-.2-.4-.3-.2-.1-.4-.2-.7-.2l-.6-.3c-.1-.1-.4-.3-.7-.5-.4-.2-.7-.4-1.2-.7l-1.2-.6c-.4-.2-.7-.4-1-.6-.3-.2-.4-.3-.5-.3C1.4.1 1.1 0 .9 0 .6 0 .4.1.2.2c-.1.2-.2.5-.2.9v1.2c0 .3.1.7.1 1 0 .3.1.7.1 1v.6c0 .2 0 .4-.1.6 0 .5-.1.8-.1 1.1v.9c0 .4.2.7.5.8.3.3.6.3 1 .2z" fill-rule="evenodd" clip-rule="evenodd" fill="#00818b"/>
</svg>