<svg xmlns="http://www.w3.org/2000/svg" width="304.5" height="61.8" viewBox="0 0 304.5 61.8">
  <style>
    .preservativos-1{fill:#7c51a0}
  </style>
  <path d="M281.4 59.8l-20.7-11.5c-.7-.4-1-1.3-.6-2s1.3-1 2-.6l20.7 11.5c.7.4 1 1.3.6 2s-1.3 1-2 .6zm2.4-4.2L303 21c2.5-4.6 1.8-10.2-1.7-13.9l.9-1.7c1-1.7.3-4-1.4-4.9-1.7-1-4-.3-4.9 1.4l-.9 1.7c-5.1-1-10.2 1.3-12.7 5.9l-2 3.7c-.2.4-.1 1 .4 1.3.4.2 1 .1 1.3-.4l2-3.7c2.2-4 6.9-6 11.4-4.8.4.1.8-.1 1-.4l1.3-2.3c.5-.9 1.6-1.2 2.4-.7.9.5 1.2 1.6.7 2.4l-1.3 2.3c-.2.4-.1.8.2 1.1 3.4 3.2 4.1 8.2 1.9 12.2l-19.2 34.6-17.8-9.8L280 17.3c.2-.4.1-1-.4-1.3-.4-.2-1-.1-1.3.4L263 44.1c-1.6-.9-3.6-.3-4.5 1.3-.9 1.6-.3 3.6 1.3 4.5l20.7 11.5c1.6.9 3.6.3 4.5-1.3.9-1.6.4-3.6-1.2-4.5z" fill-rule="evenodd" clip-rule="evenodd" fill="#7c51a0"/>
  <path class="preservativos-1" d="M56.9 27c0 .4 0 .7.1 1 .4 2.4.6 4.2.7 5.3.1.6.2 1.6.4 3.1s.4 3 .6 4.6c.2 1.6.3 2.4.3 2.5 0 .1.1.1.3.1.2 0 .5 0 .9-.1l.7-.1-.1-.4v-.3c0-.4-.1-1.4-.4-3-.2-1.6-.4-2.6-.4-2.9v-.2c.1-.1.4-.1 1-.1.5 0 1.5.9 2.9 2.8 1.5 1.9 2.2 3.1 2.3 3.8.1.1.1.1.1.2s0 .1.1.2c0 0 .1.1.3.1h1.7c.4 0 .6 0 .6-.1v-.1c0-.4-.4-1.2-1.1-2.3-.7-1.1-1.5-2.1-2.4-3.1-.9-.9-1.4-1.4-1.7-1.4 0-.1 1.2-.3 3.5-.4h1.2s.1 0 .2-.1c.1 0 .1-.1.1-.1s0-.1.1-.2v-1.6c0-1.6 0-3 .1-4.3.1-.9.1-1.6.1-2.2v-.4c0-.2-.1-.3-.2-.3h-.5c-1.3 0-2.9-.1-4.6-.1-2.6 0-4.4 0-5.5-.1h-1.1c0 .2-.1.2-.3.2m11 1.7c0 .6 0 .9-.1.9v-.1c0-.1 0-.1-.1-.2v-.1-.8c0-.1 0-.1.1-.1 0 0 .1.1.1.4zm-6.8.2l4.7.1H66.7c.1 0 .1.3.1.7.1.7.1 1.6.1 2.7 0 .8 0 1.1-.1 1.2-.1.1-1.3.2-3.8.4-.6.1-1.2.1-1.8.3-.4.1-.6.1-.7.1l-.3.1c-.2 0-.3.1-.3.1s-.1-.3-.1-.7c0-.4-.1-1-.1-1.6-.1-.7-.1-1.2-.2-1.6-.1-.6-.2-1-.2-1.2 0-.1 0-.2.1-.2.3-.3.8-.4 1.7-.4zm7.1-.1c0 .9 0 1.4-.1 1.4 0 0 0-.2-.1-.6 0-.4-.1-.7-.1-.8 0-.2 0-.2.1-.2.2 0 .2 0 .2.2zm-9.8 2.9c-.1 0-.1-.1-.1-.4 0-.3-.1-.5-.1-.7V29.7l.1.6c.1.4.1.7.1 1.1.1.1.1.2 0 .3zm9.5 2.5c0 .1-.1.1-.2.1s-.2 0-.5.1-.4.1-.5.1h-.1l-.2-.2-.3-.1.6-.1c.4 0 .7-.1.9-.1.2.2.3.2.3.2zm-6.4 1.2c0 .1-.1.1-.1.1h-.5-.1c-.1 0-.2 0-.2-.1s.1-.1.2-.1c.1-.1.3-.1.5-.1.1.1.2.1.2.2zm3.5 4.1l.1.2s.1.2.4.5c.2.3.4.5.4.5-.1 0-.3-.2-.7-.6-.4-.4-.6-.7-.6-.8 0-.1 0-.1.1-.1s.2.1.3.3zm-4.4 3.4c0 .1 0 .1-.1.2s-.1.1-.2.1l-.1-.7s0-.2.1-.5c0-.3.1-.6.1-.7l.1.8c0 .5.1.8.1.8zm7.8-.1h.2s.1 0 .1.1v.1c0 .1 0 .1-.1.1-.2 0-.4.1-.4 0h-.5c-.2-.1-.3-.1-.3-.1.1 0 .2-.1.4-.1h.6zm-14-14.2v.4c0 .5 0 .8-.1.8 0 0 0-.1-.1-.4 0-.2 0-.4-.1-.7v-.4c-.1-.2 0-.2.1-.2 0 0 .1 0 .1.1v.2c.1.1.1.2.1.2zm-1.6-1c0 .1 0 .2-.1.3h-.5c-.1 0-.3 0-.4-.1-.2 0-.3-.1-.4-.1-.1 0-.2-.1-.2-.1-.4 0-.6 0-.6-.1s.2-.1.6-.1h.1c1 0 1.5.1 1.5.2zm2.2 4.9c0 .4-.1.6-.1.6s-.1-.2-.1-.6c0-.3-.1-.7-.1-1.1 0-.5 0-.7.1-.7s.1.4.1 1.1v.7zm-7.4-6.2l-1.9-.1h-.1c-.2 0-.3 0-.4.1-.1.1-.1.2-.1.3V30c0 6.8 0 10.9-.1 12.3 0 .1 0 .2-.1.4 0 .2-.1.3-.1.4 0 .3.2.5.5.5h1.6c.2 0 .3-.1.3-.1.1-.1.1-.1.1-.3V42c0-3.5.1-5.3.1-5.4.1 0 1.6-.2 4.7-.4.2 0 .6 0 1.1-.1.5 0 .9 0 1.1-.1h1s.1-.3.1-.8c.1-1.8.1-2.8.1-3.3l.1-4.7V27c0-.2-.1-.3-.3-.4-.1 0-.7-.1-1.7-.1H53c-.3 0-1.2 0-2.7-.1-1.4 0-2.4-.1-2.7-.1zm5.5 2.2c.1.2.1 1.4.1 3.6 0 1.3 0 2-.1 2.2 0 .1-.5.1-1.5.2s-1.8.1-2.6.1c-.9 0-1.4 0-1.6-.1-.1-.1-.2-1.6-.3-4.7V29v-.4c0-.1.3-.2.9-.3h4.8l.1.1c.1 0 .2.1.2.1zm-7.1.7c0 .8 0 1.2-.1 1.2s-.1-.4-.1-1.2c0-.7 0-1.1.1-1.1s.1.4.1 1.1zm-.2 11.9c0 .1 0 .3-.1.7-.1.4-.1.6-.1.6-.1 0-.1-.5-.1-1.4 0-1.3 0-1.9.1-1.9 0 0 .1.3.1.9.1.7.1 1 .1 1.1zm-18.1.1c-.2.1-.3.1-.4.1-.1 0-.2 0-.4-.1h.8zm4.4-8.9c-.2-.1-.6-.4-1.3-.9-.6-.5-1.2-.9-1.6-1.3 0 0-.3-.2-.7-.5-.4-.3-.7-.4-.7-.5-.1-.1-.2-.1-.3-.1h-1.9c-.4 0-.6 0-.6.1l.2.2.2.2c.9.6 1.8 1.3 2.8 2 1 .7 1.7 1.2 2.1 1.4l2.3 1.7.8.5c.1.1.2.1.3.2h-.3c-.1 0-.2.1-.3.1l-.7.6c-.7.5-1.5 1.1-2.3 1.6-.3.3-1 .8-2 1.4-1 .7-1.9 1.3-2.7 2l-.3.3-.2.2c0 .1.2.1.6.1H27c.3 0 .5-.1.7-.2l1.6-1.1c.4-.4 1-.8 1.7-1.3s1.2-.8 1.4-.9l.6-.4c.4-.3.8-.6 1.4-1 .6-.4 1-.7 1.3-.9 0 0 .1-.1.3-.2.1-.1.2-.2.3-.2l.1-.1-.1-.1s-.1-.1-.3-.2c-.1-.1-.2-.2-.3-.2-.3-.2-.8-.5-1.4-1l-1.5-1-.7-.5zm-4.3-2.8l.4.4c.2.2.3.3.5.4 0 .1 0 .2-.1.2s-.1 0-.2-.1l-.3-.3c0-.1-.1-.2-.1-.2l-.1-.1c-.2-.2-.2-.4-.2-.4l.1.1zm7.2 5.2c.1 0 .2.1.3.2.1.1.2.2.4.2v.1c-.1.1-.3 0-.5-.1-.2-.2-.3-.3-.2-.4-.1-.1-.1-.1 0 0zm-4-2.4c.1.1.1.1.2.1.1.1.2.1.2.1.1 0 .1.1.1.1-.1.1-.4 0-.7-.3h.2zm-5.2-3.1c.1-.1.3-.1.5-.1.1 0 .3 0 .4.1l-.5.1-.4-.1zm3 10.4c0 .1-.1.1-.1.1l.1-.1c0-.1 0-.3.2-.4l.2-.2.3-.3c.1-.1.2-.1.2-.1.1 0 .1.1.1.2-.2.1-.4.3-.5.4-.3.2-.4.3-.5.4zm2.1-7.1c.5.4 1 .8 1.4 1.2V34s-.1 0-.2-.1l-.3-.3-.2-.2c-.2-.2-.4-.3-.4-.3l-.2-.2c0-.3-.1-.3-.1-.4zm1.6 4.4l.2-.2.2-.2c.1-.1.3-.2.4-.3l.2-.2.3-.3c.1-.1.2-.1.2-.1v.2c-.4.2-.8.6-1.5 1.1zm-17.4 4.3c-.2.1-.3.1-.4.1-.1 0-.2 0-.4-.1h.8zm4.5-8.9c-.2-.1-.6-.4-1.3-.9-.6-.5-1.2-.9-1.6-1.3 0 0-.3-.2-.7-.5-.4-.3-.7-.4-.7-.5-.1-.1-.2-.1-.3-.1h-1.9c-.4 0-.6 0-.6.1l.2.2.2.2c.9.6 1.8 1.3 2.8 2 1 .7 1.7 1.2 2.1 1.4l2.3 1.7.8.5c.1.1.2.1.3.2h-.3c-.1 0-.2.1-.3.1l-.7.6c-.7.5-1.5 1.1-2.3 1.6-.3.3-1 .8-2 1.4-1 .7-1.9 1.3-2.7 2l-.3.3-.2.2c0 .1.2.1.6.1h1.5c.3 0 .5-.1.7-.2l1.6-1.1c.4-.4 1-.8 1.7-1.3s1.2-.8 1.4-.9l.6-.4c.4-.3.8-.6 1.4-1 .6-.4 1-.7 1.3-.9 0 0 .1-.1.3-.2.1-.1.2-.2.3-.2l.1-.1-.1-.1s-.1-.1-.3-.2c-.1-.1-.2-.2-.3-.2-.3-.2-.8-.5-1.4-1l-1.5-1-.7-.5zm-4.3-2.8l.4.4c.2.2.3.3.5.4 0 .1 0 .2-.1.2s-.1 0-.2-.1l-.3-.3-.2-.2-.1-.1c-.2-.2-.2-.4-.2-.4l.2.1zm7.2 5.2c.1 0 .2.1.3.2.1.1.2.2.4.2v.1c-.1.1-.3 0-.5-.1-.2-.2-.3-.3-.2-.4-.1-.1-.1-.1 0 0zm-4-2.4c.1.1.1.1.2.1.1.1.2.1.2.1.1 0 .1.1.1.1-.1.1-.4 0-.7-.3h.2zm-5.2-3.1c.1-.1.3-.1.5-.1.1 0 .3 0 .4.1l-.5.1-.4-.1zm3 10.4c0 .1-.1.1-.1.1l.1-.1c0-.1 0-.3.1-.4l.2-.2.3-.3c.1-.1.2-.1.2-.1.1 0 .1.1.1.2-.2.1-.4.3-.5.4l-.4.4zm2.1-7.1c.5.4 1 .8 1.4 1.2V34s-.1 0-.2-.1l-.3-.3-.2-.2c-.2-.2-.4-.3-.4-.3l-.2-.2c-.1-.3-.1-.3-.1-.4zm1.6 4.4l.2-.2.2-.2c.1-.1.3-.2.4-.3l.2-.2.3-.3c.1-.1.2-.1.2-.1v.2c-.4.2-.9.6-1.5 1.1zM2.6 41.2c-.2.1-.3.1-.4.1-.1 0-.2 0-.4-.1h.8zm4.5-8.9c-.2-.1-.6-.4-1.3-.9-.6-.5-1.2-.9-1.6-1.3 0 0-.3-.2-.7-.5-.4-.3-.7-.4-.7-.5-.1-.1-.2-.1-.3-.1H.6c-.4 0-.6 0-.6.1l.2.2.2.2c.9.6 1.8 1.3 2.8 2 1 .7 1.7 1.2 2.1 1.4l2.3 1.7.8.4c.1.1.2.1.3.2h-.3c-.1 0-.2.1-.3.1l-.7.6c-.7.6-1.4 1.1-2.3 1.7-.4.3-1 .8-2 1.4-1 .7-1.9 1.3-2.7 2l-.3.3c0 .1-.1.2-.1.2 0 .1.2.1.6.1h1.5c.3 0 .5-.1.7-.2l1.6-1.1c.4-.4 1-.8 1.7-1.3s1.2-.8 1.4-.9l.5-.4c.4-.3.8-.6 1.4-1 .6-.4 1-.7 1.3-.9 0 0 .1-.1.3-.2.1-.1.2-.2.3-.2l.1-.1-.1-.1s-.1-.1-.3-.2c-.1-.1-.2-.2-.3-.2-.3-.2-.8-.5-1.4-1l-1.5-1-.7-.5zm-4.3-2.8l.4.4c.2.2.3.3.5.4 0 .1 0 .2-.1.2s-.1 0-.2-.1l-.3-.3c0-.1-.1-.2-.1-.2l-.1-.1c-.2-.2-.2-.4-.2-.4l.1.1zm7.2 5.2c.1 0 .2.1.3.2.1.1.2.2.4.2v.1c-.1.1-.3 0-.5-.1-.2-.2-.3-.3-.2-.4-.1-.1-.1-.1 0 0zm-4-2.4c.1.1.1.1.2.1.1.1.2.1.2.1.1 0 .1.1.1.1-.1.1-.4 0-.7-.3H6zM.8 29.2c.1-.1.3-.1.5-.1.1 0 .3 0 .4.1l-.5.1-.4-.1zm3 10.4c0 .1-.1.1-.1.1l.1-.1c0-.1 0-.3.1-.4l.2-.2.3-.3c.1-.1.2-.1.2-.1.1 0 .1.1.1.2-.2.1-.4.3-.5.4l-.4.4zm2-7.1c.5.4 1 .8 1.4 1.2V34s-.1 0-.2-.1l-.3-.3-.2-.2c-.2-.2-.4-.3-.4-.3l-.2-.2c0-.3 0-.3-.1-.4zm1.7 4.4l.2-.2.2-.2c.1-.1.3-.2.4-.3l.2-.2.3-.3c.1-.1.2-.1.2-.1v.2c-.4.2-.9.6-1.5 1.1z"/>
  <path class="preservativos-1" d="M125.6 43.6c.1.2 0 .2-.1.3-.1.1-.3.1-.4.1-.1 0-.3 0-.4-.1-.1 0-.1-.1-.1-.2l.6-.1c.1-.1.2-.1.4 0m-6.1-16.7s.1.5.4 1.6c.2.8.3 1.5.5 2.2.2.9.4 1.4.4 1.6.1.2.3.9.5 2 .2.9.4 1.8.6 2.8.2 1 .4 1.6.4 1.8.2.5.3.9.4 1.3.4 1.5.6 2.3.6 2.5.1.3.2.6.2.8.1.4.1.6.2.7.1.1.6.2 1.5.2.3 0 .5 0 .5-.1.1-.1.2-.4.3-1l1.9-8.9.5-1.9 1.3-5.7-.1-.1h-.1c-.1 0-.3 0-.7.1-.4.1-.7.1-.8.1h-.1c-.2 0-.3 0-.3.1 0 0-.1.1-.1.3-.2.5-.4 1.5-.6 3-.4 2.2-.9 4.8-1.6 7.5 0 .2-.1.5-.1.9-.1.4-.1.7-.2 1-.1.3-.1.4-.1.5v.1s-.1-.2-.2-.6c0-.1-.1-.5-.3-1.3-.1-.8-.3-1.7-.5-2.7-.2-1-.3-1.8-.4-2.2-.2-.9-.5-2.2-.8-4.1-.1-.6-.2-1.2-.3-1.7l-.2-.7c-.1-.2-.2-.3-.4-.3h-.8c-1-.1-1.5 0-1.5.2zm2.1.9c.1.1.1.2.1.4s0 .3-.1.3-.1-.1-.1-.2 0-.2-.1-.4v-.1c0-.1 0-.1.1-.1 0-.1.1 0 .1.1zm7.3-.2c-.1.4-.2.7-.2.7-.1.4-.2.6-.3.6 0 0-.1 0-.1-.1 0 0 0-.1.1-.3.1-.7.3-1.1.4-1.1.1 0 .1 0 .1.1v.1c0-.1 0 0 0 0zm-2.7 11l-.2.4v-.1c0-.1 0-.3.1-.5s.2-.3.2-.3v.1c.1-.1 0 .1-.1.4zm-3-4.1c.2.7.3 1.2.3 1.5v.1c-.1 0-.1 0-.1-.1 0 0 0-.1-.1-.4-.1-.3-.1-.5-.2-.8-.1-.3-.1-.5-.1-.5v-.2-.1s.1.1.2.5zm-1.7-3.8V32s-.1-.2-.2-.6c-.1-.4-.1-.6-.1-.7 0-.2 0-.3.1-.3.1.1.2.2.2.3zM106.4 27c0 .4 0 .7.1 1 .4 2.4.6 4.2.7 5.3.1.6.2 1.6.4 3.1s.4 3 .6 4.6c.2 1.6.3 2.4.3 2.5 0 .1.1.1.3.1.2 0 .5 0 .9-.1l.7-.1-.1-.4v-.3c0-.4-.1-1.4-.4-3-.2-1.6-.4-2.6-.4-2.9v-.2c.1-.1.4-.1 1-.1.5 0 1.5.9 2.9 2.8 1.5 1.9 2.2 3.1 2.3 3.8.1.1.1.1.1.2s0 .1.1.2c0 0 .1.1.3.1h1.7c.4 0 .6 0 .6-.1v-.1c0-.4-.4-1.2-1.1-2.3-.7-1.1-1.5-2.1-2.4-3.1-.9-.9-1.4-1.4-1.7-1.4 0-.1 1.2-.3 3.5-.4h1.2s.1 0 .2-.1c.1 0 .1-.1.1-.1s0-.1.1-.2v-1.6c0-1.6 0-3 .1-4.3.1-.9.1-1.6.1-2.2v-.4c0-.2-.1-.3-.2-.3h-.4c-1.3 0-2.9-.1-4.6-.1-2.6 0-4.4 0-5.5-.1h-1.1c-.1.2-.3.2-.4.2zm10.9 1.7c0 .6 0 .9-.1.9v-.1c0-.1 0-.1-.1-.2v-.1-.8c0-.1 0-.1.1-.1s.1.1.1.4zm-6.7.2l4.7.1H116.2c.1 0 .1.3.1.7.1.7.1 1.6.1 2.7 0 .8 0 1.1-.1 1.2-.1.1-1.3.2-3.8.4-.6.1-1.2.1-1.8.3-.4.1-.6.1-.7.1l-.3.1c-.2 0-.3.1-.3.1s-.1-.3-.1-.7c0-.4-.1-1-.1-1.6-.1-.7-.1-1.2-.2-1.6-.1-.6-.2-1-.2-1.2 0-.1 0-.2.1-.2.3-.3.8-.4 1.7-.4zm7.1-.1c0 .9 0 1.4-.1 1.4 0 0 0-.2-.1-.6 0-.4-.1-.7-.1-.8 0-.2 0-.2.1-.2s.2 0 .2.2zm-9.8 2.9c-.1 0-.1-.1-.1-.4 0-.3-.1-.5-.1-.7V29.7l.1.6c.1.4.1.7.1 1.1v.3zm9.4 2.5c0 .1-.1.1-.2.1s-.2 0-.5.1-.4.1-.5.1h-.1l-.2-.2-.3-.1.6-.1c.4 0 .7-.1.9-.1.2.2.3.2.3.2zm-6.3 1.2c0 .1-.1.1-.1.1h-.5-.1c-.1 0-.2 0-.2-.1s.1-.1.2-.1c.1-.1.3-.1.5-.1 0 .1.2.1.2.2zm3.5 4.1l.1.2s.1.2.4.5c.2.3.4.5.4.5-.1 0-.3-.2-.7-.6-.4-.4-.6-.7-.6-.8 0-.1 0-.1.1-.1l.3.3zm-4.5 3.4c0 .1 0 .1-.1.2s-.1.1-.2.1l-.1-.7s0-.2.1-.5c0-.3.1-.6.1-.7l.1.8c.1.5.1.8.1.8zm7.9-.1h.2s.1 0 .1.1v.1c0 .1 0 .1-.1.1-.2 0-.4.1-.4 0h-.5c-.2-.1-.3-.1-.3-.1.1 0 .2-.1.4-.1h.6zm-18-15c-.1 0-.1 0 0 0-.1-.1.1-.1.4-.1H101.1v.1h-.2-.1-.1c-.4.1-.6.1-.8 0zm3.4-1.1h-5.2c-.7 0-1.3-.1-1.7-.1h-.6c-.1 0-.2.1-.2.4v.4c0 1.3 0 3-.1 5.2v3.7c0 2.5 0 4.2-.1 5.1v1.4c0 .5 0 .8.1.9 0 .1.2.2.4.2h4.4c1.2 0 2.2 0 2.9.1 1.1.1 1.8.1 2.2.1h.4c.1 0 .1-.3.2-.7 0-.4.1-.8.1-1.2V41.9c0-.1-.2-.1-.5-.1h-.5c-.5 0-1.4.1-2.7.1-2.7 0-4-.1-4.1-.2v-1.1c0-1.7 0-2.7.1-3 .1-.1.2-.2.4-.2h.6c1.3.1 2.5.1 3.6.1h1.5c.6 0 .9-.1.9-.1v-.3-.3-.4c0-.2 0-.3-.1-.4v-.2-.1-.1-.1h-.1-.1-.1c-.1 0-.2 0-.3-.1-.2 0-1.6-.1-4.3-.2-1.4 0-2.1-.1-2.2-.2v-.3-.7-1.2c0-.8 0-1.6.1-2.5 0-.7.1-1.1.2-1.2.1-.1.6-.1 1.5-.1.6 0 1.5 0 2.4.1 1 0 1.7.1 2.2.1h.7c.1 0 .2 0 .4.1h.2c.1-.1.2-.7.2-1.6 0-.3 0-.5-.1-.6-.7-.4-1.4-.4-2.7-.4zm-7.1 2.7c0 .5 0 1-.1 1.4l-.1.3v-.5-1c0-.7.1-1 .2-1v.8zm2.8 7.1c0 .1-.1.1-.4.1-.3 0-.4 0-.4-.1s.1-.1.4-.1c.3 0 .4 0 .4.1zm-2.6-2.6c0 1.3 0 1.9-.1 1.9s-.1-.5-.1-1.6v-.3l.1-.1c.1 0 .1 0 .1.1zm.7 5.8c0 .3 0 .4-.1.4s-.1-.2-.1-.5c0-.5 0-.8.1-1l.1-.1c-.1.1 0 .4 0 1.2zm1.4 2.8c1.6 0 2.3 0 2.3.1s-.3.1-.9.1h-1.8v-.1-.1c0 .1.2 0 .4 0zm4.3.7s0-.1 0 0l.3-.1H104c.1 0 .1.1.2.1l.1.1h-.1-.4c0 .1-.4 0-1-.1zm-11-4.7c-.1.3-.1.5-.1.5v-.3c0-.7.1-1.1.2-1.1 0 0 .1.2.1.6-.2.2-.2.3-.2.3zm-7-4.6c.1 0 .5.1 1 .3.5.1.8.2.8.2h-.1c-.1 0-.6-.1-1.6-.2-.2 0-.3-.1-.3-.2s0-.1.2-.1zm-1.5-2.4c-.1.3-.1.4-.2.4 0 0-.1-.1-.1-.4 0-.6.1-1 .2-1.2.1-.1.1-.2.1-.2s0 .1.1.4v.2c0 .4 0 .6-.1.8zm5.7-3.8h-1.4c-.3 0-.5 0-.5-.1s.1-.1.5-.1h.2c.8 0 1.2.1 1.2.2zm-4-1.5c-1.3.1-2 .1-2 .1l-.1 1c0 .4-.1.9-.2 1.5-.1.4-.1 1.2-.2 2.6-.1 1.3-.2 2.2-.2 2.7s0 .8.1.8c.1.1.5.1 1.3.1.6 0 1.7 0 3.2-.1 1.5-.1 2.4-.1 2.8-.1.8 0 1.3 0 1.4.1.1 0 .2.7.2 2.1v1.6c0 1.5-.2 2.3-.7 2.3-.2.1-1.2.1-3 .3-1.8.1-3.1.2-3.7.2-.6 0-.9 0-1 .1v.2c0 .3 0 .7.1 1.3.1.6.1.9.1.9h.2c.1 0 .2 0 .4-.1H85c.5 0 1.9-.2 4.2-.5 1.2-.2 2-.3 2.4-.4.3 0 .7 0 1.3-.1.4 0 .6-.1.7-.1.1-.1.1-.3.1-.6v-3.6-2.6-2c0-.4-.1-.6-.2-.7-.1-.1-.4-.2-.8-.2h-7.3c-.4 0-.7 0-.7-.1-.2-.1-.3-.2-.3-.3 0-.3.1-1 .2-2.3.1-1.3.2-2 .3-2.1l.1-.3 1.8.1c1 0 1.7.1 2.1.1.2 0 .9.1 2.1.2 1.2.1 1.9.1 2.1.1v-1.1l-.1-1c-.2-.2-1.3-.2-3.4-.2-.9 0-2.6 0-4.6.1zm1.4 15.6h1c.1 0 .1 0 .1.1s0 .1-.1.1-.3.1-.6.1h-.6c-.3-.1-.5-.1-.5-.1 0-.1.1-.1.2-.1h.2c.1-.1.2-.1.3-.1zm-3.1.9c0-.2 0-.3.1-.3h.1c.1.1.1.3.1.7 0 .2 0 .3-.1.4h-.2v-.4-.1c-.1-.2 0-.3 0-.3zm-7.8-14.9c-.1 0-.1 0 0 0-.1-.1.1-.1.4-.1H76.7v.1h-.2-.1-.1c-.4.1-.6.1-.8 0zm3.4-1.1h-5.2c-.7 0-1.3-.1-1.7-.1h-.6c-.1 0-.2.1-.2.4v.4c0 1.3 0 3-.1 5.2v3.7c0 2.5 0 4.2-.1 5.1v1.4c0 .5 0 .8.1.9 0 .1.2.2.4.2h4.4c1.2 0 2.2 0 2.9.1 1.1.1 1.8.1 2.2.1h.4c.1 0 .1-.3.2-.7 0-.4.1-.8.1-1.2V41.9c0-.1-.2-.1-.5-.1h-.5c-.5 0-1.4.1-2.7.1-2.7 0-4-.1-4.1-.2v-1.1c0-1.7 0-2.7.1-3 .1-.1.2-.2.4-.2h.6c1.3.1 2.5.1 3.6.1h1.5c.6 0 .9-.1.9-.1v-.3-.3-.4c0-.2 0-.3-.1-.4v-.2-.1-.1-.1h-.1-.1-.1c-.1 0-.2 0-.3-.1-.2 0-1.6-.1-4.3-.2-1.4 0-2.1-.1-2.2-.2v-.3-.7-1.2c0-.8 0-1.6.1-2.5 0-.7.1-1.1.2-1.2.1-.1.6-.1 1.5-.1.6 0 1.5 0 2.4.1 1 0 1.7.1 2.2.1h.7c.1 0 .2 0 .4.1h.2c.1-.1.2-.7.2-1.6 0-.3 0-.5-.1-.6-.7-.4-1.4-.4-2.7-.4zm-7.1 2.7c0 .5 0 1-.1 1.4l-.1.3v-.5-1c0-.7.1-1 .2-1v.8zm2.8 7.1c0 .1-.1.1-.4.1-.3 0-.4 0-.4-.1s.1-.1.4-.1c.3 0 .4 0 .4.1zM72 33.9c0 1.3 0 1.9-.1 1.9s-.1-.5-.1-1.6v-.3l.1-.1c.1 0 .1 0 .1.1zm.7 5.8c0 .3 0 .4-.1.4s-.1-.2-.1-.5c0-.5 0-.8.1-1l.1-.1c-.1.1 0 .4 0 1.2zm1.4 2.8c1.6 0 2.3 0 2.3.1s-.3.1-.9.1h-1.8v-.1-.1c0 .1.2 0 .4 0zm4.3.7s0-.1 0 0l.3-.1H79.6c.1 0 .1.1.2.1l.1.1h-.1-.4c0 .1-.4 0-1-.1z"/>
  <path class="preservativos-1" d="M185.8 38.5c-.1.3-.1.5-.1.5v-.3c0-.7.1-1.1.2-1.1 0 0 .1.2.1.6-.2.2-.2.3-.2.3m-7-4.6c.1 0 .5.1 1 .3.5.1.8.2.8.2h-.1c-.1 0-.6-.1-1.6-.2-.2 0-.3-.1-.3-.2s0-.1.2-.1zm-1.5-2.4c-.1.3-.1.4-.2.4 0 0-.1-.1-.1-.4 0-.6.1-1 .2-1.2.1-.1.1-.2.1-.2s0 .1.1.4v.2c0 .4-.1.6-.1.8zm5.7-3.8h-1.4c-.3 0-.5 0-.5-.1s.1-.1.5-.1h.2c.8 0 1.2.1 1.2.2zm-4-1.5c-1.3.1-2 .1-2 .1l-.1 1c0 .4-.1.9-.2 1.5-.1.4-.1 1.2-.2 2.6-.1 1.3-.2 2.2-.2 2.7s0 .8.1.8c.1.1.5.1 1.3.1.6 0 1.7 0 3.2-.1 1.5-.1 2.4-.1 2.8-.1.8 0 1.3 0 1.4.1.1 0 .2.7.2 2.1v1.6c0 1.5-.2 2.3-.7 2.3-.2.1-1.2.1-3 .3-1.8.1-3.1.2-3.7.2-.6 0-.9 0-1 .1v.2c0 .3 0 .7.1 1.3.1.6.1.9.1.9h.2c.1 0 .2 0 .4-.1H179c.5 0 1.9-.2 4.2-.5 1.2-.2 2-.3 2.4-.4.3 0 .7 0 1.3-.1.4 0 .6-.1.7-.1.1-.1.1-.3.1-.6v-3.6-2.6-2c0-.4-.1-.6-.2-.7-.1-.1-.4-.2-.8-.2h-7.3c-.4 0-.7 0-.7-.1-.2-.1-.3-.2-.3-.3 0-.3.1-1 .2-2.3.1-1.3.2-2 .3-2.1l.1-.3 1.8.1c1 0 1.7.1 2.1.1.2 0 .9.1 2.1.2 1.2.1 1.9.1 2.1.1v-1.1l-.1-1c-.2-.2-1.3-.2-3.4-.2-1 0-2.6 0-4.6.1zm1.3 15.6h1c.1 0 .1 0 .1.1s0 .1-.1.1-.3.1-.6.1h-.6c-.3-.1-.5-.1-.5-.1 0-.1.1-.1.2-.1h.2c.2-.1.2-.1.3-.1zm-3.1.9c0-.2 0-.3.1-.3h.1c.1.1.1.3.1.7 0 .2 0 .3-.1.4h-.2v-.4-.1-.3zM164.7 29s.1 0 0 0c.1-.1.1 0 .1.1 0 .2.1.4.1.6 0 .2 0 .4.1.5v.1c0 .2 0 .4-.1.6-.1.2-.1.4-.2.4v-.2-.7-.6c-.1-.2-.1-.5 0-.8zm-1.1-1.8c-.1.1-.1.3-.1.7v.3l.2 4c.1 2.3.2 3.6.2 3.9.1.9.1 1.7.1 2.3 0 .4 0 1 .1 1.9.1.9.1 1.5.1 1.6l.2 1.9.3.1c.1 0 .6.1 1.5.1h1.8c2 0 3.5-.1 4.6-.1h2.1v-1.4c0-1.8 0-3.4-.1-4.8 0-.5-.1-2.3-.1-5.5s0-4.8-.1-5c-.1-.1-1.9-.2-5.5-.3h-3.5c-1.2.2-1.8.2-1.8.3zm6 .9v.2c0 .2 0 .3-.1.3h-.1l-.2-.4v-.1c0-.1 0-.1.1-.1.2-.1.3 0 .3.1zM168 41.2c-.9.1-1.5.1-1.6.1h-.1c-.3 0-.4-.1-.4-.5v-.1-.1c0-.2.1-1.2.1-3.2v-.9c0-.6 0-1.6-.1-3.2 0-1.5-.1-2.6-.1-3.2v-1h1.3c.5 0 1.3.1 2.5.2s1.8.2 1.9.2c.4 0 .6.1.7.1.1 0 .2.1.2.3.1.4.2 1 .2 1.8 0 .7 0 2.4-.1 5.3V39.8c0 .8 0 1.3-.1 1.3h-.1-.5c-.2 0-.4 0-.7.1-.2 0-.5.1-1.1.1h-2zm-2.7-6.4v1.5c-.1.1-.1.2-.1.2-.1 0-.2-.2-.2-.6v-.2-1c0-.4.1-.7.1-.9 0-.3.1-.4.1-.4s.1.5.1 1.4zm8.8-4.3c0 .3-.1.4-.2.4s-.1-.1-.1-.4c0-.3 0-.4.1-.4s.2.1.2.4zm-.8 6.8c0 .4-.1.5-.1.5-.1 0-.1-.2-.1-.5v-.6c0-.6 0-.9.1-.9s.1.3.1.9v.6zm-8.3 2v.8c-.1-.1-.2-.5-.2-1.1v-.4c0-.3 0-.4.1-.4-.1-.1 0 .3.1 1.1zm9.2 2.1c0 .1-.1.1 0 0-.2.1-.3.1-.3 0s.1-.1.2-.1c0 0 .1 0 .1.1zm-1.3 1.1s0 .1 0 0l.1.1h-.1-.1-.5v-.1l.1-.1h.5v.1zm-5.5 0c.4 0 .7-.1.8-.1.4 0 .6.1.6.2s-.1.1-.1.1h-.5c-.4 0-.9 0-1.4-.1-.5 0-.8-.1-.8-.1h1.4zm-9 1.1s.1 0 0 0c.1.2 0 .2-.1.3-.1.1-.3.1-.4.1-.1 0-.3 0-.4-.1-.1 0-.1-.1-.1-.2l.6-.1c.1-.1.3-.1.4 0zm-6.1-16.7s.1.5.4 1.6c.2.8.3 1.5.5 2.2.2.9.4 1.4.4 1.6.1.2.3.9.5 2 .2.9.4 1.8.6 2.8.2 1 .4 1.6.4 1.8.2.5.3.9.4 1.3.4 1.5.6 2.3.6 2.5.1.3.2.6.2.8.1.4.1.6.2.7.1.1.6.2 1.5.2.3 0 .5 0 .5-.1.1-.1.2-.4.3-1l1.9-8.9.5-1.9 1.3-5.7-.1-.1h-.1c-.1 0-.3 0-.7.1-.4.1-.7.1-.8.1h-.1c-.2 0-.3 0-.3.1 0 0-.1.1-.1.3-.2.5-.4 1.5-.6 3-.4 2.2-.9 4.8-1.6 7.5 0 .2-.1.5-.1.9-.1.4-.1.7-.2 1-.1.3-.1.4-.1.5v.1s-.1-.2-.2-.6c0-.1-.1-.5-.3-1.3-.1-.8-.3-1.7-.5-2.7-.2-1-.3-1.8-.4-2.2-.2-.9-.5-2.2-.8-4.1-.1-.6-.2-1.2-.3-1.7l-.2-.7c-.1-.2-.2-.3-.4-.3h-.7c-1-.1-1.6 0-1.6.2zm2.2.9c.1.1.1.2.1.4s0 .3-.1.3-.1-.1-.1-.2 0-.2-.1-.4v-.1c0-.1 0-.1.1-.1 0-.1 0 0 .1.1zm7.3-.2c-.1.4-.2.7-.2.7-.1.4-.2.6-.3.6 0 0-.1 0-.1-.1 0 0 0-.1.1-.3.1-.7.3-1.1.4-1.1.1 0 .1 0 .1.1v.1c0-.1 0 0 0 0zm-2.8 11l-.2.4v-.1c0-.1 0-.3.1-.5s.2-.3.2-.3v.1c.1-.1.1.1-.1.4zm-3-4.1c.2.7.3 1.2.3 1.5v.1c-.1 0-.1 0-.1-.1 0 0 0-.1-.1-.4-.1-.3-.1-.5-.2-.8-.1-.3-.1-.5-.1-.5v-.2-.1c.1 0 .2.1.2.5zm-1.7-3.8V32s-.1-.2-.2-.6c-.1-.4-.1-.6-.1-.7 0-.2 0-.3.1-.3.2.1.2.2.2.3zm-4 11.2c.1 0 .1.2.1.5V42.7c0 .2 0 .3-.1.5-.1 0-.1-.3-.1-1 0-.2 0-.3.1-.3zm.5-2.4v.2c0 1.1 0 1.7-.1 1.7 0 0 0-.3-.1-.9 0-.6-.1-1-.1-1.2 0-.3 0-.5.1-.5l.1.1c0 .2.1.4.1.6zm-.2-5.4c0 .2 0 .3-.1.3 0 0-.1-.2-.1-.7-.1-.5-.1-.8-.1-.9 0-.1 0-.3.1-.6s.1-.5.1-.5 0 .4.1 1.1c-.1.7 0 1.2 0 1.3zm-1.6-7.3v4.5c0 1.7.1 3.8.2 6.3.1 2.1.1 3.6.1 4.5 0 1.4.1 2.1.2 2.2.1.1.3.1.6.1h.8l.7-.1-.1-2.2c0-.3 0-.9-.1-1.9 0-1-.1-1.8-.1-2.3 0-.6-.1-2.8-.1-6.6v-2-1.6-.6c0-.2 0-.3-.1-.4 0 0-.2-.1-.3-.1l-1.5-.2h-.1s0 .1-.1.1c-.1.2-.1.2-.1.3zm-2.7 1h.6c.1 0 .1 0 .1.1v.1c0 .1-.1.1-.1.1-.1 0-.1.1-.2.1h-.4-.1-.8H144.6h.1c.2-.3.8-.4 1.6-.4zm-3.5 2.8c0 .1 0 .1.1.2 0 .1 0 .2.1.3 0 .2.1.3.1.5V32.9l-.3 1.5v-.1c-.1-.4-.1-.7-.1-1 0-.3 0-.8.1-1.4-.1-.6 0-1 0-1.3zm-.2-4.2h-1.7c-1.2 0-1.9 0-2.1.1-.3.1-.4.1-.4.2v.2c.1.5.2 1.2.3 2 0 .1 0 .1.1.2.1.2.1.4.3.4h2.5V35c0 .4 0 1.6.1 3.7 0 .5 0 1.1.1 1.9 0 .8 0 1.4.1 1.9V43.9c0 .1 0 .1.1.1H143.2c.2 0 .4 0 .4-.1.1 0 .1-.1.1-.3v-6-4.2-2.7c0-1 .1-1.6.1-1.7.1-.1.5-.2 1.4-.2h1.6c.3 0 .4-.1.6-.1 0-.1.1-.2.1-.5v-.5-.5-.1-.6h-2.3c-1.8-.1-2.6-.1-2.6-.1zm-.2.4s0 .1 0 0c-.8.1-1.2.1-1.3.2h-.1c-.1 0-.1 0-.1-.1s.1-.2.2-.2c.9-.1 1.3 0 1.3.1zm-.2 14.3c0 1.4 0 2.2-.1 2.2-.1-.1-.1-.6-.1-1.5 0-.5 0-.8.2-.7 0-.1 0 0 0 0zm-10-4.8v-.1l1.1-6.7h.9l1.1 7.2-3.1-.4zm-1.9 3.9c0 .1-.1.2-.2.2s-.1-.1-.1-.2 0-.4.1-.8.2-.6.2-.6.1.1.1.2v.6c-.1.4-.1.6-.1.6zm1.5-3.8c0 .3-.1.5-.2.5v-.4c0-.1.1-.4.2-.8s.1-.6.1-.7c0-.1 0-.1.1-.1v.1c0 .3-.1.8-.2 1.4zm3.7-4.1c.1.1.1.5.3 1.2.1.7.2 1.1.2 1.2 0 .1 0 .1-.1.1s-.2-.4-.4-1.2c-.2-.8-.3-1.3-.3-1.5V32c.1 0 .2.1.3.3zm2.7 11.1c0 .2 0 .2-.1.2s-.3-.4-.4-1.1c0-.1-.1-.2-.1-.3 0-.1 0-.1.1-.1s.2.2.3.6c.1 0 .1.3.2.7zm-7.9-.8c0 .1-.1.2-.1.2-.1 0-.1-.1-.1-.1v-.1c0-.2.1-.3.1-.4 0-.1 0-.1.1-.1s.1.1.1.3c0 0 0 .1-.1.2zm-1.9 1c0 .2.5.3 1.4.3h.7c.2 0 .3-.1.4-.3 0-.2.1-.4.1-.7.2-.9.3-1.4.4-1.7l.4-2.7c.6 0 1.1 0 1.5-.1l2.6-.1c.1.7.2 1.8.5 3.1.2 1.3.4 2.1.4 2.3v.1c0 .1.1.2.1.2s.1.1.3.1h.1c.1 0 .5 0 .9.1.5.1.8.1.9.1h.1v-.1l-1.3-5.7-.4-1.9-1.8-8.9c-.1-.6-.2-1-.3-1 0-.1-.4-.1-.9-.1-1.3 0-1.9.1-2 .2-.1.1-.1.3-.2.7l-2.3 9.3c-.2.9-.7 2.7-1.3 5.3-.2.9-.3 1.4-.3 1.5zm6.5-16.3c-.1 0-.2 0-.3-.1-.1 0-.1-.1-.2-.1H133.8c0-.1 0-.2.1-.2s.3-.1.4-.1c.1 0 .2 0 .4.1.1 0 .2.1.2.2v.2zm-1.6 10.5c-.1-.1-.1-.1 0 0-.1-.1 0-.1 0 0 .2-.1.3-.1.4-.1h1.2c.2 0 .3 0 .3.1v.1c0 .1-.1.1-.2.1s-.1 0-.3-.1c-.2 0-.3-.1-.3-.1h-.7c-.2.1-.3 0-.4 0zm4 1.2c.1-.1.2.2.2.6v.1c0 .3 0 .5-.1.5v-.1c-.1-.3-.1-.5-.1-.6-.1-.1-.1-.3 0-.5z"/>
</svg>