<svg xmlns="http://www.w3.org/2000/svg" width="391.3" height="34.6" viewBox="0 0 391.3 34.6">
  <style>
    .st0{fill:none;stroke:#7c51a0;stroke-width:.8504;stroke-linecap:round;stroke-linejoin:round;stroke-miterlimit:22.9256}.st1{fill:#7c51a0}
  </style>
  <path class="st0" d="M336.5 30.9s7.1 2.8 12.4 3.1c5.3.3 12.9-3.1 14.3-4.6"/>
  <path class="st0" d="M363.2 19.4c-10.7-13.6 6.7-16.6 3.4-4.9-.4 1.4-6.1 8.1-4.6 12.6s8.5 8 13.1 6.8c4.7-1.2 8.7-2.4 11.5-2.9 2.9-.5 4.2-.5 4.2-.5"/>
  <path class="st0" d="M389.9 23.2s-2.2-1-5.5.6-8.5 2.8-10.6 2.3c-2.1-.5-4.3.5-4.1-1.9.3-2.3 4.9-9.1 4.9-12.7 0-3.7-4.3-10.7-11.3-11.1S352 8.3 352.8 14.7s4.8 10.2 4.8 10.2-2 2.1-5.3 2c-3.3-.1-7.6-2.6-11.1-3.7s-4.9 0-4.9 0"/>
  <path class="st1" d="M357.5 23.5c-.5-.3-1.1-.1-1.4.4-.3.5-.1 1.1.4 1.4 4.8 2.3 8.3 1.6 13.3-.3.5-.2.8-.8.6-1.3-.2-.5-.8-.8-1.3-.6-4.1 1.6-7.5 2.6-11.6.4"/>
  <g>
    <path class="st1" d="M65.5 25.3c0 .4 0 .6-.1.6s-.1-.4-.1-1.2v-.6s0 .1.1.2c0 .2 0 .3.1.5v.5zm-.3-7.2v1.2s-.1-.1-.1-.2c-.1-.4-.1-.5-.1-.6v-.1-.3-.2c0-.2.1-.3.2-.5h.1v.7zm-.4-5.3c0 .5-.1.8-.2 1v-.2-.3-1-.3c.1.1.2.3.2.8zm-8.9 14.6l1.5.1h.1c.2 0 .3-.1.3-.3v-.1-.1-.1l.1-2.8c.1-7.2.2-10.8.3-10.8 0 0 .3.9.7 2.7.5 1.8 1 3.7 1.5 5.7s.8 3.1.8 3.3c.1.5.2 1 .3 1.4.1.4.2.7.3.8.1.2.2.3.2.3l3.2.1h.3c.1 0 .2 0 .3-.1l.1-.1c0-.1 0-.2.1-.4.1-1.9.2-3.2.2-3.8 0-1.5.1-3.4.2-5.7.1-2.8.2-4.8.2-6.2V10.1c0-.2 0-.4-.1-.4 0 0-.2 0-.4.1-.1 0-.2 0-.4.1-.2 0-.3.1-.3.1l-.5.1c-.3 0-.4.1-.5.2 0 .1-.1.2-.1.4v.1l-.2 6.2c0 2-.1 3.8-.2 5.4-.1 1.6-.2 2.4-.4 2.4 0 0-.1 0-.1-.1s-.2-.5-.4-1.4c-.3-.9-.6-1.9-.9-3-.3-1.1-.6-2.1-.8-2.9l-1.3-6c0-.2-.1-.3-.1-.3 0-.1-.1-.1-.2-.1s-.2 0-.4-.1h-.1c-.2 0-.7 0-1.5.1-.8 0-1.2.1-1.3.1h-.1l-.1.1v1.5c0 .6 0 1.3-.1 2.3v2.1c0 1.2-.1 3.4-.3 6.8-.1 1.6-.1 2.5-.1 2.8v.5c-.1.1 0 .2.2.2zm1.5-7.5v-.1.1c.1.2.1.4.1.6v.8c0 .3-.1.6-.1 1.1-.1.4-.1.6-.1.6v-.1c0-.4-.1-.8-.1-1.2 0-.6.1-1.2.2-1.8zm-.7-8.4c.4-.1.7-.1 1.2-.1h.4s.1 0 .1.1-.3.2-1 .2h-.1c-.5 0-.6-.1-.6-.2zm4.4 11.7c.1.1.1.2.1.3 0 .1.1.2.1.2.1.3.2.6.2.7v.8-.1c-.2-.5-.3-1.1-.4-1.9zm-3.7 3.4s.1 0 .1.1v.1h-.7-.1-.1c-.1 0-.1 0-.1-.1s.1-.2.2-.2.2 0 .4.1h.3zM59 14.7c0-.1 0-.1 0 0 0-.1.2.3.4 1.1.1.5.2.8.2 1v-.1c-.3-.6-.5-1.3-.6-2zM44.9 25.4c.1-.1.1-.2.1-.2 0 .1.1.1.1.1l-.1.4c-.1.3-.2.4-.2.4V26v-.2l.1-.4zm1.5-3.4c.1-.5.3-1.2.5-2.1 0 0 0-.1.1-.1 0-.1 0-.1.1-.2v-.1.1s0 .2-.1.6c-.1.5-.1.8-.1.9 0 .1-.1.2-.2.5l-.2.5c-.1.1-.1 0-.1-.1zm6.4 5.4c0-.1 0-.1.1-.2l.1-.1h.5c.3 0 .5 0 .8.1h0-.6-.5c-.2.2-.3.2-.4.2zm0-6.7c-.2-.5-.3-1-.3-1.5v-.1s.1.3.3.8v.8s0 .1 0 0zM46.6 19c.2-1.2.5-2.4.9-3.8v-.1.7c0 .1-.1.5-.3 1.3 0 .1-.1.3-.1.4 0 .2-.1.3-.1.5 0 .1-.1.3-.1.4-.1.4-.2.6-.3.6zm2.2-8.2c0-.1.2-.1.6-.1H50.2v.1c0 .1 0 .1-.1.1H50h-1c-.1 0-.2-.1-.2-.1zm-2.4 13.9c0-.1.1-.4.2-.8l.2-.7c0-.1.1-.3.2-.5.1 0 .1.1.1.3 0 .1-.1.4-.3.9-.2.6-.3.8-.4.8zm4.7-3.1h.2v.2c-.3 0-.5.1-.8.1H50h-.1c0-.2.4-.2 1.2-.3zm-3.4.5h.9l2.9.1.5 2.9c.1 1 .3 1.7.4 2.1.1.3.2.5.2.5.1 0 .3.1.7.1h.2c.8 0 1.1 0 1.2-.1v-.1c0-.1-.1-.5-.3-1.3-.2-.8-.4-1.9-.7-3.4-.3-1.4-.6-2.8-.8-4-.5-2.6-.8-4.3-.9-5.3-.1-.4-.1-.8-.2-1.4-.2-1.5-.4-2.2-.5-2.2h-.2-2.9s-.2 1-.7 2.9c-.5 2-1 4-1.5 6.1-.5 2.1-.9 3.6-1.1 4.7-.2 1-.4 1.8-.6 2.2-.1.2-.1.5-.2.7-.1.2-.1.4-.1.5v.2c0 .1.1.1.2.1h.1c.7 0 1.3-.1 1.8-.2.1 0 .2 0 .2-.1l.1-.1v-.2c0-.1 0-.2.1-.3l1.2-4.4zm3.9-3.9c-.3-.9-.5-1.6-.5-2v-.1-.1s.2.5.5 1.5c0 .2.1.4 0 .7zm-3.9 2l.7-3.2v-.2c0-.1.1-.2.1-.4.1-.2.1-.4.2-.7l1-3.6h.3s.1.4.1 1.2c.1.8.2 1.7.3 2.6.1.9.2 1.4.2 1.5L51 20c-.3 0-.9 0-1.7.1-.8.1-1.3.1-1.6.1zm-20 4.9c-.2.1-.3.1-.4.1-.1 0-.2 0-.4-.1h.8zm4.4-8.9c-.2-.1-.6-.4-1.3-.9-.6-.5-1.2-.9-1.6-1.3 0 0-.3-.2-.7-.5-.3-.3-.5-.5-.6-.5-.1-.1-.2-.1-.3-.1h-1.9c-.4 0-.6 0-.6.1l.2.2.2.2c.9.6 1.8 1.3 2.8 2 1 .7 1.7 1.2 2.1 1.4l2.3 1.7.8.5c.1.1.2.1.3.2h-.3c-.1 0-.2.1-.3.1l-.7.6c-.7.5-1.5 1.1-2.3 1.6-.3.3-1 .8-2 1.4-1 .7-1.9 1.3-2.7 2l-.3.3-.2.2c0 .1.2.1.6.1h1.5c.3 0 .5-.1.7-.2l1.6-1.1c.4-.4 1-.8 1.7-1.3s1.2-.8 1.4-.9l.6-.4c.4-.3.8-.6 1.4-1 .6-.4 1-.7 1.3-.9 0 0 .1-.1.3-.2.1-.1.2-.2.3-.2l.1-.1-.3-.2s-.1-.1-.3-.2c-.1-.1-.2-.2-.3-.2-.3-.2-.8-.5-1.4-1l-1.5-1-.6-.4zm-4.3-2.8l.4.4c.2.2.3.3.5.4 0 .1 0 .2-.1.2s-.1 0-.2-.1l-.3-.3-.2-.2-.1-.1c-.2-.2-.2-.4-.2-.4l.2.1zm7.2 5.2c.1 0 .2.1.3.2.1.1.2.2.4.2v.1c-.1.1-.3 0-.5-.1-.2-.2-.3-.3-.2-.4-.1-.1-.1-.1 0 0zm-4-2.4c.1.1.1.1.2.1.1.1.2.1.2.1.1 0 .1.1.1.1-.1.1-.4 0-.7-.3h.2zm-5.2-3.1c.1-.1.3-.1.5-.1.1 0 .3 0 .4.1l-.5.1-.4-.1zm3 10.4c0 .1-.1.1-.1.1l.1-.1c0-.1 0-.3.1-.4l.2-.2.3-.3c.1-.1.2-.1.2-.1.1 0 .1.1.1.2-.2.1-.4.3-.5.4l-.4.4zm2.1-7.1c.5.4 1 .8 1.4 1.2V17.9s-.1 0-.2-.1l-.3-.3-.2-.2c-.2-.2-.4-.3-.4-.3l-.2-.2c0-.3-.1-.3-.1-.4zm1.6 4.4l.2-.2.2-.2c.1-.1.3-.2.4-.3l.2-.2.3-.3c.1-.1.2-.1.2-.1v.2c-.4.2-.8.6-1.5 1.1zm-17.4 4.3c-.2.1-.3.1-.4.1-.1 0-.2 0-.4-.1h.8zm4.5-8.9c-.2-.1-.6-.4-1.3-.9-.6-.5-1.2-.9-1.6-1.3 0 0-.3-.2-.7-.5-.4-.3-.7-.4-.7-.5-.1-.1-.2-.1-.3-.1h-1.9c-.4 0-.6 0-.6.1l.2.2.2.2c.9.6 1.8 1.3 2.8 2 1 .7 1.7 1.2 2.1 1.4l2.3 1.7.8.5c.1.1.2.1.3.2h-.3c-.1 0-.2.1-.3.1l-.7.6c-.7.5-1.5 1.1-2.3 1.6-.3.3-1 .8-2 1.4-1 .7-1.9 1.3-2.7 2l-.3.3-.2.2c0 .1.2.1.6.1h1.5c.3 0 .5-.1.7-.2l1.6-1.1c.4-.4 1-.8 1.7-1.3s1.2-.8 1.4-.9l.6-.4c.4-.3.8-.6 1.4-1 .6-.4 1-.7 1.3-.9 0 0 .1-.1.3-.2.1-.1.2-.2.3-.2l.1-.1-.2-.2s-.1-.1-.3-.2c-.1-.1-.2-.2-.3-.2-.3-.2-.8-.5-1.4-1l-1.5-1-.6-.4zm-4.3-2.8l.4.4c.2.2.3.3.5.4 0 .1 0 .2-.1.2s-.1 0-.2-.1l-.3-.3-.2-.2-.1-.1c-.2-.2-.2-.4-.2-.4l.2.1zm7.2 5.2c.1 0 .2.1.3.2.1.1.2.2.4.2v.1c-.1.1-.3 0-.5-.1-.2-.2-.3-.3-.2-.4-.1-.1-.1-.1 0 0zm-4-2.4c.1.1.1.1.2.1.1.1.2.1.2.1.1 0 .1.1.1.1-.1.1-.4 0-.7-.3h.2zm-5.2-3.1c.1-.1.3-.1.5-.1.1 0 .3 0 .4.1l-.5.1-.4-.1zm3 10.4c0 .1-.1.1-.1.1l.1-.1c0-.1 0-.3.1-.4l.2-.2.3-.3c.1-.1.2-.1.2-.1.1 0 .1.1.1.2-.2.1-.4.3-.5.4l-.4.4zm2.1-7.1c.5.4 1 .8 1.4 1.2V17.9s-.1 0-.2-.1l-.3-.3-.2-.2c-.2-.2-.4-.3-.4-.3l-.2-.2c-.1-.3-.1-.3-.1-.4zm1.6 4.4l.2-.2.2-.2c.1-.1.3-.2.4-.3l.2-.2.3-.3c.1-.1.2-.1.2-.1v.2c-.4.2-.9.6-1.5 1.1zM2.6 25.1c-.2.1-.3.1-.4.1-.1 0-.2 0-.4-.1h.8zm4.5-8.9c-.2-.1-.6-.4-1.3-.9-.6-.5-1.2-.9-1.6-1.3 0 0-.3-.2-.7-.5-.3-.3-.6-.5-.6-.5-.1-.1-.2-.1-.3-.1H.7c-.4 0-.6 0-.6.1l.2.2.2.2c.9.6 1.8 1.3 2.8 2 1 .7 1.7 1.2 2.1 1.4l2.3 1.7.8.5c.1.1.2.1.3.2h-.3c-.1 0-.2.1-.3.1l-.7.6c-.7.5-1.5 1.1-2.3 1.6-.4.3-1 .8-2 1.4-1 .7-1.9 1.3-2.7 2l-.3.3-.2.2c0 .1.2.1.6.1h1.5c.3 0 .5-.1.7-.2l1.6-1.1c.4-.4 1-.8 1.7-1.3s1.2-.8 1.4-.9l.5-.4c.4-.3.8-.6 1.4-1 .6-.4 1-.7 1.3-.9 0 0 .1-.1.3-.2.1-.1.2-.2.3-.2l.1-.1-.2-.2s-.1-.1-.3-.2c-.1-.1-.2-.2-.3-.2-.3-.2-.8-.5-1.4-1l-1.5-1-.6-.4zm-4.3-2.8l.4.4c.2.2.3.3.5.4 0 .1 0 .2-.1.2s-.1 0-.2-.1l-.3-.3c0-.1-.1-.2-.1-.2l-.1-.1c-.2-.2-.2-.4-.2-.4l.1.1zm7.2 5.2c.1 0 .2.1.3.2.1.1.2.2.4.2v.1c-.1.1-.3 0-.5-.1-.2-.2-.3-.3-.2-.4-.1-.1-.1-.1 0 0zm-4-2.4c.1.1.1.1.2.1.1.1.2.1.2.1.1 0 .1.1.1.1-.1.1-.4 0-.7-.3H6zM.8 13.1c.1-.1.2-.1.4-.1.1 0 .3 0 .4.1l-.5.1-.3-.1zm3 10.4c0 .1-.1.1-.1.1l.1-.1c0-.1 0-.3.1-.4l.2-.2.3-.3c.1-.1.2-.1.2-.1.1 0 .1.1.1.2-.2.1-.4.3-.5.4l-.4.4zm2-7.1c.5.4 1 .8 1.4 1.2V17.9s-.1 0-.2-.1l-.3-.3-.2-.2c-.2-.2-.4-.3-.4-.3l-.2-.2c0-.3 0-.3-.1-.4zm1.7 4.4l.2-.2.2-.2c.1-.2.2-.3.3-.4l.2-.2.3-.3c.1-.1.2-.1.2-.1v.2c-.3.3-.8.7-1.4 1.2z"/>
    <path class="st1" d="M117.7 25.3c0 .6 0 .9-.1.9 0 0 0-.1-.1-.4 0-.3-.1-.5-.1-.6 0-.2.1-.3.1-.3.1 0 .2.2.2.4m.8-14.7s-.1.1-.3.1c-.2 0-.3.1-.4.1-.1 0-.2 0-.5-.1-.3 0-.4-.1-.4-.1s.1-.1.4-.1c0-.1.1-.1.3-.1h.2c.4 0 .7.1.7.2zm-.6-.4h-.5-.1-.2c-.2 0-.3.1-.3.4 0 3.6.1 6.7.2 9.5l.2 4.5c.1 1.6.1 2.5.2 2.6 0 .1.2.2.4.2s.9 0 1.9.1H125.4c.1 0 .1-.3.1-1v-.6-.3c0-.1-.2-.1-.4-.2-.3-.1-.5-.1-.9-.1-.3 0-1.1 0-2.5-.1s-2.1-.1-2.1-.2v-.1c0-.1 0-.2-.1-.4 0-.1 0-.3-.1-.4-.1-.7-.2-2.2-.3-4.7-.1-2.5-.2-4.4-.2-5.8 0-.6 0-1 .1-1 .1-.1 1.5-.2 4.3-.2h.7c.4 0 .6 0 .7-.1.1-.1.1-.3.1-.7l.1-.6v-.6c0-.1 0-.2-.1-.3-.1-.1-1.4-.1-4-.1-1.4.2-2.4.2-2.9.2zm3.2 1.9s-.1 0 0 0c-.1-.1.2-.2.8-.2.6 0 .9.1.9.1h-.1c-.4.1-.7.1-.8.1-.1.1-.4 0-.8 0zm-2.4 7.4c.1.7.1 1.1.1 1.3 0 .3 0 .6-.1 1v.1s0-.1-.1-.2c0-.1 0-.3-.1-.5v-.5-.3-.3s0-.1.1-.3c0 0 0-.1.1-.3 0 0 0-.1 0 0zm6.2 6.3l-.1.1H123s0-.1.1-.1c.2-.1.4-.1.6-.1.1 0 .3 0 .6.1.2-.1.4 0 .6 0zm-10.9-.5c0 .4 0 .6-.1.6s-.1-.4-.1-1.2v-.6s0 .1.1.2c0 .2 0 .3.1.5-.1.4 0 .5 0 .5zm-.4-7.2v1.2s-.1-.1-.1-.2c-.1-.4-.1-.5-.1-.6v-.1-.3-.2c0-.2.1-.3.2-.5h.1v.7zm-.4-5.3c0 .5-.1.8-.2 1v-.2-.3-1-.3c.2.1.2.3.2.8zm-8.9 14.6l1.5.1h.1c.2 0 .3-.1.3-.3v-.1-.1-.1l.1-2.8c.1-7.2.2-10.8.3-10.8 0 0 .3.9.7 2.7.5 1.8 1 3.7 1.5 5.7s.8 3.1.8 3.3c.1.5.2 1 .3 1.4.1.4.2.7.3.8.1.2.2.3.2.3l3.2.1h.3c.1 0 .2 0 .3-.1l.1-.1c0-.1 0-.2.1-.4.1-1.9.2-3.2.2-3.8 0-1.5.1-3.4.2-5.7.1-2.8.2-4.8.2-6.2V10.1c0-.2 0-.4-.1-.4 0 0-.2 0-.4.1-.1 0-.2 0-.4.1-.2 0-.3.1-.3.1l-.5.1c-.3 0-.4.1-.5.2 0 .1-.1.2-.1.4v.1l-.1 5.9c0 2-.1 3.8-.2 5.4-.1 1.6-.2 2.4-.4 2.4 0 0-.1 0-.1-.1s-.2-.5-.4-1.4c-.3-.9-.6-1.9-.9-3-.3-1.1-.6-2.1-.8-2.9l-1.3-6c0-.2-.1-.3-.1-.3 0-.1-.1-.1-.2-.1s-.2 0-.4-.1h-.1c-.2 0-.7 0-1.5.1-.8 0-1.2.1-1.3.1h-.1l-.1.1v1.5c0 .6 0 1.3-.1 2.3v2.1c0 1.2-.1 3.4-.3 6.8-.1 1.6-.1 2.5-.1 2.8v.5c-.1.4 0 .5.1.5zm1.5-7.5v-.1c.1-.1.1 0 0 .1.1.2.1.4.1.6v.8c0 .3-.1.6-.1 1.1-.1.4-.1.6-.1.6v-.1c0-.4-.1-.8-.1-1.2.1-.6.1-1.2.2-1.8zm-.6-8.4c.4-.1.7-.1 1.2-.1h.4s.1 0 .1.1-.3.2-1 .2h-.1c-.5 0-.7-.1-.6-.2-.1 0-.1 0 0 0zm4.4 11.7c.1.1.1.2.1.3 0 .1.1.2.1.2.1.3.2.6.2.7v.8-.1c-.2-.5-.4-1.1-.4-1.9zm-3.7 3.4s.1 0 .1.1v.1h-.7-.1-.1c-.1 0-.1 0-.1-.1s.1-.2.2-.2.2 0 .4.1h.3zm1.6-11.9c0-.1 0-.1 0 0 0-.1.2.3.4 1.1.1.5.2.8.2 1v-.1c-.4-.6-.5-1.3-.6-2zM95.1 26.6c.5 0 .8-.1.9-.1h.4c.2 0 .3.1.3.1v.1h-.3-1.1c-.5 0-.7-.1-.8-.1h.6zm-2 .4s-.1 0 0 0c-.1-.1 0-.2.1-.2h.8c.3 0 .5.1.5.2h-1.4zm8.5-16.8c.1 0 .1 0 .1.1v.1l-.1.1s-.1 0-.2-.1h-.6c-.1 0-.1 0-.1-.1v-.1c.1-.1.2-.1.3-.1 0 0 .1 0 .3.1h.3zm-8.5.1h-.5c-.2 0-.4 0-.5.1-.1.1-.1.2-.1.5V13c0 6.1 0 9.9.1 11.5v2.7l.1.1c.1.1.5.1 1.1.1H101.8c.2 0 .3 0 .3-.1V26.7v-2.1-2.8l-.1-10.3v-1.1c0-.1 0-.2-.1-.2 0 0-.1-.1-.3-.1h-2c-.3 0-1 0-2 .1-1 0-2 .1-3 .1-.8-.1-1.4 0-1.5 0zm-.4 1.3c-.1 0-.1-.1-.1-.3 0-.2-.1-.3-.1-.5v-.2l.1-.1v.1c0 .1.1.3.1.7v.3zm.5.7v2.2c-.1 0-.1-.5-.1-1.6 0-.5 0-.8.1-.8l.1-.1s-.1.1-.1.3zm7.2.1s.1 1.4.1 4.1c0 3.9-.1 6.6-.2 7.9 0 .4-.1.7-.1.7v.4c-.4 0-2-.1-4.9-.4l-.7-.1v-1.4c0-.1 0-.6-.1-1.5s-.1-1.6-.1-2.1l-.1-7.7h.4c.2 0 1.2 0 2.9-.1h1.3c.4 0 .8 0 1-.1.2.3.4.3.5.3zm.3 10.9c0 .1 0 .1 0 0v-.9-1c.1.1.1.5.1 1.2 0 .4 0 .7-.1.7zm.6.5c0 .9 0 1.3-.1 1.3 0 0-.1-.2-.1-.6 0-.4-.1-.6-.1-.8 0-.1 0-.1.1-.1.1.1.2.1.2.2zm-18.4 1.5c0 .6 0 .9-.1.9 0 0 0-.1-.1-.4 0-.3-.1-.5-.1-.6 0-.2.1-.3.1-.3.1 0 .2.2.2.4zm.8-14.7s-.1.1-.3.1c-.2 0-.3.1-.4.1-.1 0-.2 0-.5-.1-.3 0-.4-.1-.4-.1s.1-.1.4-.1c0-.1.1-.1.3-.1h.2c.5 0 .7.1.7.2zm-.6-.4h-.5-.1-.2c-.2 0-.3.1-.3.4 0 3.6.1 6.7.2 9.5l.2 4.5c.1 1.6.1 2.5.2 2.6 0 .1.2.2.4.2s.9 0 1.9.1H90.6c.1 0 .1-.3.1-1v-.6-.3c0-.1-.2-.1-.4-.2-.3-.1-.5-.1-.9-.1-.3 0-1.1 0-2.5-.1s-2.1-.1-2.1-.2v-.1c0-.1 0-.2-.1-.4 0-.1 0-.3-.1-.4-.1-.7-.2-2.2-.3-4.7-.1-2.5-.2-4.4-.2-5.8 0-.6 0-1 .1-1 .1-.1 1.5-.2 4.3-.2h.7c.4 0 .6 0 .7-.1.1-.1.1-.3.1-.7l.1-.6v-.6c0-.1 0-.2-.1-.3-.1-.1-1.4-.1-4-.1-1.4.2-2.3.2-2.9.2zm3.2 1.9s-.1 0 0 0c-.1-.1.2-.2.8-.2.6 0 .9.1.9.1h-.1c-.4.1-.7.1-.8.1-.1.1-.4 0-.8 0zM84 19.5c.1.7.1 1.1.1 1.3 0 .3 0 .6-.1 1v.1s0-.1-.1-.2c0-.1 0-.3-.1-.5v-.5-.3-.3s0-.1.1-.3c-.1 0-.1-.1.1-.3-.1 0-.1-.1 0 0zm6.1 6.3h-1.9s0-.1.1-.1c.2-.1.4-.1.6-.1.1 0 .3 0 .6.1.3 0 .5.1.6.1zm-11.7-3c0 1.5 0 2.3-.1 2.3 0 0 0-.3-.1-1v-1.3c0-.1 0-.2.1-.2s.1 0 .1.2zm-.1-12.5c-.2 0-.3 0-.4.1 0 .1-.1.3-.1.6 0 2.2-.1 6.6-.1 13.2V27.4c0 .1.1.2.3.2H79.3l.5-.1c.1 0 .2-.1.2-.2v-3.1-13.5c0-.2 0-.4-.1-.4-.1-.1-.3-.1-.6-.1h-1zm0 .3c.1-.1.2-.2.4-.2.1 0 .2 0 .4.1s.3.1.4.1c0 .1-.1.2-.1.2-.6.1-.9.1-.9.1-.2 0-.2 0-.2-.1v-.2zm1.1 2.3c0-.1 0-.2.1-.2s.2.8.2 2.3c0 .7 0 1.1-.1 1.1 0 0-.1 0-.1-.1-.1-1-.1-1.7-.1-2-.1-.3 0-.7 0-1.1zm-.8 8.4c0-.1 0-.1 0 0 .2 0 .3.2.3.5 0 .1 0 .2-.1.3-.1.3-.2.3-.2.2-.1-.3-.1-.5-.1-.6-.1-.2 0-.3.1-.4zm-6.4 2.6v-.1s0 .1.1.3c0 .2.1.4.1.6v.6c0 1.2 0 1.8-.1 1.8V27c-.1-.5-.1-1-.1-1.3v-.8-1zm-3.7-13.4c.2-.1.4-.1.5-.1h.4l.1.1v.1h-.2c-.1 0-.2 0-.4-.1-.3.1-.5.1-.4 0zm-.4-.2V10.9c0 .2 0 .5.1.9l.1.2c0 .2.1.3.3.3h1.1c.7 0 1.1 0 1.1.1.1 0 .1.8.1 2.5v2.6c-.1 3.4-.1 6.5-.1 9.1v.7c0 .2.2.3.6.3H72.8s.1 0 .1-.1v-.1-1.3l.3-13.1c0-.1.2-.1.4-.1h.8c.3 0 .6.1.9.1H76.2c.1 0 .1-.2.1-.5v-1.1c0-.2 0-.3-.1-.4-.1-.1-.2-.1-.4-.1l-.9-.1c-.2 0-1-.1-2.3-.1-.6 0-1.1-.1-1.6-.2-1.4-.3-2.3-.4-2.6-.4-.2.1-.3.1-.3.2zm4.2 3.4c-.1 1.2-.1 1.8-.2 1.8s-.1-.5-.1-1.6c0-.6.1-1 .2-1s.2.2.2.5c-.1.1-.1.2-.1.3zm-.7 1.1c0 .9 0 1.4-.1 1.5-.1 0-.1-.5-.1-1.5 0-.5 0-.7.1-.7.1.1.1.3.1.7zm-.4 6.8c0 .4-.1.7-.1.7-.1 0-.1-.2-.1-.7 0-.3 0-.4.1-.4 0 .1.1.2.1.4z"/>
    <path class="st1" d="M186.9 25.3c0 .4 0 .6-.1.6s-.1-.4-.1-1.2v-.6s0 .1.1.2c0 .2 0 .3.1.5v.5zm-.4-7.2v1.2s-.1-.1-.1-.2c-.1-.4-.1-.5-.1-.6v-.1-.3-.2c0-.2.1-.3.2-.5h.1v.7zm-.4-5.3c0 .5-.1.8-.2 1v-.2-.3-1-.3c.2.1.2.3.2.8zm-8.8 14.6l1.5.1h.1c.2 0 .3-.1.3-.3v-.1-.1-.1l.1-2.8c.1-7.2.2-10.8.3-10.8 0 0 .3.9.7 2.7.5 1.8 1 3.7 1.5 5.7s.8 3.1.8 3.3c.1.5.2 1 .3 1.4.1.4.2.7.3.8.1.2.2.3.2.3l3.2.1h.3c.1 0 .2 0 .3-.1l.1-.1c0-.1 0-.2.1-.4.1-1.9.2-3.2.2-3.8 0-1.5.1-3.4.2-5.7.1-2.8.2-4.8.2-6.2V10.1c0-.2 0-.4-.1-.4 0 0-.2 0-.4.1-.1 0-.2 0-.4.1-.2 0-.3.1-.3.1l-.5.1c-.3 0-.4.1-.5.2 0 .1-.1.2-.1.4v.1l-.1 5.9c0 2-.1 3.8-.2 5.4-.1 1.6-.2 2.4-.4 2.4 0 0-.1 0-.1-.1s-.2-.5-.4-1.4c-.3-.9-.6-1.9-.9-3-.3-1.1-.6-2.1-.8-2.9l-1.3-6c0-.2-.1-.3-.1-.3 0-.1-.1-.1-.2-.1s-.2 0-.4-.1h-.1c-.2 0-.7 0-1.5.1-.8 0-1.2.1-1.3.1h-.1l-.1.1v1.5c0 .6 0 1.3-.1 2.3s0 1.6 0 2.1c0 1.2-.1 3.4-.3 6.8-.1 1.6-.1 2.5-.1 2.8v.5c-.2.4-.1.5.1.5zm1.4-7.5v-.1c.1-.1.1 0 0 .1.1.2.1.4.1.6v.8c0 .3-.1.6-.1 1.1-.1.4-.1.6-.1.6v-.1c0-.4-.1-.8-.1-1.2.1-.6.1-1.2.2-1.8zm-.6-8.4c.4-.1.7-.1 1.2-.1h.4s.1 0 .1.1-.3.2-1 .2h-.1c-.5 0-.7-.1-.6-.2-.1 0-.1 0 0 0zm4.4 11.7c.1.1.1.2.1.3 0 .1.1.2.1.2.1.3.2.6.2.7v.8-.1c-.2-.5-.4-1.1-.4-1.9zm-3.7 3.4s.1 0 .1.1v.1h-.7-.1-.1c-.1 0-.1 0-.1-.1s.1-.2.2-.2.2 0 .4.1h.3zm1.6-11.9c0-.1 0-.1 0 0 0-.1.2.3.4 1.1.1.5.2.8.2 1v-.1c-.4-.6-.5-1.3-.6-2zM168 26.6c.5 0 .8-.1.9-.1h.4c.2 0 .3.1.3.1v.1h-.3-1.1c-.5 0-.7-.1-.8-.1h.6zm-2 .4s-.1 0 0 0c-.1-.1 0-.2.1-.2h.8c.3 0 .5.1.5.2-.2.1-.5.1-.7.1-.2-.1-.4-.1-.7-.1zm8.5-16.8c.1 0 .1 0 .1.1v.1l-.1.1s-.1 0-.2-.1h-.6c-.1 0-.1 0-.1-.1v-.1c.1-.1.2-.1.3-.1 0 0 .1 0 .3.1h.3zm-8.5.1h-.5c-.2 0-.4 0-.5.1-.1.1-.1.2-.1.5V13c0 6.1 0 9.9.1 11.5v2.7l.1.1c.1.1.5.1 1.1.1H174.7c.2 0 .3 0 .3-.1V26.7v-2.1-2.8l-.1-10.3v-1.1c0-.1 0-.2-.1-.2 0 0-.1-.1-.3-.1h-2c-.3 0-1 0-2 .1-1 0-2 .1-3 .1-.8-.1-1.4 0-1.5 0zm-.4 1.3c-.1 0-.1-.1-.1-.3 0-.2-.1-.3-.1-.5v-.2l.1-.1v.1c0 .1.1.3.1.7v.3zm.5.7v2.2c-.1 0-.1-.5-.1-1.6 0-.5 0-.8.1-.8-.1-.1-.1-.1 0-.1v.3zm7.2.1s.1 1.4.1 4.1c0 3.9-.1 6.6-.2 7.9 0 .4-.1.7-.1.7v.4c-.4 0-2-.1-4.9-.4l-.7-.1v-1.4c0-.1 0-.6-.1-1.5s-.1-1.6-.1-2.1l-.1-7.7h.4c.2 0 1.2 0 2.9-.1h1.3c.4 0 .8 0 1-.1.2.3.4.3.5.3zm.3 10.9c0 .1 0 .1 0 0v-.9-1c.1.1.1.5.1 1.2 0 .4 0 .7-.1.7zm.6.5c0 .9 0 1.3-.1 1.3 0 0-.1-.2-.1-.6 0-.4-.1-.6-.1-.8 0-.1 0-.1.1-.1.1.1.2.1.2.2zm-3.5-17l-1.3 2.1-.1.1v.1H170.9c.3 0 .6-.1.7-.4l1.1-1.9.1-.1c0-.1-.1-.1-.4-.1h-1.1c-.4.1-.6.1-.6.2zm-.5 1.8c.1 0 .2 0 .2.1.1 0 .1.1.1.1s0 .1-.1.1h-.1-.1-.1-.4c-.1 0-.1 0-.1-.1.1-.2.3-.2.6-.2zm2.1-1.8c.1-.1.2-.1.2-.1 0 .1-.1.2-.2.3l-.1.1h-.1s.1-.2.2-.3zm-10.9 16c0 1.5 0 2.3-.1 2.3 0 0 0-.3-.1-1v-1.3c0-.1 0-.2.1-.2 0 0 .1 0 .1.2zm-.1-12.5c-.2 0-.3 0-.4.1 0 .1-.1.3-.1.6 0 2.2-.1 6.6-.1 13.2V27.4c0 .1.1.2.3.2H162.3l.5-.1c.1 0 .2-.1.2-.2v-.2l-.1-2.9V10.7c0-.2 0-.4-.1-.4-.1-.1-.3-.1-.6-.1h-.9zm0 .3c.1-.1.2-.2.4-.2.1 0 .2 0 .4.1s.3.1.4.1c0 .1-.1.2-.1.2-.6.1-.9.1-.9.1-.2 0-.2 0-.2-.1v-.2zm1.1 2.3c0-.1 0-.2.1-.2s.2.8.2 2.3c0 .7 0 1.1-.1 1.1 0 0-.1 0-.1-.1-.1-1-.1-1.7-.1-2-.1-.3-.1-.7 0-1.1zm-.9 8.4c.1-.1.1-.1 0 0 .2 0 .3.2.3.5 0 .1 0 .2-.1.3-.1.3-.2.3-.2.2-.1-.3-.1-.5-.1-.6 0-.2.1-.3.1-.4zm-9.9 4c0 .6 0 .9-.1.9 0 0 0-.1-.1-.4 0-.3-.1-.5-.1-.6 0-.2.1-.3.1-.3.1 0 .2.2.2.4zm.8-14.7s-.1.1-.3.1c-.2 0-.3.1-.4.1-.1 0-.2 0-.5-.1-.3 0-.4-.1-.4-.1s.1-.1.4-.1c0-.1.1-.1.3-.1h.2c.5 0 .7.1.7.2zm-.6-.4h-.5H151c-.2 0-.3.1-.3.4 0 3.6.1 6.7.2 9.5l.2 4.5c.1 1.6.1 2.5.2 2.6 0 .1.2.2.4.2s.9 0 1.9.1H159.3c.1 0 .1-.3.1-1v-.6-.3c0-.1-.2-.1-.4-.2-.3-.1-.5-.1-.9-.1-.3 0-1.1 0-2.5-.1s-2.1-.1-2.1-.2v-.1c0-.1 0-.2-.1-.4 0-.1 0-.3-.1-.4-.1-.7-.2-2.2-.3-4.7-.1-2.5-.2-4.4-.2-5.8 0-.6 0-1 .1-1 .1-.1 1.5-.2 4.3-.2h.7c.4 0 .6 0 .7-.1.1-.1.1-.3.1-.7l.1-.6v-.6c0-.1 0-.2-.1-.3-.1-.1-1.4-.1-4-.1-1.4.2-2.3.2-2.9.2zm3.2 1.9s-.1 0 0 0c-.1-.1.2-.2.8-.2.6 0 .9.1.9.1h-.1c-.4.1-.7.1-.8.1-.1.1-.4 0-.8 0zm-2.3 7.4c.1.7.1 1.1.1 1.3 0 .3 0 .6-.1 1v.1s0-.1-.1-.2c0-.1 0-.3-.1-.5v-.5-.3-.3s0-.1.1-.3c-.1 0-.1-.1.1-.3-.1 0-.1-.1 0 0zm6.1 6.3l-.1.1H156.9s0-.1.1-.1c.2-.1.4-.1.6-.1.1 0 .3 0 .6.1.3-.1.5 0 .6 0zm-11.6-10.2c0 .2.1.3.1.4 0 .7-.1 1.1-.2 1.1-.1-.5 0-1.1.1-1.5zm-6.9 4.1s.2-.1.6-.1c.4 0 .9-.1 1.6-.1.6 0 1.3 0 1.9-.1.6 0 1.2-.1 1.8-.1h1.9c.4 0 .6 0 .6-.1.1 0 .1-.1.1-.3v-.4-.4c.1-2.8.1-4.4.1-4.8v-1.7-.6c0-.1 0-.2-.1-.2l-.1-.1c-.2-.1-1.5-.2-3.9-.3-2.3-.2-4.2-.3-5.4-.3h-.9c-.1 0-.1.3-.1.7-.1 1.4-.2 4.2-.4 8.4s-.2 6.9-.3 8v.3l.2.2h.2c.1 0 .2 0 .3.1l.9.1h.5c.1 0 .1-.3.1-.7v-2.6-3.2c.3-1.2.3-1.7.4-1.7zm7.8-8.6s-.1.1-.4.1c-.3 0-.5.1-.6.1-.1 0-.3 0-.6-.1s-.5-.1-.5-.2.4-.1 1.1-.1h.1c.1 0 .2 0 .5.1.3 0 .4.1.4.1zm-5.5.6l4.3.3-.1 1.2c0 .2 0 .6-.1 1.3 0 .7-.1 1.3-.1 1.9 0 .6-.1.8-.1.9h-.3c-.6 0-2.2 0-4.8-.1h-.9l-.1-.4v-.7c0-.7 0-1.6.1-2.7s.1-1.6.2-1.7h.4c.1 0 .3.1.6.1.3-.1.6-.1.9-.1zm-3.5.4v-.7-.5-.1c.1 0 .1.1.1.4v.2c.2.5.1.7-.1.7zm-.1-.2c0 .1 0 .4-.1.8s-.1.6-.1.6V13c0-.8.1-1.3.2-1.4l.1-.1s.1.1.1.2v.2zm3.9 7.1c0 .2-.2.3-.7.3-.4 0-.6-.1-.7-.1-.1-.1-.1-.2-.1-.2 1-.1 1.4-.1 1.5 0zm-4.6 6.4v.9c0 .5 0 .7-.1.7s-.1 0-.1-.1v-.5c0-.4 0-.6.1-.6-.1 0 0-.1.1-.4zm-7.6 1.2s-.5.1-1.4.1c-.1 0-.1 0-.1-.1v-.1c.1-.1.1-.1.2-.1s.3 0 .7.1c.4 0 .6 0 .6.1zM128 10.7h-.3-.1c-.1 0-.1 0-.1.1l-.1.1V11.5c0 .4-.1.9-.1 1.6 0 1.3-.1 2.3-.2 3.2-.1.4-.1 2-.2 4.8s-.1 4.8-.1 5.9v.4c0 .1.2.1.4.2.3 0 1.6.1 3.8.1h5.1c.1 0 .3 0 .3-.1l.1-.1v-.7-.4c0-.3 0-.5-.1-.5-.1-.1-.8-.2-1.8-.2-2.5-.1-3.8-.2-4.1-.2l-1.2-.1v-1V22c.1-1.2.1-1.8.2-1.9.1 0 1-.1 2.7-.1 2.1-.1 3.2-.2 3.5-.4.1-.1.2-.3.2-.6 0-.4 0-.7.1-.9v-.2c0-.1-.1-.1-.2-.2-.3-.1-1-.1-2.2-.1h-2.5c-1.2 0-1.8 0-1.9-.1l.1-2.7.2-2h.5c.2 0 .5 0 .9-.1h2.3l3.2.1.1-.6c.1-.3.1-.6.1-.9 0-.2 0-.4-.1-.4-.1-.1-1.1-.1-2.9-.2-1.8-.1-3.4-.1-4.7-.1-.5 0-.8 0-.9.1zm7.7.4c.1.1.2.1.2.2v.1s-.1.1-.2.1-.2 0-.3-.1c-.4-.1-.7-.1-.7-.2l.1-.1c.1-.1.2-.1.3-.1.1 0 .3.1.6.1zm-8.2 6.7c0-.1.1-.1.1-.1s.1.2.1.7v1c0 .2-.1.4-.1.8-.1.3-.1.5-.1.5v-.1-.9c-.2-.6-.2-1.2 0-1.9zm.3-1.2c.1-.1.1.1.1.4v.1c0 .2-.1.2-.1.2-.1-.2-.1-.3-.1-.4 0-.1 0-.2.1-.3zm7.3 1.2s.1 0 0 0c0 .1-.1.1-.2.2l-.1.1h-.1c-.1 0-.1 0-.1.1-.4 0-.7-.1-.7-.2l.1-.1c.1-.1.3-.1.5-.1h.6zm-4.6-5.5c0 .1 0 .1-.1.1l-.1.1h-.2c-.1 0-.2 0-.4-.1l-.9-.1h.1c.3-.1.5-.1.7-.1.1 0 .2 0 .4.1h.5zm1.7 6.6c.1 0 .2.1.2.2 0 0 0 .1-.1.1h-.3c-.1 0-.4-.1-.9-.1-.4-.1-.7-.1-.7-.2h.1c.3 0 .5-.1.6-.1.2 0 .6.1 1.1.1z"/>
    <path class="st1" d="M244.5 22.5c-.1 0-.1-.1-.1-.4 0-.5 0-.9.1-1.1v-.3l.1.1s.1.2.1.4v.4c-.1.4-.1.8-.2.9m-6.6-1.7l-.1.1c-.1 0-.1-.1-.1-.2l.1-1.3s0 .1.1.2c0 .2.1.3.1.6v.5c-.1 0-.1 0-.1.1zm-.5-10.3c-.1.1-.2 5.2-.3 15.3v1.4c0 .1 0 .3.1.3 0 0 .2.1.4.1h.7l7.4-.8H246v-.2c0-.1 0-.4.1-1s.1-1.3.2-2c.1-.8.1-1.5.1-2.1V21v-.5-.4-.5c.1-.9.1-2.3.3-4.3.1-1.9.2-3.1.2-3.5v-.1-.2-.2s-.2-.1-.5-.2h-.5.1-.5c-.4 0-.6.2-.6.5l-.1 1.3-1 11.6v.4c0 .1-.1.1-.2.1-1.2.4-2.6.5-4.3.5h-.2s-.1-.1-.1-.2v-1c0-3.4.1-7.4.3-11.9l.1-1.1c0-.2-.6-.4-1.8-.7-.1-.2-.2-.2-.2-.1zm8.8 1.1c.1-.1.1 0 .1.2.1.2.1.4.1.6v.1c0 .2 0 .4-.1.7-.1.3-.1.5-.2.8-.1.2-.1.3-.1.3V14v-1.8c.1-.2.2-.5.2-.6zm-8.1 9.5c.1 0 .2.1.2.4v.1c-.1.4-.1.6-.2.6l-.1-.1c-.1-.1-.1-.3-.1-.4 0-.2.1-.4.2-.6zm5.2 4.9c.1-.1.3-.1.5-.1h.9c.1 0 .1 0 .2.1 0 .1 0 .1-.1.1-.2 0-.3.1-.3.1-.1 0-.2 0-.4-.1h-.8s-.1 0 0-.1zm-.6-18.4l-1.3 2.1-.1.1v.1s0 .1.1.1h.2l1.3-.1c.3 0 .6-.1.7-.4l1.2-1.9.1-.1c0-.1-.1-.1-.4-.1h-1.1c-.4.1-.6.2-.7.2zm-.4 1.9c.1 0 .2 0 .2.1.1 0 .1.1.1.1s0 .1-.1.1h-.1-.1-.1-.4c-.1 0-.1 0-.1-.1.1-.2.3-.3.6-.2zm2.1-1.9c.1-.1.2-.1.2-.1 0 .1-.1.2-.2.3l-.1.2h-.1c0-.1.1-.2.2-.4zm-18.1 16.5c0 .1-.1.2-.1.2-.1 0-.1-.2-.1-.5s0-.7.1-1c0-.2.1-.3.1-.3s.1.2.1.6v.2c0 .4 0 .6-.1.8zm4.3-1.5c-.1 0-.4-.3-.9-.9-.5-.6-.8-1-.9-1.1 0 0-.1-.1-.1-.2s0-.1.1-.2c0 0 .1 0 .1.1s.1.1.2.2.1.2.2.3c.1.1.3.4.7 1 .4.4.6.7.6.8zm3.6-6.7v.3c0 .4 0 .5-.1.5s-.2-.1-.2-.4c0-.1 0-.5.1-1s.1-.8.2-.8v1.4zm-4.4-3.4l3.2.1c.1.1.1.3.1.6V17.5c0 .1-.2.1-.6.1-.3 0-.7 0-1.2-.1-.5 0-.8-.1-.8-.1l-3.6-.1.1-4.7c.1 0 1-.1 2.8-.1zm-4.1.3c0 1.4 0 2-.1 2v-.3-.9-.9c0-.1 0-.2.1-.2-.1 0 0 .1 0 .3zm2.5-1.1c-.2 0-.4.1-.5.1-.2 0-.2-.1-.2-.1 0-.1 0-.2.1-.2h.3c.2 0 .3 0 .4-.1.1 0 .1.1.1.1l-.2.2zm-3.1-1.1c-.1.2-.2 3.4-.4 9.4-.1 2.4-.1 4.1-.2 4.9 0 .1 0 .5-.1 1 0 .5-.1.9-.1 1.1 0 .3 0 .4.1.5 0 .1.1.1.1.1.1.1.5.1 1.3.1h.6c.1 0 .2-.1.2-.2V27.2c0-.3 0-1.1.1-2.3v-2.3-2.5c0-.6.1-1.1.1-1.3.1 0 .4.4 1.1 1.2 3.6 4.7 5.6 7 5.8 7l2.2-1c0-.1 0-.1-.1-.3l-1.9-2-.8-.8-1.1-1.1c-.3-.3-.7-.7-1-1.1-.4-.4-.6-.8-.8-1.1-.2-.3-.3-.5-.3-.7 0-.1.5-.1 1.5-.1 2.4 0 3.6-.1 3.6-.3 0 0 0-.3.1-.7 0-.4.1-.9.1-1.5v-1.7c0-.9 0-1.8-.1-2.7-.1-.9-.1-1.4-.1-1.6 0-.3-1.1-.4-3.2-.4h-4.9c-1.2.4-1.8.5-1.8.7zm5.5 7.2c.1 0 .2.1.2.1v.1c-.1 0-.1.1-.3.1h-1.1s0-.1.1-.1.2-.1.4-.1h.5c0-.1.1-.1.2-.1zm2.8 8.4c0-.1.1-.1.4-.1H234.4c.2.1.3.1.3.1-.3 0-.6.1-.7.1-.1 0-.3 0-.6-.1zm-.3-15c.3 0 .6 0 .7.1.2.1.3.1.3.2.1.1.1.2.2.4 0 .1.1.1.1.2v.1s-.1-.1-.1-.2c-.1-.1-.2-.3-.3-.4-.1-.1-.3-.2-.5-.3l-.4-.1zM221 22.8c0 1.5 0 2.3-.1 2.3 0 0 0-.3-.1-1v-1.3c0-.1 0-.2.1-.2s.1 0 .1.2zm-.1-12.5c-.2 0-.3 0-.4.1 0 .1-.1.3-.1.6 0 2.2-.1 6.6-.1 13.2V27.4c0 .1.1.2.3.2H221.9l.5-.1c.1 0 .2-.1.2-.2v-.2l-.1-2.9V10.7c0-.2 0-.4-.1-.4-.1-.1-.3-.1-.6-.1h-.9zm0 .3c.1-.1.2-.2.4-.2.1 0 .2 0 .4.1s.3.1.4.1c0 .1-.1.2-.1.2-.6.1-.9.1-.9.1-.2 0-.2 0-.2-.1v-.2zm1.1 2.3c0-.1 0-.2.1-.2s.2.8.2 2.3c0 .7 0 1.1-.1 1.1 0 0-.1 0-.1-.1-.1-1-.1-1.7-.1-2-.1-.3 0-.7 0-1.1zm-.8 8.4c0-.1 0-.1 0 0 .2 0 .3.2.3.5 0 .1 0 .2-.1.3-.1.3-.2.3-.2.2-.1-.3-.1-.5-.1-.6-.1-.2 0-.3.1-.4zm-4.9 1.2c-.1 0-.1-.1-.1-.4 0-.5 0-.9.1-1.1v-.3l.1.1s.1.2.1.4v.4c-.1.4-.2.8-.2.9zm-6.6-1.7l-.1.1c-.1 0-.1-.1-.1-.2l.1-1.3s0 .1.1.2c0 .2.1.3.1.6v.5c-.1 0-.1 0-.1.1zm-.5-10.3c-.1.1-.2 5.2-.3 15.3v1.4c0 .1 0 .3.1.3 0 0 .2.1.4.1h.7l7.4-.8H217.8v-.2c0-.1 0-.4.1-1s.1-1.3.2-2c.1-.8.1-1.5.1-2.1V21v-.5-.4-.5c.1-.9.1-2.3.3-4.3.1-1.9.2-3.1.2-3.5v-.1-.2-.2s-.2-.1-.5-.2H217c-.4 0-.6.2-.6.5l-.1 1.3-1 11.6v.4c0 .1-.1.1-.2.1-1.2.4-2.6.5-4.3.5h-.2s-.1-.1-.1-.2v-1c0-3.4.1-7.4.3-11.9l.1-1.1c0-.2-.6-.4-1.8-.7.2-.2.1-.2.1-.1zm8.8 1.1c.1-.1.1 0 .1.2.1.2.1.4.1.6v.1c0 .2 0 .4-.1.7-.1.3-.1.5-.2.8-.1.2-.1.3-.1.3V14v-1.8c.1-.2.1-.5.2-.6zm-8.1 9.5c.1 0 .2.1.2.4v.1c-.1.4-.1.6-.2.6l-.1-.1c-.1-.1-.1-.3-.1-.4 0-.2.1-.4.2-.6zm5.2 4.9c.1-.1.3-.1.5-.1h.9c.1 0 .1 0 .2.1 0 .1 0 .1-.1.1-.2 0-.3.1-.3.1-.1 0-.2 0-.4-.1h-.8s-.1 0 0-.1zm-15.8-13.5c1 0 2 0 3 .1 1.6.1 2.5.2 2.5.2.1.1.1.7.1 1.7v11.4h-.2c-3.7 0-5.5-.1-5.6-.2-.1-.1-.1-.4-.1-1v-.5c.1-1 .1-3.1.2-6.2 0-3.1.1-5 .1-5.5zm7.3 1.1c0 .1 0 .1 0 0 0 0-.1 0-.1-.1s-.1-.2-.1-.3c0-.5 0-.7.1-.7l.1.1c.1.1.1.3.1.5-.1.1-.1.3-.1.5zm-1.2 5.4c0 .1 0 .2-.1.2s-.1-.6-.1-1.8v-.2c.1-1.5.1-2.3.3-2.3v.2c0 1.2 0 2.5-.1 3.9zm-3.2-8.4c0-.1.4-.1 1.2-.1.9 0 1.4.1 1.4.2s-.4.1-1.1.1h-.3c-.2 0-.6-.1-1.2-.1v-.1zm3.6 13.5c0 .7 0 1.2-.1 1.5 0 .1-.1.1-.1.1s-.1-.1-.1-.2v-.2-.7-.4-.5-.3h.1c.1-.1.2.2.2.7zm-2.6 2.7c0 .1-.3.2-.9.3-.6.1-1.1.2-1.4.2-.1 0-.2 0-.2-.1 0 0 .2-.1.5-.2s.5-.1.6-.1h1.2c.1-.2.1-.1.2-.1zm-4.3-13.9v.8c0 .4 0 .9-.1 1.2v.6-.2c0-.1-.1-.3-.1-.5v-.6c0-.7 0-1.2.1-1.5.1-.2.1-.3.1-.3s.1.1.1.3v.2zm-1.2-2.6s-.1 0-.1.1c-.1 0-.2.1-.2.1l-.1.1c0 .1-.1.2-.1.3l-.1.6c-.1 1.4-.2 6.1-.4 14.1V27.3c0 .3 0 .5.1.5.1.1.2.1.4.1H200.1v1c0 1.2 0 1.9.1 1.9 0 .1.5.2 1.4.2h.9c.6 0 1.3 0 2.2-.1.9-.1 1.4-.1 1.4-.1.1 0 .1-.1.1-.4v-.3V29.2c0-.1 0-.2-.1-.2s-.1-.1-.3-.1h-.2c-.6.1-1.1.1-1.6.2s-.9.1-1.1.2c-.3 0-.4.1-.5.1-.2 0-.3 0-.4-.1 0 0 0-.5-.1-1.3h4.8s.1 0 .1-.1c0 0 0-.1.1-.1v-.5c0-.1.1-1.7.1-4.7v-1.7-1.4-.6-7.8-.2-.2c0-.1-.1-.2-.5-.2-.5 0-.7 0-.7-.1H199c-.4-.2-.9-.2-1.3-.1zm.1 1.9c0 .4-.1.7-.2.7 0 0-.1-.1-.1-.3 0-.2 0-.4.1-.6 0-.2.1-.4.1-.4s.1.1.1.3v.3zm.9 11.3c0 .1 0 .1 0 0 0 .2 0 .3-.1.4-.1.1-.1.1-.2.1 0 0-.1-.1 0-.3 0-.3 0-.8.1-1.3.1-.6.1-.8.2-.8V23.5zm5.1 6.1H205.4c.1 0 .1 0 .1.1s0 .1-.1.1c-.5.1-1 .1-1.5.1h-.2c-.4-.1-.6-.1-.6-.2v-.1h.7zm-2.7-1.2v1.2c-.1 0-.1-.4-.1-1.2 0-.2 0-.4.1-.4-.1.1-.1.2 0 .4z"/>
    <path class="st1" d="M288.9 25.4c.1-.1.1-.2.1-.2 0 .1.1.1.1.1l-.1.3c-.1.3-.2.4-.2.4v-.1-.2l.1-.3zm1.5-3.4c.1-.5.3-1.2.5-2.1 0 0 0-.1.1-.1 0-.1 0-.1.1-.2v-.1.1s0 .2-.1.6c-.1.5-.1.8-.1.9 0 .1-.1.2-.2.5l-.2.5c-.1.1-.1 0-.1-.1zm6.4 5.4c0-.1 0-.1.1-.2l.1-.1h.5c.3 0 .5 0 .8.1h0-.6-.5c-.2.2-.2.2-.4.2zm0-6.7c-.2-.5-.3-1-.3-1.5v-.1s.1.3.3.8c0 .3.1.6 0 .8.1 0 0 .1 0 0zm-6.1-1.7c.2-1.2.5-2.4.9-3.8v-.1.7c0 .1-.1.5-.3 1.3 0 .1-.1.3-.1.4 0 .2-.1.3-.1.5 0 .1-.1.3-.1.4l-.3.6zm2.1-8.2c0-.1.2-.1.6-.1H294.2v.1c0 .1 0 .1-.1.1h-.1-1c-.1 0-.2-.1-.2-.1zm-2.4 13.9c0-.1.1-.4.2-.8l.2-.7c0-.1.1-.3.2-.5.1 0 .1.1.1.3 0 .1-.1.4-.3.9-.2.6-.3.8-.4.8zm4.7-3.1h.2v.2c-.3 0-.5.1-.8.1h-.5-.1c.1-.2.4-.2 1.2-.3zm-3.4.5h.9l2.9.1.5 2.9c.1 1 .3 1.7.4 2.1.1.3.2.5.2.5.1 0 .3.1.7.1h.2c.8 0 1.1 0 1.2-.1v-.1c0-.1-.1-.5-.3-1.3-.2-.8-.4-1.9-.7-3.4-.3-1.4-.6-2.8-.8-4-.5-2.6-.8-4.3-.9-5.3-.1-.4-.1-.8-.2-1.4-.2-1.5-.4-2.2-.5-2.2h-.2-2.9s-.2 1-.7 2.9c-.5 2-1 4-1.5 6.1-.5 2.1-.9 3.6-1.1 4.7-.2 1-.4 1.8-.6 2.2-.1.2-.1.5-.2.7-.1.2-.1.4-.1.5v.2c0 .1.1.1.2.1h.1c.7 0 1.3-.1 1.8-.2.1 0 .2 0 .2-.1l.1-.1v-.2c0-.1 0-.2.1-.3l1.2-4.4zm3.9-3.9c-.3-.9-.5-1.6-.5-2v-.1-.1s.2.5.5 1.5c.1.2.1.4 0 .7zm-3.9 2l.7-3.2v-.2c0-.1.1-.2.1-.4.1-.2.1-.4.2-.7l1-3.6h.4s.1.4.1 1.2c.1.8.2 1.7.3 2.6.1.9.2 1.4.2 1.5l.3 2.6c-.3 0-.9 0-1.7.1-.8.1-1.3.1-1.6.1zm-11.8 5.1c0 .6 0 .9-.1.9 0 0 0-.1-.1-.4 0-.3-.1-.5-.1-.6 0-.2.1-.3.1-.3.1 0 .2.2.2.4zm.8-14.7s-.1.1-.3.1c-.2 0-.3.1-.4.1-.1 0-.2 0-.5-.1-.3 0-.4-.1-.4-.1s.1-.1.4-.1c0-.1.1-.1.3-.1h.2c.4 0 .7.1.7.2zm-.6-.4h-.5H279.3c-.2 0-.3.1-.3.4 0 3.6.1 6.7.2 9.5l.2 4.5c.1 1.6.1 2.5.2 2.6 0 .1.2.2.4.2s.9 0 1.9.1H287.6c.1 0 .1-.3.1-1v-.6-.3c0-.1-.2-.1-.4-.2-.3-.1-.5-.1-.9-.1-.3 0-1.1 0-2.5-.1s-2.1-.1-2.1-.2v-.1c0-.1 0-.2-.1-.4 0-.1 0-.3-.1-.4-.1-.7-.2-2.2-.3-4.7-.1-2.5-.2-4.4-.2-5.8 0-.6 0-1 .1-1 .1-.1 1.5-.2 4.3-.2h.7c.4 0 .6 0 .7-.1.1-.1.1-.3.1-.7l.1-.6v-.6c0-.1 0-.2-.1-.3-.1-.1-1.4-.1-4-.1-1.4.2-2.4.2-2.9.2zm3.2 1.9s-.1 0 0 0c-.1-.1.2-.2.8-.2.6 0 .9.1.9.1h-.1c-.4.1-.7.1-.8.1-.1.1-.4 0-.8 0zm-2.4 7.4c.1.7.1 1.1.1 1.3 0 .3 0 .6-.1 1v.1s0-.1-.1-.2c0-.1 0-.3-.1-.5v-.5-.3-.3s0-.1.1-.3c0 0 0-.1.1-.3 0 0 0-.1 0 0zm6.2 6.3l-.1.1H285.2s0-.1.1-.1c.2-.1.4-.1.6-.1.1 0 .3 0 .6.1.2-.1.4 0 .6 0zm-11.7-3c0 1.5 0 2.3-.1 2.3 0 0 0-.3-.1-1v-1.3c0-.1 0-.2.1-.2s.1 0 .1.2zm-.1-12.5c-.2 0-.3 0-.4.1 0 .1-.1.3-.1.6 0 2.2-.1 6.6-.1 13.2V27.4c0 .1.1.2.3.2H276.3l.5-.1c.1 0 .2-.1.2-.2v-.2l-.1-2.9V10.7c0-.2 0-.4-.1-.4-.1-.1-.3-.1-.6-.1h-.9zm0 .3c.1-.1.2-.2.4-.2.1 0 .2 0 .4.1s.3.1.4.1c0 .1-.1.2-.1.2-.6.1-.9.1-.9.1-.2 0-.2 0-.2-.1v-.2zm1.1 2.3c0-.1 0-.2.1-.2s.2.8.2 2.3c0 .7 0 1.1-.1 1.1 0 0-.1 0-.1-.1-.1-1-.1-1.7-.1-2-.1-.3 0-.7 0-1.1zm-.8 8.4c0-.1 0-.1 0 0 .2 0 .3.2.3.5 0 .1 0 .2-.1.3-.1.3-.2.3-.2.2-.1-.3-.1-.5-.1-.6-.1-.2 0-.3.1-.4zm-4.2 7.3c-.1.2-.2.3-.4.3h-.1c-.1 0-.1 0-.1-.1s.1-.1.1-.1h.1c.3 0 .4-.1.4-.1zm-4.2-8.3c.1 0 .1.1.1.4 0 .1 0 .2-.1.4l-.1.1c0-.1-.1-.3-.1-.4.1-.1.1-.3.2-.5zm.1-.3c-.4 0-.7.1-.7.2v1.6c0 .2.1.2.3.2h.5c.4 0 1-.1 1.7-.2.8-.1 1.2-.1 1.4-.1h.1v3c0 .4 0 .6-.1.6-.4 0-1.2.1-2.3.3-.3.1-1.2.1-2.9.2-.5 0-1.1.1-1.6.1h-.1c-.3 0-.4-.1-.4-.4v-.1-.1c.1-.1.1-1.2.1-3.2v-.9c0-1.8 0-3 .1-3.6v-.7c0-.6 0-1.1.1-1.5 0-.2.1-.5.1-.8v-.8-.3h.9c2.2 0 4 .1 5.2.2.4 0 .6.1.7.1.1 0 .2.1.2.2V15.4c0 .1 0 .1.1.1s.2.1.3.1h1.1c.3 0 .5-.1.6-.1.1-.1.1-.3.1-.6V11.5c0-.2 0-.3-.1-.4 0 0-.1-.1-.3-.1H270.8c-1.5 0-3.3 0-5.3-.1h-1.8c-.9 0-1.4 0-1.5.1l-.3.1-.2 2c0 .2 0 .6-.1 1.1 0 .5-.1 1-.1 1.4v1.1c0 .5-.1 1.3-.1 2.3 0 .4-.1 1.7-.2 3.9l-.2 4v.3c0 .4 0 .6.1.6.1.1.7.2 1.9.2h3.5c.2 0 .9 0 1.8-.1 1-.1 1.6-.1 1.9-.1h.2c.1.1.1.3.1.8v.2c0 .2 0 .3.1.3h.1c1.1-.1 1.7-.2 1.8-.4.1-.1.1-2.5.2-7.2v-.6c0-.7 0-1.1-.1-1.2h-.3c-.4 0-1.2.1-2.4.2-1.3 0-2.2.1-2.6.1zm-4.8 4v1.4s-.1-.3-.1-.8-.1-1-.1-1.5v-.2c0-.4.1-.6.1-.6l.1.1c.1.2.1.6.1 1.3v.3zm9.7.6c0 .3 0 .4-.1.4s-.1-.1-.1-.4c0-.3 0-.4.1-.4s.1.1.1.4zm0-2.3v.6s0-.1-.1-.2-.1-.3-.1-.5c0-.4 0-.6.1-.6.1.1.1.3.1.7zm-9.7-6.4c-.1.8-.1 1.1-.2 1.1 0 0-.1-.1-.1-.4v-.5c0-.6.1-1 .2-1.1v.2c.1.2.1.5.1.7zm9.8-2.2c0 .7 0 1.1-.1 1.1s-.1-.4-.1-1.1c0-.1 0-.1.1-.1s.1 0 .1.1zm-.7-1.2c0 .1-.2.2-.5.2h-.4c-.1 0-.1 0-.2-.1v-.1h.9c.1-.1.2-.1.2 0zm-3.6.6c-.1.1-.5.1-1.4.1-.9 0-1.3 0-1.3-.1 0 0 .3-.1.8-.1s1-.1 1.4-.1h.4c.1.1.2.1.1.2zm-17.7 11c0 .1-.1.2-.1.2-.1 0-.1-.2-.1-.5s0-.7.1-1c0-.2.1-.3.1-.3s.1.2.1.6v.2c.1.4 0 .6-.1.8zm4.3-1.5c-.1 0-.4-.3-.9-.9-.5-.6-.8-1-.9-1.1 0 0-.1-.1-.1-.2s0-.1.1-.2c0 0 .1 0 .1.1s.1.1.2.2.1.2.2.3c.1.1.3.4.7 1 .5.4.6.7.6.8zm3.7-6.7v.3c0 .4 0 .5-.1.5s-.2-.1-.2-.4c0-.1 0-.5.1-1s.1-.8.2-.8v1.4zm-4.5-3.4l3.2.1c.1.1.1.3.1.6V17.5c0 .1-.2.1-.6.1-.3 0-.7 0-1.2-.1-.5 0-.8-.1-.8-.1l-3.6-.1.1-4.7c.1 0 1-.1 2.8-.1zm-4.1.3c0 1.4 0 2-.1 2v-.3-.9-.9c0-.1 0-.2.1-.2v.3zm2.5-1.1c-.2 0-.4.1-.5.1-.2 0-.2-.1-.2-.1 0-.1 0-.2.1-.2h.3c.2 0 .3 0 .4-.1.1 0 .1.1.1.1 0 .1-.1.1-.2.2zm-3.1-1.1c-.1.2-.2 3.4-.4 9.4-.1 2.4-.1 4.1-.2 4.9 0 .1 0 .5-.1 1 0 .5-.1.9-.1 1.1 0 .3 0 .4.1.5 0 .1.1.1.1.1.1.1.5.1 1.3.1h.6c.1 0 .2-.1.2-.2V27.2c0-.3 0-1.1.1-2.3v-2.3-2.5c0-.6.1-1.1.1-1.3.1 0 .4.4 1.1 1.2 3.6 4.7 5.6 7 5.8 7l2.2-1c0-.1 0-.1-.1-.3l-1.9-2-.8-.8-1.1-1.1c-.3-.3-.7-.7-1-1.1-.4-.4-.6-.8-.8-1.1-.2-.3-.3-.5-.3-.7 0-.1.5-.1 1.5-.1 2.4 0 3.6-.1 3.6-.3 0 0 0-.3.1-.7 0-.4.1-.9.1-1.5v-1.7c0-.9 0-1.8-.1-2.7-.1-.9-.1-1.4-.1-1.6 0-.3-1.1-.4-3.2-.4h-4.9c-1.2.4-1.8.5-1.8.7zm5.5 7.2c.1 0 .2.1.2.1v.1c-.1 0-.1.1-.3.1h-1.1s0-.1.1-.1.2-.1.4-.1h.5c0-.1.2-.1.2-.1zm2.9 8.4s-.1 0 0 0c0-.1.1-.1.4-.1H258.5c.2.1.3.1.3.1-.3 0-.6.1-.7.1-.1 0-.3 0-.6-.1zm-.3-15c.3 0 .6 0 .7.1.2.1.3.1.3.2.1.1.1.2.2.4 0 .1.1.1.1.2v.1s-.1-.1-.1-.2c-.1-.1-.2-.3-.3-.4-.1-.1-.3-.2-.5-.3l-.4-.1c-.1 0 0 0 0 0z"/>
  </g>
</svg>