<svg xmlns="http://www.w3.org/2000/svg" width="350.7" height="53.1" viewBox="0 0 350.7 53.1">
  <style>
    .st0{fill:#fff}.st1{fill:#fff}
  </style>
  <path class="st0" d="M226 20.8v-.3-.3c0-.3.1-.5.2-.6.1-.1.4-.2.8-.2h1.2c.4 0 .7.2.8.5V21c0 .2.1.4 0 .6v1c0 .2 0 .4-.1.6 0 .2-.1.4-.1.5 0 .2-.1.3-.2.5s-.3.3-.4.5c-.2.1-.3.2-.5.3-.2.1-.3.1-.4.1-.1 0-.2 0-.2-.1v-.2c.1-.2.1-.4.1-.6 0-.2.1-.5.1-.7h-.6c-.3 0-.5-.1-.6-.2-.1-.1-.2-.3-.2-.6v-.4c0-.3-.1-.5-.1-.8.1-.2.1-.5.2-.7m-143.3 0v-.3-.3c0-.3.1-.5.2-.6.1-.1.4-.2.8-.2h1.2c.4 0 .7.2.8.5V21c0 .2.1.4 0 .6v1c0 .2 0 .4-.1.6 0 .2-.1.4-.1.5 0 .2-.1.3-.2.5s-.3.3-.4.5c-.2.1-.3.2-.5.3-.2.1-.3.1-.4.1-.1 0-.2 0-.2-.1v-.2c.1-.2.1-.4.1-.6 0-.2.1-.5.1-.7h-.7c-.3 0-.5-.1-.6-.2-.1-.1-.2-.3-.2-.6v-.4c0-.3-.1-.5-.1-.8.2-.2.3-.5.3-.7zm-10-6.6v-1.3-1.7-1.6-.8c0-.1 0-.4.1-.8V6.6 5.2v-.8-.5-.5-.2V3c.1-.1.1-.1.3-.2h.4c.2 0 .4 0 .6.1.2 0 .4.1.7.1.2 0 .4.1.6.2.1 0 .3.1.6.2s.7.3 1.2.6.9.6 1.2 1c.3.3.6.7.8 1 .3.4.6.8.8 1.1.2.3.4.8.5 1.3.1.2.1.5.2.9s.1.8.2 1.2c0 .4.1.8.1 1.1 0 .3.1.6.1.7v1.4c-.1.5-.1.9-.2 1.4 0 .2-.1.5-.2.7-.1.2-.1.5-.2.7-.1.3-.2.6-.4 1s-.4.7-.6 1.1c-.2.3-.4.5-.5.7-.1.2-.3.3-.4.5l-.4.4-.5.5c-.4.3-.9.5-1.4.8-.5.3-1.1.5-1.6.6-.5 0-.9.1-1.2.1-.3 0-.5 0-.5-.1-.1-.1-.1-.2-.2-.4 0-.2-.1-.4-.1-.5v-.5-.3-1.6V17v-1.5-1.3zM61.5 9.5v-1-1.4-1.4c0-.4 0-.7.1-.9v-.5-.9-1-.7-.2-.2c.1-.3.2-.4.4-.4h1.6c.4 0 .8 0 1.3.1h4.9c.4 0 .5.2.6.5 0 .4.1.7.1 1v2.2c0 .5.1 1 .1 1.5V12c0 .6-.1 1.1-.1 1.7v1.4c0 .5 0 .9-.1 1.3 0 .4-.1.9-.2 1.3s-.2.8-.2 1.2c-.1.4-.2.8-.2 1.2-.2.7-.5 1.4-1 2.1-.3.3-.6.6-1 .8-.4.2-.8.3-1.2.4-.4 0-.9 0-1.4-.1-.5-.1-.9-.3-1.3-.6-.4-.2-.6-.5-.9-.9-.4-.5-.7-1.1-.9-1.7-.2-.6-.3-1.2-.4-1.8 0-.4-.1-.7-.1-1.1v-1.1c0-.4-.1-.9-.1-1.6v-2.1-2-.9zm-2.1 9.2c.2 0 .4.1.5.1.1.1.1.2.1.3v2c0 .1 0 .2-.1.3-.1.2-.4.4-.8.4h-5.5c-.2 0-.3 0-.5-.1H52.2c-.2-.1-.4-.2-.4-.4 0-.4.1-.8.1-1.2 0-.4 0-.8.1-1.2v-1.3c0-.4 0-.8.1-1.2V16c0-.4-.1-.8 0-1.2v-1.2c0-.3 0-.6.1-.9v-.9-1.7c0-.6 0-1.2-.1-1.7 0-.5-.1-1.1 0-1.6 0-.5 0-1.1.1-1.6v-.9-.9V3c0-.2.1-.3.4-.3.8-.2 1.7-.1 2.5 0 .2 0 .3.1.3.3.1.6.1 1.1.1 1.7v1.7c0 .5 0 1 .1 1.5 0 .3.1.7.1 1 0 .4 0 .7.1 1 0 .3.1.6.1.9v1c0 .2-.1.4 0 .7V13.8c0 .2 0 .4-.1.7-.1.2-.1.3 0 .5V18.7h2.8c0-.1.4-.1.8 0zM49.6 8.5c0 .5.1 1.1.1 1.6v1.6c0 .9 0 1.8-.1 2.7 0 .9-.1 1.8-.1 2.7v1c0 .6-.1 1.1-.1 1.5 0 .4 0 .9-.1 1.5v.5c0 .1-.1.2-.1.3-.2 0-.3.1-.4.1h-.9c-.3 0-.6-.1-.9-.2-.3-.1-.5-.2-.7-.4-.2-.2-.3-.4-.2-.6v-.4-.4h-.8c-.3 0-.5 0-.6-.1-.2 0-.5 0-.8-.1-.3 0-.6-.1-.8-.1-.3 0-.5-.1-.7-.1-.2 0-.3-.1-.3-.1-.6-.2-1.1-.5-1.5-.9-.4-.4-.7-.7-.9-1.1-.2-.4-.4-.8-.4-1.3-.1-.5 0-1 0-1.5.1-.5.2-.8.4-1.2.2-.3.4-.6.7-.9.2-.2.4-.3.7-.5.3-.2.5-.3.7-.4.5-.2.9-.4 1.3-.4.4-.1.9-.1 1.5-.2.5 0 .9-.1 1.2-.1h1v-.2-.2-1.5c-.1-.6-.2-1-.3-1.4-.1-.2-.1-.3-.1-.4 0-.1-.1-.3-.2-.6-.2-.2-.3-.4-.4-.5-.1-.1-.3-.2-.6-.2-.2 0-.3.1-.5.2-.1.1-.3.2-.4.4-.2 0-.3.1-.3.2-.1.1-.1.2-.1.3-.1.2-.2.5-.2.8-.1.3-.1.6-.1 1 0 .1 0 .3-.1.4 0 .1-.1.2-.2.3-.1.1-.3.1-.5.1h-.9c-.3 0-.6-.1-.7-.2-.2-.1-.3-.3-.4-.5-.1-.2-.1-.4-.1-.5V8v-.2-.2c.1-.7.2-1.2.4-1.7.2-.4.3-.8.4-1 .1-.2.3-.4.4-.5 0-.3.1-.4.2-.5.3-.3.6-.5.9-.8.3-.2.6-.4 1-.5.5-.1 1-.1 1.5-.1s1 .2 1.4.5c.1.1.2.1.3.2.1.1.2.1.3.2.3.2.6.4.8.7.2.3.4.6.5.9.2.5.4 1.1.5 1.7.2.6.3 1.2.3 1.8zm-14.5-.9c-.3-.1-.4-.3-.4-.5s0-.4.1-.5V6v-.6c0-.2 0-.3-.1-.4-.1-.1-.1-.3-.2-.4-.1-.1-.2-.2-.4-.3-.2-.2-.4-.2-.8-.2-.3 0-.6.2-.8.4-.1.1-.2.2-.2.4s-.1.4-.1.5v1.1c.1.7.4 1.4.8 1.9.2.3.4.6.6.8l.6.9c.3.4.5.7.7 1.1.3.4.5.7.6.9.2.2.3.5.6.7.6.8 1.1 1.6 1.4 2.5.4.9.6 1.8.6 2.8v1.4c-.1 1.1-.6 2.1-1.5 2.9l-.2.2-.2.2c-.3.2-.6.4-.9.5-.3.1-.7.2-1 .2h-1.1c-.4 0-.7-.1-1.1-.2-.3-.1-.5-.2-.7-.3-.2-.1-.4-.3-.7-.5l-.6-.6c-.2-.2-.4-.4-.5-.6 0-.1-.1-.2-.1-.2 0-.1-.1-.1-.1-.2-.2-.4-.3-.8-.4-1.2-.1-.4-.1-.8-.1-1.3v-.7c0-.3 0-.5.1-.7 0-.2.1-.4.1-.6 0-.2.1-.3.1-.3.1-.3.4-.4.7-.4h.3c.5.1 1.1.3 1.6.4.2.1.3.2.4.2 0 .1.1.2 0 .4 0 .3-.1.5-.1.8v.9c0 .4.1.7.1 1 0 .3.2.5.4.7.2.2.5.3.8.3.3.1.7 0 1-.2.2-.2.4-.4.5-.7.1-.3.2-.6.2-.8 0-.3 0-.7-.1-1-.1-.4-.2-.7-.4-1-.2-.3-.4-.7-.5-1l-.6-.9-.6-.9c-.2-.3-.3-.6-.5-.9-.1-.2-.3-.4-.4-.6-.1-.2-.3-.4-.4-.6-.3-.4-.5-.7-.7-1-.2-.3-.3-.6-.5-.9 0-.1-.1-.2-.1-.3 0-.1-.1-.2-.2-.2-.4-.5-.6-1.1-.8-1.7-.1-.6-.2-1.2-.3-1.9-.1-.8 0-1.5.2-2.2.1-.5.4-1 .9-1.3.6-.5 1.3-.8 2.1-.9.6-.1 1.3-.1 1.9 0 .6.1 1.2.3 1.8.6.3.2.6.5.8.7.3-.1.5.3.6.6.1.2.2.5.2.7 0 .2.1.5.1.8V6.7c0 .7-.4 1-1.1 1h-1.3c.1-.1 0-.1-.1-.1zM12.5 9.5v-1-1.4-1.4c0-.4 0-.7.1-.9v-.5-.9-1-.7-.2-.2c.1-.2.2-.3.4-.3h1.6c.4 0 .8 0 1.3.1h4.9c.4 0 .5.2.6.5 0 .4.1.7.1 1v2.2c0 .5.1 1 .1 1.5v5.8c0 .6-.1 1.1-.1 1.7v1.4c0 .5 0 .9-.1 1.3 0 .4-.1.9-.2 1.3s-.2.8-.2 1.2c-.1.4-.2.8-.2 1.2-.2.7-.5 1.4-1 2.1-.3.3-.6.6-1 .8-.4.2-.8.3-1.2.4-.4 0-.9 0-1.4-.1-.5-.1-.9-.3-1.3-.6-.4-.2-.6-.5-.9-.9-.4-.5-.7-1.1-.9-1.7-.2-.6-.3-1.2-.4-1.8 0-.4-.1-.7-.1-1.1v-1.1c0-.4-.1-.9-.1-1.6v-2.1-2-1zm-1.6-7.7c.1.6 0 1.2-.3 1.9 0 .1 0 .1-.1.2l-.1.1c-.2.2-.3.2-.4.3H7.3V6c0 .5 0 .9-.1 1.4v.4c0 .5.1 1 0 1.5v1.4c0 .3 0 .7-.1 1v3c0 .7 0 1.3.1 2 0 .6.1 1.2 0 1.9 0 .6 0 1.2-.1 1.9v2.8c0 .2-.1.3-.3.4-.8.2-1.7.1-2.5 0-.2 0-.3-.2-.3-.4-.1-.6-.1-1.3-.1-1.9v-2-.9c0-.3 0-.6-.1-.9 0-.4-.1-.8-.1-1.2 0-.4 0-.8-.1-1.2 0-.4-.1-.7-.1-1v-1.1c0-.3.1-.5 0-.8v-.8-.7c0-.2 0-.5.1-.8v-.3-.3-1.1-1.1-1.6V5v-.6H2.4c-.6 0-1.1 0-1.7-.1C.5 4 .2 4 .1 3.9c-.1 0-.1-.1-.1-.3v-.4-.6V2v-.4c0-.1 0-.2.1-.2.4-.2.7-.4 1.2-.4h7c.3 0 .6 0 .8.1.3 0 .6 0 .8.1.3.1.6.1.7.2.2.1.3.2.3.4z"/>
  <path class="st1" d="M175.7 8.5c0 .5.1 1.1.1 1.6v1.6c0 .9 0 1.8-.1 2.7 0 .9-.1 1.8-.1 2.7v1c0 .6-.1 1.1-.1 1.5 0 .4 0 .9-.1 1.5v.5c0 .1-.1.2-.1.3-.1.1-.2.1-.3.1h-.9c-.3 0-.6-.1-.9-.2-.3-.1-.5-.2-.7-.4-.2-.2-.3-.4-.2-.6v-.4-.4h-.8c-.3 0-.5 0-.6-.1-.2 0-.5 0-.8-.1-.3 0-.6-.1-.8-.1-.3 0-.5-.1-.7-.1-.2 0-.3-.1-.3-.1-.6-.2-1.1-.5-1.5-.9-.4-.4-.7-.7-.9-1.1-.2-.4-.4-.8-.4-1.3-.1-.5 0-1 0-1.5.1-.5.2-.8.4-1.2.2-.3.4-.6.7-.9.2-.2.4-.3.7-.5.3-.2.5-.3.7-.4.5-.2.9-.4 1.3-.4.4-.1.9-.1 1.5-.2.5 0 .9-.1 1.2-.1h1v-.2-.2-1.5c-.1-.6-.2-1-.3-1.4-.1-.2-.1-.3-.1-.4 0-.1-.1-.3-.2-.6-.2-.2-.3-.4-.4-.5-.1-.1-.3-.2-.6-.2-.2 0-.3.1-.5.2-.1.1-.3.2-.4.4-.1.1-.2.3-.2.4-.1.1-.1.2-.1.3-.1.2-.2.5-.2.8-.1.3-.1.6-.1 1 0 .1 0 .3-.1.4 0 .1-.1.2-.2.3-.1.1-.3.1-.5.1h-.9c-.3 0-.6-.1-.7-.2-.2-.1-.3-.3-.4-.5-.1-.2-.1-.4-.1-.5v-.5V8v-.2c.1-.7.2-1.2.4-1.7.2-.4.3-.8.4-1 .1-.2.3-.4.4-.5l.3-.3c.3-.3.6-.5.9-.8.3-.2.6-.4 1-.5.5-.1 1-.1 1.5-.1s1 .2 1.4.5c.1.1.2.1.3.2.1.1.2.1.3.2.3.2.6.4.8.7.2.3.4.6.5.9.2.5.4 1.1.5 1.7-.2.2-.1.8 0 1.4m-21 1v-1-1.4-1.4c0-.4 0-.7.1-.9v-.5-.9-1-.7-.2-.2c.1-.2.2-.3.4-.3h1.6c.4 0 .8 0 1.3.1h4.9c.4 0 .5.2.6.5 0 .4.1.7.1 1v2.2c0 .5.1 1 .1 1.5v5.8c0 .6-.1 1.1-.1 1.7v1.4c0 .5 0 .9-.1 1.3 0 .4-.1.9-.2 1.3s-.2.8-.2 1.2c-.1.4-.2.8-.2 1.2-.2.7-.5 1.4-1 2.1-.3.3-.6.6-1 .8-.4.2-.8.3-1.2.4-.4 0-.9 0-1.4-.1-.5-.1-.9-.3-1.3-.6-.4-.2-.6-.5-.9-.9-.4-.5-.7-1.1-.9-1.7-.2-.6-.3-1.2-.4-1.8 0-.4-.1-.7-.1-1.1v-1.1c0-.4-.1-.9-.1-1.6v-2.1-2-1zm-2.9 9c.2.4.3.7.5 1 .2.3.3.7.5 1 .2.3.2.5 0 .7-.1.2-.4.3-.7.4-.4.1-.8.1-1.2.1-.4 0-.8 0-1.2.1h-.1c-.3 0-.5-.2-.6-.4 0 0 0-.1-.1-.1 0 0 0-.1-.1-.1-.1-.3-.1-.5-.2-.8-.1-.2-.2-.5-.3-.7l-.3-.9c-.1-.3-.2-.6-.3-.8-.1-.1-.1-.3-.2-.4-.1-.1-.1-.3-.1-.4 0 .1-.1.3-.1.4-.1.1-.1.3-.2.4-.1.3-.3.6-.4.8-.1.3-.2.6-.3.8-.1.3-.2.5-.3.7-.1.2-.2.5-.3.7v.1s0 .1-.1.1c-.1.2-.3.4-.6.4h-.1c-.4 0-.8-.1-1.2-.1-.4 0-.8-.1-1.2-.1-.4 0-.6-.2-.7-.4-.1-.2-.1-.5 0-.7.2-.3.4-.7.6-1 .2-.3.3-.7.5-1 .2-.5.4-.9.5-1.4.1-.4.2-.8.4-1.1.1-.4.3-.7.5-1.1.1-.2.2-.4.2-.6.1-.2.2-.4.2-.6 0-.1.1-.3.2-.6.1-.2.2-.5.3-.9-.1-.2-.2-.5-.3-.8-.1-.3-.2-.6-.3-.8-.1-.3-.2-.7-.4-1-.1-.4-.3-.7-.4-1-.2-.4-.4-.8-.5-1.2-.2-.4-.3-.8-.5-1.2-.1-.3-.2-.5-.3-.8-.1-.2-.2-.5-.4-.9-.1-.2-.2-.4-.2-.5 0-.1-.1-.3-.2-.4 0-.1-.1-.2-.2-.4-.1-.1-.1-.3 0-.3.1-.1.2-.1.3-.2h2.9c.4 0 .7.2.9.5.1.2.2.4.2.6.1.2.2.4.2.6.1.3.2.6.3.8.1.3.2.6.3.8 0 .1.1.2.2.4l.3.6c.2-.5.3-.8.4-1.1.1-.3.2-.5.3-.8.1-.3.2-.5.3-.8.1-.2.2-.4.2-.6.1-.2.2-.4.2-.6.1-.4.4-.5.9-.5H152.4c.1 0 .2.1.3.2.1.1.1.2 0 .3-.1.1-.1.3-.2.4-.1.2-.1.3-.2.4 0 .1-.1.3-.2.5-.2.3-.3.6-.4.8-.1.2-.2.5-.3.7-.2.4-.3.9-.5 1.3s-.3.8-.5 1.2c-.2.3-.3.7-.4 1-.1.3-.2.7-.4 1-.1.2-.2.5-.3.8-.1.3-.2.6-.3.8l.3.9c.1.2.2.4.2.6.1.2.2.4.2.6l.3.6c.2.4.4.7.5 1.1.1.4.2.8.4 1.1.5.9.7 1.3.9 1.8zm-11.4.9v1.8c-.1.2-.2.3-.4.3-.3.1-.7.1-1 .2-.4 0-.7.1-1 0H132.7c-.2 0-.3-.1-.3-.3V21v-1.1V12.7v-.3-.2-.4V10.6v-.5-.9-.9c0-.4-.1-.7-.1-1.1 0-.4-.1-.7-.1-1.1V5v-.5V4v-.2-.2-.1c0-.2.1-.3.3-.4.2-.2.6-.3 1.4-.4h1.2c.5 0 1-.1 1.5-.1h2.4c.6 0 1 .1 1.1.2.2.1.3.3.4.6V4.8c0 .2 0 .4-.1.5 0 .2-.2.3-.4.4-.4.1-.7.1-1.1.2-.4 0-.7.1-1.1 0h-2.2v1.6c0 .3 0 .7.1 1 0 .4.1.7.1 1.1 0 .4 0 .7-.1 1.1v2.1h3.6c.4 0 .6.2.7.4v.3c0 .3-.1.7-.1 1 0 .3 0 .7-.1 1-.1.3-.3.5-.8.4-.5 0-1.1-.1-1.6-.1H135.7V18.6c.5 0 .9-.1 1.4-.1h2.2c.6 0 .9.1 1.1.2-.2.3-.1.5 0 .7zM127.6 7.6c-.3-.1-.4-.3-.4-.5s0-.4.1-.5V6v-.6c0-.2 0-.3-.1-.4-.1-.1-.1-.3-.2-.4-.1-.1-.2-.2-.4-.3-.2-.2-.4-.2-.8-.2-.3 0-.6.2-.8.4-.1.1-.2.2-.2.4s-.1.4-.1.5v1.1c.1.7.4 1.4.8 1.9.2.3.4.6.6.8l.6.9c.3.4.5.7.7 1.1.3.4.5.7.6.9.2.2.3.5.6.7.6.8 1.1 1.6 1.4 2.5.4.9.6 1.8.6 2.8v1.4c-.1 1.1-.6 2.1-1.5 2.9l-.2.2-.2.2c-.3.2-.6.4-.9.5-.3.1-.7.2-1 .2h-1.1c-.4 0-.7-.1-1.1-.2-.3-.1-.5-.2-.7-.3-.2-.1-.4-.3-.7-.5l-.6-.6c-.2-.2-.4-.4-.5-.6 0-.1-.1-.2-.1-.2 0-.1-.1-.1-.1-.2-.2-.4-.3-.8-.4-1.2-.1-.4-.1-.8-.1-1.3v-.7c0-.3 0-.5.1-.7 0-.2.1-.4.1-.6 0-.2.1-.3.1-.3.1-.3.4-.4.7-.4h.3c.5.1 1.1.3 1.6.4.2.1.3.2.4.2 0 .1.1.2 0 .4 0 .3-.1.5-.1.8v.9c0 .4.1.7.1 1 0 .3.2.5.4.7.2.2.5.3.8.3.3.1.7 0 1-.2.2-.2.4-.4.5-.7.1-.3.2-.6.2-.8 0-.3 0-.7-.1-1-.1-.4-.2-.7-.4-1-.2-.3-.4-.7-.5-1l-.6-.9-.6-.9c-.2-.3-.3-.6-.5-.9-.1-.2-.3-.4-.4-.6-.1-.2-.3-.4-.4-.6-.3-.4-.5-.7-.7-1-.2-.3-.3-.6-.5-.9 0-.1-.1-.2-.1-.3s-.1-.2-.2-.2c-.4-.5-.6-1.1-.8-1.7-.1-.6-.2-1.2-.3-1.9-.1-.8 0-1.5.2-2.2.1-.5.4-1 .9-1.3.6-.5 1.3-.8 2.1-.9.6-.1 1.3-.1 1.9 0 .6.1 1.2.3 1.8.6.3.2.6.5.8.7l.6.9c.1.2.2.5.2.7 0 .2.1.5.1.8V7c0 .7-.4 1-1.1 1h-1.3c.1-.4 0-.4-.1-.4zm-22.5 1.9v-1-1.4-1.4c0-.4 0-.7.1-.9v-.5-.9-1-.7-.2-.2c.1-.2.2-.3.4-.3h1.6c.4 0 .8 0 1.3.1h4.9c.4 0 .5.2.6.5 0 .4.1.7.1 1v2.2c0 .5.1 1 .1 1.5v5.8c0 .6-.1 1.1-.1 1.7v1.4c0 .5 0 .9-.1 1.3 0 .4-.1.9-.2 1.3s-.2.8-.2 1.2c-.1.4-.2.8-.2 1.2-.2.7-.5 1.4-1 2.1-.3.3-.6.6-1 .8-.4.2-.8.3-1.2.4-.4 0-.9 0-1.4-.1-.5-.1-.9-.3-1.3-.6-.4-.2-.6-.5-.9-.9-.4-.5-.7-1.1-.9-1.7-.2-.6-.3-1.2-.4-1.8 0-.4-.1-.7-.1-1.1v-1.1c0-.4-.1-.9-.1-1.6v-2.1-2-1zm-1.5-6.1v2c0 .1 0 .2-.1.3-.1.1-.3.1-.6.1-.6.1-1.1.1-1.7.1H100v2c0 .3-.1.6 0 .9v1.4c0 .3.1.5.1.7v3c0 .3 0 .5-.1.8 0 .3-.1.7-.1 1 0 .4 0 .7-.1 1 0 .3-.1.5-.1.7v2.3c0 .5-.1 1.1-.1 1.6 0 .2-.1.3-.3.4-.8.2-1.7.2-2.5 0-.2 0-.3-.1-.4-.3V21v-.9-.9c0-.5-.1-1.1-.1-1.6V16c0-.6.1-1.1.1-1.7v-1.7-.9c0-.3 0-.6-.1-.9V9.6 8.4 8c0-.4-.1-.7-.1-1.1V5.8h-2.7c-.1 0-.3-.1-.4-.3-.1-.1-.1-.1-.2-.3-.3-.6-.4-1.3-.3-1.9 0-.2.1-.3.2-.3.1-.1.3-.1.7-.2.3 0 .6-.1.8-.1h.8c.6 0 1.3-.1 1.9 0h5.1c.5 0 .9.1 1.1.3.3.2.4.3.4.4z"/>
  <path class="st1" d="M215.9 14.2v-1.3-1.7-1.6-.8c0-.1 0-.4.1-.8V6.6 5.2v-.8-.5-.5-.2V3c.1-.1.1-.1.3-.2h.4c.2 0 .4 0 .6.1.2 0 .4.1.7.1.2 0 .4.1.6.2.1 0 .3.1.6.2s.7.3 1.2.6.9.6 1.2 1c.3.3.6.7.8 1 .3.4.6.8.8 1.1.2.3.4.8.5 1.3.1.2.1.5.2.9s.1.8.2 1.2c0 .4.1.8.1 1.1 0 .3.1.6.1.7v1.4c-.1.5-.1.9-.2 1.4 0 .2-.1.5-.2.7-.1.2-.1.5-.2.7-.1.3-.2.6-.4 1s-.4.7-.6 1.1c-.2.3-.4.5-.5.7-.1.2-.3.3-.4.5l-.4.4-.5.5c-.4.3-.9.5-1.4.8-.5.3-1.1.5-1.6.6-.5 0-.9.1-1.2.1-.3 0-.5 0-.5-.1-.1-.1-.1-.2-.2-.4 0-.2-.1-.4-.1-.5v-.5-.3-1.6V17v-1.5-1.3m-2-5.7c0 .5.1 1.1.1 1.6v1.6c0 .9 0 1.8-.1 2.7 0 .9-.1 1.8-.1 2.7v1c0 .6-.1 1.1-.1 1.5 0 .4 0 .9-.1 1.5v.5c0 .1-.1.2-.1.3-.1.1-.2.1-.3.1h-.9c-.3 0-.6-.1-.9-.2-.3-.1-.5-.2-.7-.4-.2-.2-.3-.4-.2-.6v-.4-.4h-.8c-.3 0-.5 0-.6-.1-.2 0-.5 0-.8-.1-.3 0-.6-.1-.8-.1-.3 0-.5-.1-.7-.1-.2 0-.3-.1-.3-.1-.6-.2-1.1-.5-1.5-.9-.4-.4-.7-.7-.9-1.1-.2-.4-.4-.8-.4-1.3-.1-.5 0-1 0-1.5.1-.5.2-.8.4-1.2.2-.3.4-.6.7-.9.2-.2.4-.3.7-.5.3-.2.5-.3.7-.4.5-.2.9-.4 1.3-.4.4-.1.9-.1 1.5-.2.5 0 .9-.1 1.2-.1h1v-.2-.2-1.5c-.1-.6-.2-1-.3-1.4-.1-.2-.1-.3-.1-.4 0-.1-.1-.3-.2-.6-.2-.2-.3-.4-.4-.5-.1-.1-.3-.2-.6-.2-.2 0-.3.1-.5.2-.1.1-.3.2-.4.4-.1.1-.2.3-.2.4-.1.1-.1.2-.1.3-.1.2-.2.5-.2.8-.1.3-.1.6-.1 1 0 .1 0 .3-.1.4 0 .1-.1.2-.2.3-.1.1-.3.1-.5.1h-.9c-.3 0-.6-.1-.7-.2-.2-.1-.3-.3-.4-.5-.1-.2-.1-.4-.1-.5v-.5V8v-.2c.1-.7.2-1.2.4-1.7.2-.4.3-.8.4-1 .1-.2.3-.4.4-.5l.3-.3c.3-.3.6-.5.9-.8.3-.2.6-.4 1-.5.5-.1 1-.1 1.5-.1s1 .2 1.4.5c.1.1.2.1.3.2.1.1.2.1.3.2.3.2.6.4.8.7.2.3.4.6.5.9.2.5.4 1.1.5 1.7-.1.2-.1.8 0 1.4zm-19.8 5.7v-1.3-1.7-1.6-.8c0-.1 0-.4.1-.8V6.6 5.2v-.8-.5-.5-.2V3c.1-.1.1-.1.3-.2h.4c.2 0 .4 0 .6.1.2 0 .4.1.7.1.2 0 .4.1.6.2.1 0 .3.1.6.2s.7.3 1.2.6.9.6 1.2 1c.3.3.6.7.8 1 .3.4.6.8.8 1.1.2.3.4.8.5 1.3.1.2.1.5.2.9s.1.8.2 1.2c0 .4.1.8.1 1.1 0 .3.1.6.1.7v1.4c-.1.5-.1.9-.2 1.4 0 .2-.1.5-.2.7-.1.2-.1.5-.2.7-.1.3-.2.6-.4 1s-.4.7-.6 1.1c-.2.3-.4.5-.5.7-.1.2-.3.3-.4.5l-.4.4-.5.5c-.4.3-.9.5-1.4.8-.5.3-1.1.5-1.6.6-.5 0-.9.1-1.2.1-.3 0-.5 0-.5-.1-.1-.1-.1-.2-.2-.4 0-.2-.1-.4-.1-.5v-.5-.3-1.6V17v-1.5-1.3zM191 1c.3.2.5.4.6.8.1.4.2.8.1 1.2 0 .3-.1.6-.3.7-.1.2-.3.3-.6.5-.1.1-.3.1-.5.1s-.4.1-.5.1c-.4 0-.8-.1-1.1-.4-.4-.3-.6-.6-.6-1-.1-.7.1-1.3.6-1.7.6-.5 1.3-.7 2.1-.4.1 0 .2.1.2.1zm.5 20.8c0 .1 0 .2.1.4 0 .1 0 .2.1.4s0 .4 0 .6c-.1.2-.2.4-.4.4-.9.1-1.7.1-2.5 0-.2 0-.3-.2-.4-.4 0-.2-.1-.5-.1-.7v-.8c0-.7.1-1.3.1-2s0-1.3.1-2v-.9-.9-1.3-1.3-1.1-1.7-1.7-1.1-.6-.6-.3-.3c0-.2.1-.3.4-.4h1.3c.3 0 .6 0 .9.1.2 0 .4.1.4.2.1.1.1.2.1.4V20.8c-.2.2-.1.6-.1 1zm-6-3.1c.2 0 .4.1.5.1.1.1.1.2.1.3v2c0 .1 0 .2-.1.3-.1.2-.4.4-.8.4h-5.5c-.2 0-.3 0-.5-.1H178.3c-.2-.1-.4-.2-.4-.4 0-.4.1-.8.1-1.2 0-.4 0-.8.1-1.2v-1.3c0-.4 0-.8.1-1.2V16c0-.4-.1-.8 0-1.2v-1.2c0-.3 0-.6.1-.9v-.9-1.7c0-.6 0-1.2-.1-1.7 0-.5-.1-1.1 0-1.6 0-.5 0-1.1.1-1.6v-.9-.9V3c0-.2.1-.3.4-.3.8-.2 1.7-.1 2.5 0 .2 0 .3.1.3.3.1.6.1 1.1.1 1.7v1.7c0 .5 0 1 .1 1.5 0 .3.1.7.1 1 0 .4 0 .7.1 1 0 .3.1.6.1.9v1c0 .2-.1.4 0 .7V13.8c0 .2 0 .4-.1.7-.1.2-.1.3 0 .5V18.7h2.8c0-.1.3-.1.8 0z"/>
  <path class="st0" d="M315.3 1c.3.2.5.4.6.8.1.4.1.8.1 1.2 0 .3-.1.6-.2.7-.1.2-.3.3-.6.5-.1.1-.3.1-.5.1s-.4.1-.5.1c-.4 0-.8-.1-1.1-.4-.4-.3-.6-.6-.6-1-.1-.7.1-1.3.6-1.7.6-.5 1.3-.7 2.1-.4 0 0 0 .1.1.1m.4 20.8c0 .1 0 .2.1.4 0 .1 0 .2.1.4s0 .4 0 .6c-.1.2-.2.4-.4.4-.9.1-1.7.1-2.5 0-.2 0-.3-.2-.4-.4 0-.2-.1-.5-.1-.7v-.8c0-.7.1-1.3.1-2s0-1.3.1-2v-.9-.9-1.3-1.3-1.1-1.7-1.7-1.1-.6-.6-.3-.3c0-.2.1-.3.4-.4h1.3c.3 0 .6 0 .9.1.2 0 .4.1.4.2.1.1.1.2.1.4V20.8c-.1.2-.1.6-.1 1zm-8.6-14.2c-.3-.1-.4-.3-.4-.5s0-.4.1-.5V6v-.6c0-.2 0-.3-.1-.4-.1-.1-.1-.3-.2-.4-.1-.1-.2-.2-.4-.3-.2-.2-.4-.2-.8-.2-.3 0-.6.2-.8.4-.1.1-.2.2-.2.4s-.1.4-.1.5v1.1c.1.7.4 1.4.8 1.9.2.3.4.6.6.8l.6.9c.3.4.5.7.7 1.1.3.4.5.7.6.9.2.2.3.5.6.7.6.8 1.1 1.6 1.4 2.5.4.9.6 1.8.6 2.8v1.4c-.1 1.1-.6 2.1-1.5 2.9l-.2.2-.2.2c-.3.2-.6.4-.9.5-.3.1-.7.2-1 .2h-1.1c-.4 0-.7-.1-1.1-.2-.3-.1-.5-.2-.7-.3-.2-.1-.4-.3-.7-.5l-.6-.6c-.2-.2-.4-.4-.5-.6 0-.1-.1-.2-.1-.2 0-.1-.1-.1-.1-.2-.2-.4-.3-.8-.4-1.2-.1-.4-.1-.8-.1-1.3v-.7c0-.3 0-.5.1-.7 0-.2.1-.4.1-.6 0-.2.1-.3.1-.3.1-.3.4-.4.7-.4h.3c.5.1 1.1.3 1.6.4.2.1.3.2.4.2 0 .1.1.2 0 .4 0 .3-.1.5-.1.8v.9c0 .4.1.7.1 1 0 .3.2.5.4.7.2.2.5.3.8.3.3.1.7 0 1-.2.2-.2.4-.4.5-.7.1-.3.2-.6.2-.8 0-.3 0-.7-.1-1-.1-.4-.2-.7-.4-1-.2-.3-.4-.7-.5-1l-.6-.9-.6-.9c-.2-.3-.3-.6-.5-.9-.1-.2-.3-.4-.4-.6-.1-.2-.3-.4-.4-.6-.3-.4-.5-.7-.7-1-.2-.3-.3-.6-.5-.9 0-.1-.1-.2-.1-.3s-.1-.2-.2-.2c-.4-.5-.6-1.1-.8-1.7-.1-.6-.2-1.2-.3-1.9-.1-.8 0-1.5.2-2.2.1-.5.4-1 .9-1.3.6-.5 1.3-.8 2.1-.9.6-.1 1.3-.1 1.9 0 .6.1 1.2.3 1.8.6.3.2.6.5.8.7l.6.9c.1.2.2.5.2.7 0 .2.1.5.1.8V7c0 .7-.4 1-1.1 1h-1.3c0-.4-.1-.4-.1-.4zm-9-6.6c.3.2.5.4.6.8.1.4.2.8.1 1.2 0 .3-.1.6-.3.7-.1.2-.3.3-.6.5-.1.1-.3.1-.5.1s-.4.1-.5.1c-.4 0-.8-.1-1.1-.4-.4-.3-.6-.6-.6-1-.1-.7.1-1.3.6-1.7.6-.5 1.3-.7 2.1-.4.1 0 .1.1.2.1zm.4 20.8c0 .1 0 .2.1.4 0 .1 0 .2.1.4s0 .4 0 .6c-.1.2-.2.4-.4.4-.9.1-1.7.1-2.5 0-.2 0-.3-.2-.4-.4 0-.2-.1-.5-.1-.7v-.8c0-.7.1-1.3.1-2s0-1.3.1-2v-.9-.9-1.3-1.3-1.1-1.7-1.7-1.1-.6-.6-.3-.3c0-.2.1-.3.4-.4h1.3c.3 0 .6 0 .9.1.2 0 .4.1.4.2.1.1.1.2.1.4V20.8c-.1.2-.1.6-.1 1zm-6.1-20.4c.1.2.2.4.3.7.1.3.2.7.1 1.2-.1.1-.1.2-.1.3 0 .1-.1.1-.2.2s-.2.1-.3.2c-.1.1-.3.2-.5.3-.2.1-.3.1-.3.2-.1 0-.1.1-.2.2 0 0-.1.1-.2.1s-.2.1-.2.2c-.6.4-1.1.9-1.5 1.5-.4.6-.8 1.4-1.2 2.3-.1 0-.1.2-.2.4s-.1.4-.2.5c-.4 1.4-.5 2.6-.3 3.8v.6c0 .2.1.4.2.7l.3.9c.1.3.2.6.3.8.1.2.2.4.2.5.3.6.6 1.1.9 1.5.3.4.7.8 1.3 1.1.4.2.7.4.9.5.2.1.4.2.6.2h.1c.2.1.3.2.4.2 0 .1.1.2.1.4 0 .3 0 .6-.1.9 0 .3-.1.6-.3.9-.2.6-.6.9-1.2.9h-.4c-1-.2-2.1-.9-3.3-2.1-1-1-1.8-2-2.2-3.1-.4-1-.7-2-.8-2.8-.1-.5-.2-.9-.2-1.3s0-.7-.1-1v-.2-.9c0-.3 0-.6.1-.9V11v-.3c0-.6.1-1.3.3-2.1.1-.5.2-.9.4-1.3.1-.4.3-.7.4-1.1.7-1.4 1.4-2.5 2.2-3.1l.4-.4c.3-.2.5-.4.7-.6.2-.2.4-.3.6-.5l.6-.3c.2-.1.5-.2.8-.3.5-.2.8-.2 1.1-.1.2.1.4.2.4.4.2 0 .2 0 .3.1-.1 0 0 0 0 0zm-9.4 18v1.8c-.1.2-.2.3-.4.3-.3.1-.7.1-1 .2-.4 0-.7.1-1 0H275.3c-.2 0-.3-.1-.3-.3V21v-1.1V12.7v-.3-.2-.4V10.6v-.5-.9-.9c0-.4-.1-.7-.1-1.1 0-.4-.1-.7-.1-1.1V5v-.5V4v-.2-.2-.1c0-.2.1-.3.3-.4.2-.2.6-.3 1.4-.4h1.2c.5 0 1-.1 1.5-.1h2.4c.6 0 1 .1 1.1.2.2.1.3.3.4.6V4.8c0 .2 0 .4-.1.5 0 .2-.2.3-.4.4-.4.1-.7.1-1.1.2-.4 0-.7.1-1.1 0h-2.2v1.6c0 .3 0 .7.1 1 0 .4.1.7.1 1.1 0 .4 0 .7-.1 1.1v2.1h3.6c.4 0 .6.2.7.4v.3c0 .3-.1.7-.1 1 0 .3 0 .7-.1 1-.1.3-.3.5-.8.4-.5 0-1.1-.1-1.6-.1H278.3V18.6c.5 0 .9-.1 1.4-.1h2.2c.6 0 .9.1 1.1.2-.2.3-.1.5 0 .7zm-18.1-5.2v-1.3-1.7-1.6-.8c0-.1 0-.4.1-.8V6.6 5.2v-.8-.5-.5-.2V3c.1-.1.1-.1.3-.2h.4c.2 0 .4 0 .6.1.2 0 .4.1.7.1.2 0 .4.1.6.2.1 0 .3.1.6.2s.7.3 1.2.6.9.6 1.2 1c.3.3.6.7.8 1 .3.4.6.8.8 1.1.2.3.4.8.5 1.3.1.2.1.5.2.9s.1.8.2 1.2c0 .4.1.8.1 1.1 0 .3.1.6.1.7v1.4c-.1.5-.1.9-.2 1.4 0 .2-.1.5-.2.7-.1.2-.1.5-.2.7-.1.3-.2.6-.4 1s-.4.7-.6 1.1c-.2.3-.4.5-.5.7-.1.2-.3.3-.4.5l-.4.4-.5.5c-.4.3-.9.5-1.4.8-.5.3-1.1.5-1.6.6-.5 0-.9.1-1.2.1-.3 0-.5 0-.5-.1-.1-.1-.1-.2-.2-.4 0-.2-.1-.4-.1-.5v-.5-.3-1.6V17v-1.5-1.3zm-16.6-4.7v-1-1.4-1.4c0-.4 0-.7.1-.9v-.5-.9-1-.7-.2-.2c.1-.2.2-.3.4-.3h1.6c.4 0 .8 0 1.3.1h4.9c.4 0 .5.2.6.5 0 .4.1.7.1 1v2.2c0 .5.1 1 .1 1.5v5.8c0 .6-.1 1.1-.1 1.7v1.4c0 .5 0 .9-.1 1.3 0 .4-.1.9-.2 1.3s-.2.8-.2 1.2c-.1.4-.2.8-.2 1.2-.2.7-.5 1.4-1 2.1-.3.3-.6.6-1 .8-.4.2-.8.3-1.2.4-.4 0-.9 0-1.4-.1-.5-.1-.9-.3-1.3-.6-.4-.2-.6-.5-.9-.9-.4-.5-.7-1.1-.9-1.7-.2-.6-.3-1.2-.4-1.8 0-.4-.1-.7-.1-1.1v-1.1c0-.4-.1-.9-.1-1.6v-2.1-2-1zm-1.5-6.1v2c0 .1 0 .2-.1.3-.1.1-.3.1-.6.1-.6.1-1.1.1-1.7.1h-1.2v2c0 .3-.1.6 0 .9v1.4c0 .3.1.5.1.7v3c0 .3 0 .5-.1.8 0 .3-.1.7-.1 1 0 .4 0 .7-.1 1 0 .3-.1.5-.1.7v2.3c0 .5-.1 1.1-.1 1.6 0 .2-.1.3-.3.4-.8.2-1.7.2-2.5 0-.2 0-.3-.1-.4-.3V21v-.9-.9c0-.5-.1-1.1-.1-1.6V16c0-.6.1-1.1.1-1.7v-1.7-.9c0-.3 0-.6-.1-.9V9.6 8.4 8c0-.4-.1-.7-.1-1.1V5.8h-2.7c-.1 0-.3-.1-.4-.3-.1-.1-.1-.1-.2-.3-.3-.6-.4-1.3-.3-1.9 0-.2.1-.3.2-.3.1-.1.3-.1.7-.2.3 0 .6-.1.8-.1h.8c.6 0 1.3-.1 1.9 0h5.1c.5 0 .9.1 1.1.3.4.2.4.3.4.4z"/>
  <path class="st0" d="M349.9 20c.3.2.5.4.6.8.1.4.2.8.1 1.2 0 .3-.1.6-.2.7-.1.2-.3.3-.6.5-.1.1-.3.1-.5.1s-.4.1-.5.1c-.4 0-.8-.1-1.1-.4-.4-.3-.6-.6-.6-1-.1-.7.1-1.3.6-1.7.6-.5 1.3-.7 2.1-.4l.1.1m-11.6-9.2c-.1-.1-.1 0-.1.2V13.4c0 .4.1.8 0 1.1v7.3c0 .2 0 .4-.1.6 0 .2-.1.4-.1.5-.1.2-.2.3-.5.4h-1.2c-.3 0-.7-.1-1.1-.2-.1 0-.1-.1-.2-.1s-.1 0-.2-.1c-.2-.1-.2-.2-.2-.4v-.4-.8-.8-.4-1c0-.5 0-1.1.1-1.8v-2.1-1.9c0-.2 0-.6-.1-1.2 0-.6 0-1.2-.1-1.8V8.5 7.4 5.9v-1-2.5-.5c0-.2 0-.4.1-.5 0-.2.1-.3.3-.4.1 0 .3-.1.4-.1.1 0 .3-.1.4-.1h2c.1 0 .2 0 .4.1.1 0 .2.2.3.4.1.2.2.5.2.8.1.3.1.6.2.9.1.3.1.6.2.8.1.5.3.9.4 1.4.1.5.2.9.3 1.4 0 .1.1.3.2.7.1.3.2.7.3 1.2.1.4.2.9.4 1.4.1.5.2 1 .4 1.5.1.5.2.9.3 1.2.1.4.2.6.2.8 0 .2.1.3.1.5 0 .1.1.3.2.5.1.1.1 0 .1-.1v-.7-1-1.1-.9-1.4-.6-.8V7v-.6c0-.4 0-.7-.1-1 0-.3 0-.7-.1-1.1V3.1v-1-.2-.2c0-.1.1-.2.1-.3.1-.1.3-.2.6-.2.1 0 .2 0 .4-.1.2 0 .3 0 .5-.1h1.1c.3 0 .5.1.6.3.1.2.2.4.1.6 0 .5-.1.9-.1 1.3V22.7c0 .3 0 .4-.1.5 0 .2-.1.3-.3.3-.2.1-.4.1-.5.1H342.4c-.1 0-.3 0-.5-.1-.2 0-.4-.1-.5-.2-.3-.2-.5-.4-.5-.7 0-.5-.1-1.1-.3-1.6-.1-.5-.2-1-.3-1.6l-.6-3c-.3-1-.5-2-.7-3-.1-.4-.2-.8-.4-1.2-.1-.6-.2-1-.3-1.4zm-13.2-4.7v9c0 .1 0 .3-.1.6v3.7c0 .1 0 .1-.1.3 0 .1-.1.1-.2.1h-.8c-.2 0-.4-.1-.5-.1-.2 0-.3-.1-.5-.1-.1 0-.2-.1-.5-.2-.2-.1-.5-.2-.9-.5s-.8-.5-1-.8c-.2-.3-.5-.5-.6-.8-.3-.3-.5-.6-.6-.9-.1-.3-.3-.6-.4-1.1-.1-.2-.1-.4-.1-.7 0-.3-.1-.6-.1-1 0-.3-.1-.6-.1-.9v-.6V11c0-.4.1-.7.2-1.1 0-.2.1-.4.1-.5.1-.2.1-.4.1-.6.1-.2.2-.5.3-.8.1-.3.3-.6.5-.9.2-.2.3-.4.4-.5.1-.1.2-.3.3-.4l.3-.3c.1-.1.3-.2.4-.4.3-.2.7-.4 1.1-.7.4-.2.8-.4 1.3-.5.4 0 .7 0 1-.1.3 0 .4 0 .4.1.1 0 .1.1.1.3 0 .1 0 .3.1.4v.4c-.1.6-.1.7-.1.7zm7.8 6.1v1.1c-.1.4-.1.7-.2 1.1 0 .2-.1.4-.1.6 0 .2-.1.4-.2.5-.1.2-.2.5-.3.8-.1.3-.3.6-.5.9-.2.2-.3.4-.4.5-.1.1-.2.3-.3.4l-.3.3c-.1.1-.3.2-.4.4-.3.2-.7.4-1.1.7-.4.2-.8.4-1.3.5-.4 0-.7.1-1 .1-.3 0-.4 0-.4-.1-.1 0-.1-.1-.1-.3 0-.1 0-.3-.1-.4v-.4-.2-1.3V16v-1.2-.7V13v-1.4-1.3-.6V9 7.8 6.7v-.6-.5-.5-.2c0-.1.1-.1.2-.1h.8c.2 0 .4.1.5.1.2 0 .3.1.4.1.1 0 .2.1.5.2.2.1.5.3.9.5.5.3.8.5 1 .8.2.3.5.5.6.8.3.3.5.6.6.9.1.3.3.6.4 1 .1.2.1.4.1.7 0 .3.1.6.1 1 0 .3.1.6.1.9.5.2.5.4.5.4zm-6-9.3c-.1 0-.2.1-.4.1-.1 0-.2 0-.4.1-.3.1-.6.1-.9.3-.1 0-.2.1-.4.1-.2.1-.4.1-.6.2-.2.1-.4.1-.6.2-.2.1-.3.1-.4.1-.1 0-.2 0-.3.1-.1 0-.1 0-.2.1h-.3c-.1 0-.1-.1-.2-.2l-.1-.3c-.1-.2-.1-.4-.2-.6-.1-.2-.1-.4-.2-.6-.1-.3 0-.4.1-.4s.3-.1.6-.1c.3-.1.6-.2 1-.3.4-.1.7-.2 1-.3.3-.1.6-.2.7-.2.2 0 .4-.1.6-.1.2 0 .4-.1.4-.1.3-.1.6-.1.9-.2.2-.1.5-.2.8-.3.1 0 .1-.1.3-.1h.2c.1 0 .2.1.2.3l.3.9c.1.3.1.6.2.9 0 .2 0 .3-.1.3-.1.1-.2.1-.3.1-.1 0-.2.1-.3.1-.3 0-.5.1-.8.1 0-.3-.3-.3-.6-.2z"/>
  <path class="st1" d="M142.3 43.8v-1.3-1.7-1.6-.8c0-.1 0-.4.1-.8v-1.4-1.4-.8-.5-.5-.2-.2c.1-.1.1-.1.3-.2h.4c.2 0 .4 0 .6.1.2 0 .4.1.7.1.2 0 .4.1.6.2.1 0 .3.1.6.2s.7.3 1.2.6.9.6 1.2 1c.3.3.6.7.8 1 .3.4.6.8.8 1.1.2.3.4.8.5 1.3.1.2.1.5.2.9s.1.8.2 1.2c0 .4.1.8.1 1.1 0 .3.1.6.1.7v1.4c-.1.5-.1.9-.2 1.4 0 .2-.1.5-.2.7-.1.2-.1.5-.2.7-.1.3-.2.6-.4 1s-.4.7-.6 1.1c-.2.3-.4.5-.5.7-.1.2-.3.3-.4.5l-.4.4-.5.5c-.4.3-.9.5-1.4.8-.5.3-1.1.5-1.6.6-.5 0-.9.1-1.2.1-.3 0-.5 0-.5-.1-.1-.1-.1-.2-.2-.4 0-.2-.1-.4-.1-.5v-.5-.3-1.6-1.8-1.5-1.3m-7.2 5.1v1.8c-.1.2-.2.3-.4.3-.3.1-.7.1-1 .2-.4 0-.7.1-1 0H127.4c-.2 0-.3-.1-.3-.3v-.4-1.1V42.2v-.3-.2-.4V40.1v-.5-.9-.9c0-.4-.1-.7-.1-1.1 0-.4-.1-.7-.1-1.1v-1.2-.5-.5-.2-.2-.1c0-.2.1-.3.3-.4.2-.2.6-.3 1.4-.4h1.2c.5 0 1-.1 1.5-.1h2.4c.6 0 1 .1 1.1.2.2.1.3.3.4.6V34.2c0 .2 0 .4-.1.5 0 .2-.2.3-.4.4-.4.1-.7.1-1.1.2-.4 0-.7.1-1.1 0h-2.2v1.6c0 .3 0 .7.1 1 0 .4.1.7.1 1.1 0 .4 0 .7-.1 1.1v2.1h3.6c.4 0 .6.2.7.4v.3c0 .3-.1.7-.1 1 0 .3 0 .7-.1 1-.1.3-.3.5-.8.4-.5 0-1.1-.1-1.6-.1H130.4v2.7c.5 0 .9-.1 1.4-.1h2.2c.6 0 .9.1 1.1.2-.2.5 0 .7 0 .9zm-10.4 2c.1.2.1.4.1.6 0 .2 0 .4.1.7v.5c-.1.1-.2.1-.4.2s-.5.1-.7.1h-1.9c-.3-.1-.5-.1-.5-.2-.1-.1-.1-.3-.2-.7 0-.2 0-.4-.1-.6 0-.2 0-.4-.1-.6-.1-.6-.2-1.1-.3-1.7-.1-.6-.2-1.1-.3-1.7-.1-.4-.1-.7-.2-1.1-.1-.4-.1-.7-.2-1.1 0-.3-.1-.5-.2-.7-.1-.2-.1-.5-.2-.7-.1-.6-.2-1.1-.3-1.7-.1-.6-.2-1.2-.3-1.7 0-.2 0-.3.1-.4.1-.1.2-.2.4-.2H121.2c.2 0 .3 0 .5.1s.4.2.5.5c.2.7.3 1.5.5 2.3.1.8.3 1.5.4 2.3 0 .3.1.6.2.8.1.3.1.6.2.8.2.7.3 1.5.5 2.2.3.6.5 1.3.7 2zm-.2-19c.7.8.9 1.7.8 2.7 0 .4-.1.8-.3 1.2-.1.4-.3.8-.5 1.1-.1.2-.3.4-.4.6l-.5.5c-.5.4-1 .7-1.6.9-.6.2-1.2.3-1.8.3-.3 0-.6 0-.9-.1-.4-.1-.5-.4-.5-.7v-.6-.6-.8-.8-.5-.5-1.2-1.2-.6c0-.2 0-.4.1-.6 0-.2.1-.4.2-.4.1-.1.2-.1.4-.2.3 0 .5-.1.8-.1.3 0 .5-.1.8-.1h1.1c.4.1.7.2 1 .4.3.1.5.3.7.5.2.4.4.6.6.8zm-6.3 19.8v1c0 .1-.2.2-.5.3-.4.1-.7.1-1 .1h-1.3c-.1 0-.2 0-.3-.1-.2-.1-.3-.3-.3-.6v-.2-.2-1.2-1.2c0-.7.1-1.4 0-2 0-.7 0-1.3-.1-2v-1.3c0-.4 0-.9.1-1.3 0-.4 0-.8.1-1.2v-1.2-.7-.9-1.3-1.4-.9-.9-1.3-1.3c0-.2 0-.3.1-.5 0-.2.1-.3.1-.5.1-.2.2-.3.5-.4h1.8c.2 0 .4.1.5.1.1.1.2.2.2.4.1.4.2.9.2 1.3v5.6c0 .5 0 1.1-.1 1.8V45c0 .2 0 .5.1.8V47.1l-.1 4.6zm-11.5-12.9c-.3 0-.4 0-.5-.1-.1-.1-.2-.2-.2-.4v-.5-.5c0-.7.1-1.4.1-2.2v-2.2-.7c0-.2.1-.5.1-.7.1-.5.4-.8 1-.9.4-.1.8-.1 1.2 0 .4 0 .8.2 1.2.4.1 0 .1.1.2.1s.1.1.2.1c.5.2.9.5 1.2.8.3.3.6.7.8 1.1.2.4.3.7.3 1v.8c0 .2 0 .5-.1.8-.2.6-.6 1.2-1.1 1.6-.2.2-.4.4-.6.5-.2.1-.4.3-.7.4-.3.1-.5.2-.7.3-.2.1-.5.1-.9.2h-.8c-.3.1-.5.1-.7.1zm5.7 5.2c.2.7.3 1.4.3 2.1 0 .5 0 1-.1 1.6 0 .6-.2 1.2-.5 1.8-.3.5-.5.9-.7 1.2-.2.3-.5.6-.9.9-.1.1-.3.2-.6.5l-.9.6c-.2.1-.5.2-.8.3-.3.1-.7.2-1 .1-.5 0-.9-.1-.9-.3v-.1-.1-.3-.4c.1-.6.1-1.2.1-1.8v-1.9-.8-1.6c0-.6 0-1.2-.1-1.8 0-.6-.1-1-.1-1.4 0-.3-.1-.7-.1-1v-.9c0-.3 0-.6.1-.8.1-.4.4-.6.9-.6h.8c.5 0 1 .2 1.5.4.4.2.9.5 1.2.8.1.1.2.2.4.3l.4.4c.2.2.4.5.5.8l.3.9c0 .2.1.3.1.5 0 .3.1.4.1.6zm-7-2.9v4.6l.1 3.2v.6c0 .2 0 .4-.1.6v1.1c0 .4 0 .7-.1 1.1v.3c0 .2-.1.3-.3.4-.1 0-.2.1-.3.1H103c-.1 0-.2 0-.4-.1s-.4-.2-.4-.4v-.4c0-.3.1-.7.1-1v-1-.8-1-1-.6-.7V45v-1.1-.8c.1-.9.1-1.7 0-2.6v-2.6-1.1-1.4-1.2-.6-.5-.5-.7-.7c0-.3 0-.4.1-.5.1-.1.2-.1.5-.1.3-.1.7-.1 1.1-.1.4 0 .7 0 1.1.1.2.1.3.2.4.5 0 .3.1.5.1.6v2c0 .4 0 .8-.1 1.3v5.7c-.1.1-.1.3-.1.4zm-6.7-10.6c.3.2.5.4.6.8.1.4.2.8.1 1.2 0 .3-.1.6-.2.7-.1.2-.3.3-.6.5-.1.1-.3.1-.5.1s-.4.1-.5.1c-.4 0-.8-.1-1.1-.4-.4-.3-.6-.6-.6-1-.1-.7.1-1.3.6-1.7.6-.5 1.3-.7 2.1-.4 0 .1.1.1.1.1zm.5 20.9c0 .1 0 .2.1.4 0 .1 0 .2.1.4s0 .4 0 .6c-.2.1-.4.2-.6.2-.9.1-1.7.1-2.5 0-.2 0-.3-.2-.4-.4 0-.2-.1-.5-.1-.7v-.8c0-.7.1-1.3.1-2s0-1.3.1-2v-.9-.9V44v-1.3-1.1-1.7-1.7-1.1-.6-.6-.3-.3c0-.2.1-.3.4-.4h1.3c.3 0 .6 0 .9.1.2 0 .4.1.4.2.1.1.1.2.1.4V50.2c0 .3 0 .7.1 1.2zm-5.9-1.7c.2 0 .3.1.3.1s.1.2.1.3v2c0 .1 0 .1-.1.3-.1.1-.1.2-.2.2-.1.1-.2.1-.4.1-.3 0-.5 0-.8.1h-2.8c-.3 0-.6 0-.8-.1-.2 0-.3-.1-.4-.2-.1-.1-.1-.2-.1-.4 0-.7 0-1.4.2-2v-.2s0-.1.1-.2c.1-.2.2-.2.2-.3.1 0 .2-.1.4-.1H92.6c.4.4.6.4.7.4zm-5.6-12.8c0 .4.1.8.1 1.2 0 .4 0 .8.1 1.2 0 .4.1.7.1 1V43.6c0 .2 0 .5-.1.8V51c0 .2-.1.4-.1.6 0 .2 0 .4-.1.6-.1.4-.3.6-.6.6-.4.1-.8.1-1.2.1h-1.3c-.3-.1-.4-.2-.4-.5 0-.5.1-1 .1-1.4s0-.9.1-1.3v-1.5c0-.5 0-.9.1-1.4v-.2-.2c0-.5-.1-1-.1-1.5v-1.5c0-.3 0-.7.1-1v-1-2c0-.7 0-1.3-.1-2 0-.6-.1-1.2 0-1.9 0-.6 0-1.2.1-1.9v-1.1-1.1-.3-.3c0-.2.1-.3.3-.4.9-.2 1.7-.1 2.5 0 .2 0 .3.2.3.4.1.6.1 1.3.1 1.9v2.8c-.1.8 0 1.1 0 1.4z"/>
  <path class="st1" d="M221 48.9v1.8c-.1.2-.2.3-.4.3-.3.1-.7.1-1 .2-.4 0-.7.1-1 0H213.3c-.2 0-.3-.1-.3-.3v-.4-1.1V42.2v-.3-.2-.4V40.1v-.5-.9-.9c0-.4-.1-.7-.1-1.1 0-.4-.1-.7-.1-1.1v-1.2-.5-.5-.2-.2-.1c0-.2.1-.3.3-.4.2-.2.6-.3 1.4-.4h1.2c.5 0 1-.1 1.5-.1h2.4c.6 0 1 .1 1.1.2.2.1.3.3.4.6V34.2c0 .2 0 .4-.1.5 0 .2-.2.3-.4.4-.4.1-.7.1-1.1.2-.4 0-.7.1-1.1 0h-2.2v1.6c0 .3 0 .7.1 1 0 .4.1.7.1 1.1 0 .4 0 .7-.1 1.1v2.1h3.6c.4 0 .6.2.7.4v.3c0 .3-.1.7-.1 1 0 .3 0 .7-.1 1-.1.3-.3.5-.8.4-.5 0-1.1-.1-1.6-.1H216.3v2.7c.5 0 .9-.1 1.4-.1h2.2c.6 0 .9.1 1.1.2-.2.5-.1.7 0 .9m-10.1-.7c.2 0 .4.1.5.1.1.1.1.2.1.3v2c0 .1 0 .2-.1.3-.1.2-.4.4-.8.4h-5.5c-.2 0-.3 0-.5-.1H203.7c-.2-.1-.4-.2-.4-.4 0-.4.1-.8.1-1.2 0-.4 0-.8.1-1.2v-1.3c0-.4 0-.8.1-1.2v-.4c0-.4-.1-.8 0-1.2v-1.2c0-.3 0-.6.1-.9v-.9-1.7c0-.6 0-1.2-.1-1.7 0-.5-.1-1.1 0-1.6 0-.5 0-1.1.1-1.6v-.9-.9-.4c0-.2.1-.3.4-.3.8-.2 1.7-.1 2.5 0 .2 0 .3.1.3.3.1.6.1 1.1.1 1.7v1.7c0 .5 0 1 .1 1.5 0 .3.1.7.1 1 0 .4 0 .7.1 1 0 .3.1.6.1.9v1c0 .2-.1.4 0 .7V43.3c0 .2 0 .4-.1.7-.1.2-.1.3 0 .5V48.2h2.8c0-.1.4-.1.8 0zM194 35.7V49c0 .1 0 .2-.1.2 0 .1-.1.1-.2.1h-.8c-.2 0-.4-.1-.5-.1-.2 0-.3-.1-.5-.1-.1 0-.2-.1-.5-.2-.2-.1-.5-.2-.9-.5s-.8-.5-1-.8c-.2-.3-.5-.5-.6-.8-.3-.3-.5-.6-.6-.9-.1-.3-.3-.6-.4-1.1-.1-.2-.1-.4-.1-.7 0-.3-.1-.6-.1-1 0-.3-.1-.6-.1-.9v-.6-1.1c0-.4.1-.7.2-1.1 0-.2.1-.4.1-.5 0-.2.1-.4.2-.6.1-.2.2-.5.3-.8.1-.3.3-.6.5-.9.2-.2.3-.4.4-.5.1-.1.2-.3.3-.4l.3-.3c.1-.1.3-.2.4-.4.3-.2.7-.4 1.1-.7.4-.2.9-.4 1.3-.5.4 0 .7 0 1-.1.3 0 .4 0 .4.1.1 0 .1.1.1.3 0 .1 0 .3.1.4v.4c-.3.7-.3.7-.3.8zm7.7 6.1v1.1c0 .4-.1.7-.2 1.1 0 .2-.1.4-.1.6 0 .2-.1.4-.2.6-.1.2-.2.5-.3.8-.1.3-.3.6-.5.9-.2.2-.3.4-.4.5-.1.1-.2.3-.3.4l-.3.3c-.1.1-.3.2-.4.4-.3.2-.7.4-1.1.7-.4.2-.8.4-1.3.5-.4 0-.7.1-1 .1-.3 0-.4 0-.4-.1-.1 0-.1-.1-.1-.3 0-.1 0-.3-.1-.4v-.4-.2-1.3-1.4-1.2-.7-1.1-1.4V40v-.6-.7-1.2-1.1-.6-.4-.5-.2c0-.1.1-.1.2-.1h.8c.4 0 .7.1 1 .2.1 0 .2.1.5.2.2.1.5.2.9.5s.8.5 1 .8c.2.3.5.6.7.8.3.3.5.6.6.9.1.3.3.6.4 1 .1.2.1.4.2.7 0 .3.1.6.1 1 0 .3.1.6.1.9.2-.1.2.1.2.2zm-17.3-11.3c.3.2.5.4.6.8.1.4.2.8.1 1.2 0 .3-.1.6-.2.7-.1.2-.3.3-.6.5-.1.1-.3.1-.5.1s-.4.1-.5.1c-.4 0-.8-.1-1.1-.4-.4-.3-.6-.6-.6-1-.1-.7.1-1.3.6-1.7.6-.5 1.3-.7 2.1-.4 0 .1.1.1.1.1zm.5 20.9c0 .1 0 .2.1.4 0 .1 0 .2.1.4s0 .4 0 .6c-.1.2-.2.4-.4.4-.9.1-1.7.1-2.5 0-.2 0-.3-.2-.4-.4 0-.2-.1-.5-.1-.7v-.8c0-.7.1-1.3.1-2s0-1.3.1-2v-.9-.9-1.3-1.3-1.1-1.7-1.7-1.1-.6-.6-.3-.3c0-.2.1-.3.4-.4h1.3c.3 0 .6 0 .9.1.2 0 .4.1.4.2.1.1.1.2.1.4V50.4c-.2.1-.1.5-.1 1zm-5.5-20.6v.6c-.1.4-.2.7-.2 1.1 0 .4-.1.8-.1 1.1 0 .1-.1.3-.1.4 0 .1 0 .3-.1.4-.1.4-.2.7-.3 1.1-.1.4-.2.7-.3 1.1 0 .1-.1.3-.2.8s-.2 1-.4 1.7c-.1.7-.3 1.4-.4 2.1-.2.8-.3 1.5-.4 2.2-.1.7-.3 1.3-.4 1.7-.1.5-.2.8-.2.9-.2.7-.3 1.4-.6 2-.2.6-.4 1.3-.5 2 0 .1 0 .3-.1.5 0 .2-.1.4-.1.6 0 .2-.1.4-.1.6 0 .2-.1.3-.1.4 0 .1 0 .1-.1.2s-.1.2-.3.3c-.1.1-.3.2-.5.3-.2.1-.4.1-.7.1h-.2c-.4 0-.6-.1-.8-.2-.2-.1-.4-.2-.5-.4-.1-.1-.2-.3-.2-.4v-.3c0-.1 0-.3-.1-.6s-.2-.7-.3-1.1l-.3-1.2c-.1-.4-.2-.6-.2-.8-.1-.7-.2-1.3-.4-1.8s-.4-1.2-.5-1.8c0-.3-.1-.6-.1-.8-.1-.3-.1-.6-.1-.8-.1-.4-.1-.8-.3-1.2-.1-.2-.1-.4-.2-.6-.1-.2-.1-.4-.1-.6-.1-.5-.2-.9-.3-1.4-.1-.5-.2-.9-.2-1.4 0-.2 0-.4-.1-.6 0-.2-.1-.4-.1-.5-.1-.4-.2-.7-.3-1.1-.1-.4-.2-.7-.3-1.1 0-.2-.1-.3-.1-.4 0-.1 0-.3-.1-.4-.1-.4-.1-.8-.1-1.1 0-.4-.1-.7-.2-1.1V31v-.3c0-.2.1-.3.3-.3h2.6c.4 0 .6.2.7.6 0 .1.1.3.1.4 0 .1.1.3.1.4l.6 2.7c.1.4.2.7.2 1.1.1.4.1.7.2 1.1.1.5.1 1.1.2 1.6s.2 1.1.3 1.6c.1.5.2.9.3 1.3.1.4.2.9.3 1.3 0 .2.1.4.1.5 0 .2.1.4.1.5 0-.2.1-.4.1-.5 0-.2.1-.4.1-.5.1-.5.2-.9.3-1.3.1-.4.2-.9.3-1.3.1-.5.2-1.1.3-1.6.1-.5.2-1.1.2-1.6 0-.4.1-.8.2-1.1.1-.4.2-.7.2-1.1.1-.5.2-.9.3-1.4.1-.5.2-.9.3-1.4 0-.1.1-.3.1-.4 0-.1.1-.3.1-.4.1-.3.3-.5.7-.6h2.6c.3.3.4.4.4.5zm-19 18.1v1.8c-.1.2-.2.3-.4.3-.3.1-.7.1-1 .2-.4 0-.7.1-1 0H152.7c-.2 0-.3-.1-.3-.3v-.4-1.1V42.2v-.3-.2-.4V40.1v-.5-.9-.9c0-.4-.1-.7-.1-1.1 0-.4-.1-.7-.1-1.1v-1.2-.5-.5-.2-.2-.1c0-.2.1-.3.3-.4.2-.2.6-.3 1.4-.4h1.2c.5 0 1-.1 1.5-.1h2.4c.6 0 1 .1 1.1.2.2.1.3.3.4.6V34.2c0 .2 0 .4-.1.5 0 .2-.2.3-.4.4-.4.1-.7.1-1.1.2-.4 0-.7.1-1.1 0h-2.2v1.6c0 .3 0 .7.1 1 0 .4.1.7.1 1.1 0 .4 0 .7-.1 1.1v2.1h3.6c.4 0 .6.2.7.4v.3c0 .3-.1.7-.1 1 0 .3 0 .7-.1 1-.1.3-.3.5-.8.4-.5 0-1.1-.1-1.6-.1H155.7v2.7c.5 0 .9-.1 1.4-.1h2.2c.6 0 .9.1 1.1.2-.2.5-.1.7 0 .9z"/>
  <path class="st1" d="M266.1 49.6c.3.2.5.4.6.8.1.4.2.8.1 1.2 0 .3-.1.6-.3.7-.1.2-.3.3-.6.5-.1.1-.3.1-.5.1s-.4.1-.5.1c-.4 0-.8-.1-1.1-.4-.4-.3-.6-.6-.6-1-.1-.7.1-1.3.6-1.7.6-.5 1.3-.7 2.1-.4.1 0 .2 0 .2.1M261.3 38c0 .5.1 1.1.1 1.6v1.6c0 .9 0 1.8-.1 2.7 0 .9-.1 1.8-.1 2.7v1c0 .6-.1 1.1-.1 1.5 0 .4 0 .9-.1 1.5v.5c0 .1-.1.2-.1.3-.1.1-.2.1-.3.1h-.9c-.3 0-.6-.1-.9-.2-.3-.1-.5-.2-.7-.4-.2-.2-.3-.4-.2-.6v-.4-.4h-.8c-.3 0-.5 0-.6-.1-.2 0-.5 0-.8-.1-.3 0-.6-.1-.8-.1-.3 0-.5-.1-.7-.1-.2 0-.3-.1-.3-.1-.6-.2-1.1-.5-1.5-.9-.4-.4-.7-.7-.9-1.1-.2-.4-.4-.8-.4-1.3-.1-.5 0-1 0-1.5.1-.5.2-.8.4-1.2.2-.3.4-.6.7-.9.2-.2.4-.3.7-.5.3-.2.5-.3.7-.4.5-.2.9-.4 1.3-.4.4-.1.9-.1 1.5-.2.5 0 .9-.1 1.2-.1h1v-.2-.2-1.5c-.1-.6-.2-1-.3-1.4-.1-.2-.1-.3-.1-.4 0-.1-.1-.3-.2-.6-.2-.2-.3-.4-.4-.5-.1-.1-.3-.2-.6-.2-.2 0-.3.1-.5.2-.1.1-.3.2-.4.4-.1.1-.2.3-.2.4-.1.1-.1.2-.1.3-.1.2-.2.5-.2.8-.1.3-.1.6-.1 1 0 .1 0 .3-.1.4 0 .1-.1.2-.2.3-.1.1-.3.1-.5.1h-.9c-.3 0-.6-.1-.7-.2-.2-.1-.3-.3-.4-.5-.1-.2-.1-.4-.1-.5v-.5-.2-.3c.1-.7.2-1.2.4-1.7.2-.4.3-.8.4-1 .1-.2.3-.4.4-.5l.3-.3c.3-.3.6-.5.9-.8.3-.2.6-.4 1-.5.5-.1 1-.1 1.5-.1s1 .2 1.4.5c.1.1.2.1.3.2.1.1.2.1.3.2.3.2.6.4.8.7.2.3.4.6.5.9.2.5.4 1.1.5 1.7-.1.3-.1.9 0 1.5zm-12.8-7.5c.3.2.5.4.6.8.1.4.2.8.1 1.2 0 .3-.1.6-.3.7-.1.2-.3.3-.6.5-.1.1-.3.1-.5.1s-.4.1-.5.1c-.4 0-.8-.1-1.1-.4-.4-.3-.6-.6-.6-1-.1-.7.1-1.3.6-1.7.6-.5 1.3-.7 2.1-.4.1.1.1.1.2.1zm.4 20.9c0 .1 0 .2.1.4 0 .1 0 .2.1.4s0 .4 0 .6c-.1.2-.2.4-.4.4-.9.1-1.7.1-2.5 0-.2 0-.3-.2-.4-.4 0-.2-.1-.5-.1-.7v-.8c0-.7.1-1.3.1-2s0-1.3.1-2v-.9-.9-1.3-1.3-1.1-1.7-1.7-1.1-.6-.6-.3-.3c0-.2.1-.3.4-.4h1.3c.3 0 .6 0 .9.1.2 0 .4.1.4.2.1.1.1.2.1.4V50.4c-.1.1-.1.5-.1 1zm-6.1-20.5c.1.2.2.4.3.7.1.3.2.7.1 1.2-.1.1-.1.2-.1.3 0 .1-.1.1-.2.2s-.2.1-.3.2c-.1.1-.3.2-.5.3-.2.1-.3.1-.3.2-.1 0-.1.1-.2.2 0 0-.1.1-.2.1s-.2.1-.3.2c-.6.4-1.1.9-1.5 1.5-.4.6-.8 1.4-1.2 2.3-.1.2-.1.4-.2.6-.1.2-.1.4-.2.5-.4 1.4-.5 2.6-.3 3.8v.6c0 .2.1.4.2.7l.3.9c.1.3.2.6.3.8.1.2.2.4.2.5.3.6.6 1.1.9 1.5.3.4.7.8 1.3 1.1.4.2.7.4.9.5.2.1.4.2.6.2h.1c.2.1.3.2.4.2 0 .1.1.2.1.4 0 .3 0 .6-.1.9 0 .3-.1.6-.3.9-.2.6-.6.9-1.2.9h-.4c-1-.2-2.1-.9-3.3-2.1-1-1-1.8-2-2.2-3.1-.4-1-.7-2-.8-2.8-.1-.5-.2-.9-.2-1.3s0-.7-.1-1v-.2-.9c0-.3 0-.6.1-.9v-.3-.3c0-.6.1-1.3.3-2.1.1-.5.2-.9.4-1.3.1-.4.3-.7.4-1.1.7-1.4 1.4-2.5 2.2-3.1l.4-.4c.3-.2.5-.4.7-.6.2-.2.4-.3.6-.5l.6-.3c.2-.1.5-.2.8-.3.5-.2.8-.2 1.1-.1.2.1.4.2.4.4.3-.2.3-.2.4-.1-.1 0 0 0 0 0zm-16.5 9.5c-.1-.1-.1 0-.1.2V43c0 .4.1.8 0 1.1v7.3c0 .2 0 .4-.1.6 0 .2-.1.4-.1.5-.1.2-.2.3-.5.4h-1.2c-.3 0-.7-.1-1.1-.2-.1 0-.1-.1-.2-.1s-.1 0-.2-.1c-.2-.1-.2-.2-.2-.4v-.4-.8-.8-.4-1c0-.5 0-1.1.1-1.8v-2.1-1.9c0-.2 0-.6-.1-1.2 0-.6 0-1.2-.1-1.8v-1.8V37v-1.5-1V32v-.5c0-.2 0-.4.1-.5 0-.2.1-.3.3-.4.1 0 .3-.1.4-.1.1 0 .3-.1.4-.1h2c.1 0 .2 0 .4.1.1 0 .2.2.3.4.1.2.2.5.2.8.1.3.1.6.2.9.1.3.1.6.2.8.1.5.3.9.4 1.4.1.5.2.9.3 1.4 0 .1.1.3.2.7.1.3.2.7.3 1.2s.2.9.4 1.4c.1.5.2 1 .4 1.5.1.5.2.9.3 1.2.1.4.2.6.2.8 0 .2.1.3.1.5 0 .1.1.3.2.5.1.1.1 0 .1-.1v-.7-1-1.1-.9-1.4-.6-.8-.8-.6c0-.4 0-.7-.1-1 0-.3 0-.7-.1-1.1v-1.2-1-.2-.2c0-.1.1-.2.1-.3.1-.1.3-.2.6-.2.1 0 .2 0 .4-.1.2 0 .3 0 .5-.1h1.1c.3 0 .5.1.6.3.1.2.2.4.1.6 0 .5-.1.9-.1 1.3V52.3c0 .3 0 .4-.1.5 0 .2-.1.3-.3.3-.2.1-.4.1-.5.1H230.4c-.1 0-.3 0-.5-.1-.2 0-.4-.1-.5-.2-.3-.2-.5-.4-.5-.7 0-.5-.1-1.1-.3-1.6-.1-.5-.2-1-.3-1.6l-.6-3c-.3-1-.5-2-.7-3-.1-.4-.2-.8-.4-1.2 0-.6-.2-1-.3-1.4z"/>
</svg>