<svg xmlns="http://www.w3.org/2000/svg" width="282.8" height="28.4" viewBox="0 0 282.8 28.4">
  <style>
    .st0{fill:#5bcbf5}
  </style>
  <path class="st0" d="M82.6 11.5c0 .6.1 1.2.1 1.8v1.8c0 1-.1 2-.1 3s-.1 2-.1 3v1c0 .6-.1 1.2-.1 1.7s0 1-.1 1.7V26.1c0 .1-.1.3-.1.4-.1.1-.2.2-.3.2h-1c-.4 0-.7-.1-1-.2-.3-.1-.6-.2-.8-.4-.2-.2-.3-.4-.3-.7V25v-.5h-.9c-.3 0-.5 0-.7-.1-.2 0-.5 0-.9-.1-.3 0-.6-.1-.9-.1-.4-.2-.7-.2-.9-.3-.2-.1-.3-.1-.4-.1-.7-.2-1.2-.6-1.6-1-.4-.4-.8-.8-1-1.3-.3-.4-.4-.9-.5-1.4-.1-.5-.1-1.1 0-1.7.1-.5.2-.9.4-1.3s.5-.7.8-1c.2-.2.4-.4.8-.6.4-.2.6-.4.8-.5.5-.2 1-.4 1.4-.5.4-.1 1-.1 1.7-.2.6 0 1-.1 1.4-.1h1.1V14v-.2-1.7c-.1-.6-.2-1.2-.3-1.6-.1-.2-.1-.3-.2-.5 0-.2-.1-.4-.3-.6-.2-.3-.3-.5-.5-.6s-.4-.2-.7-.2c-.2 0-.4.1-.5.2s-.2.2-.3.4c-.1.2-.2.3-.3.5-.1.2-.1.3-.1.3l-.3.9c-.1.4-.1.7-.2 1.1 0 .2-.1.3-.1.4 0 .1-.1.2-.2.3-.1.1-.3.1-.6.2h-1c-.4 0-.7-.1-.8-.3-.2-.2-.3-.3-.4-.5-.1-.2-.1-.4-.1-.6v-.6-.3-.3c.2-.7.3-1.3.5-1.8s.3-.9.5-1.1c.2-.3.3-.5.4-.6.1-.1.2-.3.3-.4.3-.3.7-.6 1-.9.3-.2.7-.4 1.1-.5.6-.1 1.1-.1 1.7-.1s1.1.2 1.6.5c.1.1.2.1.3.2.1.1.2.1.3.2.4.2.6.4.9.7.2.3.4.6.6 1 .3.6.5 1.2.6 1.9.2.8.3 1.4.3 2.1m-22.3-1c-.3-.1-.4-.3-.4-.6s0-.5.1-.6v-.7-.7c0-.2-.1-.4-.1-.4-.1-.2-.1-.3-.2-.4-.1-.1-.2-.3-.4-.4-.2-.2-.5-.2-.9-.2-.4.1-.7.3-1 .5-.1.1-.2.3-.2.5s-.1.4-.1.6v1.1c.1.8.4 1.6.9 2.2.2.3.4.6.7.9.2.3.5.6.7 1 .3.4.6.8.8 1.2.3.4.5.7.7 1 .2.2.4.5.6.8.7.9 1.2 1.8 1.6 2.8.4 1 .6 2 .7 3.1v1.6c-.1 1.3-.6 2.3-1.7 3.2-.1 0-.1.1-.2.2l-.2.2c-.3.2-.7.4-1 .6-.4.1-.7.2-1.1.2h-1.3c-.4 0-.8-.1-1.2-.2-.3-.1-.6-.2-.8-.3-.2-.1-.5-.3-.8-.6-.2-.2-.4-.4-.7-.6-.2-.2-.4-.4-.6-.7 0-.1-.1-.2-.1-.2 0-.1-.1-.2-.1-.2-.2-.4-.3-.9-.4-1.3-.1-.4-.2-.9-.2-1.4v-.8c0-.3 0-.6.1-.8 0-.3.1-.5.1-.7 0-.2.1-.3.1-.4.2-.3.4-.5.8-.5h.3c.6.1 1.2.3 1.8.5.2.1.4.2.4.3.1.1.1.2.1.5s-.1.6-.1.9v1c0 .4.1.8.1 1.1 0 .3.2.6.4.8.2.2.6.3.9.4.4.1.8 0 1.1-.2.2-.2.4-.4.6-.7.1-.3.2-.6.2-.9 0-.4 0-.8-.1-1.2-.1-.4-.3-.8-.4-1.1-.2-.4-.4-.7-.6-1.1-.2-.4-.4-.7-.7-1-.2-.3-.4-.6-.6-1-.2-.3-.4-.7-.6-1-.2-.2-.3-.5-.4-.7s-.3-.5-.5-.7c-.3-.4-.6-.8-.7-1.1-.2-.3-.4-.7-.5-1 0-.1-.1-.2-.1-.3-.1-.1-.1-.2-.2-.3-.4-.6-.7-1.3-.9-1.9-.2-.7-.3-1.4-.3-2.1-.1-.9 0-1.7.2-2.4.2-.6.5-1.1 1-1.5.7-.5 1.5-.9 2.4-1 .7-.1 1.4-.1 2.1 0 .7.1 1.4.3 2 .7.3.2.6.5.9.8.3.3.5.6.7 1.1-.1-.4 0-.1.1.2.1.3.1.6.1.9v2c0 .8-.4 1.1-1.2 1.1h-1.3c-.2 0-.3-.1-.4-.1zm-8.8 1c0 .6.1 1.2.1 1.8v1.8c0 1-.1 2-.1 3s-.1 2-.1 3v1c0 .6-.1 1.2-.1 1.7s0 1-.1 1.7V26.1c0 .1-.1.3-.1.4-.1.1-.2.2-.3.2h-1.1c-.4 0-.7-.1-1-.2-.3-.1-.6-.2-.8-.4-.2-.2-.3-.4-.3-.7V25v-.5h-.9c-.3 0-.5 0-.7-.1-.2 0-.5 0-.9-.1-.3 0-.6-.1-.9-.1-.3-.1-.6-.1-.8-.2-.2-.1-.3-.1-.4-.1-.7-.2-1.2-.6-1.6-1-.4-.4-.7-.8-1-1.3-.3-.4-.4-.9-.5-1.4-.1-.5-.1-1.1 0-1.7.1-.5.2-.9.4-1.3s.5-.7.8-1c.2-.2.4-.4.8-.6.4-.2.6-.4.8-.5.5-.2 1-.4 1.4-.5.4-.1 1-.1 1.7-.2.6 0 1-.1 1.4-.1h1.1v-.2-.2-1.7c-.1-.6-.2-1.2-.3-1.6-.1-.2-.1-.3-.2-.5 0-.2-.1-.4-.3-.6-.2-.3-.3-.5-.5-.6s-.4-.2-.7-.2c-.2 0-.4.1-.5.2-.2.1-.3.3-.4.4-.1.2-.2.3-.3.5 0 0-.1.1-.1.2l-.3.9c-.1.3-.1.7-.2 1.1 0 .2-.1.3-.1.4 0 .1-.1.2-.2.3-.1.1-.3.1-.6.2h-1c-.4 0-.7-.1-.8-.3-.2-.2-.3-.3-.4-.5-.1-.2-.1-.4-.1-.6v-.6-.3-.3c.1-.8.2-1.4.4-1.9.3-.4.4-.8.6-1 .2-.3.3-.5.4-.6.1-.1.2-.3.3-.4.4-.3.7-.6 1-.9.3-.2.7-.4 1.1-.5.6-.1 1.1-.1 1.7-.1s1.1.2 1.6.5c.1.1.2.1.3.2.1.1.2.1.3.2.4.2.6.4.9.7.2.3.4.6.6 1 .3.6.5 1.2.6 1.9.2.8.3 1.4.4 2.1zm-12.7-8v.6c-.1.4-.2.8-.2 1.2 0 .4-.1.8-.1 1.3 0 .2-.1.3-.1.5s-.1.3-.1.5L38 8.8l-.3 1.2c0 .1-.1.4-.2.9s-.2 1.1-.4 1.9c-.2.7-.3 1.5-.5 2.4-.2.9-.3 1.7-.5 2.4-.2.8-.3 1.4-.4 1.9-.1.5-.2.9-.2 1-.2.8-.4 1.5-.6 2.2-.3.7-.4 1.5-.5 2.2 0 .2-.1.4-.1.6 0 .2-.1.5-.1.7-.1.2-.1.5-.2.7-.1.2-.1.3-.1.4 0 .1 0 .2-.1.3-.1.1-.2.2-.3.4-.1.1-.3.2-.5.3-.2.1-.5.1-.8.1H32c-.4 0-.7-.1-.9-.2-.2-.1-.4-.3-.5-.4-.1-.2-.2-.3-.2-.5V27c0-.1-.1-.3-.2-.7-.1-.4-.2-.8-.4-1.2-.1-.4-.3-.9-.4-1.3-.1-.4-.2-.7-.2-.9-.1-.8-.3-1.5-.5-2.1-.2-.6-.4-1.3-.6-2.1 0-.3-.1-.6-.2-.9-.1-.3-.1-.6-.2-.9-.1-.5-.2-.9-.3-1.4-.1-.2-.1-.5-.2-.7-.1-.2-.1-.4-.2-.7l-.3-1.5c-.1-.5-.2-1-.2-1.5 0-.2-.1-.4-.1-.6 0-.2-.1-.4-.1-.6L26 8.7l-.3-1.2c0-.2-.1-.3-.1-.5s0-.3-.1-.5c-.1-.4-.1-.9-.1-1.3s-.1-.8-.2-1.2c-.2 0-.2-.1-.2-.2v-.3c0-.2.1-.3.4-.3H28.3c.4 0 .7.2.8.6 0 .2.1.3.1.4 0 .1.1.3.1.4l.7 3.3c.1.4.2.8.2 1.2.1.4.1.8.2 1.3.1.6.1 1.2.2 1.8l.3 1.8.3 1.5.3 1.5c0 .2.1.4.1.6 0 .2.1.4.1.6 0-.2.1-.4.1-.6 0-.2.1-.4.1-.6l.3-1.5.3-1.5.3-1.8.3-1.8c0-.4.1-.9.2-1.3l.3-1.2.3-1.5.3-1.5c0-.2.1-.3.1-.4 0-.1.1-.3.1-.4.1-.4.4-.6.8-.6h2.9c.5-.3.7-.2.7 0zM16 3.2c.3.2.5.5.7.9.2.4.2.9.1 1.3 0 .4-.1.6-.3.8-.1.2-.4.4-.7.6-.1.1-.3.1-.5.1-.2.1-.4.1-.6.1-.4 0-.9-.2-1.3-.5s-.6-.7-.7-1.1c-.1-.8.1-1.5.7-1.9.7-.6 1.5-.7 2.4-.4.1 0 .2 0 .2.1zm.5 23.2c0 .1 0 .3.1.4 0 .1 0 .3.1.4.1.2.1.4 0 .7-.1.3-.3.4-.5.4-1 .1-1.9.1-2.8 0-.2 0-.4-.2-.4-.5 0-.2-.1-.5-.1-.8v-.9c0-.7.1-1.5.1-2.2 0-.7 0-1.5.1-2.2v-1-1-1.4-1.4-1.2-1.9-1.9-1.3-.7-.7-.4-.4c0-.2.2-.3.4-.4h1.4c.3 0 .7 0 1 .1.2 0 .4.1.5.2.1.1.1.3.1.4V26.4zM6.9 10.5c-.3-.1-.4-.3-.4-.6s0-.5.1-.6v-.7-.7c0-.3-.1-.3-.2-.3 0-.2-.1-.3-.2-.5-.1-.1-.2-.3-.4-.4-.2-.1-.5-.2-.9-.1-.3 0-.7.2-.9.4-.1.1-.2.3-.2.5s-.1.4-.1.6v1.1c.1.8.4 1.6.9 2.2l.6.9c.2.3.5.6.7 1 .3.4.6.8.8 1.2.3.4.5.7.7 1 .2.2.4.5.6.8.7.9 1.2 1.8 1.6 2.8.4 1 .6 2 .7 3.1v1.6c0 1.2-.6 2.3-1.6 3.2-.1.1-.2.1-.2.2l-.2.2c-.3.2-.7.4-1 .6-.3.1-.7.2-1.1.2H4.9c-.4 0-.8-.1-1.2-.2-.3-.1-.6-.2-.8-.3-.2-.1-.5-.3-.8-.6-.2-.2-.4-.4-.7-.6-.2-.2-.4-.4-.6-.7 0-.1-.1-.2-.1-.2 0-.1-.1-.2-.1-.2-.2-.4-.3-.9-.4-1.3-.1-.7-.2-1.2-.2-1.7v-.8c0-.3 0-.6.1-.8 0-.3.1-.5.1-.7 0-.2.1-.3.1-.4.2-.3.4-.5.8-.5h.3c.6.1 1.2.3 1.8.5.2.1.4.2.4.3.1.1.1.2 0 .5 0 .3-.1.6-.1.9v1c0 .4.1.8.1 1.1 0 .3.2.6.4.8.2.2.6.3.9.4.4.1.8 0 1.1-.2.2-.2.4-.4.6-.7.3-.5.3-.8.4-1.1 0-.4 0-.8-.1-1.2-.1-.4-.3-.8-.4-1.1-.2-.4-.4-.7-.6-1.1-.2-.4-.4-.7-.7-1-.2-.3-.4-.6-.6-1-.2-.3-.4-.7-.6-1-.2-.2-.3-.5-.4-.7-.1-.2-.3-.5-.5-.7-.3-.4-.6-.8-.7-1.1-.2-.3-.4-.7-.5-1 0-.1-.1-.2-.1-.3-.1-.1-.1-.2-.2-.3-.4-.6-.7-1.3-.9-1.9C.3 9.5.2 8.9.2 8.2c-.1-.9 0-1.7.2-2.4.2-.6.5-1.1 1-1.5.7-.5 1.5-.9 2.4-1 .7-.1 1.4-.1 2.1 0 .7.1 1.4.3 2 .7.3.2.6.5.9.8.2.2.4.5.6 1 .1.2.2.5.2.8.1.3.1.6.1.9v2c0 .8-.4 1.1-1.2 1.1H7.2c-.1 0-.2-.1-.3-.1z"/>
  <path class="st0" d="M170.5 5.8v2.3c0 .2-.1.3-.2.3-.1.1-.3.1-.7.2-.6.1-1.3.1-1.9.1h-1.4v2.2c0 .4-.1.7 0 1v1.6c0 .4.1.6.1.8V17.6c0 .3 0 .6-.1.9 0 .4-.1.8-.1 1.1 0 .4 0 .8-.1 1.1 0 .3-.1.6-.1.8v2.6c0 .6-.1 1.2-.1 1.8 0 .2-.1.4-.4.4-.9.2-1.8.2-2.8 0-.2 0-.4-.1-.4-.3v-.5-1-1c0-.6-.1-1.2-.1-1.8V20c0-.6.1-1.3.1-1.9v-1.9-1c0-.3 0-.6-.1-1v-1.4-1.3-.4c0-.4-.1-.8-.1-1.2V8.6h-3c-.2 0-.3-.1-.5-.3-.1-.1-.1-.2-.2-.3-.3-.7-.4-1.4-.4-2.1 0-.2.1-.3.3-.4.1-.1.4-.2.8-.2.3 0 .6-.1.9-.1h.9c.7 0 1.4-.1 2.2 0h5.7c.6 0 1 .1 1.2.4.4.1.5.1.5.2m-21.3 8.3c-.1-.1-.1 0-.2.2V17.1c0 .4.1.9 0 1.3V26.6c0 .2 0 .4-.1.6 0 .2-.1.4-.2.6-.1.2-.3.4-.5.4-.5 0-1 .1-1.4 0s-.8-.1-1.2-.2c-.1 0-.1-.1-.2-.1s-.1-.1-.2-.1c-.2-.1-.3-.3-.3-.4v-.5-.9-.9-.5-1.1c0-.5 0-1.2.1-2v-2.3-2.1c0-.3 0-.7-.1-1.4 0-.6 0-1.3-.1-2v-2-1.2-1.7-1.1-3-.6c0-.2 0-.4.1-.6 0-.2.1-.3.3-.4.2 0 .3-.1.5-.1.2-.1.3-.1.5-.1h2.2c.1 0 .2 0 .5.1.2 0 .3.2.4.5l.3.9c.1.3.1.7.2 1 .1.4.1.7.2.9.2.5.3 1 .4 1.5.1.5.3 1 .4 1.5 0 .1.1.4.2.8s.2.8.3 1.3c.1.5.3 1 .4 1.6.1.6.3 1.1.4 1.6.1.5.3 1 .4 1.4.1.4.2.7.2.9 0 .2.1.3.1.5.1.2.1.4.2.6.1.1.1 0 .1-.1v-.7-1.1c0-.4 0-.8-.1-1.2v-1-1.6-.7-.9-.9-.7c0-.4 0-.8-.1-1.2s0-.8-.1-1.2V5.4 4.3v-.2-.3c0-.1.1-.3.2-.4.1-.1.3-.2.7-.2.1 0 .2 0 .4-.1s.4 0 .6-.1.4 0 .6 0h.5c.3 0 .5.1.7.3.2.2.2.4.2.6 0 .5-.1 1-.1 1.5v21.8c0 .3 0 .5-.1.5 0 .2-.2.3-.4.4-.2.1-.4.1-.6.1h-1.9c-.1 0-.3-.1-.5-.1s-.4-.1-.6-.2c-.3-.2-.5-.4-.6-.8 0-.6-.1-1.2-.3-1.8-.2-.6-.3-1.2-.3-1.8-.2-1.1-.4-2.2-.7-3.3-.3-1.1-.6-2.2-.8-3.3-.1-.5-.2-.9-.4-1.4.1-.5 0-.9-.2-1.4zm-5.9 9.6v2.1c-.1.2-.3.3-.5.4-.4.1-.8.2-1.1.2-.4.1-.8.1-1.1 0h-5.7c-.2 0-.3-.1-.3-.3v-.4-1.3-8.1-.3-.3-.4V14v-.5-1-1c0-.4-.1-.8-.1-1.2 0-.4-.1-.8-.1-1.2V7.6v-.5-.5-.3c0-.1 0-.2-.1-.3v-.1c0-.2.1-.4.3-.4.2-.2.7-.4 1.6-.4h1.2c.6 0 1.1-.1 1.7-.1h2.7c.7 0 1.1.1 1.3.2.2.1.3.3.4.6v1.5c0 .2 0 .4-.1.5 0 .2-.2.4-.5.4-.4.1-.8.2-1.2.2-.4.1-.8.1-1.2 0H138V10.1c0 .3 0 .8.1 1.2 0 .4.1.8.1 1.2 0 .4 0 .8-.1 1.2v2.4h4c.4 0 .7.2.8.5v.4c0 .4-.1.7-.1 1.1 0 .4-.1.7-.1 1.1-.1.4-.4.5-.9.5-.6 0-1.2-.1-1.8-.1H138.1V22.6c.5 0 1-.1 1.6-.1h2.4c.6 0 1 .1 1.2.2-.2.5-.1.7 0 1zM131.8 3.6c.1.2.2.4.4.7.1.3.2.8.1 1.3-.1.1-.1.2-.2.3 0 .1-.1.2-.2.2-.1.1-.2.1-.3.2-.1.1-.3.2-.5.3-.2.1-.3.2-.4.2l-.2.2s-.1.1-.2.1-.2.1-.3.2c-.6.4-1.2 1-1.7 1.7s-.9 1.5-1.3 2.5c-.1.2-.2.4-.2.6-.1.2-.1.4-.2.6-.4 1.5-.5 2.9-.3 4.2v.7c0 .2.1.4.2.8.1.3.2.6.3 1l.3.9c.1.3.2.5.2.6.3.7.7 1.3 1 1.7.3.4.8.8 1.4 1.2.4.3.7.4 1 .5.2.1.5.2.7.2h.1l.4.2c.1.1.1.2.1.4 0 .3 0 .6-.1 1 0 .3-.1.7-.3 1-.3.6-.7 1-1.3 1h-.4c-1.1-.3-2.3-1-3.6-2.3-1.2-1.1-2-2.3-2.5-3.4-.5-1.2-.8-2.2-.9-3.1-.1-.5-.2-1-.2-1.4 0-.4 0-.8-.1-1.1v-.3-1c0-.3 0-.7.1-1v-.3-.3c0-.7.1-1.5.4-2.4.1-.5.3-1 .4-1.5.2-.4.3-.8.5-1.2.8-1.6 1.6-2.8 2.4-3.5l.4-.4c.3-.3.5-.5.8-.7.2-.2.5-.4.7-.5.2-.1.5-.3.7-.4l.9-.3c.5-.2.9-.2 1.2-.1.2.1.4.2.5.4.2.2.2.2.2.3 0-.1 0 0 0 0zm-24.4 10.5c-.1-.1-.1 0-.2.2V17.1c0 .4.1.9 0 1.3V26.6c0 .2 0 .4-.1.6 0 .2-.1.4-.2.6-.1.2-.3.4-.5.4-.5 0-1 .1-1.4 0s-.8-.1-1.2-.2c-.1 0-.1-.1-.2-.1s-.1-.1-.2-.1c-.2-.1-.3-.3-.3-.4v-.5-.9-.9-.5-1.1c0-.5 0-1.2.1-2v-2.3-2.1c0-.3 0-.7-.1-1.4 0-.6 0-1.3-.1-2 0-.7 0-1.4-.1-2v-1.2-1.7-1.1-3-.6c0-.2 0-.4.1-.6 0-.2.1-.3.3-.4.2 0 .3-.1.5-.1.2-.1.3-.1.5-.1h2.2c.1 0 .2 0 .5.1.2 0 .3.2.4.5l.3.9c.1.3.1.7.2 1 .1.4.1.7.2.9.2.5.3 1 .4 1.5.1.5.3 1 .4 1.5 0 .1.1.4.2.8s.2.8.3 1.3c.1.5.3 1 .4 1.6.1.6.3 1.1.4 1.6.1.5.3 1 .4 1.4.1.4.2.7.2.9 0 .2.1.3.1.5.1.2.1.4.2.6.1.1.1 0 .1-.1v-.7-1.1-1.2-1-1.6-.7-.9-.9-.7c0-.4 0-.8-.1-1.2s0-.8-.1-1.2V5.4 4.3v-.2-.3c0-.1.1-.3.2-.4.1-.1.3-.2.7-.2.1 0 .2 0 .4-.1s.4 0 .6-.1.4 0 .6 0h.5c.3 0 .5.1.7.3.2.2.2.4.2.6 0 .5-.1 1-.1 1.5v21.8c0 .3 0 .5-.1.5 0 .2-.2.3-.4.4-.2.1-.4.1-.6.1h-1.9c-.1 0-.3-.1-.5-.1s-.4-.1-.6-.2c-.4-.2-.5-.4-.6-.8 0-.6-.1-1.2-.3-1.8-.2-.6-.3-1.2-.3-1.8-.2-1.1-.4-2.2-.7-3.3-.3-1.1-.6-2.2-.8-3.3-.1-.5-.2-.9-.4-1.4.1-.5-.1-.9-.2-1.4zm-16.5-1.5v-1.2-1.6-1.6c0-.5 0-.8.1-1v-.6-1-1.1-.8-.2-.2c.1-.2.3-.3.5-.3h1.7c.5 0 .9 0 1.4.1h5.6c.4 0 .6.2.6.6 0 .4.1.8.1 1.2v2.5c0 .5.1 1.1.1 1.6v4.6c0 .6.1 1.3 0 1.9 0 .6-.1 1.3-.1 1.9V19c0 .5 0 1-.1 1.5s-.1 1-.2 1.5c-.1.4-.2.9-.2 1.3-.1.5-.2.9-.3 1.4-.2.8-.6 1.6-1.1 2.3-.3.4-.7.6-1.1.9-.4.2-.9.4-1.4.4-.5.1-1 0-1.5-.1s-1-.4-1.4-.7c-.4-.3-.7-.6-1-1-.4-.6-.8-1.2-1-1.9-.2-.7-.4-1.3-.5-2 0-.4-.1-.8-.1-1.2v-1.2c0-.4-.1-1-.1-1.8s0-1.6-.1-2.4v-2.2c.1-.5.1-.9.1-1.2z"/>
  <path class="st0" d="M237.4 17.9v-1.5-2-1.8-.9c0-.1 0-.4.1-.9s0-1 0-1.6V7.6v-.9-.6c0-.2 0-.4.1-.6v-.2-.2c.1-.1.2-.2.3-.2h.4c.2 0 .4 0 .7.1.2 0 .5.1.7.1s.5.1.6.2c.1 0 .3.1.6.3.3.1.8.4 1.3.7.6.4 1.1.7 1.4 1.1s.6.7.9 1.1c.4.5.7.9.9 1.2.2.4.4.9.6 1.5.1.2.1.6.2 1s.1.9.2 1.3c0 .5.1.9.1 1.2s.1.6.1.8V17l-.3 1.5c0 .3-.1.5-.2.8-.1.3-.2.5-.2.8-.1.3-.3.7-.5 1.1-.2.4-.4.8-.7 1.2-.2.3-.4.6-.6.7-.2.2-.3.4-.5.5-.2.2-.3.3-.5.4-.2.1-.4.3-.6.5-.5.3-1 .6-1.6.9-.6.3-1.2.6-1.8.7-.5 0-1 .1-1.3.1-.4 0-.5 0-.5-.1-.1-.1-.2-.2-.2-.4s-.1-.4-.1-.6v-.6-.3-1.8-2-1.7c.4-.2.4-.6.4-.8m-2.2 5.8v2.2c-.1.2-.3.3-.5.4-.4.1-.8.2-1.1.2-.4.1-.8.1-1.1.1H226.9c-.2 0-.3-.1-.3-.3v-.4-1.3-8.1-.3-.3-.4V14v-.5-1c0-.3 0-.7-.1-1 0-.4-.1-.8-.1-1.2 0-.4-.1-.8-.1-1.2V7.7v-.5-.5-.3-.3V6c0-.2.1-.4.3-.4.2-.2.7-.4 1.6-.4h1.2c.6 0 1.1-.1 1.7-.1h2.7c.7 0 1.1.1 1.3.2.2.1.3.3.4.6v1.8c0 .1 0 .2-.1.3 0 .2-.2.3-.5.4-.4.1-.8.2-1.2.2-.4.1-.8.1-1.2 0H230V10.3c0 .4 0 .8.1 1.1 0 .4.1.8.1 1.2 0 .4 0 .8-.1 1.2v2.4h4c.4 0 .7.2.8.5v.3c0 .4-.1.7-.1 1.1 0 .4-.1.7-.1 1.1-.1.3-.4.5-.9.5-.6 0-1.2-.1-1.8-.1H230.1v3.3c.5 0 1-.1 1.6-.1h2.4c.6 0 1 .1 1.2.2-.4.3-.2.5-.1.7zm-8.4-19.8c-.2-.5-.3-1-.4-1.4-.1-.3 0-.4.1-.5.1 0 .3-.1.6-.2s.7-.2 1.1-.3c.4-.1.8-.2 1.1-.3.4-.1.6-.2.8-.2.2 0 .4-.1.7-.1.3 0 .4-.1.4-.1.4-.1.7-.1 1-.2l.9-.3c.1 0 .2-.1.3-.2.1 0 .2-.1.3 0 .1 0 .2.1.3.3.2.7.4 1.3.6 1.9 0 .2 0 .3-.1.4-.1.1-.2.1-.3.1-.1 0-.2.1-.3.1-.3.1-.6.1-.8.2-.3.1-.6.1-.9.2-.1 0-.2 0-.4.1-.1 0-.3 0-.4.1-.2 0-.4.1-.5.1-.2.1-.4.1-.5.2-.1 0-.2.1-.5.1-.2.1-.4.1-.7.2-.2.1-.5.1-.7.2-.2.1-.4.1-.5.1-.1 0-.2 0-.2.1-.1 0-.2.1-.3.1h-.3c-.1 0-.2-.1-.3-.2 0-.2-.1-.3-.1-.5zm-3.2 4v.9c0 .3 0 .6-.1.9v5.9c0 .6 0 .9-.1 1.2v3.8c0 .6 0 1.2.1 1.7v3.4c0 .2-.1.3-.3.4-.2.1-.3.1-.4.2-.4.1-.8.2-1.2.2h-1.4c-.3-.1-.5-.2-.5-.4-.2-.4-.3-.7-.3-1v-.6-.6-.8-1.4-1.5-1-1.1V17v-.8-.9-.7c0-.2-.1-.2-.2-.2-.2.4-.3.8-.5 1.1-.2.4-.3.8-.4 1.2-.1.2-.1.5-.2.8l-.3.9c-.1.3-.2.6-.3.8l-.2.4c0 .1-.1.2-.1.2 0 .1-.1.1-.1.2-.2.3-.4.5-.6.5-.2 0-.4 0-.5-.1-.2-.1-.4-.3-.5-.6-.3-.4-.4-.9-.5-1.4-.1-.5-.2-1-.4-1.6-.1-.4-.2-.8-.4-1.2-.2-.4-.3-.8-.5-1.2-.1 0-.1 0-.2.2v10.5c0 .3-.1.6-.2 1-.1.2-.3.3-.5.4-.5 0-1 .1-1.4 0-.4 0-.8-.1-1.2-.2-.1 0-.3-.1-.4-.2-.2-.1-.3-.2-.3-.4v-.4-.8-.8-.4-1c0-.5.1-1.1.1-1.7v-2-1.8-1.1c0-.5 0-1.1-.1-1.7v-1.7-1.1-1.4-.9-2.5-.5c0-.2 0-.3.1-.5 0-.2.2-.3.3-.3.2 0 .3-.1.5-.1.2-.1.3-.1.5-.1h2.6c.2 0 .3.2.4.4.1.2.2.5.3.8.1.3.1.6.2.9.1.3.1.6.2.8.2.4.3.9.4 1.3.1.4.3.9.4 1.3 0 .2.2.5.3 1.1.2.6.4 1.2.6 1.9.2-.7.4-1.4.6-2 .2-.6.3-1 .3-1.1.1-.4.2-.9.4-1.3s.3-.9.4-1.3c.1-.2.1-.4.2-.8.1-.3.1-.6.2-.9.1-.3.2-.6.3-.8.1-.2.2-.4.4-.4h2.6c.2 0 .3.1.5.1s.3.1.5.1c.2.1.3.2.3.3 0 .2.1.3.1.5v1.3c.5.3.5.5.5.8zm-30.4 1v15.2c0 .1 0 .2-.1.3 0 .1-.1.2-.2.2h-.8c-.2 0-.4-.1-.6-.1-.2 0-.4-.1-.5-.1-.1 0-.3-.1-.5-.2-.3-.1-.6-.3-1.1-.5-.5-.3-.9-.6-1.1-.9-.3-.3-.5-.6-.7-.9-.3-.4-.5-.7-.7-1-.2-.3-.3-.7-.5-1.2-.1-.2-.1-.5-.2-.8 0-.3-.1-.7-.1-1.1s-.1-.7-.1-1v-.6V15c.1-.4.1-.8.2-1.2 0-.2.1-.4.1-.6.1-.2.1-.4.2-.6.1-.3.2-.6.4-.9s.4-.7.6-1c.2-.2.3-.4.4-.6.1-.2.2-.3.4-.4.1-.1.2-.3.4-.4.1-.1.3-.2.5-.4.4-.2.8-.5 1.3-.8.5-.3 1-.5 1.4-.5.4 0 .8 0 1.1-.1.3 0 .4 0 .4.1.1 0 .1.1.1.3 0 .2.1.3.1.5v.5c0 .2-.4 0-.4 0zm8.7 6.8v1.2c-.1.4-.1.8-.2 1.2 0 .2-.1.4-.1.6-.1.2-.1.4-.2.6-.1.3-.2.6-.4.9-.2.3-.3.7-.5 1-.2.2-.3.4-.5.6-.1.2-.3.3-.4.4-.1.1-.2.2-.4.3-.1.1-.3.2-.5.4-.4.2-.8.5-1.3.8-.5.3-.9.5-1.4.5-.4 0-.8.1-1.1.1-.3 0-.4 0-.4-.1-.1 0-.1-.1-.1-.3 0-.2-.1-.3-.1-.5v-.5-.2-1.5-1.6-1.4-.8-1.2-1.6-1.4-.7-.7-1.3-1.3-.7V8v-.5-.3c0-.1.1-.2.2-.2h.9c.4.1.8.1 1.1.2.1 0 .3.1.5.2.3.1.6.3 1 .5.5.3.9.6 1.1.9.3.3.5.6.7.9.3.4.5.7.7 1 .2.3.3.7.5 1.2.1.2.1.5.2.8.1.3.1.7.1 1.1 0 .4.1.7.1 1 .5.6.5.8.5.9zm-18.6 10.2c.1.2.1.5.1.7 0 .2.1.5.1.8v.5c-.1.1-.2.1-.5.2-.2.1-.5.1-.8.1H180c-.3-.1-.5-.2-.6-.3-.1-.1-.2-.4-.2-.8 0-.2 0-.5-.1-.7 0-.2-.1-.5-.1-.7-.1-.6-.2-1.3-.3-1.9-.1-.6-.2-1.3-.3-1.9-.1-.4-.1-.8-.2-1.2-.1-.4-.1-.8-.2-1.2 0-.3-.1-.6-.2-.8-.1-.3-.1-.5-.2-.8-.2-.6-.3-1.3-.4-1.9-.1-.6-.2-1.3-.4-1.9 0-.2 0-.3.1-.5.1-.1.3-.2.5-.2h2.1c.2 0 .4 0 .5.1.2.1.4.3.5.6.2.8.4 1.7.5 2.5.2.9.3 1.7.5 2.6 0 .3.1.6.2.9.1.3.2.6.2.9l.6 2.4c.4.9.6 1.7.8 2.5zm-.2-21.2c.7.9 1 1.9.9 3.1 0 .5-.1.9-.3 1.3-.2.4-.3.8-.6 1.3-.1.2-.3.5-.5.7l-.6.6c-.5.5-1.1.8-1.7 1-.6.2-1.3.3-2 .4-.4 0-.7 0-1.1-.2-.4-.2-.6-.4-.6-.8v-.7-.7-.9-.9-.6-.6-1.3-1.3-.6c0-.2.1-.4.1-.6 0-.2.1-.4.2-.5.1-.1.3-.1.5-.2.3 0 .6-.1.9-.1.3 0 .6-.1.9-.1h1.2c.4.1.8.2 1.1.4.3.2.6.3.8.5.4.3.6.5.8.8zm-7 22.1v1.1c-.1.1-.3.2-.6.3-.5.1-.8.1-1.1.1h-1.5c-.1 0-.2 0-.3-.1-.2-.2-.3-.4-.3-.7v-.3-.3-1.4-1.4c0-.8.1-1.5 0-2.3 0-.7 0-1.5-.1-2.3V18c0-.5.1-1 .1-1.5 0-.4 0-.9.1-1.3v-1.3-.8-1-1.4-1.5-1-1-1.4-1.4c0-.2.1-.4.1-.5 0-.2.1-.3.1-.5.1-.2.2-.4.5-.4h2c.2 0 .4.1.5.2.1.1.2.2.2.5.1.5.2 1 .2 1.4 0 .5 0 .9.1 1.4v2.8c0 .7.1 1.4 0 2 0 .6 0 1.3-.1 2v1.6c0 .6-.1 1.2 0 1.8v2.6c0 .3 0 .6.1.9v6.6z"/>
  <path class="st0" d="M274.2 8.9V19.8c0 .4 0 .8-.1 1.3v3c0 .1 0 .2-.1.3 0 .1-.1.2-.2.2h-.8c-.2 0-.4-.1-.6-.1-.2 0-.4-.1-.5-.1-.1 0-.3-.1-.5-.2-.3-.1-.6-.3-1-.5-.5-.3-.9-.6-1.1-.9-.3-.3-.5-.6-.7-.9-.3-.4-.5-.7-.7-1-.2-.3-.3-.7-.5-1.2-.1-.2-.1-.5-.2-.8 0-.4-.1-.7-.1-1.1 0-.4-.1-.7-.1-1v-.6V15c.1-.4.1-.8.2-1.2 0-.2.1-.4.1-.6.1-.2.1-.4.2-.6.1-.3.2-.6.4-.9.2-.3.4-.7.6-1 .2-.2.3-.4.4-.6.1-.2.2-.3.4-.4.1-.1.2-.3.4-.4.1-.1.3-.2.5-.4.4-.2.8-.5 1.3-.8.5-.3 1-.5 1.4-.5.4 0 .8 0 1.1-.1.3 0 .4 0 .4.1.1 0 .1.1.1.3 0 .2.1.3.1.5v.5c-.4-.1-.4 0-.4 0m8.6 6.8v1.2c-.1.4-.1.8-.2 1.2 0 .2-.1.4-.1.6-.1.2-.1.4-.2.6-.1.3-.2.6-.4.9-.2.3-.3.7-.5 1-.2.2-.3.4-.5.6-.1.2-.3.3-.4.4-.1.1-.2.2-.4.3-.1.1-.3.2-.5.4-.4.2-.8.5-1.3.8-.5.3-.9.5-1.4.5-.4 0-.8.1-1.1.1-.3 0-.4 0-.4-.1-.1 0-.1-.1-.1-.3 0-.2-.1-.3-.1-.5v-.5-.2-1.5-1.6-1.4-.8-1.2-1.6-1.4-.7-.7-1.3-1.3-.7V8v-.5-.3c0-.1.1-.2.2-.2h.9c.4.1.8.1 1.1.2.1 0 .3.1.5.2.3.1.6.3 1 .5.5.3.9.6 1.1.9.3.3.5.6.7.9.3.4.5.7.7 1 .2.3.3.7.5 1.2.1.2.1.5.2.8s.1.7.1 1.1c0 .4.1.7.1 1 .5.6.5.8.5.9zM264.4 3.6c.1.2.2.4.4.7.1.3.2.8.1 1.3-.1.1-.1.2-.2.3 0 .1-.1.2-.2.2-.1.1-.2.1-.3.2-.1.1-.3.2-.5.3-.2.1-.3.2-.4.2l-.2.2s-.1.1-.2.1-.2.1-.3.2c-.6.4-1.2 1-1.7 1.7s-.9 1.5-1.3 2.5c-.1.2-.2.4-.2.6-.1.2-.1.4-.2.6-.4 1.5-.5 2.9-.3 4.2v.7c0 .2.1.4.2.8.1.3.2.6.3 1l.3.9c.1.3.2.5.2.6.3.7.7 1.3 1 1.7.3.4.8.8 1.4 1.2.4.3.7.4 1 .5.2.1.5.2.7.2h.1l.4.2c.1.1.1.2.1.4 0 .3 0 .6-.1 1 0 .3-.1.7-.3 1-.3.6-.7 1-1.3 1h-.4c-1.1-.3-2.3-1-3.6-2.3-1.2-1.1-2-2.3-2.5-3.4-.5-1.2-.8-2.2-.9-3.1-.1-.5-.2-1-.2-1.4 0-.4 0-.8-.1-1.1v-.3-1c0-.3 0-.7.1-1v-.3-.3c0-.7.1-1.5.4-2.4.1-.5.3-1 .4-1.5.2-.4.3-.8.5-1.2.8-1.6 1.6-2.8 2.4-3.5l.4-.4c.3-.3.5-.5.8-.7s.5-.4.7-.5c.2-.1.5-.3.7-.4l.9-.3c.5-.2.9-.2 1.2-.1.2.1.4.2.5.4.1.2.1.2.2.3 0-.1 0 0 0 0zm-11.9-.4c.3.2.5.5.7.9.2.4.2.9.1 1.3 0 .3-.1.6-.3.8-.1.2-.4.4-.7.6-.1.1-.3.1-.5.1s-.4.1-.6.1c-.4 0-.9-.2-1.3-.5s-.6-.7-.7-1.1c-.1-.8.1-1.5.7-1.9.7-.6 1.5-.7 2.4-.4 0 0 .1 0 .2.1zm.4 23.2c0 .1 0 .3.1.4 0 .1 0 .3.1.4.1.2.1.4 0 .7-.1.3-.3.4-.5.4-1 .1-1.9.1-2.8 0-.2 0-.4-.2-.4-.5 0-.2-.1-.5-.1-.8v-.9c0-.7.1-1.5.1-2.2 0-.7 0-1.5.1-2.2v-1-1-1.4-1.4-1.2-1.9-1.9-1.3-.7-.7-.4-.4c0-.2.2-.3.4-.4h1.4c.3 0 .7 0 1 .1.2 0 .4.1.5.2.1.1.1.3.1.4V26.4z"/>
</svg>