<svg xmlns="http://www.w3.org/2000/svg" width="108.2" height="114" viewBox="0 0 108.2 114">
  <style>
    .st4{fill:#4bc8f1}.st6{fill:#fdca99}
  </style>
  <path fill="#9aa1a4" d="M12.5 21.2l-1.4 10.6-6.6 1.9 3.1 9.8L1 46.8l5.5 7.9-5.2 4.9 7.1 9.8L5.2 74l7.8 4.7v7.4l8.8 3.5.5 6.2 9.2 1.1 4.2 6.3 5.9-1.9 6.6 6.2 7.3-5.1 5.8 5.1 7.3-7.1 6.6 3.6 4.9-8.2 7.4 1.6 1.6-10.6 6.9-1.4.4-7 7.7-3.9-1.1-9 4.3-4.6-4-8.9 4-6.3-7-5.4 3.8-7.7-8.1-3.2.8-9.6-9.3-.8.5-7.4-10.1.7-3.8-8.2-7.4 4L59.4 1l-5.5 7.1-7-7.1-6.1 6.3-6.5-3.9-2.8 9.3-10.8-1.1-1.1 10.1z"/>
  <path fill="#f9bcc9" d="M12.5 21.2l-1.4 10.6-6.6 1.9 3.1 9.8L1 46.8l5.4 7.9-5.1 4.9 7.1 9.8L5.2 74l7.8 4.7v7.4l8.8 3.5.5 6.2 9.2 1.1 4.2 6.3 5.9-1.9 6.6 6.2 7.3-5.1 5.8 5.1 7.3-7 6.6 3.5 4.9-8.2 7.4 1.6 1.6-10.6 6.9-1.4.4-7 7.7-3.9-1.1-9 4.3-4.6-4-8.9 4-6.3-7-5.4 3.8-7.7-8.1-3.2.8-9.6-9.3-.8.5-7.4-10.1.7-3.8-8.2-7.4 4L59.3 1l-5.4 7.1-7-7.1-6.1 6.3-6.5-3.9-2.8 9.3-10.8-1.1-1.2 10.1z"/>
  <path fill="none" stroke="#54caf2" stroke-width="1.431" stroke-miterlimit="10" d="M12.6 21.2l-1.5 10.6-6.5 1.9 3 9.8-6.5 3.3 5.4 7.9-5.1 4.9 7 9.8L5.2 74l7.8 4.6V86l8.8 3.5.5 6.3 9.3 1.1 4.1 6.2 5.9-1.9 6.6 6.3 7.3-5.2 5.8 5.2 7.3-7.1 6.6 3.5 4.9-8.1 7.4 1.6 1.6-10.6 6.8-1.4.5-7.1 7.7-3.8-1.2-9 4.4-4.6-4-8.9 4-6.3-7.1-5.4 3.9-7.7-8.2-3.2.8-9.6-9.2-.8.4-7.4-10 .7L74 4.1l-7.3 4-7.4-7-5.4 7-7-7-6.1 6.2-6.5-3.8-2.7 9.3-10.9-1.2-1.1 10.1z"/>
  <g>
    <path d="M41.2 86.7h24.6c9.5 0 17.3 7.8 17.3 17.4v9.4h-57V102c0-8.5 6.8-15.3 15.1-15.3" fill="#fff"/>
    <path class="st4" d="M60.6 112.4V87.6c0 3.9-3.2 7-7 7s-7-3.1-7-7v25h14v-.2z"/>
    <path d="M32.6 98.2c-.1.5.3 1 .8 1 .5.1 1-.3 1-.8.6-4.3 2.9-8 6.4-10.7 3.5-2.7 8.2-4.4 13.3-4.4 5.5 0 10.5 1.9 14.1 5 3.5 3.1 5.7 7.3 5.7 12 0 .5.4.9.9.9s.9-.4.9-.9c0-5.2-2.5-9.9-6.4-13.4-3.9-3.4-9.3-5.5-15.3-5.5-5.5 0-10.5 1.8-14.4 4.8-3.7 3-6.4 7.2-7 12"/>
    <path d="M79.9 79.5V44.7c0-14.5-11.8-26.4-26.3-26.4S27.3 30.2 27.3 44.7v34.7l9.3 3.6H71l8.9-3.5zm-42.1-32c8.9-.6 16.5-5 20.3-11.1 2.5 4.7 7 8.4 12.6 10.6.4 1.4.9 2.7 1.5 3.7.8-.4 1.6-.6 2.6-.6 2.8 0 5 1.9 5 4.2 0 2.3-2.3 4.3-5 4.3h-.5c0 9.8-9.2 17.7-20.4 17.7-11.3 0-20.4-7.9-20.4-17.7-2.6-.2-4.6-2-4.6-4.2 0-2.3 2.2-4.2 5-4.2.7 0 1.3.1 1.8.3.5-1 1.2-2 2.1-3" fill="#98644d"/>
    <path class="st6" d="M53.9 76.2c11.3 0 20.4-7.9 20.4-17.7h.5c2.8 0 5-1.9 5-4.3 0-2.3-2.3-4.2-5-4.2-.9 0-1.8.2-2.6.6-.6-1-1.1-2.3-1.5-3.7-5.6-2.1-10.1-5.9-12.6-10.6-3.9 6.2-11.5 10.5-20.3 11.1-.9 1.1-1.6 2.1-2.1 2.9-.6-.2-1.2-.3-1.8-.3-2.8 0-5 1.9-5 4.2 0 2.2 2 4 4.6 4.2 0 9.9 9.1 17.8 20.4 17.8"/>
    <path d="M53.5 26.3c14.5 0 26.3 11.8 26.3 26.3v-7.9c0-14.5-11.8-26.4-26.3-26.4S27.2 30.2 27.2 44.7v7.9c.1-14.5 11.9-26.3 26.3-26.3" fill="#d98b65"/>
    <path d="M50.3 51.5c-.4-.3-1-.2-1.3.3-.6.9-1.7 1.5-2.8 1.5-1.1 0-2.1-.5-2.8-1.5-.3-.5-.9-.6-1.3-.3s-.5.9-.2 1.4c1 1.5 2.6 2.3 4.3 2.3 1.7 0 3.4-.9 4.4-2.3.3-.4.2-1-.3-1.4"/>
    <path d="M65.8 51.5c-.4-.3-1-.2-1.3.3-.6.9-1.7 1.5-2.8 1.5-1.1 0-2.1-.5-2.8-1.5-.3-.5-.9-.6-1.3-.3s-.5.9-.2 1.4c1 1.5 2.6 2.3 4.3 2.3 1.7 0 3.4-.9 4.4-2.3.2-.4.1-1-.3-1.4"/>
    <path d="M71.4 26.8c-4.6-4.6-10.9-7.4-17.9-7.4-6.9 0-13.3 2.9-17.9 7.4-4.6 4.6-7.5 10.9-7.5 17.9v34.1l8.5 3.3h34l8.1-3.3V44.7c.2-7-2.7-13.3-7.3-17.9m-17.9-9.4c7.5 0 14.3 3.1 19.3 8 4.9 5 8 11.8 8 19.3V80.1l-.6.3-8.9 3.6-.2.1H36.4l-.1-.1-9.3-3.6-.6-.2V44.7c0-7.5 3.1-14.3 8-19.3 4.8-4.9 11.7-8 19.1-8"/>
    <path d="M70.5 49.3c-.2-.5-.4-1.1-.5-1.6-2.7-1.1-5.2-2.5-7.3-4.3-1.8-1.5-3.3-3.3-4.5-5.2-2 2.7-4.7 5-7.9 6.8-3.5 1.9-7.5 3.1-11.9 3.5-.3.4-.6.8-.9 1.1-.3.5-.6.9-.9 1.3l-.4.7-.7-.2c-.2-.1-.5-.1-.7-.2-.2 0-.5-.1-.8-.1-1.1 0-2.2.4-2.9 1-.7.6-1.1 1.4-1.1 2.2 0 .8.4 1.6 1 2.1.7.6 1.6 1 2.7 1.1l.9.1v.9c0 4.6 2.2 8.8 5.7 11.8 3.5 3.1 8.4 5 13.8 5s10.3-1.9 13.8-5c3.5-3 5.6-7.2 5.7-11.8v-1.1l1.1.1h.4c1.1 0 2.2-.4 2.9-1 .7-.6 1.1-1.4 1.1-2.3 0-.9-.4-1.7-1.1-2.2-.7-.6-1.8-1-2.9-1-.4 0-.7.1-1.1.1-.3.1-.7.2-1 .4l-.8.4-.5-.8c-.6-.5-.9-1.2-1.2-1.8m1.2-2.7c.2.7.4 1.4.6 1.9.1.3.2.6.3.8.2-.1.4-.1.6-.1.5-.1 1-.2 1.5-.2 1.6 0 3.1.5 4.2 1.5 1.1.9 1.8 2.3 1.8 3.7 0 1.5-.7 2.8-1.8 3.7-1 .8-2.3 1.4-3.7 1.5-.3 4.8-2.7 9.1-6.3 12.2C65 74.9 59.7 77 53.8 77s-11.2-2.1-15.1-5.4c-3.7-3.2-6.1-7.6-6.3-12.4-1.1-.2-2.2-.8-2.9-1.5-1-.9-1.7-2.2-1.7-3.6 0-1.5.7-2.8 1.8-3.7 1.1-.9 2.6-1.5 4.2-1.5.4 0 .7 0 1.1.1h.3c.2-.2.3-.5.5-.8.4-.5.8-1 1.2-1.6l.3-.3h.4c4.2-.3 8.2-1.4 11.5-3.3 3.4-1.9 6.2-4.4 8.1-7.4l.9-1.4.8 1.5c1.2 2.2 2.8 4.2 4.9 5.9 2.1 1.7 4.5 3.1 7.2 4.2l.5.2.2.6z"/>
    <path d="M44.6 93l.5.4v-7.1c-.5.4-.9.9-1.4 1.4-.7.9-1.3 1.9-1.8 3.1 1.4 1.2 2.7 2.2 2.7 2.2m-2.3 11c.7 1.5 1.7 2.7 2.7 3.6V94.2l-.6.3-3.7 2v.5c.1 2.6.6 5 1.6 7m3.3 6.1c-2-1.1-3.7-2.9-4.9-5.3-1.1-2.3-1.8-5-1.8-7.9v-1.5l.5-.3 2.9-1.5c-.6-.5-1.3-1.1-2.1-1.7l-.5-.4.2-.6c.6-1.6 1.3-3 2.3-4.2 1-1.2 2.1-2.2 3.3-2.8l1.3-.7v27.7l-1.2-.8z"/>
    <path d="M62.3 93.4l.5-.4s1.3-1 2.7-2.2c-.5-1.1-1.1-2.2-1.8-3.1-.4-.5-.9-1-1.4-1.4v7.1zm4.4 11.5c-1.2 2.3-2.9 4.2-4.9 5.3l-1.3.7V83.1l1.3.7c1.2.6 2.4 1.6 3.3 2.8.9 1.2 1.7 2.6 2.3 4.2l.2.6-.5.4c-.8.6-1.5 1.3-2.1 1.7l2.9 1.5.5.3V97c.1 2.9-.5 5.6-1.7 7.9m-4.4 2.7c1.1-.9 2-2.1 2.7-3.6 1-2 1.6-4.4 1.6-7.1v-.5l-3.7-2-.7-.3v13.5z"/>
    <path d="M27.3 100.4c0-.1 0-.2-.1-.3v-.2c.1-2.8 1.1-5.4 2.7-7.4s3.8-3.4 6.3-3.9c.7-.1 1.1-.8.9-1.4-.1-.7-.8-1.1-1.5-.9-2.9.5-5.6 2.2-7.6 4.7-1.9 2.4-3.1 5.5-3.2 8.8 0 .1 0 .2.1.3v12.2c0 .7.6 1.2 1.2 1.2h19.1c.7 0 1.2-.5 1.2-1.2s-.5-1.2-1.2-1.2H27.3v-10.7z"/>
    <path d="M59.9 61.4c-.6-.5-1.5-.3-2 .4-.9 1.3-2.4 2.2-4.1 2.2-1.6 0-3.1-.8-4.1-2.2-.4-.7-1.3-.8-2-.4-.6.5-.8 1.3-.3 2 1.5 2.2 3.8 3.4 6.4 3.4 2.6 0 4.9-1.3 6.4-3.4.5-.7.4-1.6-.3-2"/>
    <path class="st4" d="M33.5 98.9c1.4 0 2.5 1.1 2.5 2.4 0 1.3-1.1 2.4-2.5 2.4s-2.5-1.1-2.5-2.4c0-1.3 1.1-2.4 2.5-2.4"/>
    <path d="M34.7 100.2c-.3-.3-.7-.4-1.2-.4s-.9.2-1.1.4c-.3.3-.5.6-.5 1s.2.7.5 1c.3.3.7.4 1.1.4.5 0 .9-.2 1.2-.4.3-.3.4-.6.4-1 0-.3-.2-.7-.4-1M33.5 98c.9 0 1.8.4 2.4.9.6.6 1 1.5 1 2.4 0 .9-.4 1.7-1 2.3-.6.6-1.5 1-2.4 1-.9 0-1.8-.4-2.4-1-.6-.6-1-1.4-1-2.3 0-.9.4-1.7 1-2.3.6-.7 1.5-1 2.4-1"/>
    <path d="M81.1 99.9c0 .7.6 1.2 1.3 1.2.7 0 1.2-.6 1.2-1.3-.1-3.3-1.3-6.4-3.2-8.8-1.9-2.4-4.6-4.2-7.8-4.8-.7-.1-1.3.3-1.4.9-.1.7.3 1.3.9 1.4 2.5.5 4.7 2 6.3 3.9 1.6 2.1 2.6 4.7 2.7 7.5"/>
    <path d="M83.5 100.4c0-.7-.5-1.2-1.2-1.2s-1.2.5-1.2 1.2v11.8c0 .7.5 1.2 1.2 1.2s1.2-.6 1.2-1.2v-11.8z"/>
    <path d="M82.3 113.7c.7 0 1.2-.5 1.2-1.2s-.6-1.2-1.2-1.2H60.6c-.7 0-1.2.6-1.2 1.2 0 .7.5 1.2 1.2 1.2h21.7z"/>
    <path d="M74.7 99.3h.9c1.1 0 2.1.5 2.8 1.2.7.7 1.2 1.7 1.2 2.8v5.2c.1.1.1.3.1.5 0 .1 0 .3-.1.4-.2.5-.8.8-1.4.8-.9 0-1.5-.5-1.5-1.2 0-.4.2-.7.5-1v-4.6c0-.4-.2-.8-.5-1.1-.3-.3-.7-.5-1.1-.5h-.9c-.4 0-.8.2-1.1.5-.3.3-.5.7-.5 1.1v4.7c.3.2.5.6.5.9 0 .7-.7 1.2-1.5 1.2s-1.6-.5-1.6-1.2c0-.2.1-.3.1-.5v-5.1c0-1.1.4-2.1 1.2-2.8.8-.9 1.8-1.3 2.9-1.3"/>
    <path class="st6" d="M53.5 94.6c3.9 0 7-3.1 7-7v-4.2h-14v4.2c0 3.8 3.2 7 7 7"/>
    <path fill="none" stroke="#000" stroke-width="2.862" stroke-linecap="round" stroke-miterlimit="10" d="M46.5 83.4h14v29.2h-14z"/>
    <path d="M45.3 82.1h1.2v1.2h-1.2v-1.2zm0 1.3h2.4v4.2h-2.4v-4.2zm2.4 10c-1.5-1.5-2.4-3.6-2.4-5.8h2.4c0 1.6.7 3 1.7 4.1l-1.7 1.7zm5.8 2.4c-2.2 0-4.3-.9-5.8-2.4l1.7-1.7c1.1 1 2.5 1.7 4.1 1.7v2.4zm0 0v-2.5 2.5zm5.9-2.4c-1.5 1.5-3.6 2.4-5.8 2.4v-2.5c1.6 0 3.1-.7 4.1-1.7l1.7 1.8zm2.4-5.8c0 2.3-.9 4.3-2.4 5.8l-1.7-1.7c1-1.1 1.7-2.5 1.7-4.1h2.4zm0 0h-2.4v-4.2h2.4v4.2zm-1.2-5.5h1.2v1.2h-1.2v-1.2zm-14.1 0h14v2.5h-14v-2.5z"/>
  </g>
</svg>