<svg xmlns="http://www.w3.org/2000/svg" width="352.3" height="97.3" viewBox="0 0 352.3 97.3">
  <style>
    .st3{fill:#08143c}
  </style>
  <path fill="#5bcbf5" d="M26.4 26.4h325.9v70.8H26.4z"/>
  <path fill="#f9c3d3" d="M0 0h325.9v70.8H0z"/>
  <path fill="#fff" stroke="#08143c" stroke-width="5.6693" stroke-linecap="round" stroke-miterlimit="22.9256" d="M16.2 15.7h318.1v69.1H16.2z"/>
  <path class="st3" d="M133.1 59.8V62.2c-.1.3-.3.4-.6.4-.4.1-.9.2-1.4.3-.5.1-.9.1-1.4.1H123.5c-.2 0-.3 0-.5-.1-.2 0-.4-.1-.4-.3V62v-1.5V51v-.3-.3c0-.2 0-.3.1-.5v-1.5-.6-1.2-1.2c-.1-.5-.1-.9-.2-1.4-.1-.5-.1-.9-.1-1.4V41v-.6-.6-.3c0-.1 0-.2-.1-.3v-.1c0-.3.1-.4.3-.5.2-.3.9-.4 1.9-.5h1.4c.7-.1 1.3-.1 2-.1s1.3 0 2 .1h1.1c.8.1 1.3.1 1.5.3.2.1.4.4.5.7V40.9c0 .3 0 .5-.1.6-.1.3-.2.4-.6.5l-1.5.3c-.5.1-1 .1-1.5.1h-3v1.9c0 .5 0 .9.1 1.4.1.5.1 1 .1 1.5s0 1-.1 1.5v3H131.2c.5.1.8.2.9.6v.4c-.1.4-.1.9-.1 1.3s-.1.9-.1 1.3c-.1.4-.4.6-1.1.6-.7-.1-1.4-.1-2.2-.1H126.3V58.2c0 .2 0 .4-.1.5v.8c.6-.1 1.2-.1 1.9-.1.6 0 1.2 0 1.8.1h1c.7.1 1.2.1 1.4.3.5-.6.7-.3.8 0m-13.6-23.7c.1.2.3.5.4.9.2.4.2.9.1 1.6-.1.2-.1.3-.2.4-.1.1-.1.2-.2.3-.1.1-.2.2-.4.3-.2.1-.4.2-.6.4-.2.1-.3.2-.4.3-.1.1-.2.1-.3.2l-.2.2c-.1.1-.2.1-.3.2-.7.5-1.4 1.2-2 2-.6.8-1.1 1.8-1.6 3-.1.3-.2.5-.3.8-.1.2-.2.5-.2.7-.5 1.8-.6 3.4-.4 5v.7c0 .2.1.5.2.9s.2.7.3 1.1c.1.4.2.7.3 1.1.1.3.2.5.3.7.4.8.8 1.5 1.2 2 .4.5 1 1 1.7 1.4.5.3.9.5 1.2.6l.9.3h.2c.3.1.5.2.5.3.1.1.1.3.1.5 0 .4 0 .7-.1 1.1l-.3 1.2c-.3.7-.8 1.1-1.6 1.1h-.5c-1.3-.3-2.8-1.2-4.3-2.8-1.4-1.3-2.3-2.7-2.9-4.1-.6-1.4-.9-2.6-1.1-3.7-.1-.6-.2-1.2-.2-1.7s-.1-1-.1-1.3v-.3-1.2c0-.4.1-.8.1-1.2v-.4-.4c0-.8.2-1.8.4-2.8.2-.6.3-1.2.5-1.7s.4-1 .6-1.4c.9-1.9 1.9-3.3 2.9-4.1l.5-.5c.3-.3.6-.6.9-.8.3-.2.5-.4.8-.6.3-.2.6-.3.9-.4.3-.1.7-.3 1.1-.4.6-.2 1.1-.3 1.4-.2.3.1.5.3.6.5 0 0 0 .1.1.2 0-.1 0-.1 0 0zm-22.2 6.2V55.4c0 .5 0 1-.1 1.5v2.3c0 .2 0 .4-.1.6 0 .2 0 .4-.1.6 0 .1 0 .2-.1.3-.1.1-.1.2-.3.2h-.4c-.2 0-.4 0-.6-.1-.2 0-.5-.1-.7-.1-.2 0-.4-.1-.6-.2-.1-.1-.3-.1-.6-.3-.3-.1-.7-.3-1.2-.6-.6-.3-1-.7-1.3-1-.3-.4-.6-.7-.8-1.1-.4-.4-.6-.8-.8-1.2-.2-.3-.4-.8-.6-1.4-.1-.2-.1-.6-.2-1s-.1-.8-.2-1.3c-.1-.4-.1-.8-.1-1.2 0-.4-.1-.6-.1-.7-.1-.5 0-1 0-1.4.1-.5.1-.9.3-1.4.1-.2.1-.5.2-.7.1-.2.1-.5.2-.8.1-.3.3-.7.4-1 .2-.4.4-.8.7-1.2.2-.3.4-.5.5-.7.1-.2.3-.3.4-.5.1-.2.3-.3.4-.4.2-.1.3-.3.5-.5.4-.3.9-.6 1.5-.9.6-.3 1.1-.5 1.7-.6.5 0 .9-.1 1.3-.1.3 0 .5 0 .5.2.1.1.1.2.2.3 0 .2.1.4.1.6v.7zm10.3 8.1c0 .5 0 1-.1 1.5s-.1.9-.3 1.4c-.1.3-.1.5-.2.7-.1.2-.1.5-.2.7-.1.3-.3.7-.4 1l-.6 1.2c-.2.3-.4.5-.5.7-.2.2-.3.4-.4.5l-.4.4c-.2.1-.3.3-.6.5-.4.3-.9.6-1.5.9-.6.3-1.1.5-1.7.6-.5.1-.9.1-1.3.1-.3 0-.5 0-.5-.1-.1-.1-.1-.2-.2-.4 0-.2-.1-.4-.1-.6V59v-.3-1.8V55v-1.6-1V51v-1.9-1.7-.9-.9c0-.5 0-1 .1-1.5 0-.5 0-1 .1-1.5v-.8c0-.2 0-.4.1-.6 0-.2 0-.4.1-.6v-.3c.1-.1.1-.2.3-.2.2 0 .5 0 1.1.1.5.1 1 .2 1.3.3.1.1.3.1.6.3.3.1.7.3 1.2.6.6.3 1 .7 1.3 1.1.3.4.6.7.9 1.1.4.4.6.8.8 1.2.2.3.4.8.5 1.4.1.2.1.6.2 1s.1.8.2 1.3c.1.4.1.8.1 1.2.1.3.1.6.1.7zm-30.4-1.9c-.1-.1-.2 0-.2.3v.9c0 .4 0 .8.1 1.2V52c.1.5.1 1 .1 1.5V63.1c0 .3 0 .5-.1.7-.1.2-.1.5-.2.7-.1.3-.3.4-.6.5-.6.1-1.2.1-1.6 0-.5 0-.9-.1-1.5-.2-.1-.1-.2-.1-.3-.1-.1 0-.2-.1-.3-.1-.2-.1-.3-.3-.3-.5v-.5-1.1-1.1-.6-1.3c0-.7.1-1.5.1-2.3v-2.7V52c0-.3-.1-.8-.1-1.6s-.1-1.6-.1-2.4c0-.8 0-1.6-.1-2.3v-1.4-2V41v-3.5-.7c0-.2.1-.5.1-.7 0-.2.2-.4.4-.5.2-.1.4-.1.5-.2.2-.1.4-.1.6-.1h2.6c.1 0 .3 0 .5.1s.3.2.4.6c.1.3.2.7.3 1.1l.3 1.2c.1.4.2.8.2 1.1.2.6.4 1.2.5 1.8.2.6.3 1.2.4 1.8 0 .2.1.5.2.9s.3 1 .4 1.5c.2.6.3 1.2.5 1.9s.3 1.3.5 1.9c.2.6.3 1.2.4 1.6.1.5.2.8.3 1 .1.2.1.4.2.6.1.2.1.4.2.7.1.1.1.1.2-.2 0-.2.1-.5.1-.9v-1.3c0-.5 0-1-.1-1.5V48v-1.8-.8-1.1-1.1-.8c0-.5-.1-1-.1-1.4 0-.4-.1-.9-.1-1.5v-1.6-1.3-.3-.3c0-.2.1-.3.2-.4.1-.1.4-.2.8-.3.1 0 .3-.1.5-.1s.5-.1.7-.1H85.1c.4 0 .6.1.8.4.2.2.2.5.2.8-.1.6-.1 1.2-.1 1.8 0 .6-.1 1.2-.1 1.8V49.8c0 .5 0 1.1-.1 1.7 0 .6 0 1.2-.1 1.7V63.5c0 .3-.1.6-.1.6-.1.2-.2.3-.4.4-.2.1-.5.1-.7.2h-1.7c-.2 0-.3 0-.5-.1s-.4-.1-.6-.1c-.3-.1-.5-.1-.7-.2-.4-.2-.6-.5-.7-.9l-.3-2.1c-.2-.7-.3-1.4-.4-2.1-.2-1.3-.5-2.6-.9-3.9-.4-1.3-.7-2.6-1-3.9-.1-.6-.3-1.1-.5-1.6.3-.2.1-.8 0-1.3zm-16.8-6.2V55.4c0 .5 0 1-.1 1.5v2.3c0 .2 0 .4-.1.6 0 .2 0 .4-.1.6 0 .1 0 .2-.1.3-.1.1-.1.2-.3.2h-.4c-.2 0-.4 0-.6-.1-.2 0-.5-.1-.7-.1-.2 0-.4-.1-.6-.2-.1-.1-.3-.1-.6-.3-.3-.1-.7-.3-1.2-.6-.6-.3-1-.7-1.3-1-.3-.4-.6-.7-.8-1.1-.4-.4-.6-.8-.8-1.2-.2-.3-.4-.8-.6-1.4-.1-.2-.1-.6-.2-1s-.1-.8-.2-1.3c-.1-.4-.1-.8-.1-1.2 0-.4-.1-.6-.1-.7-.1-.5 0-1 0-1.4.1-.5.1-.9.3-1.4.1-.2.1-.5.2-.7.1-.2.1-.5.2-.8.1-.3.3-.7.4-1 .2-.4.4-.8.7-1.2.2-.3.4-.5.5-.7.1-.2.3-.3.4-.5.1-.2.3-.3.4-.4.2-.1.3-.3.5-.5.4-.3.9-.6 1.5-.9.6-.3 1.1-.5 1.7-.6.5 0 .9-.1 1.3-.1.3 0 .5 0 .5.2.1.1.1.2.2.3 0 .2.1.4.1.6v.7zm10.2 8.1c0 .5 0 1-.1 1.5s-.1.9-.3 1.4c-.1.3-.1.5-.2.7-.1.2-.1.5-.2.7-.1.3-.3.7-.4 1l-.6 1.2c-.2.3-.4.5-.5.7-.2.2-.3.4-.4.5l-.4.4c-.2.1-.3.3-.6.5-.4.3-.9.6-1.5.9-.6.3-1.1.5-1.7.6-.5.1-.9.1-1.3.1-.3 0-.5 0-.5-.1-.1-.1-.1-.2-.2-.4 0-.2-.1-.4-.1-.6V59v-.3-1.8V55v-1.6-1V51v-1.9-1.7-.9-.9c0-.5 0-1 .1-1.5 0-.5 0-1 .1-1.5v-.8c0-.2 0-.4.1-.6 0-.2 0-.4.1-.6v-.3c.1-.1.1-.2.3-.2.2 0 .5 0 1.1.1.5.1 1 .2 1.3.3.1.1.3.1.6.3.3.1.7.3 1.2.6.6.3 1 .7 1.3 1.1.3.4.6.7.9 1.1.4.4.6.8.8 1.2.2.3.4.8.5 1.4.1.2.1.6.2 1s.1.8.2 1.3c.1.4.1.8.1 1.2.1.3.1.6.1.7zM48.9 36.1c.1.2.3.5.4.9.2.4.2.9.1 1.6-.1.2-.1.3-.2.4-.1.1-.1.2-.2.3-.1.1-.2.2-.4.3-.2.1-.4.2-.6.4-.2.1-.3.2-.4.3-.1.1-.2.1-.3.2l-.2.2c-.1.1-.2.1-.3.2-.7.5-1.4 1.2-2 2-.6.8-1.1 1.8-1.6 3-.1.3-.2.5-.3.8-.1.2-.2.5-.2.7-.5 1.8-.6 3.4-.4 5v.7c0 .2.1.5.2.9s.2.7.3 1.1c.1.4.2.7.3 1.1.1.3.2.5.3.7.4.8.8 1.5 1.2 2 .4.5 1 1 1.7 1.4.5.3.9.5 1.2.6l.9.3h.2c.3.1.5.2.5.3.1.1.1.3.1.5 0 .4 0 .7-.1 1.1l-.3 1.2c-.3.7-.8 1.1-1.6 1.1h-.5c-1.3-.3-2.8-1.2-4.3-2.8-1.4-1.3-2.3-2.7-2.9-4.1-.6-1.4-1-2.6-1.1-3.7-.1-.6-.2-1.2-.2-1.7s-.1-1-.1-1.3v-.3-1.2c0-.4.1-.8.1-1.2v-.4-.4c0-.8.2-1.8.4-2.8.2-.6.3-1.2.5-1.7s.4-1 .6-1.4c.9-1.9 1.9-3.3 2.9-4.1l.5-.5c.3-.3.6-.6.9-.8.3-.2.5-.4.8-.6.3-.2.6-.3.9-.4.3-.1.7-.3 1.1-.4.6-.2 1.1-.3 1.4-.2.3.1.5.3.6.5 0 0 0 .1.1.2-.1-.1 0-.1 0 0z"/>
  <path class="st3" d="M247.1 59.8V62.2c-.1.3-.3.4-.6.4-.4.1-.9.2-1.4.3-.5.1-.9.1-1.4.1H237.5c-.2 0-.3 0-.5-.1-.2 0-.4-.1-.4-.3V62v-1.5V51v-.3-.3c0-.2 0-.3.1-.5v-1.5-.6-1.2-1.2c-.1-.5-.1-.9-.2-1.4-.1-.5-.1-.9-.1-1.4V41v-.6-.6-.3c0-.1 0-.2-.1-.3v-.1c0-.3.1-.4.3-.5.2-.3.9-.4 1.9-.5h1.4c.7-.1 1.3-.1 2-.1s1.3 0 2 .1h1.1c.8.1 1.3.1 1.5.3.2.1.4.4.5.7V40.9c0 .3 0 .5-.1.6-.1.3-.2.4-.6.5l-1.5.3c-.5.1-1 .1-1.5.1h-3v1.9c0 .5 0 .9.1 1.4.1.5.1 1 .1 1.5s0 1-.1 1.5v3H245.2c.5.1.8.2.9.6v.4c-.1.4-.1.9-.1 1.3s-.1.9-.1 1.3c-.1.4-.4.6-1.1.6-.7-.1-1.4-.1-2.2-.1H240.3V58.2c0 .2 0 .4-.1.5v.8c.6-.1 1.2-.1 1.9-.1.6 0 1.2 0 1.8.1h1c.7.1 1.2.1 1.4.3s.7-.3.8 0m-13.8 2.6c.1.3.1.5.2.8 0 .2.1.5.1.9.1.3 0 .5 0 .6-.1.1-.3.2-.5.3-.3.1-.6.2-.9.2-.3 0-.6 0-.9.1h-.8c-.3 0-.6 0-.8-.1-.4-.1-.6-.2-.7-.3-.1-.1-.2-.4-.2-.9 0-.3-.1-.6-.1-.8 0-.3-.1-.5-.1-.8-.1-.7-.3-1.5-.4-2.2-.1-.7-.3-1.5-.4-2.2-.1-.5-.2-1-.2-1.4-.1-.5-.2-.9-.2-1.4-.1-.3-.1-.7-.2-1l-.3-.9c-.2-.7-.3-1.5-.4-2.3-.1-.8-.2-1.5-.4-2.3-.1-.2 0-.4.1-.6.1-.2.3-.3.6-.3h2.4c.2 0 .4 0 .6.1.3.1.5.3.6.7l.6 3c.2 1 .4 2 .6 3.1.1.4.1.7.2 1.1.1.4.2.7.3 1.1.2 1 .4 1.9.7 2.9 0 .7.2 1.7.5 2.6zm-.3-25.1c.9 1 1.2 2.2 1.1 3.6-.1.5-.2 1.1-.3 1.6-.2.5-.4 1-.7 1.5-.2.3-.3.5-.6.8l-.7.7c-.6.6-1.3 1-2.1 1.2-.7.3-1.5.4-2.4.4-.4 0-.8 0-1.2-.2-.5-.2-.7-.5-.7-.9v-.8-.8c0-.4 0-.7-.1-1 0-.3 0-.7.1-1v-.7c0-.2 0-.5-.1-.7v-1.6c0-.5 0-1.1-.1-1.6V37c0-.2.1-.5.1-.8.1-.3.1-.5.2-.6.1-.1.3-.2.6-.2.4-.1.7-.1 1.1-.2.3-.1.7-.1 1.1-.1.5-.1 1 0 1.5.1s.9.3 1.4.5c.4.2.7.4 1 .6.3.5.6.8.8 1zm-8.2 26.2c0 .7 0 1.1-.1 1.3-.1.2-.3.3-.7.4-.5.1-1 .1-1.3.1-.3 0-.7 0-1.2-.1h-.5c-.1 0-.3-.1-.4-.1-.3-.2-.4-.4-.4-.8V64v-.3-1.6-1.6c.1-.9.1-1.8.1-2.7 0-.9 0-1.8-.1-2.7v-1.7c0-.6.1-1.2.1-1.7s.1-1 .1-1.5v-1.5c0-.3 0-.6-.1-1v-1.1c0-.5 0-1.1-.1-1.7 0-.6 0-1.2.1-1.8v-1.2c0-.4-.1-.8-.1-1.2 0-.6 0-1.1-.1-1.7 0-.6 0-1.1.1-1.7 0-.2.1-.4.1-.6.1-.2.1-.4.2-.6.1-.3.3-.5.6-.5h2.4c.3 0 .5.1.6.2.1.1.2.3.3.5.1.6.2 1.1.2 1.7 0 .6 0 1.1.1 1.6 0 .4 0 .7.1.9 0 .2 0 .5-.1.9V43c.1.9.1 1.7 0 2.4 0 .7-.1 1.5-.1 2.3v1.9c-.1.7-.1 1.4 0 2.1v3.1c0 .3 0 .7.1 1.1V57.6l.1 5.9zm-7-3.7V62.2c-.1.3-.3.4-.6.4-.4.1-.9.2-1.4.3-.5.1-.9.1-1.4.1H208.2c-.2 0-.3 0-.5-.1-.2 0-.4-.1-.4-.3V62v-1.5V51v-.3-.3c0-.2 0-.3.1-.5v-1.5-.6-1.2-1.2c-.1-.5-.1-.9-.2-1.4-.1-.5-.1-.9-.1-1.4V41v-.6-.6-.3c0-.1 0-.2-.1-.3v-.1c0-.3.1-.4.3-.5.2-.3.9-.4 1.9-.5h1.4c.7-.1 1.3-.1 2-.1s1.3 0 2 .1h1.1c.8.1 1.3.1 1.5.3.2.1.4.4.5.7V40.9c0 .3 0 .5-.1.6-.1.3-.2.4-.6.5l-1.5.3c-.5.1-1 .1-1.5.1h-3v1.9c0 .5 0 .9.1 1.4.1.5.1 1 .1 1.5s0 1-.1 1.5v3H215.9c.5.1.8.2.9.6v.4c-.1.4-.1.9-.1 1.3s-.1.9-.1 1.3c-.1.4-.4.6-1.1.6-.7-.1-1.4-.1-2.2-.1H211V58.2c0 .2 0 .4-.1.5v.8c.6-.1 1.2-.1 1.9-.1.6 0 1.2 0 1.8.1h1c.7.1 1.2.1 1.4.3s.7-.3.8 0zM194 53v-1.7V49v-2.1-1.1c0-.1.1-.5.1-1.1 0-.6 0-1.2.1-1.9 0-.7 0-1.3.1-1.9v-1c0-.2 0-.5.1-.7 0-.2 0-.5.1-.7v-.2-.2c.1-.1.2-.2.3-.2h.5c.2 0 .5 0 .8.1.3 0 .6.1.9.2.3.1.5.1.8.2.1.1.4.2.8.3.4.2.9.4 1.6.8.7.4 1.2.8 1.6 1.3.4.5.8.9 1.1 1.3.4.5.8 1 1 1.5.2.4.5 1 .7 1.7.1.3.2.7.3 1.2.1.5.2 1 .2 1.6.1.5.1 1 .2 1.5.1.4.1.7.1.9.1.6 0 1.2 0 1.8l-.3 1.8c-.1.3-.1.6-.2.9l-.3.9c-.1.4-.3.8-.5 1.3s-.5 1-.8 1.5c-.3.4-.5.7-.7.9-.2.2-.4.4-.5.6-.2.2-.4.4-.6.5-.2.2-.4.4-.7.6-.5.3-1.2.7-1.9 1.1-.7.4-1.4.7-2.1.8-.6.1-1.2.1-1.6.1-.4 0-.6 0-.6-.2-.1-.1-.2-.2-.2-.5-.1-.2-.1-.5-.1-.7v-.7-.4-2.2-2.3-2c-.3-.7-.3-1.1-.3-1.3zm-13.5-8.8c-.3-.1-.5-.3-.5-.7 0-.3.1-.5.1-.7V42v-.8c0-.3-.1-.5-.1-.5-.1-.2-.2-.4-.3-.5-.1-.2-.3-.3-.5-.4-.2-.2-.6-.3-1-.2-.5.1-.8.3-1.1.6-.1.1-.2.3-.3.5-.1.2-.1.5-.1.7v.7c0 .2 0 .4.1.6.2 1 .5 1.8 1 2.6.3.4.5.7.8 1.1.3.4.5.8.8 1.1.4.5.7 1 .9 1.4.4.5.6.9.9 1.2.2.3.5.6.7 1 .8 1 1.4 2.1 1.9 3.3.5 1.1.7 2.4.9 3.6v1.9c-.1 1.5-.8 2.8-2 3.8-.1.1-.2.2-.3.2-.1.1-.2.2-.3.2-.4.3-.8.5-1.2.7-.4.2-.9.2-1.4.2H178c-.5 0-.9-.1-1.4-.2-.4-.1-.7-.2-.9-.4-.3-.2-.6-.4-.9-.7-.3-.3-.5-.5-.8-.7-.3-.2-.5-.5-.7-.8-.1-.1-.1-.2-.2-.3-.1-.1-.1-.2-.2-.3-.2-.5-.4-1-.5-1.6-.1-.5-.2-1.1-.2-1.7v-.9c0-.3 0-.7.1-1 0-.3.1-.6.1-.8 0-.2.1-.4.1-.4.2-.4.5-.6.9-.6h.4c.7.2 1.4.3 2.1.6.3.1.4.2.5.3.1.1.1.3.1.5-.1.3-.1.7-.1 1v1.2c.1.5.1.9.2 1.3s.2.7.5.9c.3.2.7.4 1.1.4.5.1.9 0 1.3-.3.3-.2.5-.5.7-.9.2-.4.3-.7.3-1.1 0-.4 0-.9-.2-1.4-.1-.5-.3-.9-.5-1.3s-.5-.9-.7-1.3c-.2-.4-.5-.8-.8-1.2-.3-.4-.5-.7-.7-1.1-.2-.4-.5-.8-.7-1.2-.2-.3-.4-.6-.5-.9l-.6-.9c-.4-.5-.7-1-.9-1.3l-.6-1.2c-.1-.1-.1-.3-.2-.4-.1-.1-.1-.2-.2-.3-.5-.7-.8-1.5-1-2.3-.2-.8-.3-1.6-.4-2.4-.1-1 0-2 .3-2.9.2-.7.6-1.3 1.1-1.7.8-.6 1.7-1 2.8-1.2.8-.1 1.7-.1 2.5 0 .9.1 1.6.4 2.3.8.4.3.7.6 1 .9.3.3.6.7.8 1.2l.3.9c.1.3.1.7.2 1v2.4c0 .9-.5 1.3-1.4 1.3h-1.6c-.1.3-.2.3-.3.2zm-22.6 2.6v-1.4-1.9-1.9c0-.6 0-1 .1-1.2v-.7-1.2-1.3-1-.3-.3c.1-.3.3-.4.5-.4h.6c.4 0 .9 0 1.4.1.5 0 1.1.1 1.7.1h4.6c.5 0 1 0 1.3.1h.6c.5 0 .7.2.7.7.1.5.1.9.1 1.4v2.1c0 .3 0 .5.1.8.1.6.1 1.3.1 1.9v5.3c.1.7.1 1.5 0 2.2 0 .7-.1 1.5-.1 2.2v2c0 .6 0 1.2-.1 1.7-.1.6-.1 1.1-.3 1.7-.1.5-.2 1-.3 1.6-.1.5-.2 1.1-.3 1.6-.2 1-.7 1.9-1.4 2.7-.4.4-.8.7-1.3 1-.5.3-1 .4-1.6.5-.6.1-1.2 0-1.8-.1-.6-.2-1.2-.4-1.7-.8-.5-.3-.9-.7-1.2-1.2-.5-.7-.9-1.4-1.2-2.2-.3-.8-.4-1.6-.5-2.4-.1-.5-.1-.9-.1-1.4 0-.5 0-1-.1-1.4-.1-.5-.1-1.2-.1-2.1 0-.9 0-1.8-.1-2.8v-2.6c.4-.4.4-.9.4-1.1zm-1.9-8.1v.6c0 .2 0 .5.1.8 0 .3 0 .5.1.8v.5c0 .2-.1.3-.2.4-.1.1-.4.1-.9.2-.7.1-1.5.2-2.2.1h-1.6v2.6c-.1.4-.1.8-.1 1.2v1.9c.1.4.1.7.1.9v1.6c0 .3 0 .6.1.9v1.3c0 .3 0 .7-.1 1.1-.1.4-.1.9-.1 1.4 0 .5 0 .9-.1 1.4-.1.3-.1.7-.1 1v3.2c0 .7-.1 1.4-.2 2.2 0 .3-.2.4-.4.5-1.1.2-2.2.2-3.3 0-.3 0-.4-.2-.5-.4V62v-1.2-1.2c-.1-.7-.1-1.4-.1-2.1 0-.7 0-1.4.1-2.1.1-.7.1-1.5.1-2.2V51v-1.1c0-.4-.1-.8-.1-1.1 0-.5 0-1.1-.1-1.6 0-.5 0-1.1.1-1.6v-.5c-.1-.5-.1-.9-.1-1.4v-1.5h-2.4c-.6 0-.9 0-1.1-.1-.2 0-.4-.2-.6-.4l-.3-.3c-.4-.8-.5-1.7-.4-2.5.1-.2.2-.4.3-.4.2-.1.5-.2.9-.3.4-.1.7-.1 1.1-.1.4 0 .7 0 1.1-.1.9-.1 1.7-.1 2.6-.1H154.4c.7 0 1.2.1 1.4.4.1.2.2.3.2.4z"/>
  <path class="st3" d="M308.1 44.2c-.3-.1-.5-.3-.5-.7 0-.3.1-.5.1-.7V42v-.8c0-.3-.1-.5-.1-.5-.1-.2-.2-.4-.3-.5-.1-.2-.3-.3-.5-.4-.2-.2-.6-.3-1-.2-.5.1-.8.3-1.1.6-.1.1-.2.3-.3.5-.1.2-.1.5-.1.7v.7c0 .2 0 .4.1.6.2 1 .5 1.8 1 2.6.3.4.5.7.8 1.1.3.4.5.8.8 1.1.4.5.7 1 .9 1.4.4.5.6.9.9 1.2.2.3.5.6.7 1 .8 1 1.4 2.1 1.9 3.3.5 1.1.7 2.4.9 3.6v1.9c-.1 1.5-.8 2.8-2 3.8-.1.1-.2.2-.3.2-.1.1-.2.2-.3.2-.4.3-.8.5-1.2.7-.4.2-.9.2-1.4.2h-1.5c-.5 0-1-.1-1.4-.2-.4-.1-.7-.2-.9-.4-.3-.2-.6-.4-.9-.7-.3-.3-.5-.5-.8-.7-.3-.2-.5-.5-.7-.8-.1-.1-.1-.2-.2-.3-.1-.1-.1-.2-.2-.3-.2-.5-.4-1-.5-1.6-.1-.5-.2-1.1-.2-1.7v-.9c0-.3 0-.7.1-1 0-.3.1-.6.1-.8 0-.2.1-.4.1-.4.2-.4.5-.6.9-.6h.4c.7.2 1.4.3 2.1.6.3.1.4.2.5.3.1.1.1.3.1.5-.1.3-.1.7-.1 1v1.2c.1.5.1.9.2 1.3s.2.7.5.9c.3.2.7.4 1.1.4.5.1.9 0 1.3-.3.3-.2.5-.5.7-.9.2-.4.3-.7.3-1.1 0-.4 0-.9-.2-1.4-.1-.5-.3-.9-.5-1.3s-.5-.9-.7-1.3c-.2-.4-.5-.8-.8-1.2-.3-.4-.5-.7-.7-1.1-.2-.4-.5-.8-.7-1.2-.2-.3-.4-.6-.5-.9l-.6-.9c-.4-.5-.7-1-.9-1.3l-.6-1.2c-.1-.1-.1-.3-.2-.4-.1-.1-.1-.2-.2-.3-.5-.7-.8-1.5-1-2.3-.2-.8-.3-1.6-.4-2.4-.1-1 0-2 .3-2.9.2-.7.6-1.3 1.1-1.7.8-.6 1.7-1 2.8-1.2.8-.1 1.7-.1 2.5 0 .9.1 1.6.4 2.3.8.4.3.7.6 1 .9.3.3.6.7.8 1.2l.3.9c.1.3.1.7.2 1v2.4c0 .9-.5 1.3-1.4 1.3h-1.6c-.1.3-.2.3-.3.2m-19.9-1.9V55.4c0 .5 0 1-.1 1.5v2.3c0 .2 0 .4-.1.6 0 .2 0 .4-.1.6 0 .1 0 .2-.1.3-.1.1-.1.2-.3.2h-.4c-.2 0-.4 0-.6-.1-.2 0-.5-.1-.7-.1-.2 0-.4-.1-.6-.2-.1-.1-.3-.1-.6-.3-.3-.1-.7-.3-1.2-.6-.6-.3-1-.7-1.3-1-.3-.4-.6-.7-.8-1.1-.4-.4-.6-.8-.8-1.2-.2-.3-.4-.8-.6-1.4-.1-.2-.1-.6-.2-1s-.1-.8-.2-1.3c-.1-.4-.1-.8-.1-1.2 0-.4-.1-.6-.1-.7-.1-.5 0-1 0-1.4.1-.5.1-.9.3-1.4.1-.2.1-.5.2-.7.1-.2.1-.5.2-.8.1-.3.3-.7.4-1 .2-.4.4-.8.7-1.2.2-.3.4-.5.5-.7.1-.2.3-.3.4-.5.1-.2.3-.3.4-.4.2-.1.3-.3.5-.5.4-.3.9-.6 1.5-.9.6-.3 1.1-.5 1.7-.6.5 0 1-.1 1.3-.1.3 0 .5 0 .5.2.1.1.1.2.2.3 0 .2.1.4.1.6v.7zm10.2 8.1c0 .5 0 1-.1 1.5s-.1.9-.3 1.4c-.1.3-.1.5-.2.7-.1.2-.1.5-.2.7-.1.3-.3.7-.4 1l-.6 1.2c-.2.3-.4.5-.5.7-.2.2-.3.4-.4.5l-.4.4c-.2.1-.3.3-.6.5-.4.3-.9.6-1.5.9-.6.3-1.1.5-1.7.6-.5.1-1 .1-1.3.1-.3 0-.5 0-.5-.1-.1-.1-.1-.2-.2-.4 0-.2-.1-.4-.1-.6V59v-.3-1.8V55v-1.6-1V51v-1.9-1.7-.9-.9c0-.5 0-1 .1-1.5 0-.5 0-1 .1-1.5v-.8c0-.2 0-.4.1-.6 0-.2 0-.4.1-.6v-.3c.1-.1.1-.2.3-.2.2 0 .5 0 1.1.1.5.1 1 .2 1.3.3.1.1.3.1.6.3.3.1.7.3 1.2.6.6.3 1 .7 1.3 1.1.3.4.6.7.9 1.1.4.4.6.8.8 1.2.2.3.4.8.5 1.4.1.2.1.6.2 1s.1.8.2 1.3c.1.4.1.8.1 1.2.1.3.1.6.1.7zm-26.8-7.1c.2.1.3.1.4.2.1.1.1.2.1.4v2.7c0 .1 0 .2-.1.4-.1.3-.3.5-.7.5-.4 0-.7.1-1 .1-.3 0-.7.1-1 .1h-2.2v.8c0 .2 0 .5.1.7.1.4.1.8.1 1.1 0 .4 0 .8.1 1.1v.2c-.1.6-.1 1.1-.1 1.7 0 .6-.1 1.1-.2 1.7v7.3c0 .6-.1 1-.2 1.4-.1.3-.3.6-.5.8-.2.2-.4.3-.7.3-.3.1-.5.1-.8.1-.4.1-.9.1-1.3.1s-.8-.1-1.1-.4c-.1-.1-.2-.3-.2-.6v-.7-.9c0-.5 0-.9.1-1.4 0-.5 0-1 .1-1.4v-.8-2.2-2.2-1.1c0-.3.1-.7.1-1.1v-1.5-1.5-1.6V46v-.8-1-1-.8c0-.3 0-.8.1-1.4 0-.6 0-1.2.1-1.9 0-.7.1-1.3.2-1.8.1-.6.2-1 .3-1.2.1-.3.3-.5.6-.6.5-.1 1-.2 1.6-.2.5-.1 1 0 1.6.1.3.1.4.1.5.2.1.1.1.3.1.5v1.2c0 .4 0 .8-.1 1.1-.1.5-.1 1.1-.1 1.6V43.3h2.8c.2 0 .3-.1.4-.1.2 0 .6 0 .9.1zm5.7-5.6v7.5c0 .8 0 1.7-.1 2.5s-.1 1.7-.1 2.5v3c0 1 0 2-.1 3v1.7c0 .8 0 1.6.1 2.5 0 .9.1 1.6.1 2.3v1.2c.1.4 0 .7-.2.8-.2.1-.4.2-.7.2-.3.1-.6.1-.9.1h-1.8c-.3-.1-.6-.1-.9-.3-.2-.2-.3-.4-.3-.7v-.4-.4c0-.3.1-.7.1-1.2s0-1.1.1-1.6v-1.5-.9c.1-.4.1-.9.1-1.3v-1.3-1.6-1.7c.1-.6.1-1.2.1-1.8 0-.6.1-1.2.1-2 .1-.2.1-.4.1-.6v-.6-2.8c0-.9 0-1.9-.1-2.8-.1-.8-.1-1.6-.1-2.4v-2.3-.3c0-.1 0-.2.1-.3.1-.4.3-.6.8-.7.3 0 .6-.1 1-.1.4-.1.8 0 1.2 0h.8c.3 0 .4.2.5.5 0 .2 0 .5.1.8v1zm-17.9-1.6c.1.2.3.5.4.9.2.4.2.9.1 1.6-.1.2-.1.3-.2.4-.1.1-.1.2-.2.3-.1.1-.2.2-.4.3-.2.1-.4.2-.6.4-.2.1-.3.2-.4.3-.1.1-.2.1-.3.2l-.2.2c-.1.1-.2.1-.3.2-.7.5-1.4 1.2-2 2-.6.8-1.1 1.8-1.6 3-.1.3-.2.5-.3.8-.1.2-.2.5-.2.7-.5 1.8-.6 3.4-.4 5v.7c0 .2.1.5.2.9s.2.7.3 1.1c.1.4.2.7.3 1.1.1.3.2.5.3.7.4.8.8 1.5 1.2 2 .4.5 1 1 1.7 1.4.5.3.9.5 1.2.6l.9.3h.2c.3.1.5.2.5.3.1.1.1.3.1.5 0 .4 0 .7-.1 1.1l-.3 1.2c-.3.7-.8 1.1-1.6 1.1h-.5c-1.3-.3-2.8-1.2-4.3-2.8-1.4-1.3-2.3-2.7-2.9-4.1-.6-1.4-1-2.6-1.1-3.7-.1-.6-.2-1.2-.2-1.7s-.1-1-.1-1.3v-.3-1.2c0-.4.1-.8.1-1.2v-.4-.4c0-.8.2-1.8.4-2.8.2-.6.3-1.2.5-1.7s.4-1 .6-1.4c.9-1.9 1.9-3.3 2.9-4.1l.5-.5c.3-.3.6-.6.9-.8.3-.2.5-.4.8-.6.3-.2.6-.3.9-.4.3-.1.7-.3 1.1-.4.6-.2 1.1-.3 1.4-.2.3.1.5.3.6.5 0 0 .1.1.1.2 0-.1 0-.1 0 0z"/>
</svg>