<svg xmlns="http://www.w3.org/2000/svg" width="109.8" height="109.8" viewBox="0 0 109.8 109.8">
  <style>
    .st1{fill:#42c0bd}.st4{fill:#010202}.st5{fill:#fff}.st11,.st8,.st9{fill-rule:evenodd;clip-rule:evenodd;fill:#6099d2}.st11,.st9{fill:#3787c7}.st11{fill:#ee8d37}
  </style>
  <path d="M97.1 78.7h-.4c-.3 0-.6.1-.8.2-.2.1-.3.3-.3.5-.1.4-.1.7 0 .9.1.2.3.4.6.4l5.5 2.3c.3.2.5.3.8.2.3-.1.5-.3.7-.6.1-.3.1-.7 0-.9-.1-.3-.4-.5-.7-.7l-5.4-2.3m-13-45.8l-6.5-6.6V13.4h13.2l-6.7 19.5zm3.9 3.9l-1.7-1.7 6.8-19.8 7.4 21.4H88zm-30.7 71.3l1.6 1.7 1.7-1.7h18.8V89.3l30.4-30.4-7.1-7.2 1.8-1.5c2.7-2.7 4.4-6.5 4.4-10.6v-2.8h-5.4l-9.1-26.2c-5.6 0-11.2 0-16.8.1V7.5c0-1.4-.6-2.7-1.5-3.7-.9-.9-2.3-1.5-3.7-1.5H57.3v105.8zm31.6-17.7c-.1-.3-.4-.4-.8-.4-.2 0-.3 0-.4.1l-.3.3c-.3.2-.5.4-.5.6 0 .3.2.5.5.9l8.9 8.9c.2.3.4.4.7.4.3 0 .5-.1.8-.4.3-.3.5-.5.5-.8 0-.3-.2-.5-.5-.7l-8.9-8.9z" fill="#a7a9ac"/>
  <path class="st1" d="M86.8 88c-.1-.3-.4-.4-.8-.4-.2 0-.3 0-.4.1l-.3.3c-.3.2-.5.4-.5.6 0 .3.2.5.5.9l8.9 8.9c.2.3.4.4.7.4.3 0 .5-.1.8-.4.3-.3.5-.5.5-.8 0-.3-.2-.5-.5-.7L86.8 88"/>
  <path class="st1" d="M27.8 87.6c-.4 0-.7.1-.8.4l-8.9 8.9c-.3.3-.5.5-.5.8 0 .3.2.5.5.7.3.3.5.4.8.4.3 0 .5-.1.7-.4l8.9-8.9c.3-.3.5-.6.5-.9 0-.2-.2-.4-.5-.6-.1-.1-.1-.3-.2-.3-.2-.1-.3-.1-.5-.1"/>
  <path class="st1" d="M95 76.4h-.4c-.3 0-.6.1-.8.2-.2.1-.3.3-.3.5-.1.4-.1.7 0 .9.1.2.3.4.6.4l5.5 2.3c.3.2.5.3.8.2.3-.1.5-.3.7-.6.1-.3.1-.7 0-.9-.1-.3-.4-.5-.7-.7L95 76.4"/>
  <path class="st1" d="M20.3 77.1c-.1-.2-.2-.4-.3-.5-.2-.1-.4-.2-.8-.2h-.4l-5.5 2.3c-.3.2-.6.4-.7.7-.1.3-.1.6 0 .9.2.3.4.5.7.6.3.1.5 0 .8-.2l5.5-2.3c.3-.1.5-.2.6-.4.1-.2.1-.5.1-.9"/>
  <path class="st1" d="M93.5 39.4c.1.2.2.4.4.5.2.1.4.2.7.2l.3-.1h.1l5.5-2.5c.4-.1.7-.2.8-.5.1-.3.1-.5-.1-.9-.1-.3-.3-.5-.6-.7-.3-.1-.6-.1-.9 0l-5.5 2.5c-.3.1-.5.3-.6.6-.1.2-.1.5-.1.9"/>
  <path class="st1" d="M18.8 39.9h.2l.1.1c.3 0 .5-.1.7-.2.2-.1.3-.3.4-.5.1-.3.1-.6 0-.9-.1-.3-.3-.5-.6-.6l-5.5-2.5c-.3-.1-.6-.1-.9 0-.3.1-.5.3-.6.7-.2.3-.3.6-.1.9.1.3.4.4.8.5l5.5 2.5"/>
  <path class="st1" d="M6.1 56.2l50.8 51.2 50.8-50.8L57.3 5.3 6.1 56.2"/>
  <path fill="none" stroke="#000" stroke-width="2.154" stroke-linecap="round" stroke-miterlimit="22.926" d="M56.9 107.4l50.8-50.8L57.3 5.3 6.1 56.2z"/>
  <path fill-rule="evenodd" clip-rule="evenodd" fill="#ed512a" d="M74.6 103V48.9h-9.2v17h-2.9v-17H39.3V103h35.3"/>
  <path class="st4" d="M65.4 48.9v17h-2.8v-17H39.3V103h35.3V48.9h-9.2m-27.5-2.8h39.5v59.7H36.5V46.1h1.4z"/>
  <path class="st5" d="M43.1 71.1h2.8v13.4h-2.8z"/>
  <path class="st5" d="M45.5 53h11.4v2.8H45.5z"/>
  <path class="st5" d="M43.1 89.1h2.8v5.5h-2.8z"/>
  <path class="st5" d="M43.1 97.6h2.8v2.1h-2.8z"/>
  <path class="st5" d="M62.5 75.9h2.8v2.7h-2.8z"/>
  <path class="st5" d="M62.5 70.3h2.8V73h-2.8z"/>
  <path class="st4" d="M27.4 37.3H2.8c0 3.4 1.4 6.4 3.6 8.6 2.2 2.2 5.3 3.6 8.6 3.6h.2c3.4 0 6.4-1.4 8.6-3.6 2.3-2.2 3.6-5.3 3.6-8.6m-5-2.8L15 13.1 7.7 34.5h14.7zm81.7 2.8H79.5c0 3.4 1.4 6.4 3.6 8.6 2.2 2.2 5.3 3.6 8.6 3.6h.2c3.4 0 6.4-1.4 8.6-3.6 2.2-2.2 3.6-5.3 3.6-8.6zm-5.6-2.8L91.1 13l-7.4 21.4h14.8zM14.3 8.3h2.1c25.3 0 50.7.1 76 0l9.1 26.2h5.4v2.8c0 4.1-1.7 7.9-4.4 10.6-2.7 2.7-6.5 4.4-10.6 4.4h-.2c-4.1 0-7.9-1.7-10.6-4.4-2.7-2.7-4.4-6.5-4.4-10.6v-2.8h4.1l8.1-23.4H17.4l8.1 23.4h4.8v2.8c0 4.1-1.7 7.9-4.4 10.6-2.7 2.7-6.5 4.4-10.6 4.4H15c-4.1 0-7.9-1.7-10.6-4.4C1.7 45.2 0 41.4 0 37.3v-2.8h4.7l9-26.2h.6z"/>
  <path d="M63.8 26.8c.4-.4.6-.9.6-1.5l-.1-23h-4.8v23c0 1.1.9 2.1 2.1 2.1.9 0 1.6.1 2.2-.6m-8.2-.1c.4-.4.6-.9.6-1.5v-8.4l-.2.2c-1 1-2.4 1.6-3.9 1.6h-.8v6.5c0 1.1.9 2.1 2.1 2.1.8.2 1.5.2 2.2-.5zm13.3 19.1v-9.3l.6-1.1 3.7-6.3v-6.7c-.8.9-2 1.4-3.3 1.4-1.2 0-2.2 0-3.1-.6v2.3c0 2.5-2 4.5-4.5 4.5-1.6 0-2.7-.1-4-1.3-.2-.2-.4-.5-.6-.7-.8 1.2-2.2 2-3.7 2-1.6 0-2.7-.1-4-1.3-.3-.3-.5-.5-.7-.9-.8 1.3-2.2 2.2-3.8 2.2-1.6 0-2.7-.1-4-1.3-.8-.8-1.3-1.9-1.3-3.2v-9H52c.9 0 1.6-.4 2.2-.9.6-.6.9-1.4.9-2.2 0-.9-.4-1.6-.9-2.2-.6-.6-1.4-.9-2.2-.9H37c-.8 0-1.5.3-2 .8s-.8 1.2-.8 2V25c0 3 1.2 5.7 3.2 7.7s4.7 3.2 7.7 3.2h1.2v10.2h22.6zM47.7 25.3v-6.5h-4.9v6.5c0 1.1.9 2.1 2.1 2.1.9 0 1.6.1 2.3-.6.3-.4.5-.9.5-1.5zm1.1-17.6V2.4h-3.3c-.8 0-1.5.3-2 .8s-.8 1.2-.8 2v2.4h6.1zm23.3 11.6V2.9c-.5-.3-1-.5-1.6-.5h-3.3v16.9c0 1.1.9 2.1 2.1 2.1.9 0 1.6.1 2.3-.6.2-.4.5-1 .5-1.5zM52 7.7c1.5 0 2.9.6 3.9 1.6l.2.2V2.4h-4.9v5.2h.8z" fill-rule="evenodd" clip-rule="evenodd" fill="#fbb165"/>
  <path d="M64.3 2.4h-4.8v23c0 1.1.9 2.1 2.1 2.1.9 0 1.6.1 2.3-.6.4-.4.6-.9.6-1.5l-.2-23m7.8.5c-.5-.3-1-.5-1.6-.5h-3.3v16.9c0 1.1.9 2.1 2.1 2.1.9 0 1.6.1 2.3-.6.4-.4.6-.9.6-1.5V2.9zM47.7 18.7h-4.9v6.5c0 1.1.9 2.1 2.1 2.1.9 0 1.6.1 2.3-.6.4-.4.6-.9.6-1.5v-6.5zm8.5-1.8c-.1.1-.2.1-.3.2-1 1-2.4 1.6-3.9 1.6h-.8v6.5c0 1.1.9 2.1 2.1 2.1.9 0 1.6.1 2.3-.6.4-.4.6-.9.6-1.5v-8.3zm-5-9.2h.8c1.5 0 2.9.6 3.9 1.6l.2.2V2.4h-4.9v5.3zm-8.5 0h6.1V2.4h-3.3c-.8 0-1.5.3-2 .8s-.8 1.2-.8 2v2.5zm3.6 30.5v7.5h22.6v-9.3l.6-1.1 3.7-6.3v-6.7c-.8.9-2 1.4-3.3 1.4-1.2 0-2.2 0-3.1-.6v2.3c0 2.5-2 4.5-4.5 4.5-1.6 0-2.7-.1-4-1.3-.2-.2-.4-.5-.6-.7-.8 1.2-2.2 2-3.7 2-1.6 0-2.7-.1-4-1.3-.3-.3-.5-.5-.7-.9-.8 1.3-2.2 2.2-3.8 2.2-1.6 0-2.7-.1-4-1.3-.8-.8-1.3-1.9-1.3-3.2v-9H52c.9 0 1.6-.4 2.2-.9.6-.6.9-1.4.9-2.2 0-.9-.4-1.6-.9-2.2-.6-.6-1.4-.9-2.2-.9H37c-.8 0-1.5.3-2 .8s-.8 1.2-.8 2v11.9c0 3 1.2 5.7 3.2 7.7s4.7 3.2 7.7 3.2h1.2v2.4zM37 7.7h3.2V5.2c0-1.4.6-2.7 1.5-3.7C42.8.6 44.1 0 45.5 0h24.9c1.4 0 2.7.6 3.7 1.5.9.9 1.5 2.3 1.5 3.7v24.5l-4.3 7.5v11H43.9V37.9c-3.2-.3-6-1.7-8.2-3.8-2.4-2.4-3.9-5.7-3.9-9.4V12.8c0-2.8 2.4-5.1 5.2-5.1z" fill-rule="evenodd" clip-rule="evenodd" fill="#010202"/>
  <path class="st8" d="M15.2 49.5c3.4 0 6.4-1.4 8.6-3.6s3.6-5.3 3.6-8.6H2.8c0 3.4 1.4 6.4 3.6 8.6 2.2 2.2 5.3 3.6 8.6 3.6h.2"/>
  <path class="st8" d="M91.8 49.5c3.4 0 6.4-1.4 8.6-3.6s3.6-5.3 3.6-8.6H79.4c0 3.4 1.4 6.4 3.6 8.6s5.3 3.6 8.6 3.6h.2"/>
  <path class="st9" d="M15.2 49.5c3.4 0 6.4-1.4 8.6-3.6 1.7-1.7 2.9-3.8 3.3-6.2-.7 1.3-1.6 2.5-2.7 3.6-2.4 2.2-5.8 3.6-9.4 3.6h-.2c-3.7 0-7-1.4-9.4-3.6-.8-.7-1.5-1.6-2.1-2.5.6 2 1.7 3.7 3.1 5.2 2.2 2.2 5.3 3.6 8.6 3.6h.2"/>
  <path class="st9" d="M91.8 49.5c3.4 0 6.4-1.4 8.6-3.6 1.7-1.7 2.9-3.8 3.3-6.2-.7 1.3-1.6 2.5-2.7 3.6-2.4 2.2-5.8 3.6-9.4 3.6h-.2c-3.7 0-7-1.4-9.4-3.6-.8-.7-1.5-1.6-2.1-2.5.6 2 1.7 3.7 3.1 5.2 2.2 2.2 5.3 3.6 8.6 3.6h.2"/>
  <path fill-rule="evenodd" clip-rule="evenodd" fill="#df2625" d="M74.6 103V48.9h-3V101H39.3v2h35.3"/>
  <path class="st11" d="M71.5 20.7c.4-.4.6-.9.6-1.5V2.9c-.5-.3-1-.5-1.6-.5h-.9v15.8c0 .6-.2 1.1-.6 1.5-.5.5-1 .6-1.6.6.3.7 1 1.1 1.8 1.1.9-.1 1.6 0 2.3-.7"/>
  <path class="st11" d="M69.6 35.4l3.7-6.3v-6.7c-.7.7-1.6 1.2-2.5 1.4v4.3L67 34.3l-.6 1.1v9.3H46.3v1.1h22.6v-9.3l.7-1.1"/>
</svg>