<svg xmlns="http://www.w3.org/2000/svg" width="179" height="117.4" viewBox="0 0 179 117.4">
  <style>
    .st2{fill:#013443}.st3{fill:#3787c7}
  </style>
  <path fill-rule="evenodd" clip-rule="evenodd" fill="#f9c3d3" d="M163.3 94.7L179 2.4 3.8 5.5v90.7l39.3-.6.9 21.8 18.5-22.3 100.8-.4"/>
  <path fill="none" stroke="#231f20" stroke-width=".85" stroke-miterlimit="22.926" d="M.4 3.5L175.6.4l-15.7 92.3-100.8.4-18.5 22.3-.9-21.7-39.3.5z"/>
  <path class="st2" d="M64.1 15.7s.1 0 0 0H65v-.2-.5-.6-.7-.7-.6-.4c0-.3-.1-.6-.1-.8-.1-.2-.2-.4-.4-.5-.2-.1-.4-.2-.7-.2-.3 0-.5 0-.7.1-.2.1-.4.2-.5.4-.2.2-.3.4-.4.6v-.4-.3-.1H61.4v4.7h.9v-.1-.3-.5-.5-.5-.4c0-.2 0-.4.1-.6.1-.2.1-.4.2-.5.1-.2.2-.3.4-.4.1-.1.3-.1.5-.1s.3 0 .4.1c.1.1.2.2.2.4s.1.3.1.6V16c-.1-.4-.1-.3-.1-.3m-11.1 0c.2 0 .5 0 .7-.1.2-.1.4-.1.5-.3.2-.1.3-.3.4-.4.1-.2.1-.4.1-.6 0-.2 0-.3-.1-.5 0-.1-.1-.3-.2-.4-.1-.1-.3-.2-.5-.4-.2-.1-.4-.2-.7-.3-.3-.1-.5-.2-.7-.3-.2-.1-.3-.2-.4-.3-.1-.1-.1-.3-.1-.4 0-.1 0-.2.1-.4.1-.1.2-.2.3-.2.1-.1.3-.1.5-.1.3 0 .5.1.7.3.1.2.2.5.2.9h.8c0-.4-.1-.7-.2-1-.1-.3-.3-.5-.6-.7-.3-.2-.6-.2-1-.2s-.7.1-.9.2c-.3.1-.4.3-.6.5-.1.2-.2.4-.2.7 0 .2 0 .4.1.5.1.2.1.3.3.4.1.1.3.3.5.4.2.1.5.2.8.3.3.1.5.2.6.3.2.1.3.2.3.3.1.1.1.2.1.4s0 .3-.1.4c-.1.1-.2.2-.3.2-.1 0-.2.1-.4.1s-.4 0-.5-.1c-.1-.1-.3-.2-.3-.4-.1-.2-.1-.4-.1-.7h-.8c0 .4.1.8.2 1.1.1.3.4.5.6.6.2.1.5.2.9.2zm-4.4-.7c-.2 0-.4-.1-.6-.2-.2-.2-.3-.4-.4-.7-.1-.3-.1-.7-.1-1.1 0-.3 0-.5.1-.8 0-.2.1-.4.2-.6.1-.2.2-.3.3-.4.1-.1.3-.1.5-.1s.3.1.5.1c.1.1.2.2.3.4.1.2.2.4.2.6 0 .2.1.5.1.8 0 .4 0 .8-.1 1.1-.1.3-.2.5-.4.7-.2.1-.4.2-.6.2zm0 .7c.4 0 .8-.1 1.1-.3.3-.2.5-.5.7-.9.2-.4.2-.9.3-1.5 0-.4 0-.7-.1-1.1-.1-.3-.2-.6-.4-.8-.2-.2-.4-.4-.6-.5-.3-.1-.5-.2-.9-.2-.3 0-.6.1-.9.2-.2.1-.5.3-.6.5-.2.2-.3.5-.4.8-.1.3-.1.7-.1 1 0 .6.1 1 .2 1.4.1.4.4.7.7.9.1.3.5.5 1 .5zm-9-.4h.9v-.1-.4-.6-.6-.7c0-.3 0-.5.1-.7.1-.2.1-.4.3-.6.1-.2.2-.3.4-.4.1-.1.3-.1.4-.1.1 0 .3 0 .4.1.1.1.2.2.2.4s.1.3.1.5v3h.9V15v-.4-.5-.6-.6c0-.2 0-.4.1-.6 0-.2.1-.4.2-.5.1-.1.2-.3.3-.3.1-.1.3-.1.4-.1.2 0 .4.1.5.3.1.2.2.4.2.8V15.7h.8v-.1-.4-.6-.7-.8-.8c0-.2 0-.4-.1-.6 0-.2-.1-.4-.2-.5-.1-.2-.2-.3-.4-.4-.2-.1-.4-.1-.6-.1-.2 0-.4 0-.6.1-.2.1-.3.2-.5.3-.1.1-.3.3-.4.5 0-.2-.1-.4-.2-.6-.1-.2-.2-.3-.4-.4-.2-.1-.4-.1-.6-.1-.2 0-.4.1-.6.2-.2.1-.4.2-.5.4-.2.2-.3.4-.4.6v-.5-.3-.1H39.5v4.4c.1 0 .1.1.1.1zm-1.5-5.5c.1 0 .2 0 .3-.1.1-.1.2-.1.2-.2s.1-.2.1-.3c0-.1 0-.2-.1-.3 0-.1-.1-.2-.2-.2s-.2-.1-.3-.1c-.2 0-.4.1-.5.2-.1.1-.2.3-.2.4 0 .2.1.3.2.4.1.2.3.2.5.2zm-.4 5.7h.9v-2-1.6-1-.4h-.8v4.7c-.1.2-.1.3-.1.3zm-3.3 0c.2 0 .4 0 .5-.1.2-.1.3-.2.5-.3.1-.1.3-.3.4-.5v1H36.6v-1.7-1.5-1.1-.7-.3H35.7v2.8c0 .3 0 .5-.1.7-.1.2-.1.4-.2.5-.1.1-.2.3-.3.3-.1.1-.2.1-.4.1s-.3 0-.4-.1c-.1-.1-.2-.2-.3-.4-.1-.2-.1-.4-.2-.7 0-.3-.1-.6-.1-1.1v-.6-.7c0-.2 0-.4.1-.7H33c0 .4-.1.7-.1 1.1v1.1c0 .5 0 1 .1 1.3.1.4.2.6.3.9.1.2.3.4.5.5.2.2.4.2.6.2zm-4.5 0H30.8v-.1-.3-.5-.6-.6c0-.4.1-.8.2-1.1.1-.3.3-.5.5-.7.2-.2.5-.3.9-.3v-.6-.2c-.3 0-.5.1-.7.2-.2.1-.4.2-.6.4-.2.2-.3.4-.4.7v-.5-.4-.1H29.9V15.5zm-3.8-4.3h.7V14c0 .4.1.7.2.9.1.2.3.4.5.5.2.1.4.2.7.2.2 0 .3 0 .5-.1.2 0 .4-.1.5-.1v-.1-.3-.4c-.1.1-.3.1-.4.1h-.3c-.2 0-.4-.1-.5-.2-.1-.1-.2-.4-.2-.7v-.9-.9-.8h1.5v-.1-.2-.4h-1.5v-.7-.5-.2H27v1.4h-.6v.7zM24 15.7c.2 0 .5 0 .7-.1.2-.1.4-.1.5-.3.2-.1.3-.3.4-.4.1-.2.1-.4.1-.6 0-.2 0-.3-.1-.5 0-.1-.1-.3-.2-.4-.1-.1-.3-.2-.5-.4-.2-.1-.4-.2-.7-.3-.3-.1-.5-.2-.7-.3-.2-.1-.3-.2-.4-.3-.1-.1-.1-.3-.1-.4 0-.1 0-.2.1-.4.1-.1.2-.2.3-.2.1-.1.3-.1.5-.1.3 0 .5.1.7.3.1.2.2.5.2.9h.8c0-.4-.1-.7-.2-1-.1-.3-.3-.5-.6-.7-.3-.2-.6-.2-1-.2s-.7.1-.9.2c-.3.1-.4.3-.6.5-.1.2-.2.4-.2.7 0 .2 0 .4.1.5.1.2.1.3.3.4.1.1.3.3.5.4.2.1.5.2.8.3.3.1.5.2.6.3.2.1.3.2.3.3.1.1.1.2.1.4s0 .3-.1.4c-.1.1-.2.2-.3.2-.1 0-.2.1-.4.1s-.4 0-.5-.1c-.1-.1-.3-.2-.3-.4-.1-.2-.1-.4-.1-.7h-.8c0 .4.1.8.2 1.1.1.3.4.5.6.6.2.1.5.2.9.2zm-3.4 0H21.5v-.2-.5-.6-.7-.7-.6-.4c0-.3-.1-.6-.2-.8-.1-.2-.2-.4-.4-.5-.2-.1-.4-.2-.7-.2-.2 0-.5 0-.7.1-.2.1-.4.2-.5.4-.2.2-.3.4-.4.6v-.4-.3-.1H17.8v4.7h.9v-.1-.3-.5-.5-.5-.4c0-.2 0-.4.1-.6.1-.2.1-.4.2-.5.1-.2.2-.3.4-.4.1-.1.3-.1.5-.1s.3 0 .4.1c.1.1.2.2.2.4s.1.3.1.6v3zM15 15c-.2 0-.4-.1-.6-.2-.2-.2-.3-.4-.4-.7-.1-.3-.1-.7-.1-1.1 0-.3 0-.5.1-.8 0-.2.1-.4.2-.6.1-.2.2-.3.3-.4.1-.1.3-.1.5-.1s.3.1.5.1c.1.1.2.2.3.4.1.2.2.4.2.6 0 .2.1.5.1.8 0 .4 0 .8-.1 1.1-.1.3-.2.5-.4.7-.2.1-.4.2-.6.2zm0 .7c.4 0 .8-.1 1.1-.3.3-.2.5-.5.7-.9.1-.5.2-.9.2-1.5 0-.4 0-.7-.1-1.1s-.2-.6-.4-.8c-.2-.2-.4-.4-.6-.5-.3-.1-.5-.2-.9-.2-.3 0-.6.1-.9.2-.2.1-.5.3-.6.5-.2.2-.3.5-.4.8-.1.3-.1.7-.1 1.1 0 .6.1 1 .2 1.4.1.4.4.7.7.9.3.2.7.4 1.1.4zm-4.7 0c.4 0 .8-.1 1.1-.3.3-.2.6-.5.7-1 .2-.4.3-1 .3-1.7h-.9c0 .4 0 .8-.1 1.1-.1.3-.1.5-.2.7-.1.2-.2.3-.4.4-.1.1-.3.1-.5.1-.3 0-.6-.1-.8-.3-.2-.2-.3-.6-.4-1C9 13.1 9 12.6 9 12c0-.6 0-1.1.1-1.5.1-.4.2-.7.4-1 .2-.2.4-.3.7-.3.3 0 .6.2.8.5.2.3.3.8.3 1.5H12.2c0-.4-.1-.8-.1-1.1-.1-.3-.2-.6-.4-.9l-.6-.6c-.2-.1-.5-.2-.9-.2-.5 0-1 .1-1.3.4-.2.3-.5.7-.7 1.2-.1.6-.2 1.2-.2 2s.1 1.5.2 2c.2.5.4 1 .7 1.2.4.3.8.5 1.4.5z"/>
  <path class="st2" d="M120 9.8c.1 0 .2 0 .3-.1.1-.1.2-.1.2-.2s.1-.2.1-.3c0-.1 0-.2-.1-.3 0-.1-.1-.2-.2-.2-.1-.1-.2-.1-.3-.1-.2 0-.4.1-.5.2-.1.1-.2.3-.2.4 0 .2.1.3.2.4.2.2.3.2.5.2m-.4 5.7h.9v-2-1.6-1-.4h-.8v4.7c-.1.2-.1.3-.1.3zm-3.9-4.3h.7V14c0 .4.1.7.2.9.1.2.3.4.5.5.2.1.4.2.7.2h.5c.2 0 .4-.1.5-.1v-.1-.3-.4c-.1.1-.3.1-.4.1h-.3c-.2 0-.4-.1-.5-.2-.1-.1-.2-.4-.2-.7V13v-.9-.8h1.5v-.1-.2-.4h-1.5v-.7-.5-.2h-.8v1.4h-.6v.6zm-1.5 4.5s.1 0 0 0H115.1v-.2-.5-.6-.7-.7-.6-.4c0-.3-.1-.6-.2-.8-.1-.2-.2-.4-.4-.5-.2-.1-.4-.2-.7-.2-.3 0-.5 0-.7.1-.2.1-.4.2-.5.4-.1.2-.3.4-.4.6v-.4-.3-.1H111.4v4.7h.9v-.1-.3-.5-.5-.5-.4c0-.2 0-.4.1-.6.1-.2.1-.4.2-.5.1-.2.2-.3.4-.4.1-.1.3-.1.5-.1s.3 0 .4.1c.1.1.2.2.2.4s.1.3.1.6v3zm-5.4-4.7c.2 0 .4.1.5.2.1.1.3.3.3.6.1.3.1.5.1.9-.5 0-.9 0-1.2.1h-.8c0-.2 0-.5.1-.7.1-.2.1-.4.2-.6.1-.2.2-.3.3-.4.2-.1.3-.1.5-.1zm0 4.7c.3 0 .6-.1.9-.2.3-.1.5-.4.6-.6.2-.3.3-.6.4-1H109.8c-.1.4-.2.7-.3.9-.2.2-.4.3-.7.3-.3 0-.6-.1-.8-.4-.2-.3-.3-.7-.3-1.3h3c0-.4 0-.8-.1-1.2-.1-.4-.2-.7-.3-.9-.2-.3-.4-.5-.6-.6-.3-.1-.6-.2-.9-.2-.3 0-.6.1-.9.2-.2.1-.5.3-.6.5-.2.2-.3.5-.4.8-.1.3-.1.7-.1 1 0 .4 0 .8.1 1.1.1.3.2.6.4.9l.6.6c.2 0 .5.1.9.1zm-4.9-.7c-.3 0-.6-.2-.8-.5-.2-.3-.3-.8-.3-1.5 0-.3 0-.5.1-.8 0-.2.1-.4.2-.6.1-.2.2-.3.3-.4.1-.1.3-.2.4-.2.4 0 .6.2.8.5.2.4.3.9.3 1.6 0 .4 0 .8-.1 1-.1.3-.2.5-.4.6 0 .2-.2.3-.5.3zm2 .7v-1.9-1.7-1.4-1.1-.7-.2H104.9v2.5c-.1-.2-.2-.3-.3-.4-.1-.1-.3-.2-.4-.3-.2-.1-.4-.1-.6-.1-.3 0-.6.1-.8.2-.2.1-.4.3-.6.6-.1.2-.3.5-.3.9-.1.3-.1.7-.1 1.1 0 .5.1 1 .2 1.4.1.4.3.7.6.9.3.2.6.3 1 .3.2 0 .4 0 .6-.1.2-.1.3-.2.5-.3.1-.1.3-.3.4-.5v.9h.7l.1-.1zm-5.3-5.9c.1 0 .2 0 .3-.1.1-.1.2-.1.2-.2s.1-.2.1-.3c0-.1 0-.2-.1-.3 0-.1-.1-.2-.2-.2-.1-.1-.2-.1-.3-.1-.2 0-.4.1-.5.2-.1.1-.2.2-.2.4s.1.3.2.4c.1.2.2.2.5.2zm-.5 5.7h.9v-2-1.6-1-.4h-.8v4.7c-.1.2-.1.3-.1.3zm-8.5.2c.2 0 .5 0 .7-.1.2-.1.4-.1.5-.3.2-.1.3-.3.4-.4.1-.2.1-.4.1-.6 0-.2 0-.3-.1-.5 0-.1-.1-.3-.2-.4-.1-.1-.3-.2-.5-.4-.2-.1-.4-.2-.7-.3-.3-.1-.5-.2-.7-.3-.2-.1-.3-.2-.4-.3-.1-.1-.1-.3-.1-.4 0-.1 0-.2.1-.4.1-.1.2-.2.3-.2.1-.1.3-.1.5-.1.3 0 .5.1.7.3.1.2.2.5.2.9h.8c0-.4-.1-.7-.2-1-.1-.3-.3-.5-.6-.7-.3-.2-.6-.2-1-.2s-.7.1-.9.2c-.3.1-.4.3-.6.5-.1.2-.2.4-.2.7 0 .2 0 .4.1.5.1.2.1.3.3.4.1.1.3.3.5.4.2.1.5.2.8.3.3.1.5.2.6.3.2.1.3.2.3.3.1.1.1.2.1.4s0 .3-.1.4c-.1.1-.2.2-.3.2-.1.1-.3.1-.4.1-.2 0-.4 0-.5-.1-.1-.1-.3-.2-.3-.4-.1-.2-.1-.4-.1-.7h-.8c0 .4.1.8.2 1.1.1.3.4.5.6.6.2.1.5.2.9.2zm-3.4-2.2c0 .3 0 .5-.1.7-.1.2-.2.3-.3.5-.1.1-.2.2-.4.2-.1 0-.3.1-.4.1-.3 0-.5-.1-.6-.2-.1-.1-.2-.3-.2-.6 0-.2 0-.3.1-.4.1-.1.2-.3.3-.4.2-.1.3-.2.6-.3.2-.1.5-.1.9-.1v.4c0 .1.1 0 .1.1zm-1.4 2.1c.2 0 .4 0 .6-.1.2-.1.4-.2.5-.3.1-.1.3-.3.4-.5V15.6h.8v-.2-.5-.7-.9-1.1c0-.6-.2-1.1-.5-1.4-.3-.3-.7-.5-1.3-.5-.4 0-.7.1-.9.2-.3.1-.5.3-.6.6-.1.3-.2.6-.2.9H86.4c0-.4.1-.6.2-.8.1-.2.4-.3.7-.3.3 0 .5.1.6.3.1.2.2.4.2.8v.4c-.6 0-1.2.1-1.6.2-.4.2-.7.4-.9.6-.2.3-.3.6-.3.9 0 .3.1.5.2.7.1.2.3.4.5.5.3.2.5.3.8.3zm-4.2-.1H83.5v-.1-.3-.5-.6-.6c0-.4.1-.8.2-1.1s.3-.5.5-.7c.2-.2.5-.3.9-.3v-.6-.2c-.3 0-.5.1-.7.2-.2.1-.4.2-.6.4-.2.2-.3.4-.4.7v-.5-.4-.1H82.6V15.5zm-3.8-4.3h.7V14c0 .4.1.7.2.9.1.2.3.4.5.5.2.1.4.2.7.2h.5c.2 0 .4-.1.5-.1v-.1-.3-.4c-.1.1-.3.1-.4.1h-.3c-.2 0-.4-.1-.5-.2-.1-.1-.2-.4-.2-.7V13v-.9-.8H82v-.1-.2-.4h-1.5v-.7-.5-.2h-.8v1.4h-.6v.6zm-2.1 4.5c.2 0 .5 0 .7-.1.2-.1.4-.1.5-.3.2-.1.3-.3.4-.4.1-.2.1-.4.1-.6 0-.2 0-.3-.1-.5 0-.1-.1-.3-.2-.4-.1-.1-.3-.2-.5-.4-.2-.1-.4-.2-.7-.3-.3-.1-.5-.2-.7-.3-.2-.1-.3-.2-.4-.3-.1-.1-.1-.3-.1-.4 0-.1 0-.2.1-.4.1-.1.2-.2.3-.2.1-.1.3-.1.5-.1.3 0 .5.1.7.3.1.2.2.5.2.9h.8c0-.4-.1-.7-.2-1-.1-.3-.3-.5-.6-.7-.3-.2-.6-.2-1-.2s-.7.1-.9.2c-.3.1-.4.3-.6.5-.1.2-.2.4-.2.7 0 .2 0 .4.1.5.1.2.1.3.3.4.1.1.3.3.5.4.2.1.5.2.8.3.3.1.5.2.6.3.2.1.3.2.3.3.1.1.1.2.1.4s0 .3-.1.4c-.1.1-.2.2-.3.2-.1 0-.2.1-.4.1s-.4 0-.5-.1c-.1-.1-.3-.2-.3-.4-.1-.2-.1-.4-.1-.7H75c0 .4.1.8.2 1.1.1.3.4.5.6.6.2.1.5.2.9.2zM72.3 11c.2 0 .4.1.5.2.1.1.3.3.3.6.1.3.1.5.1.9-.5 0-.9 0-1.2.1h-.8c0-.2 0-.5.1-.7.1-.2.1-.4.2-.6.1-.2.2-.3.3-.4.2-.1.4-.1.5-.1zm.1 4.7c.3 0 .6-.1.9-.2.3-.1.5-.4.6-.6.2-.3.3-.6.4-1H73.4c-.1.4-.2.7-.3.9-.2.2-.4.3-.7.3-.3 0-.6-.1-.8-.4-.2-.3-.3-.7-.3-1.3h3c0-.4 0-.8-.1-1.2-.1-.4-.2-.7-.3-.9-.2-.3-.4-.5-.6-.6-.3-.1-.6-.2-.9-.2-.3 0-.6.1-.9.2-.2.1-.5.3-.6.5-.2.2-.3.5-.4.8-.1.3-.1.7-.1 1 0 .4 0 .8.1 1.1.1.3.2.6.4.9l.6.6c.2 0 .5.1.9.1zm-5-.2c.2 0 .4 0 .5-.1.2-.1.3-.2.5-.3.1-.1.3-.3.4-.5v1H69.6v-1.7-1.5-1.1-.7-.3H68.7v2.8c0 .3 0 .5-.1.7-.1.2-.1.4-.2.5-.1.1-.2.3-.3.3-.1.1-.2.1-.3.1-.2 0-.3 0-.4-.1-.1-.1-.2-.2-.3-.4-.1-.2-.1-.4-.2-.7 0-.3-.1-.6-.1-1.1v-.6-.7c0-.3 0-.4.1-.7h-.8c0 .4-.1.7-.1 1.1v1.1c0 .5 0 1 .1 1.3.1.4.2.6.3.9.1.2.3.4.5.5 0 .2.2.2.5.2z"/>
  <path class="st2" d="M33 27.7c.2 0 .5 0 .7-.1.2-.1.4-.1.5-.3.2-.1.3-.3.4-.4.1-.2.1-.4.1-.6 0-.2 0-.3-.1-.5 0-.1-.1-.3-.2-.4-.1-.1-.3-.2-.5-.4-.2-.1-.4-.2-.7-.3-.3-.1-.5-.2-.7-.3-.2-.1-.3-.2-.4-.3-.1-.1-.1-.3-.1-.4 0-.1 0-.2.1-.4.1-.1.2-.2.3-.2.1-.1.3-.1.5-.1.3 0 .5.1.7.3.1.2.2.5.2.9h.8c0-.4-.1-.7-.2-1-.1-.3-.3-.5-.6-.7s-.6-.2-1-.2-.7.1-.9.2c-.3.1-.4.3-.6.5-.1.2-.2.4-.2.7 0 .2 0 .4.1.5.1.2.1.3.3.4.1.1.3.3.5.4.2.1.5.2.8.3.3.1.5.2.6.3.2.1.3.2.3.3.1.1.1.2.1.4s0 .3-.1.4c-.1.1-.2.2-.3.2-.1 0-.2.1-.4.1s-.4 0-.5-.1c-.1-.1-.3-.2-.3-.4-.1-.2-.1-.4-.1-.7h-.8c0 .4.1.8.2 1.1.1.3.4.5.6.6.2.1.5.2.9.2M28.2 23c.2 0 .4.1.5.2.1.1.3.3.3.6.1.3.1.6.1.9-.5 0-.9 0-1.2.1h-.8c0-.2 0-.5.1-.7.1-.2.1-.4.2-.6.1-.2.2-.3.3-.4.2-.1.4-.1.5-.1zm.1 4.7c.3 0 .6-.1.9-.2.3-.1.5-.4.7-.6.2-.3.3-.6.4-1H29.4c-.1.4-.2.7-.3.9-.2.2-.4.3-.7.3-.3 0-.6-.1-.8-.4-.2-.3-.3-.7-.3-1.3h3c0-.4 0-.8-.1-1.2-.1-.4-.2-.7-.3-.9-.2-.3-.4-.5-.6-.6-.3-.1-.6-.2-.9-.2-.3 0-.6.1-.9.2-.2.1-.5.3-.6.5-.2.2-.3.5-.4.8-.1.3-.1.7-.1 1 0 .4 0 .8.1 1.1.1.3.2.6.4.9l.6.6c.1 0 .4.1.8.1zm-5.3-.2H23.9v-.1-.3-.5-.6-.6c0-.4.1-.8.2-1.1.1-.3.3-.5.5-.7.2-.2.5-.3.9-.3v-.6-.2c-.3 0-.5.1-.7.2-.2.1-.4.2-.6.4-.2.2-.3.4-.4.7v-.5-.4-.1H23V27.5zm-3.3-.5c-.3 0-.5-.1-.6-.2-.2-.2-.3-.4-.4-.7-.1-.3-.1-.6-.1-1s0-.8.1-1.1c.1-.3.2-.6.4-.7.2-.2.4-.3.6-.3.2 0 .4.1.6.3.2.2.3.4.4.7.1.3.1.7.1 1.1 0 .4 0 .8-.1 1.1-.1.3-.2.5-.4.7-.1 0-.3.1-.6.1zm-2 2.6s.1 0 0 0H18.6v-.7c0-.4 0-1.1-.1-2 .1.2.2.3.3.4.1.1.3.2.5.2s.3.1.5.1c.4 0 .7-.1 1-.3s.5-.5.6-.9c.1-.4.2-.9.2-1.5 0-.4 0-.8-.1-1.1-.1-.3-.2-.6-.4-.8-.2-.2-.3-.4-.6-.5-.2-.1-.5-.2-.7-.2-.2 0-.4 0-.6.1-.2.1-.3.2-.5.3-.1.1-.3.3-.4.5V23v-.2-.3h-.8V28c.2.6.2 1.1.2 1.6zm-5-2.2h1.1s0-.1.1-.2.2-.3.3-.6c.1-.3.3-.7.5-1.1.1.2.2.5.4.8l.7 1.4h1s-.1-.2-.4-.7c-.3-.4-.6-1.1-1.1-2 .1-.2.3-.5.5-.9s.6-1 1-1.7H15.9l-.3.6c-.2.4-.5.9-.8 1.7-.1-.1-.2-.4-.3-.7-.2-.3-.4-.8-.6-1.3h-1s0 .1.1.2l.4.8c.2.4.4.8.8 1.4l-.4.8c-.5.3-.8.8-1.1 1.5zM10 23c.2 0 .4.1.5.2.1.1.3.3.3.6.2.2.2.5.2.9-.5 0-.9 0-1.2.1H9c0-.2 0-.5.1-.7.1-.2.1-.4.2-.6.1-.2.2-.3.3-.4.1-.1.2-.1.4-.1zm0 4.7c.3 0 .6-.1.9-.2.3-.1.5-.4.7-.6.2-.3.3-.6.4-1H11.1c-.1.4-.2.7-.3.9-.3.1-.5.2-.8.2-.3 0-.6-.1-.8-.4-.2-.3-.3-.7-.3-1.3h3c0-.4 0-.8-.1-1.2-.1-.4-.2-.7-.3-.9-.2-.3-.4-.5-.6-.6-.3-.1-.6-.2-.9-.2-.3 0-.6.1-.9.2-.2.1-.5.3-.6.5-.2.2-.3.5-.4.8 0 .3-.1.7-.1 1.1 0 .4 0 .8.1 1.1.1.3.2.6.4.9l.6.6c.3 0 .6.1.9.1zM158.3 15c-.2 0-.4-.1-.6-.2-.2-.2-.3-.4-.4-.7-.1-.3-.1-.7-.1-1.1 0-.3 0-.5.1-.8 0-.2.1-.4.2-.6.1-.2.2-.3.3-.4.1-.1.3-.1.5-.1s.3.1.5.1.2.2.3.4c.1.2.2.4.2.6 0 .2.1.5.1.8 0 .4 0 .8-.1 1.1-.1.3-.2.5-.4.7-.1.1-.3.2-.6.2zm0 .7c.4 0 .8-.1 1.1-.3.3-.2.5-.5.7-.9.2-.4.2-.9.3-1.5 0-.4 0-.7-.1-1.1-.1-.3-.2-.6-.4-.8-.2-.2-.4-.4-.6-.5-.3-.1-.5-.2-.9-.2-.3 0-.6.1-.9.2-.2.1-.5.3-.6.5-.2.2-.3.5-.4.8-.1.3-.1.7-.1 1 0 .6.1 1 .2 1.4.1.4.4.7.7.9.2.3.6.5 1 .5zm-4.8 1h.8s0-.1.1-.3c.1-.2.1-.5.2-.9s.3-1 .4-1.7c.2-.7.4-1.5.7-2.4.3-.9.6-2 .9-3.2h-.8s0 .1-.1.2c0 .2-.1.4-.2.7-.1.3-.2.6-.3 1-.1.4-.2.9-.4 1.4-.1.5-.3 1-.4 1.6-.2.6-.3 1.2-.5 1.8 0 .5-.2 1.2-.4 1.8zm-1.8 1.1v-.1c0-.1.1-.3.1-.5.1-.2.1-.5.3-.9.1-.4.2-.8.4-1.4.2-.5.3-1.2.5-1.9s.5-1.6.7-2.6H152.8s0 .1-.1.5c-.1.3-.2.8-.3 1.4-.2.6-.4 1.4-.6 2.4 0 0 0-.1-.1-.3-.1-.2-.1-.5-.2-.8-.1-.4-.2-.8-.3-1.3-.1-.5-.3-1-.4-1.6H149.9s.1.2.2.5c.1.4.3.9.5 1.7.2.8.5 1.7.9 2.9v.2c0 .1-.1.3-.2.6s-.2.6-.3 1.1h.1c.1 0 .2 0 .3.1 0-.1.1-.1.3 0zm-9.9-2.1c.2 0 .5 0 .7-.1.2-.1.4-.1.5-.3.2-.1.3-.3.4-.4.1-.2.1-.4.1-.6 0-.2 0-.3-.1-.5 0-.1-.1-.3-.2-.4-.1-.1-.3-.2-.5-.4-.2-.1-.4-.2-.7-.3-.3-.1-.5-.2-.7-.3-.2-.1-.3-.2-.4-.3-.1-.1-.1-.3-.1-.4 0-.1 0-.2.1-.4.1-.1.2-.2.3-.2.1-.1.3-.1.5-.1.3 0 .5.1.7.3.1.2.2.5.2.9h.8c0-.4-.1-.7-.2-1-.1-.3-.3-.5-.6-.7s-.6-.2-1-.2-.7.1-.9.2c-.3.1-.4.3-.6.5-.1.2-.2.4-.2.7 0 .2 0 .4.1.5.1.2.1.3.3.4.1.1.3.3.5.4.2.1.5.2.8.3.3.1.5.2.6.3.2.1.3.2.3.3.1.1.1.2.1.4s0 .3-.1.4c-.1.1-.2.2-.3.2-.1.1-.3.1-.4.1-.2 0-.4 0-.5-.1-.1-.1-.3-.2-.3-.4-.1-.2-.1-.4-.1-.7h-.8c0 .4.1.8.2 1.1.1.3.4.5.6.6.2.1.5.2.9.2zm-4.4-4.7c.2 0 .4.1.5.2.1.1.3.3.3.6.1.3.1.6.1.9-.5 0-.9 0-1.2.1h-.8c0-.2 0-.5.1-.7.1-.2.1-.4.2-.6.1-.2.2-.3.3-.4.2-.1.4-.1.5-.1zm.1 4.7c.3 0 .6-.1.9-.2.3-.1.5-.4.6-.6.2-.3.3-.6.4-1H138.5c-.1.4-.2.7-.3.9-.2.2-.4.3-.7.3-.3 0-.6-.1-.8-.4-.2-.3-.3-.7-.3-1.3h3c0-.4 0-.8-.1-1.2-.1-.4-.2-.7-.3-.9-.2-.3-.4-.5-.6-.6-.3-.1-.6-.2-.9-.2-.3 0-.6.1-.9.2-.2.1-.5.3-.6.5-.2.2-.3.5-.4.8-.1.3-.1.7-.1 1 0 .4 0 .8.1 1.1.1.3.2.6.4.9l.6.6c.2 0 .5.1.9.1zm-4.9-.7c-.3 0-.6-.2-.8-.5-.2-.3-.3-.8-.3-1.5 0-.3 0-.5.1-.8 0-.2.1-.4.2-.6.1-.2.2-.3.3-.4.1-.1.3-.2.4-.2.4 0 .6.2.8.5.2.4.3.9.3 1.6 0 .4 0 .8-.1 1-.1.3-.2.5-.4.6-.1.2-.3.3-.5.3zm2 .7v-1.9-1.7-1.4-1.1-.7-.2H133.6v2.5c-.1-.2-.2-.3-.3-.4-.1-.1-.3-.2-.4-.3-.2-.1-.4-.1-.6-.1-.3 0-.6.1-.8.2-.2.1-.4.3-.6.6-.1.2-.3.5-.3.9-.1.3-.1.7-.1 1.1 0 .5.1 1 .2 1.4.1.4.3.7.6.9.3.2.6.3 1 .3.2 0 .4 0 .6-.1.2-.1.3-.2.5-.3.1-.1.3-.3.4-.5v.9h.7l.1-.1zm-5.6-2.2c0 .3 0 .5-.1.7-.1.2-.2.3-.3.5-.1.1-.2.2-.4.2-.1 0-.3.1-.4.1-.3 0-.5-.1-.6-.2-.1-.1-.2-.3-.2-.6 0-.2 0-.3.1-.4.1-.1.2-.3.3-.4.2-.1.3-.2.6-.3.2-.1.5-.1.9-.1v.4c.1 0 .1 0 .1.1zm-1.4 2.1c.2 0 .4 0 .6-.1.2-.1.4-.2.5-.3.1-.1.3-.3.4-.5V15.6h.8v-.2-.5-.7-.9-1.1c0-.6-.2-1.1-.5-1.4-.3-.3-.7-.5-1.3-.5-.4 0-.7.1-.9.2-.3.1-.5.3-.6.6-.1.3-.2.6-.2.9H127.2c0-.4.1-.6.2-.8.1-.2.4-.3.7-.3.3 0 .5.1.6.3.1.2.2.4.2.8v.4c-.6 0-1.2.1-1.6.2-.4.2-.7.4-.9.6-.2.3-.3.6-.3.9 0 .3.1.5.2.7.1.2.3.4.5.5.2.2.5.3.8.3zm-4.2-.6c-.3 0-.6-.2-.8-.5-.2-.3-.3-.8-.3-1.5 0-.3 0-.5.1-.8.1-.2.1-.4.2-.6.1-.2.2-.3.3-.4.1-.1.3-.2.4-.2.4 0 .6.2.8.5.2.4.3.9.3 1.6 0 .4 0 .8-.1 1-.1.3-.2.5-.4.6-.1.2-.3.3-.5.3zm2 .7v-1.9-1.7-1.4-1.1-.7-.2H124.4v2.5c-.1-.2-.2-.3-.3-.4-.1-.1-.3-.2-.4-.3-.2-.1-.4-.1-.6-.1-.3 0-.6.1-.8.2-.2.1-.4.3-.6.6-.1.2-.3.5-.3.9-.1.3-.1.7-.1 1.1 0 .5.1 1 .2 1.4.1.4.3.7.6.9.3.2.6.3 1 .3.2 0 .4 0 .6-.1.2-.1.3-.2.5-.3.1-.1.3-.3.4-.5v.9h.7l.1-.1z"/>
  <path class="st2" d="M104.6 27c-.2 0-.4-.1-.6-.2-.2-.2-.3-.4-.4-.7-.1-.3-.1-.7-.1-1.1 0-.3 0-.5.1-.8 0-.2.1-.4.2-.6.1-.2.2-.3.3-.4.1-.1.3-.1.5-.1s.3.1.5.1c.1.1.2.2.3.4.1.2.2.4.2.6 0 .2.1.5.1.8 0 .4 0 .8-.1 1.1-.1.3-.2.5-.4.7-.1.1-.3.2-.6.2m0 .7c.4 0 .8-.1 1.1-.3.3-.2.5-.5.7-.9.2-.4.2-.9.3-1.5 0-.4 0-.7-.1-1.1-.1-.3-.2-.6-.4-.8-.2-.2-.4-.4-.6-.5-.3-.1-.5-.2-.9-.2-.3 0-.6.1-.9.2-.2.1-.5.3-.6.5-.2.2-.3.5-.4.8-.1.3-.1.7-.1 1 0 .6.1 1 .2 1.4.1.4.4.7.7.9.2.3.6.5 1 .5zm-5.2-.2H100.3v-.1-.3-.5-.6-.6c0-.4.1-.8.2-1.1.1-.3.3-.5.5-.7.2-.2.5-.3.9-.3v-.6-.2c-.3 0-.5.1-.7.2-.2.1-.4.2-.6.4-.2.2-.3.4-.4.7v-.5-.4-.1H99.4V27.5zM96.2 23c.2 0 .4.1.5.2.1.1.3.3.3.6.1.3.1.5.1.9-.5 0-.9 0-1.2.1h-.8c0-.2 0-.5.1-.7.1-.2.1-.4.2-.6.1-.2.2-.3.3-.4.2-.1.4-.1.5-.1zm.1 4.7c.3 0 .6-.1.9-.2.3-.1.5-.4.6-.6.2-.3.3-.6.4-1H97.3c-.1.4-.2.7-.3.9-.2.2-.4.3-.7.3-.3 0-.6-.1-.8-.4-.2-.3-.3-.7-.3-1.3h3c0-.4 0-.8-.1-1.2-.1-.4-.2-.7-.3-.9-.2-.3-.4-.5-.6-.6-.3-.1-.6-.2-.9-.2-.3 0-.6.1-.9.2-.2.1-.5.3-.6.5-.2.2-.3.5-.4.8-.1.3-.1.7-.1 1 0 .4 0 .8.1 1.1.1.3.2.6.4.9l.6.6c.2 0 .5.1.9.1zm-4.1 0H93.1v-.2-.5-.6-.7-.7-.6-.4c0-.3-.1-.6-.2-.8-.1-.2-.2-.4-.4-.5-.2-.1-.4-.2-.7-.2-.2 0-.5 0-.7.1-.2.1-.4.2-.5.4-.1.2-.3.4-.4.6v-.4-.3-.1H89.4v4.7h.9v-.1-.3-.5-.5-.5-.4c0-.2 0-.4.1-.6.1-.2.1-.4.2-.5.1-.2.2-.3.4-.4.1-.1.3-.1.5-.1s.3 0 .4.1c.1.1.2.2.2.4s.1.3.1.6v3zM86.4 23c.2 0 .4.1.5.2.1.1.3.3.3.6.1.3.1.5.1.9-.5 0-.9 0-1.2.1h-.8c0-.2 0-.5.1-.7.1-.2.1-.4.2-.6.1-.2.2-.3.3-.4.1-.1.3-.1.5-.1zm0 4.7c.3 0 .6-.1.9-.2.3-.1.5-.4.6-.6.2-.3.3-.6.4-1H87.4c-.1.4-.2.7-.3.9-.2.2-.4.3-.7.3-.3 0-.6-.1-.8-.4-.2-.3-.3-.7-.3-1.3h3c0-.4 0-.8-.1-1.2-.1-.4-.2-.7-.3-.9-.2-.3-.4-.5-.6-.6-.3-.1-.6-.2-.9-.2-.3 0-.6.1-.9.2-.2.1-.5.3-.6.5-.2.2-.3.5-.4.8-.1.3-.1.7-.1 1 0 .4 0 .8.1 1.1.1.3.2.6.4.9l.6.6c.2 0 .5.1.9.1zm-.1-5.7l.1-.1.4-.4c.2-.2.4-.4.7-.8 0 0-.1 0-.2-.1s-.3-.2-.5-.3c0 0 0 .1-.1.2s-.2.3-.3.5c-.1.2-.3.5-.6.8l.1.1c.1-.2.3-.1.4.1zm-3.4 6.7c0 .2-.1.3-.2.4-.1.1-.3.2-.5.3-.2.1-.4.1-.7.1-.3 0-.6-.1-.8-.2-.2-.1-.3-.3-.3-.5s.1-.3.2-.5c.1-.1.4-.3.6-.4.3 0 .6.1.8.1s.4.1.5.2c.3.2.4.3.4.5zm-1.4-2.8c-.3 0-.6-.1-.7-.4-.2-.2-.2-.6-.2-1.1 0-.3 0-.6.1-.8.1-.2.2-.4.3-.5.1-.1.3-.2.5-.2s.4.1.5.2c.1.1.3.3.3.5.1.2.1.5.1.8 0 .3 0 .6-.1.8-.1.2-.2.4-.3.5-.1.2-.3.2-.5.2zm-.1 4.2c.3 0 .6 0 .9-.1.3-.1.5-.2.7-.3.2-.1.4-.3.5-.5.1-.2.2-.4.2-.7 0-.2-.1-.4-.2-.6-.1-.2-.3-.3-.6-.4-.3-.1-.6-.2-1-.2-.3 0-.5-.1-.7-.1-.2 0-.3-.1-.3-.1-.1 0-.1-.1-.1-.2s0-.1.1-.2c0-.1.1-.1.2-.1h.5c.3 0 .5 0 .7-.1.2-.1.4-.2.6-.4.2-.2.3-.4.4-.7.1-.3.1-.6.1-.9 0-.2 0-.5-.1-.7-.1-.2-.1-.4-.2-.6-.1-.2-.2-.3-.4-.5.2-.4.3-.7.5-.9.1-.3.2-.5.3-.6s.1-.2.1-.2c-.3-.1-.5-.2-.6-.2-.1-.1-.2-.1-.2-.1-.1.5-.3.8-.4 1.1-.1.3-.2.5-.2.7-.1 0-.2-.1-.3-.1h-.3c-.3 0-.6.1-.8.2-.2.1-.4.3-.6.5-.2.2-.3.4-.4.7-.1.3-.1.5-.1.8 0 .5.1.9.2 1.2.2.3.4.6.7.7-.2.1-.3.2-.4.3-.1.1-.1.3-.1.4 0 .1.1.3.1.4.1.1.3.2.5.3l-.6.3c-.2.1-.3.3-.4.4-.1.1-.1.3-.1.5s.1.4.2.6c.1.2.4.3.6.4.3-.1.6 0 1 0zM70.8 23c.2 0 .4.1.5.2.1.1.3.3.3.6.1.3.1.5.1.9-.5 0-.9 0-1.2.1h-.8c0-.2 0-.5.1-.7.1-.2.1-.4.2-.6.1-.2.2-.3.3-.4.2-.1.3-.1.5-.1zm0 4.7c.3 0 .6-.1.9-.2.3-.1.5-.4.7-.6s.3-.6.4-1H71.9c-.1.4-.2.7-.3.9-.2.2-.4.3-.7.3-.3 0-.6-.1-.8-.4-.2-.3-.3-.7-.3-1.3h3c0-.4 0-.8-.1-1.2-.1-.4-.2-.7-.3-.9-.2-.3-.4-.5-.6-.6-.3-.1-.6-.2-.9-.2-.3 0-.6.1-.9.2-.2.1-.5.3-.6.5-.2.2-.3.5-.4.8-.1.3-.1.7-.1 1 0 .4 0 .8.1 1.1.1.3.2.6.4.9l.6.6c.1 0 .4.1.8.1zm-5.2-.7c-.3 0-.6-.2-.8-.5-.2-.3-.3-.8-.3-1.5 0-.3 0-.5.1-.8 0-.2.1-.4.2-.6.1-.2.2-.3.3-.4.1-.1.3-.2.4-.2.4 0 .6.2.8.5.2.4.3.9.3 1.6 0 .4 0 .8-.1 1-.1.3-.2.5-.4.6-.1.2-.3.3-.5.3zm1.9.7v-1.9-1.7-1.4-1.1-.7-.2H66.5v2.5c-.1-.2-.2-.3-.3-.4-.1-.1-.3-.2-.4-.3-.2-.1-.4-.1-.6-.1-.3 0-.6.1-.8.2-.2.1-.4.3-.6.6-.1.2-.3.5-.3.9-.1.3-.1.7-.1 1.1 0 .5.1 1 .2 1.4.1.4.3.7.6.9.3.2.6.3 1 .3.2 0 .4 0 .6-.1.2-.1.3-.2.5-.3.1-.1.3-.3.4-.5v.9h.7l.1-.1zm-12.6 0c.2 0 .5 0 .7-.1.2-.1.4-.1.5-.3.2-.1.3-.3.4-.4.1-.2.1-.4.1-.6 0-.2 0-.3-.1-.5 0-.1-.1-.3-.2-.4-.1-.1-.3-.2-.5-.4-.2-.1-.4-.2-.7-.3-.3-.1-.5-.2-.7-.3-.2-.1-.3-.2-.4-.3-.1-.1-.1-.3-.1-.4 0-.1 0-.2.1-.4.1-.1.2-.2.3-.2.1-.1.3-.1.5-.1.3 0 .5.1.7.3.1.2.2.5.2.9h.8c0-.4-.1-.7-.2-1-.1-.3-.3-.5-.6-.7-.3-.2-.6-.2-1-.2s-.7.1-.9.2c-.3.1-.4.3-.6.5-.1.2-.2.4-.2.7 0 .2 0 .4.1.5.1.2.1.3.3.4.1.1.3.3.5.4.2.1.5.2.8.3.3.1.5.2.6.3.2.1.3.2.3.3.1.1.1.2.1.4s0 .3-.1.4c-.1.1-.2.2-.3.2-.1 0-.3.1-.4.1-.2 0-.4 0-.5-.1-.1-.1-.3-.2-.3-.4-.1-.2-.1-.4-.1-.7h-.8c0 .4.1.8.2 1.1.1.3.4.5.6.6.2.1.5.2.9.2zM50.1 23c.2 0 .4.1.5.2.1.1.3.3.3.6.1.3.1.5.1.9-.5 0-.9 0-1.2.1H49c0-.2 0-.5.1-.7.1-.2.1-.4.2-.6.1-.2.2-.3.3-.4.2-.1.4-.1.5-.1zm0 4.7c.3 0 .6-.1.9-.2.3-.1.5-.4.6-.6.2-.3.3-.6.4-1H51.1c-.1.4-.2.7-.3.9-.2.2-.4.3-.7.3-.3 0-.6-.1-.8-.4-.2-.3-.3-.7-.3-1.3h3c0-.4 0-.8-.1-1.2-.1-.4-.2-.7-.3-.9-.2-.3-.4-.5-.6-.6-.3-.1-.6-.2-.9-.2-.3 0-.6.1-.9.2-.2.1-.5.3-.6.5-.2.2-.3.5-.4.8-.1.3-.1.7-.1 1 0 .4 0 .8.1 1.1.1.3.2.6.4.9l.6.6c.3 0 .6.1.9.1zm-4 0H47v-.2-.5-.6-.7-.7-.6-.4c0-.3-.1-.6-.2-.8-.1-.2-.2-.4-.4-.5-.2-.1-.4-.2-.7-.2-.3 0-.5 0-.7.1-.2.1-.4.2-.5.4-.1.2-.3.4-.4.6v-.4-.3-.1H43.3v4.7h.9v-.1-.3-.5-.5-.5-.4c0-.2 0-.4.1-.6.1-.2.1-.4.2-.5.1-.2.2-.3.4-.4.1-.1.3-.1.5-.1s.3 0 .4.1c.1.1.2.2.2.4s.1.3.1.6v3zm-6-.7c-.2 0-.4-.1-.6-.2-.2-.2-.3-.4-.4-.7-.1-.3-.1-.7-.1-1.1 0-.3 0-.5.1-.8 0-.2.1-.4.2-.6.1-.2.2-.3.3-.4.1-.1.3-.1.5-.1s.3.1.5.1c.1.1.2.2.3.4.1.2.2.4.2.6 0 .2.1.5.1.8 0 .4 0 .8-.1 1.1-.1.3-.2.5-.4.7-.1.1-.3.2-.6.2zm0 .7c.4 0 .8-.1 1.1-.3.3-.2.5-.5.7-.9.2-.4.2-.9.3-1.5 0-.4 0-.7-.1-1.1s-.2-.6-.4-.8c-.2-.2-.4-.4-.6-.5-.3-.1-.5-.2-.9-.2-.3 0-.6.1-.9.2-.2.1-.5.3-.6.5-.2.2-.3.5-.4.8-.1.3-.1.7-.1 1 0 .6.1 1 .2 1.4.1.4.4.7.7.9.2.3.6.5 1 .5zm-3.7-5.9c.1 0 .2 0 .3-.1.1-.1.2-.1.2-.2s.1-.2.1-.3c0-.1 0-.2-.1-.3 0-.1-.1-.2-.2-.2-.1-.1-.2-.1-.3-.1-.2 0-.4.1-.5.2-.1.1-.2.3-.2.4 0 .2.1.3.2.4.1.2.3.2.5.2zm-.5 5.7h.9v-2-1.6-1-.4H36v4.7c-.1.2-.1.3-.1.3z"/>
  <path class="st2" d="M16 39.3h.9v-.1-.4-.6-.6-.7c0-.3 0-.5.1-.7.1-.2.1-.4.3-.6.1-.2.2-.3.4-.4.1-.1.3-.1.4-.1.1 0 .3 0 .4.1.1.1.2.2.2.4s.1.3.1.5v3h.9V39v-.4-.5-.6-.6c0-.2 0-.4.1-.6 0-.2.1-.4.2-.5.1-.1.2-.3.3-.3.1-.1.3-.1.4-.1.2 0 .4.1.5.3.1.2.2.4.2.8V39.7H22.3v-.1-.4-.6-.7-.8-.8c0-.2 0-.4-.1-.6 0-.2-.1-.4-.2-.5-.1-.2-.2-.3-.4-.4-.2-.1-.4-.1-.6-.1-.2 0-.4 0-.6.1-.2.1-.3.2-.5.3-.1.1-.3.3-.4.5 0-.2-.1-.4-.2-.6-.1-.2-.2-.3-.4-.4-.2-.1-.4-.1-.6-.1-.2 0-.4.1-.6.2-.2.1-.4.2-.5.4-.2.2-.3.4-.4.6v-.5-.3-.1H16v4.5M13.3 35c.2 0 .4.1.5.2.1.1.3.3.3.6.1.3.1.5.1.9-.5 0-.9 0-1.2.1h-.8c0-.2 0-.5.1-.7.1-.2.1-.4.2-.6.1-.2.2-.3.3-.4.2-.1.3-.1.5-.1zm0 4.7c.3 0 .6-.1.9-.2.3-.1.5-.4.6-.6.2-.3.3-.6.4-1H14.3c-.1.4-.2.7-.3.9-.2.2-.4.3-.7.3-.3 0-.6-.1-.8-.4-.2-.3-.3-.7-.3-1.3h3c0-.4 0-.8-.1-1.2-.1-.4-.2-.7-.3-.9-.2-.3-.4-.5-.6-.6-.3-.1-.6-.2-.9-.2-.3 0-.6.1-.9.2-.2.1-.5.3-.6.5-.2.2-.3.5-.4.8-.1.3-.1.7-.1 1 0 .4 0 .8.1 1.1.1.3.2.6.4.9l.6.6c.2 0 .5.1.9.1zm-5.5-4.5h.7V38c0 .4.1.7.2.9.1.2.3.4.5.5.2.1.4.2.7.2.2 0 .3 0 .5-.1.2 0 .4-.1.5-.1v-.1-.3-.4c-.1.1-.3.1-.4.1h-.3c-.2 0-.4-.1-.5-.2-.1-.1-.2-.4-.2-.7v-.9-.9-.8H11v-.1-.2-.4H9.5v-.7-.5-.2h-.8v1.4h-.6v.7zm150.8-5.4v-.1c0-.1.1-.3.1-.5.1-.2.1-.5.3-.9.1-.4.2-.8.4-1.4.2-.5.3-1.2.5-1.9s.4-1.6.7-2.6H159.7s0 .1-.1.5c-.1.3-.2.8-.3 1.4-.2.6-.4 1.4-.6 2.4 0 0 0-.1-.1-.3-.1-.2-.1-.5-.2-.8-.1-.4-.2-.8-.3-1.3-.1-.5-.3-1-.4-1.6H156.8s.1.2.2.5c.1.4.3.9.5 1.7.2.8.5 1.7.9 2.9v.2c0 .1-.1.3-.2.6s-.2.6-.3 1.1h.1c.1 0 .2 0 .3.1-.1-.1.1-.1.3 0zm-5-2.3c.2 0 .4 0 .5-.1.2-.1.3-.2.5-.3.1-.1.3-.3.4-.5v1H155.8v-1.7-1.5-1.1-.7-.3H154.9v2.8c0 .3 0 .5-.1.7-.1.2-.1.4-.2.5-.1.1-.2.3-.3.3-.1.1-.2.1-.4.1s-.3 0-.4-.1c-.1-.1-.2-.2-.3-.4s-.1-.4-.2-.7c0-.3-.1-.6-.1-1.1v-.6-.7c0-.2 0-.4.1-.7h-.8c0 .4-.1.7-.1 1.1v1.1c0 .5 0 1 .1 1.3.1.4.2.6.3.9.1.2.3.4.5.5.1.2.3.2.6.2zm-8.9-.2h.9v-.1-.4-.6-.6-.7c0-.3 0-.5.1-.7.1-.2.1-.4.3-.6.1-.2.2-.3.4-.4.1-.1.3-.1.4-.1.1 0 .3 0 .4.1.1.1.2.2.2.4s.1.3.1.5v3h.9V27v-.4-.5-.6-.6c0-.2 0-.4.1-.6 0-.2.1-.4.2-.5.1-.1.2-.3.3-.3.1-.1.3-.1.4-.1.2 0 .4.1.5.3.1.2.2.4.2.8V27.7h.8v-.1-.4-.6-.7-.8-.8c0-.2 0-.4-.1-.6 0-.2-.1-.4-.2-.5-.1-.2-.2-.3-.4-.4-.2-.1-.4-.1-.6-.1-.2 0-.4 0-.6.1-.2.1-.3.2-.5.3-.1.1-.3.3-.4.5 0-.2-.1-.4-.2-.6-.1-.2-.2-.3-.4-.4-.2-.1-.4-.1-.6-.1-.2 0-.4.1-.6.2-.2.1-.4.2-.5.4-.2.2-.3.4-.4.6v-.5-.3-.1H144.6v4.4c.1 0 .1.1.1.1zm-9.1-4.3c.2 0 .4.1.5.2.1.1.3.3.3.6.1.3.1.6.1.9-.5 0-.9 0-1.2.1h-.8c0-.2 0-.5.1-.7.1-.2.1-.4.2-.6.1-.2.2-.3.3-.4.2-.1.3-.1.5-.1zm0 4.7c.3 0 .6-.1.9-.2.3-.1.5-.4.7-.6.2-.3.3-.6.4-1H136.7c-.1.4-.2.7-.3.9-.2.2-.4.3-.7.3-.3 0-.6-.1-.8-.4-.2-.3-.3-.7-.3-1.3h3c0-.4 0-.8-.1-1.2-.1-.4-.2-.7-.3-.9-.2-.3-.4-.5-.6-.6-.3-.1-.6-.2-.9-.2-.3 0-.6.1-.9.2-.2.1-.5.3-.6.5-.2.2-.3.5-.4.8-.1.3-.1.7-.1 1 0 .4 0 .8.1 1.1.1.3.2.6.4.9l.6.6c.1 0 .4.1.8.1zm-5.2-.7c-.3 0-.6-.2-.8-.5-.2-.3-.3-.8-.3-1.5 0-.3 0-.5.1-.8 0-.2.1-.4.2-.6.1-.2.2-.3.3-.4.1-.1.3-.2.4-.2.4 0 .6.2.8.5.2.4.3.9.3 1.6 0 .4 0 .8-.1 1-.1.3-.2.5-.4.6-.1.2-.3.3-.5.3zm2 .7v-1.9-1.7-1.4-1.1-.7-.2H131.4v2.5c-.1-.2-.2-.3-.3-.4-.1-.1-.3-.2-.4-.3-.2-.1-.4-.1-.6-.1-.3 0-.6.1-.8.2-.2.1-.4.3-.6.6-.1.2-.3.5-.3.9-.1.3-.1.7-.1 1.1 0 .5.1 1 .2 1.4.1.4.3.7.6.9.3.2.6.3 1 .3.2 0 .4 0 .6-.1.2-.1.3-.2.5-.3.1-.1.3-.3.4-.5v.9h.7c0-.1 0-.1.1-.1zm-6.7 0c.2 0 .5 0 .7-.1.2-.1.4-.1.5-.3.2-.1.3-.3.4-.4.1-.2.1-.4.1-.6 0-.2 0-.3-.1-.5 0-.1-.1-.3-.2-.4-.1-.1-.3-.2-.5-.4-.2-.1-.4-.2-.7-.3-.3-.1-.5-.2-.7-.3-.2-.1-.3-.2-.4-.3-.1-.1-.1-.3-.1-.4 0-.1 0-.2.1-.4.1-.1.2-.2.3-.2.1-.1.3-.1.5-.1.3 0 .5.1.7.3.1.2.2.5.2.9h.8c0-.4-.1-.7-.2-1-.1-.3-.3-.5-.6-.7-.3-.2-.6-.2-1-.2s-.7.1-.9.2c-.3.1-.4.3-.6.5-.1.2-.2.4-.2.7 0 .2 0 .4.1.5.1.2.1.3.3.4.1.1.3.3.5.4.2.1.5.2.8.3.3.1.5.2.6.3.2.1.3.2.3.3.1.1.1.2.1.4s0 .3-.1.4c-.1.1-.2.2-.3.2-.1.1-.3.1-.4.1-.2 0-.4 0-.5-.1-.1-.1-.3-.2-.3-.4-.1-.2-.1-.4-.1-.7h-.8c0 .4.1.8.2 1.1.1.3.4.5.6.6.2.1.5.2.9.2zM121 23c.2 0 .4.1.5.2.1.1.3.3.3.6.1.3.1.6.1.9-.5 0-.9 0-1.2.1h-.8c0-.2 0-.5.1-.7.1-.2.1-.4.2-.6.1-.2.2-.3.3-.4.1-.1.3-.1.5-.1zm0 4.7c.3 0 .6-.1.9-.2.3-.1.5-.4.6-.6.2-.3.3-.6.4-1H122c-.1.4-.2.7-.3.9-.2.2-.4.3-.7.3-.3 0-.6-.1-.8-.4-.2-.3-.3-.7-.3-1.3h3c0-.4 0-.8-.1-1.2-.1-.4-.2-.7-.3-.9-.2-.3-.4-.5-.6-.6-.3-.1-.6-.2-.9-.2-.3 0-.6.1-.9.2-.2.1-.5.3-.6.5-.2.2-.3.5-.4.8-.1.3-.1.7-.1 1 0 .4 0 .8.1 1.1.1.3.2.6.4.9l.6.6c.2 0 .5.1.9.1zm-5.3-.7c-.3 0-.6-.2-.8-.5-.2-.3-.3-.8-.3-1.5 0-.3 0-.5.1-.8.1-.2.1-.4.2-.6.1-.2.2-.3.3-.4.1-.1.3-.2.4-.2.4 0 .6.2.8.5.2.4.3.9.3 1.6 0 .4 0 .8-.1 1-.1.3-.2.5-.4.6-.1.2-.2.3-.5.3zm2 .7v-1.9-1.7-1.4-1.1-.7-.2H116.7v2.5c-.1-.2-.2-.3-.3-.4-.1-.1-.3-.2-.4-.3-.2-.1-.4-.1-.6-.1-.3 0-.6.1-.8.2-.2.1-.4.3-.6.6-.1.2-.3.5-.3.9-.1.3-.1.7-.1 1.1 0 .5.1 1 .2 1.4.1.4.3.7.6.9.3.2.6.3 1 .3.2 0 .4 0 .6-.1.2-.1.3-.2.5-.3.1-.1.3-.3.4-.5v.9h.7l.1-.1z"/>
  <path class="st2" d="M10 59c.2 0 .4.1.5.2.1.1.3.3.3.6.2.2.2.5.2.9-.5 0-.9 0-1.2.1H9c0-.2 0-.5.1-.7.1-.2.1-.4.2-.6.1-.2.2-.3.3-.4.1-.1.2-.1.4-.1m0 4.7c.3 0 .6-.1.9-.2.3-.1.5-.4.6-.6.2-.3.3-.6.4-1H11c-.1.4-.2.7-.3.9-.2.1-.4.2-.7.2-.3 0-.6-.1-.8-.4-.2-.3-.3-.7-.3-1.3h3c0-.4 0-.8-.1-1.2-.1-.4-.2-.7-.3-.9-.2-.3-.4-.5-.6-.6-.3-.1-.6-.2-.9-.2-.3 0-.6.1-.9.2-.2.1-.5.3-.6.5-.2.2-.3.5-.4.8 0 .3-.1.7-.1 1.1 0 .4 0 .8.1 1.1.1.3.2.6.4.9l.6.6c.3 0 .6.1.9.1zm3.2-12.3v-.1-.4-.8-1.3V47v-2.4H12.3v6.8H13.2zm-5 .1h3.3v-.6-.2H9v-1.1-1h2.2V48v-.2H9.1v-1.3-.9-.3h2.5v-.6-.2H8.3v6.6c-.1.2-.1.4-.1.4zm55.7-12c.2 0 .4-.1.5-.2.1-.1.2-.3.2-.5 0-.1 0-.2-.1-.3-.1-.1-.1-.2-.2-.2s-.2-.1-.3-.1c-.1 0-.2 0-.3.1-.1.1-.2.1-.2.2-.1.1-.1.2-.1.4 0 .1 0 .3.1.4 0 .1.1.2.2.2h.2zm-3.4-.5c-.3 0-.6-.2-.8-.5-.2-.3-.3-.8-.3-1.5 0-.3 0-.5.1-.8.1-.2.1-.4.2-.6.1-.2.2-.3.3-.4.1-.1.3-.2.4-.2.4 0 .6.2.8.5.2.4.3.9.3 1.6 0 .4 0 .8-.1 1-.1.3-.2.5-.4.6-.1.2-.3.3-.5.3zm2 .7v-1.9-1.7-1.4-1.1-.7-.2H61.5v2.5c-.1-.2-.2-.3-.3-.4-.1-.1-.3-.2-.4-.3-.2-.1-.4-.1-.6-.1-.3 0-.6.1-.8.2-.2.1-.4.3-.6.6-.1.2-.3.5-.3.9-.1.3-.1.7-.1 1.1 0 .5.1 1 .2 1.4.1.4.3.7.6.9.3.2.6.3 1 .3.2 0 .4 0 .6-.1.2-.1.3-.2.5-.3.1-.1.3-.3.4-.5v.9h.7c0-.1.1-.1.1-.1zm-5.6-2.2c0 .3 0 .5-.1.7-.1.2-.2.3-.3.5-.1.1-.2.2-.4.2-.1.1-.3.1-.4.1-.3 0-.5-.1-.6-.2-.1-.1-.2-.3-.2-.6 0-.2 0-.3.1-.4.1-.1.2-.3.3-.4.2-.1.3-.2.6-.3.2-.1.5-.1.9-.1v.4c0 .1.1 0 .1.1zm-1.4 2.1c.2 0 .4 0 .6-.1.2-.1.4-.2.5-.3.1-.1.3-.3.4-.5V39.6h.8v-.2-.5-.7-.9-1.1c0-.6-.2-1.1-.5-1.4-.3-.3-.7-.5-1.3-.5-.4 0-.7.1-.9.2-.3.1-.5.3-.6.6-.1.3-.2.6-.2.9H55.1c0-.4.1-.6.2-.8.1-.2.4-.3.7-.3.3 0 .5.1.6.3.1.2.2.4.2.8v.4c-.6 0-1.2.1-1.6.2-.4.2-.7.4-.9.6-.2.3-.3.6-.3.9 0 .3.1.5.2.7.1.2.3.4.5.5.3.2.5.3.8.3zm-4.1-.6c-.3 0-.6-.2-.8-.5-.2-.3-.3-.8-.3-1.5 0-.3 0-.5.1-.8.1-.2.1-.4.2-.6.1-.2.2-.3.3-.4.1-.1.3-.2.4-.2.4 0 .6.2.8.5.2.4.3.9.3 1.6 0 .4 0 .8-.1 1-.1.3-.2.5-.4.6-.1.2-.3.3-.5.3zm2 .7v-1.9-1.7-1.4-1.1-.7-.2H52.4v2.5c-.1-.2-.2-.3-.3-.4-.1-.1-.3-.2-.4-.3-.2-.1-.4-.1-.6-.1-.3 0-.6.1-.8.2-.2.1-.4.3-.6.6-.1.2-.3.5-.3.9-.1.3-.1.7-.1 1.1 0 .5.1 1 .2 1.4.1.4.3.7.6.9.3.2.6.3 1 .3.2 0 .4 0 .6-.1.2-.1.3-.2.5-.3.1-.1.3-.3.4-.5v.9h.7c0-.1.1-.1.1-.1zM46.8 35c.2 0 .4.1.5.2.1.1.3.3.3.6.1.3.1.5.1.9-.5 0-.9 0-1.2.1h-.8c0-.2 0-.5.1-.7.1-.2.1-.4.2-.6.1-.2.2-.3.3-.4.2-.1.4-.1.5-.1zm0 4.7c.3 0 .6-.1.9-.2.3-.1.5-.4.7-.6.2-.3.3-.6.4-1H47.9c-.1.4-.2.7-.3.9-.2.2-.4.3-.7.3-.3 0-.6-.1-.8-.4-.2-.3-.3-.7-.3-1.3h3c0-.4 0-.8-.1-1.2-.1-.4-.2-.7-.3-.9-.2-.3-.4-.5-.6-.6-.3-.1-.6-.2-.9-.2-.3 0-.6.1-.9.2-.2.1-.5.3-.6.5-.2.2-.3.5-.4.8-.1.3-.1.7-.1 1 0 .4 0 .8.1 1.1.1.3.2.6.4.9l.6.6c.2 0 .5.1.8.1zM42 37.5c0 .3 0 .5-.1.7-.1.2-.2.3-.3.5-.1.1-.2.2-.4.2-.1.1-.3.1-.4.1-.3 0-.5-.1-.6-.2-.1-.1-.2-.3-.2-.6 0-.2 0-.3.1-.4.1-.1.2-.3.3-.4l.6-.3c.4-.1.7-.1 1-.1v.5zm-1.3 2.1c.2 0 .4 0 .6-.1.2-.1.4-.2.5-.3.1-.1.3-.3.4-.5V39.6h.8v-.2-.5-.7-.9-1.1c0-.6-.2-1.1-.5-1.4-.3-.3-.7-.5-1.3-.5-.4 0-.7.1-.9.2-.3.1-.5.3-.6.6-.1.3-.2.6-.2.9H40.3c0-.4.1-.6.2-.8.1-.2.4-.3.7-.3.3 0 .5.1.6.3.1.2.2.4.2.8v.4c-.6 0-1.2.1-1.6.2-.4.2-.7.4-.9.6-.2.3-.3.6-.3.9 0 .3.1.5.2.7.1.2.3.4.5.5.2.2.5.3.8.3zm-3 .1s.1 0 0 0H38.6v-.2-.5-.6-.7-.7-.6-.4c0-.3-.1-.6-.1-.8-.1-.2-.2-.4-.4-.5-.2-.1-.4-.2-.7-.2-.3 0-.5 0-.7.1-.2.1-.4.2-.5.4-.2.2-.3.4-.4.6v-.4-.3-.1H35v4.7h.9v-.1-.3-.5-.5-.5-.4c0-.2 0-.4.1-.6.1-.2.1-.4.2-.5.1-.2.2-.3.4-.4.1-.1.3-.1.5-.1s.3 0 .4.1c.1.1.2.2.2.4s.1.3.1.6V40c-.1-.4-.1-.3-.1-.3zm-4.4-2.2c0 .3 0 .5-.1.7-.1.2-.2.3-.3.5-.1.1-.2.2-.4.2-.1.1-.3.1-.4.1-.3 0-.5-.1-.6-.2-.1-.1-.2-.3-.2-.6 0-.2 0-.3.1-.4.1-.1.2-.3.3-.4.2-.1.3-.2.6-.3.2-.1.5-.1.9-.1v.4c0 .1.1 0 .1.1zm-1.4 2.1c.2 0 .4 0 .6-.1.2-.1.4-.2.5-.3.1-.1.3-.3.4-.5V39.6h.8v-.2-.5-.7-.9-1.1c0-.6-.2-1.1-.5-1.4-.3-.3-.7-.5-1.3-.5-.4 0-.7.1-.9.2-.3.1-.5.3-.6.6-.1.3-.2.6-.2.9H31.5c0-.4.1-.6.2-.8.1-.2.4-.3.7-.3.3 0 .5.1.6.3.1.2.2.4.2.8v.4c-.6 0-1.2.1-1.6.2-.4.2-.7.4-.9.6-.2.3-.3.6-.3.9 0 .3.1.5.2.7.1.2.3.4.5.5.3.2.5.3.8.3zm-4.1-.1H28.7v-.1-.3-.5-.6-.6c0-.4.1-.8.2-1.1.1-.3.3-.5.5-.7.2-.2.5-.3.9-.3v-.6-.2c-.3 0-.5.1-.7.2-.2.1-.4.2-.6.4-.2.2-.3.4-.4.7v-.5-.4-.1H27.8V39.5zM25 39c-.3 0-.5-.1-.6-.2-.2-.2-.3-.4-.4-.7-.1-.3-.1-.6-.1-1s0-.8.1-1.1c.1-.3.2-.6.4-.7.2-.2.4-.3.6-.3.2 0 .4.1.6.3.2.2.3.4.4.7v1c0 .4 0 .8-.1 1.1-.1.3-.2.5-.4.7-.1.1-.3.2-.5.2zm-2 2.6H23.9v-.7c0-.4 0-1.1-.1-2 .1.2.2.3.3.4.1.1.3.2.5.2s.3.1.5.1c.4 0 .7-.1 1-.3.3-.2.5-.5.6-.9.1-.4.2-.9.2-1.5 0-.4 0-.8-.1-1.1-.1-.3-.2-.6-.4-.8-.2-.2-.3-.4-.6-.5-.2-.1-.5-.2-.7-.2-.2 0-.4 0-.6.1-.2.1-.3.2-.5.3-.1.1-.3.3-.4.5V35v-.2-.3h-.8V40c.2.6.2 1.1.2 1.6z"/>
  <path class="st2" d="M76.1 64.7h.8s0-.1.1-.3c.1-.2.1-.5.2-.9s.3-1 .4-1.6c.2-.7.4-1.5.7-2.4.3-.9.6-2 .9-3.2h-.8s0 .1-.1.2c0 .2-.1.4-.2.7-.1.3-.2.6-.3 1-.1.4-.2.9-.4 1.4-.1.5-.3 1-.4 1.6-.2.6-.3 1.2-.5 1.8s-.2 1.1-.4 1.7m-1.8-1c.2 0 .5 0 .7-.1.2-.1.4-.1.5-.3.2-.1.3-.3.4-.4.1-.2.1-.4.1-.6 0-.2 0-.3-.1-.5 0-.1-.1-.3-.2-.4-.1-.1-.3-.2-.5-.4-.2-.1-.4-.2-.7-.3-.3-.1-.5-.2-.7-.3-.2-.1-.3-.2-.4-.3-.1-.1-.1-.3-.1-.4 0-.1 0-.2.1-.4.1-.1.2-.2.3-.2.1-.1.3-.1.5-.1.3 0 .5.1.7.3.1.2.2.5.2.9h.8c0-.4-.1-.7-.2-1-.1-.3-.3-.5-.6-.7-.3-.2-.6-.2-1-.2s-.7.1-.9.2c-.3.1-.4.3-.6.5-.1.2-.2.4-.2.7 0 .2 0 .4.1.5.1.2.1.3.3.4.1.1.3.3.5.4.2.1.5.2.8.3.3.1.5.2.6.3.2.1.3.2.3.3.1.1.1.2.1.4s0 .3-.1.4c-.1.1-.2.2-.3.2-.1 0-.3.1-.4.1-.2 0-.4 0-.5-.1-.1-.1-.3-.2-.3-.4-.1-.2-.1-.4-.1-.7h-.8c0 .4.1.8.2 1.1.1.3.4.5.6.6.2.1.5.2.9.2zm-4.4-.7c-.2 0-.4-.1-.6-.2-.2-.2-.3-.4-.4-.7-.1-.3-.1-.7-.1-1.1 0-.3 0-.5.1-.8 0-.2.1-.4.2-.6.1-.2.2-.3.3-.4.1-.1.3-.1.5-.1s.3.1.5.1c.1.1.2.2.3.4.1.2.2.4.2.6 0 .2.1.5.1.8 0 .4 0 .8-.1 1.1-.1.3-.2.5-.4.7-.2.1-.4.2-.6.2zm0 .7c.4 0 .8-.1 1.1-.3.3-.2.5-.5.7-.9.2-.4.2-.9.3-1.5 0-.4 0-.7-.1-1.1-.1-.3-.2-.6-.4-.8-.2-.2-.4-.4-.6-.5-.3-.1-.5-.2-.9-.2-.3 0-.6.1-.9.2-.2.1-.5.3-.6.5-.2.2-.3.5-.4.8-.1.3-.1.7-.1 1 0 .6.1 1 .2 1.4.1.4.4.7.7.9.2.3.5.4 1 .5zm-2.9-.3v-.1-.4-.8-1.3V59v-2.4H66.1v6.8H67zM59.6 59c.2 0 .4.1.5.2.1.1.3.3.3.6.1.3.1.6.1.9-.5 0-.9 0-1.2.1h-.8c0-.2 0-.5.1-.7.1-.2.1-.4.2-.6.1-.2.2-.3.3-.4.2-.1.3-.1.5-.1zm0 4.7c.3 0 .6-.1.9-.2.3-.1.5-.4.6-.6.2-.3.3-.6.4-1H60.6c-.1.4-.2.7-.3.9-.2.2-.4.3-.7.3-.3 0-.6-.1-.8-.4-.2-.3-.3-.7-.3-1.3h3c0-.4 0-.8-.1-1.2-.1-.3-.2-.7-.3-.9-.2-.3-.4-.5-.6-.6-.3-.1-.6-.2-.9-.2-.3 0-.6.1-.9.2-.2.1-.5.3-.6.5-.2.2-.3.5-.4.8-.1.3-.1.7-.1 1 0 .4 0 .8.1 1.1.1.3.2.6.4.9l.6.6c.3 0 .6.1.9.1zm-4.9-.2c.2 0 .4 0 .5-.1.2-.1.3-.2.5-.3.1-.1.3-.3.4-.5v1H56.9v-1.7-1.5-1.1-.7-.3H56v2.8c0 .3 0 .5-.1.7-.1.2-.1.4-.2.5-.1.1-.2.3-.3.3-.1.1-.2.1-.4.1s-.3 0-.4-.1c-.1-.1-.2-.2-.3-.4s-.1-.4-.2-.7c0-.3-.1-.6-.1-1.1v-.6-.7c0-.2 0-.4.1-.7h-.8c0 .4-.1.7-.1 1.1v1.1c0 .5 0 1 .1 1.3.1.4.2.6.3.9.1.2.3.4.5.5.1.2.3.2.6.2zm-4.4-.5c-.2 0-.3-.1-.5-.2-.1-.1-.2-.2-.3-.4-.1-.2-.2-.4-.2-.6 0-.2-.1-.5-.1-.8 0-.3 0-.5.1-.8 0-.2.1-.5.2-.6.1-.2.2-.3.3-.4.2-.2.3-.2.5-.2s.3.1.5.2c.1.1.3.2.3.4.1.2.2.4.2.6 0 .2.1.5.1.8 0 .4 0 .8-.1 1.1-.1.3-.2.5-.4.7-.2.1-.4.2-.6.2zm1.1 2.6H52.3v-.3-.9-1.5-2-2.5h-.1-.7v.9c-.1-.3-.3-.5-.6-.7-.2-.2-.5-.2-.9-.2-.3 0-.5.1-.8.2-.2.1-.4.3-.6.6-.2.2-.3.5-.4.9-.1.3-.1.7-.1 1.1 0 .5.1 1 .2 1.4.1.4.3.7.6.9.3.2.6.3 1 .3.3 0 .6-.1.8-.2s.4-.3.5-.6v1.1c.2.3.2.9.2 1.5zM41.9 59c.2 0 .4.1.5.2.1.1.3.3.3.6.1.3.1.6.1.9-.5 0-.9 0-1.2.1h-.8c0-.2 0-.5.1-.7.1-.2.1-.4.2-.6.1-.2.2-.3.3-.4.2-.1.4-.1.5-.1zm.1 4.7c.3 0 .6-.1.9-.2.3-.1.5-.4.6-.6.2-.3.3-.6.4-1H43c-.1.4-.2.7-.3.9-.2.1-.5.2-.7.2-.3 0-.6-.1-.8-.4-.2-.3-.3-.7-.3-1.3h3c0-.4 0-.8-.1-1.2-.1-.3-.2-.7-.3-.9-.2-.3-.4-.5-.6-.6-.3-.1-.6-.2-.9-.2-.3 0-.6.1-.9.2-.2.1-.5.3-.6.5-.2.2-.3.5-.4.8-.1.3-.1.7-.1 1.1 0 .4 0 .8.1 1.1.1.3.2.6.4.9l.6.6c.2 0 .5.1.9.1zm-4.5 0c.3 0 .5 0 .7-.1.2-.1.4-.2.6-.4.2-.2.3-.4.4-.7.1-.3.2-.6.2-1H38.5c0 .3-.1.6-.2.8-.1.2-.2.4-.3.5-.1.1-.3.1-.5.1-.4 0-.6-.2-.8-.5-.2-.3-.3-.8-.3-1.4 0-.4 0-.8.1-1 .1-.3.2-.5.4-.7.2-.2.4-.2.6-.2.2 0 .4.1.5.2.1.1.2.3.3.5.1.2.1.5.1.8H39.3c0-.4-.1-.8-.2-1.1-.1-.3-.4-.6-.6-.7-.3-.2-.6-.3-1-.3-.3 0-.6.1-.9.2-.3.1-.5.3-.6.6-.2.2-.3.5-.4.8-.1.3-.1.7-.1 1.1 0 .4 0 .8.1 1.1.1.3.2.6.4.8.2.2.4.4.6.5.2 0 .5.1.9.1zM32.9 59c.2 0 .4.1.5.2.1.1.3.3.3.6.1.3.1.6.1.9-.5 0-.9 0-1.2.1h-.8c0-.2 0-.5.1-.7.1-.2.1-.4.2-.6.1-.2.2-.3.3-.4.2-.1.4-.1.5-.1zm.1 4.7c.3 0 .6-.1.9-.2.3-.1.5-.4.6-.6s.3-.6.4-1H34c-.1.4-.2.7-.3.9-.3.1-.5.2-.7.2-.3 0-.6-.1-.8-.4-.2-.3-.3-.7-.3-1.3h3c0-.4 0-.8-.1-1.2-.1-.3-.2-.7-.3-.9-.2-.3-.4-.5-.6-.6-.3-.1-.6-.2-.9-.2-.3 0-.6.1-.9.2-.2.1-.5.3-.6.5-.2.2-.3.5-.4.8-.1.3-.1.7-.1 1 0 .4 0 .8.1 1.1.1.3.2.6.4.9l.6.6c.2.1.5.2.9.2zm-2.9-.3v-.1-.4-.8-1.3V59v-2.4H29.2v6.8H30.1zm-3.8-.4c-.2 0-.4-.1-.6-.2-.2-.2-.3-.4-.4-.7-.1-.3-.1-.7-.1-1.1 0-.3 0-.6.1-.8 0-.2.1-.5.2-.6.1-.2.2-.3.3-.4.2-.2.4-.2.5-.2.2 0 .3.1.5.2.1.1.3.2.3.4.1.2.2.4.2.6 0 .2.1.5.1.8 0 .4 0 .8-.1 1.1-.1.3-.2.5-.4.7-.1.1-.3.2-.6.2zm-1.9.6H25.2v-.4-.4c.1.3.3.5.6.6.2.1.5.2.8.2.4 0 .7-.1 1-.3.3-.2.5-.5.6-.9.1-.4.2-.9.2-1.4 0-.6-.1-1.1-.2-1.4-.1-.4-.3-.7-.6-.9-.3-.2-.6-.3-.9-.3-.3 0-.6.1-.8.2-.2.1-.4.4-.6.7v-1-.8-.5-.2H24.4V63.6zm-1.7-2.1c0 .3 0 .5-.1.7-.1.2-.2.3-.3.5-.1.1-.2.2-.4.2-.1 0-.3.1-.4.1-.3 0-.5-.1-.6-.2-.1-.1-.2-.3-.2-.6 0-.2 0-.3.1-.4.1-.1.2-.3.3-.4.2-.1.3-.2.6-.3.3-.1.6-.1.9-.1v.4c.1 0 .1 0 .1.1zm-1.4 2.1c.2 0 .4 0 .6-.1.2-.1.4-.2.5-.3.1-.1.3-.3.4-.5V63.6h.8v-.2-.5-.7-.9-1.1c0-.6-.2-1.1-.5-1.4-.3-.3-.7-.5-1.3-.5-.4 0-.7.1-.9.2-.3.1-.5.3-.6.6-.1.3-.2.6-.2.9H20.9c0-.4.1-.6.2-.8.1-.2.4-.3.7-.3.3 0 .5.1.6.3.1.2.2.4.2.8v.4c-.6 0-1.2.1-1.6.2-.4.2-.7.4-.9.6-.2.3-.3.6-.3.9 0 .3.1.5.2.7.1.2.3.4.5.5.2.2.5.3.8.3zm-4.9-4.4h.6V62c0 .4.1.7.2.9.1.2.3.4.5.5.2.1.4.2.7.2h.5c.2 0 .4-.1.5-.1v-.1-.3-.4c-.1 0-.3.1-.4.1h-.3c-.2 0-.4-.1-.5-.2-.1-.1-.2-.4-.2-.7V61v-.9-.8h1.5v-.1-.2-.4H18v-.7-.5-.2h-.8v1.4h-.6v.6zm-2.1 4.5c.2 0 .5 0 .7-.1.2-.1.4-.1.5-.3.2-.1.3-.3.4-.4.1-.2.1-.4.1-.6 0-.2 0-.3-.1-.5 0-.1-.1-.3-.2-.4-.1-.1-.3-.2-.5-.4-.2-.1-.4-.2-.7-.3-.3-.1-.5-.2-.7-.3-.2-.1-.3-.2-.4-.3-.1-.1-.1-.3-.1-.4 0-.1 0-.2.1-.4.1-.1.2-.2.3-.2.2-.1.3-.1.5-.1.3 0 .5.1.7.3.1.2.2.5.2.9h.8c0-.4-.1-.7-.2-1-.1-.3-.3-.5-.6-.7-.3-.2-.6-.2-1-.2s-.7.1-.9.2c-.3.1-.4.3-.6.5-.1.2-.2.4-.2.7 0 .2 0 .4.1.5.1.2.1.3.3.4.1.1.3.3.5.4s.5.2.8.3c.3.1.5.2.6.3.2.1.3.2.3.3.1.1.1.2.1.4s0 .3-.1.4c-.1.1-.2.2-.3.2-.1 0-.3.1-.4.1-.2 0-.4 0-.5-.1-.1-.1-.3-.2-.3-.4-.1-.2-.1-.4-.1-.7h-.8c0 .4.1.8.2 1.1.1.3.4.5.6.6.2.1.5.2.9.2z"/>
  <path class="st2" d="M132.2 65.6h.5c.3 0 .6-.1.8-.2.2-.1.4-.3.5-.5.1-.2.2-.5.2-.9v-1.5-1.3-1.1-.9-.6-.2h-.8v5.5c0 .2 0 .4-.1.5 0 .1-.1.2-.2.3-.1.1-.2.1-.4.1h-.4v.6c-.1.1-.1.2-.1.2m1.5-7.8c.2 0 .3-.1.4-.2.1-.1.2-.3.2-.5s-.1-.3-.2-.4c-.1-.1-.3-.2-.4-.2-.1 0-.3 0-.3.1-.1.1-.2.1-.2.2s-.1.2-.1.3c0 .1 0 .2.1.3 0 .1.1.2.2.2.1.2.2.2.3.2zm-6.9 8v-.1c0-.1.1-.3.1-.5.1-.2.1-.5.3-.9.1-.4.2-.8.4-1.4.2-.5.3-1.2.5-1.9s.4-1.6.7-2.6H127.9s0 .2-.1.5-.2.8-.3 1.4c-.2.6-.4 1.4-.6 2.4 0 0 0-.1-.1-.3-.1-.2-.1-.5-.2-.8-.1-.4-.2-.8-.3-1.3-.1-.5-.3-1-.4-1.6H125s.1.2.2.5c.1.4.3.9.5 1.7.2.8.5 1.7.9 2.9v.2c0 .1-.1.3-.2.6s-.2.6-.3 1.1h.1c.1 0 .2 0 .3.1-.1-.1.1-.1.3 0zm-7.7-2.1c.2 0 .5 0 .7-.1.2-.1.4-.1.5-.3.2-.1.3-.3.4-.4.1-.2.1-.4.1-.6 0-.2 0-.3-.1-.5 0-.1-.1-.3-.2-.4-.1-.1-.3-.2-.5-.4-.2-.1-.4-.2-.7-.3-.3-.1-.5-.2-.7-.3-.2-.1-.3-.2-.4-.3-.1-.1-.1-.3-.1-.4 0-.1 0-.2.1-.4.1-.1.2-.2.3-.2.1-.1.3-.1.5-.1.3 0 .5.1.7.3.1.2.2.5.2.9h.8c0-.4-.1-.7-.2-1-.1-.3-.3-.5-.6-.7-.3-.2-.6-.2-1-.2s-.7.1-.9.2c-.3.1-.4.3-.6.5-.1.2-.2.4-.2.7 0 .2 0 .4.1.5.1.2.1.3.3.4.1.1.3.3.5.4.2.1.5.2.8.3.3.1.5.2.6.3.2.1.3.2.3.3.1.1.1.2.1.4s0 .3-.1.4c-.1.1-.2.2-.3.2-.1 0-.3.1-.4.1-.2 0-.4 0-.5-.1-.1-.1-.3-.2-.3-.4-.1-.2-.1-.4-.1-.7h-.8c0 .4.1.8.2 1.1.1.3.4.5.6.6.2.1.5.2.9.2zm-3.3-2.2c0 .3 0 .5-.1.7-.1.2-.2.3-.3.5-.1.1-.2.2-.4.2-.1 0-.3.1-.4.1-.3 0-.5-.1-.6-.2-.1-.1-.2-.3-.2-.6 0-.2 0-.3.1-.4.1-.1.2-.3.3-.4.2-.1.3-.2.6-.3.2-.1.5-.1.9-.1v.4c.1 0 .1 0 .1.1zm-1.4 2.1c.2 0 .4 0 .6-.1.2-.1.4-.2.5-.3.1-.1.3-.3.4-.5V63.6h.8v-.2-.5-.7-.9-1.1c0-.6-.2-1.1-.5-1.4-.3-.3-.7-.5-1.3-.5-.4 0-.7.1-.9.2-.3.1-.5.3-.6.6-.1.3-.2.6-.2.9H114c0-.4.1-.6.2-.8.1-.2.4-.3.7-.3.3 0 .5.1.6.3.1.2.2.4.2.8v.4c-.6 0-1.2.1-1.6.2-.4.2-.7.4-.9.6-.2.3-.3.6-.3.9 0 .3.1.5.2.7.1.2.3.4.5.5.3.2.5.3.8.3zm-4.2 1.1h.8s0-.1.1-.3c.1-.2.1-.5.2-.9s.3-1 .4-1.6c.2-.7.4-1.5.7-2.4.3-.9.6-2 .9-3.2h-.8s0 .1-.1.2c0 .2-.1.4-.2.7-.1.3-.2.6-.3 1-.1.4-.2.9-.4 1.4-.1.5-.3 1-.4 1.6-.2.6-.3 1.2-.5 1.8 0 .4-.2 1.1-.4 1.7zm-1.8-1c.2 0 .5 0 .7-.1.2-.1.4-.1.5-.3.2-.1.3-.3.4-.4.1-.2.1-.4.1-.6 0-.2 0-.3-.1-.5 0-.1-.1-.3-.2-.4-.1-.1-.3-.2-.5-.4-.2-.1-.4-.2-.7-.3-.3-.1-.5-.2-.7-.3-.2-.1-.3-.2-.4-.3-.1-.1-.1-.3-.1-.4 0-.1 0-.2.1-.4.1-.1.2-.2.3-.2.1-.1.3-.1.5-.1.3 0 .5.1.7.3.1.2.2.5.2.9h.8c0-.4-.1-.7-.2-1-.1-.3-.3-.5-.6-.7-.3-.2-.6-.2-1-.2s-.7.1-.9.2c-.3.1-.4.3-.6.5-.1.2-.2.4-.2.7 0 .2 0 .4.1.5.1.2.1.3.3.4.1.1.3.3.5.4.2.1.5.2.8.3.3.1.5.2.6.3.2.1.3.2.3.3.1.1.1.2.1.4s0 .3-.1.4c-.1.1-.2.2-.3.2-.1 0-.3.1-.4.1-.2 0-.4 0-.5-.1-.1-.1-.3-.2-.3-.4-.1-.2-.1-.4-.1-.7h-.8c0 .4.1.8.2 1.1.1.3.4.5.6.6.2.1.5.2.9.2zM104 63c-.2 0-.4-.1-.6-.2-.2-.2-.3-.4-.4-.7-.1-.3-.1-.7-.1-1.1 0-.3 0-.5.1-.8 0-.2.1-.4.2-.6.1-.2.2-.3.3-.4.1-.1.3-.1.5-.1s.3.1.5.2c.1.1.2.2.3.4s.2.4.2.6c0 .2.1.5.1.8 0 .4 0 .8-.1 1.1-.1.3-.2.5-.4.7-.2 0-.4.1-.6.1zm0 .7c.4 0 .8-.1 1.1-.3.3-.2.5-.5.7-.9.2-.4.2-.9.3-1.5 0-.4 0-.7-.1-1.1-.1-.3-.2-.6-.4-.8-.2-.2-.4-.4-.6-.5-.3-.1-.5-.2-.9-.2-.3 0-.6.1-.9.2-.2.1-.5.3-.6.5-.2.2-.3.5-.4.8-.1.3-.1.7-.1 1 0 .6.1 1 .2 1.4.1.4.4.7.7.9.2.3.5.4 1 .5zm-5.3-5.9v-.5c0-.1.1-.2.2-.2s.1 0 .2.1c.1 0 .1.1.2.2l.2.2c.1.1.2.1.3.2.1 0 .2.1.3.1.2 0 .3 0 .4-.1.1-.1.2-.2.2-.4v-.7h-.4v.5c0 .1-.1.2-.2.2s-.1 0-.2-.1c-.1 0-.1-.1-.2-.2l-.2-.2c-.1-.1-.2-.1-.3-.2-.1 0-.2-.1-.3-.1-.2 0-.3.1-.5.2-.1.1-.2.2-.3.4-.1.2-.1.4-.1.7h.3c.2-.1.2-.1.4-.1-.1 0 0 0 0 0zm1.7 5.9H101.3v-.2-.5-.6-.7-.7-.6-.4c0-.3-.1-.6-.2-.8-.1-.2-.2-.4-.4-.5-.2-.1-.4-.2-.7-.2-.3 0-.5 0-.7.1-.2.1-.4.2-.5.4-.1.2-.3.4-.4.6v-.4-.3-.1H97.6v4.7h.9v-.1-.3-.5-.5-.5-.4c0-.2 0-.4.1-.6.1-.2.1-.4.2-.5.1-.2.2-.3.4-.4.1-.1.3-.1.5-.1s.3 0 .4.1c.1.1.2.2.2.4s.1.3.1.6v3zm-4.2-5.9c.1 0 .2 0 .3-.1.1-.1.2-.1.2-.2s.1-.2.1-.3c0-.1 0-.2-.1-.3 0-.1-.1-.2-.2-.2-.1-.1-.2-.1-.3-.1-.2 0-.4.1-.5.2-.1.1-.2.3-.2.4 0 .2.1.3.2.4.2.2.3.2.5.2zm-.4 5.7h.9v-2-1.6-1-.4h-.8v4.7c-.1.2-.1.3-.1.3zm-1.9.2s.1 0 0 0H94.8v-.2-.5-.6-.7-.7-.6-.4c0-.3-.1-.6-.1-.8-.1-.2-.2-.4-.4-.5-.2-.1-.4-.2-.7-.2-.3 0-.5 0-.7.1-.2.1-.4.2-.5.4-.1.2-.3.4-.4.6v-.4-.3-.1H91.2v4.7h.9v-.1-.3-.5-.5-.5-.4c0-.2 0-.4.1-.6.1-.2.1-.4.2-.5.1-.2.2-.3.4-.4.1-.1.3-.1.5-.1s.3 0 .4.1c.1.1.2.2.2.4s.1.3.1.6V64c-.1-.4-.1-.3-.1-.3zm-8.9 0c.2 0 .5 0 .7-.1.2-.1.4-.1.5-.3.2-.1.3-.3.4-.4.1-.2.1-.4.1-.6 0-.2 0-.3-.1-.5 0-.1-.1-.3-.2-.4-.1-.1-.3-.2-.5-.4-.2-.1-.4-.2-.7-.3-.3-.1-.5-.2-.7-.3-.2-.1-.3-.2-.4-.3-.1-.1-.1-.3-.1-.4 0-.1 0-.2.1-.4.1-.1.2-.2.3-.2.1-.1.3-.1.5-.1.3 0 .5.1.7.3.1.2.2.5.2.9h.8c0-.4-.1-.7-.2-1-.1-.3-.3-.5-.6-.7-.3-.2-.6-.2-1-.2s-.7.1-.9.2c-.3.1-.4.3-.6.5-.1.2-.2.4-.2.7 0 .2 0 .4.1.5.1.2.1.3.3.4.1.1.3.3.5.4.2.1.5.2.8.3.3.1.5.2.6.3.2.1.3.2.3.3.1.1.1.2.1.4s0 .3-.1.4c-.1.1-.2.2-.3.2-.1 0-.3.1-.4.1-.2 0-.4 0-.5-.1-.1-.1-.3-.2-.3-.4-.1-.2-.1-.4-.1-.7h-.8c0 .4.1.8.2 1.1.1.3.4.5.6.6.2.1.5.2.9.2zm-3.3-2.2c0 .3 0 .5-.1.7-.1.2-.2.3-.3.5-.1.1-.2.2-.4.2-.1 0-.3.1-.4.1-.3 0-.5-.1-.6-.2-.1-.1-.2-.3-.2-.6 0-.2 0-.3.1-.4.1-.1.2-.3.3-.4l.6-.3c.3-.1.6-.1 1-.1v.5zm-1.4 2.1c.2 0 .4 0 .6-.1.2-.1.4-.2.5-.3.1-.1.3-.3.4-.5V63.6h.8v-.2-.5-.7-.9-1.1c0-.6-.2-1.1-.5-1.4-.3-.3-.7-.5-1.3-.5-.4 0-.7.1-.9.2-.3.1-.5.3-.6.6-.1.3-.2.6-.2.9H79.9c0-.4.1-.6.2-.8.1-.2.4-.3.7-.3.3 0 .5.1.6.3.1.2.2.4.2.8v.4c-.6 0-1.2.1-1.6.2-.4.2-.7.4-.9.6-.2.3-.3.6-.3.9 0 .3.1.5.2.7.1.2.3.4.5.5.3.2.5.3.8.3z"/>
  <path class="st2" d="M39.7 71c.2 0 .4.1.5.2.1.1.3.3.3.6.1.3.1.6.1.9-.5 0-.9 0-1.2.1h-.8c0-.2 0-.5.1-.7.1-.2.1-.4.2-.6.1-.2.2-.3.3-.4.2-.1.3-.1.5-.1m0 4.7c.3 0 .6-.1.9-.2.3-.1.5-.4.7-.6.2-.3.3-.6.4-1H40.8c-.1.4-.2.7-.3.9-.3.1-.5.2-.8.2-.3 0-.6-.1-.8-.4-.2-.3-.3-.7-.3-1.3h3c0-.4 0-.8-.1-1.2-.1-.4-.2-.7-.3-.9-.2-.3-.4-.5-.6-.6-.3-.1-.6-.2-.9-.2-.3 0-.6.1-.9.2-.2.1-.5.3-.6.5-.2.2-.3.5-.4.8-.1.3-.1.7-.1 1 0 .4 0 .8.1 1.1.1.3.2.6.4.9l.6.6c.2.1.5.2.9.2zm-4.2 0c.2 0 .5 0 .7-.1.2-.1.4-.1.5-.3.2-.1.3-.3.4-.4.1-.2.1-.4.1-.6 0-.2 0-.3-.1-.5 0-.1-.1-.3-.2-.4-.1-.1-.3-.2-.5-.4-.2-.1-.4-.2-.7-.3-.3-.1-.5-.2-.7-.3-.2-.1-.3-.2-.4-.3-.1-.1-.1-.3-.1-.4 0-.1 0-.2.1-.4.1-.1.2-.2.3-.2.1-.1.3-.1.4-.1.3 0 .5.1.7.3.1.2.2.5.2.9h.8c0-.4-.1-.7-.2-1-.1-.3-.3-.5-.6-.7s-.6-.2-1-.2-.7.1-.9.2c-.3.1-.4.3-.6.5-.1.2-.2.4-.2.7 0 .2 0 .4.1.5.1.2.1.3.3.4.1.1.3.3.5.4.2.1.5.2.8.3.3.1.5.2.6.3.2.1.3.2.3.3.1.1.1.2.1.4s0 .3-.1.4c-.1.1-.2.2-.3.2-.1.1-.3.1-.4.1-.2 0-.4 0-.5-.1-.1-.1-.3-.2-.3-.4-.1-.2-.1-.4-.1-.7h-.8c0 .4.1.8.2 1.1.1.3.4.5.6.6.2.1.6.2 1 .2zm-5.9 0H30.5v-.2-.5-.6-.7-.7-.6-.4c0-.3-.1-.6-.1-.8-.1-.2-.2-.4-.4-.5-.2-.1-.4-.2-.7-.2-.3 0-.5 0-.7.1-.2.1-.4.2-.5.4-.2.2-.3.4-.4.6v-.4-.3-.1H26.9v4.7h.9v-.1-.3-.5-.5-.5-.4c0-.2 0-.4.1-.6.1-.2.1-.4.2-.5.1-.2.2-.3.4-.4.1-.1.3-.1.5-.1s.3 0 .4.1c.1.1.2.2.2.4s.1.3.1.6V76c-.1-.4-.1-.3-.1-.3zM24.1 71c.2 0 .4.1.5.2.1.1.3.3.3.6.1.3.1.6.1.9-.5 0-.9 0-1.2.1H23c0-.2 0-.5.1-.7.1-.2.1-.4.2-.6.1-.2.2-.3.3-.4.2-.1.4-.1.5-.1zm.1 4.7c.3 0 .6-.1.9-.2.3-.1.5-.4.6-.6.2-.3.3-.6.4-1H25.2c-.1.4-.2.7-.3.9-.2.2-.4.3-.7.3-.3 0-.6-.1-.8-.4-.2-.3-.3-.7-.3-1.3h3c0-.4 0-.8-.1-1.2-.1-.4-.2-.7-.3-.9-.2-.3-.4-.5-.6-.6-.3-.1-.6-.2-.9-.2-.3 0-.6.1-.9.2-.2.1-.5.3-.6.5-.2.2-.3.5-.4.8-.1.3-.1.7-.1 1 0 .4 0 .8.1 1.1.1.3.2.6.4.9l.6.6c.2 0 .5.1.9.1zm-4.7-.7c-.2 0-.4-.1-.6-.2-.2-.2-.3-.4-.4-.7-.1-.3-.1-.7-.1-1.1 0-.3 0-.6.1-.8 0-.2.1-.5.2-.6.1-.2.2-.3.3-.4.1-.1.3-.1.5-.2.2 0 .3.1.5.2.1.1.3.2.3.4.1.2.2.4.2.6 0 .2.1.5.1.8 0 .4 0 .8-.1 1.1-.1.3-.2.5-.4.7-.2.1-.4.2-.6.2zm-2 .6H18.3v-.4-.4c.1.3.3.5.6.6.2.1.5.2.8.2.4 0 .7-.1 1-.3.3-.2.5-.5.6-.9.1-.4.2-.9.2-1.4 0-.6-.1-1.1-.2-1.4-.1-.4-.3-.7-.6-.9-.3-.2-.6-.3-.9-.3-.3 0-.6.1-.8.2-.2.1-.4.4-.6.7v-1-.8-.5-.2H17.5V75.6zM14.8 71c.2 0 .4.1.5.2.1.1.3.3.3.6.1.3.1.6.1.9-.5 0-.9 0-1.2.1h-.8c0-.2 0-.5.1-.7.1-.2.1-.4.2-.6.1-.2.2-.3.3-.4.2-.1.3-.1.5-.1zm0 4.7c.3 0 .6-.1.9-.2.3-.1.5-.4.7-.6s.3-.6.4-1H15.9c-.1.4-.2.7-.3.9-.2.2-.4.3-.7.3-.3 0-.6-.1-.8-.4-.2-.3-.3-.7-.3-1.3h3c0-.4 0-.8-.1-1.2-.1-.4-.2-.7-.3-.9-.2-.3-.4-.5-.6-.6-.3-.1-.6-.2-.9-.2-.3 0-.6.1-.9.2-.2.1-.5.3-.6.5-.2.2-.3.5-.4.8-.1.3-.1.7-.1 1 0 .4 0 .8.1 1.1.1.3.2.6.4.9l.6.6c.2.2.5.1.8.1zM10 75c-.3 0-.6-.2-.8-.5-.2-.4-.3-.9-.3-1.5 0-.3 0-.5.1-.8.1-.2.1-.4.2-.6.1-.2.2-.3.3-.4.2-.2.3-.2.5-.2.4 0 .6.2.8.5.2.4.3.9.3 1.6 0 .4 0 .8-.1 1-.1.3-.2.5-.4.6-.2.2-.3.3-.6.3zm2 .7v-1.9-1.7-1.4-1.1-.7-.2H11v2.5c-.1-.2-.2-.3-.3-.4-.1-.1-.3-.2-.4-.3-.2-.1-.4-.1-.6-.1-.3 0-.6.1-.8.2-.2.1-.4.3-.6.6-.1.2-.3.5-.3.9.1.2 0 .6 0 .9 0 .5.1 1 .2 1.4.1.4.3.7.6.9.3.2.6.3 1 .3.2 0 .4 0 .6-.1.2-.1.3-.2.5-.3.1-.1.3-.3.4-.5v.9h.7v.1zm146.8-12c.2 0 .5 0 .7-.1.2-.1.4-.1.5-.3.2-.1.3-.3.4-.4.1-.2.1-.4.1-.6 0-.2 0-.3-.1-.5 0-.1-.1-.3-.2-.4-.1-.1-.3-.2-.5-.4-.2-.1-.4-.2-.7-.3-.3-.1-.5-.2-.7-.3-.2-.1-.3-.2-.4-.3-.1-.1-.1-.3-.1-.4 0-.1 0-.2.1-.4.1-.1.2-.2.3-.2.1-.1.3-.1.5-.1.3 0 .5.1.7.3.1.2.2.5.2.9h.8c0-.4-.1-.7-.2-1-.1-.3-.3-.5-.6-.7-.3-.2-.6-.2-1-.2s-.7.1-.9.2c-.3.1-.4.3-.6.5-.1.2-.2.4-.2.7 0 .2 0 .4.1.5.1.2.1.3.3.4.1.1.3.3.5.4.2.1.5.2.8.3.3.1.5.2.6.3.2.1.3.2.3.3.1.1.1.2.1.4s0 .3-.1.4c-.1.1-.2.2-.3.2-.1.1-.3.1-.4.1-.2 0-.4 0-.5-.1-.1-.1-.3-.2-.3-.4-.1-.2-.1-.4-.1-.7h-.8c0 .4.1.8.2 1.1.1.3.4.5.6.6.1.1.5.2.9.2zm-4.4-4.7c.2 0 .4.1.5.2.1.1.3.3.3.6.1.3.1.6.1.9-.5 0-.9 0-1.2.1h-.8c0-.2 0-.5.1-.7.1-.2.1-.4.2-.6.1-.2.2-.3.3-.4.2-.1.4-.1.5-.1zm.1 4.7c.3 0 .6-.1.9-.2.3-.1.5-.4.6-.6.2-.3.3-.6.4-1H155.5c-.1.4-.2.7-.3.9-.2.2-.4.3-.7.3-.3 0-.6-.1-.8-.4-.2-.3-.3-.7-.3-1.3h3c0-.4 0-.8-.1-1.2-.1-.4-.2-.7-.3-.9-.2-.3-.4-.5-.6-.6-.3-.1-.6-.2-.9-.2-.3 0-.6.1-.9.2-.2.1-.5.3-.6.5-.2.2-.3.5-.4.8-.1.3-.1.7-.1 1 0 .4 0 .8.1 1.1.1.3.2.6.4.9l.6.6c.2 0 .5.1.9.1zm-3.7 0s.1 0 0 0H151.7v-.2-.5-.6-.7-.7-.6-.4c0-.3-.1-.6-.1-.8-.1-.2-.2-.4-.4-.5-.2-.1-.4-.2-.7-.2-.3 0-.5 0-.7.1-.2.1-.4.2-.5.4-.1.2-.3.4-.4.6v-.4-.3-.1H148.1v4.7h.9v-.1-.3-.5-.5-.5-.4c0-.2 0-.4.1-.6.1-.2.1-.4.2-.5.1-.2.2-.3.4-.4.1-.1.3-.1.5-.1s.3 0 .4.1c.1.1.2.2.2.4s.1.3.1.6V64c-.1-.4-.1-.3-.1-.3zm-5.4-4.7c.2 0 .4.1.5.2.1.1.3.3.3.6.1.3.1.6.1.9-.5 0-.9 0-1.2.1h-.8c0-.2 0-.5.1-.7.1-.2.1-.4.2-.6.1-.2.2-.3.3-.4.2-.1.4-.1.5-.1zm0 4.7c.3 0 .6-.1.9-.2.3-.1.5-.4.6-.6.2-.3.3-.6.4-1H146.4c-.1.4-.2.7-.3.9-.2.2-.4.3-.7.3-.3 0-.6-.1-.8-.4-.2-.3-.3-.7-.3-1.3h3c0-.4 0-.8-.1-1.2-.1-.4-.2-.7-.3-.9-.2-.3-.4-.5-.6-.6-.3-.1-.6-.2-.9-.2-.3 0-.6.1-.9.2-.2.1-.5.3-.6.5-.2.2-.3.5-.4.8-.1.3-.1.7-.1 1 0 .4 0 .8.1 1.1.1.3.2.6.4.9l.6.6c.3 0 .6.1.9.1zm-3.5-.3s0-.2.1-.5c.1-.4.3-.9.5-1.7.2-.8.5-1.7.8-2.9H142.4s0 .1-.1.2c0 .2-.1.4-.2.8-.1.3-.2.8-.3 1.3-.1.5-.3 1.2-.5 2 0 0 0-.1-.1-.2 0-.2-.1-.4-.2-.7-.1-.3-.2-.8-.3-1.3-.1-.5-.3-1.1-.5-1.9h-.9s0 .1.1.3c.1.2.1.5.3.9.1.4.3.9.4 1.5.2.6.4 1.3.6 2.2h1.2zm-4.8-.4c-.2 0-.4-.1-.6-.2-.2-.2-.3-.4-.4-.7-.1-.3-.1-.7-.1-1.1 0-.3 0-.5.1-.8 0-.2.1-.4.2-.6.1-.2.2-.3.3-.4.1-.1.3-.1.5-.1s.3.1.5.1c.1.1.2.2.3.4.1.2.2.4.2.6 0 .2.1.5.1.8 0 .4 0 .8-.1 1.1-.1.3-.2.5-.4.7-.2.1-.4.2-.6.2zm-.1.7c.4 0 .8-.1 1.1-.3.3-.2.5-.5.7-.9.2-.4.2-.9.3-1.5 0-.4 0-.7-.1-1.1-.1-.3-.2-.6-.4-.8-.2-.2-.4-.4-.6-.5-.3-.1-.5-.2-.9-.2-.3 0-.6.1-.9.2-.2.1-.5.3-.6.5-.2.2-.3.5-.4.8-.1.3-.1.7-.1 1 0 .6.1 1 .2 1.4.1.4.4.7.7.9.2.3.6.4 1 .5zm0-5.7l.1-.1.4-.4c.2-.2.4-.4.7-.8l-.2-.1c-.1-.1-.3-.2-.5-.3 0 0 0 .1-.1.2s-.2.3-.3.5c-.1.2-.3.5-.6.8l.1.1c.1-.1.3 0 .4.1z"/>
  <path class="st2" d="M100.4 75.7c.3 0 .5 0 .7-.1.2-.1.4-.2.6-.4.2-.2.3-.4.4-.7.1-.3.2-.6.2-1H101.4c0 .3-.1.6-.2.8-.1.2-.2.4-.3.5-.1.1-.3.1-.5.1-.4 0-.6-.2-.8-.5-.2-.3-.3-.8-.3-1.4 0-.4 0-.8.1-1 .1-.3.2-.5.4-.7.2-.2.4-.2.6-.2.2 0 .4.1.5.2.1.1.2.3.3.5.1.2.1.5.1.8H102.2c0-.4-.1-.8-.2-1.1-.1-.3-.4-.6-.6-.7-.3-.2-.6-.3-1-.3-.3 0-.6.1-.9.2-.3.1-.5.3-.6.6-.2.2-.3.5-.4.8-.1.3-.1.7-.1 1.1 0 .4 0 .8.1 1.1.1.3.2.6.4.8.2.2.4.4.6.5.2 0 .5.1.9.1m-3.6-2.2c0 .3 0 .5-.1.7-.1.2-.2.3-.3.5-.1.1-.2.2-.4.2-.1 0-.3.1-.4.1-.3 0-.5-.1-.6-.2-.1-.1-.2-.3-.2-.6 0-.2 0-.3.1-.4.1-.1.2-.3.3-.4.2-.1.3-.2.6-.3.2-.1.5-.1.9-.1v.4c.1 0 .1 0 .1.1zm-1.4 2.1c.2 0 .4 0 .6-.1.2-.1.4-.2.5-.3.1-.1.3-.3.4-.5V75.6h.8v-.2-.5-.7-.9-1.1c0-.6-.2-1.1-.5-1.4-.3-.3-.7-.5-1.3-.5-.4 0-.7.1-.9.2-.3.1-.5.3-.6.6-.1.3-.2.6-.2.9H95c0-.4.1-.6.2-.8.1-.2.4-.3.7-.3.3 0 .5.1.6.3.1.2.2.4.2.8v.4c-.6 0-1.2.1-1.6.2-.4.2-.7.4-.9.6-.2.3-.3.6-.3.9 0 .3.1.5.2.7.1.2.3.4.5.5.3.2.5.3.8.3zM89 71c.2 0 .4.1.5.2.1.1.3.3.3.6.1.3.1.5.1.9-.5 0-.9 0-1.2.1h-.8c0-.2 0-.5.1-.7.1-.2.1-.4.2-.6.1-.2.2-.3.3-.4.2-.1.3-.1.5-.1zm0 4.7c.3 0 .6-.1.9-.2.3-.1.5-.4.6-.6.2-.3.3-.6.4-1H90c-.1.4-.2.7-.3.9-.2.1-.4.2-.7.2-.3 0-.6-.1-.8-.4-.2-.3-.3-.7-.3-1.3h3c0-.4 0-.8-.1-1.2-.1-.4-.2-.7-.3-.9-.2-.3-.4-.5-.6-.6-.3-.1-.6-.2-.9-.2-.3 0-.6.1-.9.2-.2.1-.5.3-.6.5-.2.2-.3.5-.4.8-.1.3-.1.7-.1 1.1 0 .4 0 .8.1 1.1.1.3.2.6.4.9l.6.6c.2 0 .5.1.9.1zm-4.8-.7c-.3 0-.6-.2-.8-.5-.2-.3-.3-.8-.3-1.5 0-.3 0-.5.1-.8.1-.2.1-.4.2-.6.1-.2.2-.3.3-.4.2-.2.3-.2.5-.2.4 0 .6.2.8.5.2.4.3.9.3 1.6 0 .4 0 .8-.1 1-.1.3-.2.5-.4.6-.2.2-.4.3-.6.3zm2 .7v-1.9-1.7-1.4-1.1-.7-.2H85.2v2.5c-.1-.2-.2-.3-.3-.4-.1-.1-.3-.2-.4-.3-.2-.1-.4-.1-.6-.1-.3 0-.6.1-.8.2-.2.1-.4.3-.6.6-.1.2-.3.5-.3.9-.1.3-.1.7-.1 1.1 0 .5.1 1 .2 1.4.1.4.3.7.6.9.3.2.6.3 1 .3.2 0 .4 0 .6-.1.2-.1.3-.2.5-.3.1-.1.3-.3.4-.5v.9h.7c0-.1.1-.1.1-.1zm-8.8 0c.2 0 .5 0 .7-.1.2-.1.4-.1.5-.3.2-.1.3-.3.4-.4.1-.2.1-.4.1-.6 0-.2 0-.3-.1-.5 0-.1-.1-.3-.2-.4-.1-.1-.3-.2-.5-.4-.2-.1-.4-.2-.7-.3-.3-.1-.5-.2-.7-.3-.2-.1-.3-.2-.4-.3-.1-.1-.1-.3-.1-.4 0-.1 0-.2.1-.4.1-.1.2-.2.3-.2.1-.1.3-.1.5-.1.3 0 .5.1.7.3.1.2.2.5.2.9h.8c0-.4-.1-.7-.2-1-.1-.3-.3-.5-.6-.7-.3-.2-.6-.2-1-.2s-.7.1-.9.2c-.3.1-.4.3-.6.5-.1.2-.2.4-.2.7 0 .2 0 .4.1.5.1.2.1.3.3.4.1.1.3.3.5.4.2.1.5.2.8.3.3.1.5.2.6.3.2.1.3.2.3.3.1.1.1.2.1.4s0 .3-.1.4c-.1.1-.2.2-.3.2-.1 0-.3.1-.4.1-.2 0-.4 0-.5-.1-.1-.1-.3-.2-.3-.4-.1-.2-.1-.4-.1-.7h-.8c0 .4.1.8.2 1.1.1.3.4.5.6.6.2.1.5.2.9.2zM73 75c-.2 0-.4-.1-.6-.2-.2-.2-.3-.4-.4-.7-.1-.3-.1-.7-.1-1.1 0-.3 0-.5.1-.8 0-.2.1-.4.2-.6.1-.2.2-.3.3-.4.1-.1.3-.1.5-.1s.3.1.5.1c.1.1.2.2.3.4.1.2.2.4.2.6 0 .2.1.5.1.8 0 .4 0 .8-.1 1.1-.1.3-.2.5-.4.7-.2.1-.4.2-.6.2zm0 .7c.4 0 .8-.1 1.1-.3.3-.2.5-.5.7-.9.1-.5.2-.9.2-1.5 0-.4 0-.7-.1-1.1-.1-.3-.2-.6-.4-.8-.2-.2-.4-.4-.6-.5-.3-.1-.5-.2-.9-.2-.3 0-.6.1-.9.2-.2.1-.5.3-.6.5-.2.2-.3.5-.4.8-.1.3-.1.7-.1 1.1 0 .6.1 1 .2 1.4.1.4.4.7.7.9.3.2.6.3 1.1.4zm-4.8-.7c-.3 0-.6-.2-.8-.5-.2-.3-.3-.8-.3-1.5 0-.3 0-.5.1-.8.1-.2.1-.4.2-.6.1-.2.2-.3.3-.4.1-.2.3-.2.5-.2.4 0 .6.2.8.5.2.4.3.9.3 1.6 0 .4 0 .8-.1 1-.1.3-.2.5-.4.6-.2.2-.4.3-.6.3zm2 .7v-1.9-1.7-1.4-1.1-.7-.2H69.2v2.5c-.1-.2-.2-.3-.3-.4-.1-.1-.3-.2-.4-.3-.2-.1-.4-.1-.6-.1-.3 0-.6.1-.8.2-.2.1-.4.3-.6.6-.1.2-.3.5-.3.9-.1.3-.1.7-.1 1.1 0 .5.1 1 .2 1.4.1.4.3.7.6.9.3.2.6.3 1 .3.2 0 .4 0 .6-.1.2-.1.3-.2.5-.3.1-.1.3-.3.4-.5v.9h.7c0-.1.1-.1.1-.1zm-5.6-2.2c0 .3 0 .5-.1.7-.1.2-.2.3-.3.5-.1.1-.2.2-.4.2-.1 0-.3.1-.4.1-.3 0-.5-.1-.6-.2-.1-.1-.2-.3-.2-.6 0-.2 0-.3.1-.4.1-.1.2-.3.3-.4.2-.1.3-.2.6-.3.2-.1.5-.1.9-.1v.4c0 .1.1 0 .1.1zm-1.4 2.1c.2 0 .4 0 .6-.1.2-.1.4-.2.5-.3.1-.1.3-.3.4-.5V75.6h.8v-.2-.5-.7-.9-1.1c0-.6-.2-1.1-.5-1.4-.3-.3-.7-.5-1.3-.5-.4 0-.7.1-.9.2-.3.1-.5.3-.6.6-.1.3-.2.6-.2.9H62.8c0-.4.1-.6.2-.8.1-.2.4-.3.7-.3.3 0 .5.1.6.3.1.2.2.4.2.8v.4c-.6 0-1.2.1-1.6.2-.4.2-.7.4-.9.6-.2.3-.3.6-.3.9 0 .3.1.5.2.7.1.2.3.4.5.5.3.2.5.3.8.3zm-4.9-4.4h.7V74c0 .4.1.7.2.9.1.2.3.4.5.5.2.1.4.2.7.2h.5c.2 0 .4-.1.5-.1v-.1-.3-.4c-.1 0-.3.1-.4.1h-.3c-.2 0-.4-.1-.5-.2-.1-.1-.2-.4-.2-.7V73v-.9-.8h1.5v-.1-.2-.4H60v-.7-.5-.2h-.8v1.4h-.6v.6zm-1.4 2.3c0 .3 0 .5-.1.7-.1.2-.2.3-.3.5-.1.1-.2.2-.4.2-.1 0-.3.1-.4.1-.3 0-.5-.1-.6-.2-.1-.1-.2-.3-.2-.6 0-.2 0-.3.1-.4.1-.1.2-.3.3-.4l.6-.3c.2-.1.5-.1.9-.1v.4c0 .1.1 0 .1.1zm-1.3 2.1c.2 0 .4 0 .6-.1.2-.1.4-.2.5-.3.1-.1.3-.3.4-.5V75.6h.8v-.2-.5-.7-.9-1.1c0-.6-.2-1.1-.5-1.4-.3-.3-.7-.5-1.3-.5-.4 0-.7.1-.9.2-.3.1-.5.3-.6.6-.1.3-.2.6-.2.9H55.2c0-.4.1-.6.2-.8.1-.2.4-.3.7-.3.3 0 .5.1.6.3.1.2.2.4.2.8v.4c-.6 0-1.2.1-1.6.2-.4.2-.7.4-.9.6-.2.3-.3.6-.3.9 0 .3.1.5.2.7.1.2.3.4.5.5.2.2.5.3.8.3zm-4.2-.1H52.3v-.1-.3-.5-.6-.6c0-.4.1-.8.2-1.1.1-.3.3-.5.5-.7.2-.2.5-.3.9-.3v-.6-.2c-.3 0-.5.1-.7.2-.2.1-.4.2-.6.4-.2.2-.3.4-.4.7v-.5-.4-.1H51.4V75.5zm-3.7-4.3h.7V74c0 .4.1.7.2.9.1.2.3.4.5.5.2.1.4.2.7.2h.5c.2 0 .4-.1.5-.1v-.1-.3-.4c-.1 0-.3.1-.4.1h-.3c-.2 0-.4-.1-.5-.2-.1-.1-.2-.4-.2-.7V73v-.9-.8h1.5v-.1-.2-.4h-1.5v-.7-.5-.2h-.8v1.4H48v.6zm-5.3 4.3H43.3v-.1-.3-.5-.6-.6c0-.4.1-.8.2-1.1.1-.3.3-.5.5-.7.2-.2.5-.3.9-.3v-.6-.2c-.3 0-.5.1-.7.2-.2.1-.4.2-.6.4-.2.2-.3.4-.4.7v-.5-.4-.1H42.4V75.5z"/>
  <path class="st2" d="M158.3 75c-.2 0-.4-.1-.6-.2-.2-.2-.3-.4-.4-.7-.1-.3-.1-.7-.1-1.1 0-.3 0-.5.1-.8 0-.2.1-.4.2-.6.1-.2.2-.3.3-.4.1-.1.3-.1.5-.1s.3.1.5.2c.1.1.2.2.3.4.1.2.2.4.2.6 0 .2.1.5.1.8 0 .4 0 .8-.1 1.1-.1.3-.2.5-.4.7-.1 0-.3.1-.6.1m0 .7c.4 0 .8-.1 1.1-.3.3-.2.5-.5.7-.9.2-.4.2-.9.3-1.5 0-.4 0-.7-.1-1.1-.1-.3-.2-.6-.4-.8-.2-.2-.4-.4-.6-.5-.3-.1-.5-.2-.9-.2-.3 0-.6.1-.9.2-.2.1-.5.3-.6.5-.2.2-.3.5-.4.8-.1.3-.1.7-.1 1 0 .6.1 1 .2 1.4.1.4.4.7.7.9.2.3.6.4 1 .5zm-4.8-.2H154.4v-.1-.3-.5-.6-.6c0-.4.1-.8.2-1.1.1-.3.3-.5.5-.7.2-.2.5-.3.9-.3v-.6-.2c-.3 0-.5.1-.7.2-.2.1-.4.2-.6.4-.2.2-.3.4-.4.7v-.5-.4-.1H153.5V75.5zm-2.7-4.5c.2 0 .4.1.5.2.1.1.3.3.3.6.1.3.1.5.1.9-.5 0-.9 0-1.2.1h-.8c0-.2 0-.5.1-.7.1-.2.1-.4.2-.6.1-.2.2-.3.3-.4.2-.1.3-.1.5-.1zm0 4.7c.3 0 .6-.1.9-.2.3-.1.5-.4.6-.6s.3-.6.4-1H151.8c-.1.4-.2.7-.3.9-.2.2-.4.3-.7.3-.3 0-.6-.1-.8-.4-.2-.3-.3-.7-.3-1.3h3c0-.4 0-.8-.1-1.2-.1-.4-.2-.7-.3-.9-.2-.3-.4-.5-.6-.6-.3-.1-.6-.2-.9-.2-.3 0-.6.1-.9.2-.2.1-.5.3-.6.5-.2.2-.3.5-.4.8-.1.3-.1.7-.1 1 0 .4 0 .8.1 1.1.1.3.2.6.4.9l.6.6c.3 0 .6.1.9.1zm-3.6 0H148.1v-.2-.5-.6-.7-.7-.6-.4c0-.3-.1-.6-.1-.8-.1-.2-.2-.4-.4-.5-.2-.1-.4-.2-.7-.2-.3 0-.5 0-.7.1-.2.1-.4.2-.5.4-.1.2-.3.4-.4.6v-.4-.3-.1H144.5v4.7h.9v-.1-.3-.5-.5-.5-.4c0-.2 0-.4.1-.6.1-.2.1-.4.2-.5.1-.2.2-.3.4-.4.1-.1.3-.1.5-.1s.3 0 .4.1c.1.1.2.2.2.4s.1.3.1.6V76c-.1-.4-.1-.3-.1-.3zm-5.4-4.7c.2 0 .4.1.5.2.1.1.3.3.3.6.1.3.1.5.1.9-.5 0-.9 0-1.2.1h-.8c0-.2 0-.5.1-.7.1-.2.1-.4.2-.6.1-.2.2-.3.3-.4.2-.1.3-.1.5-.1zm0 4.7c.3 0 .6-.1.9-.2.3-.1.5-.4.6-.6.2-.3.3-.6.4-1H142.8c-.1.4-.2.7-.3.9-.2.2-.4.3-.7.3-.3 0-.6-.1-.8-.4-.2-.3-.3-.7-.3-1.3h3c0-.4 0-.8-.1-1.2-.1-.4-.2-.7-.3-.9-.2-.3-.4-.5-.6-.6-.3-.1-.6-.2-.9-.2-.3 0-.6.1-.9.2-.2.1-.5.3-.6.5-.2.2-.3.5-.4.8-.1.3-.1.7-.1 1 0 .4 0 .8.1 1.1.1.3.2.6.4.9l.6.6c.3 0 .6.1.9.1zm0-5.7l.1-.1.4-.4c.2-.2.4-.4.7-.8 0 0-.1 0-.2-.1s-.3-.2-.5-.3c0 0 0 .1-.1.2s-.2.3-.3.5c-.1.2-.3.5-.6.8l.1.1c.1-.2.2-.1.4.1zm-3 6.7c0 .2-.1.3-.2.4-.1.1-.3.2-.5.3-.2.1-.4.1-.7.1-.3 0-.6-.1-.8-.2-.2-.1-.3-.3-.3-.5s.1-.3.2-.5c.1-.1.4-.3.6-.4.3 0 .6.1.8.1.2 0 .4.1.5.2.3.2.4.3.4.5zm-1.4-2.8c-.3 0-.6-.1-.7-.4-.2-.2-.2-.6-.2-1.1 0-.3 0-.6.1-.8.1-.2.2-.4.3-.5.1-.1.3-.2.5-.2s.4.1.5.2c.1.1.3.3.3.5.1.2.1.5.1.8 0 .3 0 .6-.1.8-.1.2-.2.4-.3.5-.1.2-.3.2-.5.2zm-.1 4.2c.3 0 .6 0 .9-.1.3-.1.5-.2.7-.3.2-.1.4-.3.5-.5.1-.2.2-.4.2-.7 0-.2-.1-.4-.2-.6-.1-.2-.3-.3-.6-.4-.3-.1-.6-.2-1-.2-.3 0-.5-.1-.7-.1-.2 0-.3-.1-.3-.1-.1 0-.1-.1-.1-.2s0-.1.1-.2c0-.1.1-.1.2-.1h.5c.3 0 .5 0 .7-.1.2-.1.4-.2.6-.4.2-.2.3-.4.4-.7.1-.3.1-.6.1-.9 0-.2 0-.5-.1-.7-.1-.2-.1-.4-.2-.6-.1-.2-.2-.3-.4-.5.2-.4.3-.7.5-.9.1-.3.2-.5.3-.6.1-.1.1-.2.1-.2-.3-.1-.5-.2-.6-.2-.1-.1-.2-.1-.2-.1-.1.5-.3.8-.4 1.1-.1.3-.2.5-.2.7-.1 0-.2-.1-.3-.1h-.3c-.3 0-.6.1-.8.2-.2.1-.4.3-.6.5-.2.2-.3.4-.4.7-.1.3-.1.5-.1.8 0 .5.1.9.2 1.2.2.3.4.6.7.7-.2.1-.3.2-.4.3-.1.1-.1.3-.1.4 0 .1.1.3.1.4.1.1.3.2.5.3l-.6.3c-.2.1-.3.3-.4.4-.1.1-.1.3-.1.5s.1.4.2.6c.1.2.4.3.6.4s.6 0 1 0zm-5.1-2.7v-.1-.4-.8-1.3V71v-2.4H131.3v6.8H132.2zm-2.6-1.9c0 .3 0 .5-.1.7-.1.2-.2.3-.3.5-.1.1-.2.2-.4.2-.1 0-.3.1-.4.1-.3 0-.5-.1-.6-.2-.1-.1-.2-.3-.2-.6 0-.2 0-.3.1-.4.1-.1.2-.3.3-.4l.6-.3c.2-.1.5-.1.9-.1v.4c.1 0 .1 0 .1.1zm-1.4 2.1c.2 0 .4 0 .6-.1.2-.1.4-.2.5-.3.1-.1.3-.3.4-.5V75.6h.8v-.2-.5-.7-.9-1.1c0-.6-.2-1.1-.5-1.4-.3-.3-.7-.5-1.3-.5-.4 0-.7.1-.9.2-.3.1-.5.3-.6.6-.1.3-.2.6-.2.9H127.8c0-.4.1-.6.2-.8.1-.2.4-.3.7-.3.3 0 .5.1.6.3.1.2.2.4.2.8v.4c-.6 0-1.2.1-1.6.2-.4.2-.7.4-.9.6-.2.3-.3.6-.3.9 0 .3.1.5.2.7.1.2.3.4.5.5.3.2.5.3.8.3zm-6.5-.6c-.2 0-.4-.1-.6-.2-.2-.2-.3-.4-.4-.7-.1-.3-.1-.7-.1-1.1 0-.3 0-.5.1-.8 0-.2.1-.4.2-.6.1-.2.2-.3.3-.4.1-.1.3-.1.5-.1s.3.1.5.2c.1.1.2.2.3.4.1.2.2.4.2.6 0 .2.1.5.1.8 0 .4 0 .8-.1 1.1-.1.3-.2.5-.4.7-.2 0-.4.1-.6.1zm-.1.7c.4 0 .8-.1 1.1-.3.3-.2.5-.5.7-.9.2-.4.2-.9.3-1.5 0-.4 0-.7-.1-1.1-.1-.3-.2-.6-.4-.8-.2-.2-.4-.4-.6-.5-.3-.1-.5-.2-.9-.2-.3 0-.6.1-.9.2-.2.1-.5.3-.6.5-.2.2-.3.5-.4.8-.1.3-.1.7-.1 1 0 .6.1 1 .2 1.4.1.4.4.7.7.9.2.3.6.4 1 .5zm-4.7-.7c-.3 0-.6-.2-.8-.5-.2-.3-.3-.8-.3-1.5 0-.3 0-.5.1-.8.1-.2.1-.4.2-.6.1-.2.2-.3.3-.4.1-.1.3-.2.4-.2.4 0 .6.2.8.5.2.4.3.9.3 1.6 0 .4 0 .8-.1 1-.1.3-.2.5-.4.6-.1.2-.3.3-.5.3zm1.9.7v-1.9-1.7-1.4-1.1-.7-.2H117.8v2.5c-.1-.2-.2-.3-.3-.4-.1-.1-.3-.2-.4-.3-.2-.1-.4-.1-.6-.1-.3 0-.6.1-.8.2-.2.1-.4.3-.6.6-.1.2-.3.5-.3.9-.1.3-.1.7-.1 1.1 0 .5.1 1 .2 1.4.1.4.3.7.6.9.3.2.6.3 1 .3.2 0 .4 0 .6-.1.2-.1.3-.2.5-.3.1-.1.3-.3.4-.5v.9h.7l.1-.1zm-6.8-.2H112.9v-.1-.3-.5-.6-.6c0-.4.1-.8.2-1.1.1-.3.3-.5.5-.7.2-.2.5-.3.9-.3v-.6-.2c-.3 0-.5.1-.7.2-.2.1-.4.2-.6.4-.2.2-.3.4-.4.7v-.5-.4-.1H112V75.5zm-2.7-4.5c.2 0 .4.1.5.2.1.1.3.3.3.6.1.3.1.5.1.9-.5 0-.9 0-1.2.1h-.8c0-.2 0-.5.1-.7.1-.2.1-.4.2-.6.1-.2.2-.3.3-.4.2-.1.4-.1.5-.1zm0 4.7c.3 0 .6-.1.9-.2.3-.1.5-.4.6-.6.2-.3.3-.6.4-1H110.3c-.1.4-.2.7-.3.9-.2.2-.4.3-.7.3-.3 0-.6-.1-.8-.4-.2-.3-.3-.7-.3-1.3h3c0-.4 0-.8-.1-1.2-.1-.4-.2-.7-.3-.9-.2-.3-.4-.5-.6-.6-.3-.1-.6-.2-.9-.2-.3 0-.6.1-.9.2-.2.1-.5.3-.6.5-.2.2-.3.5-.4.8-.1.3-.1.7-.1 1 0 .4 0 .8.1 1.1.1.3.2.6.4.9l.6.6c.3 0 .6.1.9.1zm-4.9-.2c.2 0 .4 0 .5-.1.2-.1.3-.2.5-.3.1-.1.3-.3.4-.5v1H106.6v-1.7-1.5-1.1-.7-.3H105.7v2.8c0 .3 0 .5-.1.7-.1.2-.1.4-.2.5-.1.1-.2.3-.3.3-.1.1-.2.1-.3.1-.2 0-.3 0-.4-.1-.1-.1-.2-.2-.3-.4-.1-.2-.1-.4-.2-.7 0-.3-.1-.6-.1-1.1v-.6-.7c0-.3 0-.4.1-.7h-.8c0 .4-.1.7-.1 1.1v1.1c0 .5 0 1 .1 1.3.1.4.2.6.3.9.1.2.3.4.5.5.1.2.3.2.5.2z"/>
  <path class="st2" d="M72.8 87.4v-.1-.4-.8-1.3V83v-2.4H71.9v6.8H72.8M69.1 83c.2 0 .4.1.5.2.1.1.3.3.3.6.1.3.1.6.1.9-.5 0-.9 0-1.2.1H68c0-.2 0-.5.1-.7.1-.2.1-.4.2-.6.1-.2.2-.3.3-.4.2-.1.4-.1.5-.1zm.1 4.7c.3 0 .6-.1.9-.2.3-.1.5-.4.6-.6.2-.3.3-.6.4-1H70.2c-.1.4-.2.7-.3.9-.2.2-.4.3-.7.3-.3 0-.6-.1-.8-.4-.2-.3-.3-.7-.3-1.3h3c0-.4 0-.8-.1-1.2-.1-.3-.2-.7-.3-.9-.2-.3-.4-.5-.6-.6-.3-.1-.6-.2-.9-.2-.3 0-.6.1-.9.2-.2.1-.5.3-.6.5-.2.2-.3.5-.4.8-.1.3-.1.7-.1 1 0 .4 0 .8.1 1.1.1.3.2.6.4.9l.6.6c.2 0 .5.1.9.1zm-6.2-.2H63.9v-.1-.3-.5-.6-.6c0-.4.1-.8.2-1.1.1-.3.3-.5.5-.7.2-.2.5-.3.9-.3v-.6-.2c-.3 0-.5.1-.7.2-.2.1-.4.2-.6.4-.2.2-.3.4-.4.7v-.5-.4-.1H63V87.5zm-2.8-.5c-.2 0-.4-.1-.6-.2-.2-.2-.3-.4-.4-.7-.1-.3-.1-.7-.1-1.1 0-.3 0-.5.1-.8 0-.2.1-.4.2-.6.1-.2.2-.3.3-.4.1-.1.3-.1.5-.1s.3.1.5.1c.1.1.2.2.3.4.1.2.2.4.2.6 0 .2.1.5.1.8 0 .4 0 .8-.1 1.1-.1.3-.2.5-.4.7-.2.1-.4.2-.6.2zm0 .7c.4 0 .8-.1 1.1-.3.3-.2.5-.5.7-.9.2-.4.2-.9.3-1.5 0-.4 0-.7-.1-1.1-.1-.3-.2-.6-.4-.8-.2-.2-.4-.4-.6-.5-.3-.1-.5-.2-.9-.2-.3 0-.6.1-.9.2-.2.1-.5.3-.6.5-.2.2-.3.5-.4.8-.1.3-.1.7-.1 1 0 .6.1 1 .2 1.4.1.4.4.7.7.9.1.3.5.4 1 .5zm-4.7-.7c-.3 0-.5-.1-.6-.2-.2-.2-.3-.4-.4-.7-.1-.3-.1-.6-.1-1s0-.8.1-1.1c.1-.3.2-.6.4-.7.2-.2.4-.3.6-.3.2 0 .4.1.6.3.2.2.3.4.4.7.1.3.1.7.1 1.1 0 .4 0 .8-.1 1.1-.1.3-.2.5-.4.7-.2 0-.4.1-.6.1zm-2 2.6H54.4v-.7c0-.4 0-1.1-.1-2 .1.2.2.3.3.4.1.1.3.2.5.2s.3.1.5.1c.4 0 .7-.1 1-.3.3-.2.5-.5.6-.9s.2-.9.2-1.5c0-.4 0-.8-.1-1.1-.1-.3-.2-.6-.4-.8-.2-.2-.3-.4-.6-.5-.2-.1-.5-.2-.7-.2-.2 0-.4 0-.6.1-.2.1-.3.2-.5.3-.1.1-.3.3-.4.5V83v-.2-.3h-.8V88c.2.6.2 1.1.2 1.6zm-3.8.2v-.1c0-.1.1-.3.1-.5.1-.2.1-.5.3-.9.1-.4.2-.8.4-1.4.2-.5.3-1.2.5-1.9s.4-1.6.7-2.6H50.8s0 .2-.1.5-.2.8-.3 1.4c-.2.6-.4 1.4-.6 2.4 0 0 0-.1-.1-.3-.1-.2-.1-.5-.2-.8-.1-.4-.2-.8-.3-1.3-.1-.5-.3-1-.4-1.6H47.9s.1.2.2.5c.1.4.3.9.5 1.7.2.8.5 1.7.9 2.9v.2c0 .1-.1.3-.2.6s-.2.6-.3 1.1h.1c.1 0 .2 0 .3.1-.1-.1.1-.1.3 0zM44.2 87c-.2 0-.4-.1-.6-.2-.2-.2-.3-.4-.4-.7-.1-.3-.1-.7-.1-1.1 0-.3 0-.5.1-.8 0-.2.1-.4.2-.6.1-.2.2-.3.3-.4.1-.1.3-.1.5-.1s.3.1.5.1c.1.1.2.2.3.4.1.2.2.4.2.6 0 .2.1.5.1.8 0 .4 0 .8-.1 1.1-.1.3-.2.5-.4.7-.1.1-.3.2-.6.2zm0 .7c.4 0 .8-.1 1.1-.3.3-.2.5-.5.7-.9.2-.4.2-.9.3-1.5 0-.4 0-.7-.1-1.1-.1-.3-.2-.6-.4-.8-.2-.2-.4-.4-.6-.5-.3-.1-.5-.2-.9-.2-.3 0-.6.1-.9.2-.2.1-.5.3-.6.5-.2.2-.3.5-.4.8-.1.3-.1.7-.1 1 0 .6.1 1 .2 1.4.1.4.4.7.7.9.2.3.6.4 1 .5zm-4.8-.7c-.3 0-.6-.2-.8-.5-.2-.3-.3-.8-.3-1.5 0-.3 0-.5.1-.8 0-.2.1-.4.2-.6.1-.2.2-.3.3-.4.1-.1.3-.2.4-.2.4 0 .6.2.8.5.2.4.3.9.3 1.6 0 .4 0 .8-.1 1-.1.3-.2.5-.4.6-.1.2-.2.3-.5.3zm2 .7v-1.9-1.7-1.4-1.1-.7-.2H40.4v2.5c-.1-.2-.2-.3-.3-.4-.1-.1-.3-.2-.4-.3-.2-.1-.4-.1-.6-.1-.3 0-.6.1-.8.2-.2.1-.4.3-.6.6-.1.2-.3.5-.3.9-.1.3-.1.7-.1 1.1 0 .5.1 1 .2 1.4.1.4.3.7.6.9.3.2.6.3 1 .3.2 0 .4 0 .6-.1.2-.1.3-.2.5-.3.1-.1.3-.3.4-.5v.9h.7l.1-.1zm-5.6-2.2c0 .3 0 .5-.1.7-.1.2-.2.3-.3.5-.1.1-.2.2-.4.2-.1 0-.3.1-.4.1-.3 0-.5-.1-.6-.2-.1-.1-.2-.3-.2-.6 0-.2 0-.3.1-.4.1-.1.2-.3.3-.4.2-.1.3-.2.6-.3.2-.1.5-.1.9-.1v.4c.1 0 .1 0 .1.1zm-1.3 2.1c.2 0 .4 0 .6-.1.2-.1.4-.2.5-.3.1-.1.3-.3.4-.5V87.6h.8v-.2-.5-.7-.9-1.1c0-.6-.2-1.1-.5-1.4-.3-.3-.7-.5-1.3-.5-.4 0-.7.1-.9.2-.3.1-.5.3-.6.6-.1.3-.2.6-.2.9H34.1c0-.4.1-.6.2-.8.1-.2.4-.3.7-.3.3 0 .5.1.6.3.1.2.2.4.2.8v.4c-.6 0-1.2.1-1.6.2-.4.2-.7.4-.9.6-.2.3-.3.6-.3.9 0 .3.1.5.2.7.1.2.3.4.5.5.2.2.5.3.8.3zm-3.7.1c.2 0 .5 0 .7-.1.2-.1.4-.1.5-.3.2-.1.3-.3.4-.4.1-.2.1-.4.1-.6 0-.2 0-.3-.1-.5 0-.1-.1-.3-.2-.4-.1-.1-.3-.2-.5-.4-.2-.1-.4-.2-.7-.3-.3-.1-.5-.2-.7-.3-.2-.1-.3-.2-.4-.3-.1-.1-.1-.3-.1-.4 0-.1 0-.2.1-.4.1-.1.2-.2.3-.2.1-.1.3-.1.5-.1.3 0 .5.1.7.3.1.2.2.5.2.9h.8c0-.4-.1-.7-.2-1-.1-.3-.3-.5-.6-.7-.3-.2-.6-.2-1-.2s-.7.1-.9.2c-.3.1-.4.3-.6.5-.1.2-.2.4-.2.7 0 .2 0 .4.1.5.1.2.1.3.3.4.1.1.3.3.5.4.2.1.5.2.8.3.3.1.5.2.6.3.2.1.3.2.3.3.1.1.1.2.1.4s0 .3-.1.4c-.1.1-.2.2-.3.2-.1 0-.3.1-.4.1-.2 0-.4 0-.5-.1-.1-.1-.3-.2-.3-.4-.1-.2-.1-.4-.1-.7h-.8c0 .4.1.8.2 1.1.1.3.4.5.6.6.2.1.5.2.9.2zM26.5 83c.2 0 .4.1.5.2.1.1.3.3.3.6.1.3.1.6.1.9-.5 0-.9 0-1.2.1h-.8c0-.2 0-.5.1-.7.1-.2.1-.4.2-.6.1-.2.2-.3.3-.4.2-.1.3-.1.5-.1zm0 4.7c.3 0 .6-.1.9-.2.3-.1.5-.4.6-.6.2-.3.3-.6.4-1H27.5c-.1.4-.2.7-.3.9-.2.1-.4.2-.7.2-.3 0-.6-.1-.8-.4-.2-.3-.3-.7-.3-1.3h3c0-.4 0-.8-.1-1.2-.1-.3-.2-.7-.3-.9-.2-.3-.4-.5-.6-.6-.3-.1-.6-.2-.9-.2-.3 0-.6.1-.9.2-.2.1-.5.3-.6.5-.2.2-.3.5-.4.8-.1.3-.1.7-.1 1 0 .4 0 .8.1 1.1.1.3.2.6.4.9l.6.6c.2.1.6.2.9.2zm-4.8-.2H22.6v-.1-.3-.5-.6-.6c0-.4.1-.8.2-1.1.1-.3.3-.5.5-.7.2-.2.5-.3.9-.3v-.6-.2c-.3 0-.5.1-.7.2-.2.1-.4.2-.6.4-.2.2-.3.4-.4.7v-.5-.4-.1H21.7V87.5zm-2.8-.5c-.3 0-.5-.1-.6-.2-.2-.2-.3-.4-.4-.7-.1-.3-.1-.6-.1-1s0-.8.1-1.1c.1-.3.2-.6.4-.7.2-.2.4-.3.6-.3.2 0 .4.1.6.3.2.2.3.4.4.7.1.3.1.7.1 1.1 0 .4 0 .8-.1 1.1-.1.3-.2.5-.4.7-.2 0-.4.1-.6.1zm-2 2.6H17.8v-.7c0-.4 0-1.1-.1-2 .1.2.2.3.3.4.1.1.3.2.5.2s.3.1.5.1c.4 0 .7-.1 1-.3.3-.2.5-.5.6-.9s.2-.9.2-1.5c0-.4 0-.8-.1-1.1-.1-.3-.2-.6-.4-.8-.2-.2-.3-.4-.6-.5-.2-.1-.5-.2-.7-.2-.2 0-.4 0-.6.1-.2.1-.3.2-.5.3-.1.1-.3.3-.4.5V83v-.2-.3h-.8V88c.2.6.2 1.1.2 1.6zm-4.7-2.2h1.1s0-.1.1-.2.2-.3.3-.6.3-.7.5-1.1c.1.2.2.5.4.8l.7 1.4h1s-.1-.2-.4-.7c-.3-.4-.6-1.1-1.1-2 .1-.2.3-.5.5-.9s.6-1 1-1.7H15.4l-.3.6c-.2.4-.5.9-.8 1.7-.1-.1-.2-.4-.3-.7-.2-.3-.4-.8-.6-1.3h-1s0 .1.1.2l.4.8c.2.4.4.8.8 1.4l-.4.8c-.4.3-.7.8-1.1 1.5zM10 83c.2 0 .4.1.5.2.1.1.3.3.3.6.2.2.2.5.2.9-.5 0-.9 0-1.2.1H9c0-.2 0-.5.1-.7.1-.2.1-.4.2-.6.1-.2.2-.3.3-.4.1-.1.2-.1.4-.1zm0 4.7c.3 0 .6-.1.9-.2.3-.1.5-.4.7-.6.2-.3.3-.6.4-1H11.1c-.1.4-.2.7-.3.9-.3.1-.5.2-.8.2-.3 0-.6-.1-.8-.4-.2-.3-.3-.7-.3-1.3h3c0-.4 0-.8-.1-1.2-.1-.3-.2-.7-.3-.9-.2-.3-.4-.5-.6-.6-.3-.1-.6-.2-.9-.2-.3 0-.6.1-.9.2-.2.1-.5.3-.6.5-.2.2-.3.5-.4.8 0 .3-.1.7-.1 1.1 0 .4 0 .8.1 1.1.1.3.2.6.4.9l.6.6c.3 0 .6.1.9.1z"/>
  <path class="st2" d="M131.1 88.7c0 .2-.1.3-.2.4-.1.1-.3.2-.5.3-.2.1-.4.1-.7.1-.3 0-.6-.1-.8-.2-.2-.1-.3-.3-.3-.5s.1-.3.2-.5c.1-.1.4-.3.6-.4.3 0 .6.1.8.1s.4.1.5.2c.3.2.4.3.4.5m-1.3-2.8c-.3 0-.6-.1-.7-.4-.2-.2-.2-.6-.2-1.1 0-.3 0-.6.1-.8.1-.2.2-.4.3-.5.1-.1.3-.2.5-.2s.4.1.5.2c.1.1.3.3.3.5.1.2.1.5.1.8 0 .3 0 .6-.1.8-.1.2-.2.4-.3.5-.2.2-.3.2-.5.2zm-.1 4.2c.3 0 .6 0 .9-.1.3-.1.5-.2.7-.3.2-.1.4-.3.5-.5.1-.2.2-.4.2-.7 0-.2-.1-.4-.2-.6-.1-.2-.3-.3-.6-.4-.3-.1-.6-.2-1-.2-.3 0-.5-.1-.7-.1-.2 0-.3-.1-.3-.1-.1 0-.1-.1-.1-.2s0-.1.1-.2c0-.1.1-.1.2-.1h.5c.3 0 .5 0 .7-.1.2-.1.4-.2.6-.4.2-.2.3-.4.4-.7.1-.3.1-.6.1-.9 0-.2 0-.5-.1-.7-.1-.2-.1-.4-.2-.6-.1-.2-.2-.3-.4-.5.2-.4.3-.7.5-.9.1-.3.2-.5.3-.6.1-.1.1-.2.1-.2-.3-.1-.5-.2-.6-.2-.1-.1-.2-.1-.2-.1-.1.5-.3.8-.4 1.1-.1.3-.2.5-.2.7-.1 0-.2-.1-.3-.1h-.3c-.3 0-.6.1-.8.2-.2.1-.4.3-.6.5-.2.2-.3.4-.4.7-.1.3-.1.5-.1.8 0 .5.1.9.2 1.2.2.3.4.6.7.7-.2.1-.3.2-.4.3-.1.1-.1.3-.1.4 0 .1.1.3.1.4.1.1.3.2.4.3l-.6.3c-.2.1-.3.3-.4.4-.1.1-.1.3-.1.5s.1.4.2.6c.1.2.4.3.6.4.3-.1.7 0 1.1 0zm-3-8.3c.1 0 .2 0 .3-.1.1-.1.2-.1.2-.2s.1-.2.1-.3c0-.1 0-.2-.1-.3 0-.1-.1-.2-.2-.2-.1-.1-.2-.1-.3-.1-.2 0-.4.1-.5.2-.1.1-.2.3-.2.4 0 .2.1.3.2.4.1.2.3.2.5.2zm-.5 5.7h.9v-2-1.6-1-.4h-.8v4.7c-.1.2-.1.3-.1.3zm-1.1-.1v-.1-.4-.8-1.3V83v-2.4H124.2v6.8H125.1zm-3.6-4.4c.2 0 .4.1.5.2.1.1.3.3.3.6.1.3.1.5.1.9-.5 0-.9 0-1.2.1h-.8c0-.2 0-.5.1-.7.1-.2.1-.4.2-.6.1-.2.2-.3.3-.4.2-.1.3-.1.5-.1zm0 4.7c.3 0 .6-.1.9-.2.3-.1.5-.4.6-.6.2-.3.3-.6.4-1H122.5c-.1.4-.2.7-.3.9-.2.2-.4.3-.7.3-.3 0-.6-.1-.8-.4-.2-.3-.3-.7-.3-1.3h3c0-.4 0-.8-.1-1.2-.1-.4-.2-.7-.3-.9-.2-.3-.4-.5-.6-.6-.3-.1-.6-.2-.9-.2-.3 0-.6.1-.9.2-.2.1-.5.3-.6.5-.2.2-.3.5-.4.8-.1.3-.1.7-.1 1 0 .4 0 .8.1 1.1.1.3.2.6.4.9l.6.6c.3 0 .6.1.9.1zm-5.7-4.7c.2 0 .4.1.5.2.1.1.3.3.3.6.1.3.1.5.1.9-.5 0-.9 0-1.2.1h-.8c0-.2 0-.5.1-.7.1-.2.1-.4.2-.6.1-.2.2-.3.3-.4.1-.1.3-.1.5-.1zm0 4.7c.3 0 .6-.1.9-.2.3-.1.5-.4.6-.6.2-.3.3-.6.4-1H116.8c-.1.4-.2.7-.3.9-.2.2-.4.3-.7.3-.3 0-.6-.1-.8-.4-.2-.3-.3-.7-.3-1.3h3c0-.4 0-.8-.1-1.2-.1-.4-.2-.7-.3-.9-.2-.3-.4-.5-.6-.6-.3-.1-.6-.2-.9-.2-.3 0-.6.1-.9.2-.2.1-.5.3-.6.5-.2.2-.3.5-.4.8-.1.3-.1.7-.1 1 0 .4 0 .8.1 1.1.1.3.2.6.4.9l.6.6c.2 0 .5.1.9.1zm-5-.2c.2 0 .4 0 .5-.1.2-.1.3-.2.5-.3.1-.1.3-.3.4-.5v1H113v-1.7-1.5-1.1-.7-.3H112.1v2.8c0 .3 0 .5-.1.7-.1.2-.1.4-.2.5-.1.1-.2.3-.3.3-.1.1-.2.1-.4.1s-.3 0-.4-.1-.2-.2-.3-.4c-.1-.2-.1-.4-.2-.7 0-.3-.1-.6-.1-1.1v-.6-.7c0-.3 0-.4.1-.7h-.8c0 .4-.1.7-.1 1.1v1.1c0 .5 0 1 .1 1.3.1.4.2.6.3.9.1.2.3.4.5.5.2.2.4.2.6.2zm-4.3-.5c-.2 0-.3-.1-.5-.2-.1-.1-.2-.2-.3-.4-.1-.2-.2-.4-.2-.6 0-.2-.1-.5-.1-.8 0-.3 0-.5.1-.8 0-.2.1-.5.2-.6.1-.2.2-.3.3-.4.1-.1.3-.2.5-.2s.3.1.5.2c.1.1.3.2.3.4.1.2.2.4.2.6 0 .2.1.5.1.8 0 .4 0 .8-.1 1.1-.1.3-.2.5-.4.7-.2.1-.4.2-.6.2zm1 2.6H108.4v-.3-.9-1.5-2-2.5h-.1-.7v.9c-.1-.3-.3-.5-.6-.7-.2-.2-.5-.2-.9-.2-.3 0-.5.1-.8.2-.2.1-.4.3-.6.6-.2.2-.3.5-.4.9-.1.3-.1.7-.1 1.1 0 .5.1 1 .2 1.4.1.4.3.7.6.9.3.2.6.3 1 .3.3 0 .6-.1.8-.2.2-.1.4-.3.5-.6v1.1c.3.3.2.9.2 1.5zm-6.8-6.6c.2 0 .4.1.5.2.1.1.3.3.3.6.1.3.1.5.1.9-.5 0-.9 0-1.2.1h-.8c0-.2 0-.5.1-.7.1-.2.1-.4.2-.6.1-.2.2-.3.3-.4.2-.1.3-.1.5-.1zm0 4.7c.3 0 .6-.1.9-.2.3-.1.5-.4.7-.6.2-.3.3-.6.4-1H101.8c-.1.4-.2.7-.3.9-.2.2-.4.3-.7.3-.3 0-.6-.1-.8-.4-.2-.3-.3-.7-.3-1.3h3c0-.4 0-.8-.1-1.2-.1-.4-.2-.7-.3-.9-.2-.3-.4-.5-.6-.6-.3-.1-.6-.2-.9-.2-.3 0-.6.1-.9.2-.2.1-.5.3-.6.5-.2.2-.3.5-.4.8-.1.3-.1.7-.1 1 0 .4 0 .8.1 1.1.1.3.2.6.4.9l.6.6c.1 0 .4.1.8.1zm-4.8-.2H96.8v-.1-.3-.5-.6-.6c0-.4.1-.8.2-1.1.1-.3.3-.5.5-.7.2-.2.5-.3.9-.3v-.6-.2c-.3 0-.5.1-.7.2-.2.1-.4.2-.6.4-.2.2-.3.4-.4.7v-.5-.4-.1H95.9V87.5zm-2.8-.5c-.2 0-.4-.1-.6-.2-.2-.2-.3-.4-.4-.7-.1-.3-.1-.7-.1-1.1 0-.3 0-.6.1-.8 0-.2.1-.5.2-.6.1-.2.2-.3.3-.4.1-.1.3-.1.5-.1s.3.1.5.2c.1.1.3.2.3.4.1.2.2.4.2.6 0 .2.1.5.1.8 0 .4 0 .8-.1 1.1-.1.3-.2.5-.4.7-.2 0-.4.1-.6.1zm-2 .6H91.9v-.4-.4c.1.3.3.5.6.6.2.1.5.2.8.2.4 0 .7-.1 1-.3.3-.2.5-.5.6-.9.1-.4.2-.9.2-1.4 0-.6-.1-1.1-.2-1.4-.1-.4-.3-.7-.6-.9-.3-.2-.6-.3-.9-.3-.3 0-.6.1-.8.2-.2.1-.4.4-.6.7v-1-.8-.5-.2H91.1V87.6zm-7-.3h.9v-.1-.4-.6-.6-.7c0-.3 0-.5.1-.7.1-.2.1-.4.3-.6.1-.2.2-.3.4-.4.1-.1.3-.1.4-.1.1 0 .3 0 .4.1.1.1.2.2.2.4s.1.3.1.5v3h.9V87v-.4-.5-.6-.6c0-.2 0-.4.1-.6 0-.2.1-.4.2-.5.1-.1.2-.3.3-.3.1-.1.3-.1.4-.1.2 0 .4.1.5.3.1.2.2.4.2.8V87.7h.8v-.1-.4-.6-.7-.8-.8c0-.2 0-.4-.1-.6 0-.2-.1-.4-.2-.5-.1-.2-.2-.3-.4-.4-.2-.1-.4-.1-.6-.1-.2 0-.4 0-.6.1-.2.1-.3.2-.5.3-.1.1-.3.3-.4.5 0-.2-.1-.4-.2-.6-.1-.2-.2-.3-.4-.4-.2-.1-.4-.1-.6-.1-.2 0-.4.1-.6.2-.2.1-.4.2-.5.4-.2.2-.3.4-.4.6v-.5-.3-.1H84v4.4c.1 0 .1.1.1.1zm-2.8-.3c-.2 0-.4-.1-.6-.2-.2-.2-.3-.4-.4-.7-.1-.3-.1-.7-.1-1.1 0-.3 0-.5.1-.8 0-.2.1-.4.2-.6.1-.2.2-.3.3-.4.1-.1.3-.1.5-.1s.3.1.5.1c.1.1.2.2.3.4.1.2.2.4.2.6 0 .2.1.5.1.8 0 .4 0 .8-.1 1.1-.1.3-.2.5-.4.7-.2.1-.4.2-.6.2zm0 .7c.4 0 .8-.1 1.1-.3.3-.2.5-.5.7-.9.2-.4.2-.9.3-1.5 0-.4 0-.7-.1-1.1s-.2-.6-.4-.8c-.2-.2-.4-.4-.6-.5-.3-.1-.5-.2-.9-.2-.3 0-.6.1-.9.2-.2.1-.5.3-.6.5-.2.2-.3.5-.4.8-.1.3-.1.7-.1 1 0 .6.1 1 .2 1.4.1.4.4.7.7.9.2.3.5.4 1 .5zm-3.6 0H78.6v-.2-.5-.6-.7-.7-.6-.4c0-.3-.1-.6-.2-.8-.1-.2-.2-.4-.4-.5-.2-.1-.4-.2-.7-.2-.3 0-.5 0-.7.1-.2.1-.4.2-.5.4-.1.2-.3.4-.4.6v-.4-.3-.1H74.9v4.7h.9v-.1-.3-.5-.5-.5-.4c0-.2 0-.4.1-.6.1-.2.1-.4.2-.5.1-.2.2-.3.4-.4.1-.1.3-.1.5-.1s.3 0 .4.1c.1.1.2.2.2.4s.1.3.1.6v3z"/>
  <path class="st2" d="M151.4 87.5c.2 0 .4-.1.5-.2.1-.1.2-.3.2-.5 0-.1 0-.2-.1-.3-.1-.1-.1-.2-.2-.2-.1-.1-.2-.1-.3-.1-.1 0-.2 0-.3.1-.1.1-.2.1-.2.2-.1.1-.1.2-.1.4 0 .1 0 .3.1.4 0 .1.1.2.2.2h.2m-2.2.2H150.1v-.2-.5-.6-.7-.7-.6-.4c0-.3-.1-.6-.1-.8-.1-.2-.2-.4-.4-.5-.2-.1-.4-.2-.7-.2-.3 0-.5 0-.7.1-.2.1-.4.2-.5.4-.2.2-.3.4-.4.6v-.4-.3-.1H146.5v4.7h.9v-.1-.3-.5-.5-.5-.4c0-.2 0-.4.1-.6.1-.2.1-.4.2-.5.1-.2.2-.3.4-.4.1-.1.3-.1.5-.1s.3 0 .4.1c.1.1.2.2.2.4s.1.3.1.6V88c-.1-.4-.1-.3-.1-.3zm-5.5-.7c-.2 0-.4-.1-.6-.2-.2-.2-.3-.4-.4-.7-.1-.3-.1-.7-.1-1.1 0-.3 0-.5.1-.8 0-.2.1-.4.2-.6.1-.2.2-.3.3-.4.1-.1.3-.1.5-.1s.3.1.5.1c.1.1.2.2.3.4.1.2.2.4.2.6 0 .2.1.5.1.8 0 .4 0 .8-.1 1.1-.1.3-.2.5-.4.7-.2.1-.4.2-.6.2zm0 .7c.4 0 .8-.1 1.1-.3.3-.2.5-.5.7-.9.2-.4.2-.9.3-1.5 0-.4 0-.7-.1-1.1-.1-.3-.2-.6-.4-.8-.2-.2-.4-.4-.6-.5-.3-.1-.5-.2-.9-.2-.3 0-.6.1-.9.2-.2.1-.5.3-.6.5-.2.2-.3.5-.4.8-.1.3-.1.7-.1 1 0 .6.1 1 .2 1.4.1.4.4.7.7.9.1.3.5.4 1 .5zm-4.9-.2H139.7v-.1-.3-.5-.6-.6c0-.4.1-.8.2-1.1.1-.3.3-.5.5-.7.2-.2.5-.3.9-.3v-.6-.2c-.3 0-.5.1-.7.2-.2.1-.4.2-.6.4-.2.2-.3.4-.4.7v-.5-.4-.1H138.8V87.5zm-2.7-4.5c.2 0 .4.1.5.2.1.1.3.3.3.6.1.3.1.5.1.9-.5 0-.9 0-1.2.1h-.8c0-.2 0-.5.1-.7.1-.2.1-.4.2-.6.1-.2.2-.3.3-.4.2-.1.4-.1.5-.1zm.1 4.7c.3 0 .6-.1.9-.2.3-.1.5-.4.6-.6.2-.3.3-.6.4-1H137.2c-.1.4-.2.7-.3.9-.2.2-.4.3-.7.3-.3 0-.6-.1-.8-.4-.2-.3-.3-.7-.3-1.3h3c0-.4 0-.8-.1-1.2-.1-.4-.2-.7-.3-.9-.2-.3-.4-.5-.6-.6-.3-.1-.6-.2-.9-.2-.3 0-.6.1-.9.2-.2.1-.5.3-.6.5-.2.2-.3.5-.4.8-.1.3-.1.7-.1 1 0 .4 0 .8.1 1.1.1.3.2.6.4.9l.6.6c.2 0 .5.1.9.1zm-3.4-5.9c.1 0 .2 0 .3-.1.1-.1.2-.1.2-.2s.1-.2.1-.3c0-.1 0-.2-.1-.3 0-.1-.1-.2-.2-.2-.1-.1-.2-.1-.3-.1-.2 0-.4.1-.5.2-.1.1-.2.3-.2.4 0 .2.1.3.2.4.2.2.3.2.5.2zm-.4 5.7h.9v-2-1.6-1-.4h-.8v4.7c-.1.2-.1.3-.1.3z"/>
  <path class="st3" d="M89.7 51c-.3 0-.6-.2-.8-.5-.2-.3-.3-.8-.3-1.5 0-.3 0-.5.1-.8.1-.2.1-.4.2-.6.1-.2.2-.3.3-.4.1-.1.3-.2.4-.2.4 0 .6.2.8.5.2.4.3.9.3 1.6 0 .4 0 .8-.1 1-.1.3-.2.5-.4.6-.1.2-.3.3-.5.3m2 .7v-1.9-1.7-1.4-1.1-.7-.2H90.7v2.5c-.1-.2-.2-.3-.3-.4-.1-.1-.3-.2-.4-.3-.2-.1-.4-.1-.6-.1-.3 0-.6.1-.8.2-.2.1-.4.3-.6.6-.1.2-.3.5-.3.9-.1.3-.1.7-.1 1.1 0 .5.1 1 .2 1.4.1.4.3.7.6.9.3.2.6.3 1 .3.2 0 .4 0 .6-.1.2-.1.3-.2.5-.3.1-.1.3-.3.4-.5v.9h.7c0-.1.1-.1.1-.1zm-5.9-.2h.9v-1.8-1.6-1.4-1.1-.7-.3H85.8V51.5zM80.6 47c.2 0 .4.1.5.2.1.1.3.3.3.6.1.3.1.5.1.9-.5 0-.9 0-1.2.1h-.8c0-.2 0-.5.1-.7.1-.2.1-.4.2-.6.1-.2.2-.3.3-.4.2-.1.3-.1.5-.1zm0 4.7c.3 0 .6-.1.9-.2.3-.1.5-.4.6-.6.2-.3.3-.6.4-1H81.6c-.1.4-.2.7-.3.9-.2.2-.4.3-.7.3-.3 0-.6-.1-.8-.4-.2-.3-.3-.7-.3-1.3h3c0-.4 0-.8-.1-1.2-.1-.4-.2-.7-.3-.9-.2-.3-.4-.5-.6-.6-.3-.1-.6-.2-.9-.2-.3 0-.6.1-.9.2-.2.1-.5.3-.6.5-.2.2-.3.5-.4.8-.1.3-.1.7-.1 1 0 .4 0 .8.1 1.1.1.3.2.6.4.9l.6.6c.3 0 .6.1.9.1zm-4.8-.7c-.3 0-.6-.2-.8-.5-.2-.3-.3-.8-.3-1.5 0-.3 0-.5.1-.8.1-.2.1-.4.2-.6.1-.2.2-.3.3-.4.1-.1.3-.2.4-.2.4 0 .6.2.8.5.2.4.3.9.3 1.6 0 .4 0 .8-.1 1-.1.3-.2.5-.4.6-.1.2-.2.3-.5.3zm2 .7v-1.9-1.7-1.4-1.1-.7-.2H76.8v2.5c-.1-.2-.2-.3-.3-.4-.1-.1-.3-.2-.4-.3-.2-.1-.4-.1-.6-.1-.3 0-.6.1-.8.2-.2.1-.4.3-.6.6-.1.2-.3.5-.3.9-.1.3-.1.7-.1 1.1 0 .5.1 1 .2 1.4.1.4.3.7.6.9.3.2.6.3 1 .3.2 0 .4 0 .6-.1.2-.1.3-.2.5-.3.1-.1.3-.3.4-.5v.9h.7l.1-.1zM69 53.8v-.1c0-.1.1-.3.1-.5.1-.2.1-.5.3-.9.1-.4.2-.8.4-1.4.2-.5.3-1.2.5-1.9s.5-1.6.7-2.6H70.1s0 .1-.1.5c-.1.3-.2.8-.3 1.4-.2.6-.4 1.4-.6 2.4 0 0 0-.1-.1-.3-.1-.2-.1-.5-.2-.8-.1-.4-.2-.8-.3-1.3-.1-.5-.3-1-.4-1.6H67.2s.1.2.2.5c.1.4.3.9.5 1.7.2.8.5 1.7.9 2.9v.2c0 .1-.1.3-.2.6s-.2.6-.3 1.1h.1c.1 0 .2 0 .3.1-.1-.1.1-.1.3 0zM64.9 47c.2 0 .4.1.5.2.1.1.3.3.3.6.1.3.1.5.1.9-.5 0-.9 0-1.2.1h-.8c0-.2 0-.5.1-.7.1-.2.1-.4.2-.6.1-.2.2-.3.3-.4.2-.1.3-.1.5-.1zm0 4.7c.3 0 .6-.1.9-.2.3-.1.5-.4.6-.6.2-.3.3-.6.4-1H65.9c-.1.4-.2.7-.3.9-.2.2-.4.3-.7.3-.3 0-.6-.1-.8-.4-.2-.3-.3-.7-.3-1.3h3c0-.4 0-.8-.1-1.2-.1-.4-.2-.7-.3-.9-.2-.3-.4-.5-.6-.6-.3-.1-.6-.2-.9-.2-.3 0-.6.1-.9.2-.2.1-.5.3-.6.5-.2.2-.3.5-.4.8-.1.3-.1.7-.1 1 0 .4 0 .8.1 1.1.1.3.2.6.4.9l.6.6c.2 0 .5.1.9.1zm-5.5-.2h3.2v-.2-.6H60.2v-3.4-2-.6H59.3v6.5c.1.1.1.2.1.3zm-4.1-2c0 .3 0 .5-.1.7-.1.2-.2.3-.3.5-.1.1-.2.2-.4.2-.1.1-.3.1-.4.1-.3 0-.5-.1-.6-.2-.1-.1-.2-.3-.2-.6 0-.2 0-.3.1-.4.1-.1.2-.3.3-.4.2-.1.3-.2.6-.3.2-.1.5-.1.9-.1v.4c.1 0 .1 0 .1.1zm-1.4 2.1c.2 0 .4 0 .6-.1.2-.1.4-.2.5-.3.1-.1.3-.3.4-.5V51.6h.8v-.2-.5-.7-.9-1.1c0-.6-.2-1.1-.5-1.4-.3-.3-.7-.5-1.3-.5-.4 0-.7.1-.9.2-.3.1-.5.3-.6.6-.1.3-.2.6-.2.9H53.5c0-.4.1-.6.2-.8.1-.2.4-.3.7-.3.3 0 .5.1.6.3.1.2.2.4.2.8v.4c-.6 0-1.2.1-1.6.2-.4.2-.7.4-.9.6-.2.3-.3.6-.3.9 0 .3.1.5.2.7.1.2.3.4.5.5.3.2.5.3.8.3zm-2.2-.2v-.1-.4-.8-1.3V47v-2.4H50.8v6.8H51.7zm-6-4.4c.2 0 .4.1.5.2.1.1.3.3.3.6.1.3.1.5.1.9-.5 0-.9 0-1.2.1h-.8c0-.2 0-.5.1-.7.1-.2.1-.4.2-.6.1-.2.2-.3.3-.4.2-.1.4-.1.5-.1zm.1 4.7c.3 0 .6-.1.9-.2.3-.1.5-.4.6-.6.2-.3.3-.6.4-1H46.8c-.1.4-.2.7-.3.9-.3.1-.5.2-.7.2-.3 0-.6-.1-.8-.4-.2-.3-.3-.7-.3-1.3h3c0-.4 0-.8-.1-1.2-.1-.4-.2-.7-.3-.9-.2-.3-.4-.5-.6-.6-.3-.1-.6-.2-.9-.2-.3 0-.6.1-.9.2-.2.1-.5.3-.6.5-.2.2-.3.5-.4.8-.1.3-.1.7-.1 1 0 .4 0 .8.1 1.1.1.3.2.6.4.9l.6.6c.2.1.5.2.9.2zM41 51c-.3 0-.6-.2-.8-.5-.2-.3-.3-.8-.3-1.5 0-.3 0-.5.1-.8 0-.2.1-.4.2-.6.1-.2.2-.3.3-.4.1-.1.3-.2.4-.2.4 0 .6.2.8.5.2.4.3.9.3 1.6 0 .4 0 .8-.1 1-.1.3-.2.5-.4.6-.1.2-.3.3-.5.3zm1.9.7v-1.9-1.7-1.4-1.1-.7-.2H41.9v2.5c-.1-.2-.2-.3-.3-.4-.1-.1-.3-.2-.4-.3-.2-.1-.4-.1-.6-.1-.3 0-.6.1-.8.2-.2.1-.4.3-.6.6-.1.2-.3.5-.3.9-.1.3-.1.7-.1 1.1 0 .5.1 1 .2 1.4.1.4.3.7.6.9.3.2.6.3 1 .3.2 0 .4 0 .6-.1.2-.1.3-.2.5-.3.1-.1.3-.3.4-.5v.9h.7l.1-.1zm-7-.2v-.9H33.3c.4-.3.7-.6 1.1-.9.3-.3.6-.7.9-1 .2-.4.4-.7.6-1.1.1-.4.2-.8.2-1.2 0-.4-.1-.7-.2-1-.1-.3-.4-.5-.6-.7-.3-.2-.6-.3-1.1-.3-.4 0-.7.1-1 .2-.3.1-.5.3-.6.6-.2.3-.3.6-.3.9v1.2H33.2c-.1-.7 0-1.2.1-1.6.2-.4.4-.6.9-.6.2 0 .4.1.5.1.1.1.3.2.3.4.1.2.1.4.1.7 0 .4-.1.8-.2 1.2-.1.4-.4.7-.6 1.1-.3.3-.6.7-.9 1-.4.3-.8.6-1.2 1v.8h2.3c.3.1.9.1 1.4.1zm-5.8 0h.9v-.3-.7-1.1V48v-1.6-1.7h-.1c-.1 0-.2 0-.4-.1 0 0-.1 0-.2.1s-.3.2-.6.4l-.9.6s0 .1.1.2.1.3.2.6l.1-.1c.1-.1.2-.1.4-.2s.4-.2.6-.4v3.8c-.1.5-.1 1.2-.1 1.9zm-1.9 0c.2 0 .4-.1.5-.2.1-.1.2-.3.2-.5 0-.1 0-.2-.1-.3 0-.1-.1-.2-.2-.2s-.2-.1-.3-.1c-.1 0-.2 0-.3.1-.1.1-.2.1-.2.2-.1.1-.1.2-.1.4 0 .1 0 .3.1.4 0 .1.1.2.2.2h.2zM24 47.2h.7V50c0 .4.1.7.2.9.1.2.3.4.5.5.2.1.4.2.7.2.2 0 .3 0 .5-.1.2 0 .4-.1.5-.1v-.1-.3-.4c-.1.1-.3.1-.4.1h-.3c-.2 0-.4-.1-.5-.2-.1-.1-.2-.4-.2-.7v-.9-.9-.8h1.5v-.1-.2-.4h-1.5v-.7-.5-.2h-.8v1.4h-.6v.7zm-2.9 4.3H22v-.1-.3-.5-.6-.6c0-.4.1-.8.2-1.1.1-.3.3-.5.5-.7.2-.2.5-.3.9-.3v-.6-.2c-.3 0-.5.1-.7.2-.2.1-.4.2-.6.4-.2.2-.3.4-.4.7v-.5-.4-.1H21.1V51.5zm-2.8-6.4l.9 4.1H17.5c.1-.5.2-.9.3-1.4l.3-1.2c.1-.4.1-.7.2-.9-.1-.2-.1-.4 0-.6zm-2.2 6.2h.9l.3-1.4h2.1l.4 1.7h.9c-.1-.5-.2-1-.4-1.5l-.3-1.5c-.1-.5-.2-.9-.3-1.3l-.3-1.2c-.1-.4-.1-.7-.2-.9-.1-.2-.2-.4-.2-.5v-.2h-1.4c-.2.8-.4 1.6-.5 2.3-.2.7-.3 1.3-.4 1.9-.1.6-.2 1-.3 1.4-.1.4-.2.7-.2.9-.1.2-.1.3-.1.3z"/>
  <path class="st3" d="M147.2 51.7H148.1v-.2-.5-.6-.7-.7-.6-.4c0-.3-.1-.6-.2-.8-.1-.2-.2-.4-.4-.5-.2-.1-.4-.2-.7-.2-.3 0-.5 0-.7.1-.2.1-.4.2-.5.4-.1.2-.3.4-.4.6v-.4-.3-.1H144.4v4.7h.9v-.1-.3-.5-.5-.5-.4c0-.2 0-.4.1-.6.1-.2.1-.4.2-.5.1-.2.2-.3.4-.4.1-.1.3-.1.5-.1s.3 0 .4.1c.1.1.2.2.2.4s.1.3.1.6v3m-5.4-4.7c.2 0 .4.1.5.2.1.1.3.3.3.6.1.3.1.6.1.9-.5 0-.9 0-1.2.1h-.8c0-.2 0-.5.1-.7.1-.2.1-.4.2-.6.1-.2.2-.3.3-.4.2-.1.3-.1.5-.1zm0 4.7c.3 0 .6-.1.9-.2.3-.1.5-.4.6-.6.2-.3.3-.6.4-1H142.8c-.1.4-.2.7-.3.9-.2.2-.4.3-.7.3-.3 0-.6-.1-.8-.4-.2-.3-.3-.7-.3-1.3h3c0-.4 0-.8-.1-1.2-.1-.3-.2-.7-.3-.9-.2-.3-.4-.5-.6-.6-.3-.1-.6-.2-.9-.2-.3 0-.6.1-.9.2-.2.1-.5.3-.6.5-.2.2-.3.5-.4.8-.1.3-.1.7-.1 1 0 .4 0 .8.1 1.1.1.3.2.6.4.9l.6.6c.3 0 .6.1.9.1zm0-5.7l.1-.1.4-.4c.2-.2.4-.4.7-.8 0 0-.1 0-.2-.1s-.3-.2-.5-.3c0 0 0 .1-.1.2s-.2.3-.3.5c-.1.2-.3.5-.6.8l.1.1c.1-.2.2-.1.4.1zm-4.7 5.7c.3 0 .6-.1.9-.2.3-.1.5-.3.7-.6.2-.3.3-.7.4-1.1.1-.5.1-1 .1-1.7h-2.4V48.9h1.6c0 .7-.1 1.3-.3 1.6-.2.4-.5.5-.9.5-.3 0-.6-.1-.8-.3-.2-.2-.4-.6-.5-1-.1-.4-.1-1-.1-1.7 0-.4 0-.8.1-1.1.1-.3.1-.6.2-.9.1-.3.2-.4.4-.6.2-.1.4-.2.6-.2.2 0 .4.1.6.2.2.1.3.4.4.7.1.3.1.6.1 1h.9c0-.6-.1-1-.2-1.4-.1-.4-.4-.7-.7-.9-.3-.2-.7-.3-1.1-.3-.4 0-.7.1-1 .3-.3.2-.5.4-.7.8-.2.3-.3.7-.4 1.1-.1.4-.1.9-.1 1.4 0 .8.1 1.5.3 2.1.2.6.4 1 .8 1.2.2.1.6.3 1.1.3zm-7.2-4.7c.2 0 .4.1.5.2.1.1.3.3.3.6.1.3.1.6.1.9-.5 0-.9 0-1.2.1h-.8c0-.2 0-.5.1-.7.1-.2.1-.4.2-.6.1-.2.2-.3.3-.4.2-.1.3-.1.5-.1zm0 4.7c.3 0 .6-.1.9-.2.3-.1.5-.4.7-.6.2-.3.3-.6.4-1H131c-.1.4-.2.7-.3.9-.2.2-.4.3-.7.3-.3 0-.6-.1-.8-.4-.2-.3-.3-.7-.3-1.3h3c0-.4 0-.8-.1-1.2-.1-.3-.2-.7-.3-.9-.2-.3-.4-.5-.6-.6-.3-.1-.6-.2-.9-.2-.3 0-.6.1-.9.2-.2.1-.5.3-.6.5-.2.2-.3.5-.4.8-.1.3-.1.7-.1 1 0 .4 0 .8.1 1.1.1.3.2.6.4.9l.6.6c.2 0 .5.1.8.1zm-4.8-.7c-.3 0-.6-.2-.8-.5-.2-.3-.3-.8-.3-1.5 0-.3 0-.5.1-.8 0-.2.1-.4.2-.6.1-.2.2-.3.3-.4.1-.1.3-.2.4-.2.4 0 .6.2.8.5.2.4.3.9.3 1.6 0 .4 0 .8-.1 1-.1.3-.2.5-.4.6-.1.2-.2.3-.5.3zm2 .7v-1.9-1.7-1.4-1.1-.7-.2H126.1v2.5c-.1-.2-.2-.3-.3-.4-.1-.1-.3-.2-.4-.3-.2-.1-.4-.1-.6-.1-.3 0-.6.1-.8.2-.2.1-.4.3-.6.6-.1.2-.3.5-.3.9-.1.3-.1.7-.1 1.1 0 .5.1 1 .2 1.4.1.4.3.7.6.9.3.2.6.3 1 .3.2 0 .4 0 .6-.1.2-.1.3-.2.5-.3.1-.1.3-.3.4-.5v.9h.7l.1-.1zM118 51c-.3 0-.6-.2-.8-.5-.2-.3-.3-.8-.3-1.5 0-.3 0-.5.1-.8 0-.2.1-.4.2-.6.1-.2.2-.3.3-.4.1-.1.3-.2.4-.2.4 0 .6.2.8.5.2.4.3.9.3 1.6 0 .4 0 .8-.1 1-.1.3-.2.5-.4.6-.1.2-.3.3-.5.3zm2 .7v-1.9-1.7-1.4-1.1-.7-.2H119v2.5c-.1-.2-.2-.3-.3-.4-.1-.1-.3-.2-.4-.3-.2-.1-.4-.1-.6-.1-.3 0-.6.1-.8.2-.2.1-.4.3-.6.6-.1.2-.3.5-.3.9-.1.3-.1.7-.1 1.1 0 .5.1 1 .2 1.4.1.4.3.7.6.9.3.2.6.3 1 .3.2 0 .4 0 .6-.1.2-.1.3-.2.5-.3.1-.1.3-.3.4-.5v.9h.7c0-.1.1-.1.1-.1zm-5.6-2.2c0 .3 0 .5-.1.7-.1.2-.2.3-.3.5-.1.1-.2.2-.4.2-.1 0-.3.1-.4.1-.3 0-.5-.1-.6-.2-.1-.1-.2-.3-.2-.6 0-.2 0-.3.1-.4.1-.1.2-.3.3-.4l.6-.3c.2-.1.5-.1.9-.1v.4c.1 0 .1 0 .1.1zm-1.4 2.1c.2 0 .4 0 .6-.1.2-.1.4-.2.5-.3.1-.1.3-.3.4-.5V51.6h.8v-.2-.5-.7-.9-1.1c0-.6-.2-1.1-.5-1.4-.3-.3-.7-.5-1.3-.5-.4 0-.7.1-.9.2-.3.1-.5.3-.6.6-.1.3-.2.6-.2.9H112.6c0-.4.1-.6.2-.8.1-.2.4-.3.7-.3.3 0 .5.1.6.3.1.2.2.4.2.8v.4c-.6 0-1.2.1-1.6.2-.4.2-.7.4-.9.6-.2.3-.3.6-.3.9 0 .3.1.5.2.7.1.2.3.4.5.5.3.2.5.3.8.3zm-4.1-.6c-.3 0-.6-.2-.8-.5-.2-.3-.3-.8-.3-1.5 0-.3 0-.5.1-.8.1-.2.1-.4.2-.6.1-.2.2-.3.3-.4.1-.1.3-.2.4-.2.4 0 .6.2.8.5.2.4.3.9.3 1.6 0 .4 0 .8-.1 1-.1.3-.2.5-.4.6-.1.2-.3.3-.5.3zm2 .7v-1.9-1.7-1.4-1.1-.7-.2H109.9v2.5c-.1-.2-.2-.3-.3-.4-.1-.1-.3-.2-.4-.3-.2-.1-.4-.1-.6-.1-.3 0-.6.1-.8.2-.2.1-.4.3-.6.6-.1.2-.3.5-.3.9-.1.3-.1.7-.1 1.1 0 .5.1 1 .2 1.4.1.4.3.7.6.9.3.2.6.3 1 .3.2 0 .4 0 .6-.1.2-.1.3-.2.5-.3.1-.1.3-.3.4-.5v.9h.7c0-.1.1-.1.1-.1zm-5.4-5.9c.1 0 .2 0 .3-.1.1-.1.2-.1.2-.2s.1-.2.1-.3c0-.1 0-.2-.1-.3 0-.1-.1-.2-.2-.2s-.2-.1-.3-.1c-.2 0-.4.1-.5.2-.1.1-.2.3-.2.4 0 .2.1.3.2.4.2.2.3.2.5.2zm-.4 5.7h.9v-2-1.6-1-.4h-.8v4.7c-.1.2-.1.3-.1.3zm-3.9-4.3h.7V50c0 .4.1.7.2.9.1.2.3.4.5.5.2.1.4.2.7.2h.5c.2 0 .4-.1.5-.1v-.1-.3-.4c-.1 0-.3.1-.4.1h-.3c-.2 0-.4-.1-.5-.2-.1-.1-.2-.4-.2-.7V49v-.9-.8h1.5v-.1-.2-.4h-1.5v-.7-.5-.2h-.8v1.4h-.6v.6zm-1.3 4.5H100.8v-.2-.5-.6-.7-.7-.6-.4c0-.3-.1-.6-.2-.8-.1-.2-.2-.4-.4-.5-.2-.1-.4-.2-.7-.2-.3 0-.5 0-.7.1-.2.1-.4.2-.5.4-.1.2-.3.4-.4.6v-.4-.3-.1H97.1v4.7h.9v-.1-.3-.5-.5-.5-.4c0-.2 0-.4.1-.6.1-.2.1-.4.2-.5.1-.2.2-.3.4-.4.1-.1.3-.1.5-.1s.3 0 .4.1c.1.1.2.2.2.4s.1.3.1.6v3zM94.5 47c.2 0 .4.1.5.2.1.1.3.3.3.6.1.3.1.6.1.9-.5 0-.9 0-1.2.1h-.8c0-.2 0-.5.1-.7.1-.2.1-.4.2-.6.1-.2.2-.3.3-.4.1-.1.3-.1.5-.1zm0 4.7c.3 0 .6-.1.9-.2.3-.1.5-.4.7-.6.2-.3.3-.6.4-1H95.6c-.1.4-.2.7-.3.9-.3.1-.5.2-.8.2-.3 0-.6-.1-.8-.4-.2-.3-.3-.7-.3-1.3h3c0-.4 0-.8-.1-1.2-.1-.3-.2-.7-.3-.9-.2-.3-.4-.5-.6-.6-.3-.1-.6-.2-.9-.2-.3 0-.6.1-.9.2-.2.1-.5.3-.6.5-.2.2-.3.5-.4.8-.1.3-.1.7-.1 1 0 .4 0 .8.1 1.1.1.3.2.6.4.9l.6.6c.2.1.5.2.9.2z"/>
  <path class="st3" d="M158.3 51c-.2 0-.4-.1-.6-.2-.2-.2-.3-.4-.4-.7-.1-.3-.1-.7-.1-1.1 0-.3 0-.5.1-.8 0-.2.1-.4.2-.6.1-.2.2-.3.3-.4.1-.1.3-.1.5-.1s.3.1.5.1c.1.1.2.2.3.4.1.2.2.4.2.6 0 .2.1.5.1.8 0 .4 0 .8-.1 1.1-.1.3-.2.5-.4.7-.1.1-.3.2-.6.2m0 .7c.4 0 .8-.1 1.1-.3.3-.2.5-.5.7-.9.2-.4.2-.9.3-1.5 0-.4 0-.7-.1-1.1-.1-.3-.2-.6-.4-.8-.2-.2-.4-.4-.6-.5-.3-.1-.5-.2-.9-.2-.3 0-.6.1-.9.2-.2.1-.5.3-.6.5-.2.2-.3.5-.4.8-.1.3-.1.7-.1 1 0 .6.1 1 .2 1.4.1.4.4.7.7.9.2.3.6.4 1 .5zm-4.8-.2H154.4v-.1-.3-.5-.6-.6c0-.4.1-.8.2-1.1.1-.3.3-.5.5-.7.2-.2.5-.3.9-.3v-.6-.2c-.3 0-.5.1-.7.2-.2.1-.4.2-.6.4-.2.2-.3.4-.4.7v-.5-.4-.1H153.5V51.5zm-2.7-4.5c.2 0 .4.1.5.2.1.1.3.3.3.6.1.3.1.6.1.9-.5 0-.9 0-1.2.1h-.8c0-.2 0-.5.1-.7.1-.2.1-.4.2-.6.1-.2.2-.3.3-.4.2-.1.3-.1.5-.1zm0 4.7c.3 0 .6-.1.9-.2.3-.1.5-.4.7-.6.2-.3.3-.6.4-1H151.9c-.1.4-.2.7-.3.9-.2.2-.4.3-.7.3-.3 0-.6-.1-.8-.4-.2-.3-.3-.7-.3-1.3h3c0-.4 0-.8-.1-1.2-.1-.3-.2-.7-.3-.9-.2-.3-.4-.5-.6-.6-.3-.1-.6-.2-.9-.2-.3 0-.6.1-.9.2-.2.1-.5.3-.6.5-.2.2-.3.5-.4.8-.1.3-.1.7-.1 1 0 .4 0 .8.1 1.1.1.3.2.6.4.9l.6.6c.2 0 .5.1.8.1z"/>
</svg>