<svg xmlns="http://www.w3.org/2000/svg" width="121.6" height="110.2" viewBox="0 0 121.6 110.2">
  <style>
    .st1{fill:#013443}
  </style>
  <path fill-rule="evenodd" clip-rule="evenodd" fill="#5bcbf5" d="M121.1 87.5l.5-79.6L2.1 2.3l1.1 89.6 40.4-2.4 6.1 20.7 14.7-22.1 56.7-.6"/>
  <path class="st1" d="M66.7 17.5c0 .3 0 .5-.1.7-.1.2-.2.3-.3.5-.1.1-.2.2-.4.2-.1 0-.3.1-.4.1-.3 0-.5-.1-.6-.2-.1-.1-.2-.3-.2-.6 0-.2 0-.3.1-.4.1-.1.2-.3.3-.4l.6-.3c.2-.1.5-.1.9-.1v.4c.1 0 .1.1.1.1m-1.4 2.1c.2 0 .4 0 .6-.1s.4-.2.5-.3c.1-.1.3-.3.4-.5V19.6h.8v-.2-.5-.7-.9-1.1c0-.6-.2-1.1-.5-1.4-.3-.3-.7-.5-1.3-.5-.4 0-.7.1-.9.2-.3.1-.5.3-.6.6-.1.3-.2.6-.2.9H64.9c0-.4.1-.6.2-.8.1-.2.4-.3.7-.3.3 0 .5.1.6.3.1.2.2.4.2.8v.4c-.6 0-1.2.1-1.6.2-.4.2-.7.4-.9.6-.2.3-.3.6-.3.9 0 .3.1.5.2.7.1.2.3.4.5.5.3.3.5.3.8.3zm-2.9.1H63.3v-.2-.5-.6-.7-.7-.6-.4c0-.3-.1-.6-.1-.8-.1-.2-.2-.4-.4-.5-.2-.1-.4-.2-.7-.2-.3 0-.5 0-.7.1-.2.1-.4.2-.5.4-.1.2-.3.4-.4.6v-.4-.3-.1H59.7v4.7h.9v-.1-.3-.5-.5-.5-.4c0-.2 0-.4.1-.6.1-.2.1-.4.2-.5.1-.2.2-.3.4-.4.1-.1.3-.1.5-.1s.3 0 .4.1c.1.1.2.2.2.4s.1.3.1.6V20l-.1-.3zm-5.6-.7c-.2 0-.4-.1-.6-.2-.2-.2-.3-.4-.4-.7-.1-.3-.1-.7-.1-1.1 0-.3 0-.5.1-.8 0-.2.1-.4.2-.6.1-.2.2-.3.3-.4.1-.1.3-.1.5-.1s.3.1.5.1c.1.1.2.2.3.4.1.2.2.4.2.6 0 .2.1.5.1.8 0 .4 0 .8-.1 1.1-.1.3-.2.5-.4.7-.1.1-.3.2-.6.2zm0 .7c.4 0 .8-.1 1.1-.3.3-.2.5-.5.7-.9.2-.4.2-.9.3-1.5 0-.4 0-.7-.1-1.1-.1-.3-.2-.6-.4-.8-.2-.2-.4-.4-.6-.5-.3-.1-.5-.2-.9-.2-.3 0-.6.1-.9.2-.2.1-.5.3-.6.5-.2.2-.3.5-.4.8-.1.3-.1.7-.1 1 0 .6.1 1 .2 1.4.1.4.4.7.7.9.2.4.6.5 1 .5zm-4.4 0c.3 0 .5 0 .7-.1.2-.1.4-.2.6-.4.2-.2.3-.4.4-.7s.2-.6.2-1H53.4c0 .3-.1.6-.2.8-.1.2-.2.4-.3.5-.2.2-.4.2-.5.2-.4 0-.6-.2-.8-.5-.2-.3-.3-.8-.3-1.4 0-.4 0-.8.1-1 .1-.3.2-.5.4-.7.2-.2.4-.2.6-.2.2 0 .4.1.5.2.1.1.2.3.3.5.1.2.1.5.1.8H54.2c0-.4-.1-.8-.2-1.1-.1-.3-.4-.6-.6-.7-.3-.2-.6-.3-1-.3-.3 0-.6.1-.9.2-.3.1-.5.3-.6.5-.2.2-.3.5-.4.8-.1.3-.1.7-.1 1.1 0 .4 0 .8.1 1.1.1.3.2.6.4.8.2.2.4.4.6.5.2.1.5.1.9.1zm-3.3-5.8c.1 0 .2 0 .3-.1.1-.1.2-.1.2-.2s.1-.2.1-.3c0-.1 0-.2-.1-.3 0-.1-.1-.2-.2-.2s-.2-.1-.3-.1c-.2 0-.4.1-.5.2-.1.1-.2.3-.2.4 0 .2.1.3.2.4.1.1.3.2.5.2zm-.5 5.6h.9v-2-1.6-1-.4h-.8v4.7c-.1.2-.1.3-.1.3zm-1.1 0v-.1-.4-.8-1.3-1.8-2.4H46.6v6.8H47.5zm-2.4-5.6c.1 0 .2 0 .3-.1.1-.1.2-.1.2-.2s.1-.2.1-.3c0-.1 0-.2-.1-.3 0-.1-.1-.2-.2-.2s-.2-.1-.3-.1c-.2 0-.4.1-.5.2-.1.1-.2.3-.2.4 0 .2.1.3.2.4.2.1.3.2.5.2zm-.4 5.6h.9v-2-1.6-1-.4h-.8v4.7c-.1.2-.1.3-.1.3zm-2.5.2c.2 0 .5 0 .7-.1.2-.1.4-.1.5-.3.2-.1.3-.3.4-.4.1-.2.1-.4.1-.6 0-.2 0-.3-.1-.5 0-.1-.1-.3-.2-.4-.1-.1-.3-.2-.5-.4-.2-.1-.4-.2-.7-.3-.3-.1-.5-.2-.7-.3-.2-.1-.3-.2-.4-.3-.1-.1-.1-.3-.1-.4 0-.1 0-.2.1-.4.1-.1.2-.2.3-.2.1-.1.3-.1.5-.1.3 0 .5.1.7.3.1.2.2.5.2.9h.8c0-.4-.1-.7-.2-1-.1-.3-.3-.5-.6-.7-.3-.2-.6-.2-1-.2s-.7.1-.9.2c-.3.1-.4.3-.6.5-.1.2-.2.4-.2.7 0 .2 0 .4.1.5.1.2.1.3.3.4.1.1.3.3.5.4.2.1.5.2.8.3.3.1.5.2.6.3.2.1.3.2.3.3.1.1.1.2.1.4s0 .3-.1.4c-.1.1-.2.2-.3.2-.1.1-.2.1-.4.1s-.4 0-.5-.1c-.1-.1-.3-.2-.3-.4-.1-.2-.1-.4-.1-.7h-.8c0 .4.1.8.2 1.1.1.3.4.5.6.6.2.1.5.2.9.2zM35.9 15c.2 0 .4.1.5.2.1.1.3.3.3.6.1.3.1.6.1.9-.5 0-.9 0-1.2.1h-.8c0-.2 0-.5.1-.7.1-.2.1-.4.2-.6.1-.2.2-.3.3-.4.2 0 .3-.1.5-.1zm0 4.7c.3 0 .6-.1.9-.2.3-.1.5-.4.6-.6.2-.3.3-.6.4-1H36.9c-.1.4-.2.7-.3.9-.2.2-.4.3-.7.3-.3 0-.6-.1-.8-.4-.2-.3-.3-.7-.3-1.3h3c0-.4 0-.8-.1-1.2-.1-.4-.2-.7-.3-.9-.2-.3-.4-.5-.6-.6-.3-.1-.6-.2-.9-.2-.3 0-.6.1-.9.2-.2.1-.5.3-.6.5-.2.2-.3.5-.4.8-.1.3-.1.7-.1 1 0 .4 0 .8.1 1.1.1.3.2.6.4.9l.6.6c.3.1.6.1.9.1zm-4.8-.7c-.3 0-.6-.2-.8-.5-.2-.3-.3-.8-.3-1.5 0-.3 0-.5.1-.8.1-.2.1-.4.2-.6.1-.2.2-.3.3-.4.1-.1.3-.2.4-.2.4 0 .6.2.8.5.2.4.3.9.3 1.6 0 .4 0 .8-.1 1-.1.3-.2.5-.4.6-.1.3-.3.3-.5.3zm2 .7v-1.9-1.7-1.4-1.1-.7-.2H32.1v2.5c-.1-.2-.2-.3-.3-.4-.1-.1-.3-.2-.4-.3-.2-.1-.4-.1-.6-.1-.3 0-.6.1-.8.2-.2.1-.4.3-.6.6-.1.2-.3.5-.3.9-.1.3-.1.7-.1 1.1 0 .5.1 1 .2 1.4.1.4.3.7.6.9.3.2.6.3 1 .3.2 0 .4 0 .6-.1.2-.1.3-.2.5-.3.1-.1.3-.3.4-.5v.9h.7l.1-.1zm-8.7-.7c-.2 0-.4-.1-.6-.2-.2-.2-.3-.4-.4-.7-.1-.3-.1-.7-.1-1.1 0-.3 0-.5.1-.8 0-.2.1-.4.2-.6.1-.2.2-.3.3-.4.1-.1.3-.1.5-.1s.3.1.5.1c.1.1.2.2.3.4.1.2.2.4.2.6 0 .2.1.5.1.8 0 .4 0 .8-.1 1.1-.1.3-.2.5-.4.7-.1.1-.3.2-.6.2zm0 .7c.4 0 .8-.1 1.1-.3.3-.2.5-.5.7-.9.2-.4.2-.9.3-1.5 0-.4 0-.7-.1-1.1-.1-.3-.2-.6-.4-.8-.2-.2-.4-.4-.6-.5-.3-.1-.5-.2-.9-.2-.3 0-.6.1-.9.2-.2.1-.5.3-.6.5-.2.2-.3.5-.4.8-.1.3-.1.7-.1 1 0 .6.1 1 .2 1.4.1.4.4.7.7.9.2.4.6.5 1 .5zm-4.2 0c.2 0 .5 0 .7-.1.2-.1.4-.1.5-.3.2-.1.3-.3.4-.4.1-.2.1-.4.1-.6 0-.2 0-.3-.1-.5 0-.1-.1-.3-.2-.4-.1-.1-.3-.2-.5-.4-.2-.1-.4-.2-.7-.3-.3-.1-.5-.2-.7-.3-.2-.1-.3-.2-.4-.3-.1-.1-.1-.3-.1-.4 0-.1 0-.2.1-.4.1-.1.2-.2.3-.2.1-.1.3-.1.5-.1.3 0 .5.1.7.3.1.2.2.5.2.9h.8c0-.4-.1-.7-.2-1-.1-.3-.3-.5-.6-.7-.3-.2-.6-.2-1-.2s-.7.1-.9.2c-.3.1-.4.3-.6.5-.1.2-.2.4-.2.7 0 .2 0 .4.1.5.1.2.1.3.3.4.1.1.3.3.5.4.2.1.5.2.8.3.3.1.5.2.6.3.2.1.3.2.3.3.1.1.1.2.1.4s0 .3-.1.4c-.1.1-.2.2-.3.2-.1.1-.2.1-.4.1s-.4 0-.5-.1c-.1-.1-.3-.2-.3-.4-.1-.2-.1-.4-.1-.7h-.8c0 .4.1.8.2 1.1.1.3.4.5.6.6.2.1.5.2.9.2zm-4.7-.1c.2 0 .4 0 .5-.1.2-.1.3-.2.5-.3.1-.1.3-.3.4-.5v1H17.7V18v-1.5-1.1-.7-.3H16.8v2.8c0 .3 0 .5-.1.7-.1.2-.1.4-.2.5-.1.1-.2.3-.3.3-.1.1-.2.1-.4.1s-.3 0-.4-.1c-.1-.1-.2-.2-.3-.4-.1-.1-.1-.3-.2-.6 0-.3-.1-.6-.1-1.1V16v-.7c0-.2 0-.4.1-.7h-.8c0 .4-.1.7-.1 1.1v1.1c0 .5 0 1 .1 1.3.1.4.2.6.3.9.1.2.3.4.5.5.2 0 .4.1.6.1zm-4.4-.1v-.1-.4-.8-1.3-1.8-2.4H10.2v6.8H11.1zm-4.9 0h3.3v-.6-.2H7v-1.1-1h2.2V16v-.2H7.1v-1.3-.9-.3h2.5v-.6-.2H6.3v6.6c-.1.3-.1.4-.1.4z"/>
  <path class="st1" d="M19.9 25.9c.1 0 .2 0 .3-.1.1-.1.2-.1.2-.2s.1-.2.1-.3c0-.1 0-.2-.1-.3 0-.1-.1-.2-.2-.2-.1-.1-.2-.1-.3-.1-.2 0-.4.1-.5.2-.1.1-.2.3-.2.4 0 .2.1.3.2.4.2.1.3.2.5.2m-.4 5.6h.9v-2-1.6-1-.4h-.8v4.7c-.1.2-.1.3-.1.3zM16.7 27c.2 0 .4.1.5.2.1.1.3.3.3.6.1.3.1.6.1.9-.5 0-.9 0-1.2.1h-.8c0-.2 0-.5.1-.7.1-.2.1-.4.2-.6.1-.2.2-.3.3-.4.2 0 .3-.1.5-.1zm0 4.7c.3 0 .6-.1.9-.2.3-.1.5-.4.6-.6.2-.3.3-.6.4-1H17.7c-.1.4-.2.7-.3.9-.2.2-.4.3-.7.3-.3 0-.6-.1-.8-.4-.2-.3-.3-.7-.3-1.3h3c0-.4 0-.8-.1-1.2-.1-.4-.2-.7-.3-.9-.2-.3-.4-.5-.6-.6-.3-.1-.6-.2-.9-.2-.3 0-.6.1-.9.2-.2.1-.5.3-.6.5-.2.2-.3.5-.4.8-.1.3-.1.7-.1 1 0 .4 0 .8.1 1.1.1.3.2.6.4.9l.6.6c.2.1.5.1.9.1zm-4.5 0c.3 0 .5 0 .7-.1.2-.1.4-.2.6-.4.2-.2.3-.4.4-.7.1-.3.2-.6.2-1H13.2c0 .3-.1.6-.2.8-.1.2-.2.4-.3.5-.2.2-.3.2-.5.2-.4 0-.6-.2-.8-.5-.2-.3-.3-.8-.3-1.4 0-.4 0-.8.1-1 .1-.3.2-.5.4-.7.2-.2.4-.2.6-.2.2 0 .4.1.5.2.1.1.2.3.3.5.1.2.1.5.1.8H14c0-.4-.1-.8-.2-1.1-.1-.3-.4-.6-.6-.7-.3-.2-.6-.3-1-.3-.3 0-.6.1-.9.2-.3.1-.5.3-.6.6-.2.2-.3.5-.4.8-.1.3-.1.7-.1 1.1 0 .4 0 .8.1 1.1.1.3.2.6.4.8.2.2.4.4.6.5h.9zm-3.6-2.2c0 .3 0 .5-.1.7-.1.2-.2.3-.3.5-.1.1-.2.2-.4.2 0 .1-.1.1-.3.1-.3 0-.5-.1-.6-.2-.1-.1-.2-.3-.2-.6 0-.2 0-.3.1-.4.1-.1.2-.3.3-.4.2-.1.3-.2.6-.3.3 0 .6-.1.9-.1v.5zm-1.3 2.1c.2 0 .4 0 .6-.1s.4-.2.5-.3c.1-.1.3-.3.4-.5V31.6h.8v-.2-.5-.7-.9-1.1c0-.6-.2-1.1-.5-1.4-.3-.3-.7-.5-1.3-.5-.4 0-.7.1-.9.2-.3.1-.5.3-.6.6-.2.4-.3.7-.3 1.1H6.8c0-.4.1-.6.2-.8.1-.2.4-.3.7-.3.3 0 .5.1.6.3.1.2.2.4.2.8v.4c-.6 0-1.2.1-1.6.2-.4.2-.7.4-.9.6-.2.3-.3.6-.3.9 0 .3.1.5.2.7.1.2.3.4.5.5.3.1.6.1.9.1zM106.6 19c-.2 0-.4-.1-.6-.2-.2-.2-.3-.4-.4-.7-.1-.3-.1-.7-.1-1.1 0-.3 0-.5.1-.8 0-.2.1-.4.2-.6.1-.2.2-.3.3-.4.1-.1.3-.1.5-.1s.3.1.5.1c.1.1.2.2.3.4.1.2.2.4.2.6 0 .2.1.5.1.8 0 .4 0 .8-.1 1.1-.1.3-.2.5-.4.7-.2.1-.4.2-.6.2zm0 .7c.4 0 .8-.1 1.1-.3.3-.2.5-.5.7-.9.2-.4.2-.9.3-1.5 0-.4 0-.7-.1-1.1-.1-.3-.2-.6-.4-.8-.2-.2-.4-.4-.6-.5-.3-.1-.5-.2-.9-.2-.3 0-.6.1-.9.2-.2.1-.5.3-.6.5-.2.2-.3.5-.4.8-.1.3-.1.7-.1 1 0 .6.1 1 .2 1.4.1.4.4.7.7.9.2.4.5.5 1 .5zm-6.3 0c.2 0 .5 0 .7-.1.2-.1.4-.1.5-.3.2-.1.3-.3.4-.4.1-.2.1-.4.1-.6 0-.2 0-.3-.1-.5 0-.1-.1-.3-.2-.4-.1-.1-.3-.2-.5-.4-.2-.1-.4-.2-.7-.3-.3-.1-.5-.2-.7-.3-.2-.1-.3-.2-.4-.3-.1-.1-.1-.3-.1-.4 0-.1 0-.2.1-.4.1-.1.2-.2.3-.2.1-.1.3-.1.5-.1.3 0 .5.1.7.3.1.2.2.5.2.9h.8c0-.4-.1-.7-.2-1-.1-.3-.3-.5-.6-.7-.3-.2-.6-.2-1-.2s-.7.1-.9.2c-.3.1-.4.3-.6.5-.1.2-.2.4-.2.7 0 .2 0 .4.1.5.1.2.1.3.3.4.1.1.3.3.5.4.2.1.5.2.8.3.3.1.5.2.6.3.2.1.3.2.3.3.1.1.1.2.1.4s0 .3-.1.4c-.1.1-.2.2-.3.2-.1 0-.3.1-.4.1-.2 0-.4 0-.5-.1-.1-.1-.3-.2-.3-.4-.1-.2-.1-.4-.1-.7h-.8c0 .4.1.8.2 1.1.1.3.4.5.6.6.2.1.5.2.9.2zM97 17.5c0 .3 0 .5-.1.7-.1.2-.2.3-.3.5-.1.1-.2.2-.4.2-.1.1-.2.1-.3.1-.3 0-.5-.1-.6-.2-.1-.1-.2-.3-.2-.6 0-.2 0-.3.1-.4.1-.1.2-.3.3-.4.2-.1.3-.2.6-.3.2-.1.5-.1.9-.1v.5zm-1.4 2.1c.2 0 .4 0 .6-.1.2-.1.4-.2.5-.3.1-.1.3-.3.4-.5V19.6h.8v-.2-.5-.7-.9-1.1c0-.6-.2-1.1-.5-1.4-.3-.3-.7-.5-1.3-.5-.4 0-.7.1-.9.2-.3.1-.5.3-.6.6-.1.3-.2.6-.2.9H95.2c0-.4.1-.6.2-.8.1-.2.4-.3.7-.3.3 0 .5.1.6.3.1.2.2.4.2.8v.4c-.6 0-1.2.1-1.6.2-.4.2-.7.4-.9.6-.2.3-.3.6-.3.9 0 .3.1.5.2.7.1.2.3.4.5.5.3.3.5.3.8.3zm-4.1-.6c-.3 0-.6-.2-.8-.5-.2-.3-.3-.8-.3-1.5 0-.3 0-.5.1-.8.1-.2.1-.4.2-.6.1-.2.2-.3.3-.4.1-.1.3-.2.4-.2.4 0 .6.2.8.5.2.4.3.9.3 1.6 0 .4 0 .8-.1 1-.1.3-.2.5-.4.6-.1.3-.3.3-.5.3zm2 .7v-1.9-1.7-1.4-1.1-.7-.2H92.5v2.5c-.1-.2-.2-.3-.3-.4-.1-.1-.3-.2-.4-.3-.2-.1-.4-.1-.6-.1-.3 0-.6.1-.8.2-.2.1-.4.3-.6.6-.1.2-.3.5-.3.9-.1.3-.1.7-.1 1.1 0 .5.1 1 .2 1.4.1.4.3.7.6.9.3.2.6.3 1 .3.2 0 .4 0 .6-.1.2-.1.3-.2.5-.3.1-.1.3-.3.4-.5v.9h.7c0-.1.1-.1.1-.1zm-5.3-5.8c.1 0 .2 0 .3-.1.1-.1.2-.1.2-.2s.1-.2.1-.3c0-.1 0-.2-.1-.3 0-.1-.1-.2-.2-.2s-.2-.1-.3-.1c-.2 0-.4.1-.5.2-.1.1-.2.3-.2.4 0 .2.1.3.2.4.1.1.3.2.5.2zm-.5 5.6h.9v-2-1.6-1-.4h-.8v4.7c-.1.2-.1.3-.1.3zm-3.1.1c.2 0 .4 0 .5-.1.2-.1.3-.2.5-.3.1-.1.3-.3.4-.5v1H86.8V18v-1.5-1.1-.7-.3H85.9v2.8c0 .3 0 .5-.1.7-.1.2-.1.4-.2.5-.1.1-.2.3-.3.3-.1.1-.2.1-.4.1s-.3 0-.4-.1c-.1-.1-.2-.2-.3-.4-.1-.1-.2-.3-.2-.6s-.1-.6-.1-1.1V16v-.7c0-.2 0-.4.1-.7h-.8c0 .4-.1.7-.1 1.1v1.1c0 .5 0 1 .1 1.3.1.4.2.6.3.9.1.2.3.4.5.5.1 0 .3.1.6.1zm-4.4-.5c-.2 0-.3-.1-.5-.2-.1-.1-.2-.2-.3-.4-.1-.2-.2-.4-.2-.6 0-.2-.1-.5-.1-.8 0-.3 0-.5.1-.8 0-.2.1-.5.2-.6.1-.2.2-.3.3-.4.1-.1.3-.2.5-.2s.3.1.5.2c.1.1.3.2.3.4.1.2.2.4.2.6 0 .2.1.5.1.8 0 .4 0 .8-.1 1.1-.1.3-.2.5-.4.7-.2.1-.4.2-.6.2zm1 2.6H82.1v-.3-.9V19v-2-2.5H82h-.7v.9c-.1-.3-.3-.5-.6-.7-.2-.2-.5-.2-.9-.2-.3 0-.5.1-.8.2-.2.1-.4.3-.6.6-.2.2-.3.5-.4.9-.1.3-.1.7-.1 1.1 0 .5.1 1 .2 1.4.1.4.3.7.6.9.3.2.6.3 1 .3.3 0 .6-.1.8-.2.2-.1.4-.3.5-.6v1.1c.3.3.3.8.2 1.5zm-4.8-2.2h.9v-2-1.6-1-.4h-.8v4.7c-.1.2-.1.3-.1.3zm.5-5.5l.1-.1.4-.4c.2-.2.4-.4.7-.8 0 0-.1 0-.2-.1s-.3-.2-.5-.3c0 0 0 .1-.1.2s-.2.3-.3.5c-.1.2-.3.5-.6.8l.1.1c.1-.1.2 0 .4.1zm-1.6 5.5v-.1-.4-.8-1.3-1.8-2.4H74.4v6.8H75.3zm-5.3.2c.2 0 .5 0 .7-.1.2-.1.4-.1.5-.3.2-.1.3-.3.4-.4.1-.2.1-.4.1-.6 0-.2 0-.3-.1-.5 0-.1-.1-.3-.2-.4-.1-.1-.3-.2-.5-.4-.2-.1-.4-.2-.7-.3-.3-.1-.5-.2-.7-.3-.2-.1-.3-.2-.4-.3-.1-.1-.1-.3-.1-.4 0-.1 0-.2.1-.4.1-.1.2-.2.3-.2.1-.1.3-.1.5-.1.3 0 .5.1.7.3.1.2.2.5.2.9h.8c0-.4-.1-.7-.2-1-.1-.3-.3-.5-.6-.7-.3-.2-.6-.2-1-.2s-.7.1-.9.2c-.3.1-.4.3-.6.5-.1.2-.2.4-.2.7 0 .2 0 .4.1.5.1.2.1.3.3.4.1.1.3.3.5.4.2.1.5.2.8.3.3.1.5.2.6.3.2.1.3.2.3.3.1.1.1.2.1.4s0 .3-.1.4c-.1.1-.2.2-.3.2-.1.1-.2.1-.4.1s-.4 0-.5-.1c-.1-.1-.3-.2-.3-.4-.1-.2-.1-.4-.1-.7h-.8c0 .4.1.8.2 1.1.1.3.4.5.6.6.2.1.5.2.9.2z"/>
  <path class="st1" d="M77.2 31.5H78.1v-.1-.3-.5-.6-.6c0-.4.1-.8.2-1.1.1-.3.3-.5.5-.7.2-.2.5-.3.9-.3v-.6-.2c-.3 0-.5.1-.7.2-.2.1-.4.2-.6.4-.2.2-.3.4-.4.7v-.5-.4-.1H77.2V31.5M74.5 27c.2 0 .4.1.5.2.1.1.3.3.3.6.1.3.1.6.1.9-.5 0-.9 0-1.2.1h-.8c0-.2 0-.5.1-.7.1-.2.1-.4.2-.6.1-.2.2-.3.3-.4.2 0 .4-.1.5-.1zm0 4.7c.3 0 .6-.1.9-.2.3-.1.5-.4.6-.6.2-.3.3-.6.4-1H75.5c-.1.4-.2.7-.3.9-.2.2-.4.3-.7.3-.3 0-.6-.1-.8-.4-.2-.3-.3-.7-.3-1.3h3c0-.4 0-.8-.1-1.2-.1-.4-.2-.7-.3-.9-.2-.3-.4-.5-.6-.6-.3-.1-.6-.2-.9-.2-.3 0-.6.1-.9.2-.2.1-.5.3-.6.5-.2.2-.3.5-.4.8-.1.3-.1.7-.1 1 0 .4 0 .8.1 1.1.1.3.2.6.4.9l.6.6c.3.1.6.1.9.1zm-3.6 0s.1 0 0 0H71.8v-.2-.5-.6-.7-.7-.6-.4c0-.3-.1-.6-.2-.8-.1-.2-.2-.4-.4-.5-.2-.1-.4-.2-.7-.2-.2 0-.5 0-.7.1-.2.1-.4.2-.5.4-.1.2-.3.4-.4.6v-.4-.3-.1H68.1v4.7h.9v-.1-.3-.5-.5-.5-.4c0-.2 0-.4.1-.6.1-.2.1-.4.2-.5.1-.2.2-.3.4-.4.1-.1.3-.1.5-.1s.3 0 .4.1c.1.1.2.2.2.4s.1.3.1.6v3zM65.5 27c.2 0 .4.1.5.2.1.1.3.3.3.6.1.3.1.6.1.9-.5 0-.9 0-1.2.1h-.8c0-.2 0-.5.1-.7.1-.2.1-.4.2-.6.1-.2.2-.3.3-.4.2 0 .3-.1.5-.1zm0 4.7c.3 0 .6-.1.9-.2.3-.1.5-.4.7-.6.2-.3.3-.6.4-1H66.6c-.1.4-.2.7-.3.9-.2.2-.4.3-.7.3-.3 0-.6-.1-.8-.4-.2-.3-.3-.7-.3-1.3h3c0-.4 0-.8-.1-1.2-.1-.4-.2-.7-.3-.9-.2-.3-.4-.5-.6-.6-.3-.1-.6-.2-.9-.2-.3 0-.6.1-.9.2-.2.1-.5.3-.6.5-.2.2-.3.5-.4.8-.1.3-.1.7-.1 1 0 .4 0 .8.1 1.1.1.3.2.6.4.9l.6.6c.2.1.5.1.8.1zM60 27.3h.7v2.8c0 .4.1.7.2.9.1.2.3.4.5.5.2.1.4.2.7.2h.5c.2 0 .4-.1.5-.1v-.1-.3-.4c-.1 0-.3.1-.4.1h-.3c-.2 0-.4-.1-.5-.2-.1-.1-.2-.4-.2-.7v-.9-.9-.8h1.5v-.1-.2-.4h-1.5V26v-.5-.2h-.8v1.4h-.6v.6zm-4.3-.3c.2 0 .4.1.5.2.1.1.3.3.3.6.1.3.1.6.1.9-.5 0-.9 0-1.2.1h-.8c0-.2 0-.5.1-.7.1-.2.1-.4.2-.6.1-.2.2-.3.3-.4.2 0 .3-.1.5-.1zm0 4.7c.3 0 .6-.1.9-.2.3-.1.5-.4.7-.6.2-.3.3-.6.4-1H56.8c-.1.4-.2.7-.3.9-.2.2-.4.3-.7.3-.3 0-.6-.1-.8-.4-.2-.3-.3-.7-.3-1.3h3c0-.4 0-.8-.1-1.2-.1-.4-.2-.7-.3-.9-.2-.3-.4-.5-.6-.6-.3-.1-.6-.2-.9-.2-.3 0-.6.1-.9.2-.2.1-.5.3-.6.5-.2.2-.3.5-.4.8-.1.3-.1.7-.1 1 0 .4 0 .8.1 1.1.1.3.2.6.4.9l.6.6c.2.1.5.1.8.1zm-4.8-.7c-.3 0-.6-.2-.8-.5-.2-.3-.3-.8-.3-1.5 0-.3 0-.5.1-.8 0-.2.1-.4.2-.6.1-.2.2-.3.3-.4.1-.1.3-.2.4-.2.4 0 .6.2.8.5.2.4.3.9.3 1.6 0 .4 0 .8-.1 1-.1.3-.2.5-.4.6-.1.3-.3.3-.5.3zm2 .7v-1.9-1.7-1.4-1.1-.7-.2H51.9v2.5c-.1-.2-.2-.3-.3-.4-.1-.1-.3-.2-.4-.3-.2-.1-.4-.1-.6-.1-.3 0-.6.1-.8.2-.2.1-.4.3-.6.6-.1.2-.3.5-.3.9-.1.3-.1.7-.1 1.1 0 .5.1 1 .2 1.4.1.4.3.7.6.9.3.2.6.3 1 .3.2 0 .4 0 .6-.1.2-.1.3-.2.5-.3.1-.1.3-.3.4-.5v.9h.7l.1-.1zM46.3 27c.2 0 .4.1.5.2.1.1.3.3.3.6.1.3.1.6.1.9-.5 0-.9 0-1.2.1h-.8c0-.2 0-.5.1-.7.1-.2.1-.4.2-.6.1-.2.2-.3.3-.4.2 0 .4-.1.5-.1zm.1 4.7c.3 0 .6-.1.9-.2.3-.1.5-.4.6-.6.2-.3.3-.6.4-1H47.4c-.1.4-.2.7-.3.9-.2.2-.4.3-.7.3-.3 0-.6-.1-.8-.4-.2-.3-.3-.7-.3-1.3h3c0-.4 0-.8-.1-1.2-.1-.4-.2-.7-.3-.9-.2-.3-.4-.5-.6-.6-.3-.1-.6-.2-.9-.2-.3 0-.6.1-.9.2-.2.1-.5.3-.6.5-.2.2-.3.5-.4.8-.1.3-.1.7-.1 1 0 .4 0 .8.1 1.1.1.3.2.6.4.9l.6.6c.2.1.5.1.9.1zm-5-.1c.2 0 .4 0 .5-.1.2-.1.3-.2.5-.3.1-.1.3-.3.4-.5v1H43.6V30v-1.5-1.1-.7-.3H42.7v2.8c0 .3 0 .5-.1.7-.1.2-.1.4-.2.5-.1.1-.2.3-.3.3-.1.1-.2.1-.4.1s-.3 0-.4-.1c-.1-.1-.2-.2-.3-.4s-.1-.4-.2-.7c0-.3-.1-.6-.1-1.1v-.6-.7c0-.2 0-.4.1-.7H40c0 .4-.1.7-.1 1.1v1.1c0 .5 0 1 .1 1.3.1.4.2.6.3.9.1.2.3.4.5.5.2.1.4.2.6.2zm-4.2-.5c-.3 0-.5-.1-.6-.2-.2-.2-.3-.4-.4-.7-.1-.3-.1-.6-.1-1s0-.8.1-1.1c.1-.3.2-.6.4-.7.2-.2.4-.3.6-.3.2 0 .4.1.6.3.2.2.3.4.4.7.1.3.1.7.1 1.1 0 .4 0 .8-.1 1.1-.1.3-.2.5-.4.7-.2 0-.4.1-.6.1zm-2 2.6H36.1V33c0-.4 0-1.1-.1-2 .1.2.2.3.3.4.1.1.3.2.5.2.2.1.3.1.5.1.4 0 .7-.1 1-.3.3-.2.5-.5.6-.9s.2-.9.2-1.5c0-.4 0-.8-.1-1.1-.1-.3-.2-.6-.4-.8s-.3-.4-.6-.5c-.2-.1-.5-.2-.7-.2-.2 0-.4 0-.6.1-.2.1-.3.2-.5.3-.1.1-.3.3-.4.5v-.2-.2-.3H35v5.5c.2.6.2 1.1.2 1.6zm-4.4-2c.2 0 .5 0 .7-.1.2-.1.4-.1.5-.3.2-.1.3-.3.4-.4.1-.2.1-.4.1-.6 0-.2 0-.3-.1-.5 0-.1-.1-.3-.2-.4-.1-.1-.3-.2-.5-.4-.2-.1-.4-.2-.7-.3-.3-.1-.5-.2-.7-.3-.2-.1-.3-.2-.4-.3-.1-.1-.1-.3-.1-.4 0-.1 0-.2.1-.4.1-.1.2-.2.3-.2.1-.1.3-.1.5-.1.3 0 .5.1.7.3.1.2.2.5.2.9h.8c0-.4-.1-.7-.2-1-.1-.3-.3-.5-.6-.7-.3-.2-.6-.2-1-.2s-.7.1-.9.2c-.3.1-.4.3-.6.5-.1.2-.2.4-.2.7 0 .2 0 .4.1.5.1.2.1.3.3.4.1.1.3.3.5.4.2.1.5.2.8.3.3.1.5.2.6.3.2.1.3.2.3.3.1.1.1.2.1.4s0 .3-.1.4c-.1.1-.2.2-.3.2-.1.1-.2.1-.4.1s-.4 0-.5-.1c-.1-.1-.3-.2-.3-.4-.1-.2-.1-.4-.1-.7h-.8c0 .4.1.8.2 1.1.1.3.4.5.6.6.2.1.5.2.9.2zM26.5 27c.2 0 .4.1.5.2.1.1.3.3.3.6.1.3.1.6.1.9-.5 0-.9 0-1.2.1h-.8c0-.2 0-.5.1-.7.1-.2.1-.4.2-.6.1-.2.2-.3.3-.4.2 0 .3-.1.5-.1zm0 4.7c.3 0 .6-.1.9-.2.3-.1.5-.4.7-.6.2-.3.3-.6.4-1H27.6c-.1.4-.2.7-.3.9-.2.2-.4.3-.7.3-.3 0-.6-.1-.8-.4-.2-.3-.3-.7-.3-1.3h3c0-.4 0-.8-.1-1.2-.1-.4-.2-.7-.3-.9-.2-.3-.4-.5-.6-.6-.3-.1-.6-.2-.9-.2-.3 0-.6.1-.9.2-.2.1-.5.3-.6.5-.2.2-.3.5-.4.8-.1.3-.1.7-.1 1 0 .4 0 .8.1 1.1.1.3.2.6.4.9l.6.6c.1.1.4.1.8.1zM21 27.3h.7v2.8c0 .4.1.7.2.9.1.2.3.4.5.5.2.1.4.2.7.2h.5c.2 0 .4-.1.5-.1v-.1-.3-.4c-.1 0-.3.1-.4.1h-.3c-.2 0-.4-.1-.5-.2-.1-.1-.2-.4-.2-.7v-.9-.9-.8h1.5v-.1-.2-.4h-1.5V26v-.5-.2h-.8v1.4h-.6v.6z"/>
  <path class="st1" d="M58.5 43.7c.2 0 .5 0 .7-.1.2-.1.4-.1.5-.3.2-.1.3-.3.4-.4.1-.2.1-.4.1-.6 0-.2 0-.3-.1-.5 0-.1-.1-.3-.2-.4-.1-.1-.3-.2-.5-.4-.2-.1-.4-.2-.7-.3-.3-.1-.5-.2-.7-.3-.2-.1-.3-.2-.4-.3-.1-.1-.1-.3-.1-.4 0-.1 0-.2.1-.4.1-.1.2-.2.3-.2s.3-.1.5-.1c.3 0 .5.1.7.3.1.2.2.5.2.9h.8c0-.4-.1-.7-.2-1-.1-.3-.3-.5-.6-.7s-.6-.2-1-.2-.7.1-.9.2c-.3.1-.4.3-.6.5-.1.2-.2.4-.2.7 0 .2 0 .4.1.5.1.2.1.3.3.4.1.1.3.3.5.4.2.1.5.2.8.3.3.1.5.2.6.3.2.1.3.2.3.3.1.1.1.2.1.4s0 .3-.1.4c-.1.1-.2.2-.3.2-.1 0-.3.1-.4.1-.2 0-.4 0-.5-.1-.1-.1-.3-.2-.3-.4-.1-.2-.1-.4-.1-.7h-.8c0 .4.1.8.2 1.1.1.3.4.5.6.6.2.1.5.2.9.2m-3.3-2.2c0 .3 0 .5-.1.7-.1.2-.2.3-.3.5-.1.1-.2.2-.4.2-.1.1-.2.1-.4.1-.3 0-.5-.1-.6-.2-.1-.1-.2-.3-.2-.6 0-.2 0-.3.1-.4.1-.1.2-.3.3-.4l.6-.3c.2-.1.5-.1.9-.1v.4c.1 0 .1.1.1.1zm-1.4 2.1c.2 0 .4 0 .6-.1s.4-.2.5-.3c.1-.1.3-.3.4-.5V43.6h.8v-.2-.5-.7-.9-1.1c0-.6-.2-1.1-.5-1.4-.3-.3-.7-.5-1.3-.5-.4 0-.7.1-.9.2-.3.1-.5.3-.6.6-.1.3-.2.6-.2.9H53.4c0-.4.1-.6.2-.8.1-.2.4-.3.7-.3.3 0 .5.1.6.3.1.2.2.4.2.8v.4c-.6 0-1.2.1-1.6.2-.4.2-.7.4-.9.6-.2.3-.3.6-.3.9 0 .3.1.5.2.7.1.2.3.4.5.5.2.3.5.3.8.3zm-2.7-5.7c.1 0 .2 0 .3-.1.1-.1.2-.1.2-.2s.1-.2.1-.3c0-.1 0-.2-.1-.3 0-.1-.1-.2-.2-.2s-.2-.1-.3-.1c-.2 0-.4.1-.5.2-.1.1-.2.3-.2.4 0 .2.1.3.2.4.2.1.3.2.5.2zm-.4 5.6h.9v-2-1.6-1-.4h-.8v4.7c-.1.2-.1.3-.1.3zm-2.7.2c.3 0 .5 0 .7-.1.2-.1.4-.2.6-.4.2-.2.3-.4.4-.7.1-.3.2-.6.2-1H49c0 .3-.1.6-.2.8-.1.2-.2.4-.3.5-.2.2-.3.2-.5.2-.4 0-.6-.2-.8-.5-.2-.3-.3-.8-.3-1.4 0-.4 0-.8.1-1 .1-.3.2-.5.4-.7.2-.2.4-.2.6-.2.2 0 .4.1.5.2.1.1.2.3.3.5.1.2.1.5.1.8H49.8c0-.4-.1-.8-.2-1.1-.1-.3-.4-.6-.6-.7-.3-.2-.6-.3-1-.3-.3 0-.6.1-.9.2-.3.1-.5.3-.6.6-.2.2-.3.5-.4.8 0 .1-.1.4-.1.8s0 .8.1 1.1c.1.3.2.6.4.8.2.2.4.4.6.5.3.3.6.3.9.3zm-3.6 0H45.3v-.2-.5-.6-.7-.7-.6-.4c0-.3-.1-.6-.2-.8-.1-.2-.2-.4-.4-.5-.2-.1-.4-.2-.7-.2-.2 0-.5 0-.7.1-.2.1-.4.2-.5.4-.2.2-.3.4-.4.6v-.4-.3-.1H41.6v4.7h.9v-.1-.3-.5-.5-.5-.4c0-.2 0-.4.1-.6.1-.2.1-.4.2-.5.1-.2.2-.3.4-.4.1-.1.3-.1.5-.1s.3 0 .4.1c.1.1.2.2.2.4s.1.3.1.6v3zM39 39c.2 0 .4.1.5.2.1.1.3.3.3.6.1.3.1.5.1.9-.5 0-.9 0-1.2.1h-.8c0-.2 0-.5.1-.7.1-.2.1-.4.2-.6.1-.2.2-.3.3-.4.2 0 .3-.1.5-.1zm0 4.7c.3 0 .6-.1.9-.2.3-.1.5-.4.6-.6s.3-.6.4-1H40c-.1.4-.2.7-.3.9-.2.2-.4.3-.7.3-.3 0-.6-.1-.8-.4-.2-.3-.3-.7-.3-1.3h3c0-.4 0-.8-.1-1.2-.1-.3-.2-.7-.3-.9-.2-.3-.4-.5-.6-.6-.3-.1-.6-.2-.9-.2-.3 0-.6.1-.9.2-.2.1-.5.3-.6.5-.2.2-.3.5-.4.8-.1.3-.1.7-.1 1 0 .4 0 .8.1 1.1.1.3.2.6.4.9l.6.6c.3.1.6.1.9.1zm-4.9-.1c.2 0 .4 0 .5-.1.2-.1.3-.2.5-.3.1-.1.3-.3.4-.5v1H36.3V42v-1.5-1.1-.7-.3H35.4v2.8c0 .3 0 .5-.1.7-.1.2-.1.4-.2.5-.1.1-.2.3-.3.3-.1.1-.2.1-.4.1s-.3 0-.4-.1c-.1-.1-.2-.2-.3-.4s-.1-.4-.2-.7c0-.3-.1-.6-.1-1.1v-.6-.7c0-.2 0-.4.1-.7h-.8c0 .4-.1.7-.1 1.1v1.1c0 .5 0 1 .1 1.3.1.4.2.6.3.9.1.2.3.4.5.5.1.1.3.2.6.2zm-4 .1c.3 0 .5 0 .7-.1.2-.1.4-.2.6-.4.2-.2.3-.4.4-.7.1-.3.2-.6.2-1H31.1c0 .3-.1.6-.2.8-.1.2-.2.4-.3.5-.2.2-.4.2-.6.2-.4 0-.6-.2-.8-.5-.2-.3-.3-.8-.3-1.4 0-.4 0-.8.1-1 .1-.3.2-.5.4-.7.2-.2.4-.2.6-.2.2 0 .4.1.5.2.1.1.2.3.3.5.1.2.1.5.1.8H31.8c0-.4-.1-.8-.2-1.1-.1-.3-.4-.6-.6-.7-.3-.2-.6-.3-1-.3-.3 0-.6.1-.9.2-.3.1-.5.3-.6.6-.2.2-.3.5-.4.8-.1.3-.1.7-.1 1.1 0 .4 0 .8.1 1.1.1.3.2.6.4.8.2.2.4.4.6.5h1zM25.5 39c.2 0 .4.1.5.2.1.1.3.3.3.6.1.3.1.5.1.9-.5 0-.9 0-1.2.1h-.8c0-.2 0-.5.1-.7.1-.2.1-.4.2-.6.1-.2.2-.3.3-.4.2 0 .3-.1.5-.1zm0 4.7c.3 0 .6-.1.9-.2.3-.1.5-.4.6-.6s.3-.6.4-1H26.5c-.1.4-.2.7-.3.9-.2.2-.4.3-.7.3-.3 0-.6-.1-.8-.4-.2-.3-.3-.7-.3-1.3h3c0-.4 0-.8-.1-1.2-.1-.3-.2-.7-.3-.9-.2-.3-.4-.5-.6-.6-.3-.1-.6-.2-.9-.2-.3 0-.6.1-.9.2-.2.1-.5.3-.6.5-.2.2-.3.5-.4.8-.1.3-.1.7-.1 1 0 .4 0 .8.1 1.1.1.3.2.6.4.9l.6.6c.2.1.6.1.9.1zm-4.2 0c.2 0 .5 0 .7-.1.2-.1.4-.1.5-.3.2-.1.3-.3.4-.4.1-.2.1-.4.1-.6 0-.2 0-.3-.1-.5 0-.1-.1-.3-.2-.4-.1-.1-.3-.2-.5-.4-.2-.1-.4-.2-.7-.3-.3-.1-.5-.2-.7-.3-.2-.1-.3-.2-.4-.3-.1-.1-.1-.3-.1-.4 0-.1 0-.2.1-.4.1-.1.2-.2.3-.2.1-.1.3-.1.5-.1.3 0 .5.1.7.3.1.2.2.5.2.9h.8c0-.4-.1-.7-.2-1-.1-.3-.3-.5-.6-.7-.3-.2-.6-.2-1-.2s-.7.1-.9.2c-.3.1-.4.3-.6.5-.1.2-.2.4-.2.7 0 .2 0 .4.1.5.1.2.1.3.3.4.1.1.3.3.5.4.2.1.5.2.8.3.3.1.5.2.6.3.2.1.3.2.3.3.1.1.1.2.1.4s0 .3-.1.4c-.1.1-.2.2-.3.2-.1 0-.3.1-.4.1-.2 0-.4 0-.5-.1-.1-.1-.3-.2-.3-.4-.1-.2-.1-.4-.1-.7h-.8c0 .4.1.8.2 1.1.1.3.4.5.6.6.2.1.5.2.9.2zm-3.4 0s.1 0 0 0H18.8v-.2-.5-.6-.7-.7-.6-.4c0-.3-.1-.6-.1-.8-.1-.2-.2-.4-.4-.5-.2-.1-.4-.2-.7-.2-.3 0-.5 0-.7.1-.2.1-.4.2-.5.4-.1.2-.3.4-.4.6v-.4-.3-.1H15.2v4.7h.9v-.1-.3-.5-.5-.5-.4c0-.2 0-.4.1-.6.1-.2.1-.4.2-.5.1-.2.2-.3.4-.4.1-.1.3-.1.5-.1s.3 0 .4.1c.1.1.2.2.2.4s.1.3.1.6V44l-.1-.3zm-5.5-.7c-.2 0-.4-.1-.6-.2-.2-.2-.3-.4-.4-.7-.1-.3-.1-.7-.1-1.1 0-.3 0-.5.1-.8 0-.2.1-.4.2-.6.1-.2.2-.3.3-.4.1-.1.3-.1.5-.1s.3.1.5.1c.1.1.2.2.3.4.1.2.2.4.2.6 0 .2.1.5.1.8 0 .4 0 .8-.1 1.1-.1.3-.2.5-.4.7-.2.1-.4.2-.6.2zm0 .7c.4 0 .8-.1 1.1-.3.3-.2.5-.5.7-.9.2-.4.2-.9.3-1.5 0-.4 0-.7-.1-1.1-.1-.3-.2-.6-.4-.8-.2-.2-.4-.4-.6-.5-.3-.1-.5-.2-.9-.2-.3 0-.6.1-.9.2-.2.1-.5.3-.6.5-.2.2-.3.5-.4.8-.1.3-.1.7-.1 1 0 .6.1 1 .2 1.4.1.4.4.7.7.9.2.4.5.5 1 .5zm-4.5 0c.3 0 .5 0 .7-.1.2-.1.4-.2.6-.4.2-.2.3-.4.4-.7.1-.3.2-.6.2-1H8.9c0 .3-.1.6-.2.8-.1.2-.2.4-.3.5s-.3.2-.5.2c-.4 0-.6-.2-.8-.5-.2-.3-.3-.8-.3-1.4 0-.4 0-.8.1-1 .1-.3.2-.5.4-.7.2-.2.4-.2.6-.2.2 0 .4.1.5.2.1.1.2.3.3.5.1.2.1.5.1.8H9.7c0-.4-.1-.8-.2-1.1-.1-.3-.4-.6-.6-.7-.3-.2-.6-.3-1-.3-.3 0-.6.1-.9.2-.3.1-.5.3-.6.6-.2.2-.3.5-.4.8 0 .1-.1.4-.1.8s0 .8.1 1.1c.1.3.2.6.4.8.2.2.4.4.6.5.3.3.6.3.9.3z"/>
  <path class="st1" d="M111.6 43.6c.2 0 .4 0 .5-.1.2-.1.3-.2.5-.3.1-.1.3-.3.4-.5v1H113.8V42v-1.5-1.1-.7-.3H112.9v2.8c0 .3 0 .5-.1.7-.1.2-.1.4-.2.5-.1.1-.2.3-.3.3-.1.1-.2.1-.4.1s-.3 0-.4-.1c-.1-.1-.2-.2-.3-.4-.1-.2-.1-.4-.2-.7 0-.3-.1-.6-.1-1.1v-.6-.7c0-.2 0-.4.1-.7h-.8c0 .4-.1.7-.1 1.1v1.1c0 .5 0 1 .1 1.3.1.4.2.6.3.9.1.2.3.4.5.5.2.1.4.2.6.2m-5.1-4.3h.7v2.8c0 .4.1.7.2.9.1.2.3.4.5.5.2.1.4.2.7.2h.5c.2 0 .4-.1.5-.1v-.1-.3-.4c-.1 0-.3.1-.4.1h-.3c-.2 0-.4-.1-.5-.2-.1-.1-.2-.4-.2-.7v-.9-.9-.8h1.5v-.1-.2-.4h-1.5V38v-.5-.2h-.8v1.4h-.6v.6zm-3.3 2.2c0 .3 0 .5-.1.7-.1.2-.2.3-.3.5-.1.1-.2.2-.4.2-.1 0-.3.1-.4.1-.3 0-.5-.1-.6-.2-.1-.1-.2-.3-.2-.6 0-.2 0-.3.1-.4.1-.1.2-.3.3-.4l.6-.3c.2-.1.5-.1.9-.1v.4c.1 0 .1.1.1.1zm-1.4 2.1c.2 0 .4 0 .6-.1.2-.1.4-.2.5-.3.1-.1.3-.3.4-.5V43.6h.8v-.2-.5-.7-.9-1.1c0-.6-.2-1.1-.5-1.4-.3-.3-.7-.5-1.3-.5-.4 0-.7.1-.9.2-.3.1-.5.3-.6.6-.1.3-.2.6-.2.9H101.4c0-.4.1-.6.2-.8s.4-.3.7-.3c.3 0 .5.1.6.3.1.2.2.4.2.8v.4c-.6 0-1.2.1-1.6.2-.4.2-.7.4-.9.6-.2.3-.3.6-.3.9 0 .3.1.5.2.7.1.2.3.4.5.5.3.3.5.3.8.3zm-4.1-.1H98.6v-.1-.3-.5-.6-.6c0-.4.1-.8.2-1.1.1-.3.3-.5.5-.7.2-.2.5-.3.9-.3v-.6-.2c-.3 0-.5.1-.7.2-.2.1-.4.2-.6.4-.2.2-.3.4-.4.7v-.5-.4-.1H97.7V43.5zm-1.8-2c0 .3 0 .5-.1.7-.1.2-.2.3-.3.5-.1.1-.2.2-.4.2 0 .1-.1.1-.3.1-.3 0-.5-.1-.6-.2-.1-.1-.2-.3-.2-.6 0-.2 0-.3.1-.4.1-.1.2-.3.3-.4.2-.1.3-.2.6-.3.2-.1.5-.1.9-.1v.5zm-1.3 2.1c.2 0 .4 0 .6-.1.2-.1.4-.2.5-.3.1-.1.3-.3.4-.5V43.6h.8v-.2-.5-.7-.9-1.1c0-.6-.2-1.1-.5-1.4-.3-.3-.7-.5-1.3-.5-.4 0-.7.1-.9.2-.3.1-.5.3-.6.6-.1.3-.2.6-.2.9H94.2c0-.4.1-.6.2-.8.1-.2.4-.3.7-.3.3 0 .5.1.6.3.1.2.2.4.2.8v.4c-.6 0-1.2.1-1.6.2-.4.2-.7.4-.9.6-.2.3-.3.6-.3.9 0 .3.1.5.2.7.1.2.3.4.5.5.2.3.5.3.8.3zm-4-.5c-.3 0-.5-.1-.6-.2-.2-.2-.3-.4-.4-.7-.1-.3-.1-.6-.1-1s0-.8.1-1.1c.1-.3.2-.6.4-.7.2-.2.4-.3.6-.3.2 0 .4.1.6.3.2.2.3.4.4.7.1.3.1.7.1 1.1 0 .4 0 .8-.1 1.1-.1.3-.2.5-.4.7-.2 0-.4.1-.6.1zm-2 2.6H89.5V45c0-.4 0-1.1-.1-2 .1.2.2.3.3.4.1.1.3.2.5.2.2.1.3.1.5.1.4 0 .7-.1 1-.3.3-.2.5-.5.6-.9s.2-.9.2-1.5c0-.4 0-.8-.1-1.1-.1-.3-.2-.6-.4-.8-.2-.2-.3-.4-.6-.5-.2-.1-.5-.2-.7-.2-.2 0-.4 0-.6.1-.2.1-.3.2-.5.3-.1.1-.3.3-.4.5v-.2-.2-.3h-.8v5.5c.2.6.2 1.1.2 1.6zm-4.4-2c.2 0 .5 0 .7-.1.2-.1.4-.1.5-.3.2-.1.3-.3.4-.4.1-.2.1-.4.1-.6 0-.2 0-.3-.1-.5 0-.1-.1-.3-.2-.4-.1-.1-.3-.2-.5-.4-.2-.1-.4-.2-.7-.3-.3-.1-.5-.2-.7-.3-.2-.1-.3-.2-.4-.3-.1-.1-.1-.3-.1-.4 0-.1 0-.2.1-.4.1-.1.2-.2.3-.2.1-.1.3-.1.5-.1.3 0 .5.1.7.3.1.2.2.5.2.9h.8c0-.4-.1-.7-.2-1-.1-.3-.3-.5-.6-.7s-.6-.2-1-.2-.7.1-.9.2c-.3.1-.4.3-.6.5-.1.2-.2.4-.2.7 0 .2 0 .4.1.5.1.2.1.3.3.4.1.1.3.3.5.4.2.1.5.2.8.3.3.1.5.2.6.3.2.1.3.2.3.3.1.1.1.2.1.4s0 .3-.1.4c-.1.1-.2.2-.3.2-.1 0-.3.1-.4.1-.2 0-.4 0-.5-.1-.1-.1-.3-.2-.3-.4-.1-.2-.1-.4-.1-.7h-.8c0 .4.1.8.2 1.1.1.3.4.5.6.6.2.1.6.2.9.2zM79.9 39c.2 0 .4.1.5.2.1.1.3.3.3.6.1.3.1.6.1.9-.5 0-.9 0-1.2.1h-.8c0-.2 0-.5.1-.7.1-.2.1-.4.2-.6.1-.2.2-.3.3-.4.2 0 .4-.1.5-.1zm0 4.7c.3 0 .6-.1.9-.2.3-.1.5-.4.7-.6.2-.3.3-.6.4-1H81c-.1.4-.2.7-.3.9-.2.2-.4.3-.7.3-.3 0-.6-.1-.8-.4-.2-.3-.3-.7-.3-1.3h3c0-.4 0-.8-.1-1.2-.1-.3-.2-.7-.3-.9-.2-.3-.4-.5-.6-.6-.3-.1-.6-.2-.9-.2-.3 0-.6.1-.9.2-.2.1-.5.3-.6.5-.2.2-.3.5-.4.8-.1.3-.1.7-.1 1 0 .4 0 .8.1 1.1.1.3.2.6.4.9s.4.4.6.6c.2.1.5.1.8.1zm-3.5-.2s0-.2.1-.5c.1-.4.3-.9.5-1.7.2-.8.5-1.7.8-2.9H76.9s0 .1-.1.2c0 .2-.1.4-.2.8s-.2.8-.3 1.3c-.1.5-.3 1.2-.5 2 0 0 0-.1-.1-.2 0-.2-.1-.4-.2-.7-.1-.3-.2-.8-.3-1.3-.1-.5-.3-1.1-.5-1.9h-.9s0 .1.1.3c.1.2.1.5.3.9.1.4.3.9.4 1.5.2.6.4 1.3.6 2.2h1.2zm-3.8-2c0 .3 0 .5-.1.7-.1.2-.2.3-.3.5-.1.1-.2.2-.4.2-.1 0-.3.1-.4.1-.3 0-.5-.1-.6-.2-.1-.1-.2-.3-.2-.6 0-.2 0-.3.1-.4.1-.1.2-.3.3-.4l.6-.3c.2-.1.5-.1.9-.1v.4c.1 0 .1.1.1.1zm-1.4 2.1c.2 0 .4 0 .6-.1.2-.1.4-.2.5-.3.1-.1.3-.3.4-.5V43.6h.8v-.2-.5-.7-.9-1.1c0-.6-.2-1.1-.5-1.4-.3-.3-.7-.5-1.3-.5-.4 0-.7.1-.9.2-.3.1-.5.3-.6.6-.1.3-.2.6-.2.9H70.8c0-.4.1-.6.2-.8.1-.2.4-.3.7-.3.3 0 .5.1.6.3.1.2.2.4.2.8v.4c-.6 0-1.2.1-1.6.2-.4.2-.7.4-.9.6-.2.3-.3.6-.3.9 0 .3.1.5.2.7.1.2.3.4.5.5.3.3.5.3.8.3zm-4.1-.1H68v-.1-.3-.5-.6-.6c0-.4.1-.8.2-1.1.1-.3.3-.5.5-.7.2-.2.5-.3.9-.3v-.6-.2c-.3 0-.5.1-.7.2-.2.1-.4.2-.6.4-.2.2-.3.4-.4.7v-.5-.4-.1H67.1V43.5zm-1.2 1.2c0 .2-.1.3-.2.4-.1.1-.3.2-.5.3-.2.1-.4.1-.7.1-.3 0-.6-.1-.8-.2-.2-.1-.3-.3-.3-.5s.1-.3.2-.5c.1-.1.4-.3.6-.4.3 0 .6.1.8.1.2.1.4.1.5.2.3.2.4.4.4.5zM64.5 42c-.3 0-.6-.1-.7-.4-.2-.2-.2-.6-.2-1.1 0-.3 0-.6.1-.8.1-.2.2-.4.3-.5.1-.1.3-.2.5-.2s.4.1.5.2c.1.1.3.3.3.5.1.2.1.5.1.8 0 .3 0 .6-.1.8-.1.2-.2.4-.3.5-.1.1-.3.2-.5.2zm-.1 4.1c.3 0 .6 0 .9-.1.3-.1.5-.2.7-.3.2-.1.4-.3.5-.5.1-.2.2-.4.2-.7 0-.2-.1-.4-.2-.6-.1-.2-.3-.3-.6-.4-.3-.1-.6-.2-1-.2-.3 0-.5-.1-.7-.1-.2 0-.3-.1-.3-.1-.1 0-.1-.1-.1-.2s0-.1.1-.2c0-.1.1-.1.2-.1h.5c.3 0 .5 0 .7-.1.2-.1.4-.2.6-.4.2-.2.3-.4.4-.7.1-.3.1-.6.1-.9 0-.2 0-.5-.1-.7-.1-.2-.1-.4-.2-.6-.1-.2-.2-.3-.4-.5.2-.4.3-.7.5-.9.1-.3.2-.5.3-.6.1-.1.1-.2.1-.2-.3-.1-.5-.2-.6-.2-.1-.1-.2-.1-.2-.1-.1.5-.3.8-.4 1.1-.1.3-.2.5-.2.7-.1 0-.2-.1-.3-.1h-.3c-.3 0-.6.1-.8.2-.2.1-.4.3-.6.5-.2.2-.3.4-.4.7-.1.3-.1.5-.1.8 0 .5.1.9.2 1.2.2.3.4.6.7.7-.2.1-.3.2-.4.3-.1 0-.2.2-.2.3 0 .1.1.3.2.4.1.1.3.2.4.3l-.6.3c-.2.1-.3.3-.4.4-.1.1-.1.3-.1.5s.1.4.2.6c.1.2.4.3.6.4.4.1.8.1 1.1.1z"/>
  <path class="st1" d="M60.4 55.7H61.3v-.2-.5-.6-.7-.7-.6-.4c0-.3-.1-.6-.2-.8-.1-.2-.2-.4-.4-.5-.2-.1-.4-.2-.7-.2-.2 0-.5 0-.7.1-.2.1-.4.2-.5.4-.1.2-.3.4-.4.6v-.4-.3-.1H57.6v4.7h.9v-.1-.3-.5-.5-.5-.4c0-.2 0-.4.1-.6.1-.2.1-.4.2-.5.1-.2.2-.3.4-.4.1-.1.3-.1.5-.1s.3 0 .4.1c.1.1.2.2.2.4s.1.3.1.6v3m-4.2-5.8c.1 0 .2 0 .3-.1.1-.1.2-.1.2-.2s.1-.2.1-.3c0-.1 0-.2-.1-.3 0-.1-.1-.2-.2-.2-.1-.1-.2-.1-.3-.1-.2 0-.4.1-.5.2-.1.1-.2.3-.2.4 0 .2.1.3.2.4.2.1.3.2.5.2zm-.4 5.6h.9v-2-1.6-1-.4h-.8v4.7c-.1.2-.1.3-.1.3zm-7.1-.1h.9v-.2-.4-.6-.6-.7c0-.3 0-.5.1-.7.1-.2.1-.4.3-.6.1-.2.2-.3.4-.4.1-.1.3-.1.4-.1.1 0 .3 0 .4.1.1.1.2.2.2.4s.1.3.1.5v3h.9V55v-.4-.5-.6-.6c0-.2 0-.4.1-.6 0-.2.1-.4.2-.5.1-.1.2-.3.3-.3.1-.1.3-.1.4-.1.2 0 .4.1.5.3.1.2.2.4.2.8V55.7h.8v-.1-.4-.6-.7-.8-.8c0-.2 0-.4-.1-.6 0-.2-.1-.4-.2-.5-.1-.2-.2-.3-.4-.4-.2-.1-.4-.1-.6-.1-.2 0-.4 0-.6.1-.2.1-.3.2-.5.3-.1.1-.3.3-.4.5 0-.2-.1-.4-.2-.6-.1-.2-.2-.3-.4-.4-.2-.1-.4-.1-.6-.1-.2 0-.4.1-.6.2-.2.1-.4.2-.5.4-.2.2-.3.4-.4.6v-.5-.3-.1H48.6v4.4c.1.1.1.2.1.2zm-2.9-.4c-.3 0-.6-.2-.8-.5-.2-.3-.3-.8-.3-1.5 0-.3 0-.5.1-.8 0-.2.1-.4.2-.6.1-.2.2-.3.3-.4.1-.1.3-.2.4-.2.4 0 .6.2.8.5.2.4.3.9.3 1.6 0 .4 0 .8-.1 1-.1.3-.2.5-.4.6-.1.3-.3.3-.5.3zm2 .7v-1.9-1.7-1.4-1.1-.7-.2H46.8v2.5c-.1-.2-.2-.3-.3-.4-.1-.1-.3-.2-.4-.3-.2-.1-.4-.1-.6-.1-.3 0-.6.1-.8.2-.2.1-.4.3-.6.6-.1.2-.3.5-.3.9-.1.3-.1.7-.1 1.1 0 .5.1 1 .2 1.4.1.4.3.7.6.9.3.2.6.3 1 .3.2 0 .4 0 .6-.1.2-.1.3-.2.5-.3.1-.1.3-.3.4-.5v.9h.7c0-.1.1-.1.1-.1zm-5.6-2.2c0 .3 0 .5-.1.7-.1.2-.2.3-.3.5-.1.1-.2.2-.4.2-.1 0-.3.1-.4.1-.3 0-.5-.1-.6-.2-.1-.1-.2-.3-.2-.6 0-.2 0-.3.1-.4.1-.1.2-.3.3-.4l.6-.3c.2-.1.5-.1.9-.1v.4c0 .1.1.1.1.1zm-1.4 2.1c.2 0 .4 0 .6-.1s.4-.2.5-.3c.1-.1.3-.3.4-.5V55.6h.8v-.2-.5-.7-.9-1.1c0-.6-.2-1.1-.5-1.4-.3-.3-.7-.5-1.3-.5-.4 0-.7.1-.9.2-.3.1-.5.3-.6.6-.1.3-.2.6-.2.9H40.4c0-.4.1-.6.2-.8.1-.2.4-.3.7-.3.3 0 .5.1.6.3.1.2.2.4.2.8v.4c-.6 0-1.2.1-1.6.2-.4.2-.7.4-.9.6-.2.3-.3.6-.3.9 0 .3.1.5.2.7.1.2.3.4.5.5.3.3.5.3.8.3zm-4.9-2.1c0 .3 0 .5-.1.7-.1.2-.2.3-.3.5-.1.1-.2.2-.4.2-.1.1-.2.1-.3.1-.3 0-.5-.1-.6-.2-.2-.2-.2-.3-.2-.6 0-.2 0-.3.1-.4.1-.1.2-.3.3-.4l.6-.3c.2-.1.5-.1.9-.1v.5zm-1.4 2.1c.2 0 .4 0 .6-.1s.4-.2.5-.3c.1-.1.3-.3.4-.5V55.6h.8v-.2-.5-.7-.9-1.1c0-.6-.2-1.1-.5-1.4-.3-.3-.7-.5-1.3-.5-.4 0-.7.1-.9.2-.3.1-.5.3-.6.6-.1.3-.2.6-.2.9H34.1c0-.4.1-.6.2-.8.1-.2.4-.3.7-.3.3 0 .5.1.6.3.1.2.2.4.2.8v.4c-.6 0-1.2.1-1.6.2-.4.2-.7.4-.9.6-.2.3-.3.6-.3.9 0 .3.1.5.2.7.1.2.3.4.5.5.3.3.5.3.8.3zm-4.9-.1h3.2v-.2-.6H30.4v-3.4-2-.6H29.5v6.5c.1.2.1.3.1.3zm-3.5.1c.2 0 .4-.1.5-.2.1-.1.2-.3.2-.5 0-.1 0-.2-.1-.3 0-.1-.1-.2-.2-.2-.1-.1-.2-.1-.3-.1-.1 0-.2 0-.3.1-.1.1-.2.1-.2.2-.1.1-.1.2-.1.4 0 .1 0 .3.1.4 0 .1.1.2.2.2h.2zm-3.4-.6c-.3 0-.6-.2-.8-.5-.2-.3-.3-.8-.3-1.5 0-.3 0-.5.1-.8.1-.2.1-.4.2-.6.1-.2.2-.3.3-.4.1-.1.3-.2.4-.2.4 0 .6.2.8.5.2.4.3.9.3 1.6 0 .4 0 .8-.1 1-.1.3-.2.5-.4.6-.1.3-.2.3-.5.3zm2 .7v-1.9-1.7-1.4-1.1-.7-.2H23.7v2.5c-.1-.2-.2-.3-.3-.4-.1-.1-.3-.2-.4-.3-.2-.1-.4-.1-.6-.1-.3 0-.6.1-.8.2-.2.1-.4.3-.6.6-.1.2-.3.5-.3.9-.1.3-.1.7-.1 1.1 0 .5.1 1 .2 1.4.1.4.3.7.6.9.3.2.6.3 1 .3.2 0 .4 0 .6-.1.2-.1.3-.2.5-.3.1-.1.3-.3.4-.5v.9h.7l.1-.1zm-6.9-.1c.2 0 .4 0 .5-.1.2-.1.3-.2.5-.3.1-.1.3-.3.4-.5v1H20V54v-1.5-1.1-.7-.3H19.1v2.8c0 .3 0 .5-.1.7-.1.2-.1.4-.2.5-.1.1-.2.3-.3.3-.1.1-.2.1-.4.1s-.3 0-.4-.1c-.1-.1-.2-.2-.3-.4-.1-.2-.1-.4-.2-.7 0-.3-.1-.6-.1-1.1v-.6-.7c0-.2 0-.4.1-.7h-.8c0 .4-.1.7-.1 1.1v1.1c0 .5 0 1 .1 1.3.1.4.2.6.3.9.1.2.3.4.5.5.1.1.4.2.6.2zm-2.4-.1v-.1-.4-.8-1.3-1.8-2.4H14.5v6.8H15.4zm-2.7-2c0 .3 0 .5-.1.7-.1.2-.2.3-.3.5-.1.1-.2.2-.4.2-.1 0-.3.1-.4.1-.3 0-.5-.1-.6-.2-.1-.1-.2-.3-.2-.6 0-.2 0-.3.1-.4.1-.1.2-.3.3-.4l.6-.3c.2-.1.5-.1.9-.1v.4c.1 0 .1.1.1.1zm-1.4 2.1c.2 0 .4 0 .6-.1s.4-.2.5-.3c.1-.1.3-.3.4-.5V55.6h.8v-.2-.5-.7-.9-1.1c0-.6-.2-1.1-.5-1.4-.3-.3-.7-.5-1.3-.5-.4 0-.7.1-.9.2-.3.1-.5.3-.6.6-.1.3-.2.6-.2.9H10.9c0-.4.1-.6.2-.8.1-.2.4-.3.7-.3.3 0 .5.1.6.3.1.2.2.4.2.8v.4c-.6 0-1.2.1-1.6.2-.4.2-.7.4-.9.6-.2.3-.3.6-.3.9 0 .3.1.5.2.7.1.2.3.4.5.5.3.3.6.3.8.3zm-3.6.1c.2 0 .5 0 .7-.1.2-.1.4-.1.5-.3.2-.1.3-.3.4-.4.1-.2.1-.4.1-.6 0-.2 0-.3-.1-.5 0-.1-.1-.3-.2-.4-.1-.1-.3-.2-.5-.4-.2-.1-.4-.2-.7-.3-.3-.1-.5-.2-.7-.3-.2-.1-.3-.2-.4-.3-.1-.1-.1-.3-.1-.4 0-.1 0-.2.1-.4.1-.1.2-.2.3-.2.1-.1.3-.1.5-.1.3 0 .5.1.7.3.1.2.2.5.2.9h.8c0-.4-.1-.7-.2-1-.1-.2-.3-.4-.6-.6-.3-.2-.6-.2-1-.2s-.7.1-.9.2c-.3.1-.4.3-.6.5-.1.2-.2.4-.2.7 0 .2 0 .4.1.5.1.2.1.3.3.4.1.1.3.3.5.4.2.1.5.2.8.3.3.1.5.2.6.3.2.1.3.2.3.3.1.1.1.2.1.4s0 .3-.1.4c-.1.1-.2.2-.3.2h-.4c-.2 0-.4 0-.5-.1-.1-.1-.3-.2-.3-.4-.1-.2-.1-.4-.1-.7H6c0 .4.1.8.2 1.1.1.3.4.5.6.6.2.1.5.2.9.2z"/>
  <path class="st1" d="M15.2 67.5H16.1v-.1-.3-.5-.6-.6c0-.4.1-.8.2-1.1.1-.3.3-.5.5-.7.2-.2.5-.3.9-.3v-.6-.2c-.3 0-.5.1-.7.2-.2.1-.4.2-.6.4-.2.2-.3.4-.4.7v-.5-.4-.1H15.2V67.5m-2.8-.5c-.2 0-.4-.1-.6-.2-.2-.2-.3-.4-.4-.7-.1-.3-.1-.7-.1-1.1 0-.3 0-.5.1-.8 0-.2.1-.4.2-.6.1-.2.2-.3.3-.4.1-.1.3-.1.5-.1s.3.1.5.1c.1.1.2.2.3.4.1.2.2.4.2.6 0 .2.1.5.1.8 0 .4 0 .8-.1 1.1-.1.3-.2.5-.4.7-.1.1-.3.2-.6.2zm0 .7c.4 0 .8-.1 1.1-.3.3-.2.5-.5.7-.9.2-.4.2-.9.3-1.5 0-.4 0-.7-.1-1.1s-.2-.6-.4-.8c-.2-.2-.4-.4-.6-.5-.3-.1-.5-.2-.9-.2-.3 0-.6.1-.9.2-.2.1-.5.3-.6.5-.2.2-.3.5-.4.8-.1.3-.1.7-.1 1 0 .6.1 1 .2 1.4.1.4.4.7.7.9.2.4.6.5 1 .5zm-6.3-.3H7v-.1-.4-.6-.6-.7c0-.2 0-.5.1-.7.1-.2.1-.4.2-.6.1-.2.2-.3.4-.4.1-.1.3-.1.5-.1s.3 0 .4.1c.1.1.2.2.2.4s.1.4.1.6V67.7h.9v-.2-.6-.8-1V64c0-.5-.1-.9-.3-1.2-.2-.3-.5-.4-.9-.4-.2 0-.4 0-.6.1-.2.1-.4.2-.5.3-.4.2-.5.4-.6.6v-.8-.7-.6-.4-.1h-.8V67.4zM103 51c.2 0 .4.1.5.2.1.1.3.3.3.6.1.3.1.5.1.9-.5 0-.9 0-1.2.1h-.8c0-.2 0-.5.1-.7.1-.2.1-.4.2-.6.1-.2.2-.3.3-.4.2 0 .4-.1.5-.1zm.1 4.7c.3 0 .6-.1.9-.2.3-.1.5-.4.6-.6.2-.3.3-.6.4-1H104.1c-.1.4-.2.7-.3.9-.2.2-.4.3-.7.3-.3 0-.6-.1-.8-.4-.2-.3-.3-.7-.3-1.3h3c0-.4 0-.8-.1-1.2-.1-.4-.2-.7-.3-.9-.2-.3-.4-.5-.6-.6-.3-.1-.6-.2-.9-.2-.3 0-.6.1-.9.2-.2.1-.5.3-.6.5-.2.2-.3.5-.4.8-.1.3-.1.7-.1 1 0 .4 0 .8.1 1.1.1.3.2.6.4.9l.6.6c.2.1.5.1.9.1zm-4.8-.7c-.3 0-.6-.2-.8-.5-.2-.3-.3-.8-.3-1.5 0-.3 0-.5.1-.8 0-.2.1-.4.2-.6.1-.2.2-.3.3-.4.1-.1.3-.2.4-.2.4 0 .6.2.8.5.2.4.3.9.3 1.6 0 .4 0 .8-.1 1-.1.3-.2.5-.4.6-.1.3-.3.3-.5.3zm1.9.7v-1.9-1.7-1.4-1.1-.7-.2H99.2v2.5c-.1-.2-.2-.3-.3-.4-.1-.1-.3-.2-.4-.3-.2-.1-.4-.1-.6-.1-.3 0-.6.1-.8.2-.2.1-.4.3-.6.6-.1.2-.3.5-.3.9-.1.3-.1.7-.1 1.1 0 .5.1 1 .2 1.4.1.4.3.7.6.9.3.2.6.3 1 .3.2 0 .4 0 .6-.1.2-.1.3-.2.5-.3.1-.1.3-.3.4-.5v.9h.7l.1-.1zm-7.5 0H93.6v-.2-.5-.6-.7-.7-.6-.4c0-.3-.1-.6-.1-.8-.1-.2-.2-.4-.4-.5-.2-.1-.4-.2-.7-.2-.3 0-.5 0-.7.1-.2.1-.4.2-.5.4-.1.2-.3.4-.4.6v-.4-.3-.1H90v4.7h.9v-.1-.3-.5-.5-.5-.4c0-.2 0-.4.1-.6.1-.2.1-.4.2-.5.1-.2.2-.3.4-.4.1-.1.3-.1.5-.1s.3 0 .4.1c.1.1.2.2.2.4s.1.3.1.6V56l-.1-.3zm-5.6-.7c-.2 0-.4-.1-.6-.2-.2-.2-.3-.4-.4-.7 0-.3-.1-.7-.1-1.1 0-.3 0-.5.1-.8 0-.2.1-.4.2-.6.1-.2.2-.3.3-.4.1-.1.3-.1.5-.1s.3.1.5.1c.1.1.2.2.3.4.1.2.2.4.2.6 0 .2.1.5.1.8 0 .4 0 .8-.1 1.1-.1.3-.2.5-.4.7-.1.1-.3.2-.6.2zm0 .7c.4 0 .8-.1 1.1-.3.3-.2.5-.5.7-.9.2-.4.2-.9.3-1.5 0-.4 0-.7-.1-1.1-.1-.3-.2-.6-.4-.8-.2-.2-.4-.4-.6-.5-.3-.1-.5-.2-.9-.2-.3 0-.6.1-.9.2-.2.1-.5.3-.6.5-.2.2-.3.5-.4.8-.1.3-.1.7-.1 1 0 .6.1 1 .2 1.4.1.4.4.7.7.9.2.4.6.5 1 .5zm0-5.7l.1-.1.4-.4c.2-.2.4-.4.7-.8l-.2-.1c-.1-.1-.3-.2-.5-.3 0 0 0 .1-.1.2s-.2.3-.3.5c-.1.2-.3.5-.6.8l.1.1c.1-.1.2 0 .4.1zm-3.3-.1c.1 0 .2 0 .3-.1.1-.1.2-.1.2-.2s.1-.2.1-.3c0-.1 0-.2-.1-.3 0-.1-.1-.2-.2-.2-.1-.1-.2-.1-.3-.1-.2 0-.4.1-.5.2-.1.1-.2.3-.2.4 0 .2.1.3.2.4.1.1.3.2.5.2zm-.4 5.6h.9v-2-1.6-1-.4h-.8v4.7c-.1.2-.1.3-.1.3zm-2.7.2c.3 0 .5 0 .7-.1.2-.1.4-.2.6-.4s.3-.4.4-.7c.1-.3.2-.6.2-1H81.7c0 .3-.1.6-.2.8-.1.2-.2.4-.3.5s-.4.2-.5.2c-.4 0-.6-.2-.8-.5-.2-.3-.3-.8-.3-1.4 0-.4 0-.8.1-1 .1-.3.2-.5.4-.7.2-.2.4-.2.6-.2.2 0 .4.1.5.2.1.1.2.3.3.5.1.2.1.5.1.8H82.5c0-.4-.1-.8-.2-1.1-.1-.3-.4-.6-.6-.7-.3-.2-.6-.3-1-.3-.3 0-.6.1-.9.2-.3.1-.5.3-.6.6-.2.2-.3.5-.4.8-.1.3-.1.7-.1 1.1 0 .4 0 .8.1 1.1.1.3.2.6.4.8.2.2.4.4.6.5h.9zm-3.6-2.2c0 .3 0 .5-.1.7-.1.2-.2.3-.3.5-.1.1-.2.2-.4.2-.1.1-.2.1-.3.1-.3 0-.5-.1-.6-.2-.1-.1-.2-.3-.2-.6 0-.2 0-.3.1-.4.1-.1.2-.3.3-.4s.4-.2.6-.3c.2-.1.5-.1.9-.1v.5zm-1.4 2.1c.2 0 .4 0 .6-.1.2-.1.4-.2.5-.3.1-.1.3-.3.4-.5V55.6h.8v-.2-.5-.7-.9-1.1c0-.6-.2-1.1-.5-1.4-.3-.3-.7-.5-1.3-.5-.4 0-.7.1-.9.2-.3.1-.5.3-.6.6-.1.3-.2.6-.2.9H75.3c0-.4.1-.6.2-.8.1-.2.4-.3.7-.3.3 0 .5.1.6.3.1.2.2.4.2.8v.4c-.6 0-1.2.1-1.6.2-.4.2-.7.4-.9.6-.2.3-.3.6-.3.9 0 .3.1.5.2.7.1.2.3.4.5.5.3.3.5.3.8.3zm-4.1-.1H72.5v-.1-.3-.5-.6-.6c0-.4.1-.8.2-1.1.1-.3.3-.5.5-.7.2-.2.5-.3.9-.3v-.6-.2c-.3 0-.5.1-.7.2-.2.1-.4.2-.6.4-.2.2-.3.4-.4.7v-.5-.4-.1H71.6V55.5zm-3.8-4.2h.7v2.8c0 .4.1.7.2.9.1.2.3.4.5.5.2.1.4.2.7.2.2 0 .3 0 .5-.1.2 0 .4-.1.5-.1v-.1-.3-.4c-.1 0-.3.1-.4.1h-.3c-.2 0-.4-.1-.5-.2-.1-.1-.2-.4-.2-.7V53v-.9-.8H71v-.1-.2-.4h-1.5v-.7-.5-.2h-.8v1.4h-.6v.7zm-2 4.4c.2 0 .5 0 .7-.1.2-.1.4-.1.5-.3.2-.1.3-.3.4-.4.1-.2.1-.4.1-.6 0-.2 0-.3-.1-.5 0-.1-.1-.3-.2-.4-.1-.1-.3-.2-.5-.4-.2-.1-.4-.2-.7-.3-.3-.1-.5-.2-.7-.3-.2-.1-.3-.2-.4-.3-.1-.1-.1-.3-.1-.4 0-.1 0-.2.1-.4.1-.1.2-.2.3-.2.1-.1.3-.1.5-.1.3 0 .5.1.7.3.1.2.2.5.2.9h.8c0-.4-.1-.7-.2-1-.1-.3-.3-.5-.6-.7-.3-.2-.6-.2-1-.2s-.7.1-.9.2c-.3.1-.4.3-.6.5-.1.2-.2.4-.2.7 0 .2 0 .4.1.5.1.2.1.3.3.4.1.1.3.3.5.4.2.1.5.2.8.3.3.1.5.2.6.3.2.1.3.2.3.3.1.1.1.2.1.4s0 .3-.1.4c-.1.1-.2.2-.3.2-.1 0-.3.1-.4.1-.2 0-.4 0-.5-.1-.1-.1-.3-.2-.3-.4-.1-.2-.1-.4-.1-.7h-.8c0 .4.1.8.2 1.1.1.3.4.5.6.6.1.1.5.2.9.2zm-3.1-5.8c.1 0 .2 0 .3-.1.1-.1.2-.1.2-.2s.1-.2.1-.3c0-.1 0-.2-.1-.3 0-.1-.1-.2-.2-.2-.1-.1-.2-.1-.3-.1-.2 0-.4.1-.5.2-.1.1-.2.3-.2.4 0 .2.1.3.2.4.1.1.3.2.5.2zm-.4 5.6h.9v-2-1.6-1-.4h-.8v4.7c-.1.2-.1.3-.1.3z"/>
  <path class="st1" d="M72 67.6c.2 0 .4 0 .5-.1.2-.1.3-.2.5-.3.1-.1.3-.3.4-.5v1H74.2V66v-1.5-1.1-.7-.3H73.3v2.8c0 .3 0 .5-.1.7-.1.2-.1.4-.2.5-.1.1-.2.3-.3.3-.1.1-.2.1-.4.1s-.3 0-.4-.1c-.1-.1-.2-.2-.3-.4s-.1-.4-.2-.7c0-.3-.1-.6-.1-1.1v-.6-.7c0-.2 0-.4.1-.7h-.8c0 .4-.1.7-.1 1.1v1.1c0 .5 0 1 .1 1.3.1.4.2.6.3.9.1.2.3.4.5.5.2.1.4.2.6.2m-4.4-.5c-.2 0-.3-.1-.5-.2-.1-.1-.2-.2-.3-.4-.1-.2-.2-.4-.2-.6 0-.2-.1-.5-.1-.8 0-.3 0-.5.1-.8 0-.2.1-.5.2-.6.1-.2.2-.3.3-.4s.3-.2.5-.2.3.1.5.2c.1.1.3.2.3.4.1.2.2.4.2.6 0 .2.1.5.1.8 0 .4 0 .8-.1 1.1-.1.3-.2.5-.4.7-.1.1-.3.2-.6.2zm1.1 2.6H69.6v-.3-.9V67v-2-2.5h-.1-.7v.9c-.1-.3-.3-.5-.6-.7-.2-.2-.5-.2-.9-.2-.3 0-.5.1-.8.2-.2.1-.4.3-.6.6-.2.2-.3.5-.4.9-.1.3-.1.7-.1 1.1 0 .5.1 1 .2 1.4.1.4.3.7.6.9.3.2.6.3 1 .3.3 0 .6-.1.8-.2s.4-.3.5-.6v1.1c.2.3.2.8.2 1.5zM61.1 63c.2 0 .4.1.5.2.1.1.3.3.3.6.1.3.1.5.1.9-.5 0-.9 0-1.2.1H60c0-.2 0-.5.1-.7.1-.2.1-.4.2-.6.1-.2.2-.3.3-.4.2 0 .3-.1.5-.1zm0 4.7c.3 0 .6-.1.9-.2.3-.1.5-.4.7-.6.2-.3.3-.6.4-1H62.2c-.1.4-.2.7-.3.9-.2.2-.4.3-.7.3-.3 0-.6-.1-.8-.4-.2-.3-.3-.7-.3-1.3h3c0-.4 0-.8-.1-1.2-.1-.4-.2-.7-.3-.9-.2-.3-.4-.5-.6-.6-.3-.1-.6-.2-.9-.2-.3 0-.6.1-.9.2-.2.1-.5.3-.6.5-.2.2-.3.5-.4.8-.1.3-.1.7-.1 1 0 .4 0 .8.1 1.1.1.3.2.6.4.9l.6.6c.1.1.4.1.8.1zm-3.6 0H58.4v-.2-.5-.6-.7-.7-.6-.4c0-.3-.1-.6-.2-.8-.1-.2-.2-.4-.4-.5-.2-.1-.4-.2-.7-.2-.3 0-.5 0-.7.1-.2.1-.4.2-.5.4-.1.2-.3.4-.4.6v-.4-.3-.1H54.7v4.7h.9v-.1-.3-.5-.5-.5-.4c0-.2 0-.4.1-.6.1-.2.1-.4.2-.5.1-.2.2-.3.4-.4.1-.1.3-.1.5-.1s.3 0 .4.1c.1.1.2.2.2.4s.1.3.1.6v3zM52.1 63c.2 0 .4.1.5.2.1.1.3.3.3.6.1.3.1.5.1.9-.5 0-.9 0-1.2.1H51c0-.2 0-.5.1-.7.1-.2.1-.4.2-.6.1-.2.2-.3.3-.4.1 0 .3-.1.5-.1zm0 4.7c.3 0 .6-.1.9-.2.3-.1.5-.4.6-.6.2-.3.3-.6.4-1H53.1c-.1.4-.2.7-.3.9-.2.2-.4.3-.7.3-.3 0-.6-.1-.8-.4-.2-.3-.3-.7-.3-1.3h3c0-.4 0-.8-.1-1.2-.1-.4-.2-.7-.3-.9-.2-.3-.4-.5-.6-.6-.3-.1-.6-.2-.9-.2-.3 0-.6.1-.9.2-.2.1-.5.3-.6.5-.2.2-.3.5-.4.8-.1.3-.1.7-.1 1 0 .4 0 .8.1 1.1.1.3.2.6.4.9l.6.6c.2.1.5.1.9.1zm-3.4-5.8c.1 0 .2 0 .3-.1.1-.1.2-.1.2-.2s.1-.2.1-.3c0-.1 0-.2-.1-.3 0-.1-.1-.2-.2-.2-.1-.1-.2-.1-.3-.1-.2 0-.4.1-.5.2-.1.1-.2.3-.2.4 0 .2.1.3.2.4.2.1.3.2.5.2zm-.4 5.6h.9v-2-1.6-1-.4h-.8v4.7c-.1.2-.1.3-.1.3zm-3.9-4.2h.7v2.8c0 .4.1.7.2.9.1.2.3.4.5.5.2.1.4.2.7.2h.5c.2 0 .4-.1.5-.1v-.1-.3-.4c-.1.1-.3.1-.4.1h-.3c-.2 0-.4-.1-.5-.2-.1-.1-.2-.4-.2-.7v-.9-.9-.8h1.5v-.1-.2-.4h-1.5V62v-.5-.2h-.8v1.4h-.6v.6zm-4 4.4c.2 0 .5 0 .7-.1.2-.1.4-.1.5-.3.2-.1.3-.3.4-.4.1-.2.1-.4.1-.6 0-.2 0-.3-.1-.5 0-.1-.1-.3-.2-.4-.1-.1-.3-.2-.5-.4-.2-.1-.4-.2-.7-.3-.3-.1-.5-.2-.7-.3-.2-.1-.3-.2-.4-.3-.1-.1-.1-.3-.1-.4 0-.1 0-.2.1-.4.1-.1.2-.2.3-.2.1-.1.3-.1.5-.1.3 0 .5.1.7.3.1.2.2.5.2.9h.8c0-.4-.1-.7-.2-1-.1-.3-.3-.5-.6-.7-.3-.2-.6-.2-1-.2s-.7.1-.9.2c-.3.1-.4.3-.6.5-.1.2-.2.4-.2.7 0 .2 0 .4.1.5.1.2.1.3.3.4.1.1.3.3.5.4.2.1.5.2.8.3.3.1.5.2.6.3.2.1.3.2.3.3.1.1.1.2.1.4s0 .3-.1.4c-.1.1-.2.2-.3.2-.1 0-.3.1-.4.1-.2 0-.4 0-.5-.1-.1-.1-.3-.2-.3-.4-.1-.2-.1-.4-.1-.7h-.8c0 .4.1.8.2 1.1.1.3.4.5.6.6.2.1.5.2.9.2zm-3.3-2.2c0 .3 0 .5-.1.7-.1.2-.2.3-.3.5-.1.1-.2.2-.4.2-.1 0-.3.1-.4.1-.3 0-.5-.1-.6-.2-.1-.1-.2-.3-.2-.6 0-.2 0-.3.1-.4.1-.1.2-.3.3-.4l.6-.3c.2-.1.5-.1.9-.1v.4c.1 0 .1.1.1.1zm-1.4 2.1c.2 0 .4 0 .6-.1s.4-.2.5-.3c.1-.1.3-.3.4-.5V67.6h.8v-.2-.5-.7-.9-1.1c0-.6-.2-1.1-.5-1.4-.3-.3-.7-.5-1.3-.5-.4 0-.7.1-.9.2-.3.1-.5.3-.6.6-.1.3-.2.6-.2.9H35.3c0-.4.1-.6.2-.8.1-.2.4-.3.7-.3.3 0 .5.1.6.3.1.2.2.4.2.8v.4c-.6 0-1.2.1-1.6.2-.4.2-.7.4-.9.6-.2.3-.3.6-.3.9 0 .3.1.5.2.7.1.2.3.4.5.5.2.3.5.3.8.3zm-2.9.1H33.7v-.2-.5-.6-.7-.7-.6-.4c0-.3-.1-.6-.1-.8-.1-.2-.2-.4-.4-.5-.2-.1-.4-.2-.7-.2-.3 0-.5 0-.7.1-.2.1-.4.2-.5.4-.1.2-.3.4-.4.6v-.4-.3-.1H30.1v4.7h.9v-.1-.3-.5-.5-.5-.4c0-.2 0-.4.1-.6.1-.2.1-.4.2-.5.1-.2.2-.3.4-.4.1-.1.3-.1.5-.1s.3 0 .4.1c.1.1.2.2.2.4s.1.3.1.6V68l-.1-.3zm-5.6-.7c-.2 0-.4-.1-.6-.2-.2-.2-.3-.4-.4-.7-.1-.3-.1-.7-.1-1.1 0-.3 0-.5.1-.8 0-.2.1-.4.2-.6.1-.2.2-.3.3-.4.1-.1.3-.1.5-.1s.3.1.5.2c.1.1.2.2.3.4.1.2.2.4.2.6 0 .2.1.5.1.8 0 .4 0 .8-.1 1.1-.1.3-.2.5-.4.7-.1 0-.3.1-.6.1zm0 .7c.4 0 .8-.1 1.1-.3.3-.2.5-.5.7-.9.2-.4.2-.9.3-1.5 0-.4 0-.7-.1-1.1-.1-.3-.2-.6-.4-.8-.2-.2-.4-.4-.6-.5-.3-.1-.5-.2-.9-.2-.3 0-.6.1-.9.2-.2.1-.5.3-.6.5-.2.2-.3.5-.4.8-.1.3-.1.7-.1 1 0 .6.1 1 .2 1.4.1.4.4.7.7.9.2.4.6.5 1 .5zm-8.9-.3h.9v-.1-.4-.6-.6-.7c0-.3 0-.5.1-.7.1-.2.1-.4.3-.6.1-.2.2-.3.4-.4.1-.1.3-.1.4-.1.1 0 .3 0 .4.1.1.1.2.2.2.4s.1.3.1.5v3h.9v-.1-.4-.5-.6-.6c0-.2 0-.4.1-.6 0-.2.1-.4.2-.5.1-.1.2-.3.3-.3.1-.1.3-.1.4-.1.2 0 .4.1.5.3.1.2.2.4.2.8V67.8h.8v-.1-.4-.6-.7-.8-.8c0-.2 0-.4-.1-.6 0-.2-.1-.4-.2-.5-.1-.2-.2-.3-.4-.4-.2-.1-.4-.1-.6-.1-.2 0-.4 0-.6.1-.2.1-.3.2-.5.3-.1.1-.3.3-.4.5 0-.2-.1-.4-.2-.6s-.2-.3-.4-.4c-.2-.1-.4-.1-.6-.1-.2 0-.4.1-.6.2-.2.1-.4.2-.5.4-.2.2-.3.4-.4.6v-.5-.3-.1H18.2v4.4c.1 0 .1.1.1.1z"/>
  <path class="st1" d="M17.9 79.7s.1 0 0 0H18.8v-.2-.5-.6-.7-.7-.6-.4c0-.3-.1-.6-.1-.8-.1-.2-.2-.4-.4-.5-.2-.1-.4-.2-.7-.2-.3 0-.5 0-.7.1-.2.1-.4.2-.5.4-.2.2-.3.4-.4.6v-.4-.3-.1H15.2v4.7h.9v-.1-.3-.5-.5-.5-.4c0-.2 0-.4.1-.6.1-.2.1-.4.2-.5.1-.2.2-.3.4-.4s.3-.1.5-.1.3 0 .4.1c.1.1.2.2.2.4s.1.3.1.6V80l-.1-.3m-5.5-.7c-.2 0-.4-.1-.6-.2-.2-.2-.3-.4-.4-.7-.1-.3-.1-.7-.1-1.1 0-.3 0-.5.1-.8 0-.2.1-.4.2-.6.1-.2.2-.3.3-.4.1-.1.3-.1.5-.1s.3.1.5.1c.1.1.2.2.3.4.1.2.2.4.2.6 0 .2.1.5.1.8 0 .4 0 .8-.1 1.1-.1.3-.2.5-.4.7-.2.1-.4.2-.6.2zm0 .7c.4 0 .8-.1 1.1-.3.3-.2.5-.5.7-.9.2-.4.2-.9.3-1.5 0-.4 0-.7-.1-1.1-.1-.3-.2-.6-.4-.8-.2-.2-.4-.4-.6-.5-.3-.1-.5-.2-.9-.2-.3 0-.6.1-.9.2-.2.1-.5.3-.6.5-.2.2-.3.5-.4.8-.1.3-.1.7-.1 1 0 .6.1 1 .2 1.4.1.4.4.7.7.9.2.4.5.5 1 .5zm-4.5 0c.3 0 .5 0 .7-.1.2-.1.4-.2.6-.4.2-.2.3-.4.4-.7.1-.3.2-.6.2-1H8.9c0 .3-.1.6-.2.8-.1.2-.2.4-.3.5-.1.2-.3.2-.5.2-.4 0-.6-.2-.8-.5-.2-.3-.3-.8-.3-1.4 0-.4 0-.8.1-1 .1-.3.2-.5.4-.7.2-.2.4-.2.6-.2.2 0 .4.1.5.2.1.1.2.3.3.5.1.2.1.5.1.8H9.7c0-.4-.1-.8-.2-1.1-.1-.3-.4-.6-.6-.7-.3-.2-.6-.3-1-.3-.3 0-.6.1-.9.2-.3.1-.5.3-.6.6-.2.2-.3.5-.4.8 0 .1-.1.4-.1.8s0 .8.1 1.1c.1.3.2.6.4.8.2.2.4.4.6.5.3.3.6.3.9.3zM114.2 63c.2 0 .4.1.5.2.1.1.3.3.3.6.1.3.1.5.1.9-.5 0-.9 0-1.2.1h-.8c0-.2 0-.5.1-.7.1-.2.1-.4.2-.6.1-.2.2-.3.3-.4.2 0 .3-.1.5-.1zm0 4.7c.3 0 .6-.1.9-.2.3-.1.5-.4.7-.6.2-.3.3-.6.4-1H115.3c-.1.4-.2.7-.3.9-.2.2-.4.3-.7.3-.3 0-.6-.1-.8-.4-.2-.3-.3-.7-.3-1.3h3c0-.4 0-.8-.1-1.2-.1-.3-.2-.7-.3-.9-.2-.3-.4-.5-.6-.6-.3-.1-.6-.2-.9-.2-.3 0-.6.1-.9.2-.2.1-.5.3-.6.5-.2.2-.3.5-.4.8-.1.3-.1.7-.1 1 0 .4 0 .8.1 1.1.1.3.2.6.4.9l.6.6c.2.1.5.1.8.1zm-4.2 0c.2 0 .5 0 .7-.1.2-.1.4-.1.5-.3.2-.1.3-.3.4-.4.1-.2.1-.4.1-.6 0-.2 0-.3-.1-.5 0-.1-.1-.3-.2-.4-.1-.1-.3-.2-.5-.4-.2-.1-.4-.2-.7-.3-.3-.1-.5-.2-.7-.3-.2-.1-.3-.2-.4-.3-.1-.1-.1-.3-.1-.4 0-.1 0-.2.1-.4.1-.1.2-.2.3-.2.1-.1.3-.1.5-.1.3 0 .5.1.7.3.1.2.2.5.2.9h.8c0-.4-.1-.7-.2-1-.1-.3-.3-.5-.6-.7s-.6-.2-1-.2-.7.1-.9.2c-.3.1-.4.3-.6.5-.1.2-.2.4-.2.7 0 .2 0 .4.1.5.1.2.1.3.3.4.1.1.3.3.5.4.2.1.5.2.8.3.3.1.5.2.6.3.2.1.3.2.3.3.1.1.1.2.1.4s0 .3-.1.4c-.1.1-.2.2-.3.2-.1 0-.3.1-.4.1-.2 0-.4 0-.5-.1-.1-.1-.3-.2-.3-.4-.1-.2-.1-.4-.1-.7h-.8c0 .4.1.8.2 1.1.1.3.4.5.6.6.2.1.5.2.9.2zm-4.6-.2H106.3v-.1-.3-.5-.6-.6c0-.4.1-.8.2-1.1.1-.3.3-.5.5-.7s.5-.3.9-.3v-.6-.2c-.3 0-.5.1-.7.2-.2.1-.4.2-.6.4-.2.2-.3.4-.4.7v-.5-.4-.1H105.4V67.5zm-1.8-2c0 .3 0 .5-.1.7-.1.2-.2.3-.3.5-.1.1-.2.2-.4.2-.1 0-.3.1-.4.1-.3 0-.5-.1-.6-.2-.1-.1-.2-.3-.2-.6 0-.2 0-.3.1-.4.1-.1.2-.3.3-.4l.6-.3c.2-.1.5-.1.9-.1v.4c.1 0 .1.1.1.1zm-1.3 2.1c.2 0 .4 0 .6-.1s.4-.2.5-.3c.1-.1.3-.3.4-.5V67.6h.8v-.2-.5-.7-.9-1.1c0-.6-.2-1.1-.5-1.4-.3-.3-.7-.5-1.3-.5-.4 0-.7.1-.9.2-.3.1-.5.3-.6.6-.1.3-.2.6-.2.9H101.9c0-.4.1-.6.2-.8.1-.2.4-.3.7-.3.3 0 .5.1.6.3.1.2.2.4.2.8v.4c-.6 0-1.2.1-1.6.2-.4.2-.7.4-.9.6-.2.3-.3.6-.3.9 0 .3.1.5.2.7.1.2.3.4.5.5.2.3.5.3.8.3zm-1.9 0s0-.1 0 0v-.3-.4h-2.2s.1-.1.2-.4c.2-.3.4-.7.7-1.2.3-.5.7-1.2 1.2-2v-.2-.5h-3.1v.8h2l-.1.1c0 .1-.1.2-.2.4s-.2.4-.4.7c-.2.3-.4.6-.6 1-.2.4-.5.9-.9 1.4v.6h1.7c.6-.1 1.1-.1 1.7 0zm-4.5-5.7c.1 0 .2 0 .3-.1.1-.1.2-.1.2-.2s.1-.2.1-.3c0-.1 0-.2-.1-.3 0-.1-.1-.2-.2-.2s-.2-.1-.3-.1c-.2 0-.4.1-.5.2-.1.1-.2.3-.2.4 0 .2.1.3.2.4.1.1.3.2.5.2zm-.5 5.6h.9v-2-1.6-1-.4h-.8v4.7c-.1.2-.1.3-.1.3zm-1.1 0v-.1-.4-.8-1.3-1.8-2.4H93.4v6.8H94.3zm-2.6-2c0 .3 0 .5-.1.7-.1.2-.2.3-.3.5-.1.1-.2.2-.4.2-.1 0-.3.1-.4.1-.3 0-.5-.1-.6-.2-.1-.1-.2-.3-.2-.6 0-.2 0-.3.1-.4.1-.1.2-.3.3-.4.2-.1.3-.2.6-.3.2-.1.5-.1.9-.1v.4c.1 0 .1.1.1.1zm-1.4 2.1c.2 0 .4 0 .6-.1.2-.1.4-.2.5-.3.1-.1.3-.3.4-.5V67.6h.8v-.2-.5-.7-.9-1.1c0-.6-.2-1.1-.5-1.4-.3-.3-.7-.5-1.3-.5-.4 0-.7.1-.9.2-.3.1-.5.3-.6.6-.1.3-.2.6-.2.9H89.9c0-.4.1-.6.2-.8.1-.2.4-.3.7-.3.3 0 .5.1.6.3.1.2.2.4.2.8v.4c-.6 0-1.2.1-1.6.2-.4.2-.7.4-.9.6-.2.3-.3.6-.3.9 0 .3.1.5.2.7.1.2.3.4.5.5.3.3.5.3.8.3zM86.4 63c.2 0 .4.1.5.2.1.1.3.3.3.6.1.3.1.5.1.9-.5 0-.9 0-1.2.1h-.8c0-.2 0-.5.1-.7.1-.2.1-.4.2-.6.1-.2.2-.3.3-.4.2 0 .4-.1.5-.1zm0 4.7c.3 0 .6-.1.9-.2.3-.1.5-.4.7-.6.2-.3.3-.6.4-1H87.5c-.1.4-.2.7-.3.9-.2.2-.4.3-.7.3-.3 0-.6-.1-.8-.4-.2-.3-.3-.7-.3-1.3h3c0-.4 0-.8-.1-1.2-.1-.3-.2-.7-.3-.9-.2-.3-.4-.5-.6-.6-.3-.1-.6-.2-.9-.2-.3 0-.6.1-.9.2-.2.1-.5.3-.6.5-.2.2-.3.5-.4.8-.1.3-.1.7-.1 1 0 .4 0 .8.1 1.1.1.3.2.6.4.9l.6.6c.2.1.5.1.8.1zm-4.8-.2H82.5v-.1-.3-.5-.6-.6c0-.4.1-.8.2-1.1.1-.3.3-.5.5-.7.2-.2.5-.3.9-.3v-.6-.2c-.3 0-.5.1-.7.2-.2.1-.4.2-.6.4-.2.2-.3.4-.4.7v-.5-.4-.1H81.6V67.5zM76.9 63c.2 0 .4.1.5.2.1.1.3.3.3.6.1.3.1.5.1.9-.5 0-.9 0-1.2.1h-.8c0-.2 0-.5.1-.7.1-.2.1-.4.2-.6.1-.2.2-.3.3-.4.2 0 .4-.1.5-.1zm0 4.7c.3 0 .6-.1.9-.2.3-.1.5-.4.7-.6.2-.3.3-.6.4-1H78c-.1.4-.2.7-.3.9-.2.2-.4.3-.7.3-.3 0-.6-.1-.8-.4-.2-.3-.3-.7-.3-1.3h3c0-.4 0-.8-.1-1.2-.1-.3-.2-.7-.3-.9-.2-.3-.4-.5-.6-.6-.3-.1-.6-.2-.9-.2-.3 0-.6.1-.9.2-.2.1-.5.3-.6.5-.2.2-.3.5-.4.8-.1.3-.1.7-.1 1 0 .4 0 .8.1 1.1.1.3.2.6.4.9l.6.6c.2.1.5.1.8.1z"/>
  <path class="st1" d="M68 75.3h.7v2.8c0 .4.1.7.2.9.1.2.3.4.5.5.2.1.4.2.7.2h.5c.2 0 .4-.1.5-.1v-.1-.3-.4c-.1.1-.3.1-.4.1h-.3c-.2 0-.4-.1-.5-.2-.1-.1-.2-.4-.2-.7v-.9-.9-.8h1.5v-.1-.2-.4h-1.5V74v-.5-.2h-.8v1.4h-.6v.6m-1.6 4.4H67.6v-.2-.5-.6-.7-.7-.6-.4c0-.3-.1-.6-.2-.8-.1-.2-.2-.4-.4-.5-.2-.1-.4-.2-.7-.2-.2 0-.5 0-.7.1-.2.1-.4.2-.5.4-.1.2-.3.4-.4.6v-.4-.3-.1H63.9v4.7h.9v-.1-.3-.5-.5-.5-.4c0-.2 0-.4.1-.6.1-.2.1-.4.2-.5.1-.2.2-.3.4-.4.1-.1.3-.1.5-.1s.3 0 .4.1c.1.1.2.2.2.4s.1.3.1.6v3zM61.2 75c.2 0 .4.1.5.2.1.1.3.3.3.6.1.3.1.5.1.9-.5 0-.9 0-1.2.1h-.8c0-.2 0-.5.1-.7.1-.2.1-.4.2-.6.1-.2.2-.3.3-.4.2 0 .4-.1.5-.1zm.1 4.7c.3 0 .6-.1.9-.2.3-.1.5-.4.7-.6.2-.3.3-.6.4-1H62.4c-.1.4-.2.7-.3.9-.2.2-.4.3-.7.3-.3 0-.6-.1-.8-.4-.2-.3-.3-.7-.3-1.3h3c0-.4 0-.8-.1-1.2-.1-.4-.2-.7-.3-.9-.2-.3-.4-.5-.6-.6-.3-.1-.6-.2-.9-.2-.3 0-.6.1-.9.2-.2.1-.5.3-.6.5-.2.2-.3.5-.4.8-.1.3-.1.7-.1 1 0 .4 0 .8.1 1.1.1.3.2.6.4.9l.6.6c.1.1.4.1.8.1zm-3.4-5.8c.1 0 .2 0 .3-.1.1-.1.2-.1.2-.2s.1-.2.1-.3c0-.1 0-.2-.1-.3 0-.1-.1-.2-.2-.2-.1-.1-.2-.1-.3-.1-.2 0-.4.1-.5.2-.1.1-.2.3-.2.4 0 .2.1.3.2.4.2.1.3.2.5.2zm-.4 5.6h.9v-2-1.6-1-.4h-.8v4.7c-.1.2-.1.3-.1.3zm-7.1-.1h.9v-.1-.4-.6-.6-.7c0-.3 0-.5.1-.7.1-.2.1-.4.3-.6.1-.2.2-.3.4-.4.1-.1.3-.1.4-.1.1 0 .3 0 .4.1.1.1.2.2.2.4s.1.3.1.5v3h.9v-.1-.4-.5-.6-.6c0-.2 0-.4.1-.6 0-.2.1-.4.2-.5.1-.1.2-.3.3-.3.1-.1.3-.1.4-.1.2 0 .4.1.5.3.1.2.2.4.2.8V79.8h.8v-.1-.4-.6-.7-.8-.8c0-.2 0-.4-.1-.6 0-.2-.1-.4-.2-.5-.1-.2-.2-.3-.4-.4-.2-.1-.4-.1-.6-.1-.2 0-.4 0-.6.1-.2.1-.3.2-.5.3-.1.1-.3.3-.4.5 0-.2-.1-.4-.2-.6s-.2-.3-.4-.4c-.2-.1-.4-.1-.6-.1-.2 0-.4.1-.6.2-.2.1-.4.2-.5.4-.2.2-.3.4-.4.6v-.5-.3-.1H50.3v4.4c.1 0 .1.1.1.1zm-1.8-1.9c0 .3 0 .5-.1.7-.1.2-.2.3-.3.5-.1.1-.2.2-.4.2-.1 0-.3.1-.4.1-.3 0-.5-.1-.6-.2-.1-.1-.2-.3-.2-.6 0-.2 0-.3.1-.4.1-.1.2-.3.3-.4l.6-.3c.2-.1.5-.1.9-.1v.4c.1 0 .1.1.1.1zm-1.3 2.1c.2 0 .4 0 .6-.1.2-.1.4-.2.5-.3.1-.1.3-.3.4-.5V79.6h.8v-.2-.5-.7-.9-1.1c0-.6-.2-1.1-.5-1.4-.3-.3-.7-.5-1.3-.5-.4 0-.7.1-.9.2-.3.1-.5.3-.6.6-.1.3-.2.6-.2.9H46.9c0-.4.1-.6.2-.8.1-.2.4-.3.7-.3.3 0 .5.1.6.3.1.2.2.4.2.8v.4c-.6 0-1.2.1-1.6.2-.4.2-.7.4-.9.6-.2.3-.3.6-.3.9 0 .3.1.5.2.7.1.2.3.4.5.5.2.3.5.3.8.3zm-4.2-.1H44v-.1-.3-.5-.6-.6c0-.4.1-.8.2-1.1.1-.3.3-.5.5-.7.2-.2.5-.3.9-.3v-.6-.2c-.3 0-.5.1-.7.2-.2.1-.4.2-.6.4-.2.2-.3.4-.4.7v-.5-.4-.1H43.1V79.5zm-2.8-.5c-.2 0-.4-.1-.6-.2-.2-.2-.3-.4-.4-.7-.1-.3-.1-.7-.1-1.1 0-.3 0-.5.1-.8 0-.2.1-.4.2-.6.1-.2.2-.3.3-.4.1-.1.3-.1.5-.1s.3.1.5.2c.1.1.2.2.3.4.1.2.2.4.2.6 0 .2.1.5.1.8 0 .4 0 .8-.1 1.1-.1.3-.2.5-.4.7-.1 0-.3.1-.6.1zm0 .7c.4 0 .8-.1 1.1-.3.3-.2.5-.5.7-.9.2-.4.2-.9.3-1.5 0-.4 0-.7-.1-1.1-.1-.3-.2-.6-.4-.8-.2-.2-.4-.4-.6-.5-.3-.1-.5-.2-.9-.2-.3 0-.6.1-.9.2-.2.1-.5.3-.6.5-.2.2-.3.5-.4.8-.1.3-.1.7-.1 1 0 .6.1 1 .2 1.4.1.4.4.7.7.9.2.4.6.5 1 .5zm-4.2 0c.2 0 .5 0 .7-.1.2-.1.4-.1.5-.3.2-.1.3-.3.4-.4.1-.2.1-.4.1-.6 0-.2 0-.3-.1-.5 0-.1-.1-.3-.2-.4-.1-.1-.3-.2-.5-.4-.2-.1-.4-.2-.7-.3-.3-.1-.5-.2-.7-.3-.2-.1-.3-.2-.4-.3-.1-.1-.1-.3-.1-.4 0-.1 0-.2.1-.4.1-.1.2-.2.3-.2.1-.1.3-.1.5-.1.3 0 .5.1.7.3.1.2.2.5.2.9h.8c0-.4-.1-.7-.2-1-.1-.3-.3-.5-.6-.7-.3-.2-.6-.2-1-.2s-.7.1-.9.2c-.3.1-.4.3-.6.5-.1.2-.2.4-.2.7 0 .2 0 .4.1.5.1.2.1.3.3.4.1.1.3.3.5.4.2.1.5.2.8.3.3.1.5.2.6.3.2.1.3.2.3.3.1.1.1.2.1.4s0 .3-.1.4c-.1.1-.2.2-.3.2-.1 0-.3.1-.4.1-.2 0-.4 0-.5-.1-.1-.1-.3-.2-.3-.4-.1-.2-.1-.4-.1-.7h-.8c0 .4.1.8.2 1.1.1.3.4.5.6.6.2.1.5.2.9.2zM31.8 75c.2 0 .4.1.5.2.1.1.3.3.3.6.1.3.1.5.1.9-.5 0-.9 0-1.2.1h-.8c0-.2 0-.5.1-.7.1-.2.1-.4.2-.6.1-.2.2-.3.3-.4.2 0 .3-.1.5-.1zm0 4.7c.3 0 .6-.1.9-.2.3-.1.5-.4.7-.6.2-.3.3-.6.4-1H32.9c-.1.4-.2.7-.3.9-.2.2-.4.3-.7.3-.3 0-.6-.1-.8-.4-.2-.3-.3-.7-.3-1.3h3c0-.4 0-.8-.1-1.2-.1-.4-.2-.7-.3-.9-.2-.3-.4-.5-.6-.6-.3-.1-.6-.2-.9-.2-.3 0-.6.1-.9.2-.2.1-.5.3-.6.5-.2.2-.3.5-.4.8-.1.3-.1.7-.1 1 0 .4 0 .8.1 1.1.1.3.2.6.4.9l.6.6c.1.1.4.1.8.1zm-4.2 0c.2 0 .5 0 .7-.1.2-.1.4-.1.5-.3s.3-.3.4-.4c.1-.2.1-.4.1-.6 0-.2 0-.3-.1-.5 0-.1-.1-.3-.2-.4-.1-.1-.3-.2-.5-.4-.2-.1-.4-.2-.7-.3-.3-.1-.5-.2-.7-.3-.2-.1-.3-.2-.4-.3-.1-.1-.1-.3-.1-.4 0-.1 0-.2.1-.4.1-.1.2-.2.3-.2.1-.1.3-.1.5-.1.3 0 .5.1.7.3.1.2.2.5.2.9h.8c0-.4-.1-.7-.2-1-.1-.3-.3-.5-.6-.7-.3-.2-.6-.2-1-.2s-.7.1-.9.2c-.3.1-.4.3-.6.5-.1.2-.2.4-.2.7 0 .2 0 .4.1.5.1.2.1.3.3.4.1.1.3.3.5.4.2.1.5.2.8.3.3.1.5.2.6.3.2.1.3.2.3.3.1.1.1.2.1.4s0 .3-.1.4c-.1.1-.2.2-.3.2-.1 0-.3.1-.4.1-.2 0-.4 0-.5-.1-.1-.1-.3-.2-.3-.4-.1-.2-.1-.4-.1-.7h-.8c0 .4.1.8.2 1.1.1.3.4.5.6.6.1.1.5.2.9.2zm-3.4-2.2c0 .3 0 .5-.1.7-.1.2-.2.3-.3.5-.1.1-.2.2-.4.2-.1 0-.3.1-.4.1-.3 0-.5-.1-.6-.2-.1-.1-.2-.3-.2-.6 0-.2 0-.3.1-.4.1-.1.2-.3.3-.4l.6-.3c.2-.1.5-.1.9-.1v.4c.1 0 .1.1.1.1zm-1.3 2.1c.2 0 .4 0 .6-.1.2-.1.4-.2.5-.3.1-.1.3-.3.4-.5V79.6h.8v-.2-.5-.7-.9-1.1c0-.6-.2-1.1-.5-1.4-.3-.3-.7-.5-1.3-.5-.4 0-.7.1-.9.2-.3.1-.5.3-.6.6-.1.3-.2.6-.2.9H22.5c0-.4.1-.6.2-.8.1-.2.4-.3.7-.3.3 0 .5.1.6.3.1.2.2.4.2.8v.4c-.6 0-1.2.1-1.6.2-.4.2-.7.4-.9.6-.2.3-.3.6-.3.9 0 .3.1.5.2.7.1.2.3.4.5.5.2.3.5.3.8.3z"/>
  <path class="st1" d="M106.2 79.6c.2 0 .4-.1.5-.2.1-.1.2-.3.2-.5 0-.1 0-.2-.1-.3 0-.1-.1-.2-.2-.2-.1-.1-.2-.1-.3-.1-.1 0-.2 0-.3.1-.1.1-.2.1-.2.2-.1.1-.1.2-.1.4 0 .1 0 .3.1.4 0 .1.1.2.2.2h.2M103 79c-.2 0-.4-.1-.6-.2-.2-.2-.3-.4-.4-.7-.1-.3-.1-.7-.1-1.1 0-.3 0-.5.1-.8 0-.2.1-.4.2-.6.1-.2.2-.3.3-.4.1-.1.3-.1.5-.1s.3.1.5.1c.1.1.2.2.3.4.1.2.2.4.2.6 0 .2.1.5.1.8 0 .4 0 .8-.1 1.1-.1.3-.2.5-.4.7-.1.1-.3.2-.6.2zm0 .7c.4 0 .8-.1 1.1-.3.3-.2.5-.5.7-.9.2-.4.2-.9.3-1.5 0-.4 0-.7-.1-1.1-.1-.3-.2-.6-.4-.8-.2-.2-.4-.4-.6-.5-.3-.1-.5-.2-.9-.2-.3 0-.6.1-.9.2-.2.1-.5.3-.6.5-.2.2-.3.5-.4.8-.1.3-.1.7-.1 1 0 .6.1 1 .2 1.4.1.4.4.7.7.9.2.4.6.5 1 .5zm-4.4 0c.3 0 .5 0 .7-.1.2-.1.4-.2.6-.4.2-.2.3-.4.4-.7.1-.3.2-.6.2-1H99.6c0 .3-.1.6-.2.8-.1.2-.2.4-.3.5s-.4.2-.5.2c-.4 0-.6-.2-.8-.5-.2-.3-.3-.8-.3-1.4 0-.4 0-.8.1-1 .1-.3.2-.5.4-.7s.4-.2.6-.2c.2 0 .4.1.5.2.1.1.2.3.3.5.1.2.1.5.1.8H100.4c0-.4-.1-.8-.2-1.1-.1-.3-.4-.6-.6-.7-.3-.2-.6-.3-1-.3-.3 0-.6.1-.9.2-.3.1-.5.3-.6.6-.2.2-.3.5-.4.8-.1.3-.1.7-.1 1.1 0 .4 0 .8.1 1.1.1.3.2.6.4.8.2.2.4.4.6.5h.9zm-3.4-5.8c.1 0 .2 0 .3-.1.1-.1.2-.1.2-.2s.1-.2.1-.3c0-.1 0-.2-.1-.3 0-.1-.1-.2-.2-.2-.1-.1-.2-.1-.3-.1-.2 0-.4.1-.5.2-.1.1-.2.3-.2.4 0 .2.1.3.2.4.2.1.3.2.5.2zm-.4 5.6h.9v-2-1.6-1-.4h-.8v4.7c-.1.2-.1.3-.1.3zm-3-.5c-.3 0-.6-.2-.8-.5-.2-.3-.3-.8-.3-1.5 0-.3 0-.5.1-.8 0-.2.1-.4.2-.6.1-.2.2-.3.3-.4.1-.1.3-.2.4-.2.4 0 .6.2.8.5.2.4.3.9.3 1.6 0 .4 0 .8-.1 1-.1.3-.2.5-.4.6-.1.3-.3.3-.5.3zm2 .7v-1.9-1.7-1.4-1.1-.7-.2H92.8v2.5c-.1-.2-.2-.3-.3-.4-.1-.1-.3-.2-.4-.3-.2-.1-.4-.1-.6-.1-.3 0-.6.1-.8.2-.2.1-.4.3-.6.6-.1.2-.3.5-.3.9-.1.3-.1.7-.1 1.1 0 .5.1 1 .2 1.4.1.4.3.7.6.9.3.2.6.3 1 .3.2 0 .4 0 .6-.1.2-.1.3-.2.5-.3.1-.1.3-.3.4-.5v.9h.7c0-.1.1-.1.1-.1zM87.2 75c.2 0 .4.1.5.2.1.1.3.3.3.6.1.3.1.5.1.9-.5 0-.9 0-1.2.1h-.8c0-.2 0-.5.1-.7.1-.2.1-.4.2-.6.1-.2.2-.3.3-.4.2 0 .3-.1.5-.1zm0 4.7c.3 0 .6-.1.9-.2.3-.1.5-.4.6-.6.2-.3.3-.6.4-1H88.2c-.1.4-.2.7-.3.9-.2.2-.4.3-.7.3-.3 0-.6-.1-.8-.4-.2-.3-.3-.7-.3-1.3h3c0-.4 0-.8-.1-1.2-.1-.4-.2-.7-.3-.9-.2-.3-.4-.5-.6-.6-.3-.1-.6-.2-.9-.2-.3 0-.6.1-.9.2-.2.1-.5.3-.6.5-.2.2-.3.5-.4.8-.1.3-.1.7-.1 1 0 .4 0 .8.1 1.1.1.3.2.6.4.9l.6.6c.3.1.6.1.9.1zm0-5.7l.1-.1.4-.4c.2-.2.4-.4.7-.8 0 0-.1 0-.2-.1s-.3-.2-.5-.3c0 0 0 .1-.1.2s-.2.3-.3.5-.3.5-.6.8l.1.1c.1-.1.2 0 .4.1zm-8.9 5.4h.9v-.1-.4-.6-.6-.7c0-.3 0-.5.1-.7.1-.2.1-.4.3-.6.1-.2.2-.3.4-.4.1-.1.3-.1.4-.1.1 0 .3 0 .4.1.1.1.2.2.2.4s.1.3.1.5v3h.9v-.1-.4-.5-.6-.6c0-.2 0-.4.1-.6 0-.2.1-.4.2-.5.1-.1.2-.3.3-.3.1-.1.3-.1.4-.1.2 0 .4.1.5.3.1.2.2.4.2.8V79.8h.8v-.1-.4-.6-.7-.8-.8c0-.2 0-.4-.1-.6 0-.2-.1-.4-.2-.5-.1-.2-.2-.3-.4-.4-.2-.1-.4-.1-.6-.1-.2 0-.4 0-.6.1-.2.1-.3.2-.5.3-.1.1-.3.3-.4.5 0-.2-.1-.4-.2-.6-.1-.2-.2-.3-.4-.4-.2-.1-.4-.1-.6-.1-.2 0-.4.1-.6.2-.2.1-.4.2-.5.4-.2.2-.3.4-.4.6v-.5-.3-.1H78.2v4.4c.1 0 .1.1.1.1zm-4.8-.4c-.2 0-.4-.1-.6-.2-.2-.2-.3-.4-.4-.7-.1-.3-.1-.7-.1-1.1 0-.3 0-.5.1-.8 0-.2.1-.4.2-.6.1-.2.2-.3.3-.4.1-.1.3-.1.5-.1s.3.1.5.1c.1.1.2.2.3.4.1.2.2.4.2.6 0 .2.1.5.1.8 0 .4 0 .8-.1 1.1-.1.3-.2.5-.4.7-.1.1-.3.2-.6.2zm0 .7c.4 0 .8-.1 1.1-.3.3-.2.5-.5.7-.9.2-.4.2-.9.3-1.5 0-.4 0-.7-.1-1.1-.1-.3-.2-.6-.4-.8-.2-.2-.4-.4-.6-.5-.3-.1-.5-.2-.9-.2-.3 0-.6.1-.9.2-.2.1-.5.3-.6.5-.2.2-.3.5-.4.8-.1.3-.1.7-.1 1 0 .6.1 1 .2 1.4.1.4.4.7.7.9.2.4.6.5 1 .5z"/>
  <path fill="none" stroke="#000" stroke-width=".85" stroke-miterlimit="22.926" d="M62.7 86.2L48 108.3l-6.1-20.6L1.5 90 .4.4 119.9 6l-.5 79.6z"/>
</svg>