<svg xmlns="http://www.w3.org/2000/svg" width="255.7" height="72.3" viewBox="0 0 255.7 72.3">
  <style>
    .st0{fill-rule:evenodd;clip-rule:evenodd;fill:#bbc7d7}.st1{fill:#013443}
  </style>
  <path class="st0" d="M14 .4C19.9.4 253.3 0 253.3 0v.4L226.9 29l27.2 28.7H14L40.4 29 14 .4z"/>
  <path class="st0" d="M10.4 3.9h.4c.3 0 .5.2.8.6.4.5.6.7.9.7V6L1.6 17 0 14.9l10.4-11M4.1 19.8c0-.3.1-.4.2-.4h.2l9.8-10.6h.8c.8 0 1.2.4 1.2 1.3v.9l-10 10.6h-.4c-.2-.4-.5-.6-.9-.9-.3-.3-.5-.6-.5-.9h-.4zm5.1 4.3l9.6-10.6h.8c.8 0 1.2.6 1.2 1.7v.4l-10 10.6h-.4l-.8-.8c-.3-.3-.4-.6-.4-.9v-.4zm14.4-6h.8c.3 0 .6.1.8.4.3.3.4.6.4.9v.4L15.2 31.2 12.9 29l10.7-10.9zm4.9 4.7h.4c.3 0 .6.1.8.4.3.3.4.6.4.8v.4L19.7 36.2l-2.1-2.4 10.9-11zm3.9 5h.4c1.1 0 1.6.4 1.6 1.3v.9l-10 10.1h-.8l-1.2-1.3v-.4l10-10.6zm223.3 33.4l-10.1 10.1h-4.1l10-10.1h4.2zm-9.6 0l-9.6 10.1h-4.1l10-10.1h3.7zm-8.4 0l-10 10.1H224l9.6-10.1h4.1zm-9.2 0l-10 10.1h-3.7l9.6-10.1h4.1zm-8.8 0l-9.6 10.1H206l10-10.1h3.7zm-9.2 0l-10 10.1h-3.7l10-10.1h3.7zm-8.4 0l-10 10.1H188l10-10.1h4.1zm-9.7 0l-9.6 10.1h-4.1l10.1-10.1h3.6zm-8.3 0l-10 10.1h-3.7l9.6-10.1h4.1zm-9.3 0l-10 10.1h-3.7l9.6-10.1h4.1zm-8.8 0l-9.6 10.1h-4.1l10-10.1h3.7zm-10.8-.4c.1 0 .2 0 .4.1.1 0 .4.1.6.1.3.1.5.2.6.2l-10 10.1h-3.7l9.2-9.7c.4-.4.9-.7 1.4-.7.6-.1 1.1-.1 1.5-.1zm-6.8.4l-10 10.1h-4.3l10.2-10.1h4.1zm-9.6 0l-9.6 10.1h-4.3l10.2-10.1h3.7zm-8.4 0l-10 10.1h-3.9l9.8-10.1h4.1zm-10.8-.4c.3 0 .6.1.8.2.2.1.5.2.8.2l-10 10.1h-3.9l9.2-9.7c.6-.4 1-.7 1.4-.7.4-.1 1-.1 1.7-.1zm-7.2.4l-9.6 10.1h-4.3l10.2-10.1h3.7zm-9.2 0l-10 10.1h-3.9l10.2-10.1h3.7zm-9.2 0v.4l-9.2 9.7h-4.3l10.2-10.1H94zm-10-.4c.1.1.3.2.6.2.3.1.6.2 1 .2l-10 10.1h-4.3l9.2-9.7c.7-.4 1.3-.7 1.7-.7.5-.1 1.1-.1 1.8-.1zm-8 .4v.4l-9.2 9.7h-3.9l10-10.1H76zm-8.4 0l-10 10.1h-3.9l9.6-10.1h4.3zm-9.3 0v.4l-9.2 9.7h-4.3l10.1-10.1h3.4zm-10.4-.4c.1 0 .3 0 .4.1.1 0 .4.1.6.1.2.1.5.2.6.2l-9.6 10.1h-4.3l9.2-9.7c.4-.4.9-.7 1.5-.7.7-.1 1.2-.1 1.6-.1zm-7.5.4v.4l-9.2 9.7h-3.9l9.6-10.1h3.5zm-10.1-.4c.1.1.4.2.6.2.3.1.6.2 1 .2l-10 10.1h-4.3l9.6-9.7c.4-.4.8-.7 1.3-.7.5-.1 1.1-.1 1.8-.1zm-11 .4h3.1v.4l-9.2 9.7c-.4.7-1 1-1.9 1-.9-.1-1.5-.1-2-.1v-.8l10-10.2zm-10.1.4c.4-.4.8-.7 1.3-.7.5-.1 1-.1 1.7-.1.3 0 .5.1.8.2.3.1.6.2.8.2l-10 10.1c-.6.7-1.3 1-2.1 1-.7-.1-1.3-.1-1.7-.1v-.8l9.2-9.8z"/>
  <path class="st1" d="M195.1 13.9c.5 0 .9.2 1.2.4.3.3.6.7.7 1.3.2.5.3 1.2.3 2-1.1.1-2 .1-2.7.1-.7 0-1.4 0-1.8.1 0-.5.1-1 .2-1.5s.3-.9.5-1.2c.2-.3.4-.6.7-.8.2-.3.6-.4.9-.4zm.1 10.2c.7 0 1.4-.2 2-.5.6-.3 1-.8 1.4-1.4.4-.6.6-1.3.8-2.2-.6 0-1.1 0-1.5-.1h-.5c-.1.9-.4 1.6-.7 2-.4.5-.8.7-1.4.7-.7 0-1.3-.3-1.7-1-.4-.6-.7-1.5-.7-2.7 1.4 0 2.6-.1 3.5-.1 1 0 1.7 0 2.2-.1h.8c0-.9 0-1.8-.1-2.5-.1-.8-.4-1.4-.7-2-.3-.6-.8-1-1.3-1.3-.5-.3-1.2-.5-2-.5-.7 0-1.3.1-1.9.4-.5.3-1 .7-1.4 1.2-.4.5-.6 1.1-.8 1.8-.2.7-.3 1.5-.3 2.3 0 .9.1 1.7.2 2.4.2.7.4 1.3.8 1.9.3.5.8.9 1.4 1.2.4.3 1.1.5 1.9.5zm-11.4-1.5c-.8 0-1.3-.4-1.8-1.1-.4-.7-.6-1.8-.6-3.3 0-.6.1-1.2.2-1.7s.3-1 .5-1.4c.2-.4.4-.7.7-.9.3-.2.6-.3.9-.3.8 0 1.4.4 1.8 1.2.4.8.6 1.9.6 3.4 0 .9-.1 1.7-.3 2.3-.2.6-.5 1.1-.8 1.4-.3.2-.7.4-1.2.4zm4.4 1.5V20v-3.7-3.1-2.4-1.5-.5H186.2c0 1.2.1 2.2.1 3.1v2.4c-.2-.4-.4-.7-.7-.9-.3-.3-.6-.5-1-.6-.4-.2-.8-.2-1.2-.2-.7 0-1.2.2-1.7.5s-.9.7-1.2 1.3c-.3.5-.6 1.2-.7 1.9-.2.7-.2 1.5-.2 2.3 0 1.2.2 2.2.5 3 .3.8.7 1.5 1.3 1.9.6.4 1.3.7 2.1.7.4 0 .8-.1 1.2-.2.4-.1.7-.4 1.1-.6.3-.3.6-.7.8-1.1v2.1h1.5c0-.3 0-.3.1-.3zm-20.7.1c.7 0 1.3-.1 1.9-.3.6-.2 1.1-.5 1.5-.8.4-.4.7-.8 1-1.3.2-.5.3-1.1.3-1.8s-.1-1.3-.3-1.8c-.2-.5-.5-1-1-1.3-.4-.3-.9-.6-1.4-.7.5-.1.9-.4 1.3-.7.4-.3.7-.7.9-1.3.2-.5.3-1.1.3-1.8 0-.6-.1-1.1-.3-1.6-.2-.5-.5-1-.9-1.3-.4-.4-.8-.7-1.4-.9-.5-.2-1.1-.3-1.8-.3-1.1 0-1.9.2-2.7.6-.7.4-1.2 1.1-1.5 1.9-.3.8-.4 1.9-.3 3.1h2.1c-.1-.8 0-1.6.1-2.2.2-.6.4-1 .8-1.4.4-.3.8-.5 1.4-.5.5 0 1 .1 1.3.3.4.2.6.6.8 1 .2.4.3.9.3 1.5 0 .4-.1.7-.1 1-.1.3-.2.6-.4.8-.2.2-.4.4-.6.5-.3.2-.8.3-1.3.4-.5.1-1.1.1-1.8 0V16.9h1.7c.5.1.9.1 1.2.3.4.2.8.5 1 .9.3.4.4 1 .4 1.7 0 .5-.1.9-.2 1.2-.1.3-.3.6-.6.8-.2.2-.5.4-.8.5-.3.1-.6.1-1 .1-.9 0-1.6-.4-2-1.1-.4-.7-.6-1.7-.5-3.1-.4 0-.7 0-1-.1h-1c-.1 1.3 0 2.4.3 3.2.3.9.8 1.5 1.5 2 .8.6 1.7.9 2.8.9zm-14.1-5.4c.2-.4.5-.9.9-1.7.4-.8.9-1.7 1.5-2.9s1.3-2.5 2.1-3.9v8.6h-4.5zm4.5 4.9h2v-.8-2.4h1.3v-1.2-.4h-1.5v-4.5-5.9l-2.7-.1s-.1.3-.4.8c-.3.5-.7 1.2-1.2 2.1-.5.9-1.1 2-1.8 3.3-.7 1.3-1.5 2.7-2.4 4.3v1.7c1.3 0 2.5 0 3.6-.1h2.9v1.6c.2.5.2 1 .2 1.6zm-12.5.2h2c-.1-1.8 0-3.5.3-5.1.3-1.6.7-3.1 1.3-4.5.6-1.4 1.4-2.7 2.4-3.9v-.5-1.5H143V10.1h6.5c-.9 1.1-1.7 2.3-2.3 3.7-.6 1.4-1.1 2.9-1.4 4.6-.4 1.8-.5 3.6-.4 5.5zm-5-.1c.4 0 .8-.1 1-.4.2-.3.4-.6.4-1.1 0-.3-.1-.5-.2-.8-.1-.2-.3-.4-.5-.5-.2-.1-.5-.2-.8-.2-.3 0-.5.1-.7.2-.2.1-.4.3-.5.5-.1.2-.2.5-.2.8 0 .3.1.6.2.8.1.2.3.4.5.5.3.2.5.2.8.2zm-7.6-7.8c.5 0 1 .1 1.3.4.3.3.6.6.7 1.1.2.5.2 1 .2 1.6 0 .8-.1 1.4-.3 1.9-.2.5-.5.9-.8 1.1-.3.2-.7.4-1.2.4s-.9-.1-1.3-.4c-.4-.3-.7-.8-1-1.4-.3-.7-.4-1.5-.6-2.6.2-.4.4-.7.7-1.1.3-.3.6-.6 1-.8.4-.1.9-.2 1.3-.2zm-.1 8.2c.7 0 1.3-.1 1.8-.3.6-.2 1-.5 1.4-1 .4-.4.7-1 .9-1.6.2-.7.3-1.4.3-2.3 0-.6-.1-1.2-.2-1.8-.2-.5-.4-1-.7-1.4-.3-.4-.7-.7-1.2-.9-.5-.2-1.1-.3-1.8-.4-.7 0-1.3.2-1.9.5-.6.3-1.1.8-1.5 1.3v-.1c0-1.3.1-2.4.3-3.4.2-.9.5-1.7.9-2.2.4-.5.9-.8 1.6-.8.5 0 .9.2 1.2.5.3.3.5.7.7 1.3.1.6.2 1.2.2 2h2c0-1.2-.1-2.2-.4-3-.3-.8-.8-1.4-1.4-1.8-.6-.4-1.4-.6-2.3-.6-1.1 0-2 .3-2.8 1-.7.6-1.3 1.6-1.6 2.8-.4 1.2-.5 2.7-.5 4.4 0 2.6.4 4.6 1.2 5.9.9 1.2 2.1 1.9 3.8 1.9zm-7.1-.5v-1.9H120c.8-.6 1.6-1.2 2.3-1.9.7-.7 1.3-1.4 1.9-2.2.5-.8.9-1.6 1.2-2.5.3-.9.5-1.8.5-2.7 0-.9-.2-1.6-.5-2.3-.3-.7-.8-1.2-1.4-1.5-.6-.4-1.4-.5-2.3-.6-.8 0-1.6.2-2.1.5-.6.3-1.1.7-1.4 1.3-.3.6-.6 1.2-.7 2-.1.8-.1 1.7 0 2.7.6 0 1.1-.1 1.4-.1h.5c-.2-1.5-.1-2.7.3-3.5.4-.8 1-1.2 1.9-1.2.5 0 .9.1 1.2.3.3.2.6.5.7.9.2.4.3.9.3 1.4 0 .9-.2 1.7-.5 2.5s-.8 1.6-1.3 2.3c-.6.7-1.3 1.5-2 2.2-.8.7-1.6 1.4-2.6 2.1v2h4.9c.9.2 2.1.2 3.3.2zm-19.6 5s0-.1.1-.3c.1-.2.2-.6.3-1.1.1-.5.3-1.1.5-2 .2-.8.5-1.8.8-3 .3-1.2.7-2.6 1.2-4.2s1-3.5 1.6-5.6h-.5c-.4 0-.9-.1-1.5-.1 0 0-.1.3-.2 1s-.4 1.7-.7 3.1c-.3 1.4-.8 3.2-1.3 5.3 0 0-.1-.2-.2-.6-.1-.4-.3-1-.5-1.8s-.4-1.7-.7-2.8c-.3-1.1-.6-2.3-.9-3.6h-.5c-.4 0-.9 0-1.6.1 0 0 .1.4.4 1.2.3.8.6 2 1.1 3.7.5 1.6 1.1 3.7 1.9 6.2 0 0 0 .1-.1.4-.1.3-.2.7-.4 1.3-.2.6-.4 1.4-.7 2.4h.2c.1 0 .3.1.6.1.3.1.7.2 1.1.3zm-9.8-14.8c.5 0 .9.2 1.2.4.3.3.6.7.7 1.3.2.5.3 1.2.3 2-1.1.1-2 .1-2.7.1-.7 0-1.4 0-1.8.1 0-.5.1-1 .2-1.5s.3-.9.5-1.2c.2-.3.4-.6.7-.8.2-.3.5-.4.9-.4zm0 10.2c.7 0 1.4-.2 2-.5.6-.3 1-.8 1.4-1.4.4-.6.6-1.3.8-2.2-.6 0-1.1 0-1.5-.1h-.5c-.1.9-.4 1.6-.7 2-.4.5-.8.7-1.4.7-.7 0-1.3-.3-1.7-1-.4-.6-.7-1.5-.7-2.7 1.4 0 2.6-.1 3.5-.1 1 0 1.7 0 2.2-.1h.8c0-.9 0-1.8-.1-2.5-.1-.8-.4-1.4-.7-2-.3-.6-.8-1-1.3-1.3-.5-.3-1.2-.5-2-.5-.7 0-1.3.1-1.9.4-.5.3-1 .7-1.4 1.2-.4.5-.6 1.1-.8 1.8-.2.7-.3 1.5-.3 2.3 0 .9.1 1.7.2 2.4.2.7.4 1.3.8 1.9.3.5.8.9 1.4 1.2.4.3 1.1.5 1.9.5zm-12.8-.5h4.2c.9 0 1.8 0 2.8.1v-.4V22h-2.2c-.8 0-1.7 0-2.9-.1 0-3-.1-5.5-.1-7.5V10 8.6h-2c0 1.7 0 3.3.1 4.8v9.4c.1.6.1.8.1.8z"/>
  <path class="st1" d="M224.5 42.4c.3 0 .5-.1.7-.2.2-.1.4-.3.5-.5.1-.2.2-.5.2-.9 0-.5-.1-.8-.4-1.1-.2-.3-.6-.4-1-.4-.3 0-.5.1-.7.2-.2.1-.4.3-.5.5-.1.2-.2.5-.2.8 0 .3.1.6.2.8.1.2.3.4.5.5.2.2.5.3.7.3m.1 6.1c.4 0 .8-.1 1-.4.2-.3.4-.6.4-1.1 0-.5-.1-.8-.4-1.1-.2-.3-.6-.4-1-.4-.3 0-.5.1-.7.2-.2.1-.4.3-.5.5-.1.2-.2.5-.2.8 0 .3.1.6.2.8.1.2.3.4.5.5.2.1.4.1.7.2zm-8.1-1.4c-.5 0-.9-.2-1.3-.5s-.6-.8-.8-1.5c-.2-.7-.3-1.5-.3-2.5 0-.6.1-1.1.2-1.7.1-.5.3-.9.5-1.3s.5-.7.8-.9c.3-.2.6-.3 1-.3s.7.1 1 .3c.3.2.5.5.7.9.2.4.3.8.4 1.3.1.5.1 1.1.1 1.7 0 .9-.1 1.7-.3 2.4-.2.7-.5 1.2-.8 1.5-.3.4-.7.6-1.2.6zm-.1 1.5c.9 0 1.7-.2 2.3-.7.7-.4 1.2-1.1 1.5-2 .4-.9.5-1.9.5-3.2 0-.8-.1-1.6-.3-2.3-.2-.7-.5-1.3-.8-1.8-.4-.5-.8-.9-1.4-1.2-.5-.3-1.2-.4-1.9-.4s-1.3.1-1.9.4c-.5.3-1 .7-1.4 1.2-.4.5-.7 1.1-.8 1.8-.2.7-.3 1.4-.3 2.3 0 1.2.2 2.3.5 3.1.3.9.8 1.6 1.5 2 .8.5 1.6.8 2.5.8zm-11.4-.4h2v-.3-.7-1.1-1.3-1.3c0-.9.2-1.7.4-2.4.3-.6.6-1.1 1.1-1.5.5-.3 1.1-.6 1.9-.7v-1.4-.5c-.6 0-1.1.1-1.6.4-.5.2-.9.5-1.3.9s-.7.9-.9 1.5v-1.2-.8-.3h-1.7v10.1c.1.4.1.6.1.6zm-6.7-9.8c.5 0 .9.2 1.2.4.3.3.6.7.7 1.3.2.5.3 1.2.3 2-1.1.1-2 .1-2.7.1-.7 0-1.4 0-1.8.1 0-.5.1-1 .2-1.5s.3-.9.5-1.2c.2-.3.4-.6.7-.8.2-.3.5-.4.9-.4zm.1 10.2c.7 0 1.4-.2 2-.5.6-.3 1-.8 1.4-1.4.4-.6.6-1.3.8-2.2-.6 0-1.1 0-1.5-.1h-.5c-.1.9-.4 1.6-.7 2-.4.5-.8.7-1.4.7-.7 0-1.3-.3-1.7-1-.4-.6-.7-1.5-.7-2.7 1.4 0 2.6-.1 3.5-.1 1 0 1.7 0 2.2-.1h.8c0-.9 0-1.8-.2-2.5-.1-.8-.4-1.4-.7-2-.3-.6-.8-1-1.3-1.3-.5-.3-1.2-.5-2-.5-.7 0-1.3.1-1.9.4-.5.3-1 .7-1.4 1.2-.4.5-.6 1.1-.8 1.8-.2.7-.3 1.5-.3 2.3 0 .9.1 1.7.2 2.4.2.7.4 1.3.8 1.9.3.5.8.9 1.4 1.2.5.4 1.2.5 2 .5zm-8.8 0h1.9v-.4-1-1.4-1.6-1.6-1.3-.9c0-.7-.1-1.3-.3-1.8-.2-.5-.5-.9-.9-1.2-.4-.3-.9-.4-1.6-.4-.5 0-1 .1-1.5.3-.4.2-.8.5-1.1.9-.3.4-.6.8-.8 1.3v-1-.7-.3H183.7v10.2H185.6v-.3-.8-1.1-1.2-1.2-1c0-.5.1-1 .2-1.4.1-.4.3-.8.5-1.2.2-.3.5-.6.8-.8.3-.2.6-.3 1-.3s.7.1.9.3c.2.2.4.5.5.8.1.3.1.8.1 1.2v7.9zm-12.7-10.2c.5 0 .9.2 1.2.4.3.3.6.7.7 1.3.2.5.3 1.2.3 2-1.1.1-2 .1-2.7.1-.7 0-1.4 0-1.8.1 0-.5.1-1 .2-1.5s.3-.9.5-1.2c.2-.3.4-.6.7-.8.3-.3.6-.4.9-.4zm.1 10.2c.7 0 1.4-.2 2-.5.6-.3 1-.8 1.4-1.4.4-.6.6-1.3.8-2.2-.6 0-1.1 0-1.5-.1h-.5c-.1.9-.4 1.6-.7 2-.4.5-.8.7-1.4.7-.7 0-1.3-.3-1.7-1-.4-.6-.7-1.5-.7-2.7 1.4 0 2.6-.1 3.5-.1 1 0 1.7 0 2.2-.1h.8c0-.9 0-1.8-.1-2.5-.1-.8-.4-1.4-.7-2-.3-.6-.8-1-1.3-1.3-.5-.3-1.2-.5-2-.5-.7 0-1.3.1-1.9.4-.5.3-1 .7-1.4 1.2-.4.5-.6 1.1-.8 1.8-.2.7-.3 1.5-.3 2.3 0 .9.1 1.7.2 2.4.2.7.4 1.3.8 1.9.3.5.8.9 1.4 1.2.4.4 1.1.5 1.9.5zm-.1-12.4s.1-.1.2-.3c.2-.2.4-.5.8-.9s.8-1 1.4-1.6c0 0-.1-.1-.3-.2-.2-.1-.6-.4-1-.7 0 0-.1.1-.2.4-.2.2-.4.6-.7 1.1-.3.5-.7 1-1.2 1.6 0 0 .1 0 .2.1.1 0 .4.2.8.5zm-11.1 12.4c.7 0 1.4-.1 2-.4.6-.3 1.1-.8 1.5-1.4.4-.6.7-1.5.9-2.5.2-1 .2-2.3.2-3.7h-5.3v1.7c.8 0 1.5 0 2.1-.1h1.3c0 1.6-.2 2.8-.7 3.6-.4.8-1.1 1.2-1.9 1.2-.7 0-1.3-.2-1.8-.7-.5-.5-.8-1.2-1-2.2-.2-1-.3-2.2-.3-3.7 0-.9.1-1.7.2-2.4s.3-1.4.5-1.9.5-1 .9-1.3c.4-.3.8-.5 1.3-.5s1 .2 1.3.5c.3.3.6.8.8 1.4.2.6.3 1.4.3 2.3H170.1c0-1.2-.2-2.2-.5-3.1-.3-.9-.8-1.5-1.4-2-.6-.5-1.4-.7-2.4-.7-.9 0-1.6.2-2.2.6-.6.4-1.1.9-1.5 1.6-.4.7-.7 1.5-.9 2.5-.2.9-.3 2-.3 3.1 0 1.8.2 3.4.6 4.6.4 1.2 1 2.1 1.7 2.7s1.6.8 2.6.8zm-16.6-10.2c.5 0 .9.2 1.2.4.3.3.6.7.7 1.3.2.5.3 1.2.3 2-1.1.1-2 .1-2.7.1-.7 0-1.4 0-1.8.1 0-.5.1-1 .2-1.5s.3-.9.5-1.2c.2-.3.4-.6.7-.8.2-.3.5-.4.9-.4zm0 10.2c.7 0 1.4-.2 2-.5.6-.3 1-.8 1.4-1.4.4-.6.6-1.3.8-2.2-.6 0-1.1 0-1.5-.1h-.5c-.1.9-.4 1.6-.7 2-.4.5-.8.7-1.4.7-.7 0-1.3-.3-1.7-1-.4-.6-.7-1.5-.7-2.7 1.4 0 2.6-.1 3.5-.1 1 0 1.7 0 2.2-.1h.8c0-.9 0-1.8-.1-2.5-.1-.8-.4-1.4-.7-2-.3-.6-.8-1-1.3-1.3-.5-.3-1.2-.5-2-.5-.7 0-1.3.1-1.9.4-.5.3-1 .7-1.4 1.2-.4.5-.6 1.1-.8 1.8-.2.7-.3 1.5-.3 2.3 0 .9.1 1.7.2 2.4.2.7.4 1.3.8 1.9.3.5.8.9 1.4 1.2.5.4 1.2.5 1.9.5zm-11.3-1.5c-.8 0-1.3-.4-1.8-1.1-.4-.7-.6-1.8-.6-3.3 0-.6.1-1.2.2-1.7s.3-1 .5-1.4c.2-.4.4-.7.7-.9.3-.2.6-.3.9-.3.8 0 1.4.4 1.8 1.2.4.8.6 1.9.6 3.4 0 .9-.1 1.7-.3 2.3-.2.6-.5 1.1-.8 1.4-.3.3-.7.4-1.2.4zm4.3 1.5v-4.1-3.7-3.1-2.4-1.5-.5H140.2c0 1.2.1 2.2.1 3.1v2.4c-.2-.4-.4-.7-.7-.9-.3-.3-.6-.5-1-.6-.4-.2-.8-.2-1.2-.2-.7 0-1.2.2-1.7.5s-.9.7-1.2 1.3c-.3.5-.6 1.2-.7 1.9-.2.7-.2 1.5-.2 2.3 0 1.2.2 2.2.5 3 .3.8.7 1.5 1.3 1.9.6.4 1.3.7 2.1.7.4 0 .8-.1 1.2-.2.4-.1.7-.4 1.1-.6.3-.3.6-.7.8-1.1v2.1h1.5c0-.3.1-.3.1-.3zm-20.8-1.5c-.8 0-1.3-.4-1.8-1.1-.4-.7-.6-1.8-.6-3.3 0-.6.1-1.2.2-1.7s.3-1 .5-1.4c.2-.4.4-.7.7-.9.3-.2.6-.3.9-.3.8 0 1.4.4 1.8 1.2.4.8.6 1.9.6 3.4 0 .9-.1 1.7-.3 2.3-.2.6-.5 1.1-.8 1.4-.3.3-.7.4-1.2.4zm4.3 1.5v-4.1-3.7-3.1-2.4-1.5-.5H123.7c0 1.2.1 2.2.1 3.1v2.4c-.2-.4-.4-.7-.7-.9-.3-.3-.6-.5-1-.6-.4-.2-.8-.2-1.2-.2-.7 0-1.3.2-1.7.5-.5.3-.9.7-1.2 1.3-.3.5-.6 1.2-.7 1.9-.2.7-.2 1.5-.2 2.3 0 1.2.2 2.2.5 3 .3.8.7 1.5 1.3 1.9.6.4 1.3.7 2.1.7.4 0 .8-.1 1.2-.2.4-.1.7-.4 1.1-.6.3-.3.6-.7.8-1.1v2.1h1.5c0-.3.1-.3.1-.3zm-13.1-4.7c0 .6-.1 1.1-.2 1.5s-.3.7-.6 1c-.2.2-.5.4-.8.5-.3.1-.6.2-.9.2-.6 0-1-.2-1.3-.5-.3-.3-.4-.7-.4-1.3 0-.3.1-.6.2-1 .2-.3.4-.6.7-.8.3-.2.8-.4 1.3-.6.5-.1 1.2-.2 1.9-.3v.8c.1.2.1.3.1.5zm-2.9 4.5c.5 0 1-.1 1.4-.2.4-.1.8-.4 1.1-.6.3-.3.6-.6.8-1.1v2h1.6v-.4V47v-1.6-2.1-2.4c0-1.3-.4-2.3-1-3-.6-.7-1.6-1-2.8-1-.8 0-1.5.2-2 .5-.6.3-1 .8-1.3 1.3-.3.6-.5 1.2-.5 2h1.8c0-.8.2-1.4.5-1.8.3-.4.8-.6 1.4-.7.6 0 1 .2 1.3.6.3.4.5.9.5 1.7V41.3c-1.4 0-2.5.2-3.4.5-.9.3-1.6.8-2 1.4-.4.6-.7 1.2-.7 2 0 .6.1 1.1.4 1.6.3.4.6.8 1.1 1 .6.5 1.1.6 1.8.6zm-9.9-1.3c-.8 0-1.3-.4-1.8-1.1-.4-.7-.6-1.8-.6-3.3 0-.6.1-1.2.2-1.7s.3-1 .5-1.4c.2-.4.4-.7.7-.9.3-.2.6-.3.9-.3.8 0 1.4.4 1.8 1.2.4.8.6 1.9.6 3.4 0 .9-.1 1.7-.3 2.3-.2.6-.5 1.1-.8 1.4-.3.3-.7.4-1.2.4zm4.4 1.5v-4.1-3.7-3.1-2.4-1.5-.5H102.2c0 1.2.1 2.2.1 3.1v2.4c-.2-.4-.4-.7-.7-.9-.3-.3-.6-.5-1-.6-.4-.2-.8-.2-1.2-.2-.7 0-1.2.2-1.7.5s-.9.7-1.2 1.3c-.3.5-.6 1.2-.7 1.9-.2.7-.2 1.5-.2 2.3 0 1.2.2 2.2.5 3 .3.8.7 1.5 1.3 1.9.6.4 1.3.7 2.1.7.4 0 .8-.1 1.2-.2.4-.1.7-.4 1.1-.6.3-.3.6-.7.8-1.1v2.1h1.5c0-.3 0-.3.1-.3zM91.7 35.9c.3 0 .5-.1.7-.2.2-.1.3-.3.4-.5.2-.2.2-.4.2-.7 0-.3 0-.5-.1-.7-.1-.2-.2-.3-.4-.5-.2-.1-.4-.2-.7-.2-.4 0-.8.1-1 .4-.2.2-.3.5-.3 1 0 .4.1.8.3 1 .1.3.5.4.9.4zm-.9 12.3h1.9c0-1.6 0-3.1-.1-4.5v-3.4-2.2-.8h-1.9v10.4c.1.3.1.5.1.5zm-9.3-9.3h1.4v6c0 .8.2 1.4.4 1.9.3.5.6.9 1.1 1.1.4.2 1 .3 1.5.3.3 0 .7 0 1.1-.1l1.2-.3v-.2c0-.1 0-.3-.1-.6 0-.3-.1-.5-.1-.9-.3.1-.6.2-.9.2-.3.1-.5.1-.7.1-.5 0-.9-.2-1.2-.5-.3-.3-.4-.8-.4-1.4v-2-1.9-1.8H88v-.1-.5-1h-3.2v-1.5-1-.4h-2v2.9h-1.4v1.7zm-3.9 9.7h1.9v-.4-1-1.4-1.6-1.6-1.3-.9c0-.7-.1-1.3-.3-1.8-.2-.5-.5-.9-.9-1.2-.4-.3-.9-.4-1.6-.4-.5 0-1 .1-1.5.3-.4.2-.8.5-1.1.9-.3.4-.6.8-.8 1.3v-1-.7-.3H71.7v10.2H73.6v-.3-.8-1.1-1.2-1.2-1c0-.5.1-1 .2-1.4.1-.4.3-.8.5-1.2.2-.3.5-.6.8-.8.3-.2.6-.3 1-.3s.7.1.9.3c.2.2.4.5.5.8.1.3.1.8.1 1.2v7.9M64.9 38.4c.5 0 .9.2 1.2.4.3.3.6.7.7 1.3.2.5.3 1.2.3 2-1.1.1-2 .1-2.7.1-.7 0-1.4 0-1.8.1 0-.5.1-1 .2-1.5s.3-.9.5-1.2c.2-.3.4-.6.7-.8.2-.3.6-.4.9-.4zm.1 10.2c.7 0 1.4-.2 2-.5.6-.3 1-.8 1.4-1.4.4-.6.6-1.3.8-2.2-.6 0-1.1 0-1.5-.1h-.5c-.1.9-.4 1.6-.7 2-.4.5-.8.7-1.4.7-.7 0-1.3-.3-1.7-1-.4-.6-.7-1.5-.7-2.7 1.4 0 2.6-.1 3.5-.1s1.7 0 2.2-.1h.8c0-.9 0-1.8-.1-2.5-.1-.8-.4-1.4-.7-2-.3-.6-.8-1-1.3-1.3-.5-.3-1.2-.5-2-.5-.7 0-1.3.1-1.9.4-.5.3-1 .7-1.4 1.2-.4.5-.6 1.1-.8 1.8-.2.7-.3 1.5-.3 2.3 0 .9.1 1.7.2 2.4.2.7.4 1.3.8 1.9.3.5.8.9 1.4 1.2.4.4 1.1.5 1.9.5zm-11.4-1.5c-.8 0-1.3-.4-1.8-1.1-.4-.7-.6-1.8-.6-3.3 0-.6.1-1.2.2-1.7s.3-1 .5-1.4c.2-.4.4-.7.7-.9.3-.2.6-.3.9-.3.8 0 1.4.4 1.8 1.2.4.8.6 1.9.6 3.4 0 .9-.1 1.7-.3 2.3-.2.6-.5 1.1-.8 1.4-.3.3-.7.4-1.2.4zm4.3 1.5v-4.1-3.7-3.1-2.4-1.5-.5H55.9c0 1.2.1 2.2.1 3.1v2.4c-.2-.4-.4-.7-.7-.9-.3-.3-.6-.5-1-.6-.3-.2-.7-.3-1.1-.3-.7 0-1.2.2-1.7.5s-.9.7-1.2 1.3c-.3.5-.6 1.2-.7 1.9-.2.7-.2 1.5-.2 2.3 0 1.2.2 2.2.5 3 .3.8.7 1.5 1.3 1.9.6.4 1.3.7 2.1.7.4 0 .8-.1 1.2-.2.4-.1.7-.4 1.1-.6.3-.3.6-.7.8-1.1v2.1h1.5v-.2zm-13.5-.4h2v-3.9-3.6-3.1-2.4-1.6-.6h-1.9v14.7c-.1.4-.1.5-.1.5z"/>
</svg>