<svg xmlns="http://www.w3.org/2000/svg" width="314.2" height="65.7" viewBox="0 0 314.2 65.7">
  <style>
    .st0{fill:#8ad2e6}.st1{fill:#f9c3d3}.st2{fill-rule:evenodd;clip-rule:evenodd;fill:#002032}.st3{fill:none;stroke:#fff;stroke-width:1.073;stroke-linecap:round;stroke-miterlimit:22.926}
  </style>
  <path class="st0" d="M66.6 15.1v-1.5-2-1.8-.9c0-.1 0-.4.1-.9 0-.5 0-1 .1-1.6V4.8v-.9-.6-.6-.2-.2c.1-.1.2-.2.3-.2h.4c.2 0 .4 0 .7.1s.5.1.7.1c.3.1.5.1.6.2.1 0 .3.1.6.3.3.1.8.4 1.3.7.6.3 1.1.7 1.4 1.1.6.4.9.8 1.2 1.1.4.5.7.9.9 1.2.2.4.4.9.6 1.5.1.2.1.6.2 1s.1.9.2 1.3c0 .5.1.9.1 1.2 0 .4.1.6.1.8v1.5l-.3 1.5c0 .3-.1.5-.2.8-.1.3-.2.5-.2.8-.1.3-.3.7-.5 1.1-.2.4-.4.8-.7 1.2-.2.3-.4.6-.6.7-.2.2-.3.4-.5.5s-.3.3-.5.4c-.2.1-.4.3-.6.5-.5.3-1 .6-1.6.9-.6.3-1.2.6-1.8.7-.5 0-1 .1-1.3.1-.4 0-.5 0-.5-.1-.1-.1-.2-.2-.2-.4s-.1-.4-.1-.6v-.6-.3-1.8-2-1.7c.1-.3.1-.6.1-.8m-8 5.7v2.1c-.1.2-.3.3-.5.4-.4.1-.8.2-1.1.2-.4.1-.8.1-1.1 0H50.3c-.2 0-.3-.1-.3-.3v-.4-1.3-8.1-.3-.3-.4-1.3-.5-1-1c0-.4-.1-.8-.1-1.2 0-.4-.1-.8-.1-1.2V4.8v-.5-.5-.3-.3-.1c0-.2.1-.4.3-.4.2-.2.7-.4 1.6-.4h1.2c.6 0 1.1-.1 1.7-.1h2.7c.7 0 1.1.1 1.3.2.2.1.3.3.4.6v1.5c0 .2 0 .4-.1.5 0 .2-.2.4-.5.4-.4.1-.8.2-1.2.2-.4.1-.8.1-1.2 0h-2.5V7.3c0 .3 0 .8.1 1.2 0 .4.1.8.1 1.2 0 .4 0 .8-.1 1.2v2.4h4c.4 0 .7.2.8.5v.4c0 .4-.1.7-.1 1.1 0 .4-.1.7-.1 1.1-.1.4-.4.5-.9.5-1.1.1-1.7.1-2.3.1H53.1V20c.5 0 1.1-.1 1.6-.1H57c.6 0 1 .1 1.2.2.1.3.3.5.4.7zM46.9 23c.1.2.1.5.1.7 0 .2.1.5.1.8v.5c-.1.1-.2.1-.5.2-.2.1-.5.1-.8.1h-2.2c-.3-.1-.5-.2-.6-.3-.1-.1-.2-.4-.2-.8 0-.2 0-.5-.1-.7 0-.2-.1-.5-.1-.7-.1-.6-.2-1.3-.3-1.9-.1-.6-.2-1.3-.3-1.9-.1-.4-.1-.8-.2-1.2-.1-.4-.1-.8-.2-1.2 0-.3-.1-.6-.2-.8-.1-.3-.1-.5-.2-.8-.2-.6-.3-1.3-.4-1.9-.1-.6-.2-1.3-.4-1.9 0-.2 0-.3.1-.5.1-.1.3-.2.5-.2h2.1c.2 0 .4 0 .5.1.2.1.4.3.5.6.2.8.4 1.7.5 2.5.2.9.3 1.7.5 2.6 0 .3.1.6.2.9.1.3.2.6.2.9l.6 2.4c.3.9.6 1.7.8 2.5zm-.2-21.2c.7.9 1 1.9.9 3.1 0 .5-.1.9-.3 1.3s-.3.8-.6 1.3c-.1.2-.3.5-.5.7l-.6.6c-.5.5-1.1.8-1.7 1-.6.2-1.3.3-2 .4-.4 0-.7 0-1.1-.2-.4-.2-.6-.4-.6-.8v-.7-.7c0-.3 0-.6-.1-.9 0-.3 0-.6.1-.9v-.6-.6-1.3-1.3-.6c0-.2.1-.4.1-.6 0-.2.1-.4.2-.5.1-.1.3-.1.5-.2.3 0 .6-.1.9-.1.3 0 .6-.1.9-.1.4 0 .9 0 1.2.1.4.1.8.2 1.1.4l.9.6c.2.2.5.4.7.6zm-7 22.1V25c-.1.1-.3.2-.6.3-.5.1-.8.1-1.1.1h-1.5c-.1 0-.2 0-.3-.1-.2-.2-.3-.4-.3-.7v-.3-.3-1.4-1.4c0-.8.1-1.5 0-2.3 0-.7 0-1.5-.1-2.3v-1.5c0-.5.1-1 .1-1.5 0-.4 0-.9.1-1.3V11v-.8-1c0-.4 0-.9-.1-1.4 0-.5 0-1 .1-1.5v-1-1-1.4-1.4c0-.2.1-.4.1-.5 0-.2.1-.3.1-.5.1-.2.2-.4.5-.4h2c.2 0 .4.1.5.2.1.1.2.2.2.5.1.5.2 1 .2 1.4 0 .5 0 .9.1 1.4v2.8c0 .7.1 1.4 0 2 0 .6 0 1.3-.1 2V12c0 .6-.1 1.2 0 1.8v2.6c0 .3 0 .6.1.9v6.6zM26.8 9.6c-.3 0-.5 0-.6-.1-.1-.2-.2-.3-.2-.6v-.5-.5-2.4-2.4-.8c0-.3.1-.6.1-.8.1-.6.4-.9 1.1-1 .5-.1.9-.1 1.4 0 .4.1.9.2 1.3.4.1 0 .1.1.2.1s.1.1.2.1c.5.2 1 .5 1.3.9.4.4.6.8.9 1.3.2.4.3.8.3 1.1v.9c0 .3 0 .6-.1.9-.2.7-.6 1.3-1.2 1.8-.3.2-.5.4-.7.6-.2.1-.4.3-.8.4-.3.1-.6.2-.8.3-.2.1-.5.1-1 .2h-.9c-.1.1-.3.1-.5.1zm6.4 5.7c.2.8.4 1.6.4 2.3 0 .5 0 1.1-.1 1.8s-.2 1.4-.6 2.1c-.3.5-.6 1-.8 1.4-.3.4-.6.7-1 1-.1.1-.3.3-.7.5-.3.3-.7.5-1 .7-.2.1-.5.2-.9.4-.4.1-.7.2-1.1.2-.6 0-1-.1-1.1-.4v-.1-.1-.4-.5c.1-.7.1-1.3.1-2v-2.1-.9-1.7c0-.7 0-1.3-.1-2 0-.7-.1-1.2-.1-1.5 0-.4-.1-.7-.1-1.1v-1c0-.3 0-.6.1-.9.1-.5.5-.7 1-.7h1c.6 0 1.1.2 1.6.4s1 .5 1.4.9c.1.1.3.2.4.4l.4.4c.2.3.4.6.5.9.1.3.2.6.3 1 0 .2.1.4.1.5.2.2.2.4.3.5zM25.3 12v3.9c0 .5 0 .9.1 1.2l.1 3.5v.7c0 .2 0 .5-.1.7v1.2c0 .4 0 .8-.1 1.2v.3c0 .2-.2.4-.4.4-.1 0-.2.1-.3.1h-2c-.1 0-.2 0-.4-.1-.3-.1-.4-.2-.4-.5v-.5c0-.4.1-.7.1-1.1v-1.1-.9-1.2-1.1-.7-.8V16v-1.2-.9c.1-1 .1-1.9 0-2.9 0-1-.1-1.9 0-2.9V6.9 5.4 4.1v-.7-.6-.6c0-.3 0-.5-.1-.8V.6c0-.3 0-.5.1-.6.1-.1.3-.1.5-.2.4-.1.8-.1 1.2-.1s.8 0 1.2.1c.2.1.3.3.4.6 0 .3.1.5.1.7v2.1c0 .4 0 .9-.1 1.5V10.9c.1.8.1 1.1.1 1.1zM17.9.3c.3.2.5.5.7.9.2.4.2.9.1 1.3 0 .4-.1.6-.3.8-.1.2-.4.4-.7.6-.1.1-.3.1-.6.2-.2 0-.4.1-.6.1-.4 0-.9-.2-1.3-.5s-.6-.7-.7-1.1c-.1-.8.1-1.5.7-1.9.8-.7 1.6-.8 2.5-.5.1 0 .1 0 .2.1zm.5 23.2c0 .1 0 .3.1.4 0 .1 0 .3.1.4.1.2.1.4 0 .7-.1.3-.3.4-.5.4-1 .1-1.9.1-2.8 0-.2 0-.4-.2-.4-.5 0-.2-.1-.5-.1-.8v-.9c0-.7.1-1.5.1-2.2 0-.7 0-1.5.1-2.2v-1-1-1.4V14v-1.2-1.9V9 7.7 7v-.7-.4-.4c0-.2.2-.3.4-.4h1.4c.3 0 .7 0 1 .1.2 0 .4.1.5.2.1.1.1.3.1.4V23.5zM11.7 20c.3 0 .4.1.5.2.1.1.1.2.1.4V23c0 .1 0 .2-.1.3-.2.3-.4.4-.9.4H5.4c-.2 0-.4 0-.5-.1H3.6c-.3-.1-.4-.2-.4-.5 0-.4.1-.9.1-1.3s0-.9.1-1.3v-1.4c0-.4 0-.9.1-1.3v-.4c0-.5-.1-.9 0-1.4v-1.4c0-.3 0-.7.1-1v-1-1.9c0-.6 0-1.3-.1-1.9 0-.6-.1-1.2 0-1.8s0-1.2.1-1.8v-1-1-.5c0-.2.2-.3.4-.3.9-.2 1.9-.2 2.8 0 .2 0 .3.1.4.4.1.6.1 1.3.1 1.9v1.9c0 .5 0 1.1.1 1.7 0 .4.1.8.1 1.1 0 .4 0 .8.1 1.1 0 .3.1.7.1 1v1.1c0 .2-.1.5 0 .8v1.4c0 .2 0 .4-.1.8-.1.2-.1.4 0 .6v4.1h3c.2-.4.6-.3 1.1-.3z"/>
  <path class="st0" d="M138.8 23c.1.2.1.5.1.7 0 .2.1.5.1.8v.5c-.1.1-.2.1-.5.2-.2.1-.5.1-.8.1h-2.2c-.3-.1-.5-.2-.6-.3-.1-.1-.2-.4-.2-.8 0-.2 0-.5-.1-.7 0-.2-.1-.5-.1-.7-.1-.6-.2-1.3-.3-1.9-.1-.6-.2-1.3-.3-1.9-.1-.4-.1-.8-.2-1.2-.1-.4-.1-.8-.2-1.2 0-.3-.1-.6-.2-.8-.1-.3-.1-.5-.2-.8-.2-.6-.3-1.3-.4-1.9-.1-.6-.2-1.3-.4-1.9 0-.2 0-.3.1-.5.1-.1.3-.2.5-.2h2.1c.2 0 .3 0 .5.1s.4.3.5.6c.2.8.4 1.7.5 2.5.2.9.3 1.7.5 2.6 0 .3.1.6.2.9.1.3.2.6.2.9l.6 2.4c.4.9.6 1.7.8 2.5m-.2-21.2c.7.9 1.1 1.9.9 3.1 0 .5-.1.9-.3 1.3-.2.4-.3.8-.6 1.3-.1.2-.3.5-.5.7l-.6.6c-.5.5-1.1.8-1.7 1.1-.6.2-1.3.3-2 .4-.3 0-.7 0-1-.2-.4-.2-.6-.4-.6-.8v-.7-.7V7v-.9-.6c0-.2 0-.4-.1-.6V3.6 2.3v-.6c0-.2.1-.4.1-.6 0-.2.1-.4.2-.5.1-.1.3-.1.5-.2.3 0 .6-.1.9-.1.3 0 .6-.1.9-.1h1.2c.4.1.8.2 1.1.4.3.2.6.3.8.5.4.3.6.5.8.7zm-7 22.1V25c-.1.1-.3.2-.6.3-.5.1-.8.1-1.1.1h-1.5c-.1 0-.2 0-.3-.1-.2-.2-.3-.4-.3-.7v-.3-.3-1.4-1.4c0-.8.1-1.5 0-2.3 0-.7 0-1.5-.1-2.3v-1.5c0-.5.1-1 .1-1.5 0-.4 0-.9.1-1.3s0-.9 0-1.3v-.8-1-1.4-1.5-1-1-1.4-1.4c0-.2.1-.4.1-.5 0-.2.1-.3.1-.5.1-.2.2-.4.5-.4h2c.2 0 .4.1.5.2.1.1.2.2.2.5.1.5.2 1 .2 1.4v4.2c0 .7.1 1.4 0 2 0 .6 0 1.3-.1 2V12c0 .6-.1 1.2 0 1.8v2.6c0 .3 0 .6.1.9v1.4l.1 5.2zm-6.7-.9c.1.2.1.5.1.7s.1.5.1.8v.5c-.1.1-.2.1-.5.2-.2.1-.5.1-.8.1h-2.2c-.3-.1-.5-.2-.6-.3-.1-.1-.2-.4-.2-.8 0-.2 0-.5-.1-.7 0-.2-.1-.5-.1-.7-.1-.6-.2-1.3-.3-1.9-.1-.6-.2-1.3-.3-1.9-.1-.4-.1-.8-.2-1.2-.1-.4-.1-.8-.2-1.2 0-.3-.1-.6-.2-.8-.1-.3-.1-.5-.2-.8-.2-.6-.3-1.3-.4-1.9-.1-.6-.2-1.3-.4-1.9 0-.2 0-.3.1-.5.1-.1.3-.2.5-.2h2c.2 0 .3 0 .5.1s.4.3.5.6c.2.8.4 1.7.5 2.5.2.9.3 1.7.5 2.6 0 .3.1.6.2.9.1.3.2.6.2.9l.6 2.4c.5.9.7 1.7.9 2.5zm-.1-21.2c.7.9 1.1 1.9.9 3.1 0 .5-.1.9-.3 1.3-.2.4-.3.8-.6 1.3-.1.2-.3.5-.5.7l-.6.6c-.5.5-1.1.8-1.7 1.1-.6.2-1.3.3-2 .4-.4 0-.7 0-1-.2-.4-.2-.6-.4-.6-.8v-.7-.7V7v-.9-.6c0-.2 0-.4-.1-.6V3.6 2.3v-.6c0-.2.1-.4.1-.6 0-.2.1-.4.2-.5.1-.1.3-.1.5-.2.3 0 .6-.1.9-.1.3 0 .6-.1.9-.1h1.2c.4.1.8.2 1.1.4.3.2.6.3.8.5.3.3.5.5.8.7zm-7 22.1V25c-.1.1-.3.2-.6.3-.5.1-.8.1-1.1.1h-1.5c-.1 0-.2 0-.3-.1-.2-.2-.3-.4-.3-.7v-.3-.3-1.4-1.4c0-.8.1-1.5.1-2.3 0-.7 0-1.5-.1-2.3v-1.5c0-.5.1-1 .1-1.5 0-.4 0-.9.1-1.3s0-.9 0-1.3v-.8-1-1.4-1.5-1c0-.3-.1-.7-.1-1V2.9 1.5c0-.2.1-.4.1-.5s.1-.3.1-.5c.1-.2.2-.4.5-.4h2c.2 0 .4.1.5.2.1.1.2.2.2.5.1.5.2 1 .2 1.4v4.2c0 .7.1 1.4 0 2 0 .6 0 1.3-.1 2V12c0 .6-.1 1.2 0 1.8v2.6c0 .3 0 .6.1.9v1.4l.1 5.2zm-6.2-15.3c0 .6.1 1.2.1 1.8v1.8c0 1-.1 2-.1 3s-.1 2-.1 3v1c0 .6-.1 1.2-.1 1.7s0 1-.1 1.7V23.2c0 .2-.1.3-.1.4-.1.1-.2.2-.3.2h-1c-.4 0-.7-.1-1-.2-.3-.1-.6-.2-.8-.4-.2-.2-.3-.4-.3-.7v-.4-.5h-.9c-.3 0-.5 0-.7-.1-.2 0-.5 0-.9-.1-.3 0-.6-.1-.9-.1-.3-.1-.6-.1-.8-.2-.2-.1-.3-.1-.4-.1-.7-.2-1.2-.6-1.6-1-.4-.4-.7-.8-1-1.3-.3-.4-.4-.9-.5-1.4-.1-.5-.1-1.1 0-1.7.1-.5.2-.9.4-1.3s.5-.7.8-1c.2-.2.4-.4.8-.6.3-.2.6-.4.8-.5.5-.2 1-.4 1.4-.5.4-.1 1-.1 1.7-.2.6 0 1-.1 1.4-.1h1.1v-.2-.2-1.7c-.1-.6-.2-1.2-.3-1.6-.1-.2-.1-.3-.2-.5 0-.2-.1-.4-.3-.6-.2-.3-.3-.5-.5-.6-.2-.1-.4-.2-.7-.2-.2 0-.4.1-.5.2-.2.1-.3.3-.4.4-.1.2-.2.3-.3.5-.1.2-.1.3-.1.3l-.3.9c-.1.4-.1.7-.2 1.1 0 .2-.1.3-.1.4 0 .1-.1.2-.2.3-.1.1-.3.1-.6.2h-1c-.4 0-.6-.1-.8-.3-.2-.2-.3-.3-.4-.5-.1-.2-.1-.4-.1-.6v-.6-.3-.3c.1-.8.2-1.4.4-1.9s.3-.9.5-1.1c.2-.3.3-.5.4-.6.1-.1.2-.3.3-.4.3-.3.7-.6 1-.9.3-.2.7-.4 1.1-.5.6-.1 1.1-.1 1.7-.1.5.1 1.1.2 1.6.5.1.1.2.1.3.2.1.1.2.1.3.2.4.2.6.4.9.7.2.3.4.6.6 1 .3.6.5 1.2.6 1.9.2.8.3 1.5.4 2.1zm-16.3-1c-.3-.1-.4-.3-.4-.6s0-.5.1-.6v-.7V5c0-.2-.1-.4-.1-.4-.1-.2-.1-.3-.2-.4-.1-.1-.2-.3-.4-.4-.2-.2-.5-.2-.9-.2-.4.1-.7.2-.9.5-.1.1-.2.3-.2.5s-.1.4-.1.6v1.1c.1.8.4 1.6.9 2.2.2.3.4.6.7.9.2.3.5.6.7 1 .3.4.6.8.8 1.2.3.4.5.7.7 1 .2.2.4.5.6.8.7.9 1.2 1.8 1.6 2.8.4 1 .6 2 .7 3.1v1.6c-.1 1.3-.6 2.3-1.7 3.2-.1.1-.2.1-.2.2l-.2.2c-.3.2-.7.4-1 .6-.4.1-.7.2-1.1.2h-1.3c-.4 0-.8-.1-1.2-.2-.3-.1-.6-.2-.8-.3-.2-.1-.5-.3-.8-.6-.2-.2-.4-.4-.7-.6-.2-.2-.4-.4-.6-.7 0-.1-.1-.2-.1-.2 0-.1-.1-.2-.1-.2-.2-.4-.3-.9-.4-1.3-.1-.4-.2-.9-.2-1.4V19c0-.3 0-.6.1-.8 0-.3.1-.5.1-.7 0-.2.1-.3.1-.4.2-.3.4-.5.8-.5h.3c.6.1 1.2.3 1.8.5.1-.1.3-.1.3 0 .1.1.1.2 0 .5 0 .3-.1.6-.1.9v1c0 .4.1.8.1 1.1 0 .3.2.6.4.8.2.2.6.3.9.4.4.1.8 0 1.1-.2.2-.2.4-.4.6-.7.1-.3.2-.6.2-.9 0-.4 0-.8-.1-1.2-.1-.4-.3-.8-.4-1.1-.2-.4-.4-.7-.6-1.1-.2-.3-.4-.7-.7-1-.2-.3-.4-.6-.6-1-.2-.3-.4-.7-.6-1-.2-.2-.3-.5-.4-.7-.1-.2-.3-.5-.5-.7-.3-.4-.6-.8-.7-1.1-.2-.3-.4-.7-.5-1 0-.1-.1-.2-.1-.3-.1-.1-.1-.2-.2-.3-.4-.6-.7-1.3-.9-1.9-.2-.7-.3-1.4-.3-2.1-.1-.9 0-1.7.2-2.4.2-.6.5-1.1 1-1.5.7-.5 1.5-.9 2.4-1 .7-.1 1.4-.1 2.1 0 .7.1 1.4.3 2 .7.3.2.6.5.9.8.3.3.5.6.7 1.1.1.3.2.5.2.8.1.3.1.6.1.9v2c0 .8-.4 1.1-1.2 1.1h-1.3c-.1 0-.3-.3-.4-.4zm-8.6 13.2v2.1c-.1.2-.3.3-.5.4-.4.1-.8.2-1.1.2s-.8.1-1.1 0H78.4c-.2 0-.3-.1-.3-.3v-.4-1.3-8.1-.3-.3-.4-1.3-.5-1-1c0-.4-.1-.8-.1-1.2 0-.4-.1-.8-.1-1.2V4.8v-.5-.5-.3-.3-.1c0-.2.1-.4.3-.4.2-.2.7-.4 1.6-.4H81c.6 0 1.1-.1 1.7-.1h2.7c.7 0 1.1.1 1.3.2.2.1.3.3.4.6v1.5c0 .2 0 .4-.1.5 0 .2-.2.4-.5.4-.4.1-.8.2-1.2.2-.4.1-.8.1-1.2.1h-2.5V7.4c0 .4 0 .8.1 1.2 0 .4.1.8.1 1.2 0 .4 0 .8-.1 1.2v2.4h4c.4 0 .7.2.8.5v.4c0 .4-.1.7-.1 1.1s-.4.8-.4 1.2c-.1.3-.4.5-.9.5-.6 0-1.2-.1-1.8-.1H81.4V20c.5 0 1.1-.1 1.6-.1h2.4c.6 0 1 .1 1.2.2-.1.3.1.5.1.7z"/>
  <path class="st0" d="M225.8 20.8v2.1c-.1.2-.3.3-.5.4-.4.1-.8.2-1.1.2-.4.1-.8.1-1.1 0H217.5c-.2 0-.3-.1-.3-.3v-.4-1.3-8.1-.3-.3-.4-1.3-.5-1-1c0-.4-.1-.8-.1-1.2s-.1-.8-.1-1.2V4.8v-.5-.5-.3c0-.1 0-.2-.1-.3v-.1c0-.2.1-.4.3-.4.2-.2.7-.4 1.6-.4h1.2c.6 0 1.1-.1 1.7-.1h2.7c.7 0 1.1.1 1.3.2.2.1.3.3.4.6v1.5c0 .2 0 .4-.1.5 0 .2-.2.4-.5.4-.4.1-.8.2-1.2.2-.4.1-.8.1-1.2 0h-2.5V7.3c0 .4 0 .8.1 1.2 0 .4.1.8.1 1.2 0 .4 0 .8-.1 1.2v2.4h4c.4 0 .7.2.8.5v.4c0 .4-.1.7-.1 1.1 0 .4-.1.7-.1 1.1-.1.3-.4.5-.9.5-.6 0-1.2-.1-1.8-.1H220.7V20c.5 0 1-.1 1.6-.1h2.4c.6 0 1 .1 1.2.2-.3.3-.2.5-.1.7M214.6 6.3c.5.9.6 1.9.3 2.9-.1.4-.2.8-.4 1.2-.2.4-.4.7-.6 1.1-.1.2-.3.4-.5.6l-.5.5c-.4.3-.7.5-1.1.6-.3.1-.7.3-1.1.5-.4.2-.7.3-1.1.3-.3.1-.7 0-1.2 0v1.2c0 .5.1 1 .1 1.4 0 .5 0 .9.1 1.4v3.2c0 .2 0 .4-.1.6v.7c0 .4-.1.6-.3.8-.1.1-.4.2-.8.2h-1.6c-.4 0-.6-.1-.7-.2-.1-.1-.1-.2-.2-.3-.1-.2-.1-.4-.1-.6 0-.2 0-.4-.1-.7v-1.5-1.6-1.7-.7-2.5-.8-.8c0-.5-.1-1-.1-1.5V9.1v-.5-.5c0-.3 0-.7-.1-1v-3-.6-.6c0-.2.1-.4.1-.6.1-.2.3-.3.6-.3h2.4c.3 0 .5.1.5.3.1.2.1.4 0 .7v.6c.4-.1.8-.1 1.3-.1.4 0 .8 0 1.2.1.4.1.8.2 1.1.4.1.1.2.1.3.1.6.2 1 .5 1.4.9.6.3.9.8 1.2 1.3zM188.3 6v15.2c0 .1 0 .2-.1.3 0 .1-.1.2-.2.2h-.8c-.2 0-.4-.1-.6-.1-.2 0-.4-.1-.5-.1-.1 0-.3-.1-.5-.2-.3-.1-.6-.3-1.1-.5-.5-.3-.9-.6-1.1-.9-.3-.3-.5-.6-.7-.9-.3-.4-.5-.7-.7-1-.2-.3-.3-.7-.5-1.2-.1-.2-.1-.5-.2-.8 0-.3-.1-.7-.1-1.1 0-.4-.1-.7-.1-1v-.6-1.2c.1-.4.1-.8.2-1.2 0-.2.1-.4.1-.6.1-.2.1-.4.2-.6.1-.3.2-.6.4-.9.2-.3.4-.7.6-1 .2-.2.3-.4.4-.6.1-.2.2-.3.4-.4.1-.1.2-.3.4-.4.1-.1.3-.2.5-.4.4-.2.8-.5 1.3-.8.5-.3 1-.5 1.4-.5.4 0 .8 0 1.1-.1.3 0 .4 0 .4.1.1 0 .1.1.1.3s.1.3.1.5V6c-.4-.1-.4 0-.4 0zm8.7 6.8V14c-.1.4-.1.8-.2 1.2 0 .2-.1.4-.1.6-.1.2-.1.4-.2.6-.1.3-.2.6-.4.9s-.3.7-.5 1c-.2.2-.3.4-.5.6-.1.2-.3.3-.4.4-.1.1-.2.2-.4.3-.1.1-.3.2-.5.4-.4.2-.8.5-1.3.8-.5.3-.9.5-1.4.5-.4 0-.8.1-1.1.1-.3 0-.4 0-.4-.1-.1 0-.1-.1-.1-.3s-.1-.3-.1-.5V20v-.2-1.5-1.6-1.4-.8-1.2-1.6-1.4-.7-.7-1.3-1.3-.7-.5-.5-.3c0-.1.1-.2.2-.2h.9c.4.1.8.1 1.1.2.1 0 .3.1.5.2.3.1.6.3 1.1.5.5.3.9.6 1.1.9.3.3.5.6.7.9.3.4.5.7.7 1 .2.3.3.7.5 1.2.1.2.1.5.2.8.1.4.1.7.1 1.1 0 .4.1.7.1 1 .3.6.4.8.4.9zM178.7 20c.3 0 .4.1.5.2.1.1.1.2.1.4V23c0 .1 0 .2-.1.3-.2.3-.4.4-.9.4h-5.9c-.1 0-.4 0-.5-.1h-1c-.3-.1-.4-.2-.4-.5 0-.4.1-.9.1-1.3s0-.9.1-1.3v-1.4c0-.5 0-.9.1-1.3v-.4c0-.5-.1-.9 0-1.4v-1.4c0-.3 0-.7.1-1v-1-1.9c0-.6 0-1.3-.1-1.9 0-.6-.1-1.2-.1-1.8 0-.6 0-1.2.1-1.8v-1-1-.5c0-.2.2-.3.4-.3.9-.2 1.9-.2 2.8 0 .2 0 .3.1.4.4.1.6.1 1.3.1 1.9v1.9c0 .5 0 1.1.1 1.7 0 .4.1.8.1 1.1 0 .4 0 .8.1 1.1 0 .4.1.7.1 1v1.1c0 .2-.1.5 0 .8v1.4c0 .2 0 .4-.1.8-.1.2-.1.4 0 .6v4.1h3c0-.4.4-.3.9-.3zm-11 0c.3 0 .4.1.5.2.1.1.1.2.1.4V23c0 .1 0 .2-.1.3-.2.3-.4.4-.9.4h-5.9c-.1 0-.4 0-.5-.1h-1c-.3-.1-.4-.2-.4-.5 0-.4.1-.9.1-1.3s0-.9.1-1.3v-1.4c0-.5 0-.9.1-1.3v-.4c0-.5-.1-.9 0-1.4v-1.4c0-.3 0-.7.1-1v-1-1.9c0-.6 0-1.3-.1-1.9 0-.6-.1-1.2 0-1.8 0-.6 0-1.2.1-1.8v-1-1-.5c0-.2.2-.3.4-.3.9-.2 1.9-.2 2.8 0 .2 0 .3.1.4.4.1.6.1 1.3.1 1.9v1.9c0 .5 0 1.1.1 1.7 0 .4.1.8.1 1.1 0 .4 0 .8.1 1.1 0 .4.1.7.1 1v1.1c0 .2-.1.5 0 .8v1.4c0 .2 0 .4-.1.8-.1.2-.1.4 0 .6v4.1h3c-.1-.4.3-.3.8-.3zM148.8 6v15.2c0 .1 0 .2-.1.3 0 .1-.1.2-.2.2h-.8c-.2 0-.4-.1-.6-.1-.2 0-.4-.1-.5-.1-.1 0-.3-.1-.5-.2-.3-.1-.6-.3-1.1-.5-.5-.3-.9-.6-1.1-.9-.3-.3-.5-.6-.7-.9-.3-.4-.5-.7-.7-1-.2-.3-.3-.7-.5-1.2-.1-.2-.1-.5-.2-.8 0-.3-.1-.7-.1-1.1 0-.4-.1-.7-.1-1v-.6-1.2c.1-.4.1-.8.2-1.2 0-.2.1-.4.1-.6.1-.2.1-.4.2-.6.1-.3.2-.6.4-.9.2-.3.4-.7.6-1 .2-.2.3-.4.4-.6s.2-.3.4-.4c.1-.1.2-.3.4-.4.1-.1.3-.2.5-.4.4-.2.8-.5 1.3-.8.5-.3 1-.5 1.4-.5.4 0 .8 0 1.1-.1.3 0 .4 0 .4.1.1 0 .1.1.1.3 0 .2.1.3.1.5V6c-.4-.1-.4 0-.4 0zm8.6 6.8V14c-.1.4-.1.8-.2 1.2 0 .2-.1.4-.1.6-.1.2-.1.4-.2.6-.1.3-.2.6-.4.9s-.3.7-.5 1c-.2.2-.3.4-.5.6-.1.2-.3.3-.4.4-.1.1-.2.2-.4.3-.1.1-.3.2-.5.4-.4.2-.8.5-1.3.8-.5.3-.9.5-1.4.5-.4 0-.8.1-1.1.1-.3 0-.4 0-.4-.1-.1 0-.1-.1-.1-.3 0-.2-.1-.3-.1-.5V20v-.2-1.5-1.6-1.4-.8-1.2-1.6-1.4-.7-.7-1.3-1.3-.7-.5-.5-.3c0-.1.1-.2.2-.2h.9c.4.1.8.1 1.1.2.1 0 .3.1.5.2.3.1.6.3 1 .5.5.3.9.6 1.1.9.3.3.5.6.7.9.3.4.5.7.7 1 .2.3.3.7.5 1.2.1.2.1.5.2.8.1.4.1.7.1 1.1 0 .4.1.7.1 1 .5.6.5.8.5.9z"/>
  <path class="st0" d="M295.7 8.6c0 .6.1 1.2.1 1.8v1.8c0 1-.1 2-.1 3s-.1 2-.1 3v1c0 .6-.1 1.2-.1 1.7s0 1-.1 1.7V23.2c0 .1-.1.3-.1.4-.1.1-.2.2-.3.2h-1c-.4 0-.7-.1-1-.2-.3-.1-.6-.2-.8-.4-.2-.2-.3-.4-.3-.7v-.4-.5h-.9c-.3 0-.5 0-.7-.1-.2 0-.5 0-.9-.1-.3 0-.6-.1-.9-.1-.3-.1-.6-.1-.8-.2-.2-.1-.3-.1-.4-.1-.7-.2-1.2-.6-1.6-1-.4-.4-.8-.8-1-1.3-.3-.4-.4-.9-.5-1.4-.1-.5-.1-1.1 0-1.7.1-.5.2-.9.4-1.3s.5-.7.8-1c.2-.2.4-.4.8-.6.4-.2.6-.4.8-.5.5-.2 1-.4 1.4-.5.4-.1 1-.1 1.7-.2.6 0 1-.1 1.4-.1h1.1v-.2-.2-1.7c-.1-.6-.2-1.2-.3-1.6-.1-.2-.1-.3-.2-.5 0-.2-.1-.4-.3-.6-.2-.3-.3-.5-.5-.6-.2-.1-.4-.2-.7-.2-.2 0-.4.1-.5.2-.2.1-.3.3-.4.4s-.2.3-.3.5c-.1.2-.1.3-.1.3l-.3.9c-.1.3-.1.7-.2 1.1 0 .2-.1.3-.1.4 0 .1-.1.2-.2.3-.1.1-.3.1-.6.2h-1c-.4 0-.7-.1-.8-.3-.2-.2-.3-.3-.4-.5-.1-.2-.1-.4-.1-.6v-.6-.3-.3c.1-.8.2-1.4.4-1.9s.3-.9.5-1.1c.2-.3.3-.5.4-.6.1-.1.2-.3.3-.4.4-.3.7-.6 1-.9.3-.2.7-.4 1.1-.5.6-.1 1.1-.1 1.7-.1.5.1 1.1.2 1.6.5.1.1.2.1.3.2.1.1.2.1.3.2.4.2.6.4.9.7.2.3.4.6.6 1 .3.6.5 1.2.6 1.9.3.8.4 1.5.4 2.1m-20.8 2.7c-.1-.1-.1 0-.2.2v2.7c0 .4.1.9 0 1.3V23.7c0 .2 0 .4-.1.6 0 .2-.1.4-.2.6-.1.2-.3.4-.5.4-.5 0-1 .1-1.4 0s-.8-.1-1.2-.2c-.1 0-.1-.1-.2-.1s-.1-.1-.2-.1c-.2-.1-.3-.3-.3-.4V24v-.9-.9-.5-1.1c0-.6 0-1.2.1-2v-2.3-2.2c0-.3 0-.7-.1-1.4 0-.6 0-1.3-.1-2s0-1.4 0-2V7.5 5.8 4.7 1.9v-.6c0-.2 0-.4.1-.6 0-.2.1-.3.3-.4.2 0 .3-.1.5-.1.2-.1.3-.1.5-.1h2.2c.1 0 .2 0 .5.1.2 0 .3.2.4.5l.3.9c.1.3.1.7.2 1 .1.4.1.7.2.9.2.5.3 1 .4 1.5.1.5.3 1 .4 1.5 0 .1.1.4.2.8s.2.8.3 1.3c.1.5.3 1 .4 1.6s.3 1.1.4 1.6c.1.5.3 1 .4 1.4.1.4.2.7.2.9s.1.3.1.5c.1.2.1.4.2.6.1.1.1 0 .1-.1v-.7-1.1-1.2-1-1.6-.7-.9V7v-.7c0-.4 0-.8-.1-1.2 0-.3 0-.7-.1-1.2V2.6 1.5v-.2V1c0-.1.1-.3.2-.4.1-.1.3-.2.7-.2.1 0 .2 0 .4-.1.2 0 .4 0 .6-.1h1.1c.3 0 .5.1.7.3.2.2.2.4.2.6 0 .5-.1 1-.1 1.5v10c0 .5 0 .9-.1 1.5V24.4c0 .3 0 .5-.1.5 0 .2-.2.3-.4.4-.2.1-.4.1-.6.1h-1.9c-.1 0-.3-.1-.5-.1s-.4-.1-.6-.2c-.4-.2-.5-.4-.6-.8 0-.6-.1-1.2-.3-1.8-.2-.6-.3-1.2-.3-1.8-.2-1.1-.4-2.2-.7-3.3-.3-1.1-.6-2.2-.8-3.3-.1-.5-.2-.9-.4-1.4.1-.5 0-1-.2-1.4zM260.8 6v14.7c0 .2 0 .3-.1.5 0 .1 0 .2-.1.3 0 .1-.1.2-.2.2h-.8c-.2 0-.4-.1-.6-.1-.2 0-.4-.1-.5-.1-.1 0-.3-.1-.5-.2-.3-.1-.6-.3-1-.5-.5-.3-.9-.6-1.1-.9-.3-.3-.5-.6-.7-.9-.3-.4-.5-.7-.7-1-.2-.3-.3-.7-.5-1.2-.1-.2-.1-.5-.2-.8 0-.3-.1-.7-.1-1.1 0-.4-.1-.7-.1-1v-.6-1.2c.1-.4.1-.8.2-1.2 0-.2.1-.4.1-.6.1-.2.1-.4.2-.6.1-.3.2-.6.4-.9s.4-.7.6-1c.2-.2.3-.4.4-.6.1-.2.2-.3.4-.4.1-.1.2-.3.4-.4.1-.1.3-.2.5-.4.4-.2.8-.5 1.3-.8.5-.3 1-.5 1.4-.5.4 0 .8 0 1.1-.1.3 0 .4 0 .4.1.1 0 .1.1.1.3 0 .2.1.3.1.5V6c-.4-.1-.4 0-.4 0zm8.6 6.8V14c-.1.4-.1.8-.2 1.2 0 .2-.1.4-.1.6-.1.2-.1.4-.2.6-.1.3-.2.6-.4.9-.2.3-.3.7-.5 1-.2.2-.3.4-.5.6-.1.2-.3.3-.4.4-.1.1-.2.2-.4.3-.1.1-.3.2-.5.4-.4.2-.8.5-1.3.8-.5.3-.9.5-1.4.5-.4 0-.8.1-1.1.1-.3 0-.4 0-.4-.1-.1 0-.1-.1-.1-.3 0-.2-.1-.3-.1-.5V20v-.2-1.5-1.6-1.4-.8-1.2-1.6-1.4-.7-.7-1.3-1.3-.7-.5-.5-.3c0-.1.1-.2.2-.2h.9c.4.1.8.1 1.1.2.1 0 .3.1.5.2.3.1.6.3 1.1.5.5.3.9.6 1.1.9.3.3.5.6.7.9.3.4.5.7.7 1 .2.3.3.7.5 1.2.1.2.1.5.2.8.1.3.1.7.1 1.1 0 .4.1.7.1 1 .4.6.4.8.4.9zm-21.2-5.2c-.3-.1-.4-.3-.4-.6s0-.5.1-.6v-.7V5c0-.2-.1-.4-.1-.4-.1-.2-.1-.3-.2-.4-.1-.1-.2-.3-.4-.4-.2-.2-.5-.2-.9-.2s-.7.2-.9.5c-.1.1-.2.3-.2.5s-.1.4-.1.6v1.1c.1.8.4 1.6.9 2.2.2.3.4.6.7.9.2.3.5.6.7 1 .3.4.6.8.8 1.2.3.4.5.7.7 1 .2.2.4.5.6.8.7.9 1.2 1.8 1.6 2.8.4 1 .6 2 .7 3.1v1.6c-.1 1.3-.6 2.3-1.7 3.2-.1.1-.2.1-.2.2l-.2.2c-.3.2-.7.4-1 .6-.4.1-.7.2-1.1.2h-1.3c-.4 0-.8-.1-1.2-.2-.3-.1-.6-.2-.8-.3-.2-.1-.5-.3-.8-.6-.2-.2-.4-.4-.7-.6-.2-.2-.4-.4-.6-.7 0-.1-.1-.2-.1-.2 0-.1-.1-.2-.1-.2-.2-.4-.3-.9-.4-1.3-.1-.4-.2-.9-.2-1.4V19c0-.3 0-.6.1-.8 0-.3.1-.5.1-.7 0-.2.1-.3.1-.4.2-.3.4-.5.8-.5h.3c.6.1 1.2.3 1.8.5.2.1.4.2.4.3.1.1.1.2.1.5s-.1.6-.1.9v1c0 .4.1.8.1 1.1 0 .3.2.6.4.8.2.2.6.3.9.4.4.1.8 0 1.1-.2.2-.2.4-.4.6-.7.1-.3.2-.6.2-.9 0-.4 0-.8-.1-1.2-.1-.4-.3-.8-.4-1.1-.2-.4-.4-.7-.6-1.1-.2-.4-.4-.7-.7-1.1-.2-.3-.4-.6-.6-1-.2-.3-.4-.7-.6-1-.2-.2-.3-.5-.4-.7-.1-.2-.3-.5-.5-.7-.3-.4-.6-.8-.7-1.1-.2-.3-.4-.7-.5-1 0-.1-.1-.2-.1-.3-.1-.1-.1-.2-.2-.3-.4-.6-.7-1.3-.9-1.9-.2-.7-.3-1.4-.3-2.1-.1-.9 0-1.7.2-2.4.2-.6.5-1.1 1-1.5.7-.5 1.5-.9 2.4-1 .7-.1 1.4-.1 2.1 0 .7.1 1.4.3 2 .7.3.2.6.5.9.8.3.3.5.6.7 1 .1.3.2.5.2.8.1.3.1.6.1.9v2c0 .8-.4 1.1-1.2 1.1h-1.3c-.1 0-.5-.4-.6-.5zM238.9 23c.1.2.1.5.1.7 0 .2.1.5.1.8v.5c-.1.1-.2.1-.5.2-.2.1-.5.1-.8.1h-2.2c-.3-.1-.5-.2-.6-.3-.1-.1-.2-.4-.2-.8 0-.2 0-.5-.1-.7 0-.2-.1-.5-.1-.7-.1-.6-.2-1.3-.3-1.9-.1-.6-.2-1.3-.3-1.9-.1-.4-.1-.8-.2-1.2-.1-.4-.1-.8-.2-1.2 0-.3-.1-.6-.2-.8-.1-.3-.1-.5-.2-.8-.2-.6-.3-1.3-.4-1.9-.1-.6-.2-1.3-.4-1.9 0-.2 0-.3.1-.5.1-.1.3-.2.5-.2h2.1c.2 0 .4 0 .5.1.2.1.4.3.5.6.2.8.4 1.7.5 2.5.2.9.3 1.7.5 2.6 0 .3.1.6.2.9.1.3.2.6.2.9l.6 2.4c.3.9.6 1.7.8 2.5zm-.2-21.2c.7.9 1 1.9.9 3.1 0 .5-.1.9-.3 1.3-.2.4-.3.8-.6 1.3-.1.2-.3.5-.5.7l-.6.6c-.5.5-1.1.8-1.7 1-.6.2-1.3.3-2 .4-.4 0-.7 0-1.1-.2-.4-.2-.6-.4-.6-.8v-.7-.7-.9V6v-.6-.6-1.3-1.3-.6c0-.2.1-.4.1-.6 0-.2.1-.4.2-.5.1-.1.3-.1.5-.2.3 0 .6-.1.9-.1.3 0 .6-.1.9-.1h1.2c.4.1.8.2 1.1.4.3.2.6.3.8.5.3.4.6.6.8.8zm-7 22.1V25c-.1.1-.3.2-.6.3-.5.1-.8.1-1.1.1h-1.5c-.1 0-.2 0-.3-.1-.2-.2-.3-.4-.3-.7v-.3-.3-1.4-1.4c0-.8.1-1.5 0-2.3 0-.7 0-1.5-.1-2.3v-1.5c0-.5.1-1 .1-1.5 0-.4 0-.9.1-1.3V11v-.8-1-1.4-1.5-1-1-1.4-1.4c0-.2.1-.3.1-.5s.1-.3.1-.5c.1-.2.2-.4.5-.4h2c.2 0 .4.1.5.2.1.1.2.2.2.5.1.5.2 1 .2 1.4 0 .5 0 .9.1 1.4v2.8c0 .7.1 1.4 0 2s0 1.3-.1 2V12c0 .6-.1 1.2 0 1.8v2.6c0 .3 0 .6.1.9v6.6z"/>
  <path class="st0" d="M306.6 20c.3 0 .4.1.5.2.1.1.1.2.1.4V23c0 .1 0 .2-.1.3-.2.3-.4.4-.9.4h-5.9c-.1 0-.4 0-.5-.1h-1c-.3-.1-.4-.2-.4-.5 0-.4.1-.9.1-1.3s0-.9.1-1.3v-1.4c0-.4 0-.9.1-1.3v-.4c0-.5-.1-.9 0-1.4v-1.4c0-.3 0-.7.1-1v-1-1.9c0-.6 0-1.3-.1-1.9 0-.6-.1-1.2 0-1.8 0-.6 0-1.2.1-1.8v-1-1-.5c0-.2.2-.3.4-.3.9-.2 1.9-.2 2.8 0 .2 0 .3.1.4.4.1.6.1 1.3.1 1.9v1.9c0 .5 0 1.1.1 1.7 0 .4.1.8.1 1.1 0 .4 0 .8.1 1.1 0 .3.1.7.1 1v1.1c0 .2-.1.5 0 .8v1.4c0 .2 0 .4-.1.8-.1.2-.1.4 0 .6v4.1h3c-.1-.4.4-.3.8-.3"/>
  <path class="st1" d="M129 41v.9c0 .3 0 .6-.1.9v5.9c0 .6 0 .9-.1 1.2v3.8c0 .6 0 1.2.1 1.7v3.4c0 .2-.1.3-.3.4-.2.1-.3.1-.4.2-.4.1-.8.2-1.2.2h-1.4c-.3-.1-.5-.2-.5-.4-.2-.4-.3-.7-.3-1v-.6-.6-.8-1.4-1.5-1-1.1-1.1-.8-.9-.7c0-.2-.1-.2-.2-.2-.2.4-.3.8-.5 1.1-.2.4-.3.8-.4 1.2-.1.2-.1.5-.2.8l-.3.9c-.1.3-.2.6-.3.8l-.2.4c0 .1-.1.2-.1.2 0 .1-.1.1-.1.2-.2.3-.4.5-.6.5-.2 0-.4 0-.5-.1-.2-.1-.4-.3-.5-.6-.3-.4-.4-.9-.5-1.4-.1-.5-.2-1-.4-1.6-.1-.4-.2-.8-.4-1.2-.2-.4-.3-.8-.5-1.2-.1 0-.1 0-.2.2v10.5c0 .3-.1.6-.2 1-.1.2-.3.3-.5.4-.5 0-1 .1-1.4 0-.4 0-.8-.1-1.2-.2-.1 0-.3-.1-.4-.2-.2-.1-.3-.2-.3-.4v-.4-.8-.8-.4-1c0-.5.1-1.1.1-1.7v-2-1.8-1.1c0-.5 0-1.1-.1-1.7 0-.6 0-1.2-.1-1.7v-1.1-1.4-.9-2.5-.5c0-.2 0-.3.1-.5 0-.2.2-.3.3-.3.2 0 .3-.1.5-.1.2-.1.3-.1.5-.1h2.6c.2 0 .3.2.4.4.1.2.2.5.3.8.1.3.1.6.2.9.1.3.1.6.2.8.2.4.3.9.4 1.3.1.4.3.9.4 1.3 0 .2.2.5.3 1.1.2.6.4 1.2.6 1.9.2-.7.4-1.4.6-2s.3-1 .3-1.1c.1-.4.2-.9.4-1.3.1-.4.3-.9.4-1.3.1-.2.1-.4.2-.8.1-.3.1-.6.2-.9.1-.3.2-.6.3-.8.1-.2.2-.4.4-.4h2.6c.2 0 .3.1.5.1s.3.1.5.1c.2.1.3.2.3.3 0 .2.1.3.1.5v1.3c.6.3.6.5.6.8m-16.8 18c.1.2.1.5.1.7 0 .2.1.5.1.8v.5c-.1.1-.2.1-.5.2-.2.1-.5.1-.8.1h-2.2c-.3-.1-.5-.2-.6-.3-.1-.1-.2-.4-.2-.8 0-.2 0-.5-.1-.7 0-.2-.1-.5-.1-.7-.1-.6-.2-1.3-.3-1.9-.1-.6-.2-1.3-.3-1.9-.1-.4-.1-.8-.2-1.2-.1-.4-.1-.8-.2-1.2 0-.3-.1-.6-.2-.8-.1-.3-.1-.5-.2-.8-.2-.6-.3-1.3-.4-1.9-.1-.6-.2-1.3-.4-1.9 0-.2 0-.3.1-.5.1-.1.3-.2.5-.2h2.1c.2 0 .4 0 .5.1.2.1.4.3.5.6.2.8.4 1.7.5 2.5.2.9.3 1.7.5 2.6 0 .3.1.6.2.9.1.3.2.6.2.9l.6 2.4c.2.8.6 1.7.8 2.5zm-.2-21.2c.7.9 1.1 1.9.9 3.1 0 .5-.1.9-.3 1.3-.2.4-.3.8-.6 1.3-.1.2-.3.5-.5.7l-.6.6c-.5.5-1.1.8-1.7 1-.6.2-1.3.3-2 .4-.3 0-.7 0-1.1-.2-.4-.2-.6-.4-.6-.8v-.7-.7c0-.3 0-.6-.1-.9 0-.3 0-.6.1-.9v-.6-.6-1.3-1.3-.6c0-.2.1-.4.1-.6 0-.2.1-.4.2-.5.1-.1.3-.1.5-.2.3 0 .6-.1.9-.1.3 0 .6-.1.9-.1h1.2c.4.1.8.2 1.1.4.3.2.6.3.8.5.4.3.6.5.8.8zm-7 22.1V61c-.1.1-.3.2-.6.3-.5.1-.8.1-1.1.1h-1.5c-.1 0-.2 0-.3-.1-.2-.2-.3-.4-.3-.7v-.3-.3-1.4-1.4c0-.8.1-1.5 0-2.3 0-.7 0-1.5-.1-2.3v-1.5c0-.5.1-1 .1-1.5 0-.4 0-.9.1-1.3V47c0-.3 0-.5-.1-.8v-1c0-.4 0-.9-.1-1.4 0-.5 0-1 .1-1.5v-1-1-1.4-1.4c0-.2.1-.4.1-.5 0-.2.1-.3.1-.5.1-.2.2-.4.5-.4h2c.2 0 .4.1.5.2.1.1.2.2.2.5.1.5.2 1 .2 1.4 0 .5 0 .9.1 1.4v2.8c0 .7.1 1.4 0 2 0 .6 0 1.3-.1 2V48c0 .6-.1 1.2 0 1.8v2.6c0 .3 0 .6.1.9v1.4l.1 5.2zM90.8 42v15.2c0 .1 0 .2-.1.3 0 .1-.1.2-.2.2h-.8c-.2 0-.4-.1-.6-.1-.2 0-.4-.1-.5-.1-.1 0-.3-.1-.5-.2-.3-.1-.6-.3-1.1-.5-.5-.3-.9-.6-1.1-.9-.3-.3-.5-.6-.7-.9-.3-.4-.5-.7-.7-1-.2-.3-.3-.7-.5-1.2-.1-.2-.1-.5-.2-.8 0-.3-.1-.7-.1-1.1 0-.4-.1-.7-.1-1v-.6-1.2c.1-.4.1-.8.2-1.2 0-.2.1-.4.1-.6.1-.2.1-.4.2-.6.1-.3.2-.6.4-.9.2-.3.4-.7.6-1 .2-.2.3-.4.4-.6.1-.2.2-.3.4-.4.1-.1.2-.3.4-.4.1-.1.3-.2.5-.4.4-.2.8-.5 1.3-.8.5-.3 1-.5 1.4-.5.4 0 .8 0 1.1-.1.3 0 .4 0 .4.1.1 0 .1.1.1.3 0 .2.1.3.1.5v.5c-.4-.1-.4 0-.4 0zm8.7 6.8V50c-.1.4-.1.8-.2 1.2 0 .2-.1.4-.1.6-.1.2-.1.4-.2.6-.1.3-.2.6-.4.9-.2.3-.3.7-.5 1-.2.2-.3.4-.5.6-.1.2-.3.3-.4.4-.1.1-.2.2-.4.3-.1.1-.3.2-.5.4-.4.2-.8.5-1.3.8-.5.3-.9.5-1.4.5-.4 0-.8.1-1.1.1-.3 0-.4 0-.4-.1-.1 0-.1-.1-.1-.3 0-.2-.1-.3-.1-.5V56v-.2-1.5-1.6-1.4-.8-1.2-1.6-1.4-.7-.7-1.3-1.3-.7-.5-.5-.3c0-.1.1-.2.2-.2h.9c.4.1.8.1 1.1.2.1 0 .3.1.5.2.3.1.6.3 1.1.5.5.3.9.6 1.1.9.3.3.5.6.7.9.3.4.5.7.7 1 .2.3.3.7.5 1.2.1.2.1.5.2.8.1.4.1.7.1 1.1 0 .4.1.7.1 1 .4.6.4.8.4.9zm-22.7-6c.2 0 .3.1.3.2.1.1.1.2.1.4v2.4c0 .1 0 .2-.1.3-.1.3-.3.4-.6.4s-.6 0-.9.1H73v1.2c0 .3.1.7.1 1 0 .3 0 .6.1 1v.2c0 .5-.1 1-.1 1.4 0 .5 0 1-.1 1.4v6.1c0 .5-.1.9-.2 1.1-.1.3-.2.5-.4.7-.2.2-.4.3-.6.3-.2 0-.4.1-.7.1-.4 0-.7.1-1.1 0-.4 0-.7-.1-1-.3-.1-.1-.2-.3-.2-.5v-.6-.7c0-.4 0-.8.1-1.2v-1.2-.7V54v-1.9-.9c0-.3 0-.6.1-.9v-1.2-1.3-1.3-1.3-.7-.9-.9-.7-1.2c0-.5 0-1.1.1-1.6s.1-1.1.1-1.6c.1-.5.2-.8.3-1 .1-.3.3-.4.5-.5.4-.1.9-.2 1.3-.2s.9 0 1.3.1c.2 0 .4.1.4.2.1.1.1.2.1.5v1c0 .3 0 .6-.1 1 0 .5-.1.9 0 1.4v2.8h2.5c.2 0 .3 0 .4-.1h.9zm4.8-4.7V44.7c0 .7 0 1.4-.1 2.1-.1.7-.1 1.4 0 2.1v6.4c0 .7 0 1.4.1 2.1 0 .7 0 1.4.1 2s0 .9 0 1c0 .4 0 .6-.2.7-.2.1-.4.2-.6.2-.3 0-.5.1-.8.1h-1.6c-.3 0-.5-.1-.7-.2-.2-.1-.3-.3-.3-.6v-.3-.3c0-.2 0-.6.1-1 0-.4 0-.9.1-1.4v-1.3-.7c0-.4.1-.7.1-1.1v-1.1V52v-1.4c0-.5.1-1 .1-1.5s.1-1 .1-1.7c0-.2.1-.3 0-.5v-.5V44v-2.4c0-.7-.1-1.3-.1-2v-2-.3-.3c.1-.3.3-.5.7-.6.2 0 .5-.1.9-.1h1.7c.2 0 .4.2.4.4v1.4z"/>
  <path class="st1" d="M204.6 36.7c.1.2.2.4.4.7.1.3.2.8.1 1.3-.1.1-.1.2-.2.3 0 .1-.1.2-.2.2-.1.1-.2.1-.3.2-.1.1-.3.2-.5.3-.2.1-.3.2-.4.2l-.2.2s-.1.1-.2.1-.2.1-.3.2c-.6.4-1.2 1-1.7 1.7s-.9 1.5-1.3 2.5c-.1.2-.2.4-.2.6-.1.2-.1.4-.2.6-.4 1.5-.5 2.9-.3 4.2v.7c0 .2.1.4.2.8.1.3.2.6.3 1l.3.9c.1.3.2.5.2.6.3.7.7 1.3 1 1.7.3.4.8.8 1.4 1.2.4.3.7.4 1 .5.2.1.5.2.7.2h.1l.4.2c.1.1.1.2.1.4 0 .3 0 .6-.1 1 0 .3-.1.7-.3 1-.3.6-.7 1-1.3 1h-.4c-1.1-.3-2.3-1-3.6-2.3-1.2-1.1-2-2.3-2.5-3.4-.5-1.2-.8-2.2-.9-3.1-.1-.5-.2-1-.2-1.4 0-.4 0-.8-.1-1.1v-.3-1c0-.3 0-.7.1-1v-.3-.3c0-.7.1-1.5.4-2.4.1-.5.3-1 .4-1.5.2-.4.3-.8.5-1.2.8-1.6 1.6-2.8 2.4-3.5l.4-.4c.3-.3.5-.5.8-.7.2-.2.5-.4.7-.5.2-.1.5-.3.7-.4l.9-.3c.5-.2.9-.2 1.2-.1s.4.2.5.4c.1.2.1.2.2.3-.1-.1 0 0 0 0m-10.8 7.9c0 .6.1 1.2.1 1.8v1.8c0 1-.1 2-.1 3s-.1 2-.1 3v1c0 .6-.1 1.2-.1 1.7s0 1-.1 1.7V59.2c0 .1-.1.3-.1.4-.1.1-.2.2-.3.2h-1c-.4 0-.7-.1-1-.2-.3-.1-.6-.2-.8-.4-.2-.2-.3-.4-.3-.7v-.4-.5h-.9c-.3 0-.5 0-.7-.1-.2 0-.5 0-.9-.1-.3 0-.6-.1-.9-.1-.3-.1-.6-.1-.8-.2-.2-.1-.3-.1-.4-.1-.7-.2-1.2-.6-1.6-1-.4-.4-.8-.8-1-1.3-.3-.4-.4-.9-.5-1.4-.1-.5-.1-1.1 0-1.7.1-.5.2-.9.4-1.3s.5-.7.8-1c.2-.2.4-.4.8-.6.4-.2.6-.4.8-.5.5-.2 1-.4 1.4-.5.4-.1 1-.1 1.7-.2.6 0 1-.1 1.4-.1h1.1v-.2-.2-1.7c-.1-.6-.2-1.2-.3-1.6-.1-.2-.1-.3-.2-.5 0-.2-.1-.4-.3-.6-.2-.3-.3-.5-.5-.6-.2-.1-.4-.2-.7-.2-.2 0-.4.1-.5.2-.2.1-.3.3-.4.4-.1.2-.2.3-.3.5-.1.2-.1.3-.1.3l-.3.9c-.1.4-.1.7-.2 1.1 0 .2-.1.3-.1.4 0 .1-.1.2-.2.3-.1.1-.3.1-.6.2h-1c-.4 0-.7-.1-.8-.3s-.3-.3-.4-.5c-.1-.2-.1-.4-.1-.6v-.6-.3-.3c.1-.8.2-1.4.4-1.9s.3-.9.5-1.1c.2-.3.3-.5.4-.6.1-.1.2-.3.3-.4.4-.3.7-.6 1-.9.3-.2.7-.4 1.1-.5.6-.1 1.1-.1 1.7-.1.5.1 1.1.2 1.6.5.1.1.2.1.3.2.1.1.2.1.3.2.4.2.6.4.9.7.2.3.4.6.6 1 .3.6.5 1.2.6 1.9.2.8.3 1.4.4 2.1zm-13 13.9v.5c0 .2 0 .4.1.7v1c0 .2 0 .3-.1.3-.1.1-.3.1-.7.1-.3 0-.6.1-.9.1h-8.4c-.1 0-.3 0-.4-.1-.3 0-.4-.2-.4-.6l.3-.9c.1-.3.2-.7.3-1 .1-.4.2-.7.4-1l.3-.9c.2-.8.5-1.6.7-2.4.2-.8.4-1.6.6-2.5.1-.3.1-.7.2-1 .1-.3.2-.7.3-1 .1-.5.3-1 .4-1.5.1-.5.3-1 .4-1.5.2-.6.3-1.2.4-1.8l.3-1.8.3-1.2.3-1.2c0-.2.1-.4.2-.7.1-.2.1-.4.2-.7H170.4c-.1 0-.3-.1-.4-.3l-.1-.1c0-.1-.1-.1-.1-.2-.3-.7-.4-1.4-.3-2.1 0-.2.1-.3.2-.4.1-.1.4-.2.7-.2.3 0 .6-.1.9-.1h8.1c.5 0 .9.1 1.1.4.1.1.1.2.1.3 0 .2-.1.5-.2 1s-.2.9-.3 1.3v.5c0 .2-.1.3-.1.4l-.3.9-.8 2.4-.3 1.2-.3 1.5c-.1.5-.3 1-.4 1.5-.1.2-.1.4-.2.6-.1.2-.2.4-.2.6-.1.2-.2.5-.2.7-.1.2-.1.5-.1.7 0 .3-.1.6-.2.9l-.3.9c-.2.8-.4 1.5-.6 2.3-.2.8-.4 1.5-.5 2.3 0 .2-.1.4-.1.6s-.1.4-.2.6h4.2c.3 0 .5 0 .7.1.2.1.3.2.4.3.2.3.2.4.2.5zm-14.1-22.2c.3.2.5.5.7.9.2.4.2.9.1 1.3 0 .3-.1.6-.3.8-.1.2-.4.4-.7.6-.1.1-.3.1-.5.1s-.4.1-.6.1c-.4 0-.9-.2-1.3-.5s-.6-.7-.7-1.1c-.1-.8.1-1.5.7-1.9.7-.6 1.5-.7 2.4-.4 0 0 .1 0 .2.1zm.5 23.2c0 .1 0 .3.1.4 0 .1 0 .3.1.4.1.2.1.4 0 .7-.1.3-.3.4-.5.4-1 .1-1.9.1-2.8 0-.2 0-.4-.2-.4-.5 0-.2-.1-.5-.1-.8v-.9c0-.7.1-1.5.1-2.2 0-.7 0-1.5.1-2.2v-1-1-1.4V50v-1.2-1.9V45v-1.3-.7-.7-.4-.4c0-.2.2-.3.4-.4h1.4c.3 0 .7 0 1 .1.2 0 .4.1.5.2.1.1.1.3.1.4V58.2c-.1.4-.1.8 0 1.3zm-14.3-12.3c-.1-.1-.1 0-.2.2v.8c0 .3 0 .7.1 1v.9c0 .4.1.9 0 1.3V59.6c0 .2 0 .4-.1.6 0 .2-.1.4-.2.6-.1.2-.3.4-.5.4-.5 0-1 .1-1.4 0-.4 0-.8-.1-1.2-.2-.1 0-.1-.1-.2-.1s-.1-.1-.2-.1c-.2-.1-.3-.3-.3-.4v-.5-.9-.9-.5-1.1c0-.5 0-1.2.1-2v-2.3-2.1c0-.3 0-.7-.1-1.4 0-.6 0-1.3-.1-2v-2-1.2-1.7-1.1V37.8v-.6c0-.2 0-.4.1-.6 0-.2.1-.3.3-.4.2 0 .3-.1.5-.1.2-.1.3-.1.5-.1h2.2c.1 0 .2 0 .5.1.2 0 .3.2.4.5l.3.9c.1.3.1.7.2 1.1.1.4.1.7.2.9.2.5.3 1 .4 1.5.1.5.3 1 .4 1.5 0 .1.1.4.2.8s.2.8.3 1.3.3 1 .4 1.6c.1.6.3 1.1.4 1.6.1.5.3 1 .4 1.4.1.4.2.7.2.9 0 .2.1.3.1.5.1.2.1.4.2.6.1.1.1 0 .1-.1 0-.2.1-.4.1-.7v-1.1-1.2-1-1.6-.7-.9-.9-.7c0-.4 0-.8-.1-1.2 0-.3 0-.8-.1-1.2v-1.3-1.1-.2-.3c0-.1.1-.3.2-.4.1-.1.3-.2.7-.2.1 0 .2 0 .4-.1.2 0 .4 0 .6-.1h1.1c.3 0 .5.1.7.3.2.2.2.4.2.6 0 .5-.1 1-.1 1.5v21.8c0 .3 0 .5-.1.5 0 .2-.2.3-.4.4-.2.1-.4.1-.6.1h-1.9c-.1 0-.3-.1-.5-.1s-.4-.1-.6-.2c-.3-.2-.5-.4-.6-.8 0-.6-.1-1.2-.3-1.8-.2-.6-.3-1.2-.3-1.8-.2-1.1-.4-2.2-.7-3.3-.3-1.1-.6-2.2-.8-3.3-.1-.5-.2-.9-.4-1.4-.1-.6-.3-1-.5-1.5zM138.8 42v15.2c0 .1 0 .2-.1.3 0 .1-.1.2-.2.2h-.8c-.2 0-.4-.1-.6-.1-.2 0-.4-.1-.5-.1-.1 0-.3-.1-.5-.2-.3-.1-.6-.3-1.1-.5-.5-.3-.9-.6-1.1-.9-.3-.3-.5-.6-.7-.9-.3-.4-.5-.7-.7-1-.2-.3-.3-.7-.5-1.2-.1-.2-.1-.5-.2-.8 0-.3-.1-.7-.1-1.1 0-.4-.1-.7-.1-1v-.6-1.2c.1-.4.1-.8.2-1.2 0-.2.1-.4.1-.6.1-.2.1-.4.2-.6.1-.3.2-.6.4-.9s.4-.7.6-1c.2-.2.3-.4.4-.6.1-.2.2-.3.4-.4.1-.1.2-.3.4-.4.1-.1.3-.2.5-.4.4-.2.8-.5 1.3-.8.5-.3 1-.5 1.4-.5.4 0 .8 0 1.1-.1.3 0 .4 0 .4.1.1 0 .1.1.1.3 0 .2.1.3.1.5v.5c-.4-.1-.4 0-.4 0zm8.6 6.8V50c-.1.4-.1.8-.2 1.2 0 .2-.1.4-.1.6-.1.2-.1.4-.2.6-.1.3-.2.6-.4.9s-.3.7-.5 1c-.2.2-.3.4-.5.6-.1.2-.3.3-.4.4-.1.1-.2.2-.4.3-.1.1-.3.2-.5.4-.4.2-.8.5-1.3.8-.5.3-.9.5-1.4.5-.4 0-.8.1-1.1.1-.3 0-.4 0-.4-.1-.1 0-.1-.1-.1-.3 0-.2-.1-.3-.1-.5V56v-.2-1.5-1.6-1.4-.8-1.2-1.6-1.4-.7-.7-1.3-1.3-.7-.5-.5-.3c0-.1.1-.2.2-.2h.9c.4.1.8.1 1.1.2.1 0 .3.1.5.2.3.1.6.3 1 .5.5.3.9.6 1.1.9.3.3.5.6.7.9.3.4.5.7.7 1 .2.3.3.7.5 1.2.1.2.1.5.2.8.1.4.1.7.1 1.1 0 .4.1.7.1 1 .5.6.5.8.5.9z"/>
  <path class="st1" d="M236.6 47.2c-.1-.1-.1 0-.2.2V50.2c0 .4.1.9 0 1.3V59.7c0 .2 0 .4-.1.6 0 .2-.1.4-.2.6-.1.2-.3.4-.5.4-.5 0-1 .1-1.4 0-.4 0-.8-.1-1.2-.2-.1 0-.1-.1-.2-.1s-.1-.1-.2-.1c-.2-.1-.3-.3-.3-.4V60v-.9-.9-.5-1.1c0-.6 0-1.2.1-2s0-1.5 0-2.3v-2.1c0-.3 0-.7-.1-1.4 0-.6 0-1.3-.1-2s0-1.4 0-2v-1.2-1.7-1.1V37.9v-.6c0-.2 0-.4.1-.6 0-.2.1-.3.3-.4.2 0 .3-.1.5-.1.2-.1.3-.1.5-.1h2.2c.1 0 .2 0 .5.1.2 0 .3.2.4.5l.3.9c.1.3.1.7.2 1 .1.4.1.7.2.9.2.5.3 1 .4 1.5.1.5.3 1 .4 1.5 0 .1.1.4.2.8s.2.8.3 1.3c.1.5.3 1 .4 1.6.1.6.3 1.1.4 1.6.1.5.3 1 .4 1.4.1.4.2.7.2.9 0 .2.1.3.1.5.1.2.1.4.2.6.1.1.1 0 .1-.1v-.7-1.1c0-.4 0-.8-.1-1.2v-1-1.6-.7-.9-.9-.7c0-.4 0-.8-.1-1.2s0-.8-.1-1.2v-1.3-1.1-.2-.3c0-.1.1-.3.2-.4.1-.1.3-.2.7-.2.1 0 .2 0 .4-.1.2 0 .4 0 .6-.1h1.1c.3 0 .5.1.7.3.2.2.2.4.2.6 0 .5-.1 1-.1 1.5v21.8c0 .3 0 .5-.1.5 0 .2-.2.3-.4.4-.2.1-.4.1-.6.1H241c-.1 0-.3-.1-.5-.1s-.4-.1-.6-.2c-.4-.2-.5-.4-.6-.8 0-.6-.1-1.2-.3-1.8-.2-.6-.3-1.2-.3-1.8-.2-1.1-.4-2.2-.7-3.3-.3-1.1-.6-2.2-.8-3.3-.1-.5-.2-.9-.4-1.4.1-.6 0-1-.2-1.5M221.9 42v10.2c0 .1 0 .3-.1.7v3.3c0 .2 0 .3-.1.5v.5c0 .1 0 .2-.1.3 0 .1-.1.1-.2.1h-.8c-.2 0-.4-.1-.6-.1-.2 0-.4-.1-.5-.1-.1 0-.3-.1-.5-.2-.3-.1-.6-.3-1.1-.5-.5-.3-.9-.6-1.1-.9s-.5-.6-.7-.9c-.3-.4-.5-.7-.7-1-.2-.3-.3-.7-.5-1.2-.1-.2-.1-.5-.2-.8 0-.4-.1-.7-.1-1.1 0-.4-.1-.7-.1-1 0-.3-.1-.5-.1-.6V48c.1-.4.1-.8.2-1.2 0-.2.1-.4.2-.6s.1-.4.2-.6c.1-.3.2-.6.4-.9s.4-.7.6-1c.2-.2.3-.4.4-.6.1-.2.2-.3.4-.4.1-.1.2-.3.4-.4.1-.1.3-.2.5-.4.4-.2.8-.5 1.3-.8.5-.3.9-.5 1.4-.5.4 0 .8 0 1.1-.1.3 0 .4 0 .4.1.1 0 .1.1.1.3 0 .2.1.3.1.5v.5c-.2 0-.2.1-.2.1zm8.7 6.8V50c-.1.4-.1.8-.2 1.2 0 .2-.1.4-.1.6-.1.2-.1.4-.2.6l-.3.9c-.2.3-.4.7-.6 1-.2.2-.3.4-.4.6-.1.2-.2.3-.4.4-.1.1-.2.2-.4.3-.1.1-.3.2-.5.4-.4.2-.8.5-1.3.8-.5.3-.9.5-1.4.5-.4 0-.8.1-1.1.1-.3 0-.4 0-.4-.1-.1 0-.1-.1-.1-.3 0-.2 0-.3-.1-.5V56v-.2-1.5-1.6-1.4-.8-1.2-1.6-1.4-.7-.7-1.3c0-.5 0-.9.1-1.3v-.7-.5-.5-.3c0-.1.1-.2.2-.2h1c.2 0 .4.1.6.1.2 0 .4.1.5.1.1 0 .3.1.5.2.3.1.6.3 1.1.5.5.3.9.6 1.1.9.3.3.5.6.7.9.3.4.5.7.7 1 .2.3.3.7.5 1.2.1.2.1.5.2.8 0 .3.1.7.1 1.1 0 .4.1.7.1 1s.1.8.1.9zM224 38.3c-.1 0-.3.1-.4.1-.1 0-.3 0-.4.1-.3.1-.7.2-1.1.3-.1 0-.2.1-.4.1-.2.1-.4.1-.7.2-.2.1-.5.1-.7.2-.2.1-.4.1-.5.1-.1 0-.2 0-.3.1-.1 0-.2 0-.2.1h-.3c-.1 0-.2-.1-.2-.2l-.1-.3c-.1-.2-.2-.5-.2-.7-.1-.2-.1-.5-.2-.7-.1-.3 0-.4.1-.5.1 0 .3-.1.6-.2s.7-.2 1.1-.3c.4-.1.8-.2 1.1-.3.4-.1.6-.2.8-.2.2 0 .4-.1.7-.1.3 0 .4-.1.4-.1.4-.1.7-.1 1-.2l.9-.3c.1 0 .2-.1.3-.2.1 0 .2-.1.2 0 .1 0 .2.1.3.3.1.3.2.6.3 1 .1.3.2.7.2 1 0 .2 0 .3-.1.3-.1.1-.2.1-.3.1-.1 0-.2.1-.3.1-.3 0-.6.1-.9.2-.2-.1-.4 0-.7 0zm-13.1-2c.3.2.5.5.7.9.2.4.2.9.1 1.3 0 .3-.1.6-.3.8s-.4.4-.7.6c-.1.1-.3.1-.5.1s-.4.1-.6.1c-.4 0-.9-.2-1.3-.5s-.6-.7-.7-1.1c-.1-.8.1-1.5.7-1.9.7-.6 1.5-.7 2.4-.4.1 0 .2 0 .2.1zm.5 23.2c0 .1 0 .3.1.4s0 .3.1.4c.1.2.1.4 0 .7-.1.3-.3.4-.5.4-1 .1-1.9.1-2.8 0-.2 0-.4-.2-.4-.5 0-.2-.1-.5-.1-.8v-.9c0-.7.1-1.5.1-2.2 0-.7 0-1.5.1-2.2v-1-1-1.4V50v-1.2-1.9V45v-1.3-.7-.7-.4-.4c0-.2.2-.3.4-.4h1.4c.3 0 .7 0 1 .1.2 0 .4.1.5.2.1.1.1.3.1.4V59.5z"/>
  <path class="st2" d="M285.9 47.7l-21.9-.6c-4.3-.1-8 3.3-8.1 7.6-.1 4.3 3.3 8 7.6 8.1l21.9.6c4.3.1 8-3.3 8.1-7.6.2-4.4-3.2-8-7.6-8.1m-9.6 13.8l-12.7-.4c-3.4-.1-6.1-3-6-6.4.1-3.4 3-6.1 6.4-6l12.5.3c.7 1.9 1.1 4.1 1 6.4 0 2.3-.5 4.3-1.2 6.1z"/>
  <path class="st3" d="M279.4 49.9s9.5-.9 11.5 3.6"/>
  <path class="st2" d="M305.6 59.5l8-20.4c1.6-4-.4-8.6-4.4-10.2-4-1.6-8.6.4-10.2 4.4l-8 20.4c-1.6 4 .4 8.6 4.4 10.2 4 1.6 8.6-.4 10.2-4.4m-9.7-13.8l4.7-11.8c1.3-3.2 4.9-4.7 8-3.5 3.2 1.3 4.7 4.9 3.5 8l-4.6 11.7c-2 0-4.2-.4-6.4-1.2-2-.8-3.8-1.9-5.2-3.2z"/>
  <path class="st3" d="M305.8 52.5s-2.4 9.3-7.3 9.5"/>
  <path class="st2" d="M26.3 48.7l21.9-.6c4.3-.1 8 3.3 8.1 7.6.1 4.3-3.3 8-7.6 8.1l-21.9.6c-4.3.1-8-3.3-8.1-7.6-.2-4.3 3.2-8 7.6-8.1m9.6 13.8l12.7-.4c3.4-.1 6.1-3 6-6.4-.1-3.4-3-6.1-6.4-6l-12.5.3c-.7 1.9-1.1 4.1-1 6.4 0 2.3.5 4.3 1.2 6.1z"/>
  <path class="st3" d="M32.8 50.9s-9.5-.9-11.5 3.6"/>
  <path class="st2" d="M15.2 34.6l8 20.4c1.6 4-.4 8.6-4.4 10.2s-8.6-.4-10.2-4.4l-8-20.4C-1 36.4 1 31.8 5 30.2c4-1.6 8.6.4 10.2 4.4M5.5 48.3l4.7 11.8c1.3 3.2 4.9 4.7 8 3.5 3.2-1.3 4.7-4.9 3.5-8l-4.6-11.7c-2 0-4.2.4-6.4 1.2-2 .9-3.8 2-5.2 3.2z"/>
  <path class="st3" d="M15.3 41.5S12.9 32.2 8 32"/>
  <path d="M18.2 63.6c3.2-1.3 4.7-4.9 3.5-8l-4.6-11.7c-2 0-4.2.4-6.4 1.2-2 .8-3.8 1.9-5.2 3.2l4.7 11.8c1.2 3.2 4.8 4.8 8 3.5" fill-rule="evenodd" clip-rule="evenodd" fill="#fff"/>
</svg>