<svg xmlns="http://www.w3.org/2000/svg" width="58.2" height="36.1" viewBox="0 0 58.2 36.1">
  <style>
    .st0{fill-rule:evenodd;clip-rule:evenodd;fill:#002032}.st1{fill:none;stroke:#fff;stroke-width:1.073;stroke-linecap:round;stroke-miterlimit:22.926}
  </style>
  <path class="st0" d="M30 19.3l-21.9-.6C3.8 18.6.1 22 0 26.3c-.1 4.3 3.3 8 7.6 8.1l21.9.6c4.3.1 8-3.3 8.1-7.6.1-4.3-3.3-7.9-7.6-8.1m-9.6 13.9l-12.7-.4c-3.4-.1-6.1-3-6-6.4.1-3.4 3-6.1 6.4-6l12.5.3c.7 1.9 1.1 4.1 1 6.4-.1 2.3-.5 4.3-1.2 6.1z"/>
  <path class="st1" d="M23.4 21.6s9.5-.9 11.5 3.6"/>
  <path class="st0" d="M49.6 31.1l8-20.4c1.6-4-.4-8.6-4.4-10.2-4-1.5-8.6.5-10.1 4.5l-8 20.4c-1.6 4 .4 8.6 4.4 10.2 4 1.5 8.6-.5 10.1-4.5m-9.7-13.7l4.7-11.8c1.3-3.2 4.9-4.7 8-3.5 3.2 1.3 4.7 4.9 3.5 8l-4.6 11.7c-2 0-4.2-.4-6.4-1.2-2-.8-3.7-1.9-5.2-3.2z"/>
  <path class="st1" d="M49.8 24.2s-2.4 9.3-7.3 9.5"/>
</svg>