<svg xmlns="http://www.w3.org/2000/svg" width="56.2" height="36.1" viewBox="0 0 56.2 36.1">
  <style>
    .st0{fill-rule:evenodd;clip-rule:evenodd;fill:#002032}.st1{fill:none;stroke:#fff;stroke-width:1.073;stroke-linecap:round;stroke-miterlimit:22.926}
  </style>
  <path class="st0" d="M26.3 19.1l21.9-.6c4.3-.1 8 3.3 8.1 7.6.1 4.3-3.3 8-7.6 8.1l-21.9.6c-4.3.1-8-3.3-8.1-7.6-.2-4.4 3.2-8 7.6-8.1m9.6 13.8l12.7-.4c3.4-.1 6.1-3 6-6.4-.1-3.4-3-6.1-6.4-6l-12.5.3c-.7 1.9-1.1 4.1-1 6.4 0 2.3.5 4.3 1.2 6.1z"/>
  <path class="st1" d="M32.8 21.3s-9.5-.9-11.5 3.6"/>
  <path class="st0" d="M15.2 5l8 20.4c1.6 4-.4 8.6-4.4 10.2s-8.6-.4-10.2-4.4l-8-20.4C-1 6.7 1 2.1 5 .5 9-1 13.6 1 15.2 5M5.5 18.7l4.7 11.8c1.3 3.2 4.9 4.7 8 3.5 3.2-1.3 4.7-4.9 3.5-8l-4.6-11.7c-2 0-4.2.4-6.4 1.2-2 .8-3.8 1.9-5.2 3.2z"/>
  <path class="st1" d="M15.3 11.9S12.9 2.6 8 2.4"/>
  <path d="M18.2 34c3.2-1.3 4.7-4.9 3.5-8l-4.6-11.7c-2 0-4.2.4-6.4 1.2-2 .8-3.8 1.9-5.2 3.2l4.7 11.8c1.2 3.2 4.8 4.8 8 3.5" fill-rule="evenodd" clip-rule="evenodd" fill="#fff"/>
</svg>