<svg xmlns="http://www.w3.org/2000/svg" width="23.3" height="20.3" viewBox="0 0 23.3 20.3">
  <path d="M18.6 5.4c1 .6 1.9 1.2 2.7 1.8.8.5 1.4.9 1.8 1.2.2.3.3.6.3.9 0 .3-.2.5-.5.8-1.3.9-2.5 1.9-3.6 3s-2.2 2.1-3.3 3.2c-1.1 1.1-2.2 2.1-3.4 3.1-.1.2-.2.3-.3.4l-.1.1c-.1.1-.3.2-.5.3-.3.1-.6.2-.8.1-.3 0-.5-.2-.8-.4-.2-.2-.4-.5-.5-.9 0-1.3.1-2.6.1-3.9 0-1.3.1-2.6.2-3.9-2.5-.1-4.9-.2-7.4-.2H0V8.7c.9 0 1.7-.1 2.6-.1 2.5-.1 5.1-.2 7.6-.4 0-1.2.1-2.4.1-3.7 0-1.2.1-2.5.1-3.7.1-.4.3-.6.6-.8.3-.1.6 0 1 .4.1.1.2.3.3.4.2.2.5.5.9.8.7.5 1.5 1.1 2.4 1.8 1 .7 2 1.4 3 2m-6.4 2.7l.1 3.4v.7c0 1 .1 2 .1 3.1.7-.6 1.5-1.2 2.4-1.9.8-.6 1.7-1.2 2.5-1.8.8-.6 1.5-1.1 2.1-1.5.6-.5 1.1-.8 1.4-1.1l-.2-.2c-.1-.1-.2-.1-.2-.1l-.4-.2c-.5-.4-1-.6-1.5-.8-.5-.2-.9-.3-1.4-.5-.5-.2-1-.4-1.5-.8-.5-.3-1.1-.7-1.7-1-.5-.3-1.1-.6-1.6-.9-.1 0-.1-.1-.2-.1.1 1.3.1 2.6.1 3.7z" fill-rule="evenodd" clip-rule="evenodd" fill="#6e72b5"/>
</svg>