<svg xmlns="http://www.w3.org/2000/svg" width="114.7" height="166.7" viewBox="0 0 114.7 166.7">
  <style>
    .st0{fill:#fbccb9}.st1{stroke-width:.572;stroke-linecap:round}.st1,.st2,.st4{fill:none;stroke:#c5a6b5;stroke-miterlimit:10}.st2{stroke-linecap:round;stroke-width:.858}.st4{stroke-width:.572}.st5{fill:#a2cec7}.st6{fill:#f16863}.st9{fill:#f9b487}.st10{fill:#f9af81}
    
  </style>
  <path class="st0" d="M52.4 49.6c-10.1 18.2-22.2 13-16.8 21.3l.1.1c2.1 3.2 6.3 1.8 10.5 3.2C58.7 78 57.7 96.8 42.7 92c-3.2-1-13.2-11-20.4-15.5-2.4-1.5-4.5-2.4-6-2.1-.1 0-.2-.1-.2-.3-.2-1.5.7-7.4-1-13-1-3.3-2.4-8.7-3.5-13.3-.1-.1-.1-.3-.1-.4-3.2-10.6-2.1-9.4.5-20.9 0 0 1 .1 2.6.3 5 .8 9 .8 9 .8 2.7 0 5.6-.1 8.2-.5 8.4-1.2 16.8-6.8 18.1-10 0 0 7.8 8.9 6.2 21.5-.4 3.4-1.6 7.1-3.7 11"/>
  <path class="st1" d="M52.4 49.6c-10.1 18.2-22.2 13-16.8 21.3l.1.1c2.1 3.2 6.3 1.8 10.5 3.2C58.7 78 57.7 96.8 42.7 92c-3.2-1-13.2-11-20.4-15.5-2.4-1.5-4.5-2.4-6-2.1-.1 0-.2-.1-.2-.3-.2-1.5.7-7.4-1-13-1-3.3-2.4-8.7-3.5-13.3-.1-.1-.1-.3-.1-.4-3.2-10.6-2.1-9.4.5-20.9 0 0 1 .1 2.6.3 5 .8 9 .8 9 .8 2.7 0 5.6-.1 8.2-.5 8.4-1.2 16.8-6.8 18.1-10 0 0 7.8 8.9 6.2 21.5-.4 3.4-1.6 7.1-3.7 11z"/>
  <path class="st2" d="M55 35.3s-1-3.7-3.7-5.4c-12.9-8.2-7.5 19.8-9 19.4-1.9-.5-4.2-2.2-4.2-2.2m1 8.8s-4.4 2.9-6.8-2.5m19-13.9s-3 6.5-4.5 4.4c-1.5-2.1-1.5-7.2-1.5-7.2m-5.8-1.1s-2.6 5.8-5.2 4.1c-2.6-1.7-1.5-7-1.5-7"/>
  <path d="M53.5 8.4S39.3 33.5 4 19.4m28.8 105.1s.2 3.4 4.6 4.8" fill="none" stroke="#18171c" stroke-width=".572" stroke-miterlimit="10"/>
  <path class="st0" d="M70.2 55.5c-8.3 2-14.3 8.6-14.3 17.5 0 10 8.5 18.1 19 18.1 3.8 0 8.2-1.9 8-1.8 6.4 4 .3 22.9-5.5 23.9-1.3.2-2.4.3-3.5.3.2 4.6.9 8.3 2.7 9.7.3.2.6.4.9.4 1.6.4 3.3.5 5.2.4 8.9-.7 19.9-6.9 22-13.9.1-.2.1-.4.1-.6 2.9-10-11.2-4.9-15.6-25.2-.1 0 4.2-7.3 4.8-11.3 3-21.4-18.8-15.2-21.2-20.7-1.2-2.6.1.5-2.6 3.2"/>
  <path class="st4" d="M70.2 55.5c-8.3 2-14.3 8.6-14.3 17.5 0 10 8.5 18.1 19 18.1 3.8 0 8.2-1.9 8-1.8 6.4 4 .3 22.9-5.5 23.9-1.3.2-2.4.3-3.5.3.2 4.6.9 8.3 2.7 9.7.3.2.6.4.9.4 1.6.4 3.3.5 5.2.4 8.9-.7 19.9-6.9 22-13.9.1-.2.1-.4.1-.6 2.9-10-11.2-4.9-15.6-25.2-.1 0 4.2-7.3 4.8-11.3 3-21.4-18.8-15.2-21.2-20.7-1.2-2.6.1.5-2.6 3.2z"/>
  <path class="st5" d="M73.8 113.4c.2 4.6.9 8.3 2.7 9.7-.3.1-14.8 3.8-4 20.1-19.3-3.4-37-29.4-42.8-46.4-.4-8.1-7.5-20.3-7.5-20.3C29.6 81 39.5 90.9 42.7 92c15 4.8 16-13.9 3.5-17.8-4.3-1.3-8.4 0-10.5-3.2l-.1-.1S50.5 68 56 70.7c-.1.7-.1 1.5-.1 2.2 0 5.7 2.8 10.8 7.2 14.1 3.1 2.4 7.1 3.8 11.4 3.9v1.7c-2.2 4.3-2.4 10.5-2.4 10.9-.8-.7-11.1-9.4-16.4-7.8-5.5 1.7-3.2 7.3-1.5 8.5 1.7 1.1 1.2-1.4 3.7-2.7 4-2.1 4.8 11.4 15.9 11.9"/>
  <path class="st4" d="M73.8 113.4c.2 4.6.9 8.3 2.7 9.7-.3.1-14.8 3.8-4 20.1-19.3-3.4-37-29.4-42.8-46.4-.4-8.1-7.5-20.3-7.5-20.3C29.6 81 39.5 90.9 42.7 92c15 4.8 16-13.9 3.5-17.8-4.3-1.3-8.4 0-10.5-3.2l-.1-.1S50.5 68 56 70.7c-.1.7-.1 1.5-.1 2.2 0 5.7 2.8 10.8 7.2 14.1 3.1 2.4 7.1 3.8 11.4 3.9v1.7c-2.2 4.3-2.4 10.5-2.4 10.9-.8-.7-11.1-9.4-16.4-7.8-5.5 1.7-3.2 7.3-1.5 8.5 1.7 1.1 1.2-1.4 3.7-2.7 4-2.1 4.8 11.4 15.9 11.9z"/>
  <path class="st5" d="M22.3 76.5s7.1 12.2 7.5 20.3c.4 8.1-16.1 7.1-16.1 7.1C7.4 91.5 5.6 81.4 16.1 74c0 .2.1.3.2.3 1.4-.2 3.6.7 6 2.2"/>
  <path class="st1" d="M22.3 76.5s7.1 12.2 7.5 20.3c.4 8.1-16.1 7.1-16.1 7.1C7.4 91.5 5.6 81.4 16.1 74c0 .2.1.3.2.3 1.4-.2 3.6.7 6 2.2z"/>
  <path class="st6" d="M88.3 150.5c1.8 2.2 3.9 6.2.7 11-1 1.5-8.9 9-14.1 1.8-1.7-2.3 5.2-4.3 4.7-7.7-.1-.6-.2-1.2-.4-1.8 5.5 3 8.7-2.6 9.1-3.3"/>
  <path class="st4" d="M88.3 150.5c1.8 2.2 3.9 6.2.7 11-1 1.5-8.9 9-14.1 1.8-1.7-2.3 5.2-4.3 4.7-7.7-.1-.6-.2-1.2-.4-1.8 5.5 3 8.7-2.6 9.1-3.3z"/>
  <path class="st6" d="M108.5 152.2c.6.4 3.4 2.3 3.3 4.7-.1 2.2-3.1 4.9-6.8 4.6-7.6-.6-6.6-5.2-4.2-7.7l.2-.2c6.2 1.5 7.5-1.4 7.5-1.4"/>
  <path class="st4" d="M108.5 152.2c.6.4 3.4 2.3 3.3 4.7-.1 2.2-3.1 4.9-6.8 4.6-7.6-.6-6.6-5.2-4.2-7.7l.2-.2c6.2 1.5 7.5-1.4 7.5-1.4z"/>
  <path d="M104.7 110.1c8.7 8.1 10.7 15.5 8.1 22-.1.2-.1.4-.2.6-.6 1.6-1.3 3.2-2.4 4.7-.5.6-1 1.2-1.7 1.8-3.9 1.5-12.9 3.4-12.9 3.4s-1-.1 1.4-2.2c2.4-2.2 2.4-4 2.1-4.1-3.1-.7-5.5 3-10.6 5l-2.7.9c-5.5-5.7-3.1-18.2-3.1-18.2 8.8-.7 19.9-7 22-13.9" fill="#076588"/>
  <path d="M104.7 110.1c8.7 8.1 10.7 15.5 8.1 22-.1.2-.1.4-.2.6-.6 1.6-1.3 3.2-2.4 4.7-.5.6-1 1.2-1.7 1.8-3.9 1.5-12.9 3.4-12.9 3.4s-1-.1 1.4-2.2c2.4-2.2 2.4-4 2.1-4.1-3.1-.7-5.5 3-10.6 5l-2.7.9c-5.5-5.7-3.1-18.2-3.1-18.2 8.8-.7 19.9-7 22-13.9z" fill="none" stroke="#c5a6b5" stroke-width=".286" stroke-miterlimit="10"/>
  <path class="st0" d="M82.9 89.2c6.4 4 .3 22.9-5.5 23.9-1.3.2-2.4.3-3.5.3-11.2-.5-11.9-14.1-16.1-11.9-2.5 1.3-2 3.9-3.7 2.7-1.7-1.2-4-6.8 1.5-8.5 5.3-1.6 15.6 7.1 16.4 7.8 0-.4.3-6.5 2.4-10.9.3-.6.6-1.2 1-1.7 1.3-1.8 3.2-2.9 5.9-2.4.6.3 1.1.5 1.6.7"/>
  <path class="st4" d="M82.9 89.2c6.4 4 .3 22.9-5.5 23.9-1.3.2-2.4.3-3.5.3-11.2-.5-11.9-14.1-16.1-11.9-2.5 1.3-2 3.9-3.7 2.7-1.7-1.2-4-6.8 1.5-8.5 5.3-1.6 15.6 7.1 16.4 7.8 0-.4.3-6.5 2.4-10.9.3-.6.6-1.2 1-1.7 1.3-1.8 3.2-2.9 5.9-2.4.6.3 1.1.5 1.6.7z"/>
  <path class="st0" d="M82.6 123.9s-2.3 12.6 3.1 18.2c-3.4 1-6.4 1.3-6.5 1.3-2.2.3-4.5.2-6.7-.2-10.8-16.4 3.6-20.1 4-20.1.3.2.6.4.9.4 1.7.5 3.4.5 5.2.4"/>
  <path class="st4" d="M82.6 123.9s-2.3 12.6 3.1 18.2c-3.4 1-6.4 1.3-6.5 1.3-2.2.3-4.5.2-6.7-.2-10.8-16.4 3.6-20.1 4-20.1.3.2.6.4.9.4 1.7.5 3.4.5 5.2.4z"/>
  <path class="st0" d="M79.8 148.8c2.2.1 4.4 0 6.6-.2 0 0 .9.7 1.9 1.8-.4.7-3.5 6.3-9 3.4-1-2.8-3.4-5.4-3.4-5.4 1.4.3 2.7.4 3.9.4"/>
  <path class="st4" d="M79.8 148.8c2.2.1 4.4 0 6.6-.2 0 0 .9.7 1.9 1.8-.4.7-3.5 6.3-9 3.4-1-2.8-3.4-5.4-3.4-5.4 1.4.3 2.7.4 3.9.4z"/>
  <path class="st0" d="M106.5 143.8s.8 7.6 2 8.4c0 0-1.3 2.9-7.5 1.3 2.1-2.6-1.5-7.4-1.5-7.4 2.5-.7 4.9-1.5 7-2.3"/>
  <path class="st4" d="M106.5 143.8s.8 7.6 2 8.4c0 0-1.3 2.9-7.5 1.3 2.1-2.6-1.5-7.4-1.5-7.4 2.5-.7 4.9-1.5 7-2.3z"/>
  <path class="st0" d="M29.8 96.8c5.8 17 23.5 43 42.8 46.4 2.2.4 4.5.5 6.7.2.1 0 3.2-.3 6.5-1.3.9-.2 1.8-.6 2.7-.9 5.1-2 7.5-5.7 10.6-5 .3.1.4 1.9-2.1 4.1-2.4 2.2-1.4 2.2-1.4 2.2s9-2 12.9-3.4c1-.4 1.7-.7 1.7-1 0-.2 0-.5-.1-.8 1.1-1.5 1.8-3.1 2.4-4.7 0 0 4.7 6.6-1 9.1-1.3.6-3.1 1.3-5.1 2.1-2.1.8-4.5 1.6-7.1 2.3-3.9 1.1-8.4 2.1-13 2.5-2.2.2-4.4.3-6.6.2-1.2-.1-2.5-.1-4-.3-14.8-1.7-41.8-10-52.8-28.3-3.5-5.8-6.8-11.3-9.4-16.3.1 0 16.7 1 16.3-7.1"/>
  <path class="st4" d="M29.8 96.8c5.8 17 23.5 43 42.8 46.4 2.2.4 4.5.5 6.7.2.1 0 3.2-.3 6.5-1.3.9-.2 1.8-.6 2.7-.9 5.1-2 7.5-5.7 10.6-5 .3.1.4 1.9-2.1 4.1-2.4 2.2-1.4 2.2-1.4 2.2s9-2 12.9-3.4c1-.4 1.7-.7 1.7-1 0-.2 0-.5-.1-.8 1.1-1.5 1.8-3.1 2.4-4.7 0 0 4.7 6.6-1 9.1-1.3.6-3.1 1.3-5.1 2.1-2.1.8-4.5 1.6-7.1 2.3-3.9 1.1-8.4 2.1-13 2.5-2.2.2-4.4.3-6.6.2-1.2-.1-2.5-.1-4-.3-14.8-1.7-41.8-10-52.8-28.3-3.5-5.8-6.8-11.3-9.4-16.3.1 0 16.7 1 16.3-7.1z"/>
  <path class="st6" d="M53.5 11.3s9.2 15.1 5.5 23.2c-.8 1.3-1.7 2.7-2.9 4.1C57.7 25.9 49.9 17 49.9 17l3.6-5.7z"/>
  <path class="st1" d="M53.5 11.3s9.2 15.1 5.5 23.2c-.8 1.3-1.7 2.7-2.9 4.1C57.7 25.9 49.9 17 49.9 17l3.6-5.7z"/>
  <path class="st2" d="M68.8 83.2c.9.9-3.1 6.9-7.6 2M61.1 74s-1.3 5.5-4.6 3.6m15-4.9s-2.4 7.2-7.5 1.1"/>
  <path class="st9" d="M54.7 9.3S67 20.5 58.9 34.5c3.7-8.1-5.5-23.2-5.5-23.2l1.3-2z"/>
  <path class="st1" d="M54.7 9.3S67 20.5 58.9 34.5c3.7-8.1-5.5-23.2-5.5-23.2l1.3-2z"/>
  <path class="st9" d="M53.5 8.4S39.3 33.5 4 19.4c.5-.8 1-1.5 1.5-2.3 24.5 12.8 47-9.4 47-9.4.2.3.6.5 1 .7"/>
  <path class="st4" d="M53.5 8.4S39.3 33.5 4 19.4c.5-.8 1-1.5 1.5-2.3 24.5 12.8 47-9.4 47-9.4.2.3.6.5 1 .7z"/>
  <path class="st9" d="M48.4 5.3s-11.3 9.8-38.1 5.4c.9-1.1 1.9-2 2.9-2.9.2-.1.4-.1.6-.2 10.4 3.9 32-3.6 32-3.6.8.4 1.7.9 2.6 1.3"/>
  <path class="st4" d="M48.4 5.3s-11.3 9.8-38.1 5.4c.9-1.1 1.9-2 2.9-2.9.2-.1.4-.1.6-.2 10.4 3.9 32-3.6 32-3.6.8.4 1.7.9 2.6 1.3z"/>
  <path class="st6" d="M31.8 27.1c-2.7.4-5.6.5-8.2.5-3.6 0-6.8-.3-9-.5-4-.7-8.5-2.1-12.1-5.1.5-.9 1-1.7 1.5-2.5 35.4 14.1 49.5-11 49.5-11 .4.3.8.6 1.3.8l-1.3 2c-5.2 10.1-9.7 14.1-21.7 15.8"/>
  <path class="st4" d="M31.8 27.1c-2.7.4-5.6.5-8.2.5-3.6 0-6.8-.3-9-.5-4-.7-8.5-2.1-12.1-5.1.5-.9 1-1.7 1.5-2.5 35.4 14.1 49.5-11 49.5-11 .4.3.8.6 1.3.8l-1.3 2c-5.2 10.1-9.7 14.1-21.7 15.8z"/>
  <path class="st6" d="M52.4 7.7S30 29.9 5.4 17.1c.8-1.1 1.5-2.2 2.3-3.2 25 8 43.2-7.1 43.2-7.1l1.5.9"/>
  <path class="st4" d="M52.4 7.7S30 29.9 5.4 17.1c.8-1.1 1.5-2.2 2.3-3.2 25 8 43.2-7.1 43.2-7.1l1.5.9z"/>
  <path class="st6" d="M13.8 7.6c13-4.8 30.5-4.3 30.5-4.3.5.2 1 .4 1.5.7 0 0-21.6 7.4-32 3.6"/>
  <path class="st4" d="M13.8 7.6c13-4.8 30.5-4.3 30.5-4.3.5.2 1 .4 1.5.7 0 0-21.6 7.4-32 3.6z"/>
  <path class="st6" d="M13.1 7.8c8.6-7.9 18.7-9.9 31.2-4.5 0 0-17.5-.6-30.5 4.3-.2.1-.5.1-.7.2"/>
  <path class="st4" d="M13.1 7.8c8.6-7.9 18.7-9.9 31.2-4.5 0 0-17.5-.6-30.5 4.3-.2.1-.5.1-.7.2z"/>
  <path class="st6" d="M50.9 6.8S32.7 21.9 7.7 13.9c.8-1.1 1.7-2.2 2.6-3.2 26.8 4.4 38.1-5.4 38.1-5.4.8.5 1.6 1 2.5 1.5"/>
  <path class="st4" d="M50.9 6.8S32.7 21.9 7.7 13.9c.8-1.1 1.7-2.2 2.6-3.2 26.8 4.4 38.1-5.4 38.1-5.4.8.5 1.6 1 2.5 1.5z"/>
  <path class="st9" d="M2.5 22c3.6 3 8.1 4.4 12.1 5.1-1.6-.2-2.6-.4-2.6-.4-2.2 1.8-4.4 2.2-6.2 1.9C2.6 28.3.3 26 .3 26c.7-1.4 1.5-2.7 2.2-4"/>
  <path class="st1" d="M2.5 22c3.6 3 8.1 4.4 12.1 5.1-1.6-.2-2.6-.4-2.6-.4-2.2 1.8-4.4 2.2-6.2 1.9C2.6 28.3.3 26 .3 26c.7-1.4 1.5-2.7 2.2-4z"/>
  <path class="st9" d="M11.9 26.8c-1.2 5.4-2.1 7.9-2.3 10.3-.1.4-.1.9-.1 1.5.1 2.1.6 4.4 2 8.8l.1.3-.6-.3c-6.2-3.9-5.4-15.7-5.1-18.7 1.8.2 3.9-.2 6-1.9"/>
  <path class="st1" d="M11.9 26.8c-1.2 5.4-2.1 7.9-2.3 10.3-.1.4-.1.9-.1 1.5.1 2.1.6 4.4 2 8.8l.1.3-.6-.3c-6.2-3.9-5.4-15.7-5.1-18.7 1.8.2 3.9-.2 6-1.9z"/>
  <path class="st6" d="M5.9 28.7c-.3 3-1 14.7 5.1 18.6C.5 41.1.2 29.1.4 26c.8.7 3.1 2.4 5.5 2.7z"/>
  <path class="st1" d="M5.9 28.7c-.3 3-1 14.7 5.1 18.6C.5 41.1.2 29.1.4 26c.8.7 3.1 2.4 5.5 2.7z"/>
  <path class="st0" d="M92.4 96s-3.3 8-4 6.5c-.7-1.5 0-14.2 5.1-14 5.1.1 10.8 5.8 6.8 17.3-1.6 4.6-1.8-7.2-1.7-8.2 0-.1-2.1 10.1-3.3 9.8-1.1-.3.2-10.8.2-10.8s-3 9.8-4 9.2c-1-.6.9-9.8.9-9.8"/>
  <path class="st1" d="M92.4 96s-3.3 8-4 6.5c-.7-1.5 0-14.2 5.1-14 5.1.1 10.8 5.8 6.8 17.3-1.6 4.6-1.8-7.2-1.7-8.2 0-.1-2.1 10.1-3.3 9.8-1.1-.3.2-10.8.2-10.8s-3 9.8-4 9.2c-1-.6.9-9.8.9-9.8z"/>
  <path class="st6" d="M73.1 58.6c.1.1.1.3-.1.4-.1.1-.3.1-.4-.1-.2-.3-.2-.7-.1-1 .1-.3.3-.6.6-.8.3-.2.7-.3 1-.2.3.1.6.3.8.6.4.6.4 1.2.2 1.8-.2.6-.6 1.1-1.1 1.5-.6.4-1.2.4-1.8.4-.6-.1-1.1-.4-1.5-1-.5-.8-.6-1.6-.3-2.5.2-.8.8-1.6 1.6-2.1s1.7-.7 2.6-.5c.8.2 1.6.6 2.1 1.4.6 1 .7 2.1.4 3.2-.3 1.1-1 2.1-2.1 2.7-.1.1-.3 0-.4-.1-.1-.1-.1-.3.1-.4.9-.6 1.6-1.5 1.8-2.4.3-.9.2-1.9-.3-2.7-.4-.6-1-1-1.7-1.1-.7-.1-1.5 0-2.1.4-.7.4-1.2 1.1-1.3 1.7-.2.7-.1 1.4.2 2 .2.4.6.6 1 .7.4.1.9 0 1.4-.3.4-.3.7-.7.8-1.1.1-.4.1-.9-.2-1.2-.1-.2-.2-.3-.4-.3s-.4 0-.6.1c-.2.1-.3.3-.4.5.1.1.1.2.2.4"/>
  <path class="st10" d="M74.7 79.2c-1.7 0-3 1.1-3 2.5s1.3 2.5 3 2.5 3-1.1 3-2.5c.1-1.4-1.3-2.5-3-2.5"/>
  <path class="st10" d="M25.5 44c-1.7 0-3 1.1-3 2.5s1.3 2.5 3 2.5 3-1.1 3-2.5c0-1.3-1.4-2.5-3-2.5"/>
  <path class="st10" d="M45.3 51.8c-1.7 0-3 1.1-3 2.5s1.3 2.5 3 2.5 3-1.1 3-2.5-1.3-2.5-3-2.5"/>
  <path d="M15 40.5c.2-.1.5-.1.6.1.1.2.1.5-.1.6l-.5-.7zm-5.9-1.7c.9 6.3 6.3 2.3 6.3 2.3l-.4-.6s-4.3 3.1-5-1.8l-.9.1zm6.3-2.7s-7.2-3.6-6.3 2.8l.8-.1c-.6-4.8 5-1.9 5-1.9l.5-.8zm0 0c.2.1.3.4.2.6-.1.2-.4.3-.6.2l.4-.8z" fill="#c5a6b5"/>
</svg>