<svg xmlns="http://www.w3.org/2000/svg" width="235" height="344.3" viewBox="0 0 235 344.3">
  <style>
    .st0{fill:#fff}.st1{fill-rule:evenodd;clip-rule:evenodd;fill:#fff100}.st2{fill:#333}
  </style>
  <path class="st0" d="M21.8 303.2c0 .2 0 .5.1.9 0 .4.1.8.1 1.2 0 .4 0 .8.1 1.2 0 .4.1.6.1.8 0 .3-.1.5-.3.6-.2.1-.6.2-1.3.3-1.1.2-2.3.3-3.4.2-.4 0-.8-.1-1.2-.1h-1.2V312.2c-.1.6-.1 1.3-.1 1.9v1.9c0 .3 0 .6.1 1 .1.6.1 1.1.1 1.4v2.5c0 .5 0 .9.1 1.4 0 .8.1 1.4.1 1.9s0 1.1-.1 1.7c-.1.7-.1 1.4-.2 2.1 0 .7-.1 1.4-.2 2.1-.1.5-.1 1-.1 1.5v4.8c0 1.1-.1 2.2-.2 3.4 0 .4-.3.7-.6.7-1.7.3-3.4.4-5.1.1-.4 0-.6-.2-.7-.6v-1-1.8-1.8c-.1-1.1-.1-2.1-.1-3.2s0-2.1.1-3.2.1-2.3.1-3.4v-3.5c0-.6 0-1.1-.1-1.7 0-.6-.1-1.2-.1-1.7 0-.8-.1-1.7-.1-2.5s0-1.7.1-2.4c0-.2.1-.4.1-.7-.1-.7-.1-1.4-.1-2.2v-2.3c-.6 0-1.3.1-1.9.1H4c-.9 0-1.4 0-1.7-.1-.3-.1-.6-.2-.9-.6-.1-.1-.3-.3-.4-.6-.6-1.3-.8-2.5-.6-3.8.1-.3.2-.5.5-.7.2-.1.7-.3 1.4-.5.6-.1 1.1-.1 1.7-.1.6 0 1.1 0 1.7-.1 1.3-.1 2.6-.1 3.9-.1h10.2c1.1 0 1.8.2 2.1.7-.2.2-.1.3-.1.4z"/>
  <path class="st0" d="M24.8 315.6v-2.1-2.9-2.8c0-.9.1-1.5.2-1.9 0-.2.1-.5.1-1v-1.8-2-1.5c0-.1.1-.2.1-.4v-.4c.1-.4.4-.6.8-.6h.9c.6 0 1.3 0 2.2.1.8 0 1.7.1 2.6.1.9 0 1.7.1 2.3.1h4.8c.8 0 1.5 0 2 .1.6 0 .9.1 1 .1.7 0 1.1.4 1.1 1 .1.7.1 1.4.2 2.1v3.3c0 .4 0 .8.1 1.2.1 1 .1 2 .2 2.9v2.9c0 .9 0 1.8-.1 2.7 0 .9 0 1.8.1 2.7.1 1.1.1 2.3 0 3.4-.1 1.2-.1 2.3-.1 3.4v1.5c0 .5 0 1-.1 1.5 0 .9 0 1.8-.1 2.7-.1.9-.2 1.8-.4 2.7-.2.8-.3 1.6-.5 2.4-.1.8-.3 1.7-.5 2.5-.3 1.5-1 2.9-2.1 4.2-.6.6-1.2 1.2-2 1.6-.8.4-1.6.6-2.5.7-.9.1-1.8 0-2.7-.2-.9-.2-1.8-.6-2.6-1.2-.7-.5-1.3-1.1-1.8-1.8-.8-1.1-1.4-2.2-1.8-3.4-.4-1.2-.7-2.4-.8-3.7-.1-.7-.1-1.4-.1-2.2 0-.7 0-1.5-.1-2.2-.1-.8-.1-1.8-.2-3.2 0-1.4-.1-2.8-.1-4.3v-4c-.1-1.1-.1-1.9-.1-2.3z"/>
  <path class="st0" d="M65.4 298.4c.5.3.9.9 1.2 1.6.3.8.3 1.6.2 2.4-.1.6-.2 1.1-.5 1.5-.3.4-.7.7-1.3 1-.2.1-.5.2-.9.3-.4.1-.8.1-1 .1-.8 0-1.6-.3-2.3-.8-.7-.6-1.2-1.2-1.3-2-.2-1.5.2-2.6 1.3-3.5 1.3-1.1 2.7-1.3 4.3-.8.1.1.2.1.3.2zm.9 42.2c0 .2.1.5.1.7 0 .2.1.5.1.7.1.3.1.7-.1 1.2s-.5.7-.9.8c-1.7.2-3.4.2-5.1-.1-.4 0-.7-.3-.8-.8-.1-.4-.1-.9-.2-1.5 0-.6-.1-1.1 0-1.6.1-1.4.1-2.7.2-4.1 0-1.3.1-2.7.2-4.1V330c0-.6 0-1.2.1-1.8v-2.6-2.6-2.2-3.4-3.4-2.3-1.3-1.3-.7c0-.2 0-.5.1-.7 0-.3.3-.6.7-.7.1 0 .2-.1.4-.1.1 0 .2 0 .4-.1h1.9c.6 0 1.2.1 1.9.1.4.1.7.2.9.4.1.2.2.5.2.8v8.4c0 1.9 0 3.7.1 5.5v5.4c0 .6 0 1.1-.1 1.7 0 .5-.1 1-.1 1.4v.6c0 .8-.1 1.6-.1 2.4v4.4c0 .8.1 1.8.1 2.7z"/>
  <path class="st0" d="M71.6 325.2v-2.7-3.5-3.2c0-.9 0-1.5.1-1.7 0-.2.1-.7.1-1.6 0-.9.1-1.9.1-2.9 0-1.1 0-2 .1-2.9 0-.9.1-1.4.1-1.5 0-.3.1-.7.1-1.1 0-.4 0-.8.1-1.1 0-.1.1-.2.1-.3 0-.1 0-.2.1-.3.1-.2.3-.3.6-.3h.8c.4 0 .8.1 1.2.1.4.1.9.1 1.3.2.5.1.8.2 1.1.3.2.1.6.2 1.2.5.6.2 1.4.6 2.4 1.2 1.1.6 1.9 1.3 2.5 2 .6.7 1.2 1.4 1.6 2 .7.8 1.2 1.6 1.6 2.3.4.7.7 1.6 1.1 2.7.1.4.2 1.1.4 1.8l.3 2.4c.1.8.2 1.6.2 2.3.1.7.1 1.1.1 1.4.1.9.1 1.8-.1 2.7-.1.9-.3 1.8-.5 2.7-.1.5-.2 1-.3 1.4-.1.5-.3.9-.5 1.4-.2.6-.5 1.3-.8 2-.4.7-.8 1.5-1.2 2.3-.4.6-.7 1-1 1.3-.3.3-.6.6-.8.9-.3.3-.6.5-.9.8-.3.3-.6.6-1 .9-.8.5-1.8 1.1-2.9 1.7-1.1.6-2.2 1-3.3 1.2-.9.1-1.8.1-2.4.2-.7 0-1 0-1-.2-.2-.1-.3-.4-.3-.7-.1-.4-.1-.7-.1-1.1v-1.1-.6c0-1-.1-2.1-.1-3.3v-3.6c0-1.2.1-2.2.1-3.1-.2-.9-.2-1.5-.2-1.9z"/>
  <path class="st0" d="M108.2 335.7c0 .2.1.4.1.6v2.7c0 .1 0 .3-.1.5-.2.4-.5.6-.9.7-.7.2-1.4.3-2.1.4-.7.1-1.4.1-2.1.1-.7 0-1.4-.1-2.1-.1-.7 0-1.5 0-2.3-.1h-2c-.3 0-.6-.1-.9-.1-.3 0-.6 0-.9-.1h-1.2c-.3 0-.5 0-.8-.1-.3 0-.5-.2-.6-.5v-.7-2.3V322.1v-.5-.5c0-.3.1-.5.1-.8V318c0-.3 0-.6.1-1 0-.6-.1-1.3-.1-1.9 0-.6 0-1.2-.1-1.9s-.2-1.4-.2-2.1c-.1-.7-.1-1.4-.2-2.2v-2.4c0-.3-.1-.6-.1-.9 0-.3 0-.6-.1-1v-.5c0-.1 0-.3-.1-.5 0 0-.1-.1-.1-.2 0-.4.2-.6.6-.8.3-.4 1.3-.7 2.8-.7.4 0 .8-.1 1.1-.1.4 0 .7 0 1.1-.1 1-.1 2.1-.1 3.1-.1s2.1 0 3.1.1h1.7c1.2.1 2 .2 2.3.4.3.2.6.6.7 1.1 0 .2.1.4.1.6v2.2c0 .4 0 .8-.1 1-.1.4-.4.7-.9.7-.8.2-1.5.3-2.2.4-.7.1-1.5.1-2.2.1-.8 0-1.5-.1-2.2-.1-.7 0-1.5 0-2.3-.1v1c0 .7-.1 1.4-.1 2s0 1.4.1 2.1c.1.8.1 1.5.1 2.3 0 .8 0 1.5-.2 2.3v4.5h.2c.6 0 1.3.1 1.9.1h5.1c.8.1 1.2.4 1.4.9 0 .2.1.4.1.7-.1.7-.1 1.3-.2 2 0 .6-.1 1.3-.2 2-.1.6-.7.9-1.7.9-1.1-.1-2.2-.1-3.3-.2-1.1 0-2.2-.1-3.3-.1H98v.2c0 .6-.1 1.1-.1 1.6s0 1.1-.1 1.6c0 .3-.1.5-.1.8v1.3c.9-.1 1.9-.1 2.8-.1.9 0 1.9 0 2.8.1h1.6c1.1.1 1.9.2 2.2.4.7.4 1 .8 1.1 1.3z"/>
  <path class="st0" d="M118.8 318.3c-.2-.1-.3 0-.3.4v1.5c0 .6 0 1.2.1 1.9 0 .7.1 1.2.1 1.7.1.8.1 1.6.1 2.3v4.3c0 1 0 2.1.1 3.2 0 1.1 0 2.1.1 3v1.7c0 .4.1.9.1 1.3v1.2c0 .4 0 .8-.1 1.1-.1.4-.2.7-.3 1.1-.2.4-.5.6-1 .8-.9.1-1.8.1-2.5.1s-1.4-.2-2.2-.3c-.1-.1-.2-.1-.4-.2-.1 0-.3-.1-.4-.2-.3-.2-.5-.4-.5-.8v-.8-1.7c0-.6 0-1.2.1-1.7s0-.8 0-.9c0-.3 0-1 .1-2 0-1.1.1-2.3.1-3.6 0-1.4.1-2.8.1-4.2 0-1.4 0-2.7-.1-3.9 0-.5-.1-1.3-.1-2.5s-.1-2.4-.1-3.7c0-1.3-.1-2.5-.1-3.6v-2.2-3.1c0-.7-.1-1.3-.1-2 0-.6 0-1.3-.1-2v-3.3c0-.3 0-.7.1-1.1 0-.4.1-.7.1-1.1 0-.3.2-.6.6-.7.3-.1.5-.2.8-.3.3-.1.6-.1.9-.1h4c.2 0 .4 0 .8.1.3.1.5.4.7.9.2.5.3 1.1.5 1.7.1.6.3 1.3.4 1.9.1.6.2 1.2.4 1.6.3.9.5 1.8.8 2.7.3.9.5 1.8.7 2.7 0 .2.1.7.3 1.4.2.7.4 1.5.6 2.4.2.9.5 1.9.7 2.9.3 1.1.5 2 .7 3 .2.9.5 1.8.7 2.5.2.7.3 1.3.4 1.6l.3.9c.1.3.2.7.3 1.1.1.2.2.1.3-.2.1-.3.1-.8.1-1.3v-2c0-.8 0-1.5-.1-2.2v-1.8c0-.6 0-1.6.1-2.8v-1.2-1.7-1.6-1.2c0-.8-.1-1.5-.1-2.1 0-.6-.1-1.4-.1-2.2v-2.4-2-.5c0-.1 0-.3.1-.5 0-.2.1-.5.3-.7.2-.2.6-.4 1.2-.5.2 0 .4-.1.7-.1.3 0 .7-.1 1.1-.1.4 0 .8-.1 1.1-.1.4 0 .7 0 1 .1.6 0 1 .2 1.2.6.3.3.4.7.3 1.1-.1.9-.1 1.8-.2 2.7-.1.9-.1 1.8-.1 2.7v3.6c0 1.1 0 2.2-.1 3.3s0 2.1-.1 3.2v5.2c0 .8 0 1.7-.1 2.6 0 .9-.1 1.8-.1 2.6v1.6c0 1 0 2.3.1 3.7 0 1.5 0 3-.1 4.6 0 .6.1 1.3.1 2v2.2c0 .7 0 1.3-.1 1.8 0 .5-.1.9-.1 1-.1.3-.3.5-.7.7-.4.1-.7.2-1.1.2h-1c-.4 0-.7.1-1 .1h-.8c-.3 0-.5 0-.8-.1-.3 0-.6-.1-1-.2s-.7-.2-1-.4c-.6-.3-1-.8-1-1.4-.1-1.1-.3-2.2-.5-3.2-.3-1-.5-2.1-.6-3.2-.3-2-.7-4-1.3-6-.6-2-1.1-4-1.5-6-.2-.9-.4-1.7-.7-2.5-.3-.7-.6-1.6-.9-2.4z"/>
  <path class="st0" d="M157.4 303.2c0 .2 0 .5.1.9 0 .4.1.8.1 1.2 0 .4 0 .8.1 1.2 0 .4.1.6.1.8 0 .3-.1.5-.3.6-.2.1-.6.2-1.3.3-1.1.2-2.3.3-3.4.2-.4 0-.8-.1-1.2-.1h-1.2V312.2c-.1.6-.1 1.3-.1 1.9v1.9c0 .3 0 .6.1 1 .1.6.1 1.1.1 1.4v2.5c0 .5 0 .9.1 1.4 0 .8.1 1.4.1 1.9s0 1.1-.1 1.7c-.1.7-.1 1.4-.2 2.1s-.1 1.4-.2 2.1c-.1.5-.1 1-.1 1.5v4.8c0 1.1-.1 2.2-.2 3.4 0 .4-.3.7-.6.7-1.7.3-3.4.4-5.1.1-.4 0-.6-.2-.7-.6v-1-1.8-1.8c-.1-1.1-.1-2.1-.1-3.2s0-2.1.1-3.2.1-2.3.1-3.4v-3.5c0-.6 0-1.1-.1-1.7 0-.6-.1-1.2-.1-1.7 0-.8-.1-1.7-.1-2.5s0-1.7.1-2.4c0-.2.1-.4.1-.7-.1-.7-.1-1.4-.1-2.2v-2.3c-.6 0-1.3.1-1.9.1h-1.9c-.9 0-1.4 0-1.7-.1-.3-.1-.6-.2-.9-.6-.1-.1-.3-.3-.4-.6-.6-1.3-.8-2.5-.6-3.8.1-.3.2-.5.5-.7.2-.1.7-.3 1.4-.5.6-.1 1.1-.1 1.7-.1.6 0 1.1 0 1.7-.1 1.3-.1 2.6-.1 3.9-.1h10.2c1.1 0 1.8.2 2.1.7-.2.2-.1.3-.1.4z"/>
  <path class="st0" d="M167.4 298.4c.5.3.9.9 1.2 1.6.3.8.3 1.6.2 2.4-.1.6-.2 1.1-.5 1.5-.3.4-.7.7-1.3 1-.2.1-.5.2-.9.3-.4.1-.8.1-1 .1-.8 0-1.6-.3-2.3-.8-.7-.6-1.2-1.2-1.3-2-.2-1.5.2-2.6 1.3-3.5 1.3-1.1 2.7-1.3 4.3-.8.1.1.2.1.3.2zm.9 42.2c0 .2.1.5.1.7 0 .2.1.5.1.7.1.3.1.7-.1 1.2s-.5.7-.9.8c-1.7.2-3.4.2-5.1-.1-.4 0-.7-.3-.8-.8-.1-.4-.1-.9-.2-1.5 0-.6-.1-1.1 0-1.6.1-1.4.1-2.7.2-4.1 0-1.3.1-2.7.2-4.1V330c0-.6 0-1.2.1-1.8v-2.6-2.6-2.2-3.4-3.4-2.3-1.3-1.3-.7c0-.2 0-.5.1-.7 0-.3.3-.6.7-.7.1 0 .2-.1.4-.1.1 0 .2 0 .4-.1h1.9c.6 0 1.2.1 1.9.1.4.1.7.2.9.4.1.2.2.5.2.8v8.4c0 1.9 0 3.7.1 5.5v5.4c0 .6 0 1.1-.1 1.7 0 .5-.1 1-.1 1.4v.6c0 .8-.1 1.6-.1 2.4v4.4c0 1 .1 1.8.1 2.7z"/>
  <path class="st0" d="M173.6 325.2v-2.7-3.5-3.2c0-.9 0-1.5.1-1.7 0-.2.1-.7.1-1.6 0-.9.1-1.9.1-2.9 0-1.1 0-2 .1-2.9 0-.9.1-1.4.1-1.5 0-.3.1-.7.1-1.1 0-.4 0-.8.1-1.1 0-.1.1-.2.1-.3 0-.1 0-.2.1-.3.1-.2.3-.3.6-.3h.8c.4 0 .8.1 1.2.1.4.1.9.1 1.3.2.5.1.8.2 1.1.3.2.1.6.2 1.2.5.6.2 1.4.6 2.4 1.2 1.1.6 1.9 1.3 2.5 2 .6.7 1.2 1.4 1.6 2 .7.8 1.2 1.6 1.6 2.3.4.7.7 1.6 1.1 2.7.1.4.2 1.1.4 1.8l.3 2.4c.1.8.2 1.6.2 2.3.1.7.1 1.1.1 1.4.1.9.1 1.8-.1 2.7-.1.9-.3 1.8-.5 2.7-.1.5-.2 1-.3 1.4-.1.5-.3.9-.5 1.4-.2.6-.5 1.3-.8 2-.4.7-.8 1.5-1.2 2.3-.4.6-.7 1-1 1.3-.3.3-.6.6-.8.9-.3.3-.6.5-.9.8-.3.3-.6.6-1 .9-.8.5-1.8 1.1-2.9 1.7-1.1.6-2.2 1-3.3 1.2-.9.1-1.8.1-2.4.2-.7 0-1 0-1-.2-.2-.1-.3-.4-.3-.7-.1-.4-.1-.7-.1-1.1v-1.1-.6c0-1-.1-2.1-.1-3.3v-3.6c0-1.2.1-2.2.1-3.1-.2-.9-.2-1.5-.2-1.9z"/>
  <path class="st0" d="M213.8 313.5c.1 1.1.1 2.2.1 3.3 0 1.1 0 2.2-.1 3.3 0 1.8-.1 3.6-.2 5.4-.1 1.8-.2 3.6-.2 5.5 0 .3 0 .6-.1.9 0 .3-.1.6-.1.9-.1 1.1-.1 2.2-.1 3 0 .9-.1 1.9-.1 3v.3c0 .1 0 .4-.1.7s-.1.5-.3.7c-.1.2-.3.3-.6.3h-1.9c-.7 0-1.3-.2-1.9-.3-.6-.2-1-.4-1.4-.7-.3-.3-.5-.7-.5-1.2v-.8c0-.3 0-.6.1-.9-.5 0-1 0-1.6-.1-.5 0-1-.1-1.3-.1-.4 0-1 0-1.6-.1-.6-.1-1.2-.2-1.7-.3-.5-.1-1-.2-1.4-.3-.4-.1-.6-.2-.7-.2-1.2-.4-2.2-1-2.9-1.7-.7-.7-1.4-1.5-1.9-2.3-.5-.8-.8-1.7-.9-2.6-.1-.9-.1-2 .1-3.1.1-.9.4-1.7.7-2.4.4-.7.9-1.3 1.4-1.9.3-.3.8-.7 1.4-1.1.6-.4 1.1-.7 1.5-.9.9-.4 1.8-.7 2.6-.8.8-.1 1.8-.3 3.1-.4 1-.1 1.8-.1 2.5-.2.6 0 1.3 0 1.9.1v-.5-.5c.1-.9 0-1.9-.1-3-.1-1.2-.3-2.1-.6-2.9l-.3-.9c-.1-.3-.2-.7-.5-1.1-.3-.5-.6-.9-.9-1.1-.3-.3-.7-.4-1.2-.3-.3 0-.7.1-.9.3-.3.2-.5.5-.7.7-.2.3-.4.5-.5.8s-.2.5-.2.6c-.2.5-.3 1-.5 1.7s-.2 1.3-.3 2c0 .3-.1.5-.2.8-.1.2-.2.4-.4.6-.2.1-.5.2-1 .3-.5.1-1.1.1-1.9 0-.7 0-1.2-.2-1.5-.5-.3-.3-.6-.6-.7-.9-.1-.4-.2-.7-.2-1.1v-1-.5c0-.1 0-.3.1-.5.2-1.4.4-2.5.7-3.4.3-.9.6-1.5.9-2 .3-.5.5-.9.7-1.1.2-.3.4-.5.6-.7.6-.6 1.3-1.1 1.8-1.6.6-.4 1.3-.8 2.1-.9 1-.2 2-.2 3-.1s2 .4 2.9 1l.6.3c.2.1.4.3.6.4.6.3 1.2.8 1.6 1.3.4.5.8 1.2 1.1 1.8.5 1.1.8 2.2 1.1 3.4.6 1.2.8 2.4 1 3.6z"/>
  <path class="st0" d="M217.8 325.2v-2.7-3.5-3.2c0-.9 0-1.5.1-1.7 0-.2.1-.7.1-1.6 0-.9.1-1.9.1-2.9 0-1.1 0-2 .1-2.9 0-.9.1-1.4.1-1.5 0-.3.1-.7.1-1.1 0-.4 0-.8.1-1.1 0-.1.1-.2.1-.3 0-.1 0-.2.1-.3.1-.2.3-.3.6-.3h.8c.4 0 .8.1 1.2.1.4.1.9.1 1.3.2.5.1.8.2 1.1.3.2.1.6.2 1.2.5s1.4.6 2.4 1.2c1.1.6 1.9 1.3 2.5 2 .6.7 1.2 1.4 1.6 2 .7.8 1.2 1.6 1.6 2.3.4.7.7 1.6 1.1 2.7.1.4.2 1.1.4 1.8l.3 2.4c.1.8.2 1.6.2 2.3.1.7.1 1.1.1 1.4.1.9.1 1.8-.1 2.7-.1.9-.3 1.8-.5 2.7-.1.5-.2 1-.3 1.4-.1.5-.3.9-.5 1.4-.2.6-.5 1.3-.8 2-.4.7-.8 1.5-1.2 2.3-.4.6-.7 1-1 1.3-.3.3-.6.6-.8.9-.3.3-.6.5-.9.8-.3.3-.6.6-1 .9-.8.5-1.8 1.1-2.9 1.7-1.1.6-2.2 1-3.3 1.2-.9.1-1.8.1-2.4.2-.7 0-1 0-1-.2-.2-.1-.3-.4-.3-.7-.1-.4-.1-.7-.1-1.1v-1.1-.6c0-1-.1-2.1-.1-3.3v-3.6c0-1.2.1-2.2.1-3.1-.2-.9-.2-1.5-.2-1.9z"/>
  <path class="st1" d="M16.8 116.5l-.1 36.7 60.1-2.3 16.5 3.4 33.4-2.1c20.7-1.3 72.8 3.9 99.6 3.7l-1.8-41.7-80.6-1.6-47.9 2.6-14.4-1.4c-25.6 2.1-29.1 1.3-42.9 0l-21.9 2.7z"/>
  <path class="st1" d="M12.4 174.8l59.4 1 83.8 2.3 70-3.3v46.5l-48-3.5-28.5-1.9-73.9 3.7-57.3 3.7z"/>
  <path class="st2" d="M60.5 127v.6c0 .3 0 .5.1.8 0 .3 0 .6.1.8v.6c0 .2-.1.3-.2.4-.1.1-.4.2-.9.2-.8.1-1.6.2-2.4.1h-1.6v2.7c-.1.4-.1.9-.1 1.3v2c.1.4.1.8.1 1v1.8c0 .3 0 .7.1.9v1.4c0 .4 0 .8-.1 1.2-.1.5-.1 1-.1 1.5s-.1 1-.1 1.5c-.1.4-.1.7-.1 1.1v3.4c0 .8-.1 1.6-.2 2.4 0 .3-.2.5-.4.5-1.2.2-2.4.3-3.6 0-.3 0-.4-.2-.5-.4v-.7-1.3-1.3c-.1-.7-.1-1.5-.1-2.3 0-.8 0-1.5.1-2.2.1-.8.1-1.6.1-2.4v-2.4-1.2c0-.4-.1-.8-.1-1.2 0-.6 0-1.2-.1-1.8 0-.6 0-1.2.1-1.7v-.5c-.1-.5-.1-1-.1-1.5v-1.6h-2.6c-.6 0-1 0-1.2-.1-.2 0-.4-.2-.6-.4-.1-.1-.2-.2-.3-.4-.4-.9-.5-1.8-.4-2.7.1-.2.2-.4.3-.5.2-.1.5-.2 1-.3.4-.1.8-.1 1.2-.1.4 0 .8 0 1.2-.1.9-.1 1.8-.1 2.8-.1H59c.7 0 1.3.2 1.5.5-.1.3 0 .4 0 .5z"/>
  <path class="st2" d="M62.6 135.7v-1.5-2-2c0-.6.1-1.1.1-1.3v-.7-1.3-1.4-1.1-.3-.3c.1-.3.3-.4.6-.4h.7c.4 0 .9 0 1.5.1.6 0 1.2.1 1.8.1h5c.6 0 1 0 1.4.1h.7c.5 0 .8.3.8.7.1.5.1 1 .1 1.5v2.3c0 .3 0 .6.1.9.1.7.1 1.4.1 2.1v5.9c.1.8.1 1.6 0 2.4 0 .8-.1 1.6-.1 2.4v2.2c0 .6 0 1.3-.1 1.9-.1.6-.2 1.2-.3 1.9-.1.6-.2 1.1-.3 1.7-.1.6-.2 1.2-.4 1.8-.2 1.1-.7 2-1.5 2.9-.4.4-.9.8-1.4 1.1-.5.3-1.1.5-1.7.5-.6.1-1.3 0-1.9-.1-.7-.2-1.3-.5-1.8-.9-.5-.3-.9-.8-1.3-1.2-.6-.7-1-1.5-1.3-2.4-.3-.8-.5-1.7-.6-2.6-.1-.5-.1-1-.1-1.5s0-1-.1-1.5-.1-1.3-.1-2.3c0-1 0-2-.1-3v-2.8c.2-1.1.2-1.6.2-1.9z"/>
  <path class="st2" d="M86.9 133c-.4-.1-.5-.4-.5-.8 0-.3.1-.6.1-.8v-.8-.9c0-.3-.1-.5-.1-.5l-.3-.6c-.1-.2-.3-.4-.5-.5-.2-.2-.6-.3-1.1-.2-.5.1-.9.3-1.2.6-.1.1-.2.3-.3.6-.1.3-.1.5-.1.8v.8c0 .3 0 .5.1.6.2 1.1.5 2 1.1 2.8.3.4.6.8.8 1.2l.9 1.2c.4.5.7 1 1 1.6.4.5.7.9.9 1.3.2.3.5.7.8 1 .9 1.1 1.5 2.3 2 3.5.5 1.2.8 2.5.9 3.9v2c-.1 1.6-.8 3-2.1 4.1-.1.1-.2.2-.3.2s-.2.2-.3.3c-.4.3-.9.6-1.3.7-.4.2-.9.2-1.5.2h-1.6c-.5 0-1-.1-1.5-.3-.4-.1-.7-.2-1-.4-.3-.2-.6-.4-1-.7l-.8-.8c-.3-.3-.5-.5-.7-.9-.1-.1-.1-.2-.2-.3-.1-.1-.1-.2-.2-.3-.2-.6-.4-1.1-.5-1.7-.1-.6-.2-1.2-.2-1.8v-1c0-.4 0-.7.1-1.1 0-.3.1-.6.1-.9 0-.2.1-.4.1-.5.2-.4.5-.6 1-.6h.4c.7.2 1.5.4 2.3.6.3.1.4.2.5.3.1.1.1.3.1.6-.1.4-.1.7-.1 1.1 0 .4-.1.8-.1 1.2.1.5.1 1 .2 1.4.1.4.2.7.5 1 .3.2.7.4 1.2.5.5.1 1 0 1.4-.3.3-.2.6-.5.7-.9.2-.4.3-.8.3-1.2 0-.5 0-1-.2-1.5-.1-.5-.3-1-.6-1.4-.2-.5-.5-.9-.8-1.4-.3-.4-.6-.9-.9-1.3-.3-.4-.5-.8-.8-1.2-.3-.4-.5-.8-.7-1.2l-.6-.9-.6-.9c-.4-.6-.7-1-.9-1.4-.2-.4-.5-.8-.7-1.3-.1-.1-.1-.3-.2-.4-.1-.1-.2-.2-.2-.4-.5-.8-.9-1.6-1.1-2.5s-.3-1.7-.4-2.6c-.1-1.1 0-2.2.3-3.1.2-.7.6-1.3 1.2-1.9.9-.7 1.9-1.1 3.1-1.3.9-.1 1.8-.1 2.7 0 .9.1 1.7.4 2.5.8.4.3.8.7 1.1 1 .3.4.6.8.8 1.3.1.3.2.7.3 1s.1.7.2 1.1v2.7c0 1-.5 1.5-1.6 1.4H87c.2.1 0 .1-.1.1z"/>
  <path class="st2" d="M115.9 127v.6c0 .3 0 .5.1.8 0 .3 0 .6.1.8v.6c0 .2-.1.3-.2.4-.1.1-.4.2-.9.2-.8.1-1.6.2-2.4.1H111v2.7c-.1.4-.1.9-.1 1.3v2c.1.4.1.8.1 1v1.8c0 .3 0 .7.1.9v1.4c0 .4 0 .8-.1 1.2-.1.5-.1 1-.1 1.5s-.1 1-.1 1.5c-.1.4-.1.7-.1 1.1v3.4c0 .8-.1 1.6-.2 2.4 0 .3-.2.5-.4.5-1.2.2-2.4.3-3.6 0-.3 0-.4-.2-.5-.4v-.7-1.3-1.3c-.1-.7-.1-1.5-.1-2.3 0-.8 0-1.5.1-2.2.1-.8.1-1.6.1-2.4v-2.4-1.2c0-.4-.1-.8-.1-1.2 0-.6 0-1.2-.1-1.8 0-.6 0-1.2.1-1.7v-.5c-.1-.5-.1-1-.1-1.5v-1.6h-2.6c-.6 0-1 0-1.2-.1-.2 0-.4-.2-.6-.4-.1-.1-.2-.2-.3-.4-.4-.9-.5-1.8-.4-2.7.1-.2.2-.4.3-.5.2-.1.5-.2 1-.3.4-.1.8-.1 1.2-.1.4 0 .8 0 1.2-.1.9-.1 1.8-.1 2.8-.1H114.4c.7 0 1.3.2 1.5.5v.5z"/>
  <path class="st2" d="M123 123.6c.4.2.6.6.8 1.1.2.5.2 1.1.1 1.7-.1.4-.2.8-.3 1.1-.2.3-.5.5-.9.7-.1.1-.4.1-.7.2-.3 0-.5.1-.7.1-.6 0-1.1-.2-1.6-.6-.5-.4-.8-.9-.9-1.4-.1-1 .2-1.9.9-2.5.9-.7 1.9-.9 3-.6.1.1.2.1.3.2zm.6 29.6c0 .2.1.3.1.5s.1.3.1.5c.1.2.1.5 0 .8-.1.3-.3.5-.6.6-1.2.2-2.4.1-3.6 0-.3 0-.5-.2-.5-.6-.1-.3-.1-.7-.1-1.1v-1.2c.1-1 .1-1.9.1-2.8 0-.9.1-1.9.1-2.8v-1.3c0-.4 0-.8.1-1.3v-1.8-1.8-1.6-2.4-2.4-1.6-.9-.9-.5c0-.2 0-.3.1-.5 0-.2.2-.4.5-.5h1.9c.4 0 .9 0 1.3.1.3.1.5.2.6.3.1.1.1.3.1.5v14.8c0 .4 0 .7-.1 1v5.1c-.1.6-.1 1.2-.1 1.8z"/>
  <path class="st2" d="M138.7 149.8V152.4c-.1.3-.3.4-.6.5l-1.5.3c-.5.1-1 .1-1.5.1h-6.8c-.2 0-.4 0-.6-.1-.2 0-.4-.1-.4-.4v-.5-1.6-10.2-.4-.3c0-.2 0-.4.1-.5V137.6v-.7-1.3-1.3c-.1-.5-.1-1-.2-1.5s-.1-1-.1-1.5v-1.7c0-.2 0-.4-.1-.7 0-.2 0-.5-.1-.7v-.3c0-.1 0-.2-.1-.4v-.1c0-.3.1-.4.4-.5.2-.3.9-.5 2-.5h1.6c.7-.1 1.4-.1 2.2-.1.7 0 1.5 0 2.2.1h1.2c.9.1 1.4.1 1.6.3.2.1.4.4.5.8v1.9c0 .3 0 .5-.1.7-.1.3-.3.5-.6.5-.5.1-1.1.2-1.6.3-.5.1-1 .1-1.6.1h-3.2v2.2c0 .4 0 1 .1 1.5s.1 1.1.1 1.6 0 1.1-.1 1.6v3.1h5.2c.5.1.9.3 1 .6v.5c-.1.5-.1.9-.1 1.4 0 .5-.1.9-.1 1.4-.1.4-.5.7-1.2.6-.8-.1-1.6-.1-2.3-.1h-2.4v2.5c0 .2 0 .4-.1.6V149.4c.7-.1 1.3-.1 2-.1s1.3 0 2 .1h1.1c.8.1 1.3.2 1.5.3.4-.5.5-.3.6.1z"/>
  <path class="st2" d="M159 129.6v1.2c0 .4 0 .8-.1 1.2V137.3c0 .8 0 1.5-.1 2.2 0 .7-.1 1.2-.1 1.5v4.8c0 .8 0 1.5.1 2.2 0 .6.1 1 .1 1.2v3c-.1.2-.2.4-.4.5-.2.1-.4.2-.6.2-.5.1-1 .2-1.5.2h-1.7c-.4-.1-.6-.2-.7-.4-.2-.5-.3-1-.3-1.3v-.7-.8-1-1.8-1.9-1.2-1.4-1.4-1c0-.4.1-.8.1-1.1v-.9c0-.2-.1-.3-.2-.2l-.6 1.5c-.2.5-.4 1-.5 1.5-.1.3-.2.6-.3 1-.1.4-.3.8-.4 1.2-.1.4-.2.7-.4 1-.1.3-.2.5-.2.5-.1.1-.1.2-.1.3 0 .1-.1.2-.1.2-.3.4-.5.6-.8.6-.3 0-.5-.1-.7-.2-.2-.1-.5-.4-.7-.7-.3-.5-.6-1.1-.7-1.7-.1-.6-.3-1.3-.5-2-.1-.5-.3-1-.5-1.5l-.6-1.5c-.1-.1-.2 0-.2.2v.9c0 .4 0 .7.1 1.1v5c0 .6 0 1.2.1 1.9 0 .7 0 1.3.1 1.8v2.6c0 .4-.1.8-.3 1.3-.1.2-.3.4-.7.5-.7.1-1.2.1-1.7 0-.5 0-1-.1-1.6-.2-.2 0-.3-.1-.5-.2s-.3-.2-.3-.5v-.5-1-1-.5c0-.2 0-.6.1-1.2 0-.6.1-1.4.1-2.2v-2.6-2.3c0-.3 0-.8-.1-1.5 0-.7-.1-1.4-.1-2.2 0-.8 0-1.5-.1-2.1v-1.3c.1-.6.1-1.2 0-1.8v-1.2-3.2-.6c0-.2.1-.4.1-.6.1-.2.2-.4.4-.4.2-.1.4-.1.6-.2.2-.1.4-.1.6-.1H146.4c.2.1.4.2.5.5.1.3.2.6.3 1l.3 1.2c.1.4.2.7.3 1 .2.6.4 1.1.6 1.7.2.5.3 1.1.5 1.7.1.2.2.7.4 1.4s.5 1.6.7 2.4c.3-.9.5-1.7.8-2.5.2-.8.4-1.3.5-1.4.1-.6.3-1.1.5-1.7.2-.5.4-1.1.6-1.7.1-.2.2-.6.2-1l.3-1.2c.1-.4.2-.7.3-1 .1-.3.3-.5.5-.5H157c.2 0 .4.1.6.1.2.1.4.1.6.2.2.1.3.2.4.4.1.2.1.4.1.6v1.6c.3.1.3.4.3.7z"/>
  <path class="st2" d="M175 131.2c.6 1.2.8 2.4.4 3.7-.1.5-.3 1-.5 1.5s-.5.9-.8 1.4c-.2.2-.4.5-.6.8-.3.3-.5.5-.7.6-.5.4-1 .6-1.4.8-.4.2-.9.4-1.5.7-.5.2-.9.3-1.3.4-.4.1-.9.1-1.5 0v.8c0 .3 0 .5.1.8.1.6.1 1.2.1 1.8 0 .6 0 1.2.1 1.8v4c0 .2 0 .5-.1.7v.9c-.1.5-.2.8-.3 1-.2.1-.5.2-1 .3-.3 0-.6 0-.9.1h-1.2c-.5 0-.8-.1-.9-.2-.1-.2-.2-.3-.2-.4-.1-.2-.1-.5-.2-.7 0-.2-.1-.5-.1-.8v-1.9-2.1-2.2-.9V140.9v-1-1c-.1-.6-.1-1.3-.1-1.9v-1.9-.6-.7c0-.4-.1-.8-.1-1.3V128.9v-.8c0-.3 0-.5.1-.8 0-.2.1-.5.2-.7s.4-.3.8-.3H166.3c.4 0 .6.1.7.3.1.2.1.5.1.8v.8c.4-.1 1-.2 1.6-.2.5-.1 1 0 1.5.1s1 .3 1.4.5c.1.1.2.1.3.2.7.2 1.3.6 1.8 1.1.6.2 1 .7 1.3 1.3z"/>
  <path class="st2" d="M187.1 130.9V144.6c0 .5 0 1-.1 1.6v2.5c0 .2 0 .4-.1.6 0 .2 0 .4-.1.6 0 .1 0 .2-.1.3-.1.1-.2.2-.3.2h-.4c-.2 0-.4 0-.7-.1-.2 0-.5-.1-.8-.1-.3 0-.5-.1-.7-.2-.1-.1-.3-.1-.7-.3-.3-.1-.8-.3-1.3-.6-.6-.4-1.1-.7-1.4-1.1-.3-.4-.7-.8-.9-1.2-.4-.5-.7-.9-.9-1.3-.2-.4-.4-.9-.6-1.5-.1-.2-.2-.6-.2-1-.1-.4-.1-.9-.2-1.4-.1-.5-.1-.9-.1-1.3s-.1-.7-.1-.8c-.1-.5 0-1 0-1.6.1-.5.2-1 .3-1.6.1-.2.1-.5.2-.8.1-.3.2-.5.2-.8.1-.3.3-.7.5-1.1.2-.4.5-.8.7-1.3.2-.3.4-.6.6-.8.2-.2.3-.4.5-.5l.5-.5c.2-.1.4-.3.6-.5.5-.3 1-.6 1.6-1 .6-.3 1.2-.6 1.8-.7.6 0 1-.1 1.4-.1.4 0 .5 0 .5.2.1.1.1.2.2.4 0 .2.1.4.1.6v1.5zm11 8.7c0 .5 0 1.1-.1 1.6l-.3 1.5c-.1.3-.1.5-.2.8-.1.3-.1.5-.2.8-.1.3-.3.7-.5 1.1-.2.4-.4.8-.7 1.3-.2.3-.4.6-.6.8-.2.2-.3.4-.5.5-.1.1-.3.3-.5.4-.2.1-.4.3-.6.5-.5.3-1 .6-1.6 1-.6.3-1.2.6-1.8.7-.6.1-1 .1-1.4.1-.4 0-.6 0-.6-.1-.1-.1-.1-.2-.2-.4 0-.2-.1-.4-.1-.6v-.6-.3-1.9-2-1.7-1.1-1.5-2-1.8-.9-.9c0-.5 0-1.1.1-1.7 0-.6 0-1.1.1-1.6v-.9c0-.2 0-.4.1-.6 0-.2 0-.4.1-.6v-.3c.1-.1.1-.2.3-.2.2 0 .6 0 1.2.1s1 .2 1.4.3c.1.1.3.1.7.3.3.1.8.3 1.3.7.6.4 1.1.8 1.4 1.2.3.4.7.8.9 1.1.4.5.7.9.9 1.3.2.4.4.9.6 1.5.1.2.2.6.2 1 .1.4.1.9.2 1.4.1.5.1.9.2 1.3.2 0 .2.3.2.4z"/>
  <path class="st2" d="M208.5 133c-.4-.1-.5-.4-.5-.8 0-.3.1-.6.1-.8v-.8-.9c0-.3-.1-.5-.1-.5l-.3-.6c-.1-.2-.3-.4-.5-.5-.2-.2-.6-.3-1.1-.2-.5.1-.9.3-1.2.6-.1.1-.2.3-.3.6-.1.3-.1.5-.1.8v.8c0 .3 0 .5.1.6.2 1.1.5 2 1.1 2.8.3.4.6.8.8 1.2l.9 1.2c.4.5.7 1 1 1.6.4.5.7.9.9 1.3.2.3.5.7.8 1 .9 1.1 1.5 2.3 2 3.5.5 1.2.8 2.5.9 3.9v2c-.1 1.6-.8 3-2.1 4.1-.1.1-.2.2-.3.2l-.3.3c-.4.3-.9.6-1.3.7s-.9.2-1.5.2h-1.6c-.5 0-1-.1-1.5-.3-.4-.1-.7-.2-1-.4s-.6-.4-1-.7l-.8-.8c-.3-.3-.5-.5-.7-.9-.1-.1-.1-.2-.2-.3-.1-.1-.1-.2-.2-.3-.2-.6-.4-1.1-.5-1.7-.1-.6-.2-1.2-.2-1.8v-1c0-.4 0-.7.1-1.1 0-.3.1-.6.1-.9 0-.2.1-.4.1-.5.2-.4.5-.6 1-.6h.4c.7.2 1.5.4 2.3.6.3.1.4.2.5.3.1.1.1.3.1.6-.1.4-.1.7-.1 1.1 0 .4-.1.8-.1 1.2.1.5.1 1 .2 1.4.1.4.2.7.5 1 .3.2.7.4 1.2.5.5.1 1 0 1.4-.3.3-.2.6-.5.7-.9.2-.4.3-.8.3-1.2 0-.5 0-1-.2-1.5-.1-.5-.3-1-.6-1.4-.2-.5-.5-.9-.8-1.4-.3-.4-.6-.9-.9-1.3-.3-.4-.5-.8-.8-1.2-.3-.4-.5-.8-.7-1.2l-.6-.9-.6-.9c-.4-.6-.7-1-.9-1.4-.2-.4-.5-.8-.7-1.3-.1-.1-.1-.3-.2-.4-.1-.1-.2-.2-.2-.4-.5-.8-.9-1.6-1.1-2.5-.2-.9-.3-1.7-.4-2.6-.1-1.1 0-2.2.3-3.1.2-.7.6-1.3 1.2-1.9.9-.7 1.9-1.1 3.1-1.3.9-.1 1.8-.1 2.7 0 .9.1 1.7.4 2.5.8.4.3.8.7 1.1 1 .3.4.6.8.8 1.3.1.3.2.7.3 1 .1.3.1.7.2 1.1v2.7c0 1-.5 1.5-1.6 1.4h-1.8c.2.1 0 .1-.1.1z"/>
  <path class="st2" d="M86.4 183.5v.7c0 .3.1.6.1.9 0 .3 0 .6.1.9v.6c0 .2-.1.4-.2.5-.2.1-.5.2-1 .2-.9.2-1.8.2-2.7.1h-1.8v3c-.1.5-.1 1-.1 1.5v2.3c.1.5.1.9.1 1.1v2c0 .4 0 .7.1 1.1v1.5c0 .4 0 .9-.1 1.3-.1.5-.1 1.1-.1 1.6 0 .6-.1 1.1-.1 1.6-.1.4-.1.8-.1 1.2v3.8c0 .9-.1 1.8-.2 2.6 0 .4-.2.5-.5.5-1.3.3-2.6.3-4 0-.3 0-.5-.2-.5-.5v-.8-1.4-1.4c-.1-.8-.1-1.7-.1-2.5s0-1.7.1-2.5c.1-.9.1-1.8.1-2.7V198v-1.4c0-.5-.1-.9-.1-1.3 0-.7-.1-1.3-.1-2s0-1.3.1-1.9v-.6c-.1-.6-.1-1.1-.1-1.7v-1.8h-3c-.7 0-1.1 0-1.4-.1-.2 0-.5-.2-.7-.4-.1-.1-.2-.2-.3-.4-.4-1-.6-2-.5-3 .1-.2.2-.4.4-.5.2-.1.5-.2 1.1-.4.4-.1.9-.1 1.3-.1.5 0 .9 0 1.3-.1 1-.1 2.1-.1 3.1-.1h8c.8 0 1.4.2 1.7.5.1.6.1.7.1.8z"/>
  <path class="st2" d="M88.8 193.3v-1.7-2.3-2.2c0-.7.1-1.2.1-1.5v-.8-1.4-1.6-1.2-.3-.3c.1-.3.3-.5.6-.5h.7c.5 0 1.1 0 1.7.1.7 0 1.3.1 2.1.1h5.6c.6 0 1.2 0 1.6.1h.8c.6 0 .9.3.9.8.1.6.1 1.1.1 1.7v2.6c0 .3 0 .6.1 1 .1.8.1 1.5.1 2.3v6.5c.1.9.1 1.8 0 2.7 0 .9-.1 1.8-.1 2.7v2.4c0 .7 0 1.4-.1 2.1l-.3 2.1c-.1.6-.2 1.3-.4 1.9s-.2 1.3-.4 2c-.2 1.2-.8 2.3-1.6 3.3-.4.5-1 .9-1.6 1.2s-1.3.5-2 .6-1.4 0-2.2-.2-1.4-.5-2-1c-.6-.4-1-.8-1.4-1.4-.6-.8-1.1-1.7-1.4-2.7s-.5-1.9-.7-2.9c-.1-.6-.1-1.1-.1-1.7 0-.6 0-1.2-.1-1.7-.1-.6-.1-1.4-.1-2.5s-.1-2.2-.1-3.4v-3.1c.2-.9.2-1.5.2-1.8z"/>
  <path class="st2" d="M134.2 180.2c0 .2.1.3.1.5s0 .3-.1.5c-.2.6-.2 1.2-.3 1.8 0 .6-.1 1.2-.2 1.8-.1.2-.1.4-.1.7 0 .2-.1.5-.1.7-.2.6-.3 1.1-.5 1.7s-.3 1.1-.5 1.7c0 .1-.1.5-.3 1.2s-.3 1.6-.6 2.7c-.2 1.1-.5 2.2-.7 3.4-.3 1.2-.5 2.4-.7 3.4s-.4 2-.6 2.8-.3 1.2-.3 1.4c-.2 1.1-.5 2.2-.9 3.2s-.6 2.1-.8 3.2c0 .2-.1.5-.1.8-.1.3-.1.7-.2 1s-.2.7-.2.9-.1.5-.1.6c0 .1-.1.2-.1.4s-.2.3-.4.5-.4.3-.7.4c-.3.1-.7.2-1.2.2h-.3c-.6 0-1-.1-1.3-.3s-.6-.4-.7-.6-.3-.4-.3-.7c0-.2-.1-.4-.1-.5 0-.1-.1-.4-.2-.9-.2-.5-.3-1.1-.5-1.8-.2-.6-.4-1.3-.5-1.8-.2-.6-.2-1-.3-1.2-.2-1.1-.4-2.1-.7-2.9-.3-.9-.6-1.8-.8-2.9-.1-.4-.1-.9-.2-1.3s-.2-.9-.2-1.3c-.1-.7-.2-1.3-.4-2-.1-.3-.2-.7-.3-1-.1-.3-.2-.6-.2-.9-.1-.7-.3-1.4-.4-2.2s-.3-1.5-.3-2.2c0-.3-.1-.6-.1-.9s-.1-.6-.2-.9c-.2-.6-.3-1.2-.5-1.7s-.3-1.1-.5-1.7c-.1-.2-.1-.5-.1-.7 0-.2-.1-.4-.1-.7-.1-.6-.2-1.2-.2-1.8 0-.6-.1-1.2-.3-1.8-.1-.2-.1-.3 0-.5v-.5c0-.3.2-.4.5-.4h2.6s.2.1.6.1c.4 0 .7 0 1 .1.6 0 .9.3 1.1.9.1.2.1.4.2.6s.1.4.2.7l1 4.3c.1.6.2 1.2.4 1.8l.3 1.8c.1.9.2 1.7.3 2.6.1.9.3 1.8.5 2.6.2.7.3 1.4.4 2.1.1.7.3 1.4.5 2.2.1.3.1.6.2.8.1.3.1.6.2.8.1-.3.1-.6.2-.8.1-.3.1-.6.2-.8.2-.7.3-1.4.4-2.1s.3-1.4.4-2.1c.2-.9.3-1.7.5-2.6.1-.9.3-1.7.4-2.6.1-.6.1-1.2.3-1.8.1-.6.2-1.2.4-1.8.2-.7.3-1.4.5-2.2.2-.7.3-1.5.5-2.2.1-.2.1-.4.2-.6.1-.2.1-.4.2-.7.2-.5.5-.8 1.1-.9.2 0 .6-.1 1-.1s.6 0 .6-.1h2.6c-.5.2-.3.4-.2.6z"/>
  <path class="st2" d="M146.9 187.9v15.5c0 .6-.1 1.2-.1 1.8v2.8c0 .2-.1.5-.1.7 0 .2 0 .5-.1.7 0 .1 0 .2-.1.4s-.2.2-.3.2h-.5c-.2 0-.5 0-.8-.1s-.6-.1-.9-.1c-.3 0-.5-.1-.7-.2-.1-.1-.4-.2-.7-.3-.4-.1-.9-.4-1.5-.7-.7-.4-1.2-.8-1.6-1.3s-.7-.9-1-1.3c-.4-.5-.8-1-1-1.4-.2-.4-.4-1-.7-1.7-.1-.3-.2-.7-.2-1.2-.1-.5-.1-1-.2-1.5s-.1-1-.2-1.4c0-.4-.1-.7-.1-.9-.1-.6-.1-1.2 0-1.7.1-.6.2-1.1.3-1.7.1-.3.1-.6.2-.9l.3-.9c.1-.4.3-.8.5-1.3s.5-.9.8-1.4c.2-.4.5-.6.6-.8.2-.2.3-.4.5-.6l.5-.5c.2-.2.4-.3.7-.6.5-.4 1.1-.7 1.8-1.1s1.4-.6 2.1-.8c.6 0 1.1-.1 1.6-.1.4 0 .6 0 .6.2.1.1.2.2.2.4s.1.5.1.7v1.1zm12.4 9.8c0 .6 0 1.2-.1 1.7-.1.6-.2 1.1-.3 1.7-.1.3-.1.6-.2.9l-.3.9c-.1.4-.3.8-.5 1.3s-.5.9-.8 1.4c-.2.4-.5.6-.7.9-.2.2-.4.4-.5.6l-.5.5c-.2.2-.4.3-.7.6-.5.4-1.1.7-1.8 1.1-.7.4-1.3.6-2 .8-.6.1-1.1.1-1.6.1-.4 0-.6 0-.6-.2-.1-.1-.2-.2-.2-.4s-.1-.5-.1-.7v-.7-.4-2.1-2.3-1.9-1.2-1.7-2.3-2-1-1.1c0-.6.1-1.2.1-1.9s0-1.3.1-1.8v-1c0-.2.1-.4.1-.7s0-.5.1-.7v-.4c.1-.2.2-.2.3-.2.2 0 .6 0 1.3.1s1.2.2 1.6.4c.1.1.4.2.8.3.4.1.9.4 1.5.7.7.4 1.2.8 1.6 1.3.4.5.7.9 1 1.3.4.5.8 1 1 1.4.2.4.4 1 .7 1.7.1.3.2.7.3 1.2.1.5.1 1 .2 1.5s.1 1 .2 1.5v.8z"/>
  <path class="st2" d="M176.9 211.5v.7c0 .3.1.6.1.9v1.5c0 .2-.1.4-.2.5-.1.1-.5.2-1 .2-.4.1-.8.1-1.2.1h-3.1c-1.2 0-2.3.1-3.5.1h-5.1c-.2 0-.4-.1-.5-.1-.5-.1-.6-.3-.5-.8.1-.4.2-.8.4-1.3s.3-.9.5-1.5c.2-.5.4-1 .5-1.5s.3-.9.4-1.3c.4-1.2.7-2.3 1-3.5s.6-2.3.8-3.5c.1-.5.2-.9.3-1.4.1-.5.3-.9.4-1.4l.6-2.1.6-2.1c.2-.8.5-1.7.6-2.5.2-.9.3-1.7.5-2.6.1-.6.3-1.2.4-1.8s.3-1.2.5-1.8c.1-.3.1-.6.2-.9l.3-.9c-1 0-2.1.1-3.1.1h-3.1c-.6 0-1 0-1.2-.1-.2 0-.4-.2-.6-.4l-.2-.2c0-.1-.1-.2-.1-.3-.4-1-.6-1.9-.5-2.9l.3-.6c.1-.2.5-.2 1-.3.4-.1.8-.1 1.2-.1.4 0 .8 0 1.3-.1h10.2c.7 0 1.2.2 1.5.6.1.1.2.2.2.4s-.1.7-.3 1.4c-.2.7-.3 1.3-.5 1.8 0 .1-.1.2-.1.3 0 .1 0 .2-.1.3-.1.2-.1.4-.1.6-.1.4-.2.8-.4 1.3l-1.1 3.4c-.2.6-.3 1.1-.4 1.7-.1.7-.3 1.5-.5 2.2-.2.7-.4 1.4-.5 2.2l-.3.9-.3.9c-.1.4-.2.7-.3 1s-.2.7-.2 1c-.1.4-.2.9-.3 1.3-.1.4-.3.8-.4 1.3l-.9 3.3c-.3 1.1-.5 2.2-.7 3.3-.1.3-.1.6-.2.8l-.3.9h3.8c.7 0 1.5 0 2.3.1.4 0 .8 0 1 .1.2.1.4.2.6.4.2.1.3.2.3.4z"/>
  <path class="st1" d="M5.3 47.6l13.4 57.8 106.2-.1 76.5-1.1 26.9 3.2 2.1-60.6-63.9-1.1z"/>
  <path class="st1" d="M19.7 233.8l-.1 35.7h24.8l30.1-.2 17.8 3 22.6-1.5c3-.2 38.6 1.8 38.6 1.8l70-.6-1.7-40.5-78.4-1.6-39.1 2.5-23.1-1.3s-16.3.5-17.6 0c-1.3-.5-22.6 0-22.6 0l-21.3 2.7z"/>
  <path class="st2" d="M60 55.3c0 .2 0 .5.1.9 0 .4.1.8.1 1.3s.1.9.1 1.3.1.7.1.9c0 .3-.1.5-.3.6-.2.1-.7.2-1.4.3-1.2.2-2.5.3-3.7.2-.4 0-.8-.1-1.3-.1h-1.3V65c-.1.7-.1 1.4-.1 2v2c0 .3 0 .7.1 1.1.1.7.1 1.2.1 1.6v2.7c0 .5 0 1 .1 1.5 0 .8.1 1.5.1 2.1s0 1.2-.1 1.8c-.1.7-.1 1.5-.2 2.3 0 .8-.1 1.5-.2 2.3-.1.6-.1 1.1-.1 1.6v5.2c0 1.2-.1 2.4-.3 3.6 0 .5-.3.7-.7.8-1.8.4-3.6.4-5.5.1-.4 0-.7-.3-.8-.6v-1c0-.6-.1-1.3 0-2v-2c-.1-1.2-.1-2.3-.2-3.5 0-1.2 0-2.3.1-3.4.1-1.2.1-2.5.2-3.7v-3.8c0-.6 0-1.2-.1-1.9 0-.6-.1-1.3-.1-1.8 0-.9-.1-1.8-.1-2.7 0-.9 0-1.8.1-2.6 0-.2.1-.4.1-.8-.1-.8-.1-1.6-.1-2.4V61c-.7 0-1.4.1-2 .1h-2c-.9 0-1.6 0-1.9-.1-.3-.1-.6-.3-1-.6-.1-.1-.3-.3-.5-.6-.6-1.4-.8-2.8-.7-4.1.1-.3.3-.6.5-.7.3-.1.7-.3 1.5-.5.6-.1 1.2-.1 1.8-.2s1.2-.1 1.8-.1c1.4-.1 2.8-.1 4.3-.1h4.2c1.2 0 2.3-.1 3.4 0h3.4c1.2 0 1.9.2 2.3.7.1.3.2.4.2.5z"/>
  <path class="st2" d="M63.2 68.7v-2.3-3.1-3.1c0-1 .1-1.6.2-2 0-.2.1-.5.1-1.1v-2-2.2-1.6c0-.1.1-.3.1-.4v-.4c.1-.4.4-.6.9-.6h1c.7 0 1.5.1 2.4.1.9 0 1.8.1 2.8.1 1 0 1.8.1 2.5.1h5.2c.9 0 1.6.1 2.2.1.6 0 1 .1 1.1.1.8 0 1.2.4 1.2 1.1.1.8.1 1.5.2 2.3V56c0 .5-.1.9 0 1.4 0 .4.1.9.1 1.4.1 1.1.2 2.1.2 3.2v3.2c0 1 0 2-.1 2.9 0 1 0 1.9.1 2.9.1 1.2.1 2.5 0 3.7-.1 1.2-.1 2.5-.2 3.7V80c0 .5 0 1.1-.1 1.6 0 1-.1 1.9-.2 2.9-.1.9-.2 1.9-.4 2.9-.2.9-.3 1.7-.5 2.6-.2.9-.3 1.8-.6 2.7-.3 1.6-1.1 3.1-2.3 4.5-.6.7-1.3 1.3-2.2 1.7s-1.7.7-2.7.8c-1 .1-2 0-3-.2-1-.3-1.9-.7-2.8-1.4-.8-.5-1.4-1.2-1.9-1.9-.9-1.2-1.5-2.4-1.9-3.7-.4-1.3-.7-2.6-.9-4-.1-.8-.1-1.6-.2-2.4 0-.8-.1-1.6-.1-2.4-.1-.8-.1-2-.2-3.5 0-1.5-.1-3.1-.1-4.6v-4.3c.1-1.3.1-2.1.1-2.6z"/>
  <path class="st2" d="M112.6 64.6c-.6-.2-.8-.6-.8-1.2 0-.5.1-.9.1-1.2v-1.3c0-.4 0-.9-.1-1.3 0-.5-.1-.7-.2-.8-.1-.3-.3-.6-.5-.9-.2-.3-.4-.5-.8-.8-.4-.3-.9-.5-1.7-.3-.8.1-1.4.4-1.9.9-.2.2-.4.5-.4.9-.1.4-.1.8-.2 1.2 0 .4-.1.8 0 1.2s.1.7.1 1c.3 1.6.8 3 1.7 4.2.4.6.9 1.2 1.3 1.8.5.6.9 1.3 1.3 1.9.6.8 1.1 1.6 1.5 2.4.6.8 1.1 1.5 1.4 1.9.3.5.7 1 1.2 1.6 1.3 1.7 2.4 3.5 3.1 5.4.8 1.9 1.2 3.9 1.4 6v3.1c-.2 2.5-1.3 4.6-3.3 6.3-.2.1-.3.3-.5.4-.1.1-.3.3-.5.4-.6.5-1.3.8-2 1.1-.7.3-1.4.4-2.2.4-.9 0-1.7 0-2.5-.1-.8 0-1.6-.2-2.4-.4-.6-.2-1.1-.4-1.5-.6-.4-.3-.9-.6-1.5-1.1-.4-.4-.8-.8-1.3-1.2-.4-.4-.8-.8-1.1-1.4-.1-.2-.2-.3-.3-.5-.1-.1-.2-.3-.3-.5-.3-.9-.6-1.7-.8-2.6-.2-.9-.3-1.8-.3-2.8v-1.6c0-.6.1-1.1.1-1.6.1-.5.1-1 .2-1.4.1-.4.1-.6.2-.7.3-.6.8-1 1.5-.9h.6c1.2.3 2.3.6 3.6.9.4.2.7.3.8.5.1.2.2.5.1.9-.1.6-.2 1.1-.2 1.7-.1.6-.1 1.2-.1 1.9.1.8.2 1.5.3 2.1.1.6.4 1.1.8 1.5.5.3 1.1.6 1.8.7.7.2 1.5 0 2.2-.5.5-.3.9-.8 1.1-1.4.3-.6.4-1.2.5-1.8 0-.7-.1-1.5-.3-2.3-.2-.8-.5-1.5-.8-2.1l-1.2-2.1c-.4-.7-.9-1.4-1.4-2.1-.4-.6-.8-1.2-1.2-1.9-.4-.6-.8-1.3-1.1-1.9-.3-.5-.6-1-.9-1.4-.3-.5-.6-.9-.9-1.4-.6-.9-1.1-1.6-1.5-2.2-.4-.6-.7-1.3-1.1-2l-.3-.6c-.1-.2-.2-.4-.4-.6-.8-1.2-1.4-2.5-1.7-3.8-.3-1.3-.5-2.7-.6-4-.1-1.7 0-3.3.5-4.8.3-1.1.9-2.1 1.9-2.9 1.3-1 2.9-1.7 4.7-1.9 1.4-.2 2.8-.2 4.2 0 1.4.2 2.7.6 3.9 1.3.6.5 1.2 1 1.7 1.6.5.6.9 1.2 1.3 2.1.2.5.4 1.1.5 1.6.1.5.2 1.1.3 1.7v.7c0 .2 0 .3.1.5v3c0 1.5-.8 2.2-2.4 2.2h-.7c-.3 0-.7 0-1-.1-.4 0-.7 0-1-.1.2.1 0 .1-.1.1z"/>
  <path class="st2" d="M144.4 66.5c.1 1.2.1 2.4.1 3.6 0 1.2 0 2.4-.1 3.6 0 2-.1 3.9-.2 5.9-.1 1.9-.2 3.9-.3 5.9 0 .3 0 .7-.1 1 0 .3-.1.7-.1 1-.1 1.2-.1 2.3-.2 3.3 0 1-.1 2-.2 3.3v.4c0 .2 0 .4-.1.7 0 .3-.1.5-.3.7-.1.2-.4.3-.7.3h-2.1c-.7-.1-1.4-.2-2-.4-.6-.2-1.1-.5-1.5-.8-.4-.3-.5-.8-.5-1.3v-.9c0-.3.1-.6.1-1-.6 0-1.1 0-1.7-.1-.6 0-1-.1-1.4-.1-.5 0-1 0-1.7-.1l-1.8-.3c-.6-.1-1.1-.2-1.5-.3-.4-.1-.7-.2-.7-.2-1.3-.5-2.4-1.1-3.2-1.9-.8-.8-1.5-1.6-2-2.5-.5-.9-.8-1.8-1-2.8-.1-1-.1-2.1.1-3.4.1-1 .4-1.8.8-2.5s.9-1.4 1.6-2c.3-.3.8-.7 1.5-1.2s1.2-.8 1.6-.9c1-.5 1.9-.8 2.8-.9.9-.1 2-.3 3.4-.4 1.1-.1 2-.2 2.7-.2.7-.1 1.4 0 2.1.1v-.5-.5c.1-.9.1-2-.1-3.3-.1-1.2-.4-2.3-.6-3.2-.1-.3-.2-.7-.3-1-.1-.3-.3-.7-.5-1.2-.3-.5-.7-.9-1-1.2-.3-.3-.7-.4-1.3-.3-.4 0-.7.1-1 .4-.3.2-.6.5-.8.8-.2.3-.4.6-.5.9s-.2.5-.3.6c-.2.5-.4 1.1-.5 1.8l-.3 2.1c0 .3-.1.6-.2.8-.1.3-.2.5-.5.6-.2.1-.6.3-1.1.3-.5.1-1.2.1-2 0-.7 0-1.3-.2-1.6-.5-.4-.3-.6-.6-.8-1-.1-.4-.2-.8-.2-1.2v-1.1-.6c0-.2.1-.3.1-.5.2-1.5.4-2.7.8-3.7.3-.9.7-1.7 1-2.2.3-.5.6-.9.8-1.2.2-.3.5-.5.7-.7.7-.6 1.4-1.2 2-1.7.6-.5 1.4-.8 2.2-1 1.1-.2 2.2-.3 3.3-.2 1.1.1 2.1.5 3.1 1.1.2.1.4.3.7.4.2.1.5.3.7.4.7.4 1.3.9 1.7 1.4.4.6.8 1.2 1.1 2 .5 1.2.9 2.4 1.1 3.7.6 1.3.8 2.6.9 3.9z"/>
  <path class="st2" d="M165.8 88.8c.5.1.9.2 1 .3.1.1.2.4.2.7v.9c0 .4 0 .9-.1 1.4 0 .5-.1.9-.1 1.4 0 .4-.1.7-.1.9 0 .2-.1.4-.2.6-.3.5-.8.8-1.7.8-.8 0-1.6 0-2.4.1H160c-1 0-2 0-3 .1-1 0-2 0-3-.1-.3 0-.7-.1-1.1-.1s-.7 0-1.1-.1h-1.6c-.2 0-.3 0-.4-.1-.5-.1-.8-.5-.8-1 .1-.9.1-1.7.1-2.5s0-1.7.1-2.5c0-1 .1-1.9.1-2.8 0-.9 0-1.8.1-2.7 0-.3 0-.6-.1-.8-.1-.9-.1-1.8-.1-2.7 0-.9.1-1.8.1-2.7 0-.6.1-1.3.1-1.9 0-.6.1-1.3.1-1.9 0-1.2.1-2.5 0-3.8 0-1.3-.1-2.5-.2-3.8-.1-1.2-.1-2.3-.1-3.5 0-1.2.1-2.3.2-3.5 0-.6.1-1.3 0-2v-2c0-.2.1-.5.1-.9 0-.3.3-.6.8-.7 1.8-.3 3.7-.3 5.5.1.4 0 .6.3.7.7.1 1.2.2 2.5.3 3.7.1 1.2.1 2.4 0 3.7 0 1 0 2.1.1 3.3.1.7.1 1.5.2 2.2 0 .8.1 1.5.2 2.2.1.7.1 1.3.1 1.9 0 .6 0 1.3-.1 2.1-.1.5-.1 1-.1 1.5v2.8c0 .4 0 .9-.1 1.5-.1.3-.1.7-.1 1.1 0 .7.1 1.4 0 2.1 0 .7 0 1.3.1 2 .1 1 .1 2 0 3v.9c.6 0 1.2.1 1.9.1.6 0 1.3 0 1.9.1h1c.3 0 .7 0 1-.1 1.1-.1 1.9-.1 2.9 0z"/>
  <path class="st2" d="M170.4 68.7v-2.3-3.1-3.1c0-1 .1-1.6.2-2 0-.2.1-.5.1-1.1v-2-2.2-1.6c0-.1.1-.3.1-.4v-.4c.1-.4.4-.6.9-.6h1c.7 0 1.5.1 2.4.1.9 0 1.8.1 2.8.1 1 0 1.8.1 2.5.1h5.2c.9 0 1.6.1 2.2.1.6 0 1 .1 1.1.1.8 0 1.2.4 1.2 1.1.1.8.1 1.5.2 2.3V56c0 .5-.1.9 0 1.4 0 .4.1.9.1 1.4.1 1.1.2 2.1.2 3.2.1 1 0 2.1 0 3.2 0 1 0 2-.1 2.9 0 1 0 1.9.1 2.9.1 1.2.1 2.5 0 3.7-.1 1.2-.1 2.5-.2 3.7V80c0 .5 0 1.1-.1 1.6 0 1-.1 1.9-.2 2.9-.1.9-.2 1.9-.4 2.9-.2.9-.3 1.7-.5 2.6-.2.9-.3 1.8-.6 2.7-.3 1.6-1.1 3.1-2.3 4.5-.6.7-1.3 1.3-2.2 1.7s-1.7.7-2.7.8c-1 .1-2 0-3-.2-1-.3-1.9-.7-2.8-1.4-.8-.5-1.4-1.2-1.9-1.9-.9-1.2-1.5-2.4-1.9-3.7-.4-1.3-.7-2.6-.9-4-.1-.8-.1-1.6-.2-2.4 0-.8-.1-1.6-.1-2.4-.1-.8-.1-2-.2-3.5 0-1.5-.1-3.1-.1-4.6v-4.3c.1-1.3.1-2.1.1-2.6z"/>
  <path class="st2" d="M194.9 79.1v-2.9-3.8-3.5c0-1 0-1.6.1-1.8 0-.2.1-.8.1-1.8s.1-2 .1-3.2c0-1.1.1-2.2.1-3.1 0-.9.1-1.5.1-1.7 0-.4.1-.8.1-1.2 0-.4.1-.8.1-1.2 0-.1.1-.2.1-.4 0-.1 0-.2.1-.4s.3-.3.6-.4h.9c.4 0 .8.1 1.3.1.5.1 1 .1 1.4.3.5.1.9.2 1.2.4.2.1.6.3 1.3.5.6.3 1.5.7 2.6 1.3 1.2.7 2.1 1.4 2.7 2.2.7.7 1.3 1.5 1.8 2.2.7.9 1.3 1.7 1.7 2.5.4.7.8 1.7 1.2 2.9.1.5.3 1.1.4 2 .1.8.3 1.7.3 2.6.1.9.2 1.7.3 2.4.1.7.1 1.2.1 1.5.1 1 .1 2-.1 3-.1 1-.3 2-.5 3-.1.5-.2 1-.3 1.6-.1.5-.3 1-.5 1.5-.2.6-.5 1.4-.9 2.1-.4.8-.8 1.6-1.3 2.5-.4.6-.8 1.1-1.1 1.4-.3.4-.6.7-.9 1l-.9.9c-.3.3-.7.6-1.1 1-.9.6-1.9 1.2-3.1 1.8-1.2.7-2.3 1.1-3.5 1.3-1 .1-1.9.1-2.6.2-.7 0-1.1 0-1-.3-.2-.1-.3-.4-.4-.8-.1-.4-.1-.8-.2-1.2v-1.2-.6c0-1.1-.1-2.3-.1-3.6v-3.9c0-1.2.1-2.4.1-3.3-.3-.8-.3-1.5-.3-1.9z"/>
  <path class="st2" d="M37.8 239.7v.6c0 .3 0 .5.1.8 0 .3 0 .6.1.8v.5c0 .2-.1.3-.2.4-.1.1-.4.2-.9.2-.8.1-1.6.2-2.3.1H33v2.7c-.1.4-.1.9-.1 1.3v2c.1.4.1.8.1 1V251.8c0 .3 0 .6.1.9v1.3c0 .3 0 .8-.1 1.2-.1.5-.1.9-.1 1.4 0 .5-.1 1-.1 1.4-.1.4-.1.7-.1 1v3.3c0 .8-.1 1.5-.2 2.3 0 .3-.2.5-.4.5-1.1.2-2.3.3-3.5 0-.3 0-.4-.2-.5-.4v-.7-1.2-1.2c-.1-.7-.1-1.5-.1-2.2 0-.7 0-1.5.1-2.2.1-.8.1-1.6.1-2.4v-2.4-1.2c0-.4-.1-.8-.1-1.2 0-.6 0-1.1-.1-1.7 0-.6 0-1.1.1-1.7v-.5c-.1-.5-.1-1-.1-1.5V243h-2.6c-.6 0-1 0-1.2-.1-.2 0-.4-.2-.6-.4-.1-.1-.2-.2-.3-.4-.4-.9-.5-1.7-.4-2.6.1-.2.2-.4.3-.5.2-.1.5-.2.9-.3.4-.1.8-.1 1.2-.1.4 0 .8 0 1.2-.1.9-.1 1.8-.1 2.7-.1H36.2c.7 0 1.2.2 1.5.5 0 .6.1.7.1.8z"/>
  <path class="st2" d="M39.8 248.2v-1.4-2-1.9c0-.6.1-1 .1-1.3v-.7-1.2-1.4-1-.3-.3c.1-.3.3-.4.6-.4h.6c.4 0 .9 0 1.5.1.6 0 1.2.1 1.8.1h4.9c.5 0 1 0 1.4.1h.7c.5 0 .7.3.8.7.1.5.1 1 .1 1.4v2.3c0 .3 0 .5.1.9.1.7.1 1.3.1 2v5.6c.1.8.1 1.6 0 2.4s-.1 1.6-.1 2.4v2c0 .6 0 1.2-.1 1.8l-.3 1.8c-.1.5-.2 1.1-.3 1.7-.1.6-.2 1.1-.3 1.7-.2 1-.7 2-1.4 2.8-.4.4-.8.8-1.4 1.1-.5.3-1.1.4-1.7.5-.6.1-1.2 0-1.9-.1-.6-.2-1.2-.4-1.8-.9-.5-.3-.9-.7-1.2-1.2-.5-.7-1-1.5-1.2-2.3-.3-.8-.5-1.7-.6-2.5-.1-.5-.1-1-.1-1.5s0-1-.1-1.5-.1-1.3-.1-2.2c0-1 0-1.9-.1-2.9v-2.7-1.7z"/>
  <path class="st2" d="M63.5 245.6c-.4-.1-.5-.4-.5-.7 0-.3.1-.6.1-.7v-.8-.8c0-.3-.1-.5-.1-.5-.1-.2-.2-.4-.3-.5-.1-.2-.3-.3-.5-.5s-.6-.3-1.1-.2c-.5.1-.9.3-1.2.6-.1.1-.2.3-.3.6-.1.2-.1.5-.1.8v.8c0 .3 0 .5.1.6.2 1 .5 1.9 1.1 2.7.3.4.5.8.8 1.2.3.4.6.8.8 1.2.4.5.7 1 1 1.5.4.5.7.9.9 1.2.2.3.5.6.8 1 .8 1.1 1.5 2.2 2 3.4.5 1.2.8 2.5.9 3.8v1.9c-.1 1.6-.8 2.9-2.1 4-.1.1-.2.2-.3.2l-.3.3c-.4.3-.8.5-1.3.7-.4.2-.9.2-1.4.2h-1.6c-.5 0-1-.1-1.5-.3-.4-.1-.7-.2-1-.4-.3-.2-.6-.4-.9-.7l-.8-.8c-.3-.2-.5-.5-.7-.9-.1-.1-.1-.2-.2-.3-.1-.1-.1-.2-.2-.3-.2-.5-.4-1.1-.5-1.6-.1-.5-.2-1.1-.2-1.8v-1c0-.4 0-.7.1-1 0-.3.1-.6.1-.9 0-.2.1-.4.1-.5.2-.4.5-.6 1-.6h.4c.7.2 1.5.4 2.2.6.3.1.4.2.5.3.1.1.1.3.1.6-.1.4-.1.7-.1 1.1v1.2c.1.5.1 1 .2 1.4.1.4.2.7.5 1 .3.2.7.4 1.2.5.5.1.9 0 1.4-.3.3-.2.5-.5.7-.9.2-.4.3-.8.3-1.2 0-.5 0-.9-.2-1.4-.1-.5-.3-.9-.5-1.3-.2-.5-.5-.9-.8-1.3-.3-.4-.6-.9-.9-1.3-.3-.4-.5-.8-.8-1.2-.3-.4-.5-.8-.7-1.2-.2-.3-.4-.6-.5-.9l-.6-.9c-.4-.5-.7-1-.9-1.4-.2-.4-.5-.8-.7-1.3-.1-.1-.1-.3-.2-.4-.1-.1-.1-.2-.2-.4-.5-.8-.9-1.6-1.1-2.4-.2-.8-.3-1.7-.4-2.6-.1-1.1 0-2.1.3-3 .2-.7.6-1.3 1.2-1.8.8-.6 1.8-1.1 3-1.2.9-.1 1.8-.1 2.6 0 .9.1 1.7.4 2.4.8.4.3.8.6 1.1 1 .3.4.6.8.8 1.3.1.3.2.7.3 1 .1.3.1.7.2 1.1v2.5c0 1-.5 1.4-1.5 1.4h-1.8c0-.3-.1-.3-.2-.3z"/>
  <path class="st2" d="M77.6 254.7v-1.8-2.4-2.2-1.1c0-.1.1-.5.1-1.1 0-.6 0-1.3.1-2 0-.7 0-1.4.1-2V241c0-.2 0-.5.1-.8 0-.3 0-.5.1-.8v-.2-.2c.1-.1.2-.2.4-.2h.5c.3 0 .5 0 .8.1.3 0 .6.1.9.2.3.1.6.1.8.2.1.1.4.2.8.3.4.2.9.4 1.6.8.7.4 1.3.9 1.7 1.4.4.5.8.9 1.1 1.4.5.6.8 1.1 1.1 1.5.2.5.5 1.1.7 1.8.1.3.2.7.3 1.3.1.5.2 1.1.2 1.6.1.6.1 1.1.2 1.5.1.5.1.8.1.9.1.6 0 1.2 0 1.9-.1.6-.2 1.2-.3 1.9-.1.3-.1.7-.2 1-.1.3-.2.6-.3 1-.1.4-.3.9-.6 1.3-.2.5-.5 1-.8 1.5-.3.4-.5.7-.7.9l-.6.6c-.2.2-.4.4-.6.5-.2.2-.4.4-.7.6-.6.4-1.2.7-2 1.2-.7.4-1.5.7-2.2.8-.6.1-1.2.1-1.7.1s-.7 0-.7-.2c-.1-.1-.2-.2-.2-.5s-.1-.5-.1-.8v-.7-.4c0-.7 0-1.4-.1-2.3v-2.4c0-.8 0-1.5.1-2.1v-1z"/>
  <path class="st2" d="M102.6 261.9V264.4c-.1.3-.3.4-.6.5-.5.1-.9.2-1.4.3-.5.1-1 .1-1.4.1H92.7c-.2 0-.4 0-.6-.1-.2 0-.4-.1-.4-.4v-.5-1.6-10-.4-.3c0-.2 0-.4.1-.5v-1.6-.7-1.3-1.3c-.1-.5-.1-1-.2-1.5s-.1-1-.1-1.5V242c0-.2 0-.4-.1-.6v-.7-.3c0-.1 0-.2-.1-.4v-.1c0-.3.1-.4.4-.5.2-.3.9-.5 1.9-.5h1.6c.7-.1 1.4-.1 2.1-.1.7 0 1.4 0 2.1.1h1.2c.8.1 1.4.1 1.6.3.2.1.4.4.5.8v1.9c0 .3 0 .5-.1.7-.1.3-.3.5-.6.5l-1.5.3c-.5.1-1 .1-1.5.1h-3.1v2.2c0 .5 0 .9.1 1.4.1.5.1 1 .1 1.5s0 1-.1 1.5v3.1h4.9c.5.1.8.3 1 .6v.5c-.1.5-.1.9-.1 1.4 0 .4-.1.9-.1 1.4-.1.4-.5.6-1.2.6-.8-.1-1.5-.1-2.3-.1h-2.4V260c0 .2 0 .4-.1.5s0 .4 0 .6v.3c.6-.1 1.3-.1 1.9-.1.6 0 1.3 0 1.9.1h1.1c.8.1 1.3.2 1.5.3.2-.4.4-.2.5.2z"/>
  <path class="st2" d="M115.6 237c.1.2.3.5.5.9s.2.9.1 1.6c-.1.2-.1.3-.2.4-.1.1-.1.2-.2.3-.1.1-.2.2-.4.3-.2.1-.4.2-.6.4-.2.1-.4.2-.4.3-.1.1-.2.1-.3.2l-.2.2c-.1.1-.2.1-.4.3-.8.5-1.5 1.2-2 2.1s-1.1 1.9-1.6 3.1c-.1.3-.2.5-.3.8-.1.3-.2.5-.3.8-.5 1.9-.6 3.6-.4 5.2v.8c0 .2.1.5.2.9s.2.8.4 1.2c.1.4.2.8.4 1.1.1.3.2.6.3.7.4.9.8 1.6 1.2 2.1.4.6 1 1.1 1.8 1.5.5.3.9.6 1.2.7l.9.3h.2c.3.1.5.2.6.3.1.1.1.3.1.6 0 .4 0 .8-.1 1.2-.1.4-.2.8-.4 1.3-.3.8-.9 1.2-1.7 1.2h-.5c-1.4-.3-2.9-1.3-4.5-2.9-1.4-1.4-2.5-2.8-3.1-4.2-.6-1.5-1-2.7-1.2-3.9-.1-.6-.2-1.2-.2-1.8 0-.5-.1-1-.1-1.4v-.3-1.3c0-.4.1-.8.1-1.2v-.4-.4c0-.9.2-1.8.4-2.9.2-.7.3-1.3.5-1.8l.6-1.5c1-2 2-3.4 3-4.3l.5-.5c.4-.3.7-.6 1-.9s.6-.4.9-.6c.3-.2.6-.3.9-.5.3-.1.7-.3 1.1-.4.7-.2 1.2-.3 1.5-.2.3.1.5.3.6.5 0-.1 0 0 .1.1-.1-.1-.1 0 0 0z"/>
  <path class="st2" d="M123.4 236.4c.4.2.6.6.8 1.1.2.5.2 1.1.1 1.6-.1.4-.2.8-.3 1-.2.2-.5.5-.9.7-.1.1-.3.1-.6.2-.3 0-.5.1-.7.1-.5 0-1.1-.2-1.6-.6-.5-.4-.8-.8-.9-1.4-.1-1 .2-1.8.9-2.4.9-.7 1.9-.9 2.9-.5.2.1.3.2.3.2zm.7 28.8c0 .2.1.3.1.5s.1.3.1.5c.1.2.1.5 0 .8-.1.3-.3.5-.6.5-1.2.2-2.3.1-3.5 0-.3 0-.5-.2-.5-.6-.1-.3-.1-.6-.1-1v-1.1c.1-.9.1-1.8.1-2.8 0-.9.1-1.8.1-2.8v-1.3c0-.4 0-.8.1-1.2V255v-1.7-1.5-2.3-2.3-1.6-.9-.9-.5c0-.2 0-.3.1-.5 0-.2.2-.4.5-.5H122.2c.4 0 .8 0 1.3.1.3.1.5.1.6.3.1.1.1.3.1.5V257.5c0 .4 0 .7-.1 1v5c-.1.6-.1 1.1 0 1.7z"/>
  <path class="st2" d="M135.9 245.6c-.4-.1-.5-.4-.5-.7 0-.3.1-.6.1-.7v-.8-.8c0-.3-.1-.5-.1-.5-.1-.2-.2-.4-.3-.5-.1-.2-.3-.3-.5-.5s-.6-.3-1.1-.2c-.5.1-.9.3-1.2.6-.1.1-.2.3-.3.6-.1.2-.1.5-.1.8v.8c0 .3 0 .5.1.6.2 1 .5 1.9 1.1 2.7.3.4.5.8.8 1.2.3.4.6.8.8 1.2.4.5.7 1 1 1.5.4.5.7.9.9 1.2.2.3.5.6.8 1 .8 1.1 1.5 2.2 2 3.4.5 1.2.8 2.5.9 3.8v1.9c-.1 1.6-.8 2.9-2.1 4-.1.1-.2.2-.3.2l-.3.3c-.4.3-.8.5-1.3.7-.4.2-.9.2-1.4.2h-1.6c-.5 0-1-.1-1.5-.3-.4-.1-.7-.2-1-.4-.3-.2-.6-.4-.9-.7l-.8-.8c-.3-.2-.5-.5-.7-.9-.1-.1-.1-.2-.2-.3-.1-.1-.1-.2-.2-.3-.2-.5-.4-1.1-.5-1.6-.1-.5-.2-1.1-.2-1.8v-1c0-.4 0-.7.1-1 0-.3.1-.6.1-.9 0-.2.1-.4.1-.5.2-.4.5-.6 1-.6h.4c.7.2 1.5.4 2.2.6.3.1.4.2.5.3.1.1.1.3.1.6-.1.4-.1.7-.1 1.1v1.2c.1.5.1 1 .2 1.4.1.4.2.7.5 1 .3.2.7.4 1.2.5.5.1.9 0 1.4-.3.3-.2.5-.5.7-.9.2-.4.3-.8.3-1.2 0-.5 0-.9-.2-1.4-.1-.5-.3-.9-.5-1.3-.2-.5-.5-.9-.8-1.3-.3-.4-.6-.9-.9-1.3-.3-.4-.5-.8-.8-1.2-.3-.4-.5-.8-.7-1.2-.2-.3-.4-.6-.5-.9l-.6-.9c-.4-.5-.7-1-.9-1.4-.2-.4-.5-.8-.7-1.3-.1-.1-.1-.3-.2-.4-.1-.1-.1-.2-.2-.4-.5-.8-.9-1.6-1.1-2.4-.2-.8-.3-1.7-.4-2.6-.1-1.1 0-2.1.3-3 .2-.7.6-1.3 1.2-1.8.8-.6 1.8-1.1 3-1.2.9-.1 1.8-.1 2.6 0 .9.1 1.7.4 2.4.8.4.3.8.6 1.1 1 .3.4.6.8.8 1.3.1.3.2.7.3 1 .1.3.1.7.2 1.1v2.5c0 1-.5 1.4-1.5 1.4h-1.8c0-.3-.2-.3-.2-.3z"/>
  <path class="st2" d="M147.2 236.4c.4.2.6.6.8 1.1.2.5.2 1.1.1 1.6-.1.4-.2.8-.3 1-.2.2-.5.5-.9.7-.1.1-.3.1-.6.2-.3 0-.5.1-.7.1-.5 0-1.1-.2-1.6-.6-.5-.4-.8-.8-.9-1.4-.1-1 .2-1.8.9-2.4.9-.7 1.9-.9 2.9-.5.1.1.2.2.3.2zm.6 28.8c0 .2.1.3.1.5s.1.3.1.5c.1.2.1.5 0 .8-.1.3-.3.5-.6.5-1.2.2-2.3.1-3.5 0-.3 0-.5-.2-.5-.6-.1-.3-.1-.6-.1-1v-1.1c.1-.9.1-1.8.1-2.8 0-.9.1-1.8.1-2.8v-1.3c0-.4 0-.8.1-1.2V255v-1.7-1.5-2.3-2.3-1.6-.9-.9-.5c0-.2 0-.3.1-.5 0-.2.2-.4.5-.5H145.9c.4 0 .8 0 1.3.1.3.1.5.1.6.3.1.1.1.3.1.5V257.5c0 .4 0 .7-.1 1v6.7z"/>
  <path class="st2" d="M160.4 243.5V256.8c0 .5 0 1-.1 1.6v2.5c0 .2 0 .4-.1.6 0 .2 0 .4-.1.6 0 .1 0 .2-.1.3-.1.1-.2.2-.3.2h-.4c-.2 0-.4 0-.7-.1-.2 0-.5-.1-.7-.1-.3 0-.5-.1-.6-.2-.1-.1-.3-.1-.6-.3-.3-.1-.8-.3-1.3-.6-.6-.4-1.1-.7-1.4-1.1-.3-.4-.6-.8-.9-1.1-.4-.5-.7-.9-.9-1.2-.2-.4-.4-.8-.6-1.5-.1-.2-.1-.6-.2-1s-.1-.9-.2-1.3-.1-.9-.1-1.2c0-.4-.1-.6-.1-.8-.1-.5 0-1 0-1.5l.3-1.5c.1-.2.1-.5.2-.7.1-.3.1-.5.2-.8.1-.3.3-.7.5-1.1.2-.4.4-.8.7-1.2.2-.3.4-.5.5-.7.2-.2.3-.4.5-.5.2-.2.3-.3.5-.4.2-.1.4-.3.6-.5.5-.3 1-.6 1.6-1 .6-.3 1.2-.6 1.8-.7.5 0 1-.1 1.4-.1.4 0 .5 0 .5.2.1.1.1.2.2.4 0 .2.1.4.1.6v.6c-.2.2-.2.3-.2.3zm10.7 8.5c0 .5 0 1-.1 1.5l-.3 1.5c-.1.3-.1.5-.2.8-.1.2-.1.5-.2.8-.1.3-.3.7-.5 1.1-.2.4-.4.8-.7 1.2-.2.3-.4.6-.6.8-.2.2-.3.4-.5.5l-.4.4c-.2.1-.4.3-.6.5-.5.3-1 .6-1.6 1-.6.3-1.2.6-1.8.7-.5.1-1 .1-1.4.1-.4 0-.5 0-.5-.1-.1-.1-.1-.2-.2-.4 0-.2-.1-.4-.1-.6v-.6-.3-1.8-2-1.7-1-1.5-2-1.8-.9-.9c0-.5 0-1 .1-1.6 0-.6 0-1.1.1-1.6v-.9c0-.2 0-.4.1-.6 0-.2 0-.4.1-.6v-.3c.1-.1.1-.2.3-.2.2 0 .6 0 1.1.1.6.1 1 .2 1.4.3.1.1.3.1.7.3.3.1.8.3 1.3.6.6.4 1.1.7 1.4 1.1.3.4.6.8.9 1.1.4.5.7.9.9 1.2.2.4.4.8.6 1.4.1.2.2.6.2 1 .1.4.1.9.2 1.3.1.5.1.9.1 1.3.2.4.2.7.2.8z"/>
  <path class="st2" d="M177.9 250c-.1-.1-.2 0-.2.3v1c0 .4 0 .8.1 1.3v1.2c.1.5.1 1.1.1 1.6V265.6c0 .3 0 .5-.1.8-.1.3-.1.5-.2.7-.1.3-.3.4-.7.5-.6.1-1.2.1-1.7 0-.5 0-1-.1-1.5-.2-.1-.1-.2-.1-.3-.1-.1 0-.2-.1-.3-.1-.2-.1-.3-.3-.3-.5v-.6-1.2-1.1-.6-1.4c0-.7.1-1.5.1-2.5v-2.9-2.7c0-.3-.1-.9-.1-1.7 0-.8-.1-1.6-.1-2.5 0-.9 0-1.7-.1-2.4s0-1.2 0-1.5v-2.1c0-.5 0-.9-.1-1.4V238.4v-.7c0-.3.1-.5.1-.7 0-.2.2-.4.4-.5.2-.1.4-.1.6-.2.2-.1.4-.1.6-.1h2.6c.1 0 .3 0 .6.1.2.1.3.2.5.6.1.3.2.7.3 1.1.1.4.2.9.3 1.3.1.4.2.8.2 1.1.2.6.4 1.2.5 1.9.2.6.3 1.2.5 1.9 0 .2.1.5.2.9.1.5.3 1 .4 1.6.2.6.3 1.3.5 2s.3 1.4.5 2c.2.6.3 1.2.4 1.7.1.5.2.9.3 1.1.1.2.1.4.2.6.1.2.1.4.2.7.1.1.1 0 .2-.2 0-.2.1-.5.1-.9v-1.4c0-.5 0-1-.1-1.5v-1.2c0-.4 0-1.1.1-1.9v-.8-1.1-1.1-.8c0-.5-.1-1-.1-1.4 0-.4-.1-.9-.1-1.5v-1.6-1.4-.3-.3c0-.2.1-.3.2-.5s.4-.3.8-.3c.1 0 .3-.1.5-.1s.5-.1.7-.1h1.5c.4 0 .7.2.9.4.2.2.3.5.2.8-.1.6-.1 1.2-.1 1.9 0 .6-.1 1.2-.1 1.9v10.5c0 .6 0 1.2-.1 1.8 0 .6-.1 1.2-.1 1.8V266.6c0 .4-.1.6-.1.7-.1.2-.2.4-.4.4-.2.1-.5.1-.7.2H183.9c-.2 0-.4 0-.5-.1-.2 0-.4-.1-.7-.1-.3-.1-.5-.1-.7-.3-.4-.2-.7-.5-.7-.9-.1-.8-.2-1.5-.4-2.2-.2-.7-.3-1.4-.4-2.2-.2-1.4-.5-2.7-.9-4.1-.4-1.3-.7-2.7-1-4.1-.1-.6-.3-1.2-.5-1.7.2-1 0-1.6-.2-2.2z"/>
  <path class="st2" d="M201.3 261.9V264.4c-.1.3-.3.4-.6.5-.5.1-.9.2-1.4.3-.5.1-1 .1-1.4.1H191.2c-.2 0-.4 0-.6-.1-.2 0-.4-.1-.4-.4v-.5-1.6-10-.4-.3c0-.2 0-.4.1-.5v-1.6-.7-1.3-1.3c-.1-.5-.1-1-.2-1.5s-.1-1-.1-1.5V242v-.6c0-.2 0-.4-.1-.7v-.3c0-.1 0-.2-.1-.4v-.1c0-.3.1-.4.4-.5.2-.3.9-.5 1.9-.5h1.6c.7-.1 1.4-.1 2.1-.1.7 0 1.4 0 2.1.1h1.2c.8.1 1.4.1 1.6.3.2.1.4.4.5.8v1.9c0 .3 0 .5-.1.7-.1.3-.3.5-.6.5l-1.5.3c-.5.1-1 .1-1.5.1h-3.1v2.2c0 .5 0 .9.1 1.4.1.5.1 1 .1 1.5s0 1-.1 1.5v3.1H199.6c.5.1.8.3 1 .6v.5c-.1.5-.1.9-.1 1.4 0 .4-.1.9-.1 1.4-.1.4-.5.6-1.2.6-.8-.1-1.5-.1-2.3-.1h-2.4V260c0 .2 0 .4-.1.5V261.4c.6-.1 1.3-.1 1.9-.1.6 0 1.3 0 1.9.1h1.1c.8.1 1.3.2 1.5.3.2-.4.4-.2.5.2z"/>
  <path class="st2" d="M211.9 245.6c-.4-.1-.5-.4-.5-.7 0-.3.1-.6.1-.7v-.8-.8c0-.3-.1-.5-.1-.5-.1-.2-.2-.4-.3-.5-.1-.2-.3-.3-.5-.5s-.6-.3-1.1-.2c-.5.1-.9.3-1.2.6-.1.1-.2.3-.3.6-.1.2-.1.5-.1.8v.8c0 .3 0 .5.1.6.2 1 .5 1.9 1.1 2.7.3.4.5.8.8 1.2.3.4.6.8.8 1.2.4.5.7 1 1 1.5.4.5.7.9.9 1.2.2.3.5.6.8 1 .8 1.1 1.5 2.2 2 3.4.5 1.2.8 2.5.9 3.8v1.9c-.1 1.6-.8 2.9-2.1 4-.1.1-.2.2-.3.2l-.3.3c-.4.3-.8.5-1.3.7-.4.2-.9.2-1.4.2h-1.6c-.5 0-1-.1-1.5-.3-.4-.1-.7-.2-1-.4-.3-.2-.6-.4-.9-.7l-.8-.8c-.3-.2-.5-.5-.7-.9-.1-.1-.1-.2-.2-.3-.1-.1-.1-.2-.2-.3-.2-.5-.4-1.1-.5-1.6-.1-.5-.2-1.1-.2-1.8v-1c0-.4 0-.7.1-1 0-.3.1-.6.1-.9 0-.2.1-.4.1-.5.2-.4.5-.6 1-.6h.4c.7.2 1.5.4 2.2.6.3.1.4.2.5.3.1.1.1.3.1.6-.1.4-.1.7-.1 1.1 0 .4-.1.8-.1 1.2.1.5.1 1 .2 1.4.1.4.2.7.5 1 .3.2.7.4 1.2.5.5.1.9 0 1.4-.3.3-.2.5-.5.7-.9.2-.4.3-.8.3-1.2 0-.5 0-.9-.2-1.4-.1-.5-.3-.9-.5-1.3-.2-.5-.5-.9-.8-1.3-.3-.4-.6-.9-.9-1.3-.3-.4-.5-.8-.8-1.2s-.5-.8-.7-1.2c-.2-.3-.4-.6-.5-.9l-.6-.9c-.4-.5-.7-1-.9-1.4-.2-.4-.5-.8-.7-1.3-.1-.1-.1-.3-.2-.4-.1-.1-.1-.2-.2-.4-.5-.8-.9-1.6-1.1-2.4-.2-.8-.3-1.7-.4-2.6-.1-1.1 0-2.1.3-3 .2-.7.6-1.3 1.2-1.8.8-.6 1.8-1.1 3-1.2.9-.1 1.8-.1 2.6 0 .9.1 1.7.4 2.4.8.4.3.8.6 1.1 1 .3.4.6.8.8 1.3.1.3.2.7.3 1 .1.3.1.7.2 1.1v2.5c0 1-.5 1.4-1.5 1.4H212c.1-.3-.1-.3-.1-.3z"/>
  <path class="st1" d="M6.2 2l5.7 42 115.8-.1 77.7-.8 27.4 2.4 2.1-44.1L170 .5 68.3 0C47.4-.1 27.5.1 6.2 2"/>
  <path class="st2" d="M33.4 6.6v.7c0 .3.1.6.1.9 0 .3 0 .6.1.9v.6c0 .2-.1.4-.2.5-.2.1-.5.2-1 .2-.9.2-1.8.2-2.7.1h-1.8v3c-.1.5-.1 1-.1 1.5v2.3c.1.5.1.9.1 1.1v2c0 .4 0 .7.1 1.1V23c0 .4 0 .9-.1 1.3-.1.5-.1 1.1-.1 1.6 0 .6-.1 1.1-.1 1.6-.1.4-.1.8-.1 1.2v3.8c0 .9-.1 1.8-.2 2.6 0 .4-.2.5-.5.5-1.3.3-2.6.3-4 0-.3 0-.5-.2-.5-.5v-.8-1.4-1.4c-.1-.8-.1-1.7-.1-2.5s0-1.7.1-2.5c.1-.9.1-1.8.1-2.7v-2.7-1.4c0-.5-.1-.9-.1-1.3 0-.7-.1-1.3-.1-2s0-1.3.1-1.9v-.6c-.1-.6-.1-1.1-.1-1.7v-1.8h-3c-.7 0-1.1 0-1.4-.1-.2 0-.5-.2-.7-.4-.1-.1-.2-.2-.3-.4-.4-1-.6-2-.5-3 .1-.2.2-.4.4-.5.2-.1.5-.2 1.1-.4.4-.1.9-.1 1.3-.1s.9 0 1.3-.1c1-.1 2.1-.1 3.1-.1h8c.8 0 1.4.2 1.7.5 0 .6.1.7.1.8z"/>
  <path class="st2" d="M35.7 16.4v-1.7-2.3-2.2c0-.7.1-1.2.1-1.5v-.8-1.4-1.6-1.2-.3-.3c.1-.3.3-.5.6-.5h.7c.5 0 1.1 0 1.7.1.7 0 1.3.1 2.1.1h5.6c.6 0 1.2 0 1.6.1h.8c.6 0 .9.3.9.8.1.6.1 1.1.1 1.7V8c0 .3 0 .6.1 1 .1.8.1 1.5.1 2.3v6.5c.1.9.1 1.8 0 2.7 0 .9-.1 1.8-.1 2.7v2.4c0 .7 0 1.4-.1 2.1l-.3 2.1c-.1.6-.2 1.3-.4 1.9s-.2 1.3-.4 2c-.2 1.2-.8 2.3-1.6 3.3-.4.5-1 .9-1.6 1.2s-1.3.5-2 .6-1.4 0-2.2-.2c-.7-.2-1.4-.5-2-1-.6-.4-1-.8-1.4-1.4-.6-.8-1.1-1.7-1.4-2.7-.3-.9-.5-1.9-.7-2.9-.1-.6-.1-1.1-.1-1.7 0-.6 0-1.2-.1-1.7-.1-.6-.1-1.4-.1-2.5s-.1-2.2-.1-3.4v-3.1c.2-.9.2-1.5.2-1.8z"/>
  <path class="st2" d="M71.7 13.3c-.4-.1-.6-.4-.5-.8 0-.4.1-.7.1-.8v-.9-1c0-.3-.1-.5-.1-.6l-.3-.6c-.1-.2-.3-.4-.6-.6-.3-.2-.7-.3-1.2-.3-.5.1-1 .3-1.3.7-.2.2-.3.4-.3.7-.1.3-.1.6-.1.9v.9c0 .3 0 .5.1.7.2 1.2.6 2.2 1.2 3.1.3.4.6.9.9 1.3.3.4.7.9 1 1.4.4.6.8 1.2 1.1 1.7.4.6.8 1.1 1 1.4.2.3.5.7.9 1.2 1 1.3 1.7 2.6 2.3 3.9s.9 2.8 1 4.4v2.2c-.1 1.8-.9 3.3-2.4 4.6l-.3.3-.3.3c-.5.4-1 .6-1.5.8-.5.2-1 .3-1.6.3H69c-.6 0-1.2-.1-1.7-.3-.4-.1-.8-.3-1.1-.5-.3-.2-.7-.5-1.1-.8l-.9-.9c-.3-.3-.6-.6-.8-1-.1-.1-.1-.2-.2-.3-.1-.1-.1-.2-.2-.4-.2-.6-.4-1.3-.6-1.9-.2-.6-.2-1.3-.2-2v-1.1c0-.4 0-.8.1-1.2 0-.4.1-.7.1-1 .1-.3.1-.4.1-.5.2-.5.6-.7 1.1-.7h.5c.8.2 1.7.4 2.6.7.3.1.5.2.6.4.1.1.1.4.1.7-.1.4-.1.8-.1 1.3 0 .4-.1.9-.1 1.4.1.6.1 1.1.2 1.6.1.4.3.8.6 1.1.4.2.8.4 1.3.5.5.1 1.1 0 1.6-.4.4-.2.6-.6.8-1.1.2-.5.3-.9.3-1.3 0-.5 0-1.1-.2-1.7-.2-.6-.4-1.1-.6-1.5l-.9-1.5c-.3-.5-.6-1-1-1.5-.3-.4-.6-.9-.9-1.4s-.6-.9-.8-1.4c-.2-.4-.4-.7-.6-1-.2-.3-.4-.7-.7-1-.7-.8-1-1.4-1.3-1.8-.3-.4-.5-.9-.8-1.5-.1-.2-.1-.3-.2-.4-.1-.1-.2-.3-.3-.4-.6-.9-1-1.8-1.2-2.8-.2-1-.4-1.9-.5-2.9-.1-1.3 0-2.4.3-3.5.2-.8.7-1.5 1.3-2.1 1-.7 2.1-1.2 3.4-1.4 1-.2 2-.2 3 0 1 .1 2 .5 2.8.9.5.4.9.7 1.3 1.1.6.5.9 1 1.1 1.6.2.4.3.8.3 1.2s.2.8.2 1.2v3c0 1.1-.6 1.6-1.7 1.6h-2.1c0-.2-.2-.2-.2-.3z"/>
  <path class="st2" d="M92 32.2v3c-.1.3-.4.5-.7.5-.5.1-1.1.2-1.6.3-.6.1-1.1.1-1.6.1H80.6c-.2 0-.4 0-.6-.1-.3 0-.4-.2-.5-.4V35v-1.8-11.5-.4-.4c0-.2.1-.4.1-.6v-1.9-.8-1.5-1.5c-.1-.6-.1-1.1-.2-1.7-.1-.6-.1-1.1-.1-1.7v-2c0-.2 0-.5-.1-.7 0-.3 0-.5-.1-.8v-.4c0-.1 0-.2-.1-.4v-.1c0-.3.1-.5.4-.6.3-.4 1-.5 2.2-.6h1.8c.8-.1 1.6-.1 2.4-.1.8 0 1.6 0 2.4.1h1.3c1 .1 1.6.2 1.8.3.3.2.4.5.6.9V9c0 .4 0 .6-.1.8-.1.4-.3.5-.7.6l-1.8.3c-.6.1-1.2.1-1.8.1H84V13.2c0 .5 0 1.1.1 1.7.1.6.1 1.2.1 1.8 0 .6 0 1.2-.2 1.8V22h6c.6.1 1 .3 1.1.7v.5c-.1.5-.1 1.1-.1 1.6s-.1 1-.1 1.6c-.1.5-.5.7-1.3.7-.9-.1-1.7-.1-2.6-.1h-2.7v2.8c0 .2-.1.4-.1.6v.7-.1c.7-.1 1.5-.1 2.2-.1.7 0 1.5 0 2.2.1h1.3c.9.1 1.5.2 1.7.3s.3.5.4.9z"/>
  <path class="st2" d="M110.1 30.7c.2.6.5 1.1.8 1.6.3.5.6 1.1.9 1.6.2.4.3.8.1 1.2s-.6.5-1.2.6c-.6.1-1.3.2-1.9.2-.7 0-1.3.1-2 .1h-.1c-.5-.1-.9-.3-1-.6 0-.1-.1-.1-.1-.2s-.1-.1-.1-.2c-.1-.4-.2-.8-.4-1.2-.2-.4-.3-.8-.5-1.2-.2-.5-.3-.9-.4-1.4-.1-.5-.3-.9-.5-1.3l-.3-.6c-.1-.2-.2-.4-.2-.6-.1.2-.1.4-.2.6l-.3.6c-.2.4-.4.9-.6 1.3-.2.4-.3.9-.5 1.3s-.3.8-.5 1.2-.3.8-.4 1.2v.2c0 .1-.1.2-.1.2-.2.4-.5.6-1.1.5h-.1c-.7-.1-1.3-.1-2-.1s-1.3-.1-1.9-.2c-.6-.1-.9-.3-1.1-.6-.2-.3-.2-.7.1-1.2.3-.5.6-1.1.9-1.6s.6-1.1.8-1.6c.3-.7.6-1.5.8-2.3l.6-1.8c.2-.6.5-1.2.8-1.7.2-.3.3-.6.4-.9.1-.3.2-.6.4-.9.1-.2.2-.5.3-.9s.3-.8.5-1.3c-.2-.4-.3-.8-.5-1.3s-.3-.9-.4-1.2c-.2-.5-.4-1.1-.6-1.6-.2-.6-.4-1.1-.7-1.6-.3-.7-.6-1.3-.9-2-.3-.7-.5-1.3-.7-2-.2-.4-.3-.8-.4-1.2s-.2-.8-.4-1.4c-.2-.4-.3-.6-.3-.8-.1-.2-.2-.4-.3-.7-.1-.2-.2-.3-.3-.6s-.1-.4 0-.5c.2-.1.3-.2.5-.3.2 0 .4-.1.6-.1H99.6c.7 0 1.1.3 1.4.8.1.4.2.7.4 1 .1.3.3.7.4 1 .2.4.3.9.4 1.3.1.5.3.9.5 1.3.1.2.1.4.3.7.1.3.2.6.4 1 .3-.7.5-1.3.7-1.7.2-.4.3-.9.5-1.3.1-.4.3-.9.4-1.3.1-.4.3-.7.4-1 .1-.3.3-.7.4-1 .2-.6.7-.8 1.3-.8H111c.2 0 .4 0 .6.1.2 0 .4.1.5.3.2.1.2.3 0 .5l-.3.6c-.1.2-.2.5-.3.7-.1.2-.2.5-.4.8-.2.5-.4 1-.5 1.3-.1.4-.3.8-.4 1.2-.2.7-.5 1.4-.8 2-.3.7-.6 1.3-.9 2-.2.5-.5 1.1-.7 1.6-.2.5-.4 1.1-.6 1.6-.1.3-.2.7-.4 1.2s-.4.9-.5 1.3c.2.5.4 1 .5 1.4.2.4.3.7.3.9.1.3.2.6.4.9s.3.6.4.9c.3.6.6 1.2.8 1.8l.6 1.8c.2.9.5 1.7.8 2.4z"/>
  <path class="st2" d="M114.8 16.4v-1.7-2.3-2.2c0-.7.1-1.2.1-1.5v-.8-1.4-1.6-1.2-.3-.3c.1-.3.3-.5.6-.5h.7c.5 0 1.1 0 1.7.1.7 0 1.3.1 2.1.1h5.6c.6 0 1.2 0 1.6.1h.8c.6 0 .9.3.9.8.1.6.1 1.1.1 1.7V8c0 .3 0 .6.1 1 .1.8.1 1.5.1 2.3v6.5c.1.9.1 1.8 0 2.7 0 .9-.1 1.8-.1 2.7v2.4c0 .7 0 1.4-.1 2.1l-.3 2.1c-.1.6-.2 1.3-.4 1.9s-.2 1.3-.4 2c-.2 1.2-.8 2.3-1.6 3.3-.4.5-1 .9-1.6 1.2s-1.3.5-2 .6-1.4 0-2.2-.2c-.7-.2-1.4-.5-2-1-.6-.4-1-.8-1.4-1.4-.6-.8-1.1-1.7-1.4-2.7-.3-.9-.5-1.9-.7-2.9-.1-.6-.1-1.1-.1-1.7 0-.6 0-1.2-.1-1.7-.1-.6-.1-1.4-.1-2.5s-.1-2.2-.1-3.4v-3.1c.2-.9.2-1.5.2-1.8z"/>
  <path class="st2" d="M148.2 14.7c.1.9.1 1.7.1 2.6v2.6c0 1.4-.1 2.9-.1 4.3-.1 1.4-.1 2.9-.2 4.3v1.4c-.1.9-.1 1.7-.1 2.4s-.1 1.5-.1 2.4v.8c0 .2-.1.4-.2.5-.1.2-.3.2-.5.2h-1.5c-.5 0-1-.1-1.5-.3-.5-.1-.8-.3-1.1-.6s-.4-.6-.4-1v-.6c0-.2 0-.4.1-.7h-1.2c-.4 0-.8-.1-1-.1-.4 0-.8 0-1.2-.1-.5-.1-.9-.1-1.3-.2s-.8-.2-1.1-.2-.5-.1-.5-.1c-1-.4-1.7-.8-2.3-1.4s-1.1-1.2-1.5-1.8c-.4-.6-.6-1.3-.7-2-.1-.7-.1-1.5.1-2.4.1-.7.3-1.3.6-1.9s.7-1 1.1-1.5c.2-.2.6-.5 1.1-.9.5-.3.9-.6 1.1-.7.7-.4 1.4-.6 2-.7.6-.1 1.5-.2 2.4-.3.8-.1 1.5-.1 1.9-.1.5 0 1 0 1.5.1v-.4-.4c.1-.7 0-1.5-.1-2.4-.1-.9-.3-1.7-.5-2.3-.1-.2-.2-.5-.2-.7-.1-.2-.2-.5-.4-.9s-.5-.7-.7-.9c-.2-.2-.5-.3-.9-.3-.3 0-.5.1-.7.3l-.6.6c-.2.2-.3.4-.4.7s-.2.4-.2.5c-.2.4-.3.8-.4 1.3l-.3 1.5c0 .2-.1.4-.1.6-.1.2-.2.3-.3.4-.2.1-.4.2-.8.2-.4.1-.9 0-1.5 0-.5 0-.9-.2-1.2-.4-.3-.2-.5-.5-.6-.7-.1-.3-.2-.6-.1-.9v-.8-.4c0-.1 0-.2.1-.4.1-1.1.3-2 .6-2.7s.5-1.2.7-1.6c.2-.4.4-.7.6-.9.2-.2.3-.4.5-.5.5-.5 1-.9 1.5-1.2.5-.3 1-.6 1.6-.7.8-.2 1.6-.2 2.4-.1.8.1 1.5.3 2.3.8.2.1.3.2.5.3.2.1.3.2.5.3.5.3.9.6 1.2 1.1.3.4.6.9.8 1.4.4.9.7 1.8.8 2.7.2 1 .3 2 .4 2.9z"/>
  <path class="st2" d="M163.8 31c.4.1.6.1.7.2.1.1.1.3.1.5v1.7c0 .3 0 .7-.1 1v.7c0 .2 0 .3-.1.4-.2.4-.6.6-1.2.5h-8.6c-.3 0-.5 0-.8-.1h-1.5c-.4-.1-.6-.3-.5-.7.1-.6.1-1.2.1-1.8 0-.6 0-1.2.1-1.8v-2.1c0-.7 0-1.3.1-1.9v-.5c-.1-.7-.1-1.3-.1-2s0-1.3.1-2c0-.5.1-.9.1-1.4v-1.4-2.7c0-.9-.1-1.8-.1-2.8-.1-.8-.1-1.7-.1-2.5s.1-1.7.1-2.5V8.4 6.9v-.7c0-.2.2-.4.6-.5 1.3-.2 2.7-.2 4 0 .3 0 .5.2.5.5.1.9.2 1.8.2 2.7v2.7c0 .7 0 1.5.1 2.4.1.5.1 1.1.1 1.6 0 .6.1 1.1.1 1.6.1.5.1 1 .1 1.4v1.5c-.1.4-.1.7-.1 1.1v2c0 .3 0 .6-.1 1.1-.1.2-.1.5 0 .8v1.5c0 .5 0 1 .1 1.5.1.7.1 1.4 0 2.1v.7h4.2c.6 0 1.2 0 1.9.1z"/>
  <path class="st2" d="M172.6 2.8c.4.2.7.7.9 1.3.2.6.3 1.2.1 1.9-.1.5-.2.9-.4 1.2-.2.3-.5.6-1 .8-.2.1-.4.2-.7.2-.3 0-.6.1-.8.1-.6 0-1.2-.2-1.8-.7s-.9-1-1-1.6c-.2-1.2.2-2.1 1-2.8 1-.8 2.1-1 3.4-.6.1.1.2.2.3.2zm.7 33.2c0 .2.1.4.1.6 0 .2.1.4.1.6.1.3.1.6 0 .9-.2.4-.4.6-.7.6-1.4.2-2.7.2-4 0-.4 0-.5-.3-.6-.7-.1-.4-.1-.7-.1-1.2v-1.3c.1-1.1.1-2.1.1-3.2s.1-2.1.1-3.2v-1.5c0-.5 0-.9.1-1.4v-2-2-1.8-2.6-2.6-1.8-1-1-.5c0-.1 0-.4.1-.5 0-.2.2-.4.5-.6h2.1c.5 0 1 .1 1.5.1.4.1.6.2.7.3.1.2.2.4.2.6v16.5c0 .4-.1.8-.1 1.1v5.8c0 .6-.1 1.1-.1 1.8z"/>
  <path class="st2" d="M177.5 23.9v-2.1V19v-2.5-1.3c0-.2.1-.6.1-1.3 0-.7.1-1.5.1-2.3 0-.8 0-1.6.1-2.3V8.1c0-.3.1-.6.1-.9 0-.3 0-.6.1-.9V6v-.3c.1-.1.2-.2.4-.3h.6c.3 0 .6 0 1 .1.3 0 .7.1 1.1.2.4.1.7.2.9.3.2.1.5.2.9.4.5.2 1.1.5 1.9.9.8.5 1.5 1 2 1.6.5.5.9 1.1 1.3 1.6.5.7.9 1.3 1.2 1.8.3.5.6 1.2.9 2.1.1.4.2.8.3 1.4.1.6.2 1.2.3 1.9.1.7.1 1.2.2 1.8.1.5.1.9.1 1.1.1.7 0 1.4 0 2.1-.1.7-.2 1.4-.4 2.1-.1.4-.1.8-.3 1.1-.1.4-.2.7-.4 1.1-.2.5-.4 1-.7 1.6-.3.6-.6 1.2-1 1.8-.3.4-.6.8-.8 1.1-.2.3-.4.5-.7.7-.2.2-.4.4-.7.6-.2.2-.5.4-.8.7-.7.4-1.4.9-2.3 1.3s-1.7.8-2.6.9c-.7.1-1.4.1-1.9.1s-.8 0-.8-.2c-.1-.1-.2-.3-.3-.6-.1-.3-.1-.6-.1-.9v-.8-.4c0-.8 0-1.6-.1-2.6v-2.8c0-.9 0-1.7.1-2.4.2-.4.2-.9.2-1.2z"/>
  <path class="st2" d="M209.1 14.7c.1.9.1 1.7.1 2.6v2.6c0 1.4-.1 2.9-.1 4.3-.1 1.4-.1 2.9-.2 4.3v1.4c-.1.9-.1 1.7-.1 2.4s-.1 1.5-.1 2.4v.8c0 .2-.1.4-.2.5-.1.2-.3.2-.5.2h-1.5c-.5 0-1-.1-1.5-.3-.5-.1-.8-.3-1.1-.6s-.4-.6-.4-1v-.6c0-.2 0-.4.1-.7h-1.2c-.4 0-.8-.1-1-.1-.4 0-.8 0-1.2-.1-.5-.1-.9-.1-1.3-.2s-.8-.2-1.1-.2-.5-.1-.5-.1c-1-.4-1.7-.8-2.3-1.4s-1.1-1.2-1.5-1.8c-.4-.6-.6-1.3-.7-2-.1-.7-.1-1.5.1-2.4.1-.7.3-1.3.6-1.9s.7-1 1.1-1.5c.2-.2.6-.5 1.1-.9.5-.3.9-.6 1.1-.7.7-.4 1.4-.6 2-.7.6-.1 1.5-.2 2.4-.3.8-.1 1.5-.1 1.9-.1.5 0 1 0 1.5.1v-.4-.4c.1-.7 0-1.5-.1-2.4-.1-.9-.3-1.7-.5-2.3-.1-.2-.2-.5-.2-.7-.1-.2-.2-.5-.4-.9s-.5-.7-.7-.9c-.2-.2-.5-.3-.9-.3-.3 0-.5.1-.7.3l-.6.6c-.2.2-.3.4-.4.7s-.2.4-.2.5c-.2.4-.3.8-.4 1.3l-.3 1.5c0 .2-.1.4-.1.6-.1.2-.2.3-.3.4-.2.1-.4.2-.8.2-.4.1-.9 0-1.5 0-.5 0-.9-.2-1.2-.4-.3-.2-.5-.5-.6-.7-.1-.3-.2-.6-.1-.9v-.8-.4c0-.1 0-.2.1-.4.1-1.1.3-2 .6-2.7s.5-1.2.7-1.6c.2-.4.4-.7.6-.9.2-.2.3-.4.5-.5.5-.5 1-.9 1.5-1.2.5-.3 1-.6 1.6-.7.8-.2 1.6-.2 2.4-.1.8.1 1.5.3 2.3.8.2.1.3.2.5.3.2.1.3.2.5.3.5.3.9.6 1.2 1.1.3.4.6.9.8 1.4.4.9.7 1.8.8 2.7.1 1 .3 2 .4 2.9z"/>
  <path class="st2" d="M212.3 23.9v-2.1V19v-2.5-1.3c0-.2.1-.6.1-1.3 0-.7.1-1.5.1-2.3 0-.8 0-1.6.1-2.3V8.1c0-.3.1-.6.1-.9 0-.3 0-.6.1-.9V6v-.3c.1-.1.2-.2.4-.3h.6c.3 0 .6 0 1 .1.3 0 .7.1 1.1.2.4.1.7.2.9.3.2.1.5.2.9.4.5.2 1.1.5 1.9.9.8.5 1.5 1 2 1.6.5.5.9 1.1 1.3 1.6.5.7.9 1.3 1.2 1.8.3.5.6 1.2.9 2.1.1.4.2.8.3 1.4.1.6.2 1.2.3 1.9.1.7.1 1.2.2 1.8.1.5.1.9.1 1.1.1.7 0 1.4 0 2.1-.1.7-.2 1.4-.4 2.1-.1.4-.1.8-.3 1.1-.1.4-.2.7-.4 1.1-.2.5-.4 1-.7 1.6-.3.6-.6 1.2-1 1.8-.3.4-.6.8-.8 1.1-.2.3-.4.5-.7.7-.2.2-.4.4-.7.6-.2.2-.5.4-.8.7-.7.4-1.4.9-2.3 1.3s-1.7.8-2.6.9c-.7.1-1.4.1-1.9.1s-.8 0-.8-.2c-.1-.1-.2-.3-.3-.6-.1-.3-.1-.6-.1-.9v-.8-.4c0-.8 0-1.6-.1-2.6v-2.8c0-.9 0-1.7.1-2.4.2-.4.2-.9.2-1.2z"/>
</svg>