<svg xmlns="http://www.w3.org/2000/svg" width="237.9" height="75.1" viewBox="0 0 237.9 75.1">
  <style>
    .st0{fill-rule:evenodd;clip-rule:evenodd;fill:#fff}
  </style>
  <path class="st0" d="M28.4 58.8c0-.1 0-.3-.1-.5 0-.2-.1-.4-.1-.5-.1-.2-.1-.3-.2-.4-.1-.2-.3-.4-.5-.5-.2-.1-.4 0-.7.1-.1.1-.2.1-.4.2-.1.1-.2.1-.4.2-.7.5-1.5 1-2.2 1.4-.7.5-1.5 1-2.2 1.4-.2.1-.4.3-.6.4-.2.1-.4.2-.6.4-.5.3-1 .6-1.6.9-.5.3-1 .6-1.5 1-.1.1-.3.2-.4.3-.2.1-.3.2-.5.2-.5.3-1 .6-1.5.8-.5.3-1 .6-1.5.8-.5.2-.9.5-1.4.7-.4.2-.9.5-1.4.8-.3.2-.6.3-.9.5-.3.2-.6.4-.9.5-.3.2-.6.3-1 .4-.3.1-.4.2-.5.5-.1.2 0 .5.1.7.1.2.2.4.4.5.1.2.3.3.5.4.1.1.3.2.5.2s.3 0 .5-.1c.5-.3 1-.6 1.4-.8.5-.3 1-.6 1.4-.9.2-.2.4-.3.7-.5.2-.1.5-.3.7-.4.3-.1.5-.3.8-.4.2-.1.5-.3.7-.5.5-.3.9-.6 1.4-.9.5-.3 1-.5 1.5-.8.4-.2.9-.4 1.3-.6.4-.2.9-.4 1.3-.7.4-.3.8-.5 1.2-.7.4-.2.8-.5 1.2-.7.2-.1.4-.2.7-.4.3-.2.6-.4 1-.6.4-.2.7-.5 1.1-.7.4-.2.7-.4.9-.6.3-.2.5-.3.6-.3.1 0 .2-.1.2-.1l.2-.2.3-.3c.4.1.5-.1.5-.2"/>
  <path class="st0" d="M213.6 61.6c0-.2 0-.4.1-.6 0-.2.1-.4.2-.6.1-.2.2-.4.2-.5.2-.3.4-.5.6-.5.2-.1.5 0 .8.1.1.1.3.1.4.2.1.1.3.2.4.3.9.6 1.7 1.1 2.6 1.7.9.6 1.7 1.1 2.6 1.7.2.1.4.3.7.4.2.1.4.3.7.4.6.3 1.2.7 1.8 1 .6.4 1.2.7 1.7 1.2.2.1.3.2.5.3.2.1.4.2.5.3.6.3 1.2.7 1.8 1 .6.3 1.2.6 1.8 1 .5.3 1.1.6 1.6.9.5.3 1 .6 1.6.9.4.2.7.4 1 .6.3.2.7.4 1 .6.4.2.7.3 1.1.5.3.1.5.3.5.5.1.3 0 .5-.1.9-.1.2-.3.4-.4.6-.2.2-.4.3-.6.5-.2.1-.3.2-.5.2s-.4 0-.6-.1c-.6-.3-1.1-.7-1.7-1-.6-.3-1.1-.7-1.7-1-.3-.2-.5-.4-.8-.5-.3-.2-.5-.3-.8-.4-.3-.1-.6-.3-.9-.5-.3-.2-.6-.4-.8-.6-.5-.4-1.1-.7-1.7-1.1l-1.8-.9c-.5-.2-1-.5-1.5-.7-.5-.2-1-.5-1.5-.8-.5-.3-.9-.6-1.4-.9-.5-.3-.9-.5-1.4-.8-.2-.1-.5-.3-.8-.5-.4-.2-.7-.5-1.2-.7-.4-.3-.8-.5-1.3-.8-.4-.3-.8-.5-1.1-.7-.3-.2-.6-.3-.7-.3-.1 0-.2-.1-.3-.2-.1-.1-.2-.1-.3-.2-.1-.1-.3-.2-.3-.3.1-.2 0-.4 0-.6"/>
  <path class="st0" d="M23 15.1c0 .2 0 .3-.1.5 0 .2-.1.4-.2.6-.1.2-.1.4-.2.5-.2.3-.3.4-.6.5-.2.1-.5 0-.7-.1-.1-.1-.2-.1-.4-.2-.1-.1-.3-.2-.4-.2-.8-.5-1.6-1-2.5-1.6-.8-.5-1.6-1.1-2.5-1.6-.2-.1-.4-.3-.6-.4-.2-.1-.4-.3-.6-.4-.6-.3-1.1-.7-1.7-1-.6-.3-1.1-.7-1.6-1.1-.2-.1-.3-.2-.5-.3-.2-.1-.3-.2-.5-.3-.5-.3-1.1-.6-1.7-.9-.5-.3-1.1-.6-1.6-.9-.5-.3-1-.5-1.5-.8-.5-.3-1-.6-1.5-.8-.4-.2-.7-.4-1-.6-.3-.2-.6-.4-1-.6-.3-.2-.7-.3-1.1-.5-.2-.1-.4-.2-.5-.5 0-.2 0-.5.1-.8.1-.2.3-.4.4-.6.2-.2.3-.3.5-.4.2-.1.3-.2.5-.2s.4 0 .6.1c.5.3 1 .6 1.6.9.5.3 1.1.6 1.6 1 .2.2.5.3.7.5.2.2.5.3.8.4.3.1.6.3.9.5.3.1.5.3.8.5.5.4 1 .7 1.5 1 .5.3 1.1.6 1.7.8.5.2 1 .5 1.5.7.5.2.9.5 1.4.7.5.3.9.6 1.3.8.4.3.9.5 1.4.7.2.1.5.2.8.5.3.2.7.4 1.1.7.4.2.8.5 1.2.7.4.2.7.5 1 .6.3.2.5.3.7.3.1 0 .2.1.3.1.1.1.2.1.2.2l.3.3c0 .4.1.5.1.7"/>
  <path class="st0" d="M17.3 40.5h-2.5c-.8 0-1.6-.1-2.3-.1-.8 0-1.5-.1-2.3-.1H4.7c-.2 0-.3-.1-.4-.1-.1-.1-.1-.2 0-.4l.3-1.2c.1-.4.2-.8.3-1.3 0-.1.1-.2.2-.3h.6c.2 0 .4.1.7.1.2 0 .5.1.7.1.7.2 1.3.4 2 .6.7.2 1.3.4 2 .7.1 0 .2.1.3.1.1 0 .2.1.4.1.9.3 1.8.5 2.8.9.8.3 1.7.6 2.7.9m-8.9 1.4h2.1c.4 0 .8 0 1.2.1.4 0 .7 0 1 .1h2.7c.7 0 1.4 0 2.1.1.4 0 .9.1 1.3.1h1.3c.4 0 .9.1 1.3.1h.6c.2 0 .4 0 .5-.1.2 0 .4-.1.5-.3.1-.1.2-.3.2-.5V41c-.1-.1-.1-.3-.3-.4-.1-.1-.3-.2-.4-.2-.2 0-.3-.1-.5-.1-.5-.1-1-.2-1.5-.4-.5-.1-1-.3-1.5-.5-.9-.3-1.8-.7-2.7-1l-2.7-.9-1.8-.6-1.8-.6-.6-.3c-.2.2-.4.1-.7 0-.6-.2-1.2-.3-1.7-.5-.6-.2-1.1-.4-1.7-.6-.1 0-.2-.1-.3-.1-.1 0-.2-.1-.4-.1h-.5c-.1.1-.3.2-.3.3-.1.1-.1.3-.2.5v1c0 .6-.1 1.3-.2 1.9l-.6 1.8c-.1.2-.1.3-.2.5 0 .2-.1.4 0 .5 0 .3.1.6.3.7.2.1.4.2.8.1.2 0 .4 0 .7-.1h4z"/>
  <path class="st0" d="M220 31.9h2.6c.8 0 1.6-.1 2.5-.1.8 0 1.6-.1 2.4-.1h5.6c.2 0 .3-.1.4-.1.1-.1.1-.2 0-.4-.1-.4-.2-.9-.3-1.3-.1-.4-.2-.9-.3-1.3 0-.1-.1-.2-.2-.3-.1-.1-.2-.1-.3 0-.2 0-.5.1-.7.1-.2 0-.5.1-.7.2l-2.1.6c-.7.2-1.4.4-2.1.7-.1 0-.2.1-.4.1-.1 0-.3.1-.4.1-1 .3-2 .6-2.9.9-1.1.2-2.1.6-3.1.9m9.4 1.5h-2.1c-.4 0-.9 0-1.3.1-.4 0-.8 0-1.1.1H222.1c-.7 0-1.5 0-2.2.1-.5 0-.9.1-1.4.1h-1.4c-.5 0-.9.1-1.3.1h-.6c-.2 0-.4 0-.6-.1-.2 0-.4-.1-.5-.3-.1-.1-.2-.3-.3-.5v-.5c.1-.1.2-.3.3-.4.1-.1.3-.2.5-.2s.3-.1.5-.1c.5-.1 1.1-.3 1.6-.4.5-.2 1.1-.3 1.6-.5.9-.4 1.9-.7 2.8-1.1.9-.3 1.9-.7 2.9-1 .6-.2 1.2-.4 1.9-.6.6-.2 1.2-.4 1.9-.6.2-.1.5-.2.7-.3.2-.1.5-.2.7-.2l1.8-.6 1.8-.6c.1 0 .2-.1.4-.1.1 0 .3-.1.4-.1h.6c.2.1.3.2.4.3.1.1.1.3.2.5v1c0 .7.1 1.3.2 2s.3 1.3.6 1.9c.1.2.1.4.2.6 0 .2.1.4 0 .6 0 .4-.1.6-.3.8-.2.1-.5.2-.8.1-.3-.1-.6-.1-.9-.1h-4.4z"/>
  <path d="M189.7 14.9c-1-.1-1.5-.7-1.5-1.7 0-.5-.1-1-.1-1.4v-1.4c0-1 .1-1.7.4-2 .3-.3.9-.5 1.9-.6h.9c.3 0 .5 0 .8-.1.8-.1 1.6-.2 2.3-.2.8 0 1.6 0 2.3.1.2 0 .4.1.6 0h.6c.9 0 1.5.2 1.7.5.2.3.4.7.6 1.4v3.3c0 .2-.1.4-.1.5 0 .2 0 .4-.1.6-.1.4-.3.7-.7.8-.5.2-1.1.3-1.7.4-.6.1-1.1.1-1.7.1-.6 0-1.2-.1-1.7 0-.5 0-1.1 0-1.8-.1h-2.3l-.4-.2m8.1 14.6c.6.1 1 .5 1.2 1.1 0 .2.1.4.1.7 0 .8-.1 1.6-.1 2.3 0 .8-.1 1.6-.2 2.3-.1.9-.6 1.2-1.3 1.1-.9-.1-1.8-.2-2.7-.2-.9 0-1.8-.1-2.7-.1-.4 0-.8 0-1.2-.1-.4-.1-.8-.1-1.2-.2-.6 0-1-.4-1.1-1.1-.1-.6-.2-1.2-.2-1.8 0-.6-.1-1.2-.1-1.8v-.6c.1-.8.6-1.3 1.3-1.5.5-.1.9-.2 1.4-.3.5-.1.9-.1 1.4 0 .5 0 1 .1 1.5.1h3.9zm2.5 23.7V56.6c0 .2-.1.4-.1.5 0 .2 0 .4-.1.5-.1.5-.3.8-.7.8-.5.2-1.1.3-1.7.4-.6.1-1.1.1-1.7.1-.6 0-1.2-.1-1.7 0-.5 0-1.1 0-1.8-.1h-2.3c-.3 0-.5 0-.7-.1-1-.2-1.5-.7-1.5-1.7 0-.5-.1-1-.1-1.5V54c0-1 .1-1.6.4-1.9.3-.3.9-.5 1.9-.6h.9c.3 0 .5 0 .8-.1 1.5-.2 3-.2 4.7-.1h1.2c.9.1 1.5.3 1.7.5.5.3.7.7.8 1.4zm-13-31c.1 1 .1 2.1.2 3.1 0 1 0 2.1-.2 3.1 0 .2-.1.4-.1.5v4.5c0 .8.1 1.8.1 3.1s.1 2.4.1 3.4c-.1.6-.1 1.3-.1 1.9 0 .6 0 1.1-.1 1.5v2.2c0 .7-.1 1.5-.1 2.2v2.2c0 1.1-.1 2.2 0 3.3v3.3c0 .5 0 .9-.1 1.1 0 .5-.2.8-.7 1-.5.1-.8.2-1 .2l-2.7.2h-.9c-.3 0-.6-.1-.9-.1-.5 0-.7-.3-.7-.8 0-.1-.1-.3 0-.4V34.2v-.7c0-.2.1-.5.1-.7v-1-1-1-2.5-2.6c0-.9 0-1.7-.1-2.6l-.3-3c-.1-1-.1-2-.1-3 0-1.2-.1-2.4 0-3.7 0-1.2-.1-2.4-.3-3.7v-.1c0-.7.2-1 .9-1.1.7-.1 1.3-.2 2-.2.6-.1 1.2-.1 1.8 0l1.8.3c.5 0 .7.3.7.9l.2 3.5v1.2c0 .4.1.8.1 1.2.1.4.1.7.1 1.1v1.1c0 1-.1 1.9-.1 2.9.2.8.3 1.8.4 2.7zM176 9.1c.2 1.5-.1 2.9-.7 4.3 0 .1-.1.3-.2.4-.1.1-.1.2-.2.3-.4.4-.7.6-1 .6s-1 .1-2 .1h-4.2c0 .2 0 .3-.1.4v3.6c0 1.1 0 2.2-.1 3.2 0 .2 0 .5.1 1 .1 1.1.1 2.3.1 3.4s-.1 2.2-.1 3.3c0 .8-.1 1.6-.1 2.3 0 .8-.1 1.6-.1 2.3 0 1.5-.1 3.1 0 4.6 0 1.5.1 3.1.2 4.7.1 1.5.1 2.9.1 4.3s-.1 2.8-.2 4.3c0 .8-.1 1.6 0 2.5v3.1c0 .2 0 .4-.1.6 0 .4-.2.7-.7.8-2 .4-3.9.3-5.8-.1-.5-.1-.7-.4-.7-1l-.3-4.5V49v-2c0-.7 0-1.4-.1-2-.1-.9-.1-1.8-.2-2.8 0-.9-.1-1.9-.2-2.8-.1-.8-.1-1.6-.1-2.3 0-.7 0-1.6.1-2.6.1-.6.1-1.2.1-1.8v-1.8-1.5c0-.4 0-1.1.1-1.9 0-.2.1-.5.1-.7v-.7c0-.9-.1-1.7 0-2.5 0-.8 0-1.7-.1-2.5-.1-1.2-.1-2.4 0-3.7 0-.5.1-1 0-1.4v-1.4h-1.4c-.5 0-.9 0-1.4.1-1.3 0-2.6-.1-3.9-.2-.8-.1-1.3-.2-1.5-.3-.2-.1-.3-.4-.3-.7 0-.2 0-.5.1-.9 0-.4.1-.9.1-1.3 0-.5.1-.9.1-1.4 0-.4.1-.8.1-1 0-.2.1-.4.3-.5.5-.5 1.3-.8 2.4-.8h7.2c1.5.1 2.9.1 4.4.1 1.5 0 3 0 4.5.1.6 0 1.3.1 1.9.1.7 0 1.3.1 1.9.2.8.1 1.3.3 1.6.5.1-.2.2.1.3.5zm-28.5 48.5v.6c0 .4-.2.7-.7.7-.5.1-1.1.2-1.6.3-.5.1-1.1.1-1.6 0h-1.4c-.4 0-.9-.1-1.3-.2-1-.2-1.5-.7-1.5-1.4-.2-1.3-.5-2.5-.7-3.7-.3-1.2-.5-2.5-.7-3.7-.1-.8-.2-1.5-.4-2.2-.2-.7-.4-1.5-.6-2.2-.1-.5-.2-.9-.3-1.4-.1-.5-.2-.9-.3-1.4-1.2-.1-2.4-.1-3.7 0-1.3.1-2.5.2-3.5.3-.1.5-.2 1.1-.2 1.7-.1.6-.1 1.3-.2 2.1-.3 1.7-.6 3.2-.7 4.7-.2 1.5-.3 2.7-.5 3.8-.2 1.1-.3 2-.5 2.6-.2.7-.5 1-.9 1.1-.5.1-1 .2-1.4.2-.4 0-.8-.1-1.2-.1-.4-.1-.7-.1-1.1-.2-.4-.1-.9-.2-1.4-.2-.2 0-.3 0-.5-.1-.1 0-.3-.1-.4-.1-.5-.1-.7-.4-.7-.8v-.6c0-.2 0-.4.1-.6.2-1 .4-2.1.5-3.2.2-1.1.3-2.2.5-3.2.1-.5.2-1 .2-1.5s.1-1.1.2-1.6c.2-2 .4-4 .5-5.9.1-2 .4-3.9.7-5.9.1-.6.2-1.3.2-1.9 0-.7.1-1.3.1-1.9.1-1.3.2-2.6.3-4 .1-1.3.2-2.7.5-4 .1-.5.2-1.1.2-1.6.1-.5.1-1.1.1-1.7.1-1.7.3-3.4.5-5.1.3-1.7.5-3.4.8-5.1 0-.2 0-.4.1-.5.1-.5.3-.7.5-.8.3-.1.7-.2 1.2-.4s1-.3 1.8-.5c.7-.1 1.5-.2 2.4-.3.9-.1 1.8-.1 2.8-.1 1 0 2 .1 2.9.3.4.1.7.6 1.1 1.5.3.8.7 1.8 1 3 .3 1.1.5 2.3.7 3.5.2 1.2.4 2.2.4 3 .1.9.3 1.7.4 2.3.1.6.2 1.2.3 1.7.1.5.1 1 .2 1.5s.2 1 .3 1.6c.2 1 .4 2 .6 3.2.2 1.2.3 2.1.5 2.8.2.9.4 1.7.6 2.5.2.8.3 1.7.5 2.5.1.8.2 1.5.4 2.2.2.7.4 1.5.6 2.2.2.7.4 1.6.6 2.7.2 1.1.4 2.2.6 3.2.2 1 .4 2 .5 2.7.2.8.2 1.2.2 1.4l.6 3.3c.5.6.6 1.8.8 2.9zM95.8 38.9v-2.1-2.9-3.2-3-2.3c0-.6 0-1 .1-1.2 0-.3.1-1.1.1-2.4 0-1.3.1-2.7.1-4.3 0-1.5.1-2.9.1-4.2 0-1.3.1-2 .1-2.2 0-.5.1-1 .1-1.5s.1-1 .1-1.5c0-.3 0-.5.1-.8 0-.3.2-.5.6-.5h.9c.4 0 .9.1 1.4.1.5.1 1 .2 1.6.3.5.1 1 .3 1.3.5.2.1.7.3 1.4.6s1.6.9 2.7 1.6c1.3.9 2.3 1.8 3 2.7.7.9 1.3 1.8 1.9 2.7.4.6.7 1.1 1 1.6.3.5.5 1 .7 1.5.2.5.4 1 .6 1.6.2.6.4 1.2.6 2 .2.5.3 1.3.5 2.4.1 1.1.3 2.2.4 3.3.1 1.1.2 2.1.3 3.1.1.9.1 1.6.1 1.9.1 1.2.1 2.4-.1 3.7-.1 1.2-.3 2.4-.5 3.7-.1.6-.2 1.3-.4 1.9-.2.6-.3 1.3-.5 1.9-.2.8-.5 1.7-1 2.7-.4 1-.9 2-1.5 3-.5.7-.8 1.3-1.2 1.8-.3.5-.6.9-1 1.3-.3.4-.6.7-1 1.1-.3.3-.8.7-1.3 1.2-1 .7-2.1 1.5-3.3 2.4-1.2.9-2.5 1.4-3.7 1.6-1 .2-1.9.3-2.8.3-.8 0-1.3-.2-1.3-.4-.1-.4-.2-1-.3-1.8-.1-.8-.1-1.6-.2-2.3 0-.8-.1-1.5-.1-2.1v-1c-.1-2.8-.1-5.3-.1-7.6.5-2.6.5-4.2.5-5.2zm-6.6-27.3c.6.4 1 1 1.4 1.9.3.9.4 1.8.2 2.7-.1.7-.3 1.3-.5 1.7-.3.4-.8.8-1.5 1.2-.2.1-.6.2-1.1.3-.5.1-.9.1-1.1.1-1 0-1.8-.3-2.7-.9-.8-.7-1.3-1.4-1.5-2.3-.2-1.7.3-3 1.5-4 1.4-1.1 3.1-1.4 5-.9.1 0 .1.1.2.1l.1.1zm-.1 10c.8 0 1.2.4 1.2 1.1v17.6c0 .5-.1 1-.1 1.5s-.1.9-.1 1.3v.5c-.1 1.6-.1 3-.2 4.2 0 1.2 0 2.6.1 4.2.1.5.2 1 .3 1.4.1.4 0 .8-.1 1.1-.1.4-.5.6-1 .7-2 .3-3.9.3-5.9 0-.5-.1-.8-.3-.8-.7-.1-.4-.2-.9-.2-1.4v-1.5c.1-1.3.2-2.5.2-3.7 0-1.2.1-2.5.2-3.7 0-.5.1-1.1.1-1.6s0-1.1.1-1.7c0-.8.1-1.5 0-2.3v-2.3-2-3.1-3.1c0-1 .1-1.7.1-2.1v-1.2-1.2-.6c0-.2.1-.4.1-.6 0-.4.3-.6.8-.7.1 0 .3-.1.4-.1.1 0 .3 0 .4-.1.8 0 1.5-.1 2.2 0 .8-.1 1.5 0 2.2.1zm-11.4 8c.1 1.1.1 2.3.1 3.4s-.1 2.2-.1 3.4v3c0 .9-.1 1.8-.2 2.6s-.3 1.7-.4 2.6c-.2.8-.4 1.6-.5 2.4l-.6 2.4c-.4 1.5-1.2 2.9-2.5 4.1-.6.6-1.4 1.1-2.3 1.5-.9.4-1.9.6-3 .7-1.1.1-2.2 0-3.3-.2-1.1-.2-2.2-.6-3.2-1.2-.7-.4-1.4-1-2.1-1.8-1-1-1.7-2.2-2.2-3.3-.5-1.2-.8-2.4-1-3.6-.3-.8-.4-1.6-.4-2.3 0-.7-.1-1.4-.2-2.1-.1-.7-.2-1.8-.2-3.2-.1-1.4-.1-2.8-.2-4.2 0-1.4-.1-2.7-.1-3.9v-2.4-2.1-2.9-2.8c0-.9 0-1.5.1-1.8 0-.1.1-.5.1-1v-1.8-1.9-1.5c0-.3 0-.5.1-.7 0-.4.4-.6 1-.6h1.8c1.2 0 2.4.1 3.8.2.7.1 1.1.2 1.3.4.2.2.3.6.3 1.3v3c0 .3-.1.8-.1 1.5V35c0 .6.1 1.2 0 1.8v1.8c.1 2.2.4 4.2.9 5.9.1.6.3 1.1.6 1.5.5 1 1.2 1.4 1.9 1.1.7-.3 1.3-.9 1.7-2 .2-.5.3-1.1.4-1.7l.3-1.8c.1-.7.2-1.4.2-2.1 0-.7.1-1.4.2-2.1.1-.8.1-1.5.2-2.2 0-.7.1-1.5.1-2.2v-2.4c0-.9.1-1.7.1-2.6v-2.6V23c0-.8 0-1.6.1-2.4v-5.2-1-2.7c0-.5.2-.7.7-.7 1.2 0 2.2.1 3.1.1h1.6c.9 0 1.3.4 1.4 1.1 0 .5.1 1 .1 1.6 0 .5.1 1.1.1 1.6V17c0 .6.1 1.1.1 1.6.1 1 .2 2 .2 2.9.1 1 .1 1.9 0 2.9 0 .9-.1 1.8-.1 2.6-.1.8 0 1.6.1 2.6zM51 12.2c.2.3.5.7.8 1.3.3.6.4 1.3.2 2.3v.1c-.2.5-.5.8-.7 1-.2.2-.8.5-1.7.9-.4.1-.6.2-.8.3-.2.1-.3.2-.5.3-.1.1-.2.2-.4.3l-.6.3c-1.3.8-2.5 1.7-3.4 2.9-1 1.2-1.9 2.7-2.7 4.4-.2.4-.4.7-.5 1.1-.1.4-.2.7-.3 1.1-.9 2.6-1.2 5.1-.7 7.3 0 .2.1.4.1.7 0 .1.1.2.1.5 0 .4.2.8.4 1.4.2.5.4 1.1.6 1.7.2.6.4 1.1.6 1.6.2.5.4.8.5 1 .7 1.2 1.6 2.3 2.9 3.3 1.2 1 2.6 1.7 4.2 2.1 1.2.3 2 .6 2.6 1.1.5.4.7 1.1.6 1.9-.1.5-.2.9-.4 1.3s-.4.9-.7 1.5c-.5 1.1-1.5 1.7-2.8 1.7-.4 0-.7 0-.9-.1-1.1-.2-2.3-.7-3.6-1.4-1.3-.7-2.6-1.6-3.9-2.7-2.4-2-4.1-3.9-5.1-6-1-2-1.7-3.8-1.9-5.4-.2-.9-.4-1.7-.4-2.5s-.1-1.4-.1-2V35v-1.8c0-.6.1-1.2.1-1.8 0-.2.1-.4.1-.6v-.6c.1-.7.2-1.3.3-2 .1-.7.2-1.4.5-2.1.5-1.9 1.2-3.4 1.9-4.6 1.7-2.9 3.4-5 5-6.2l.9-.6c.6-.5 1.2-.9 1.7-1.2.5-.4 1-.7 1.4-.9.5-.2 1-.5 1.5-.6.5-.2 1.1-.4 1.9-.5 1.1-.3 1.9-.4 2.4-.2s.9.4 1.1.6c-.4 0-.4.1-.3.3z" fill="#fff"/>
  <path d="M135.5 33.5c0-.2-.1-.5-.3-.8-.2-.3-.4-.7-.6-1.2-.3-.4-.5-.9-.8-1.3-.3-.5-.6-.9-.8-1.3-.3-.4-.5-.8-.7-1.1-.2-.3-.3-.5-.4-.7 0-.1-.1-.1-.1-.2s-.1-.1-.1-.1c-.2-.2-.4-.3-.6-.3-.2 0-.4 0-.7.1-.2.1-.3.2-.4.3-.1.2-.1.3-.1.6 0 .8-.1 1.5-.2 2.3-.1.7-.2 1.5-.4 2.2 0 .3-.1.6-.2.9-.1.3-.1.6-.2.9 0 .3 0 .6.2.8.1.2.4.3.6.3h.2c.1 0 .2 0 .2-.1.2-.1.5-.2.7-.2.2 0 .5 0 .8-.1h2.5c.2 0 .3 0 .5-.1s.4-.2.5-.4c.2-.1.3-.3.4-.5m1.4 3c-.6-.1-1.2-.2-1.8-.2h-1.8c-.4 0-.7 0-1.1-.1-.4 0-.7-.1-1.1-.1-.5-.1-1-.1-1.5-.1h-2.3c-.1 0-.2 0-.3-.1-.1-.1-.1-.2-.1-.3v-.4c0-.1 0-.3.1-.4.2-.6.3-1.2.4-1.9.1-.6.3-1.2.4-1.9.1-.3.2-.7.2-1.1.1-.4.2-.7.2-1.1.2-.7.3-1.3.6-2 .2-.6.4-1.3.7-1.9.1-.3.2-.5.3-.8.1-.2.3-.5.4-.7.1-.2.2-.3.4-.3.1 0 .3.1.4.3.2.3.4.7.6 1 .2.3.4.7.6 1l.9 1.5.9 1.5.9 1.5c.3.5.5 1 .8 1.5.2.3.3.7.5 1 .2.3.3.7.5 1l.3.6.3.6c.1.2.1.4.2.6.1.2.1.4.2.6v.2c0 .1-.1.1-.1.1-.1.1-.3.1-.4.1 0 .4-.2.4-.3.3zm1.2-4.3c-.2-.4-.4-.8-.6-1.1-.2-.4-.4-.7-.6-1.1-.1-.3-.3-.6-.4-.8-.2-.3-.3-.6-.5-.8-.2-.5-.5-1-.8-1.4-.3-.5-.6-.9-.9-1.3-.1-.1-.2-.2-.2-.3-.1-.1-.1-.2-.2-.3-.3-.5-.6-1.1-.9-1.6-.3-.5-.6-1-1-1.5-.1-.2-.3-.4-.5-.5-.2-.1-.4-.2-.6-.2-.2 0-.5 0-.7.1-.3.1-.5.2-.7.4-.2.2-.3.4-.5.6-.1.2-.2.3-.2.5-.1.1-.1.3-.2.5-.2.6-.5 1.2-.7 1.7l-.6 1.8c-.1.3-.1.6-.2.9l-.3.9c-.1.2-.2.5-.2.7-.1.3-.1.5-.1.8 0 .2-.1.4-.1.7 0 .2-.1.5-.2.7-.2.6-.3 1.2-.5 1.8-.1.6-.3 1.2-.4 1.8-.2.6-.3 1.2-.6 1.8-.1.3-.1.5 0 .7.1.2.3.4.5.5.2.1.5.1.8.1.1 0 .2 0 .5-.1.3 0 .6-.1 1-.1s.9-.1 1.3-.1c.5 0 .9-.1 1.4-.1H134.4c.5 0 1 0 1.4.1.2 0 .4 0 .6.1.2 0 .4.1.6.1.3.1.5.1.8.1.3 0 .5 0 .8-.1.4 0 .6-.2.7-.4.1-.3.2-.6.2-1s-.1-.8-.2-1.3-.3-.9-.4-1.4c-.2-.4-.3-.8-.5-1.2-.1-.3-.2-.5-.3-.7z" fill-rule="evenodd" clip-rule="evenodd" fill="#a44685"/>
  <path class="st0" d="M229.9 0c-.4.7-1.3 1.3-1.9 2l-.5.5-.5.5c-.5.4-.9.8-1.3 1.3-.4.4-.9.9-1.2 1.3-.1.1-.2.3-.4.4-.1.1-.3.2-.4.4-.5.4-.9.8-1.3 1.2-.4.4-.9.8-1.3 1.2-.4.3-.8.7-1.2 1-.4.4-.8.7-1.2 1.1-.3.2-.5.5-.8.7-.3.3-.5.5-.8.7l-.9.6c-.2.1-.3.3-.4.6 0 .2.1.5.3.7.1.2.3.3.5.4l.6.3c.2.1.3.1.5.1s.3-.1.5-.2l1.2-1.2 1.2-1.2.6-.6c.2-.2.4-.4.6-.5.2-.2.5-.4.7-.6.2-.2.4-.4.6-.7l1.2-1.2c.4-.4.9-.8 1.3-1.1l1.2-.9c.4-.3.8-.6 1.1-1 .4-.3.7-.7 1-1 .3-.3.7-.7 1.1-1 .2-.1.4-.3.6-.6.3-.3.5-.6.9-.9 2.9-2.1-1.6-2.4-1.6-2.3"/>
</svg>