<svg xmlns="http://www.w3.org/2000/svg" width="138" height="147.5" viewBox="0 0 138 147.5">
  <style>
    .st0{fill:none;stroke:#505457;stroke-width:.844;stroke-miterlimit:10}.st1{fill:#fff}
  </style>
  <path class="st0" d="M129.1 9.4V4.5l-1.3-.1-1.3-.1v2.9c0 .5 0 1.1-.1 1.9v1.7c0 .4 0 1.6-.1 3.8-.1 2.2-.1 3.9-.1 5.2l-.2 6.3 1.4-.1c.6 0 1-.1 1.2-.2.2-.1.3-.3.3-.6.1-.7.2-6 .2-15.8zM122.8.8c0-.1.9-.1 2.5-.1h1.1c1.7 0 2.8.1 3.2.1.4.1.8.3 1.3.6.8.6 1.3 1.3 1.5 2.1.2.8.3 2.4.3 4.8v1.3c0 5.2-.1 8.8-.2 10.8s-.3 4-.6 6c-.1.8-.2 1.3-.4 1.6-.2.3-.4.5-.8.8-.4.3-.8.4-1.3.5-.5.1-1.6.1-3.3.1H122c-.2 0-.3-.4-.3-1.3 0-.2 0-.5.1-.9 0-.4.1-.8.1-1.1.1-1.7.1-4.8.2-9.2.5-10.6.7-15.9.7-16.1zm-9.8.6c.1-.1.6-.2 1.6-.2 1.6 0 2.5.1 2.5.3l.1.6v.3c0 .1.1.4.1.8s.1.8.1 1.1l.5 3.5c0 .2.1.6.2 1.2s.2 1.5.3 2.5c.2 1 .3 2 .4 2.9.2 1.3.4 2.6.6 3.8.2 1.2.3 2.1.4 2.6.1.5.1 1 .2 1.4.1.5.1.8.2 1.1.3 1.9.5 2.9.5 3.2.1 1.3.3 2.3.4 2.7v.2c0 .1-.3.2-.9.2h-2.7l-.1-1.2c0-.2-.1-.8-.3-1.8-.2-1-.3-1.9-.4-2.5l-.3-3.2-1.6-.1h-.6c-.7 0-1.1.1-1.1.3 0 .2-.1 1-.3 2.3-.2 2-.4 3.2-.5 3.8l-.4 2.4h-3.4l.1-.8c.2-1.2.8-6.1 1.9-14.5.2-2 .5-4 .8-6.1.3-2.1.6-3.7.8-4.9.6-1.1.8-1.8.9-1.9zm2.1 6.6s0 .3-.1.8c-.1.6-.1 1.2-.2 2.1-.1.8-.2 1.5-.2 2-.3 2.2-.5 3.5-.6 3.9v.2c0 .1.1.1.3.2.2 0 .4.1.6.1h.1c.8 0 1.2-.1 1.3-.1v-.4c0-.4 0-.8-.1-1.2-.8-5.1-1.1-7.6-1.1-7.6zm-10.9 1.4V4.5l-1.4-.1-1.3-.1v2.9c0 .5 0 1.1-.1 1.9 0 .7-.1 1.3-.1 1.7 0 .4 0 1.6-.1 3.8-.1 2.2-.1 3.9-.1 5.2l-.2 6.3 1.3-.1c.6 0 1-.1 1.2-.2.2-.1.3-.3.3-.6.3-.7.4-6 .5-15.8zM97.9.8c0-.1.9-.1 2.5-.1h1.1c1.7 0 2.8.1 3.2.1.4.1.8.3 1.3.6.8.6 1.3 1.3 1.5 2.1.2.8.3 2.4.3 4.8v1.3c0 5.2-.1 8.8-.2 10.8s-.3 4-.6 6c-.1.8-.2 1.3-.4 1.6-.1.3-.4.5-.8.8-.4.3-.8.4-1.3.5-.5.1-1.6.1-3.3.1h-4.1c-.2 0-.3-.4-.3-1.3 0-.2 0-.5.1-.9 0-.4.1-.8.1-1.1.1-1.7.1-4.8.3-9.2.3-10.6.5-15.9.6-16.1zM92 2.9V1h1.8c.8 0 1.3 0 1.5.1.2.1.3.2.3.5v1c0 .5 0 1.2-.1 2.2 0 .9 0 1.9-.1 2.8-.1 3-.1 5.9-.3 8.7 0 1.5-.1 4.4-.3 8.5-.1 3.1-.2 4.7-.3 4.8-.1.1-.5.1-1.2.1h-.5l-1.5-.1v-1.9c0-1.2.1-5.1.2-11.7.1-6.5.2-10 .2-10.5.2-.2.2-1.1.3-2.6zm-8.4-.2V.8h1.8c.8 0 1.3 0 1.5.1.2.1.3.2.3.4v.2c0 .3 0 1.9-.1 5-.1 4.3-.2 7.4-.3 9.3 0 .7-.1 2.1-.1 4.1 0 2.1-.1 3.5-.1 4.3v.8h3l.1 2.1c0 1 .1 1.6.1 1.8V29.2H89.5c-1.1 0-2.4 0-4-.1-1 0-1.8-.1-2.3-.1H83V27.1c0-1.2.1-5.1.2-11.7.1-6.5.2-10 .3-10.4v-.5-1c0-.2.1-.5.1-.8zm-9.9-1.3c.1-.1.6-.2 1.6-.2 1.6 0 2.5.1 2.5.3l.2.6v.3c0 .1.1.4.1.8.1.4.1.8.1 1.1l.5 3.5c0 .2.1.6.2 1.2s.2 1.5.4 2.5c.1 1 .3 2 .4 2.9.2 1.3.4 2.6.6 3.8.2 1.2.3 2.1.4 2.6.1.5.1 1 .2 1.4.1.5.1.8.2 1.1.3 1.9.5 2.9.5 3.2.1 1.3.3 2.3.4 2.7v.2c0 .1-.3.2-.9.2h-2.7l-.1-1.2c0-.2-.1-.8-.3-1.8-.2-1-.3-1.9-.4-2.5l-.2-3.1-1.6-.1h-.6c-.7 0-1.1.1-1.1.3 0 .2-.1 1-.3 2.3-.2 2-.4 3.2-.5 3.8l-.3 2.4H69.6l.1-.8c.2-1.2.8-6.1 1.9-14.5.2-2 .5-4 .9-6.1.3-2.1.6-3.7.8-4.9.2-1.2.3-1.9.4-2zM75.8 8s0 .3-.1.8c-.1.6-.1 1.2-.2 2.1-.1.8-.2 1.5-.2 2-.3 2.2-.5 3.5-.6 3.9v.2c0 .1.1.1.3.2.2 0 .4.1.6.1h.1c.8 0 1.2-.1 1.3-.1v-.4c0-.4 0-.8-.1-1.2-.7-5.1-1.1-7.6-1.1-7.6zM58.9 1.3c0-.2.4-.3 1.1-.3h.8l1.6.1c-.1 1.2-.2 2.8-.2 4.8-.1 2.1-.1 4.6-.2 7.6s-.1 5.3-.2 6.8v2.3c0 1.7.1 2.6.2 2.8.2.3.6.5 1.1.5.3 0 .6-.1.7-.2.3-.2.5-3.1.8-8.6.1-3.6.3-6.4.4-8.5.2-3.5.3-5.7.3-6.4v-1l2 .1c.7 0 1.1 0 1.3.1.2 0 .3.1.3.2v.2c-.1.6-.2 2.9-.3 7.2-.1 3.9-.2 6.3-.3 7.3 0 .2 0 .6-.1 1.2 0 .6-.1 1.3-.1 2.3-.1 1-.1 1.8-.1 2.4 0 .4 0 1-.1 1.5 0 .6 0 1-.1 1.3 0 .3 0 .6-.1 1 0 .4 0 .7-.1.8 0 .2-.1.4-.1.6 0 .2-.1.4-.2.6-.1.1-.1.3-.2.4-.1.1-.2.3-.3.4-.6.8-2.1 1.2-4.2 1.2h-.2c-1.9 0-3.1-.4-3.6-1.3-.6-.8-.8-2.3-.8-4.2v-1.3-1.5c0-2 .1-4.8.3-8.6.2-3.7.3-5.9.3-6.5.1-3.3.2-5 .3-5.3zm-9.7 27.8c-.7.1-1.3.1-1.8.1H45.9v-.1l.4-1.8 3.3-12.8-3.1-13s0-.1-.1-.2c0-.1-.1-.1-.1-.2 0-.2.5-.3 1.5-.3h1.8c.2.5.4 1.8.8 3.8l.9 4.5c.1-.4.2-1 .3-1.6.1-.6.2-1.1.3-1.5.1-.4.1-.6.1-.7.2-.5.4-1.3.7-2.5l.5-1.9h2c1 0 1.5.1 1.5.3 0 .1 0 .2-.1.4 0 0-.1.2-.2.6-.1.4-.3 1-.5 1.8s-.5 1.7-.7 2.6L53 14.7l3.4 14.7v.1h-.1-.1l-1.2.1h-.1c-.7 0-1.4-.1-2.1-.1l-1.9-9.4-1.1 4.4c0 .1-.2.9-.7 2.5.3 1.3.1 2.1.1 2.1zM41.7 4.8v2.5c0 1.7 0 2.9-.1 3.7v1.1h2.9v3.7l-1.6-.1h-1.6v9.5h1.4l2.2.1-.1 2.1-.1 2-3.9-.1h-2.9l.1-2.9c0-.5 0-2 .1-4.5 0-2.5.1-4.6.1-6.1.1-5.3.2-8.2.2-8.7 0-.6.1-2.9.1-6.8l3.1.1h3.2v4.2h-3.1zm-9.2 14.7v-.1c0-1-.1-1.7-.4-2-.3-.3-.6-.5-1-.6l-1.2-.3c-.4-.1-.8-.1-1-.2-1-.3-1.5-1.3-1.7-2.9v-.3-.3-1.9-2.7-.6-2.3c0-1.2.1-2 .3-2.5.4-.8 1-1.4 2-1.9.5-.2 1.2-.3 1.9-.3.9 0 1.8.1 2.5.4.9.3 1.5.6 1.7 1 .2.4.3 1.3.3 2.6V6.4c-.1 2.5-.1 3.7-.3 3.9-.1.1-.3.1-.7.1-.3 0-.6 0-1.1-.1l-1.3-.2V7.4c0-1.4 0-2.2-.1-2.6-.1-.3-.2-.5-.5-.5h-.7c-.3 0-.5.1-.6.2-.1.1-.2.4-.3.8v5.2c0 1.1.3 1.8.8 1.9 0 0 .2.1.6.2.4.1.6.2.7.2.1 0 .3.1.6.2.4.1.6.2.7.3.1.1.3.2.5.3.3.1.4.3.5.5.1.2.2.3.4.6.1.2.2.4.3.7 0 .3.1.5.1.8v5.7c0 3.5 0 5.4-.1 5.6-.1.6-.5 1.1-1.1 1.5-.4.3-.8.5-1.1.6-.3.1-.9.1-1.8.1-1.8 0-3-.3-3.6-1-.6-.6-.9-2.1-1-4.5.3-2 .2-3.2.2-3.4l3.4-.1c.1.1.2.3.3.5V26l.8-.1 1.1-.1v-3.4-.5-.8c-.1-.3-.1-.9-.1-1.6zm-17-16.6V1h1.8c.8 0 1.3 0 1.5.1.2.1.3.2.3.5v1c0 .5 0 1.2-.1 2.2 0 .9 0 1.9-.1 2.8-.1 3-.1 5.9-.3 8.7 0 1.5-.1 4.4-.2 8.5-.1 3.1-.2 4.7-.3 4.8-.1.1-.5.1-1.2.1h-.5l-1.5-.1v-1.9c0-1.2.1-5.1.2-11.7.1-6.5.2-10 .3-10.5.1-.2.1-1.1.1-2.6zM1.1 1.3c.1-.1.3-.1.7-.1.2 0 .7 0 1.4.1l1.8.1.5 3.2c1 6.6 1.5 10 1.7 10v-.1c.1-.4.6-2.6 1.2-6.8.6-4.1 1-6.2 1.2-6.4 0-.2.6-.3 1.7-.3h2l-.2 13c0 2 0 4.2-.1 6.5 0 2.3 0 4.1-.1 5.5V29.4l-1.6-.1-1.6-.1V15.4l-.4 2.3c-.4 2-.8 3.8-1 5.2-.6 3.3-.9 5-1 5.2l-1 .1c-.1-.2-.3-1.5-.6-3.9-.1-.6-.4-2.3-.8-5l-.6-3.7v8.9c0 3 0 4.6-.1 4.8l-1.8-.1H1V13.4c-.1-8 0-12.1.1-12.1z"/>
  <path class="st0" d="M129.2 51.7l.1-8.2-2.3-.1-2.2-.1-.1 2.9v2c0 .9 0 1.9-.1 3.1 0 1.2-.1 2.1-.1 2.8 0 .6-.1 2.7-.2 6.3-.1 3.6-.2 6.5-.3 8.7l-.3 10.5 2.3-.1c1.1-.1 1.7-.2 2-.3.3-.1.5-.4.6-1 .4-1.2.6-10 .6-26.5zm-10.5-14.3c0-.1 1.4-.2 4.2-.2h1.8c2.9 0 4.7.1 5.3.3.7.1 1.4.5 2.2 1 1.3 1 2.2 2.2 2.6 3.5.4 1.3.5 4 .5 8v2.1c0 8.7-.1 14.7-.3 18-.1 3.3-.5 6.6-1 10-.2 1.3-.4 2.1-.6 2.6-.3.5-.7.9-1.3 1.3-.6.4-1.3.7-2.1.8-.8.1-2.7.1-5.5.1h-6.8c-.3 0-.5-.7-.5-2.1 0-.3 0-.8.1-1.5s.1-1.3.1-1.8c.1-2.9.3-8 .4-15.3.5-17.5.8-26.5.9-26.8zm-20.2.8c.1-.3.7-.4 2-.4.5 0 .9 0 1.3.1l2.7.2c-.1 1.9-.3 4.6-.4 8.1-.1 3.4-.2 7.7-.3 12.7-.1 5-.2 8.9-.3 11.4 0 1-.1 2.3-.1 3.8 0 2.8.1 4.3.3 4.6.3.5.9.8 1.9.8.6 0 1-.1 1.2-.3.5-.3.9-5.1 1.3-14.4.2-6 .4-10.7.6-14.1.3-5.9.5-9.5.5-10.7v-1.8l3.3.1c1.2 0 1.9.1 2.2.1.3.1.4.2.4.4v.4c-.1.9-.3 4.9-.4 11.9-.1 6.4-.3 10.5-.5 12.2 0 .3-.1 1-.1 1.9 0 1-.1 2.2-.2 3.8-.1 1.6-.2 2.9-.2 4 0 .7-.1 1.6-.1 2.6s-.1 1.7-.1 2.1c0 .5 0 1-.1 1.6 0 .6-.1 1.1-.1 1.4 0 .3-.1.7-.1 1-.1.4-.1.7-.3.9-.1.2-.2.5-.3.7-.1.2-.3.5-.5.7-1.1 1.3-3.4 2-7.1 2.1h-.4c-3.1 0-5.1-.7-6-2.1-.9-1.4-1.4-3.8-1.4-7.1 0-.5 0-1.2.1-2.2 0-1 .1-1.9.1-2.5 0-3.3.2-8.1.5-14.3.3-6.2.4-9.8.4-10.8-.1-5.4 0-8.4.2-8.9zm-14.2 2.4l.1-3.2h3c1.3 0 2.1 0 2.4.1.4.1.6.4.6.8v.3c0 .5-.1 3.2-.2 8.3-.2 7.2-.3 12.4-.4 15.6 0 1.2-.1 3.5-.1 6.9 0 3.4-.1 5.8-.1 7.2V78h5l.2 3.4c.1 1.6.1 2.6.1 3v.7l-.3.1h-.4c-1.9 0-4.1-.1-6.6-.2-1.7-.1-3-.1-3.9-.2h-.2l-.1.2v-3.3c0-2.1.1-8.6.4-19.5.3-10.9.4-16.7.4-17.4v-.9c0-.4 0-1 .1-1.6v-1.7zm-16.4-2.2c.1-.2 1-.4 2.7-.4 2.7 0 4.1.2 4.2.5l.3 1c0 .1 0 .3.1.5 0 .3.1.7.2 1.3.1.7.1 1.3.2 1.9l.8 5.9c0 .2.1.9.3 2 .1 1.1.3 2.5.6 4.2.3 1.7.5 3.3.7 4.7.3 2.2.6 4.3.9 6.3.3 2 .5 3.5.6 4.3.1.9.3 1.7.4 2.5.1.7.2 1.4.3 1.8.5 3.1.8 4.9.8 5.3.3 2.2.5 3.8.7 4.6 0 .1.1.2.1.3 0 .2-.5.3-1.5.3H79l-3.1-.1-.2-1.9c0-.3-.1-1.3-.4-3-.3-1.7-.5-3.1-.6-4.2l-.5-5.3-2.8.1h-1c-1.2 0-1.8.1-1.8.4v.1c0 .4-.1 1.7-.4 3.8-.4 3.3-.7 5.4-.8 6.3l-.7 3.9H61l.2-1.3c.3-2.1 1.4-10.1 3.2-24.2.4-3.3.9-6.7 1.4-10.1.5-3.5 1-6.2 1.4-8.3.3-1.9.6-3 .7-3.2zm3.5 11s0 .5-.1 1.4c-.1.9-.3 2.1-.4 3.5-.2 1.4-.3 2.6-.4 3.4-.4 3.7-.8 5.8-1 6.5 0 0 0 .1-.1.2 0 .1-.1.1-.1.2s.2.2.6.3c.3.1.6.1 1 .1h.2c1.3 0 2-.1 2.1-.3 0 0 .1-.3.1-.7 0-.7-.1-1.4-.2-2-1.1-8.3-1.7-12.5-1.7-12.6zM53.3 68.8v-.2c0-1.7-.3-2.9-.8-3.4s-1-.9-1.6-1.1c-.6-.2-1.3-.4-2.1-.5-.8-.1-1.3-.2-1.7-.3-1.6-.6-2.5-2.2-2.8-4.9v-.6-.6c0-.8 0-1.9-.1-3.1 0-1.2-.1-2.2-.1-2.8v-1.5-1.1-3.6c0-2 .2-3.3.6-4.2.6-1.4 1.8-2.4 3.4-3.1.9-.4 1.9-.5 3.2-.5 1.5 0 3 .2 4.2.7 1.5.5 2.5 1.1 2.9 1.7.4.6.6 2.1.6 4.4v2.8c-.1 4.1-.2 6.3-.4 6.5-.1.1-.5.2-1.1.2-.5 0-1 0-1.8-.1l-1.8-.5v-4.6c0-2.3 0-3.7-.1-4.3-.1-.6-.4-.9-.8-.9-.3 0-.7-.1-1.2-.1s-.8.1-1 .3c-.3.2-.4.7-.5 1.3 0 .2-.1.6-.1 1.2v2c0 .5 0 1.2-.1 2.2 0 1-.1 1.9-.1 2.8v.5c0 1.9.5 2.9 1.4 3.2 0 0 .4.1 1.1.3.7.2 1.1.4 1.2.4.1 0 .5.2 1.1.4.6.2 1 .4 1.1.5.2.1.5.3.9.6s.7.5.9.8l.6.9c.3.4.4.7.5 1.2.1.4.1.9.1 1.4 0 2.2.1 5.4.1 9.6 0 5.8-.1 8.9-.2 9.4-.2.9-.8 1.8-1.8 2.5-.7.5-1.3.8-1.8.9-.5.1-1.5.2-3.1.2-3 0-5-.5-5.9-1.6-.9-1.1-1.5-3.6-1.6-7.5-.2-3.6-.3-5.6-.4-6l5.6-.1c.3.2.4.5.4.9s.1 1.4.1 3.1v4.8l1.4-.1 1.8-.1v-5.6-.8c0-.2 0-.7-.1-1.4 0-.5 0-1.4-.1-2.5zM25 40.9l.1-3.2H28c1.3 0 2.1.1 2.5.1.4.1.6.4.6.8v.3l-.1 1.3c0 .9-.1 2.1-.1 3.7s-.1 3.1-.1 4.6c-.1 5-.3 9.9-.4 14.5-.1 2.6-.2 7.3-.4 14.2-.2 5.2-.4 7.9-.6 8.1-.1.1-.8.2-1.9.2h-.9l-2.6-.1v-3.1c0-2.1.1-8.6.4-19.5.2-10.9.4-16.8.4-17.5.1-.3.1-1.8.2-4.4zM.9 38.2c.1-.1.5-.1 1.2-.1.4 0 1.1 0 2.3.1l3.1.2.8 5.3c1.6 11.1 2.6 16.6 2.8 16.6 0 0 .1 0 .1-.1l.1-.1c.2-.6.9-4.4 2-11.3 1.1-6.8 1.8-10.4 1.9-10.7.1-.2 1.1-.3 2.8-.3h3.4L21 59.4c0 3.4-.1 7-.1 10.9 0 3.9-.1 6.9-.1 9.2 0 2.3-.1 3.5-.1 3.7v2l-2.6-.1-2.7-.1.1-12.5.1-10.5-.7 3.8c-.7 3.4-1.3 6.3-1.7 8.7-1 5.5-1.5 8.4-1.7 8.7l-1.7.2c-.1-.3-.5-2.4-1-6.4-.2-1.1-.6-3.9-1.4-8.3l-1-6.1.1 10.6v4.2c0 5.1 0 7.7-.1 8l-3.1-.2L.9 85V58.7C.7 45.1.7 38.3.9 38.2z"/>
  <path class="st1" d="M131.3 50.7l.1-8.2-2.3-.1-2.2-.1-.1 2.9v2c0 .9 0 1.9-.1 3.1 0 1.2-.1 2.1-.1 2.8 0 .6-.1 2.7-.2 6.3-.1 3.6-.2 6.5-.3 8.7l-.1 10.4 2.3-.1c1.1-.1 1.7-.2 2-.3.3-.1.5-.4.6-1 .2-1.1.4-9.9.4-26.4m-10.5-14.3c0-.1 1.4-.2 4.2-.2h1.8c2.9 0 4.7.1 5.3.3.7.1 1.4.5 2.2 1 1.3 1 2.2 2.2 2.6 3.5.4 1.3.5 4 .5 8v2.1c0 8.7-.1 14.7-.3 18-.1 3.3-.5 6.6-1 10-.2 1.3-.4 2.1-.6 2.6-.3.5-.7.9-1.3 1.3-.6.4-1.3.7-2.1.8-.8.1-2.7.1-5.5.1h-6.8c-.3 0-.5-.7-.5-2.1 0-.3 0-.8.1-1.5s.1-1.3.1-1.8c.1-2.9.3-8 .4-15.3.5-17.6.8-26.5.9-26.8m-20.3.8c.1-.3.7-.4 2-.4.5 0 .9 0 1.3.1l2.7.2c-.1 1.9-.3 4.6-.4 8.1-.1 3.4-.2 7.7-.3 12.7-.1 5-.2 8.9-.3 11.4 0 1-.1 2.3-.1 3.8 0 2.8.1 4.3.3 4.6.3.5.9.8 1.9.8.6 0 1-.1 1.2-.3.5-.3.9-5.1 1.3-14.4.2-6 .4-10.7.6-14.1.3-5.9.5-9.5.5-10.7v-2l3.3.1c1.2 0 1.9.1 2.2.1.3.1.4.2.4.4v.4c-.1.9-.3 4.9-.4 11.9-.1 6.4-.3 10.5-.5 12.2 0 .3-.1 1-.1 1.9 0 1-.1 2.2-.2 3.8-.1 1.6-.2 2.9-.2 4 0 .7-.1 1.6-.1 2.6s-.1 1.7-.1 2.1c0 .5 0 1-.1 1.6 0 .6-.1 1.1-.1 1.4 0 .3-.1.7-.1 1-.1.4-.1.7-.3.9-.1.3-.2.5-.3.7-.1.2-.3.5-.5.7-1.1 1.3-3.4 2-7.1 2.1h-.4c-3.1 0-5.1-.7-6-2.1-.9-1.4-1.4-3.8-1.4-7.1 0-.5 0-1.2.1-2.2 0-1 .1-1.9.1-2.5 0-3.3.2-8.1.5-14.3.3-6.2.4-9.8.4-10.8 0-5.2.1-8.2.2-8.7m-14.1 2.4l.1-3.2h3c1.3 0 2.1 0 2.4.1.4.1.6.4.6.8v.3c0 .5-.1 3.2-.2 8.3-.2 7.2-.3 12.4-.4 15.6 0 1.2-.1 3.5-.1 6.9 0 3.4-.1 5.8-.1 7.2V77h5.2l.2 3.4c.1 1.6.1 2.6.1 3v.7l-.3.1h-.4c-1.9 0-4.1-.1-6.6-.2-1.7-.1-3-.1-3.9-.2h-.2l-.1.1v-3.3c0-2.1.1-8.6.4-19.5.3-10.9.4-16.7.4-17.4v-.9c0-.4 0-1 .1-1.6-.2-.6-.2-1.1-.2-1.6M70 37.4c.1-.2 1-.4 2.7-.4 2.7 0 4.1.2 4.2.5l.3 1c0 .1 0 .3.1.5 0 .3.1.7.2 1.3.1.7.1 1.3.2 1.9l.8 5.9c0 .2.1.9.3 2 .1 1.1.3 2.5.6 4.2.3 1.7.5 3.3.7 4.7.3 2.2.6 4.3.9 6.3.3 2 .5 3.5.6 4.3.1.9.3 1.7.4 2.5.1.7.2 1.4.3 1.8.5 3.1.8 4.9.8 5.3.3 2.2.5 3.8.7 4.6 0 .1.1.2.1.3 0 .2-.5.3-1.5.3h-1.3l-3.1-.1-.2-1.9c0-.3-.1-1.3-.4-3-.3-1.7-.5-3.1-.6-4.2l-.5-5.3-2.8.1h-1c-1.2 0-1.8.1-1.8.4v.1c0 .4-.1 1.7-.4 3.8-.4 3.3-.7 5.4-.8 6.3l-.7 3.9H63.1l.2-1.3c.3-2.1 1.4-10.1 3.2-24.2.4-3.3.9-6.7 1.4-10.1.5-3.5 1-6.2 1.4-8.3.3-1.9.6-3 .7-3.2m3.5 11s0 .5-.1 1.4c-.1.9-.3 2.1-.4 3.5-.2 1.4-.3 2.6-.4 3.4-.4 3.7-.8 5.8-1 6.5 0 0 0 .1-.1.2 0 .1-.1.1-.1.2s.2.2.6.3c.3.1.6.1 1 .1h.2c1.3 0 2-.1 2.1-.3 0 0 .1-.3.1-.7 0-.7-.1-1.4-.2-2-1.1-8.3-1.7-12.6-1.7-12.6M55.4 67.7v-.2c0-1.7-.3-2.9-.8-3.4s-1-.9-1.6-1.1c-.6-.2-1.3-.4-2.1-.5-.8-.1-1.3-.2-1.7-.3-1.6-.6-2.5-2.2-2.8-4.9v-.6-.6c0-.8 0-1.9-.1-3.1 0-1.2-.1-2.2-.1-2.8v-1.5-1.1V44c0-2 .2-3.3.6-4.2.6-1.4 1.8-2.4 3.4-3.1.9-.4 1.9-.5 3.2-.5 1.5 0 3 .2 4.2.7 1.5.5 2.5 1.1 2.9 1.7.4.6.6 2.1.6 4.4v2.8c-.1 4.1-.2 6.3-.4 6.5-.1.1-.5.2-1.1.2-.5 0-1 0-1.8-.1l-1.9-.4v-4.6c0-2.3 0-3.7-.1-4.3-.1-.6-.4-.9-.8-.9-.3 0-.7-.1-1.2-.1s-.8.1-1 .3c-.3.2-.4.7-.5 1.3 0 .2-.1.6-.1 1.2v2c0 .5 0 1.2-.1 2.2 0 1-.1 1.9-.1 2.8v.5c0 1.9.5 2.9 1.4 3.2 0 0 .4.1 1.1.3.7.2 1.1.4 1.2.4.1 0 .5.2 1.1.4.6.2 1 .4 1.1.5.2.1.5.3.9.6s.7.5.9.8l.6.9c.3.4.4.7.5 1.2.1.4.1.9.1 1.4 0 2.2.1 5.4.1 9.6 0 5.8-.1 8.9-.2 9.4-.2.9-.8 1.8-1.8 2.5-.7.5-1.3.8-1.8.9-.5.1-1.5.2-3.1.2-3 0-5-.5-5.9-1.6-.9-1.1-1.5-3.6-1.6-7.5-.2-3.6-.3-5.6-.4-6l5.6-.1c.3.2.4.5.4.9s.1 1.4.1 3.1v4.8l1.4-.1 1.8-.1v-5.6-.8c0-.2 0-.7-.1-1.4.1-.5 0-1.5 0-2.6M27.1 39.9l.1-3.2h2.9c1.3 0 2.1.1 2.5.1.4.1.6.4.6.8v.3l-.1 1.3c0 .9-.1 2.1-.1 3.7s-.1 3.1-.1 4.6c-.1 5-.3 9.9-.4 14.5-.1 2.6-.2 7.3-.4 14.2-.2 5.2-.4 7.9-.6 8.1-.1.1-.8.2-1.9.2h-.9l-2.5-.1v-3.1c0-2.1.1-8.6.4-19.5.2-10.9.4-16.8.4-17.5 0-.4 0-1.8.1-4.4M3 37.2c.1-.1.5-.1 1.2-.1.4 0 1.1 0 2.3.1l3.1.2.8 5.3C12 53.8 13 59.3 13.2 59.3c0 0 .1 0 .1-.1l.1-.1c.2-.6.9-4.4 2-11.3 1.1-6.8 1.8-10.4 1.9-10.7.1-.2 1.1-.3 2.8-.3h3.4l-.2 21.6c0 3.4-.1 7-.1 10.9 0 3.9-.1 6.9-.1 9.2 0 2.3-.1 3.5-.1 3.7v2l-2.6-.1-2.9-.1.1-12.5.1-10.5-.7 3.8c-.7 3.4-1.3 6.3-1.7 8.7-1 5.5-1.5 8.4-1.7 8.7l-1.7.2c-.1-.3-.5-2.4-1-6.4-.2-1.1-.6-3.9-1.4-8.3l-1-6.1L8.4 72v4.2c0 5.1 0 7.7-.1 8L5.2 84l-2.4-.2V57.5c-.1-13.4 0-20.2.2-20.3"/>
  <path class="st0" d="M134.5 96.9v-2.8h3l-.1 5.6c-.1 2.4-.1 6.7-.2 12.8l-.1 6.9h-3c0-2 .1-5.9.2-11.7.1-5.9.2-9.4.2-10.8zm2.3 24.3l.1 3.3h-2l-1.1-.1.1-3.4 2.9.2zm-9.1-9.8v-.1c0-1-.1-1.6-.4-1.9-.3-.3-.6-.5-.9-.6-.3-.1-.7-.2-1.1-.3-.4-.1-.7-.1-.9-.2-.9-.3-1.4-1.2-1.5-2.7v-.3-.3-1.7-2.5-.6-2c0-1.1.1-1.9.3-2.3.3-.8 1-1.3 1.9-1.7.5-.2 1.1-.3 1.8-.3.9 0 1.6.1 2.3.4.9.3 1.4.6 1.6 1 .2.4.3 1.2.3 2.4v1.5c-.1 2.3-.1 3.5-.2 3.6-.1.1-.3.1-.6.1s-.6 0-1-.1l-1.2-.2V100c0-1.3 0-2.1-.1-2.4-.1-.3-.2-.5-.4-.5h-.6c-.3 0-.4.1-.6.2-.1.1-.2.4-.3.7V102.9c0 1 .3 1.6.8 1.8 0 0 .2.1.6.2.4.1.6.2.7.2.1 0 .3.1.6.2s.5.2.6.3c.1.1.3.2.5.3.2.1.4.3.5.4.1.2.2.3.3.5l.3.6c0 .2.1.5.1.8v5.3c0 3.2 0 5-.1 5.2-.1.5-.5 1-1 1.4-.4.3-.7.4-1 .5-.3.1-.9.1-1.7.1-1.7 0-2.8-.3-3.3-.9-.5-.6-.8-2-.9-4.2-.1-2-.2-3.1-.2-3.3l3.1-.1c.1.1.2.3.2.5v4.4l.8-.1 1-.1v-2.8-.5-.8c-.2-.3-.3-.8-.3-1.4zm-9.6-13.7v2.3c0 1.6 0 2.7-.1 3.5v1h2.7V107.9l-1.5-.1h-1.5v8.9h1.2l2 .1-.1 2-.1 1.9-3.6-.1h-2.7l.1-2.7c0-.4 0-1.9.1-4.2 0-2.4.1-4.2.1-5.6.1-4.9.1-7.6.2-8.1 0-.6.1-2.7.1-6.3l2.9.1h3v3.9h-2.8zm-14.8-1.4v-2.1h2.4c.3 0 .5.1.6.2.1.1.1.2.2.3.1.1.1.3.1.5s.1.4.1.5c0 .2.1.4.2.8.1.3.1.6.2.9 0 .1.3 1.3.8 3.6s.9 4 1.1 5.2c.4 2.1.6 3.2.7 3.2.1 0 .1-.8.1-2.3V94.3H112.9l-.1 5.4c0 .2-.2 6.3-.5 18.1v1.3c0 .4 0 .8-.1 1v.4c0 .1-.5.1-1.4.2h-.2c-.3 0-.5 0-.6-.1-.1-.1-.2-.1-.2-.2s-.1-.3-.1-.5c-.1-.3-.1-.5-.2-.8-.1-.3-.2-.9-.5-1.9-.2-1-.4-1.7-.5-2-.2-1-.6-2.3-1-4-.4-1.7-.8-3.1-1-4.1-.3-1-.4-1.5-.5-1.5 0 0 0 .5-.1 1.6v7.4l-.1 6.1h-.3c-.2 0-.4 0-.6-.1h-2.2l.1-5.7c.2-6.2.3-9.7.3-10.6.1-3.6.2-6.4.2-8zm-7 1.3c-.5.1-.9.4-1 1.1-.1.7-.2 3-.2 6.9 0 3.2-.1 6.4-.2 9.7v1.7c0 .4 0 .6.1.7.1.1.2.2.4.3.2.1.4.1.8.1.5 0 .9-.1 1.1-.4.2-.2.3-.8.3-2 .1-1.2.1-3.7.1-7.5 0-3.1.1-6 .1-8.5v-.4c0-.7-.1-1.2-.2-1.4-.1-.3-.4-.4-.9-.4h-.2c-.1.1-.1.1-.2.1zM95 93.9c.4-.1.9-.2 1.3-.2 1.2 0 2.2.2 3 .6.5.3.9.7 1.2 1.2.2.5.4 1.9.4 4.3 0 .4 0 2.7-.1 6.9-.1 6.9-.2 10.6-.2 11.1-.2 1-.7 1.8-1.6 2.3-.9.5-2.1.8-3.5.8h-.3c-1.3 0-2.2-.3-2.6-.9-.6-.9-1-2-1-3.5v-.2l.1-8.5c.1-6.5.2-10.1.3-10.8.1-.7.4-1.4 1-1.9.4-.6 1.2-1 2-1.2zm-8.3 2v-1.8h1.6c.7 0 1.2 0 1.4.1.2.1.3.2.3.4V95.5c0 .5-.1 1.2-.1 2 0 .9-.1 1.7-.1 2.6-.1 2.8-.2 5.5-.2 8.1-.1 1.4-.1 4.1-.2 7.9-.1 2.9-.2 4.4-.3 4.5-.1.1-.5.1-1.1.1h-.4l-1.4-.1v-1.7c0-1.2.1-4.8.2-10.9.1-6.1.2-9.3.2-9.7 0-.1 0-.9.1-2.4zm-5.6 15.5v-.1c0-1-.1-1.6-.4-1.9-.3-.3-.6-.5-.9-.6-.3-.1-.7-.2-1.1-.3-.4-.1-.7-.1-.9-.2-.9-.3-1.4-1.2-1.5-2.7v-.3-.3-1.7-2.5-.6-2c0-1.1.1-1.9.3-2.3.3-.8 1-1.3 1.9-1.7.5-.2 1.1-.3 1.8-.3.9 0 1.7.1 2.4.4.9.3 1.4.6 1.6 1 .2.4.3 1.2.3 2.4v1.5c0 2.3-.1 3.5-.2 3.6-.1.1-.3.1-.6.1-.2 0-.6 0-1-.1l-1.2-.2V100c0-1.3 0-2.1-.1-2.4-.1-.3-.2-.5-.4-.5h-.6c-.2 0-.4.1-.6.2-.1.1-.2.4-.3.7V102.9c0 1 .3 1.6.8 1.8 0 0 .2.1.6.2.4.1.6.2.7.2.1 0 .3.1.6.2s.5.2.6.3c.1.1.3.2.5.3.2.1.4.3.5.4.1.2.2.3.3.5l.3.6c.1.2.1.5.1.8v5.3c0 3.2 0 5-.1 5.2-.1.5-.4 1-1 1.4-.4.3-.7.4-1 .5-.3.1-.9.1-1.7.1-1.7 0-2.8-.3-3.3-.9-.5-.6-.8-2-.9-4.2-.1-2-.2-3.1-.2-3.3l3.1-.1c.1.1.2.3.2.5v4.4l.8-.1 1-.1v-2.8-.5-.8c-.3-.3-.4-.8-.4-1.4zm-9.9-15.5v-1.8h1.6c.7 0 1.2 0 1.4.1.2.1.3.2.3.4V95.5c0 .5 0 1.2-.1 2 0 .9 0 1.7-.1 2.6-.1 2.8-.1 5.5-.2 8.1 0 1.4-.1 4.1-.2 7.9-.1 2.9-.2 4.4-.3 4.5-.1.1-.4.1-1.1.1H72l-1.4-.1v-1.7c0-1.2.1-4.8.2-10.9.1-6.1.2-9.3.2-9.7.1-.1.1-.9.2-2.4zm-8.1-2.2c.5-.2 1.1-.3 1.8-.3.2 0 .5 0 1 .1.6.1 1.2.3 1.7.6s.9.6 1.2 1c.3.5.4 1.3.4 2.5v1.2c-.1 2.3-.1 3.4-.2 3.6-.1.1-.2.1-.5.1-.1 0-.4 0-.8-.1l-1.2-.2v-2.6c0-1.2 0-1.9-.1-2.2-.1-.3-.2-.5-.5-.6-.3-.2-.5-.2-.7-.2-.3 0-.5.1-.7.3-.2.2-.3.5-.4.8-.1.5-.2 2.7-.3 6.6-.1 4-.2 7.1-.2 9.5V116.2c0 .5.1.8.1.9.1.1.3.2.7.2h.3l1 .1v-2.7-1.8c0-.2.1-.4.2-.5h2.7v3.4c-.1 2.2-.4 3.6-1 4.2-.5.6-1.7.9-3.4.9-.9 0-1.4 0-1.7-.1-.3-.1-.6-.2-1-.5-.5-.4-.9-.9-1-1.4-.1-.4-.1-2.7-.1-7.1 0-4.6.1-8.4.2-11.5.1-2.4.2-3.8.4-4.3.3-1.1 1-1.9 2.1-2.3zm-7.3 4v2.3c0 1.6 0 2.7-.1 3.5v1h2.7V107.9l-1.5-.1h-1.5v8.9h1.3l2 .1-.1 2-.1 1.9-3.6-.1h-2.7l.1-2.7c0-.4 0-1.9.1-4.2 0-2.4.1-4.2.1-5.6.1-4.9.1-7.6.2-8.1 0-.6.1-2.7.1-6.3l2.9.1h3v3.9h-2.9zm-8.6 4.2v-4.6l-1.3-.1-1.2-.1v2.7c0 .5 0 1.1-.1 1.7v1.6c0 .3 0 1.5-.1 3.5s-.1 3.6-.1 4.8l-.2 5.8 1.3-.1c.6 0 1-.1 1.1-.2.1-.1.3-.2.3-.5.1-.4.2-5.3.3-14.5zM41.3 94c0-.1.8-.1 2.3-.1h1c1.6 0 2.6.1 3 .1.4.1.8.3 1.2.6.8.6 1.2 1.2 1.4 2 .2.7.3 2.2.3 4.5v1.2c0 4.8-.1 8.2-.2 10-.1 1.8-.3 3.7-.5 5.5-.1.7-.2 1.2-.3 1.4-.1.3-.4.5-.7.7-.3.2-.7.4-1.2.4-.4.1-1.5.1-3.1.1h-3.7c-.2 0-.3-.4-.3-1.2 0-.2 0-.4.1-.9.1-.4.1-.7.1-1 .1-1.6.1-4.5.2-8.5.2-9.7.3-14.7.4-14.8zm-11.5 17.4v-.1c0-1-.1-1.6-.4-1.9-.3-.3-.6-.5-.9-.6-.3-.1-.7-.2-1.1-.3-.4-.1-.7-.1-.9-.2-.9-.3-1.4-1.2-1.5-2.7v-.3-.3-1.7-2.5-.6-2c0-1.1.1-1.9.3-2.3.3-.8 1-1.3 1.9-1.7.5-.2 1.1-.3 1.8-.3.9 0 1.6.1 2.3.4.9.3 1.4.6 1.6 1 .2.4.3 1.2.3 2.4v1.5c-.1 2.3-.1 3.5-.2 3.6-.1.1-.3.1-.6.1s-.6 0-1-.1l-1.2-.2V100c0-1.3 0-2.1-.1-2.4-.1-.3-.2-.5-.4-.5H29c-.3 0-.4.1-.6.2-.1.1-.2.4-.3.7V102.9c0 1 .3 1.6.8 1.8 0 0 .2.1.6.2.4.1.6.2.7.2.1 0 .3.1.6.2s.5.2.6.3c.1.1.3.2.5.3.2.1.4.3.5.4.1.2.2.3.3.5l.3.6c0 .2.1.5.1.8v5.3c0 3.2 0 5-.1 5.2-.1.5-.5 1-1 1.4-.4.3-.7.4-1 .5-.3.1-.9.1-1.7.1-1.7 0-2.8-.3-3.3-.9-.5-.6-.8-2-.9-4.2-.1-2-.2-3.1-.2-3.3l3.1-.1c.1.1.2.3.2.5v4.4l.8-.1 1-.1v-2.8-.5-.8c-.1-.3-.1-.8-.2-1.4zm-9.9-15.5v-1.8h1.6c.7 0 1.2 0 1.4.1.2.1.3.2.3.4V95.5c0 .5 0 1.2-.1 2 0 .9-.1 1.7-.1 2.6-.1 2.8-.1 5.5-.2 8.1-.1 1.4-.1 4.1-.2 7.9-.1 2.9-.2 4.4-.3 4.5-.1.1-.5.1-1.1.1h-.5l-1.4-.1v-1.7c0-1.2.1-4.8.2-10.9.1-6.1.2-9.3.2-9.7.2-.1.2-.9.2-2.4zM6.5 94.4s.3-.1.6-.1c.2 0 .6 0 1.3.1l1.7.1.4 2.9c.9 6.2 1.4 9.3 1.6 9.3v-.1c.1-.3.5-2.5 1.1-6.3.6-3.8 1-5.8 1.1-6 .1-.1.6-.1 1.6-.1h1.9l-.1 12c0 1.9 0 3.9-.1 6.1 0 2.1-.1 3.9-.1 5.1v3.2l-1.5-.1-1.5-.1v-12.9l-.4 2.1c-.4 1.9-.7 3.5-.9 4.8-.5 3.1-.9 4.7-.9 4.8l-1 .1c-.1-.2-.3-1.3-.6-3.6-.1-.6-.3-2.2-.8-4.7l-.6-3.4v8.3c0 2.8 0 4.3-.1 4.4l-1.7-.1-1.4-.1v-14.7c.3-7.2.3-10.9.4-11zM1.4 119c0-1.3-.1-4.5-.2-9.5S1 101 1 98.9h2.8l.2 7.2c0 1.6.1 3.5.1 6 .1 2.4.1 3.8.1 4.2l.1 5.6H1.4V119zm2.1-21.7l-2.7.1-.1-3.3 1.1-.1h1.8l-.1 3.3z"/>
  <path class="st1" d="M40.7 146c-.1-.4-.2-.9-.4-1.3-.1-.4-.2-.9-.3-1.3 0-.2-.1-.3-.1-.5s-.1-.3-.1-.5c-.1-.5-.2-.9-.3-1.4-.1-.5-.2-.9-.3-1.4 0-.1-.1-.1-.1-.2 0 0-.1-.1-.2-.1h-.1-1.3c-.1 0-.2.1-.3.1-.1.1-.1.2-.1.3.1.3.1.7.2 1 .1.4.1.7.2 1 0 .1.1.3.1.4 0 .1.1.3.1.4 0 .2.1.4.1.6 0 .2.1.4.1.7.1.3.1.7.2 1 .1.3.1.7.2 1v.8c0 .1 0 .2.1.3 0 .1.1.1.1.2.1 0 .1.1.2.1H39.9c.2 0 .3 0 .4-.1.1 0 .1 0 .2-.1l.1-.1v-.2-.3-.2c.1 0 .1-.1.1-.2m-.2-11.5c-.1-.1-.2-.3-.4-.4-.1-.1-.3-.2-.5-.3-.2-.1-.4-.2-.6-.2-.2 0-.4-.1-.7 0h-.5c-.2 0-.3 0-.5.1-.1 0-.2 0-.3.1-.1 0-.1.1-.1.3v4.5c0 .1 0 .2.1.3l.2.2c.1 0 .2.1.3.1h.3c.4 0 .7-.1 1.1-.2.3-.1.7-.3.9-.6l.3-.3c.1-.1.2-.2.3-.4.1-.2.2-.5.3-.7.1-.2.1-.5.2-.7 0-.3 0-.6-.1-.9.1-.4 0-.6-.3-.9m-3.8 9.3v-.8-.4-.6-1-1-.4-.5-.7-.7-.7V136.3v-.3-.2-.3-.8c0-.3 0-.5-.1-.8 0-.1-.1-.2-.1-.3-.1-.1-.1-.1-.3-.1h-1c-.1 0-.1 0-.2.1 0 0-.1.1-.1.2s-.1.2-.1.3v6.9c0 .3 0 .5-.1.8V146.7c0 .1 0 .1.1.2 0 .1.1.1.1.1.1 0 .1.1.2.1h1c.1 0 .3 0 .4-.1.1 0 .2 0 .3-.1.1 0 .1-.1.1-.2v-.5c-.2-.6-.2-1.5-.2-2.4m-6.9-5.1h.9c.2 0 .3-.1.4-.1.1 0 .2 0 .3-.1.1 0 .2-.1.3-.1.1-.1.2-.1.3-.2.1-.1.2-.1.2-.2.1-.1.2-.1.2-.2.2-.1.3-.3.4-.5.1-.2.2-.3.3-.5 0-.1.1-.2.1-.3v-.3-.3c0-.1 0-.2-.1-.3 0-.1-.1-.2-.1-.3-.1-.3-.3-.5-.5-.7-.2-.2-.4-.4-.7-.5 0 0-.1 0-.1-.1 0 0-.1 0-.1-.1-.2-.1-.5-.2-.7-.2h-.8c-.2 0-.3.1-.4.2-.1.1-.2.2-.2.4 0 .1 0 .3-.1.4V138.4c0 .1.1.2.1.3h.3m3.4 3.2c0-.1-.1-.2-.1-.3 0-.1 0-.2-.1-.3 0-.2-.1-.4-.2-.5-.1-.2-.2-.3-.3-.5l-.2-.2c-.1-.1-.1-.2-.2-.2-.2-.2-.5-.4-.8-.5-.3-.1-.6-.2-.9-.2h-.6c-.2 0-.3 0-.4.1-.1.1-.1.2-.2.3 0 .1 0 .2-.1.2v7.6c0 .1.1.1.2.2h.8c.1 0 .3-.1.4-.1.1 0 .2-.1.3-.1.1-.1.2-.2.4-.2.1-.1.2-.2.3-.2.1-.1.2-.1.2-.2.2-.2.4-.3.5-.5.2-.2.3-.4.5-.7.1-.2.2-.5.2-.7.1-.3.1-.5.1-.7v-.6c0-.2 0-.4-.1-.6.4-.7.4-.9.3-1.1m-4.3-1.8v-.3-.4-.5-.5-.4-.6-.7-.7-.6-.4-.2-.7c0-.1 0-.2-.1-.3 0-.1-.1-.1-.2-.2h-.7c-.2 0-.4 0-.6.1-.1 0-.2 0-.3.1-.1 0-.1.1-.1.3v12.8c0 .1 0 .1.1.2 0 0 .1.1.2.1h1.5c.1 0 .1 0 .2-.1.1 0 .1 0 .1-.1 0 0 .1-.1.1-.2v-.1-.1-.6-.6-.4-.4c0-.6 0-1.3-.1-1.9v-.5-.7-.7-.6c-.1.1-.1-.1-.1-.1m-4-6.3l-.1-.1c-.2-.1-.5-.1-.7-.1-.2 0-.4.1-.6.3-.2.1-.3.3-.3.5-.1.2-.1.4-.1.6 0 .2.1.3.2.4.1.1.2.2.4.3.1.1.3.1.5.1h.4c.1 0 .1 0 .2-.1.2-.1.3-.2.4-.3.1-.1.1-.3.2-.5v-.5c0-.2-.1-.3-.1-.4-.2-.1-.3-.2-.4-.2m.3 12.5v-1-.9-.9-.2-.4-.9-.7-2.1-1.1-1.4c0-.1 0-.2-.1-.2 0-.1-.1-.1-.2-.1h-1.2-.1-.1s-.1 0-.1.1l-.1.1V146.7c0 .2 0 .3.1.5 0 .1 0 .1.1.2 0 0 .1.1.2.1.2 0 .5.1.8.1.3 0 .5 0 .8-.1.1 0 .1 0 .2-.1 0 0 .1-.1.1-.2v-.2-.2-.2c-.4-.1-.4-.2-.4-.3m-3.6-1.9H19.2v-.2-.4-.4-.6-.6-.1-.2-.3-.8-.4-.4-.4-.4-.6c0-.2 0-.4-.1-.6v-.5-.5-1c0-.3 0-.7-.1-1 0-.1 0-.1-.1-.1 0 0-.1 0-.1-.1-.3-.1-.5-.1-.8-.1-.2 0-.5 0-.7.1-.1 0-.1 0-.1.1l-.1.1V145.9c0 .1 0 .1.1.2 0 0 .1.1.2.1H21.5c.1 0 .2 0 .3-.1.1 0 .1-.1.2-.2 0-.1.1-.1.1-.2v-.3-.4V144.4v-.2c-.3.3-.4.2-.5.2"/>
  <path class="st1" d="M62.3 144.9c0-.1-.1-.2-.1-.3 0-.1-.1-.1-.2-.1s-.3-.1-.5-.1h-2.2v-.2-.2-.2-.5-.5h1c.3 0 .7 0 1 .1h.4c.1 0 .1-.1.1-.2 0-.2 0-.4.1-.6 0-.2 0-.4.1-.6v-.1-.1c-.1-.2-.2-.3-.4-.3h-2.2v-.2-.4-.5-.1-.1c0-.2.1-.4.1-.7v-.7-.6-.6-.2-.2H61.6c.2 0 .4-.1.7-.1.1 0 .1 0 .2-.1l.1-.1v-.4-.3-.4-.1c0-.1-.1-.2-.1-.3 0-.1-.1-.1-.3-.1-.1 0-.3 0-.5-.1H58.7c-.2 0-.4 0-.6.1-.1 0-.2.1-.3.2-.1 0-.1 0-.1.1v1.9c0 .2 0 .4.1.7 0 .2 0 .4.1.6V146.1c0 .1 0 .1.1.1H61.8c.2 0 .4-.1.6-.1.1 0 .1 0 .2-.1l.1-.1V145.6v-.3-.3l-.4-.1"/>
  <path class="st1" d="M51.3 141.7v4.4c0 .1.1.2.1.2s0 .1.1.1h.9c.2 0 .4-.1.7-.2l.6-.3c.2-.1.4-.2.5-.3.2-.1.3-.2.4-.3l.3-.3c.1-.1.2-.3.4-.5.1-.2.3-.5.4-.7.1-.2.2-.4.2-.6 0-.1.1-.3.1-.4 0-.1.1-.3.1-.4.1-.3.1-.5.1-.8v-.8-.3c0-.1 0-.3-.1-.5 0-.2 0-.4-.1-.6 0-.2-.1-.4-.1-.6 0-.2-.1-.3-.1-.4-.1-.2-.1-.4-.2-.6-.1-.2-.1-.3-.2-.5-.1-.1-.2-.3-.3-.5-.1-.1-.2-.3-.3-.4-.1-.1-.2-.3-.4-.4-.1-.1-.3-.3-.5-.4-.3-.2-.5-.3-.7-.4-.2-.1-.3-.1-.3-.1-.1 0-.2-.1-.3-.1-.1 0-.3 0-.4-.1H51.6c-.1 0-.1.1-.2.1v6.7z"/>
  <path class="st1" d="M47 144.9c0-.1-.1-.2-.1-.3 0-.1-.1-.1-.2-.1s-.3-.1-.5-.1H44v-.2-.2-.2-.5-.5h1c.3 0 .7 0 1 .1h.4c.1 0 .1-.1.1-.2 0-.2 0-.4.1-.6 0-.2 0-.4.1-.6v-.1-.1c-.1-.2-.2-.3-.4-.3H44V139.7c0-.2.1-.4.1-.7v-.7-.6-.8-.2H46.2c.2 0 .4-.1.7-.1.1 0 .1 0 .2-.1l.1-.1v-.1-.1-.3-.4-.1c0-.1-.1-.2-.1-.3 0-.1-.1-.1-.3-.1-.1 0-.3 0-.5-.1H43.3c-.2 0-.4 0-.6.1-.1 0-.2.1-.3.2-.1 0-.1 0-.1.1v1.9c0 .2 0 .4.1.7 0 .2 0 .4.1.6v7.9h.6-.1 3.1c.2 0 .4-.1.6-.1.1 0 .1 0 .2-.1l.1-.1V145.8v-.3-.6"/>
  <path class="st1" d="M75.6 133.8l-.1-.1c-.2-.1-.5-.1-.7-.1-.2 0-.4.1-.6.3-.2.1-.3.3-.3.5-.1.2-.1.4-.1.6 0 .2.1.3.2.4.1.1.2.2.4.3.2.1.3.1.5.1h.4c.1 0 .1 0 .2-.1.2-.1.3-.2.4-.3.1-.1.1-.3.2-.4v-.5c0-.2-.1-.3-.1-.4-.2-.1-.3-.2-.4-.3m.3 12.6v-1-.9-.9-.2-.4-.5-1.1-1-2.2-1.4c0-.1 0-.2-.1-.2 0-.1-.1-.1-.3-.1h-1.2-.1-.1c-.1 0-.1 0-.1.1l-.1.1V146.8c0 .2 0 .3.1.4 0 .1 0 .1.1.2 0 0 .1.1.2.1h1.6c.1 0 .1 0 .2-.1 0 0 .1-.1.1-.2v-.2-.2-.2c-.3-.1-.3-.1-.3-.2M72.6 134c0-.1 0-.1-.1-.1h-1.1-.5c-.1 0-.2 0-.3.1-.1.1-.1.1-.1.2s0 .2-.1.2c0 .1 0 .2-.1.2-.1.3-.1.6-.2.8-.1.3-.1.6-.2.8-.1.2-.1.4-.2.7 0 .2-.1.5-.1.7 0 .3-.1.7-.1 1-.1.3-.1.7-.2 1-.1.3-.1.5-.2.8s-.1.6-.1.9c0 .1-.1.2-.1.3 0 .1 0 .2-.1.3 0-.1 0-.2-.1-.3 0-.1 0-.2-.1-.3-.1-.3-.1-.5-.2-.8-.1-.3-.1-.5-.2-.8-.1-.3-.1-.7-.2-1-.1-.3-.1-.7-.1-1 0-.2-.1-.5-.1-.7 0-.2-.1-.4-.1-.7-.1-.6-.2-1.1-.4-1.7 0-.1 0-.2-.1-.2 0-.1 0-.2-.1-.2 0-.1-.1-.2-.2-.2-.1-.1-.2-.1-.3-.1H65l-.1.1v.4c.1.2.1.5.1.7 0 .2.1.5.1.7v.2c0 .1 0 .2.1.3.1.2.1.4.2.6.1.2.1.4.2.7 0 .1.1.2.1.3v.3c0 .3.1.5.1.8s.1.6.2.8c0 .1.1.2.1.4 0 .1.1.2.1.4.1.3.1.5.2.8 0 .2 0 .3.1.5 0 .2.1.3.1.5.1.3.1.5.2.8.1.2.1.5.2.7.1.2.1.5.2.8 0 .1 0 .2.1.3 0 .2.1.3.1.5.1.2.1.4.2.6.1.2.1.4.1.5 0 .1.1.2.1.3v.2c0 .1.1.2.1.2.1.1.1.2.3.2.1.1.3.1.5.1h.2c.2 0 .4 0 .6-.1l.3-.3c.1-.1.1-.2.1-.2v-.2c0-.1 0-.2.1-.4 0-.1.1-.3.1-.4 0-.1 0-.2.1-.3 0-.3.1-.6.2-.8.1-.3.2-.5.2-.8.1-.3.2-.5.2-.8 0-.1 0-.2.1-.4 0-.2.1-.5.2-.8.1-.3.1-.7.2-1.1.1-.4.2-.8.2-1.2.1-.4.1-.7.2-1.1.1-.3.1-.6.2-.8 0-.2.1-.3.1-.4.1-.2.1-.4.2-.7.1-.2.1-.4.2-.6 0-.1 0-.2.1-.3 0-.1 0-.2.1-.2 0-.2.1-.5.1-.7 0-.2 0-.5.1-.7v-.2c-.2 0-.2-.1-.2-.1"/>
  <path class="st1" d="M101 139.7c.1.3.2.5.2.7.1.2.2.5.2.8l.3 1.2.3 1.2c.1.4.2.8.2 1.2 0 .2.1.4.1.6 0 .2.1.4.1.6 0 .2.1.4.1.6 0 .1 0 .2.1.2l.2.2.1.1h.2c.2 0 .3 0 .4.1H104.5c.1 0 .2 0 .3-.1.1 0 .2-.1.2-.2v-.3-1.2-.6-.9-.9-.7-.3-.6-.7-.6-.3-1.1-1-1-1.1-.8c0-.3 0-.5.1-.8 0-.1 0-.2-.1-.3-.1-.1-.2-.2-.4-.2h-1.2c-.1 0-.2 0-.3.1-.1 0-.1.1-.1.1v7.7c0 .1 0 .1-.1.1 0-.1-.1-.2-.1-.3 0-.1-.1-.2-.1-.3 0-.1-.1-.3-.1-.5-.1-.2-.1-.5-.2-.8-.1-.3-.1-.6-.2-.9-.1-.3-.2-.6-.2-.9-.1-.3-.1-.5-.2-.7 0-.2-.1-.3-.1-.4-.1-.3-.1-.5-.2-.8-.1-.3-.2-.5-.2-.8 0-.1-.1-.3-.1-.5s-.1-.4-.1-.6c0-.2-.1-.4-.1-.5-.1-.1-.1-.2-.2-.3h-.1H99.1c-.1 0-.2.1-.3.1 0 0-.1 0-.1.1 0 0 0 .1-.1.1V146.7l.1.1s.1 0 .1.1c0 0 .1 0 .1.1.2 0 .3.1.4.1h.9c.1 0 .1 0 .2-.1.1 0 .1-.1.1-.2s.1-.2.1-.3v-.7-.4-.8-.6-.6-.6-.4-.7-.7-.4-.5-.4c.2.3.3.2.4 0-.1 0-.1 0 0 0m-3.2 5.2c0-.1-.1-.2-.1-.3 0-.1-.1-.1-.2-.1s-.3-.1-.5-.1h-2.2v-.2-.2-.2-.5-.5h1c.3 0 .7 0 1 .1h.4c.1 0 .1-.1.1-.2 0-.2 0-.4.1-.6v-.7-.1c0-.2-.2-.2-.4-.3h-2.2v-.2-.4-.4-.1-.1c0-.2.1-.4.1-.7v-.7-.6-.6-.2-.2H97c.2 0 .4-.1.7-.1.1 0 .1 0 .2-.1l.1-.1v-.2-.3-.4-.1c0-.1-.1-.2-.1-.3-.1-.1-.1-.1-.3-.1-.1 0-.3-.1-.5-.1H94.1c-.2 0-.4 0-.6.1-.1 0-.2.1-.3.2-.1 0-.1 0-.1.1v1.9c0 .2 0 .4.1.7 0 .2 0 .4.1.6V146.4c0 .1 0 .1.1.1h3.9c.2 0 .4-.1.6-.1.1 0 .1 0 .2-.1l.1-.1V145.9v-.3-.3l-.4-.4c0 .1 0 0 0 0m-6.2-.4H89.2v-.2-.4-.4-.6-.6-.1-.2-.3-.4-.4-.4-.7-.4-.6-.6-.4-.5-1c0-.3 0-.7-.1-1v-.1l-.1-.1c-.3-.1-.5-.1-.8-.1-.3 0-.5 0-.8.1-.1 0-.1 0-.1.1l-.1.1V146.3s.1.1.2.1h4.2c.1 0 .2 0 .3-.1.1 0 .1-.1.2-.2 0-.1.1-.1.1-.2v-.3-.4-.4-.3-.2c-.3.2-.4.2-.6.2m-10.2-7.6v-.1-.3-.3c0-.1 0-.1-.1-.2l-.1-.1h-.7c-.2 0-.3.1-.5.2s-.3.2-.5.3c-.2.1-.3.2-.5.3l-.3.3-.3.3c-.1.1-.2.2-.3.4-.1.2-.2.4-.3.5-.1.2-.2.3-.2.5 0 .1-.1.2-.1.3 0 .1-.1.2-.1.3 0 .2-.1.4-.1.7V141.3c0 .2 0 .3.1.5 0 .2 0 .3.1.4 0 .1 0 .3.1.3.1.2.1.3.2.5.1.1.1.3.2.4.1.1.2.2.3.4.1.2.2.3.4.5s.4.3.6.5l.6.3c.1.1.2.1.3.1.1 0 .2.1.3.1.1 0 .2 0 .3.1h.6v-.1-.1-.1-.3-.3-.3-.5-.6-.5-.3-.3-.6-.7-1.7-1.6-.5m4.7 3.7v-.2-.4c0-.2 0-.3-.1-.5 0-.2 0-.3-.1-.5 0-.1 0-.3-.1-.3 0-.2-.1-.3-.2-.5-.1-.1-.1-.2-.2-.4-.1-.1-.2-.2-.3-.4-.1-.2-.2-.3-.4-.5s-.4-.3-.6-.5l-.6-.3c-.1-.1-.2-.1-.3-.1-.1 0-.2-.1-.4-.1s-.3 0-.4-.1h-.3-.1V145.3c0 .1 0 .1.1.2 0 0 .1.1.2.1h.6c.2 0 .3-.1.5-.2s.3-.2.5-.3c.2-.1.3-.2.4-.3l.3-.3.3-.3c.1-.1.2-.2.3-.4.1-.2.2-.4.3-.5.1-.2.2-.3.2-.5 0-.1.1-.2.1-.3 0-.1.1-.2.1-.3.1-.2.1-.4.1-.7.1-.5.1-.7.1-.9"/>
  <path class="st1" d="M122.2 138.3c0-.4-.1-.7-.2-1.1-.1-.3-.2-.7-.3-1-.1-.2-.2-.4-.3-.5-.1-.2-.3-.3-.5-.4-.1 0-.1-.1-.2-.1s-.1-.1-.2-.1c-.3-.2-.6-.3-.9-.3h-.9c-.2.1-.4.1-.6.3-.2.1-.4.3-.5.5l-.2.2c-.1.1-.1.2-.2.3-.1.1-.2.3-.3.6-.1.3-.2.6-.2 1V138.3c0 .1 0 .2.1.3 0 .1.1.2.2.3.1.1.3.1.5.2h.6c.1 0 .2 0 .3-.1.1 0 .1-.1.1-.2s0-.1.1-.2c0-.2 0-.4.1-.6 0-.2.1-.4.2-.5 0 0 0-.1.1-.2 0-.1.1-.2.1-.2.1-.1.1-.2.2-.2.1-.1.2-.1.3-.1.1 0 .3 0 .4.1l.3.3c.1.1.1.2.1.3 0 .1.1.2.1.3 0 .2.1.4.1.6 0 .2.1.4.1.6V139.8h-1.3c-.2 0-.5.1-.7.1-.2 0-.4.1-.5.1-.2 0-.3.1-.5.2-.1 0-.2.1-.3.1-.1.1-.2.1-.3.2-.1.1-.2.1-.3.2-.2.2-.3.4-.4.6-.1.2-.2.4-.2.7v.9c0 .3.1.5.3.8.1.3.3.5.6.7.2.2.5.4.9.5h.2c.1 0 .3.1.4.1.2 0 .3.1.5.1h1.4v.5c0 .2 0 .3.1.4.1.1.2.2.4.2.2.1.4.1.6.1h.6c.1 0 .1 0 .2-.1 0-.1.1-.1.1-.2v-.2-.1-.6-.6-.6-.3-.3c0-.5 0-1.1.1-1.6v-1.6-1c-.4-.1-.4-.5-.4-.8m-7.8-4.5s-.1 0 0 0c-.3-.1-.6-.2-.8-.1-.2 0-.4.1-.6.3-.2.1-.3.3-.3.5-.1.2-.1.4-.1.6 0 .2.1.3.2.4.1.1.2.2.4.3.2.1.3.1.5.1h.4c.1 0 .1 0 .2-.1.2-.1.3-.2.4-.3.1-.1.1-.3.2-.4v-.5c0-.2-.1-.3-.1-.4l-.4-.4m.3 12.6v-1-.9-.9-.2-.4-.5-1.1-1-2.2-1.4c0-.1 0-.2-.1-.2 0-.1-.1-.1-.3-.1h-1.2-.1-.1c-.1 0-.1 0-.1.1l-.1.1V146.8c0 .2 0 .3.1.4 0 .1 0 .1.1.2 0 0 .1.1.2.1h1.6c.1 0 .1 0 .2-.1 0 0 .1-.1.1-.2v-.2-.2-.2c-.3-.1-.3-.1-.3-.2m-3.8-12.4s0-.1 0 0c-.1-.1-.1-.2-.2-.2s-.2-.1-.3-.1c-.1 0-.3 0-.5.1s-.4.1-.5.2c-.1.1-.3.1-.4.2-.1.1-.2.2-.4.3-.1.1-.3.2-.4.4l-.2.2-.7.7c-.2.3-.4.7-.7 1.1-.1.2-.2.4-.3.7-.1.2-.2.5-.2.8-.1.2-.1.4-.1.7 0 .2-.1.4-.1.6V142.1c0 .2.1.5.1.8 0 .3.1.7.3 1.1.1.4.3.8.6 1.2.3.4.6.8 1 1.2.3.3.7.6 1 .8.3.2.7.4 1 .4h.2c.2 0 .3 0 .4-.1.1-.1.2-.2.3-.4.1-.2.1-.4.2-.6v-.5c0-.1 0-.2-.1-.2 0 0-.1-.1-.2-.1h-.1c-.1 0-.3-.1-.4-.1-.1-.1-.3-.2-.5-.3-.2-.1-.4-.3-.6-.4-.2-.1-.3-.3-.4-.5-.1-.2-.2-.4-.4-.7 0-.1-.1-.2-.1-.3-.1-.1-.1-.3-.2-.5s-.1-.4-.2-.5c0-.2-.1-.3-.1-.4v-.1-.2-.1c-.1-.4-.1-.7 0-1.1 0-.4.1-.8.2-1.2 0-.1.1-.2.1-.3 0-.1.1-.2.1-.3.2-.5.5-1 .7-1.4.3-.4.6-.7.9-.9.1 0 .1-.1.1-.1l.1-.1.1-.1s.1-.1.2-.1c.2-.1.3-.2.4-.2l.2-.2c0-.1.1-.1.1-.2v-.5c0-.2-.1-.3-.1-.4.2-.4.2-.4.1-.5"/>
  <path class="st1" d="M133.8 97v-2.8h3l-.1 5.6c-.1 2.5-.1 6.7-.2 12.8l-.1 6.9h-3c0-2 .1-5.9.2-11.7.1-5.9.2-9.4.2-10.8m2.3 24.3l.1 3.3h-2l-1.1-.1.1-3.4 2.9.2zm-9.1-9.8v-.1c0-1-.1-1.6-.4-1.9-.3-.3-.6-.5-.9-.6-.3-.1-.7-.2-1.1-.3-.4-.1-.7-.1-.9-.2-.9-.3-1.4-1.2-1.5-2.7v-.3-.3-1.8V100.9v-.6-2c0-1.1.1-1.9.3-2.3.3-.8 1-1.3 1.9-1.7.5-.2 1.1-.3 1.8-.3.9 0 1.6.1 2.3.4.9.3 1.4.6 1.6.9.2.4.3 1.2.3 2.5v1.5c-.1 2.3-.1 3.5-.2 3.6-.1.1-.3.1-.6.1s-.6 0-1-.1l-1.2-.2v-2.6c0-1.3 0-2-.1-2.4-.1-.3-.2-.5-.4-.5h-.6c-.3 0-.4.1-.6.2-.1.1-.2.4-.3.7V103c0 1 .3 1.6.8 1.8 0 0 .2.1.6.2.4.1.6.2.7.2.1 0 .3.1.6.2s.5.2.6.3c.1.1.3.2.5.3.2.2.4.3.5.4.1.2.2.3.3.5l.3.6c0 .2.1.5.1.8v5.3c0 3.2 0 5-.1 5.2-.1.5-.5 1-1 1.4-.4.3-.7.4-1 .5-.3.1-.9.1-1.7.1-1.7 0-2.8-.3-3.3-.9s-.8-2-.9-4.2c-.1-2-.2-3.1-.2-3.3l3.1-.1c.1.1.2.3.2.5v4.4l.8-.1 1-.1V113.8v-.5-.8c-.2.1-.2-.4-.3-1m-9.6-13.7v2.3c0 1.5 0 2.7-.1 3.5v1h2.7V108l-1.5-.1H117v8.9h1.2l2 .1-.1 2-.1 1.9-3.6-.1h-2.7l.1-2.7c0-.5 0-1.9.1-4.2 0-2.4.1-4.2.1-5.6.1-5 .1-7.7.2-8.1 0-.6.1-2.7.1-6.3l2.9.1h3v3.9h-2.8zm-14.8-1.4v-2.1h2.4c.3 0 .5.1.6.2.1.1.1.2.2.3.1.1.1.3.1.5s.1.4.1.5c0 .2.1.4.2.8.1.3.1.6.2.9 0 .1.3 1.3.8 3.6s.9 4 1.1 5.1c.4 2.1.6 3.2.7 3.2.1 0 .1-.8.1-2.3V94.4H112.2l-.1 5.4c0 .2-.2 6.3-.5 18.2v1.3c0 .5 0 .8-.1 1.1v.4c0 .1-.5.1-1.4.2h-.2c-.3 0-.5 0-.6-.1-.1-.1-.2-.1-.2-.2s-.1-.3-.1-.5c-.1-.3-.1-.5-.2-.8-.1-.2-.2-.9-.5-1.9-.2-1-.4-1.7-.5-2-.2-1-.6-2.3-1-4-.4-1.7-.8-3.1-1-4.1-.3-1-.4-1.5-.5-1.5 0 0 0 .5-.1 1.6v7.4l-.1 6.1h-.3c-.2 0-.4 0-.6-.1H102l.1-5.7c.2-6.2.3-9.7.3-10.6.1-3.8.2-6.6.2-8.2m-6.9 1.3c-.5 0-.9.4-1 1.1-.1.7-.2 3-.2 6.9 0 3.2-.1 6.4-.2 9.7v1.7c0 .4 0 .6.1.7.1.1.2.2.4.3.2.1.4.1.8.1.5 0 .9-.1 1.1-.4.2-.2.3-.8.3-2 .1-1.2.1-3.7.1-7.5 0-3.1.1-6 .1-8.5v-.4c0-.7-.1-1.2-.2-1.4-.1-.3-.4-.4-.9-.4h-.2l-.2.1M94.3 94c.4-.1.9-.2 1.3-.2 1.2 0 2.2.2 3 .6.5.3.9.7 1.2 1.2.2.5.4 1.9.4 4.3 0 .4 0 2.7-.1 6.9-.1 6.9-.2 10.6-.2 11.1-.2 1-.7 1.8-1.6 2.3-.9.5-2.1.8-3.5.8h-.3c-1.3 0-2.2-.3-2.6-1-.6-.8-1-2-1-3.5v-.2l.1-8.3c.1-6.5.2-10.1.3-10.9.1-.7.4-1.4 1-1.9.5-.6 1.2-1 2-1.2M86 96v-1.8h1.6c.7 0 1.2 0 1.4.1.2.1.3.2.3.4V95.6c0 .5-.1 1.2-.1 2 0 .9-.1 1.7-.1 2.6-.1 2.8-.2 5.5-.2 8.1-.1 1.4-.1 4.1-.2 7.9-.1 2.9-.2 4.4-.3 4.5-.1.1-.5.1-1.1.1h-.4l-1.4-.1V119c0-1.1.1-4.8.2-10.9.1-6.1.2-9.3.2-9.7 0-.1 0-1 .1-2.4m-5.6 15.5v-.1c0-1-.1-1.6-.4-1.9-.3-.3-.6-.5-.9-.6-.3-.1-.7-.2-1.1-.3-.4-.1-.7-.1-.9-.2-.9-.3-1.4-1.2-1.5-2.7v-.3-.3-1.8V100.9v-.6-2c0-1.1.1-1.9.3-2.3.3-.8 1-1.3 1.9-1.7.5-.2 1.1-.3 1.8-.3.9 0 1.7.1 2.4.4.9.3 1.4.6 1.6.9.2.4.3 1.2.3 2.5v1.5c0 2.3-.1 3.5-.2 3.6-.1.1-.3.1-.6.1-.2 0-.6 0-1-.1l-1.2-.2v-2.6c0-1.3 0-2-.1-2.4-.1-.3-.2-.5-.4-.5h-.6c-.2 0-.4.1-.6.2-.1.1-.2.4-.3.7V103c0 1 .3 1.6.8 1.8 0 0 .2.1.6.2.4.1.6.2.7.2.1 0 .3.1.6.2s.5.2.6.3c.1.1.3.2.5.3.2.2.4.3.5.4.1.2.2.3.3.5l.3.6c.1.2.1.5.1.8v5.3c0 3.2 0 5-.1 5.2-.1.5-.4 1-1 1.4-.4.3-.7.4-1 .5-.3.1-.9.1-1.7.1-1.7 0-2.8-.3-3.3-.9-.5-.6-.8-2-.9-4.2-.1-2-.2-3.1-.2-3.3l3.1-.1c.1.1.2.3.2.5v4.4l.8-.1 1-.1V113.8v-.5-.8c-.3.1-.4-.4-.4-1M70.5 96v-1.8h1.6c.7 0 1.2 0 1.4.1.2.1.3.2.3.4V95.6c0 .5 0 1.2-.1 2 0 .9-.1 1.7-.1 2.6-.1 2.8-.1 5.5-.2 8.1 0 1.4-.1 4.1-.2 7.9-.1 2.9-.2 4.4-.3 4.5-.1.1-.4.1-1.1.1h-.5l-1.4-.1V119c0-1.1.1-4.8.2-10.9.1-6.1.2-9.3.2-9.7.1-.1.2-1 .2-2.4m-8.1-2.2c.5-.2 1.1-.3 1.8-.3.2 0 .5 0 1 .1.6.1 1.2.3 1.7.6s.9.6 1.2 1c.3.5.4 1.3.4 2.5v1.2c-.1 2.3-.1 3.4-.2 3.5-.1.1-.2.1-.5.1-.1 0-.4 0-.8-.1l-1.2-.2v-2.6c0-1.2 0-1.9-.1-2.2-.1-.3-.2-.5-.5-.6-.3-.2-.5-.2-.7-.2-.3 0-.5.1-.7.3-.2.2-.3.5-.4.8-.1.5-.2 2.7-.3 6.7-.1 4-.2 7.1-.2 9.5V116.3c0 .5.1.8.1.9.1.1.3.2.7.2h.3l1 .1v-2.7-1.8c0-.2.1-.4.2-.5H68v3.4c-.1 2.2-.4 3.6-1 4.2-.5.6-1.7.9-3.4.9-.9 0-1.4 0-1.7-.1-.3-.1-.6-.2-1-.5-.5-.4-.9-.9-1-1.4-.1-.4-.1-2.7-.1-7.1 0-4.5.1-8.4.2-11.5.1-2.4.2-3.8.4-4.3.2-1.1 1-1.9 2-2.3m-7.3 4v2.3c0 1.5 0 2.7-.1 3.5v1h2.7V108l-1.5-.1h-1.5v8.9H56l2 .1-.1 2-.1 1.9-3.6-.1h-2.7l.1-2.7c0-.5 0-1.9.1-4.2 0-2.4.1-4.2.1-5.6.1-5 .1-7.7.2-8.1 0-.6.1-2.7.1-6.3l2.9.1h3v3.9h-2.9zm-8.6 4.2v-4.6l-1.3-.1H44v2.7c0 .5 0 1.1-.1 1.7v1.6c0 .3 0 1.5-.1 3.5s-.1 3.6-.1 4.8l-.2 5.8 1.3-.1c.6-.1 1-.1 1.1-.2.1-.1.2-.3.3-.5.1-.5.2-5.4.3-14.6m-5.9-7.9c0-.1.8-.1 2.3-.1h1c1.6 0 2.6.1 3 .1.4.1.8.3 1.2.6.8.6 1.2 1.2 1.4 1.9.2.7.3 2.2.3 4.5v1.2c0 4.8-.1 8.2-.2 10-.1 1.8-.3 3.7-.5 5.6-.1.7-.2 1.2-.3 1.4-.1.3-.4.5-.7.7-.3.3-.7.4-1.2.5-.4.1-1.5.1-3.1.1H40c-.2 0-.3-.4-.3-1.2 0-.2 0-.4.1-.9.1-.4.1-.7.1-1 .1-1.6.1-4.5.2-8.5.3-9.8.4-14.8.5-14.9m-11.4 17.4v-.1c0-1-.1-1.6-.4-1.9-.3-.3-.6-.5-.9-.6-.3-.1-.7-.2-1.1-.3-.4-.1-.7-.1-.9-.2-.9-.3-1.4-1.2-1.5-2.7v-.3-.3-1.8V100.9v-.6-2c0-1.1.1-1.9.3-2.3.3-.8 1-1.3 1.9-1.7.5-.2 1.1-.3 1.8-.3.9 0 1.6.1 2.3.4.9.3 1.4.6 1.6.9.2.4.3 1.2.3 2.5v1.5c-.1 2.3-.1 3.5-.2 3.6-.1.1-.3.1-.6.1s-.6 0-1-.1l-1.2-.2v-2.6c0-1.3 0-2-.1-2.4-.1-.3-.2-.5-.4-.5h-.7c-.3 0-.4.1-.6.2-.1.1-.2.4-.3.7V103c0 1 .3 1.6.8 1.8 0 0 .2.1.6.2.4.1.6.2.7.2.1 0 .3.1.6.2s.5.2.6.3c.1.1.3.2.5.3.2.2.4.3.5.4.1.2.2.3.3.5l.3.6c0 .2.1.5.1.8v5.3c0 3.2 0 5-.1 5.2-.1.5-.5 1-1 1.4-.4.3-.7.4-1 .5-.3.1-.9.1-1.7.1-1.7 0-2.8-.3-3.3-.9-.5-.6-.8-2-.9-4.2-.1-2-.2-3.1-.2-3.3l3.1-.1c.1.1.2.3.2.5v4.4l.8-.1 1-.1V113.8v-.5-.8c-.2.1-.2-.4-.2-1M19.2 96v-1.8h1.6c.7 0 1.2 0 1.4.1.2.1.3.2.3.4V95.6c0 .5 0 1.2-.1 2 0 .9-.1 1.7-.1 2.6-.1 2.8-.1 5.5-.2 8.1-.1 1.4-.1 4.1-.2 7.9-.1 2.9-.2 4.4-.3 4.5-.1.1-.5.1-1.1.1H20l-1.4-.1V119c0-1.1.1-4.8.2-10.9.1-6.1.2-9.3.2-9.7.2-.1.2-1 .2-2.4M5.8 94.5c0-.1.3-.1.6-.1.2 0 .6 0 1.3.1l1.7.1.4 3c.9 6.2 1.4 9.3 1.6 9.3v-.1c.1-.3.5-2.4 1.1-6.3.6-3.8 1-5.8 1.1-6 .1-.1.6-.1 1.6-.1h1.9l-.1 12c0 1.9 0 3.9-.1 6.1 0 2.2-.1 3.9-.1 5.1v3.2l-1.5-.1-1.5-.1v-12.9l-.4 2.1c-.4 1.9-.7 3.5-.9 4.9-.5 3.1-.9 4.7-.9 4.8l-1 .1c-.1-.2-.3-1.3-.6-3.6-.1-.6-.3-2.2-.8-4.6l-.4-3.4v8.2c0 2.8 0 4.3-.1 4.5l-1.7-.1-1.4-.1v-14.7c.1-7.5.1-11.2.2-11.3M.7 119.1c0-1.3-.1-4.5-.2-9.5S.3 101.1.3 99h2.8l.1 7.2c0 1.6.1 3.5.1 6 .1 2.4.1 3.8.1 4.2l.1 5.6H.7v-2.9zm2.2-21.7l-2.7.1-.2-3.3 1.1-.1h1.8v3.3z"/>
  <path class="st0" d="M131.3 9.6v-5l-1.3-.1-1.3-.1v2.9c0 .5 0 1.2-.1 1.9v1.7c0 .4 0 1.6-.1 3.8-.1 2.2-.1 4-.1 5.3l-.2 6.4 1.4-.1c.7 0 1-.1 1.2-.2.2-.1.3-.3.4-.6 0-.5.1-5.9.1-15.9zM124.9.8c0-.1.9-.1 2.6-.1h1.1c1.8 0 2.8.1 3.3.1.4.1.9.3 1.3.6.8.6 1.3 1.3 1.6 2.1.2.8.3 2.4.3 4.9v1.3c0 5.3-.1 9-.2 11s-.3 4-.6 6.1c-.1.8-.2 1.3-.4 1.6-.2.3-.4.5-.8.8-.4.3-.8.4-1.3.5-.5.1-1.6.1-3.3.1h-4.1c-.2 0-.3-.4-.3-1.3 0-.2 0-.5.1-.9 0-.4.1-.8.1-1.1.1-1.8.1-4.9.2-9.3.2-10.7.3-16.2.4-16.4zm-10 .6c.1-.1.6-.2 1.6-.2 1.7 0 2.5.1 2.6.3l.1.6v.3c0 .1.1.4.1.8s.1.8.1 1.2L120 8c0 .2.1.6.2 1.2.1.7.2 1.5.4 2.6s.3 2 .4 2.9c.2 1.3.4 2.6.6 3.8.2 1.2.3 2.1.4 2.6.1.5.1 1 .2 1.5s.1.8.2 1.1c.3 1.9.5 3 .5 3.2.1 1.4.3 2.3.4 2.8v.2c0 .1-.3.2-.9.2h-2.7l-.1-1.2c0-.2-.1-.8-.3-1.8-.2-1-.3-1.9-.4-2.5l-.3-3.2-1.6-.1h-.6c-.7 0-1.1.1-1.1.3 0 .2-.1 1-.3 2.3-.2 2-.4 3.3-.5 3.9l-.4 2.4h-3.5l.1-.8c.2-1.2.8-6.2 1.9-14.7.2-2 .5-4.1.9-6.2.3-2.1.6-3.8.8-5 .3-1.3.5-1.9.6-2.1zm2.1 6.8s0 .3-.1.9c-.1.6-.1 1.3-.2 2.1-.1.9-.2 1.5-.2 2.1-.3 2.2-.5 3.5-.6 3.9v.2c0 .1.1.1.3.2.2 0 .4.1.6.1h.1c.8 0 1.2-.1 1.3-.1v-.4c0-.4 0-.8-.1-1.2-.8-5.2-1.1-7.8-1.1-7.8zm-11.1 1.4v-5l-1.4-.1-1.3-.1v2.9c0 .5 0 1.2-.1 1.9 0 .7-.1 1.3-.1 1.7 0 .4 0 1.6-.1 3.8-.1 2.2-.1 4-.1 5.3l-.2 6.4 1.4-.1c.7 0 1-.1 1.2-.2.2-.1.3-.3.4-.6.1-.5.3-5.9.3-15.9zM99.5.8c0-.1.9-.1 2.6-.1h1.1c1.8 0 2.8.1 3.3.1.4.1.8.3 1.3.6.8.6 1.3 1.3 1.6 2.1.2.8.3 2.4.3 4.9v1.3c0 5.3-.1 9-.2 11s-.3 4-.6 6.1c-.1.8-.2 1.3-.4 1.6-.1.3-.4.5-.8.8-.4.3-.8.4-1.3.5-.5.1-1.6.1-3.4.1h-4.1c-.2 0-.3-.4-.3-1.3 0-.2 0-.5.1-.9 0-.4.1-.8.1-1.1.1-1.8.1-4.9.3-9.3.1-10.7.3-16.2.4-16.4zm-6 2.2V1h1.8c.8 0 1.3 0 1.5.1.2.1.4.2.4.5v1c0 .5 0 1.3-.1 2.2 0 1 0 1.9-.1 2.8-.1 3-.1 6-.3 8.9 0 1.5-.1 4.4-.3 8.7-.1 3.2-.2 4.8-.3 4.9-.1.1-.5.1-1.2.1h-.5l-1.5-.2v-1.9c0-1.3.1-5.2.2-11.9s.2-10.2.2-10.6c.1-.2.2-1.1.2-2.6zM85 2.8v-2h1.8c.8 0 1.3 0 1.5.1.2.1.3.2.3.4v.2c0 .3 0 2-.1 5.1-.1 4.3-.2 7.5-.3 9.5 0 .7-.1 2.1-.1 4.2s-.1 3.6-.1 4.4v.8h3.2l.1 2.1c0 1 .1 1.6.1 1.8V29.7H91c-1.1 0-2.5 0-4-.1-1 0-1.8-.1-2.4-.1h-.2V27.6c0-1.3.1-5.2.2-11.9.1-6.6.2-10.2.3-10.6v-.5-1c0-.2.1-.5.1-.8zM74.9 1.4c.1-.1.6-.2 1.6-.2 1.7 0 2.5.1 2.6.3l.1.6v.3c0 .1.1.4.1.8.1.4.1.8.1 1.2l.7 3.6c0 .2.1.6.2 1.2.1.7.2 1.5.4 2.6.1 1.1.3 2 .4 2.9.2 1.3.4 2.6.6 3.8.2 1.2.3 2.1.4 2.6.1.5.1 1 .2 1.5s.1.8.2 1.1c.3 1.9.5 3 .5 3.2.1 1.4.3 2.3.4 2.8v.2c0 .1-.3.2-.9.2h-2.7l-.1-1.2c0-.2-.1-.8-.3-1.8-.2-1-.3-1.9-.4-2.5l-.3-3.2-1.6-.1h-.6c-.7 0-1.1.1-1.1.3 0 .2-.1 1-.3 2.3-.2 2-.4 3.3-.5 3.9l-.4 2.4h-3.5l.1-.8c.2-1.2.8-6.2 1.9-14.7.2-2 .5-4.1.9-6.2.3-2.1.6-3.8.8-5 .3-1.3.5-1.9.5-2.1zm2.2 6.8s0 .3-.1.9c-.1.6-.1 1.3-.2 2.1-.1.9-.2 1.5-.2 2.1-.3 2.2-.5 3.5-.6 3.9v.2c0 .1.1.1.3.2.2 0 .4.1.6.1h.1c.8 0 1.2-.1 1.3-.1v-.4c0-.4 0-.8-.1-1.2-.8-5.2-1.1-7.8-1.1-7.8zM59.8 1.3c.1-.2.4-.3 1.2-.3h.8l1.7.1c-.1 1.2-.2 2.8-.2 4.9-.1 2.1-.1 4.7-.2 7.7-.1 3.1-.1 5.4-.2 6.9v2.3c0 1.7.1 2.6.2 2.8.2.3.6.5 1.2.5.3 0 .6-.1.7-.2.3-.2.5-3.1.8-8.8.1-3.6.3-6.5.4-8.6.2-3.6.3-5.8.3-6.5v-.9l2 .1c.7 0 1.2 0 1.3.1.2 0 .3.1.3.2v.2c-.1.6-.2 3-.3 7.3-.1 3.9-.2 6.4-.3 7.5 0 .2 0 .6-.1 1.2 0 .6-.1 1.4-.1 2.3-.1 1-.1 1.8-.1 2.4 0 .4 0 1-.1 1.6 0 .6 0 1-.1 1.3 0 .3 0 .6-.1 1 0 .4 0 .7-.1.9 0 .2-.1.4-.1.6 0 .2-.1.4-.2.6-.1.1-.1.3-.2.4-.1.1-.2.3-.3.4-.7.8-2.1 1.2-4.3 1.3h-.2c-1.9 0-3.1-.4-3.7-1.3-.5-.9-.8-2.3-.8-4.3v-1.4-1.5c0-2 .1-4.9.3-8.7.2-3.8.3-6 .3-6.6.1-3.4.2-5.2.2-5.5zM50 29.7c-.7.1-1.3.1-1.9.1H48l-1.2-.1h-.1v-.1l.4-1.8 3.3-13.1-3.1-13.1s0-.1-.1-.2c0-.1-.1-.1-.1-.2 0-.2.5-.4 1.6-.4h1.9c.2.5.4 1.8.8 3.9l.9 4.5c.1-.4.2-1 .4-1.6.2-.6.3-1.1.3-1.5.1-.4.1-.7.1-.7.2-.5.4-1.4.7-2.6l.5-2h2.1c1 0 1.6.1 1.6.4 0 .1 0 .2-.1.4 0 0-.1.2-.2.6-.1.4-.3 1-.5 1.9-.2.8-.5 1.7-.7 2.6L54.3 15l3.5 14.9v.1h-.1H56.4c-.7 0-1.4-.1-2.1-.1l-1.9-9.6-1.1 4.5c0 .1-.2 1-.7 2.5-.4 1.5-.6 2.3-.6 2.4zM42.4 4.9v2.5c0 1.7 0 2.9-.1 3.8v1.1h3v3.8l-1.6-.1h-1.6v9.7h1.4l2.2.1-.1 2.2-.2 2-3.9-.1h-3l.1-3c0-.5 0-2 .1-4.6 0-2.6.1-4.6.1-6.2.1-5.4.2-8.4.2-8.8 0-.6.1-2.9.1-6.9l3.2.1h3.3V4.8h-3.2zm-9.4 15v-.1c0-1.1-.1-1.8-.4-2.1-.3-.3-.6-.5-1-.7-.4-.1-.8-.2-1.3-.3-.4-.1-.8-.1-1-.2-1-.4-1.5-1.3-1.7-3v-.4-.4-1.9-2.5-.7-2.1c0-1.2.1-2 .3-2.5.4-.9 1.1-1.5 2.1-1.9.5-.2 1.2-.3 2-.3.9 0 1.8.1 2.6.4.9.3 1.5.7 1.8 1 .2.4.3 1.3.3 2.7v1.8c-.1 2.5-.1 3.8-.3 3.9-.1.1-.3.1-.7.1-.3 0-.6 0-1.1-.1l-1.3-.2V7.5c0-1.4 0-2.3-.1-2.6-.1-.3-.2-.5-.5-.5H32c-.3 0-.5.1-.6.2-.1.1-.2.4-.3.8v5.2c0 1.1.3 1.8.9 2 0 0 .2.1.7.2.4.1.7.2.7.2.1 0 .3.1.6.2.4.1.6.2.7.3.1.1.3.2.5.4.3.1.4.3.5.5.1.2.2.4.4.6.1.2.2.4.3.7 0 .3.1.5.1.8v5.8c0 3.5 0 5.4-.1 5.7-.1.6-.5 1.1-1.1 1.5-.4.3-.8.5-1.1.6-.3.1-.9.1-1.9.1-1.9 0-3.1-.3-3.6-1-.6-.7-.9-2.2-1-4.6-.1-2.2-.2-3.4-.2-3.6l3.4-.1c.1.1.2.3.3.5v4.8l.9-.1 1.1-.1v-3.4-.5-.8c-.1-.1-.2-.7-.2-1.4zM15.8 3V1h1.8c.8 0 1.3 0 1.5.1.2.1.3.2.3.5v1c0 .5 0 1.3-.1 2.2 0 1 0 1.9-.1 2.8-.1 3-.1 6-.3 8.9 0 1.5-.1 4.4-.2 8.7-.1 3.2-.2 4.8-.3 4.9-.1.1-.5.1-1.2.1h-.5l-1.5-.2v-1.9c0-1.3.1-5.2.2-11.9s.2-10.2.3-10.6c0-.2 0-1.1.1-2.6zM1.1 1.3c.1-.1.3-.1.7-.1.2 0 .7 0 1.4.1l1.8.1.5 3.2c1 6.7 1.6 10.1 1.7 10.1v-.1c.1-.4.6-2.7 1.2-6.9.7-4.2 1.1-6.3 1.2-6.5.1-.1.7-.2 1.7-.2h2l-.1 13.2c0 2.1 0 4.3-.1 6.7 0 2.4 0 4.2-.1 5.6V30l-1.6-.1-1.6-.1v-14l-.4 2.3c-.4 2.1-.8 3.8-1 5.3-.6 3.3-.9 5.1-1 5.3l-1 .1c-.1-.2-.3-1.5-.6-3.9-.1-.7-.4-2.4-.8-5.1l-.6-3.7v9.1c0 3.1 0 4.7-.1 4.9L2.4 30 1 29.7v-16C.9 5.5 1 1.4 1.1 1.3z"/>
  <path class="st1" d="M130.1 9.4V4.5l-1.3-.1-1.3-.1v2.9c0 .5 0 1.1-.1 1.9v1.7c0 .4 0 1.6-.1 3.8-.1 2.2-.1 3.9-.1 5.2l-.2 6.3 1.4-.1c.6 0 1-.1 1.2-.2.2-.1.3-.3.4-.6 0-.7.1-6 .1-15.8M123.9.8c0-.1.9-.1 2.5-.1h1.1c1.7 0 2.8.1 3.2.1.4.1.8.3 1.3.6.8.6 1.3 1.3 1.5 2.1.2.8.3 2.4.3 4.8v1.3c0 5.2-.1 8.8-.2 10.8s-.3 4-.6 6c-.1.8-.2 1.3-.4 1.6-.2.3-.4.5-.8.8-.4.3-.8.4-1.3.5-.5.1-1.6.1-3.3.1h-4.1c-.2 0-.3-.4-.3-1.3 0-.2 0-.5.1-.9 0-.4.1-.8.1-1.1.1-1.7.2-4.8.3-9.2.3-10.6.5-15.9.6-16.1m-9.9.6c.1-.1.6-.2 1.6-.2 1.6 0 2.5.1 2.5.3l.1.6v.3c0 .1.1.4.1.8s.1.8.1 1.1l.5 3.5c0 .2.1.6.2 1.2s.2 1.5.3 2.5c.2 1 .3 2 .4 2.9.2 1.3.4 2.6.6 3.8.2 1.2.3 2.1.4 2.6.1.5.1 1 .2 1.4.1.5.1.8.2 1.1.3 1.9.4 2.9.5 3.2.1 1.3.3 2.3.4 2.7v.2c0 .1-.3.2-.9.2h-2.7l-.1-1.2c0-.2-.1-.8-.3-1.8-.2-1-.3-1.9-.4-2.5l-.3-3.2-1.6-.1h-.6c-.7 0-1.1.1-1.1.3 0 .2-.1 1-.3 2.3-.2 2-.4 3.2-.5 3.8l-.4 2.4h-3.4l.1-.8c.2-1.2.8-6.1 1.9-14.5.2-2 .5-4 .8-6.1.3-2.1.6-3.7.8-4.9.7-1.1.8-1.8.9-1.9m2.1 6.6s0 .3-.1.8c-.1.6-.1 1.2-.2 2.1-.1.8-.2 1.5-.2 2-.3 2.2-.5 3.5-.6 3.9v.2c0 .1.1.1.3.2.2 0 .4.1.6.1h.1c.8 0 1.2-.1 1.3-.1v-.4c0-.4 0-.8-.1-1.2-.8-5.1-1.1-7.6-1.1-7.6m-10.9 1.4V4.5l-1.4-.1-1.3-.1v2.9c0 .5 0 1.1-.1 1.9v1.7c0 .4 0 1.6-.1 3.8-.1 2.2-.1 3.9-.2 5.2l-.2 6.3 1.3-.1c.6 0 1-.1 1.2-.2.2-.1.3-.3.3-.6.3-.7.4-6 .5-15.8M98.9.8c0-.1.9-.1 2.5-.1h1.1c1.7 0 2.8.1 3.2.1.4.1.8.3 1.3.6.8.6 1.3 1.3 1.5 2.1.2.8.3 2.4.3 4.8v1.3c0 5.2-.1 8.8-.2 10.8s-.3 4-.6 6c-.1.8-.2 1.3-.4 1.6-.1.3-.4.5-.8.8-.4.3-.8.4-1.3.5-.5.1-1.6.1-3.3.1h-4.1c-.2 0-.3-.4-.3-1.3 0-.2 0-.5.1-.9 0-.4.1-.8.1-1.1.1-1.7.1-4.8.3-9.2.3-10.6.5-15.9.6-16.1M93 2.9V1h1.8c.8 0 1.3 0 1.5.1.2.1.3.2.3.5v1c0 .5 0 1.2-.1 2.2 0 .9-.1 1.9-.1 2.8-.1 3-.1 5.9-.3 8.7 0 1.5-.1 4.4-.3 8.5-.1 3.1-.2 4.7-.3 4.8-.1.1-.5.1-1.2.1h-.5l-1.5-.1v-1.9c0-1.2.1-5.1.2-11.7.1-6.5.2-10 .3-10.5.1-.2.1-1.1.2-2.6m-8.5-.2l.1-1.9h1.8c.8 0 1.2 0 1.5.1.2.1.3.2.3.4v.2c0 .3 0 1.9-.1 5-.1 4.3-.2 7.4-.3 9.3 0 .7-.1 2.1-.1 4.1 0 2.1-.1 3.5-.1 4.3v.8h3l.1 2.1c0 1 .1 1.6.1 1.8V29.2H90.5c-1.1 0-2.4 0-4-.1-1 0-1.8-.1-2.3-.1H84V27.1c0-1.2.1-5.1.2-11.7.2-6.5.2-10 .3-10.4v-.5-1-.8m-9.8-1.3c.1-.1.6-.2 1.6-.2 1.6 0 2.5.1 2.5.3l.2.6v.3c0 .1.1.4.1.8.1.4.1.8.1 1.1l.5 3.5c0 .2.1.6.2 1.2s.2 1.5.4 2.5c.1 1 .3 2 .4 2.9.2 1.3.4 2.6.6 3.8.2 1.2.3 2.1.4 2.6.1.5.1 1 .2 1.4.1.5.1.8.2 1.1.3 1.9.5 2.9.5 3.2.1 1.3.3 2.3.4 2.7v.2c0 .1-.3.2-.9.2h-2.7l-.1-1.2c0-.2-.1-.8-.3-1.8-.2-1-.3-1.9-.4-2.5l-.2-3.1-1.6-.1h-.6c-.7 0-1.1.1-1.1.3 0 .2-.1 1-.3 2.3-.2 2-.4 3.2-.5 3.8l-.3 2.4h-3.4l.1-.8c.2-1.2.8-6.1 1.9-14.5.2-2 .5-4 .9-6.1.3-2.1.6-3.7.8-4.9.2-1.2.3-1.9.4-2M76.8 8s0 .3-.1.8c-.1.6-.1 1.2-.2 2.1-.1.8-.2 1.5-.2 2-.3 2.2-.5 3.5-.6 3.9v.2c0 .1.1.1.3.2.2 0 .4.1.6.1h.1c.8 0 1.2-.1 1.3-.1v-.4c0-.4 0-.8-.1-1.2-.7-5.1-1.1-7.6-1.1-7.6M59.9 1.3c0-.2.4-.3 1.1-.3h.8l1.7.1c-.1 1.2-.2 2.8-.2 4.8-.1 2.1-.1 4.6-.2 7.6s-.1 5.3-.2 6.8v2.3c0 1.7.1 2.6.2 2.8.2.3.6.5 1.1.5.3 0 .6-.1.7-.2.3-.2.6-3.1.8-8.6.1-3.6.2-6.4.4-8.5.2-3.5.3-5.7.3-6.4v-1l2 .1c.7 0 1.2 0 1.3.1.2 0 .3.1.3.2v.2c-.1.6-.2 2.9-.3 7.2-.1 3.9-.2 6.3-.3 7.3 0 .2-.1.6-.1 1.2s-.1 1.3-.1 2.3c-.1 1-.1 1.8-.1 2.4 0 .4-.1 1-.1 1.5 0 .6 0 1-.1 1.3 0 .3 0 .6-.1 1 0 .4 0 .7-.1.8 0 .2-.1.4-.1.6 0 .2-.1.4-.1.6-.1.1-.1.3-.2.4-.1.1-.2.3-.3.4-.6.8-2 1.2-4.2 1.2h-.2c-1.9 0-3.1-.4-3.6-1.3-.6-.8-.8-2.3-.8-4.2v-1.3-1.5c0-2 .1-4.8.3-8.6.2-3.7.3-5.9.3-6.5-.1-3.3 0-5 .1-5.3m-9.7 27.8c-.7.1-1.3.1-1.8.1H46.9v-.1l.5-1.8 3.3-12.8-3.1-13s0-.1-.1-.2c0-.1-.1-.1-.1-.2 0-.2.5-.3 1.5-.3h1.8c.1.5.4 1.8.8 3.8l.9 4.5c.1-.4.2-1 .3-1.6.1-.6.2-1.1.3-1.5.1-.4.1-.6.1-.7.2-.5.4-1.3.7-2.5l.5-1.9h2c1 0 1.5.1 1.5.3 0 .1 0 .2-.1.4 0 0 0 .2-.1.6-.1.4-.3 1-.5 1.8s-.4 1.7-.7 2.6l-2.2 8.1 3.4 14.7v.1h-.1-.1l-1.2.1h-.1c-.7 0-1.4-.1-2.1-.1l-1.9-9.4-1.1 4.4c0 .1-.2.9-.7 2.5.1 1.3-.1 2.1-.1 2.1M42.7 4.8v2.5c0 1.7 0 2.9-.1 3.7v1.1h2.9v3.7l-1.5-.1h-1.6v9.5h1.4l2.2.1-.1 2.1-.1 2-3.9-.1H39l.1-2.9c0-.5 0-2 .1-4.5 0-2.5.1-4.6.1-6.1.1-5.3.2-8.2.2-8.7 0-.6.1-2.9.1-6.8l3.1.1h3.2v4.2h-3.2zm-9.2 14.7v-.1c0-1-.2-1.7-.5-2-.3-.3-.6-.5-1-.6l-1.2-.3c-.4-.1-.8-.1-1-.2-1-.3-1.5-1.3-1.7-2.9v-.3-.3-1.9-2.7-.6-2.3c0-1.2.1-2 .3-2.5.4-.8 1-1.4 2-1.9.5-.2 1.2-.3 1.9-.3.9 0 1.8.1 2.5.4.9.3 1.5.6 1.7 1 .2.4.3 1.3.3 2.6V6.4c0 2.5-.1 3.7-.2 3.9-.1.1-.3.1-.7.1-.3 0-.6 0-1.1-.1l-1.3-.2V7.4c0-1.4 0-2.2-.1-2.6-.1-.3-.2-.5-.4-.5h-.7c-.3 0-.5.1-.6.2-.1.1-.2.4-.3.8v5.2c0 1.1.3 1.8.8 1.9 0 0 .2.1.6.2.4.1.6.2.7.2s.3.1.6.2.6.2.7.3c.1.1.3.2.5.3.3.1.4.3.5.5.1.2.2.3.4.6.1.2.2.4.3.7.1.3.1.5.1.8v5.7c0 3.5 0 5.4-.1 5.6-.1.6-.5 1.1-1.1 1.5-.4.3-.8.5-1.1.6-.3.1-.9.1-1.8.1-1.8 0-3-.3-3.6-1-.6-.6-.9-2.1-1-4.5.2-2 .1-3.2.1-3.4l3.4-.1c.1.1.2.3.3.5V26l.8-.1 1.1-.1v-3.4-.5-.8c-.1-.3-.1-.9-.1-1.6m-17-16.6V1h1.8c.8 0 1.3 0 1.5.1.2.1.3.2.3.5v1c0 .5 0 1.2-.1 2.2 0 .9 0 1.9-.1 2.8-.1 3-.1 5.9-.3 8.7 0 1.5-.1 4.4-.3 8.5-.1 3.1-.2 4.7-.3 4.8-.1.1-.5.1-1.2.1h-.5l-1.5-.1v-1.9c0-1.2.1-5.1.2-11.7.1-6.5.2-10 .2-10.5.3-.2.3-1.1.3-2.6M2.1 1.3c0-.1.3-.1.7-.1.2 0 .7 0 1.4.1l1.8.1.5 3.2c1 6.6 1.5 10 1.7 10v-.1c.1-.4.6-2.6 1.2-6.8.6-4.1 1-6.2 1.2-6.4.1-.2.6-.3 1.7-.3h2l-.2 13c0 2-.1 4.2-.1 6.5s-.1 4.1-.1 5.5V29.4l-1.6-.1-1.6-.1V15.4l-.4 2.3c-.4 2-.8 3.8-1 5.2-.6 3.3-.9 5-1 5.2l-1 .1c-.1-.2-.3-1.5-.6-3.9-.1-.6-.4-2.3-.8-5l-.6-3.7v8.9c0 3 0 4.6-.1 4.8l-1.8-.1H2V13.4c0-8 0-12.1.1-12.1"/>
</svg>