<svg xmlns="http://www.w3.org/2000/svg" width="171.7" height="80.7" viewBox="0 0 171.7 80.7">
  <style>
    .st0{fill:#fff}.st1{fill:#8a3d96}
  </style>
  <path class="st0" d="M0 0h171.7v32.7H0z"/>
  <path class="st0" d="M0 34.6h171.7v46.1H0z"/>
  <path class="st1" d="M151.9 55.9c-.3.5-.6 1.1-.7 1.7-.2.6-.2 1.3-.2 2s.1 1.3.3 1.9c.2.6.4 1.1.8 1.6.8 1 1.9 1.6 3.3 1.6s2.5-.5 3.3-1.5c.7-.9 1-2.1 1-3.7 0-2.3-.8-3.9-2.3-4.8-.6-.3-1.2-.5-2-.5s-1.5.2-2 .5c-.8.3-1.2.7-1.5 1.2m-4.5 3.5c0-1.2.2-2.3.6-3.3.4-1 .9-1.8 1.6-2.5 1.5-1.5 3.3-2.2 5.5-2.2 2.5 0 4.4.7 5.8 2.2 1.3 1.4 2 3.4 2 5.8s-.7 4.4-2.2 5.9c-1.5 1.5-3.3 2.2-5.5 2.2-2.3 0-4.2-.8-5.6-2.3-1.4-1.4-2.2-3.4-2.2-5.8zm-2.4-5.6c0 .5-.3.8-.9.8h-3.9v8.6c0 .9.5 1.4 1.4 1.4.6 0 1.3-.3 2.3-.9.2-.1.4-.2.6-.2.2 0 .4.1.5.4l.3.7c.1.3.2.5.2.7 0 .2-.1.4-.4.7-.3.3-.7.5-1.1.7-1 .5-1.9.7-2.8.7-.8 0-1.5-.1-2-.3-.5-.2-.9-.4-1.2-.8-.7-.7-1.1-1.7-1.1-3.1v-8.8h-1.2c-.6 0-.9-.3-.9-.8V53c0-.2.1-.4.2-.5.1-.1.3-.2.6-.3l1.4-.4.5-3.2c.1-.6.3-.9.7-.9h1.1c.2 0 .4.1.5.3.1.2.2.4.2.7v3.1h3.9c.6 0 .9.3.9.8v1.2zm-20.4-1.1c0-.7.3-1 .9-1h.7c.5 0 .9.2 1.1.7.3.6.5 1.5.7 2.6 0 0 0-.2.1-.5 0-.3.2-.7.4-1.1.2-.5.5-.8.8-1.1.7-.6 1.4-.9 2.4-.9s1.8.2 2.2.5c.2.2.3.4.2.6l-.2 1.7c-.1.5-.3.7-.7.7-.2 0-.4 0-.7-.1-.6-.1-1-.2-1.3-.2-.3 0-.7.1-1 .4-.4.3-.7.6-.9 1.1-.5.9-.8 1.9-.8 2.9v7.3c0 .3-.1.5-.2.6-.1.2-.4.3-.6.3h-1.6c-.3 0-.5-.1-.7-.3-.2-.2-.2-.4-.2-.6v-9.5c0-1.6-.1-2.7-.2-3.2-.4-.5-.4-.8-.4-.9zm-12.8 8c-.4.3-.6.6-.8.8-.2.3-.2.6-.2 1s.1.7.2 1c.1.3.3.5.6.7.5.4 1.1.6 1.7.6.6 0 1.1-.1 1.5-.2.4-.2.7-.3 1-.6.6-.5.9-1 .9-1.6-.1-.7-.4-1.2-1.1-1.6-.6-.4-1.4-.5-2.2-.5-.7-.1-1.2.1-1.6.4zm9.2 5.8c0 .5-.2.7-.7.7H119c-.4 0-.6-.1-.6-.2-.1-.1-.1-.3-.1-.4 0-.1 0-.3-.1-.4-.1-.4-.1-.9-.2-1.5-.7 1.3-1.8 2.2-3.4 2.6-.5.2-1.1.2-1.8.2s-1.3-.1-1.9-.3c-.7-.2-1.2-.5-1.7-1-1.1-1-1.7-2.2-1.7-3.7 0-1.7.6-3 1.9-3.9 1-.7 2.3-1.1 4-1.1 1.6 0 3 .5 4.1 1.4v-1.2c0-.5-.1-.9-.3-1.4-.2-.5-.4-.9-.8-1.2-.7-.6-1.7-.9-2.9-.9-1.1 0-2.2.3-3.4.9-.2.1-.4.2-.6.2-.2 0-.5-.2-.7-.7-.2-.5-.4-.9-.4-1.1 0-.4.3-.8.9-1.2 1.2-.7 2.7-1.1 4.6-1.1 1.8 0 3.2.5 4.4 1.4 1.4 1.2 2 2.8 2 4.9 0 .9-.2 2.1-.4 3.5.6 2.5 1 4.2 1.1 5.5zM93 60c0 1.3.4 2.5 1.3 3.4.8.9 1.8 1.3 2.8 1.3 1.3 0 2.3-.6 3-1.9.5-1 .8-2.3.8-3.9 0-1.3-.3-2.3-.9-3.2-.7-1-1.5-1.4-2.6-1.4-1.2 0-2.3.5-3.1 1.5-.8 1-1.3 2.1-1.3 3.4v.8zm.2 4.8c.1.9.1 2.1.1 3.4v5.7c0 .7-.3 1-.8 1h-1.7c-.6 0-.9-.4-.9-1.1V58.7c0-2.6-.1-4.5-.4-5.6v-.5c0-.2.1-.4.3-.6.2-.2.4-.3.7-.3h.8c.5 0 .9.2 1.1.7.2.5.4 1.2.6 2 .6-1.1 1.5-1.9 2.6-2.4.8-.4 1.7-.5 2.7-.5 1 0 1.9.2 2.7.6.8.4 1.4.9 2 1.6 1 1.3 1.6 3.1 1.6 5.4 0 2.4-.6 4.4-1.7 6-1.2 1.7-2.8 2.6-4.8 2.6-2.3-.1-3.9-1-4.9-2.9zm-15.3 1.5c0 .6-.3.9-.9.9h-.6c-.6 0-.9-.2-1.1-.7-.2-.5-.4-1.2-.6-2.1-.4 1-1 1.7-2 2.3-.9.6-2.1.8-3.4.8-1.8 0-3.1-.6-4-1.7-.8-1.1-1.3-2.8-1.3-5v-8.3c0-.3.1-.5.2-.6.2-.2.4-.3.7-.3h1.5c.6 0 .9.3.9.9v8.1c0 2.2.5 3.4 1.5 3.8.3.1.7.2 1.2.2s.9-.1 1.4-.3c.5-.2.9-.5 1.3-.8.9-.8 1.3-1.7 1.3-2.7v-8.2c0-.3.1-.5.2-.6.2-.2.4-.3.7-.3h1.4c.3 0 .6.1.7.3.2.2.2.4.2.6v8.6c0 1.9.1 3.5.4 4.7.3.1.3.2.3.4zM60.7 53.8c0 .5-.3.8-.9.8H56v8.6c0 .9.5 1.4 1.4 1.4.6 0 1.3-.3 2.3-.9.2-.1.4-.2.6-.2.2 0 .4.1.5.4l.3.7c.1.3.2.5.2.7 0 .2-.1.4-.4.7-.3.3-.7.5-1.1.7-1 .5-1.9.7-2.8.7-.8 0-1.5-.1-2-.3-.5-.2-.9-.4-1.2-.8-.7-.7-1.1-1.7-1.1-3.1v-8.8h-1.2c-.6 0-.9-.3-.9-.8V53c0-.2.1-.4.2-.5.1-.1.3-.2.6-.3l1.4-.4.5-3.2c.1-.6.3-.9.7-.9h1.1c.2 0 .4.1.5.3.1.2.2.4.2.7v3.1h3.9c.6 0 .9.3.9.8v1.2zM38 56.2c0-1.3-.9-2-2.6-2-1.7 0-2.8.6-3.5 1.8-.2.4-.4 1-.5 1.6.8.4 1.8.6 3 .6 2.3.1 3.6-.6 3.6-2zm-6.8 4v.3c0 1.3.4 2.3 1.2 3 .8.8 2 1.2 3.4 1.2 1.3 0 2.5-.4 3.6-1.2.2-.1.4-.2.6-.2.3 0 .6.2.8.5l.4.8c.1.2.1.4.1.6 0 .2-.1.4-.3.7-.2.2-.4.4-.7.6-.3.2-.7.3-1 .5-.4.1-.8.3-1.2.3-.8.2-1.7.3-2.6.3-.9 0-1.8-.2-2.8-.5-.9-.3-1.7-.9-2.4-1.5-1.5-1.4-2.2-3.3-2.2-5.8 0-4.2 1.5-6.9 4.5-7.9.9-.3 1.9-.5 2.9-.5s1.8.1 2.5.3c.7.2 1.3.5 1.8.9 1.1.9 1.6 2.1 1.6 3.6s-.6 2.7-1.9 3.5c-1.1.7-2.5 1.1-4.3 1.1-1.3 0-2.6-.2-4-.6zm-18.5-.5c0 .6.1 1.2.2 1.8.1.6.4 1.1.7 1.6.7 1.1 1.7 1.6 2.9 1.6 1.1 0 2.1-.5 2.9-1.5.9-1 1.3-2.2 1.3-3.6 0-1.7-.4-3-1.3-4-.8-1-1.9-1.4-3.1-1.4-1.3 0-2.2.6-2.9 1.8-.5 1.1-.7 2.3-.7 3.7zm7.7-6v-9.9c0-.2.1-.4.2-.6.1-.2.3-.3.5-.3H23c.2 0 .4.1.5.3.1.2.2.4.2.6v17.6c0 1.9.2 3.4.4 4.6v.5c0 .2-.1.4-.3.5-.2.2-.4.2-.7.2h-.7c-.5 0-.9-.2-1.1-.7-.2-.6-.4-1.3-.6-2.2-.7 1.5-1.9 2.5-3.6 3-.6.2-1.2.2-2.1.2-.8 0-1.6-.2-2.4-.6-.8-.4-1.5-1-2.1-1.7-1.2-1.5-1.7-3.4-1.7-5.6 0-2.3.6-4.2 1.7-5.7 1.2-1.7 2.8-2.5 4.9-2.5 2.4 0 3.9.8 5 2.3z"/>
  <path class="st1" d="M157.1 18.3l-.5.5c-.1.2-.2.4-.2.6s0 .5.1.7c.1.2.2.3.4.5.3.3.7.4 1.1.4.4 0 .8 0 1-.1.3-.1.5-.2.7-.4.4-.3.6-.7.6-1 0-.5-.3-.8-.8-1.1-.4-.2-.9-.4-1.5-.4-.3 0-.7.1-.9.3m6.1 3.9c0 .3-.2.5-.5.5h-.9c-.2 0-.4 0-.4-.1s-.1-.2-.1-.3V22c0-.3-.1-.6-.2-1-.5.9-1.2 1.4-2.2 1.7-.4.1-.7.1-1.2.1-.4 0-.9-.1-1.3-.2s-.8-.3-1.1-.6c-.7-.6-1.1-1.5-1.1-2.5 0-1.1.4-2 1.2-2.6.7-.5 1.5-.7 2.6-.7s2 .3 2.7.9v-.8c0-.3-.1-.6-.2-.9-.1-.3-.3-.6-.5-.8-.5-.4-1.1-.6-1.9-.6-.7 0-1.5.2-2.2.6-.1.1-.3.1-.4.1-.2 0-.3-.2-.5-.5s-.2-.6-.2-.7c0-.3.2-.5.6-.8.8-.5 1.8-.7 3.1-.7 1.2 0 2.1.3 2.9 1 .9.8 1.3 1.8 1.3 3.2 0 .6-.1 1.4-.3 2.3.5 1.7.7 2.8.8 3.7zm-10.4-8.4c0 .3-.2.5-.6.5h-2.6V20c0 .6.3.9.9.9.4 0 .9-.2 1.5-.6.1-.1.3-.1.4-.1.1 0 .3.1.3.3l.3.5c.1.2.1.3.1.5 0 .1-.1.3-.3.4-.2.2-.4.3-.7.4-.7.3-1.3.5-1.8.5s-1-.1-1.3-.2c-.3-.1-.6-.3-.8-.5-.5-.5-.7-1.2-.7-2v-5.8h-.8c-.4 0-.6-.2-.6-.5v-.5c0-.1 0-.2.1-.3.1-.1.2-.1.4-.2l.9-.3.3-2.1c.1-.4.2-.6.5-.6h.8c.1 0 .3.1.3.2.1.1.1.3.1.4v2h2.6c.4 0 .6.2.6.5v.9zm-12 7.2c1.2 0 1.7-.4 1.7-1.2 0-.4-.3-.8-1-1.1-.3-.1-.6-.2-.9-.4-.3-.1-.6-.2-.9-.4-.3-.2-.6-.3-.8-.5-.3-.2-.5-.4-.7-.6-.4-.5-.6-1.1-.6-1.8 0-.9.4-1.6 1.1-2.2.7-.5 1.5-.7 2.5-.7 1.1 0 1.9.2 2.6.6.2.1.4.3.4.5 0 .3-.1.6-.2.9-.1.3-.3.5-.5.5s-.4 0-.5-.1c-.2-.1-.3-.1-.4-.2-.1-.1-.3-.1-.4-.1-.3-.1-.6-.1-.8-.1-.3 0-.5 0-.6.1-.2 0-.3.1-.4.2-.3.2-.5.4-.5.7 0 .3.1.5.2.6.1.1.3.3.5.4.2.1.5.2.8.4l1 .4c.8.3 1.3.7 1.6.9.5.6.8 1.2.8 1.9 0 .9-.3 1.7-.9 2.3-.7.6-1.7 1-3 1s-2.3-.3-2.9-.8c-.3-.2-.5-.5-.5-.7 0-.2 0-.4.1-.5.1-.2.2-.3.3-.5.1-.2.3-.3.5-.3s.4.1.6.3c.2.2.5.3.9.5h.9zm-6.9-.8c0 .4.1.6.4.6.1 0 .2 0 .3-.1.2-.1.4-.2.5-.2.1 0 .2.1.3.3l.3.6c0 .1.1.2.1.3 0 .3-.2.5-.7.7-.4.2-.8.3-1.3.3-.4 0-.7 0-1-.1-.2-.1-.5-.2-.6-.5-.3-.4-.5-1.1-.5-2.1v-7c0-.2 0-.3.1-.4.1-.1.2-.2.3-.2h1.2c.1 0 .3.1.3.2.1.1.1.3.1.4v7.2zm-1-9.5c-.4 0-.8-.1-1-.4-.3-.3-.4-.6-.4-1.1 0-.4.1-.8.4-1.1.3-.3.6-.4 1-.4.6 0 1.1.3 1.4.9.1.2.1.4.1.6 0 .4-.1.8-.4 1.1-.4.2-.7.4-1.1.4zm-13.5 2.4c0-.4.2-.7.6-.7h.5c.3 0 .6.1.7.4.2.4.3.8.4 1.4.5-1 1.4-1.6 2.4-1.9.3-.1.8-.1 1.3-.1s1 .1 1.4.3c.4.2.8.5 1 .9.5.7.7 1.7.7 3V22c0 .2-.1.3-.2.4-.1.1-.3.2-.5.2h-.9c-.2 0-.4-.1-.5-.2-.1-.1-.2-.3-.2-.4v-5.6c0-1.5-.6-2.3-1.7-2.3-.7 0-1.3.3-1.8.8-.6.6-.9 1.3-.9 2.1v5c0 .2 0 .3-.2.4-.1.1-.3.2-.5.2h-.9c-.2 0-.4-.1-.5-.2-.1-.1-.2-.3-.2-.4v-5.6c0-1.2 0-2.1-.1-2.5.1-.4.1-.7.1-.8zm-10.1 2.1c-.2.3-.4.7-.5 1.1-.1.4-.2.9-.2 1.3s.1.9.2 1.3.3.8.5 1.1c.5.7 1.2 1 2.2 1 .9 0 1.7-.3 2.2-1 .4-.6.7-1.4.7-2.4 0-1.5-.5-2.6-1.5-3.2-.4-.2-.8-.3-1.3-.3s-1 .1-1.3.3c-.4.2-.7.5-1 .8zm-2.9 2.3c0-.8.1-1.5.4-2.2.3-.7.6-1.2 1.1-1.7 1-1 2.2-1.5 3.6-1.5 1.6 0 2.9.5 3.8 1.5.9.9 1.3 2.2 1.3 3.9 0 1.6-.5 2.9-1.5 3.9s-2.2 1.5-3.6 1.5c-1.5 0-2.8-.5-3.7-1.5-.9-1-1.4-2.3-1.4-3.9zm-8.6 5.9c-.2.3-.3.5-.3.8 0 .3.1.6.2.8.2.2.3.4.6.5.5.3 1.1.4 1.8.4 1.1 0 1.9-.3 2.4-.8.1-.2.2-.4.2-.7 0-.3-.1-.5-.3-.7-.2-.2-.4-.4-.7-.5-.4-.2-1-.3-1.7-.3-1 0-1.8.2-2.2.5zm.5-5.9c.2.2.4.3.7.4.3.1.6.1.9.1.3 0 .6 0 .9-.1.3-.1.5-.2.7-.4.4-.4.6-.9.6-1.5s-.2-1.1-.7-1.4c-.4-.3-.9-.5-1.5-.5-1 0-1.6.4-2 1.1-.1.2-.2.5-.2.8 0 .3.1.6.2.8 0 .3.2.5.4.7zm.4 4.2c.6-.3 1.2-.4 1.8-.4.6 0 1.2.1 1.7.2s.9.3 1.3.6c.9.6 1.3 1.4 1.3 2.4 0 1.1-.5 1.9-1.5 2.6-.9.6-2 .9-3.2.9-1.3 0-2.4-.3-3.2-.8-.9-.6-1.4-1.4-1.4-2.5 0-1.3.7-2.5 2-3.7.5-.5 1.1-.9 1.7-1.2-1-.1-1.8-.4-2.5-1-.8-.7-1.2-1.5-1.2-2.6 0-1.2.4-2.1 1.3-2.8.8-.7 1.8-1 2.9-1 1.2 0 2.1.3 2.8 1 .2.2.4.4.5.7 0-.6-.1-1.1-.2-1.7-.1-.6-.2-1-.2-1.1 0-.1 0-.2.1-.3 0-.1.1-.1.2-.2s.2-.1.3-.1h.8c.5 0 .8.7.8 2.1 0 1.1-.2 2.1-.7 3.1v.5c0 .2 0 .5-.1.8-.1.3-.2.6-.4.8-.2.3-.3.5-.6.7-.2.2-.4.4-.7.6-.2.2-.5.3-.7.5-1.3.8-2.1 1.4-2.4 1.6-.2 0-.4.2-.5.3zm-11.2-3.4l-.5.5c-.1.2-.2.4-.2.6s0 .5.1.7c.1.2.2.3.4.5.3.3.7.4 1.1.4.4 0 .8 0 1-.1.3-.1.5-.2.7-.4.4-.3.6-.7.6-1 0-.5-.3-.8-.8-1.1-.4-.2-.9-.4-1.5-.4-.3 0-.7.1-.9.3zm6.1 3.9c0 .3-.2.5-.5.5h-.9c-.2 0-.4 0-.4-.1s-.1-.2-.1-.3V22c0-.3-.1-.6-.2-1-.5.9-1.2 1.4-2.2 1.7-.4.1-.7.1-1.2.1-.4 0-.9-.1-1.3-.2s-.8-.3-1.1-.6c-.7-.6-1.1-1.5-1.1-2.5 0-1.1.4-2 1.2-2.6.7-.5 1.5-.7 2.6-.7s2 .3 2.7.9v-.8c0-.3-.1-.6-.2-.9-.1-.3-.3-.6-.5-.8-.5-.4-1.1-.6-1.9-.6-.7 0-1.5.2-2.2.6-.1.1-.3.1-.4.1-.2 0-.3-.2-.5-.5s-.2-.6-.2-.7c0-.3.2-.5.6-.8.8-.5 1.8-.7 3.1-.7 1.2 0 2.1.3 2.9 1 .9.8 1.3 1.8 1.3 3.2 0 .6-.1 1.4-.3 2.3.5 1.7.8 2.8.8 3.7zm-10.4-8.4c0 .3-.2.5-.6.5H80V20c0 .6.3.9.9.9.4 0 .9-.2 1.5-.6.1-.1.3-.1.4-.1.1 0 .3.1.3.3l.2.5c.1.2.1.3.1.5 0 .1-.1.3-.3.4-.2.2-.4.3-.7.4-.7.3-1.3.5-1.8.5s-1-.1-1.3-.2c-.3-.1-.6-.3-.8-.5-.5-.5-.7-1.2-.7-2v-5.8H77c-.4 0-.6-.2-.6-.5v-.5c0-.1 0-.2.1-.3.1-.1.2-.1.4-.2l.9-.3.3-2.1c.1-.4.2-.6.5-.6h.8c.1 0 .3.1.3.2.1.1.1.3.1.4v2h2.6c.4 0 .6.2.6.5v.9zm-15.6 1.4c-.2.3-.4.7-.5 1.1-.1.4-.2.9-.2 1.3s.1.9.2 1.3.3.8.5 1.1c.5.7 1.2 1 2.2 1 .9 0 1.7-.3 2.2-1 .4-.6.7-1.4.7-2.4 0-1.5-.5-2.6-1.5-3.2-.4-.2-.8-.3-1.3-.3s-1 .1-1.3.3c-.5.2-.8.5-1 .8zm-2.9 2.3c0-.8.1-1.5.4-2.2.3-.7.6-1.2 1.1-1.7 1-1 2.2-1.5 3.6-1.5 1.6 0 2.9.5 3.8 1.5.9.9 1.3 2.2 1.3 3.9 0 1.6-.5 2.9-1.5 3.9s-2.2 1.5-3.6 1.5c-1.5 0-2.8-.5-3.7-1.5-1-1-1.4-2.3-1.4-3.9zm-7.4-4.4c0-.4.2-.7.6-.7h.5c.3 0 .6.1.7.4.2.4.3 1 .4 1.7 0 0 0-.1.1-.3 0-.2.1-.5.3-.8.1-.3.3-.6.5-.8.4-.4 1-.6 1.6-.6.7 0 1.2.1 1.5.3.1.1.2.2.2.4l-.1 1.1c0 .3-.2.5-.5.5-.1 0-.3 0-.5-.1-.4-.1-.7-.1-.9-.1-.2 0-.4.1-.7.3-.2.2-.4.4-.6.7-.4.6-.5 1.2-.5 1.9v4.8c0 .2 0 .3-.1.4-.1.1-.2.2-.4.2h-1c-.2 0-.3-.1-.4-.2-.1-.1-.2-.3-.2-.4v-6.2c0-1.1 0-1.8-.1-2.1-.4-.1-.4-.4-.4-.4zm-10 4.8c0 .9.3 1.6.9 2.2.5.6 1.2.9 1.9.9.9 0 1.5-.4 1.9-1.3.3-.7.5-1.5.5-2.6 0-.8-.2-1.5-.6-2.1-.4-.6-1-.9-1.7-.9-.8 0-1.5.3-2.1 1-.6.7-.8 1.4-.8 2.3v.5zm.1 3.2c.1.6.1 1.4.1 2.3v3.7c0 .4-.2.7-.5.7h-1.1c-.4 0-.6-.2-.6-.7V17c0-1.7-.1-2.9-.3-3.7V13c0-.1.1-.3.2-.4.1-.1.3-.2.4-.2h.6c.3 0 .6.1.7.4.2.3.3.8.4 1.3.4-.7 1-1.3 1.7-1.6.5-.2 1.1-.4 1.8-.4s1.3.1 1.8.4c.5.3 1 .6 1.3 1.1.7.9 1 2.1 1 3.6 0 1.6-.4 2.9-1.2 4-.8 1.1-1.9 1.7-3.2 1.7-1.4 0-2.4-.6-3.1-1.8zM34 21c1.2 0 1.7-.4 1.7-1.2 0-.4-.3-.8-1-1.1-.3-.1-.6-.2-.9-.4-.3-.1-.6-.2-.9-.4-.3-.2-.6-.3-.8-.5-.3-.2-.5-.4-.7-.6-.4-.5-.6-1.1-.6-1.8 0-.9.4-1.6 1.1-2.2.7-.5 1.5-.7 2.5-.7 1.1 0 1.9.2 2.6.6.2.1.4.3.4.5 0 .3-.1.6-.2.9-.1.3-.3.5-.5.5s-.4 0-.5-.1c-.2-.1-.3-.1-.4-.2-.1-.1-.3-.1-.4-.1-.3-.1-.6-.1-.8-.1-.3 0-.5 0-.6.1-.2 0-.3.1-.4.2-.4.1-.6.3-.6.6s.1.5.2.6c.1.1.3.3.5.4.2.1.5.2.8.4l1 .4c.8.3 1.3.7 1.6.9.5.6.8 1.2.8 1.9 0 .9-.3 1.7-.9 2.3-.7.6-1.7 1-3 1s-2.3-.3-2.9-.8c-.3-.2-.5-.5-.5-.7 0-.2 0-.4.1-.5.1-.2.2-.3.3-.5.1-.2.3-.3.5-.3s.4.1.6.3c.2.2.5.3.9.5.3.1.7.1 1 .1zm-12.8-5.8c-.2.3-.4.7-.5 1.1-.1.4-.2.9-.2 1.3s.1.9.2 1.3.3.8.5 1.1c.5.7 1.2 1 2.2 1 .9 0 1.7-.3 2.2-1 .4-.6.7-1.4.7-2.4 0-1.5-.5-2.6-1.5-3.2-.4-.2-.8-.3-1.3-.3s-1 .1-1.3.3c-.5.2-.8.5-1 .8zm-3 2.3c0-.8.1-1.5.4-2.2.3-.7.6-1.2 1.1-1.7 1-1 2.2-1.5 3.6-1.5 1.6 0 2.9.5 3.8 1.5.9.9 1.3 2.2 1.3 3.9 0 1.6-.5 2.9-1.5 3.9s-2.2 1.5-3.6 1.5c-1.5 0-2.8-.5-3.7-1.5-.9-1-1.4-2.3-1.4-3.9zM12.4 21c1.2 0 1.7-.4 1.7-1.2 0-.4-.3-.8-1-1.1-.3-.1-.6-.2-.9-.4-.3-.1-.6-.2-.9-.4-.3-.2-.6-.3-.8-.5-.3-.2-.5-.4-.7-.6-.4-.5-.6-1.1-.6-1.8 0-.9.4-1.6 1.1-2.2.7-.5 1.5-.7 2.5-.7 1.1 0 1.9.2 2.6.6.2.1.4.3.4.5 0 .3-.1.6-.2.9-.1.3-.3.5-.5.5s-.4 0-.5-.1c-.2-.1-.3-.1-.4-.2-.1-.1-.3-.1-.4-.1-.3-.1-.6-.1-.8-.1-.3 0-.5 0-.6.1-.2 0-.3.1-.4.2-.3.2-.5.4-.5.7 0 .3.1.5.2.6.1.1.3.3.5.4.2.1.5.2.8.4l1 .4c.8.3 1.3.7 1.6.9.5.6.8 1.2.8 1.9 0 .9-.3 1.7-.9 2.3-.7.6-1.7 1-3 1s-2.3-.3-2.9-.8c-.3-.2-.5-.5-.5-.7 0-.2 0-.4.1-.5.1-.2.2-.3.3-.5.1-.2.3-.3.5-.3s.4.1.6.3c.2.2.5.3.9.5h.9z"/>
</svg>