<svg xmlns="http://www.w3.org/2000/svg" width="138" height="131.4" viewBox="0 0 138 131.4">
  <style>
    .st0{fill:#54caf2}.st1{fill:#fff}.st2{fill:#f9bcc9}
  </style>
  <path class="st0" d="M98.3 22.1v-2.2V17v-2.6V13c0-.2.1-.6.1-1.3 0-.7.1-1.5.1-2.4 0-.9 0-1.6.1-2.4V5.6c0-.3.1-.6.1-.9 0-.3 0-.6.1-.9v-.3-.3c.1-.1.2-.2.4-.3h.7c.3 0 .6 0 1 .1.4 0 .7.1 1.1.2.4.1.7.2.9.3.2.1.5.2.9.4.5.2 1.1.5 2 1 .9.5 1.6 1.1 2.1 1.6.5.6.9 1.1 1.3 1.6.6.7 1 1.3 1.3 1.8.3.6.6 1.3.9 2.2.1.4.2.9.3 1.5.1.6.2 1.3.3 2 .1.7.1 1.3.2 1.8.1.6.1.9.1 1.1.1.7 0 1.5 0 2.2s-.2 1.5-.4 2.2l-.3 1.2c-.1.4-.2.8-.4 1.2-.2.5-.4 1-.7 1.6-.3.6-.6 1.2-1 1.8-.3.5-.6.8-.8 1.1-.2.3-.5.5-.7.8-.2.2-.5.4-.7.7l-.8.8c-.7.4-1.5.9-2.3 1.4-.9.5-1.8.8-2.7 1-.8.1-1.4.1-2 .1-.6 0-.8 0-.8-.2-.1-.1-.2-.3-.3-.6-.1-.3-.1-.6-.1-.9V32v-.5-2.7-2.9-2.5-1.3z"/>
  <path class="st0" d="M79.8 14.3v-1.7-2.4-2.3c0-.7.1-1.2.1-1.5v-.9V4 2.4 1.2.9.6c.2-.4.4-.6.8-.6h.8c.5 0 1.1 0 1.8.1.7 0 1.4.1 2.1.1h5.8c.6 0 1.2 0 1.7.1h.8c.6 0 .9.3.9.8.1.6.1 1.2.1 1.7v2.7c0 .3 0 .7.1 1 .1.8.1 1.6.1 2.4v6.8c.1.9.1 1.9 0 2.8 0 .9-.1 1.9-.1 2.8v2.4c0 .7 0 1.5-.1 2.2-.1.7-.2 1.4-.3 2.2-.1.6-.3 1.3-.4 2-.1.7-.3 1.4-.4 2-.3 1.2-.8 2.4-1.7 3.4-.5.5-1 .9-1.6 1.3-.6.3-1.3.5-2 .6-.7.1-1.5 0-2.2-.2-.8-.2-1.5-.5-2.1-1-.6-.4-1.1-.9-1.5-1.5-.6-.9-1.1-1.8-1.5-2.8-.3-1-.6-2-.7-3-.1-.6-.1-1.2-.1-1.8s0-1.2-.1-1.8c-.1-.3-.1-1.1-.2-2.3 0-1.1-.1-2.3-.1-3.5v-3.3-1.9z"/>
  <path class="st0" d="M76.4 29.4c.4.1.6.1.8.2.1.1.2.3.1.5v1.7c0 .4 0 .7-.1 1v.7c0 .2 0 .3-.1.4-.2.4-.6.6-1.3.6h-9c-.3 0-.5 0-.8-.1h-1.5c-.4-.1-.6-.3-.6-.7.1-.6.1-1.3.1-1.9 0-.6 0-1.3.1-1.9v-2.1c0-.7 0-1.3.1-2v-.6c-.1-.7-.1-1.4-.1-2 0-.7 0-1.4.1-2 0-.5.1-1 .1-1.4v-1.4-2.8c0-1-.1-1.9-.1-2.8-.1-.9-.1-1.7-.1-2.6 0-.9.1-1.7.1-2.6V6.1 4.6v-.7c0-.3.2-.4.6-.5 1.4-.3 2.8-.2 4.1 0 .3 0 .5.2.5.5.1.9.2 1.9.2 2.8v2.8c0 .7 0 1.6.1 2.5.1.6.1 1.1.1 1.7 0 .6.1 1.2.1 1.7.1.5.1 1 .1 1.4v4.4c0 .3 0 .7-.1 1.1-.1.3-.1.5 0 .8v1.6c0 .5 0 1 .1 1.5.1.7.1 1.5 0 2.2v.7h4.5c.5.2 1.2.2 1.9.3z"/>
  <path class="st0" d="M60.2 12.6c.1.9.1 1.8.1 2.7V18c0 1.5-.1 3-.1 4.4-.1 1.5-.1 3-.2 4.4v1.6c-.1.9-.1 1.8-.1 2.5s-.1 1.5-.1 2.5v.8c0 .2-.1.4-.2.5-.1.2-.3.2-.5.2h-1.6c-.6 0-1.1-.1-1.5-.3-.5-.1-.9-.3-1.1-.6-.3-.3-.4-.6-.4-1v-.7c0-.2 0-.4.1-.7h-1.3c-.4 0-.8-.1-1.1-.1-.4 0-.8 0-1.3-.1s-.9-.1-1.4-.2c-.4-.1-.8-.2-1.1-.2-.3-.1-.5-.1-.5-.1-1-.4-1.8-.8-2.4-1.4s-1.1-1.2-1.5-1.9c-.4-.6-.6-1.4-.7-2.1-.1-.8-.1-1.6 0-2.5.1-.7.3-1.4.6-1.9s.7-1 1.2-1.5c.3-.3.6-.6 1.2-.9.5-.3.9-.6 1.2-.7.7-.4 1.5-.6 2.1-.7.7-.1 1.5-.2 2.6-.3.8-.1 1.5-.1 2-.1h1.6v-.4-.4c.1-.7 0-1.5-.1-2.5-.1-.9-.3-1.7-.5-2.4-.1-.3-.2-.5-.2-.7-.1-.2-.2-.5-.4-.9-.3-.4-.5-.7-.7-.9-.2-.2-.5-.3-1-.3-.3 0-.6.1-.8.3l-.6.6c-.2.2-.3.5-.4.7-.1.2-.2.4-.2.5-.2.4-.3.8-.4 1.4-.1.5-.2 1.1-.2 1.6 0 .2-.1.4-.1.6-.1.2-.2.3-.4.5-.2.1-.5.2-.8.2h-1.5c-.5 0-1-.2-1.2-.4-.3-.2-.5-.5-.6-.8-.1-.3-.2-.6-.1-.9v-.9-.4c0-.1 0-.3.1-.4.1-1.1.3-2.1.6-2.8.3-.7.5-1.3.7-1.7.2-.4.4-.7.6-.9.2-.2.3-.4.5-.6.5-.5 1-.9 1.5-1.3.2-.3.7-.6 1.4-.7.8-.2 1.7-.2 2.5-.1s1.6.3 2.3.8c.2.1.3.2.5.3.2.1.3.2.5.3.5.3.9.7 1.3 1.1.3.4.6.9.9 1.5.4.9.7 1.8.9 2.8.1.9.2 1.9.3 2.9z"/>
  <path class="st0" d="M35.7 12.2c-.4-.1-.6-.4-.6-.8s.1-.6.1-.8v-.8c0-.3-.1-.6-.1-.9 0-.3-.1-.5-.1-.6-.1-.2-.2-.3-.3-.5-.1-.2-.3-.3-.6-.5s-.7-.3-1.3-.2c-.5 0-1 .2-1.4.6-.2.2-.3.4-.4.6-.1.2-.1.5-.2.8v.8c0 .3.1.5.1.6.1.5.2 1 .4 1.4.2.5.5.9.8 1.3.4.4.7.8 1 1.2.3.4.6.8 1 1.2.2.3.4.5.6.8.2.3.4.5.6.8.5.5.8 1 1.1 1.3.3.3.6.7.9 1 2 2.2 3.2 4.7 3.5 7.4v2c-.2 1.6-1 3-2.5 4-.1.1-.2.1-.3.2-.1.1-.2.2-.4.2-.5.3-.9.5-1.5.7-.5.2-1.1.3-1.7.3h-1.8c-.6 0-1.2-.1-1.8-.3-.5-.1-.9-.2-1.2-.4-.3-.2-.7-.4-1.1-.7-.3-.3-.6-.5-1-.8-.3-.3-.6-.6-.8-.9-.1-.1-.1-.2-.2-.3-.1-.1-.1-.2-.1-.3-.3-.6-.5-1.2-.7-1.7-.2-.6-.3-1.2-.3-1.8v-1c0-.4 0-.7.1-1.1 0-.3.1-.6.1-.9 0-.2.1-.4.1-.5.2-.4.6-.6 1.2-.6h.5c.5.1.9.1 1.4.2.5.1.9.2 1.4.4.5.1.7.4.6.9 0 .4-.1.7-.1 1.1 0 .4-.1.8 0 1.3s.1 1 .2 1.4c.1.4.3.7.7 1 .3.3.8.4 1.3.5.6.1 1.1 0 1.7-.3.4-.2.6-.5.9-.9.2-.4.3-.8.3-1.2 0-.5 0-.9-.2-1.4-.2-.5-.4-1-.6-1.4-.3-.5-.6-.9-.9-1.4-.3-.5-.7-.9-1.1-1.4l-.9-1.2c-.3-.4-.6-.8-.9-1.3-.2-.3-.4-.6-.7-.9-.2-.3-.4-.6-.7-.9-.4-.6-.8-1-1-1.4-.3-.4-.6-.9-.9-1.3-.1-.1-.1-.3-.2-.4l-.3-.3c-.6-.8-1.1-1.6-1.3-2.5-.3-.9-.4-1.7-.5-2.6-.1-.6-.1-1.1 0-1.6l.3-1.5c.3-.8.7-1.4 1.4-1.8 1-.6 2.1-1.1 3.5-1.3 1-.1 2.1-.1 3.2 0s2.1.4 2.9.9c.5.3.9.7 1.3 1 .4.4.7.8 1 1.3.2.3.3.7.4 1 .1.4.1.7.2 1.1V10.9c0 .9-.6 1.4-1.8 1.4h-1.3c-.3 0-.5 0-.8-.1.1.1-.1 0-.2 0z"/>
  <g>
    <path class="st1" d="M5 48.7c.4.3.7.7 1 1.3.2.6.3 1.3.1 1.9-.1.5-.2.9-.4 1.2-.2.3-.6.6-1.1.8-.2.1-.4.2-.8.2-.4.1-.6.1-.8.1-.7 0-1.3-.2-1.9-.7-.6-.5-.9-1-1-1.7-.2-1.2.2-2.2 1.1-2.9 1-.8 2.2-1 3.5-.6.1 0 .1.1.1.1.1.2.1.3.2.3"/>
    <path class="st1" d="M4.9 55.8c.6 0 .9.3.8.8v12.5c0 .4 0 .7-.1 1.1v1.3c-.1 1.1-.1 2.1-.1 3 0 .9 0 1.9.1 3 .1.4.1.7.2 1 .1.3 0 .5-.1.8-.1.3-.3.5-.7.5-1.4.2-2.8.2-4.2 0-.4-.1-.6-.2-.6-.5-.1-.3-.2-.6-.2-1v-1.1c.1-.9.1-1.8.1-2.7 0-.9.1-1.8.1-2.7v-1.2c0-.4 0-.8.1-1.2v-1.7V66v-1.5-2.2-2.2c0-.7 0-1.2.1-1.5v-.8-.8-.4c0-.1 0-.3.1-.4 0-.3.2-.4.6-.5h2.2c.6 0 1.1.1 1.6.1z"/>
    <path class="st1" d="M100.7 79.2c.1.4.2.7.2 1 0 .3.1.7.1 1.1.1.4 0 .6 0 .8-.1.1-.3.2-.7.3-.4.1-.7.2-1.2.2-.4 0-.8 0-1.2.1h-1c-.4 0-.7 0-1-.1-.5-.1-.7-.2-.9-.4-.1-.2-.2-.5-.3-1.1 0-.4-.1-.7-.1-1 0-.3-.1-.7-.1-1-.2-.9-.3-1.9-.5-2.8-.2-.9-.3-1.9-.5-2.8l-.3-1.8c-.1-.6-.2-1.2-.3-1.7l-.3-1.2-.3-1.2c-.2-.9-.4-1.9-.5-2.8-.1-1-.3-1.9-.5-2.8-.1-.3 0-.5.1-.7.2-.2.4-.3.7-.4h3c.3 0 .5 0 .8.1.4.1.6.4.8.8.3 1.2.6 2.5.8 3.7.2 1.3.5 2.5.7 3.8.1.5.2.9.3 1.4.1.5.2.9.4 1.4.3 1.2.5 2.4.9 3.6.3 1.2.6 2.3.9 3.5"/>
    <path class="st1" d="M100.5 47.8c1.1 1.3 1.6 2.8 1.4 4.5-.1.7-.2 1.3-.4 2-.2.6-.5 1.3-.8 1.9-.2.4-.4.7-.7 1l-.9.9c-.8.7-1.6 1.2-2.6 1.6-.9.3-1.9.5-3 .5-.5 0-1 0-1.6-.2-.6-.2-.9-.6-.9-1.2v-1-1c0-.5-.1-.9-.1-1.3s0-.8.1-1.3v-.8c0-.3 0-.6-.1-.9v-2c0-.7 0-1.3-.1-2v-.9c0-.3.1-.6.1-.9.1-.4.2-.6.3-.7.1-.1.4-.2.7-.3.5-.1.9-.1 1.3-.2s.9-.1 1.3-.1c.6-.1 1.3 0 1.8.1.6.1 1.1.3 1.7.7.5.2.9.5 1.2.8.6.1.9.5 1.3.8z"/>
    <path class="st1" d="M90.1 80.6c0 .8 0 1.4-.1 1.6-.1.2-.4.4-.9.5-.7.1-1.2.2-1.7.2-.4 0-.9 0-1.5-.1h-.7c-.2 0-.3-.1-.5-.2-.3-.2-.5-.6-.5-1v-.4-.4-2.1-2c.1-1.1.1-2.3.1-3.4s-.1-2.2-.1-3.4v-2.2c0-.7.1-1.4.1-2.2 0-.6.1-1.3.1-1.9v-1.9c0-.4-.1-.8-.1-1.2v-1.4c0-.6-.1-1.3-.1-2.1 0-.7 0-1.5.1-2.3v-1.5c0-.5-.1-1-.1-1.5 0-.7-.1-1.4-.1-2.1 0-.7 0-1.4.1-2.1 0-.3.1-.5.1-.8.1-.3.1-.5.2-.8.1-.4.4-.6.8-.6H88.5c.4 0 .6.1.8.2.1.1.3.4.3.7.2.7.3 1.4.3 2.1 0 .7 0 1.4.1 2.1 0 .5.1.9.1 1.1 0 .3 0 .6-.1 1.1v1.9c.1 1.1.1 2.1 0 3 0 .9-.1 1.9-.1 2.9v2.4c-.1.9-.1 1.7 0 2.6v3.8c0 .4 0 .8.1 1.4v2.1l.1 7.9z"/>
    <path class="st1" d="M81.1 46.2c.1.4.1 1.1.1 2.3v3.9c0 1.4 0 2.7-.1 3.8 0 1.2-.1 1.9-.1 2.3V64.2c0 1.4 0 2.9-.1 4.3 0 .9-.1 1.7-.1 2.6 0 .9-.1 1.7-.3 2.6-.2.9-.4 1.9-.6 2.8-.2.9-.6 1.8-1 2.7-.6 1-1.3 1.8-2.3 2.3l-1 .6c-.8.4-1.6.6-2.4.6-.8 0-1.6 0-2.5-.2-.6-.2-1.2-.4-1.7-.8s-.9-.8-1.4-1.3c-.2-.2-.3-.4-.5-.6-.2-.2-.3-.5-.5-.9s-.4-1-.6-1.7c-.2-.7-.4-1.6-.4-2.7-.2-1.7-.2-3.1-.2-4.2s.1-1.8.1-2.2v-.8-.8c0-.7.5-1.2 1.3-1.4.7-.2 1.2-.3 1.7-.3h1.7c.3 0 .5.2.7.4.2.2.2.7 0 1.5-.1.5-.2.9-.2 1.2s-.1.7-.2 1.1c0 .3-.1.7-.1 1v1.2c0 .6.1 1.3.1 2 0 .8.2 1.4.4 2 0 .1.1.3.2.5s.2.4.3.7c.1.2.3.4.5.6.2.2.5.3.8.3.5.1.8 0 1-.2l.8-.8c.2-.4.4-.6.5-.8.1-.2.2-.4.3-.7.2-.6.4-1.4.6-2.3.2-.9.2-1.7.2-2.4v-1.9c0-.6.1-1.3.1-1.8-.1-.5-.1-1-.1-1.4 0-.4 0-.9.1-1.3 0-.8.1-1.5.1-2.1v-2.4-1.3-5.1-2.5V48c0-.7 0-1.3.1-1.8 0-.5.1-.8.2-.8.1-.1.3-.2.6-.2s.6-.1.9-.1h1c.3 0 .6.1.8.1.5.1.8.1.9.2.1.2.2.5.3.8z"/>
    <path class="st1" d="M68.9 62.1c-.7-.3-1.3-.8-1.8-1.4-.5-.6-.9-1.2-1.2-2-.6-1.3-.7-2.8-.4-4.3.2-.6.3-1.2.5-1.7.2-.6.4-1.1.8-1.7l.6-.9c.3-.3.5-.6.7-.7.5-.4.9-.7 1.3-.9.4-.2.9-.4 1.5-.7.5-.2.9-.4 1.3-.5.4-.1.9-.1 1.6 0h.1c.5.1.8.2.9.4.2.2.3.6.2 1.3v8.1c.1.7.1 1.5 0 2.2 0 .7-.1 1.5-.2 2.2 0 .4-.1.6-.2.8-.1.1-.3.3-.6.4-.5.1-1.1.2-1.8.2-.5.1-1 0-1.5-.1s-1-.4-1.5-.7c-.1 0-.1-.1-.1-.1-.1.2-.1.1-.2.1z"/>
    <path class="st1" d="M62.8 76V79.1c-.1.3-.4.5-.7.5-.6.1-1.1.2-1.7.3-.6.1-1.1.1-1.7.1h-7.8c-.2 0-.4 0-.7-.1-.3 0-.5-.2-.5-.4v-.6V77 65v-.4-.4c0-.2.1-.4.1-.6v-1.9-.8-1.5-1.5c-.1-.6-.1-1.2-.2-1.7s-.1-1.2-.1-1.8v-2-.8-.8-.4c0-.1 0-.3-.1-.4v-.1c0-.3.1-.5.4-.6.3-.4 1.1-.6 2.3-.6h1.8c.8-.1 1.7-.1 2.5-.1s1.7 0 2.5.1h1.4c1 .1 1.6.2 1.9.3s.5.5.6.9v2.3c0 .4 0 .6-.1.8-.1.4-.3.6-.7.6l-1.8.3c-.6.1-1.2.1-1.8.1h-3.7v2.5c0 .6 0 1.1.1 1.7.1.6.1 1.2.1 1.8 0 .6 0 1.2-.2 1.8V65.4h6c.6.1 1 .3 1.2.7v.5c-.1.6-.1 1.1-.1 1.6s-.1 1.1-.1 1.6c-.1.5-.6.8-1.4.7-.9-.1-1.8-.1-2.7-.1H54.8v2.8c0 .2-.1.4-.1.7V75c.8-.1 1.6-.1 2.3-.1.8 0 1.5 0 2.3.1h1.3c.9.1 1.5.2 1.8.4 0-.1.2.2.4.6z"/>
    <path class="st1" d="M47 49.5v.7c0 .3.1.6.1 1 0 .3 0 .7.1 1v.7c0 .2-.1.4-.2.5-.2.1-.5.2-1.1.2-.9.2-1.9.2-2.8.1h-2v3.2c-.1.5-.1 1-.1 1.5v2.3c.1.5.1.9.1 1.2v2c0 .4 0 .8.1 1.1v1.6c0 .4 0 .9-.1 1.4-.1.6-.1 1.1-.1 1.7 0 .6-.1 1.1-.1 1.7-.1.4-.1.8-.1 1.2V76.5c0 .9-.1 1.8-.2 2.7 0 .4-.2.5-.5.6-1.4.3-2.7.3-4.1 0-.3 0-.5-.2-.6-.5v-.8V77v-1.5c-.1-.9-.1-1.7-.1-2.6 0-.9 0-1.7.1-2.6.1-.9.1-1.9.1-2.8v-2.8-1.4c0-.5-.1-1-.1-1.4 0-.7-.1-1.4-.1-2 0-.7 0-1.3.1-2v-.6c-.1-.6-.1-1.2-.1-1.8v-1.9h-3c-.7 0-1.2 0-1.4-.1-.2 0-.5-.2-.7-.5-.1-.1-.2-.2-.3-.4-.5-1-.6-2.1-.5-3.1.1-.3.2-.4.4-.6.2-.1.6-.2 1.1-.4.5-.1.9-.1 1.4-.1.5 0 .9 0 1.4-.1 1.1-.1 2.1-.1 3.2-.1h8.4c.9 0 1.5.2 1.7.5-.1.6 0 .7 0 .8z"/>
    <path class="st1" d="M15.5 61.8c-.1-.1-.2 0-.2.3v1.2c0 .5 0 1 .1 1.6v1.4c.1.6.1 1.3.1 1.9v12.1c0 .3 0 .6-.1.9-.1.3-.1.6-.2.9-.1.3-.4.5-.8.6-.8.1-1.4.1-2 0-.6 0-1.2-.1-1.8-.3-.1-.1-.2-.1-.3-.1-.1 0-.2-.1-.3-.1-.3-.2-.4-.4-.4-.6v-.7-1.4-1.4-.7-1.7c0-.9.1-1.8.1-2.9v-3.4-3.2c0-.4-.1-1.1-.1-2 0-1-.1-2-.1-3 0-1.1-.1-2-.1-2.9v-1.8V54v-1.6V48.1v-.9c0-.3.1-.6.1-.9 0-.3.2-.5.5-.6.2-.1.5-.1.7-.2.2-.1.5-.1.7-.1h3.2c.1 0 .4 0 .7.1.2.1.4.3.6.7.1.4.3.9.4 1.4.1.5.2 1 .3 1.6.1.5.2 1 .3 1.3.2.7.4 1.5.7 2.2.2.7.4 1.5.6 2.2 0 .2.1.6.3 1.1.1.5.3 1.2.5 1.9s.4 1.5.6 2.4c.2.9.4 1.7.6 2.4.2.8.4 1.4.5 2 .2.6.3 1 .3 1.3.1.3.1.5.2.8.1.2.2.5.3.8.1.1.2.1.2-.2 0-.3.1-.6.1-1.1v-1.7c0-.6 0-1.2-.1-1.8v-1.5V59v-1-1.4-1.3-1c0-.6-.1-1.2-.1-1.7s-.1-1.1-.1-1.8v-1.9-1.7-.4-.4c0-.2.1-.4.2-.6.1-.2.5-.3 1-.4.1 0 .3-.1.6-.1s.6-.1.9-.1H25.9c.5 0 .8.2 1 .5.2.3.3.6.2.9-.1.7-.1 1.5-.2 2.2 0 .7-.1 1.5-.1 2.2V63.5c0 .7 0 1.4-.1 2.2 0 .8-.1 1.5-.1 2.1V81c0 .4-.1.7-.1.8-.1.3-.2.4-.5.5-.3.1-.6.2-.9.2h-2.2c-.2 0-.4 0-.6-.1-.2 0-.5-.1-.8-.1-.3-.1-.6-.2-.8-.3-.5-.3-.8-.6-.8-1.1-.1-.9-.2-1.8-.4-2.6s-.4-1.7-.5-2.6c-.3-1.7-.6-3.3-1.1-4.9-.5-1.6-.9-3.2-1.2-4.9l-.6-2.1c-.1-.6-.3-1.3-.6-2z"/>
    <path class="st1" d="M137.1 74.8c.4.1.6.1.8.2.1.1.2.3.1.5v1.7c0 .4 0 .7-.1 1v.7c0 .2 0 .3-.1.4-.2.4-.6.6-1.3.6h-9c-.3 0-.5 0-.8-.1h-1.5c-.4-.1-.6-.3-.6-.7.1-.6.1-1.3.1-1.9 0-.6 0-1.3.1-1.9v-2.1c0-.7 0-1.3.1-2v-.6c-.1-.7-.1-1.4-.1-2 0-.7 0-1.4.1-2 0-.5.1-1 .1-1.4v-1.4V61c0-1-.1-1.9-.1-2.8-.1-.9-.1-1.7-.1-2.6 0-.9.1-1.7.1-2.6v-1.5V50v-.7c0-.3.2-.4.6-.5 1.4-.3 2.8-.2 4.1 0 .3 0 .5.2.5.5.1.9.2 1.9.2 2.8v2.8c0 .7 0 1.6.1 2.5.1.6.1 1.1.1 1.7s.1 1.1.1 1.7c.1.5.1 1 .1 1.4v1.6c-.1.4-.1.7-.1 1.1v2c0 .3 0 .7-.1 1.1-.1.3-.1.5 0 .8v1.6c0 .5 0 1 .1 1.5.1.7.1 1.5 0 2.2v.7h4.5c.6-.2 1.3-.1 2 0z"/>
    <path class="st1" d="M121 57.9c.1.9.1 1.8.1 2.7v2.7c0 1.5-.1 3-.1 4.4s-.1 3-.2 4.4v1.6c-.1.9-.1 1.8-.1 2.5s-.1 1.5-.1 2.5v.8c0 .2-.1.4-.2.5-.1.2-.3.2-.5.2h-1.6c-.6 0-1.1-.1-1.5-.3-.5-.1-.9-.3-1.1-.6-.3-.3-.4-.6-.4-1v-.7c0-.2 0-.4.1-.7h-1.3c-.4 0-.8-.1-1.1-.1-.4 0-.8 0-1.3-.1s-.9-.1-1.4-.2c-.4-.1-.8-.2-1.1-.2-.3-.1-.5-.1-.5-.1-1-.4-1.8-.8-2.4-1.4-.6-.6-1.1-1.2-1.5-1.9-.4-.6-.6-1.4-.7-2.1-.1-.8-.1-1.6 0-2.6.1-.7.3-1.4.6-1.9s.7-1 1.2-1.5c.3-.3.6-.6 1.2-.9.5-.3.9-.6 1.2-.7.7-.4 1.4-.6 2.1-.7s1.5-.2 2.5-.3c.8-.1 1.5-.1 2-.1h1.6v-.4-.4c.1-.7 0-1.5-.1-2.5s-.3-1.7-.5-2.4c-.1-.3-.2-.5-.2-.7s-.2-.5-.4-.9c-.3-.4-.5-.7-.7-.9-.2-.2-.6-.3-1-.3-.3 0-.6.1-.8.3l-.6.6c-.2.2-.3.5-.4.7-.1.2-.2.4-.2.5-.2.4-.3.8-.4 1.4-.1.5-.2 1.1-.2 1.6 0 .2-.1.4-.1.6-.1.2-.2.3-.4.5-.2.1-.5.2-.8.2h-1.5c-.6 0-1-.2-1.2-.4-.3-.2-.5-.5-.6-.8-.1-.3-.2-.6-.1-.9V57v-.4c0-.1 0-.3.1-.4.1-1.1.3-2.1.6-2.8.3-.7.5-1.3.7-1.7.2-.4.4-.7.6-.9.2-.2.3-.4.5-.6.5-.5 1-.9 1.5-1.3s1.1-.6 1.7-.8c.8-.2 1.7-.2 2.5-.1s1.6.3 2.3.8c.2.1.3.2.5.3.2.1.3.2.5.3.5.3.9.7 1.3 1.1.3.4.6.9.9 1.5.4.9.7 1.8.9 2.8-.2 1.1-.1 2.1.1 3.1z"/>
  </g>
  <g>
    <path class="st2" d="M87.5 110.5c-.1-.1-.2 0-.2.3v1.2c0 .5 0 1 .1 1.6v1.4c.1.6.1 1.3.1 1.9V129c0 .3 0 .6-.1.9-.1.3-.1.6-.2.9-.1.3-.4.5-.8.6-.8.1-1.4.1-2 0-.6 0-1.2-.1-1.8-.3-.1-.1-.2-.1-.3-.1-.1 0-.2-.1-.3-.1-.3-.2-.4-.4-.4-.6v-.7-1.4-1.4-.7-1.7c0-.9.1-1.8.1-2.9v-3.4-3.2c0-.4-.1-1.1-.1-2 0-1-.1-2-.1-3 0-1.1-.1-2-.1-2.9v-1.8-2.5-1.6V96.8v-.9c0-.3.1-.6.1-.9 0-.3.2-.5.5-.6.2-.1.5-.1.7-.2s.5-.1.7-.1h3.2c.1 0 .4 0 .7.1.2.1.4.3.6.7.1.4.3.9.4 1.4.1.5.2 1 .3 1.6.1.5.2 1 .3 1.3.2.7.4 1.5.7 2.2.2.7.4 1.5.6 2.2 0 .2.1.6.3 1.1.1.6.3 1.2.5 1.9s.4 1.5.6 2.4c.2.9.4 1.7.6 2.4.2.8.4 1.4.5 2 .2.6.3 1 .3 1.3.1.3.1.5.2.8.1.2.2.5.3.9.1.1.2.1.2-.2 0-.3.1-.6.1-1.1v-1.7c0-.6 0-1.2-.1-1.8v-1.5-2.3-1-1.4-1.3-1c0-.6-.1-1.2-.1-1.7s-.1-1.1-.1-1.8v-1.9V96v-.4-.4c0-.2.1-.4.2-.6.1-.2.5-.3 1-.4.1 0 .3-.1.6-.1s.6-.1.9-.1H97.9c.5 0 .8.2 1 .5.2.3.3.6.2.9-.1.7-.1 1.5-.2 2.2 0 .7-.1 1.5-.1 2.2V112.3c0 .7 0 1.4-.1 2.2 0 .8-.1 1.5-.1 2.1v13.2c0 .4-.1.7-.1.8-.1.3-.2.4-.5.5-.3.1-.6.2-.9.2h-2.2c-.2 0-.4 0-.6-.1-.2 0-.5-.1-.8-.1-.3-.1-.6-.2-.8-.3-.5-.3-.8-.6-.8-1.1-.1-.9-.2-1.8-.4-2.6s-.4-1.7-.5-2.6c-.3-1.7-.6-3.3-1.1-4.9-.5-1.6-.9-3.2-1.2-4.9l-.6-2.1c-.2-.8-.4-1.4-.6-2.1"/>
    <path class="st2" d="M78.3 106.6c.1.9.1 1.8.1 2.7v2.7c0 1.5-.1 3-.1 4.4-.1 1.5-.1 3-.2 4.4v1.6c-.1.9-.1 1.8-.1 2.5s-.1 1.5-.1 2.5v.8c0 .2-.1.4-.2.5-.1.2-.3.2-.5.2h-1.6c-.6 0-1.1-.1-1.5-.3-.5-.1-.8-.3-1.1-.6-.3-.3-.4-.6-.4-1v-.7c0-.2 0-.4.1-.7h-1.3c-.4 0-.8-.1-1.1-.1-.4 0-.8 0-1.3-.1s-.9-.1-1.4-.2c-.4-.1-.8-.2-1.1-.2-.3-.1-.5-.1-.5-.1-1-.4-1.8-.8-2.4-1.4s-1.1-1.2-1.5-1.9c-.4-.6-.6-1.4-.7-2.1-.1-.8-.1-1.6 0-2.6.1-.7.3-1.4.6-1.9s.7-1 1.2-1.5c.3-.3.6-.6 1.2-.9.5-.3.9-.6 1.2-.7.7-.4 1.4-.6 2.1-.7s1.5-.2 2.6-.3c.8-.1 1.5-.1 2-.1h1.6v-.4-.4c.1-.7 0-1.5-.1-2.5-.1-.9-.3-1.7-.5-2.4-.1-.3-.2-.5-.2-.7-.1-.2-.2-.5-.4-.9-.3-.4-.5-.7-.7-.9s-.6-.3-1-.3c-.3 0-.6.1-.8.3l-.6.6c-.2.2-.3.5-.4.7-.1.2-.2.4-.2.5-.2.4-.3.8-.4 1.4-.1.5-.2 1.1-.2 1.6 0 .2-.1.4-.1.6-.1.2-.2.3-.4.5-.2.1-.5.2-.8.2h-1.5c-.6 0-1-.2-1.2-.4s-.5-.5-.6-.8c-.1-.3-.2-.6-.1-.9v-.9-.4c0-.1 0-.3.1-.4.1-1.1.3-2.1.6-2.8.3-.7.5-1.3.7-1.7.2-.4.4-.7.6-.9s.3-.4.5-.6c.5-.5 1-.9 1.5-1.3s1.1-.6 1.7-.8c.8-.2 1.7-.2 2.5-.1s1.6.3 2.3.8c.2.1.3.2.5.3.2.1.3.2.5.3.5.3.9.7 1.3 1.1.3.4.6.9.9 1.5.4.9.7 1.8.9 2.8-.2 1.1-.1 2.1 0 3.1z"/>
    <path class="st2" d="M58.1 127.9c.1.4.2.7.2 1 0 .3.1.7.1 1.1.1.4 0 .6 0 .8-.1.1-.3.2-.7.3-.4.1-.7.2-1.2.2-.4 0-.8 0-1.2.1h-1c-.4 0-.7 0-1-.1-.5-.1-.7-.2-.9-.4s-.2-.5-.3-1.1c0-.4-.1-.7-.1-1 0-.3-.1-.7-.1-1-.2-.9-.3-1.9-.5-2.8-.2-.9-.3-1.9-.5-2.8l-.3-1.8c-.1-.6-.2-1.2-.3-1.7l-.3-1.2-.3-1.2c-.2-.9-.4-1.9-.5-2.8-.1-1-.3-1.9-.5-2.8-.1-.3 0-.5.1-.7.2-.2.4-.3.7-.4h3c.3 0 .5 0 .8.1.4.1.6.4.8.8.3 1.2.6 2.5.8 3.7s.5 2.5.7 3.8c.1.5.2.9.3 1.4.1.5.2.9.4 1.4l.9 3.6c.3 1.1.6 2.3.9 3.5z"/>
    <path class="st2" d="M57.8 96.5c1.1 1.3 1.6 2.8 1.4 4.5-.1.7-.2 1.3-.4 2-.2.6-.5 1.3-.8 1.9-.2.4-.4.7-.7 1l-.9.9c-.8.7-1.6 1.2-2.6 1.6-.9.3-1.9.5-3 .5-.5 0-1 0-1.6-.2-.6-.2-.9-.6-.9-1.2v-1-1c0-.5-.1-.9-.1-1.3s0-.8.1-1.3v-.8c0-.3 0-.6-.1-.9v-2c0-.7 0-1.3-.1-2v-.9c0-.3.1-.6.1-.9.1-.4.2-.6.3-.7.1-.1.4-.2.7-.3.5-.1.9-.1 1.3-.2s.9-.1 1.3-.1c.6-.1 1.3 0 1.8.1.6.1 1.1.3 1.7.7.5.2.9.5 1.2.8.7.1 1 .4 1.3.8z"/>
    <path class="st2" d="M47.5 129.2c0 .8 0 1.4-.1 1.6-.1.2-.4.4-.9.5-.7.1-1.2.2-1.7.2-.4 0-.9 0-1.5-.1h-.7c-.2 0-.3-.1-.5-.2-.3-.2-.5-.6-.5-1v-.4-.4-2.1-2c.1-1.1.1-2.3.1-3.4s-.1-2.2-.1-3.4v-2.2c0-.7.1-1.4.1-2.2 0-.6.1-1.3.1-1.9v-1.9c0-.4-.1-.8-.1-1.2v-1.4c0-.6-.1-1.3-.1-2.1 0-.7 0-1.5.1-2.3v-1.5c0-.5-.1-1-.1-1.5 0-.7-.1-1.4-.1-2.1 0-.7 0-1.4.1-2.1 0-.3.1-.5.1-.8.1-.3.1-.5.2-.8.1-.4.4-.6.8-.6H45.9c.4 0 .6.1.8.2.1.1.3.4.3.7.2.7.3 1.4.3 2.1 0 .7 0 1.4.1 2.1 0 .5.1.9.1 1.1 0 .3 0 .6-.1 1.1v1.9c.1 1.1.1 2.1 0 3 0 .9-.1 1.9-.1 2.9v2.4c-.1.9-.1 1.7 0 2.6v3.8c0 .4 0 .8.1 1.4v2.1l.1 7.9z"/>
    <path class="st2" d="M38.9 95.6c.1 1 0 2.1-.5 3.1 0 .1-.1.2-.1.3 0 .1-.1.2-.2.2-.3.3-.5.4-.7.5-.2 0-.7.1-1.4.1h-3v2.8c0 .8 0 1.6-.1 2.3v.7c.1.8.1 1.6.1 2.4 0 .8 0 1.6-.1 2.4 0 .6-.1 1.1-.1 1.7v5c0 1.1.1 2.2.1 3.3.1 1 .1 2.1.1 3.1s-.1 2-.1 3.1v4.4c0 .3-.2.5-.5.6-1.4.3-2.8.2-4.1 0-.3-.1-.5-.3-.5-.7-.1-1.1-.2-2.1-.2-3.2v-3.3-1.5c0-.5 0-1-.1-1.5-.1-.6-.1-1.3-.1-2s-.1-1.3-.1-2c-.1-.6-.1-1.1-.1-1.6v-1.9c.1-.5.1-.9.1-1.3v-1.3-1.1c0-.3 0-.8.1-1.3v-.5-.5-1.8c0-.6 0-1.2-.1-1.8-.1-.9-.1-1.7 0-2.6v-1-1h-2c-.9 0-1.9 0-2.8-.1-.6-.1-.9-.1-1.1-.2-.2-.1-.2-.3-.2-.5v-.6c0-.3.1-.6.1-.9 0-.3 0-.7.1-1v-.7c0-.1.1-.3.2-.4.3-.4.9-.6 1.7-.6h5.2c1 .1 2.1.1 3.2 0h3.2c.5 0 .9.1 1.4.1.5 0 .9.1 1.4.1.6.1.9.2 1.1.3-.1-.1 0 .1.1.4z"/>
    <path class="st2" d="M111.9 105.1c-.4-.1-.6-.4-.6-.9 0-.4.1-.7.1-.9v-1-1c0-.4-.1-.6-.1-.6-.1-.2-.2-.4-.3-.7-.1-.2-.3-.4-.6-.6-.3-.3-.7-.3-1.3-.3-.6.1-1 .3-1.4.7-.2.2-.3.4-.3.7-.1.3-.1.6-.1.9v.9c0 .3 0 .6.1.8.2 1.2.6 2.3 1.3 3.2.3.5.7.9 1 1.4.3.5.7.9 1 1.4.5.6.8 1.2 1.2 1.8.5.6.8 1.1 1.1 1.5l.9 1.2c1 1.3 1.8 2.7 2.4 4.1.6 1.4.9 2.9 1.1 4.6v2.3c-.1 1.9-1 3.5-2.5 4.8l-.3.3-.3.3c-.5.4-1 .6-1.5.8-.5.2-1.1.3-1.7.3h-1.9c-.6 0-1.2-.1-1.8-.3-.5-.1-.8-.3-1.2-.5-.3-.2-.7-.5-1.1-.8-.3-.3-.6-.6-1-.9-.3-.3-.6-.6-.8-1-.1-.1-.1-.3-.2-.4-.1-.1-.1-.2-.2-.4-.3-.6-.5-1.3-.6-2-.2-.7-.2-1.4-.2-2.1v-1.2c0-.4 0-.8.1-1.2 0-.4.1-.7.1-1 0-.3.1-.5.1-.5.2-.5.6-.7 1.2-.7h.5c.9.2 1.8.4 2.7.7.3.1.5.3.6.4.1.1.1.4.1.7-.1.4-.1.9-.1 1.3v1.5c.1.6.1 1.1.2 1.6s.3.8.6 1.2c.4.3.8.4 1.4.6.6.1 1.1 0 1.7-.4.4-.3.6-.6.8-1.1.2-.5.3-.9.4-1.4 0-.5 0-1.1-.2-1.7-.2-.6-.4-1.1-.7-1.6-.3-.6-.6-1.1-.9-1.6-.3-.5-.7-1-1-1.6-.3-.5-.6-.9-.9-1.4-.3-.5-.6-1-.8-1.5-.2-.4-.4-.7-.7-1.1-.2-.4-.4-.7-.7-1.1-.5-.6-.8-1.2-1.1-1.7-.3-.5-.5-1-.8-1.5-.1-.2-.1-.3-.2-.5s-.2-.3-.3-.4c-.6-.9-1-1.9-1.3-2.9-.2-1-.4-2-.5-3.1-.1-1.3 0-2.5.3-3.6.2-.8.7-1.6 1.4-2.2 1-.8 2.2-1.3 3.5-1.5 1-.2 2.1-.2 3.2 0s2 .5 2.9 1c.5.4.9.7 1.3 1.2.4.4.7.9 1 1.6.2.4.3.8.4 1.2.1.4.2.8.2 1.3v3.1c0 1.1-.6 1.7-1.8 1.7h-2.1c-.5-.1-.7-.1-.8-.2"/>
  </g>
</svg>