<svg xmlns="http://www.w3.org/2000/svg" width="286.2" height="25.7" viewBox="0 0 286.2 25.7">
  <style>
    .st0{fill:#fff}
  </style>
  <path class="st0" d="M93 1.2c.1.7 0 1.4-.4 2.1 0 .1 0 .1-.1.2l-.1.1c-.2.2-.3.3-.5.3s-.5.1-1 .1h-2v1.9c0 .5 0 1.1-.1 1.6V8c0 .5.1 1.1 0 1.6s0 1.1 0 1.6c0 .4 0 .8-.1 1.1V15.6c0 .7 0 1.5.1 2.3 0 .7.1 1.4 0 2.1 0 .7 0 1.4-.1 2.1V25.1c0 .2-.1.3-.4.4-.9.2-1.9.2-2.8 0-.2 0-.3-.2-.4-.5-.1-.7-.1-1.5-.1-2.2v-2.2-1c0-.3 0-.7-.1-1 0-.4-.1-.9-.1-1.3 0-.5 0-.9-.1-1.4 0-.4-.1-.8-.1-1.1v-1.3c0-.3.1-.6 0-.9s0-.6 0-.9V11c0-.2 0-.5.1-.9v-.3-.3-1.2-1.2-1.8-.7-.7h-1.4c-.6 0-1.3 0-1.9-.1-.4 0-.6-.1-.7-.2s-.2-.2-.2-.4v-.4-.6-.7V1c0-.1 0-.2.1-.3.2-.3.6-.4 1.2-.4h3.6c.7 0 1.4.1 2.2 0h2.2c.3 0 .6 0 .9.1.3 0 .6.1.9.1.4.1.6.1.8.2.5.2.6.3.6.5z"/>
  <path class="st0" d="M94.9 9.8V8.6 7 5.4c0-.5 0-.8.1-1v-.6-1-1.1-.8-.2-.2c.1-.2.2-.3.5-.3h1.7c.5 0 .9 0 1.5.1s.9 0 1.3 0H104.3c.4 0 .6.2.6.6 0 .4.1.8.1 1.2v2.5c0 .5.1 1.1.1 1.6v6.5c0 .6-.1 1.3-.1 1.9v1.6c0 .5 0 1-.1 1.5s-.1 1-.2 1.5c-.1.4-.2.9-.3 1.4s-.2.9-.3 1.4c-.2.8-.6 1.6-1.2 2.3-.3.4-.7.6-1.1.9-.4.2-.9.4-1.4.4-.5.1-1 0-1.5-.1s-1-.4-1.4-.7c-.4-.3-.7-.6-1-1-.4-.6-.8-1.2-1-1.9-.2-.7-.4-1.3-.5-2 0-.4-.1-.8-.1-1.2v-1.2c0-.4-.1-1-.1-1.8v-2.4-2.2c.1-.6.1-1 .1-1.3z"/>
  <path class="st0" d="M113.5 15.2v-1.5-2-1.8V9c0-.1 0-.4.1-.9V6.5 4.9 4v-.6-.6-.2-.2c.1-.1.2-.2.3-.2h.4c.2 0 .4 0 .7.1s.5.1.7.1c.3.1.5.1.6.2.1 0 .3.1.6.3.3.1.8.3 1.3.7.6.4 1.1.7 1.4 1.1.3.4.6.8.9 1.1.4.5.7.9.9 1.3.2.4.4.9.6 1.5.1.2.1.6.2 1s.1.9.2 1.3c0 .5.1.9.1 1.3s.1.6.1.8v1.5l-.3 1.5c0 .3-.1.5-.2.8s-.2.5-.3.8c-.1.3-.3.7-.5 1.1-.2.4-.4.8-.7 1.3-.2.3-.4.6-.6.7-.2.2-.3.4-.5.5-.2.2-.3.3-.5.4-.2.1-.4.3-.6.5-.5.3-1 .6-1.6.9s-1.2.6-1.8.7c-.5 0-1 .1-1.4.1-.4 0-.6 0-.5-.1-.1-.1-.2-.2-.2-.4s-.1-.4-.1-.6v-.6-.3V20v-2-1.7c.7-.6.7-.9.7-1.1z"/>
  <path class="st0" d="M133.8 21v2.1c-.1.2-.3.3-.5.4-.4.1-.8.2-1.2.2-.4.1-.8.1-1.1 0h-5.8c-.2 0-.3-.1-.3-.3V23v-1.3-8.1-.3-.3-.4-1.3-.5-1-1c0-.4-.1-.8-.1-1.2 0-.4-.1-.8-.1-1.2V4.8v-.5-.5-.3-.3-.1c0-.2.1-.4.3-.4.2-.2.7-.4 1.6-.4h1.2c.6 0 1.1-.1 1.7-.1h2.7c.7 0 1.1.1 1.3.2.2.1.3.3.4.6v1.5c0 .2 0 .4-.1.5 0 .2-.2.4-.5.4-.4.1-.8.2-1.2.2-.4.1-.8.1-1.2 0h-2.5V7.3c0 .4 0 .8.1 1.2 0 .4.1.8.1 1.3 0 .4 0 .8-.1 1.3v2.4h4.1c.4 0 .7.2.8.5v.4c0 .4-.1.7-.1 1.1s-.1.7-.1 1.1c-.1.4-.4.5-.9.5-.6 0-1.2-.1-1.8-.1H128.6V20.1c.5 0 1.1-.1 1.6-.1h2.4c.6 0 1 .1 1.2.2-.2.3-.1.5 0 .8z"/>
  <path class="st0" d="M142.4 7.7c-.3-.1-.4-.3-.4-.6s0-.5.1-.6v-.7-.7c0-.2-.1-.4-.1-.4-.1-.2-.1-.3-.2-.4s-.2-.3-.4-.4c-.2-.2-.5-.2-.9-.2-.4.1-.7.2-1 .5-.1.1-.2.3-.2.5s-.1.4-.1.6v1.1c.1.8.4 1.6.9 2.2.2.3.4.6.7.9.2.3.5.6.7 1 .3.4.6.8.8 1.2.3.4.6.8.7 1 .2.2.4.5.6.8.7.9 1.2 1.8 1.6 2.8.4 1 .6 2 .7 3.1V21c-.1 1.3-.6 2.4-1.7 3.2-.1.1-.2.1-.2.2l-.2.2c-.3.2-.7.4-1 .6-.3.1-.7.2-1.2.2h-1.3c-.4 0-.8-.1-1.2-.2-.3-.1-.6-.2-.8-.3-.2-.1-.5-.3-.8-.6-.2-.2-.4-.4-.7-.6-.2-.2-.4-.4-.6-.7 0-.1-.1-.2-.1-.2s-.1-.2-.1-.3c-.2-.4-.3-.9-.4-1.3s-.2-.9-.2-1.4V19c0-.3 0-.6.1-.8s.1-.5.1-.7.1-.3.1-.4c.2-.3.4-.5.8-.5h.3c.6.1 1.2.3 1.8.5.2.1.4.2.4.3.1.1.1.3.1.5 0 .3-.1.6-.1.9v1c0 .4.1.8.1 1.1s.2.6.4.8c.2.2.6.3.9.4.4.1.8 0 1.1-.3.2-.2.4-.4.6-.7.1-.3.2-.6.2-.9 0-.4 0-.8-.1-1.2-.1-.4-.3-.8-.4-1.1-.2-.4-.4-.7-.6-1.1-.2-.3-.5-.7-.7-1.1-.2-.3-.4-.6-.6-1-.2-.3-.4-.7-.6-1-.2-.2-.3-.5-.4-.7s-.3-.5-.5-.7c-.3-.4-.6-.8-.8-1.1-.2-.3-.4-.7-.5-1 0-.1-.1-.2-.2-.3s-.1-.2-.2-.3c-.4-.6-.7-1.3-.9-1.9s-.3-1.4-.3-2.1c-.1-.9 0-1.7.2-2.5.2-.6.5-1.1 1-1.5.7-.5 1.5-.9 2.4-1 .7-.1 1.4-.1 2.1 0 .7.1 1.4.3 2 .7.3.2.6.5.9.8.3.3.5.6.7 1.1.1.3.2.5.2.8s.1.6.2.9v2.2c0 .8-.4 1.1-1.2 1.1h-1.3c-.1-.5-.2-.5-.3-.5z"/>
  <path class="st0" d="M151.6.3c.3.2.5.5.7.9.2.4.2.9.1 1.3 0 .4-.1.6-.3.8s-.4.4-.7.6c-.1.1-.3.1-.5.1s-.4.1-.6.1c-.4 0-.9-.2-1.3-.5s-.6-.7-.7-1.1c-.1-.8.1-1.5.7-2 .7-.6 1.5-.7 2.4-.4.1.1.2.1.2.2zm.5 23.4c0 .1 0 .3.1.4 0 .1 0 .3.1.4.1.2.1.4 0 .7-.1.3-.3.4-.5.4-1 .1-1.9.1-2.8 0-.2 0-.4-.2-.4-.5 0-.2-.1-.5-.1-.8v-.9c0-.8.1-1.5.1-2.3 0-.7 0-1.5.1-2.2v-1-1-1.4-1.4-1.2V11 9.1 7.8v-.7-.7V6v-.4c0-.2.2-.3.4-.4h1.4c.3 0 .7 0 1 .1.2 0 .4.1.5.2.1.1.1.3.1.4v17.8z"/>
  <path class="st0" d="M163.6.7c.1.2.2.4.4.7.1.3.2.8.1 1.3-.1.3-.1.4-.2.5 0 .1-.1.2-.2.2s-.2.1-.3.2c-.1.1-.3.2-.5.3-.2.1-.3.2-.4.2l-.2.2s-.1.1-.2.1-.2.1-.3.2c-.6.4-1.2 1-1.7 1.7s-.9 1.5-1.3 2.5c-.1.2-.2.4-.2.6-.1.2-.1.4-.2.6-.4 1.5-.5 2.9-.3 4.3v.7c0 .2.1.4.2.8.1.3.2.6.3 1s.2.6.3.9c.1.3.2.5.3.6.3.7.7 1.3 1 1.7.3.5.8.9 1.4 1.2.4.3.7.5 1 .5.2.1.5.2.7.2h.1c.2.1.4.2.5.2.1.1.1.2.1.5s0 .6-.1 1-.1.7-.3 1c-.3.6-.7 1-1.4 1h-.4c-1.1-.3-2.3-1-3.7-2.3-1.2-1.1-2-2.3-2.5-3.5-.5-1.2-.8-2.2-.9-3.1-.1-.5-.2-1-.2-1.5 0-.4 0-.8-.1-1.1v-.3-1c0-.3 0-.7.1-1v-.3-.3c0-.7.1-1.5.4-2.4.1-.5.3-1 .4-1.5.2-.4.3-.8.5-1.2.8-1.6 1.6-2.8 2.4-3.5l.4-.4c.3-.3.6-.5.8-.7.2-.2.5-.4.7-.5.2-.1.5-.3.7-.4s.6-.2.9-.3c.5-.2.9-.2 1.2-.1.2.1.4.2.5.4.2 0 .2 0 .2.1z"/>
  <path class="st0" d="M170 .3c.3.2.5.5.7.9.2.4.2.9.1 1.3 0 .4-.1.6-.3.8s-.4.4-.7.6c-.1.1-.3.1-.5.1s-.4.1-.6.1c-.4 0-.9-.2-1.3-.5s-.6-.7-.7-1.1c-.1-.8.1-1.5.7-2 .7-.6 1.5-.7 2.4-.4.1.1.2.1.2.2zm.5 23.4c0 .1 0 .3.1.4 0 .1 0 .3.1.4.1.2.1.4 0 .7-.1.3-.3.4-.5.4-1 .1-1.9.1-2.8 0-.2 0-.4-.2-.4-.5 0-.2-.1-.5-.1-.8v-.9c0-.8.1-1.5.1-2.3 0-.7 0-1.5.1-2.2v-1-1-1.4-1.4-1.2V11 9.1 7.8v-.7-.7V6v-.4c0-.2.2-.3.4-.4h1.4c.3 0 .7 0 1 .1.2 0 .4.1.5.2.1.1.1.3.1.4v17.8z"/>
  <path class="st0" d="M180.7 6V21.3c0 .1 0 .2-.1.3 0 .1-.1.2-.2.2h-.8c-.2 0-.4-.1-.6-.1s-.4-.1-.5-.1c-.1 0-.3-.1-.5-.2-.3-.1-.6-.3-1.1-.5-.5-.3-.9-.6-1.1-.9-.3-.3-.5-.6-.7-.9-.3-.4-.5-.7-.7-1-.2-.3-.3-.7-.5-1.2-.1-.2-.1-.5-.2-.8 0-.4-.1-.7-.1-1.1 0-.4-.1-.7-.1-1v-.6-1.2c.1-.4.1-.8.2-1.2 0-.2.1-.4.2-.6.1-.2.1-.4.2-.6.1-.3.2-.6.4-.9.2-.3.4-.7.6-1 .2-.2.3-.4.4-.6.1-.2.2-.3.4-.4s.3-.3.4-.4.3-.2.5-.4c.4-.2.8-.5 1.3-.8.5-.3 1-.5 1.5-.5.4 0 .8 0 1.1-.1.3 0 .4 0 .4.1.1 0 .1.1.1.3 0 .2.1.3.1.5v.5c-.6-.2-.6-.1-.6-.1zm8.8 6.9v1.2c-.1.4-.1.8-.2 1.2 0 .2-.1.4-.1.6-.1.2-.1.4-.2.6-.1.3-.2.6-.4.9-.2.3-.3.7-.5 1-.2.2-.3.5-.5.6s-.3.3-.4.4c-.1.1-.2.2-.4.3-.1.1-.3.2-.5.4-.4.2-.8.5-1.3.8s-1 .5-1.4.5c-.4 0-.8.1-1.1.1-.3 0-.4 0-.4-.1-.1 0-.1-.1-.1-.3s-.1-.3-.1-.5v-.5-.3-1.5-1.6-1.4-.8-1.2-1.6-1.4-.7-.7-1.3-1.3-.7-.5-.5-.3c0-.1.1-.2.2-.2h.9c.4 0 .8.1 1.1.3.1 0 .3.1.5.2.3.1.6.3 1.1.5.5.3.9.6 1.1.9.3.3.5.6.7.9.3.4.5.7.7 1 .2.3.3.7.5 1.2.1.2.1.5.2.8s.1.7.2 1.1.1.7.1 1 .3.8.3.9z"/>
  <path class="st0" d="M195 11.3c-.1-.1-.1 0-.2.2V14.3c0 .4.1.9 0 1.3v8.3c0 .2 0 .4-.1.6 0 .2-.1.4-.2.6-.1.2-.3.4-.5.4-.5 0-1 .1-1.4 0-.4 0-.8-.1-1.2-.2-.1 0-.1-.1-.2-.1s-.2-.1-.2-.1c-.2-.1-.3-.2-.3-.4v-.5-.9-.9-.5-1.1c0-.6 0-1.3.1-2v-2.3-2.2c0-.3 0-.7-.1-1.4 0-.7 0-1.3-.1-2v-2-1.2V6 4.9v-3-.6c0-.2.1-.4.1-.6 0-.2.1-.3.3-.4.2 0 .3-.1.5-.1s.3-.1.5-.1h2.2c.1 0 .2 0 .5.1.2 0 .3.2.4.5l.3.9c.1.3.1.7.2 1.1.1.4.1.7.2.9.2.5.3 1 .4 1.5.1.5.3 1 .4 1.5 0 .1.1.4.2.8s.2.8.3 1.3c.1.5.3 1 .4 1.6.1.6.3 1.1.4 1.7.1.5.2 1 .4 1.4.1.4.2.7.2.9s.1.3.1.5c.1.2.1.4.2.6.1.1.1 0 .2-.1 0-.2.1-.4.1-.7v-1.1-1.2-1-1.6V9v-.9-.9-.7c0-.4 0-.8-.1-1.2 0-.3-.1-.8-.1-1.2V2.8 1.7v-.3-.3c0-.1.1-.3.2-.4.1-.1.3-.2.7-.3.1 0 .2 0 .4-.1s.4 0 .6-.1h1.1c.3 0 .5.1.7.3.2.2.2.4.2.6 0 .5-.1 1-.1 1.5v11.5c0 .5 0 1-.1 1.5V24.5c0 .3-.1.5-.1.5 0 .2-.2.3-.4.4-.2.1-.4.1-.6.1h-1.9c-.1 0-.3-.1-.5-.1s-.4-.1-.5-.2c-.4-.2-.5-.4-.6-.8 0-.6-.1-1.2-.3-1.8-.2-.6-.3-1.2-.3-1.8-.2-1.1-.4-2.2-.7-3.3-.3-1.1-.6-2.2-.8-3.3-.1-.5-.2-1-.4-1.4-.2-.6-.4-1-.5-1.5z"/>
  <g>
    <path class="st0" d="M59.1 8c.9 1 1.6 2 2.2 3.3.1.2.1.5.2.7.1.2.1.4.2.6.1.5.1 1-.1 1.5-.3.7-.7 1-1.4 1-.5 0-.9-.3-1.3-.6-.4-.4-.5-.8-.4-1.3.1-.5.1-1-.1-1.5-.2-.4-.4-.9-.7-1.3-.6-.8-1.3-1.3-2.1-1.6-.8-.3-1.7-.3-2.6-.2-1 .2-1.8.8-2.2 1.7-.2.4-.5.8-.9 1.2-.3.3-.7.6-1.1.9-.2.1-.3.3-.5.4-.2.1-.4.2-.6.4-.8.5-1.8.7-2.7.4-1.3-.4-2.4-.9-3.4-1.7-.9-.8-1.7-1.8-2.2-3.1-.4-.9-1-1.6-1.8-2.1-.5-.3-.9-.2-1.3.3-.2.2-.3.4-.4.7-.1.2-.2.4-.4.7-.5.9-1.1 1.6-1.9 2.3-.6.5-1.1.9-1.5 1.2-.4.3-.8.4-1.2.5-.4.1-.8.1-1.2 0-.4-.1-.9-.2-1.6-.4-1.3-.4-2.2-1.2-3-2.3-.1-.3-.3-.5-.4-.8-.2-.2-.3-.5-.5-.7-.2-.3-.5-.6-.8-.9-.3-.3-.7-.5-1.1-.7-.8-.5-1.3-.6-1.6-.4-.2.1-.6.4-.9.9-.2.3-.4.5-.6.8-.2.2-.4.5-.6.7l-.6.6-.6.6c-.8.7-1.8 1-2.8.6-.7-.2-1.4-.5-2-.9-.6-.4-1.2-.8-1.7-1.3-.2-.2-.4-.3-.5-.5l-.3-.6c0-.3-.1-.6-.3-.9-.1-.3-.2-.5-.4-.8-.3-.5-.7-.9-1.2-1.1-1.1-.3-2.1-.1-3 .5-.9.6-1.4 1.4-1.6 2.6 0 .6-.2 1.1-.4 1.5-.3.5-.8.7-1.3.6-.4-.1-.8-.3-1.2-.7-.4-.5-.7-.9-.7-1.1 0-.2.1-.6.5-1.2.2-.4.4-.7.6-1.1.2-.3.4-.7.5-1 .3-.6.8-1.2 1.4-1.7.7-.6 1.4-1 2.2-1.1.8-.2 1.6-.3 2.5-.3.9 0 1.8.3 2.5.6.7.4 1.3 1.1 1.6 2.2.2.5.4.9.6 1.3.2.4.6.7 1 1.1.8.7 1.3 1 1.8.9.4-.1.9-.5 1.4-1.2.4-.5.8-1 1.2-1.4.4-.4.9-.8 1.4-1.2.7-.6 1.5-.9 2.4-.8.9 0 1.6.3 2.3.9.5.5 1 .9 1.5 1.5.5.5.9 1.1 1.3 1.8.2.6.6 1 1 1.3.4.3.9.5 1.5.7.3.1.5.1.6.1.1 0 .4-.1 1-.3.4-.1.8-.4 1.1-.9.3-.5.6-1 .8-1.5.3-.5.6-1.1.9-1.6.3-.5.8-.9 1.3-1 1-.3 1.9-.4 2.8-.3.9.1 1.7.5 2.5 1.2.4.5.8.9 1.2 1.3.4.4.6 1 .8 1.6.2.8.5 1.4 1.1 1.8.5.4 1.2.7 1.9.9.7.2 1.3 0 1.7-.4.3-.3.6-.5.8-.8.3-.3.5-.6.7-.9.8-1.2 1.8-1.9 3.2-2.3 1.4-.4 2.7-.4 4-.1 1.5.5 2.6 1.2 3.5 2.2z"/>
  </g>
  <g>
    <path class="st0" d="M230.6 5.8c1.3-.3 2.6-.3 4 .1s2.4 1.1 3.2 2.3c.2.3.5.6.7.9.3.3.5.6.8.8.4.4 1 .6 1.7.4.7-.2 1.4-.5 1.9-.9s.9-1 1.1-1.8c.1-.6.4-1.2.8-1.6.4-.4.8-.9 1.2-1.3.8-.7 1.6-1.1 2.5-1.2.9-.1 1.8 0 2.8.3.5.2 1 .5 1.3 1 .3.5.6 1 .9 1.6.3.5.6 1 .8 1.5.3.5.6.8 1.1.9.5.2.8.3 1 .3.1 0 .3 0 .6-.1.6-.2 1.1-.4 1.5-.7.4-.3.8-.7 1-1.3.4-.7.8-1.2 1.3-1.8l1.5-1.5c.7-.6 1.4-.9 2.3-.9.9 0 1.7.3 2.4.8.5.4 1 .8 1.4 1.2.4.4.9.9 1.2 1.4.5.7.9 1.1 1.4 1.2.4.1 1-.2 1.8-.9.4-.3.7-.7 1-1.1.2-.4.5-.8.6-1.3.3-1 .8-1.8 1.6-2.2.7-.4 1.6-.6 2.5-.6.9 0 1.7.1 2.5.3.8.2 1.5.6 2.2 1.1.6.5 1.1 1.1 1.4 1.7.2.3.3.7.5 1 .2.3.4.7.6 1.1.4.6.5 1 .5 1.2 0 .2-.3.6-.7 1.1-.3.4-.7.6-1.1.7-.6.1-1-.1-1.3-.5-.3-.4-.4-.9-.5-1.6-.1-1.1-.7-2-1.5-2.6-.9-.6-1.9-.8-3-.5-.6.2-1 .6-1.2 1.1-.2.3-.3.5-.4.8-.1.3-.3.6-.4.8l-.3.6c-.1.2-.2.4-.5.5-.5.5-1.1.9-1.7 1.3-.6.4-1.3.7-2 .9-1 .3-2 .1-2.8-.6l-.6-.6-.6-.6c-.2-.3-.4-.5-.6-.7-.2-.2-.4-.5-.6-.8-.4-.5-.7-.8-.9-.9-.2-.1-.8 0-1.6.3-.4.2-.8.4-1.1.7-.3.3-.6.6-.8.9-.2.2-.3.4-.5.7-.2.2-.3.5-.4.8-.7 1.1-1.7 1.9-3 2.3-.6.2-1.2.3-1.6.4-.4.1-.8.1-1.2 0-.4-.1-.8-.2-1.2-.5-.4-.3-.9-.6-1.5-1.2-.8-.7-1.4-1.4-1.9-2.3-.2-.2-.3-.4-.4-.7-.1-.2-.2-.4-.4-.7-.3-.5-.8-.6-1.3-.3-.8.5-1.4 1.2-1.8 2.1-.5 1.3-1.2 2.3-2.2 3.1-.9.8-2.1 1.4-3.4 1.7-1 .3-1.9.1-2.7-.4-.2-.1-.4-.3-.6-.4-.2-.1-.4-.2-.5-.4-.4-.3-.8-.6-1.1-.9-.3-.3-.6-.7-.9-1.2-.4-1-1.2-1.5-2.2-1.7-.9-.2-1.8-.1-2.6.2-.8.3-1.5.8-2.1 1.6-.3.4-.6.8-.7 1.3-.2.4-.2.9-.1 1.5.1.5 0 .9-.4 1.3s-.8.6-1.3.6c-.7 0-1.2-.3-1.4-1-.2-.5-.2-1-.1-1.5.1-.2.2-.4.2-.6.1-.2.1-.4.2-.7.6-1.2 1.3-2.3 2.2-3.3.9-.8 2-1.5 3.5-2z"/>
  </g>
</svg>